<svg xmlns="http://www.w3.org/2000/svg" viewBox="0 0 24 24"><g fill="none"><path fill="url(#SVGTiv9wefK)" d="M15.448 3.855c.135 0 .276.017.422.028c.81.056 2.83.208 3.128 1.181c.067.214.123.422.168.636c.732 3.093 1.182 6.13 1.817 9.927c0 .068.017.14.017.214c-.169 1.777-2.149 2.036-3.544 2.036l-4.19.028c-2.171-.045-3.037-.011-5.895 0c-1.395 0-3.723-.011-4.303-1.535a7.5 7.5 0 0 1-.056-1.44c.534-3.578 1.249-6.412 1.772-9.523a1.3 1.3 0 0 1 .13-.394a.4.4 0 0 1 .112-.146c1.046-.9 2.852-1.001 4.15-1.012h.226c2.014.056 4.033-.045 6.046 0"/><path fill="#080210" d="m15.386 4.666l-1.293-.006l-5.248.011a3.4 3.4 0 0 0-.585.034c-.422.073-.782.343-1.198.45c-.315.085-.568.152-.641.602a76 76 0 0 0-.36 2.66c-.26 2.15-.535 4.292-.81 6.435c0 .146-.023.304.028.45c.393.478.692.675 1 .821c.18.085.344.135.507.158a8 8 0 0 0 1.176.073c2.469.028 4.449.028 6.67.028c.8-.006 1.598.023 2.391-.05c.478-.04 1.553-.484 1.76-.974c.113-.264.034-.562-.022-.832a66 66 0 0 1-.888-5.878l-.338-2.694a15 15 0 0 0-.073-.428c-.101-.562-1.474-.855-2.076-.86"/><path fill="url(#SVGkkxgDdOH)" d="M9.255 6.393a20 20 0 0 1 1.395-.006h2.458c.664 0 1.339-.039 2.003.017c.112.006.225.034.348.08c.214.083.422.185.625.297c.124.068.27.158.287.293q.069.465.078.939c0 .096-.737.135-.843.191l-.073-.815c-.09-.029-.197-.08-.282-.096c-.112-.017-.883-.09-.984-.22c-.09-.112-.112-.28-.169-.416H9.823c-.061.012-.106.276-.118.338a.07.07 0 0 1-.056.05l-1.243.35c-.073.241-.034.505-.056.747c-.276 0-.546-.073-.821-.084c0-.36.016-.68.067-.973c.045-.259.776-.546 1.001-.619a2 2 0 0 1 .658-.073m5.288.208c-.028.113-.017.298.123.332c.13.034.242 0 .338-.084c.056-.051.045-.113.017-.17a.45.45 0 0 0-.484-.078zM8.9 6.657c-.112.299.259.405.439.197c.236-.287-.36-.422-.439-.202z"/><path fill="url(#SVGTqJrfdBI)" d="M14.576 7.37c.244.114.508.18.777.192c.016.174.151.72-.068.838l-.366.264l-1.715 1.283a.2.2 0 0 1-.023-.073a2.4 2.4 0 0 1 .006-.394l.208-.174c.101-.102.158-.242.253-.36q.314-.246.568-.54c.023.005.017.016 0 0c-.225-.057-.444-.17-.646-.164c-.293.473-.89.861-1.345 1.16l-.197.14c-.056.062-.118.017-.168-.028c-.456-.372-.945-.698-1.373-1.103l-.022-.09c-.017-.079-.17-.05-.226-.05q-.27.059-.522.05q.067.128.236.281c.034.034.349.394.41.507q.17.329.383.64c.056.096.067.17 0 .265q-.017-.033-.068-.056c-.73-.472-1.462-1.136-2.092-1.66l.017-.657c.298-.096.59-.175.894-.254c.056-.016.101-.028.169.023c.112.101.225.197.349.281l.995.754l1.001.748c.625-.467 1.907-1.53 2.565-1.822m-.433.479q-.027-.129.124-.13l.146.023c.04.011.304.056.281.112l-.005.012c-.034.028-.09.09-.13.09a1.2 1.2 0 0 1-.28 0c-.074 0-.119-.04-.136-.107"/><path fill="#080210" d="m14.267 7.719l.147.022l.27.09a.02.02 0 0 1 .01.028l-.005.006l-.113.084a1.5 1.5 0 0 1-.292.012q-.117-.01-.14-.113c-.017-.084.022-.13.123-.13"/><path fill="url(#SVGFnEtOe2w)" d="M16.697 7.658c.034.27.203 1.327.282 1.637c.196.028.511 0 .64.028l-.185-1.817"/><path fill="url(#SVGsDeebcCu)" d="M16.443 8.153c-.067-.096-.703-.05-.731.079c-.045.259.096 1.457.281 1.462c.073.006.726 0 .732-.101c-.096-.315-.068-1.153-.282-1.44"/><path fill="url(#SVGTbe2WdWO)" d="M7.529 8.062c.084.13-.068 1.091-.107 1.372q.304-.027.607.056c.203-.95.298-1.124.298-1.344c-.213-.067-.528-.079-.798-.09z"/><path fill="#fff" d="M10.2 8.9c.405.332.968.534 1.322.94c.09.106-.113.303-.203.382c-.59.54-1.203 1.035-1.743 1.637q-.255.286-.416.438c-.017.011-.034 0-.029-.022l.113-.152a16.4 16.4 0 0 0 1.502-2.11c.067-.09.056-.168 0-.264q-.274-.42-.546-.843z"/><path fill="#b364b4" d="M9.132 12.277v.005c0 .006 0 .011.011.011h.017c-.113.113-.236.226-.191.36c.033.096.112.158.107.293c-.006.04-.17.461-.203.534c-.157.124-.23.068-.343-.337c-.006-.045.028-.101.05-.14c.096-.198.203-.383.276-.563a.2.2 0 0 0 .011-.113c-.01 0-.05-.017-.067 0c.062-.472.101-.945.163-1.417c.011-.13.028-.276.028-.405c.017.461.006.917-.028 1.378c-.011.135 0 .366 0 .546c0-.006-.017.01 0 0l.169-.158z"/><path fill="#4b4450" d="M12.433 10.571a1.2 1.2 0 0 0-.427-.28c.09.112.084.218-.017.309c-.057.05-.22.151-.377.32l-.084.096c.376-.248.438-.259.787.034c.506.421 1.03.81 1.513 1.26c.18.01.371-.034.557-.017q.118.009.169-.057a7 7 0 0 0-.709-.59c-.484-.338-.9-.777-1.406-1.069z"/><path fill="#030109" d="m16.489 11.578l.084.506c0 .096 0 .186.017.282c.045.275.073.562.112.82l.045.158c.062.276.135.546.208.816a.25.25 0 0 1 0 .13a.5.5 0 0 1-.084.129q-.026-.018-.011-.068v-.015l-.006-.013a4 4 0 0 1-.422-.383a2.7 2.7 0 0 0-.484-.466l-.129-.113c.152.017.27-.006.366-.084l.01-.017l-.005-.023a.5.5 0 0 0-.135-.13l-.14-.1a2.7 2.7 0 0 1-.433-.462q-.04-.057.028-.056c.01 0 .022.006.045.034q.353.298.697.607c.068.057.158.085.152.197q-.001.16.011.32l.017.024a.03.03 0 0 0 .04 0l.005-.018a5.6 5.6 0 0 0-.028-.922l-.062-.562a9 9 0 0 1-.006-.844c0-.028.006-.04.023-.045c.011 0 .023.006.023.017z"/><path fill="url(#SVG2Vc2Le4s)" d="M16.478 10.16c-.175 1.188.056 2.313 0 3.488c0 .045-.602-.573-.692-.652c-.011-.996-.146-2.284-.146-3.268l.843.433z"/><path fill="url(#SVGd6tVDdRn)" d="M11.99 10.593q.15-.128.016-.298a.14.14 0 0 0-.113.005a3.6 3.6 0 0 0-.483.338c-.608.5-1.232 1.04-1.125.967l-.248.186c.085.101.237.202.371.202a119 119 0 0 0 1.581-1.394z"/><path fill="url(#SVGPAajyefs)" d="M8.513 9.515c-.045.197-.18.349-.225.54c-.158.731-.102 1.547-.08 2.29a.37.37 0 0 1-.14.28a7 7 0 0 0-.365.338c-.09.084-.321.214-.62.928c-.005 0-.016 0-.027.011l-.034.04c.079-1.142.191-2.43.506-3.544c.034-.096.124-.174.225-.23c.445-.27.59-.468.776-.929a1 1 0 0 1-.01.281z"/><path fill="#500770" d="m17.159 11.505l.028.118c.056.72.152 1.44.219 2.16a1 1 0 0 1-.005.191c-.096.023-.338.057-.327.18l-.388-2.278l-.011-.146c.124.253.506-.022.484-.225"/><path fill="url(#SVGpt19Xd9D)" d="M16.815 9.705c.557 1.356.242 2.925.63 4.309c.08.034.636.197.861.253c-.169-1.198-.208-2.992-.748-4.112c-.079-.067-.563-.528-.743-.45"/><path fill="url(#SVG5hJetbPV)" d="M7.107 9.768c-.056.422-.574 4.286-.625 4.308c-.247.107-.444.316-.714.338c-.101.011-.101.011-.146-.079v-.01c.185-1.272.343-2.566.63-3.826c.011-.056.056-.146.112-.28c.085-.074.568-.535.748-.45z"/><path fill="url(#SVGxnXqZdDf)" d="m13.648 8.946l-.107.157c-.045.073-.09.146-.146.203l-.208.18a1.8 1.8 0 0 0 0 .388c.45.753 1.423 2.16 2.025 2.7c-.034-.136-.04-.265-.045-.31c-.017-.36-.101-.731-.146-1.091l.01-.23v-.012c.012-.011.029-.005.035.006l.253 1.535c.022.152.05.265.073.338c.022.09.056.168.101.225c.09.118.197.213.31.315l.146.123a.5.5 0 0 1-.135.152a.4.4 0 0 1-.287.096l-2.453.022h-.72l-2.238-.017c-.473 0-1.03 0-1.665-.016c-.191-.006-.32-.113-.422-.242l.169-.163c.14-.113.31-.259.349-.45a.9.9 0 0 1 .18-.383c.005-.011.123-.242.14-.14a.24.24 0 0 1-.011.112c-.18.439-.495 1.069.292 1.125h.467q3.099-.016 4.399 0c.388.011.787.045 1.153-.09a.205.205 0 0 0 .152-.208c0-.236-.135-.58-.32-.76a30 30 0 0 1-.715-.747c-.338-.366-.664-.732-1.046-1.041a4.2 4.2 0 0 1-.827-.844c.32-.388.843-.63 1.237-.933"/><path fill="#761594" d="M14.999 12.512c.197.186.32.5.32.76q0 .149-.152.208c.029-.034.034-.062.012-.074a.55.55 0 0 1-.304-.444c-.017-.14.073-.315.124-.45"/><path fill="#7a4b90" d="M8.03 13.468c.039.056.05.073.033.062c.05.096.062.18.045.248c-.062.253-.174.776-.428.928a1.6 1.6 0 0 1-.568-.394zm7.919.006c.298.225.77.602.973.917c-.191.19-.326.393-.664.393a.35.35 0 0 0-.028-.157a4.6 4.6 0 0 1-.416-1.001a.44.44 0 0 0 .135-.152"/><path fill="url(#SVGYKeLYbqs)" d="M16.444 10.556a2 2 0 0 0-.062-.186c-.023 0-.056-.011-.062.017v.017c.067.258.112.506.124.753l.045.422c.14.866.242 1.744.467 2.588a.23.23 0 0 1 0 .123c-.158.372-.675.518-1.035.524c-.4.005-.8.01-1.198.005a1216 1216 0 0 0-6.334-.017c-.287 0-.495-.011-.709-.095a1.6 1.6 0 0 1-.568-.394c-.056-.023-.078-.05-.056-.113l.056-.28c-.022-.057-.067 0-.09.022c-.073.748-.793 1.232-1.293 1.732a.07.07 0 0 0-.02.048a.07.07 0 0 0 .02.048l.258.236c.09.056.186.096.293.112L6.336 16c.26-.243.435-.565.495-.917q.017-.084.203-.067c3.087-.158 6.215-.017 9.303-.023l.731.012l.225-.012c.023.31.225.951.529 1.12c.011 0 .005.017-.011.034q.38-.11.658-.355l-.332-.304c-.326-.427-.495-.59-.866-.928a.64.64 0 0 1-.197-.405c-.203-1.186-.338-2.43-.63-3.6"/><path fill="#0c0116" d="M20.983 15.897q-.008-.015-.017 0c-.028.299-.163.535-.31.793c-.443.771-1.726 1.075-2.575 1.165l-10.777.034c-1.508.005-3.679-.17-4.297-1.761c0 .366-.017 1.153.044 1.513l.017.248c-.005.72.293 1.18.675 1.743c.793-.236 1.71.9 2.464.394a.3.3 0 0 1 .157-.056c.405-.023.833 0 1.25.017c2.699.14 6.04-.012 8.7.017c.18.022.355.067.732.14c.652.023 1.93-.14 2.593-.422c.157-.067.259-.197.36-.32l.067-.08c.563-.674.8-1.788.912-2.699c.022-.23.033-.495 0-.726z"/><path fill="#e788ef" d="M7.023 5.345c-.045 0-.085 0-.113-.022c.146-.085.45-.253.585-.169c.023.011.023.05 0 .056a1.4 1.4 0 0 1-.472.135"/><path fill="#d55be6" d="M16.444 5.205c-.04.011-.056-.079-.006-.084c.045 0 .09 0 .135.01q.336.086.647.231a2.3 2.3 0 0 1-.77-.157z"/><path fill="url(#SVGWLwuGcfp)" d="M17.186 6.162c.197.247.417.956.237 1.293q-.036.059-.13.057a5 5 0 0 0-.714 0l-.05-.822a.11.11 0 0 0-.057-.09a8 8 0 0 1-.41-.236c-.197-.118-.209-.281-.226-.472c0-.028-.005 0-.01-.017c0-.05-.018-.073-.04-.085c-.073-.022-.208-.01-.287-.016l-1.159-.006q-2.192.018-4.376-.006c-.574.012-1.142.012-1.715-.01c-.028 0-.102.016-.113.055v.023c-.084.365-.163.652-.585.76c-.073.022-.107.044-.118.123q-.075.37-.118.776c0 .034-.023.056-.056.05l-.687-.055c-.095 0-.067-.192-.061-.242c.016-.225.05-.45.084-.675c.14-.799.979-.99 1.867-1.035h7.183c.535 0 1.21.225 1.541.63"/><path fill="url(#SVGbwt988gk)" d="M7.22 7.578a4 4 0 0 0-.704-.045c-.163.563-.225 1.165-.259 1.744c.124.05.62.084.748.084c.08-.168.22-1.563.22-1.783z"/><path fill="#211427" d="M9.835 7.78c.016.018.033.04.033.063a.26.26 0 0 1-.011.146l-.022.022a.34.34 0 0 1-.18.057a.3.3 0 0 1-.18-.04a.6.6 0 0 1-.186-.168a.04.04 0 0 1 .022-.057c.119-.033.417-.095.524-.022"/><path fill="url(#SVGeQpkWcYx)" d="M14.12 7.562c-.483-.118-.961-.326-1.462-.287c-.46.034-.928.006-1.383.012c-.518.005-1.07.326-1.356.337L12.006 9.2c.748-.49 1.417-1.08 2.115-1.637"/><path fill="#f2bfed" d="M13.688 12.282a.3.3 0 0 1 .124.056c.017.017.006.05-.023.056l-3.656.011c-.017 0-.04-.073-.028-.09q.015-.026.056-.028z"/><path fill="#202025" d="M6.797 18.26h1.294v1.558H6.797z"/><path fill="#333237" d="M8.22 18.26h1.958v1.558H8.221z"/><path fill="#d9d9d9" d="M10.308 18.26h1.76v1.558h-1.76z"/><path fill="url(#SVGdIKI47wn)" d="M10.308 18.26h1.76v1.558h-1.76z"/><path fill="url(#SVGfQYcEbqo)" d="M13.536 18.26h-1.31v1.558h1.31z"/><path fill="#353438" d="M13.732 18.26h1.8v1.558h-1.8z"/><path fill="#222224" d="M15.712 18.26h1.547l-.185 1.558h-1.362z"/><path fill="url(#SVGqFyzld0u)" d="m17.439 18.26l1.648-.151l-.147 1.378l-1.569.332z"/><path fill="url(#SVGJ8s9Me7l)" d="m19.206 18.012l1.046-.478l-.23 1.446l-.935.461z"/><path fill="url(#SVGIIJQob1Z)" d="m6.606 18.225l-1.293-.113l.151 1.547l1.142.158z"/><path fill="#d9d9d9" d="m5.144 18.046l-.844-.281l.191 1.54l.838.333z"/><path fill="url(#SVGefRyhbQM)" d="m5.144 18.046l-.844-.281l.191 1.54l.838.333z"/><path fill="url(#SVGabkXbbow)" d="m4.137 17.742l-.506-.394l.09 1.665l.573.197l-.157-1.463z"/><path fill="url(#SVGlDucUbsx)" d="m3.513 17.214l-.326-.45l.079 1.62l.247.422z"/><path fill="url(#SVGbUzU9bIH)" d="m20.454 17.41l.433-.72l-.348 1.52l-.377.635z"/><defs><linearGradient id="SVGTiv9wefK" x1="6.955" x2="21.557" y1="4.3" y2="17.724" gradientUnits="userSpaceOnUse"><stop offset=".2" stop-color="#feffff"/><stop offset="1" stop-color="#89888d"/></linearGradient><linearGradient id="SVGkkxgDdOH" x1="12" x2="12" y1="3.864" y2="20.159" gradientUnits="userSpaceOnUse"><stop stop-color="#a7a6ac"/><stop offset="1" stop-color="#6d7371"/></linearGradient><linearGradient id="SVGTqJrfdBI" x1="3.4" x2="21" y1="8.182" y2="8.119" gradientUnits="userSpaceOnUse"><stop offset=".17" stop-color="#80788b"/><stop offset=".32" stop-color="#edf1ee"/><stop offset=".58" stop-color="#f9fff9"/><stop offset=".78" stop-color="#626260"/></linearGradient><linearGradient id="SVGFnEtOe2w" x1="12" x2="12" y1="3.844" y2="20.158" gradientUnits="userSpaceOnUse"><stop stop-color="#48494f"/><stop offset="1" stop-color="#84619a"/></linearGradient><linearGradient id="SVGsDeebcCu" x1="11.975" x2="11.975" y1="3.85" y2="20.201" gradientUnits="userSpaceOnUse"><stop stop-color="#26272a"/><stop offset="1" stop-color="#82529c"/></linearGradient><linearGradient id="SVGTbe2WdWO" x1="12.056" x2="12.056" y1="3.843" y2="20.157" gradientUnits="userSpaceOnUse"><stop stop-color="#26272a"/><stop offset="1" stop-color="#82529c"/></linearGradient><linearGradient id="SVG2Vc2Le4s" x1="11.963" x2="11.963" y1="3.844" y2="20.172" gradientUnits="userSpaceOnUse"><stop stop-color="#d8a6e4"/><stop offset="1" stop-color="#59305d"/></linearGradient><linearGradient id="SVGd6tVDdRn" x1="19.59" x2="1.825" y1="3.827" y2="18.824" gradientUnits="userSpaceOnUse"><stop offset=".41" stop-color="#fbf5fa"/><stop offset=".87" stop-color="#451066"/></linearGradient><linearGradient id="SVGPAajyefs" x1="5.609" x2="6.15" y1="3.513" y2="20.344" gradientUnits="userSpaceOnUse"><stop offset=".11" stop-color="#edcff5"/><stop offset=".41" stop-color="#29282b"/></linearGradient><linearGradient id="SVGpt19Xd9D" x1="12.034" x2="12.034" y1="3.856" y2="20.158" gradientUnits="userSpaceOnUse"><stop stop-color="#d8a6e4"/><stop offset="1" stop-color="#59305d"/></linearGradient><linearGradient id="SVG5hJetbPV" x1="18.351" x2="17.808" y1="3.546" y2="20.349" gradientUnits="userSpaceOnUse"><stop offset=".11" stop-color="#edcff5"/><stop offset=".41" stop-color="#29282b"/></linearGradient><linearGradient id="SVGxnXqZdDf" x1="13.316" x2="21.573" y1="5.985" y2="12.42" gradientUnits="userSpaceOnUse"><stop offset=".08" stop-color="#fff"/><stop offset=".28" stop-color="#80748d"/><stop offset=".93" stop-color="#fae7f9"/></linearGradient><linearGradient id="SVGYKeLYbqs" x1="11.994" x2="11.994" y1="3.835" y2="20.159" gradientUnits="userSpaceOnUse"><stop stop-color="#b594b5"/><stop offset=".75" stop-color="#f9fefb"/><stop offset=".84" stop-color="#97729e"/></linearGradient><linearGradient id="SVGWLwuGcfp" x1="11.998" x2="11.998" y1="3.387" y2="20.151" gradientUnits="userSpaceOnUse"><stop stop-color="#a7a3a0"/><stop offset=".23" stop-color="#3a3b3d"/></linearGradient><linearGradient id="SVGbwt988gk" x1="12" x2="14.48" y1="11.988" y2="21.805" gradientUnits="userSpaceOnUse"><stop stop-color="#26272a"/><stop offset="1" stop-color="#82529c"/></linearGradient><linearGradient id="SVGeQpkWcYx" x1="11.988" x2="11.988" y1="3.837" y2="20.206" gradientUnits="userSpaceOnUse"><stop stop-color="#020107"/><stop offset=".63" stop-color="#670680"/></linearGradient><linearGradient id="SVGdIKI47wn" x1="18.412" x2="3" y1="11.971" y2="11.971" gradientUnits="userSpaceOnUse"><stop stop-color="#f2d9fd"/><stop offset=".26" stop-color="#6f5874"/></linearGradient><linearGradient id="SVGfQYcEbqo" x1="5.549" x2="21" y1="11.971" y2="11.971" gradientUnits="userSpaceOnUse"><stop stop-color="#f2d9fd"/><stop offset=".26" stop-color="#6f5874"/></linearGradient><linearGradient id="SVGqFyzld0u" x1="18.402" x2="2.999" y1="12.001" y2="12.001" gradientUnits="userSpaceOnUse"><stop offset=".09" stop-color="#f2d9fd"/><stop offset=".6" stop-color="#a27daa"/></linearGradient><linearGradient id="SVGJ8s9Me7l" x1="12.043" x2="12.043" y1="3.843" y2="20.158" gradientUnits="userSpaceOnUse"><stop stop-color="#fbebfa"/><stop offset=".48" stop-color="#dc69ef"/></linearGradient><linearGradient id="SVGIIJQob1Z" x1="5.661" x2="21" y1="12.026" y2="12.026" gradientUnits="userSpaceOnUse"><stop stop-color="#f2d9fd"/><stop offset=".81" stop-color="#a27daa"/></linearGradient><linearGradient id="SVGefRyhbQM" x1="12.049" x2="12.049" y1="3.794" y2="20.157" gradientUnits="userSpaceOnUse"><stop stop-color="#fbebfa"/><stop offset=".48" stop-color="#dc69ef"/></linearGradient><linearGradient id="SVGabkXbbow" x1="12" x2="12" y1="3.793" y2="20.157" gradientUnits="userSpaceOnUse"><stop stop-color="#fbebfa"/><stop offset=".71" stop-color="#dc69ef"/></linearGradient><linearGradient id="SVGlDucUbsx" x1="12" x2="12" y1="3.843" y2="20.158" gradientUnits="userSpaceOnUse"><stop stop-color="#fbebfa"/><stop offset="1" stop-color="#dc69ef"/></linearGradient><linearGradient id="SVGbUzU9bIH" x1="20.522" x2="20.522" y1="16.691" y2="18.845" gradientUnits="userSpaceOnUse"><stop stop-color="#fbebfa"/><stop offset="1" stop-color="#dc69ef"/></linearGradient></defs></g></svg>