<svg xmlns="http://www.w3.org/2000/svg" viewBox="0 0 24 24"><g fill="none"><path fill="url(#SVGZg5tncrj)" d="M19.744 9.697H21v6.28h-1.256z"/><path fill="url(#SVGAUUBoc4g)" d="m18.907 13.047l-3.14-5.023l-3.14 5.023h1.457l1.683-2.692l1.683 2.692z"/><path fill="#f15a38" d="m13.918 15.976l1.1-2.16h1.5l1.1 2.16l1.708-3.349H12.21z"/><path fill="url(#SVG2TCbCdTi)" fill-rule="evenodd" d="M8.441 11.703v1.926c.026.083.168.255.566.255c.49 0 1.109-.385 1.109-1.24c0-.849-.896-1.272-1.315-1.272h-.037a.326.326 0 0 0-.323.331m.252.23v1.444c.016.067.121.197.397.197c.348 0 .783-.293.783-.933s-.628-.959-.93-.959H8.92c-.126 0-.226.113-.226.251" clip-rule="evenodd"/><path fill="url(#SVGBqisBcqp)" fill-rule="evenodd" d="m3 11.254l1.256-.72h1.607l.904.87v1.407a3 3 0 0 1-.326.268c-.176.134-.335.255-.394.385h.72v1.675H3.494L3 14.909v-.922c.56-.401 1.725-1.297 1.921-1.657c-.096-.034-.774.192-1.096.31l-.46-.31zm.419-.017l1.025-.44h1.298l.607.683v1.1l-.72.922v.171h1.105v1.047H3.419v-.716c.435-.255 1.402-.92 1.783-1.54c-.071-.34-.264-.586-.419-.586c-.096 0-.536.142-.879.25l-.234.08z" clip-rule="evenodd"/><path fill="url(#SVGcDgtwd5m)" fill-rule="evenodd" d="M9.28 10.116H6.767v5.023h2.511a2.512 2.512 0 0 0 0-5.023m0 .418H7.185v4.186H9.28a2.094 2.094 0 0 0 0-4.186" clip-rule="evenodd"/><defs><linearGradient id="SVGZg5tncrj" x1="21" x2="3" y1="10.382" y2="10.382" gradientUnits="userSpaceOnUse"><stop offset=".32" stop-color="#f65c38"/><stop offset=".62" stop-color="#ed5438"/></linearGradient><linearGradient id="SVGAUUBoc4g" x1="15.648" x2="9.804" y1="11.404" y2="19.334" gradientUnits="userSpaceOnUse"><stop stop-color="#f55d39"/><stop offset="1" stop-color="#d43155"/></linearGradient><linearGradient id="SVG2TCbCdTi" x1="12" x2="12" y1="8.024" y2="15.977" gradientUnits="userSpaceOnUse"><stop stop-color="#523c70"/><stop offset="1" stop-color="#726cac"/></linearGradient><linearGradient id="SVGBqisBcqp" x1="5.28" x2="8.632" y1="9.049" y2="19.823" gradientUnits="userSpaceOnUse"><stop stop-color="#787bb1"/><stop offset=".43" stop-color="#40305f"/><stop offset="1" stop-color="#5a437c"/></linearGradient><linearGradient id="SVGcDgtwd5m" x1="9.279" x2="9.279" y1="10.116" y2="15.139" gradientUnits="userSpaceOnUse"><stop stop-color="#726cac"/><stop offset="1" stop-color="#523c70"/></linearGradient></defs></g></svg>