<?xml version="1.0" encoding="UTF-8" standalone="yes"?>
<svg width="418.5" height="96" viewBox="0 0 279 64" fill="none" xmlns="http://www.w3.org/2000/svg">
  <g id="tenant--nlbe" clip-path="url(#clip0_489_444)">
    <g id="2dehands">
      <path id="S" d="M262.04 25.99C262.03 31.07 278.91 28.75 278.9 40.07C278.89 46.52 273.4 49.8 266.34 49.8C260.44 49.79 255.92 47.11 254.2 44.99C253.65 44.3 253.38 43.69 253.38 42.86C253.38 41.08 254.89 39.57 256.68 39.57C257.37 39.57 258.05 39.78 258.81 40.4C260.66 41.91 262.92 43.22 266.35 43.22C269.44 43.22 271.43 42.4 271.43 40.48C271.44 34.92 254.63 37.79 254.64 26.13C254.65 19.96 259.79 16.94 266.1 16.95C270.97 16.95 275.29 18.81 277.21 21.21C277.62 21.76 277.9 22.24 277.89 23.27C277.89 25.05 276.38 26.56 274.59 26.56C273.63 26.56 273.01 26.15 272.26 25.6C270.75 24.5 268.9 23.4 266.09 23.4C263.55 23.38 262.04 24.27 262.04 25.99Z" fill="#00285A"/>
      <path id="D" d="M242.8 19.6601L242.82 3.88005C242.82 1.82005 244.47 0.180054 246.53 0.180054C248.59 0.180054 250.23 1.83005 250.23 3.89005L250.2 36.1901C250.19 45.3101 244.29 49.9001 235.99 49.8901C226.73 49.8801 221.32 44.5901 221.33 33.4101C221.34 22.2301 226.63 16.8901 235.27 16.8901C238.55 16.9101 241.43 18.2801 242.8 19.6601ZM242.79 26.7201C242.79 26.7201 240.12 23.2201 236 23.2201C231.34 23.2201 228.66 26.6401 228.65 33.4301C228.64 40.1501 231.25 43.5801 235.98 43.5901C239.96 43.5901 242.77 40.9201 242.78 36.1901L242.79 26.7201Z" fill="#00285A"/>
      <path id="N" d="M217.26 28.82L217.24 45.97C217.24 48.03 215.59 49.54 213.53 49.53C211.34 49.53 209.83 48.02 209.83 45.96L209.85 30.18C209.85 26.27 208.28 23.59 203.82 23.59C198.68 23.58 196.96 26.6 196.95 30.65L196.94 45.95C196.94 48.01 195.36 49.52 193.23 49.51C191.1 49.51 189.53 48 189.53 45.94L189.55 20.97C189.55 18.91 191.2 17.27 193.26 17.27C195.32 17.27 196.96 18.92 196.96 20.98C198.27 18.99 201.15 16.87 205.74 16.87C215.08 16.89 217.27 22.86 217.26 28.82Z" fill="#00285A"/>
      <path id="A" d="M163.76 26.0301C163.07 26.5101 162.52 26.7101 161.7 26.7101C159.92 26.7101 158.48 25.2701 158.48 23.4801C158.48 22.7301 158.76 21.9001 159.37 21.2201C161.29 19.0901 164.72 16.8401 170.62 16.8401C179.13 16.8501 184.2 21.0401 184.19 28.3101L184.17 45.8701C184.17 47.8601 182.52 49.5001 180.53 49.5001C178.54 49.5001 176.9 47.8501 176.9 45.8601C175.05 48.8101 172.03 49.8301 167.91 49.8301C161.19 49.8201 156.73 45.6401 156.74 39.4601C156.75 33.0801 161.89 29.7901 167.86 29.8001L176.85 29.8101V28.5801C176.85 25.4901 174.59 23.4301 170.61 23.4301C167.6 23.4301 165.47 24.8001 163.76 26.0301ZM176.85 37.4901V35.5701L168.83 35.5601C165.81 35.5601 164.16 37.0001 164.16 39.4701C164.16 42.0801 166.01 43.6601 169.85 43.6601C173.48 43.6601 176.84 41.3401 176.85 37.4901Z" fill="#00285A"/>
      <path id="H" d="M132.82 20.9201C134.13 18.9301 137.01 16.8101 141.6 16.8101C150.93 16.8201 153.12 22.7901 153.11 28.7601L153.09 45.9101C153.09 47.9701 151.44 49.4801 149.38 49.4701C147.19 49.4701 145.68 47.9601 145.68 45.9001L145.7 30.1201C145.7 26.2101 144.13 23.5301 139.67 23.5301C134.53 23.5201 132.81 26.5401 132.8 30.5901L132.79 45.8901C132.79 47.9501 131.21 49.4601 129.08 49.4501C126.95 49.4501 125.38 47.9401 125.38 45.8801L125.42 3.77007C125.42 1.71007 127.07 0.0700684 129.13 0.0700684C131.19 0.0700684 132.83 1.72007 132.83 3.78007L132.82 20.9201Z" fill="#00285A"/>
      <path id="E" d="M107.6 16.78C119.19 16.79 121.31 25.71 121.3 30.44C121.3 32.98 121.29 35.93 117.11 35.92L100.17 35.9C100.16 40.84 103.66 43.11 108.19 43.11C111.21 43.11 113.34 42.09 114.98 40.99C115.73 40.51 116.28 40.24 117.18 40.24C118.96 40.24 120.4 41.68 120.4 43.47C120.4 44.57 119.85 45.46 119.23 46.01C118.06 47.11 114.43 49.78 108.18 49.77C98.65 49.76 92.75 44.61 92.76 33.16C92.78 22.67 98.27 16.77 107.6 16.78ZM100.38 29.74L113.96 29.75C113.96 26.39 112.05 23.1 107.59 23.09C103.61 23.09 100.73 25.35 100.38 29.74Z" fill="#00285A"/>
      <path id="D_2" d="M81.5 19.5L81.52 3.72002C81.52 1.66002 83.17 0.0200195 85.23 0.0200195C87.29 0.0200195 88.93 1.67002 88.93 3.73002L88.9 36.03C88.89 45.15 82.99 49.74 74.69 49.73C65.43 49.72 60.02 44.43 60.03 33.25C60.04 22.07 65.33 16.73 73.97 16.73C77.25 16.75 80.13 18.13 81.5 19.5ZM81.5 26.57C81.5 26.57 78.83 23.07 74.71 23.07C70.05 23.07 67.37 26.49 67.36 33.28C67.35 40 69.96 43.43 74.69 43.44C78.67 43.44 81.48 40.77 81.49 36.04L81.5 26.57Z" fill="#00285A"/>
    </g>
    <g id="Coin">
      <path id="Circle Fade" d="M32 64C14.36 64 0 49.64 0 32C0 14.36 14.36 0 32 0C49.64 0 64 14.36 64 32C64 49.64 49.64 64 32 64ZM32 7.29C18.38 7.29 7.29 18.37 7.29 32C7.29 45.63 18.38 56.71 32 56.71C45.62 56.71 56.71 45.62 56.71 32C56.71 18.38 45.62 7.29 32 7.29Z" fill="url(#paint0_linear_489_444)"/>
      <path id="Circle" d="M11.95 55.7C11.02 55.7 10.08 55.34 9.37 54.63C3.33 48.58 0 40.55 0 32C0 14.36 14.36 0 32 0C40.55 0 48.58 3.33 54.63 9.37C56.05 10.79 56.05 13.1 54.63 14.53C53.21 15.95 50.9 15.95 49.47 14.53C44.8 9.86 38.6 7.29 32 7.29C18.38 7.29 7.29 18.37 7.29 32C7.29 38.6 9.86 44.81 14.53 49.47C15.95 50.89 15.95 53.2 14.53 54.63C13.82 55.34 12.88 55.7 11.95 55.7Z" fill="#FFBB00"/>
      <path id="2" d="M40.33 49.3199L23.65 49.2999C21.61 49.2999 19.96 47.6499 19.97 45.6099V43.4899C19.97 38.6499 24.23 36.0199 28.34 33.4799C31.75 31.3799 36.41 28.4999 36.41 25.7399C36.41 24.5399 36.41 22.0499 31.56 22.0499C29.04 22.0499 28.17 22.5699 26.25 23.7099C26.03 23.8399 25.8 23.9799 25.56 24.1199C23.8 25.1499 21.54 24.5499 20.52 22.7899C19.49 21.0299 20.09 18.7699 21.85 17.7499L22.49 17.3699C24.72 16.0499 27.03 14.6799 31.57 14.6799C39.11 14.6899 43.79 18.9299 43.79 25.7499C43.78 32.6199 37.1 36.7499 32.22 39.7599C31.35 40.2999 29.97 41.1499 28.89 41.9399L40.34 41.9499C42.38 41.9499 44.03 43.5999 44.02 45.6399C44.02 47.6799 42.37 49.3299 40.33 49.3199Z" fill="#FFBB00"/>
    </g>
  </g>
  <defs>
    <linearGradient id="paint0_linear_489_444" x1="0" y1="32" x2="63.9994" y2="32" gradientUnits="userSpaceOnUse">
      <stop offset="0.1087" stop-color="#FFBB00" stop-opacity="0"/>
      <stop offset="0.7907" stop-color="#FFBB00"/>
    </linearGradient>
    <clipPath id="clip0_489_444">
      <rect width="279" height="64" fill="white"/>
    </clipPath>
  </defs>
</svg>