<svg xmlns="http://www.w3.org/2000/svg" viewBox="0 0 24 24"><g fill="none"><path fill="#C87513" d="M12 21.412a9.411 9.411 0 1 0 0-18.823a9.411 9.411 0 0 0 0 18.823M12 22a10 10 0 1 0 0-20a10 10 0 0 0 0 20"/><path fill="url(#tokenBrandedAegis0)" d="M12 18.47a6.471 6.471 0 1 0 0-12.94a6.471 6.471 0 0 0 0 12.942m0 2.942a9.412 9.412 0 1 0 0-18.823a9.412 9.412 0 0 0 0 18.823"/><path fill="#000" d="M18.588 12a6.588 6.588 0 1 1-13.176 0a6.588 6.588 0 0 1 13.176 0M12 21.294a9.296 9.296 0 0 0 8.587-12.85A9.294 9.294 0 1 0 12 21.293M18.47 12a6.47 6.47 0 1 1-12.94 0a6.47 6.47 0 0 1 12.94 0m2.942 0a9.411 9.411 0 1 1-18.823 0a9.411 9.411 0 0 1 18.823 0"/><path fill="#E68500" d="M12 18.47a6.47 6.47 0 1 0 0-12.94a6.47 6.47 0 0 0 0 12.94"/><path fill="#000" d="M18.648 14.418a7.3 7.3 0 0 0 .364-1.5l1 .123c-.059.488-.17.965-.317 1.435l.459.147l.076-.252l.07-.26l.06-.252l.029-.13l.023-.135l.047-.259l.036-.259l.017-.135l.006-.059l.006-.07l.024-.265l-1.494-.094l.011-.224V12h.265v.236l1.488.041a8.6 8.6 0 0 1-.506 2.706l-.953-.347a7.2 7.2 0 0 0 .353-1.37l-.476-.077a7.4 7.4 0 0 1-.347 1.324z"/><path fill="#000" d="M17.412 16.541c.341-.394.623-.824.865-1.282l.894.458a7.6 7.6 0 0 1-.794 1.236l.388.294a8.5 8.5 0 0 0 1.076-1.812l-1.364-.6l.047-.1l.123-.317l.247.088l-.088.212l1.388.558l-.059.16l-.076.158l-.07.159l-.036.076l-.041.077l-.153.306l-.177.3q-.353.59-.794 1.13l-.776-.648c.306-.365.576-.759.806-1.17l-.424-.236a7.3 7.3 0 0 1-.776 1.124l-.2-.171z"/><path fill="#000" d="M15.53 18.118a6.6 6.6 0 0 0 1.252-.912l.683.74c-.359.33-.747.63-1.165.89l.259.411l.223-.141l.218-.153c.141-.1.276-.212.418-.324c.27-.223.53-.459.776-.717l-1.082-1.036l.153-.164l.147-.171l.206.17l-.153.177l1.123.994a9.3 9.3 0 0 1-2.13 1.736l-.51-.871a7.2 7.2 0 0 0 1.152-.824l-.318-.364a7 7 0 0 1-1.117.788l-.124-.224z"/><path fill="#000" d="M13.23 18.959a7.3 7.3 0 0 0 1.482-.43l.394.93a8 8 0 0 1-1.4.435l.1.476c.177-.04.341-.076.512-.129l.253-.07l.253-.089l.123-.041l.124-.047l.247-.1l.241-.106a1.6 1.6 0 0 0 .241-.118l-.664-1.335l.2-.1l.2-.117l.13.235l-.201.106l.706 1.317a8.9 8.9 0 0 1-2.594.906l-.177-.994a8 8 0 0 0 1.365-.376l-.176-.453a7 7 0 0 1-1.312.358zm-2.46 0c.513.094 1.03.123 1.548.1l.047 1.011c-.488.024-.982 0-1.47-.07l-.06.482l.26.035l.264.018l.136.012l.129.006l.265.006h.529l.53-.047l-.165-1.489c.147-.017.3-.029.447-.058l.047.253l-.23.04l.212 1.471a8.8 8.8 0 0 1-2.747-.03l.177-1c.464.083.94.118 1.411.118l-.011-.488c-.453 0-.912-.03-1.36-.111z"/><path fill="#000" d="M8.471 18.118c.441.264.918.47 1.412.629l-.294.965a8 8 0 0 1-1.36-.571l-.229.43l.236.117c.082.047.164.077.241.118c.082.035.159.076.241.106l.247.094l.253.094l.247.082l.259.07l.124.036l.129.035l.353-1.453l.218.048l.223.04l-.047.26l-.223-.042l-.3 1.465a8.8 8.8 0 0 1-2.577-.976l.506-.877c.412.235.841.435 1.288.588l.159-.458a7 7 0 0 1-1.241-.571l.13-.224z"/><path fill="#000" d="M6.589 16.541c.33.4.706.759 1.118 1.07l-.612.807a7.6 7.6 0 0 1-1.083-1l-.358.329a8.8 8.8 0 0 0 1.6 1.382l.829-1.247c.13.083.253.17.382.235l-.129.236l-.194-.118l-.788 1.265a8.6 8.6 0 0 1-2.083-1.794l.765-.647a8.5 8.5 0 0 0 1.018.988l.305-.37a8 8 0 0 1-.976-.965l.2-.171z"/><path fill="#000" d="M5.353 14.418c.177.488.412.953.689 1.388l-.848.547a8 8 0 0 1-.676-1.306l-.447.182l.047.124l.059.117l.106.247l.117.236l.13.235l.135.224c.041.076.094.153.141.223c.088.153.194.294.294.441l1.206-.888l.136.177l.147.176l-.206.17l-.141-.176l-1.177.924a8.8 8.8 0 0 1-1.341-2.4l.941-.353c.165.447.37.882.618 1.288l.411-.253a7.4 7.4 0 0 1-.588-1.235z"/><path fill="#000" d="M4.93 12c0 .518.059 1.035.17 1.541l-.982.218a8 8 0 0 1-.188-1.453l-.483.018a8.4 8.4 0 0 0 .336 2.088l1.435-.424l.03.112l.105.318l-.24.088l-.077-.212l-1.418.465l-.059-.165l-.041-.165l-.088-.335c-.03-.112-.06-.223-.077-.335l-.059-.341a8 8 0 0 1-.117-1.37l1.012-.007q.001.705.135 1.412l.47-.094A7.5 7.5 0 0 1 4.671 12zm.423-2.418a7 7 0 0 0-.359 1.5l-1-.117a7.6 7.6 0 0 1 .318-1.442l-.465-.147l-.076.253l-.07.26l-.089.388l-.07.388l-.036.264l-.017.13l-.012.13l-.018.264l1.488.094l-.011.223V12H4.67v-.235l-1.488-.042a8.6 8.6 0 0 1 .511-2.7l.947.342a8 8 0 0 0-.352 1.376l.476.07a7 7 0 0 1 .347-1.317zM6.59 7.46a7 7 0 0 0-.865 1.282l-.894-.459q.335-.653.794-1.235l-.383-.294A8.5 8.5 0 0 0 4.16 8.565l1.365.6l-.047.1l-.124.317l-.24-.088l.081-.212l-1.388-.559l.059-.158l.076-.16l.071-.158l.035-.076l.042-.077l.152-.306l.177-.3q.353-.59.794-1.13l.777.648a7.5 7.5 0 0 0-.806 1.17l.423.236c.224-.394.483-.777.777-1.124l.2.17zm1.88-1.578a6.6 6.6 0 0 0-1.252.912l-.682-.741c.358-.33.747-.63 1.164-.888l-.258-.412l-.224.141l-.212.153c-.147.1-.282.218-.423.324q-.406.336-.777.717L6.89 7.123l-.153.165l-.147.17l-.206-.17l.153-.176l-1.124-.994a9.3 9.3 0 0 1 2.13-1.736l.511.87a7.5 7.5 0 0 0-1.159.824l.324.365a7.4 7.4 0 0 1 1.112-.788l.13.223z"/><path fill="#000" d="M10.77 5.041a7.3 7.3 0 0 0-1.481.43l-.394-.93a8 8 0 0 1 1.405-.435l-.106-.477c-.17.042-.34.077-.511.13l-.253.07l-.253.089l-.124.04l-.123.048l-.247.1l-.241.106c-.083.035-.165.07-.242.117l.665 1.336l-.2.1l-.2.117l-.13-.235l.2-.106l-.705-1.318a8.9 8.9 0 0 1 2.594-.905l.177.994a8 8 0 0 0-1.365.376l.176.453a7 7 0 0 1 1.318-.359z"/><path fill="#000" d="M13.23 5.041a6.8 6.8 0 0 0-1.547-.1l-.047-1.012c.488-.023.982 0 1.47.07l.059-.481l-.259-.036l-.264-.017l-.136-.012l-.13-.006l-.264-.006h-.53l-.529.047l.165 1.488c-.147.018-.294.03-.447.06l-.047-.254l.23-.04l-.213-1.471a8.8 8.8 0 0 1 2.748.029l-.171 1a8 8 0 0 0-1.412-.118v.489c.459 0 .918.029 1.365.111z"/><path fill="#000" d="M15.53 5.882a6.8 6.8 0 0 0-1.412-.63l.294-.964c.471.147.93.341 1.36.57L16 4.43l-.236-.117c-.082-.047-.164-.077-.24-.118l-.242-.106l-.247-.094l-.253-.094l-.247-.082l-.259-.071l-.123-.035l-.13-.036l-.353 1.453l-.217-.047l-.224-.04l.047-.26l.224.041l.3-1.464c.9.194 1.776.517 2.576.976l-.506.877a7.3 7.3 0 0 0-1.294-.589l-.153.46c.43.146.847.34 1.242.57l-.13.223z"/><path fill="#000" d="M17.412 7.459a7.2 7.2 0 0 0-1.118-1.07l.612-.807a8 8 0 0 1 1.082 1l.36-.33a8.8 8.8 0 0 0-1.6-1.381l-.824 1.247c-.136-.083-.26-.165-.389-.236l.13-.235l.194.118l.788-1.265a8.6 8.6 0 0 1 2.083 1.794l-.765.647a8.5 8.5 0 0 0-1.018-.988l-.306.376c.353.289.683.612.977.96l-.2.17zm1.236 2.123a7 7 0 0 0-.689-1.388l.847-.547c.265.412.489.853.677 1.306l.447-.183l-.047-.123l-.059-.118l-.106-.247l-.176-.353l-.07-.117l-.13-.224l-.141-.223c-.095-.153-.2-.295-.3-.442l-1.206.889l-.136-.177l-.14-.176l.2-.17l.14.176l1.177-.924a8.8 8.8 0 0 1 1.347 2.4l-.947.353a8 8 0 0 0-.612-1.288l-.418.253q.352.591.589 1.235z"/><path fill="#000" d="M19.071 12c0-.518-.059-1.035-.17-1.541l.982-.218c.106.47.17.965.188 1.453l.483-.018a8.4 8.4 0 0 0-.336-2.088l-1.435.424l-.03-.112l-.105-.318l.24-.088l.077.212l1.418-.465l.059.165l.041.164l.088.336c.03.111.06.223.077.335l.058.341q.117.681.118 1.37l-1.006.007c0-.47-.053-.941-.135-1.412l-.476.094q.123.67.123 1.359zm-2.365 3c0-7.753-6.276-7.647-9.412-6.63l1.83 1.783c3.135-1.224 5.488 0 6.276.765c-2.094-1.424-4.882-.93-6.011-.506l.782.764C14.983 9.341 16.53 12.96 16.706 15"/><path fill="#000" d="M11.412 17.294v-3.312l1.112-.512v-.764l-1.7.764v2.295L10.43 15l.1-3l-.1-.57c.53-.254 1.57-.507 2.353-.507c1.676 0 2.617 1.353 2.882 2.036c-1.259 0-1.57 1.359-1.57 2.04z"/><defs><linearGradient id="tokenBrandedAegis0" x1="15.437" x2="8.562" y1="2.938" y2="21.063" gradientUnits="userSpaceOnUse"><stop stop-color="#9E7F42"/><stop offset="1" stop-color="#C8AF6C"/></linearGradient></defs></g></svg>