<svg xmlns="http://www.w3.org/2000/svg" viewBox="0 0 24 24"><g fill="#ffc845"><path d="M11.835 9.015a.98.98 0 0 0-.65.235a2.2 2.2 0 0 0-.47.62a4 4 0 0 0-.335.85a8.5 8.5 0 0 0-.325 1.79a7 7 0 0 0-.035.65q0 .816.225 1.25c.15.28.39.425.72.425c.25 0 .46-.075.65-.225a2 2 0 0 0 .47-.58c.135-.24.25-.51.335-.815c.167-.59.27-1.197.31-1.81q.03-.435.03-.75a3.05 3.05 0 0 0-.19-1.21c-.13-.29-.375-.43-.735-.43"/><path d="M15.635 9.12h-.31c-.17 0-.46.1-.52.485c-.23 1.575-.46 3.405-.49 3.615q-.06.345-.05.695c.015.26.08.45.135.535a.7.7 0 0 0 .45.33l-.25 1.85h-.51a3.4 3.4 0 0 1-.56-.105a1.8 1.8 0 0 1-.685-.4c-.175-.185-.35-.38-.505-.86a2.25 2.25 0 0 1-.86.965a1.9 1.9 0 0 1-.94.275a2.11 2.11 0 0 1-1.74-.77c-.415-.515-.625-1.285-.625-2.32c0-1.05.1-1.96.285-2.725c.19-.76.44-1.39.75-1.88a3.25 3.25 0 0 1 1.065-1.09c.4-.235.8-.35 1.21-.35c.46 0 .84.105 1.14.33q.451.33.685.915s.165-.585.885-.915c.85-.39 1.63.06 1.63.06zM12 4a8 8 0 1 0 0 16a8 8 0 0 0 0-16"/><path d="M12 20.5c-4.75 0-8.5-3.75-8.5-8.5S7.25 3.5 12 3.5s8.5 3.75 8.5 8.5s-3.75 8.5-8.5 8.5M12 3a9 9 0 1 0 0 18a9 9 0 0 0 0-18"/></g></svg>