<svg xmlns="http://www.w3.org/2000/svg" viewBox="0 0 24 24"><g fill="none"><path fill="#141414" d="M7.866 5.296a25 25 0 0 1 1.678-1.561l1.765.788l4.698 2.212l.19 2.403v.827l.155-.136l.385-.22l.19.103l.097.953c-.034.107-.107.34-.146.394c-.049.058-.311.875-.438 1.274h-.243l-.477 1.926l-.613 1.104v1.201l.876 1.484l1.366.982c-.486-.175-1.493-.52-1.585-.52c-.097 0-.292.471-.374.71l.826.52l-1.25-.355v-.982l-.462.632l-.257 1.124v-.769l-.525-.447l-1.022.447l.486 1.61l-.958-1.605h-.146l-.953.092l-.924-.452l-.55.608l-.53.973c.098-.36.273-1.09.253-1.129c-.014-.043-.486-.739-.715-1.08l-.35.536l-1.05 1.303l.783-1.605l-.38-.306l.38-.487l.476-1.371l.064-1.158l-.453-1.225l-.282-2.062l-.51-2.982V6.891l.53-1.595z"/><path fill="#777" d="M10.293 14.965c-.146-.107-.437-.331-.447-.36l.55-.122l1.57.078v.35h1.45l-.049.244l-1.372.184v.496l-1.478-.36h-.89l.554-.194l.17-.097l1.576.199v-.472l-.938-.092z"/><path fill="#383838" d="m16.358 7.434l-.291-1.298c-.317.146-.963.452-1.041.525c-.098.088-.117 1.133-.059 1.39c.059.264.55.662.628.701c.077.04.272.37.301.487c.025.092.21.165.292.194l.17-.797z"/><path fill="#323031" d="m10.4 10.996l-.87.2l.486.364l-.112.452l.55-.287c.087-.14.267-.428.272-.452c0-.02-.214-.194-.326-.277"/><path fill="#2d2d2d" d="M7.9 9.973c.014-.053-.063-.423-.107-.603h-.214l-.054 1.357l.253 1.128l.268 2.063l.496 1.089l1.61 2.12l1.717.725c.218.005.68.015.758 0c.098-.02 1.926-.642 2.009-.7c.068-.044.32-.428.438-.618l.092-1.148l.608-1.055l.19-1.002l.277-1.109l-.404 1.216l-.18.812l-.944 1.265l-.792.374l-1.094.04h-.895l-.409.145v.37l.545.097c.063 0 .029.121 0 .185l1.405.121l-1.084.487h-.457l-.847-.268l-.471-.146l-.618-.788l-.447-.37l-.331-.753l.214-1.119l.262-.992l-.72-.306h-.612l-.117-.92l-.262-.3l-.083-.42l-.219-.374z"/><path fill="#b4b4b4" d="m13.892 11.554l.156-.632l.608-.063c.462 0 1.38.005 1.352.058c-.03.053-.214.778-.302 1.138l-.851-.423l-.394.491v.754l.107.91c-.044.213-.117.42-.219.612c-.039 0-.32.16-.457.239l-.827-.244l-1.196.073l-.214-.37l.817-.67h.365l.403.262l-.18-.812l-.418-.345l-.666.345v.593h-.53l.36-.17l-.302-.131l-.413.258l-.37-.438l.778-.457l.059-2.116l.364-.185z"/><path fill="#dadada" d="M14.801 10.713c-.262.073-.792.21-.807.219l.39.034l.777.209l.034.71l.39-.55l.398-.16l.02-.486l-.418-.063l-.535-.078z"/><path fill="#535353" d="M9.812 6.239c.048-.063.17-.185.272-.214l4.513-.69l1.406.461l.267 1.182l-.267.18l-.36-.603l.048.603l.059 1.148h-.321v.326h-1.96l-1.62.462l-1.872-.462V7.79l.545-.447l-.706-1.104z"/><path fill="#a0a0a0" d="m8.892 4.38l.69-.705l2.506.296l.807 4.037l-1.119 1.197V5.59l-1.235 1.731l-.433-1.21l-.243-.574l-.443.301l-.403-.613h-.584z"/><path fill="#f8f9f4" d="M10.327 4.264a16 16 0 0 0-.74-.598l.89-.408L11.844 3l1.347.258l1.333.632l.953.958l.375.593l.146.317l.043.588l-.19-.049l-.194.282l-.233-.826l-.263.826l-.375-.914h-.554l.438 1.172l-.093.316l.759.565l-.365.564l.453.496l-.21.223l-.982-.145l-.827-.19l-.467-.657l-1.143-.68v-3.21l-1.41.963z"/><path fill="#949494" d="m7.312 10.174l.166.379v.525l-.102-.16v-.248l-.146-.283l-.2-.213h-.194l-.054.213l.146.866l.263.778c.039.175.121.535.121.57c0 .038.175.102.263.13l.263-.077v.238h-.36l-.292-.292l-.088-.423l-.262-.86l-.107-.458l-.078-.783l.131-.34l.535.438z"/><path fill="#b3b3b3" d="m9.378 10.416l-.34-.16l-.098.16l.244.224h.515l.35.112l-.112-.243z"/><path fill="#a8a8a8" d="m10.423 9.201l-.535.22l.788.359l.637.404l.146-.282l-.146-.244z"/><path fill="#f8f9f4" d="M11.879 12.64V9.878h.35l.17.583l.404.137l.939.773l.535.754l-.433-.156l-.895.394l.219-.617h-.307l-.462.223v.482z"/><path fill="#f3f3f3" d="M12.768 13.421c-.268.146-.808.438-.832.467l.428.57l1.1.058l1.089-.628l-.691-.14l-.399-.497q.341-.082.667-.214c.072-.049-.414.02-.667.063l-.35-.184z"/><path fill="#d7d7d7" d="m10.308 14.896l.107-.419l.21.331l.213-.33l.273.242c.063-.058.184-.19.204-.243c.02-.048.277.2.399.331h-.565z"/><path fill="#f9f9f9" d="M12.364 15.31c-.073-.098-.229-.302-.243-.336h1.02v.218z"/><path fill="#f1f1f1" d="m16.319 10.315l-.175-.34l.56-.413l.189.145l-.195.166l-.38.438zm-.21 1.245l.327-.345l.068.438l-.33.204z"/><path fill="#919191" d="m16.693 11.244l.268-.452c0 .34-.18.802-.268.987c-.082.205-.243.657-.243.827c0 .165-.194.049-.287-.034l-.029-.462l.277.17l.137-.437c-.068.048-.214.145-.229.17c-.02.02-.131-.01-.185-.03v-.14l.316-.122l.127-.059z"/><path fill="#6b6b6b" d="m15.307 16.769l-.18-.953l-.13 1.118l.18.462l.223.501l.583.132l-.68-1.26z"/><path fill="#505050" d="M8.411 16.657c0-.063.107-.928.16-1.357l.06 1.362l-.06.856l-.87.657c.097-.146.302-.438.336-.477c.039-.048.374-.958.374-1.04"/><path fill="#5a5859" d="m9.539 17.035l-.866-1.566l1.05.997c.468.273 1.411.817 1.46.851c.049.03.496.39.715.57v.816l-.579-.092c-.263-.112-.827-.35-.924-.408a9 9 0 0 1-.856-1.168"/><path fill="#a5a5a5" d="M7.297 6.954L7.86 5.32l-.408 1.425l-.059.764h.243l-.14.355l.145.666l.219.876l-.219.554v1.07l.219.88l.141.924l.21 1.304l.208.666l1.056.88l.476.876l.628.355l.447-.112l.52.321h.34v.759l-.5-.16l-.647-.341l-.788-.584l-1.532-1.61l-.418-1.05c-.063-.457-.185-1.391-.21-1.464a46 46 0 0 1-.29-1.41v-.667L7.296 8.7V6.95z"/><path fill="#6e6c6d" d="m13.474 16.419l-.165-.638h.345l.418-.53l.214.647l-.37.282l-.437.239z"/><path fill="#fafafa" d="m11.97 16.53l-.062-.633l.885-.126l.292-.098l.199-.165l.306.263l-.204.194l-.219.399l-.165.078l-.263-.034z"/><path fill="#1c1c1c" d="m8.357 9.555l.292.54l.394.082l.277.107c.03.01.384.05.56.064l-.186-.477h.457c.05 0 .57.238.827.355l-.214-.428l-.972-.56l-.75-.242l-.68.559z"/><path fill="#afafaf" d="m8.761 10.242l-.272-.526l.71.064l.37-.064l.354.102l-.598.161z"/><path fill="#3d3d3d" d="m13.605 9.537l-.365.467l.88-.088l.696.034l-.642-.326l-.564-.087z"/><path fill="#999" d="m14.636 10.296l-.837.102c.156.034.501.107.633.112c.17.005.393-.112.471-.112c.063 0 .224-.068.292-.107l-.243-.14c-.097.048-.292.145-.316.145"/></g></svg>