<svg xmlns="http://www.w3.org/2000/svg" viewBox="0 0 24 24"><g fill="none" fill-rule="evenodd" clip-rule="evenodd"><path fill="#32c67f" d="M16.216 20.272a9.02 9.02 0 0 0 4.783-7.97c0-4.982-4.029-9.02-9-9.02C7.03 3.281 3 7.32 3 12.301a9.02 9.02 0 0 0 5.304 8.226l.226-.374l.11-.13a8.439 8.439 0 1 1 7.349-.304l.204.434zm-.455-1.035c2.472-1.312 4.115-3.901 4.115-6.954c0-4.425-3.45-7.875-7.875-7.875s-7.876 3.45-7.876 7.875c0 4.151 3.038 7.445 7.068 7.836l.985-.039l1.111-.22l2.129-.746l.23-.116zm-5.095-.407l1.252.67l.275-.172l.403.104l1.192-.843l1.081-1.11v-3.284l-.146-.911l.069-.774l-.069-1.075l-.077-1.53V9.68l.463-.963l.386-.877l.164-1.083l-.24-.327l-.678.327l-1.064 1.178l-.335.481l-.566-.197h-1.107l-.918.197l-.85-1.109l-.771-.688l-.515-.094l-.274.438l.18.972l.858 1.66l.206.206l-.292 1.04l-.06 1.917l.146.826l-.146.791v.765l-.069 1.17l-.12.877l.12.524z"/><path fill="#32c67f" d="m17.624 17.906l1.687-.844l1.084-2.008l.3-1.688v-.39l-1.248.527l-.88 2.878zm-9.123 1.148l.144.788l.844.301l1.905.085l-.98-.728z"/><path fill="#000" d="M13.215 8.208c-.423-.188-.91-.222-1.347-.19a4.7 4.7 0 0 0-1.117.222c-.292-.436-.718-1-1.13-1.394c-.221-.213-.452-.39-.665-.46a.53.53 0 0 0-.331-.016a.47.47 0 0 0-.265.227c-.123.218-.136.497-.093.786s.148.611.279.928c.24.578.578 1.16.841 1.558c-.314.755-.333 1.46-.276 1.813c.055.342.032.588.013.785a3 3 0 0 0-.015.226c0 .114.028.247.052.363l.005.024c.024.114.045.214.05.296c.005.079-.017.262-.056.473a5 5 0 0 1-.124.533c-.052.168-.028.346.001.493l.03.139c.02.096.038.178.042.256q.004.072-.022.254c-.016.116-.04.25-.064.387l-.013.074c-.02.11-.04.22-.054.315a2 2 0 0 0-.033.293v.768q-.336.165-.484.382a.7.7 0 0 0-.123.497a1 1 0 0 0 .149.39c-.12.191-.227.461-.203.74a.83.83 0 0 0 .248.526l-.27.664c-.025.062.023.078.083.099a1 1 0 0 1 .092.038c.05.024.08.04.105-.021l.241-.593q.116.065.26.115c.485.171 1.078.228 1.614.232a8.5 8.5 0 0 0 1.323-.092a.1.1 0 0 0 .033-.01q.135.063.32.065c.221 0 .374-.085.464-.217l.03-.002c.52-.086 1.316-.265 2.02-.523c.277-.102.544-.218.775-.347l.457 1.017c.04.111.102.08.167.047l.03-.014l.019-.009c.067-.03.113-.05.06-.15l-.473-1.053c.198-.14.363-.304.45-.493c.219-.07.493-.163.75-.265a5 5 0 0 0 .47-.206a1.3 1.3 0 0 0 .336-.227a1.4 1.4 0 0 1 .293-.19c.153-.084.344-.177.55-.271c.199-.091.395-.204.578-.31c.195-.113.374-.217.526-.276l.102-.241c-.1.04-.237.087-.39.142c-.307.108-.681.24-.96.367a9 9 0 0 0-.571.281c-.156.085-.3.174-.378.256a1 1 0 0 1-.244.157c-.123.063-.275.13-.437.193c-.214.085-.44.164-.636.227a.97.97 0 0 0-.51-.555c.04-.16.055-.375-.084-.539a.66.66 0 0 0-.46-.213a1 1 0 0 0-.165 0l-.013-.38c-.01-.231-.02-.479-.033-.71c.293-.223.713-.517 1.153-.789c.497-.308 1.006-.577 1.382-.69c.811-.242 2.606-1.024 3.408-1.387l.023-.388c-.807.366-2.745 1.206-3.53 1.44c-.421.127-.963.417-1.464.727a16 16 0 0 0-.995.67l-.008-.148c.022-.193.05-.482.057-.741a3 3 0 0 0-.006-.37a1 1 0 0 0-.024-.15a.34.34 0 0 0-.075-.15l.002.001q-.004-.003-.015-.03a1 1 0 0 1-.032-.104a2.4 2.4 0 0 1-.054-.635a.6.6 0 0 1 .03-.188c.066-.146.087-.344.084-.508a1.5 1.5 0 0 0-.022-.242a.6.6 0 0 0-.056-.17l.001-.056a7 7 0 0 1 .017-.277a6.5 6.5 0 0 0 0-.9a4 4 0 0 0-.184-.936c.12-.155.25-.4.375-.678c.148-.328.294-.72.408-1.1s.2-.758.223-1.057a1.3 1.3 0 0 0-.02-.4c-.027-.11-.086-.224-.207-.272a.4.4 0 0 0-.275.003a1.2 1.2 0 0 0-.281.138a4.5 4.5 0 0 0-.63.512c-.4.378-.817.846-1.105 1.194M9.442 7.035c.391.375.803.92 1.09 1.346a.18.18 0 0 0-.001.127c.034.09.133.135.223.101a4.3 4.3 0 0 1 1.138-.243c.467-.033.948.017 1.32.232a.17.17 0 0 0 .237-.066a.18.18 0 0 0-.01-.187a14 14 0 0 1 1.057-1.14a4 4 0 0 1 .591-.481a1 1 0 0 1 .22-.11c.06-.019.091-.014.103-.01c.007.004.032.018.05.093q.028.11.013.316c-.021.272-.1.628-.212 1a9 9 0 0 1-.396 1.07a4 4 0 0 1-.254.493a3 3 0 0 0-.163-.304c.139-.281.317-.666.451-1.012c.075-.193.138-.377.172-.525a1 1 0 0 0 .027-.2c0-.054-.008-.12-.052-.167c-.053-.055-.122-.05-.173-.034a.5.5 0 0 0-.15.09c-.101.082-.22.208-.34.351c-.23.273-.48.62-.648.871a.176.176 0 0 0-.035.294c.611.498.812 1.238.864 1.893l.008.115l-1.276.341a.131.131 0 0 0 .067.254l.077-.02c.088.196.285.476.58.476c.255 0 .44-.144.542-.268l-.005.071l-.01.164a1 1 0 0 0 0 .104q0 .024.006.053c.004.015.012.05.037.085q0-.004 0 0q.005.008.018.065q.014.077.016.182a.9.9 0 0 1-.053.356a.9.9 0 0 0-.06.315a2.7 2.7 0 0 0 .063.737q.019.083.047.153c.016.04.039.085.07.123l.004.01a1 1 0 0 1 .014.096c.008.087.009.2.005.327c-.008.253-.034.54-.057.726l-.002.015l.001.016c.02.332.047.84.065 1.283c.009.223.015.428.017.587a6 6 0 0 1-.003.258v.003l-.04.047a4 4 0 0 1-.177.181c-.153.148-.363.337-.596.542c-.437.383-.95.816-1.315 1.119a.6.6 0 0 0-.353-.103a.58.58 0 0 0-.442.203a19 19 0 0 1-1.52-.892a7 7 0 0 1-.739-.55a2 2 0 0 1-.234-.238a.6.6 0 0 1-.093-.15v-1.026q0-.066.029-.244l.053-.309l.014-.075c.024-.136.048-.276.065-.398a1.7 1.7 0 0 0 .025-.313a2 2 0 0 0-.055-.333l-.023-.106c-.028-.142-.036-.253-.009-.34a6 6 0 0 0 .133-.57c.038-.206.069-.426.06-.55a3 3 0 0 0-.055-.333l-.006-.03a1.7 1.7 0 0 1-.045-.299q.001-.053.011-.15c.015-.159.038-.4.014-.688a.78.78 0 0 0 .557.246c.305 0 .563-.28.69-.474l.04.012a.131.131 0 0 0 .075-.251l-1.389-.42c.033-.289.11-.628.256-.98a.13.13 0 0 0 .03-.07c.148-.337.361-.683.662-1.007a.154.154 0 0 0-.007-.216a.15.15 0 0 0-.146-.035a6.5 6.5 0 0 0-.518-.81a2 2 0 0 0-.338-.362c-.107-.085-.234-.152-.357-.118a.2.2 0 0 0-.14.145a.5.5 0 0 0-.004.212c.022.152.088.348.172.554c.16.392.397.843.577 1.158q-.042.075-.08.15a9.4 9.4 0 0 1-.731-1.38a4 4 0 0 1-.262-.866c-.04-.264-.02-.473.062-.615c.038-.067.079-.096.116-.108a.3.3 0 0 1 .172.014c.156.052.352.194.568.401m4.322 4.4l.18-.048a.142.142 0 0 1-.063.268a.141.141 0 0 1-.117-.22m-4.052.079a.14.14 0 0 1 .131-.141l.094.028a.142.142 0 0 1-.085.255a.14.14 0 0 1-.14-.142m4.213-2.84q.24.2.41.433c.13-.267.284-.605.403-.91a4 4 0 0 0 .164-.501a1 1 0 0 0 .023-.162q0-.022-.002-.032a.4.4 0 0 0-.093.06c-.087.07-.197.185-.316.326a11 11 0 0 0-.589.787m1.159 8.732l.001-.121a1 1 0 0 1 .135-.001c.113.009.201.044.255.107c.04.048.054.135.02.266c-.032.125-.097.25-.147.323a.154.154 0 0 0 .04.213a.15.15 0 0 0 .21-.041q.038-.056.08-.136a.65.65 0 0 1 .364.489q-.087.212-.43.437c-.24.155-.55.297-.891.422c-.63.231-1.342.398-1.847.488l.002-.046a.45.45 0 0 0-.044-.192c.367-.304.88-.736 1.317-1.12c.235-.206.45-.4.608-.553a4 4 0 0 0 .197-.2a1 1 0 0 0 .065-.081a.3.3 0 0 0 .052-.107a1 1 0 0 0 .013-.147M9.036 7.54c.038-.01.105.006.206.086c.096.076.201.193.308.331c.201.261.396.586.52.82q-.212.242-.37.492a10 10 0 0 1-.52-1.054a2.4 2.4 0 0 1-.16-.513a.4.4 0 0 1-.001-.138c.006-.022.013-.023.017-.024m-.472 11.804a.9.9 0 0 1 .106-.46q.053.051.103.092a.15.15 0 0 0 .214-.022a.154.154 0 0 0-.023-.215c-.16-.131-.322-.337-.348-.537a.4.4 0 0 1 .07-.283a.8.8 0 0 1 .248-.216a.8.8 0 0 0 .15.26c.072.089.165.181.27.274c.21.186.481.384.771.576c.523.346 1.118.682 1.553.91q-.015.065-.022.114l-.004.021l.003.022c.005.055.022.12.056.185c-.28.034-.663.063-1.074.06c-.522-.004-1.077-.06-1.516-.214a1.2 1.2 0 0 1-.285-.139a.15.15 0 0 0-.106-.085l-.038-.041a.52.52 0 0 1-.128-.302m3.703.252a.25.25 0 0 1 .193.083a.3.3 0 0 1 .068.11v.004l.001.002v.005a.36.36 0 0 1-.035.173c-.017.028-.054.072-.182.072c-.14 0-.213-.045-.252-.084a.2.2 0 0 1-.058-.097a.4.4 0 0 1 .066-.177c.03-.043.083-.087.2-.09m.225-7.973c.129-.015.243.043.363.14c.128.102.143.278.13.421c-.012.12-.046.24-.08.332c.105.086.23.203.306.34a.5.5 0 0 1 .074.273a.49.49 0 0 1-.219.384a.9.9 0 0 1-.206.38a.8.8 0 0 1-.625.251a.82.82 0 0 1-.817-.642a.6.6 0 0 1-.181-.127a.37.37 0 0 1-.109-.27a.55.55 0 0 1 .08-.26c.075-.128.188-.243.286-.324a1 1 0 0 1-.1-.314c-.02-.151.006-.327.159-.445a.47.47 0 0 1 .419-.088c.085.022.16.065.216.108c.103-.088.2-.147.304-.16m.242 2.151a.7.7 0 0 0 .128-.198a.7.7 0 0 1-.212-.018a.96.96 0 0 1-.456-.255a.78.78 0 0 1-.583.243a.65.65 0 0 0 .628.424a.63.63 0 0 0 .495-.196m-.045-.386a.43.43 0 0 0 .242-.003a.1.1 0 0 1 .05-.024a.32.32 0 0 0 .132-.238a.35.35 0 0 0-.052-.181a1.3 1.3 0 0 0-.314-.33l-.052-.042l.027-.061c.035-.083.078-.215.09-.341q.019-.201-.065-.269c-.109-.087-.176-.11-.235-.103c-.064.008-.142.053-.266.167l-.062.058l-.059-.061a.45.45 0 0 0-.197-.117a.3.3 0 0 0-.27.057c-.084.066-.107.166-.092.285c.015.12.068.24.113.313l.043.068l-.065.048a1.2 1.2 0 0 0-.298.319a.4.4 0 0 0-.058.175a.2.2 0 0 0 .06.145a.4.4 0 0 0 .384.108a.6.6 0 0 0 .328-.184a.16.16 0 0 1 .114-.055a.15.15 0 0 1 .12.048a.77.77 0 0 0 .382.218m-.717-1.132c.047.073.054.152.017.176c-.038.025-.106-.014-.153-.086c-.047-.073-.054-.151-.017-.176c.038-.025.106.014.153.086m.379.154c-.038-.025-.03-.104.016-.176c.046-.073.115-.112.153-.087s.03.104-.017.176c-.046.073-.115.111-.152.087"/></g></svg>