<svg fill="none" version="1.1" viewBox="0 0 128 128" xmlns="http://www.w3.org/2000/svg">
 <g transform="translate(-96 -96)" fill="#8989ef" stroke-width=".68966">
  <path d="m114.06 198.57c21.339 25.384 59.254 28.695 84.685 7.3952 12.274-10.28 19.397-24.415 21.082-39.143l-11.701-4.251c-0.69035 12.807-6.4897 25.308-17.109 34.202-20.345 17.039-50.677 14.391-67.748-5.9166-17.071-20.307-14.418-50.583 5.9269-67.623 20.345-17.039 50.677-14.39 67.748 5.9166 5.0993 6.0662 8.4386 13.021 10.072 20.248l12.913 4.6917c-1.1428-11.621-5.6883-23.032-13.776-32.652-21.339-25.384-59.254-28.695-84.685-7.3952-25.431 21.299-28.748 59.144-7.409 84.528z"/>
  <path d="m121.47 114.04c-11.508 9.6386-18.488 22.666-20.703 36.393l11.532 4.4062c1.2869-11.888 6.9979-23.314 16.899-31.608 20.345-17.039 50.677-14.39 67.748 5.9166l-13.814 11.57 36.866 14.086c-1.0241-11.868-5.589-23.55-13.842-33.368-21.339-25.384-59.254-28.695-84.685-7.3952z"/>
  <path d="m142.08 160h-12.021c0 16.568 13.456 29.999 30.054 29.999 16.599 0 30.055-13.431 30.055-29.999h-12.022c0 9.9414-8.0738 17.999-18.033 17.999s-18.033-8.0579-18.033-17.999z"/>
 </g>
</svg>
