<svg xmlns="http://www.w3.org/2000/svg" viewBox="0 0 32 32"><path fill="currentColor" d="M.7 19.465c.115-.21.26-.245.485-.125c.52.28 1.03.57 1.56.835a29.8 29.8 0 0 0 6.37 2.315q1.564.377 3.16.59c1.574.212 3.162.298 4.75.26a30.2 30.2 0 0 0 10.77-2.33c.145-.06.295-.1.455-.06c.335.09.45.45.205.695q-.224.206-.48.37c-1.535 1.055-3.21 1.82-4.98 2.395a24 24 0 0 1-3.755.88q-1.322.203-2.66.24a1 1 0 0 0-.125.015H15.4a1 1 0 0 0-.125-.015q-.271-.014-.535-.02A22.4 22.4 0 0 1 8.2 24.2a22.2 22.2 0 0 1-7.28-4.35c-.09-.08-.15-.19-.22-.285zm7.9-13.01l-.215.03a4.05 4.05 0 0 0-1.9.755c-.12.085-.23.175-.355.27a.2.2 0 0 1-.02-.07c-.02-.135-.04-.275-.065-.41c-.035-.23-.15-.33-.38-.33H5.09c-.345 0-.41.065-.41.41v10.465q-.001.075.005.15c.01.15.1.245.245.25c.35.005.705.005 1.055 0c.145 0 .235-.1.25-.25q.006-.075.005-.15v-3.62c.055.045.085.07.11.095c.895.745 1.925.99 3.05.77c1.02-.2 1.73-.825 2.19-1.745c.35-.695.495-1.435.515-2.205c.025-.855-.06-1.695-.405-2.49c-.425-.98-1.13-1.625-2.195-1.845c-.16-.035-.325-.05-.49-.075c-.14-.005-.275-.005-.415-.005M6.23 8.55a.17.17 0 0 1 .085-.165c.685-.475 1.44-.725 2.28-.66c.745.055 1.355.42 1.675 1.295c.195.535.245 1.09.245 1.65c0 .52-.04 1.03-.2 1.53c-.34 1.065-1.12 1.47-2.13 1.425c-.7-.03-1.31-.3-1.87-.695a.18.18 0 0 1-.085-.165c.005-.705 0-1.405 0-2.11s.005-1.4 0-2.105m10.285-2.095c-.05.005-.1.015-.145.02a7.4 7.4 0 0 0-1.445.205c-.305.08-.6.19-.895.29q-.271.091-.265.385c.005.165-.005.33 0 .495c.005.24.105.305.34.245c.39-.1.78-.21 1.175-.285c.615-.115 1.235-.165 1.86-.07c.325.05.63.145.84.42c.185.24.255.525.265.82c.015.415.01.83.015 1.245a.4.4 0 0 1-.01.07c-.025-.005-.045 0-.065-.005a9 9 0 0 0-1.6-.245c-.565-.03-1.125.005-1.665.195c-.645.225-1.165.615-1.47 1.245c-.235.49-.27 1.01-.195 1.535c.1.7.45 1.24 1.07 1.585c.595.33 1.24.37 1.895.27a4.1 4.1 0 0 0 2.015-.92a.4.4 0 0 1 .08-.055c.03.19.055.37.09.55c.03.155.125.255.27.26c.27.005.545.005.815 0a.24.24 0 0 0 .24-.235a1 1 0 0 0 .005-.14v-5.3a4 4 0 0 0-.045-.645c-.095-.645-.37-1.175-.95-1.52c-.335-.2-.705-.3-1.09-.355c-.18-.025-.36-.04-.54-.065q-.294.006-.595.005m1.75 6.385a.17.17 0 0 1-.075.15c-.56.405-1.175.675-1.87.745c-.285.03-.57.02-.84-.09a1 1 0 0 1-.62-.665a1.65 1.65 0 0 1-.005-.97c.125-.415.42-.65.82-.78a3.1 3.1 0 0 1 1.24-.11c.42.035.83.115 1.25.17c.08.01.105.05.105.13c-.005.24 0 .475 0 .715s-.01.47-.005.705m12.995 6.47c-.05-.25-.24-.345-.455-.415a4.4 4.4 0 0 0-1.05-.195a7.4 7.4 0 0 0-1.96.095c-.715.135-1.395.365-2 .78a.7.7 0 0 0-.185.175a.26.26 0 0 0-.025.2c.02.075.105.095.18.09a1 1 0 0 0 .11-.005c.39-.04.775-.085 1.165-.125c.57-.055 1.145-.09 1.715-.045q.367.03.72.135c.255.07.37.26.38.52c.02.4-.07.785-.175 1.165c-.205.77-.5 1.515-.79 2.255a1 1 0 0 0-.05.15c-.025.145.06.24.205.205a.5.5 0 0 0 .24-.125q.34-.315.635-.67c.64-.82 1.015-1.765 1.235-2.78c.04-.18.07-.365.105-.545zm-6.605-6.16L22.72 7.79c-.1-.285-.21-.565-.315-.845c-.055-.145-.16-.24-.32-.24c-.38-.005-.76-.01-1.145-.005c-.125 0-.185.1-.16.225q.036.156.095.305q1.47 3.637 2.955 7.275c.085.205.105.38.01.59c-.165.365-.295.75-.465 1.115c-.15.325-.4.57-.76.665a2.1 2.1 0 0 1-.77.055c-.125-.01-.25-.04-.375-.05c-.17-.01-.255.065-.26.24a8 8 0 0 0 0 .495c.005.275.1.4.37.445q.419.083.845.1c.855.02 1.535-.325 1.975-1.07q.266-.442.46-.92q1.778-4.485 3.53-8.98q.055-.133.08-.275c.02-.14-.045-.22-.185-.22c-.33-.005-.665 0-.995 0a.38.38 0 0 0-.385.26c-.025.07-.055.135-.08.205l-1.74 5c-.125.36-.255.725-.385 1.11c-.02-.055-.03-.085-.045-.12"/></svg>