<svg width="128" height="128" version="1.1" viewBox="0 0 96 96" xmlns="http://www.w3.org/2000/svg">
 <g id="f9146ffff" transform="matrix(.52575 0 0 .52479 -44.652 3.8172)">
  <path d="m165.3 1.16c7.05-1.84 14.89-0.53 20.84 3.71 7.3 5.06 11.61 14.21 10.49 23.08-2.7636 11.286-1.48 25.43 5.25 36.12 4.2 7.16 8.31 14.38 12.48 21.56 5.36 9.49 14.47 16.74 24.87 19.96 8.44 2.53 15.69 8.75 19.45 16.72 5.25 10.75 3.83 24.38-3.63 33.76-8.12 10.67-23.84 14.431-35.81 10.55-6.62-2.04-11.35-8.4128-17.62-11.143-18.1-9-38.94-9.28-58.65-7.62-10.59 0.79-20.63 5.0608-30.7 8.1508-7.34 2.06-15.73-1.168-19.4-7.818-4.85-8.19-1.51-20 7.16-24.14 7.94-4.24 13.34-11.64 17.85-19.2 8.22-14.14 16.34-28.33 24.53-42.48 4.74-8.25 5.5269-17.988 5.2969-27.258-0.03-4.68-1.8469-9.4616-0.79693-14.112 1.55-9.46 9.1-17.56 18.39-19.84m-0.57662 59.45c-5.47 2.08-7.8434 6.4797-11.103 10.99-8.07 12.05-13.978 24.79-19.918 38.02-3.35 7.69 0.1 16.657 7.44 20.637 4.87 2.67 9.4584 2.43 14.828 3.01 13.98 0.76 28.08 0.75 41.98-1.08 7.41-1.01 13.54-6.8769 14.46-14.137 0.75-4.78-1.46-9.31-3.58-13.45-3.82-8.26-8.8397-16.11-13.39-23.98-3.65-6.18-7.42-12.42-12.49-17.56-4.46-4.58-12.367-4.3497-18.227-2.4497z" fill="#9146ff"/>
 </g>
</svg>
