<svg xmlns="http://www.w3.org/2000/svg" viewBox="0 0 24 24"><g fill="none"><path fill="url(#SVG24r4DeZt)" fill-rule="evenodd" d="m19.995 12.043l-7.656 4.362v2.322l7.656-4.364v2.316l-7.216 4.115a1.58 1.58 0 0 1-1.561 0L8.068 19v-8.73L6.03 9.11v8.73L4 16.68V8.45c0-.27.072-.537.209-.77a1.55 1.55 0 0 1 .571-.565L7.93 5.32l7.653 4.365l2.037-1.162L9.965 4.16L12.003 3l7.217 4.115c.237.135.434.33.571.564s.21.5.209.77zM9.281 6.872L6.37 8.53l2.037 1.163l2.91-1.658zm6.642 6.718l2.038-1.163v-3.32l-2.038 1.162zM8.75 17.072l2.912 1.66v-2.327l-2.912-1.66zm6.498-3.097v-3.703L12 8.42l-3.25 1.852v3.703L12 15.827z" clip-rule="evenodd"/><path fill="url(#SVGsj68ub3S)" fill-rule="evenodd" d="M13.978 12.614v.738l-1.852.994l-.018-2.414c.661-.36 1.21-.64 1.87-.986v.691l-1.316.681v.145l1.315-.688v.7l-1.315.681v.145z" clip-rule="evenodd"/><path fill="url(#SVG8qfAsbYN)" fill-rule="evenodd" d="m12 9.72l-1.971 1.044l.802.43L12 10.58l1.173.612l.802-.43z" clip-rule="evenodd"/><path fill="url(#SVGE4bLzbmq)" fill-rule="evenodd" d="m10.604 13.638l-.573-.306v-2.399l1.894.999c0 .59-.01 1.822-.012 2.406l-.556-.296l.017-1.646l-.035-.018l-.06-.033l-.017-.008l-.013 1.646l-.542-.29l.018-1.646l-.112-.06z" clip-rule="evenodd"/><path fill="url(#SVG3fdyke0p)" fill-rule="evenodd" d="m11.245 11.185l.75-.402l.767.407l-.76.413z" clip-rule="evenodd"/><defs><linearGradient id="SVG24r4DeZt" x1="5.2" x2="18.765" y1="6.258" y2="16.891" gradientUnits="userSpaceOnUse"><stop stop-color="#d40000"/><stop offset="1" stop-color="#f70"/></linearGradient><linearGradient id="SVGsj68ub3S" x1="12.349" x2="16.204" y1="10.67" y2="11.682" gradientUnits="userSpaceOnUse"><stop stop-color="#d40000"/><stop offset="1" stop-color="#f70"/></linearGradient><linearGradient id="SVG8qfAsbYN" x1="10.538" x2="13.844" y1="9.6" y2="13.821" gradientUnits="userSpaceOnUse"><stop stop-color="#d40000"/><stop offset="1" stop-color="#f70"/></linearGradient><linearGradient id="SVGE4bLzbmq" x1="10.276" x2="14.175" y1="10.657" y2="11.692" gradientUnits="userSpaceOnUse"><stop stop-color="#d40000"/><stop offset="1" stop-color="#f70"/></linearGradient><linearGradient id="SVG3fdyke0p" x1="11.368" x2="13.53" y1="11.053" y2="11.535" gradientUnits="userSpaceOnUse"><stop stop-color="#d40000"/><stop offset="1" stop-color="#f70"/></linearGradient></defs></g></svg>