<svg data-cy="angel-logo" width="90" height="32" viewBox="0 0 152 54" fill="#000000" xmlns="http://www.w3.org/2000/svg"><path d="M40.7824 51.3805L41.3227 50.4375C41.3475 50.3941 41.3811 50.3566 41.4214 50.3274C41.4617 50.2982 41.5077 50.278 41.5564 50.268C41.605 50.2581 41.6552 50.2588 41.7036 50.2699C41.752 50.2811 41.7975 50.3025 41.8371 50.3327C41.9122 50.3793 43.1316 51.2728 44.1111 51.2728C44.8942 51.2728 45.4807 50.7576 45.4807 50.1086C45.4807 49.3344 44.8335 48.8017 43.5679 48.2866C42.152 47.7045 40.7361 46.7993 40.7361 45.0093C40.7361 43.6588 41.7301 42.0988 44.1255 42.0988C45.2095 42.1194 46.2613 42.4739 47.1393 43.1146C47.2139 43.1715 47.2645 43.2545 47.2811 43.3473C47.2977 43.44 47.279 43.5356 47.2289 43.6152L46.651 44.4883C46.6049 44.5824 46.5239 44.6545 46.4254 44.6888C46.327 44.7231 46.2191 44.717 46.1251 44.6717C46.0037 44.596 44.8595 43.8364 44.0302 43.8364C43.2009 43.8364 42.7039 44.4185 42.7039 44.8987C42.7039 45.6118 43.2616 46.0979 44.481 46.5985C45.943 47.1806 47.6305 48.0712 47.6305 50.0271C47.6305 51.59 46.2898 53.0337 44.1631 53.0337C42.95 53.0711 41.7672 52.6483 40.8488 51.8491C40.7217 51.6977 40.6466 51.6221 40.7824 51.3805Z"></path><path d="M52.7915 44.0751H50.4799C50.4032 44.0751 50.3297 44.0445 50.2755 43.9899C50.2214 43.9353 50.1909 43.8613 50.1909 43.7841V42.5325C50.1909 42.4553 50.2214 42.3813 50.2755 42.3267C50.3297 42.2721 50.4032 42.2415 50.4799 42.2415H57.0651C57.1417 42.2415 57.2152 42.2721 57.2694 42.3267C57.3236 42.3813 57.354 42.4553 57.354 42.5325V43.7841C57.354 43.8613 57.3236 43.9353 57.2694 43.9899C57.2152 44.0445 57.1417 44.0751 57.0651 44.0751H54.7535V52.5914C54.7535 52.6685 54.723 52.7426 54.6688 52.7972C54.6146 52.8517 54.5411 52.8824 54.4645 52.8824H53.0631C52.9865 52.8824 52.913 52.8517 52.8588 52.7972C52.8046 52.7426 52.7741 52.6685 52.7741 52.5914L52.7915 44.0751Z"></path><path d="M60.5813 42.5325C60.5813 42.4553 60.6117 42.3813 60.6659 42.3267C60.7201 42.2721 60.7936 42.2415 60.8702 42.2415H62.3006C62.3772 42.2415 62.4507 42.2721 62.5049 42.3267C62.5591 42.3813 62.5895 42.4553 62.5895 42.5325V48.732C62.5895 50.0242 63.4564 51.04 64.7769 51.04C65.0731 51.0439 65.367 50.9867 65.6405 50.872C65.914 50.7573 66.1614 50.5875 66.3673 50.3729C66.5733 50.1584 66.7335 49.9037 66.8381 49.6245C66.9427 49.3453 66.9896 49.0475 66.9758 48.7494V42.5325C66.9758 42.4553 67.0062 42.3813 67.0604 42.3267C67.1146 42.2721 67.1881 42.2415 67.2647 42.2415H68.7095C68.7861 42.2415 68.8596 42.2721 68.9138 42.3267C68.968 42.3813 68.9984 42.4553 68.9984 42.5325V48.8455C68.9421 49.9264 68.476 50.9444 67.6965 51.6894C66.9169 52.4345 65.8833 52.8498 64.8086 52.8498C63.734 52.8498 62.7004 52.4345 61.9208 51.6894C61.1413 50.9444 60.6752 49.9264 60.6189 48.8455L60.5813 42.5325Z"></path><path d="M73.3762 42.5325C73.3761 42.4582 73.4041 42.3867 73.4546 42.3326C73.5051 42.2785 73.5742 42.2459 73.6478 42.2415H77.2164C78.615 42.2415 79.9563 42.8011 80.9452 43.7972C81.9342 44.7934 82.4897 46.1444 82.4897 47.5532C82.4897 48.9619 81.9342 50.313 80.9452 51.3091C79.9563 52.3053 78.615 52.8649 77.2164 52.8649H73.6478C73.5742 52.8605 73.5051 52.8278 73.4546 52.7737C73.4041 52.7196 73.3761 52.6481 73.3762 52.5739V42.5325ZM77.0372 51.0167C78.9963 51.0167 80.4266 49.5294 80.4266 47.5415C80.4428 47.0864 80.3667 46.6326 80.2027 46.2081C80.0388 45.7837 79.7906 45.3973 79.4733 45.0728C79.156 44.7483 78.7763 44.4924 78.3574 44.3209C77.9386 44.1493 77.4893 44.0657 77.0372 44.0751H75.318V51.0109L77.0372 51.0167Z"></path><path d="M86.3037 42.5325C86.3037 42.4553 86.3342 42.3813 86.3883 42.3267C86.4425 42.2721 86.516 42.2415 86.5927 42.2415H87.9941C88.0707 42.2415 88.1442 42.2721 88.1984 42.3267C88.2526 42.3813 88.283 42.4553 88.283 42.5325V52.5797C88.283 52.6569 88.2526 52.7309 88.1984 52.7855C88.1442 52.8401 88.0707 52.8707 87.9941 52.8707H86.5927C86.516 52.8707 86.4425 52.8401 86.3883 52.7855C86.3342 52.7309 86.3037 52.6569 86.3037 52.5797V42.5325Z"></path><path d="M97.4837 42.0929C98.5565 42.09 99.606 42.4077 100.5 43.0057C101.393 43.6038 102.091 44.4553 102.504 45.4526C102.917 46.4499 103.027 47.5482 102.82 48.6086C102.613 49.6689 102.099 50.6437 101.342 51.4097C100.586 52.1756 99.6203 52.6983 98.5686 52.9116C97.5169 53.1249 96.426 53.0192 95.4339 52.6079C94.4419 52.1966 93.5932 51.4983 92.9952 50.6011C92.3972 49.7039 92.0768 48.6482 92.0745 47.5676C92.0715 46.85 92.2091 46.1389 92.4796 45.475C92.75 44.8111 93.1479 44.2075 93.6505 43.6989C94.153 43.1902 94.7503 42.7865 95.4081 42.5109C96.0659 42.2353 96.7712 42.0933 97.4837 42.0929V42.0929ZM97.4837 51.0457C98.1708 51.0492 98.8435 50.8469 99.4163 50.4646C99.9891 50.0823 100.436 49.5372 100.701 48.8984C100.966 48.2597 101.036 47.5561 100.903 46.8771C100.77 46.198 100.44 45.5741 99.9538 45.0845C99.4682 44.5949 98.849 44.2616 98.175 44.1271C97.5009 43.9926 96.8024 44.0628 96.1681 44.3288C95.5337 44.5949 94.9922 45.0448 94.6121 45.6215C94.2321 46.1981 94.0307 46.8755 94.0336 47.5676C94.0336 48.4909 94.3965 49.3767 95.043 50.0312C95.6896 50.6857 96.5671 51.0557 97.4837 51.0603V51.0457Z"></path><path d="M106.074 51.3805L106.617 50.4375C106.642 50.3942 106.675 50.3567 106.715 50.3275C106.755 50.2984 106.801 50.2781 106.849 50.2682C106.898 50.2583 106.948 50.2589 106.996 50.27C107.044 50.2811 107.089 50.3025 107.129 50.3327C107.204 50.3793 108.426 51.2728 109.406 51.2728C110.189 51.2728 110.775 50.7576 110.775 50.1086C110.775 49.3344 110.128 48.8017 108.862 48.2866C107.446 47.7045 106.031 46.7993 106.031 45.0093C106.031 43.6588 107.025 42.0988 109.42 42.0988C110.504 42.12 111.556 42.4744 112.434 43.1146C112.508 43.1719 112.558 43.2549 112.575 43.3474C112.591 43.44 112.573 43.5354 112.523 43.6152L111.945 44.4883C111.899 44.5827 111.817 44.6547 111.718 44.689C111.619 44.7233 111.511 44.7171 111.417 44.6717C111.295 44.596 110.151 43.8364 109.325 43.8364C108.498 43.8364 107.998 44.4185 107.998 44.8987C107.998 45.6118 108.556 46.0979 109.775 46.5985C111.238 47.1806 112.925 48.0712 112.925 50.0271C112.925 51.59 111.581 53.0337 109.458 53.0337C108.245 53.0696 107.062 52.6471 106.143 51.8491C106.013 51.6977 105.938 51.6221 106.074 51.3805Z"></path><path d="M151 31.8509L139.806 29.4409V6.48264C139.806 6.26338 139.73 6.05115 139.59 5.88267C139.451 5.71419 139.258 5.60005 139.044 5.56L134.16 4.89349C133.973 4.87978 133.788 4.9408 133.646 5.06335C133.503 5.1859 133.414 5.36013 133.397 5.54836C133.396 5.56968 133.396 5.59107 133.397 5.61239V33.5972C133.407 33.8089 133.488 34.011 133.627 34.1698C133.767 34.3286 133.956 34.4347 134.163 34.4704L151.003 37.963C151.091 37.9749 151.18 37.9692 151.265 37.9464C151.351 37.9236 151.431 37.884 151.501 37.8299C151.572 37.7759 151.631 37.7084 151.675 37.6314C151.72 37.5543 151.749 37.4692 151.76 37.3809C151.76 37.3518 151.76 37.3198 151.76 37.2907V32.7793C151.73 32.5695 151.643 32.3722 151.509 32.2085C151.375 32.0449 151.199 31.9212 151 31.8509V31.8509ZM122.253 3.66524L105.256 2.27983C105.156 2.27192 105.055 2.28437 104.959 2.31645C104.864 2.34853 104.776 2.39959 104.7 2.46661C104.624 2.53362 104.563 2.61524 104.519 2.70663C104.475 2.79803 104.45 2.89735 104.445 2.99873V30.4189C104.457 30.632 104.546 30.8332 104.696 30.9845C104.845 31.1357 105.045 31.2265 105.256 31.2397L122.253 32.6222C122.345 32.6297 122.438 32.6187 122.527 32.5899C122.615 32.561 122.697 32.5148 122.768 32.4539C122.838 32.3931 122.896 32.3188 122.938 32.2352C122.98 32.1517 123.006 32.0607 123.013 31.9673C123.014 31.9469 123.014 31.9265 123.013 31.9062V27.3948C123.003 27.1835 122.922 26.9818 122.784 26.823C122.645 26.6642 122.457 26.5579 122.25 26.5217L110.851 25.5466V19.9177L120.204 20.7908C120.381 20.8141 120.56 20.766 120.703 20.657C120.845 20.548 120.939 20.387 120.964 20.2087C120.968 20.1681 120.968 20.1271 120.964 20.0865V15.5519C120.955 15.341 120.874 15.1396 120.736 14.9809C120.598 14.8221 120.41 14.7156 120.204 14.6787L110.842 13.8579V8.73831L122.241 9.76281C122.334 9.77037 122.427 9.75939 122.515 9.73052C122.604 9.70165 122.686 9.65546 122.756 9.59459C122.827 9.53373 122.885 9.4594 122.927 9.37588C122.969 9.29237 122.994 9.20131 123.001 9.10794C123.002 9.0876 123.002 9.06717 123.001 9.04682V4.53549C122.992 4.32678 122.913 4.12733 122.777 3.96941C122.641 3.81149 122.456 3.70433 122.253 3.66524V3.66524ZM93.1465 13.4534H82.8194C82.7138 13.4419 82.607 13.4536 82.5064 13.4876C82.4057 13.5217 82.3135 13.5772 82.2361 13.6505C82.1587 13.7237 82.0979 13.8129 82.058 13.9121C82.018 14.0112 81.9998 14.1178 82.0046 14.2247V18.5905C82.0044 18.6961 82.0257 18.8006 82.0672 18.8975C82.1087 18.9945 82.1696 19.0818 82.2459 19.1541C82.3223 19.2264 82.4126 19.2822 82.5113 19.3179C82.6099 19.3536 82.7148 19.3685 82.8194 19.3618C83.6314 19.3618 86.5758 19.3618 87.5004 19.4112V23.6024C86.322 24.0079 85.0814 24.199 83.8365 24.1671C78.7972 24.0652 75.7055 20.3746 75.7055 15.8138C75.7055 11.3025 78.8088 7.45767 83.7961 7.55954C85.7812 7.61193 87.6131 8.17657 89.1908 9.71334C89.356 9.82557 89.5507 9.88554 89.7499 9.88554C89.9492 9.88554 90.1439 9.82557 90.309 9.71334L93.5164 6.33129C93.5962 6.25897 93.6591 6.16968 93.7006 6.06989C93.742 5.9701 93.7609 5.86229 93.7559 5.75424C93.7509 5.64619 93.7222 5.54061 93.6718 5.44511C93.6214 5.34961 93.5505 5.26657 93.4644 5.202C90.6558 2.64073 86.8387 1.10397 83.3771 0.999191C75.1853 0.897322 68.6233 7.61193 68.6233 15.8633C68.6233 24.1147 75.1853 30.5208 83.3771 30.7274C86.9375 30.7958 90.4585 29.9674 93.6204 28.3175C93.7099 28.2423 93.7821 28.1485 93.832 28.0425C93.8819 27.9364 93.9083 27.8207 93.9094 27.7034V14.2741C93.9051 14.0666 93.8249 13.868 93.6841 13.7165C93.5433 13.565 93.3518 13.4713 93.1465 13.4534V13.4534ZM59.7178 1.56383L54.7825 1.71809C54.5617 1.73146 54.3544 1.82932 54.2029 1.99164C54.0514 2.15397 53.9673 2.36847 53.9677 2.59125V17.2982L38.1938 2.94634C37.2779 2.12848 35.7522 2.38461 35.7522 3.30725V31.1378C35.7619 31.3381 35.8502 31.5262 35.9975 31.661C36.1449 31.7958 36.3393 31.8662 36.5381 31.8567H36.567L41.4503 31.4987C41.6644 31.4794 41.8629 31.3781 42.0049 31.2156C42.1468 31.0531 42.2214 30.8418 42.2131 30.6255V15.1997H42.2652L58.4955 30.7798C58.903 31.1407 60.4806 31.1407 60.4806 30.1657V2.33222C60.4825 2.23322 60.4651 2.13481 60.4292 2.04261C60.3934 1.95041 60.3398 1.86623 60.2717 1.79488C60.2035 1.72352 60.1221 1.66639 60.032 1.62675C59.9419 1.58711 59.845 1.56573 59.7467 1.56383H59.7178Z"></path><path d="M7.89706 36.141C7.96621 36.1162 8.02971 36.0776 8.08381 36.0276C8.13791 35.9776 8.1815 35.9172 8.21201 35.8499L15.3838 19.9002L15.4907 19.7634L15.5976 19.9002L18.9003 27.4851L14.1817 28.4455C13.5634 28.5707 13.6038 29.2605 14.2135 29.5632L21.8303 33.4167C22.0654 33.5412 22.3321 33.5919 22.596 33.5623L27.7104 32.9132C28.141 32.8201 28.5946 32.5523 28.6033 32.1099C28.6061 31.961 28.5745 31.8135 28.5108 31.6791L16.5309 5.81612C16.5309 5.81612 15.953 5.29514 15.4907 5.29514C15.287 5.28446 15.0841 5.32678 14.9014 5.41803C14.7187 5.50928 14.5624 5.64638 14.4476 5.81612L0.0895997 36.7813C0.0313232 36.9092 0.000785877 37.0481 2.48432e-05 37.1888C-0.000864354 37.3035 0.0221255 37.4171 0.0675116 37.5223C0.112898 37.6275 0.179672 37.722 0.263528 37.7996C0.347383 37.8772 0.446458 37.9362 0.554362 37.9729C0.662265 38.0096 0.776601 38.023 0.889994 38.0125C1.11538 38.0125 7.89706 36.141 7.89706 36.141Z"></path></svg>