<svg xmlns="http://www.w3.org/2000/svg" xml:space="preserve" viewBox="-0.01 -4.43 94.57 93.16">
  <title>Apache Jena logo</title>
  
  <path d="M246.5 333.1c0 38.63-5.566 56-35.07 72.7-28.9 16.33-173.1 68.79-195.5 95.01-39.54 46.37 1.18 108.6 47.73 104.6 24.68-2.117 40.86-16.39 55.9-31.51 11.96-12.04 73.73-82.42 92.92-101 15.21-14.71 32.75-22.66 54.56-25.88 20.79-3.075 38.55 1.566 53.89 11.12 25.66 16.01 44.54 45.8 59.53 76.23 17 34.52 44.03 55.36 75.84 52.82 53.41-4.269 73.26-56.06 58.61-94.82-5.898-15.59-31.37-38.77-52.82-45.87-18.28-6.047-90.22-31.37-100.6-35.56-38.98-15.73-47.6-32.09-47.6-77.85 0-19.5 20.52-73.18 20.52-95.52 0-39.62-20.1-65.46-53.11-65.46-32.68 0-55.38 25.92-55.38 65.43 0 22.98 20.53 76.04 20.53 95.53" style="fill:#231f20" transform="matrix(.13 0 0 -.13 0 111.1)"/>
  <path d="M480.9 727.7c0-38.63 5.57-56 35.06-72.69 28.91-16.33 173.1-68.79 195.5-95.02 39.54-46.37-1.188-108.6-47.75-104.6-24.69 2.122-40.86 16.4-55.89 31.52-11.97 12.03-73.73 82.42-92.91 101-15.22 14.71-32.77 22.66-54.57 25.87-20.79 3.086-38.55-1.554-53.89-11.12-25.66-16.02-44.54-45.8-59.53-76.22-16.99-34.53-44.03-55.36-75.84-52.82-53.41 4.258-73.27 56.05-58.61 94.82 5.903 15.58 31.37 38.76 52.82 45.86 18.27 6.043 90.23 31.36 100.6 35.55 38.98 15.75 47.59 32.1 47.59 77.86 0 19.5-20.52 73.18-20.52 95.53 0 39.61 20.1 65.45 53.11 65.45 32.68 0 55.38-25.91 55.38-65.43 0-22.98-20.53-76.03-20.53-95.53" style="fill:#1a80b9" transform="matrix(.13 0 0 -.13 0 111.1)"/>
</svg>