<?xml version="1.0" encoding="UTF-8"?>
<svg inkscape:export-filename="/home/afs/jena-logo-icon.png" inkscape:export-xdpi="90" inkscape:export-ydpi="90" inkscape:version="1.0.2 (e86c870879, 2021-01-15, custom)" sodipodi:docname="Apache_Jena_logo.svg" version="1.1" viewBox="0 0 160.8 111.1" xml:space="preserve" xmlns="http://www.w3.org/2000/svg" xmlns:cc="http://creativecommons.org/ns#" xmlns:dc="http://purl.org/dc/elements/1.1/" xmlns:inkscape="http://www.inkscape.org/namespaces/inkscape" xmlns:rdf="http://www.w3.org/1999/02/22-rdf-syntax-ns#" xmlns:sodipodi="http://sodipodi.sourceforge.net/DTD/sodipodi-0.dtd"><title>Apache Jena logo</title><metadata><rdf:RDF><cc:Work rdf:about=""><dc:format>image/svg+xml</dc:format><dc:type rdf:resource="http://purl.org/dc/dcmitype/StillImage"/><dc:title/></cc:Work></rdf:RDF></metadata><sodipodi:namedview bordercolor="#666666" borderlayer="false" borderopacity="1" fit-margin-bottom="0" fit-margin-left="0" fit-margin-right="0" fit-margin-top="0" gridtolerance="10" guidetolerance="10" inkscape:current-layer="g3016" inkscape:cx="118.6228" inkscape:cy="61.901453" inkscape:document-rotation="0" inkscape:pageopacity="0" inkscape:pageshadow="2" inkscape:showpageshadow="false" inkscape:window-height="1014" inkscape:window-maximized="1" inkscape:window-width="1920" inkscape:window-x="0" inkscape:window-y="36" inkscape:zoom="2.4037813" objecttolerance="10" pagecolor="#000000" showborder="false" showgrid="false"/><g transform="matrix(1.25 0 0 -1.25 .0001563 111.1)" inkscape:groupmode="layer" inkscape:label="ink_ext_XXXXXX"><g transform="scale(.1)"><g inkscape:export-filename="/home/afs/jena-logo-icon.png" inkscape:export-xdpi="90" inkscape:export-ydpi="90"><path d="m481.5 399v-253.6c0-30.3-2.117-52.88-6.328-67.77-4.219-16.93-11.39-31.22-21.52-42.9-19.75-23.18-45.95-34.77-78.62-34.77-24.73 0-47.83 6.438-69.34 19.29l28.96 50.51c14.38-9.652 27.84-14.48 40.38-14.48 17.59 0 29.78 6.684 36.56 20.06 7.11 13.36 10.67 36.72 10.67 70.06v253.6h59.24" style="fill:#1a80b9" inkscape:connector-curvature="0"/><path d="m697.6 259.3c-7.953 30.8-27.18 46.21-57.65 46.21-6.946 0-13.46-1.082-19.56-3.218-6.09-2.133-11.64-5.215-16.62-9.242-4.996-4.032-9.269-8.86-12.83-14.5-3.559-5.653-6.266-12.08-8.125-19.25zm58.66-46.87h-177.2c1.516-20.16 8.118-36.19 19.8-48.1 11.68-11.76 26.67-17.64 44.96-17.64 14.22 0 25.98 3.367 35.29 10.11 9.141 6.738 19.56 19.2 31.24 37.41l48.25-26.96c-7.457-12.72-15.33-23.61-23.63-32.69-8.3-9.074-17.18-16.54-26.66-22.38-9.48-5.86-19.72-10.12-30.73-12.84-11.01-2.707-22.95-4.074-35.81-4.074-36.91 0-66.53 11.87-88.88 35.59-22.36 23.91-33.52 55.61-33.52 95.11 0 39.16 10.83 70.87 32.51 95.12 21.84 23.89 50.78 35.85 86.84 35.85 36.4 0 65.19-11.64 86.35-34.91 20.99-23.1 31.49-55.13 31.49-96.08l-.254-13.5" style="fill:#1a80b9" inkscape:connector-curvature="0"/><path d="m787.1 349.8h57.29v-22.87c20.04 20.02 42.64 30.02 67.78 30.02 28.89 0 51.39-9.07 67.53-27.21 13.94-15.42 20.9-40.6 20.9-75.52v-151.8h-57.28v138.3c0 24.4-3.41 41.27-10.23 50.57-6.649 9.496-18.75 14.25-36.31 14.25-19.09 0-32.64-6.281-40.65-18.81-7.844-12.38-11.75-33.98-11.75-64.82v-119.5h-57.29v247.4" style="fill:#1a80b9" inkscape:connector-curvature="0"/><path d="m1093 227.3c0-23.71 6.35-43.03 19.06-57.93 13.05-15.08 29.49-22.62 49.32-22.62 21.17 0 38.29 7.278 51.35 21.86 13.04 15.07 19.57 34.21 19.57 57.43 0 23.21-6.53 42.35-19.57 57.42-13.06 14.74-30 22.12-50.84 22.12-19.66 0-36.1-7.457-49.32-22.37-13.05-15.07-19.57-33.71-19.57-55.91zm136 122.5h57.27v-247.4h-57.27v25.91c-23.62-22.05-49.01-33.07-76.18-33.07-34.31 0-62.66 12.38-85.07 37.13-22.26 25.26-33.38 56.79-33.38 94.6 0 37.12 11.12 68.05 33.38 92.8 22.23 24.76 50.09 37.13 83.55 37.13 28.87 0 54.77-11.96 77.7-35.86v28.7" style="fill:#1a80b9" inkscape:connector-curvature="0"/><path d="m246.5 333.1c0 38.63-5.566 56-35.07 72.7-28.9 16.33-173.1 68.79-195.5 95.01-39.54 46.37 1.18 108.6 47.73 104.6 24.68-2.117 40.86-16.39 55.9-31.51 11.96-12.04 73.73-82.42 92.92-101 15.21-14.71 32.75-22.66 54.56-25.88 20.79-3.075 38.55 1.566 53.89 11.12 25.66 16.01 44.54 45.8 59.53 76.23 17 34.52 44.03 55.36 75.84 52.82 53.41-4.269 73.26-56.06 58.61-94.82-5.898-15.59-31.37-38.77-52.82-45.87-18.28-6.047-90.22-31.37-100.6-35.56-38.98-15.73-47.6-32.09-47.6-77.85 0-19.5 20.52-73.18 20.52-95.52 0-39.62-20.1-65.46-53.11-65.46-32.68 0-55.38 25.92-55.38 65.43 0 22.98 20.53 76.04 20.53 95.53" style="fill:#231f20" inkscape:connector-curvature="0"/><path d="m480.9 727.7c0-38.63 5.57-56 35.06-72.69 28.91-16.33 173.1-68.79 195.5-95.02 39.54-46.37-1.188-108.6-47.75-104.6-24.69 2.122-40.86 16.4-55.89 31.52-11.97 12.03-73.73 82.42-92.91 101-15.22 14.71-32.77 22.66-54.57 25.87-20.79 3.086-38.55-1.554-53.89-11.12-25.66-16.02-44.54-45.8-59.53-76.22-16.99-34.53-44.03-55.36-75.84-52.82-53.41 4.258-73.27 56.05-58.61 94.82 5.903 15.58 31.37 38.76 52.82 45.86 18.27 6.043 90.23 31.36 100.6 35.55 38.98 15.75 47.59 32.1 47.59 77.86 0 19.5-20.52 73.18-20.52 95.53 0 39.61 20.1 65.45 53.11 65.45 32.68 0 55.38-25.91 55.38-65.43 0-22.98-20.53-76.03-20.53-95.53" style="fill:#1a80b9" inkscape:connector-curvature="0"/></g></g></g></svg>
