<svg xmlns="http://www.w3.org/2000/svg" viewBox="0 0 24 24"><g fill="none"><path fill="url(#SVGLHpFKe9B)" fill-rule="evenodd" d="m7.622 3.243l4.621 2.55v5.117l-4.621 2.55L3 10.91V5.792zm-4.135 7.38l3.891 2.15v-4.52l-3.891-1.93zm4.378-2.364v4.514l3.892-2.15V6.327zm3.614-2.336L7.623 7.84L3.764 5.923l3.858-2.125z" clip-rule="evenodd"/><path fill="url(#SVGfp7Cpbsg)" fill-rule="evenodd" d="M16.378 3.243L21 5.793v5.117l-4.622 2.55l-4.621-2.55V5.792zm-4.135 7.38l3.892 2.15v-4.52l-3.892-1.93zm4.379-2.364v4.514l3.891-2.15V6.327zm3.614-2.336L16.378 7.84L12.52 5.923l3.858-2.125z" clip-rule="evenodd"/><path fill="url(#SVG3rph2cNp)" fill-rule="evenodd" d="m12 10.541l4.622 2.55v5.117L12 20.758l-4.621-2.55V13.09zm-4.135 7.38l3.892 2.15v-4.52l-3.892-1.93zm4.378-2.364v4.514l3.892-2.15v-4.296zm3.615-2.335L12 15.138l-3.858-1.916L12 11.096z" clip-rule="evenodd"/><defs><linearGradient id="SVGLHpFKe9B" x1="4.895" x2="20.037" y1="7.413" y2="16.519" gradientUnits="userSpaceOnUse"><stop stop-color="#c66329"/><stop offset=".42" stop-color="#e08d39"/><stop offset="1" stop-color="#d6b087"/></linearGradient><linearGradient id="SVGfp7Cpbsg" x1="3.474" x2="21" y1="14.085" y2="14.085" gradientUnits="userSpaceOnUse"><stop stop-color="#e1b88a"/><stop offset=".47" stop-color="#274527"/><stop offset="1" stop-color="#3a5959"/></linearGradient><linearGradient id="SVG3rph2cNp" x1="12.001" x2="12.001" y1="10.541" y2="20.757" gradientUnits="userSpaceOnUse"><stop stop-color="#d3b088"/><stop offset=".41" stop-color="#b4b4b4"/><stop offset="1" stop-color="#a3a2a4"/></linearGradient></defs></g></svg>