<svg xmlns="http://www.w3.org/2000/svg" viewBox="0 0 256 259"><defs><linearGradient id="SVGU6trOdWl" x1="100.012%" x2="0%" y1="49.991%" y2="49.991%"><stop offset="0%" stop-color="#37bda6"/><stop offset="100%" stop-color="#8ad3b8"/></linearGradient><linearGradient id="SVGPVyild9u" x1="100.012%" x2="0%" y1="49.998%" y2="49.998%"><stop offset="50%" stop-color="#4bb6ad"/><stop offset="100%" stop-color="#78bbc1"/></linearGradient><linearGradient id="SVGYsPYeIBI" x1="-.018%" x2="100.023%" y1="49.998%" y2="49.998%"><stop offset="0%" stop-color="#4379a7"/><stop offset="100%" stop-color="#7cc9b8"/></linearGradient></defs><path fill="#13a049" d="M127.693 36.867v73.58l63.847-36.866V0z" opacity=".5"/><path fill="#a2cc39" d="M127.693 36.867L63.847 0v73.734l63.846 36.867z" opacity=".5"/><path fill="url(#SVGU6trOdWl)" d="m191.54 0l-63.847 36.867L63.847 0L0 36.867l127.693 73.734L255.31 36.867z" opacity=".9"/><path fill="url(#SVGPVyild9u)" d="M127.693 110.601L0 36.867v73.734l63.847 36.867v73.658l63.846 36.867l63.847-36.867v-73.658l63.77-36.867V36.867z"/><path fill="url(#SVGYsPYeIBI)" d="M127.693 110.601v147.392l63.847-36.867v-73.658l63.77-36.867V36.867z"/><path fill="#231f20" d="M127.693 184.259v73.734l63.847-36.867z" opacity=".05"/><path fill="#231f20" d="M127.693 258.146v-73.734l-63.846 36.867z" opacity=".1"/><path fill="#231f20" d="M63.847 73.734L0 110.601l63.847 36.867l63.846-36.867z" opacity=".05"/><path fill="#231f20" d="m191.54 73.734l-63.847 36.867l63.847 36.867l63.77-36.867z" opacity=".05"/></svg>