<svg xmlns="http://www.w3.org/2000/svg" viewBox="0 0 24 24"><g fill="none"><path fill="#12AAFF" d="m13.49 13.523l-.973 2.65a.32.32 0 0 0 0 .234l1.667 4.567l1.939-1.111l-2.323-6.34a.17.17 0 0 0-.155-.107a.17.17 0 0 0-.156.107m1.944-4.467a.167.167 0 0 0-.311 0l-.973 2.65a.32.32 0 0 0 0 .234l2.74 7.478l1.933-1.111l-3.39-9.256z"/><path fill="#9DCCED" d="M12 3.117c.05 0 .094.01.139.039l7.5 4.361a.28.28 0 0 1 .14.239v8.484a.28.28 0 0 1-.14.239l-7.5 4.378a.28.28 0 0 1-.278 0l-7.5-4.372a.28.28 0 0 1-.14-.24V7.756c0-.1.056-.189.14-.239l7.5-4.361A.3.3 0 0 1 12 3.11zM12 2a1.55 1.55 0 0 0-.761.206L3.872 6.445a1.52 1.52 0 0 0-.762 1.311v8.484c0 .539.29 1.045.762 1.317l7.367 4.239a1.52 1.52 0 0 0 1.522 0l7.367-4.24a1.5 1.5 0 0 0 .762-1.316V7.756c0-.539-.29-1.045-.762-1.311l-7.367-4.24A1.55 1.55 0 0 0 12 2"/><path fill="#213147" d="m7.127 19.43l.678-1.851l1.361 1.128l-1.272 1.167z"/><path fill="#fff" d="M11.384 7H9.51a.33.33 0 0 0-.311.228l-4 11.073l1.928 1.128l4.411-12.195a.174.174 0 0 0-.16-.234zm3.266 0h-1.866a.33.33 0 0 0-.312.223L7.895 19.857l1.934 1.128l4.978-13.757A.167.167 0 0 0 14.65 7"/></g></svg>