<svg xmlns="http://www.w3.org/2000/svg" viewBox="0 0 24 24"><g fill="none"><path fill="url(#SVGNYkk9buf)" d="m12.166 9l.19-.776c-2.066 0-5.254.582-5.628 3.098c-.298 2.013 2.127 3.93 3.377 4.641c-.19-.45-.563-1.856-.563-3.87c0-2.012 1.752-2.898 2.624-3.092"/><path fill="#38296a" d="M7.307 13.4c.09-1.155.497-2.775 1.672-3.627a5.9 5.9 0 0 1 3.315-1.175l.086-.374c-2.06 0-5.248.582-5.627 3.098c-.076.739.121 1.48.554 2.084z"/><path fill="#4e2b85" d="M12.166 11.906c-.597-.157-1.373-.71-1.686-.971c-.9 1.24-.625 3.614-.379 4.641c.905.47 1.88.455 2.255.394z"/><path fill="#692b90" d="M10.106 21c1.198-1.393 1.752-8.066 1.876-11.226l1.875 8.323c-.601 1.084-2.747 2.387-3.751 2.903"/><path fill="#4c2365" d="m12.545 19.451l-.568-9.677l1.88 8.323a3.7 3.7 0 0 1-1.312 1.354"/><path fill="#7d278a" d="M13.293 19.451L11.98 9.774l3.562 7.162c-.45.928-1.687 2.065-2.25 2.515"/><path fill="#6a2c75" d="M15.543 16.936L11.98 9.774l2.998 7.934c.303-.308.44-.516.568-.772z"/><path fill="#ad3398" d="M15.543 17.902L11.98 9.774L17.049 15c0 .777-1.004 2.26-1.506 2.903"/><path fill="#7a246d" d="m17.045 14.999l-5.068-5.225l4.689 6.385a2.36 2.36 0 0 0 .379-1.16"/><path fill="#dc3390" d="m17.608 12.484l-5.627-2.71l5.068 6.196c.743-.929.682-2.71.559-3.486"/><path fill="url(#SVGXrelhckx)" d="m12.356 8.224l-.938-.577c.19-.133.583-.427.583-.583v-.772c.123-.133.426-.426.73-.583c.127.26.45.815.752.967c.299.156.375.582.375.776a2.4 2.4 0 0 0-.564-.388c-.298-.156-.502-.71-.564-.966c-.123.128-.374.426-.374.578c0 .094.047.194.095.293c.047.095.095.19.095.284c0 .161-.38.327-.569.394c.256.061.758.27.758.577v1.16c.123-.189.445-.54.749-.383c.374.19.748.578.748 1.16l.938-.193l-.564-.81h-.374v-.545l-.38-.389c.129-.061.38-.151.38 0c0 .157.25.195.379.195v.388l.37.19l.378.582l.374.583c.123-.322.45-1.01.749-1.16c-.374-.323-1.165-1.048-1.165-1.355v-1.55c-.626-.582-1.834-1.818-1.834-2.13V3l-.568.966l-.559-.772V4.55c-.123.45-.563 1.392-1.312 1.549c-.938.19-4.5.966-4.69 4.064c-.15 2.477.19 3.22.38 3.287c-.066-1.61.97-4.912 5.622-5.225m2.25-2.32c0 .127.076.464.379.772v.388c-.066 0-.227-.076-.38-.388z"/><defs><linearGradient id="SVGNYkk9buf" x1="11.792" x2="7.68" y1="8.418" y2="14.495" gradientUnits="userSpaceOnUse"><stop stop-color="#5e338f"/><stop offset=".59" stop-color="#6e2b92"/><stop offset="1" stop-color="#d438a3"/></linearGradient><linearGradient id="SVGXrelhckx" x1="15.17" x2="6.682" y1="5.515" y2="12.994" gradientUnits="userSpaceOnUse"><stop stop-color="#b23593"/><stop offset=".36" stop-color="#80318c"/><stop offset=".74" stop-color="#772f93"/><stop offset="1" stop-color="#b82e8e"/></linearGradient></defs></g></svg>