<svg version="1.0" viewBox="0 0 128 128" xmlns="http://www.w3.org/2000/svg">
 <path d="m49 82a2.0002 2.0002 0 0 0-1.7773 2.918l15 29a2.0002 2.0002 0 0 0 3.5547 0l15-29a2.0002 2.0002 0 0 0-1.7773-2.918z" fill="#fff" stroke-width=".16825"/>
 <path d="m51.961 10a2.0002 2.0002 0 0 0-1.8262 1.1855l-22.939 51.475c-6.3071 14.068-12.05 26.881-16.223 36.191-2.0864 4.6555-3.7802 8.4352-4.9551 11.059-0.58746 1.3117-1.0449 2.3346-1.3574 3.0332-0.15627 0.34933-0.27746 0.61725-0.35938 0.80078-0.04096 0.0918-0.071603 0.16111-0.09375 0.21094-0.011073 0.0249-0.020217 0.0444-0.027344 0.0606-0.00713 0.0161 0.030368-0.0815-0.039063 0.0937-0.18077 0.45635-0.15675 1.1432 0.042969 1.5781 0.19971 0.43491 0.45011 0.64362 0.62305 0.77344 0.34587 0.25963 0.50325 0.28084 0.62695 0.32031 0.2474 0.0789 0.35065 0.0866 0.46875 0.10352 0.2362 0.0338 0.45506 0.0512 0.73047 0.0684 0.55081 0.0343 1.2847 0.0583 2.1719 0.0781 1.7743 0.0397 4.1401 0.056 6.5547 0.0508 2.4146-5e-3 4.8749-0.0305 6.832-0.0781 0.97859-0.0238 1.8287-0.0527 2.5-0.0879 0.67134-0.0352 0.94818 1.9e-4 1.6367-0.17383 3.1284-0.79056 6.0738-2.8748 7.6934-5.5703 0.19559-0.32556 0.16075-0.30535 0.23438-0.4668 0.07362-0.16146 0.16478-0.37015 0.2793-0.63086 0.22903-0.52143 0.54401-1.249 0.9375-2.166 0.78698-1.8339 1.8882-4.4222 3.2227-7.5762 2.6689-6.308 6.2746-14.881 10.174-24.201 3.8992-9.3198 7.4745-17.91 10.098-24.209 1.3116-3.1495 2.3848-5.726 3.1406-7.5332 0.37789-0.90362 0.67678-1.6159 0.88476-2.1074 0.03056-0.07222 0.04372-0.10342 0.07031-0.16602 0.24539-0.04607 0.57081-0.09375 0.9375-0.09375s0.69211 0.04768 0.9375 0.09375c0.0266 0.06259 0.03975 0.09379 0.07031 0.16602 0.20798 0.49148 0.50688 1.2038 0.88477 2.1074 0.75578 1.8072 1.8291 4.3837 3.1406 7.5332 2.6231 6.299 6.1985 14.889 10.098 24.209 3.8992 9.3199 7.5049 17.893 10.174 24.201 1.3345 3.154 2.4357 5.7422 3.2227 7.5762 0.39349 0.91697 0.70847 1.6446 0.9375 2.166 0.11451 0.26071 0.20567 0.4694 0.2793 0.63086 0.07362 0.16145 0.03874 0.14117 0.23438 0.4668 1.6195 2.6955 4.565 4.7798 7.6934 5.5703 0.6885 0.174 0.96538 0.13863 1.6367 0.17383 0.67134 0.0352 1.5214 0.0641 2.5 0.0879 1.9572 0.0476 4.4174 0.0729 6.832 0.0781 2.4146 5e-3 4.7804-0.0111 6.5547-0.0508 0.88714-0.0198 1.6211-0.0438 2.1719-0.0781 0.2754-0.0172 0.49428-0.0346 0.73047-0.0684 0.11809-0.0169 0.22136-0.0246 0.46875-0.10352 0.12369-0.0395 0.28108-0.0607 0.62695-0.32031 0.17293-0.12981 0.42331-0.33851 0.62305-0.77344s0.22376-1.1218 0.043-1.5781c-0.0696-0.17579-0.0319-0.0776-0.0391-0.0937-7e-3 -0.0162-0.0163-0.0356-0.0273-0.0606-0.0221-0.0498-0.0528-0.11917-0.0937-0.21094-0.0819-0.18353-0.20311-0.45145-0.35938-0.80078-0.31254-0.69865-0.76996-1.7215-1.3574-3.0332-1.1749-2.6234-2.8687-6.4031-4.9551-11.059-4.1723-9.3101-9.9155-22.124-16.223-36.191l-2e-3 -0.0039-22.938-51.471a2.0002 2.0002 0 0 0-1.8262-1.1855h-12.15z" fill="#fff" stroke-width=".16907"/>
 <path d="m51.961 12-22.939 51.475c-12.616 28.139-22.976 51.255-23.021 51.371-0.13587 0.34301 18.47 0.30285 19.838-0.043 2.5175-0.63619 5.2222-2.5853 6.4688-4.6602 0.2977-0.49552 6.9201-16.148 14.717-34.783 7.7967-18.636 14.302-34.356 14.48-34.674 0.49609-0.88474 4.4961-0.88474 4.9922 0 0.17857 0.31846 6.6838 16.039 14.48 34.674 7.7967 18.636 14.419 34.288 14.717 34.783 1.2466 2.0748 3.9512 4.024 6.4688 4.6602 1.3684 0.34582 19.974 0.38598 19.838 0.043-0.0459-0.11589-10.406-23.232-23.021-51.371l-22.939-51.475h-12.15z" stroke-width=".16907"/>
 <path d="m49 84h30l-15 29z" fill="#f00" stroke-width=".16825"/>
</svg>
