<svg xmlns="http://www.w3.org/2000/svg" viewBox="0 0 24 24"><g fill="none"><path fill="url(#SVG0xiIzeRg)" d="M3.871 18.898L4.742 21C6.368 15.716 9.968 8.998 12 5.7c2.032 3.298 6.097 10.498 7.258 15.3l.871-2.102C19.664 16.5 15.193 6.298 12 3C9.097 6.298 5.032 15.501 3.871 18.898M12 12c-1.394 2.16-3.292 6.898-4.065 9l-.87-2.398c.58-2.102 3.484-7.804 4.935-9.9c1.742 2.096 4.645 8.1 4.936 9.9l-.872 2.096c-.58-1.8-2.612-6.3-4.064-8.698m-.871 8.402L12 19.2l.871 1.202l.87-1.202c0-.9-1.16-3.002-1.741-3.6c-.58.598-1.742 2.88-1.742 3.6z"/><defs><linearGradient id="SVG0xiIzeRg" x1="12" x2="12" y1="3" y2="21" gradientUnits="userSpaceOnUse"><stop stop-color="#00ebe4"/><stop offset="1" stop-color="#009ef8"/></linearGradient></defs></g></svg>