<svg xmlns="http://www.w3.org/2000/svg" viewBox="0 0 24 24"><g fill="none"><path fill="#D60362" d="M3.667 7L12 2v4.167l-5 2.5z"/><path fill="url(#tokenBrandedAstrafer0)" d="M20.334 7L12 2v4.167l5 2.5z"/><path fill="#F50E6A" d="M7 8.667L3.667 7v10L7 15.334z"/><path fill="url(#tokenBrandedAstrafer1)" d="M17 8.667L20.333 7v10L17 15.334z"/><path fill="url(#tokenBrandedAstrafer2)" d="M7 15.333L3.667 17L12 22v-3.75z"/><path fill="url(#tokenBrandedAstrafer3)" d="M17 15.333L20.334 17L12 22v-3.75z"/><path fill="url(#tokenBrandedAstrafer4)" d="m12 6.167l-5 2.5v6.666l5 2.917l5-2.917V8.667z"/><path fill="url(#tokenBrandedAstrafer5)" d="M11.105 9.483L9.728 7.417c0 .183.044.672.21 1.194c.167.522.423 1.089.534 1.306c-.144.177-.444.627-.533.978c-.106.433.21.327.422.544c.166.172.216.361.216.433c-.177.217-.555.717-.638.978c-.106.328-.106.65.21.65c.323 0 .112-.217.112-.433c0-.223.528-.434.633-.65a1.5 1.5 0 0 0 .106-.545c.172.111.483.367.316.545c-.21.216-.633.65-.633.866c0 .173-.072.656-.111.873c-.1 0-.317.038-.317.216c0 .217.217.978 0 1.3c-.21.334-.422.44-.422.656s-.317.216-.317.544c0 .323.528-.11.956-.11c.422 0 .422 0 .633-.112c.167-.083-.072-.25-.21-.322c.105-.072.355-.284.527-.545c.211-.327-.111-.977-.111-1.41c0-.35.144-.512.217-.545c.033.144.127.455.21.544c.084.084.245-.472.317-.76l.106.544c.111.65.844 1.3.844 2.333s0 .922.467.922c.461 0 .383-.111.383-.76c0-.651-.744-1.957-.744-2.39c0-.344.144-.216.211-.111a6.3 6.3 0 0 0-.528-1.517c-.317-.544-.105-.655.211-.76c.317-.112.528.65.467.977c-.067.328.061.544.278.65c.21.111.21-.433.316-.65c.106-.222-.11-.433 0-.65c.106-.222-.427-.544-.533-.872c-.105-.328.956-.978.956-1.467s.316-.705.633-1.033c.256-.261.244-.467.211-.545l-.844-.65l-.634 1.195l-.744.439l-.106-.111l-.21.222l.21.322l-.739.65l-.95-.65l.317-.222l-.111-.217z"/><defs><linearGradient id="tokenBrandedAstrafer0" x1="4.5" x2="19.757" y1="4.5" y2="13.218" gradientUnits="userSpaceOnUse"><stop stop-color="#FF78AB"/><stop offset="1" stop-color="#FFCEE0"/></linearGradient><linearGradient id="tokenBrandedAstrafer1" x1="12" x2="12" y1="2" y2="22" gradientUnits="userSpaceOnUse"><stop stop-color="#BE0E53"/><stop offset="1" stop-color="#C70455"/></linearGradient><linearGradient id="tokenBrandedAstrafer2" x1="7" x2="22.388" y1="5.75" y2="11.521" gradientUnits="userSpaceOnUse"><stop stop-color="#FB4C70"/><stop offset="1" stop-color="#FC2585"/></linearGradient><linearGradient id="tokenBrandedAstrafer3" x1="17" x2="1.612" y1="5.75" y2="11.521" gradientUnits="userSpaceOnUse"><stop stop-color="#E31167"/><stop offset="1" stop-color="#FB27A8"/></linearGradient><linearGradient id="tokenBrandedAstrafer4" x1="16.861" x2="6.543" y1="4.069" y2="19.308" gradientUnits="userSpaceOnUse"><stop stop-color="#BB0E53"/><stop offset=".55" stop-color="#83012F"/><stop offset="1" stop-color="#D90838"/></linearGradient><linearGradient id="tokenBrandedAstrafer5" x1="14.117" x2="7.95" y1="8.034" y2="14.295" gradientUnits="userSpaceOnUse"><stop stop-color="#FE64D4"/><stop offset=".26" stop-color="#F9328D"/><stop offset=".65" stop-color="#F7265F"/><stop offset="1" stop-color="#F32D6B"/></linearGradient></defs></g></svg>