<svg xmlns="http://www.w3.org/2000/svg" viewBox="0 0 24 24"><g fill="none"><path fill="#00eadb" d="M12 20.99a8.991 8.991 0 1 0 0-17.983a8.991 8.991 0 0 0 0 17.982"/><path fill="#e756cb" d="M3.026 12.56a8.991 8.991 0 0 0 17.949 0z"/><path fill="url(#SVGfkaypepC)" d="M19.44 6.946c.338.506.635 1.045.871 1.613c-.786.157-1.63.421-2.04 1.034c-.044.067.006.157.09.157c.534 0 1.49.012 2.372.101c.168.692.258 1.405.258 2.147h-4.906l2.305-5.091a3.5 3.5 0 0 1 1.05.04"/><path fill="url(#SVGXJJs3dBu)" d="M17.468 4.861A8.95 8.95 0 0 0 8.606 3.67c2.14.421 3.304.837 3.692 1.023c.05.022.04.09-.017.095c-1.534.371-3.81.45-5.648.253l1.085 2.41a.3.3 0 0 1 .152.068c.292.253.82.483 1.573.49c.011 0 .028.016.028.033c0 .011-.011.022-.022.028a9 9 0 0 1-1.383.163l.18.393h7.53l.326-.73a6 6 0 0 1-1.225.168c-.011 0-.017-.017 0-.022c.292-.107.9-.365 1.49-.736z"/><path fill="url(#SVGd8BhRdtw)" d="M5.245 6.064a9 9 0 0 0-.69.893c.297.281.73.495 1.331.54z"/><path fill="url(#SVG9tRQ7cve)" d="M14.236 11.999L15 10.313H9.004l.759 1.686z"/><path fill="url(#SVG8blsbd6E)" d="M10.022 12.56h3.956L12 16.913z"/><path fill="url(#SVGTkk8MeAU)" d="M7.915 11.998L6.38 8.627h.017l-.033-.08l.016.08a5.5 5.5 0 0 0-3.326 2.45q-.046.46-.045.921z"/><path fill="url(#SVGTErQnbNW)" d="M8.168 12.56L12 20.987a8.99 8.99 0 0 1-8.974-8.429z"/><path fill="url(#SVGKDLL7crj)" d="M15.833 12.56h5.141A8.99 8.99 0 0 1 12 20.987z"/><defs><linearGradient id="SVGfkaypepC" x1="-11.966" x2="-11.966" y1="-10.652" y2="52.653" gradientUnits="userSpaceOnUse"><stop stop-color="#e756cc"/><stop offset=".47" stop-color="#8f79d4"/><stop offset=".6" stop-color="#668ad7"/></linearGradient><linearGradient id="SVGXJJs3dBu" x1="11.916" x2="11.916" y1="3.022" y2="60.555" gradientUnits="userSpaceOnUse"><stop stop-color="#e756cc"/><stop offset=".47" stop-color="#8f79d4"/></linearGradient><linearGradient id="SVGd8BhRdtw" x1="103.543" x2="103.543" y1="-35.402" y2="190.49" gradientUnits="userSpaceOnUse"><stop stop-color="#e756cc"/><stop offset=".47" stop-color="#8f79d4"/></linearGradient><linearGradient id="SVG9tRQ7cve" x1="11.991" x2="11.991" y1="-75.003" y2="117.005" gradientUnits="userSpaceOnUse"><stop stop-color="#e756cc"/><stop offset=".47" stop-color="#8f79d4"/><stop offset=".6" stop-color="#668ad7"/></linearGradient><linearGradient id="SVG8blsbd6E" x1="12" x2="12" y1="-36.486" y2="37.839" gradientUnits="userSpaceOnUse"><stop offset=".47" stop-color="#8f79d4"/><stop offset=".6" stop-color="#668ad7"/><stop offset="1" stop-color="#01e9c9"/></linearGradient><linearGradient id="SVGTkk8MeAU" x1="35.966" x2="35.966" y1="-25.907" y2="67.909" gradientUnits="userSpaceOnUse"><stop stop-color="#e756cc"/><stop offset=".47" stop-color="#8f79d4"/><stop offset=".6" stop-color="#668ad7"/></linearGradient><linearGradient id="SVGTErQnbNW" x1="20.991" x2="20.991" y1="-17.402" y2="21" gradientUnits="userSpaceOnUse"><stop offset=".47" stop-color="#8f79d4"/><stop offset=".6" stop-color="#668ad7"/><stop offset="1" stop-color="#01e9c9"/></linearGradient><linearGradient id="SVGKDLL7crj" x1="12" x2="12" y1="3.006" y2="20.988" gradientUnits="userSpaceOnUse"><stop offset=".47" stop-color="#8f79d4"/><stop offset=".6" stop-color="#668ad7"/><stop offset="1" stop-color="#01e9c9"/></linearGradient></defs></g></svg>