<svg xmlns="http://www.w3.org/2000/svg" width="112" height="112"><g fill="none" transform="translate(39 22)"><rect width="34.04" height="66.36" x=".5" y=".5" fill="#FFF" rx="2"/><path fill="#3F464C" d="M32.54 0a2.5 2.5 0 0 1 2.5 2.5v62.36a2.5 2.5 0 0 1-2.5 2.5H2.5a2.5 2.5 0 0 1-2.5-2.5V2.5A2.5 2.5 0 0 1 2.5 0zm0 1H2.5A1.5 1.5 0 0 0 1 2.5v62.36a1.5 1.5 0 0 0 1.5 1.5h30.04a1.5 1.5 0 0 0 1.5-1.5V2.5a1.5 1.5 0 0 0-1.5-1.5"/><path fill="#A6A9AC" d="M24.71 31.4h-.16a6.6 6.6 0 0 0-3.88 0 .55.55 0 0 1-.33-1 7.64 7.64 0 0 1 4.54 0 .54.54 0 0 1-.17 1.06zm.71-3.46a.5.5 0 0 1-.17 0 9 9 0 0 0-5.28 0 .53.53 0 0 1-.68-.35.54.54 0 0 1 .35-.68 10 10 0 0 1 5.94 0 .54.54 0 0 1-.16 1.06zm1.36-3.41a.5.5 0 0 1-.16 0 13.67 13.67 0 0 0-8 0 .54.54 0 1 1-.33-1.03 14.57 14.57 0 0 1 8.67 0 .55.55 0 0 1 .35.68.56.56 0 0 1-.53.35"/><path fill="#A6A9AC" d="M20.266 30.161a7.9 7.9 0 0 1 4.68-.002.79.79 0 0 1-.248 1.55l-.238-.011v-.065l-.266-.074a6.45 6.45 0 0 0-3.221.009l-.297.082a.8.8 0 0 1-.78-.55c-.11-.334.012-.702.37-.939m4.54.478a7.44 7.44 0 0 0-4.322-.034.3.3 0 0 0-.113.34c.042.125.16.208.225.216 1.312-.405 2.716-.405 3.954-.011h.362l.03-.024a.3.3 0 0 0 .065-.1l.016-.06a.29.29 0 0 0-.217-.327m-5.24-3.968a10.24 10.24 0 0 1 6.081-.002.79.79 0 0 1-.234 1.55l-.243-.006v-.037l-.33-.093a8.75 8.75 0 0 0-4.454-.002l-.335.095a.78.78 0 0 1-.999-.51.79.79 0 0 1 .514-.995m5.94.478a9.75 9.75 0 0 0-5.79 0 .29.29 0 0 0-.186.37.28.28 0 0 0 .367.182 9.2 9.2 0 0 1 5.395-.008.3.3 0 0 0 .086 0l.239-.04.026-.02a.3.3 0 0 0 .063-.1l.016-.06a.29.29 0 0 0-.216-.324m-7.29-3.888a14.8 14.8 0 0 1 8.824.002.804.804 0 0 1 .502 1.01.81.81 0 0 1-.767.507l.025-.002-.06.008a1 1 0 0 1-.09-.002l-.103-.015a13.4 13.4 0 0 0-7.846-.002.79.79 0 1 1-.485-1.506m8.67.478a14.3 14.3 0 0 0-8.524 0 .29.29 0 0 0-.048.539c.07.035.151.04.233.013a13.9 13.9 0 0 1 8.117-.007.2.2 0 0 0 .072 0l.049-.004a.31.31 0 0 0 .286-.172.3.3 0 0 0-.185-.37"/><rect width="8.34" height="8.34" x="18.44" y="34.82" fill="#C30F14" rx="1.59"/><path fill="#96A6B2" d="M25.45 50.41c0 .39-.57.59-.85.59h-4a.78.78 0 0 1-.85-.59c0-.39.57-.58.85-.58h4c.57 0 .85.19.85.58"/><path fill="#96A6B2" d="M24.6 48.83c1.06 0 1.85.539 1.85 1.58 0 1.042-.986 1.59-1.85 1.59h-3.987l-.052.005a1.78 1.78 0 0 1-1.739-1.207l-.044-.151-.028-.117v-.12c0-1.048.981-1.58 1.85-1.58z"/></g></svg>