<svg xmlns="http://www.w3.org/2000/svg" width="112" height="112"><g fill="none" fill-rule="evenodd"><path fill="#E2E3E4" fill-rule="nonzero" d="m84.83 83.43 14.38-1.12v2.68l-14.88 2.56"/><path fill="#3F464C" fill-rule="nonzero" d="M99.71 81.77v3.641l-.415.072-14.88 2.56-.17-.986 14.465-2.489V82.85l-13.841 1.078-.078-.996 14.38-1.12z"/><path fill="#FFF" fill-rule="nonzero" d="M101.84 82.15c.96-.16 1.66-1 1.66-1.97V30.5c0-1.1-.9-2-2-2h-4.8l2.51 53.91"/><path fill="#3F464C" fill-rule="nonzero" d="m97.227 29.065.365 7.835.354 7.611.024.511.484 10.41.461 9.897.024.513.378 8.121.392 8.424a.5.5 0 1 1-.998.046l-.393-8.423-.354-7.611-.024-.511-.484-10.41-.461-9.897-.024-.513-.378-8.121-.392-8.424A.5.5 0 0 1 96.7 28h4.8c1.376 0 2.5 1.124 2.5 2.5v49.68a2.5 2.5 0 0 1-2.078 2.463.5.5 0 0 1-.164-.986A1.5 1.5 0 0 0 103 80.18V30.5c0-.824-.676-1.5-1.5-1.5h-4.277z"/><path fill="#C30F14" fill-rule="nonzero" d="M99.21 30.62v51.92l-3.87.54v-49.2l-25.99.14-6.67-5.38h33.33l1.19.01c1.1 0 2 .86 2 1.96z"/><path fill="#991721" fill-rule="nonzero" d="M62.68 28.14h33.418l.037.001h.091l.766.007.09.001h.037l.081.001c1.27 0 2.631.921 2.791 2.137l.009.104V82.91l-.72.125-3.87.54-.57.08-.001-49.273-25.486.138-.178.001-.139-.112-6.67-5.38-1.102-.889zm6.845 5.379 25.812-.139.503-.003v49.127l3.157-.41L99 30.828l-.003-.218c0-.813-.666-1.46-1.505-1.46h-.083l-.038-.001h-.09l-.384-.004-.382-.003-.09-.001h-.037l-32.293-.001z"/><path fill="#C30F14" fill-rule="nonzero" d="M95.34 30.57v4.5H66.53l-5.87-6.5h32.68c1.11 0 2 .89 2 2"/><path fill="#991721" fill-rule="nonzero" d="M93.5 28.07c1.386 0 2.5 1.114 2.5 2.5v4.5a.5.5 0 0 1-.5.5H66.53a.5.5 0 0 1-.371-.165l-5.87-6.5a.5.5 0 0 1 .371-.835zm-26.747 6.5H95v-4c0-.785-.59-1.421-1.355-1.493l-.145-.007H61.785z"/><path fill="#FFF" fill-rule="nonzero" d="M89.73 83.92 50.2 28.55h12.48l6.67 5.34h25.43c.55 0 1 .45 1 1v48.17z"/><path fill="#991721" fill-rule="nonzero" d="m50.6 28.25 39.11 52.011 6.244 2.33-.35.936-6.38-2.38a.5.5 0 0 1-.225-.167L49.8 28.85z"/><path fill="#FFF" fill-rule="nonzero" d="M95.34 34.84v48.27l-4.84.81L56.86 28.5h5.13l6.67 5.34h25.68c.55 0 1 .45 1 1"/><path fill="#3F464C" fill-rule="nonzero" d="m62.165 28 .137.11 6.534 5.23H94.5c.778 0 1.42.597 1.493 1.356l.007.144v48.693l-.417.07-5 .81-.335.056-.175-.29-33.64-55.42-.461-.759zm-.351 1h-4.066l33.003 54.37L95 82.686V34.84a.504.504 0 0 0-.41-.492l-.09-.008H68.485l-.137-.11z"/><path fill="#FFF" fill-rule="nonzero" d="M10.5 84.33c-1.1 0-2-.9-2-2V30.5c0-1.1.9-2 2-2h47.48l6.67 5.34h25.68c.55 0 1 .45 1 1V82.3a2 2 0 0 1-2 2z"/><path fill="#3F464C" fill-rule="nonzero" d="m58.155 28 .137.11 6.534 5.23H90.51A1.5 1.5 0 0 1 92 34.696V82.3a2.49 2.49 0 0 1-2.49 2.5l-79.01.03a2.506 2.506 0 0 1-2.5-2.5V30.5c0-1.376 1.124-2.5 2.5-2.5zm-.351 1H10.5c-.824 0-1.5.676-1.5 1.5v51.83c0 .824.676 1.5 1.5 1.5l79-.03a1.5 1.5 0 0 0 1.493-1.356L91 82.3V34.84c0-.274-.226-.5-.5-.5H64.475l-.137-.11z"/><path fill="#FFF" fill-rule="nonzero" d="M84.33 87.55H15c-.28 0-.5-.22-.5-.5v-8.24c0-.55.45-1 1-1h68.33c.55 0 1 .45 1 1v8.24c0 .28-.22.5-.5.5"/><path fill="#3F464C" fill-rule="nonzero" d="M83.83 77.31c.826 0 1.5.674 1.5 1.5v8.24c0 .556-.444 1-1 1H15c-.556 0-1-.444-1-1v-8.24c0-.826.674-1.5 1.5-1.5zm0 1H15.5c-.274 0-.5.226-.5.5v8.24h69.33v-8.24c0-.274-.226-.5-.5-.5"/><g fill="#A8ACAE" fill-rule="nonzero" transform="translate(73 41)"><rect width="12" height="3" rx="1"/><rect width="12" height="3" y="7" rx="1"/><rect width="12" height="3" y="14" rx="1"/><rect width="12" height="3" y="21" rx="1"/></g><path fill="#3F464C" fill-rule="nonzero" d="m101.767 81.655.146.99-6.49.958-4.84.81-.166-.986 4.85-.812z"/><path stroke="#3F464C" stroke-linejoin="round" d="M100.47 28.5h-42.2"/></g></svg>