<svg xmlns="http://www.w3.org/2000/svg" width="112" height="112"><g fill="none"><path fill="#9D161B" d="m60.667 83.99 9.89-8.18 7.58 6.06 2.27 3.43c-1.66.83-1.6 1.84-1.92 1.79z"/><path fill="#B7191F" d="M79.607 86.3c-.59.48-1.33.25-2-.32-1.58-1.41-3-2.62-5.79-5-1.17-1-2.87-1.78-4.43-.11-1.2 1.28-2.88 3-4.35 4.52-1.78 1.91-3.33 3.29-4 4a4.76 4.76 0 0 1-3.94 1.06c-.81-.1-20.28-4.61-20.28-4.61-1.18-.43-2-2.51-2.17-3 .56-1.15 4.86-8.41 4.86-8.41a5.5 5.5 0 0 0 .83-2.9V22.87a1.5 1.5 0 0 1 1.58-1.51h-.17l7.93-1.1a.3.3 0 0 1 .13 0l24.19 1.65a1.83 1.83 0 0 1 1.65 1.81l.35 49.27a5.5 5.5 0 0 0 .83 2.89l5.13 9c.21.34.59.51.46.63a8 8 0 0 1-.81.79"/><path fill="#3F464C" d="M47.565 19.773a.6.6 0 0 1 .276-.012l24.205 1.651a2.33 2.33 0 0 1 2.101 2.304l.35 49.273c.002.929.263 1.838.764 2.643l5.121 8.985a1 1 0 0 0 .114.141c.032.033.212.202.26.255.224.25.31.578.036.828a8 8 0 0 1-.863.842c-.78.634-1.75.44-2.655-.33l-.49-.436-.194-.171-.205-.18-.3-.265a495 495 0 0 0-4.593-3.94c-1.366-1.169-2.618-1.35-3.74-.149-.708.755-1.514 1.594-2.937 3.062l-.038.039-1.374 1.418c-1.2 1.288-4.021 4.022-4.042 4.04a5.24 5.24 0 0 1-4.325 1.175c-.14-.017-.728-.14-1.725-.36l-.369-.082a1435 1435 0 0 1-8.084-1.836l-.15-.035a5039 5039 0 0 1-9.147-2.108c-.701-.162-.701-.162-.915-.215-.661-.241-1.223-.844-1.724-1.694a9.5 9.5 0 0 1-.747-1.612l-.068-.196.09-.187c.236-.482 1.08-1.963 2.362-4.162l.056-.096a781 781 0 0 1 2.25-3.83l.218-.367a5 5 0 0 0 .754-2.636V22.874a2 2 0 0 1 1.743-2l.098-.008zm.13.974c.031.007.063.007.05.008l-7.827 1.086v.019h-.145a1 1 0 0 0-.936 1.01v48.66a6 6 0 0 1-.9 3.155l-.21.357a880 880 0 0 0-2.248 3.825l-.056.096c-1.104 1.893-1.89 3.266-2.215 3.88l-.017.03.007.017c.115.297.27.641.448.973l.138.246c.393.668.814 1.12 1.146 1.244l3.116.72a5038 5038 0 0 0 7.036 1.62c5.932 1.36 9.757 2.221 10.105 2.265a4.25 4.25 0 0 0 3.486-.911l.03-.03c.308-.298 2.862-2.781 3.975-3.975l1.381-1.425.038-.04a258 258 0 0 0 2.925-3.048c1.56-1.67 3.395-1.403 5.12.07 3.162 2.699 3.958 3.382 5.11 4.397l.194.172q.25.22.485.431c.57.485 1.035.578 1.36.313l.194-.17q.1-.089.197-.184l.098-.101a2 2 0 0 1-.179-.212l-.078-.117-5.12-8.983a6 6 0 0 1-.906-3.151l-.35-49.271a1.327 1.327 0 0 0-1.184-1.314z"/><path fill="#FFF" d="M80.217 85.73a86 86 0 0 0-7.58-7c-2.12-1.81-4.47-1.86-6.09-.3-1.06 1-3.37 3.63-4.65 5-1.56 1.69-2.6 2.9-3.31 3.57a3.81 3.81 0 0 1-4.1 1.11c-.81-.12-21.57-4.8-21.57-4.8a27 27 0 0 1-1.31-3c0-.17 5.92-8.74 5.92-8.74a5.5 5.5 0 0 0 .83-2.89V21.21c0-.87 1.11-1.5 1.11-1.5l8.21-2.21h.13l24.57 1.65a1.81 1.81 0 0 1 1.62 1.84v49.23a5.5 5.5 0 0 0 .83 2.89l6.23 10.46c.57.88-.06 1.42-.84 2.16"/><path fill="#3F464C" d="m47.677 17 .164.001 24.588 1.652a2.307 2.307 0 0 1 2.068 2.337v49.23a5 5 0 0 0 .76 2.634l6.22 10.444c.453.7.38 1.345-.116 1.974-.18.228-.266.314-.8.82l-.36.343-.345-.359a86 86 0 0 0-7.544-6.966c-1.905-1.627-3.972-1.713-5.422-.316-.49.462-1.243 1.264-2.468 2.61l-.082.091-1.113 1.226c-.41.45-.71.778-.963 1.048-.343.373-.675.736-1.072 1.173l-.899.992c-.646.71-1.032 1.118-1.328 1.394-1.148 1.321-2.98 1.818-4.551 1.277-.369-.055-4.3-.924-10.809-2.381l-.11-.025A7956 7956 0 0 1 33.1 83.864l-.098-.022-.195-.044-.229-.052-.106-.209a28 28 0 0 1-1.334-3.055l-.03-.172c0-.251.302-.703 3.002-4.651l.044-.065a1190 1190 0 0 1 2.929-4.26l.02-.029a5 5 0 0 0 .754-2.625V21.21c0-.543.273-1.019.709-1.437.242-.233.482-.4.654-.498l.117-.048 8.21-2.21zm-8.01 3.173-.024.015a2.7 2.7 0 0 0-.385.307c-.258.247-.4.497-.4.715v47.47a6 6 0 0 1-.92 3.174l-.254.368a1349 1349 0 0 0-2.704 3.937l-.045.065a417 417 0 0 0-2.004 2.952 73 73 0 0 0-.757 1.15l-.017.025.148.388a27 27 0 0 0 .772 1.767l.182.368.061.014.473.107.15.034a9025 9025 0 0 0 9.77 2.194l.11.025c6.36 1.424 10.41 2.319 10.825 2.388 1.273.432 2.68.051 3.596-1 .306-.289.68-.683 1.31-1.375l.897-.99c.24-.264.455-.501.665-.73l.416-.452c.25-.268.549-.594.955-1.041l1.113-1.225.082-.091c1.245-1.368 2.006-2.179 2.518-2.662 1.841-1.773 4.486-1.663 6.754.273a87 87 0 0 1 7.624 7.04l-.348-.357.011-.01.115-.114c.098-.1.152-.163.22-.249.246-.312.267-.494.051-.827l-6.224-10.451a6 6 0 0 1-.906-3.155V20.979a1.306 1.306 0 0 0-1.153-1.33L47.807 18h-.068z"/><path fill="#A6A9AC" d="M68.757 54.99v21.86q.315-.038.63 0V54.99z"/><path fill="#FFF" d="M63.617 23.27v48.5a5.53 5.53 0 0 1-.78 2.83s-3.73 6.52-6.31 9.9a2.73 2.73 0 0 1-3.09 1.19l-20.76-4.35a1.52 1.52 0 0 1-.95-2.28l5.62-7.47a5.5 5.5 0 0 0 .83-2.89V21.21a1.52 1.52 0 0 1 1.69-1.51l22.42 2.07a1.51 1.51 0 0 1 1.33 1.5"/><path fill="#3F464C" d="m39.726 19.19.187.012 22.434 2.072a2.01 2.01 0 0 1 1.77 1.996v48.5a6 6 0 0 1-.846 3.078l-.297.514a166 166 0 0 1-3.313 5.448q-.39.613-.765 1.179a49 49 0 0 1-1.943 2.773c-.763 1.24-2.26 1.816-3.618 1.417l-20.77-4.352a2.02 2.02 0 0 1-1.41-1.19c-.25-.602-.195-1.286.173-1.878l5.595-7.434a5 5 0 0 0 .754-2.625V21.21a2.02 2.02 0 0 1 2.236-2.008zm.085 1.007a1.02 1.02 0 0 0-1.134 1.013V68.7a6 6 0 0 1-.93 3.19l-5.595 7.433a1.02 1.02 0 0 0 .628 1.528l20.797 4.359c.964.281 1.998-.117 2.553-1.013.564-.74 1.214-1.67 1.931-2.759q.37-.56.758-1.167a165 165 0 0 0 3.589-5.927 5.03 5.03 0 0 0 .71-2.574v-48.5c0-.512-.383-.943-.877-1.002z"/><path fill="#FFF" d="M72.227 60.77a3.15 3.15 0 0 1-3.37 2.87 3.15 3.15 0 0 1-3.37-2.87V22.32c0-1.12-.7-2.1-2.5-2.19l-1.17-.08v-.37l7.71.47c1.86.14 2.7.12 2.7 1.65z"/><path fill="#3F464C" d="m61.847 19.18 7.718.471.495.037c2.028.152 2.667.533 2.667 2.112v38.97l-.002.043c-.172 1.99-1.912 3.473-3.831 3.326-1.993.147-3.733-1.336-3.907-3.369V22.32c0-.99-.637-1.621-2.034-1.691l-1.17-.08a.5.5 0 0 1-.466-.499v-.37a.5.5 0 0 1 .53-.5m3.31 1.204.058.05c.505.47.772 1.118.772 1.886l-.002 38.407c.125 1.445 1.389 2.521 2.909 2.414a2.65 2.65 0 0 0 2.835-2.414l-.002.008V21.8c0-.859-.156-.987-1.552-1.1l-.19-.015-.488-.036z"/><path fill="#B7191F" d="m70.057 49.15-2.42.16a.18.18 0 0 1-.22-.17v-2.3a.21.21 0 0 1 .19-.2l2.39-.16a.18.18 0 0 1 .23.17v2.34a.21.21 0 0 1-.17.16"/><path fill="#A6A9AC" d="m70.117 56.63-2.72.2a.5.5 0 0 1-.53-.52v-.58a.6.6 0 0 1 .53-.59l2.72-.2a.5.5 0 0 1 .53.52v.58a.6.6 0 0 1-.53.59"/><g fill="#A6A9AC" transform="translate(66.464 36.296)"><circle cx="2.403" cy="5.434" r="1"/><path d="M2.403 4.559c.462 0 .815.401.815.875 0 .473-.353.875-.815.875s-.815-.402-.815-.875c0-.474.354-.875.815-.875m.93-.725a1.94 1.94 0 0 0-1.87 0c-.19.09-.4 0-.49-.3a.71.71 0 0 1 .24-.83c.75-.4 1.65-.4 2.4 0a.7.7 0 0 1 .23.83c-.1.26-.31.39-.51.3"/><path d="M1.154 2.594a2.68 2.68 0 0 1 2.534.01.824.824 0 0 1 .272.975c-.124.323-.406.491-.678.369a1.83 1.83 0 0 0-1.765-.001c-.278.131-.558-.025-.66-.368a.84.84 0 0 1 .297-.985m2.4.22a2.42 2.42 0 0 0-2.267-.01.59.59 0 0 0-.194.694c.065.215.188.284.31.226.62-.34 1.37-.34 1.99 0l-.006-.003.051.014c.09.012.184-.047.252-.168l.038-.081a.57.57 0 0 0-.174-.672m.679-1.07a3.73 3.73 0 0 0-3.47 0 .42.42 0 0 1-.58-.28.66.66 0 0 1 .25-.83 4.44 4.44 0 0 1 4.13 0 .66.66 0 0 1 .25.83.42.42 0 0 1-.58.28"/><path d="M.375.523A4.57 4.57 0 0 1 4.63.528c.331.209.458.63.304.966a.545.545 0 0 1-.752.364 3.61 3.61 0 0 0-3.367 0 .545.545 0 0 1-.746-.343.79.79 0 0 1 .306-.992m4.13.221A4.31 4.31 0 0 0 .5.74a.544.544 0 0 0-.196.693.295.295 0 0 0 .401.2 3.86 3.86 0 0 1 3.586 0l-.005-.003.06.02a.3.3 0 0 0 .127-.002l.061-.021a.32.32 0 0 0 .165-.215.53.53 0 0 0-.194-.668"/></g></g></svg>