<svg xmlns="http://www.w3.org/2000/svg" width="112" height="112"><g fill="none" transform="translate(42 27)"><rect width="27" height="58" x=".5" y=".5" fill="#FFF" rx="3"/><path fill="#3F464C" d="M24.5 0A3.5 3.5 0 0 1 28 3.5v52a3.5 3.5 0 0 1-3.5 3.5h-21A3.5 3.5 0 0 1 0 55.5v-52A3.5 3.5 0 0 1 3.5 0zm0 1h-21A2.5 2.5 0 0 0 1 3.5v52A2.5 2.5 0 0 0 3.5 58h21a2.5 2.5 0 0 0 2.5-2.5v-52A2.5 2.5 0 0 0 24.5 1"/><path fill="#B7191F" d="M20.7 25.85h3.59v13.02H20.7zm0 25.82h3.59v5.36H20.7z"/><path fill="#96A6B2" d="M20.7 46.02h3.59v3.59H20.7z"/><path fill="#3F464C" d="M13.26 3.57h1.48v2.89h-1.48zm0 17.12h1.48v2.89h-1.48z"/><path fill="#3F464C" d="M14 3.08c5.799 0 10.5 4.701 10.5 10.5s-4.701 10.5-10.5 10.5-10.5-4.701-10.5-10.5S8.201 3.08 14 3.08m0 1a9.5 9.5 0 1 0 0 19 9.5 9.5 0 0 0 0-19"/><path fill="#3F464C" d="M7.22 13.58a1.48 1.48 0 1 1 1.48 1.48 1.49 1.49 0 0 1-1.48-1.48m12.08 1.48a1.49 1.49 0 1 0 .02-2.98 1.49 1.49 0 0 0-.02 2.98"/></g></svg>