<svg xmlns="http://www.w3.org/2000/svg" width="112" height="112"><g fill="none"><path fill="#FFF" d="M18.55 88.36s36.1 4.41 40 4.41c10.63.9 25.1-3.48 28.15-4.65V80l-22.24 7.83s-4.52-.29-6.06.27-4 0-6.43-.47C49.86 87.2 18.5 86 18.5 86z"/><path fill="#3F464C" d="M86.534 79.528A.5.5 0 0 1 87.2 80v8.12a.5.5 0 0 1-.32.467c-6.941 2.662-19.869 5.401-28.33 4.683-1.652 0-8.842-.747-19.887-2.02l-1.633-.188a3234 3234 0 0 1-18.134-2.156l-.407-.05a.5.5 0 0 1-.439-.485L18 86.01a.5.5 0 0 1 .52-.51l.376.014a2416 2416 0 0 1 4.871.192c3.936.158 7.872.323 11.546.484 1.555.069 3.032.136 4.42.2 7.202.335 11.552.59 12.332.748l.069.013.093.019.07.013.312.061c3.278.644 4.56.77 5.62.385.618-.225 1.622-.335 2.936-.366a41 41 0 0 1 3.14.056l.084.004zm-.335 1.178-21.573 7.596-.198.027a40 40 0 0 0-3.24-.066c-1.208.03-2.133.13-2.617.307-1.312.477-2.652.344-6.155-.343l-.312-.061-.234-.046c-.703-.143-5.13-.402-12.184-.73-1.387-.064-2.863-.131-4.417-.2a3056 3056 0 0 0-16.411-.676l.152.006.03 1.396.232.028.654.08.243.03a3474 3474 0 0 0 18.608 2.203c10.959 1.262 18.181 2.013 19.815 2.015 8.325.705 21.117-2.006 27.929-4.619l-.322.121z"/><path fill="#FFF" d="M18.54 86s37.23 3.91 42.88 3.91C68 89.87 77 83.32 77 83.32l-5.29.05a3.75 3.75 0 0 0-1.62.39c-1.7.85-6.15 3.11-8.22 3.11C56 86.87 28 83.78 28 83.78s2.85-3.11 3.2-3.46-1.44-.51-5.45-.51A56.6 56.6 0 0 0 18.54 86"/><path fill="#3F464C" d="M25.75 79.31c2.035 0 3.489.041 4.406.126.492.045.84.104 1.071.185.471.167.753.626.327 1.053-.137.136-.713.756-1.569 1.685l-.013.014c-.352.382-.728.79-1.103 1.2l.166-.183.044.005.19.02a1586 1586 0 0 0 16.25 1.683c8.247.803 14.07 1.272 16.351 1.272.783 0 2.072-.379 3.715-1.055q.674-.278 1.412-.614c.924-.421 1.45-.678 2.87-1.389a4.25 4.25 0 0 1 1.838-.442l5.29-.05a.5.5 0 0 1 .3.904q-.114.083-.412.29-.496.344-1.129.755a53 53 0 0 1-3.87 2.287c-2.04 1.09-4.034 1.966-5.915 2.553-1.648.514-3.17.793-4.549.801-2.32 0-9.899-.634-21.13-1.717l-2.477-.24a2859 2859 0 0 1-18.905-1.912l-.42-.044a.5.5 0 0 1-.304-.848 57 57 0 0 1 7.273-6.244.5.5 0 0 1 .293-.095m-.467 1.464a56 56 0 0 0-5.041 4.255l-.605.583.089.01q.109.01.225.023l.251.026a2996 2996 0 0 0 20.183 2.027c11.179 1.077 18.764 1.712 21.032 1.712 1.266-.008 2.694-.269 4.255-.755 1.814-.566 3.752-1.419 5.742-2.481a52 52 0 0 0 3.796-2.244l.145-.095-3.639.035a3.3 3.3 0 0 0-1.181.238l-.221.1c-1.431.715-1.964.975-2.903 1.403q-.752.342-1.445.629c-1.76.724-3.142 1.13-4.096 1.13-2.329 0-8.159-.47-16.448-1.277l-2.738-.27a1562 1562 0 0 1-14.423-1.511l-.316-.035a.5.5 0 0 1-.314-.835l1.606-1.747.013-.014c.437-.475.798-.865 1.07-1.156l.054-.06-.14-.016-.17-.017c-.88-.082-2.308-.122-4.314-.122h.163z"/><path fill="#FFF" d="m81.21 18.5-59.83 5.14c-.38.04-2.25 4.93-2.78 6.65a1.3 1.3 0 0 0-.08.42v43.92a.6.6 0 0 0 0 .18l1.48 5.1c.32 1.11.36 1.35 1.22 1.54l60 5z"/><path fill="#A6A9AC" d="m76.29 18.57-.02 67.31h-1l.02-67.31z"/><path fill="#3F464C" d="M81.457 18.002A.5.5 0 0 1 82 18.5l.01 67.95a.5.5 0 0 1-.542.498l-60.073-5.011c-.8-.188-1.128-.473-1.372-1.197a12 12 0 0 1-.203-.69l-1.49-5.1-.018-.1a1.3 1.3 0 0 1-.002-.22V30.691q.01-.278.092-.548c.944-3.063 2.516-7.003 3.215-7.001zM81 19.045l-59.132 5.077q-.096.146-.224.4l-.066.134a29 29 0 0 0-.798 1.85c-.542 1.359-1.143 3.028-1.42 3.928a1.2 1.2 0 0 0-.049.276l-.002 43.96a1 1 0 0 0 0 .1l-.002-.042 1.476 5.048c.102.368.136.484.174.6l.015.045c.13.387.182.431.58.53l59.458 4.955z"/><path fill="#FFF" d="m92 85-10.4 1.43a1.12 1.12 0 0 1-1.17-1.13V19.66a1.13 1.13 0 0 1 1.18-1.13L92 20.31c.6 0 1 .53 1 1.52v62.43a1 1 0 0 1-1 .74"/><path fill="#3F464C" d="m81.528 18.035.166.002L92 19.81c.945 0 1.5.813 1.5 2.02v62.43l-.017.13a1.5 1.5 0 0 1-1.5 1.11l.059-.001-10.42 1.43a1.62 1.62 0 0 1-1.072-.344l-.125-.109a1.62 1.62 0 0 1-.495-1.176V19.66c0-.445.181-.87.503-1.178.321-.308.754-.471 1.261-.445zm.06.994a.633.633 0 0 0-.658.631v65.645a.62.62 0 0 0 .19.452.62.62 0 0 0 .412.178l10.4-1.43.085-.005a.5.5 0 0 0 .5-.37l-.017.046V21.83c0-.662-.176-.971-.5-1.02l-.084-.007z"/><path fill="#B7191F" d="M89 74.34v4.58l-4.6.47v-4.58zM90.58 72l-7.8.8a.6.6 0 0 0-.6.6v7.8a.6.6 0 0 0 .6.6l7.8-.8a.59.59 0 0 0 .6-.6v-7.8a.6.6 0 0 0-.6-.6"/><path fill="#A6A9AC" d="m89.88 74.19-6.4.8a.3.3 0 0 1-.3-.3v-1.63a.31.31 0 0 1 .3-.3l6.4-.8a.3.3 0 0 1 .3.3v1.63a.29.29 0 0 1-.3.3m.3-7.8-7 .4v-2.23l7-.4zm-7-10.03h7v2.23h-7zm0-8h7v2.23h-7zm0-8h7v2.23h-7z"/></g></svg>