<svg xmlns="http://www.w3.org/2000/svg" width="112" height="112"><g fill="none"><path fill="#FFF" d="M98.933 28.87c-.53-2.61-2.26-3.33-4.3-3.33H18.36c-2 0-3.77.72-4.3 3.33s-.67 17.82-.48 24.53.42 22.12 1.87 29.93c.35 1.87 1.29 3.32 3.87 3.32h74.354c2.58 0 3.52-1.45 3.87-3.32 1.45-7.81 1.67-23.21 1.87-29.93s.06-21.91-.48-24.53"/><path fill="#3F464C" d="M94.634 25.04c2.59 0 4.26 1.122 4.79 3.73.356 1.732.573 9.61.581 16.82v.897a252 252 0 0 1-.092 6.928c-.023.778-.144 5.42-.187 6.921-.095 3.265-.2 6.09-.334 8.785-.307 6.161-.741 10.984-1.357 14.301-.45 2.408-1.781 3.728-4.361 3.728H19.32c-2.58 0-3.91-1.32-4.361-3.729-.616-3.316-1.052-8.145-1.36-14.295a415 415 0 0 1-.335-8.79c-.049-1.676-.169-6.413-.183-6.922A291 291 0 0 1 13 44.216l.005-.91c.048-6.518.252-12.993.566-14.535.527-2.599 2.224-3.731 4.79-3.731zm0 1H18.36c-2.125 0-3.385.841-3.81 2.93-.334 1.645-.543 9.475-.554 16.642v1.334c.005 2.353.032 4.584.084 6.44.015.511.135 5.247.184 6.92.093 3.236.199 6.072.334 8.77.306 6.109.739 10.901 1.344 14.162.368 1.967 1.32 2.912 3.378 2.912h74.354c2.057 0 3.01-.945 3.378-2.911.605-3.261 1.036-8.048 1.341-14.168.134-2.687.238-5.505.333-8.764.018-.62.05-1.778.081-2.979l.016-.601c.04-1.5.078-2.938.09-3.342.059-1.965.088-4.356.091-6.868v-.89l-.002-.899c-.023-6.905-.231-14.17-.558-15.757-.427-2.101-1.662-2.931-3.81-2.931"/><path fill="#B7191F" d="M87.63 34.53H25.37a1.79 1.79 0 0 1-1.79-1.78V25h65.84v7.75a1.79 1.79 0 0 1-1.79 1.78"/><g fill="#A6A9AC" transform="translate(62.66 71.85)"><rect width="9.75" height="2.17" x="-3.79" y="3.79" rx=".34" transform="rotate(-90 1.085 4.875)"/><rect width="2.17" height="9.75" x="6.23" rx=".34"/><rect width="2.17" height="9.75" x="12.46" rx=".34"/><rect width="2.17" height="9.75" x="18.69" rx=".34"/><rect width="2.17" height="9.75" x="24.91" rx=".34"/></g></g></svg>