<svg xmlns="http://www.w3.org/2000/svg" width="112" height="112"><g fill="none"><path fill="#3F464C" d="m59.211 81.69 7.27-6.13 5.68 4.54 1.7 2.57c-1.25.62-1.17 1.53-1.41 1.49z"/><path fill="#A6A9AC" d="M73.131 83.5c-.45.36-.93.26-1.42-.17-1.2-1.07-2.25-1.95-4.34-3.78-.88-.77-1.74-1.35-2.92-.08-.91 1-2.18 2.24-3.29 3.42a58 58 0 0 1-3 3 3.57 3.57 0 0 1-3 .8c-.62-.07-14.45-3.25-15.58-3.56-.64-.21-1.3-2.37-1.36-2.48-.8-1.52 3.63-6.1 3.63-6.1a4.6 4.6 0 0 0 .63-2.33V34.19a1.15 1.15 0 0 1 1.18-1.14h-.14l6-.84h.1l18.15 1.19c.7.076 1.23.667 1.23 1.37v38.76c0 .775.219 1.534.63 2.19l3.84 6.84c.16.26.37.24.28.34a6 6 0 0 1-.62.6"/><path fill="#3F464C" d="m49.521 31.71.133.001 18.171 1.192a1.88 1.88 0 0 1 1.676 1.867v38.76c0 .68.192 1.348.566 1.945l3.83 6.823.018.025c.008.01.162.113.215.171.21.23.177.536-.005.738a6 6 0 0 1-.674.652l-.008.006c-.644.516-1.383.411-2.065-.187l-.446-.396-.144-.126c-.37-.325-2.731-2.366-3.746-3.255-1.01-.883-1.442-.958-2.221-.12-.29.32-.627.674-1.064 1.125l-1.183 1.21-.373.384c-.249.257-.47.489-.675.707a59 59 0 0 1-3.039 3.037 4.05 4.05 0 0 1-3.382.918c-.294-.033-3.664-.788-7.215-1.6l-.736-.168c-3.562-.816-7.103-1.642-7.729-1.814a1 1 0 0 1-.136-.057c-.398-.207-.712-.698-1.044-1.45-.196-.444-.496-1.27-.466-1.215-.412-.781-.003-1.88.962-3.32q.378-.564.853-1.169a31 31 0 0 1 1.898-2.192l-.047.048.09-.166a4.1 4.1 0 0 0 .44-1.621l.006-.243V34.186a1.65 1.65 0 0 1 1.365-1.612l.038-.005.068-.014zm.07.995-5.71.799-.025.012a.5.5 0 0 1-.091.025l-.104.009h-.013a.65.65 0 0 0-.667.64v38.03a5.1 5.1 0 0 1-.698 2.583l-.073.095a30 30 0 0 0-1.83 2.113q-.452.578-.809 1.11c-.755 1.126-1.073 1.982-.911 2.29.01.018.331.9.5 1.283.236.536.472.905.589.966l-.007-.005.043.012c.789.207 4.402 1.047 7.94 1.857l.73.167c3.393.774 6.53 1.477 6.8 1.508.92.176 1.87-.077 2.568-.678a58 58 0 0 0 2.974-2.974 71 71 0 0 1 1.061-1.104c.075-.077.94-.96 1.181-1.209.431-.444.76-.79 1.046-1.104 1.233-1.328 2.25-1.15 3.615.044 1.012.886 3.373 2.927 3.748 3.256l.145.127.448.397c.345.303.556.333.778.156l-.007.003.197-.17.07-.069-.044-.07-3.828-6.819a4.63 4.63 0 0 1-.706-2.455V34.77a.876.876 0 0 0-.763-.871L49.621 32.71z"/><path fill="#FFF" d="M73.691 83a65 65 0 0 0-5.69-5.3c-1.6-1.38-2.95-1.41-4.17-.23-.8.79-2.55 2.74-3.51 3.79-1.19 1.29-2 2.19-2.51 2.7a2.87 2.87 0 0 1-3.1.84c-.61-.09-16.23-3.58-16.23-3.58a24 24 0 0 1-.91-2.64c0-.14 4.31-5.87 4.31-5.87a5.4 5.4 0 0 0 .63-2.54V32.48c0-.66 1-1.14 1-1.14l6-.84h.1l18.16 1.18c.7.076 1.23.667 1.23 1.37v38.48a4.65 4.65 0 0 0 .63 2.33l4.71 7.48c.42.66-.08 1.06-.65 1.66"/><path fill="#3F464C" d="m49.511 30 .132.001 18.182 1.182a1.88 1.88 0 0 1 1.676 1.867v38.48c.001.73.195 1.447.553 2.064l4.709 7.478c.331.52.302 1.022-.024 1.502-.086.127-.19.25-.33.4-.068.073-.316.33-.355.37l-.363.382-.362-.381a64 64 0 0 0-5.655-5.266c-1.394-1.203-2.457-1.253-3.492-.253-.377.373-.987 1.024-1.859 1.977l-.067.074-1.567 1.722-1.51 1.642c-.475.515-.775.833-.99 1.046-.898 1.04-2.339 1.43-3.55 1.008-.283-.042-3.227-.687-8.142-1.778l-.082-.018a6083 6083 0 0 1-7.354-1.637l-.13-.03-.198-.043-.28-.063-.052-.012-.029-.006-.255-.057-.099-.241a25 25 0 0 1-.928-2.694l-.019-.136.001-.04.004-.04c.034-.222.293-.574 2.209-3.152l.04-.054a649 649 0 0 1 1.971-2.638c.152-.202.152-.202.143-.18a4.9 4.9 0 0 0 .572-2.306V32.48c0-.475.267-.867.685-1.206.223-.18.442-.31.599-.385l.147-.044zm.07.995-5.918.828-.073.043q-.08.048-.173.115l-.091.07c-.207.168-.315.326-.315.429v37.69c0 .967-.236 1.92-.73 2.84l-.185.247a721 721 0 0 0-1.969 2.634l-.04.053c-.595.803-1.09 1.475-1.453 1.974-.204.281-.362.504-.471.66l-.05.071.134.451q.204.654.446 1.294l.155.395.03.007.073.017.199.044.13.029a6899 6899 0 0 0 7.434 1.655c4.767 1.058 7.828 1.729 8.159 1.786.915.312 1.928.038 2.585-.72.226-.227.52-.539.985-1.043l1.509-1.641 1.565-1.72.068-.074c.884-.967 1.5-1.626 1.898-2.018 1.436-1.389 3.08-1.311 4.836.203a65 65 0 0 1 5.734 5.341l-.364-.376.064-.07q.069-.075.115-.137l.043-.06c.111-.163.115-.235.007-.406l-4.72-7.495a5.15 5.15 0 0 1-.697-2.581V33.05a.876.876 0 0 0-.762-.871L49.61 31z"/><path fill="#A6A9AC" d="M65.071 59.39v16.89a3.4 3.4 0 0 1 .71 0V59.39z"/><path fill="#FFF" d="M61.841 34.55v37.71a4 4 0 0 1-.59 2.1 87 87 0 0 1-4.69 7.37 2 2 0 0 1-2.3.89c-4.07-.86-15.88-3.24-15.88-3.24a1.13 1.13 0 0 1-.71-1.7l4.18-5.56a4 4 0 0 0 .62-2.12V33.08a1.12 1.12 0 0 1 1.26-1.08l17.11 1.42c.57.07 1 .555 1 1.13"/><path fill="#3F464C" d="m43.61 31.49.162.012 17.13 1.422a1.64 1.64 0 0 1 1.44 1.625v37.71a4.5 4.5 0 0 1-.656 2.348 87 87 0 0 1-4.695 7.379c-.589.988-1.775 1.447-2.833 1.123-1.43-.302-3.902-.81-7.125-1.466l-.132-.027a4705 4705 0 0 0-7.878-1.596l-.752-.152a1.63 1.63 0 0 1-1.145-.962 1.65 1.65 0 0 1 .145-1.526l4.158-5.527A3.5 3.5 0 0 0 41.971 70V33.066a1.62 1.62 0 0 1 1.801-1.564zm.058 1.006a.62.62 0 0 0-.697.584v36.922a4.5 4.5 0 0 1-.72 2.418l-4.156 5.524a.63.63 0 0 0 .385.946l2.694.544c2.02.408 4.04.818 5.926 1.202l.132.027c3.226.656 5.7 1.165 7.174 1.479.66.2 1.372-.075 1.747-.701a86 86 0 0 0 4.672-7.342 3.5 3.5 0 0 0 .516-1.839V34.55a.636.636 0 0 0-.541-.632z"/><path fill="#B7191F" d="M67.511 63.69a2.24 2.24 0 0 1-2 2.28c-1.27.11-2.34-.86-2.34-2.68V33.9a1 1 0 0 0-.83-1.11l-1.72-.16s-.19 0 0-.28 1.18-.19 1.18-.19l4 .29c.67 0 1.73-.08 1.73 1.18z"/><path fill="#B7191F" d="M67.76 63.852a2.49 2.49 0 0 1-2.227 2.367c-1.502.13-2.612-1.058-2.612-2.929l.002-29.42a.747.747 0 0 0-.605-.831l-1.697-.159a.34.34 0 0 1-.152-.036c-.234-.115-.234-.37-.055-.634.135-.199.394-.276.763-.304a4 4 0 0 1 .642.005l3.982.289h.115c.238-.002.355 0 .501.011.857.066 1.364.476 1.364 1.42l-.02 30.06zm-6.073-31.45a4 4 0 0 0-.576.013l-.04.005 1.31.123a1.246 1.246 0 0 1 1.05 1.23l-.01.127v29.39c0 1.594.878 2.534 2.063 2.431a1.99 1.99 0 0 0 1.777-2.025l.02-30.066c0-.646-.28-.873-.902-.92a5 5 0 0 0-.46-.01h-.136l-4.005-.291z"/><path fill="#FFF" d="m66.551 59.81-2.28.19a.42.42 0 0 1-.46-.43v-.45a.49.49 0 0 1 .46-.49l2.28-.16a.42.42 0 0 1 .46.42v.46a.51.51 0 0 1-.46.46m0-5.49-2.28.17a.43.43 0 0 1-.46-.43v-.46a.5.5 0 0 1 .46-.49l2.28-.11a.43.43 0 0 1 .46.43v.46a.49.49 0 0 1-.46.43m0-5.48-2.28.16a.42.42 0 0 1-.46-.42v-.46a.5.5 0 0 1 .46-.49l2.28-.16a.42.42 0 0 1 .46.42v.46a.51.51 0 0 1-.46.49m0-5.48-2.28.16a.42.42 0 0 1-.46-.43v-.45a.49.49 0 0 1 .46-.49l2.28-.15a.42.42 0 0 1 .46.42v.46a.51.51 0 0 1-.46.48m0-5.49-2.28.13a.42.42 0 0 1-.46-.42v-.43a.5.5 0 0 1 .46-.49l2.28-.16a.42.42 0 0 1 .46.43v.45a.49.49 0 0 1-.46.49"/></g></svg>