<svg xmlns="http://www.w3.org/2000/svg" width="112" height="112"><g fill="none"><path fill="#656B70" d="M56.518 85.9c-19.299 0-37.807-3.4-39.097-4.2-.5-.3-2.09-3-2.69-25.5-.4-12.9-.2-24.8 0-25.7.4-2.2 2-2.3 3-2.4 9.739-1.2 19.088-1.6 38.787-1.6s29.057.4 38.806 1.6c1.29.1 2.69.5 3 2.5.09 1 .29 13.3.09 25.6-.49 22.5-1.79 25.2-2.18 25.5-1.01.4-21.908 4.2-39.716 4.2"/><path fill="#3F464C" d="M56.518 26c18.013 0 27.448.332 36.49 1.327l.785.088.785.091.785.095c1.946.151 3.149.944 3.46 2.954.09 1.018.166 6.586.173 13.069v2.096l-.001.85-.002.853-.005 1.285-.005.857a634 634 0 0 1-.069 6.646c-.392 18.019-1.257 25.025-2.375 25.885l-.12.069c-1.984.786-12.367 2.34-23.214 3.33l-1.002.09-.502.044-1.003.085q-1.507.124-3.001.23l-.992.068c-3.627.242-7.125.388-10.187.388-3.153 0-6.524-.112-9.918-.303l-1.019-.06-1.02-.064-1.017-.068-1.017-.073c-12.177-.896-23.655-2.644-25.364-3.703-1.385-.831-2.45-7.852-2.932-25.914a445 445 0 0 1-.125-4.972l-.015-.84-.028-1.675-.012-.835A553 553 0 0 1 14 41.1v-1.11c.006-5.088.095-8.935.238-9.58.27-1.48 1.051-2.288 2.225-2.614q.36-.1 1.206-.192.393-.049.786-.095l.785-.092.787-.089q.786-.086 1.579-.166l.796-.079C30.783 26.277 40.072 26 56.518 26m1.542 1h-3.105c-18.487.021-27.594.906-37.175 1.596-.59.06-.764.085-1.049.164-.814.226-1.31.738-1.512 1.848-.131.591-.214 4.413-.218 9.472v.731c.001 2.094.016 4.376.046 6.712l.011.827.012.83q.02 1.249.046 2.497l.017.83c.028 1.244.06 2.477.098 3.68.268 10.052.749 16.876 1.377 21.013.239 1.575.488 2.682.737 3.386.161.456.29.66.34.69 1.578.978 13.248 2.726 25.492 3.598l1.007.07c4.202.282 8.44.456 12.334.456 3.175 0 6.826-.16 10.603-.419l.988-.07.992-.074c11.76-.902 24.126-2.66 26.75-3.53l.099-.035.006-.01c.039-.07.108-.233.191-.502l.043-.144c.203-.712.406-1.825.6-3.402.513-4.151.906-10.98 1.124-21.022.043-2.615.067-5.486.077-8.331l.003-.853.003-1.272v-1.675l-.001-.825c-.01-6.283-.081-11.611-.166-12.56-.223-1.439-1.011-1.959-2.567-2.08q-.979-.12-1.957-.23l-.784-.086c-8.636-.93-17.734-1.26-34.462-1.28"/><path fill="#3F464C" d="M84.001 41.49c-3.09-.65-16.16-1.7-32.19-1.7s-23.63.7-31.49 1.7c-2.2.28-2.13 2.15-2.19 3.4 0 1 0 28.9 1.64 38a191.3 191.3 0 0 0 36.56 3.58 211 211 0 0 0 27.45-2.13c2.45-6 2.8-38.16 2.41-40.27a2.92 2.92 0 0 0-2.19-2.58"/><path fill="#EBECED" d="M33.291 75.31c-.7 0-1.2 3.3-1.2 7.4v.9c.814.204 1.65.304 2.49.3v-1.1c-.1-4.2-.58-7.5-1.29-7.5m25.49.69c-.69 0-1.19 3.3-1.19 7.4v1.8a9.4 9.4 0 0 0 2.39 0v-1.8c.02-4.25-.6-7.4-1.2-7.4m-8.48 0c-.69 0-1.19 3.3-1.19 7.4v1.7a20 20 0 0 0 2.49.1v-1.7c0-4.21-.5-7.5-1.3-7.5m17.19-.68c-.7 0-1.2 3.3-1.2 7.4 0 .7.1 1.4.1 2.2a10 10 0 0 0 2.39-.2v-2c-.1-4.1-.7-7.4-1.29-7.4m-25.64.68c-.7 0-1.2 3.3-1.2 7.4v1.2q1.24.165 2.49.2v-1.3c-.14-4.21-.6-7.5-1.29-7.5"/><path fill="#8C9094" d="M45.631 45.69a4.3 4.3 0 1 1 4.28-4.3 4.26 4.26 0 0 1-4.28 4.3m-11.94 0a4.3 4.3 0 1 1 4.31-4.3 4.26 4.26 0 0 1-4.31 4.3"/><path fill="#656B70" d="M45.631 37.69a3.68 3.68 0 0 1 3.68 3.7 3.69 3.69 0 1 1-3.68-3.7m-11.94 0a3.7 3.7 0 1 1-3.69 3.7 3.75 3.75 0 0 1 3.69-3.7m11.94-1.1a4.8 4.8 0 1 0 4.77 4.8 4.73 4.73 0 0 0-4.77-4.8m-11.94 0a4.8 4.8 0 1 0 4.77 4.8 4.73 4.73 0 0 0-4.77-4.8"/></g></svg>