<svg xmlns="http://www.w3.org/2000/svg" width="112" height="112"><g fill="none" transform="translate(42 35)"><path fill="#FFF" d="M27.5 39.38a2 2 0 0 1-2 2h-23a2 2 0 0 1-2-2V2.5a2 2 0 0 1 2-2h23a2 2 0 0 1 2 2z"/><path fill="#3F464C" d="M25.5 0A2.5 2.5 0 0 1 28 2.5v36.88a2.5 2.5 0 0 1-2.5 2.5h-23a2.5 2.5 0 0 1-2.5-2.5V2.5A2.5 2.5 0 0 1 2.5 0zm0 1h-23A1.5 1.5 0 0 0 1 2.5v36.88a1.5 1.5 0 0 0 1.5 1.5h23a1.5 1.5 0 0 0 1.5-1.5V2.5A1.5 1.5 0 0 0 25.5 1"/><g fill="#B7191F" transform="translate(13.508 2.258)"><rect width="7.39" height="35.36" x=".962" y="1.002" rx=".17"/><path d="M7.352 2.002v33.36h-5.39V2.002zm.83-2h-7a1.11 1.11 0 0 0-1.18 1.17v35a1.11 1.11 0 0 0 1.18 1.17h7a1.11 1.11 0 0 0 1.17-1.17v-35a1.11 1.11 0 0 0-1.17-1.17"/></g><circle cx="21.69" cy="24.19" r="4.19" fill="#FFF"/><circle cx="21.69" cy="24.19" r="2.79" fill="#8C9094"/><path fill="#FFF" d="M20.64 8.32h-4.28a.65.65 0 0 1-.65-.66c0-.36.29-.655.65-.66h4.28c.36.005.65.3.65.66a.65.65 0 0 1-.65.66m.65 4.25v-.06a.65.65 0 0 0-.65-.65h-4.28a.65.65 0 0 0-.65.65v.06c0 .359.291.65.65.65h4.28a.65.65 0 0 0 .65-.65m0 4.9v-.06a.65.65 0 0 0-.65-.65h-4.28a.65.65 0 0 0-.65.65v.06c0 .36.29.655.65.66h4.28a.66.66 0 0 0 .65-.66m0 13.9v-.05a.66.66 0 0 0-.65-.66h-4.28a.66.66 0 0 0-.65.66v.05a.65.65 0 0 0 .65.66h4.28a.65.65 0 0 0 .65-.66m0 4.91v-.06a.66.66 0 0 0-.65-.66h-4.28a.66.66 0 0 0-.65.66v.06c0 .359.291.65.65.65h4.28a.65.65 0 0 0 .65-.65"/></g></svg>