<svg xmlns="http://www.w3.org/2000/svg" width="112" height="112"><g fill="none" transform="translate(40 32)"><rect width="30.54" height="46.83" x=".5" y=".5" fill="#FFF" rx="2"/><path fill="#3F464C" d="M29.04 0a2.5 2.5 0 0 1 2.5 2.5v42.83a2.5 2.5 0 0 1-2.5 2.5H2.5a2.5 2.5 0 0 1-2.5-2.5V2.5A2.5 2.5 0 0 1 2.5 0zm0 1H2.5A1.5 1.5 0 0 0 1 2.5v42.83a1.5 1.5 0 0 0 1.5 1.5h26.54a1.5 1.5 0 0 0 1.5-1.5V2.5a1.5 1.5 0 0 0-1.5-1.5"/><path fill="#C30F14" d="M27.89 31.61H24.3V2.81h3.59zm0 10.36H24.3v4.21h3.59z"/><path fill="#96A6B2" d="M24.3 34.84h3.59v3.59H24.3z"/></g></svg>