<svg xmlns="http://www.w3.org/2000/svg" width="112" height="112"><g fill="none" transform="translate(41 40.94)"><rect width="29.64" height="29.2" x=".5" y=".5" fill="#FFF" rx="2"/><path fill="#3F464C" d="M28.14 0a2.5 2.5 0 0 1 2.5 2.5v25.2a2.5 2.5 0 0 1-2.5 2.5H2.5A2.5 2.5 0 0 1 0 27.7V2.5A2.5 2.5 0 0 1 2.5 0zm0 1H2.5A1.5 1.5 0 0 0 1 2.5v25.2a1.5 1.5 0 0 0 1.5 1.5h25.64a1.5 1.5 0 0 0 1.5-1.5V2.5a1.5 1.5 0 0 0-1.5-1.5"/><path fill="#96A6B2" d="M20.13 23.08c0 .39-.56.59-.85.59h-4a.8.8 0 0 1-.86-.59c0-.39.57-.58.86-.58h4c.57 0 .85.19.85.58"/><path fill="#96A6B2" d="M19.28 21.5c1.06 0 1.85.539 1.85 1.58s-.98 1.59-1.85 1.59l-3.969-.001-.078.005a1.8 1.8 0 0 1-1.733-1.189l-.047-.148-.033-.127v-.13c0-1.051.982-1.58 1.86-1.58z"/><path fill="#C30F14" d="M12.8.06h9v7.07a.89.89 0 0 1-.89.89h-7.2a.89.89 0 0 1-.89-.89V.06z"/></g></svg>