<svg xmlns="http://www.w3.org/2000/svg" width="112" height="112"><g fill="none"><path fill="#3F464C" d="M70.096 17.77h2.05a1 1 0 0 1 1 1v8.57h-3.05z"/><path fill="#FFF" d="M71.726 14.5h29.42a2.17 2.17 0 1 1 0 4.34h-29.42a1.09 1.09 0 0 1-1.09-1.09v-2.16c0-.602.488-1.09 1.09-1.09"/><path fill="#3F464C" d="M101.146 14a2.67 2.67 0 1 1 0 5.34h-29.42a1.59 1.59 0 0 1-1.59-1.59v-2.16c0-.878.712-1.59 1.59-1.59zm0 1h-29.42a.59.59 0 0 0-.59.59v2.16c0 .326.264.59.59.59h29.42a1.67 1.67 0 1 0 0-3.34"/><path fill="#3F464C" d="M70.096 18h2.05a1 1 0 0 1 1 1v8.57h-3.05z"/><path fill="#FFF" d="M71.186 14.75h29.42a2.17 2.17 0 0 1 2.17 2.17V17a2.17 2.17 0 0 1-2.17 2.17h-29.42a1.09 1.09 0 0 1-1.09-1.09v-2.24c0-.602.488-1.09 1.09-1.09"/><path fill="#3F464C" d="M101.106 19.64h-29.42a1.59 1.59 0 0 1-1.59-1.58v-2.22c0-.878.712-1.59 1.59-1.59h29.42a2.7 2.7 0 0 1 0 5.39m-29.42-4.39a.59.59 0 0 0-.59.59v2.22a.59.59 0 0 0 .59.58h29.42c.91 0 1.653-.73 1.67-1.64a1.68 1.68 0 0 0-1.67-1.72zM41.546 18h-2.05a1 1 0 0 0-1 1v8.57h3.07z"/><path fill="#FFF" d="M40.456 19.14h-29.42a2.17 2.17 0 0 1-2.17-2.17v-.08a2.17 2.17 0 0 1 2.17-2.17h29.42a1.09 1.09 0 0 1 1.09 1.11v2.22a1.09 1.09 0 0 1-1.09 1.09"/><path fill="#3F464C" d="M39.956 19.64h-29.42a2.7 2.7 0 0 1 0-5.39h29.42c.878 0 1.59.712 1.59 1.59v2.22a1.59 1.59 0 0 1-1.59 1.58m-29.42-4.39a1.67 1.67 0 0 0-1.67 1.67 1.68 1.68 0 0 0 1.67 1.72h29.42a.58.58 0 0 0 .59-.58v-2.22a.58.58 0 0 0-.59-.59z"/><g transform="translate(12.304 25.19)"><path fill="#FFF" d="M85.962 3.87c-.54-2.62-2.26-3.33-4.31-3.33H5.382c-2.05 0-3.77.71-4.3 3.33S.412 21.68.562 28.4s.4 22.11 1.87 29.93c.35 1.86 1.28 3.31 3.87 3.31h74.4c2.58 0 3.52-1.45 3.87-3.31 1.46-7.82 1.67-23.22 1.86-29.93s.06-21.92-.47-24.53"/><path fill="#3F464C" d="M81.652.04c2.6 0 4.26 1.112 4.8 3.73.349 1.719.559 9.567.568 16.786v.899a266 266 0 0 1-.088 6.96c-.02.665-.135 5.332-.18 6.924a413 413 0 0 1-.33 8.795c-.304 6.148-.74 10.97-1.359 14.288-.451 2.4-1.783 3.718-4.361 3.718h-74.4c-2.585 0-3.91-1.313-4.362-3.718C1.315 55.094.87 50.245.56 44.13a384 384 0 0 1-.334-8.79 709 709 0 0 1-.123-5.074l-.01-.438-.03-1.417A285 285 0 0 1 0 22.658v-1.34l.001-.45.004-.907.005-.909.008-.91c.06-6.514.266-12.85.574-14.371C1.122 1.153 2.78.04 5.382.04zm0 1H5.382c-2.16 0-3.384.82-3.81 2.93-.301 1.486-.505 8.051-.558 14.682l-.009 1.356c-.015 3.008.003 5.958.057 8.38l.068 3.116c.03 1.378.06 2.591.094 3.808.088 3.16.195 6.04.333 8.768.308 6.072.75 10.885 1.366 14.158.37 1.964 1.316 2.902 3.379 2.902h74.4c2.056 0 3.01-.944 3.378-2.902.61-3.262 1.04-8.047 1.343-14.153.134-2.695.237-5.524.329-8.774.045-1.59.161-6.257.18-6.925.076-2.682.1-6.13.08-9.594l-.005-.904c-.05-6.322-.244-12.482-.535-13.918l-.05-.22c-.474-1.946-1.688-2.71-3.77-2.71"/><path fill="#B7191F" d="M74.652 9.53h-62.27a1.79 1.79 0 0 1-1.82-1.79V0h65.88v7.74a1.79 1.79 0 0 1-1.79 1.79"/><rect width="9.75" height="2.17" x="45.592" y="50.53" fill="#A6A9AC" rx=".34" transform="rotate(-90 50.467 51.615)"/><rect width="2.17" height="9.75" x="55.612" y="46.74" fill="#A6A9AC" rx=".34"/><rect width="2.17" height="9.75" x="61.842" y="46.74" fill="#A6A9AC" rx=".34"/><rect width="2.17" height="9.75" x="68.062" y="46.74" fill="#A6A9AC" rx=".34"/><rect width="2.17" height="9.75" x="74.292" y="46.74" fill="#A6A9AC" rx=".34"/></g></g></svg>