<svg width="1849" height="2083" version="1.1" xmlns="http://www.w3.org/2000/svg" desc="Created with imagetracer.js version 1.2.6" ><path fill="rgb(82,148,207)" stroke="rgb(82,148,207)" stroke-width="1" opacity="1" d="M 1219.5 0 L 1632 206 L 1632 522.5 L 1628.5 523 L 1615.5 518 L 1599.5 514 L 1586.5 509 L 1557.5 501 L 1544.5 496 L 1219 396 L 1219.5 0 Z " /><path fill="rgb(82,148,207)" stroke="rgb(82,148,207)" stroke-width="1" opacity="1" d="M 1219 564 L 1325.5 589 L 1329.5 589 L 1338.5 592 L 1342.5 592 L 1355.5 596 L 1359.5 596 L 1368.5 599 L 1372.5 599 L 1381.5 602 L 1385.5 602 L 1394.5 605 L 1398.5 605 L 1407.5 608 L 1411.5 608 L 1420.5 611 L 1424.5 611 L 1450.5 618 L 1454.5 618 L 1463.5 621 L 1467.5 621 L 1476.5 624 L 1480.5 624 L 1489.5 627 L 1493.5 627 L 1502.5 630 L 1506.5 630 L 1532.5 637 L 1536.5 637 L 1545.5 640 L 1549.5 640 L 1558.5 643 L 1562.5 643 L 1571.5 646 L 1575.5 646 L 1588.5 650 L 1618.5 656 L 1627.5 659 L 1632 659 L 1632 974.5 Q 1631.8 975.8 1625.5 975 L 1624.5 974 L 1600.5 974 L 1599.5 973 L 1575.5 973 L 1574.5 972 L 1550.5 972 L 1549.5 971 L 1525.5 971 L 1524.5 970 L 1500.5 970 L 1499.5 969 L 1475.5 969 L 1474.5 968 L 1450.5 968 L 1449.5 967 L 1425.5 967 L 1424.5 966 L 1400.5 966 L 1399.5 965 L 1375.5 965 L 1374.5 964 L 1350.5 964 L 1349.5 963 L 1325.5 963 L 1324.5 962 L 1225.5 959 L 1219 958 L 1219 564 Z " /><path fill="rgb(82,148,207)" stroke="rgb(82,148,207)" stroke-width="1" opacity="1" d="M 1629.5 1109 L 1632 1109.5 L 1632 1426 L 1580.5 1438 L 1576.5 1438 L 1567.5 1441 L 1563.5 1441 L 1554.5 1444 L 1550.5 1444 L 1541.5 1447 L 1528.5 1449 L 1519.5 1452 L 1515.5 1452 L 1506.5 1455 L 1502.5 1455 L 1493.5 1458 L 1489.5 1458 L 1480.5 1461 L 1467.5 1463 L 1458.5 1466 L 1454.5 1466 L 1445.5 1469 L 1441.5 1469 L 1432.5 1472 L 1428.5 1472 L 1419.5 1475 L 1415.5 1475 L 1406.5 1478 L 1380.5 1483 L 1371.5 1486 L 1367.5 1486 L 1358.5 1489 L 1354.5 1489 L 1345.5 1492 L 1341.5 1492 L 1332.5 1495 L 1319.5 1497 L 1258.5 1512 L 1245.5 1514 L 1223.5 1520 L 1219 1520 L 1219 1126.5 L 1219.5 1126 L 1236.5 1126 L 1237.5 1125 L 1261.5 1125 L 1262.5 1124 L 1334.5 1122 L 1335.5 1121 L 1358.5 1121 L 1359.5 1120 L 1383.5 1120 L 1384.5 1119 L 1407.5 1119 L 1408.5 1118 L 1432.5 1118 L 1433.5 1117 L 1456.5 1117 L 1457.5 1116 L 1481.5 1116 L 1482.5 1115 L 1505.5 1115 L 1506.5 1114 L 1530.5 1114 L 1531.5 1113 L 1554.5 1113 L 1555.5 1112 L 1579.5 1112 L 1580.5 1111 L 1603.5 1111 L 1604.5 1110 L 1628.5 1110 L 1629.5 1109 Z " /><path fill="rgb(82,148,207)" stroke="rgb(82,148,207)" stroke-width="1" opacity="1" d="M 1630.5 1561 L 1632 1561.5 L 1632 1877.5 L 1222.5 2083 L 1219 2083 L 1219 1689.5 L 1220.5 1688 L 1223.5 1688 L 1236.5 1683 L 1294.5 1666 L 1307.5 1661 L 1365.5 1644 L 1630.5 1561 Z " /><path fill="rgb(0,0,0)" stroke="rgb(0,0,0)" stroke-width="1" opacity="0" d="M 0 0 L 628 0.5 L 216.5 206 L 214 208.5 L 0.5 459 L 0 0 Z " /><path fill="rgb(0,0,0)" stroke="rgb(0,0,0)" stroke-width="1" opacity="0" d="M 1220.5 0 L 1849 0 L 1849 459.5 L 1848 459.5 L 1631.5 206 L 1220.5 1 L 1220.5 0 Z " /><path fill="rgb(0,0,0)" stroke="rgb(0,0,0)" stroke-width="1" opacity="0" d="M 1848.5 681 L 1849 773 L 1785 740 L 1785 688.5 L 1785.5 688 L 1792.5 688 L 1793.5 687 L 1829.5 684 L 1830.5 683 L 1838.5 683 L 1848.5 681 Z " /><path fill="rgb(0,0,0)" stroke="rgb(0,0,0)" stroke-width="1" opacity="0" d="M 1.5 682 L 9.5 682 L 10.5 683 L 18.5 683 L 19.5 684 L 64 688 L 64 740.5 L 62.5 741 L 0 774 L 0 683.5 L 1.5 682 Z " /><path fill="rgb(0,0,0)" stroke="rgb(0,0,0)" stroke-width="1" opacity="0" d="M 0 996 L 64 997 L 64 1087.5 L 60.5 1088 L 59.5 1089 L 3.5 1089 L 0 1088 L 0 996 Z " /><path fill="rgb(0,0,0)" stroke="rgb(0,0,0)" stroke-width="1" opacity="0" d="M 1816.5 996 L 1849 996 L 1849 1088 L 1846.5 1089 L 1789.5 1089 L 1785 1088 L 1785 997 L 1815.5 997 L 1816.5 996 Z " /><path fill="rgb(0,0,0)" stroke="rgb(0,0,0)" stroke-width="1" opacity="0" d="M 0.5 1310 L 64 1344 L 64 1396.5 Q 64 1397.5 59.5 1397 L 58.5 1398 L 50.5 1398 L 49.5 1399 L 23.5 1401 L 22.5 1402 L 13.5 1402 L 3.5 1404 L 0 1402 L 0.5 1310 Z " /><path fill="rgb(0,0,0)" stroke="rgb(0,0,0)" stroke-width="1" opacity="0" d="M 1848.5 1311 L 1849 1402.5 Q 1848.3 1404.8 1844.5 1404 L 1843.5 1403 L 1835.5 1403 L 1834.5 1402 L 1826.5 1402 L 1825.5 1401 L 1817.5 1401 L 1816.5 1400 L 1808.5 1400 L 1807.5 1399 L 1799.5 1399 L 1798.5 1398 L 1785 1397 L 1785 1345.5 L 1786.5 1344 L 1848.5 1311 Z " /><path fill="rgb(0,0,0)" stroke="rgb(0,0,0)" stroke-width="1" opacity="0" d="M 0.5 1625 L 217.5 1879 L 625 2082.5 L 0 2083 L 0.5 1625 Z " /><path fill="rgb(0,0,0)" stroke="rgb(0,0,0)" stroke-width="1" opacity="0" d="M 1848.5 1625 L 1849 2083 L 1223 2082.5 L 1632.5 1878 L 1635 1875.5 L 1848.5 1625 Z " /><path fill="rgb(31,91,152)" stroke="rgb(31,91,152)" stroke-width="1" opacity="1" d="M 628.5 0 L 630 0.5 L 630 396 L 217 523 L 217 207.5 L 216 206.5 L 628.5 0 Z " /><path fill="rgb(31,91,152)" stroke="rgb(31,91,152)" stroke-width="1" opacity="1" d="M 627.5 564 L 630 564.5 L 630 958 L 623.5 959 L 599.5 959 L 598.5 960 L 574.5 960 L 573.5 961 L 549.5 961 L 548.5 962 L 524.5 962 L 523.5 963 L 499.5 963 L 498.5 964 L 474.5 964 L 473.5 965 L 449.5 965 L 448.5 966 L 424.5 966 L 423.5 967 L 399.5 967 L 398.5 968 L 374.5 968 L 373.5 969 L 349.5 969 L 348.5 970 L 324.5 970 L 323.5 971 L 299.5 971 L 298.5 972 L 274.5 972 L 273.5 973 L 249.5 973 L 248.5 974 L 224.5 974 L 223.5 975 L 217 975 L 217 659.5 L 220.5 659 L 627.5 564 Z " /><path fill="rgb(31,91,152)" stroke="rgb(31,91,152)" stroke-width="1" opacity="1" d="M 217 1109 L 220.5 1110 L 244.5 1110 L 245.5 1111 L 269.5 1111 L 270.5 1112 L 294.5 1112 L 295.5 1113 L 319.5 1113 L 320.5 1114 L 344.5 1114 L 345.5 1115 L 369.5 1115 L 370.5 1116 L 395.5 1116 L 396.5 1117 L 420.5 1117 L 421.5 1118 L 445.5 1118 L 446.5 1119 L 470.5 1119 L 471.5 1120 L 495.5 1120 L 496.5 1121 L 520.5 1121 L 521.5 1122 L 545.5 1122 L 546.5 1123 L 570.5 1123 L 571.5 1124 L 595.5 1124 L 596.5 1125 L 620.5 1125 L 621.5 1126 L 630 1126 L 629.5 1521 L 620.5 1518 L 564.5 1506 L 551.5 1502 L 547.5 1502 L 434.5 1475 L 430.5 1475 L 417.5 1471 L 413.5 1471 L 404.5 1468 L 400.5 1468 L 391.5 1465 L 387.5 1465 L 378.5 1462 L 374.5 1462 L 365.5 1459 L 361.5 1459 L 217 1425 L 217 1109 Z " /><path fill="rgb(31,91,152)" stroke="rgb(31,91,152)" stroke-width="1" opacity="1" d="M 217 1561 L 630 1689 L 630 2082.5 Q 630 2083.5 625.5 2083 L 217 1879 L 217 1561 Z " /><path fill="rgb(26,71,111)" stroke="rgb(26,71,111)" stroke-width="1" opacity="1" d="M 215.5 207 L 217 207.5 L 217 522.5 L 219.5 523 L 627.5 396 L 1221.5 396 L 1486.5 479 L 1544.5 496 L 1557.5 501 L 1615.5 518 L 1628.5 523 L 1632 523 L 1636.5 529 L 1848 681.5 L 1785 688 L 1785 738.5 L 1783.5 739 L 1634.5 659 L 1627.5 659 L 1618.5 656 L 1588.5 650 L 1575.5 646 L 1519.5 634 L 1506.5 630 L 1502.5 630 L 1493.5 627 L 1437.5 615 L 1424.5 611 L 1420.5 611 L 1411.5 608 L 1355.5 596 L 1342.5 592 L 1338.5 592 L 1329.5 589 L 1273.5 577 L 1221.5 564 L 627.5 564 L 217 659 L 217 974.5 Q 217.3 975.8 223.5 975 L 224.5 974 L 248.5 974 L 249.5 973 L 273.5 973 L 274.5 972 L 298.5 972 L 299.5 971 L 323.5 971 L 324.5 970 L 348.5 970 L 349.5 969 L 373.5 969 L 374.5 968 L 398.5 968 L 399.5 967 L 423.5 967 L 424.5 966 L 448.5 966 L 449.5 965 L 473.5 965 L 474.5 964 L 498.5 964 L 499.5 963 L 523.5 963 L 524.5 962 L 548.5 962 L 549.5 961 L 573.5 961 L 574.5 960 L 598.5 960 L 599.5 959 L 623.5 959 L 624.5 958 L 1224.5 958 L 1225.5 959 L 1249.5 959 L 1250.5 960 L 1274.5 960 L 1275.5 961 L 1299.5 961 L 1300.5 962 L 1324.5 962 L 1325.5 963 L 1349.5 963 L 1350.5 964 L 1374.5 964 L 1375.5 965 L 1399.5 965 L 1400.5 966 L 1424.5 966 L 1425.5 967 L 1449.5 967 L 1450.5 968 L 1474.5 968 L 1475.5 969 L 1499.5 969 L 1500.5 970 L 1524.5 970 L 1525.5 971 L 1624.5 974 L 1639.5 977 L 1660.5 978 L 1671.5 980 L 1681.5 980 L 1682.5 981 L 1692.5 981 L 1703.5 983 L 1713.5 983 L 1714.5 984 L 1724.5 984 L 1735.5 986 L 1745.5 986 L 1746.5 987 L 1756.5 987 L 1757.5 988 L 1767.5 988 L 1768.5 989 L 1777.5 989 L 1778.5 990 L 1788.5 990 L 1789.5 991 L 1799.5 991 L 1800.5 992 L 1842 995.5 L 1785 997 L 1785 1087.5 L 1788.5 1088 L 1789.5 1089 L 1837 1089.5 L 1815.5 1091 L 1814.5 1092 L 1804.5 1092 L 1803.5 1093 L 1793.5 1093 L 1792.5 1094 L 1782.5 1094 L 1781.5 1095 L 1771.5 1095 L 1770.5 1096 L 1760.5 1096 L 1749.5 1098 L 1739.5 1098 L 1738.5 1099 L 1728.5 1099 L 1727.5 1100 L 1717.5 1100 L 1716.5 1101 L 1706.5 1101 L 1705.5 1102 L 1695.5 1102 L 1694.5 1103 L 1684.5 1103 L 1683.5 1104 L 1663.5 1105 L 1662.5 1106 L 1652.5 1106 L 1651.5 1107 L 1641.5 1107 L 1640.5 1108 L 1632.5 1108 L 1628.5 1110 L 1604.5 1110 L 1603.5 1111 L 1555.5 1112 L 1554.5 1113 L 1531.5 1113 L 1530.5 1114 L 1506.5 1114 L 1505.5 1115 L 1482.5 1115 L 1481.5 1116 L 1457.5 1116 L 1456.5 1117 L 1433.5 1117 L 1432.5 1118 L 1408.5 1118 L 1407.5 1119 L 1384.5 1119 L 1383.5 1120 L 1359.5 1120 L 1358.5 1121 L 1335.5 1121 L 1334.5 1122 L 1310.5 1122 L 1309.5 1123 L 1237.5 1125 L 1236.5 1126 L 621.5 1126 L 620.5 1125 L 596.5 1125 L 595.5 1124 L 571.5 1124 L 570.5 1123 L 546.5 1123 L 545.5 1122 L 521.5 1122 L 520.5 1121 L 496.5 1121 L 495.5 1120 L 471.5 1120 L 470.5 1119 L 446.5 1119 L 445.5 1118 L 421.5 1118 L 420.5 1117 L 396.5 1117 L 395.5 1116 L 370.5 1116 L 369.5 1115 L 345.5 1115 L 344.5 1114 L 320.5 1114 L 319.5 1113 L 220.5 1110 L 217 1109 L 217 1424.5 L 218.5 1425 L 227.5 1428 L 231.5 1428 L 240.5 1431 L 296.5 1443 L 309.5 1447 L 313.5 1447 L 322.5 1450 L 326.5 1450 L 335.5 1453 L 339.5 1453 L 348.5 1456 L 352.5 1456 L 361.5 1459 L 417.5 1471 L 430.5 1475 L 434.5 1475 L 443.5 1478 L 447.5 1478 L 456.5 1481 L 460.5 1481 L 547.5 1502 L 551.5 1502 L 629.5 1521 L 1218.5 1521 L 1631.5 1426 L 1633.5 1427 L 1773.5 1351 L 1785 1346 L 1785 1396.5 Q 1785 1397.5 1789.5 1397 L 1790.5 1398 L 1843.5 1403 L 1846 1404.5 L 1646.5 1550 L 1632 1559 Q 1633.1 1561.7 1630.5 1561 L 1219.5 1689 L 628.5 1689 L 217 1561 L 216.5 1878 L 0 1624.5 L 0 1402 L 3.5 1404 L 4.5 1403 L 22.5 1402 L 23.5 1401 L 31.5 1401 L 32.5 1400 L 40.5 1400 L 41.5 1399 L 49.5 1399 L 50.5 1398 L 64 1397 L 64 1344.5 L 62.5 1344 L 0 1309.5 L 0 1088.5 L 2.5 1088 L 3.5 1089 L 59.5 1089 L 64 1088 L 64 997 L 33.5 997 L 32.5 996 L 0 996 L 0 774.5 L 1.5 774 L 64 741 L 64 688.5 L 63.5 688 L 56.5 688 L 55.5 687 L 46.5 687 L 45.5 686 L 28.5 685 L 27.5 684 L 19.5 684 L 9.5 682 L 1.5 682 L 0 682.5 L 0 459.5 L 215.5 207 Z " /><path fill="rgb(45,114,184)" stroke="rgb(45,114,184)" stroke-width="1" opacity="1" d="M 630 0 L 1219 0 L 1219 396 L 630 396 L 630 0 Z " /><path fill="rgb(45,114,184)" stroke="rgb(45,114,184)" stroke-width="1" opacity="1" d="M 1632.5 207 L 1849 460.5 L 1849 681 L 1834.5 672 L 1636.5 529 L 1632 524.5 L 1632.5 207 Z " /><path fill="rgb(45,114,184)" stroke="rgb(45,114,184)" stroke-width="1" opacity="1" d="M 630 564 L 1219 564 L 1219 958 L 630 958 L 630 564 Z " /><path fill="rgb(45,114,184)" stroke="rgb(45,114,184)" stroke-width="1" opacity="1" d="M 1632 659 L 1644.5 664 L 1835.5 767 L 1849 773 L 1849 995.5 Q 1848.8 996.8 1842.5 996 L 1831.5 994 L 1810.5 993 L 1799.5 991 L 1778.5 990 L 1767.5 988 L 1757.5 988 L 1756.5 987 L 1746.5 987 L 1745.5 986 L 1735.5 986 L 1724.5 984 L 1714.5 984 L 1713.5 983 L 1703.5 983 L 1702.5 982 L 1693.5 982 L 1692.5 981 L 1682.5 981 L 1681.5 980 L 1671.5 980 L 1670.5 979 L 1632 976 L 1632 659 Z " /><path fill="rgb(45,114,184)" stroke="rgb(45,114,184)" stroke-width="1" opacity="1" d="M 1847.5 1088 L 1849 1088.5 L 1849 1310.5 L 1632 1427 L 1632 1108.5 L 1632.5 1108 L 1640.5 1108 L 1641.5 1107 L 1651.5 1107 L 1652.5 1106 L 1673.5 1105 L 1684.5 1103 L 1694.5 1103 L 1695.5 1102 L 1749.5 1098 L 1760.5 1096 L 1770.5 1096 L 1771.5 1095 L 1781.5 1095 L 1782.5 1094 L 1836.5 1090 L 1847.5 1088 Z " /><path fill="rgb(45,114,184)" stroke="rgb(45,114,184)" stroke-width="1" opacity="1" d="M 630 1126 L 1219 1126 L 1219 1521 L 630 1521 L 630 1126 Z " /><path fill="rgb(45,114,184)" stroke="rgb(45,114,184)" stroke-width="1" opacity="1" d="M 1848.5 1403 L 1849 1624.5 L 1632.5 1878 L 1632 1559 L 1646.5 1550 L 1848.5 1403 Z " /><path fill="rgb(45,114,184)" stroke="rgb(45,114,184)" stroke-width="1" opacity="1" d="M 630 1689 L 1219 1689 L 1219 2083 L 630 2083 L 630 1689 Z " /></svg>