<svg xmlns="http://www.w3.org/2000/svg" viewBox="0 0 24 24"><path fill="#a60063" d="M15.928 3.338a23.1 23.1 0 0 0-7.879 0c-1.177.18-2.264.72-3.08 1.622c-.814.901-1.448 1.892-1.63 3.154a22.8 22.8 0 0 0 0 7.84c.182 1.171.725 2.343 1.63 3.154c.906.9 1.993 1.441 3.17 1.622c1.269.18 2.627.27 3.895.27c1.358 0 2.626-.09 3.894-.36c1.178-.18 2.355-.721 3.17-1.623c.906-.9 1.45-1.982 1.63-3.153c.181-1.262.272-2.614.272-3.875c0-1.352-.09-2.614-.362-3.875c-.181-1.172-.725-2.253-1.63-3.154c-.725-.901-1.812-1.442-3.08-1.622m-5.705 14.598a.82.82 0 0 1-.634-.27c-.272-.27-.272-.811-.09-1.082l2.263-3.063l-3.713-.36c-.362 0-.724-.271-.815-.722c-.09-.36 0-.81.272-1.081l5.705-5.136a.82.82 0 0 1 .634-.27c.272 0 .453.09.634.27c.272.36.272.81.09 1.171l-2.263 3.064l3.713.36c.362 0 .724.27.906.721c.09.36 0 .811-.272 1.082l-5.706 5.136c-.271.09-.453.18-.724.18"/></svg>