<?xml version="1.0" encoding="UTF-8"?>
<svg version="1.1" xmlns="http://www.w3.org/2000/svg" width="811" height="811">
<path d="M0 0 C1.20402466 -0.00101212 1.20402466 -0.00101212 2.43237305 -0.00204468 C15.09338506 0.01484046 27.32899092 0.60712142 39.75 3.25 C40.55679199 3.41628906 41.36358398 3.58257812 42.19482422 3.75390625 C94.63369163 14.86514361 140.1536759 46.73534833 169.75 91.25 C173.39626383 97.08715197 176.62188827 103.12350718 179.75 109.25 C180.66652344 110.98830078 180.66652344 110.98830078 181.6015625 112.76171875 C183.48685275 116.53660356 185.1606294 120.34322453 186.75 124.25 C187.08322266 125.05630859 187.41644531 125.86261719 187.75976562 126.69335938 C193.77242921 141.69753815 197.08136565 157.00057131 200.02734375 172.828125 C200.44971812 175.0633929 200.87278147 177.29853069 201.29644775 179.53355408 C202.38248001 185.27482087 203.46014925 191.01762553 204.53468478 196.76105195 C205.52898515 202.07399136 206.52753042 207.38612262 207.52798462 212.69790649 C207.6813033 213.51196286 207.83462197 214.32601922 207.99258667 215.16474396 C208.30895271 216.8444793 208.62532119 218.52421418 208.94169199 220.20394862 C212.76632902 240.51418405 216.5726587 260.82783966 220.37629527 281.14201659 C221.6315672 287.84585643 222.88756286 294.54956034 224.14404297 301.25317383 C224.32030921 302.19360712 224.49657544 303.13404041 224.67818308 304.10297167 C225.38876159 307.89407383 226.09935255 311.68517365 226.80995464 315.47627139 C228.74266956 325.78776684 230.67426974 336.09946872 232.60266113 346.41177368 C233.2917244 350.09629756 233.980818 353.78081575 234.66992188 357.46533203 C234.83907262 358.3698458 235.00822336 359.27435957 235.18249989 360.20628285 C237.38994866 372.0085544 239.60785801 383.80880045 241.83644485 395.60709858 C242.98638024 401.6955023 244.13250703 407.78462104 245.2775867 413.87393969 C246.04035545 417.9287926 246.80515689 421.98323684 247.57520294 426.03671455 C255.0666039 465.485017 255.0666039 465.485017 255.05078125 481.32421875 C255.05642593 482.17301605 255.06207062 483.02181335 255.06788635 483.89633179 C255.07966069 486.57692045 255.07377779 489.25691498 255.0625 491.9375 C255.06034485 492.86231171 255.0581897 493.78712341 255.05596924 494.73995972 C255.00478049 508.44093975 254.61951949 521.80562887 251.75 535.25 C251.54068848 536.24692871 251.33137695 537.24385742 251.11572266 538.27099609 C243.98764593 571.42941669 231.51068843 602.53149739 211.75 630.25 C211.03328125 631.26191406 210.3165625 632.27382813 209.578125 633.31640625 C196.36540239 651.42362281 180.65584196 668.70901702 162.75 682.25 C161.92580566 682.88083496 161.92580566 682.88083496 161.08496094 683.52441406 C125.86345395 710.39940924 84.71405413 728.78360802 40.75 735.25 C39.55697266 735.42732666 38.36394531 735.60465332 37.13476562 735.78735352 C25.13982149 737.44570742 13.21875162 737.60745086 1.125 737.5625 C0.10775848 737.56067719 -0.90948303 737.55885437 -1.95755005 737.55697632 C-16.59338283 737.51278974 -30.85381294 737.09644814 -45.25 734.25 C-46.14412598 734.08902832 -47.03825195 733.92805664 -47.95947266 733.76220703 C-107.32657343 723.0235186 -163.97886076 689.93318347 -201.25 642.25 C-202.39855469 640.84427734 -202.39855469 640.84427734 -203.5703125 639.41015625 C-233.42325842 602.1179714 -253.19754629 552.10821014 -253.453125 503.9921875 C-253.46167511 502.6947612 -253.46167511 502.6947612 -253.47039795 501.37112427 C-253.47979034 499.5441406 -253.48635881 497.71714042 -253.49023438 495.89013672 C-253.49980457 493.18033503 -253.5308259 490.47133873 -253.5625 487.76171875 C-253.61714882 478.70203088 -253.26562072 469.81558448 -252.05761719 460.83203125 C-251.9268277 459.84946791 -251.79603821 458.86690456 -251.6612854 457.85456657 C-249.98735768 445.76267514 -247.68468029 433.78867874 -245.38043356 421.80406523 C-244.72097701 418.36536037 -244.06971493 414.92510226 -243.41751099 411.48501587 C-242.29043716 405.54536724 -241.15905035 399.60655509 -240.0244751 393.66833496 C-237.29423506 379.37756479 -234.58182504 365.08340442 -231.86963272 350.78919983 C-231.24062213 347.47410693 -230.61127263 344.15907864 -229.98165512 340.84410095 C-225.29395065 316.15984623 -220.67184767 291.46399494 -216.1011858 266.75780821 C-215.48039932 263.40287078 -214.85902884 260.04804163 -214.2376554 256.69321287 C-211.55001384 242.18184137 -208.86459736 227.67007698 -206.19623291 213.15514696 C-205.09110156 207.14560008 -203.98087947 201.13700684 -202.8669728 195.12908041 C-202.22644438 191.67307972 -201.58832817 188.21668072 -200.95697403 184.75899124 C-189.8921335 124.26324201 -165.38945679 71.3301174 -113.72265625 35.28515625 C-87.1535532 17.10569956 -58.02026747 6.33583581 -26.25 1.25 C-25.55277832 1.1380127 -24.85555664 1.02602539 -24.13720703 0.91064453 C-16.15606151 -0.16540032 -8.03911965 0.0060678 0 0 Z " fill="#D8150B" transform="translate(404.25,36.75)"/>
<path d="M0 0 C0.99 0.33 1.98 0.66 3 1 C4.26567394 3.7173867 5.37026568 6.39262644 6.4375 9.1875 C13.46184359 26.63743072 22.78311495 42.91341092 34 58 C34.44698242 58.60247559 34.89396484 59.20495117 35.35449219 59.82568359 C42.02413224 68.73054138 49.29168849 76.9850934 57 85 C57.46937988 85.49129395 57.93875977 85.98258789 58.42236328 86.48876953 C64.87816807 93.21592163 71.64071637 99.28240272 79 105 C79.56783203 105.44956055 80.13566406 105.89912109 80.72070312 106.36230469 C96.23117686 118.61309063 113.08258611 128.67780296 131 137 C131.64888184 137.30244629 132.29776367 137.60489258 132.96630859 137.91650391 C170.43266286 155.21505457 210.01571491 161.3769916 251 162 C251.27389517 169.04198903 250.36864645 175.12390106 248.625 181.9375 C248.36170898 182.97165039 248.09841797 184.00580078 247.82714844 185.07128906 C239.32539268 216.99840116 224.09941337 247.52773128 203 273 C202.5251416 273.57637207 202.0502832 274.15274414 201.56103516 274.74658203 C190.00511085 288.67122796 177.46307915 302.06254679 163 313 C162.45053711 313.42055664 161.90107422 313.84111328 161.33496094 314.27441406 C126.11345395 341.14940924 84.96405413 359.53360802 41 366 C39.80697266 366.17732666 38.61394531 366.35465332 37.38476562 366.53735352 C25.38982149 368.19570742 13.46875162 368.35745086 1.375 368.3125 C0.35775848 368.31067719 -0.65948303 368.30885437 -1.70755005 368.30697632 C-16.34338283 368.26278974 -30.60381294 367.84644814 -45 365 C-45.89412598 364.83902832 -46.78825195 364.67805664 -47.70947266 364.51220703 C-107.07657343 353.7735186 -163.72886076 320.68318347 -201 273 C-202.14855469 271.59427734 -202.14855469 271.59427734 -203.3203125 270.16015625 C-223.83235639 244.53659016 -238.25804932 214.06976676 -246.4375 182.375 C-246.69708496 181.37911865 -246.95666992 180.3832373 -247.22412109 179.35717773 C-248.68121947 173.40894717 -249.25877744 168.12229565 -249 162 C-248.01495483 161.97812622 -248.01495483 161.97812622 -247.01000977 161.95581055 C-230.51988825 161.55159189 -214.32895441 160.34182801 -198 158 C-197.20803223 157.88930176 -196.41606445 157.77860352 -195.60009766 157.66455078 C-135.53923053 149.03503943 -74.79750723 114.4907905 -38 66 C-37.5673584 65.43313477 -37.1347168 64.86626953 -36.68896484 64.28222656 C-30.25196888 55.81213954 -24.39720922 47.17413824 -19 38 C-18.36707031 36.97261719 -17.73414063 35.94523437 -17.08203125 34.88671875 C-10.97990812 24.71651354 -6.46559942 13.93079107 -1.90454102 3.00268555 C-1 1 -1 1 0 0 Z " fill="#4A4949" transform="translate(404,406)"/>
<path d="M0 0 C0.66 0 1.32 0 2 0 C3.41015625 1.6171875 3.41015625 1.6171875 5.0625 3.875 C29.3291114 35.86280594 65.33888886 55.19200144 104.59765625 61.5859375 C110.95064293 62.3205574 117.36294178 62.24177751 123.75 62.25 C124.77762955 62.25250763 124.77762955 62.25250763 125.82601929 62.25506592 C137.43879619 62.25675941 148.6067799 61.28898322 160 59 C161.13308594 58.78730469 162.26617188 58.57460937 163.43359375 58.35546875 C165.62813278 57.93238841 167.8157323 57.473258 170 57 C175.45847913 68.40460336 179.20099076 79.67910301 182 92 C182.16516113 92.67546875 182.33032227 93.3509375 182.50048828 94.046875 C191.30910499 130.48375899 182.71425822 171.70780858 163.87890625 203.671875 C149.4484019 227.25738999 130.06768377 246.36532594 106 260 C105.42507813 260.32709961 104.85015625 260.65419922 104.2578125 260.99121094 C95.83534843 265.7035612 87.13372333 269.21159338 78 272.3125 C76.57820435 272.80073242 76.57820435 272.80073242 75.12768555 273.29882812 C60.65232955 278.02447247 46.82380369 279.52830608 31.6875 279.375 C30.47084656 279.36851944 30.47084656 279.36851944 29.22961426 279.36190796 C17.27989787 279.28731419 5.65066274 278.88473503 -6 276 C-6.68755371 275.83902832 -7.37510742 275.67805664 -8.08349609 275.51220703 C-35.86866491 268.83684106 -59.49903197 253.50520673 -80 234 C-80.69609375 233.36835938 -81.3921875 232.73671875 -82.109375 232.0859375 C-109.32829971 206.55413623 -123.69898374 166.90523224 -125.359375 130.33984375 C-125.96178647 108.90691514 -122.80586155 88.02135014 -115 68 C-114.78021484 67.14744629 -114.56042969 66.29489258 -114.33398438 65.41650391 C-113 63 -113 63 -110.16870117 62.00854492 C-108.97220947 61.83427979 -107.77571777 61.66001465 -106.54296875 61.48046875 C-105.1994137 61.26560684 -103.85590987 61.05042449 -102.51245117 60.83496094 C-101.80655853 60.73018433 -101.10066589 60.62540771 -100.37338257 60.51745605 C-86.150448 58.37052307 -73.09010818 55.11445843 -60 49 C-58.78183594 48.43539062 -58.78183594 48.43539062 -57.5390625 47.859375 C-37.16561769 38.2189437 -10.48979546 20.97959092 0 0 Z " fill="#FEFDFD" transform="translate(378,126)"/>
<path d="M0 0 C0.95132813 0.81855469 1.90265625 1.63710937 2.8828125 2.48046875 C18.29144253 16.00177101 30.45989375 32.35757293 39 51 C34.85774391 52.85438209 30.6923456 53.7674211 26.25 54.5625 C25.25226563 54.75102539 25.25226563 54.75102539 24.234375 54.94335938 C3.72286655 58.71037679 -19.68920752 59.1174224 -40 54 C-40.7724707 53.81195801 -41.54494141 53.62391602 -42.34082031 53.43017578 C-75.18867516 45.19528277 -109.58753659 24.483708 -129 -4 C-129 -4.66 -129 -5.32 -129 -6 C-129.66 -6 -130.32 -6 -131 -6 C-131.24621094 -5.44699219 -131.49242187 -4.89398438 -131.74609375 -4.32421875 C-140.9238972 12.68759761 -159.57957275 26.43817298 -176 36 C-177.08152344 36.63421875 -178.16304688 37.2684375 -179.27734375 37.921875 C-198.29523697 48.74253683 -220.9032517 57 -243 57 C-240.41285299 34.76807565 -215.05372694 10.0481649 -198.40625 -3.375 C-177.83146646 -19.46247576 -154.44837552 -29.50995175 -129 -35 C-127.865625 -35.24878906 -126.73125 -35.49757813 -125.5625 -35.75390625 C-81.3067682 -43.66461831 -33.62933458 -29.2740601 0 0 Z " fill="#4B4A4A" transform="translate(509,132)"/>
<path d="M0 0 C6.14273039 5.80828046 10.95456555 13.5154228 14.1875 21.3125 C14.1875 22.6325 14.1875 23.9525 14.1875 25.3125 C10.76475525 23.97769078 7.44456949 22.50966413 4.125 20.9375 C-15.54064117 11.95508552 -39.25607019 9.65421206 -60.1796875 15.890625 C-65.87763079 18.12078775 -71.29783683 20.79950541 -76.6796875 23.703125 C-79.8125 25.3125 -79.8125 25.3125 -81.8125 25.3125 C-80.50154557 15.0207543 -74.36320358 6.22309203 -66.8125 -0.6875 C-46.3056216 -16.42606169 -20.20882621 -16.71509693 0 0 Z " fill="#050505" transform="translate(510.8125,239.6875)"/>
<path d="M0 0 C6.14273039 5.80828046 10.95456555 13.5154228 14.1875 21.3125 C14.1875 22.6325 14.1875 23.9525 14.1875 25.3125 C10.76475525 23.97769078 7.44456949 22.50966413 4.125 20.9375 C-15.54064117 11.95508552 -39.25607019 9.65421206 -60.1796875 15.890625 C-65.87763079 18.12078775 -71.29783683 20.79950541 -76.6796875 23.703125 C-79.8125 25.3125 -79.8125 25.3125 -81.8125 25.3125 C-80.50154557 15.0207543 -74.36320358 6.22309203 -66.8125 -0.6875 C-46.3056216 -16.42606169 -20.20882621 -16.71509693 0 0 Z " fill="#050505" transform="translate(366.8125,239.6875)"/>
<path d="M0 0 C7.33534602 4.34132724 11.26669555 8.65113041 14.0625 16.8125 C15.58792162 25.48750643 12.57390849 32.00950999 7.875 39.125 C2.41407376 44.34321841 -2.92161054 46.05013095 -10.4375 46.375 C-17.68289265 46.11291462 -22.72612859 44.18305577 -27.75 38.91015625 C-32.55884668 32.88753817 -34.49824655 27.17723188 -34.3125 19.46875 C-33.28230595 12.17154215 -29.41258134 6.537566 -23.78125 1.96875 C-16.99163051 -2.28914697 -7.49962561 -2.95287273 0 0 Z " fill="#D9170D" transform="translate(500.9375,281.1875)"/>
<path d="M0 0 C7.33534602 4.34132724 11.26669555 8.65113041 14.0625 16.8125 C15.58792162 25.48750643 12.57390849 32.00950999 7.875 39.125 C2.41407376 44.34321841 -2.92161054 46.05013095 -10.4375 46.375 C-17.68289265 46.11291462 -22.72612859 44.18305577 -27.75 38.91015625 C-32.55884668 32.88753817 -34.49824655 27.17723188 -34.3125 19.46875 C-33.28230595 12.17154215 -29.41258134 6.537566 -23.78125 1.96875 C-16.99163051 -2.28914697 -7.49962561 -2.95287273 0 0 Z " fill="#D9170D" transform="translate(327.9375,281.1875)"/>
<path d="M0 0 C4.89127608 0.08481982 9.1732255 1.0976596 13.82421875 2.55859375 C26.19646505 5.9649326 44.70006599 6.24371701 56.5625 0.3125 C58.39287287 0.19104007 60.22814133 0.13706815 62.0625 0.125 C63.0421875 0.11082031 64.021875 0.09664063 65.03125 0.08203125 C67.5625 0.3125 67.5625 0.3125 69.5625 2.3125 C69.99212603 7.72138156 68.66384299 12.48211653 65.26171875 16.68359375 C55.92892869 25.6301994 43.61472464 27.88244448 31.125 27.75 C30.11872559 27.74242676 29.11245117 27.73485352 28.07568359 27.72705078 C16.77199416 27.47642682 7.313767 24.71028714 -1.4375 17.3125 C-5.11925261 13.17052831 -5.99044106 9.61686543 -6.5546875 4.265625 C-6.30300199 0.07086649 -3.49849598 0.01679278 0 0 Z " fill="#020202" transform="translate(373.4375,337.6875)"/>
</svg>
