<svg xmlns="http://www.w3.org/2000/svg" viewBox="0 0 24 24"><g fill="none"><path fill="#251820" d="M16.45 19.477v.015a7.312 7.312 0 0 1-11.412-3.574a7.15 7.15 0 0 1 1.06-6.374a7.3 7.3 0 0 1 2.528-2.173a.1.1 0 0 0 .01-.04c.048-.874.078-1.72.34-2.566q.242-.774.491-1.415c.044-.107.127-.282.234-.33c.14-.064.291.038.36.165q.073.144.097.31a8 8 0 0 0 .452 1.58c.194.487.374.973.55 1.47c.019.053.082.043.126.038a7.7 7.7 0 0 1 1.843.054q.303-.853.641-1.692c.239-.594.306-1.085.448-1.644c.068-.272.437-.452.583-.107q.415.996.68 2.042q.045.147.088.496c.024.19.092.423.092.613c0 .389.02.778.05 1.167q.001.042.038.063a7.182 7.182 0 0 1 1.614 11.086q-.421.451-.914.821z"/><path fill="#9372a0" d="m11.422 9.597l.034-.31c.039-.356 0-.73-.068-1.07c-.049-.224-.15-.453-.224-.681a2.3 2.3 0 0 0-.306-.618l-.52-1.41c-.01-.019-.025-.029-.049-.019l-.01.005l-.006.006l-.003.008v.015l.486 1.6a.73.73 0 0 0-.015.398c.068.311.117.632.136.982c.015.239.015.467-.121.667a6 6 0 0 0-.418.685a.08.08 0 0 1-.063.015a.1.1 0 0 1-.03-.01c-.19-.131-.335-.467-.364-.661c-.015-.088-.034-.093-.064-.005c-.048.146-.039.32-.039.481c0 .063 0 .117.01.166a1.8 1.8 0 0 0-.039.603c.064.413.535.35.603-.025c.02-.097.04-.442.16-.467q.251-.044.472-.116a.8.8 0 0 0 .36-.083a.7.7 0 0 0 .36-.486c.005-.04.03-.049.058-.024l.024.019a.07.07 0 0 1 .03.073c-.049.219-.17.423-.292.613a.04.04 0 0 0 0 .029c0 .01 0 .02.01.024l.014.01a.03.03 0 0 0 .04 0c.13-.195.233-.39.31-.603c.01-.02.02-.03.044-.03h.443a.05.05 0 0 1 .048.035q.135.33.35.612h.01l.01-.01l.01-.014a.05.05 0 0 0 0-.058a2.3 2.3 0 0 1-.297-.594a.07.07 0 0 1 .02-.073l.058-.048c.02-.01.029-.01.034.015c.034.218.15.388.34.5c.024.01.039.01.054-.01l.01-.01l.004-.009a.03.03 0 0 0 0-.02l-.01-.004c-.146-.112-.37-.345-.316-.545c.098-.37.107-.783.18-1.137q.19-.972.452-1.702c.166-.457.51-1.235.681-1.833a7 7 0 0 0 .224-1.016a.6.6 0 0 1 .112-.268c.082-.107.228-.175.32-.034c.025.03.064.112.117.234q.146.313.414 1.123c.16.49.272.996.325 1.507c0 .01-.005.02-.02.02c-.206.052-.421.06-.631.024l-.012.007l-.008.012v.015c-.01.131 0 .267.015.403c.01.054.024.093.058.112c.136.088.477.049.632.02q.01-.002.02.004a.03.03 0 0 1 .01.02l.043 1.41q.021.634-.287 1.167c-.228.185-.437.37-.622.569c-.044.039-.078.043-.107 0a.05.05 0 0 1 0-.064l.175-.257q.015-.021-.014-.034h-.025a1.4 1.4 0 0 1-.413.306l-.02-.005a.04.04 0 0 1-.019-.034a16 16 0 0 0-.097-1.449c-.04-.345-.17-.744-.214-1.045a4.8 4.8 0 0 1-.015-1.094a1.3 1.3 0 0 0-.014-.238l.087-.37v-.024a.03.03 0 0 0-.02-.015c-.024-.005-.038 0-.048.03q-.419 1.052-.686 2.153q-.168.687-.17 1.396c0 .243.015.5.132.67c.111.17.35.195.544.22a.07.07 0 0 1 .059.029a.1.1 0 0 1 .034.053l.034.2c-.141.16-.282.068-.433.01a.04.04 0 0 0-.044.004a.04.04 0 0 0-.01.044q.028.081.02.165a.04.04 0 0 1-.006.018a.04.04 0 0 1-.014.011c-.374.21-.52.564-.544.973l-.03.014c-.014 0-.024 0-.033-.01a.1.1 0 0 0-.044-.028c-.01 0-.024 0-.03.014a2 2 0 0 0-.262.462l.005.014l.015.01h.034l.01-.01c.004 0 .01 0 .01-.01q.034-.072.12-.072c.015 0 .025 0 .035-.015a4 4 0 0 1 .622-.66q-.022-.097.058-.098q.045 0 .088.039c.194.17.253.384.155.641c-.325.098-.695.244-.943.477c-.029.03-.024.053.02.078q.015.007.034.01c.253.024.622.063.84-.093c.117.146-.184.374-.3.457c-.122.083-.375-.014-.516-.048l-.224-.239l-.014-.01a.03.03 0 0 0-.034.01l-.005.015q-.007.028.014.063c.112.16.239.292.385.384c.097.02.199.093.296.214a.034.034 0 0 1 0 .049l-.014.01c-.214.072-.316-.117-.487-.21l-.097-.058a.2.2 0 0 0-.123-.1q-.006 0-.011.002l-.01.006l-.007.01v.014l.054.185a.03.03 0 0 1 0 .029l-.02.01h-.01a4 4 0 0 0-.354-.015c-.19 0-.438.088-.292.316q.043.073.209.16c.117.064.21.05.33.01c.01.098 0 .195-.014.316c-.014.112-.082.16-.194.146c-.34.063-.696.243-.929-.146c-.078-.126-.15-.233-.282-.306a.7.7 0 0 0-.024-.253c.039-.165 0-.34-.17-.423c-.331-.165-.73-.442-.759-.836a5 5 0 0 1-.02-.676c.02-.389.428-.588.725-.749l.004-.006v-.023l-.009-.01a.06.06 0 0 0-.032-.018a.06.06 0 0 0-.036.004c-.34.121-.583.34-.73.666l-.019.014h-.024a1 1 0 0 1-.33-.165c-.292-.223-.263-.515-.268-.841a1.1 1.1 0 0 0-.097-.413a4.3 4.3 0 0 1-.467-1.697q-.014-1.051.117-2.096a6.5 6.5 0 0 1 .257-1.215c.16-.535.326-1.099.564-1.585c.034-.068.083-.097.146-.097c.156 0 .239.155.272.291c.088.34.141.686.239 1.026q.066.242.214.622l.408 1.07c.333.918.555 1.873.661 2.844q.008.087.073.268v.039a.8.8 0 0 1-.228.364z"/><path fill="#664983" d="M13.971 5.888c.01.078.02.156.015.234q-.052.633.014 1.098c.049.302.175.696.214 1.046q.084.731.097 1.468l.02.015a.04.04 0 0 0 .02.005a.04.04 0 0 0 .019-.005c.15-.076.286-.18.398-.307h.01l.01.005q.03.014.014.034l-.18.258a.05.05 0 0 0 0 .063c.034.044.069.04.112 0c.185-.194.39-.389.623-.564q-.03.184-.112.35c-.156.316-.166.681-.185 1.021c-.02.326-.32.477-.583.598l-.009.003h-.008l-.008-.005l-.005-.007a1.23 1.23 0 0 0-.797-.706l-.009.006l-.005.01v.024q.005.03.034.038c.243.098.422.224.554.384c.253.297.184.876.102 1.216c-.034.146-.467.506-.603.584c-.088.048-.19.097-.248.165c-.058.073-.083.146-.073.209c.015.112.044.112.078.01c.024-.064.034-.18.117-.224l.199-.112q.023-.015.039-.01q.028.001.02.025a1.18 1.18 0 0 1-.565.802c-.15.107-.155.301-.35.38a.81.81 0 0 1-.695-.04a.1.1 0 0 0-.039-.01l-.039-.004c.112.014.18-.034.194-.146a1.2 1.2 0 0 0 .015-.316l.16-.136c.098-.093.088-.156.064-.277c-.01-.064.02-.137.014-.214l.098.058c.17.092.272.282.486.209l.014-.01l.01-.014a.03.03 0 0 0-.01-.034q-.144-.184-.296-.214c.014-.068-.024-.141-.122-.224c.141.034.394.131.516.049c.116-.083.418-.312.301-.457c.098-.073.36-.331.34-.467l-.004-.013a.03.03 0 0 0-.034-.016l-.253.024q.144-.387-.156-.642a.14.14 0 0 0-.087-.039c-.049 0-.073.034-.059.098q-.24.028-.452.291c.024-.408.17-.763.545-.972a.03.03 0 0 0 .02-.03a.4.4 0 0 0-.02-.165v-.024l.01-.02a.04.04 0 0 1 .048-.004c.146.058.292.15.428-.01c.058.224.063.394.316.486c.146.049.277-.116.316-.233a.6.6 0 0 0 .01-.243a4 4 0 0 1-.025-.36h-.02q-.028 0-.028.03v.451c.01.127-.078.33-.243.282c-.258-.082-.234-.355-.268-.564c-.039-.253-.296-.243-.5-.287c-.511-.102-.185-1.784-.098-2.13c.102-.388.229-.811.375-1.278q.086-.27.194-.496z"/><path fill="#d1d47f" d="M14.952 6.142a1 1 0 0 0 .584-.034a.04.04 0 0 1 .034.02v.014l.02.389l-.006.02a2.5 2.5 0 0 1-.569.019a.06.06 0 0 1-.043-.02a.06.06 0 0 1-.015-.034l-.03-.355v-.01l.01-.004h.015z"/><path fill="#f37924" d="M12.876 7.642a8 8 0 0 0-1.37-.02a.02.02 0 0 0 0 .015c0 .02-.01.024-.04.024l-.175-.68a.05.05 0 0 1 .005-.044a.05.05 0 0 1 .039-.02c.554-.029 1.109-.092 1.653.025a.06.06 0 0 1 .04.029a.06.06 0 0 1 .01.049z"/><path fill="#664983" d="M10.859 6.918q.196.29.306.617c.073.229.18.457.224.68c.103.454.115.924.034 1.382c-.073.068-.098.116-.078.155a.8.8 0 0 1-.36.083c.204-.263.233-.579.219-.88a5.5 5.5 0 0 0-.132-1.03q-.115-.502-.213-1.007"/><path fill="#664983" d="M10.76 7.124c.207.571.331 1.169.37 1.775q.016.32-.063.632c-.059.229-.282.306-.501.33a.4.4 0 0 0-.165.059a.05.05 0 0 0-.025.03a3 3 0 0 0-.097.388a.5.5 0 0 1-.049.195a.22.22 0 0 1-.393-.03c-.025-.058-.02-.155 0-.306q.044-.217-.049-.355a1 1 0 0 1-.01-.165c0-.16-.01-.34.04-.486q.041-.123.062.01c.03.194.175.534.365.66a.083.083 0 0 0 .117-.029c.112-.223.243-.447.389-.66c.146-.2.146-.429.126-.667a6 6 0 0 0-.136-.982a.7.7 0 0 1 .02-.399"/><path fill="#f26122" d="m12.876 7.644l-.116.598q-.084.044-.17.083c-.19.049-.414.131-.536.272c-.145.17-.145.38-.165.642a.16.16 0 0 0-.126-.088a.07.07 0 0 1-.049-.019a.1.1 0 0 1-.02-.039l-.228-1.43c.03 0 .044-.004.04-.024a.02.02 0 0 1 0-.014a.02.02 0 0 1 .014-.01a9 9 0 0 1 1.356.03"/><path fill="#fdad19" d="m8.642 8.547l-.195.146a5.9 5.9 0 0 0-1.361 1.303a5.6 5.6 0 0 0-.71 1.118c-.132.268-.214.433-.287.662a6.7 6.7 0 0 0-.253 2.897q.073.533.306 1.226c.01.024.015.068.049.082h.01a.02.02 0 0 0 .013-.005a.02.02 0 0 0 .006-.014c-.204-1.42-.044-3.049.817-4.26l.311-.447c.01-.01.015-.01.025-.005c.01 0 .01.01.01.02c-.633 1.566-.803 3.442-.035 4.993a.22.22 0 0 0 .136.117c.01.127.127.272.205.37a.044.044 0 0 1-.005.058q-.177.145-.316.34q-.147 0-.292-.146c-.316-.306-.671-.612-.934-.972c-.01-.01-.024-.015-.048 0c-.01 0-.01.01-.01.02c.195.612.515 1.103.885 1.623a.12.12 0 0 1 .02.112a.6.6 0 0 0-.02.238l-.024.078a.45.45 0 0 1-.18.136H6.75l-.01-.004a6.8 6.8 0 0 1-.442-8.354c.126-.184.282-.374.428-.559l.17-.185A8 8 0 0 1 8.16 8.042q.206-.138.438-.229v.015z"/><path fill="#f37924" d="M18.944 13.43q-.015.015-.03 0l-.01-.01l-.014-.005a.04.04 0 0 0-.034.015l-.01.029q-.02.207-.048.413c-.01 0-.01-.005-.01-.01c-.005-.155.039-.481-.044-.607a.25.25 0 0 0-.121-.083c-.127-.049-.263-.19-.414-.15a9 9 0 0 0-.282-1.245a6.8 6.8 0 0 0-.71-1.42a5.2 5.2 0 0 0-1.06-1.187c-.14-.121-.33-.243-.437-.389q-.009-.02-.039-.019c-.014 0-.024 0-.024-.015l-.005-.014l.083-.705v-.015l.013-.008l.016-.001h.014l.068.038a7.3 7.3 0 0 1 1.75 1.654c.37.51.672 1.066.9 1.653q.081.203.127.413c.029.131.073.258.107.399c.107.447.18.875.213 1.269"/><path fill="#faa87b" d="m12.76 8.242l-.116.836a.05.05 0 0 1-.02.034l-.209.146a2 2 0 0 1-.525-.024c.024-.258.024-.467.165-.633c.122-.145.346-.233.536-.277q.086-.036.17-.077z"/><path fill="#f26122" d="M8.641 8.548c.097.433.238.763.457 1.323a.75.75 0 0 1 .058.345a8 8 0 0 0-.452.428c-1.488 1.526-1.61 3.656-1.2 5.615l-.02.122a.23.23 0 0 1-.136-.117c-.768-1.556-.593-3.427.034-4.993c0-.01 0-.015-.01-.02s-.015 0-.024.005c-.146.219-.253.365-.311.448c-.861 1.21-1.021 2.839-.817 4.259a.02.02 0 0 1-.02.02h-.01c-.034-.015-.038-.06-.048-.084a7 7 0 0 1-.306-1.225a6.7 6.7 0 0 1 .252-2.897c.073-.229.156-.394.287-.667q.263-.548.7-1.118c.43-.573.96-1.062 1.566-1.444m7.006.185l.01.014c0 .01.01.02.024.015q.03-.001.044.02c.098.145.292.267.433.388c.452.38.802.778 1.06 1.187q.436.668.71 1.42c.087.267.184.68.282 1.244q.032.32.034.413q.086 2.263-1.28 4.094a2.1 2.1 0 0 0-.31-.831q.02-.089.049-.175q.057-.138 0-.219l.077-.544c.073-.487.102-.968.083-1.425q-.014-.261-.063-.005c-.064.34-.117.652-.234.977l-.296.788l-.973-.404c.136-.345.302-.7.37-1.045a4.2 4.2 0 0 0-.01-1.75a4.3 4.3 0 0 0-.452-1.118a1.1 1.1 0 0 1-.311-.477a.034.034 0 0 0-.03-.024a.6.6 0 0 1-.184-.068c.194-.127.403-.263.447-.501a.7.7 0 0 1 .049-.17q.392-.22.355-.681c-.005-.097-.107-.292-.064-.399a.4.4 0 0 0 .025-.223l.16-.501z"/><path fill="#faa87b" d="M15.492 9.234a.4.4 0 0 1-.025.223c-.044.112.058.302.063.404a.66.66 0 0 1-.354.676c-.069-.496.111-.856.316-1.303"/><path fill="#fdad19" d="m9.156 10.216l.034.462l.005.121q.001.014-.005.005l-.019-.014l-.005-.005h-.01l-.003.002l-.003.004v.004l.002.004a.22.22 0 0 1-.005.2a4.5 4.5 0 0 0-.496 1.458c-.02.03-.005.073-.01.098a7.1 7.1 0 0 0-.03 2.178q.069.425.132.85c.01.05.02.093.02.146l-.652.244q-.344.124-.608.291c-.408-1.964-.291-4.094 1.201-5.62c.136-.146.292-.282.452-.428"/><path fill="#faa87b" d="M15.609 11.46c-.01.452.35.822.802.827a.81.81 0 0 0 .831-.798a.82.82 0 0 0-1.638-.029z"/><path fill="#f99a1f" d="M9.191 10.678c.092.33.32.486.632.598l.034.024l.01.034l.03.666v.02a.03.03 0 0 1-.01.024a.03.03 0 0 1-.02.01l-.491-.025h-.02a.03.03 0 0 0-.015.034l.01.015c.156.146.37.272.54.389a.12.12 0 0 1 .049.063v.078l-.277.68v.02l.01.02l.019.004h.02l.665-.389q.074.236.146.36c.132.219.414.229.555.428c.17.233.155.598.116.87a.25.25 0 0 1-.068.151a.36.36 0 0 0-.087.272l-.273-.014a.06.06 0 0 1-.053-.039l-.268-.788q-.03-.095-.068 0l-.218.57a.33.33 0 0 0-.069.194q-.02.05-.067.048l-.7-.024c-.074 0-.083.014-.025.058l.462.36l-.997.33a.7.7 0 0 0-.02-.14a7.1 7.1 0 0 1-.097-3.024c0-.03-.014-.073.005-.103c.08-.51.248-1.004.496-1.458a.21.21 0 0 0 .005-.195l-.007-.003l-.003-.006l.003-.007l.007-.003h.02l.02.02h.004v-.127z"/><path fill="#251820" d="M11.807 11.63c.058.108.063.185.029.234q-.052.065-.083-.01a4 4 0 0 0-.447-.71q-.023-.022 0-.039l.014-.01l.012-.003q.007 0 .013.004h.01c.067.097.194.228.374.403q.029.022.078.132"/><path fill="#f37924" d="M14.675 11.207a.6.6 0 0 0 .195.068q.016.002.024.024c.058.185.165.345.311.482c.204.347.358.722.457 1.113a4.2 4.2 0 0 1 .005 1.75c-.068.34-.233.7-.37 1.046l-.388-.136l.02-.005q.02-.001.028-.025a.1.1 0 0 1 .03-.038q.044-.045.014-.103a.03.03 0 0 1 0-.034c.224-.272.32-.569.409-.914c.043-.17.068-.437.058-.603c-.024-.559-.185-1.02-.36-1.546a1 1 0 0 0-.16-.316a1.1 1.1 0 0 1-.239-.481c-.01-.049-.034-.073-.082-.068a.1.1 0 0 0-.03.014a.06.06 0 0 0-.019.03l-.097.37l.005-.526c0-.01 0-.015.01-.02q0-.008.014-.01l.17-.072z"/><path fill="#f99a1f" d="m14.908 15.554l-.496-.17a.1.1 0 0 0-.03-.015c.098-.098.195-.17.278-.21q.126-.066-.02-.067l-.69-.02c-.058 0-.097-.029-.112-.078l-.243-.744q-.037-.102-.073 0l-.287.778a.7.7 0 0 0-.111-.447a1.8 1.8 0 0 1 .024-.564c.053-.229.272-.34.423-.481c.15-.146.194-.268.292-.418l.466.316l.009.003l.008-.001l.008-.005l.005-.007v-.015l-.23-.67c-.014-.05 0-.108.06-.17a.1.1 0 0 1 .029-.02c.072-.034.13-.098.19-.131a5 5 0 0 0 .34-.23c.019-.014.019-.023-.01-.028l-.292-.01l.034-.316l.097-.37c0-.01.01-.02.02-.029a.1.1 0 0 1 .029-.014c.049-.005.073.014.083.068q.052.246.243.486c.058.073.112.18.155.311c.175.52.336.987.36 1.546c.01.17-.014.433-.058.603c-.088.34-.185.642-.409.914a.03.03 0 0 0 0 .034q.03.059-.014.103a.1.1 0 0 0-.03.038a.04.04 0 0 1-.029.025h-.02z"/><path fill="#251820" d="M10.426 11.829a.15.15 0 0 1-.01-.068q0-.046.059-.04c.435.057.846.234 1.186.511a.06.06 0 0 1-.01.065l-.019.013c-.01.005-.029 0-.048-.01a2.6 2.6 0 0 1-.453.025c-.32 0-.569-.234-.705-.496"/><path fill="#fed27e" d="m11.102 12.044l.034.034h.048c.078-.02.229.01.278.092a.03.03 0 0 1 0 .024l-.02.01c-.37.02-.7-.015-.87-.38a.03.03 0 0 1 0-.024a.024.024 0 0 1 .029-.01q.197.045.38.117q.071.028.12.136m2.13.029c.077-.025.063-.098.126-.132q.194-.097.408-.136q.006 0 .012.005l.008.01v.01a.23.23 0 0 1-.044.107c-.195.262-.491.286-.798.252l-.011-.004l-.008-.01v-.015c0-.005 0-.01.01-.014c.111-.093.19-.03.296-.073"/><path fill="#222828" d="m11.768 12.034l.038.014l.015.015c.01.024 0 .034-.049.034l-.024-.01a.1.1 0 0 1-.02-.02a.5.5 0 0 1-.077-.209c0-.01 0-.014.01-.014h.014c.01 0 .01 0 .015.01q.007.085.048.155c0 .015.015.02.03.024"/><path fill="#d30202" d="M9.896 11.995c.01.228.092.34.243.49a.6.6 0 0 1 .131.176c.049.097.078.194.107.287l-.666.379l-.014.004a.04.04 0 0 1-.027-.01l-.007-.014v-.02l.272-.68a.12.12 0 0 0-.044-.14c-.17-.117-.389-.244-.535-.39c-.01 0-.01-.01-.014-.014a.03.03 0 0 1 .014-.03l.02-.004l.486.02a.03.03 0 0 0 .024-.006l.008-.01l.002-.014zm4.546.155l.297.01c.029 0 .029.014.01.03c-.113.082-.23.16-.341.228c-.058.034-.117.097-.194.13a.1.1 0 0 0-.025.02q-.08.097-.058.17l.228.681a.02.02 0 0 1-.01.015l-.01.003l-.009-.003l-.466-.316c.038-.16.077-.443.208-.51c.088-.045.224-.132.263-.23c.034-.087.073-.155.107-.228"/><path fill="#251820" d="M11.495 12.647c.146-.088.243-.195.219-.229c-.02-.034-.16.01-.307.102c-.145.093-.243.194-.218.229c.019.038.16-.01.306-.098z"/><path fill="#664983" d="M10.93 13.239c.025.078.03.16.025.253c-.389-.063-.467-.443-.544-.734c-.015-.05 0-.059.034-.02q.107.101.267.165a.2.2 0 0 1 .112.146c.02.088.053.146.107.19"/><path fill="#f99a1f" d="M18.21 13.016c.146-.034.287.102.414.156c.063.024.102.048.122.082c.082.127.038.453.043.608l.01.01l.01-.01a9 9 0 0 0 .048-.437a.04.04 0 0 1 .034-.01q.016 0 .025.014q.015.015.029 0a6.92 6.92 0 0 1-1.508 4.61h-.014a1 1 0 0 0-.253-.112l-.204-.399a6.26 6.26 0 0 0 1.245-4.507z"/><path fill="#9372a0" d="M12.167 13.346a.05.05 0 0 0-.015.029a.05.05 0 0 1-.014.03a.05.05 0 0 1-.03.009a.06.06 0 0 1-.058-.03a.4.4 0 0 0-.146-.15l-.017-.017l-.007-.022c-.02-.18.535-.112.617-.088a.06.06 0 0 1 .049.04a.06.06 0 0 1-.015.058a.9.9 0 0 1-.257.228a.03.03 0 0 1-.017-.003a.03.03 0 0 1-.012-.011l-.005-.015q-.001-.043-.04-.063a.024.024 0 0 0-.033 0z"/><path fill="#664983" d="M11.442 14.873a.29.29 0 0 0-.151-.291l.024-.516v-.01a.014.014 0 0 1 .015-.004h.005q.029.015.048.043l.166.365c.126.306.763.243 1.006.19c.209-.049.34-.34.404-.545q.002-.022.024-.024l.02-.005c.014 0 .024 0 .024.02l-.01.51c0 .394-1.264.326-1.507.287a.2.2 0 0 1-.068-.02"/><path fill="#664983" d="M11.763 14.135c.345-.077.583-.029.89.01a.5.5 0 0 0 .17-.01l.01.005v.02c-.06.194-.147.389-.39.423c-.214.024-.428.01-.651-.04c-.175-.043-.224-.257-.273-.398v-.02h.02a.32.32 0 0 0 .224.015z"/><path fill="#d30202" d="m11.039 15.024l-.02.136c0 .01-.01.02-.02.03l-.515.291l-.017.004a.04.04 0 0 1-.031-.014l-.01-.014c-.097-.21-.345-.19-.535-.117l-.131.053l-.462-.36q-.086-.064.024-.058l.7.02c.034 0 .054-.01.069-.044a.45.45 0 0 0 .068-.194l.218-.574q.039-.087.068 0l.268.788c0 .01.01.019.02.029l.033.01zm3.345.34c-.2-.097-.258-.097-.438-.01a.04.04 0 0 1-.039 0a3.3 3.3 0 0 0-.67-.325l.286-.778q.038-.102.068 0l.248.744c.02.049.054.078.112.078l.69.02c.098 0 .098.023.02.067a1.3 1.3 0 0 0-.277.204"/><path fill="#f99a1f" d="m16.703 16.302l-.438-.209l.302-.787c.116-.326.17-.642.233-.978q.05-.255.063 0q.028.693-.083 1.43z"/><path fill="#9372a0" d="M11.29 14.582a.29.29 0 0 1 .152.292c-.141-.04-.195-.136-.151-.292"/><path fill="#989145" d="M12.175 15.368a.3.3 0 0 1-.01-.142l-.004-.034a.06.06 0 0 0-.03-.024c-.184-.078-.384-.063-.578-.165c.491 0 .938.058 1.38-.131a.2.2 0 0 0 .117-.122q.024-.073.05 0a.64.64 0 0 1 .038.311c-.024.248-.773.306-.963.306"/><path fill="#d1d47f" d="M11.554 15.003c.195.102.39.088.579.166c.01 0 .02.014.029.024c0 .01.005.024 0 .034a.34.34 0 0 0 .014.141c-.291.034-.758.03-.991-.136a.15.15 0 0 1-.059-.131l.03-.253c0-.059.029-.063.067-.025a.7.7 0 0 0 .331.18"/><path fill="#664983" d="m13.188 15.614l.01-.009l.005-.011q0-.008-.002-.013l-.008-.011c-.058-.063-.127-.146-.122-.239l.005-.021l.015-.017l.146-.122a.04.04 0 0 1 .034-.01c.184.049.427.204.583.307c.02.01.024.029.015.048c-.068.117-.195.345-.345.321a1.5 1.5 0 0 0-.876.063a.08.08 0 0 1-.073 0l-.01-.008l-.004-.011v-.02q.122-.19.165-.403q.001-.022.024-.03l.175-.058q.043-.014.049.025a.34.34 0 0 0 .156.214c.024.014.043.02.058.005m-2.125.145h.015q.035.013.049-.024l.097-.36q0-.005.005-.01h.01l.305.083c.005 0 .01 0 .015.01l.005.01l.088.355c.004.034-.01.048-.05.043c-.242-.048-.534 0-.787.034c-.102.01-.233-.175-.287-.252a.05.05 0 0 1 .02-.063l.467-.292h.014c.073-.01.102.014.098.068a2 2 0 0 1-.098.36l.007.016q.005.008.013.013z"/><path fill="#222828" d="m9.896 15.34l.034.087c-.015.049-.005.098.024.166c.039.068.097.16.185.267a.38.38 0 0 0 .155.185a2.6 2.6 0 0 0 2.232.758a2.26 2.26 0 0 0 1.809-1.23c.01-.049.01-.082-.015-.097q.037-.087.097-.092l.491.17l.39.136l.972.403l.433.21q.057.08 0 .218q-.03.087-.05.175l.01.015q.235.38.302.817l.204.398c-.014-.01-.044 0-.078.025c-.102-.166-.194-.307-.233-.51a1.9 1.9 0 0 0-.262-.623l-.013-.003l-.012.003l-.01.01a6 6 0 0 1-.471.85l-.16.253q-.022.03.014.03l.136-.015q.01 0 .019.003a.04.04 0 0 1 .015.011l.01.015v.02l-.015.082l-.073.049c-.097.063-.228.024-.325.097a.4.4 0 0 0-.083.078l-.21.2a.04.04 0 0 0-.004.048l.36.515q.014.015.034.015a.2.2 0 0 0 .126-.064c-.005.02.01.04.059.064l-.136.102a.04.04 0 0 0-.012.015a.04.04 0 0 0-.003.019c0 .02 0 .039.014.053v.025l-.014.01h-.01c-.01 0-.014 0-.02.01l-.004.023l-.136-.243l-.326-.486l-.01-.01h-.01a.02.02 0 0 0-.019.01c-.097.165-.258.345-.297.53l-.072.326a3.5 3.5 0 0 1-.21.598l-.014-.034c0-.015-.015-.02-.03-.015l-.028.005q.169-.481.286-.977a.1.1 0 0 0 0-.058a.03.03 0 0 0-.011-.014a.03.03 0 0 0-.018-.001h-.01c-.33.267-.68.486-1.05.676a.3.3 0 0 0-.097.068a.8.8 0 0 1-.35.267h-.02l-.014-.005l-.063-.078c-.049.03-.088.035-.127.02a.1.1 0 0 1-.029-.02c-.02-.019-.044-.029-.073-.019q-.3.052-.583.068q-.036 0-.02.03q.073.2.21.364v.015l-.01.01h-.01l-.01.004c-.03.005-.048 0-.068-.024q-.136-.166-.204-.37l-.015-.014a.2.2 0 0 0-.121-.02a2 2 0 0 1-.384.049l-.686-.146a3.57 3.57 0 0 1-1.848-1.045h-.014a.03.03 0 0 0-.024.014v.015q.043.509.486.91q-.093.022-.136-.02a2.4 2.4 0 0 1-.302-.34a4.4 4.4 0 0 1-.155-.7a.2.2 0 0 0-.03-.05a9 9 0 0 1-.646-.695a.05.05 0 0 0-.03.005l-.379.195l-.534.204q-.02.006-.064-.01c-.005-.039.02-.068.059-.078a6.4 6.4 0 0 0 .875-.379c.02-.01.02-.02.01-.034l-.34-.447l-.327-.486l-.01-.01l-.014-.003l-.014.003h-.015c-.224.2-.389.437-.486.715q-.133.387-.214.534q-.013-.015-.049-.014c-.01 0-.014 0-.02-.015l-.014-.01l.025-.077a.2.2 0 0 0 .043-.064c.098-.272.195-.564.355-.812q.144-.195.316-.34a.044.044 0 0 0 .005-.058c-.078-.098-.194-.243-.204-.37l.02-.121q.263-.162.607-.287l.652-.243l.996-.336z"/><path fill="#e2e1e1" d="M14.32 15.472c.024.019.024.053.014.097a2.26 2.26 0 0 1-1.809 1.23c-.826.097-1.662-.146-2.231-.754l-.156-.184a2 2 0 0 1-.185-.268q-.044-.1-.024-.165c.097-.015.243-.049.326-.02l.017.01q.008.006.012.015c.394.778 1.201 1.108 2.062 1.06c.486-.025.982-.195 1.322-.55c.127-.131.243-.33.355-.5a.11.11 0 0 1 .131-.04z"/><path fill="#9372a0" d="M12.41 15.943c-.127.146-.428.063-.555-.034c-.116-.088-.16-.248-.184-.39q0-.008.002-.015l.007-.013a.04.04 0 0 1 .015-.012a.04.04 0 0 1 .02-.003c.298.029.599.017.894-.034l.005.006v.008a.87.87 0 0 1-.204.487"/><path fill="#27b0d3" d="M10.017 15.967L8.53 16.978a.064.064 0 0 1-.087-.02l-.195-.296a.06.06 0 0 1-.01-.049a.06.06 0 0 1 .035-.039l1.604-.812a.07.07 0 0 1 .049-.004q.023.002.039.024l.068.097q.015.021.01.047a.06.06 0 0 1-.025.04m5.854.923l-1.585-.972a.06.06 0 0 1-.03-.044a.06.06 0 0 1 .014-.049q.088-.088.225-.024a28 28 0 0 1 1.57.807v.015l-.13.248a.05.05 0 0 1-.021.02a.05.05 0 0 1-.028.004z"/><path fill="#9372a0" d="M13.509 15.962c-.647.568-1.984.597-2.64.024l-.004-.01q0-.006.003-.01h.01l.462-.034c.263-.014.5.088.749.175q.06.024.126.01c.234-.058.486-.156.705-.185q.292-.04.584-.01a.024.024 0 0 1 .014.025z"/><path fill="#fed27e" d="M7.367 17.148c-.16.248-.253.535-.355.812a.2.2 0 0 1-.049.058a.7.7 0 0 1 .025-.233a.11.11 0 0 0-.02-.112a5.9 5.9 0 0 1-.885-1.624c0-.01 0-.019.01-.024q.035-.014.049.01c.262.355.617.661.938.972a.46.46 0 0 0 .287.141"/><path fill="#e2e1e1" d="M16.63 16.459a5.83 5.83 0 0 1-2.441 2.893a4.18 4.18 0 0 1-4.289-.195c-.972-.715-1.701-1.726-2.3-2.732a.097.097 0 0 1 .04-.132l.17-.097q.073-.043.112.04c.379.816.972 1.565 1.638 2.187a3.74 3.74 0 0 0 1.702.934c.131.034.262.077.384.097c2.334.257 3.802-1.22 4.677-3.146c.02-.049.059-.063.107-.039l.156.078q.073.037.044.112"/><path fill="#27b0d3" d="M10.542 16.58a1.5 1.5 0 0 0-.291.291c-.083.054-.156.141-.214.195l-.229.218c-.034.04-.097.064-.126.137l-.015.019h-.014a.03.03 0 0 0-.02.015l-.423.427a.034.034 0 0 1-.039.005l-.014-.005l-.258-.291q-.03-.037 0-.073a.7.7 0 0 1 .102-.107q.686-.57 1.415-1.085a.03.03 0 0 1 .034 0l.16.117a.06.06 0 0 1 .025.044a.05.05 0 0 1-.02.044l-.068.048zm3.647-.025c.423.33.826.68 1.206 1.06q.016.016.018.04q0 .024-.013.043l-.22.267a.04.04 0 0 1-.033.02a.04.04 0 0 1-.034-.02a16 16 0 0 0-.778-.875c-.185-.195-.418-.399-.627-.598a.023.023 0 0 1 0-.034a.6.6 0 0 1 .15-.117a.04.04 0 0 1 .034 0c.112.063.214.156.292.214zm-2.82.355c-.078.058-.117.146-.156.195a2 2 0 0 0-.121.218l-.885 1.41a.06.06 0 0 1-.039.03a.06.06 0 0 1-.049-.015l-.35-.268a.04.04 0 0 1-.014-.024l.005-.034l.943-1.225l.262-.321l.117-.146l.015-.01h.024l.272.088q.006.001.011.005l.009.01v.019a.2.2 0 0 1-.049.068zm2.645 1.94l-1.065-1.96a.06.06 0 0 1 .014-.068l.02-.014l.2-.068h.043c.01 0 .025.01.03.024l1.195 1.828a.06.06 0 0 1 0 .063l-.019.02l-.33.2a.06.06 0 0 1-.05.009a.06.06 0 0 1-.039-.03z"/><path fill="#9372a0" d="M17.09 17.952c.02.029.03.053.03.082a.05.05 0 0 1-.015.034c-.325.316-.71.608-1.093.89a3.6 3.6 0 0 1-.385-.656c.02-.03.049-.054.083-.083c.097-.068.224-.03.326-.097l.073-.049c.087-.01.5-.107.496-.243c0-.034-.03-.053-.073-.063a5 5 0 0 1-.438-.088q.27-.412.477-.86h.014a.02.02 0 0 1 .02.01c.121.194.209.393.253.612c.043.204.13.34.233.51m-8.984-.56c-.32.252-.581.568-.768.929l.004.005h.01a.34.34 0 0 1 .15 0q.044.015.064.01l.535-.21c.039.03.014.083-.063.161a9 9 0 0 0-.467.477c-.063.063-.078.184-.204.121a2.2 2.2 0 0 1-.452-.467a.09.09 0 0 1 0-.102l.111-.17c.049-.107.127-.282.214-.54c.1-.28.274-.528.501-.72a.04.04 0 0 1 .03 0l.009.015l.326.487z"/><path fill="#696868" d="m10.704 17.197l.262-.321q-.153.146-.262.32m.666-.287l-.277.413a1.2 1.2 0 0 1 .121-.214c.04-.058.078-.14.151-.194z"/><path fill="#664983" d="m8.106 17.39l.34.438c.01.02.01.03-.01.039a6.4 6.4 0 0 1-.875.379c-.039.01-.063.039-.058.078a.35.35 0 0 0-.158.002l-.007-.002v-.02q.286-.54.768-.918z"/><path fill="#f37924" d="m11.417 18.256l-.005-.024c0-.015 0-.024.01-.034l.253-.273l.437-.466a.1.1 0 0 1 .064-.03a.1.1 0 0 1 .063.03l.67.729c.01.015.015.024.015.039s0 .029-.014.039l-.69.729a.06.06 0 0 1-.05.015a.06.06 0 0 1-.043-.02z"/><path fill="#664983" d="M16.09 17.685c.147.034.297.058.443.083c.049.01.069.029.073.063c.005.136-.408.233-.5.243l.019-.078a.04.04 0 0 0-.01-.034a.04.04 0 0 0-.034-.015l-.136.015q-.037 0-.015-.03l.16-.252zm-6.748 1.697l-.291-.18a.5.5 0 0 1-.059-.122a.14.14 0 0 0-.029-.053c-.03-.03-.053-.03-.073.01h-.053a2 2 0 0 1-.044-.278c-.01-.121-.306-.218-.409-.252a.03.03 0 0 0-.029.01a.03.03 0 0 0 0 .033c.02.03.049.059.083.078a.02.02 0 0 1 .01.01l.002.01l-.002.01a6 6 0 0 1-.37.544c-.16.209-.588-.195-.71-.316c.127.063.146-.059.204-.122c.146-.165.307-.326.467-.476q.116-.117.063-.16l.38-.19a.05.05 0 0 1 .029 0c.01 0 .02 0 .024.01q.301.361.623.68l.029.049l.014.058c.03.224.078.423.141.647"/><path fill="#d1d47f" d="m17.106 18.447l-.997.88l-.082.054q-.065.042-.107-.02l-.063-.092a.1.1 0 0 1-.015-.054c0-.014 0-.024.014-.034l.137-.097q.591-.445 1.157-.924a.4.4 0 0 0 .078-.097a.03.03 0 0 1 .029-.02q.073.007.112.078v.03l-.263.291z"/><path fill="#664983" d="M15.628 18.3c.107.243.233.456.384.656l-.078.058a.2.2 0 0 1-.126.063a.04.04 0 0 1-.034-.014l-.36-.51a.04.04 0 0 1 .005-.054l.21-.195z"/><path fill="#989145" d="M17.106 18.448c-.302.34-.618.632-.997.88z"/><path fill="#fed27e" d="M15.672 19.093q-.146.001-.19.04l-.442.344c-.04.03-.069.025-.098-.014l.068-.326c.04-.185.2-.365.297-.53l.01-.01l.01-.002l.01.002l.009.01zm-6.905.146a.7.7 0 0 1-.243-.122c-.063-.043-.136-.058-.185-.111l.195-.321q.014-.023.034-.015q.109.028.136.136c.024.136.049.282.063.438z"/><path fill="#664983" d="M11.865 19.987c-.528.125-1.08.11-1.6-.043a2.6 2.6 0 0 1-.486-.21a1.38 1.38 0 0 1-.486-.923l.01-.01l.014-.005h.015l.049.04a3.57 3.57 0 0 0 1.799 1.006zm2.791.03a.21.21 0 0 1-.141.17a8 8 0 0 1-1.006.291v-.014l.004-.01q.315-.242.623-.496c0-.01.005-.024 0-.034v-.02l-.01-.014l-.015-.01a.04.04 0 0 0-.034.005l-.194.16a.45.45 0 0 0 .107-.354c0-.03-.02-.049-.049-.039a.06.06 0 0 0-.034.024a1.8 1.8 0 0 1-.462.423a.5.5 0 0 1-.272.063q-.05.002-.034-.038a.2.2 0 0 1 .127-.112c.038-.01.048-.049.043-.117l.063.078l.015.01h.02a.74.74 0 0 0 .345-.273a.3.3 0 0 1 .102-.068q.571-.283 1.07-.68q.007 0 .012.006a.02.02 0 0 1 .007.013v.058q-.117.496-.292.977z"/><path fill="#fdad19" d="M8.34 19.007c.05.049.122.068.18.112a.7.7 0 0 0 .244.121l.14.628c.006.029 0 .039-.033.024l-.686-.374c-.014-.005-.014-.015-.01-.03a.37.37 0 0 0 .01-.248l.005-.034l.146-.199z"/><path fill="#251820" d="M9.05 19.199c.087.233.208.452.354.647q.029.037-.01.058l-.01.01l-.012.005h-.014a.04.04 0 0 1-.022-.015a4.2 4.2 0 0 1-.447-.875c.02-.034.048-.034.073-.005q.019.02.029.049a.3.3 0 0 0 .058.126"/><path fill="#9372a0" d="M8.836 19.035h.049c.121.312.28.61.471.884q.015.006.03 0l.01-.014q.037-.022.009-.058a2.6 2.6 0 0 1-.355-.647l.292.18q.096.132.301.335c.03.03.073.034.136.02q.25.144.486.209a3.1 3.1 0 0 0 1.605.044c.097 0 .224-.02.38-.049a.2.2 0 0 1 .12.02a.05.05 0 0 1 .02.029c.049.13.112.248.2.355c.019.024.039.029.068.024h.01l.01-.005l.009-.01v-.012l-.005-.012a1.2 1.2 0 0 1-.204-.355c-.01-.02 0-.03.02-.03q.283-.014.583-.072c.029 0 .053 0 .073.024q.007.014.029.02c.039.014.078.01.126-.02q.014.102-.043.117q-.096.035-.127.107q-.016.051.034.044a.5.5 0 0 0 .272-.064q.271-.174.462-.422a.06.06 0 0 1 .034-.025c.03-.005.049.01.049.039a.45.45 0 0 1-.107.355c-.18.18-.418.292-.613.457c-.073.063-.136.058-.204-.01l-.374-.393c-.025-.03-.049-.03-.083-.005a.015.015 0 0 0 0 .02c.102.155.224.305.365.437c.01.01.005.014-.005.014a6.6 6.6 0 0 1-2.844-.194a11 11 0 0 1-.987-.34c-.083-.03-.112-.05-.137-.137a5 5 0 0 1-.165-.86"/><path fill="#fdad19" d="m15.672 19.095l.136.243l.069.122a.03.03 0 0 1-.01.034a21 21 0 0 1-1.084.583q-.038.015-.054-.015q.133-.286.214-.593c.03.034.059.04.097.01l.443-.345c.029-.024.097-.034.194-.039z"/></g></svg>