<svg xmlns="http://www.w3.org/2000/svg" viewBox="0 0 24 24"><g fill="none"><path fill="#30c7f4" d="m4.06 16.495l7.94 4.5v-9L4.06 7.5z"/><path fill="#075899" d="M19.941 16.5L12 21v-8.979l7.941-4.51z"/><path fill="#199bcc" d="M12.01 3L4.086 7.526l7.926 4.5l7.93-4.5z"/><path fill="#191d20" d="M7.235 4.15h1.588v4.288L12 6.648l4.764 2.69v5.373L12 17.401l-4.765-2.69zm7.941 6.077L12 8.427l-.89.503l.704.387l.874-.149l.884.477a.3.3 0 0 1 .048-.027c.116-.042.243 0 .28.096c.037.095-.021.212-.143.254c-.116.047-.243.005-.28-.09a.17.17 0 0 1 .005-.132l-.815-.44l-.88.143l-.81-.445l-.857.487l2.023 1.117l.042-.016c.122-.031.243.022.27.122c.026.106-.053.212-.17.239c-.121.031-.243-.022-.27-.122a.17.17 0 0 1 .022-.133l-2.05-1.133l-1.164.662v.715l2.24 1.287a.18.18 0 0 1 .148-.075c.106 0 .19.106.185.228c0 .122-.09.217-.196.212c-.106 0-.19-.106-.185-.223v-.02l-2.192-1.26v.952l.953.55a.19.19 0 0 1 .159-.084c.106 0 .19.095.19.222c0 .122-.09.223-.196.223c-.105 0-.19-.1-.19-.223v-.005l-.916-.53v.885l1.223.667l.572-.37l.593.343a.18.18 0 0 1 .153-.08c.106 0 .186.107.186.229c-.006.121-.096.222-.202.217c-.106 0-.185-.106-.185-.228v-.01l-.545-.318l-.567.37l-1.228-.677v.593l3.177 1.8l1.233-.7v-2.244c-.074 0-.143-.032-.175-.085c-.047-.095.011-.217.127-.28c.122-.064.26-.037.307.053c.053.095-.005.217-.127.28v2.203l.91-.52v-.83l.551-.678v-.868c-.084.01-.164-.021-.2-.09c-.054-.09.005-.212.121-.276c.117-.058.254-.037.302.053c.048.085.005.196-.09.26v.969l-.55.677v.715l.767-.434v-3.6zm-2.42-.137a.16.16 0 0 0 .011-.117c-.026-.095-.148-.153-.265-.122c-.121.032-.2.138-.174.239c.026.105.148.158.27.127a.3.3 0 0 0 .063-.027l1.334.726v1.503c-.1.063-.143.175-.095.26c.053.09.185.116.302.052c.116-.058.17-.18.122-.275c-.032-.063-.111-.095-.196-.085v-1.535l-1.371-.741z"/></g></svg>