<svg xmlns="http://www.w3.org/2000/svg" viewBox="0 0 24 24"><path fill="#181b1e" fill-rule="evenodd" d="M5.813 7.832c1.035-.432 2.656-.783 5.028-.783c2.377 0 4.902.54 6.833 1.427c.968.44 1.796.972 2.385 1.575c.58.599.941 1.274.941 2.012c0 1.463-1.274 2.683-3.277 3.529c-2.016.855-4.839 1.36-8.066 1.36c-2.588 0-4.24-.473-5.248-1.081c-1.013-.612-1.395-1.36-1.409-1.9v-.062l.045-.046q.09-.092.207-.328c.072-.149.149-.338.22-.554c.293-.85.559-2.07.703-2.92c.072-.429.112-.748.112-.879c0-.211.144-.45.387-.666a4 4 0 0 1 1.144-.684zm-.977.936l.203.31l.225-.152l-.076-.432c-.144.09-.262.184-.352.27zm-.26.414c0-.058.03-.157.134-.288l.072.405l-.14.153l-.08-.058zm-1.211 5.154l-.054-.18l.252-.32c.018.032.045.068.063.109zm.216.414l-.068-.108l.297-.45l.1.113zm.391.437l-.198-.198l.342-.473c.068.063.14.122.22.185zm.504.378a4 4 0 0 1-.279-.194l.374-.495l.27.176zm.622.329a5 5 0 0 1-.37-.18l.374-.518q.162.093.351.18zm.837.306a7 7 0 0 1-.558-.19l.355-.522c.144.064.302.117.464.171l-.315.505zm.846.207a9 9 0 0 1-.612-.144l.32-.514c.18.05.368.1.567.14zm1.004.148a13 13 0 0 1-.702-.094l.27-.509q.31.054.648.095l-.225.504zm1.08.081a14 14 0 0 1-.783-.05l.225-.503c.225.022.468.04.72.045l-.158.508zm.306.01l.153-.505h.747l-.094.509h-.81zm1.999-.032c-.298.013-.595.027-.896.031l.09-.508l.806-.032zm1.201-.09c-.297.031-.603.054-.909.072v-.509c.275-.013.55-.036.824-.058l.09.495zm1.121-.135c-.27.045-.549.076-.828.108l-.09-.495l.743-.09l.175.481zm.293-.045c.279-.04.544-.09.81-.135l-.27-.455l-.711.117l.17.477zm-.28-.766c.226-.026.442-.063.653-.099l-.26-.44l-.559.085l.167.459zm-.27-.742l.496-.072l-.284-.477l-.396.045l.18.504zm-.292-.793l.333-.035l-.315-.527l-.216.018zm-.504-.521l.202.553l-.396.027l-.099-.567c.104 0 .198-.009.293-.014m.198-.316l.157-.009l-.256-.427l-.059.004l.158.437zm-.464-.418l.162.44l-.238.01l-.081-.446h.157zm.576 1.575l.185.504q-.269.034-.545.054l-.09-.522zm.293.797l-.603.058l.09.486l.68-.08zm2.674.787c-.261.073-.54.136-.82.194l-.27-.45c.253-.045.495-.104.734-.162l.36.418zm.999-.297q-.331.116-.684.212l-.356-.414c.207-.054.405-.117.594-.18l.45.382zm.324-.112l-.441-.378c.18-.063.355-.135.522-.203l.518.347c-.19.08-.392.162-.599.234m1.45-.644l-.527.27l-.522-.35c.148-.073.288-.145.423-.226zm.729-.459c-.131.1-.27.19-.419.28l-.63-.307l.32-.23zm.616-.513c-.103.1-.211.203-.333.297l-.747-.265a2.4 2.4 0 0 0 .234-.244zm.45-.54q-.1.147-.22.288l-.873-.216l.135-.216l.954.144zm.297-.585q-.056.16-.135.31l-.985-.153a2 2 0 0 0 .076-.225l1.044.063zm.122-.594a2 2 0 0 1-.04.297l-1.067-.063a2 2 0 0 0 .018-.207zm-.054-.621q.04.16.054.323l-1.098.023q-.012-.12-.036-.239zm-.288-.671a3 3 0 0 1 .193.378l-1.07.112a2 2 0 0 0-.127-.283zm-.396-.527q.114.128.216.261l-.99.203c-.045-.072-.1-.135-.153-.203zm-.617-.571q.203.161.378.328l-.914.257a5 5 0 0 0-.279-.261zm-.653-.46q.195.123.374.252l-.81.32a6 6 0 0 0-.297-.203zm-.9-.495q.31.155.594.315l-.724.365a7 7 0 0 0-.495-.257zm-.932-.405q.32.128.617.261l-.621.419a11 11 0 0 0-.531-.22l.54-.46zm-1.053-.36c.252.077.495.158.738.243l-.54.46a14 14 0 0 0-.63-.208zm-1.03-.279l.72.185l-.437.5a16 16 0 0 0-.63-.163zm-1.108-.225c.27.045.54.099.801.158l-.35.522c-.24-.05-.473-.095-.712-.135l.261-.54zm-1.148-.153c.284.027.563.063.847.108l-.261.54q-.374-.058-.752-.099zM11.4 7.359c.275.01.554.027.828.045l-.166.554c-.257-.022-.509-.04-.752-.045zm-.292-.009l-.09.554c-.24 0-.473 0-.707.009l.031-.558c.243-.005.505-.01.766-.005m-1.8.054l.742-.045l-.032.563q-.332.008-.684.036l-.022-.554zm-.973.1c.22-.032.45-.055.684-.077l.023.55l-.644.062zm-.842.143c.18-.036.36-.072.554-.103l.063.536a7 7 0 0 0-.531.08l-.081-.513zm-.81.199c.166-.045.337-.095.527-.136l.08.505a9 9 0 0 0-.508.112zm-.67.225l.39-.135l.1.468c-.135.04-.266.08-.392.13l-.099-.459zm-.613.292q.155-.089.338-.17l.099.45a5 5 0 0 0-.302.134l-.076-.427zm5.568-.157l-.09.585l-.621.009l.036-.585c.247-.01.468-.014.675-.01m.297 0l-.094.585c.216 0 .427.009.634.018l.171-.558a14 14 0 0 0-.71-.045m1.008.072l-.166.553q.317.02.62.059l.248-.522a14 14 0 0 0-.702-.09m1.009.135l-.248.517c.198.027.387.059.576.095l.333-.49zm.967.189l-.328.486l.526.126l.406-.464a16 16 0 0 0-.604-.148m.914.238l-.405.464q.249.075.477.157l.513-.44a11 11 0 0 0-.585-.18m.91.297l-.518.446l.396.171l.616-.423a11 11 0 0 0-.495-.194m.818.338l-.63.428c.108.058.22.117.324.18l.757-.383zm.766.405l-.779.387l.194.135l.86-.346c-.09-.059-.18-.122-.28-.18zm.562.383l-.877.35l.166.154l.977-.275a4 4 0 0 0-.27-.225zm.509.472l-.99.275l.094.112l1.044-.211a3 3 0 0 0-.148-.18zm.328.446l-1.044.211l.081.149l1.09-.113a2 2 0 0 0-.127-.247m.221.54l-1.076.108l.032.135l1.08-.027a2 2 0 0 0-.036-.216m.045.513l-1.062.027l-.01.1l1.054.058l.018-.18zm-.086.482l-1.044-.059l-.036.1l1.008.152c.027-.063.055-.126.072-.193m-.224.472l-.99-.148l-.073.108l.936.23q.07-.089.131-.19zm-.352.441l-.918-.224l-.14.134l.833.302q.123-.099.225-.211m-.504.428l-.819-.293l-.198.14l.716.351zm-.62.374l-.699-.342l-.27.14l.585.39a7 7 0 0 0 .383-.188m-.712.324l-.572-.378a6 6 0 0 1-.387.153l.468.405q.255-.087.49-.18m-.82.288l-.463-.4l-.441.134l.36.419a9 9 0 0 0 .545-.153m-.863.234l-.36-.423c-.18.045-.374.09-.577.126l.261.44q.351-.065.676-.143m-2.904.45l-.09-.486l-.684.031v.518l.774-.058zm-1.066-.441h-.649l-.099.553l.748-.031zm-1.045.553l.1-.558l-.626-.022l-.18.585h.706zm-1.012 0l.184-.603a12 12 0 0 1-.594-.054l-.27.612zm-.99-.076l.278-.621a15 15 0 0 1-.562-.09l-.333.621c.198.036.405.063.62.09zm-.919-.149l.333-.625a7 7 0 0 1-.5-.122l-.387.617l.554.135zm-.846-.216l.382-.612a6 6 0 0 1-.432-.144l-.405.594q.217.088.455.162m-.734-.274l.405-.585l-.346-.153l-.405.567q.163.089.346.17m-.607-.315l.4-.554l-.27-.148l-.396.53q.12.09.27.172zm-.505-.347l.387-.508a4 4 0 0 1-.247-.171l-.36.495l.225.184zm-.427-.405l.337-.459l-.135-.117l-.306.455l.104.126zm-.28-.387l.27-.405l-.09-.108l-.283.45l.063-.027l.045.09zm.833-3.803c0 .072.023.153.059.238q.086-.081.193-.162l-.045-.27c-.067.085-.103.252-.207.194m.46-.45l.058.35l.243-.135l-.072-.391a2 2 0 0 0-.23.17zm.495-.334l.08.432c.104-.045.208-.08.32-.121l-.094-.46a4 4 0 0 0-.306.15m.58-.256l.1.481l.395-.108l-.108-.5c-.135.037-.26.082-.387.127m.671-.207l.108.517l.477-.09l-.09-.54zm.783-.167l.09.55l.486-.064l-.063-.562q-.256.031-.513.076m.801-.112l.068.567l.585-.05l-.027-.585zm.919-.086l.022.585l.594-.031l.036-.585c-.211.004-.427.018-.652.031m.89.846l.586-.009l-.09.55h-.522zm-.854.036l.567-.027l-.032.54l-.513.023zm-.856.068c.18-.018.37-.036.568-.045l.022.531l-.527.045zm-.76.09l.472-.059l.059.536l-.441.059zm-.756.135l.468-.09l.09.536l-.45.08zm-.284.063l.108.527l-.392.099l-.108-.518zm-.995.32c.1-.045.207-.082.324-.122l.108.509a7 7 0 0 0-.337.112l-.095-.495zm-.522.27l.248-.144l.09.481l-.261.126zm-.36.288l.094-.09l.045.243a2 2 0 0 1-.135-.153zm-.603 2.637a2 2 0 0 1-.09-.117l.26-.427l.113.112zm.35.351a4 4 0 0 1-.143-.13l.301-.46l.171.136zm.478.36c-.09-.062-.171-.117-.248-.18l.343-.459l.26.167l-.355.468zm.518.293l-.261-.144l.36-.477l.252.135zm.607.27a4 4 0 0 1-.337-.144l.35-.49l.33.135zm.707.239l-.423-.135l.342-.495l.396.121zm.779.193c-.171-.031-.329-.072-.486-.112l.315-.509c.148.036.292.072.45.104zm.837.144l-.54-.085l.279-.518q.237.048.495.081zm.864.09c-.189-.018-.378-.031-.558-.054l.23-.522l.495.045l-.167.527zm.302.014l.162-.527l.526.018l-.099.527c-.198 0-.396-.01-.585-.018zm1.48.018l-.594.004l.1-.53l.495-.005zm.928-.036q-.31.02-.635.027v-.531c.185 0 .37-.014.54-.023l.09.527zm2.466-.342l-.522.108l-.283-.473q.23-.031.432-.076zm.707-.19a5 5 0 0 1-.383.109l-.369-.432c.1-.023.194-.046.288-.077l.464.405zm.684-.233l-.35.13l-.464-.4l.27-.1zm.554-.248l-.225.108l-.554-.369l.122-.063zm.486-.288a5 5 0 0 1-.171.108l-.675-.329l.08-.054l.766.27zm.41-.324q-.06.055-.122.108l-.797-.284l.04-.04zm.297-.329l-.063.081l-.919-.225v-.004zm.189-.35l-.032.071l-.783-.121l.81.045zm.076-.37l-.004.072l-.914-.054zm-.063-.405l.032.104l-1.045.027l-.004-.032l1.017-.104zm-.198-.41l.072.117l-1.021.104l-.019-.023zm-.22-.288l.013.018l.01.005l-.978.202l-.027-.031l.919-.261zm-.46-.427l.149.121l-.936.266l-.059-.05zm-.454-.315c.058.031.117.072.17.108l-.854.342a.4.4 0 0 0-.1-.059l.784-.396zm-.306-.18l-.792.396l-.171-.09l.675-.455q.147.068.288.149m-.968-.441l.36.143l-.675.464l-.27-.108zm-.756-.253l.432.135l-.585.505c-.104-.032-.207-.068-.315-.095l.468-.54zm-.801-.193c.166.031.328.072.486.108l-.468.54l-.396-.09zm-.842-.149c.18.023.36.05.531.081l-.378.559l-.428-.068l.27-.572zm-.882-.09l.576.05l-.27.572l-.482-.05zm-.896-.031q.304 0 .594.013l-.166.572q-.256-.015-.514-.023l.09-.558zm-6.59 2.408l-.202.391l.054.082l.243-.387l-.09-.09zm.252-.171l-.108-.108l.203-.387l.144.117zm.063.454l-.265.424l.117.117l.288-.428zm.302-.134l-.144-.118l.252-.405l.167.108l-.27.415zm.072.423l-.297.45l.18.148l.333-.454zm.392-.1l-.225-.148l.292-.441l.27.135zm.076.397l-.342.468q.123.085.266.17l.36-.48zm.468-.09a3 3 0 0 1-.292-.154l.355-.481l.315.13l-.378.51zm.086.378l-.37.495c.077.045.163.085.248.126l.365-.509zm.423-.135l-.239-.108l.4-.536l.24.086zm.103.36l-.373.517l.32.131l.364-.531l-.315-.117zm.487-.14l-.307-.108l.415-.58l.301.09zm.117.351l-.37.54l.388.117l.342-.553zm.526-.162l-.35-.094l.418-.612l.32.08l-.388.63zm.135.342l-.346.554q.201.053.423.095l.301-.568a11 11 0 0 1-.378-.08m.527-.198L8.199 13l.387-.625l.31.072l-.337.63zm.157.334l-.306.571c.153.027.31.045.473.067l.257-.575q-.213-.028-.424-.063m.55-.226l-.406-.054l.334-.62l.337.062l-.27.612zm.18.32l-.261.585l.459.036l.18-.585l-.383-.036zm.468-.261l-.347-.027l.266-.594l.26.04zm.211.315l-.18.585l.486.014l.108-.59c-.14 0-.279-.009-.414-.014zm.468-.293c-.13 0-.256 0-.378-.009l.171-.558l.302.036zm.243.302l-.107.585h.44v-.585zm.334-.302h-.28l.09-.508l.19.013zm.288.293v.585l.495-.022l-.1-.572zm.342-.306l-.338.009v-.477l.261.009zm1.485.198l.31.513l.37-.063l-.405-.482l-.27.032zm.04-.302l-.207.018l-.256-.423l.108-.013zm.577.22l.396.465l.23-.054l-.505-.433zm.486-.103l.486.419l.225-.077l-.563-.378zm-.19-.26l-.094.017l-.45-.382l.545.36zm.226-1.837l-.014-.01l.604-.409l.126.059l-.712.36zm-.356-.135l-.144-.054l.527-.45l.234.085zm-.41.18l.1.027l-.563.382h-.018l.482-.414zm-.067-.338l.531-.454l-.265-.077l-.423.486zm-.373.207l.099.027l-.482.414zm-.104-.333l.423-.486l-.36-.076l-.338.504zm-.455.207l.234.05l-.418.486l-.158-.027zm-.135-.328l.342-.5a5 5 0 0 0-.378-.058l-.243.513l.284.045zm-.414.238l.234.036l-.355.522l-.14-.018zm-.17-.324l.242-.513l-.427-.045l-.158.522zm-.433.257l.297.027l-.265.553l-.203-.018zm-.207-.315l.153-.518a14 14 0 0 0-.473-.018l-.08.518c.134 0 .27.009.4.018m-.45.283l.36.01l-.171.566l-.279-.009zm-.248-.301l.086-.522h-.495l-.032.53zm-.459.31l.414-.009l-.09.567h-.355zm-.27-.288l.027-.536l-.481.023l.022.54l.428-.027zm-.418.324q.198-.013.396-.022l-.032.553l-.342.014l-.022-.54zm-.306-.27l-.023-.549l-.504.045l.063.55a7 7 0 0 1 .464-.046m-.433.342l.45-.045l.019.536l-.406.022zm-.32-.265l-.062-.55l-.428.055l.09.549zm-.35.35l.382-.053l.059.504l-.36.031zm-.338-.251l-.09-.55l-.436.082l.112.54zm-.35.36l.404-.063l.072.463l-.387.04l-.09-.436zm-.352-.234l-.108-.531l-.392.099l.108.513zm-.329.373l.392-.08c.045.224.027.36.045.526l-.37-.13zm-.346-.225l-.104-.495a6 6 0 0 0-.346.113l.09.472zm-.104.329l.167-.04l.022.125zm-.864-.477l.243-.122l.059.315a4 4 0 0 1-.302-.193M15.51 13.44l-.068.032l-.36-.243zm-.036-2.47l.067.035l-.693.28zm-7.976.836c1.255.365 2.646.6 3.96.644c.712.023 1.387.054 2.071-.166c.126-.04.216-.081.27-.113a2 2 0 0 0-.193-.09c-.964-.355-2.07-.531-3.093-.531c-1.044 0-2.295.18-3.015.256" clip-rule="evenodd"/></svg>