<svg xmlns="http://www.w3.org/2000/svg" viewBox="0 0 24 24"><g fill="none"><path fill="url(#SVGRwk3PbcV)" fill-rule="evenodd" d="M18.364 18.364A9 9 0 1 1 5.636 5.636a9 9 0 0 1 12.728 12.728M14.001 8.262c-.058-.074.01-.18.1-.153c1.303.365 2.15.963 2.15 1.652c0 1.117-2.26 2.017-5.045 2.017c-1.816 0-3.41-.382-4.294-.964c-.074-.042-.031-.153.053-.138c.673.133 1.43.202 2.224.202c2.784 0 5.045-.9 5.045-2.012c0-.212-.085-.413-.233-.604m.995 3.516c-.068-.085.016-.207.122-.18c1.514.428 2.504 1.133 2.504 1.932c0 1.297-2.636 2.356-5.892 2.356c-2.123 0-3.986-.45-5.019-1.128c-.09-.053-.037-.18.069-.159c.778.154 1.662.239 2.594.239c3.256 0 5.893-1.054 5.893-2.356c0-.244-.096-.482-.27-.704" clip-rule="evenodd"/><defs><linearGradient id="SVGRwk3PbcV" x1="20.518" x2="4.607" y1="9.107" y2="18.107" gradientUnits="userSpaceOnUse"><stop stop-color="#cd9cbc"/><stop offset="1" stop-color="#ad8bd4"/></linearGradient></defs></g></svg>