<svg xmlns="http://www.w3.org/2000/svg" viewBox="0 0 24 24"><g fill="none"><path fill="url(#tokenBrandedBets0)" d="M21.303 7.997a10.23 10.23 0 0 0-8.931-5.412c-5.118 0-8.913 4.042-8.478 9.025c.324 3.741 3.677 6.777 7.496 6.777c3.823 0 6.665-3.036 6.359-6.777a5.06 5.06 0 0 0-5-4.513a4.13 4.13 0 0 0-4.236 4.513a2.536 2.536 0 0 0 2.5 2.259c1.47 0 2.5-1.16 2.118-2.26c-.17-.482-.683-.705-1.194-.694h-.042a1 1 0 0 0-.223.03l-.03.006l-.04.011l-.13.042l-.035.011l-.042.018l-.035.018q-.154.075-.282.188l-.089.088a.6.6 0 0 0-.076.106l-.024.03l-.017.04l-.024.042l-.023.059v-.141v.047l.03-.06c.01-1.305.87-2.023 2.064-2.023a2.46 2.46 0 0 1 2.43 2.2a4.024 4.024 0 0 1-4.118 4.389a4.936 4.936 0 0 1-4.872-4.389c-.311-3.641 2.46-6.589 6.195-6.589c3.73 0 6.995 2.948 7.295 6.59c.395 4.847-3.3 8.777-8.248 8.777a9.97 9.97 0 0 1-8.566-5.066l.089.195a8 8 0 0 1-.242-.471A9.4 9.4 0 0 1 2 12.55a9.7 9.7 0 0 0 1.306 3.965a9.9 9.9 0 0 0 2.865 3.077a10.17 10.17 0 0 0 11.978-.265a9.9 9.9 0 0 0 2.718-3.212a9.68 9.68 0 0 0 .441-8.136l-.006.011zm-9.884 1.9c.047-.04.094-.088.147-.123z"/><defs><linearGradient id="tokenBrandedBets0" x1="2" x2="21.956" y1="2.585" y2="2.82" gradientUnits="userSpaceOnUse"><stop stop-color="#6458ED"/><stop offset=".49" stop-color="#4E5CF4"/><stop offset="1" stop-color="#018EDD"/></linearGradient></defs></g></svg>