<svg xmlns="http://www.w3.org/2000/svg" viewBox="0 0 24 24"><g fill="none"><path fill="#03C5E6" d="m12.282 7.589l-1.647 1.664q-.5.327-.835-.035a.485.485 0 0 1 0-.647l1.765-1.741c.159-.147.323-.17.506-.059q.467.266.211.824z"/><path fill="#5B6D81" d="m12.282 7.589l2.353 2.335l-1.665 1.653l-2.335-2.324l1.647-1.659z"/><path fill="#03C5E6" d="m12.97 11.577l1.665-1.653c.671-.247 1.194.276.63.859A52 52 0 0 1 13.64 12.4a.43.43 0 0 1-.353.118c-.5-.077-.605-.394-.317-.941"/><path fill="#5B6D81" d="m7 14.512l4.253-4.012a.047.047 0 0 1 .065 0l.47.47a.047.047 0 0 1 0 .066l-4.005 4.258a.05.05 0 0 1-.028.016a.05.05 0 0 1-.031-.004l-.012-.012l-.706-.717a.05.05 0 0 1-.011-.053s0-.012.011-.012z"/><path fill="url(#tokenBrandedBidz0)" d="M8.206 21.252a10 10 0 1 0 7.588-18.505a10 10 0 0 0-7.588 18.505m10.917-2.646A9.714 9.714 0 1 1 4.871 5.4a9.713 9.713 0 0 1 14.252 13.2zm-1.74-12.259a7.8 7.8 0 0 0-2.06-1.411q-.027-.02-.011-.047l.44-.989q.026-.05-.029-.076a8.7 8.7 0 0 0-2.188-.67a.09.09 0 0 1-.07-.053c-.212-.489-.806-.565-1.006-.06c-.236.595.6 1.012.953.43a.08.08 0 0 1 .082-.035c.63.117 1.235.294 1.83.53q.068.033.04.093l-.44.97a.05.05 0 0 0 .005.06h.018q1.244.548 2.223 1.476a.1.1 0 0 1 .018.076c-.088.253-.059.46.106.6c.453.406 1.14-.105.823-.647c-.14-.217-.353-.294-.647-.223c-.035.012-.064 0-.088-.024m-4.271-3.282a.235.235 0 1 1-.283.377a.235.235 0 0 1 .283-.377m4.711 3.641a.23.23 0 0 1-.253.37a.23.23 0 0 1-.128-.244a.228.228 0 0 1 .296-.181a.2.2 0 0 1 .085.05zm-6.305-2.423a7 7 0 0 1 1.858.106c.036.006.06 0 .083-.036c.353-.517.94.047.67.389c-.188.247-.53.235-.682-.06a.11.11 0 0 0-.082-.058a8 8 0 0 0-2.07-.065c-.042 0-.06-.017-.071-.059l-.153-1.1q-.008-.059-.077-.058a8.5 8.5 0 0 0-2.764.817c-.06.03-.1.06-.118.1a.17.17 0 0 0-.018.094a.2.2 0 0 1-.023.1c-.183.33-.682.336-.753-.058c-.059-.33.318-.612.594-.406c.03.023.059.023.094.011a8.9 8.9 0 0 1 3.212-.929q.044-.001.053.041l.158 1.1c.012.053.042.07.089.07M7.036 6.389A7.8 7.8 0 0 1 9.3 4.995q.037-.018.065.017c.441.547 1.247-.117.823-.64a.523.523 0 0 0-.929.293a.064.064 0 0 1-.053.065A7 7 0 0 0 7.053 6q-.032.028-.059-.006l-.729-.847a.035.035 0 0 0-.053 0a8.8 8.8 0 0 0-1.53 1.689a.076.076 0 0 1-.087.035c-.671-.118-.894.788-.324 1c.424.153.8-.218.694-.647a.17.17 0 0 0-.047-.083l-.023-.017c-.03-.024-.03-.059-.006-.088q.563-.793 1.27-1.46c.035-.029.059-.029.094 0l.694.807q.045.045.089 0zm2.952-1.783q.02.055.014.111a.234.234 0 0 1-.231.207a.235.235 0 1 1 .217-.318m-5.3 2.688a.235.235 0 0 1-.217.324a.235.235 0 0 1-.165-.4a.235.235 0 0 1 .383.076M17.47 5.306c-.453.4-1.14-.417-.54-.882c.334-.259.923.106.787.565c-.011.035 0 .064.024.088a9.1 9.1 0 0 1 2.07 2.482a.06.06 0 0 1-.017.077l-.918.54c-.041.03-.053.06-.03.107a7.5 7.5 0 0 1 .824 2.294a.12.12 0 0 0 .059.082l.07.035a.5.5 0 0 1 .177.118c.265.317.159.759-.247.865c-.6.164-.9-.624-.377-.965a.07.07 0 0 0 .036-.082a7.5 7.5 0 0 0-.941-2.47q-.037-.047.023-.083l.924-.547q.045-.034.017-.077a9.5 9.5 0 0 0-1.864-2.147c-.024-.023-.047-.023-.077 0m-.023-.435a.21.21 0 0 0-.07-.159a.24.24 0 0 0-.165-.059a.25.25 0 0 0-.165.06a.23.23 0 0 0-.07.158a.21.21 0 0 0 .15.205q.044.015.09.013c.06 0 .12-.02.165-.06a.23.23 0 0 0 .065-.158m2.388 6.311a.24.24 0 0 0-.146-.214a.24.24 0 0 0-.254.05a.234.234 0 0 0-.005.34a.235.235 0 0 0 .34-.01a.24.24 0 0 0 .065-.166m-12.97 5a6.615 6.615 0 1 0-1.446-4.856a6.6 6.6 0 0 0 1.446 4.85zm9.611-8.646A6.316 6.316 0 0 1 12 18.323A6.34 6.34 0 0 1 5.665 12A6.317 6.317 0 0 1 12 5.683a6.34 6.34 0 0 1 4.476 1.847zm4.212 5.129a8.5 8.5 0 0 0-.294-3.012a.07.07 0 0 0-.06-.053c-.317-.065-.487-.382-.264-.647c.335-.382.906.094.57.535a.1.1 0 0 0-.017.089a9.2 9.2 0 0 1 .282 3.3q0 .059-.07.058l-1.1-.03c-.035 0-.059.019-.059.06a6.6 6.6 0 0 1-.453 1.823a.08.08 0 0 0 .024.094l.04.03a.2.2 0 0 1 .06.088c.117.659-.742.7-.753.147c-.006-.212.111-.353.347-.412c.03-.006.059-.024.064-.059a6.9 6.9 0 0 0 .471-2.029a.04.04 0 0 1 .024-.012l1.135.07q.053.002.053-.04m-4.135 5.688a7.5 7.5 0 0 0 1.764-1.765q.028-.035.065-.006l.888.63a.05.05 0 0 0 .038.01l.019-.008l.014-.014a9.3 9.3 0 0 0 1.082-2.041a.09.09 0 0 1 .07-.06c.395-.07.654-.452.424-.817c-.412-.63-1.37.077-.788.67q.043.036.023.089a9.6 9.6 0 0 1-.894 1.753l-.02.007l-.02-.001l-.018-.006l-.883-.612q-.046-.027-.082.018a7.8 7.8 0 0 1-1.853 1.911q-.046.027-.082 0c-.241-.17-.465-.158-.659.042c-.747.74.941 1.417.87.294q-.001-.06.042-.094M20.64 14.4a.234.234 0 0 1 .079.27a.236.236 0 0 1-.409.06a.23.23 0 0 1-.093-.172a.24.24 0 0 1 .152-.237a.23.23 0 0 1 .27.079m-4.482 3.97a.23.23 0 0 1 .064.258a.23.23 0 0 1-.314.123a.23.23 0 0 1-.13-.216a.23.23 0 0 1 .38-.165m-10.176-.035l.059.006a9 9 0 0 0 2.488 1.64l.035-.01l.194-.13a.07.07 0 0 1 .047-.012c.794.076.306 1.159-.194.712a.57.57 0 0 1-.165-.26a.13.13 0 0 0-.076-.081a9.4 9.4 0 0 1-2.735-1.918l.011-.035l.765-.835q.045-.044 0-.095A7.5 7.5 0 0 1 5.271 15.8a.08.08 0 0 0-.088-.047c-.512.047-.588-.753-.012-.765c.353-.006.423.324.312.6c-.018.035-.012.059 0 .094q.528.902 1.276 1.635a.06.06 0 0 1 0 .083l-.794.876c-.03.03-.023.053.018.059m6.629 2.37l-1.824-.047q-.054.002-.047-.059l.188-1.105c.006-.036-.005-.06-.047-.06a7.3 7.3 0 0 1-2.511-.882a.08.08 0 0 1-.041-.076c.04-.306-.07-.494-.336-.582c-.611-.2-1.017.682-.376.982a.46.46 0 0 0 .512-.07c.023-.018.047-.024.076 0q1.096.627 2.341.858q.063.01.047.07l-.176 1.071c-.006.03.006.047.041.06a9.6 9.6 0 0 0 2.2.1c.03 0 .059.01.07.04c.377.618 1.2.136.953-.423c-.211-.488-.8-.43-1 .076a.07.07 0 0 1-.07.047m-4.63-2.47a.23.23 0 1 1-.323.317a.23.23 0 0 1-.064-.257a.23.23 0 0 1 .388-.066zm5.383 2.376a.236.236 0 1 1-.283.377a.236.236 0 0 1 .283-.377m1.076-1.27a6.7 6.7 0 0 1-1.865.394q-.05.002-.076.047c-.13.276-.447.37-.659.123c-.341-.388.277-.923.624-.453a.08.08 0 0 0 .082.042a6.5 6.5 0 0 0 2.006-.46c.04-.01.07 0 .082.036l.441 1.047c.018.035.041.041.07.03a8.8 8.8 0 0 0 2.56-1.56a.08.08 0 0 0 .023-.087c-.218-.788 1.177-.5.665.129q-.152.196-.435.135a.1.1 0 0 0-.095.024a9.5 9.5 0 0 1-2.852 1.676q-.046.016-.065-.03l-.453-1.07q-.01-.034-.053-.023M3.771 9.224a8.9 8.9 0 0 0-.465 2.958q0 .053.053.077c.365.176.353.676-.058.764c-.4.095-.606-.47-.248-.729a.09.09 0 0 0 .042-.076a8.7 8.7 0 0 1 .523-3.27c.012-.042.041-.06.083-.042l1.058.324c.036.017.06 0 .077-.042a7.5 7.5 0 0 1 .858-1.635c.024-.023.024-.059.012-.088c-.088-.224-.04-.394.136-.494c.605-.353.905.759.117.706a.1.1 0 0 0-.082.04a7.4 7.4 0 0 0-.906 1.765c-.012.036-.03.048-.065.036L3.824 9.2c-.03-.012-.047 0-.059.024zm-.059 5.346a10 10 0 0 0 .724 1.647c.012.03.04.048.076.048c.488.023.777.482.453.87c-.43.512-1.235-.1-.788-.676c.018-.03.023-.06 0-.089a9.2 9.2 0 0 1-.812-2q-.02-.052.041-.07l1.03-.283a.1.1 0 0 0 .04-.035a.08.08 0 0 0 .007-.058a6.9 6.9 0 0 1-.206-2.471a.09.09 0 0 0-.041-.076c-.73-.412.082-1.395.64-.783c.26.283.06.706-.281.847a.08.08 0 0 0-.047.065a7.6 7.6 0 0 0 .276 2.623q.02.054-.041.07l-1.03.307c-.035.006-.047.03-.035.059zm.994-3.646a.235.235 0 0 0-.411-.165a.236.236 0 0 0 .034.38a.24.24 0 0 0 .142.032a.235.235 0 0 0 .235-.242zm.094 5.87a.23.23 0 1 0-.458 0a.23.23 0 0 0 .458 0"/><path fill="#0266E2" d="M9.647 16.706h6.47v-.583h-.588v-.606h-.588v-.576h-4.117v.576h-.588v.6h-.589z"/><defs><linearGradient id="tokenBrandedBidz0" x1="12" x2="12" y1="2.001" y2="21.999" gradientUnits="userSpaceOnUse"><stop stop-color="#03C5E6"/><stop offset=".89" stop-color="#0266E2"/></linearGradient></defs></g></svg>