<svg clip-rule="evenodd" fill-rule="evenodd" stroke-linejoin="round" stroke-miterlimit="2" version="1.1" viewBox="0 0 1701 1701" xml:space="preserve" xmlns="http://www.w3.org/2000/svg">
    <g transform="translate(-1070 -298)">
        
            <g transform="matrix(.85614 0 0 .85614 276.22 149.33)">
                <rect x="927.19" y="174.34" width="1985.7" height="1985.7" fill="none"/>
            </g>
            <g transform="matrix(1.3163 0 0 1.3163 130.76 -654.57)">
                <circle cx="1359.3" cy="1369.9" r="607.76" fill="#ffd700"/>
            </g>
            <g transform="matrix(8.129 0 0 8.129 -10430 -7238.5)">
                <g transform="matrix(144 0 0 144 1449.4 1081.9)">
                    <path d="m0.221-0h-0.174v-0.708h0.177v0.233c0.022-0.022 0.047-0.038 0.075-0.048 0.027-0.01 0.057-0.015 0.088-0.015 0.038 0 0.071 7e-3 0.099 0.02 0.027 0.014 0.05 0.033 0.069 0.057s0.033 0.052 0.042 0.085 0.013 0.068 0.013 0.107c0 0.041-4e-3 0.078-0.013 0.112s-0.023 0.063-0.042 0.087c-0.019 0.025-0.042 0.044-0.071 0.057-0.03 0.014-0.064 0.021-0.103 0.021-0.01 0-0.021 0-0.034-1e-3s-0.026-3e-3 -0.04-7e-3 -0.028-0.01-0.043-0.019c-0.015-8e-3 -0.029-0.02-0.043-0.036v0.055zm0.111-0.378c-0.017 0-0.033 3e-3 -0.047 9e-3s-0.025 0.014-0.034 0.024c-9e-3 0.011-0.016 0.023-0.02 0.036-5e-3 0.013-7e-3 0.027-7e-3 0.042 0 0.016 2e-3 0.031 6e-3 0.045s0.011 0.026 0.02 0.036c9e-3 0.011 0.021 0.019 0.035 0.026s0.031 0.01 0.05 0.01c0.02 0 0.037-4e-3 0.05-0.012 0.013-7e-3 0.023-0.017 0.031-0.029 7e-3 -0.011 0.012-0.024 0.016-0.038 3e-3 -0.013 4e-3 -0.027 4e-3 -0.041-1e-3 -0.013-3e-3 -0.026-6e-3 -0.039-4e-3 -0.013-0.01-0.024-0.018-0.035-8e-3 -0.01-0.018-0.018-0.031-0.025-0.013-6e-3 -0.03-9e-3 -0.049-9e-3z" fill-rule="nonzero"/>
                </g>
                <g transform="matrix(144 0 0 144 1532.5 1081.9)">
                    <path d="m0.214-0.477c0.01-0.015 0.021-0.026 0.033-0.034s0.024-0.014 0.036-0.018 0.024-7e-3 0.037-8e-3c0.012-1e-3 0.024-1e-3 0.036-1e-3h0.026c9e-3 1e-3 0.014 1e-3 0.017 2e-3v0.171h-0.034c-0.019 0-0.036 2e-3 -0.053 5e-3s-0.032 0.01-0.045 0.018c-0.013 9e-3 -0.024 0.022-0.031 0.038-8e-3 0.016-0.012 0.037-0.012 0.064v0.24h-0.177v-0.527h0.155l0.012 0.05z" fill-rule="nonzero"/>
                </g>
            </g>
        
    </g>
</svg>
