<svg xmlns="http://www.w3.org/2000/svg" viewBox="0 0 24 24"><g fill="none"><path fill="url(#SVGtFUf4d2S)" d="M11.999 20.999a9 9 0 1 0 0-17.998a9 9 0 0 0 0 17.998M8.062 6.938l8.999 2.531l-1.406 7.874l-9-2.53z"/><path fill="url(#SVGRAcmScbh)" d="M11.999 3.001c-1.48 0-2.88.36-4.106.99a9 9 0 0 0 9.91 14.888A9 9 0 0 0 12 3M8.624 5.813l9.562 2.812l-1.407 8.156l-9.561-2.531z"/><defs><linearGradient id="SVGtFUf4d2S" x1="6.375" x2="14.811" y1="5.251" y2="20.437" gradientUnits="userSpaceOnUse"><stop stop-color="#337c01"/><stop offset=".21" stop-color="#2b6f04"/><stop offset=".39" stop-color="#62e700"/><stop offset=".53" stop-color="#66e604"/><stop offset=".77" stop-color="#142417"/><stop offset="1" stop-color="#406925"/></linearGradient><linearGradient id="SVGRAcmScbh" x1="18.467" x2="6.656" y1="5.813" y2="17.062" gradientUnits="userSpaceOnUse"><stop stop-color="#43c601"/><stop offset="1" stop-color="#c7fe02"/></linearGradient></defs></g></svg>