<svg xmlns="http://www.w3.org/2000/svg" viewBox="0 0 24 24"><g fill="none"><path fill="url(#SVGdOaAUbmt)" fill-rule="evenodd" d="M8.298 3h7.404c1.842 0 2.51.19 3.184.545a3.73 3.73 0 0 1 1.562 1.542c.36.665.552 1.325.552 3.143v7.309c0 1.819-.192 2.478-.552 3.143a3.73 3.73 0 0 1-1.562 1.542c-.674.356-1.342.545-3.184.545H8.298c-1.842 0-2.51-.19-3.184-.545a3.73 3.73 0 0 1-1.562-1.542C3.192 18.017 3 17.358 3 15.539V8.23c0-1.818.192-2.478.552-3.143a3.73 3.73 0 0 1 1.562-1.542C5.788 3.189 6.456 3 8.298 3" clip-rule="evenodd"/><path fill="url(#SVG01erJdcP)" fill-rule="evenodd" d="M8.298 7.154h7.404c1.842 0 2.51.19 3.184.545a3.73 3.73 0 0 1 1.562 1.542c.36.665.552 1.324.552 3.143v2.924c0 1.819-.192 2.478-.552 3.143a3.73 3.73 0 0 1-1.562 1.542c-.674.356-1.342.545-3.184.545H8.298c-1.842 0-2.51-.189-3.184-.545a3.73 3.73 0 0 1-1.562-1.542C3.192 17.786 3 17.127 3 15.308v-2.924c0-1.819.192-2.478.552-3.143a3.73 3.73 0 0 1 1.562-1.542c.674-.356 1.342-.545 3.184-.545" clip-rule="evenodd"/><path fill="url(#SVGvURXbcps)" fill-rule="evenodd" d="M7.212 11.539h9.576c1.234 0 1.853.16 2.423.46c.57.302 1.017.743 1.322 1.306c.305.562.467 1.174.467 2.392v1.145c0 1.218-.162 1.83-.467 2.392a3.16 3.16 0 0 1-1.322 1.305c-.57.3-1.19.461-2.423.461H7.212c-1.234 0-1.853-.16-2.423-.461a3.16 3.16 0 0 1-1.322-1.305C3.162 18.671 3 18.06 3 16.842v-1.145c0-1.218.162-1.83.467-2.392A3.16 3.16 0 0 1 4.79 12c.57-.301 1.19-.461 2.423-.461" clip-rule="evenodd"/><defs><linearGradient id="SVGdOaAUbmt" x1="903" x2="903" y1="53.433" y2="1779.92" gradientUnits="userSpaceOnUse"><stop stop-color="#174697"/><stop offset="1" stop-color="#0c2550"/></linearGradient><linearGradient id="SVG01erJdcP" x1="903" x2="903" y1="7.154" y2="1317.29" gradientUnits="userSpaceOnUse"><stop stop-color="#3f78dc"/><stop offset="1" stop-color="#2f5fb3"/></linearGradient><linearGradient id="SVGvURXbcps" x1="903" x2="903" y1="37.324" y2="957.69" gradientUnits="userSpaceOnUse"><stop stop-color="#8bd7f9"/><stop offset="1" stop-color="#68bbe1"/></linearGradient></defs></g></svg>