<svg xmlns="http://www.w3.org/2000/svg" viewBox="0 0 24 24"><g fill="none"><path fill="#FFDD02" d="M12 22c5.365 0 9.714-4.35 9.714-9.714S17.365 2.57 12 2.57s-9.714 4.35-9.714 9.715S6.635 22 12 22"/><path fill="#3A2A0C" d="M13.016 19.314C7.782 13.48 9.045 10.343 6.485 7.663c-.206 1.228-.2.96-.2 2.548c0 1.44.045 1.338-.366 2.526c-.457 1.32-1.069 3.286-.617 4.783c.228.766.788 1.126 1.56 1.343c.754.211 1.297.583 1.988.857c.75.297 1.166.64 2.31.549c.628-.046 1.633-.56 1.856-.96z"/><path fill="#895729" d="M6.485 7.663c.115.126.075.034.069.526c0 .651.103 1.102.2 1.725c.069.4.103.555.103.669c0 .183-.103.303-.457 1.308c-.286.835-.68 2.018-.686 3.098c-.006 1.068.366 2.045 1.446 2.497c.365.148.588.217 1 .274c.645.097.64-.069 1.085.257c.709.532 1.692 1.086 2.646 1.252c.354.057.914 0 1.126.04c.491-.24.943-.355 1.268-.738c-1.268-4-5.622-8.914-7.285-11.428h-.212z"/><path fill="#A86617" d="M14.285 18.572c-3.314-1.79-4.194-5.098-5.543-8.435l.057-.063c-.388.115-.051.057-.4.263c-.811.492-.211.469-.48 1.029c-.588 1.228-1.125 2.314-1.062 3.725c.091 2.052 4.754 4.023 6.525 3.869c.298-.023.686-.268.903-.389"/><path fill="#F59935" d="M8.742 10.137c.206.057.075 1.029.075 1.332c-.057 1.102-.509 1.142.074 1.182c3.109 3.349 8.08-1.068 8.651-.474c-.457-1.126-.88-2.131-1.64-3.068c-.57-.709-3.034-1.543-3.257-1.943c-.257-.469-1.091-2.48-1.897-2.297c-.211.045-.148.068-.228.182c.422 1.258.571 3.172-1.132 3.235c-.531-.617-1.011-1.246-1.743-1.64a.7.7 0 0 0-.308-.075c-.217 0-.435.343-.549.572H7c.737 1.114 1.325 1.257 1.742 2.994"/><path fill="#DA8515" d="M14.285 18.572c.646-.24 1.194-1.372 1.543-1.932c-3.835.789-6.829-3.806-7.086-4.046c.097-.445.263-2.388 0-2.457c-.526.383-.257.429-.343 1.143c-.04.297-.103.269-.217.497c-.257.503-.76 1.863-.754 2.863c.017 2.149 3.463 3.857 5.257 3.932c.583.022 1.177-.098 1.6 0"/><path fill="#727070" d="M15.828 16.635c.366-.172.577-.16.777-.492c-2.189.206-7.006-.566-8.377-2.943a.95.95 0 0 0-.229.686c.086 1.183 1.326 2.446 2.417 2.703c1.018.234 1.903.268 2.806.268c.817 0 1.652-.023 2.6-.223z"/><path fill="#B0B0B0" d="M8.228 13.2c-.503 2.726 3.806 3.086 5.56 3.086c.96 0 1.874-.057 2.817-.143c.606-.297.937-1.366 1-1.943c-2.068 1.891-7.297 1.069-8.714-1.549l-.16-.011c-.012.011-.034.011-.04.029l-.12.085c-.183.12-.229.183-.343.446"/><path fill="#ECB595" d="M8.92 9.88c1.32-.114.697-.777.24-1.097L8.062 7.714c-.228.035-.445.052-.628.166c-.017.777.086 1.606.468 2.109c.675.04.623-.035 1.018-.109"/><path fill="#F4F4F4" d="M8.892 12.651c-.36.263-.612.475-.269 1.098c.509.937 1.389 1.297 2.355 1.64c.742.228 3.022.325 4.457.325h.828c.532-.405.874-1.085 1.343-1.52c.131-.125.109-.788.109-1.005c0-.56-.08-.566-.172-1.012c-.148-.297-.388-.451-.685-.451c-.446 0-.732.023-1.19.154c-1.17.331-2.765 1.577-3.953 1.549c-.995-.023-1.732-.812-2.823-.778"/><path fill="#985B17" d="M9.971 8.309c.023.251.149.102.749.194c.285.046.554.063.885.063c.275-.663-.171-.097.606-.497c-.211-.149-.434.04-.726-.138c-.342-.205-.4-1.794-.371-2.057c-.012-.011-.034-.04-.04-.028l-.131-.12c-.075-.092-.075-.126-.126-.24a1.6 1.6 0 0 0-.114-.246l-.178-.189c-.605.983-.457 2.029-.554 3.258"/><path fill="#2C2B2A" d="M15.97 14c1.303-1.463.252-2.017-.96-1.56c-.468.177-.994.589-.565 1.051c.205.223 1.028.538 1.525.509"/><path fill="#ECB595" d="M10.874 5.817c-.046.297-.057 2.166.554 2.457c1.137.092 1.394-.263.909-1.063A13 13 0 0 0 11.08 5.43c-.115.182-.023.194-.206.388"/><path fill="#E8E8E8" d="M13.72 9.817c-.138.76 1.571 1.057 1.697.366c.171-.909-1.583-.954-1.697-.366"/><path fill="#131011" d="M10.856 12.377c.292.846 1.692.417 1.715-.108c.017-.4-.783-.783-.989-.389c-.314.594-.417.217-.726.497m2.858-.548c.131.371.337.491.885.451a1 1 0 0 0 .515-.171c.228-.137.245-.172.314-.498c-.229-.514-.726-.514-.892-.428c-.422.2.143.103-.32.428c-.125.086-.337.046-.502.212z"/><path fill="#E8E8E8" d="M10.731 10.646c-.514-.349-1.349.663-.874.977c.617.417 1.28-.709.874-.977"/><path fill="url(#tokenBrandedBonk0)" d="M14.286 2.949c0 1.291 0 2.48-.338 2.48c-.417 0-.554-.526-.742-1.783c-.189-1.24.057-1.646.428-1.646c.366 0 .652.303.652.949"/><path fill="url(#tokenBrandedBonk1)" d="M13.715 7.143a.571.571 0 1 0 0-1.143a.571.571 0 0 0 0 1.143"/><path fill="url(#tokenBrandedBonk2)" d="M17.56 3.851c-.549 1.2-1.046 2.303-1.337 2.132c-.36-.217-.252-.777.114-2.046c.366-1.251.749-1.497 1.063-1.308c.32.188.434.622.16 1.222"/><path fill="url(#tokenBrandedBonk3)" d="M15.937 7.406a.574.574 0 0 1-.772.245a.572.572 0 1 1 .772-.245"/><path fill="url(#tokenBrandedBonk4)" d="M20.051 6.08c-1.08.663-2.068 1.274-2.263.994c-.245-.348.115-.731 1.058-1.543c.925-.788 1.405-.788 1.617-.485c.217.308.125.703-.412 1.034"/><path fill="url(#tokenBrandedBonk5)" d="M17.457 8.194a.573.573 0 1 1-.628-.958a.573.573 0 0 1 .628.958"/><path fill="#FCDCA3" fill-opacity=".62" d="M12.103 8.154c.006-.148.08-.285.217-.343a.32.32 0 0 1 .383.109c.206.257.434.446.754.509c.143.028.257.137.257.285c0 .137-.114.257-.257.235a2 2 0 0 1-.217-.04c-.343-.092-.823.04-1.057.314c-.4.468-1.028.777-1.623.777a2.1 2.1 0 0 1-1.228-.371c-.115-.086-.098-.252.011-.343s.274-.08.4-.006c.171.097.446.206.817.206c.709 0 1.497-.6 1.543-1.332"/><defs><linearGradient id="tokenBrandedBonk0" x1="3.292" x2="20.459" y1="15.267" y2="5.368" gradientUnits="userSpaceOnUse"><stop offset=".07" stop-color="#6C1A1C"/><stop offset=".47" stop-color="#DE1A26"/></linearGradient><linearGradient id="tokenBrandedBonk1" x1="3.257" x2="16.04" y1="15.3" y2="3.27" gradientUnits="userSpaceOnUse"><stop offset=".07" stop-color="#6C1A1C"/><stop offset=".47" stop-color="#DE1A26"/></linearGradient><linearGradient id="tokenBrandedBonk2" x1="2.981" x2="15.295" y1="13.363" y2="19.24" gradientUnits="userSpaceOnUse"><stop offset=".07" stop-color="#6C1A1C"/><stop offset=".47" stop-color="#DE1A26"/></linearGradient><linearGradient id="tokenBrandedBonk3" x1="2.788" x2="19.442" y1="10.702" y2="5.972" gradientUnits="userSpaceOnUse"><stop offset=".07" stop-color="#6C1A1C"/><stop offset=".47" stop-color="#DE1A26"/></linearGradient><linearGradient id="tokenBrandedBonk4" x1="6.368" x2="14.383" y1="10.69" y2="17.298" gradientUnits="userSpaceOnUse"><stop offset=".07" stop-color="#6C1A1C"/><stop offset=".47" stop-color="#DE1A26"/></linearGradient><linearGradient id="tokenBrandedBonk5" x1="4.55" x2="21.432" y1="6.223" y2="9.994" gradientUnits="userSpaceOnUse"><stop offset=".07" stop-color="#6C1A1C"/><stop offset=".47" stop-color="#DE1A26"/></linearGradient></defs></g></svg>