<svg xmlns="http://www.w3.org/2000/svg" viewBox="0 0 24 24"><g fill="none"><path fill="#0050ff" d="M16.09 10.632L14.724 12L7.092 4.373v-.017l1.35-1.35h.023z"/><path fill="#1a1a1e" d="m16.911 4.362l-1.36-1.356h-.012l-2.857 2.857v.011l1.355 1.361h.018l2.856-2.862z"/><path fill="#0050ff" d="m7.908 10.627l-1.361 1.372l-3.532-3.532l-.003-.003v-.01l.003-.003l1.35-1.35h.017l3.532 3.532z"/><path fill="#1a1a1e" d="m17.457 12.005l-1.367 1.36l-2.041 2.042h-.006l-1.355-1.35l-.006-.01v-.012L14.73 12l4.899-4.904a.02.02 0 0 1 .022 0L21 8.445v.023l-3.532 3.543zm-8.177-.006l-1.361 1.372l-3.543 3.532l-.006.002l-.005-.002l-1.361-1.35L3 15.55v-.005l.001-.005l.003-.003l3.532-3.543l1.366-1.367l2.042-2.024v-.006l.005-.002l.006.002l1.355 1.355v.011l-2.036 2.042z"/><path fill="#0050ff" d="m9.28 12l7.626 7.626v.016l-1.35 1.35l-.005.002l-.006-.002l-7.626-7.62zm8.177.005L21 15.543v.017l-1.355 1.35h-.011l-3.544-3.538l1.362-1.361h.01z"/><path fill="#1a1a1e" d="m7.092 19.625l2.857-2.857l.003-.003h.01l.004.003l1.35 1.356h.005v.005l.001.006l-.001.006l-2.857 2.85h-.011l-1.361-1.349v-.005l-.002-.006z"/></g></svg>