<svg xmlns="http://www.w3.org/2000/svg" viewBox="0 0 24 24"><g fill="none"><path fill="url(#SVGwyLUab8l)" d="M6.335 6.3a.17.17 0 0 1-.085-.145v-1.45A1.705 1.705 0 0 1 7.955 3h.2c.39 0 .775.105 1.11.305l7.79 4.635a1.42 1.42 0 0 1 .696 1.21v.35c0 .715-.38 1.375-1 1.735l-10.2 5.916a.2.2 0 0 1-.273-.071a.2.2 0 0 1-.028-.1V7.26a.25.25 0 0 1 .375-.215L11.72 9.96a.4.4 0 0 1 .148.549a.4.4 0 0 1-.148.146l-1.7.98a.4.4 0 0 1-.4 0l-.72-.42a.1.1 0 0 0-.101.001a.1.1 0 0 0-.049.09v1.49c0 .08.085.124.15.09l5.71-3.3a.1.1 0 0 0 .052-.088a.1.1 0 0 0-.051-.088L8.9 6.11a.1.1 0 0 0-.15.09v.785a.4.4 0 0 1-.6.35z"/><path fill="url(#SVGkEkwJcSM)" d="M6.275 17.88a.05.05 0 0 0-.025.05v1.365A1.706 1.706 0 0 0 7.955 21h.205c.39 0 .77-.1 1.11-.3l7.49-4.37a2 2 0 0 0 .99-1.73a1.9 1.9 0 0 0-.995-1.665l-.615-.36a.56.56 0 0 0-.565 0l-1.95 1.125a.18.18 0 0 0 0 .31l1.02.59a.1.1 0 0 1 .035.133a.1.1 0 0 1-.035.037L8.9 18.03a.1.1 0 0 1-.15-.085v-.885a.35.35 0 0 0-.525-.3z"/><defs><linearGradient id="SVGwyLUab8l" x1="17.751" x2="6.25" y1="11.888" y2="11.888" gradientUnits="userSpaceOnUse"><stop stop-color="#3710dc"/><stop offset="1" stop-color="#8109ea"/></linearGradient><linearGradient id="SVGkEkwJcSM" x1="17.75" x2="6.25" y1="15.75" y2="15.75" gradientUnits="userSpaceOnUse"><stop stop-color="#10dbb7"/><stop offset="1" stop-color="#7e0ce9"/></linearGradient></defs></g></svg>