<svg xmlns="http://www.w3.org/2000/svg" viewBox="0 0 24 24"><g fill="none"><path fill="#000" d="M18.403 3c-.294.78-.763 2.454-1.058 3.24a.16.16 0 0 0 .011.12c.071.125.164.245.224.376c.212.415.25.851.098 1.293c-.11.3-.273.562-.47.796c-.043.055-.043.087-.01.142c.136.196.218.414.267.654c.022.126.055.23.18.306c.355.229.693.475 1.042.709c.196.136.382.262.584.382c.18.109.365.19.545.294c.364.184.646.497.79.878c.072.23.104.47.154.704c.005.038 0 .082.054.093c.153.027.18.065.186.218V14c0 .213-.088.328-.284.41l-.131.048c-.06.017-.087.055-.087.126c.016.256-.039.19.201.316l.039.017q.163.091.082.256c-.028.07-.06.142-.099.207a.26.26 0 0 1-.31.142c-.082-.022-.164-.055-.24-.071c-.033-.005-.088 0-.11.027c-.261.322-.616.48-1.009.546a3.05 3.05 0 0 1-1.925-.251c-.284-.131-.556-.284-.84-.426c-.163-.076-.327-.152-.507-.152c-.436 0-.84.109-1.227.316c-.055.027-.071.055-.05.12l.142.415c.164.436.415.845.737 1.194c.387.408.85.738 1.363.97c.491.236.998.443 1.5.666l.087.055l-.082.027c-.272.038-.545.066-.817.115c-.546.098-1.075.218-1.593.398q-1.065.374-2.111.774a12 12 0 0 1-1.718.54a9 9 0 0 1-1.304.191c-1.02.077-2.012-.032-2.961-.436a4.3 4.3 0 0 1-1.822-1.429a5.25 5.25 0 0 1-.944-2.624a7.7 7.7 0 0 1 .022-1.772c.006-.055-.01-.082-.054-.104a3 3 0 0 1-.311-.164c-.36-.234-.671-.54-.987-.829l-.033-.054l1.183-.142A3.44 3.44 0 0 1 3 12.065a.2.2 0 0 1 .088-.011l.305.055c.29.032.573.016.851-.082c.333-.11.622-.338.818-.638q.436-.67.846-1.364c.36-.6.73-1.189 1.21-1.702l.224-.234l-.038-.022l-.066-.022a1.25 1.25 0 0 1-.91-1.042c-.05-.305-.077-.616-.11-.927l.011-.065l.088.06c.081.07.163.147.256.218c.273.213.567.36.927.327a2.6 2.6 0 0 0 .944-.294c.01 0 .01-.017.027-.039l-.054-.032a.9.9 0 0 1-.279-.66c0-.218.066-.41.17-.59c.229-.397.556-.692.883-.992l.055-.027v.092c-.011.104-.028.202-.017.3c.017.24.142.355.377.328a2.3 2.3 0 0 0 .387-.066c.436-.109.873-.24 1.303-.343a6.1 6.1 0 0 1 1.838-.164c.437.022.851.11 1.244.316c.185.099.354.219.54.328l.033-.06c.12-.246.322-.437.562-.557c.098-.043.114-.032.141.077c.088.387.251.72.611.927c.11.07.11.076.186-.027c.414-.519 1.412-1.615 1.827-2.128h.125m-1.854 5.81c-.027-.023-.055-.055-.082-.06c-.027-.012-.054 0-.087 0l-.06.027c-.78.201-1.402-.033-1.844-.78l-.12-.224a.15.15 0 0 0-.065-.055c-.136-.054-.273-.125-.41-.174a.22.22 0 0 1-.136-.147A4 4 0 0 0 12.54 5.71a2.7 2.7 0 0 0-.6-.382v.06c.202.458.398.922.616 1.369c.137.29.328.545.617.698c.07.038.142.066.229.104l-.47.087a4.8 4.8 0 0 0-2.007.895a5.3 5.3 0 0 0-1.816 2.574a6.1 6.1 0 0 0-.305 2.705c.125 1.086.496 2.073 1.21 2.902a4.45 4.45 0 0 0 2.166 1.396l.475.12l.081.011a7.4 7.4 0 0 1-1.761-3.201a7.5 7.5 0 0 0 3.589 2.89l.021-.022l-.24-.272a4.7 4.7 0 0 1-.97-1.631c-.055-.164-.088-.327-.131-.491a.15.15 0 0 0-.071-.087a4.1 4.1 0 0 1-1.528-1.178a3.25 3.25 0 0 1-.736-1.784c-.054-.638.11-1.227.436-1.767a.3.3 0 0 1 .093-.082l-.032.196q-.114.508-.104 1.031c0 .513.104 1.004.354 1.451a2.22 2.22 0 0 0 1.468 1.113c.818.196 1.581.022 2.29-.415c.191-.12.355-.267.535-.398l.038-.054a1.36 1.36 0 0 1-.753-1.118a1.1 1.1 0 0 1 .071-.508c.039.098.071.186.11.262a.94.94 0 0 0 .785.567c.273.033.545.022.818.038c.224.011.447.011.665.039c.093.01.175.07.257.12c.027.016.032.06.054.092c-.032.011-.065.033-.098.033l-.622.044l-.06.01l.088.071c.55.333 1.129.611 1.745.791c.349.11.709.175 1.069.137c.13-.017.256-.06.382-.11c.032-.005.06-.06.065-.103c.011-.066.006-.142.006-.234c-.219.12-.42.19-.655.147q.17-.083.311-.208a.36.36 0 0 0 .125-.283c-.01-.306-.005-.611-.114-.905a1.95 1.95 0 0 0-.485-.699l-.039-.022h-.027l.087.693l-.016.011l-.175-.294l-.316-.535a.4.4 0 0 0-.098-.109l-2.7-1.855a.4.4 0 0 1-.109-.092l.665.087a1.4 1.4 0 0 0-.474-.802m-11.52 5.159c.328.076.666.109.999.082a1.42 1.42 0 0 0 1.238-.95a1.6 1.6 0 0 1-1.146.633l-.016-.021l.19-.099c.3-.174.514-.436.694-.73c.261-.41.507-.835.758-1.255c.272-.458.567-.91.938-1.303c.109-.115.229-.219.343-.333l.077-.071l-.011-.022l-.338.164a3.65 3.65 0 0 0-1.407 1.45c-.219.382-.431.764-.666 1.135c-.265.45-.672.801-1.156.998c-.23.087-.475.137-.715.202l-.076.022v.027zm11.82.033c-.006.07.054.076.109.087c.24.05.48.098.72.164l-.071.01l-.622.055c-.103.005-.114.022-.076.12c.033.098.082.19.13.284c.028.054.072.065.132.054a7.9 7.9 0 0 1 2.836-.082c.07.011.093-.016.082-.092c-.011-.06-.055-.055-.093-.055c-.218-.022-.447-.032-.67-.065a4.8 4.8 0 0 1-1.086-.338a8 8 0 0 1-1.26-.655c-.017-.016-.033-.022-.082-.044zm-6.643-7.833c-.551.104-1.048.36-1.56.562c-.29.11-.584.23-.884.322c-.3.087-.61.098-.91-.005a2 2 0 0 1-.24-.11l.016.055c.147.333.436.469.801.398c.328-.06.633-.185.938-.31c.42-.175.84-.35 1.266-.503c.862-.3 1.81-.07 2.22.546l.043-.033a1.495 1.495 0 0 0-1.69-.922m5.732.399c.164.201.382.349.633.42c.016 0 .054-.011.065-.028l.273-.709c.005-.016-.011-.054-.027-.07l-.399-.273c-.021-.017-.076-.017-.087 0l-.463.578l-.022.038zm-.005 2.007c.141-.36.283-.726.414-1.091c.011-.022-.016-.082-.044-.098a15 15 0 0 0-.61-.431c-.028-.017-.11-.017-.126.01c-.245.29-.48.584-.714.884c-.017.017-.022.038-.033.055c0 0 .354.796 1.113.67M19.7 15.14a4.5 4.5 0 0 0-1.783-.005c.414.409 1.44.409 1.783 0zM17.04 5.094l-.377.47c-.043.054-.038.092.011.13l.246.18c.054.044.087.028.109-.038l.322-.834l.19-.508l-.016-.01l-.49.61zm-.862 9.109c-.01.262.18.53.458.633a3.35 3.35 0 0 1-.125-1.424c-.164.24-.317.491-.328.797z"/><path fill="url(#SVGULFZpcYY)" d="M9.234 5.432c-.398.06-.316-.61-.229-.949c-.976 1.276-.354 1.724.076 1.784c.699.092 1.637-.835 2.319-.835c.796 0 1.363.491 1.554.72c1.036-.453 1.827.093 2.094.42c-2.018-3.954-5.323-1.216-5.814-1.145z"/><path fill="url(#SVG2Du6GbJK)" d="M4.14 12.382c1.075 1.5 1.996.447 2.7-.714c1.325-2.22 2.934-3.693 5.547-4.337c-2.198.306-3.654.971-4.636 1.713c-1.07.807-1.484 1.882-2.264 2.89a1.4 1.4 0 0 1-.436.377a1.1 1.1 0 0 1-.91.076z"/><path fill="url(#SVGUyp56otQ)" d="M6.027 14.055c-.333.022-.67 0-.998-.082l-.224-.054l-.076-.017v-.027l.082-.022l.223-.054c.164-.044.333-.088.491-.147c.497-.191.873-.546 1.157-.998c.174-.273.338-.557.496-.835l.17-.3a3.65 3.65 0 0 1 1.744-1.614l.011.021l-.076.071q-.168.171-.344.333c-.37.393-.66.845-.938 1.309l-.223.376c-.175.295-.35.584-.535.873a2.1 2.1 0 0 1-.693.73l-.136.072l-.055.027l.017.022a1.6 1.6 0 0 0 1.145-.633a1.42 1.42 0 0 1-1.238.95"/><path fill="url(#SVGtqw8LJHy)" d="M9.032 6.578c.382-.164.764-.327 1.173-.404a1.495 1.495 0 0 1 1.691.928l-.044.022c-.409-.611-1.358-.84-2.22-.54c-.381.136-.758.289-1.134.441l-.131.055l-.01.005c-.3.126-.6.251-.928.311c-.366.071-.655-.065-.802-.392l-.01-.033v-.027l.07.038c.055.027.11.054.164.07c.3.104.61.093.91 0c.295-.087.579-.196.862-.31l.022-.006l.382-.163z"/><path fill="url(#SVGYO52dcIU)" d="M15.272 6.273c-.605-.764-.174-1.511.115-1.79a1.04 1.04 0 0 0 .534 1.102l-.649.682z"/><path fill="url(#SVGFpvpC63r)" d="M17.061 6.61c.219.29.48 1.091-.19 1.975c-.142-.25-.295-1.004.19-1.974"/><path fill="url(#SVG3Epjscbu)" d="M8.094 8.127c.431-.742 1.707-2.013 3.382-1.097a3.56 3.56 0 0 0-3.382 1.102z"/><path fill="url(#SVG7kGVgbrI)" d="M8.4 12.12c-.752.698-2.224 2.58-2.126 4.526c.043-.676.545-2.52 2.127-4.527"/><path fill="url(#SVGFTCndbvS)" d="M7.942 19.34c-2.04-1.248-.85-4.09 0-5.355c-.175.436-.262 1.38.29 2.389c.735 1.347 2.045 1.952 3.506 2.192c1.795.3 3.906.175 5.094.017c-2.116.769-6.856 2.001-8.89.758"/><path fill="url(#SVGpmQYecNI)" d="M15.938 6.573c.164.201.382.349.632.42c.017 0 .055-.011.066-.028l.273-.709c.005-.016-.011-.054-.027-.07q-.197-.142-.399-.273c-.022-.017-.076-.017-.087 0l-.387.48l-.077.098l-.016.022l-.005.016z"/><path fill="url(#SVGObDnBcrz)" d="M15.927 8.58c.147-.36.29-.726.42-1.092c.011-.022-.016-.082-.044-.098a15 15 0 0 0-.61-.43c-.028-.017-.11-.017-.126.01l-.616.758l-.098.126a.2.2 0 0 0-.022.038l-.011.022s.354.79 1.112.665z"/><path fill="#f0c113" d="M17.04 5.095q-.191.23-.377.469c-.044.054-.038.092.01.13l.246.18c.055.044.087.028.11-.038l.212-.545v-.006l.11-.283l.19-.507l-.016-.011l-.491.61z"/><path fill="url(#SVGAi3LzcPc)" d="m16.549 8.814l-.022-.016a.2.2 0 0 0-.06-.044c-.022-.01-.055 0-.076 0h-.011a.1.1 0 0 0-.033.017l-.027.01c-.78.202-1.402-.032-1.844-.78l-.06-.108l-.06-.115a.15.15 0 0 0-.065-.054a18 18 0 0 1-.491-.235a.2.2 0 0 1-.055-.087A4 4 0 0 0 12.54 5.71a2.7 2.7 0 0 0-.6-.382v.06l.163.371c.148.333.295.67.453.998a1.5 1.5 0 0 0 .764.764l.082.038l-.142.027l-.327.055a4.85 4.85 0 0 0-2.008.9a5.3 5.3 0 0 0-1.816 2.574a6.1 6.1 0 0 0-.305 2.705c.125 1.086.496 2.073 1.21 2.902a4.45 4.45 0 0 0 2.499 1.484l.141.032l.039.006h.043a7.4 7.4 0 0 1-1.761-3.196a7.5 7.5 0 0 0 3.588 2.89l.022-.021l-.044-.05l-.196-.218a4.7 4.7 0 0 1-1.047-1.914l-.055-.213a.15.15 0 0 0-.07-.087a4.1 4.1 0 0 1-1.528-1.178a3.25 3.25 0 0 1-.736-1.784c-.055-.638.11-1.227.436-1.767a.3.3 0 0 1 .093-.082l-.01.06l-.023.137q-.113.507-.103 1.03c0 .513.103 1.004.354 1.451a2.22 2.22 0 0 0 1.467 1.113c.819.196 1.582.022 2.291-.415c.131-.081.251-.18.371-.272q.091-.078.186-.153l.016-.027a1.36 1.36 0 0 1-.753-1.118a1.1 1.1 0 0 1 .071-.508l.038.104l.071.164a.95.95 0 0 0 .786.561c.18.022.365.028.545.028q.47.003.938.049c.077.01.147.054.213.092l.043.028c.017.01.028.038.039.06l.016.032l-.032.011a.2.2 0 0 1-.066.022l-.415.027l-.207.017h-.033l-.027.01l.033.028l.054.043c.551.333 1.13.611 1.746.792c.349.109.709.174 1.069.136c.125-.017.245-.055.365-.098l.017-.006c.032-.01.06-.065.065-.109a.5.5 0 0 0 .006-.153v-.081c-.219.12-.42.19-.655.147l.153-.076l.163-.126a.36.36 0 0 0 .12-.289v-.066a2.6 2.6 0 0 0-.114-.84a1.94 1.94 0 0 0-.518-.72h-.033l.087.693l-.016.011l-.175-.294l-.109-.18l-.207-.355a.4.4 0 0 0-.098-.109l-2.7-1.854a.4.4 0 0 1-.11-.093l.666.087a1.4 1.4 0 0 0-.474-.802"/><path fill="url(#SVGLpCrFeFQ)" d="M19.702 15.14a4.5 4.5 0 0 0-1.784-.005c.415.409 1.44.409 1.784 0z"/><path fill="url(#SVGsC72YbZa)" d="M16.178 14.21c-.01.256.18.523.458.627a3.35 3.35 0 0 1-.125-1.424c-.164.24-.316.491-.328.797z"/><path fill="#000" d="M13.037 9.31c.098-.132.37-.383.643-.383c.219 0 .644.339 1.173.759l.235.185c.087.066.223-.11.261-.524c.42.524.219.911.219.911l.736.606c-.327-.137-1.058-.453-1.331-.606c-.191.066-.546.137-.846.039c-.31-.104-.392-.328-.496-.6l-.01-.028l-.132-.36h-.458zm.796-.039c0 .262.147.796.453.796h.458a2.1 2.1 0 0 0-.91-.796m3.496 1.898c.366-.093.71.546.835.873c-.164-.136-.519-.415-.611-.415c-.088 0-.137.099-.148.148c-.272-.077-.381-.53-.076-.606"/><path fill="url(#SVGoJYVrcnD)" d="M14.291 10.068c-.31 0-.458-.534-.458-.796c.375.17.691.447.91.796h-.457z"/><defs><linearGradient id="SVGULFZpcYY" x1="20.58" x2="2.61" y1="19.39" y2="18.845" gradientUnits="userSpaceOnUse"><stop stop-color="#623f03"/><stop offset="1" stop-color="#240e00"/></linearGradient><linearGradient id="SVG2Du6GbJK" x1="20.666" x2="-.781" y1="3.001" y2="12.547" gradientUnits="userSpaceOnUse"><stop stop-color="#573500"/><stop offset="1" stop-color="#240e00"/></linearGradient><linearGradient id="SVGUyp56otQ" x1="20.124" x2="4.342" y1="3.873" y2="19.033" gradientUnits="userSpaceOnUse"><stop stop-color="#d7951d"/><stop offset="1" stop-color="#bb6628"/></linearGradient><linearGradient id="SVGtqw8LJHy" x1="20.98" x2="2.721" y1="15.019" y2="15.019" gradientUnits="userSpaceOnUse"><stop stop-color="#e9b516"/><stop offset="1" stop-color="#bb6628"/></linearGradient><linearGradient id="SVGYO52dcIU" x1="4.554" x2="8.859" y1="8.323" y2="19.508" gradientUnits="userSpaceOnUse"><stop stop-color="#240e00"/><stop offset="1" stop-color="#523100"/></linearGradient><linearGradient id="SVGFpvpC63r" x1="3.805" x2="8.355" y1="8.519" y2="17.535" gradientUnits="userSpaceOnUse"><stop stop-color="#3a1f00"/><stop offset="1" stop-color="#482900"/></linearGradient><linearGradient id="SVG3Epjscbu" x1="19.576" x2="1.753" y1="6.564" y2="8.846" gradientUnits="userSpaceOnUse"><stop stop-color="#5c3800"/><stop offset="1" stop-color="#240e00"/></linearGradient><linearGradient id="SVG7kGVgbrI" x1="11.974" x2="11.974" y1="3" y2="20.978" gradientUnits="userSpaceOnUse"><stop stop-color="#573500"/><stop offset="1" stop-color="#240e00"/></linearGradient><linearGradient id="SVGFTCndbvS" x1="4.407" x2="21.595" y1="6.019" y2="11.042" gradientUnits="userSpaceOnUse"><stop stop-color="#240e00"/><stop offset="1" stop-color="#573500"/></linearGradient><linearGradient id="SVGpmQYecNI" x1="22.356" x2="-39.829" y1="-19.719" y2="206.88" gradientUnits="userSpaceOnUse"><stop offset=".02" stop-color="#f0c113"/><stop offset=".45" stop-color="#f3c712"/></linearGradient><linearGradient id="SVGObDnBcrz" x1="28.48" x2="-13.411" y1="-23.563" y2="126.575" gradientUnits="userSpaceOnUse"><stop offset=".02" stop-color="#f0c113"/><stop offset=".45" stop-color="#f3c712"/></linearGradient><linearGradient id="SVGAi3LzcPc" x1="15.531" x2="10.276" y1="1.875" y2="21.04" gradientUnits="userSpaceOnUse"><stop offset=".02" stop-color="#f0c113"/><stop offset=".45" stop-color="#f3c712"/><stop offset="1" stop-color="#c97d22"/></linearGradient><linearGradient id="SVGLpCrFeFQ" x1="-6.412" x2="-329.243" y1="-478.606" y2="-241.19" gradientUnits="userSpaceOnUse"><stop offset=".45" stop-color="#f3c712"/><stop offset="1" stop-color="#c97d22"/></linearGradient><linearGradient id="SVGsC72YbZa" x1="34.7" x2="16.801" y1="-109.412" y2="75.807" gradientUnits="userSpaceOnUse"><stop offset=".45" stop-color="#f3c712"/><stop offset="1" stop-color="#c97d22"/></linearGradient><linearGradient id="SVGoJYVrcnD" x1="13.871" x2="14.782" y1="9.457" y2="10.068" gradientUnits="userSpaceOnUse"><stop stop-color="#d08b1f"/><stop offset=".5" stop-color="#f0c113"/><stop offset="1" stop-color="#d8981d"/></linearGradient></defs></g></svg>