<svg xmlns="http://www.w3.org/2000/svg" viewBox="0 0 24 24"><g fill="#272d63"><path d="m12.393 3l-.668 2.49l-3.486-.934l-.534 1.992l1.495.4a.516.516 0 0 1 .364.632l-1.868 6.972a.516.516 0 0 1-.632.365l-.996-.267l-1.031 1.859l3.486.934l-.668 2.49l1.495.4l2.135-7.968l1.742.467c1.958.524 5.061.039 5.666-2.219c.49-1.83-1.69-3.655-3.184-4.055l.668-2.49l-1.494-.4l-.667 2.49l-.996-.268l.667-2.49zm.293 4.883l2.02.541a1.546 1.546 0 1 1-.8 2.988l-2.02-.542z"/><path d="M13.318 16.592a1.805 1.805 0 0 0 1.84-2.914c1.224-.001 1.607-.15 2.301-.42l.219-.085c.735.878 1.049 2.047.743 3.185c-.495 1.848-2.937 2.813-4.916 2.411l-.002.008l-.996-.267L11.84 21l-1.494-.4l1.201-4.483z"/></g></svg>