<svg xmlns="http://www.w3.org/2000/svg" viewBox="0 0 24 24"><path fill="#F6B744" fill-rule="evenodd" d="M2.462 13.116a1.58 1.58 0 0 1 0-2.232l8.422-8.422a1.58 1.58 0 0 1 2.232 0l8.422 8.422a1.58 1.58 0 0 1 0 2.232l-8.422 8.422a1.58 1.58 0 0 1-2.232 0zm4.3-1.906c-.115-1.131.727-3.405 5.001-3.453c5.153-.052 5.396 2.474 5.48 3.359l.01.094c0 .042-.084.127-.431.127c-.342 0-1.069-.158-1.39-.237c-.084-.116-.305-.353-.51-.39c-.19-.037-.3.121-.369.221c-.037.043-.053.074-.074.074l-.21-.01c-.6-.037-2.348-.158-4.122.01c-.016-.19-.142-.568-.558-.542c-.41.026-.605.41-.653.6a15 15 0 0 0-2.174.147M8.88 8.715c.052.058.189.142.357 0c.19-.168.116-.263.085-.294v-.006c-.027-.026-.316-.09-.38 0a.34.34 0 0 0-.062.3m1.51-.11c.095.2-.02.31-.094.342a.32.32 0 0 1-.269-.142c-.068-.084.069-.348.1-.358h.005v-.005c.043-.021.148-.069.264.158zm1.285.126c.073.042.263.084.415-.116c.18-.226.069-.294.021-.316l-.005-.01c-.031-.021-.39.01-.442.121c-.047.105-.063.184.01.316zm1.463-.447c-.158.2-.342.158-.416.11c-.073-.131-.053-.21-.005-.316c.047-.115.405-.142.437-.12h.01c.043.03.158.094-.026.326m.316.637c.09 0 .263-.069.284-.316c.026-.295-.105-.29-.158-.29c-.037 0-.32.221-.3.342c.016.121.042.19.18.264zm1.295-.506c.252.032.316.21.31.295c-.079.132-.152.158-.268.174c-.121.016-.332-.28-.332-.316v-.01c0-.053 0-.18.29-.143m-3.927.048c.068.052.258.12.453-.048c.231-.194.126-.273.084-.305l-.005-.005c-.032-.027-.411-.053-.485.052c-.068.095-.105.164-.047.306M6.936 13c2.269.227 7.454.505 10.065-.21c.063-.021.19 0 .168.21c-.02.253-1.463.816-5.511.737l-1.484-.031c-2.727-.053-3.212-.064-3.333-.19c-.136-.147 0-.442.1-.516zm3.085 1.121c-.558.01-2.274-.084-3.064-.136c-.252-.016-.174.384-.105.579c.274 1.047 1.547 1.763 5.38 1.72c3.732-.046 4.458-1.157 4.8-1.678l.027-.037a.64.64 0 0 0-.085-.858c-.547.316-3.71.463-5.227.49c-.21.242-.72.72-1.016.72c-.294 0-.594-.531-.71-.8m-3.87-1.884c-.03-.053 0-.221.354-.432c.447-.268 8.032-.963 11.196.132c.131.063.263.263-.285.563c-.405-.232-1.258-.668-1.41-.563l-.137.105c-.121.105-.226.195-.426.195a.6.6 0 0 1-.316-.105c-.106-.058-.2-.111-.337-.106c-.116.006-.237.08-.369.148c-.168.1-.347.2-.51.147a1 1 0 0 1-.28-.168c-.173-.132-.347-.264-.562-.127a2 2 0 0 0-.222.164c-.1.084-.126.105-.284.047c-.1-.037-.168-.116-.237-.184c-.094-.106-.184-.195-.316-.132l-.157.084c-.158.095-.316.184-.58.163c-.173-.01-.294-.084-.405-.147c-.105-.068-.2-.12-.316-.105c-.09.02-.22.11-.368.216c-.232.173-.521.373-.769.347a1.1 1.1 0 0 1-.442-.184c-.158-.095-.295-.18-.473-.127c-.132.043-.211.095-.285.143c-.105.063-.173.105-.316.063a1 1 0 0 1-.242-.148c-.131-.105-.252-.194-.41-.142c-.11.037-.242.106-.364.18c-.157.083-.294.157-.378.157c-.148 0-.353-.1-.353-.184" clip-rule="evenodd"/></svg>