<svg enable-background="new 0 0 1080 322.8" version="1.1" viewBox="0 0 296 296" xml:space="preserve" xmlns="http://www.w3.org/2000/svg">

<g transform="translate(-71.453,-17.925)">
		<path d="m366.82 162.07c-29.232 51.099-84.277 85.535-147.37 85.535-63.089 0-118.13-34.437-147.37-85.535 29.233-51.103 84.278-85.54 147.37-85.54 63.09 0 118.14 34.437 147.37 85.54" fill="#9acc01"/>
		<path d="m310.91 255.31-25.827-47.503c8.935-13.01 14.165-28.763 14.165-45.737 0-44.671-36.212-80.882-80.882-80.882s-80.882 36.21-80.882 80.882c0 44.671 36.212 80.881 80.882 80.881 16.908 0 32.604-5.188 45.585-14.062l46.949 26.433z" fill="#241f31"/>
		
		
		<path d="m259.15 182.13c0 21.889-17.804 39.692-39.691 39.692-21.889 0-39.694-17.804-39.694-39.692v-48.821c0-3.035 2.47-5.503 5.505-5.503 3.034 0 5.503 2.468 5.503 5.503v29.553c0 1.601 1.295 2.896 2.899 2.896 0.032 0 0.063-8e-3 0.097-8e-3 0.032 0 0.062 8e-3 0.095 8e-3 1.601 0 2.897-1.295 2.897-2.896v-44.809c0-3.037 2.468-5.507 5.505-5.507s5.505 2.47 5.505 5.507v42.202c0 1.602 1.298 2.896 2.898 2.896 1.597 0 2.896-1.295 2.896-2.896v-52.442c0-3.035 2.471-5.501 5.504-5.501 3.037 0 5.506 2.466 5.506 5.501v52.055c0 1.603 1.297 2.899 2.897 2.899 1.599 0 2.897-1.297 2.897-2.899v-42.975c0-3.036 2.47-5.505 5.505-5.505 3.036 0 5.503 2.47 5.503 5.505v55.011c-6.59 0.613-22.117 3.955-28.509 21.627-0.543 1.504 0.235 3.166 1.74 3.713 0.324 0.117 0.658 0.172 0.983 0.172 1.186 0 2.296-0.736 2.726-1.91 6.702-18.531 25.048-17.97 25.819-17.939l3.037 0.146v-30.591c0-3.035 2.688-5.505 5.988-5.505 3.303 0 5.987 2.47 5.987 5.505v35.008zm-5.987-46.31c-2.187 0-4.23 0.588-5.988 1.586v-20.514c0-6.231-5.068-11.301-11.299-11.301-2.015 0-3.903 0.539-5.543 1.465-0.393-5.877-5.288-10.541-11.263-10.541-6.23 0-11.298 5.068-11.298 11.297v0.378c-1.632-0.912-3.506-1.44-5.505-1.44-6.229 0-11.298 5.068-11.298 11.301v5.516c-1.676-0.984-3.619-1.558-5.699-1.558-6.231 0-11.301 5.066-11.301 11.298v48.821c0 25.081 20.406 45.487 45.49 45.487 25.081 0 45.485-20.406 45.485-45.487v-35.01c0-6.23-5.284-11.298-11.781-11.298" fill="#9acc01"/>
	</g>
</svg>
