<svg xmlns="http://www.w3.org/2000/svg" viewBox="0 0 24 24"><g fill="none"><path fill="url(#SVG5FMRYdYh)" d="M16.5 13.587c-.996 1.19-2.118 1.588-3.706 1.588c-1.048 0-1.985-.37-2.647-.794L9.09 15.704c.847.64 2.149 1.059 3.705 1.059c1.376 0 2.525-.238 3.705-1.059l1.588 1.588a9.14 9.14 0 0 1-5.822 2.118c-2.88.02-5.172-1.202-6.352-3.706A4.34 4.34 0 0 0 8.03 12c0-1.26-.89-2.811-2.117-3.706c1.228-2.313 3.35-3.652 6.352-3.705c1.995-.021 4.414.831 5.822 2.117L16.5 8.293c-1.17-.74-2.329-1.058-3.705-1.058c-1.43 0-2.874.35-3.705 1.064l1.058 1.323c.636-.413 1.784-.8 2.647-.8c1.546 0 2.71.398 3.705 1.589l3.706-3.706C18.495 4.392 15.748 3 12.265 3c-3.95 0-7.194 2.17-8.47 5.823c1.43.582 2.647 1.831 2.647 3.176c0 1.344-1.207 2.604-2.647 3.176c.969 3.98 4.441 5.902 8.47 5.823c3.63-.064 6.394-1.43 7.94-3.706z"/><defs><linearGradient id="SVG5FMRYdYh" x1="5.463" x2="20.898" y1="18.753" y2="6.409" gradientUnits="userSpaceOnUse"><stop stop-color="#7b1be7"/><stop offset=".64" stop-color="#e246c4"/><stop offset="1" stop-color="#f397b5"/></linearGradient></defs></g></svg>