<svg xmlns="http://www.w3.org/2000/svg" fill="none" viewBox="0 0 32 32"><path fill="#30316E" d="M28.0197 18.3406c-.0328.0164-.082-.0164-.082-.0492-.082-1.607-.2296-3.1648-.3116-3.7387 0-1.3938-.2296-2.8204-.4591-3.8863-.0164-.0328.0328-.0656.0656-.0656 1.3118.2624 1.7381.7543 1.7381.7543-.6887-1.55779-1.6889-2.73844-2.7712-3.62392-.9347-1.95136-2.0005-2.85324-2.0005-2.85324.0819.42635.0327.91828-.1312 1.42662-.0164.03279-.0492.04919-.082.03279-1.7874-.86909-3.624-1.26264-4.3291-1.37742-1.0658-.52473-2.2301-.85269-3.1648-1.11506-.0328 0-.0328-.03279-.0164-.04919 1.2463-1.03307 2.4105-1.31184 2.4105-1.31184-2.0333-.08199-3.7879.29517-5.2637.8527-2.1973-.18038-3.5911.21317-3.5911.21317s.6067.72151.8362 1.13145c.0328.0492.0164.11479-.0327.14759-1.37747.95107-2.36135 2.01694-2.7549 2.44329-.44274.06559-1.18064.16397-1.83656.32795-.0328 0-.04919-.0164-.0328-.04919.65592-1.5742 1.37743-2.44329 1.37743-2.44329S3.35721 8.10833 2.55371 13.5196c0 0 .34435-.951 1.525-2.4105.0164-.0164.0492-.0164.0492 0 .32796.738.72151 1.3939.90188 1.7054-.65591 1.0495-1.09866 2.181-1.37742 3.1156-.0164.0328-.0328.0656-.06559.0656-.98388.3772-1.22985.7215-1.22985.7215.14758.5248.45915 1.0331.8363 1.5086.03279.0492.04919.0984.04919.1476-.09839 2.3121.63952 3.8207.63952 3.8207.16398-.8035.49194-1.5906.91828-2.3285.0164-.0328.0492-.0328.08199-.0164.96748.7707 1.96775 1.4431 2.3613 1.6726.21318.5248.7871 1.8858 1.5742 3.2796.0164.0328 0 .0656-.03279.082-.93469.3444-1.90216.4919-2.78765.2788 0 0 1.06586 1.3282 4.34543 1.9021.9183 1.0823 2.017 1.9678 3.3124 2.2793 0 0-.3772-.4263-.4755-1.9841 0-.0328.0164-.0656.0491-.0656.8035.0164 1.9186.0328 2.9189-.0492.3607.2788 1.1314.9019 1.9021 1.2954.0328.0164.0328.0656 0 .0984-1.3282.8035-2.2301.8855-2.2301.8855 6.0509.1312 9.6912-3.8207 9.6912-3.8207-1.0003.6559-2.1481 1.0659-3.296 1.3118-.0328 0-.0656-.0328-.0656-.0656.2132-1.033.1476-2.0333.1312-2.3777 1.443-.3607 2.6893-1.0002 3.6239-1.6562.0164-.0164.0492-.0164.0656 0 .3936.2624.7215.574 1.0495 1.0659 0 0 .6231-.8855.8363-2.9516 1.5578-2.0334 1.7874-4.1159 1.7874-4.1159-.3444.6723-.9347 1.1151-1.6234 1.4266ZM14.9833 5.50106c.0492-.08199.1312-.13118.2296-.14758 1.9513-.26237 3.7387-.29516 4.4274-.27877 1.2463.8363 2.4761 1.93496 3.4436 2.96803.0656.06559.082.18037.0328.26236-.6887 1.08227-1.7054 2.1317-2.1481 2.5909-1.6398.3935-3.3944.9511-4.8046 1.4266-.1312.0492-.2952 0-.3772-.1312-1.0822-1.5578-1.7546-2.90242-2.0333-3.41076.2951-1.29543.6887-2.45968 1.2298-3.27958ZM5.42334 15.4218c-.16397-1.0167-.26236-2.0989-.27876-2.5909-.0328-1.1314.14758-2.1481.36075-3.08278.0328-.14758.11479-.29516.22957-.39355.60673-.55753 1.70538-1.5414 2.4105-1.98415.65591-.42634 2.4761-1.01667 3.2304-1.22984.1476-.0492.2951.0164.3771.14758.082.16398.1804.31156.2788.47554.5903.91828 1.2462 1.72178 1.5086 2.04974-.3607 1.44306-.5247 3.06636-.5903 4.42746 0 .1312-.082.2459-.2132.2951-1.9021.7379-3.32876 1.3283-3.8207 1.5414-1.29543.0492-2.54168.2788-3.37797.4264-.04919.0164-.11479-.0328-.11479-.082Zm5.32936 8.5269c-.1148.0656-.246.0656-.3608-.0164-.96747-.6887-2.09892-1.5578-3.0664-2.4433-.55753-.9674-1.00027-2.1973-1.29543-3.2468-.0164-.0656 0-.1475.03279-.1967 1.06587-1.3119 2.3613-2.3613 2.88603-2.7549 1.21341.5247 2.60731.9839 3.82071 1.3938.1312.0492.2132.1476.2296.2788.164 2.1645.5739 3.9191.6723 4.5914-.4428.492-1.6398 1.607-2.9188 2.3941Zm13.3479-2.1481c-.9183 1.5414-1.6234 2.4761-1.853 2.7548-.3116.4264-1.0823 1.5578-2.2793 2.6893-.082.0656-.1804.1148-.2788.1148-1.5086.0656-2.9188-.0492-3.4599-.164-.4592-.1968-1.5414-.6723-2.8205-1.3774-.1148-.0656-.1803-.1804-.164-.3116.0656-.9839.3772-2.3941.656-3.8863.6887-1.2134 1.3938-2.5745 2.1317-3.7059.082-.1148.2296-.1804.3607-.1312 2.1974.6067 4.1159 1.0659 4.903 1.2298 1.0659 1.2299 2.099 2.099 2.7877 2.6401.0328.0492.0328.0984.0164.1476Zm1.5906-2.9352c-.0328.0656-.0984.1147-.164.1147-1.6726.1968-3.4436-.0328-4.1323-.1475-1.1478-1.1479-2.3777-2.4105-3.296-3.5256-.0984-.1148-.0984-.2788-.0164-.3935 1.2955-1.8202 2.4925-3.2632 3.0009-3.8371 1.443-.3116 2.8696-.5904 3.8371-.6396.0656 0 .1475.0328.1803.0984 1.2463 1.7382 2.1482 3.4108 2.4269 4.0175-.5739 1.5414-1.2626 3.0992-1.8365 4.3127Z"/></svg>