<svg xmlns="http://www.w3.org/2000/svg" viewBox="0 0 24 24"><g fill="none"><path fill="url(#SVGv76srdyf)" d="M12.252 18.506a10.4 10.4 0 0 0 1.875-.302a5.2 5.2 0 0 0 2.342.151a1 1 0 0 1 .094-.007c.279 0 .645.16 1.179.497v-.554a.54.54 0 0 1 .28-.472q.349-.197.645-.443c.778-.65 1.217-1.518 1.217-2.436c0-.303-.048-.605-.143-.893a7 7 0 0 0 .564-1.359c.45.665.692 1.45.695 2.252c0 1.248-.588 2.412-1.607 3.263q-.256.213-.535.392v1.298c0 .446-.522.703-.89.437a14 14 0 0 0-1.08-.72a3 3 0 0 0-.332-.165a6.4 6.4 0 0 1-.935.069c-1.27 0-2.445-.377-3.37-1.008m-6.72-2.595C3.927 14.568 3 12.737 3 10.775c0-4.008 3.832-7.213 8.511-7.213c4.68 0 8.513 3.204 8.513 7.213s-3.833 7.212-8.513 7.212a10 10 0 0 1-1.555-.12c-.22.051-1.102.568-2.372 1.483c-.46.332-1.112.012-1.112-.547V16.59a8 8 0 0 1-.94-.68m4.455.592q.058 0 .117.009q.69.114 1.407.115c3.953 0 7.116-2.645 7.116-5.852c0-3.206-3.163-5.85-7.115-5.85s-7.117 2.644-7.117 5.85c0 1.55.74 3.01 2.046 4.103q.494.412 1.076.74a.68.68 0 0 1 .35.589v1.276c1.005-.665 1.666-.98 2.12-.98"/><path fill="url(#SVGv76srdyf)" d="M8.062 12a1.125 1.125 0 1 0 0-2.25a1.125 1.125 0 0 0 0 2.25"/><path fill="url(#SVGv76srdyf)" d="M11.719 12a1.125 1.125 0 1 0 0-2.25a1.125 1.125 0 0 0 0 2.25"/><path fill="url(#SVGohGBlcQN)" d="M15.375 12a1.125 1.125 0 1 0 0-2.25a1.125 1.125 0 0 0 0 2.25"/><defs><linearGradient id="SVGv76srdyf" x1="12" x2="12" y1="3.562" y2="20.438" gradientUnits="userSpaceOnUse"><stop stop-color="#1bc9fa"/><stop offset="1" stop-color="#1778f0"/></linearGradient><linearGradient id="SVGohGBlcQN" x1="12" x2="12" y1="3.561" y2="20.437" gradientUnits="userSpaceOnUse"><stop stop-color="#1bc9fa"/><stop offset="1" stop-color="#1778f0"/></linearGradient></defs></g></svg>