<?xml version="1.0" encoding="UTF-8"?>
<!-- Vector version created with Inkscape (http://www.inkscape.org/) by VulcanSphere (http://vulcansphere.com), original logo by Cura Sylfaen (https://web.archive.org/web/20250106183513/https://cohost.org/cura?page=0) for Chimera Linux project and licensed under Creative Commons Attribution-ShareAlike 4.0 (https://github.com/chimera-linux/chimera-linux.github.io/blob/master/COPYING.md) -->
<svg width="512" height="512" version="1.1" viewBox="0 0 512 512" xmlns="http://www.w3.org/2000/svg">
<title>Chimera Linux</title>
<desc>Non-GNU Linux distribution</desc>
 <g transform="translate(2.8023 .70057)">
  <g transform="matrix(.57292 0 0 .57292 -1.1968 537.14)">
   <path d="m-2.8023-734.56v-204.22h368.29v154.77l-10.301 2.8641c-26.088 7.2531-65.599 27.34-90.613 46.066-62.073 46.471-104.24 113.89-118.06 188.78-1.482 8.026-2.6946 14.899-2.6946 15.273s-32.989 0.67991-73.309 0.67991h-73.309z" fill="#ab76e4"/>
   <path d="m421.34-260.89c-55.53-7.0517-100-27.901-138.03-64.706-34.585-33.478-56.419-72.762-66.453-119.57-5.5184-25.742-5.4874-67.958 0.069-93.909 9.9389-46.42 32.653-86.957 67.27-120.05 35.428-33.87 79.796-55.79 124.86-61.691 8.1932-1.0727 15.879-2.2243 17.079-2.559 1.7152-0.47847 2.1818-23.577 2.1818-108.01v-107.4h87.273v303.71h-40.79c-28.773 0-45.3 0.7866-56.1 2.67-66.763 11.642-117.8 72.497-117.8 140.46 0 15.428 4.7716 39.272 10.717 53.553 39.829 95.674 163.32 119.7 234.72 45.657 12.975-13.456 20.159-23.944 27.694-40.432 10.766-23.559 11.82-30.437 12.679-82.778l0.78044-47.564h303.38v87.273h-107.4c-84.432 0-107.53 0.46659-108.01 2.1818-0.33474 1.2-1.4863 8.8854-2.559 17.079-8.7637 66.935-53.263 131.63-114.61 166.62-19.347 11.036-45.501 20.908-67.132 25.34-17.763 3.6396-55.891 5.8906-69.818 4.122z" fill="#d64f5d"/>
   <path d="m482.43-118.41c0-40.32 0.35286-73.309 0.78413-73.309 0.43126 0 9.1654-1.6174 19.409-3.5943 72.532-13.997 138.62-56.062 185.02-117.76 15.445-20.536 36.289-60.834 43.602-84.295l4.9944-16.022h154.62v368.29h-408.44z" fill="#d45c92"/>
   <path d="m-2.8023-249.32v-204.22h72.333c51.048 0 72.685 0.56922 73.529 1.9343 0.65751 1.0639 2.6054 9.2142 4.3286 18.112 21.191 109.42 105.9 201.95 212.44 232.07 11.978 3.3861 41.354 9.7034 45.122 9.7034 0.37395 0 0.67991 32.989 0.67991 73.309v73.309h-408.44z" fill="#f786f3"/>
  </g>
 </g>
</svg>