<svg version="1.1" viewBox="0 0 128 128" xmlns="http://www.w3.org/2000/svg">
 <g transform="matrix(.13304 0 0 .13302 8.9935 17.933)">
  <path d="m307.03 113.63-306.94 72.28 553.49 286.15 289.12-76.24-116.36-61.299-17.688 3.8939-4.3216-16.899-114.51-62.615-23.793 3.9606-3.4956-14.637-121.54-64.03-14.442 5.6573-3.5504-15.136z" fill="#3e3272"/>
  <path d="m842.7 395.82 21.783 102.97-321.3 80.201 10.396-106.93z" fill="#7d62e3"/>
  <path d="m543.18 579 10.396-106.93-553.49-286.15-37.625 95.053z" fill="#5c3cdd"/>
  <path d="m218.37 134.51-22.518 5.3027 121.53 63.018-84.193 22.414-123.35-65.178-17.236 4.0586 124.84 65.311-87.898 23.402-4.6973 45.453 14.908-40.174 91.615-21.395 124.46 65.111-87.58 22.715-0.82422 44.537 11.387-37.625 92.428-21.564 126.21 66.027-87.943 23.131v46.271l11.881-42.146 90.014-19.957 127.04 66.459 10.684 37.727 2.3262-41.158-125.42-66.27 93.154-20.654 122 63.262 11.898 37.096 2.6953-40.945-119.5-63.203 91.455-20.277-1.4024-0.73828-17.688 3.8945-4.3223-16.898-88.404 23.252-120.65-63.809 94.539-22.059-23.793 3.9609-3.4961-14.637-86.648 22.475-119.46-63.178 89.271-20.848-4.709-2.4805-14.443 5.6582-3.5488-15.137-85.539 22.773zm117.37 77.84 121.73 63.121-86.68 22.482-123.1-65.043zm140.76 72.988 122.96 63.758-88.049 23.158-124.8-65.943z" fill="#2d2453"/>
 </g>
</svg>
