<svg xmlns="http://www.w3.org/2000/svg" viewBox="0 0 24 24"><g fill="none"><path fill="url(#SVGNVdqMmIT)" d="M3.026 11.483c1.271 1.372 3.52 2.475 6.692 3.29l.293.073l.298.073l.304.073l.129.028l.259.063l.315.078l.309.079l.242.062l.236.067l.225.062l.23.068l.225.061l.208.068l.107.034l.208.067l.152.05l.146.051l.242.085l.045.017l.236.084l.225.084l.085.04l.168.067l.085.034l.157.073c.9.4 1.552.821 1.94 1.254c.568.63.557 1.305-.146 2.154a9 9 0 0 1-4.257 1.276a5.2 5.2 0 0 0-.624-1.08a8 8 0 0 0-.484-.595l-.09-.102l-.118-.129l-.13-.135l-.129-.135a17 17 0 0 0-.686-.658L10 18.052l-.17-.146l-.168-.147l-.169-.146l-.18-.152l-.09-.073l-.19-.152l-.192-.157l-.247-.191l-.253-.197l-.208-.163l-.22-.158l-.22-.169l-.28-.202l-.293-.208l-.236-.169l-.242-.168l-.247-.17l-.383-.264l-.264-.168l-.264-.18l-.27-.18l-.349-.225l-.354-.225l-.439-.281l-.298-.186l-.45-.281l-.258-.163a9 9 0 0 1-.057-1.49z"/><path fill="url(#SVGiqumDeNV)" d="m3.522 14.94l.157.096l.417.27l.27.175l.27.174l.258.174l.259.17l.247.168l.248.168l.242.17l.236.168l.23.157l.225.163l.225.158l.214.157l.208.158l.31.225l.292.23l.19.152l.187.146l.18.147l.168.14l.09.073l.169.141l.157.14l.158.136l.152.135l.073.067l.146.135l.14.13l.13.128l.169.17l.084.084l.118.13q.451.478.821 1.023a9 9 0 0 1-7.44-6.057"/><path fill="url(#SVG9Gns7dlN)" d="M5.22 6.119a2.84 2.84 0 0 0 .472 1.76c.529.843 1.496 1.552 2.907 2.17l.107.046l.186.078q.531.212 1.147.417l.175.056l.224.073l.113.034l.225.067l.112.034l.242.067l.118.029l.124.033l.242.068l.13.028l.252.062l.253.062l.326.078l.282.068l.27.067l.27.068l.264.073l.258.067l.253.073l.248.074c3.504 1.068 5.365 2.451 5.714 4.178a9 9 0 0 1-1.598 2.283a2.7 2.7 0 0 0-.73-1.558a6 6 0 0 0-1.62-1.203l-.096-.056l-.163-.085l-.281-.135l-.146-.067l-.175-.079l-.095-.04l-.09-.039l-.192-.079l-.095-.039l-.197-.079c-.287-.112-.59-.213-.905-.32l-.163-.05l-.225-.074l-.236-.073l-.237-.067l-.37-.107l-.254-.068l-.32-.084l-.332-.084l-.135-.034l-.276-.068l-.467-.112l-.258-.056l-.248-.062l-.247-.068l-.124-.028l-.236-.067l-.236-.062l-.23-.068l-.113-.033l-.225-.068l-.225-.067l-.208-.068l-.214-.073l-.208-.073l-.101-.034l-.197-.073l-.293-.112l-.185-.073a4 4 0 0 1-.366-.152l-.174-.073l-.09-.04l-.169-.079c-1.614-.764-2.615-1.647-3.036-2.665a8.95 8.95 0 0 1 1.822-3.369l.045-.056z"/><path fill="url(#SVG16V1Nckh)" d="M11.973 3.001h.253c-.675.9-.523 2.053.528 3.38q.22.286.506.58l.09.1l.13.13l.168.169l.096.09l.14.135l.147.135c.163.14.326.287.506.433l.135.112l.169.14l.18.141l.18.147l.19.146l.192.146l.197.146l.309.225l.214.152l.326.225l.225.157l.112.08l.23.157l.119.078l.242.158l.242.163l.253.157l.253.17l.264.162l.265.169l.27.163l.28.169l.282.168l.28.175l.293.168l.298.18l.304.175l.158.09a9 9 0 0 1-.242 1.603c-.85-1.26-2.441-2.312-4.735-3.161l-.225-.084a23 23 0 0 0-.94-.31l-.241-.078l-.253-.074l-.253-.073l-.13-.033l-.264-.073l-.13-.034l-.27-.068l-.41-.1l-.529-.125l-.241-.056l-.242-.062l-.236-.056l-.225-.067l-.113-.029l-.225-.067l-.112-.028l-.208-.068l-.113-.033l-.202-.062l-.102-.034l-.196-.067l-.096-.034l-.191-.068l-.096-.033l-.185-.068l-.085-.034l-.09-.039l-.168-.068l-.09-.033l-.169-.073l-.349-.163l-.112-.057l-.14-.073a4.26 4.26 0 0 1-1.66-1.35c-.5-.776-.315-1.726.675-2.913a9.05 9.05 0 0 1 4.567-1.226"/><path fill="url(#SVGQGtRbcqn)" d="M14.055 3.172A9.02 9.02 0 0 1 21 10.967l-.32-.192l-.394-.241l-.265-.164l-.258-.157l-.253-.157l-.242-.158l-.242-.152l-.242-.157l-.225-.152l-.23-.146l-.225-.152l-.214-.146l-.214-.147l-.208-.146l-.202-.14l-.197-.147l-.197-.14l-.186-.135l-.185-.14l-.18-.136l-.169-.135l-.168-.135l-.17-.129l-.157-.13l-.078-.067l-.152-.124l-.146-.129l-.14-.124l-.136-.123l-.135-.118l-.095-.096l-.096-.084l-.113-.119l-.061-.056l-.057-.062l-.112-.112l-.281-.315l-.068-.079l-.084-.112l-.09-.107c-.574-.754-.709-1.293-.523-1.665c.112-.219.337-.427.692-.618l.073-.04z"/><defs><linearGradient id="SVGNVdqMmIT" x1="3.004" x2="3.004" y1="11.483" y2="20.998" gradientUnits="userSpaceOnUse"><stop stop-color="#ff475a"/><stop offset="1" stop-color="#ff9a89"/></linearGradient><linearGradient id="SVGiqumDeNV" x1="3.522" x2="3.522" y1="14.941" y2="20.998" gradientUnits="userSpaceOnUse"><stop stop-color="#ff9a89"/><stop offset="1" stop-color="#ff475a"/></linearGradient><linearGradient id="SVG9Gns7dlN" x1="3.353" x2="3.353" y1="6.119" y2="18.232" gradientUnits="userSpaceOnUse"><stop stop-color="#ff9a89"/><stop offset="1" stop-color="#ff475a"/></linearGradient><linearGradient id="SVG16V1Nckh" x1="6.461" x2="6.461" y1="3.001" y2="14.075" gradientUnits="userSpaceOnUse"><stop stop-color="#ff475a"/><stop offset="1" stop-color="#ff9a89"/></linearGradient><linearGradient id="SVGQGtRbcqn" x1="13.211" x2="13.211" y1="3.178" y2="10.961" gradientUnits="userSpaceOnUse"><stop stop-color="#ff9a89"/><stop offset="1" stop-color="#ff475a"/></linearGradient></defs></g></svg>