<svg xmlns="http://www.w3.org/2000/svg" viewBox="0 0 24 24"><g fill="none"><path fill="url(#SVG75WcibAW)" d="M16.68 3H7.32A4.32 4.32 0 0 0 3 7.32v9.36A4.32 4.32 0 0 0 7.32 21h9.36A4.32 4.32 0 0 0 21 16.68V7.32A4.32 4.32 0 0 0 16.68 3"/><path fill="#0c0b0b" fill-rule="evenodd" d="M12 17.76a5.76 5.76 0 1 0 0-11.52a5.76 5.76 0 0 0 0 11.52m-1.017-8.51a.3.3 0 0 1 .3-.3h1.433a.3.3 0 0 1 .3.3v1.755h-2.033v1.99h2.033v1.754a.3.3 0 0 1-.3.3h-1.433a.3.3 0 0 1-.3-.3v-1.69H9.25a.3.3 0 0 1-.3-.3v-1.454a.3.3 0 0 1 .3-.3h1.733zm2.033 1.755h1.734a.3.3 0 0 1 .3.3v1.454a.3.3 0 0 1-.3.3h-1.733z" clip-rule="evenodd"/><defs><linearGradient id="SVG75WcibAW" x1="4.498" x2="20.232" y1="19.5" y2="4.125" gradientUnits="userSpaceOnUse"><stop stop-color="#bdfde2"/><stop offset="1" stop-color="#9bdaf6"/></linearGradient></defs></g></svg>