<svg xmlns="http://www.w3.org/2000/svg" width="300" height="49" fill="none"><path fill="#000" d="M0 48.213 18.603.917h6.201L6.136 48.213zM36.926 15.263c8.114 0 13.788 4.585 14.91 11.725h-6.2c-1.056-4.06-4.355-6.224-8.51-6.224-5.872 0-9.896 4.454-9.896 11.399s3.76 11.333 9.632 11.333c4.42 0 7.72-2.293 8.84-6.093h6.201c-1.253 6.945-7.256 11.595-15.04 11.595-9.501 0-15.767-6.682-15.767-16.77 0-10.09 6.398-16.967 15.833-16.967zM71.82 15.327c9.633 0 16.757 6.945 16.757 16.835S81.453 48.998 71.82 48.998s-16.822-6.945-16.822-16.836 7.124-16.835 16.822-16.835m0 28.169c6.201 0 10.556-4.652 10.556-11.334S78.021 20.83 71.82 20.83s-10.555 4.652-10.555 11.333c0 6.682 4.287 11.334 10.555 11.334M92 32.295c0-9.827 5.74-17.032 15.306-17.032 4.948 0 9.105 2.161 11.282 6.092V0h6.135v48.213h-5.541l-.527-5.83c-2.112 4.39-6.467 6.617-11.612 6.617-9.368 0-15.04-6.944-15.04-16.704zm26.52-.197c0-6.55-3.892-11.266-10.226-11.266-6.333 0-10.028 4.716-10.028 11.266s3.695 11.333 10.028 11.333 10.226-4.651 10.226-11.333M128.285 32.23c0-10.023 6.398-16.967 15.767-16.967s15.174 6.289 15.174 15.787v2.292l-24.937.065c.462 6.748 4.024 10.482 10.16 10.482 4.815 0 7.982-1.965 9.038-5.634h5.805c-1.584 6.878-6.993 10.743-14.976 10.743-9.5 0-16.031-6.813-16.031-16.77zm6.136-2.949h18.605c0-5.305-3.497-8.842-8.972-8.842-5.477 0-8.841 3.209-9.633 8.842M162.854 48.213V16.179h5.541l.593 4.193c1.649-3.013 5.08-5.11 9.632-5.11 5.013 0 8.578 2.49 10.226 6.486 1.519-3.996 5.411-6.485 10.424-6.485 7.388 0 11.874 4.585 11.874 11.987v20.963h-6.068V28.757c0-5.044-2.838-7.926-7.192-7.926-4.685 0-7.785 3.276-7.785 8.385v18.997h-6.135v-19.52c0-5.045-2.772-7.797-7.125-7.797-4.684 0-7.784 3.21-7.784 8.319V48.21h-6.201zM232.118 15.327c9.633 0 16.758 6.945 16.758 16.835s-7.125 16.836-16.758 16.836-16.821-6.945-16.821-16.836 7.124-16.835 16.821-16.835m0 28.169c6.201 0 10.557-4.652 10.557-11.334s-4.356-11.333-10.557-11.333c-6.2 0-10.555 4.652-10.555 11.333 0 6.682 4.287 11.334 10.555 11.334M252.301 32.295c0-9.827 5.74-17.032 15.306-17.032 4.948 0 9.104 2.161 11.281 6.092V0h6.136v48.213h-5.541l-.528-5.83c-2.111 4.39-6.466 6.617-11.612 6.617-9.367 0-15.04-6.944-15.04-16.704zm26.519-.197c0-6.55-3.891-11.266-10.225-11.266s-10.028 4.716-10.028 11.266 3.694 11.333 10.028 11.333 10.225-4.651 10.225-11.333M290.564 44.414c0-2.556 2.177-4.652 4.751-4.652 2.573 0 4.684 2.096 4.684 4.652s-2.176 4.585-4.684 4.585-4.751-2.096-4.751-4.585"/></svg>
