<svg xmlns="http://www.w3.org/2000/svg" width="100" height="100" fill="none"><path fill="#d6ff62" d="M0 0h100v100H0z"/><path fill="#0b151e" d="M55.183 38.765c7.73 0 13.136 4.4 14.206 11.251H63.48c-1.006-3.896-4.15-5.972-8.108-5.972-5.594 0-9.428 4.274-9.428 10.937s3.582 10.875 9.177 10.875c4.211 0 7.355-2.2 8.423-5.846h5.908c-1.194 6.663-6.914 11.125-14.33 11.125-9.052 0-15.022-6.411-15.022-16.092s6.096-16.28 15.085-16.28zM20 70.381 37.724 25h5.908L25.846 70.381zM72.594 66.735c0-2.452 2.074-4.463 4.526-4.463s4.463 2.011 4.463 4.463-2.073 4.4-4.463 4.4-4.526-2.012-4.526-4.4"/></svg>
