<svg xmlns="http://www.w3.org/2000/svg" viewBox="0 0 24 24"><g fill="none"><path fill="#3a1704" d="M4.092 7.698c.432-.216.9-.09 1.08 0c.18-.364.698-1.098 1.346-1.098c.643 0 .63.55.54.824l.27-.27h1.07l.81.823l.27-.279h1.076l.27.828c.09-.18.378-.549.81-.549c.428 0 .716.18.806.27c.09-.09.378-.27.81-.27c.427 0 .895.734 1.075 1.098c.18-.459.697-1.377 1.345-1.377c.644 0 1.166.734 1.346 1.103c.18-.275.643-.824 1.08-.824c.427 0 .715.55.805.824a.95.95 0 0 1 .81-.55c.855 0 .891 1.099.806 1.648c-.433 2.861-1.62 3.577-2.16 3.577c-.086.823-.266 2.587-.266 3.024c0 .553-.27 1.102-1.615.828c-1.346-.275-8.613-.554-9.958-.275c-1.08.22-1.35-.274-1.35-.553l-.54-4.122c-.09 0-.374-.059-.806-.28c-.427-.215 0-.823.27-1.097c-.09-.643-.324-1.98-.54-2.2c-.27-.275 0-.824.54-1.103"/><path fill="#f0f3fa" d="M11.166 8.13c-.143.103-.26.24-.342.396l-.27-.828h-1.08l-.27.28l-.805-.829H7.323l-.27.275c.045-.144.077-.365 0-.54l-.036-.063c-.085-.126-.238-.22-.499-.22c-.616 0-1.116.66-1.318 1.043l-.032.054l-.018-.009a1.26 1.26 0 0 0-1.057.01c-.54.278-.81.827-.54 1.102c.216.22.45 1.556.54 2.2c-.27.274-.698.882-.27 1.098c.432.225.72.279.81.279l.54 4.122c0 .279.27.774 1.345.553c1.345-.274 8.613 0 9.958.27c1.35.28 1.62-.27 1.62-.823c0-.437.175-2.2.265-3.024c.54 0 1.724-.716 2.156-3.577c.09-.55.054-1.647-.81-1.647a.9.9 0 0 0-.477.162a1 1 0 0 0-.329.387a1.8 1.8 0 0 0-.238-.464c-.144-.198-.333-.36-.572-.36c-.27 0-.553.216-.77.441a2.4 2.4 0 0 0-.305.383a2.6 2.6 0 0 0-.261-.414c-.252-.338-.639-.689-1.084-.689c-.455 0-.85.455-1.103.887a3 3 0 0 0-.243.495a4 4 0 0 0-.283-.477c-.22-.315-.518-.63-.797-.63a1.22 1.22 0 0 0-.81.279c0-.005 0-.01-.009-.014a1.2 1.2 0 0 0-.796-.26a.8.8 0 0 0-.464.152m-.144-.44a1.23 1.23 0 0 1 .608-.163c.28-.004.557.058.81.18a1.8 1.8 0 0 1 .81-.18c.23 0 .432.095.576.198q.267.191.463.455l.18-.248c.257-.315.666-.684 1.202-.684c.495 0 .89.28 1.16.54q.123.128.226.257l.103-.095c.212-.189.54-.423.931-.423a1.15 1.15 0 0 1 .9.504c.266-.175.54-.23.72-.23c.315 0 .59.104.801.298c.203.18.315.418.387.639c.135.432.113.918.059 1.233c-.225 1.48-.648 2.452-1.125 3.068a2.35 2.35 0 0 1-1.058.815c-.099.9-.234 2.286-.234 2.646c0 .333-.08.792-.486 1.089c-.391.283-.954.324-1.665.18c-.306-.063-.98-.13-1.88-.19a89 89 0 0 0-6.053-.188c-.9.009-1.566.045-1.849.103c-.603.122-1.075.063-1.413-.153a1.01 1.01 0 0 1-.472-.805l-.495-3.78a3.6 3.6 0 0 1-.608-.257a.76.76 0 0 1-.418-.549a1 1 0 0 1 .076-.548c.086-.203.216-.392.338-.54a18 18 0 0 0-.18-1.022a6 6 0 0 0-.207-.72l-.014-.022c-.301-.329-.238-.756-.099-1.044c.149-.306.428-.576.774-.756a1.65 1.65 0 0 1 1.076-.135a3 3 0 0 1 .387-.473c.27-.26.67-.54 1.165-.54c.225 0 .432.045.607.162c.162.104.27.243.338.387h1.125l.62.63l.082-.08h1.593z"/><path fill="url(#SVGsX5cmc8u)" fill-rule="evenodd" d="m18.029 13.453l-.261 2.43c0 .36-.108 1.08-.536 1.08c-.17 0-.53-.054-1.026-.126a29 29 0 0 0-4.306-.41c-1.089 0-2.403.109-3.537.208c-1.35.117-2.448.207-2.592.063c-.166-.167-.23-.54-.315-1.058a14 14 0 0 0-.22-1.107c-.212-.864-.27-1.44-.27-1.62c.27 0 .855-.112 1.07-.54c.18.27.64.752 1.067.54c.428-.22.711-.81.801-1.084c.18.27.585.81.797.81c.27 0 1.336 0 1.602-.27c.211-.216.445-.63.53-.81h.27c.09.27.37.81.797.81s.711-.54.801-.81c.09.27.373.81.8.81s.712-.54.797-.81c.09.27.428.81 1.067.81c.496-.01.972-.202 1.336-.54v.27c0 .36.149.886.531 1.08c.536.27.801.27.801.27zm-7.38 1.247c.144 0 .45-.077.45-.45c0-.374-.306-.45-.45-.45s-.45.076-.45.45c0 .373.306.45.45.45m0 .9c.662 0 1.157-.648 1.157-1.382c0-.729-.495-1.318-1.157-1.318c-.661 0-1.233.59-1.233 1.318c0 .734.572 1.382 1.233 1.382m2.7-.9c.144 0 .45-.108.45-.482c0-.369-.306-.418-.45-.418s-.45.076-.45.45c0 .373.306.45.45.45m0 .9c.661 0 1.125-.621 1.125-1.35s-.464-1.35-1.125-1.35c-.662 0-1.125.62-1.125 1.35c0 .729.463 1.35 1.125 1.35m3.082-.981c-.045.369-.468.324-.612.306c-.063-.01-.058-.014-.013-.387c.022-.167.054-.432.112-.4c.144.017.558.112.513.48m.954.117c-.09.724-.693 1.246-1.35 1.165l-.922-.117a.266.266 0 0 1-.23-.292l.059-.482l.072-.567l.135-1.048a.266.266 0 0 1 .297-.23l.922.113c.653.08 1.112.738 1.017 1.458M6.42 13.192l-.657.216a.09.09 0 0 0-.058.086c.022.81.495 1.957.765 2.506a.09.09 0 0 0 .103.045l.707-.234a.1.1 0 0 0 .031-.022l.207-.203a.09.09 0 0 1 .104-.018l.44.22a.1.1 0 0 0 .068.005l.693-.23a.09.09 0 0 0 .059-.094l-.248-2.227a.09.09 0 0 0-.09-.077h-.625a.09.09 0 0 0-.09.09v.82a.09.09 0 0 1-.086.09a.1.1 0 0 1-.045-.01l-.32-.157a.1.1 0 0 0-.069-.005a.1.1 0 0 0-.052.045l-.135.27a.09.09 0 0 1-.166-.009l-.423-1.057a.09.09 0 0 0-.113-.05" clip-rule="evenodd"/><path fill="url(#SVGwYCcccFj)" fill-rule="evenodd" d="M4.44 7.95c-.428 0-.54.45-.54.63c.215.437.45 1.804.54 2.439c-.27.27-.27.54-.27.81c0 .216.36.27.535.27c.265.54.53.54.796.54c.216 0 .09-.72 0-1.08l.536-.27c.27 1.08.8 1.35 1.066 1.35c.212 0 .27-.54.27-.81c0-.18-.058-.54-.27-.54c-.27 0-.535-.54-.535-.81c0-.22.18-.81.27-1.08c-.194-.198-.108-.675-.045-1.026c.022-.135.045-.252.045-.328c0-.27-.198-.995-.464-.995c-.27 0-.603.18-.873.72c-.211.437.27 1.805.536 2.435l-.536.27c-.09-.63-.265-1.944-.265-2.16c0-.27-.27-.365-.801-.365zm3.194 1.8h-.53l-.27.454l.27.446h.53l.27-.446zM7.5 7.5h.9l.45.9l-.45.9h-.9l-.45-.9zm2.025.45l-.45.675l.45.675h.675l.45-.675l-.45-.675zm.9 1.8l.41-.45h.535l.405.45l-.405.454h-.54zm-2.025 0l-.675 1.35l.675.9h1.35l.675-.9l-.675-1.35zm2.7-1.17c.18-.27.643-.643 1.066 0v.545c.09-.27.307-.725.734-.725c.531 0 .9.18.9 1.265v1.62c0 .18-.014.715-.225.715c-.45 0-.675-.585-.675-1.125v-.288c.013-.526.027-1.147-.198-.922c-.104.108-.167.49-.239.913c-.107.657-.238 1.422-.562 1.422c-.427 0-.531-.891-.531-1.251c.266-.18.797-.599.797-.81c0-.27-.797-1.354-1.067-1.354zM15.6 12c-1.067 0-1.35-1.341-1.35-2.065c0-.657.585-1.985 1.386-1.985c.639 0 .976.81 1.066 1.175v.81c0 .215-.18.45-.27.54c.27.27.5 1.525-.832 1.525m2.43-3.69c.18.09.54.329.54.54c0 .104-.113.315-.239.554c-.211.409-.463.9-.297 1.07c.113.113.27-.193.468-.589c.288-.562.662-1.305 1.13-1.305c.8 0 .535 1.624.27 2.439c-.27.81-.801 2.16-1.868 2.16c-1.066 0-1.332-.81-1.066-1.08c.166-.171.44-.018.684.117c.148.08.283.153.382.153c.27 0 .531-.54.531-1.08c-.18.27-.639.756-1.066.54c-.531-.27-.797-3.244.535-3.514zm-2.39.54c-.216 0-.27.455-.27.545h.536c0-.09-.054-.54-.27-.54zm0 2.169c-.216 0-.27-.36-.27-.54h.536c0 .18-.054.54-.27.54z" clip-rule="evenodd"/><defs><linearGradient id="SVGsX5cmc8u" x1="12" x2="11.541" y1="6.15" y2="16.679" gradientUnits="userSpaceOnUse"><stop offset=".04" stop-color="#cd7b41"/><stop offset=".26" stop-color="#db995d"/><stop offset=".36" stop-color="#c0733a"/><stop offset=".6" stop-color="#d29957"/><stop offset=".88" stop-color="#ce8447"/><stop offset="1" stop-color="#dc9555"/></linearGradient><linearGradient id="SVGwYCcccFj" x1="3.904" x2="20.166" y1="9.183" y2="10.25" gradientUnits="userSpaceOnUse"><stop stop-color="#fea90f"/><stop offset=".08" stop-color="#ffb917"/><stop offset=".2" stop-color="#ee7b07"/><stop offset=".34" stop-color="#f9f085"/><stop offset=".45" stop-color="#f2a700"/><stop offset=".58" stop-color="#faa401"/><stop offset=".69" stop-color="#fdb719"/><stop offset=".83" stop-color="#fba101"/><stop offset=".92" stop-color="#ec9e00"/><stop offset="1" stop-color="#ee9d03"/></linearGradient></defs></g></svg>