<svg xmlns="http://www.w3.org/2000/svg" viewBox="0 0 24 24"><g fill="none"><path fill="#f5911a" d="M12 21a9 9 0 1 0 0-18a9 9 0 1 0 0 18"/><path fill="#fff" d="M8.77 12.923c.77-.922.438-2.174.175-2.685c.843.126 1.416.754 1.722 1.65s.17 2.109.14 2.508c.151-.226.54-.536 1.098-.913s1.349-.55 1.5-.57c.152-.018.544.02.77.263c.174.19.127.506.077.652q.003.009-.004.013l.005-.013c-.008-.025-.086-.08-.36-.175c-.34-.117-.531.097-.585.218c-.092.21-.294.713-.364 1.051s-.35.793-.482.978l-.657.423h-.452c-.039.01-.245-.003-.759-.131c.22.423.686.394 1.05.481c-.08.56-.432.788-.597.832c-.258.058-.896.087-1.387-.263c-.49-.35-.32-.875-.175-1.094l-.496-.759c-.394-.438-.99-1.544-.219-2.466"/><path fill="#fff" d="m11.242 13.435l.068-.483l.445.138zm2.825-.789a.97.97 0 0 0-.704-.1c.067-.245-.105-.408-.2-.46c.087.026.3.091.46.146c.2.07.429.245.444.414m-1.263-.023l-.582.207a35 35 0 0 0-.973-.337c.05-.343-.133-.843-.23-1.05l.3-.03c.37.072 1.172.273 1.423.505c.252.233.146.567.062.705m-1.854-1.735l.027.008zl-.328-.1a1.24 1.24 0 0 0-.59-.528c.01-.286.137-.613.584-.59c.33.082.6.18.693.218c-.099-.033-.326-.03-.44.24c-.139.325-.128.682.082.76m.221-.49c-.074.376.134.58.246.636c.339.141 1.072.427 1.301.441c.287.017.442.012.602-.355c.129-.293-.061-.539-.172-.625l-1.3-.447c-.196-.04-.604-.026-.677.35m2.659 1.432l-.607-.2c.101.008.337-.065.47-.418s-.04-.541-.144-.59l.711.246c.103.103.28.38.16.665c-.119.284-.443.317-.59.298m.309-1.421l-.584-.184c.094.011.319-.05.47-.39s-.032-.546-.143-.607l.676.229a.556.556 0 0 1 .195.67c-.138.335-.466.327-.613.281M11.734 9.08c-.101.348.152.58.292.653c.286.109.902.331 1.072.35c.212.022.412-.058.561-.396c.12-.27-.091-.51-.212-.596l-1.089-.367c-.166-.026-.524.007-.625.356"/><path fill="#fff" d="m10.943 9.36l.659.224c-.11-.037-.297-.207-.167-.59c.131-.383.399-.435.516-.413l-.705-.218c-.16-.028-.5.013-.573.407s.15.558.27.59m2.761-.598l-.008-.003zc.11.033.34-.003.452-.4c.114-.405-.046-.576-.14-.61l.586.186c.176.074.484.314.31.682c-.175.368-.486.375-.62.333zm-2.036-.682l.642.226c-.094-.054-.254-.252-.143-.61c.111-.359.369-.417.484-.4l-.63-.21c-.176-.022-.545.032-.615.415c-.07.384.145.546.262.58"/><path fill="#fff" d="M13.036 7.43c-.34-.063-.533.233-.587.389c-.089.272.11.507.222.59c.15.065.476.196.59.203c.143.008.449.016.591-.365c.115-.305-.09-.537-.206-.615c-.062-.04-.271-.138-.61-.202m.083-.321c-.285-.146-.275-.463-.234-.603c.155-.39.474-.416.615-.38l.594.214c.123.099.33.37.17.662c-.158.292-.422.325-.534.305a1.8 1.8 0 0 1-.611-.198"/></g></svg>