<svg xmlns="http://www.w3.org/2000/svg" viewBox="0 0 24 24"><g fill="none"><path fill="url(#SVGUNt78cUL)" d="M3.416 10.52c-.287 0-.416.13-.416.389v6.62c0 .287.13.383.416.383c3.178.033 7.06-2.796 10.271-5.012V5.25c-3.178 2.188-7.155 5.304-10.27 5.27"/><path fill="url(#SVGTwKLJbLG)" d="M20.584 13.513c.287 0 .416-.129.416-.388v-6.62c0-.293-.13-.388-.416-.388c-3.206-.029-7.06 2.795-10.271 5.017v7.616c3.178-2.188 7.154-5.304 10.27-5.237"/><path fill="#194aad" d="M13.687 12.832v-4q-1.707 1.125-3.374 2.306v4.05c1.18-.77 2.306-1.591 3.374-2.362z"/><defs><linearGradient id="SVGUNt78cUL" x1="13.658" x2="12.366" y1="17.748" y2="6.215" gradientUnits="userSpaceOnUse"><stop offset=".1" stop-color="#194aad"/><stop offset=".5" stop-color="#248fcb"/><stop offset=".8" stop-color="#2bbfdf"/></linearGradient><linearGradient id="SVGTwKLJbLG" x1="13.98" x2="12.267" y1="4.505" y2="19.79" gradientUnits="userSpaceOnUse"><stop offset=".1" stop-color="#194aad"/><stop offset=".5" stop-color="#248fcb"/><stop offset=".8" stop-color="#2bbfdf"/></linearGradient></defs></g></svg>