<svg xmlns="http://www.w3.org/2000/svg" viewBox="0 0 24 24"><g fill="none"><path fill="#444340" d="M4.016 6.143L10.51 3.02l.645.37l-5.338 2.587l6.423 3.356v1.238z"/><path fill="#fdfdfc" d="M19.765 5.945L13.43 3.033l-.866.277l5.75 2.635l-6.077 3.39v.832z"/><path fill="#6d6d66" d="M4.018 7.063v-.922l8.22 4.426v1.007z"/><path fill="#7f7b6e" d="M12.238 10.15v1.425l7.854-4.55v-.993l-.293-.068z"/><path fill="#7f7b6e" d="m13.414 3.034l6.398 2.944l.279.053L13.523 3z"/><path fill="#827d70" d="M11.18 3.422L5.829 5.993l1.342.699l3.244-1.676v-.763l.765-.447z"/><path fill="#49463d" d="m11.18 3.798l-.785.454v4.131l.785.405z"/><path fill="#696963" d="m10.556 4.937l-1.15.597v2.323l1.15.608z"/><path fill="#21211e" d="M12.561 9.153V3.31l5.71 2.612l-1.398.755l-2.514-1.195v2.674z"/><path fill="#666660" d="M13.125 4.888v-.787L16.5 5.723v.787z"/><path fill="#6f6d60" d="M13.125 8.847V5.03l1.233.558V8.16z"/><path fill="#44423c" d="M11.441 12.287L3.843 8.033l-.838.483v.353l7.17 4.119z"/><path fill="#71716b" d="m3.413 15.474l-.41-6.635l7.31 4.064v7.973L4.881 17.35v-.816l4.305 2.877v-6.002l-4.165-2.447l.14 2.922l-.717.43v1.433l-.258.188z"/><path fill="#716f62" d="m4.38 14.269l-.091-3.828l.714.445l.128 2.956z"/><path fill="#a09b8e" d="M10.312 20.874v-7.978l.316-.175l-.047 8.278z"/><path fill="#494943" d="m10.58 19.097l.049-6.396l.808-.428v7.264z"/><path fill="#777568" d="M10.58 20.998v-1.904l.857.422v.896z"/><path fill="#393935" d="m9.187 14.025l-4.306 2.51l4.306 2.88v-1.32L6.52 16.367l2.667-1.643z"/><path fill="#51504a" d="m9.186 14.721l-2.673 1.646l.443.29l2.231-1.338z"/><path fill="#777366" d="m7.622 17.087l-.677-.432l2.24-1.347v.755z"/><path fill="#393833" d="m7.236 12.23l-2.101 1.218l.017.436l-.71.424v1.439l4.396-2.594l-.596-.343l-2.977 1.728v-.581l2.464-1.437z"/><path fill="#56554d" d="M5.25 14.548v-.6l2.472-1.435l.523.297z"/><path fill="#6c6b65" d="M9.398 11.17v-1.164l.754.418z"/><path fill="#1e1e1b" d="M10.134 11.587v-1.162l-.737.748z"/><path fill="#757165" d="M10.125 11.584v-1.186l1.006.56v1.186z"/><path fill="#989fa4" d="m11.836 12.493l-.468.302l-.021.786l.464-.41l.63.428v-.726z"/><path fill="#33332e" d="M11.344 14.167v-.607l.466-.41l.609.41v-.698l.452.288v1.198l-.452-.303l-.61.395z"/><path fill="#707069" d="m11.332 14.803l.016-.652l.478.228l.595-.356l.466.316v.844l-1.062-.622z"/><path fill="#696862" d="M12.463 11.867v-.428l.773-.45v.618l-.486.435z"/><path fill="#33332d" d="M13.235 11.539v-.554l.482-.283l.552.324v.513l-1.181.714l-.338-.214z"/><path fill="#7a776b" d="M14.266 11.054v-.661l-.554.312z"/><path fill="#e7e7e6" d="M14.266 11.532v-.492l.491.208z"/><path fill="#494841" d="m19.422 8.496l-6.66 3.918v7.108l.925-.634v-6.225l6.25-3.738z"/><path fill="#fffffe" d="m13.899 12.798l-.214-.183l6.224-3.709l-.403-.335l.751-.51l.74.415z"/><path fill="#494841" d="m20.16 7.987l-.74.51l.088.073l.754-.51z"/><path fill="#6b6a64" d="M12.762 20.45v-.942l.926-.623V21z"/><path fill="#9c978a" d="M13.687 21v-8.378l.563.364v7.534z"/><path fill="#575651" d="M3 8.525v.314l7.31 4.065l.343-.2l-7.401-4.332z"/><path fill="#6f6d60" d="m14.248 12.986l-.373-.208L21 8.47l-.018.507z"/><path fill="#827d70" d="m18.996 17.277l-4.746 3.237v-7.548l6.732-3.996l-.588 6.398l-.702.495l.445-5.594l-5.325 3.241v5.29l3.759-2.487l.425.275z"/><path fill="#fff" d="m17.26 16.352l-2.445 1.724v.725l3.702-2.449l-3.503-1.997v.666z"/><path fill="#393833" d="M14.98 15.501v-.464l2.278 1.284l-.385.258zm-.017-1.077v-.2l3.61 2.09l-.169.114z"/><path fill="#393833" d="m14.812 17.95l2.443-1.631l.143.078l-2.586 1.716z"/><path fill="#282723" d="M19.411 15.743c-1.39-.795-4.2-2.412-4.29-2.449l1.016-.628l3.38 1.73z"/><path fill="#fff" d="m18.74 13.418l-1.945-1.153l-.656.407l2.55 1.377z"/><path fill="#6c6b65" d="M18.692 14.015c.08-.96.245-2.915.27-3.064l.908-.526l-.356 3.971z"/><path fill="#949083" d="m20.189 10.131l-.319.248l-.478 5.353l.303.124z"/><path fill="#6c6b65" d="m18.69 14.466l-2.739-1.563l-.2.104l2.939 1.627zm.06-1.135l-1.898-1.105l-.069.042l1.96 1.15z"/></g></svg>