<svg width="765" height="271" viewBox="0 0 765 271" fill="none" xmlns="http://www.w3.org/2000/svg">
<g clip-path="url(#clip0_730_185)">
<path d="M419.506 135.17C420.812 125.311 429.635 111.641 452.847 111.641C476.059 111.641 483.235 121.158 484.235 134.358C484.518 138.194 484.659 141.747 484.659 146.005V188.605H467.518L465.271 178.558H464.224C461.329 184.711 452.682 190.594 441.776 190.594C428 190.594 417.212 182.782 417.212 168.158C417.212 149.417 431.553 142.594 460.529 142.594H464.647V139.899C464.647 132.511 462.235 127.829 452.012 127.829C443.071 127.829 439.8 131.147 438.718 135.17M436.941 165.747C436.941 171.288 441.341 174.405 448.306 174.405C456.259 174.405 464.635 168.97 464.635 159.911V156.511C464.635 156.511 436.941 152.699 436.941 165.747Z" fill="#FF101F"/>
<path d="M417.2 112.829L413.188 132.358C406.176 129.57 397.965 131.006 393.647 135.358C387.8 141.253 388.024 151.253 388.024 156.1V188.617H367.718V113.629H387.435L384.835 125.417H385.882C391.282 114.864 403.412 111.523 417.188 112.829H417.2Z" fill="#FF101F"/>
<path d="M709.424 112.829L705.412 132.358C698.4 129.57 690.188 131.006 685.871 135.358C680.023 141.253 680.247 151.253 680.247 156.1V188.617H659.941V113.629H679.659L677.059 125.417H678.106C683.506 114.864 695.635 111.523 709.412 112.829H709.424Z" fill="#FF101F"/>
<path d="M380.871 81.9814L376.824 100.158H347.694V188.605H326.494V100.158H295.765V81.9814H380.882H380.871Z" fill="#FF101F"/>
<path d="M568.835 83.4762L568.741 188.664H550.788L548.529 178.5H547.482C544.8 184.794 536.976 190.653 525.765 190.653C503.176 190.653 493.341 171.947 493.341 149.417C493.341 124.547 506.294 110.347 527.141 110.347C536.553 110.347 544.365 115.006 548.129 121.912H548.671L548.765 79.5586L568.835 83.488V83.4762ZM514.165 149.559C514.165 162.77 519.282 172.135 531.494 172.135C541.576 172.135 548.682 166.453 548.682 149.841V147.147C548.682 130.817 540.165 125.982 531.929 125.982C519.859 125.982 514.176 134.641 514.176 149.559H514.165Z" fill="#FF101F"/>
<path d="M615.6 111.641C640.165 111.641 650.529 127.688 650.529 149.841C650.529 151.97 650.388 154.805 650.247 157.229H598.976C600.259 169.864 605.941 174.276 615.306 174.276C623.118 174.276 627.518 171.288 629.506 165.758H649.247C646.553 181.523 634.329 190.605 614.882 190.605C590.741 190.605 578.247 177.394 578.247 151.547C578.247 127.123 590.035 111.641 615.6 111.641ZM599.129 143.029H630.094C628.953 132.099 623.282 127.829 614.753 127.829C605.8 127.829 600.412 131.805 599.129 143.029Z" fill="#FF101F"/>
<path d="M279.553 111.641C303.412 111.641 312.212 123.147 313.635 139.758H293.471C292.765 131.947 287.365 127.97 279.271 127.97C268.906 127.97 263.224 135.217 263.224 150.829C263.224 166.441 268.341 174.123 279.129 174.123C286.8 174.123 292.482 169.441 293.471 162.476H313.635C311.647 179.523 300.424 190.594 278.271 190.594C253.271 190.594 242.059 176.252 242.059 151.252C242.059 126.252 253.282 111.629 279.553 111.629V111.641Z" fill="#FF101F"/>
<path d="M135 55.0996C90.8824 55.0996 55 90.982 55 135.1C55 179.217 90.8824 215.1 135 215.1C179.118 215.1 215 179.217 215 135.1C215 90.982 179.118 55.0996 135 55.0996ZM135 67.9584C170.847 67.9584 200.224 96.1937 202.047 131.594C202.106 132.758 202.141 133.923 202.141 135.1C202.141 169.464 175.671 182.194 161.494 184.017C139.071 186.9 120.188 174.794 120.188 151.1C120.188 128.641 145.024 109.194 176.482 118.77L180.553 100.453C169.153 94.9114 156.894 92.3937 144.918 92.3937C98.8706 92.3937 70.0706 126.641 72.7294 157.735C72.4824 157.864 72.1412 158.053 71.8 158.241C69.6941 151.288 68.5647 143.558 68.5647 135.1C68.5647 98.0761 97.9765 67.9584 135 67.9584Z" fill="#FF101F"/>
</g>
<defs>
<clipPath id="clip0_730_185">
<rect width="654.424" height="160" fill="white" transform="translate(55 55.0996)"/>
</clipPath>
</defs>
</svg>
