<svg width="400" height="400" viewBox="0 0 400 400" fill="none" xmlns="http://www.w3.org/2000/svg">
<path d="M200 80C133.824 80 80 133.824 80 200C80 266.176 133.824 320 200 320C266.176 320 320 266.176 320 200C320 133.824 266.176 80 200 80ZM200 99.2882C253.771 99.2882 297.835 141.641 300.571 194.741C300.659 196.488 300.712 198.235 300.712 200C300.712 251.547 261.006 270.641 239.741 273.376C206.106 277.7 177.782 259.541 177.782 224C177.782 190.312 215.035 161.141 262.224 175.506L268.329 148.029C251.229 139.718 232.841 135.941 214.876 135.941C145.806 135.941 102.606 187.312 106.594 233.953C106.224 234.147 105.712 234.429 105.2 234.712C102.041 224.282 100.347 212.688 100.347 200C100.347 144.465 144.465 99.2882 200 99.2882Z" fill="#FF101F"/>
</svg>
