<svg xmlns="http://www.w3.org/2000/svg" viewBox="0 0 24 24"><g fill="none"><path fill="#fff" d="M6.734 6.048L6.44 8.369l-.258 2.114l-.162.688l.019.055c0-.055 0-.106.009-.138l.018-.106l.536.23q.018.693.101 1.38c.019.291.042.725.208 1.182c.138.379.254.988.35 1.5c.06.332.116.623.162.785l.019.05c.138.439.48 1.551.715 1.777a.86.86 0 0 0 .54.633c.092.166.314.577.498.867c.185.291.637.462.84.517c.18.217.605.674.868.739c.074-.213.415-.762 1.15-1.256c.069.245.3.753.645.799a.62.62 0 0 0 .624-.323c.106.032.373.014.581-.323a.5.5 0 0 1 .245-.208l.092-.042c.134-.055.3-.12.503-.277c.29-.221.346-.517.415-.876l.014-.065c.06-.277.245-.919.503-1.274c.176-.25.268-.415.323-.526c.051-.092.079-.143.12-.175c.097-.07.342-.448.448-1.108l.046-.286c.162-.974.314-1.893.402-2.973c0-.59 0-1.896-.042-2.377a22.5 22.5 0 0 0-.646-3.738a16 16 0 0 0-.461-.97l-.125-.036l-1.214-.895l-1.232-.49l-.54-.184h-.526l-.517.152l-.406.282l-.351.046l-.365.037l-.554.295l-.295.35l-.37.462l-.202.296l-.148.277l-.462.212l-.35.125l-.231.124l-.31.254l-.322.097l-.287.046l-.23.037z"/><path fill="#1e1e1e" d="M15.919 15.875c.277-.037.729-.323.309-1.163c.102.277.185.891-.31 1.163m1.703-3.526c.152-.184.346-.637-.11-.997c.12.157.304.568.11.997m-.139.683c.194-.023.499-.194.153-.697c.097.185.207.586-.153.697m-.175.882c.162-.139.439-.48.175-.877c.051.138.065.484-.175.877m-.23 1.094c.322-.051.816-.342.23-1.094c.175.277.378.89-.23 1.094m.396-5.502c.166.43.106 1.076.056 1.348h-.056c0-.268-.009-.886-.064-1.223c-.07-.416-.047-.628-.102-1.006c-.041-.305-.24-1.062-.337-1.399c-.037-.277-.138-.937-.272-1.384c-.162-.564-.739-1.025-.97-1.177c-.23-.157-1.029-.771-1.3-.91c-.269-.138-1.312-.507-1.556-.646c-.24-.138-1.066 0-1.311.254a.64.64 0 0 1-.554.185c-.618-.037-1.085.461-1.241.71c-.208.213-.633.702-.665.924c-.046.276-.877.42-.946.447c-.07.028-.323.254-.503.393c-.176.138-.268.069-.351.046c-.065-.028-.314.078-.434.138l-.101-.07l.729-.165l.623-.411c.323-.212.738-.106.946-.517c.194-.383.452-.535.702-.937a1.52 1.52 0 0 1 1.246-.655c.378 0 .35-.139.715-.31c.37-.166.877-.152 1.19-.124c.31.028 1.432.558 1.676.67c.663.425 1.28.919 1.842 1.471c.281.347.498 1.007.581 1.791c.079.785.31 1.191.393 1.625c.078.434.041.909.064.937z"/><path fill="#a0a0a0" d="M11.47 12.796c.184.245.544.25.7.222c.771-.097.924-.476 1.053-.896c.138-.415-.268-.364-.378-.364c-.176.014-.568.24-.771.24c-.337.027-.674-.323-.997-.056c-.185.148-.083.439 0 .573c.032.157.305.166.392.276z"/><path fill="#979797" d="M6.024 10.005c.032-.494.263-1.939.263-1.939c0-.258.037-.881.23-1.329l.204-.715h.3c-.06.124-.166.415-.125.572l.046.12c.139.323.462 1.07-.29 1.698c-.023.06-.083.342-.107 1.025v.785a.34.34 0 0 0-.138-.028a.7.7 0 0 1-.383-.19"/><path fill="#000" d="M6.688 5.976h.401l-.028.065c-.032.06-.069.161-.097.267s-.046.208-.023.277c.142.267.221.562.231.863a1.25 1.25 0 0 1-.48.997a8 8 0 0 0-.101.993v.863l-.065-.033a.3.3 0 0 0-.12-.027a.74.74 0 0 1-.415-.203l-.019-.014V10q.078-.86.23-1.708l.029-.17l.009-.06c0-.264.037-.887.23-1.34zm-.402 2.09l.046.005l-.01.065l-.11.72c-.06.415-.124.877-.143 1.126c.12.102.245.157.342.166c.032 0 .06 0 .092.01v-.72q.011-.476.078-.947a.3.3 0 0 1 .033-.092v-.014l.009-.004a1.15 1.15 0 0 0 .461-.933c-.004-.295-.115-.553-.184-.715v-.005a.5.5 0 0 1-.046-.12a.6.6 0 0 1 .023-.323c.018-.078.046-.157.069-.217h-.19l-.198.688c-.189.439-.23 1.052-.226 1.31v.01l-.046-.005z"/><path fill="#6b6b6b" d="M5.654 9.46c-.004-.323.116-1.07.633-1.394c0 0-.231 1.445-.263 1.938c.129.111.267.185.387.185a.4.4 0 0 1 .134.037v-.79v.813c-.217-.005-.697-.17-.89-.785z"/><path fill="#5e5e5e" d="M6.047 11.089c-.023.11-.023.369.161.503c-.216.397-.489 1.301.148 1.763c-.19.397-.383 1.255.35 1.523c.093 0 .315.226.49 1.121c-.018.268.037.868.406 1.15c0 .175.097.683.499 1.301c.055.088.207.263.378.263c.019.153.148.526.42.762c.139.332.25.697.85.637c.082.078.161.175.244.277c.24.3.508.632.923.59c.088-.203.337-.664.605-.867a1.66 1.66 0 0 0 .489-.572c.018.216.138.669.461.77c.323.102.637-.092.753-.198c.189.028.614-.056.784-.572a1.8 1.8 0 0 0 .762-.31c.35-.253.415-.517.517-.914l.101-.387c.074-.356.342-1.196.84-1.662c.222-.046.702-.355.854-1.26c.263-.069.683-.392.24-1.121a.86.86 0 0 0 .162-.84c.157-.056.401-.277.152-.697c-.01 0 0-.019.014-.046c.065-.12.272-.494-.139-.965l.028-.49c.046-.271.11-.918-.055-1.342a.7.7 0 0 1-.01-.19c0-.184-.004-.475-.055-.747a4 4 0 0 0-.138-.49c-.093-.295-.203-.641-.254-1.135c-.083-.784-.3-1.44-.582-1.79a5 5 0 0 0-.6-.554c.18.36.397.812.476 1.015c.321 1.226.54 2.476.65 3.738c.047.48.047 1.787.042 2.377a34 34 0 0 1-.448 3.263c-.106.656-.35 1.034-.447 1.108c-.042.028-.07.083-.12.17a4 4 0 0 1-.323.527a4 4 0 0 0-.517 1.343c-.07.355-.125.646-.416.877c-.203.152-.369.217-.503.277l-.092.037a.46.46 0 0 0-.245.207c-.207.337-.475.356-.581.324a.62.62 0 0 1-.623.323c-.347-.046-.577-.554-.646-.799a3.04 3.04 0 0 0-1.154 1.26c-.259-.07-.684-.526-.863-.743c-.203-.05-.656-.23-.84-.517a15 15 0 0 1-.499-.867a.87.87 0 0 1-.54-.633c-.23-.226-.577-1.338-.715-1.777l-.019-.055a9 9 0 0 1-.161-.785c-.097-.507-.213-1.117-.351-1.495a4 4 0 0 1-.208-1.182a15 15 0 0 1-.101-1.38l-.536-.23z"/><path fill="#c7c7c7" d="M6.895 6.598a5.1 5.1 0 0 0-.23 1.8c.729-.623.415-1.366.276-1.684z"/><path fill="#949494" d="M6.203 11.044c-.046.143-.046.397.208.6c-.212.217-.508.826 0 1.527c.032.047.092.213.065.55c-.024.415.027.798.475 1.089c.092.194.29.642.415 1.006c-.037-.152-.069-.337-.106-.54c-.097-.508-.212-1.121-.35-1.5a4 4 0 0 1-.208-1.181a15 15 0 0 1-.102-1.38z"/><path fill="#8e8e8e" d="M16.09 16.129c.553-.231.664-.67.756-1.039c.046-.184.093-.35.18-.461c.217-.268.162-.647.107-.799c.175-.235.207-.66.203-.84c.193-.221.161-.54.124-.674c.092-.3-.046-.83-.124-1.061a238 238 0 0 0-.065-2.156a5.6 5.6 0 0 0-.29-1.541c-.065-.166-.089-.212-.213-1.2a1.9 1.9 0 0 0-.73-1.366c.12.249.231.489.282.623c.322 1.225.54 2.476.65 3.738c.047.48.047 1.786.043 2.377q-.133 1.495-.398 2.972l-.046.291c-.11.656-.355 1.034-.452 1.108l-.028.028"/><path fill="#6c6c6c" d="m17.133 7.592l.272.937c.078-.023.268-.047.379.069l.027.041s.102-.447-.069-.881c-.032-.083-.337-.226-.61-.166"/><path fill="#353535" fill-rule="evenodd" d="m17.194 7.628l.245.845a.5.5 0 0 1 .152-.01a.5.5 0 0 1 .194.07l.009-.176a1.5 1.5 0 0 0-.106-.6a.73.73 0 0 0-.498-.13zm.665 1.02v-.005a1.8 1.8 0 0 0-.074-.905a.2.2 0 0 0-.033-.045a.3.3 0 0 0-.055-.047l-.152-.069a.8.8 0 0 0-.416-.032l-.05.01l.295 1.028l.046-.014a.5.5 0 0 1 .162-.013a.3.3 0 0 1 .17.073l.019.028l.055.125z" clip-rule="evenodd"/><path fill="#8e8e8e" d="M17.81 8.638c.06.139-.018.434-.069.573a1.2 1.2 0 0 1-.636.646c-.499.221-.176 1.2-.065 1.2c.184-.042 1.108-.36 1.325-1.2c.18-.702-.157-1.237-.328-1.51a2 2 0 0 1-.078-.129l-.037-.078a5 5 0 0 1-.18-.383c.17.434.069.877.069.881"/><path fill="#353535" d="m17.7 7.777l-.004-.01l.07-.06l.017.033c.033.083.111.24.18.378l.037.083l.074.125c.171.272.522.822.332 1.542a1.63 1.63 0 0 1-.692.927a2.1 2.1 0 0 1-.664.31h-.01a.1.1 0 0 1-.055-.019a.2.2 0 0 1-.032-.042a1.5 1.5 0 0 1-.153-.494a1 1 0 0 1 .028-.424a.47.47 0 0 1 .259-.31a1.15 1.15 0 0 0 .613-.618q.073-.209.088-.429a.4.4 0 0 0-.018-.11l-.01-.015l.005-.013s.101-.439-.065-.854m.185.387c.014.231-.019.416-.028.471a.4.4 0 0 1 .023.134l-.014.166a1.24 1.24 0 0 1-.738.97a.37.37 0 0 0-.212.249a1 1 0 0 0-.028.383q.03.24.138.457l.019.018a2.2 2.2 0 0 0 .623-.29c.277-.185.55-.471.65-.878c.176-.678-.152-1.2-.322-1.472l-.079-.134l-.037-.074z"/><path fill="#040404" d="M17.187 10.67c.067 0 .12-.126.12-.282s-.053-.281-.12-.281c-.066 0-.12.126-.12.281s.054.282.12.282"/><path fill="#8e8e8e" d="m5.584 10.67l.07-1.205c.147.406.498.716.757.73c.203.009.253.138.253.207v.757c0 .143-.092.185-.133.185c-.739-.217-.937-.54-.947-.674"/><path fill="#353535" d="m5.608 9.46l.088-.014c.07.198.194.37.323.494c.139.13.277.198.392.208c.116.004.19.046.24.097a.25.25 0 0 1 .06.156v.757c0 .083-.023.139-.064.18a.17.17 0 0 1-.116.047h-.013a2 2 0 0 1-.762-.374c-.148-.13-.212-.254-.217-.342zm.079.194l-.056 1.015c0 .046.047.152.185.272c.138.116.36.25.72.351a.06.06 0 0 0 .046-.023c.019-.018.037-.046.037-.11V10.4a.15.15 0 0 0-.037-.092c-.028-.032-.083-.064-.175-.07c-.139-.008-.305-.096-.448-.23a1.3 1.3 0 0 1-.272-.355"/><path fill="#000" d="M6.475 10.864c.054 0 .097-.087.097-.194s-.043-.194-.097-.194c-.053 0-.097.087-.097.194s.044.194.097.194"/><path fill="#353535" d="m6.904 6.322l-.244-.07l.014-.046l.24.074l-.01.046zm-.018.184l-.282-.115l.014-.042l.286.111zm.074.153a6 6 0 0 1-.383-.111l.014-.046c.087.027.281.092.378.115l-.01.046zm.106.24a6 6 0 0 1-.53-.213l.018-.046c.083.042.3.139.526.212zm.083.221a4.6 4.6 0 0 1-.692-.268l.018-.041c.13.06.448.198.683.268l-.009.046zm0 .282a3.6 3.6 0 0 1-.762-.282l.019-.041c.125.064.452.212.752.277zm.042.309a3 3 0 0 1-.859-.314l.023-.037c.139.079.499.25.84.305zm-.536.157a4 4 0 0 1-.378-.162l.023-.041c.083.046.226.106.369.157c.148.055.3.092.402.092v.046a1.5 1.5 0 0 1-.416-.092m.222.36a2.8 2.8 0 0 1-.6-.226L6.3 7.96c.106.056.374.18.586.222zm-.42.092a2 2 0 0 1-.208-.092l.023-.046c.046.027.12.06.199.092a1 1 0 0 0 .24.06l-.005.046a1 1 0 0 1-.25-.064zm.138.342a2 2 0 0 1-.383-.13l.019-.041a2 2 0 0 0 .369.125zm-.028.35a3 3 0 0 1-.41-.129l.018-.046c.092.037.296.106.402.13zm0 .222c-.175 0-.364-.065-.438-.097l.018-.046c.07.032.254.097.425.097v.046zm-.277.254a2 2 0 0 1-.203-.074l.019-.042c.046.019.115.047.194.07a1 1 0 0 0 .23.041v.046a.8.8 0 0 1-.244-.046zm.24.31a1.2 1.2 0 0 1-.484-.176l.023-.037c.065.046.254.138.462.166z"/><path fill="#a0a0a0" d="M8.183 8.879c-.49-.139-.517-.462-.406-.577c.364-.379 1.015-.6 1.38-.646c.29-.033.318-.139.295-.194c-.13-.19-.037-.328.028-.378l.798.138l.77.295c.25.25.416 1.33.283 1.33c-.236 0-.522-.245-.647-.388a1.34 1.34 0 0 0-1.232-.508c-.877.116-1.108.923-1.27.923zm4.338-.282c.259.379.531.157.637 0a1.28 1.28 0 0 1 1.039-.77c.627-.065 1.02.23 1.14.392c.318.461.683.535.904.508c.148-.019.12-.079.093-.213c-.125-.655-.393-.798-.568-.937c-.185-.157-.618-.337-.863-.452c-.245-.11-1.219.06-1.491.185c-.268.124-.568.434-.674.544s-.175.448-.217.559c-.032.092-.014.161 0 .184m-1.744 2.493c.738-.194.688-1.427.567-2.017c-.161.143-.535.503-.729.77c-.194.268.028.942.162 1.247"/><path fill="#121212" d="M10.722 11.943c-.106-.29.009-.517.083-.59a.7.7 0 0 0-.176.184c-.11.166-.101.498 0 .669c.139.24.356.185.462.11c-.11.033-.23-.013-.37-.373m2.663-.646l-.106-.125c.06.106.18.365.189.53c.014.213-.185.49-.245.573c-.05.088-.184.046-.175.074c.014.018.06.037.083.042c.23.138.415-.213.498-.6c.065-.319-.133-.462-.24-.494zm-2.16.826c.014.083.175.014.217 0c.217.184.461.268.715.268c.208 0 .517-.208.646-.31c.231 0 .259-.092.245-.138c-.014-.056-.185 0-.268.055c-.06.042-.434.305-.706.305c-.268 0-.526-.208-.632-.263c-.111-.055-.231 0-.217.083"/><path fill="#a40a14" d="M14.645 11.758c-.167 0-.213-.139-.199-.222c.01-.092.152-.226.199-.37c.046.144.184.278.203.37c.009.088-.023.222-.203.222"/><path fill="#fff" d="M14.525 11.51c0 .041.032.156.106.166c-.05.014-.162-.023-.106-.166"/><path fill="#a40a14" d="M14.267 11.2c-.143 0-.185-.116-.175-.194c.013-.074.138-.19.175-.31c.042.12.162.236.175.31c.01.078-.018.194-.175.194m.637-.282c-.19 0-.245-.161-.231-.263c.014-.106.175-.268.23-.434c.056.166.213.328.232.434c.009.102-.028.263-.231.263"/><path fill="#353535" d="M12.563 10.586a.12.12 0 0 0 .092-.101c0-.07 0-.711-.013-.896c-.01-.184-.023-.53-.023-.798c0-.263 0-.572.133-.84c.139-.263.323-.346.448-.448c.092-.078.037-.124 0-.138c-.138.064-.452.267-.581.558a1.6 1.6 0 0 0-.153.633l.028 1.495c0 .13-.014.55.07.535"/><path fill="#262626" d="M8.6 9.032c-.038-.07 0-.323.83-.508c.581-.125 1.08.19 1.32.42c.18.17-.143.157-.268.157c-.166 0-.37.166-.988.268c-.623.092-.853-.268-.895-.337m5.288-.6a1.54 1.54 0 0 0-.826.641c.092.097.245 0 .448 0s.461.305.96.254c.47-.046.812-.323.904-.461c-.203-.434-.932-.6-1.486-.434"/><path fill="#a0a0a0" d="M9.046 9.885c.258.078.623-.092.77-.185c-.032-.032-.156-.087-.405-.055q-.354.03-.702-.042c0 .06.078.203.337.277zm6.221-.434c-.507.572-1.024.323-1.218.125c.582.097 1.108-.222 1.218-.236c.088-.014.037.07 0 .111"/><path fill="#030303" d="M8.078 7.523c-.079.12-.185.161-.231.18c-.046.041-.018.069.037.055s.54-.392.678-.462c.134-.069.337-.11.568-.097c.23.014.24-.027.406-.046c.162-.009.176.139.31.139c.138 0 .189-.065.369-.023c.17.041.115.124.24.124c.12 0 .268.028.415.07c.152.046.314.138.383.055c.065-.083-.07-.277-.286-.36c-.217-.088-.282.055-.582-.046c-.295-.093-.336 0-.461 0c-.12 0-.379-.139-.485-.111s-.161.014-.378.028s-.392.115-.526.129c-.139.014-.37.208-.462.36z"/><path fill="#353535" d="M13.108 7.522c.212-.162.438-.231.521-.24a3 3 0 0 1 .503-.07c.314-.023.61-.147.905.042c.175.11.23.055.31.11c.138.098.165.148.18.14a.43.43 0 0 0-.315-.333c-.194-.037-.346-.152-.553-.185a3 3 0 0 0-.296-.027a4.2 4.2 0 0 0-.988.124a.8.8 0 0 0-.35.199c-.153.221.023.277.078.235z"/><path fill="#1e1e1e" d="M10.339 14.519c.3.018.877.041 1.061 0l.148-.042c.245-.069.586-.166.974-.074l.115.028c.393.092.568.139.803.088c.204-.046.383-.185.457-.25l-.129-.212l-.055-.018c-.028 0-.203.064-.208.064a1.15 1.15 0 0 1-.66-.023a.94.94 0 0 1-.545-.475h-.369a1.2 1.2 0 0 1-.17.272a.65.65 0 0 1-.333.231a.52.52 0 0 1-.406-.074h-.005c-.124.176-.244.254-.35.277c-.074.019-.19-.023-.24-.046l-.005.06q-.029.098-.079.194z"/><path fill="#a0a0a0" d="M11.4 14.519c-.184.041-.76.018-1.06 0q-.057.117-.13.226c.415.055 1.338.138 1.948.037c.23-.037.572-.019.83-.01l.264.01c.212 0 .669-.042.909-.31a.46.46 0 0 1-.263-.203c-.074.07-.254.204-.457.25c-.23.046-.416.004-.803-.088l-.116-.028c-.387-.092-.729.005-.969.074z"/><path fill="#1e1e1e" d="M6.628 11.647c0-.125-.12-.171-.176-.185c.037.037.093.116 0 .185c-.124.083-.152.194-.124.364c.023.134.064.037.083-.027c.041-.406.217-.185.217-.337"/><path fill="#1e1e1e" d="M6.748 12.11c-.6-.2-.753.7-.273.826c-.258-.365-.23-.785.273-.827"/><path fill="#1e1e1e" d="M6.881 12.991c.079-.378-.203-.448-.415-.277c.078-.023.254-.046.295.023c.056.088-.055.254.12.254m-.327.632c.097-.092.309-.244.383-.129c.12.185.11-.106-.056-.157c-.138-.046-.277.157-.323.286zm.784.305a.32.32 0 0 1 0-.337c-.304.37.097.674.153.618c.055-.055-.042-.11-.148-.277zm-.927.295c.106-.046.253-.055.253-.226c0-.157-.166.134-.253.226m.392.014a.4.4 0 0 0-.23.277c-.029-.166.068-.277.202-.36c.106-.07.143-.263.148-.35c.023.12.032.378-.12.433"/><path fill="#1e1e1e" d="M6.775 14.923c-.77 0-.646-1.117-.461-1.615c-.23.775.07 1.528.42 1.477c.281-.046.475-.268.512-.397c.092.36-.295.535-.47.535m-.433-3.304c-.337 0-.356-.346-.324-.517h.028c.065.434.296.49.296.517m1.07 3.244c.346-.198.333-.429.282-.516c.01.046-.037.184-.282.378c-.337.245-.304.54-.244.66c-.019-.125.004-.397.244-.522m.254.716c-.337-.014-.406.124-.443.226c.175-.17.499-.115.59-.17c.098-.056.084-.25.047-.407c-.037-.12.037-.282.078-.35c-.106.055-.29.207-.216.42c.092.267-.056.28-.056.28m-.374.77c-.11.55.171.827.36.827c.176-.028.203-.226.217-.31s-.092-.253-.041-.433c.046-.148.018-.185 0-.185c-.065 0-.134.254-.079.522a.4.4 0 0 1 0 .193c-.05.176-.161.079-.244-.014c-.263-.3-.143-.761.055-.895c.185-.124.166-.138.138-.124c-.23.009-.369.286-.41.415zm1.159.139c-.106-.185-.208-.6.258-.826a.77.77 0 0 0-.258.83z"/><path fill="#1e1e1e" d="M8.318 17.803c-.282-.221-.254-.576-.204-.729c-.244.59.204.831.337.983c.139.152.093.416 0 .531c-.207.245-.498-.521-.521-.66c-.032-.157-.06-.323-.139-.448c-.133-.198-.092-.304-.055-.332h-.07c-.045.01-.082.175.125.785c.254.752.605.978.785.794c.175-.185.092-.647-.258-.924m.581-.909c-.13-.526.332-.9.582-1.02a.876.876 0 0 0-.679 1.159c.12.36.05.655 0 .757c.088-.079.226-.37.092-.896z"/><path fill="#1e1e1e" d="M8.802 19.05a.34.34 0 0 1-.296-.277c.074.088.157.111.185.111c-.018-.249.11-.346.18-.369c-.162.17-.07.43 0 .535c-.092.139-.014.393.028.24c.032-.124.175-.212.244-.24a.72.72 0 0 0-.175.476c-.337-.222-.25-.411-.166-.476m1.228-.84c-.231-.507-.111-.909-.01-1.061c-.277.332-.23.715-.138.978c.115.296.281.6.05.854c-.138.152-.249.258-.281.49a1.6 1.6 0 0 0 0 .392c.055.378.83 1.315 1.246 1.107c-.47 0-1.177-.964-1.158-1.403c.009-.189.083-.286.194-.42c.12-.143.184-.272.221-.378c.079-.236-.037-.355-.124-.559m-1.593-1.089a.37.37 0 0 0 .028-.37c.018.075-.042.162-.083.24c-.065.125-.162.449.027.49a.37.37 0 0 1 .028-.36M6.25 11.578c-.287.342-.67 1.177.078 1.79c-.24-.248-.59-.95-.079-1.79m.821 4.297a2.3 2.3 0 0 0-.365-.997l.07-.028c.203.226.295.744.35 1.025c.047.222.125.521.162.646v.166c-.042-.06-.12-.17-.217-.812"/><path fill="#1e1e1e" d="M9.79 20.13c-.573.167-.84-.378-.905-.673h.055c.236.595.628.618.799.558zm-.568-1.375c0-.166.004-.17.189-.29c.152-.102.152-.287.138-.37c.051.102.148.37-.097.453c-.175.06-.226.157-.23.207m1.532-.697c-.254-.226-.143-.683-.055-.881c-.116.078-.31.328-.19.697c.148.461.416.392.582.646c.162.25.01.503-.259.572a.86.86 0 0 0-.406.24c-.258.356-.027.679.12.799c-.23-.356-.184-.739.203-.9c.176-.074.37-.153.476-.388c.161-.37-.162-.508-.476-.785zm.12 2.94c.47-.784.918-.881 1.135-1.458c-.434.406-.886.73-1.135 1.458m.295-3.346c-.23-.226-.166-.683-.106-.881a2 2 0 0 0-.124.738c.032.226.341.392.581.688a1.3 1.3 0 0 0-.35-.545"/><path fill="#1e1e1e" d="M11.613 16.331c-.047.162-.065.563.18.97c.309.517.567 1.61.175 2.28c.11-.291.258-.988.028-1.662c-.088-.254-.254-.43-.356-.66c-.092-.198-.138-.508-.027-.928"/><path fill="#1e1e1e" d="M12.725 20.398c-.646.027-.775-.54-.757-.831l.083-.166c.101.595.346.784.568.803c.507.046.872-.628.863-1.085a.96.96 0 0 0-.185-.572c-.148-.199-.37-.36-.461-.476c-.642-.784-.296-1.43-.046-1.652c-.342.633-.185 1.145.064 1.482c.226.304.508.461.683.812c.23.475.01 1.006-.272 1.417a.83.83 0 0 1-.54.263z"/><path fill="#1e1e1e" d="M13.819 16.282c.313.277.406.628.175 1.186c-.23.577.194.937.226 1.486a1.29 1.29 0 0 1-.48 1.053a.64.64 0 0 1-.581.092c1.246-.374.923-1.468.835-1.62c-.17-.332-.226-.53-.198-.785c.06-.53.35-.909.023-1.412M10.832 20.1c.379-.028 1.085-.268.891-1.015c.01.263-.157.84-.89 1.015"/><path fill="#1e1e1e" d="M15.29 17.887c.352-1.167.776-1.541.965-1.578c-.655.577-.673 1.366-.932 2.141c-.277.813-.59.905-1.26 1.131c.85-.387.988-.89 1.228-1.694m-.253-1.213c.092.18.203.632-.12.992c.078-.18.217-.623.12-.992m1.135-.351c.356-.102 1.016-.554.896-1.357a1.64 1.64 0 0 1-.896 1.357m-.687-1.343c.194 1.084-.743.923-.933.572c.083.185.36.503.785.323c.35-.138.392-.646.365-.674c-.028-.027.23.157.406-.069c.032-.05.083-.203 0-.392c.014.226-.083.586-.623.24m1.352-.379c-.032.134-.212.323-.3.406c.125-.138.11-.406.245-.549c.106-.11.304-.092.392-.07c-.097.015-.305.08-.337.213m.24-2.03c-.12.082-.088.276-.092.364c-.139-.07-.107-.31-.056-.365c.056-.055.476-.447.476-.378c0 .07-.245.323-.323.378zm-.162.853c.056.36-.212.365-.35.323c.037.065.147.171.3.07c.147-.102.097-.305.05-.393m-.337-.35c-.032.152-.013.415.3.295c-.092.01-.276-.037-.3-.296M6.9 11.938c-.092-.221-.184-.448-.29-.632l.115-.074c.115.199.212.434.3.66l.087.203c.06.138.12.272.185.378a.7.7 0 0 0 .203.231v.005h.005c.184.157.503.378.844.558c.333.176.674.3.951.286l.106-.198c.042-.125.153-.203.277-.258c.125-.056.282-.097.443-.139l.028-.01c.35-.091.725-.202.97-.456l.091.101a2.2 2.2 0 0 1-1.047.494c-.166.046-.319.088-.43.139c-.124.05-.184.11-.207.175v.01l-.01.009q-.133.243-.235.503l-.027.092c-.028.092-.07.217-.116.328a1 1 0 0 1-.11.212a.36.36 0 0 1-.167.139a.25.25 0 0 0-.11.083a.3.3 0 0 0-.065.138q-.013.075.023.139c.018.032.065.069.148.092c.175.055.429.041.669-.028a1.06 1.06 0 0 0 .554-.337c.138-.189.235-.369.277-.549c.027-.11.124-.272.106-.374c.018.111.055.25.032.36a.22.22 0 0 0 .148.014c.083-.018.194-.088.314-.258c.027-.042.277-.333.304-.384c-.018.028-.138.37-.152.397c.09.05.195.065.295.042a.6.6 0 0 0 .291-.208c.176-.217.3-.549.35-.83l.135.004c.014.139.069.36.184.563c.107.203.268.379.494.443c.226.078.471.078.697 0l.014-.004l.083-.024a.2.2 0 0 1 .088 0a.15.15 0 0 1 .083.047c.032.037.06.083.083.124l.01.01q.039.069.091.138c.07.074.194.277.434.263c-.277.018-.429-.06-.53-.17a1 1 0 0 1-.111-.158v-.009c-.033-.046-.046-.078-.074-.101a.03.03 0 0 0-.014-.01a.1.1 0 0 0-.037 0l-.064.019l-.019.004l-.078.028c-.153.037-.37.07-.693-.023c-.267-.078-.457-.29-.577-.508a2 2 0 0 1-.138-.332c-.07.222-.17.448-.31.614a.7.7 0 0 1-.36.254a.55.55 0 0 1-.405-.06a.65.65 0 0 1-.356.263a.36.36 0 0 1-.212-.014a1.9 1.9 0 0 1-.273.512c-.129.18-.373.314-.627.383c-.259.074-.536.093-.739.037a.38.38 0 0 1-.23-.161a.32.32 0 0 1-.037-.231a.5.5 0 0 1 .092-.203a.4.4 0 0 1 .17-.125a.23.23 0 0 0 .102-.092a1 1 0 0 0 .093-.185a3 3 0 0 0 .11-.309l.028-.101l.074-.185a2.3 2.3 0 0 1-.942-.3a5.7 5.7 0 0 1-.863-.568a1 1 0 0 1-.244-.277a3.2 3.2 0 0 1-.277-.609zm9.872.074c-.152.19-.341.378-.544.48c-.171.092-.36.29-.53.512c-.167.222-.407.402-.486.554c.042.046.033.203.056.263c-.065-.152-.3-.328-.485-.429a2 2 0 0 0-.508-.194c.139.032.374-.032.568.074c.13.07.259.157.355.268c.083-.157.222-.393.393-.619c.17-.23.378-.447.581-.554c.176-.087.351-.258.499-.443c.148-.184.378-.309.438-.424a3 3 0 0 1-.337.507zm-3.253.886a3 3 0 0 1-.554-.194l.06-.124c.175.083.355.138.521.184l.171.046c.208.065.438.323.526.554a1.23 1.23 0 0 0-.724-.466m2.021 1.43c.014.052.148.393.175.416c-.06-.046-.258-.221-.3-.369a1 1 0 0 1-.032-.198v-.051a.5.5 0 0 0-.014-.12l-.023-.185c.046.046.148.106.157.162l.014.138v.046c.005.06.01.12.023.167zm-.868.66c-.143-.105-.152-.304-.161-.433v-.01c.01.107.138.26.235.329a.56.56 0 0 0 .6.018c-.3.162-.526.203-.674.092z"/></g></svg>