<svg xmlns="http://www.w3.org/2000/svg" viewBox="0 0 24 24"><g fill="none"><path fill="url(#SVGlext1c5j)" d="M12.834 18.947L14.177 21l5.323-7.794h-5.174l-3.884 5.68l-3.663-5.164l2.32-.018l1.952 2.735l.68-1.022l-1.969-2.77H4.5l5.915 8.327l4.582-6.71h2.313l-3.178 4.596l-.61-.927z"/><path fill="url(#SVGs4kxThxH)" d="m10.442 5.115l3.884 5.679H19.5L14.177 3l-1.343 2.053l.688 1.014l.61-.926l3.178 4.596h-2.313l-4.582-6.71L4.5 11.352h5.262l1.97-2.77l-.68-1.022L9.1 10.296l-2.321-.018z"/><defs><linearGradient id="SVGlext1c5j" x1="4.137" x2="19.855" y1="16.748" y2="16.748" gradientUnits="userSpaceOnUse"><stop stop-color="#fbc926"/><stop offset=".006" stop-color="#fbc926"/><stop offset=".253" stop-color="#fffbcc"/><stop offset=".298" stop-color="#f8ebb9"/><stop offset=".388" stop-color="#e7d08f"/><stop offset=".512" stop-color="#d1aa55"/><stop offset=".596" stop-color="#c3922e"/><stop offset=".823" stop-color="#e4c878"/><stop offset=".871" stop-color="#eed688"/><stop offset="1" stop-color="#fffbcc"/></linearGradient><linearGradient id="SVGs4kxThxH" x1="4.137" x2="19.855" y1="7.101" y2="7.101" gradientUnits="userSpaceOnUse"><stop stop-color="#fbc926"/><stop offset=".006" stop-color="#fbc926"/><stop offset=".253" stop-color="#fffbcc"/><stop offset=".298" stop-color="#f8ebb9"/><stop offset=".388" stop-color="#e7d08f"/><stop offset=".512" stop-color="#d1aa55"/><stop offset=".596" stop-color="#c3922e"/><stop offset=".823" stop-color="#e4c878"/><stop offset=".871" stop-color="#eed688"/><stop offset="1" stop-color="#fffbcc"/></linearGradient></defs></g></svg>