<svg xmlns="http://www.w3.org/2000/svg" viewBox="0 0 24 24"><g fill="none"><path fill="url(#SVGAgIBxc6D)" d="M13.5 4.73c0-.37.2-.71.525-.9l1.14-.67a1.16 1.16 0 0 1 1.17 0l1.14.67a1.05 1.05 0 0 1 .525.9v11.96c0 .76-.41 1.455-1.075 1.835l-.38.215l-4.295-2.475l1.07-.63a.37.37 0 0 0 .18-.32V4.725zm-1 3.33a2.17 2.17 0 0 0-1.575.224l-3.85 2.19A2.11 2.11 0 0 0 6 12.31v.346l4 2.31v-1.28c0-.135.07-.25.18-.32l1.39-.815a.36.36 0 0 1 .36 0l.57.335zM6 13.81v2.88c0 .76.41 1.455 1.075 1.835l3.85 2.19a2.17 2.17 0 0 0 2.15 0l2.46-1.4z"/><defs><linearGradient id="SVGAgIBxc6D" x1="12" x2="12" y1="3" y2="21" gradientUnits="userSpaceOnUse"><stop stop-color="#0584be"/><stop offset=".78" stop-color="#244e78"/></linearGradient></defs></g></svg>