<svg xmlns="http://www.w3.org/2000/svg" viewBox="0 0 24 24"><g fill="none"><path fill="#33363c" fill-rule="evenodd" d="M16.91 3a1.09 1.09 0 0 0-1.091 1.091v3.84a7.092 7.092 0 1 0 3.273 5.98V4.09A1.09 1.09 0 0 0 18 3zm-1.091 10.91a3.819 3.819 0 1 0-7.638 0a3.819 3.819 0 0 0 7.638 0" clip-rule="evenodd"/><path fill="url(#SVGMJWoeeJe)" d="M12 6.818a7.07 7.07 0 0 1 3.819 1.113v5.434h-.039a3.819 3.819 0 0 0-7.56 0H4.93A7.09 7.09 0 0 1 12 6.818"/><defs><linearGradient id="SVGMJWoeeJe" x1="16.364" x2="7.908" y1="9" y2="9" gradientUnits="userSpaceOnUse"><stop stop-color="#222529"/><stop offset="1" stop-color="#131519" stop-opacity="0"/></linearGradient></defs></g></svg>