<svg fill="none" version="1.1" viewBox="0 0 128 128" xmlns="http://www.w3.org/2000/svg">
 <path d="m45.144 18.652-5.596-2.4801c-0.42204-0.19074-0.42204-0.7903 0-0.98107l5.5007-2.3983c1.3343-0.58596 2.3828-1.6352 2.9682-2.9706l2.3964-5.5052c0.19058-0.42243 0.78962-0.42243 0.98031 0l2.3962 5.5052c0.58556 1.3354 1.6339 2.3847 2.9682 2.9706l5.5007 2.3983c0.42204 0.19077 0.42204 0.79034 0 0.98107l-5.5007 2.3983c-1.3343 0.58592-2.3827 1.6353-2.9682 2.9706l-2.3962 5.4916c-0.1907 0.43598-0.78973 0.42238-0.98031 0l-2.3147-5.3962c-0.57186-1.3355-1.6338-2.3983-2.9545-2.9842zm-18.043 37.01-3.5537-8.2578 0.02729 0.01371c-0.88496-2.0304-2.4916-3.6656-4.5204-4.565l-8.5642-3.7882c-0.65355-0.28616-0.65355-1.2128 0-1.4989l8.4144-3.6792c2.0287-0.88568 3.6489-2.5073 4.534-4.5377l3.6625-8.4076c0.28593-0.65415 1.2119-0.65415 1.4978 0l3.6625 8.4076c0.88508 2.0303 2.5053 3.652 4.534 4.5377l8.4009 3.6656c0.6535 0.28616 0.6535 1.2128 0 1.4989l-8.4009 3.6656c-2.0287 0.88568-3.6489 2.5072-4.534 4.5377l-3.6625 8.4076c-0.28593 0.65415-1.2119 0.65415-1.4978 0zm74.792-35.879h-30.744c-1.879 0-3.404 1.5262-3.404 3.4067 0 1.8804 1.525 3.4066 3.404 3.4066h30.744c5.133 0 9.2994 4.1698 9.2994 9.307v44.423l-8.7276-7.0723c-0.27211-0.21771-0.55769-0.43553-0.84328-0.65335l-9.1e-4 -6.86e-4c-0.55827-0.40878-1.1437-0.80397-1.7428-1.1718-0.29963-0.19085-0.61274-0.36799-0.91225-0.53152-0.38128-0.20434-0.76255-0.40879-1.1437-0.59952-0.87149-0.4361-1.77-0.79037-2.6823-1.1037-0.31322-0.10902-0.61274-0.20445-0.92584-0.29976-3.5945-1.0765-7.3933-1.3218-11.11-0.70866-0.13611 0.02731-0.26891 0.05108-0.4016 0.07497-0.1328 0.02389-0.26549 0.04766-0.40172 0.07497-0.80332 0.14982-1.593 0.35427-2.3691 0.59952-0.77614 0.24525-1.5522 0.53141-2.3283 0.85848-0.50369 0.21805-1.0075 0.4497-1.4977 0.69495-0.5038 0.25896-0.9939 0.53152-1.4704 0.81769l-14.147 8.4893c-0.3404 0.20445-0.69438 0.39519-1.0484 0.58604-2.8457 1.458-6.0454 2.0984-9.2314 1.8668-0.78973-0.06811-1.5658-0.17714-2.3419-0.34067-0.1634-0.0136-0.32681-0.05451-0.4901-0.10902-0.31322-0.06811-0.61274-0.14982-0.92596-0.24525l-2.2465-0.66775-4.1663-1.24c-1.1437-0.34067-2.3147-0.59964-3.472-0.76317-3.0363-0.44958-6.0997-0.31336-9.068 0.39519-0.91225 0.20445-1.8109 0.47701-2.6959 0.80397-0.88496 0.31348-1.7565 0.69495-2.6142 1.1174l-1.5113 0.76306v-14.935c0-1.8805-1.5249-3.4066-3.4039-3.4066-1.8789 0-3.4039 1.5261-3.4039 3.4066v20.44s0 0.14994 0.01361 0.21805v20.195c0 8.8846 7.2163 16.12 16.107 16.12h71.917c8.8774 0 16.094-7.2358 16.094-16.12v-71.976c0-8.8982-7.2163-16.12-16.107-16.12zm-39.322 40.906c0 6.2917-5.0961 11.392-11.383 11.392-6.2864 0-11.383-5.1003-11.383-11.392 0-6.2916 5.0962-11.392 11.383-11.392 6.2864 0 11.383 5.1003 11.383 11.392z" clip-rule="evenodd" fill="#000" fill-rule="evenodd" stroke-width="1.1424"/>
</svg>
