<svg xmlns="http://www.w3.org/2000/svg" viewBox="0 0 24 24"><path fill="#3756cd" d="M6.962 3.074a.53.53 0 0 1 .53-.006l12.177 6.746a.53.53 0 0 1 .27.46v2.982a.53.53 0 0 1-.264.455L7.407 20.928a.53.53 0 0 1-.583-.032l-2.546-1.88a.53.53 0 0 1-.218-.423V5.09a.53.53 0 0 1 .26-.455l2.647-1.568zm-.26 1.387l-1.588.937v12.3l8.133-4.464l-1.308-.789l-1.784 1.07l-2.648 1.604a.53.53 0 0 1-.804-.45zm3.707 7.667l.503-.302l-.503-.302zm0-1.838l4.172 2.51a.528.528 0 0 1-.016.922l-9 4.934l1.603 1.181l11.178-6.566l-7.937-4.447zm8.472 2.065v-1.768L7.76 4.429v9.298l1.589-.964v-4.84a.53.53 0 0 1 .789-.465l8.742 4.892z"/></svg>