<svg xmlns="http://www.w3.org/2000/svg" viewBox="0 0 24 24"><g fill="none"><path fill="#000" d="M4.001 7.502L12 3l7.998 4.502v8.996L11.999 21l-7.998-4.502z"/><path fill="#000" d="m7.1 9.298l4.904-2.673l4.91 2.761v5.402l-4.92 2.587L7.1 14.79z"/><path fill="#000" d="m8.649 10.195l3.357-1.92l3.357 1.92v3.666L12.01 15.87l-3.36-2.01z"/><path fill="url(#SVG4GcUHcUz)" d="M11.564 4.104v.875L5.896 8.102l-.829-.411zm.871 0v.889l5.666 3.123l.832-.425z"/><path fill="url(#SVG9e84he6f)" d="M12.417 19.85v-.848l5.644-3.167l.877.47zm-.852.023v-.853L5.93 15.87l-.853.424z"/><path fill="url(#SVGA4gg7dtk)" d="m12.002 3.02l-.429 1.09l-6.506 3.592v-.823L12 3.014v-.002l.002.001l.004-.002l-.002.004l6.929 3.811l-.012.864l-6.482-3.58z"/><path fill="url(#SVGi4t9wbby)" d="m12.009 20.962l-.443-1.108l-6.486-3.57v.869l6.928 3.812l-.001.003l.003-.002l6.923-3.814V16.3l-6.516 3.543z"/><path fill="#998968" d="m11.555 4.121l.448-1.11l.433 1.088v.868l-.417-.226l-.464.241z"/><path fill="#84e2f0" d="m11.555 19.842l.452 1.125l.409-1.124v-.833l-.443.24l-.418-.24z"/><path fill="#69456b" d="m3.965 7.515l1.112-.642v.814z"/><path fill="#684872" d="m20.02 7.501l-1.09-.676l-.014.86z"/><path fill="#617ed5" d="m20.044 16.475l-1.112.642v-.8z"/><path fill="#627ed5" d="m3.955 16.465l1.136.698v-.86z"/><path fill="#6a7384" d="m4.607 7.898l-.64-.384l1.11.168z"/><path fill="#916790" d="m19.374 7.888l.639-.386l-1.101.166z"/><path fill="#89618b" d="m4.357 8.006l-.392-.492l.652.375z"/><path fill="#554766" d="m19.618 8.002l.402-.5l-.646.379z"/><path fill="#484669" d="m5.055 7.68l.857.42l-.434.25l-.188.477l-.516-.42v7.212l-.81.856V7.521l.399.477z"/><path fill="#4d4868" d="m18.922 7.673l-.857.42l.434.25v.467l.739-.466v7.278l.807.858l-.031-8.966l-.4.477z"/><path fill="#373752" d="m5.292 8.82l-.516-.44v7.239l-.803.841l1.32-.672z"/><path fill="#3c374d" d="m18.72 8.65l.517-.327v7.27l.806.885l-1.322-.75z"/><path fill="url(#SVGEsl2SbOL)" d="M6.324 8.797L5.29 8.22v7.591l1.033-.613z"/><path fill="url(#SVGk8mXKeXb)" d="m17.688 8.78l1.033-.549v7.523l-1.033-.567z"/><path fill="#7474d5" d="M6.84 9.117L6.323 8.8v6.406l.517-.307z"/><path fill="url(#SVGiEBa8d0R)" d="m17.17 9.243l.516-.451v6.407l-.516-.3z"/><path fill="#f1b8c7" d="m5.908 8.572l-.427-.25l6.526-3.592l6.515 3.609l-.408.274l-6.107-3.479z"/><path fill="#ec68f2" d="m6.842 9.15l-.952-.59l6.117-3.45l6.104 3.503l-.939.632l-5.165-2.907z"/><path fill="url(#SVGzMSoLcRb)" d="m6.838 14.885l-1.31.77l6.45 3.603l6.524-3.655l-1.336-.719l-5.164 2.766z"/><path fill="url(#SVGaTtwLeWk)" d="m8.39 10.074l-1.077-.673l4.692-2.567l4.658 2.578l-1.041.663l-3.617-2.077z"/><path fill="url(#SVGO9uW0dbn)" d="m8.388 13.986l-1.03.703l4.617 2.452l4.676-2.454l-1.029-.7l-3.647 2.176z"/><path fill="url(#SVGjJF9wLMI)" d="m7.358 9.416l1.033.658v3.93l-1.033.69zm9.297 0l-1.032.659v3.93l1.032.688z"/><path fill="#b3bed9" d="M12.006 8.544L8.907 10.27l1.151.644l1.948-1.052l1.938 1.052l1.161-.644z"/><path fill="#5d6675" d="M8.907 13.725v-3.472l1.165.678h3.869l1.164-.678v3.472l-1.872 1.11H10.8z"/><path fill="#000" d="m9.94 10.907l2.077-1.143l2.055 1.143v2.265l-.912.524l.406 2.894l-1.55.86l-1.57-.86l.45-2.894l-.956-.524z"/><path fill="#5c75b4" d="m18.065 15.845l.44-.245l1.54.88l-1.11-.15z"/><path fill="#5673b4" d="m5.936 15.879l-.402-.23l-1.57.812l1.112-.145z"/><defs><linearGradient id="SVG4GcUHcUz" x1="19.714" x2="4.507" y1="19.008" y2="19.026" gradientUnits="userSpaceOnUse"><stop stop-color="#56375d"/><stop offset=".5" stop-color="#887562"/><stop offset="1" stop-color="#56375d"/></linearGradient><linearGradient id="SVG9e84he6f" x1="4.261" x2="19.888" y1="4.537" y2="4.537" gradientUnits="userSpaceOnUse"><stop stop-color="#5169a6"/><stop offset=".493" stop-color="#6dbac2"/><stop offset="1" stop-color="#5169a6"/></linearGradient><linearGradient id="SVGA4gg7dtk" x1="20.045" x2="4.151" y1="17.84" y2="17.861" gradientUnits="userSpaceOnUse"><stop stop-color="#67496b"/><stop offset=".513" stop-color="#9f8b6c"/><stop offset="1" stop-color="#67496b"/></linearGradient><linearGradient id="SVGi4t9wbby" x1="3.956" x2="20.046" y1="5.079" y2="5.106" gradientUnits="userSpaceOnUse"><stop stop-color="#617bd5"/><stop offset=".494" stop-color="#7fe0e1"/><stop offset="1" stop-color="#617bd5"/></linearGradient><linearGradient id="SVGEsl2SbOL" x1="11.999" x2="11.999" y1="3.312" y2="20.592" gradientUnits="userSpaceOnUse"><stop stop-color="#9466bc"/><stop offset=".466" stop-color="#6564c1"/><stop offset="1" stop-color="#6b81d3"/></linearGradient><linearGradient id="SVGk8mXKeXb" x1="12" x2="12" y1="3.258" y2="20.696" gradientUnits="userSpaceOnUse"><stop stop-color="#7337a4"/><stop offset=".471" stop-color="#3b39b8"/><stop offset="1" stop-color="#375fb2"/></linearGradient><linearGradient id="SVGiEBa8d0R" x1="11.999" x2="11.999" y1="3" y2="21" gradientUnits="userSpaceOnUse"><stop stop-color="#6a37a7"/><stop offset=".504" stop-color="#3a3bb7"/><stop offset="1" stop-color="#375ab2"/></linearGradient><linearGradient id="SVGzMSoLcRb" x1="19.458" x2="4.698" y1="4.804" y2="4.824" gradientUnits="userSpaceOnUse"><stop stop-color="#887af6"/><stop offset=".509" stop-color="#96a7d5"/><stop offset="1" stop-color="#887af6"/></linearGradient><linearGradient id="SVGaTtwLeWk" x1="4.735" x2="19.566" y1="18.292" y2="18.292" gradientUnits="userSpaceOnUse"><stop stop-color="#2b313a"/><stop offset=".491" stop-color="#4b505e"/><stop offset="1" stop-color="#2b313a"/></linearGradient><linearGradient id="SVGO9uW0dbn" x1="12.019" x2="12.019" y1="21.619" y2="3.127" gradientUnits="userSpaceOnUse"><stop stop-color="#5a6271"/><stop offset="1" stop-color="#798194"/></linearGradient><linearGradient id="SVGjJF9wLMI" x1="3.88" x2="20.147" y1="12.001" y2="12.001" gradientUnits="userSpaceOnUse"><stop/><stop offset=".127" stop-color="#282e36"/><stop offset=".872" stop-color="#282e36"/><stop offset="1"/></linearGradient></defs></g></svg>