<svg xmlns="http://www.w3.org/2000/svg" viewBox="0 0 24 24"><g fill="none"><path fill="#0f978e" d="M12.389 5.829c-.318-.318-.652-.143-.922.121L9.101 8.317c-.318.318-.63.153-.911-.127l-.646-.646c-.318-.318-.185-.609.1-.895l2.94-2.933c.28-.286.497-.46.65-.54a1.63 1.63 0 0 1 1.552.042q.19.11.545.466l7.174 7.158a1.6 1.6 0 0 1 .021 2.293l-7.36 7.37a1.64 1.64 0 0 1-1.937.307a2.7 2.7 0 0 1-.53-.44l-3.181-3.166c-.143-.142-.191-.307-.143-.487c.084-.29.603-.72.83-.953c.36-.354.62-.38.98-.026l2.394 2.388c.344.338.635.196.937-.106l5.654-5.639c.302-.296.175-.609-.095-.879z"/><path fill="#ff6c26" d="M5.807 11.61c-.238.248-.143.555.069.783l.54.561c.392.403.455.646.053 1.054c-.244.238-.61.688-.874.794c-.201.085-.386.037-.566-.143l-1.425-1.43a2.3 2.3 0 0 1-.46-.592a1.6 1.6 0 0 1 .318-1.79c.518-.53 1.043-1.048 1.561-1.567c.154-.154.318-.201.503-.159c.281.08.652.519.88.741c.407.397.476.636.073 1.059zm6.078.126l-1.196-1.19a.4.4 0 0 0-.562 0l-1.186 1.19a.39.39 0 0 0 0 .562l1.197 1.19a.39.39 0 0 0 .561 0l1.186-1.196a.39.39 0 0 0 0-.56z"/></g></svg>