<svg version="1.1" viewBox="0 0 128 128" xmlns="http://www.w3.org/2000/svg">
 <rect x="4" y="4" width="120" height="120" ry="10" fill="#ff8c00" stroke-linecap="round" stroke-linejoin="round" stroke-width="7.6182"/>
 <path d="m85.255 16-6.6965 29.023c-3.1256-1.786-5.8793-2.6411-8.5584-3.5342-2.6791-0.89304-5.7492-0.9302-9.7678-0.9302-5.3582 0-10.251 0.94911-15.162 3.6282-4.9116 2.6791-8.9863 5.7671-12.558 10.232-3.5721 4.0186-6.2333 9.3398-8.4658 14.698-2.2326 5.8047-3.1624 12.074-3.1624 18.325 0 8.0373 1.8418 13.861 5.8604 18.326 4.0186 4.0186 9.377 6.2322 15.628 6.2322 2.6791 0 4.912-0.0169 6.698-0.46437 1.7861-0.44651 3.5159-0.87478 5.302-1.7678 1.786-0.893 3.5907-1.7303 4.9302-3.0698 1.7861-0.89305 3.6278-2.2886 5.8604-3.6282l-1.8604 7.1638h21.953l21.862-94.234zm-19.255 39.721c1.3395 0 3.1441 0.48369 4.9302 0.9302 1.7861 0.44654 3.5713 0.85692 4.4644 1.3035l-7.6267 33.487c-1.7861 1.3396-4.0011 2.2709-6.2337 3.1639-2.2326 0.89304-4.4461 1.302-6.2322 1.302-4.0186 0-6.6798-0.81937-8.4658-2.6054-2.2326-1.7861-3.1624-4.9115-3.1624-8.9302 0-3.5721 0.42829-7.2185 1.7678-10.791 0.89304-3.5721 2.3065-6.6976 4.0926-8.9302 1.7861-2.6791 3.9442-4.8927 7.0698-6.2322 2.6791-1.786 5.8239-2.698 9.396-2.698z" fill="#fff"/>
</svg>
