<svg version="1.1" viewBox="0 0 128 128" xmlns="http://www.w3.org/2000/svg">
 <g transform="matrix(1.5133 0 0 1.5015 -94.721 -160.45)">
  <rect x="65.088" y="109.37" width="79.919" height="80.548" ry="6.6599" fill="#148dea" stroke-linecap="round" stroke-linejoin="round" stroke-width="5.0146"/>
  <g fill="#f9f9f9">
   <path d="m82.351 162.23c3.6206 0 6.1005-0.54988 8.8284-3.2492 2.5295-2.4494 3.7694-5.7486 3.7694-9.6977 0-4.299-1.2895-7.7482-3.7694-10.098-2.7279-2.5994-5.6045-3.1493-9.7212-3.1493h-8.878v26.194zm-0.84316-5.7486h-2.5791v-14.797h2.5295c4.6622 0 7.1917 2.6494 7.1917 7.3483 0 5.1488-2.2815 7.4482-7.1421 7.4482z" stroke-width="1.9603"/>
   <polygon transform="matrix(1.8508 0 0 1.968 29.489 -391.56)" points="43.964 268.08 40.052 274.36 40.052 268.08 36.776 268.08 36.776 281.39 40.052 281.39 40.052 275.63 43.532 281.39 47.444 281.39 43.202 274.86 47.571 268.08"/>
   <path d="m120.03 162.23h7.1373c3.4222 0 5.8029-0.24995 7.6876-1.9496 1.6367-1.4996 2.5295-3.6991 2.5295-6.1486 0-3.1493-1.4879-5.0988-4.4638-6.0486 2.2319-1.1497 3.2238-2.8493 3.2238-5.5987 0-4.099-2.7279-6.4485-8.0348-6.4485h-8.0796zm5.3518-5.4987v-5.4987h2.0335c2.5295 0 3.6702 0.54987 3.6702 2.7993 0 2.0995-1.1407 2.6994-3.5214 2.6994zm0-10.498v-4.6989h2.0831c1.9839 0 2.9263 0.74982 2.9263 2.4494s-1.0912 2.2495-3.4718 2.2495z" stroke-width="1.9603"/>
  </g>
 </g>
</svg>
