<svg xmlns="http://www.w3.org/2000/svg" viewBox="0 0 24 24"><g fill="none"><path fill="#e97e00" d="M3 21h13.2v-1.2h1.2v-1.2h1.2v-1.2h1.2v-1.2H21V7.8h-1.2V6.6h-1.2V5.4h-1.2V4.2h-1.2V3H7.8v1.2H6.6v1.2H5.4v1.2H4.2v1.2H3z"/><path fill="#fc0" d="M4.2 19.799H15v-1.2h1.2v-1.2h1.2v-1.2h1.2v-1.2h1.2v-6h-1.2v-1.2h-1.2v-1.2h-1.2v-1.2H15v-1.2H9v1.2H7.8v1.2H6.6v1.2H5.4v1.2H4.2z"/><path fill="url(#SVGI7Jh0cYi)" d="M3 21v-4.16h1.188V14.4H4.8v-1.2H6v-2.4h1.2v-3h1.2V6.6h1.2V5.4h4.2v1.2H15v1.2h2.4V9h1.2v3h-3v-1.2h-2.4V12h1.2v1.2h1.2v1.2h1.2v1.2h-3.6v-1.2H12v-1.2h-1.2v1.2H9.6v1.8H12v1.2h1.2v1.2h-2.4v-1.2H8.4V21z"/><path fill="#6c6c6c" d="M16.2 9.599v1.2h1.2v-1.2z"/><path fill="#fff" d="M12 7.2v1.2h1.2V7.2z"/><defs><linearGradient id="SVGI7Jh0cYi" x1="6.351" x2="24.905" y1="6.122" y2="27.431" gradientUnits="userSpaceOnUse"><stop stop-color="#1a1e21"/><stop offset="1" stop-color="#06060a"/></linearGradient></defs></g></svg>