<svg xmlns="http://www.w3.org/2000/svg" viewBox="0 0 24 24"><g fill="none"><path fill="#19130c" d="M21 12a9 9 0 1 1-18 0a9 9 0 0 1 18 0"/><path fill="#fbc933" d="M11.232 7.939a16 16 0 0 0-.884.095a.12.12 0 0 1-.106-.037a1.1 1.1 0 0 0-.725-.36q-.175-.016-.254.117a1.3 1.3 0 0 0-.148.815c.01.069-.032.137-.085.19c-.265.265-.477.498-.657.816c-.264.487-.529 1-.582 1.524a7 7 0 0 0-.032 1.112c0 .053.006.08-.042.122c-.582.476-1.398 1.657-.953 2.435c.069.106.175.217.334.328c.328.233.688.413 1.069.54c.302.101.36.816.36 1.07a29 29 0 0 1-.17 3.32a.02.02 0 0 1-.02 0a8.8 8.8 0 0 1-3.018-2.277q-.461-.55-.636-.789c-.042-.064-.037-.17-.01-.249c.09-.302.175-.62.265-.905c.46-1.43.92-2.859 1.302-4.315q.357-1.349.699-2.705c.074-.302.18-.64.264-.964c.037-.158.048-.28.022-.37c-.117-.408-.747-.482-1.096-.43c-.207.027-.37.567-.419.747c-.211.816-.386 1.657-.582 2.462c-.249 1.064-.519 2.134-.71 3.208l-.412 2.208c-.01.048-.027.053-.048 0a8.67 8.67 0 0 1-.725-4.68a8.66 8.66 0 0 1 3.616-6.136a8.43 8.43 0 0 1 4.235-1.61c.397-.042.815-.079 1.154-.052c.402.037.73.053 1.101.106a8.82 8.82 0 0 1 7.45 7.893c.01.26.047.54.052.768c0 .296-.026.598-.053.89a8.8 8.8 0 0 1-1.218 3.7q-.015.024-.031 0c-.212-.392-.387-.53-.673-.773a.14.14 0 0 1-.053-.106c.027-1.006-.635-1.943-1.318-2.615a2.4 2.4 0 0 0-.402-.307c-.175-.111-.26-.599-.318-.794a4 4 0 0 0-.206-.572c-.445-.927-.831-1.694-1.641-2.293c-.133-.095-.239-.503-.292-.661c-.127-.355-.772-.19-1.016-.07a.17.17 0 0 1-.143 0a5 5 0 0 0-2.25-.396z"/><path fill="#ee9a1d" d="m13.848 5.113l-.013.008l-.008.013a.03.03 0 0 0 0 .018q.004.008.01.014l.117.106c.323.323.053.863-.36.91a1 1 0 0 1-.35-.015l-.836-.16c-.17-.026-.148-.311-.127-.417c.1-.472.196-.937.286-1.409c.032-.148.095-.296.264-.264l.636.127c.291.063.471.08.614.286c.212.286.1.646-.233.783m-1.943-.085a.96.96 0 0 1-.466.959a1 1 0 0 1-.354.121l-.186.027a.96.96 0 0 1-1.08-.826l-.037-.275a.956.956 0 0 1 .826-1.08l.185-.021a.96.96 0 0 1 1.075.82z"/><path fill="#fbc933" d="M10.227 4.88a.58.58 0 0 1 .603-.598c.45 0 .583.413.635.794q.025.135-.052.318c-.101.248-.265.391-.546.386c-.519-.021-.635-.476-.64-.9m2.747-.513a.07.07 0 0 1 .057-.055q.015-.001.028.002l.455.084c.037.006.07.022.106.037a.28.28 0 0 1 .122.149c.01.031.01.058 0 .09l-.01.08a.21.21 0 0 1-.112.142a.32.32 0 0 1-.212.026l-.45-.084a.07.07 0 0 1-.044-.031a.07.07 0 0 1-.009-.054z"/><path fill="#ee9a1d" d="M7.341 5.404a.21.21 0 0 1 .09-.286l.64-.329a.9.9 0 0 1 .69-.052a.98.98 0 0 1 .54.47l.12.244c.113.217.138.47.07.704a.9.9 0 0 1-.445.53l-.64.333a.21.21 0 0 1-.292-.095zm8.773-.392c.65.402.603 1.085.185 1.641c-.476.635-1.297.476-1.731-.1c-.212-.281-.164-.763-.021-1.044c.317-.619.91-.905 1.567-.502z"/><path fill="#fbc933" d="M7.807 5.356a.037.037 0 0 1 .016-.053l.328-.17a.55.55 0 0 1 .73.244l.16.318a.55.55 0 0 1-.234.73l-.328.164a.037.037 0 0 1-.053-.016zm5.019-.164a.06.06 0 0 1 .02-.037a.06.06 0 0 1 .049-.011l.492.106c.085.016.162.06.217.127a.26.26 0 0 1 .058.217l-.005.037a.27.27 0 0 1-.138.18a.37.37 0 0 1-.254.032l-.492-.106a.06.06 0 0 1-.043-.021a.06.06 0 0 1-.005-.043zm2.033.815c.095-.466.534-1.048 1.064-.694c.254.17.317.419.201.747c-.085.233-.28.53-.535.587c-.413.106-.82-.2-.73-.64"/><path fill="#ee9a1d" d="m17.665 7.907l-.667.662a.06.06 0 0 1-.07.016l-.02-.016l-.376-.392a.06.06 0 0 1-.019-.045a.06.06 0 0 1 .019-.045L17.68 6.94a.06.06 0 0 1 .069-.014l.02.014l1.144 1.148a.063.063 0 0 1 0 .09l-.392.387a.07.07 0 0 1-.045.019a.07.07 0 0 1-.045-.02l-.682-.656a.07.07 0 0 0-.07-.014l-.02.014zM6.17 7.193a.1.1 0 0 1 .048-.016c.317-.016.974.058.836.556a92 92 0 0 0-.82 3.155c-.466 1.948-1.15 3.828-1.72 5.744l-.004.01l-.007.006a.02.02 0 0 1-.013-.002l-.009-.009q-.131-.224-.259-.45c-.106-.185-.106-.286-.058-.487c.19-.9.37-2.09.62-3.192c.306-1.355.634-2.71.93-4.071q.121-.554.313-1.085a.28.28 0 0 1 .143-.16"/><path fill="#b16c4f" d="M9.278 8.484a.95.95 0 0 1 .117-.603c.095-.191.566.084.667.169a.03.03 0 0 1 .009.018a.03.03 0 0 1-.004.019l-.01.01l-.747.403c-.021.01-.032 0-.032-.016m7.529 9.556a1.4 1.4 0 0 0-.477-.837c-.217-.174-.423-.195-.656-.031c-.334.238-.678.513-1.006.71c-.28.174-.662.38-.964.444a1.85 1.85 0 0 1-.953-.159c-.476-.164-.603-.614-.566-1.101c.021-.323.111-.477.37-.688c.636-.53 1.499-1.091 1.605-1.996q.017-.141-.037-.37a3.44 3.44 0 0 0-.747-1.467c-.243-.307-.36-.466-.609-.646c-.275-.196-.63-.254-.836-.535c-.106-.154-.19-.28-.339-.381a1.04 1.04 0 0 0-1.401.17c-.112.132-.19.29-.224.46a.4.4 0 0 0-.08.132q-.014.047.074.085a2.46 2.46 0 0 1-.81 1.244a2.8 2.8 0 0 1-.9.519c-.275-.201-.73-.413-1.064-.254q-.094.04-.053-.053a2.6 2.6 0 0 1 .726-.837c.053-.042.079-.095.068-.159c.149-.137.286-.28.419-.418a.7.7 0 0 0 .143-.185a.5.5 0 0 0 .095-.153c.053-.117.069-.218.032-.308a3.5 3.5 0 0 1-.19-.778a6 6 0 0 0-.09-.45A3.75 3.75 0 0 1 9.5 8.611c.688-.513 1.72-.556 2.541-.471c.464.062.919.18 1.355.35a.02.02 0 0 1-.005.015a1.6 1.6 0 0 0-.402.747a.05.05 0 0 0 .026.037h.042a.11.11 0 0 0 .09-.074a1.15 1.15 0 0 1 1.08-.847c.16 0 .26.063.302.211l.117.403c.233.783.185 1.43.026 2.26c-.01.053.01.1.058.127l.022.01a.05.05 0 0 0 .043.004l.018-.011l.013-.018c.053-.244.095-.477.106-.72c.015-.239.053-.498.042-.752c0-.16-.053-.355-.048-.535c0-.048.021-.053.053-.026c.384.324.702.72.937 1.164c.122.233.244.466.37.689c.218.402.345.825.435 1.244c.069.301-.016.603-.09.905c-.18.757-.694 1.397-1.138 2.012a5.9 5.9 0 0 1-1.641 1.524c-.053.032-.064.074-.043.127l.01.022l.014.023a.05.05 0 0 0 .049.014l.023-.01c.577-.372 1.037-.747 1.455-1.25c.165-.196.445-.572.837-1.139a4.1 4.1 0 0 0 .588-1.228c.047-.164.074-.376.121-.56c.006-.022.021-.027.037-.017c.111.053.212.122.313.212q.517.468.947 1.143c.307.488.487.975.424 1.552a.3.3 0 0 1-.043.106q-.31.501-.635.995c-.302.46-.71.836-1.149 1.191z"/><path fill="#ee9a1d" d="m16.167 8.422l-.408.407a.06.06 0 0 0-.013.065l.013.02l.387.392c.026.026.063.026.084 0l.413-.408a.06.06 0 0 0 0-.08l-.391-.396a.06.06 0 0 0-.066-.014zm1.964.376l-.365-.36a.074.074 0 0 0-.106 0l-.36.37a.08.08 0 0 0-.017.082q.006.014.017.024l.365.36a.08.08 0 0 0 .106 0l.36-.37a.08.08 0 0 0 .022-.053a.07.07 0 0 0-.022-.053m1.122-.37l.403.396q.007.007.01.016a.05.05 0 0 1 0 .037a.04.04 0 0 1-.01.016l-.403.397a.05.05 0 0 1-.034.015a.05.05 0 0 1-.034-.015l-.413-.408a.05.05 0 0 1-.01-.053l.01-.015l.418-.387a.05.05 0 0 1 .063 0"/><path fill="#d8cfc8" d="M13.382 9.062a1.28 1.28 0 0 1 .82-.53c.053-.016.09-.005.117.016c.09.08.212.392.249.545c.148.61.053 1.165-.011 1.748c-.005.053-.037.079-.09.068c-.471-.08-.964-.698-1.175-1.127c-.111-.239-.053-.509.09-.72"/><path fill="#ee9a1d" d="M17.676 9.834h.042a.1.1 0 0 0 .032-.027l.645-.656a.05.05 0 0 1 .048-.01c.111.036.37.349.46.444c.011.005.011.016.011.026c0 .006 0 .016-.01.022l-1.117 1.133c-.048.042-.09.042-.138 0l-1.122-1.118a.06.06 0 0 1-.019-.042a.06.06 0 0 1 .019-.042l.386-.397a.064.064 0 0 1 .074-.016q.012.006.022.016q.327.339.666.667"/><path fill="#d8cfc8" d="M8.336 9.998c.043.185.074.339.09.45c.037.28.106.54.19.778q.056.133-.03.307q-.066-.554-.52-.704a.05.05 0 0 1-.042-.053q0-.01.005-.021zm8.47 8.042c-.349.264-.74.513-1.18.73q-.509.255-1.202.524q-.071.025-.079.106c0 .016 0 .027.016.037a.1.1 0 0 0 .08.037c0 .069-.038.122-.032.18c.02.297.423.313.624.212a7 7 0 0 1 .726-.28a.48.48 0 0 1 .524.121a9 9 0 0 1-2.541.942c-.27.053-.61.085-.911.138c-.095.021-.249.005-.37.016c-.392.037-.795-.005-1.155-.01c-.08 0-.159-.016-.238-.022a8.2 8.2 0 0 1-2.515-.656q.018-.353.048-.704c.016-.228.021-.477.042-.715c.032-.307.021-.582.043-.873c.053-.678.095-1.483-.202-2.155c-.005-.021 0-.027.016-.027c.223-.005.461 0 .657-.026c.752-.106 1.307-.503 1.927-.91a.065.065 0 0 0 .026-.07l-.01-.02l-.016-.017q-.057-.071-.122-.016a4.2 4.2 0 0 1-1.869.848a2.32 2.32 0 0 1-1.667-.35v-.032q.014-.046.053-.02q.292.141.465.158c.382.016.758.016 1.139 0c.582-.027.916-.455 1.43-.651c.21-.08 0-.307-.128-.286c-.053.01-.095.048-.148.111c-.159.207-.413.37-.635.492c-.36.196-.784.17-1.17.175a3 3 0 0 1-.832-.132a.08.08 0 0 1-.026-.085c.026-.1.291-.201.381-.249c.095-.047.207-.153.323-.317a.5.5 0 0 0 .09-.392c-.021-.09-.08-.175-.116-.265c.333-.11.635-.286.9-.513c.39-.323.672-.757.81-1.245c.27.059.508.106.709.128c.418.052.725-.186 1-.466a.07.07 0 0 0 .02-.061a.07.07 0 0 0-.04-.05a1.8 1.8 0 0 0-.826-.106a1.5 1.5 0 0 0-.858.338a1.04 1.04 0 0 1 1.625-.635c.148.106.228.233.339.387c.212.28.561.338.836.534c.25.18.366.34.61.646c.361.422.615.925.74 1.467a1 1 0 0 1 .043.37c-.106.9-.969 1.467-1.604 1.996c-.26.212-.35.366-.37.688c-.038.487.094.938.56 1.107c.297.106.651.222.958.159c.342-.102.667-.253.964-.45c.328-.196.672-.477 1.006-.71c.228-.164.44-.143.651.032c.249.212.413.487.477.837zM8.13 11.099a1 1 0 0 0-.064.228c-.005.068-.026.074-.053.01c-.053-.085-.042-.19.016-.307l.01-.014a.04.04 0 0 1 .033-.01l.015.008l.022.016a.06.06 0 0 1 .02.074z"/><path fill="#d8cfc8" d="m10.576 11.762l-.37-.08H10.2l-.004-.01q0-.006.004-.01v-.006l.307-.143l.006-.002l.005.002l.005.005l.069.228v.01l-.007.005zm-2.086-.08a.6.6 0 0 1-.143.19c-.132.139-.27.281-.423.425v-.71q.001-.031.026-.016c.18.069.328.17.54.117z"/><path fill="#19130c" d="M9.877 13.769c0 .031.016.063.043.063c.02 0 .042-.026.047-.058c0-.032-.02-.058-.042-.058c-.026 0-.048.02-.053.053zm-.524.217a.02.02 0 0 1-.013.004a.02.02 0 0 1-.013-.004l-.005-.006a.2.2 0 0 1-.043-.053v-.042l.01-.01c.011-.011.022-.011.043 0c.016 0 .037.015.053.037l.01.005a.02.02 0 0 1 0 .026zm.82 0c.027 0 .054-.022.054-.048s-.032-.042-.058-.042a.053.053 0 0 0-.053.052c0 .022.026.038.053.038zm-1.095.132c.032.016.069.01.08-.016c.01-.021 0-.053-.032-.069s-.064-.01-.08.01q-.015.042.032.075m-.132.026l.01.032c.01.01.01.027 0 .037q-.024.03-.063.021a.04.04 0 0 1-.032-.037q0-.057.048-.09q.016-.014.026.011v.016zm.905.037c0 .027.01.053.032.053c.02 0 .042-.02.042-.053c0-.026-.016-.052-.037-.052s-.037.02-.037.053m-.46.043c.015.026.042.042.063.032s.026-.043.01-.07c-.015-.026-.042-.042-.063-.031c-.021.016-.027.042-.01.069"/><path fill="#d8cfc8" d="M7.166 14.933a.74.74 0 0 1-.344-.72h.01c.154.185.313.365.477.53c.122.127-.042.248-.143.19"/><path fill="#19130c" d="M9.13 14.33v-.027q0-.009.006-.015a.02.02 0 0 1 .015-.007l.01.006q.033.014.048.053v.016c0 .01 0 .015-.01.02l-.048.038a.02.02 0 0 1-.014.002a.02.02 0 0 1-.012-.007l-.006-.011v-.027l.01-.047zm.46.052c.027.016.059.01.075-.016c.01-.021 0-.053-.032-.069c-.032-.01-.064 0-.074.022c-.01.02 0 .052.032.068zm-1.053.1a.1.1 0 0 1-.027.032c-.01.011-.026.016-.042 0a.07.07 0 0 1-.026-.069q.001-.024.026-.026q.03 0 .058.016c.022.01.022.026.01.048m.99-.031l.01.01v.022a.16.16 0 0 1-.105.042c-.006 0-.016 0-.022-.01a.03.03 0 0 1-.01-.022c0-.032.005-.053.026-.063a.05.05 0 0 1 .037-.01zm-.837.227c.038 0 .07-.02.07-.052c0-.027-.032-.048-.07-.048c-.037 0-.068.026-.068.053c0 .026.031.047.068.047m.43-.026c-.006.037.015.074.052.08c.032.005.064-.022.07-.053c.004-.043-.017-.075-.054-.08c-.032-.01-.063.016-.069.053m-.297.111c.01.037.042.059.069.053c.031-.005.053-.042.042-.074c-.01-.037-.037-.064-.069-.053c-.032 0-.053.037-.042.074"/><path fill="#b16c4f" d="M16.283 19.71q-.238-.226-.53-.123a7 7 0 0 0-.72.28c-.201.101-.603.086-.624-.21c0-.06.031-.112.031-.18a10 10 0 0 0 2.59-1.367q.19-.14.486-.466a9 9 0 0 0 1.234-1.704a.07.07 0 0 1 .08 0q.42.286.587.778a.1.1 0 0 1-.006.074a8.9 8.9 0 0 1-3.128 2.917"/></g></svg>