<?xml version="1.0" encoding="UTF-8" standalone="no"?>
<svg
   id="Layer_1"
   viewBox="58.824493 46.5664 1841.411 1918.8712"
   version="1.1"
   width="1841.411"
   height="1918.8712"
   xmlns:xlink="http://www.w3.org/1999/xlink"
   xmlns="http://www.w3.org/2000/svg"
   xmlns:svg="http://www.w3.org/2000/svg">
  <defs
     id="defs2">
    <style
       id="style1">.cls-1,.cls-2,.cls-3{fill:none;}.cls-4{fill:#fed45e;}.cls-5{fill:gray;}.cls-6{fill:url(#linear-gradient-4);}.cls-7{fill:url(#linear-gradient-3);}.cls-8{fill:url(#linear-gradient-2);}.cls-9{fill:#fd5b0a;}.cls-10{fill:url(#linear-gradient);}.cls-11{fill:#c64707;}.cls-12{fill:#020101;}.cls-2{stroke:#c64707;}.cls-2,.cls-3{stroke-linecap:round;stroke-linejoin:round;}.cls-13{fill:#fd6b10;}.cls-14{fill:#9b9b9b;}.cls-3{stroke:#c74d0a;}.cls-15{fill:#b3b3b3;}.cls-16{fill:#fcfcfc;}.cls-17{fill:#c74d0a;}</style>
    <linearGradient
       id="linear-gradient"
       x1="979.29266"
       y1="-51.195229"
       x2="979.29266"
       y2="1415.7485"
       gradientUnits="userSpaceOnUse">
      <stop
         offset=".42728"
         stop-color="#ffb02c"
         id="stop1" />
      <stop
         offset=".72332"
         stop-color="#ff690f"
         id="stop2" />
    </linearGradient>
    <linearGradient
       id="linear-gradient-2"
       x1="633.44226"
       y1="1063.7854"
       x2="1311.0981"
       y2="1063.7854"
       xlink:href="#linear-gradient"
       gradientTransform="translate(1.5454042e-5)" />
    <linearGradient
       id="linear-gradient-3"
       x1="9088.2578"
       y1="-6945.6157"
       x2="9088.2578"
       y2="-6400.5957"
       gradientTransform="matrix(0.24240638,-0.72785549,0.50733376,0.1689634,1684.8591,9283.7556)"
       xlink:href="#linear-gradient" />
    <linearGradient
       id="linear-gradient-4"
       x1="-883.59229"
       y1="6644.9131"
       x2="-883.59229"
       y2="7189.9336"
       gradientTransform="matrix(0.58963658,0.59197895,-0.42935532,0.42765642,4889.5501,-943.47038)"
       xlink:href="#linear-gradient" />
    <linearGradient
       xlink:href="#linear-gradient"
       id="linearGradient67"
       gradientUnits="userSpaceOnUse"
       x1="979.29266"
       y1="-51.195229"
       x2="979.29266"
       y2="1415.7485"
       gradientTransform="translate(1.5454042e-5)" />
  </defs>
  <path
     class="cls-10"
     d="m 1746.4402,795.15772 c 0,354.86748 -343.4635,642.54458 -767.14735,642.54458 -423.68385,0 -767.1477,-287.6771 -767.1477,-642.54458 0,-254.35358 142.96573,-449.60445 395.7356,-564.25079 54.97147,-24.93287 145.64029,-105.70536 206.02789,-137.066276 31.38246,-16.29776 30.53111,14.710376 59.33503,21.761816 16.48397,4.03541 54.90031,-19.502706 83.69452,-14.30468 416.94441,75.26823 789.50201,338.99242 789.50201,693.85992 z"
     id="path2"
     style="fill:url(#linearGradient67)" />
  <path
     class="cls-1"
     d="m 362.3548,1574.5043 c 0.93408,-4.1945 1.91232,-8.3803 2.9374,-12.5548 -1.02508,4.1745 -2.00332,8.3602 -2.9374,12.5546 z"
     id="path3" />
  <path
     class="cls-1"
     d="m 513.01643,1711.7787 c 3.73163,-0.7327 31.73926,-34.0566 36.17547,-39.785 14.73582,-19.0283 30.1615,-34.0084 14.5003,-59.1361 -1.18165,-1.8963 -4.05146,-1.2041 -4.17625,-1.3854 -10.43612,-15.2027 -11.45685,-17.3949 -26.69551,-28.7492 -0.33021,-0.2461 -2.06856,0.3142 -3.4322,-0.644 -3.33217,-2.3417 -9.52512,-8.6411 -12.99513,-11.6564 l 43.12284,-2.0741 46.74239,11.9946 c 5.53756,1.8071 14.76761,-14.0438 15.9884,-18.0594 4.97417,-16.3604 -10.91119,-29.6446 -21.66045,-39.1122 -15.84554,-13.9553 -20.71566,-14.6117 -39.01684,-22.5885 -2.29204,-0.9993 -5.25018,-4.3215 -8.20363,-5.1237 0.97556,-2.17 9.52412,-4.5313 12.31063,-5.1438 11.93994,-2.6253 31.06313,-2.2355 43.12384,0 6.50777,1.206 41.0854,15.5491 42.94118,14.2142 7.88246,-12.5906 1.57208,-28.5295 -5.58005,-40.3025 -2.41984,-3.9836 -5.25319,-5.0009 -6.55862,-6.7677 -8.79044,-11.8958 -11.01088,-12.0163 -20.535,-20.535 -2.24286,-2.0057 -7.55894,-9.2906 -11.80713,-12.2545 -5.38099,-3.7544 -13.15438,-7.0056 -18.99572,-10.3344 -0.26129,-0.73 -4.46397,-1.7417 -4.10633,-4.0862 5.45225,0.095 10.97709,-0.2081 16.42767,-0.021 13.94159,0.4801 30.0966,3.3335 43.12351,8.214 4.72292,1.7698 27.17425,15.4685 28.72291,14.3715 3.52287,-13.333 2.9481,-27.8387 0.0261,-41.067 -4.21138,-19.0636 -9.42041,-23.5483 -26.69551,-30.8025 -15.42534,-6.477 -26.03944,-9.3421 -43.12351,-8.214 -83.51772,5.5155 -143.13347,94.0375 -170.44087,164.2804 -9.57531,24.6303 -15.18413,41.3841 -20.53534,67.7655 -1.8695,9.2183 -7.73626,27.2025 -6.16519,35.8467 1.10537,6.0808 10.14807,11.314 14.37952,15.491 10.78038,10.6413 21.94449,19.3578 32.85601,28.749 9.56193,8.2292 18.50492,16.7438 28.74901,24.642 9.9848,7.6983 19.73207,17.7403 31.53351,22.2735 z"
     id="path4" />
  <path
     class="cls-1"
     d="m 428.47162,1415.7428 c -4.99157,7.1521 -9.66095,14.4912 -14.09214,21.9595 4.43152,-7.4686 9.10057,-14.8074 14.09214,-21.9595 z"
     id="path5" />
  <path
     class="cls-1"
     d="m 206.54971,878.90461 c 0.27567,5.72424 0.64302,11.64186 1.09567,17.69028 -0.45265,-6.04843 -0.82,-11.96637 -1.09567,-17.69028 z"
     id="path6" />
  <path
     class="cls-1"
     d="m 209.00669,912.48559 c 0.87319,9.07548 1.91968,18.31255 3.13846,27.52821 -1.21878,-9.216 -2.26527,-18.45273 -3.13846,-27.52821 z"
     id="path7" />
  <path
     class="cls-1"
     d="m 159.08301,999.52852 c 0.66878,-20.50623 2.17628,-40.98269 4.45962,-61.37819 -2.28334,20.3955 -3.79118,40.87195 -4.45962,61.37819 z"
     id="path8" />
  <path
     class="cls-1"
     d="m 1549.3042,1568.3485 c -2.1161,-14.3093 -4.3904,-23.5333 -8.214,-36.963 -4.6092,-16.1881 -8.7259,-28.1331 -16.4281,-43.1235 -28.3789,-55.2318 -79.671,-92.5103 -134.7943,-118.8137 -62.4481,-29.7981 -128.3592,-51.0698 -175.2846,16.1383 -8.8433,12.6656 -11.5592,16.7298 -14.3745,32.856 -2.8139,16.1186 -3.0655,29.1719 2.0783,45.1724 12.5375,-9.4245 26.8979,-24.2108 41.0453,-30.7979 10.3919,-4.838 24.9655,-6.6596 35.961,-10.2213 -2.2108,4.8899 -7.5777,10.2869 -11.319,14.3287 -10.2448,11.0671 -14.8593,15.1225 -22.5885,28.749 -6.9377,12.2307 -6.9725,13.2373 -10.2675,26.6955 -2.167,8.8507 -8.3007,16.9318 -2.1573,27.8253 9.1632,16.2473 25.9277,-5.394 37.0668,-11.3973 14.7288,-7.938 28.3157,-11.8774 45.1773,-12.321 4.7808,-0.1258 9.5917,0.087 14.3745,0 -7.8627,7.9239 -16.9265,14.4769 -24.642,22.5885 -10.7854,11.3388 -14.503,16.7378 -20.5353,30.8025 -2.0893,4.8711 -7.8096,9.7945 -5.8598,16.9964 0.4921,1.818 21.9532,23.5745 23.6069,23.8613 l 37.6977,-20.3227 c 15.1406,-2.4044 29.5115,-8.8727 45.1763,-8.1932 -5.132,4.6151 -8.4582,11.6319 -12.3203,16.4072 -1.3938,1.7233 -4.7092,3.1303 -7.0156,6.3079 -9.6058,13.2352 -19.6341,29.7831 -16.1497,46.5734 l 98.4222,82.4194 c 7.8353,1.3921 85.6097,-67.0014 95.1837,-77.8025 2.5098,-2.8319 8.5221,-5.1468 9.8459,-9.6682 1.5055,-5.1431 0.5955,-17.0456 0.4216,-23.188 -0.3339,-11.7772 -2.3918,-23.3106 -4.107,-34.9095 z"
     id="path9" />
  <path
     class="cls-1"
     d="m 1719.7447,1278.8046 c 4.6811,-6.7594 9.6041,-13.3427 14.4401,-19.9997 -4.836,6.657 -9.7593,13.2403 -14.4401,19.9997 z"
     id="path10" />
  <path
     class="cls-1"
     d="m 1594.0208,1533.7745 c -1.3175,-5.6118 -2.8036,-11.1788 -4.4543,-16.6929 1.6507,5.5141 3.1368,11.0814 4.4543,16.6929 z"
     id="path11" />
  <path
     class="cls-1"
     d="m 1635.598,1386.5505 c 4.654,-5.8367 9.4331,-11.5713 14.2688,-17.2601 -4.8357,5.6888 -9.6151,11.4234 -14.2688,17.2601 z"
     id="path12" />
  <path
     class="cls-1"
     d="m 321.30955,1075.508 c 20.94182,44.886 41.41193,75.7681 73.92602,112.9426 48.68783,55.6656 87.4541,77.9798 151.27922,112.5966 3.63394,1.9712 12.80711,9.8489 14.28752,10.1327 4.02069,0.7704 15.06804,-4.6537 20.47077,-5.4837 28.00027,-4.3028 56.74526,-3.0756 82.95132,8.0172 -0.15724,-28.8242 1.62025,-58.0179 -5.06082,-86.2992 -15.61537,-4.1244 -32.03936,-6.1404 -46.25629,-14.3216 -25.99896,-14.961 -38.03894,-45.7926 -25.67311,-73.93 1.10604,-2.5172 14.05701,-21.3755 15.4056,-22.5845 2.64834,-2.3747 24.85913,-11.5128 29.46395,-12.6328 12.71277,-3.0913 26.33854,-2.2988 38.7686,-4.3553 50.56469,-8.3645 73.16122,-28.6858 106.31499,-63.0985 26.54195,-27.5503 53.63591,-64.52096 84.19352,-88.30048 80.21097,-62.41932 182.29386,-51.82195 254.63406,16.428 26.0404,24.5674 46.087,55.16548 71.8728,80.08648 27.8043,26.8715 52.828,45.252 91.985,52.7869 25.6494,4.936 48.3198,1.0377 70.915,17.3855 16.8054,12.1584 29.7962,35.9901 26.0224,57.1447 -0.3877,2.1726 -6.9166,16.5919 -8.5472,19.1747 -10.9647,17.3667 -36.6746,31.0106 -57.0601,32.2571 l 4.8885,67.8117 c 7.6169,2.55 15.4756,3.2004 23.264,5.4847 9.3475,2.742 34.5977,14.4762 40.693,14.8887 3.9768,0.2693 42.1309,-15.6843 48.836,-18.7501 49.0639,-22.4333 88.3721,-52.4864 124.5269,-92.1178 29.1424,-31.9447 45.9886,-58.0949 65.712,-96.5146 18.5236,-36.0817 26.2853,-57.7191 36.963,-96.5145 12.1316,-44.07731 17.7167,-72.91163 20.535,-119.10334 2.5239,-41.35539 1.5095,-79.75497 -4.107,-121.15653 -31.3816,-231.32994 -182.9593,-416.25739 -394.9382,-507.57627 -94.7451,-40.81508 -199.323,-66.3731 -303.24226,-61.25473 -2.32516,-2.06287 10.20494,-13.57726 12.28621,-15.41497 21.18765,-18.71168 50.90125,-31.07517 78.04935,-37.98708 4.5236,-5.88483 -26.6453,-22.05389 -30.8379,-23.55002 -23.5608,-8.40871 -51.41447,-7.40505 -75.57204,-1.733 -37.68699,8.84899 -70.85748,36.08045 -74.31076,76.64194 -2.71257,3.32314 -26.28534,-25.01403 -28.37966,-28.07053 -4.98487,-7.27624 -18.83011,-33.12164 -18.83011,-40.7214 V 95.987314 c -43.92979,18.456076 -61.86229,66.849836 -31.65094,106.603706 2.14985,2.82967 17.80704,16.41931 15.2129,18.64945 -100.85973,11.80043 -193.6734,65.51764 -272.93055,126.47596 -80.05975,61.57591 -147.70182,136.55879 -197.31169,224.68333 -26.4834,47.04517 -41.16268,83.48359 -55.44451,135.53103 -9.62783,35.08883 -17.45977,67.82038 -20.535,104.72886 -3.71055,44.53366 -1.16492,89.52131 6.1605,133.47787 7.87543,47.2536 21.04955,86.45878 41.07001,129.37058 z M 1545.1801,918.38748 c -18.9576,21.11713 -39.8573,44.92643 -63.6415,60.60603 -82.8807,54.63819 -198.2273,61.86999 -273.1159,-10.2675 -19.0338,-18.33497 -42.989,-53.69947 -51.3375,-78.03335 -10.1096,-29.4673 -10.0932,-70.27702 -4.107,-100.62152 6.5827,-33.36955 25.8682,-69.89161 49.284,-94.46136 91.4765,-95.98325 249.2059,-68.92308 305.972,49.28435 18.8127,39.17475 24.3462,80.24677 16.428,123.21003 -3.7146,20.15428 -13.5221,43.31186 -24.5986,60.60101 14.8871,-0.0194 28.9177,-9.38461 42.0941,-13.34006 2.8722,-0.86215 3.6504,0.21278 3.0224,3.02237 z m 79.0768,-245.3662 c 1.3336,0.6845 1.3336,1.369 0,2.0535 z M 925.08753,152.50675 c 25.50917,-32.18623 68.7016,-24.89393 104.68967,-19.54338 0.4898,5.43418 0.1081,3.33284 -3.0812,4.06184 -39.81275,9.0979 -70.31583,20.14525 -98.60583,51.34019 l -23.56507,32.87508 c 4.0963,-23.55035 5.13308,-49.26528 20.56244,-68.73372 z M 812.12292,126.8052 c 2.78551,-0.51756 3.13211,3.68646 3.53424,5.64562 2.0167,9.81318 2.20706,19.21083 5.72424,29.20467 8.52648,24.22649 27.32514,41.35605 46.1596,57.52143 -52.86543,-9.3555 -82.3993,-38.34807 -55.41808,-92.37172 z m -7.47664,124.98485 c 332.41682,-86.47652 691.52852,103.89147 818.53902,418.1754 -2.0515,1.48141 -4.8289,-2.81495 -6.0554,-4.19164 -55.8039,-62.65385 -90.8743,-116.71932 -176.2324,-146.16755 -5.4586,-1.88321 -28.0588,-5.78112 -29.1839,-6.77006 -3.3365,-2.93238 1.3549,-3.69817 2.6042,-4.68511 5.2806,-4.17124 37.8352,-24.30511 38.4571,-27.16991 0.7521,-3.46532 -14.2434,-11.3528 -17.6893,-13.06037 -40.8974,-20.26803 -87.0064,-16.5645 -130.14,-6.42279 3.6574,-23.3727 14.1216,-37.31563 34.2658,-48.88054 l 17.0483,-8.57934 c -38.1079,-15.01217 -76.1408,-26.18431 -117.7969,-22.34963 -19.5688,1.80125 -37.7536,10.02863 -56.7245,14.10017 0.1565,-17.00277 11.8318,-32.10995 24.8086,-41.90907 7.9691,-6.01798 14.3664,-6.92998 21.8397,-10.98947 2.3961,-1.30142 3.4687,0.0803 2.6169,-4.57939 -42.5835,-5.21973 -85.4949,-7.84666 -126.8707,5.56232 -13.7429,4.4536 -25.8772,12.3384 -39.4474,17.00277 1.7604,-12.63816 5.1086,-24.09467 10.5535,-35.62914 l 24.3353,-36.2223 c -54.1425,10.39095 -123.54194,20.64574 -165.28407,59.55386 -3.38001,3.15017 -8.22772,15.53106 -11.49499,7.42378 -11.07244,-27.47569 -7.26219,-53.93801 10.4582,-77.23209 -56.30231,8.05208 -119.07727,21.16163 -162.01878,60.76528 -3.82899,3.53157 -7.4917,14.55717 -12.07845,5.50176 -6.13608,-12.11559 -1.74705,-36.87268 1.59315,-49.84874 -38.26978,0.82869 -71.86181,14.14266 -107.41768,25.01135 -2.0361,0.62261 -6.13909,3.48506 -7.55861,0.65606 48.68081,-30.79046 102.92995,-54.51177 158.87329,-69.0656 z m -359.0287,661.41986 c -11.04802,-25.22815 -16.76189,-50.45362 -17.52568,-77.96176 -0.89025,-32.06311 8.62651,-72.63764 24.64201,-100.62152 73.33954,-128.14706 264.84235,-124.55829 332.66741,6.1605 15.68897,30.23744 21.8478,66.77958 20.535,100.62152 -1.1512,29.67673 -11.29693,66.78493 -26.69551,92.40786 -8.22069,13.67863 -29.66903,36.82116 -42.15798,47.16929 -19.81906,16.42165 -43.61798,26.2884 -66.67754,37.0242 -8.64023,-1.4165 -31.10762,5.5088 -42.11917,6.1398 -42.56714,2.4389 -102.9691,-13.4378 -139.96723,-34.53749 -8.71885,-4.97283 -25.92402,-19.53268 -33.53147,-20.88629 l -28.75269,-27.71858 -16.38117,-22.6146 45.12147,13.36147 c 0.83371,-0.82267 -7.848,-15.55481 -9.15745,-18.5444 z"
     id="path13" />
  <path
     class="cls-1"
     d="m 1717.6203,665.23617 c 0.01,-0.18467 0.023,-0.35429 0.081,-0.41753 -0.058,0.0632 -0.073,0.23285 -0.081,0.41753 z"
     id="path14" />
  <path
     class="cls-16"
     d="m 1023.3578,1630.7307 c 1.2987,-12.9589 -1.9438,-30.837 0.6811,-42.4422 3.3958,-15.01 21.795,-15.4332 33.7925,-17.5454 48.8333,-8.5973 96.9424,-9.709 146.484,-8.5755 -60.8181,-66.7896 -81.2588,-161.8555 -10.2672,-229.972 -11.0349,-2.8591 -29.6422,6.2428 -39.0165,4.107 2.2884,9.1374 -3.6657,19.7853 -13.4361,20.452 -15.3614,1.0489 -43.4694,-12.4133 -62.5437,-12.238 -7.561,0.07 -24.162,4.107 -31.829,4.107 h -98.56796 c -5.8962,0 -19.35001,-5.9966 -25.66909,0 65.74614,14.9299 131.05765,32.587 197.17785,46.1623 16.3855,6.1923 13.6368,28.8701 -4.8855,27.6627 l -330.37135,-76.4104 c -8.38195,-0.7889 -12.04031,-13.6559 -9.77303,-20.0031 l -73.92602,-18.4815 c -0.14185,9.0531 -3.72092,18.903 -1.99863,27.6851 0.76513,3.9006 9.19492,13.3903 11.97173,18.8131 46.73738,91.2804 -48.11441,244.711 -101.57634,318.8031 -31.91658,44.2329 -67.61296,80.0609 -105.4796,118.3521 -6.22909,6.2989 -38.32431,35.8732 -40.1182,39.9899 -1.094,2.5097 0.81765,2.6427 2.04213,4.0406 58.93794,-15.3094 120.02004,-21.9083 180.76224,-26.6082 68.88761,-5.33 138.80633,-4.2256 206.73711,-19.1479 71.73869,-15.7588 161.91006,-79.9082 169.80956,-158.7507 z M 783.38563,1384.3876 c 104.02395,27.0012 210.39079,46.3128 314.17617,74.0702 5.4958,1.4697 20.8244,4.2789 24.079,7.7372 8.5265,9.0618 -0.027,28.268 -14.2825,23.6792 l -328.61027,-78.1257 c -15.61671,-4.9691 -12.73083,-28.6955 4.63761,-27.3609 z m -31.41742,110.4159 c 3.09029,-0.9197 6.19596,-0.5898 9.27287,0.1158 l 228.43236,52.9454 c 20.89026,8.4863 10.93126,31.3398 -9.98781,26.4382 l -226.77497,-52.5235 c -13.83955,-3.0451 -13.7248,-23.1713 -0.94244,-26.9759 z m -24.639,65.7562 c 3.78449,-0.8457 7.56229,-0.7567 11.33172,0.093 l 229.10214,54.2996 c 17.07905,4.739 13.28553,28.5431 -4.41446,27.1875 l -231.34566,-54.2752 c -16.17776,-0.5383 -20.18606,-23.8356 -4.67374,-27.3046 z m -15.08242,65.4614 c 46.53798,14.7991 100.15917,21.4974 145.92098,36.916 2.79922,0.9432 9.1909,2.6956 10.89212,4.5013 7.86974,8.354 1.01872,26.9051 -12.52274,24.0187 -46.55805,-16.7374 -107.40095,-21.2601 -152.33173,-38.8323 -20.04957,-7.8413 -11.93493,-30.0727 8.04137,-26.6037 z"
     id="path15" />
  <path
     class="cls-15"
     d="m 794.39049,1320.1262 c 33.56092,2.7761 85.07541,20.0559 119.9799,27.9708 3.04044,0.6892 6.38465,0.02 8.61547,0.5266 6.31908,-5.9966 19.77289,0 25.66909,0 h 98.56805 c 7.667,0 24.2679,-4.0374 31.8289,-4.107 l -110.32364,-26.2352 c -13.58863,-11.7375 -6.14712,-26.8116 12.26279,-24.5727 42.65875,5.1879 110.98935,21.9304 153.52705,33.3317 8.1174,2.1757 17.9218,8.6721 20.5136,9.2622 9.3743,2.1358 27.9816,-6.9661 39.0165,-4.107 21.7625,-20.8809 55.7861,-37.1005 86.2414,-39.0262 l -4.0923,-61.6047 c -57.9985,6.5202 -115.3814,19.1526 -173.5412,24.6403 -81.6215,7.7018 -168.86077,7.9287 -250.50698,0 -51.92633,-5.0415 -103.40837,-15.5726 -155.03795,-22.5748 1.64501,24.6048 4.48271,49.2438 4.09663,73.9213 l 73.92602,18.4815 c 2.1358,-5.9785 13.78401,-6.3619 19.25667,-5.9089 z"
     id="path16" />
  <path
     class="cls-11"
     d="m 1793.2425,893.29952 c -2.8879,-19.40387 -6.4201,-38.6766 -10.6125,-57.6964 -1.1177,-5.07186 -2.2826,-10.12599 -3.4951,-15.16004 -1.4713,-6.11199 -3.0371,-12.1825 -4.6486,-18.23092 -2.37,-8.89549 -4.8678,-17.72909 -7.5429,-26.46433 -4.4941,-14.67493 -9.4207,-29.10564 -14.7883,-43.23057 -3.5784,-9.41639 -7.3529,-18.69696 -11.3254,-27.82262 -3.9725,-9.126 -8.1431,-18.09743 -12.5141,-26.89624 -0.2786,-0.56105 -1.3445,-3.06352 -2.7537,-5.77141 -0.47,-0.90263 -0.9782,-1.82801 -1.5078,-2.71224 -0.2319,-0.38675 -0.4681,-0.76513 -0.7066,-1.1308 -1.1937,-1.82701 -2.4573,-3.32046 -3.6189,-3.80757 -0.465,-0.19471 -0.9133,-0.22884 -1.3342,-0.0582 -0.2409,0.0977 -0.4724,0.26162 -0.6932,0.50049 -0.058,0.0632 -0.073,0.23285 -0.081,0.41753 0,0.0442 -0.02,0.0492 -0.019,0.10003 0,0.26296 0.044,0.61257 0.1161,1.03746 0.1435,0.84977 0.4132,2.00131 0.7728,3.36462 0.2248,0.85211 0.4851,1.78653 0.7718,2.78183 0.5731,1.98993 1.2523,4.22276 1.9672,6.52182 0.3573,1.14953 0.7236,2.31579 1.0903,3.47636 0.2931,0.92839 0.5868,1.85377 0.8759,2.76376 0.5778,1.82065 1.1382,3.58242 1.6453,5.19497 1.0144,3.22478 1.8147,5.85305 2.1144,7.1635 8.3499,36.52006 13.6934,74.2967 15.9061,112.51965 0.3158,5.46061 0.5681,10.93026 0.7561,16.40659 0.1332,3.88285 0.2342,7.76938 0.3028,11.65825 0.1201,6.80552 0.1402,13.61908 0.061,20.43564 -0.2386,20.4507 -9.5977,40.93083 -11.6612,61.31997 -1.8949,18.72171 -4.567,37.36648 -8.0317,55.83929 -1.1549,6.15782 5.8215,12.29625 4.49,18.41259 -7.9895,36.69667 -27.388,72.58247 -41.8806,106.90347 -4.8303,11.4401 -10.0293,22.7066 -15.6009,33.7717 -13.9289,27.662 -30.1863,54.0631 -48.8438,78.7674 -11.1949,14.8224 -15.0336,9.5326 -27.9715,23.0393 -6.8808,7.1835 -12.3579,1.4401 -20.2116,8.2075 -3.9267,3.3836 -11.3818,10.6097 -15.4767,13.883 -6.1431,4.9106 -7.0276,15.3484 -13.4096,19.9997 -2.1271,1.5507 -10.2435,-1.5205 -12.385,0 -4.283,3.0415 -8.0793,8.3706 -12.3814,11.2896 -6.4532,4.379 -13.248,-0.7008 -19.6038,3.3914 -2.1188,1.3644 -7.1908,18.3097 -9.2861,19.6413 l -22.6992,12.0224 -41.4395,15.255 c 20.3504,11.1498 57.4134,43.4879 73.9572,59.3428 12.4073,11.8911 3.0919,21.4213 13.0837,35.3964 3.3309,4.6583 12.5141,10.4253 15.5589,15.2791 1.5226,2.4272 9.5671,14.0519 11.0164,16.5246 6.8196,11.6345 6.6171,14.7902 11.7499,27.2936 1.4121,3.4399 11.0089,19.346 12.2879,22.8408 1.9758,5.3984 -1.6514,4.9308 0,10.4447 1.6507,5.5141 13.2021,16.432 14.5196,22.0438 3.2933,14.0289 19.7891,12.539 20.9012,26.9817 l 42.722,-52.7336 c 1.5978,-2.0371 3.1468,-4.1053 4.655,-6.199 3.0164,-4.1869 5.8704,-8.4763 8.6292,-12.8225 6.8969,-10.865 13.1979,-22.086 19.9519,-32.9627 l -41.0232,-85.2835 c 4.6537,-5.8367 9.4331,-11.5713 14.2688,-17.26 4.8356,-5.6888 9.7278,-11.3314 14.6073,-16.9844 4.8799,-5.653 9.7466,-11.3157 14.5321,-17.0446 4.7855,-5.7286 9.4897,-11.5234 14.043,-17.4404 9.6472,-12.5351 17.8726,-26.2753 26.6955,-39.0165 4.6807,-6.7593 9.6041,-13.3427 14.4401,-19.9997 2.0548,-2.8283 4.0856,-5.6774 6.0835,-8.5512 0.7394,-1.0636 1.4694,-2.1345 2.196,-3.2078 1.5095,-2.2288 2.9843,-4.484 4.4222,-6.768 0.4021,-0.6383 0.8176,-1.267 1.2131,-1.911 2.0227,-3.2933 3.9932,-6.6168 5.9256,-9.9624 5.7969,-10.037 11.2484,-20.2727 16.7258,-30.4907 5.477,-10.2183 10.9794,-20.4186 16.877,-30.385 1.9658,-3.3221 3.9752,-6.6188 6.0427,-9.8807 10.8704,-72.2165 12.5569,-151.2324 4.0772,-229.30556 -1.2716,-11.71077 -2.7724,-23.40081 -4.5054,-35.043 z"
     id="path17" />
  <path
     class="cls-2"
     d="m 1743.9809,858.66066 c 0.079,-6.81656 0.059,-13.63012 -0.061,-20.43564"
     id="path18" />
  <path
     class="cls-2"
     d="m 1721.2291,679.04193 c -0.7149,-2.29906 -1.3941,-4.53189 -1.9672,-6.52182"
     id="path19" />
  <path
     class="cls-2"
     d="m 1724.0541,669.31474 c -0.2319,-0.38675 -0.468,-0.76513 -0.7066,-1.1308"
     id="path20" />
  <path
     class="cls-2"
     d="m 1718.3944,664.31815 c 0.4209,-0.17062 0.8692,-0.1365 1.3342,0.0582"
     id="path21" />
  <path
     class="cls-11"
     d="m 1311.0981,1137.1131 c -12.2039,10.7358 -28.1662,15.3126 -43.1238,20.535 -20.0188,6.9895 -34.9751,9.9911 -55.4446,14.3745 -26.01,5.5696 -47.2428,9.2889 -73.926,12.3209 -34.0788,3.8725 -68.3419,7.1729 -102.6753,8.214 -43.72238,1.3259 -87.89807,0.011 -131.42405,-2.0535 -82.53881,-3.9159 -186.82104,-12.5284 -263.41948,-43.5818 -3.13311,-1.27 -6.30637,-2.1184 -7.64258,-5.7022 -32.1474,8.0979 -21.40619,28.9163 -2.74871,40.7382 16.59796,10.5167 97.73449,30.0714 122.10416,33.8151 164.49616,25.2693 302.07816,15.0035 466.32236,-11.4916 23.1382,-3.7326 95.5537,-13.3414 111.1413,-24.3897 24.2978,-17.2219 16.8789,-38.2958 -19.1633,-42.779 z"
     id="path22" />
  <path
     class="cls-9"
     d="m 314.28121,1349.8401 c -24.82668,-29.4938 -48.3506,-60.4833 -70.02075,-92.7133 -7.22338,-10.7433 -14.24102,-21.625 -21.03249,-32.6346 -3.3954,-5.5048 -6.7346,-11.0416 -10.01458,-16.6093 -2.45999,-4.1759 -4.88651,-8.3693 -7.27925,-12.5793 -7.17688,-12.6308 -14.0453,-25.4135 -20.57582,-38.3347 -5.80453,-11.4853 -11.34209,-23.0803 -16.59261,-34.7757 -1.19972,-2.6727 -0.51856,-5.8139 -3.87348,-5.8165 -0.47908,-7e-4 -1.04114,0.063 -1.70222,0.2014 12.90012,129.6167 59.34141,256.6728 129.37053,365.523 l 46.96086,-103.2752 c -8.54454,-9.4893 -16.96497,-19.1546 -25.24019,-28.9859 z"
     id="path23" />
  <path
     class="cls-5"
     d="m 1277.0504,1654.6541 c -152.2999,92.2902 -327.82655,149.7374 -508.07709,172.4562 l 20.8351,4.1716 c 38.54058,0.6868 77.3045,-1.2156 115.7984,-0.085 -1.25206,-5.4461 2.91022,-4.0956 6.57699,-5.0622 9.31163,-2.4544 19.13456,-4.4582 28.60562,-6.3072 102.04118,-19.9197 204.25798,-39.2023 306.42838,-58.4498 14.2729,-27.6573 30.5597,-69.2292 32.7722,-99.8724 0.2119,-2.9332 2.2047,-8.2162 -2.9396,-6.8512 z"
     id="path24" />
  <path
     class="cls-16"
     d="m 1064.5409,1608.2553 c -2.9535,15.4014 -3.5336,31.011 -7.0297,46.3613 -7.5937,33.3434 -25.7661,63.0386 -48.278,88.2589 32.0778,-8.1025 65.0004,-23.27 95.1974,-37.2327 52.5064,-24.2787 102.9517,-53.0153 154.0055,-80.0914 9.2287,-3.0873 -8.8808,-18.0246 -12.9346,-19.3289 -11.857,-3.8144 -45.1225,-6.3837 -58.6616,-7.0504 -40.6977,-2.0043 -82.1859,3.5575 -122.299,9.0832 z"
     id="path25" />
  <path
     class="cls-14"
     d="m 897.36734,1823.7515 c -3.8988,1.0497 -8.32447,-0.4169 -6.99318,5.4978 15.583,0.4674 34.0042,1.4032 50.35917,2.2529 75.94957,3.9465 160.02327,29.9705 235.42117,38.7649 38.326,-24.8016 57.6015,-77.5637 77.4479,-116.8453 -108.6358,20.9038 -217.3209,41.8458 -325.81927,63.4797 -10.07038,2.0081 -20.51492,4.1843 -30.41579,6.85 z"
     id="path26" />
  <path
     class="cls-17"
     d="m 414.37949,1437.7023 c 4.43119,-7.4683 9.10057,-14.8074 14.09214,-21.9595 2.29706,-3.2914 4.64162,-6.5021 7.03235,-9.6433 4.78146,-6.2816 9.74593,-12.2848 14.87701,-18.0981 2.56604,-2.9062 5.17323,-5.765 7.82023,-8.5873 2.64734,-2.822 5.33415,-5.6078 8.05843,-8.3679 8.17386,-8.2809 16.68728,-16.3317 25.48575,-24.451 -14.16507,-7.0809 -27.98421,-14.9536 -41.40824,-23.5423 -26.84773,-17.1771 -52.11268,-37.2173 -75.39438,-59.509 -5.81992,-5.5727 -11.51673,-11.2869 -17.08273,-17.1316 -2.78317,-2.9224 -5.53321,-5.8775 -8.25047,-8.8644 -5.43452,-5.9735 -10.73521,-12.0734 -15.89673,-18.2901 -5.16118,-6.2167 -10.18286,-12.5505 -15.05833,-18.9914 -2.4379,-3.2204 -4.83934,-6.4676 -7.20364,-9.7406 -4.72794,-6.5456 -9.30733,-13.1938 -13.73082,-19.9351 -22.11946,-33.7065 -40.3554,-69.7361 -53.92496,-106.8955 -0.81364,-2.2278 -1.64702,-4.4884 -2.49177,-6.7741 -4.22443,-11.428 -8.7339,-23.4854 -12.46787,-35.2537 -1.3322,-4.1994 -2.54295,-8.3499 -3.62959,-12.4341 -0.13181,-0.4941 -0.2837,-0.999 -0.41083,-1.4908 -2.6102,-10.10021 -4.9842,-21.06995 -7.09993,-32.49602 -2.11573,-11.42573 -3.97318,-23.30813 -5.54994,-35.23269 -1.21878,-9.21566 -2.26527,-18.45273 -3.13846,-27.52821 -0.51655,-5.36861 -0.97155,-10.67767 -1.36131,-15.89071 -0.45265,-6.04843 -0.82,-11.96604 -1.09567,-17.69028 -0.12445,-2.58477 -0.23285,-5.13509 -0.3205,-7.63522 -0.24423,-6.97682 -0.30913,-13.94025 -0.21445,-20.89198 0.0947,-6.95172 0.34961,-13.89107 0.74405,-20.81971 0.39478,-6.92797 0.92973,-13.84524 1.58479,-20.7518 0.36266,-3.82263 0.77015,-7.64124 1.20373,-11.45718 1.13247,-9.97443 2.48708,-19.92879 4.01968,-29.86374 1.05954,-6.86842 2.20037,-13.72747 3.40343,-20.57917 1.80426,-10.27687 3.74802,-20.53567 5.76506,-30.77942 0.67212,-3.41481 1.35261,-6.82727 2.03878,-10.23873 0,3.3e-4 -3.3e-4,3.3e-4 -3.3e-4,6.7e-4 l -39.41563,-1.62451 -4.67877,16.87327 c -2.45764,6.94604 -9.81328,9.51365 -12.11804,16.52459 -2.37869,7.23677 6.61663,18.47287 4.40656,25.7732 -0.95884,3.1679 -8.49939,14.01147 -9.42544,17.19075 -7.02633,24.1124 -10.88692,53.56906 -15.91227,78.21642 -0.41217,2.02038 0.39351,18.03918 -0.005,20.06257 -1.05586,5.37195 11.2504,3.45412 10.29591,8.84514 -1.90964,10.78205 -8.9229,18.76824 -10.41234,29.61385 -0.93107,6.77876 0.72533,18.66559 -0.0354,25.46376 -2.28334,20.3955 -9.0895,36.19493 -9.75828,56.70117 -0.3011,9.24308 -0.0453,19.13708 -0.003,28.96598 0.084,19.6572 -1.44354,35.5791 -0.14145,55.2024 0.65104,9.8115 24.70235,23.6722 25.61903,32.8812 0.66108,-0.1386 1.22313,-0.2021 1.70222,-0.2014 3.35492,0 2.67377,3.1438 3.87348,5.8165 5.25051,11.6954 10.78807,23.2904 16.59261,34.7757 6.53052,12.9212 13.39894,25.7039 20.57582,38.3347 2.39274,4.21 4.81927,8.4034 7.27925,12.5793 3.27998,5.5677 6.61918,11.1045 10.01458,16.6093 6.79147,11.0096 13.8091,21.8913 21.03249,32.6346 21.67015,32.23 45.19407,63.2195 70.02075,92.7132 8.27523,9.8313 16.69565,19.4966 25.24019,28.9859 l -46.96086,103.2752 v 4e-4 c 2.6015,4.0437 5.21371,8.0992 7.84733,12.1537 10.53314,16.2176 21.40485,32.4114 33.27487,47.7093 4.54861,5.862 9.30198,11.5351 14.18113,17.0847 3.05248,3.4724 6.18459,6.8634 9.38996,10.1819 1.69921,1.759 3.35492,3.5625 5.10096,5.2732 v -2e-4 c 0.93408,-4.1944 1.91232,-8.3801 2.9374,-12.5546 1.02441,-4.1746 2.09565,-8.3385 3.21407,-12.489 2.23684,-8.301 4.66404,-16.5491 7.29197,-24.7273 0.63934,-1.9889 1.29573,-3.9715 1.95949,-5.9517 1.90429,-5.6811 3.88619,-11.3341 6.00025,-16.9339 4.23246,-11.2106 8.92493,-22.2309 14.0637,-33.0357 3.58509,-7.5375 7.40438,-14.9613 11.46621,-22.2579 1.65505,-2.9729 3.35392,-5.9226 5.0916,-8.8517 z"
     id="path27" />
  <path
     class="cls-3"
     d="m 205.93413,1195.3036 c -7.17688,-12.6308 -14.0453,-25.4135 -20.57582,-38.3347"
     id="path28" />
  <path
     class="cls-9"
     d="m 1739.1415,1326.1442 c -14.2119,-3.5497 -32.1855,-0.5878 -46.0923,-8.3231 -4.5533,5.9169 -9.2575,11.7118 -14.043,17.4404 -4.7854,5.7289 -9.6522,11.3916 -14.532,17.0446 -4.8795,5.6529 -9.7717,11.2955 -14.6074,16.9843 -4.8357,5.6888 -9.6148,11.4234 -14.2688,17.2601 l 41.0232,85.2835 c 29.8791,-48.1175 49.1897,-86.496 69.819,-139.6384 -1.5988,-3.751 -3.3255,-5.0592 -7.2986,-6.0515 z"
     id="path29" />
  <path
     class="cls-13"
     d="m 1770.751,1197.9138 c -5.4773,10.218 -10.9289,20.4537 -16.7258,30.4907 -1.9324,3.3456 -3.9029,6.669 -5.9256,9.9624 -0.3954,0.644 -0.811,1.2726 -1.2131,1.911 -1.4379,2.284 -2.9126,4.5392 -4.4222,6.768 -0.7266,1.0733 -1.4566,2.1442 -2.196,3.2077 -1.9979,2.8739 -4.0287,5.7229 -6.0835,8.5513 -4.836,6.657 -9.759,13.2403 -14.4401,19.9997 -8.8229,12.7412 -17.0483,26.4814 -26.6955,39.0165 13.9068,7.7353 31.8804,4.7734 46.0923,8.3231 3.9732,0.9923 5.6998,2.3004 7.2987,6.0514 23.1633,-59.6683 37.6268,-110.7441 47.2305,-174.5475 -2.0676,3.2619 -4.0769,6.5586 -6.0427,9.8807 -5.8976,9.9664 -11.4,20.1667 -16.877,30.385 z"
     id="path30" />
  <path
     class="cls-12"
     d="m 1542.1577,915.36511 c -13.1764,3.95545 -27.207,13.32065 -42.0941,13.34006 11.0765,-17.28915 20.884,-40.44673 24.5985,-60.60101 7.9183,-42.96326 2.3848,-84.03527 -16.428,-123.21003 -56.766,-118.20742 -214.4954,-145.26759 -305.9719,-49.28435 -23.4158,24.56974 -42.7013,61.09181 -49.284,94.46136 -5.9862,30.3445 -6.0026,71.15423 4.107,100.62152 8.3485,24.33388 32.3037,59.69838 51.3375,78.03335 74.8886,72.13749 190.2352,64.90579 273.1159,10.2675 23.7842,-15.6796 44.6839,-39.4889 63.6415,-60.60603 0.6279,-2.8096 -0.1502,-3.88452 -3.0224,-3.02237 z M 1273.6312,704.36476 c 80.3187,-10.47192 90.5086,115.35668 11.7563,120.61823 -75.4563,5.04108 -86.2109,-110.91077 -11.7563,-120.61823 z m -56.9941,241.79316 c 15.5233,4.5436 28.1659,15.2855 43.1951,21.46942 97.0601,39.93316 206.7043,-11.90716 229.353,-115.4915 l 4.651,-27.14281 c 27.298,161.07567 -174.3408,234.46377 -277.1991,121.16489 z"
     id="path31" />
  <path
     class="cls-4"
     d="m 1026.696,137.0252 c 3.1893,-0.729 3.571,1.37235 3.0812,-4.06184 -35.98807,-5.35054 -79.1805,-12.64285 -104.68968,19.54338 -15.42936,19.46844 -16.46614,45.18337 -20.56244,68.73372 l 23.56507,-32.87508 c 28.29,-31.19494 58.79308,-42.24229 98.60585,-51.34019 z"
     id="path32" />
  <path
     class="cls-4"
     d="m 821.38141,161.6555 c -3.51718,-9.99384 -3.70754,-19.39149 -5.72424,-29.20467 -0.40214,-1.95916 -0.74873,-6.16318 -3.53424,-5.64562 -26.98122,54.02366 2.55266,83.01622 55.41808,92.37172 -18.83446,-16.16538 -37.63312,-33.29494 -46.1596,-57.52143 z"
     id="path33" />
  <path
     class="cls-4"
     d="m 1624.2569,673.02128 v 2.0535 c 1.3336,-0.6845 1.3336,-1.369 0,-2.0535 z"
     id="path34" />
  <path
     class="cls-4"
     d="m 653.3316,320.19958 c 35.55587,-10.8687 69.1479,-24.18266 107.41768,-25.01135 -3.3402,12.97606 -7.72923,37.73315 -1.59315,49.84874 4.58675,9.05541 8.24946,-1.9702 12.07845,-5.50176 42.94151,-39.60365 105.71647,-52.7132 162.01878,-60.76528 -17.72039,23.29408 -21.53064,49.7564 -10.4582,77.23209 3.26727,8.10728 8.11497,-4.27361 11.49499,-7.42378 41.74213,-38.90811 111.14155,-49.1629 165.28405,-59.55386 l -24.3352,36.2223 c -5.4449,11.53446 -8.7932,22.99098 -10.5536,35.62914 13.5702,-4.66437 25.7045,-12.54917 39.4474,-17.00277 41.3758,-13.40898 84.2872,-10.78205 126.8708,-5.56232 0.8517,4.65969 -0.2209,3.27797 -2.6169,4.57939 -7.4733,4.05949 -13.8707,4.97149 -21.8398,10.98947 -12.9767,9.79912 -24.652,24.9063 -24.8086,41.90907 18.9709,-4.07154 37.1557,-12.29892 56.7245,-14.10017 41.6561,-3.83467 79.6891,7.33747 117.7969,22.34963 l -17.0483,8.57934 c -20.1442,11.56491 -30.6084,25.50783 -34.2658,48.88054 43.1336,-10.14171 89.2427,-13.84524 130.14,6.42279 3.446,1.70757 18.4414,9.59505 17.6893,13.06037 -0.6219,2.8648 -33.1765,22.99867 -38.4571,27.16991 -1.2492,0.98694 -5.9407,1.75274 -2.6042,4.68511 1.1251,0.98895 23.7253,4.88685 29.1839,6.77006 85.3581,29.44823 120.4286,83.5137 176.2324,146.16755 1.2265,1.3767 4.004,5.67305 6.0554,4.19164 -127.0105,-314.28393 -486.1222,-504.65192 -818.539,-418.1754 -55.94333,14.55382 -110.19248,38.27513 -158.87329,69.0656 1.41952,2.829 5.5225,-0.0335 7.55861,-0.65606 z"
     id="path35" />
  <path
     class="cls-12"
     d="m 778.74802,1411.7485 328.61028,78.1257 c 14.2557,4.5888 22.8089,-14.6174 14.2825,-23.6792 -3.2546,-3.4583 -18.5832,-6.2675 -24.079,-7.7372 -103.78538,-27.7574 -210.15222,-47.0689 -314.17618,-74.0702 -17.36844,-1.3346 -20.25431,22.3917 -4.63761,27.3609 z"
     id="path36" />
  <path
     class="cls-12"
     d="m 914.37039,1348.097 c -34.90449,-7.9149 -86.41898,-25.1947 -119.9799,-27.9708 -5.47266,-0.453 -17.12087,-0.07 -19.25667,5.9089 -2.26728,6.3472 1.39108,19.2142 9.77303,20.0031 l 330.37135,76.4104 c 18.5223,1.2074 21.271,-21.4704 4.8855,-27.6627 -66.1202,-13.5753 -131.43171,-31.2324 -197.17785,-46.1623 -2.23081,-0.5065 -5.57503,0.1626 -8.61547,-0.5266 z"
     id="path37" />
  <path
     class="cls-12"
     d="m 732.00295,1587.8643 231.34566,54.2752 c 17.69998,1.3556 21.49351,-22.4485 4.41446,-27.1875 l -229.10214,-54.2996 c -3.76943,-0.8495 -7.54723,-0.9384 -11.33172,-0.093 -15.51233,3.469 -11.50402,26.7663 4.67374,27.3046 z"
     id="path38" />
  <path
     class="cls-12"
     d="m 752.91065,1521.7794 226.77497,52.5235 c 20.91908,4.9016 30.87808,-17.9519 9.98781,-26.4382 l -228.43236,-52.9454 c -3.07691,-0.7056 -6.18258,-1.0355 -9.27287,-0.1158 -12.78235,3.8046 -12.89711,23.9308 0.94244,26.9759 z"
     id="path39" />
  <path
     class="cls-12"
     d="m 980.99105,1293.7087 c -18.40991,-2.2388 -25.85142,12.8352 -12.26279,24.5727 l 110.32364,26.2352 c 19.0743,-0.1753 47.1823,13.2869 62.5438,12.238 9.7703,-0.6667 15.7244,-11.3146 13.436,-20.452 -2.5918,-0.5902 -12.3962,-7.0866 -20.5136,-9.2622 -42.5377,-11.4013 -110.8682,-28.1438 -153.52704,-33.3317 z"
     id="path40" />
  <path
     class="cls-12"
     d="m 869.05989,1667.4384 c -1.70121,-1.8057 -8.09289,-3.5581 -10.89212,-4.5012 -45.76181,-15.4187 -99.383,-22.117 -145.92098,-36.916 -19.9763,-3.469 -28.09094,18.7623 -8.04137,26.6036 44.93078,17.5722 105.77368,22.0949 152.33173,38.8324 13.54146,2.8863 20.39248,-15.6648 12.52274,-24.0188 z"
     id="path41" />
  <path
     class="cls-16"
     d="m 897.61184,1005.9834 c 53.96143,-24.47403 104.15176,-24.92367 159.39146,-3.9146 8.4178,3.2014 35.2401,19.7204 15.1668,-1.819 -53.9511,-57.8911 -161.15463,-55.0989 -200.52142,17.7395 3.31778,2.5359 21.21649,-9.8527 25.96316,-12.0059 z"
     id="path42" />
  <path
     class="cls-12"
     d="m 1075.0292,1054.0289 c -7.1916,4.6072 -11.7623,19.6177 -10.3518,27.6396 0.2412,1.3697 8.0862,16.8288 9.3889,18.3323 7.7416,8.9347 25.8043,13.761 35.7881,6.3097 24.0946,-17.9823 -5.5831,-71.016 -34.8252,-52.2816 z"
     id="path43" />
  <path
     class="cls-12"
     d="m 409.65356,918.39284 16.38117,22.6146 28.75269,27.71858 c 7.60745,1.35361 24.81263,15.91346 33.53147,20.88629 36.99814,21.09969 97.40009,36.97639 139.96723,34.53749 11.01155,-0.631 33.47895,-7.5563 42.11917,-6.1398 23.05956,-10.7359 46.85849,-20.60255 66.67754,-37.0242 12.48895,-10.34813 33.93729,-33.49066 42.15798,-47.16929 15.39858,-25.62292 25.5443,-62.73113 26.69551,-92.40786 1.3128,-33.84194 -4.84603,-70.38408 -20.535,-100.62152 -67.82507,-130.71879 -259.32787,-134.30756 -332.66741,-6.1605 -16.0155,27.98388 -25.53226,68.55841 -24.64201,100.62152 0.76379,27.50814 6.47766,52.73361 17.52568,77.96176 1.30945,2.98959 9.99116,17.72173 9.15745,18.5444 z M 552.82583,706.37276 c 91.63436,-14.6301 95.34826,131.62777 -0.31649,118.4289 -60.3056,-8.32039 -62.33167,-108.4267 0.31649,-118.4289 z m -91.85751,126.83159 c 2.9568,-0.48109 2.86446,3.61654 3.45997,5.73026 2.74135,9.73422 3.82062,20.36907 6.91325,30.0705 30.0434,94.2459 137.76252,137.03449 227.1403,98.02169 6.70984,0.13148 41.9974,-26.76275 43.78526,-24.98626 2.23282,2.21877 -2.99226,5.71487 -4.29,6.98351 -8.52547,8.3331 -20.74678,18.14427 -30.78243,24.66208 -111.31826,72.29537 -262.37266,-3.6132 -246.22635,-140.48178 z"
     id="path44" />
  <path
     class="cls-1"
     d="m 897.61177,1005.9834 c 53.96153,-24.47404 104.15193,-24.92364 159.39163,-3.9147 8.4177,3.2016 35.2399,19.7204 15.1666,-1.8189 -53.951,-57.89108 -161.15457,-55.09884 -200.52127,17.7396 3.31773,2.5358 21.21648,-9.8528 25.96304,-12.006 z"
     id="path45" />
  <path
     class="cls-1"
     d="m 1064.6774,1081.6687 c 0.2412,1.3694 8.0862,16.8287 9.389,18.3321 7.7415,8.9346 25.8043,13.7609 35.788,6.3097 24.0947,-17.9822 -5.5831,-71.016 -34.8253,-52.2817 -7.1914,4.6072 -11.7622,19.6178 -10.3517,27.6399 z"
     id="path46" />
  <path
     class="cls-1"
     d="m 871.24008,1109.0626 c 1.62267,-0.4075 14.19015,-6.2997 14.7828,-6.8592 3.92403,-3.7038 9.98178,-18.6916 10.26739,-24.6418 1.26626,-26.353 -27.42616,-36.2484 -43.12341,-18.4816 -7.68312,8.6957 -12.01468,23.6619 -8.214,34.9096 3.86545,11.4395 14.47084,18.0405 26.28723,15.073 z"
     id="path47" />
  <path
     class="cls-1"
     d="m 1200.3512,1165.2898 c -2.0306,-0.5276 -4.0646,-1.0509 -6.0745,-1.6441 2.0099,0.5932 4.0441,1.1167 6.0745,1.6441 z"
     id="path48" />
  <path
     class="cls-1"
     d="m 879.86225,1174.0761 c 0.10129,1.0938 0.38864,2.0265 0.82729,2.828 -0.43865,-0.8015 -0.72584,-1.7342 -0.82729,-2.828 z"
     id="path49" />
  <path
     class="cls-1"
     d="m 1198.1455,1149.4554 -49.2743,4.0858 c -33.5165,0.7439 -67.104,1.2411 -100.6218,2.0533 -44.3161,1.0739 -87.35364,0.7822 -131.42404,0 -51.2466,-0.9096 -101.19329,0.5728 -151.95901,-6.1604 -2.62221,-0.348 -5.55036,0.2161 -8.214,0.02 -4.40523,3.1968 35.59937,13.0266 38.62784,13.7161 28.76291,6.551 55.39782,8.5553 84.58207,10.9056 46.25428,3.725 93.1436,5.8118 139.63824,4.1069 31.4065,-1.1515 66.8032,-3.9851 98.5682,-8.2138 22.5239,-2.999 46.2151,-7.1543 67.7656,-14.3747 3.4797,-1.1659 11.0251,-2.2315 12.3112,-6.1391 z"
     id="path50" />
  <path
     class="cls-8"
     d="m 1229.5894,1119.0264 c -111.0687,-50.2696 -105.0836,-182.88781 -252.35966,-184.53844 -69.55276,-0.77953 -112.68927,49.60497 -143.23154,83.84184 -9.34881,10.4795 -22.46201,22.1179 -31.25945,31.7789 -8.03254,8.8208 -22.02688,21.8259 -30.84591,29.8315 l -10.28197,3.7567 c -8.83094,8.0161 -4.79819,11.5743 -14.68853,18.2403 -13.54464,9.1291 -25.63607,13.3093 -41.12788,18.4427 -8.70727,2.8852 -23.12301,4.2191 -32.29195,5.7934 -14.21174,2.4404 -27.02537,8.9586 -40.06024,15.0468 1.33627,3.5836 4.50953,4.432 7.64263,5.7021 76.59842,31.0535 180.88068,39.6658 263.41953,43.5819 43.52586,2.0648 87.70168,3.3793 131.42387,2.0536 34.3335,-1.0412 68.5966,-4.3416 102.6753,-8.2142 26.6832,-3.032 47.9162,-6.7512 73.9262,-12.3209 20.4694,-4.3834 35.4257,-7.385 55.4445,-14.3745 14.9576,-5.2224 30.9198,-9.7991 43.1239,-20.5349 -29.5969,-5.5921 -52.4001,-4.912 -81.5088,-18.0868 z m -119.735,-12.7159 c -9.9837,7.4512 -28.0465,2.6249 -35.788,-6.3097 -1.3028,-1.5034 -9.1478,-16.9627 -9.389,-18.3321 -1.4105,-8.0221 3.1603,-23.0327 10.3517,-27.6399 29.2422,-18.7343 58.92,34.2995 34.8253,52.2817 z M 1072.17,1000.2499 c 20.0733,21.5392 -6.7489,5.0204 -15.1666,1.8189 -55.2397,-21.00904 -105.4301,-20.55943 -159.39163,3.9146 -4.74656,2.1533 -22.64531,14.5418 -25.96304,12.006 39.3667,-72.83842 146.57027,-75.63066 200.52127,-17.7395 z M 853.16686,1059.08 c 15.69724,-17.7668 44.38966,-7.8714 43.12341,18.4816 -0.28561,5.9502 -6.34335,20.938 -10.26739,24.6418 -0.59265,0.5595 -13.16013,6.4517 -14.7828,6.8592 -11.81639,2.9675 -22.42178,-3.6335 -26.28723,-15.073 -3.80068,-11.2477 0.53089,-26.2139 8.214,-34.9096 z m 264.90184,110.8892 c -31.765,4.2287 -67.1617,7.0623 -98.5682,8.2138 -46.49465,1.7049 -93.38397,-0.3819 -139.63825,-4.1069 0.10145,1.0939 0.38864,2.0266 0.82729,2.828 -0.43865,-0.8014 -0.726,-1.7342 -0.82729,-2.828 -29.18425,-2.3503 -55.81916,-4.3546 -84.58207,-10.9056 -3.02848,-0.6895 -43.03307,-10.5193 -38.62784,-13.7161 2.66365,0.1958 5.59179,-0.3683 8.214,-0.02 50.76572,6.7332 100.71241,5.2508 151.95901,6.1604 44.0704,0.7822 87.10795,1.0739 131.42405,0 33.5177,-0.8122 67.1053,-1.3094 100.6218,-2.0533 l 49.2743,-4.0858 c -1.2861,3.9076 -8.8316,4.9732 -12.3112,6.1391 -21.5505,7.2204 -45.2417,11.3757 -67.7656,14.3747 z m 76.208,-6.3235 c 2.0099,0.5932 4.0439,1.1165 6.0745,1.6441 -2.0304,-0.5274 -4.0646,-1.0509 -6.0745,-1.6441 z"
     id="path51"
     style="fill:url(#linear-gradient-2)" />
  <path
     class="cls-16"
     d="m 1019.5004,1178.1831 c 31.4067,-1.1516 66.8033,-3.9853 98.5683,-8.214 22.524,-2.999 46.2152,-7.1542 67.7655,-14.3745 3.4798,-1.166 11.0253,-2.2315 12.3113,-6.1391 l -49.2743,4.0856 c -33.5164,0.744 -67.1041,1.2412 -100.6218,2.0535 -44.3162,1.0739 -87.35374,0.7822 -131.42404,0 -51.24651,-0.9097 -101.19328,0.5727 -151.95904,-6.1605 -2.62224,-0.348 -5.55027,0.2161 -8.214,0.02 -4.40509,3.1967 35.59936,13.0266 38.62776,13.7161 28.76306,6.5509 55.39801,8.5552 84.58227,10.9055 46.25428,3.7249 93.14354,5.8119 139.63805,4.107 z"
     id="path52" />
  <path
     class="cls-12"
     d="m 853.16684,1059.08 c -7.68306,8.6958 -12.01455,23.6618 -8.214,34.9096 3.86545,11.4394 14.47086,18.0405 26.28735,15.073 1.62259,-0.4075 14.19016,-6.2997 14.78266,-6.859 3.924,-3.7039 9.98179,-18.6917 10.2675,-24.6421 1.26629,-26.3529 -27.42617,-36.2484 -43.12351,-18.4815 z"
     id="path53" />
  <path
     class="cls-16"
     d="m 1285.3875,824.98299 c 78.7523,-5.26155 68.5625,-131.09014 -11.7562,-120.61823 -74.4547,9.70746 -63.7001,125.65931 11.7562,120.61823 z"
     id="path54" />
  <path
     class="cls-16"
     d="m 1489.1852,852.13583 c -22.6487,103.58435 -132.2928,155.42467 -229.353,115.4915 -15.0292,-6.18392 -27.6718,-16.92582 -43.1951,-21.46942 102.8583,113.29879 304.4972,39.91078 277.1991,-121.16489 z"
     id="path55" />
  <path
     class="cls-16"
     d="m 552.50934,824.80166 c 95.66475,13.19888 91.95085,-133.059 0.31649,-118.4289 -62.64816,10.0022 -60.62209,110.10851 -0.31649,118.4289 z"
     id="path56" />
  <path
     class="cls-16"
     d="m 707.19467,973.68613 c 10.03566,-6.51781 22.25696,-16.32898 30.78243,-24.66208 1.29774,-1.26863 6.52282,-4.76474 4.29,-6.98351 -1.78786,-1.77649 -37.07542,25.11774 -43.78526,24.98626 -89.37779,39.0128 -197.0969,-3.77579 -227.1403,-98.02169 -3.09263,-9.70143 -4.1719,-20.33628 -6.91325,-30.0705 -0.59551,-2.11372 -0.50317,-6.21135 -3.45997,-5.73026 -16.14631,136.86858 134.90809,212.77715 246.22635,140.48178 z"
     id="path57" />
  <path
     class="cls-7"
     d="m 588.9478,1345.9786 c 93.16494,5.9607 141.83986,25.2642 51.75132,246.4934 -45.30618,111.2578 -122.67036,188.4038 -189.20995,166.2433 -47.69269,-15.8837 -71.49489,-66.5354 -70.34586,-141.6917 0.45406,-29.6999 -14.74649,-56.6504 6.96989,-101.9928 51.46756,-107.4608 130.84493,-173.5302 200.8346,-169.0522 z"
     id="path58"
     style="fill:url(#linear-gradient-3)" />
  <path
     class="cls-6"
     d="m 1545.648,1672.1536 c -54.206,90.5508 -98.4395,130.0986 -269.1426,-66.285 -85.8478,-98.7627 -121.5298,-213.3137 -65.2174,-269.4033 40.3622,-40.2025 102.5014,-39.7839 175.7788,-2.6011 28.9573,14.6936 63.3361,12.3738 96.6351,55.8845 78.9183,103.12 102.668,214.3792 61.9461,282.4049 z"
     id="path59"
     style="fill:url(#linear-gradient-4)" />
  <path
     class="cls-12"
     d="m 882.65838,101.55148 c 13.9619,-6.615026 26.09108,-16.192096 40.51955,-22.092086 61.33365,-25.08016 132.04077,-12.24374 185.29557,25.285346 2.9114,2.05167 3.3296,6.15035 5.7407,7.03232 16.0266,5.86241 52.5281,8.7809 72.38,13.37173 521.6595,120.63621 827.2628,666.97436 674.063,1179.28021 -154.5439,516.8002 -722.1512,800.3686 -1227.88673,592.2704 -16.87896,-6.9453 -77.40685,-40.1871 -88.12593,-41.4158 -13.13472,-1.5055 -55.39117,9.6641 -70.6711,13.2889 -16.2225,3.8484 -65.24092,20.931 -77.04066,19.6891 -5.75192,-0.6054 -12.73193,-6.9812 -14.4549,-12.3774 -3.01615,-9.4463 2.98552,-15.9507 8.33166,-22.7102 13.73851,-17.3704 43.49687,-37.5772 54.54319,-54.2843 1.3015,-1.9685 2.50745,-3.5224 2.10256,-6.0979 -0.28705,-1.8259 -25.74216,-18.5426 -29.83936,-21.8192 C 151.25818,1557.9601 18.139155,1230.654 69.803325,889.42175 124.37486,528.98696 391.38226,226.11052 743.8689,132.19613 c 10.08158,-22.3931 18.93116,-46.092336 37.14245,-63.479166 39.2598,-37.48246 100.75816,-27.94968 101.64704,32.834526 z m -47.24091,-6.150676 c -43.92962,18.455966 -61.86241,66.849606 -31.6511,106.603926 2.15015,2.82933 17.80728,16.41891 15.21296,18.64912 C 726.90278,230.9804 643.87515,276.53774 569.86461,329.87579 348.45925,489.4386 203.1653,758.08815 301.47092,1032.8606 c 47.55826,132.9293 124.79228,202.7392 245.02232,268.3546 3.50702,1.914 11.31449,9.0572 12.98788,9.3782 4.01895,0.7709 15.06859,-4.6538 20.47062,-5.4839 28.0004,-4.3023 56.74575,-3.0755 82.95125,8.0173 -0.15726,-28.8241 1.62052,-58.018 -5.06076,-86.2989 -37.43782,-4.9507 -81.23775,-26.0988 -76.83644,-70.5725 5.94773,-60.0998 71.60591,-50.9822 111.7269,-62.8188 106.79364,-31.5066 133.14659,-169.76887 256.68553,-184.81747 187.53008,-22.84353 187.15338,163.68637 343.15658,190.69137 22.968,3.9759 37.2305,0.013 58.0946,15.8315 51.2798,38.8786 15.4412,103.7561 -40.7879,107.7258 l 3.9869,64.6063 c 1.1594,6.5059 15.467,6.1647 22.5862,8.2164 15.4537,4.4535 30.2971,12.1083 45.7016,15.0581 251.7894,-84.3142 334.7838,-368.42825 276.9829,-608.80496 -46.8357,-194.7758 -184.1408,-351.08783 -364.4021,-434.41039 -99.2521,-45.87751 -211.624,-74.659 -321.72455,-69.46811 -2.32527,-2.06292 10.20501,-13.577 12.28621,-15.41498 21.18774,-18.7116 50.90104,-31.0751 78.04954,-37.98715 4.5233,-5.88481 -26.6455,-22.05372 -30.838,-23.54996 -23.5607,-8.4086 -51.41449,-7.4051 -75.57199,-1.73287 -37.68712,8.84902 -70.85763,36.08039 -74.31087,76.64172 -2.71264,3.32315 -26.28536,-25.01397 -28.37955,-28.07055 -4.98507,-7.27597 -18.83031,-33.12167 -18.83031,-40.72126 V 95.400804 Z M 1601.3474,1575.9602 c 12.2741,-18.0945 27.6914,-34.8052 40.7163,-52.7287 161.4928,-222.2282 201.4879,-500.0888 117.971,-762.01033 -3.8701,-12.13725 -34.6347,-94.02132 -40.612,-96.98327 -3.7539,-1.8602 -3.0908,1.6844 -2.2701,4.32421 35.5806,114.45355 33.5821,250.52158 0.2397,365.28489 -39.2406,135.0652 -129.2306,258.2614 -259.7484,316.2696 l 39.9661,28.7852 c 60.4677,50.0368 88.6396,110.323 100.2598,187.233 0.3607,2.3875 0.5168,9.9707 3.4776,9.8254 z M 427.98642,1307.819 C 259.15248,1184.768 180.54526,974.32743 211.40112,768.17124 c 2.79882,-18.69963 8.65013,-37.8943 11.56744,-56.21406 0.34737,-2.18134 2.17298,-7.14269 -1.5224,-6.65078 -113.71338,273.84928 -72.58877,593.9599 105.94291,829.3862 2.83177,3.7342 31.39707,40.9161 33.64455,39.2251 18.67484,-87.2372 59.16823,-170.1702 129.38534,-226.9173 -22.07581,-11.0402 -42.59844,-24.7258 -62.43253,-39.1814 z M 954.09943,944.10287 C 843.83699,955.98619 813.83907,1110.68 676.05722,1134.2592 c -18.97435,3.2472 -48.57393,-1.7085 -57.75486,20.2918 -8.6868,20.8162 16.05183,30.53 32.22983,34.4099 205.31222,49.2394 420.69421,44.2204 626.81421,4.4629 21.1914,-4.0876 68.9105,-7.0842 60.6613,-38.9383 -5.2474,-20.2628 -38.6891,-17.6027 -53.6618,-20.2506 -18.2726,-3.2316 -39.1632,-8.1525 -56.0563,-15.8163 -111.5975,-50.6277 -125.2873,-190.36345 -274.19017,-174.31574 z m 287.91147,356.70383 c 10.947,-4.1499 25.3797,-7.9648 36.9769,-8.2064 l -4.1117,-61.6223 c -51.2879,5.6301 -101.9636,16.6284 -153.2504,22.3428 -98.7137,10.9987 -208.94815,10.023 -307.47847,-2.0897 -39.54111,-4.8609 -78.87396,-12.9537 -118.35742,-18.1853 0.68142,18.0714 3.835,37.4934 4.09649,55.4399 0.18265,12.5361 -3.82292,36.8512 -1.9983,46.1668 0.76312,3.8962 9.1959,13.3928 11.9715,18.8129 46.74716,91.2851 -48.08689,244.6729 -101.57627,318.8031 -31.91662,44.2328 -67.61288,80.0608 -105.47966,118.3521 -6.22896,6.2987 -38.3242,35.8731 -40.11836,39.9898 -1.09378,2.5096 0.81773,2.6427 2.0421,4.0406 58.9382,-15.3094 120.02016,-21.9083 180.76222,-26.6081 68.88816,-5.3301 138.80647,-4.2257 206.7373,-19.148 71.73889,-15.7588 161.90987,-79.9082 169.80967,-158.7507 1.2985,-12.9588 -1.9439,-30.8371 0.6813,-42.4423 3.3954,-15.0099 21.7944,-15.433 33.7923,-17.5453 48.8331,-8.5972 96.9421,-9.709 146.4837,-8.5756 -41.9982,-48.4417 -69.0923,-107.4333 -47.7888,-172.0057 13.072,-39.6219 47.6106,-73.9099 86.8059,-88.7686 z m 141.6914,260.8156 c -16.0027,20.0173 -39.7683,40.989 -35.486,69.2886 32.7081,27.9597 65.6287,56.874 99.7912,82.3914 16.7007,-11.7394 101.3217,-74.9207 104.0365,-89.1146 3.4914,-18.2539 -3.8435,-66.4125 -8.7591,-85.6106 -14.7212,-57.4937 -50.2978,-104.1415 -98.5366,-137.6161 -33.9853,-23.5837 -113.6959,-64.2744 -154.4512,-61.1012 -60.4467,4.7064 -109.4496,62.5323 -89.3314,123.1688 21.8979,-19.8473 47.3298,-38.1636 77.9671,-40.0587 -20.8378,16.0922 -59.4066,68.625 -48.1707,95.4664 7.3833,17.6381 24.6444,-1.8763 35.2781,-7.7583 19.7731,-10.9374 39.2013,-17.1159 62.2172,-14.7681 -17.5263,14.7843 -47.8642,41.2476 -50.9926,65.2184 -1.3027,9.9811 17.2641,21.572 23.5631,29.0099 24.743,-15.8635 53.2322,-27.3085 82.8744,-28.5159 z M 656.00961,1365.243 c -35.99699,-25.1821 -85.98511,-10.6233 -120.2306,10.6895 -62.00243,38.5873 -102.79974,116.2116 -120.74627,185.2256 -2.94123,11.3105 -13.09708,51.8304 -10.44047,60.5935 1.16724,3.8503 36.64733,36.2761 42.68394,41.5276 19.32843,16.8148 40.893,32.3055 61.58111,47.4601 2.39568,1.2763 3.40421,0.1105 5.23051,-1.1142 7.65198,-5.1315 27.17434,-29.685 33.78253,-38.218 6.05496,-7.8186 19.67696,-23.7585 20.66241,-32.7636 3.4101,-31.1618 -32.9422,-52.3203 -53.46107,-68.8075 23.65047,-3.0657 44.47356,-1.5734 67.78731,3.0373 6.11157,1.2087 19.97875,7.2864 23.69114,7.1126 4.81461,-0.2253 14.65716,-16.9701 15.27301,-21.6379 3.40373,-25.7983 -48.05098,-56.8791 -69.77888,-63.475 31.51388,-15.2736 66.90497,-2.1338 97.32025,9.3968 16.11607,-23.4763 -17.10477,-59.8222 -35.30589,-73.976 -10.0822,-7.8402 -21.80437,-12.364 -31.22137,-20.631 32.13557,-2.6435 60.87154,6.8806 88.27648,22.5605 4.15021,-21.7085 4.96613,-52.94 -15.10414,-66.9804 z m 351.90229,377.0459 c 32.0778,-8.1024 65.0005,-23.2699 95.1972,-37.2326 52.5068,-24.2786 102.9519,-53.0153 154.0056,-80.0913 9.2286,-3.0874 -8.8807,-18.0248 -12.9345,-19.3289 -11.8569,-3.8145 -45.1226,-6.3837 -58.6616,-7.0505 -40.6976,-2.0044 -82.1861,3.5575 -122.299,9.0831 -2.9536,15.4015 -3.5337,31.0111 -7.0297,46.3614 -7.5938,33.3434 -25.7663,63.0386 -48.278,88.2588 z m 271.0505,-88.2702 c -22.5041,10.1039 -42.6923,25.2136 -64.3203,37.3069 -109.4798,61.2162 -229.31873,101.8822 -352.48634,125.9798 -20.19086,3.9503 -41.78334,5.6746 -61.67451,10.2203 -2.27548,0.52 -6.63934,0.01 -6.12351,3.0638 93.77589,-1.3791 187.01531,1.3459 280.28356,10.2976 33.4358,3.2091 66.6762,9.3432 100.1846,11.9378 61.684,-46.7423 95.3151,-123.1134 104.1365,-198.8062 z"
     id="path60" />
</svg>
