<svg xmlns="http://www.w3.org/2000/svg" viewBox="0 0 24 24"><g fill="none"><path fill="url(#SVG0TyNuc3B)" fill-rule="evenodd" d="M10.138 6.725H3V21h7.138a7.136 7.136 0 0 0 5.047-12.185a7.14 7.14 0 0 0-5.047-2.09m0 1.862H4.862v10.551h5.276a5.276 5.276 0 0 0 0-10.551" clip-rule="evenodd"/><path fill="url(#SVG4NIRoegG)" d="m16.952 15.99l-2.333.664a6 6 0 0 1-.342.478l1.223 1.434a7.05 7.05 0 0 0 1.452-2.576"/><path fill="url(#SVGzmIjScNf)" fill-rule="evenodd" d="M13.862 3H6.724v14.275h7.138a7.137 7.137 0 1 0 0-14.275m0 1.862H8.587v10.551h5.275a5.276 5.276 0 0 0 0-10.551" clip-rule="evenodd"/><path fill="url(#SVG2WJFVdPo)" d="M8.587 10.448L6.724 8.586h1.863z"/><defs><linearGradient id="SVG0TyNuc3B" x1="5.732" x2="17.946" y1="6.215" y2="17.625" gradientUnits="userSpaceOnUse"><stop stop-color="#422c81"/><stop offset="1" stop-color="#7b368a"/></linearGradient><linearGradient id="SVG4NIRoegG" x1="5.732" x2="17.945" y1="6.214" y2="17.624" gradientUnits="userSpaceOnUse"><stop stop-color="#422c81"/><stop offset="1" stop-color="#7b368a"/></linearGradient><linearGradient id="SVGzmIjScNf" x1="5.733" x2="17.946" y1="6.214" y2="17.624" gradientUnits="userSpaceOnUse"><stop stop-color="#422c81"/><stop offset="1" stop-color="#7b368a"/></linearGradient><linearGradient id="SVG2WJFVdPo" x1="5.733" x2="17.946" y1="6.214" y2="17.625" gradientUnits="userSpaceOnUse"><stop stop-color="#422c81"/><stop offset="1" stop-color="#7b368a"/></linearGradient></defs></g></svg>