<svg xmlns="http://www.w3.org/2000/svg" viewBox="0 0 24 24"><g fill="none"><path fill="url(#SVGZOzmUdkX)" d="M12 3.169a8.83 8.83 0 1 0 0 17.661a8.83 8.83 0 0 0 0-17.66"/><path fill="#000" fill-rule="evenodd" d="M12 20.662a8.662 8.662 0 1 0 0-17.324a8.662 8.662 0 0 0 0 17.324M21 12a9 9 0 1 1-18 0a9 9 0 0 1 18 0" clip-rule="evenodd"/><path fill="#000" d="m5.103 11.423l-.453.453l-.453-.453l.453-.453zm14.69-.104l-.453.452l-.453-.453l.453-.452zM3.927 12.938l1.791-.446l.319 1.279l-.256.063l.064.256l-.256.064l.064.256l-.768.191l-.063-.256l-.256.064l-.064-.256l-.256.064zm.384.448l.127.512l.256-.064l.064.256l.767-.192l-.064-.256l.256-.063l-.127-.512zm.479 2.33l.22-.144l-.143-.221l1.106-.718l.143.221l.221-.143l.718 1.105l-.22.144l.143.22l-1.106.719l-.143-.221l-.221.143zm.364.077l.431.664l1.106-.718l-.431-.664zm1.421 2.186l.165-.205l-.204-.166l.165-.205l-.204-.166l.497-.614l.205.166l.166-.205l.205.166l.166-.205l1.024.83l-.165.204l-.82-.663l-.166.204l-.205-.166l-.498.615l.205.166l-.166.205l.41.332l.332-.41l-.205-.166l.166-.205l.615.498l-.664.82zm1.973 1.312l.631-1.734l1.734.631l-.09.248l-1.239-.45l-.18.495l.991.36l-.09.248l-.991-.36l-.18.495l1.238.45l-.09.248zm3 .758v-.264h-.263v-.263h-.264v-.791h.264v-.264h.263v-.264h1.055v.264h.264v.264h-.528v-.264h-.527v.264h-.264v.79h.264v.264h.527v-.263h.527v.263h-.263v.264zm2.316-.186l-.64-1.731l.494-.183l.274.742l.742-.275l-.275-.742l.495-.183l.64 1.731l-.494.183l-.275-.742l-.741.275l.274.742zm2.545-1.101l-.83-1.024l.205-.166l-.166-.205l.205-.166l-.166-.205l.615-.498l.166.205l.204-.166l.166.205l.205-.166l.83 1.024l-.41.332l-.332-.41l-.614.498l.332.41zm-.088-.947l.614-.497l-.331-.41l-.205.166l-.166-.205l-.205.166l.166.205l-.205.166zm2.053-.871l-.222-.143l.287-.442l-1.105-.718l-.287.442l-.221-.144l.861-1.327l.221.144l-.287.442l1.106.718l.287-.442l.221.144zm1.217-2.198l-1.79-.447l.127-.511l.256.063l.064-.256l.256.064l.063-.256l.256.064l.064-.256l-.767-.19l.127-.513l1.79.447l-.127.512l-.511-.128l-.064.256l-.256-.064l-.064.256l-.255-.064l-.064.256l1.023.255z"/><path fill="url(#SVGbtk5ccgK)" stroke="#000" d="m13.045 6.433l-.13.14a6.2 6.2 0 0 0-1.253-.129q-.448 0-.876.073c-.428-.128-.766-.25-1.176-.681l-.103-.11c-.211-.225-.486-.518-.767-.713c-.167-.115-.355-.21-.551-.228a.68.68 0 0 0-.575.228c-.296.314-.557.937-.71 1.736c-.152.797-.2 1.794-.054 2.897c-.26.62-.403 1.3-.403 2.013c0 1.065.32 2.056.868 2.882a5.215 5.215 0 0 0 9.78-.927a3.9 3.9 0 0 0 .495-1.89c0-1.373-.735-2.595-1.88-3.426c-.33-.634-.345-1.078-.36-1.563l-.012-.277c-.005-.096-.007-.18-.01-.262l-.006-.18a2 2 0 0 0-.047-.38a.57.57 0 0 0-.196-.318a.64.64 0 0 0-.398-.115a.7.7 0 0 0-.287.078a2 2 0 0 0-.284.173a6 6 0 0 0-.583.494c-.186.177-.358.353-.482.485Z"/><path fill="#fff" fill-rule="evenodd" d="M6.822 13.038c.145.508.367.984.654 1.413a5.033 5.033 0 0 0 9.448-.904c.311-.555.484-1.172.484-1.822s-.173-1.27-.485-1.825c-.193-.065-.36-.065-.491.008c-.203.113-.3.388-.3.781c-.001.25-.258.446-.496.374c-.694-.21-1.367-.182-1.93.13a2 2 0 0 0-.39.282c-.54.494-1.761.813-2.33.352c-1.097-.891-2.274-1.22-3.128-.745c-.621.346-.967 1.057-1.036 1.956" clip-rule="evenodd"/><path fill="#f7ecdf" fill-rule="evenodd" d="M11.706 16.229c-1.593.147-3.19-1.009-4.308-1.956a5.033 5.033 0 0 0 9.523-.711l-.104.236a.416.416 0 0 1-.618.172a1.3 1.3 0 0 1-.203.486a1.78 1.78 0 0 1-1.414.696a1.84 1.84 0 0 1-.818-.187c.057.19-.465 1.117-2.058 1.264" clip-rule="evenodd"/><path fill="#000" d="M8.052 8.388c-.288-.943-.215-2.097 0-2.763a4.43 4.43 0 0 0 1.283 1.994c-.379.082-.92.401-1.283.769m5.893 3.332c.285-.607 1.959-.715 2.223 0c.146.4-.445 1.305-.839 1.364c-.566.084-1.698-.692-1.384-1.363"/><path fill="#fff" d="M12.257 8.806c-.227.177-1.073.192-1.158-.067c-.085-.258.461-.815.858-.639c.332.147.594.478.3.706m2.646-.342c-.158.237-.582.21-.75 0s-.143-.61.297-.577c.367.027.56.418.453.577" opacity=".5"/><path fill="#000" d="M13.674 15.129c-.095-.084.024-.192.139-.14c.229.105.49.164.767.164c.712 0 1.318-.39 1.543-.936c.02-.05.094-.044.094.009c0 .713-.664 1.29-1.483 1.29c-.415 0-.79-.148-1.06-.387"/><path fill="#000" fill-rule="evenodd" d="M18.135 8.472L7.725 9.704l.059.5l1.582-.188l.06.5l.499-.06l.059.5l.5-.058l.059.5l1.666-.198l-.06-.5l.5-.059l-.059-.5l.5-.059l-.06-.5l5.164-.61zm-4.105.993l3.665-.434l.059.5l-3.665.433zm3.224.125l-2.665.315l.059.5l.5-.06l.059.5l1.666-.197l-.06-.5l.5-.058z" clip-rule="evenodd"/><path fill="#fff" d="m16.694 9.15l.5-.06l.059.5l-.5.059z"/><path fill="#fff" d="m16.255 9.707l.5-.059l.059.5l-.5.06zM12.03 9.7l.5-.059l.06.5l-.5.059zm-.44.56l.5-.06l.06.5l-.5.059z"/><path stroke="#000" stroke-linecap="round" d="M16.588 12.079c.413.544-.039 1.53-.823 1.516a.62.62 0 0 0-.463.185c-.619.658-1.924.74-2.328-.17a.44.44 0 0 0-.196-.218l-.32-.16"/><path fill="#000" d="M14.43 14.339c1.009.405 1.603-.375 1.551-.667l-.7.08z"/><defs><linearGradient id="SVGZOzmUdkX" x1="12.001" x2="12.001" y1="21" y2="3" gradientUnits="userSpaceOnUse"><stop stop-color="#7774f4"/><stop offset=".715" stop-color="#9157f9"/><stop offset="1" stop-color="#b133ff"/></linearGradient><linearGradient id="SVGbtk5ccgK" x1="12.018" x2="12.018" y1="4.965" y2="17.362" gradientUnits="userSpaceOnUse"><stop stop-color="#fbf476"/><stop offset=".45" stop-color="#ffa725"/><stop offset="1" stop-color="#ffa725"/></linearGradient></defs></g></svg>