<svg xmlns="http://www.w3.org/2000/svg" viewBox="0 0 24 24"><g fill="none"><path fill="#414fa2" d="M8.012 8.342a5.597 5.597 0 0 1 7.905 0a5.597 5.597 0 0 1 0 7.906a5.6 5.6 0 0 1-7.905 0a5.594 5.594 0 0 1 0-7.906m7.811 7.812a5.46 5.46 0 0 0 0-7.717a5.46 5.46 0 0 0-7.717 0a5.46 5.46 0 0 0 0 7.717a5.46 5.46 0 0 0 7.717 0"/><path fill="#414fa2" d="M8.483 8.814c1.072-1.075 2.28-1.707 3.492-1.826c1.345-.129 2.654.398 3.778 1.523s1.648 2.43 1.52 3.774c-.12 1.208-.751 2.416-1.827 3.492c-1.075 1.076-2.283 1.708-3.492 1.826c-1.344.13-2.646-.394-3.77-1.519c-1.129-1.128-1.656-2.434-1.527-3.778c.119-1.211.751-2.42 1.826-3.492m6.869 6.869c1.784-1.781 2.804-4.581.307-7.078c-2.5-2.5-5.297-1.484-7.085.304c-1.78 1.78-2.8 4.58-.3 7.081c2.497 2.497 5.294 1.477 7.078-.307"/><path fill="url(#SVGcKL23FJb)" d="M8.952 9.282c.845-.845 1.868-1.746 3.03-2.008c1.209-.272 2.389.189 3.604 1.404c1.219 1.215 1.676 2.395 1.404 3.6c-.265 1.159-1.166 2.182-2.015 3.027c-.845.849-1.868 1.75-3.027 2.011c-1.205.276-2.382-.181-3.597-1.396c-1.222-1.223-1.676-2.4-1.407-3.607c.262-1.163 1.163-2.186 2.008-3.031m5.929 5.929c2.116-2.116 3.03-4.02.611-6.44c-2.423-2.422-4.33-1.511-6.446.605s-3.027 4.023-.604 6.446c2.42 2.42 4.323 1.508 6.439-.611"/><path fill="#414fa2" d="M8.421 10.728q.235-.236.485-.471c.346-.336.685-.674 1.02-1.024c.9-.935 1.756-1.822 2.846-1.833c.803-.007 1.669.465 2.653 1.446c.978.978 1.45 1.844 1.439 2.643c-.01 1.082-.894 1.935-1.826 2.828c-.356.346-.706.692-1.048 1.048c-.897.936-1.746 1.816-2.828 1.83c-.803.006-1.666-.465-2.647-1.443c-.977-.977-1.452-1.85-1.445-2.653c.01-.898.61-1.634 1.351-2.371m1.093-.884c-.171.175-.35.343-.517.507c-.918.883-1.784 1.718-1.795 2.751c-.007.768.454 1.603 1.408 2.556c.953.954 1.784 1.41 2.549 1.404c1.026-.01 1.857-.873 2.733-1.788a37 37 0 0 1 1.052-1.047c.914-.88 1.777-1.711 1.787-2.738c.007-.765-.454-1.596-1.403-2.549c-.954-.953-1.792-1.414-2.556-1.407c-1.034.01-1.868.876-2.752 1.795c-.164.17-.332.349-.506.516"/><path fill="#414fa2" d="M11.574 8.204c.342-.346.716-.587 1.166-.618c.699-.046 1.498.408 2.514 1.431c1.02 1.013 1.474 1.816 1.425 2.507c-.052.793-.775 1.341-1.536 1.92q-.586.424-1.107.923q-.499.52-.922 1.103c-.58.768-1.128 1.487-1.92 1.54c-.695.049-1.491-.405-2.511-1.421c-1.02-1.023-1.474-1.823-1.428-2.518c.052-.8.778-1.351 1.543-1.934q.577-.42 1.093-.915c.339-.339.629-.723.915-1.093c.255-.335.503-.66.768-.925m4.407 4.371c.32-.317.534-.653.562-1.061c.045-.643-.409-1.432-1.383-2.406c-.978-.978-1.767-1.432-2.416-1.39c-.737.05-1.247.72-1.837 1.491c-.286.374-.58.761-.925 1.107c-.35.346-.733.64-1.107.925c-.775.59-1.442 1.1-1.491 1.837c-.042.65.412 1.439 1.39 2.416c.977.978 1.763 1.428 2.41 1.383c.732-.049 1.235-.716 1.822-1.487c.286-.378.583-.769.932-1.118s.74-.646 1.117-.932c.346-.262.67-.506.926-.765"/><path fill="#414fa2" d="M7.768 12.376c.347-.3.735-.55 1.152-.74c.51-.27 1.04-.545 1.439-.943c.401-.402.677-.933.946-1.446c.377-.716.733-1.39 1.358-1.484c.597-.09 1.369.36 2.427 1.418c1.058 1.054 1.508 1.822 1.414 2.416c-.094.625-.768.978-1.487 1.348c-.517.265-1.048.544-1.453.946c-.402.402-.677.936-.946 1.453c-.374.715-.723 1.393-1.345 1.487c-.593.094-1.365-.356-2.423-1.414s-1.508-1.83-1.417-2.43c.034-.238.157-.437.335-.615zm2.688-1.593c-.419.416-.956.699-1.477.971c-.712.374-1.326.698-1.414 1.257c-.084.548.367 1.303 1.38 2.315s1.766 1.463 2.304 1.38c.559-.088.88-.706 1.25-1.418c.272-.528.555-1.072.97-1.488c.42-.419.961-.698 1.488-.97c.712-.374 1.33-.692 1.418-1.247c.084-.545-.367-1.299-1.376-2.308c-1.012-1.013-1.77-1.467-2.315-1.383c-.559.087-.883.705-1.257 1.418c-.28.524-.559 1.061-.974 1.473z"/><path fill="#414fa2" d="M7.8 12.56c.278-.279.792-.436 1.326-.597c.636-.192 1.292-.39 1.704-.803c.412-.412.611-1.068.803-1.704c.217-.72.423-1.396.936-1.526c.513-.129 1.26.322 2.357 1.418c1.093 1.093 1.543 1.84 1.414 2.35c-.13.51-.81.712-1.533.925c-.639.189-1.299.384-1.71.803c-.42.412-.615 1.072-.804 1.711c-.216.723-.419 1.404-.929 1.533c-.506.13-1.257-.321-2.346-1.414C7.92 14.16 7.47 13.412 7.6 12.899a.76.76 0 0 1 .2-.339m8.25-.628a.6.6 0 0 0 .16-.269c.116-.454-.334-1.18-1.379-2.22c-1.047-1.048-1.773-1.499-2.23-1.383c-.44.111-.633.754-.839 1.435c-.192.621-.405 1.323-.838 1.76c-.436.432-1.138.645-1.76.837c-.68.203-1.326.399-1.431.838c-.119.454.335 1.188 1.38 2.232c1.043 1.04 1.77 1.49 2.22 1.379c.436-.112.628-.758.83-1.439c.19-.628.399-1.333.839-1.773c.436-.437 1.145-.646 1.77-.835c.524-.154 1.02-.304 1.278-.559z"/><path fill="#414fa2" d="M12.272 8.214a.5.5 0 0 1 .199-.123c.444-.157 1.149.283 2.29 1.425c1.139 1.138 1.575 1.844 1.422 2.284c-.154.433-.838.506-1.63.593c-.717.077-1.53.16-1.928.559c-.402.401-.49 1.215-.566 1.934c-.084.79-.157 1.474-.594 1.628c-.44.153-1.141-.283-2.28-1.422c-1.142-1.142-1.582-1.85-1.428-2.29c.154-.437.838-.514 1.624-.604c.712-.08 1.519-.171 1.92-.57c.395-.398.486-1.204.566-1.913c.073-.653.14-1.233.405-1.501m3.694 3.68a.4.4 0 0 0 .091-.14c.133-.377-.325-1.075-1.39-2.144c-1.072-1.072-1.777-1.526-2.154-1.396c-.356.125-.433.803-.513 1.515c-.084.733-.175 1.564-.608 1.994c-.43.43-1.26.523-1.994.607c-.716.08-1.39.157-1.512.514c-.132.377.322 1.082 1.394 2.154c1.068 1.065 1.766 1.522 2.144 1.39c.356-.126.426-.803.502-1.52c.08-.74.171-1.577.6-2.01c.434-.433 1.272-.524 2.012-.601c.611-.063 1.19-.126 1.428-.363"/><path fill="#414fa2" d="M12.244 8.321a.4.4 0 0 1 .115-.084c.381-.167 1.069.28 2.235 1.446c1.163 1.163 1.606 1.85 1.442 2.224c-.174.384-.911.35-1.767.3c-.82-.041-1.745-.09-2.116.276c-.366.367-.317 1.296-.276 2.113c.046.859.088 1.596-.296 1.77c-.377.168-1.065-.28-2.228-1.442c-1.166-1.166-1.61-1.854-1.442-2.235c.171-.384.908-.349 1.76-.307c.81.035 1.732.08 2.095-.286c.37-.367.325-1.285.286-2.095c-.035-.758-.07-1.421.192-1.68m3.618 3.607a.2.2 0 0 0 .052-.073c.136-.307-.339-1.006-1.414-2.078c-1.076-1.075-1.777-1.554-2.085-1.417c-.304.136-.265.897-.23 1.634c.042.88.084 1.791-.325 2.2c-.405.405-1.316.363-2.2.32c-.733-.034-1.494-.069-1.63.231c-.137.308.342 1.013 1.417 2.085c1.072 1.075 1.77 1.55 2.078 1.414c.3-.136.258-.9.22-1.641c-.05-.887-.098-1.805.314-2.214c.409-.412 1.327-.363 2.214-.314c.674.035 1.369.07 1.589-.147"/><path fill="url(#SVGZzstccSu)" d="M12 21c4.958 0 8.974-4.03 8.974-8.998A8.99 8.99 0 0 0 12 3a8.99 8.99 0 0 0-8.974 9.002"/><defs><linearGradient id="SVGcKL23FJb" x1="369.05" x2="216.013" y1="216.312" y2="369.362" gradientUnits="userSpaceOnUse"><stop offset="1" stop-color="#414fa2"/></linearGradient><linearGradient id="SVGZzstccSu" x1="16.623" x2="7.37" y1="7.382" y2="16.611" gradientUnits="userSpaceOnUse"><stop stop-color="#ee4492"/><stop offset="1" stop-color="#414fa2"/></linearGradient></defs></g></svg>