<svg xmlns="http://www.w3.org/2000/svg" viewBox="0 0 24 24"><g fill="none"><path fill="#ff7e36" d="m18.765 11.737l-4.685 1.837c-.46.069-.725-.17-1.054-.424L7.4 8.714a.699.699 0 0 1 .318-1.27l5.092-1.213a.72.72 0 0 1 .488.111L15.36 7.73a4.4 4.4 0 0 0-.847-.174c-2.208-.175-4.182.571-4.262 1.662c-.084 1.09 1.747 2.086 3.934 2.26c2.191.175 2.832-.476 2.917-1.55c0-.043-.842-1.774-.842-1.822l2.663 2.012c.476.317.386 1.424-.159 1.62"/><path fill="#050000" d="M9.819 3.012c.328-.122 1.302.699 1.895 1.101a4.7 4.7 0 0 1 2.112-.275c.355.053.704.159 1.027.323c.313-.212 1.98-1.498 2.091-1.059c.069.328.08.662.021.99q-.148.905-.391 1.79c-.075.296-.27.582-.244.846q.046.604.196 1.192c.1.36.154.74.392.99c1.307 1.01 2.461 2.467 2.7 3.192a.61.61 0 0 1-.149.71a.926.926 0 0 1-1.154-.022a6.4 6.4 0 0 1-.783-.762a8 8 0 0 0-.588-.546a.36.36 0 0 0-.211-.105c-.17.01-.334.052-.493.105c-.476.122-.963.212-1.45.265c.185.233.593.55.847.831c.185.18.307.424.338.688c0 .25-.28.604-1.032.503a6 6 0 0 1-1.053-.423c-3.055-1.805-3.187-3.547-3.537-6.49c-.116-.81-.487-1.822-.635-2.71c-.053-.371-.212-.996.106-1.123"/><path fill="#f0f3fa" d="M15.609 6.209c-.16.016-.28.296-.456.424c-.264.19-.65.116-.635-.032c.021-.148.106-.159.334-.196c.227-.032.635-.212.502-.863c-.105-.566-.746-.44-.746-.44a.5.5 0 0 0-.397-.232c-.28-.022-.513.338-.513.338a.18.18 0 0 1-.265-.116a.424.424 0 0 0-.53-.196a.58.58 0 0 0-.397.614a.49.49 0 0 0 .52.35c.19-.011.312.09.29.18c-.026.137-.407.243-.767.031a.74.74 0 0 1-.297-.524l.016-.17s-.582 0-.72.493c-.137.493.212.736.403.715c.132-.01.031-.196.195-.35a.174.174 0 0 1 .239 0a.154.154 0 0 1-.027.212a.1.1 0 0 1-.032.016c-.095.053-.164.302.106.455c.117.07-.063.424-.28.154c-.122-.159-.111-.233-.25-.212a.5.5 0 0 1-.317-.137c-.031-.016-.19.063-.127.243c.064.185.053.424.667.45c.127 0 .17.026.196.127c.027.106.328.567.784.318a.37.37 0 0 0-.027-.7a.185.185 0 0 1-.137-.21a.2.2 0 0 1 .031-.075c.053-.053.106-.032.239.021c.386.159.566.635.317.847c-.106.085.106.223.28.25s.848-.043.922-.424q.031-.177.016-.36c0-.175.264-.196.264-.08c.011.117 0 .138.053.185c.149.133.546-.037.657-.296c.116-.265.09-.836-.106-.81zm-1.747.741c-.07 0-.16-.106-.111-.159a.62.62 0 0 0 .127-.423c-.016-.154-.106-.212-.106-.297a.15.15 0 0 1 .121-.143c.149-.052.265.292.25.583c-.006.227-.123.434-.281.434zm.159-1.715c.052-.143.137-.127.174-.122c.032 0 .133.037.127.127c0 0-.053.28.053.37a.56.56 0 0 0 .424.075a.133.133 0 0 1 .09.17a.13.13 0 0 1-.053.068a.61.61 0 0 1-.662-.08a.64.64 0 0 1-.159-.608z"/><path fill="#de6f28" fill-rule="evenodd" d="M14.223 4.765a.6.6 0 0 1 .434.228q.155-.012.307.016a.6.6 0 0 1 .302.148a.7.7 0 0 1 .196.37c.069.345 0 .588-.143.753a.76.76 0 0 1-.45.232h-.005l-.133.022a.3.3 0 0 0-.074.02l-.021.017l-.01.037h.01q.025.024.106.032a.5.5 0 0 0 .35-.09a1 1 0 0 0 .18-.191l.036-.042a1 1 0 0 1 .122-.133a.3.3 0 0 1 .17-.08c.11-.01.185.064.222.138a1 1 0 0 1 .069.255c.015.185-.006.413-.074.56a.73.73 0 0 1-.599.414a.32.32 0 0 1-.222-.074a.23.23 0 0 1-.074-.128l-.01-.105H14.9a.1.1 0 0 0-.037.015l-.008.013l-.003.014c.01.127 0 .26-.016.381v.005c-.053.255-.296.382-.498.445c-.211.064-.439.074-.545.064a.65.65 0 0 1-.296-.127a.27.27 0 0 1-.095-.127a.165.165 0 0 1 .052-.18c.085-.07.106-.191.053-.329A.6.6 0 0 0 13.175 7a2 2 0 0 0-.122-.048l-.005.021a.08.08 0 0 0 .053.085h.01a.47.47 0 0 1 .302.29a.476.476 0 0 1-.264.61a.63.63 0 0 1-.366.08a.65.65 0 0 1-.291-.117a1 1 0 0 1-.185-.186a.6.6 0 0 1-.101-.2c0-.006-.021-.017-.08-.017c-.317-.01-.508-.08-.613-.196a.5.5 0 0 1-.106-.174l-.027-.08v-.005l-.021-.058a.3.3 0 0 1 .053-.302a.3.3 0 0 1 .09-.069a.2.2 0 0 1 .053-.016a.2.2 0 0 1 .09.022l.005.005a.43.43 0 0 0 .254.111l.106.005a.2.2 0 0 1 .106.07q.03.036.053.079l.069.1c.042.053.069.053.074.053s.016 0 .026-.01A.1.1 0 0 0 12.365 7c-.154-.09-.222-.212-.228-.34c0-.116.053-.232.143-.285h.01v-.01a.05.05 0 0 0 .017-.025a.05.05 0 0 0 0-.029a.07.07 0 0 0-.09 0c-.053.053-.064.106-.074.17v.01a.4.4 0 0 1-.038.106a.18.18 0 0 1-.142.095c-.276.027-.667-.29-.514-.847a.73.73 0 0 1 .476-.502q.163-.058.334-.064h.122l-.021.27a.64.64 0 0 0 .248.434a.7.7 0 0 0 .44.1a.4.4 0 0 0 .137-.042a.1.1 0 0 0 .027-.02l-.021-.022a.25.25 0 0 0-.154-.032a.6.6 0 0 1-.63-.423v-.021a.69.69 0 0 1 .466-.72a.53.53 0 0 1 .651.243l.006.01v.022l.01.021a.075.075 0 0 0 .09.032a1 1 0 0 1 .148-.175c.1-.09.255-.201.44-.19zm-.434.503l-.01.022l-.022.01a.286.286 0 0 1-.423-.17a.32.32 0 0 0-.387-.132h-.005a.48.48 0 0 0-.328.493a.386.386 0 0 0 .402.264h.005a.56.56 0 0 1 .291.07c.07.052.133.132.106.237a.26.26 0 0 1-.127.16a.5.5 0 0 1-.217.068a.95.95 0 0 1-.582-.127l-.005-.005a.84.84 0 0 1-.34-.598v-.011l.006-.053a.7.7 0 0 0-.159.048a.53.53 0 0 0-.344.36c-.116.413.16.582.28.582v-.042h.006a.46.46 0 0 1 .138-.286a.28.28 0 0 1 .38 0l.011.01a.26.26 0 0 1 .003.32a.3.3 0 0 1-.087.072h-.006l-.015.027a.14.14 0 0 0-.011.063c0 .048.026.117.132.18c.085.042.1.127.096.19a.3.3 0 0 1-.08.175a.24.24 0 0 1-.2.08c-.086 0-.16-.053-.223-.138a2 2 0 0 1-.08-.111v-.005l-.042-.053h-.053a.67.67 0 0 1-.333-.122a.1.1 0 0 0-.011.026v.064l.026.069v.005l.022.069a.3.3 0 0 0 .058.1c.053.053.17.122.466.133c.068 0 .137 0 .19.042c.055.04.093.098.106.164v.006l.016.02l.037.064q.057.079.138.143a.4.4 0 0 0 .196.074c.068.01.148 0 .243-.053l.005-.005h.011a.26.26 0 0 0 .167-.242a.3.3 0 0 0-.019-.102a.26.26 0 0 0-.159-.159a.286.286 0 0 1-.164-.45l.005-.01a.2.2 0 0 1 .085-.053a.2.2 0 0 1 .095-.006c.053.006.106.032.17.053a.82.82 0 0 1 .455.466c.07.18.064.392-.084.54h.005a.43.43 0 0 0 .201.085c.069.01.265 0 .45-.053c.19-.058.323-.159.355-.286c.016-.106.02-.222.016-.333V7.21c0-.153.116-.233.211-.254a.3.3 0 0 1 .16.016a.18.18 0 0 1 .105.154v.105l.016.011c.01.005.032.016.074.016a.52.52 0 0 0 .413-.28a1.05 1.05 0 0 0 .053-.461a.5.5 0 0 0-.043-.18l-.015-.021a.13.13 0 0 0-.053.031a.5.5 0 0 0-.096.106l-.031.032c-.064.08-.138.17-.228.233a.74.74 0 0 1-.492.132a.46.46 0 0 1-.201-.063c-.059-.043-.112-.106-.106-.201a.3.3 0 0 1 .047-.127a.25.25 0 0 1 .106-.09a3 3 0 0 1 .265-.064h.005a.53.53 0 0 0 .323-.17c.09-.095.159-.264.095-.571a.43.43 0 0 0-.333-.355a.8.8 0 0 0-.27-.005h-.021l-.074.016l-.037-.058a.4.4 0 0 0-.318-.186c-.09-.005-.19.053-.275.133a1 1 0 0 0-.138.158m.127-.058a.74.74 0 0 0 .159.678v-.006a.21.21 0 0 0-.207-.052a.254.254 0 0 0-.2.243v.005c0 .043.015.074.026.1l.026.054l.01.016a.3.3 0 0 1 .043.127a.48.48 0 0 1-.106.35a.16.16 0 0 0-.037.132a.23.23 0 0 0 .053.1c.032.048.1.095.18.095c.127 0 .228-.084.286-.18a.73.73 0 0 0 .1-.36a1.2 1.2 0 0 0-.074-.46a.3.3 0 0 0-.079-.138h.005l.006.006v.005a.72.72 0 0 0 .773.095h.01v-.005a.233.233 0 0 0 .085-.312a.24.24 0 0 0-.143-.117l-.027-.01l-.026.005a.46.46 0 0 1-.334-.053l-.015-.037a.4.4 0 0 1-.011-.096q0-.066.01-.132v-.016a.22.22 0 0 0-.09-.185a.3.3 0 0 0-.143-.053c-.015 0-.068-.005-.121.016c-.07.026-.117.085-.154.175v.01zm.206.058a.53.53 0 0 0 .127.498a.51.51 0 0 0 .53.069l.01-.01v-.017l-.005-.01a.66.66 0 0 1-.46-.1h-.006l-.005-.006a.3.3 0 0 1-.09-.148l-.016-.149q0-.08.01-.158V5.23a.1.1 0 0 0-.03-.01h-.033l-.01.005a.1.1 0 0 0-.022.042m-.259 1.578q.05.001.106-.085a.5.5 0 0 0 .069-.254a1 1 0 0 0-.053-.37a.3.3 0 0 0-.064-.106h-.005a.04.04 0 0 0-.027.014a.04.04 0 0 0-.01.028l.005.016l.021.037l.011.021a.5.5 0 0 1 .063.212a.7.7 0 0 1-.126.476z" clip-rule="evenodd"/><path fill="#ff7e36" fill-rule="evenodd" d="M12.725 13.59L7.093 9.18a.757.757 0 0 0-1.192.365L4.366 15.13a.77.77 0 0 0 .254.847l5.241 4.41a.758.758 0 0 0 1.191-.365l1.927-5.59a.76.76 0 0 0-.254-.848zm-2.874 2.064a2.57 2.57 0 0 0-.588-2.382a3.5 3.5 0 0 0-.55-.466l-.54-.392l-.567.212l-.73 2.975l.958.662q.27.192.571.328a.91.91 0 0 0 1.065-.196c.195-.211.322-.465.38-.74m-.715-.524a1.3 1.3 0 0 1-.233.53a.5.5 0 0 1-.37.18a.7.7 0 0 1-.255-.053a2.5 2.5 0 0 1-.37-.228l-.175-.122l.53-2.197l.18.127q.174.118.333.26c.226.229.37.527.408.847c.02.222.005.444-.053.656z" clip-rule="evenodd"/><path fill="#ff7e36" d="m13.921 14.279l5.204-2.043a.37.37 0 0 1 .244-.006a.375.375 0 0 1 .254.477l-1.869 5.537a1.44 1.44 0 0 1-.778.82L12 20.982a.388.388 0 0 1-.487-.487l1.99-5.797a.8.8 0 0 1 .424-.423zm3.351.969l.212-.71l-1.667.604l-.562.635l-.979 3.192l.752-.275l.476-1.561l1.25-.461l.211-.71l-1.25.456l.213-.678z"/></g></svg>