<svg xmlns="http://www.w3.org/2000/svg" viewBox="0 0 24 24"><g fill="none"><path fill="#5b2c16" d="m6.096 8.796l-.514-3.122a.376.376 0 0 1 .293-.427l2.14-.437a.38.38 0 0 1 .385.15l.488.678l.443-.987a.38.38 0 0 1 .277-.221l5.776-1.03a.38.38 0 0 1 .437.309l.483 2.69l-.658.73l.298 1.81h2.13c.205 0 .622.072.622.283v4.957c0 .576-.5.823-.813.823h-.905c0 2.556-.952 4.258-.952 4.413v.061c-.072.479.088.679-1.08.679c-1.162 0-2.036.556-2.108.072l-.093.087l-.015-.344H5.839c-.211 0-.515-.309-.515-.514v-4.629h-.431c-.222 0-.618-.236-.618-.689l.494-4.988a.38.38 0 0 1 .38-.36h.952z"/><path fill="#9a3a05" d="m5.89 8.4l-.519-3.12a.375.375 0 0 1 .298-.427l2.135-.437a.37.37 0 0 1 .385.154l.489.674l.442-.988a.4.4 0 0 1 .278-.22l5.775-1.03a.38.38 0 0 1 .437.31l.483 2.689l-.653.73l.294 1.924h1.974c.206 0 .474.056.474.262v5.158c0 .314-.35.566-.669.566h-.36v1.131a2.36 2.36 0 0 1 2.037.643c.714.694.575 1.496.365 2.021c-.515 1.285-1.852 1.389-2.572 1.198v.545c-.077.479-1.1.818-2.263.818c-1.167 0-2.123-.34-2.196-.823v-.72h-6.9c-.206 0-.298-.257-.298-.463V14.47h-.648a.375.375 0 0 1-.38-.391l.256-5.323c.01-.2.18-.36.38-.36h.952z"/><path fill="#fbcc21" d="M16.68 18.619a1.57 1.57 0 0 1-.47-1.77c.077-.204.197-.39.351-.544c.242-.32 1.497-.7 2.469.241a1.54 1.54 0 0 1 .149 2.124a1.736 1.736 0 0 1-2.5-.051"/><path fill="#ea7e0f" d="M17.035 18.29a1.08 1.08 0 0 1-.083-1.595c.201-.206 1.029-.483 1.697.165a1.07 1.07 0 0 1 .103 1.466a1.196 1.196 0 0 1-1.717-.037"/><path fill="#fcf7f2" d="m16.834 16.845l.314.324l.468-.329l-.041-.38c-.293.025-.53.138-.623.236a.7.7 0 0 0-.118.15"/><path fill="#925100" d="M17.935 18.46c-1.363-.17-1.024-1.116-.684-1.574c.195-.236.7-.498 1.188.376c.488.88-.134 1.162-.504 1.198"/><path fill="#fde824" d="M17.081 17.648c0 .622.54.792.813.797c.205.005.822-.052.802-.797c-.02-.746-.607-1.116-.823-1.116c-.206 0-.792.34-.792 1.116"/><path fill="#fbb107" d="M18.47 17.554c-.093-.046-.232.139-.289.236c-.066.119-.164.355-.02.34c.144-.01.267-.165.308-.242c.036-.093.093-.298 0-.34zm-.978-.586c.062.04 0 .205-.04.277c-.052.088-.155.242-.207.144c-.051-.092 0-.231.031-.288c.047-.061.155-.18.216-.133"/><path fill="#5e2009" d="M16.567 18.902c-.659-.37-.674-1.373-.602-1.825a1.785 1.785 0 0 0 .396 2.072c1.183.751 2.16.242 2.5-.108c-.85.401-1.477.33-2.294-.139"/><path fill="#e7fff5" d="m16.957 18.212l.077.077a1.195 1.195 0 0 0 1.723.036a1 1 0 0 0 .231-.524h-.344c-.103.18-.38.55-.653.617c-.232.051-.72-.093-1.034-.206"/><path fill="#5c2307" d="M4.81 10.736V9.548h1.923l-.149-1.034l.15-.067l-.222-1.502l-.16-.04l-.23-1.446l1.547-.283l1.502.71l.504-1.039l1.558-.22l.093.668l.19.288l-.041-.957l1.389-.19c.102.154.437.442.59.566l.284-.751c.283-.057.905-.17 1.183-.175c.267-.005.411.154.442.231l.273 1.728l-.654.91l.34 2.603h2.016l.329.426v3.827h-1.029v2.057c-1.116.853-1.126 1.897-1.044 2.273h-1.78a1.38 1.38 0 0 0-1.32.812H6.3l-.462-.293v-1.465h.385v-.978c0-.36-.308-.627-.385-.72V14.47l-1.029-.56v-1.651h.309v-.9c0-.38-.211-.576-.309-.622"/><path fill="#8d8c8e" d="m7.721 5.649l-1.424.247l.175.828l.252-.052l.36 2.253l-.309.072l.154.869l1.425-.257l-.298-2.037L9.3 9.058l.74-1.764l.345 2.047l1.4-.257l-.124-.787l-.309.052l-.334-2.304l.303-.052l-.16-.838l-1.367.21l-.792 1.878z"/><path fill="#f4f4f5" d="m7.655 5.258l-1.425.247l.175.823l.247-.051l.36 2.252l-.309.077l.154.864l1.43-.257l-.298-2.031l1.244 1.48l.74-1.758l.345 2.042l1.4-.252l-.124-.792l-.309.051l-.34-2.299l.31-.051l-.16-.843l-1.373.216l-.792 1.877z"/><path fill="#8d8c8e" d="m11.774 5.956l-.165-.894l1.234-.15l.694 1.132l.355-1.312l1.204-.164l.103.915h-.288l-.633 1.64l.108.736l.304-.051l.128.812l-1.733.314l-.113-.813l.308-.051l-.113-.756l-1.136-1.42z"/><path fill="#f4f4f5" d="m11.717 5.563l-.16-.9l1.234-.144l.69 1.131l.36-1.316l1.203-.16l.103.91h-.288L14.22 6.73l.108.736l.309-.052l.128.808l-1.733.318l-.118-.817l.308-.052l-.113-.75L11.98 5.5l-.257.062z"/><path fill="#bf5911" fill-rule="evenodd" d="M10.982 9.687h.771v1.543h-.771v-.515H8.667v-.622h.134v-.226h2.18zm-5.657.133h2.293c.437 0 .792.34.792.761v2.294c0 .422-.36.761-.792.761h-2.55v-.771h.257v-2.15h-.258v-.771h.258zm1.028.895h1.029v2.098H6.353zm2.314 2.058h3.086V13.8H8.667zm2.32-1.528H9.259v.756h1.728zm5.909-1.558h-1.543v1.028h1.543zm0 3.086h-1.543V13.8h1.543zm-2.829-2.947h.771v1.09h-.77v-.206H12.01v-.617h2.057zm-.257 3.46h-1.543v.515h1.543zm-.859-2.056h1.635V12h-1.635zm.088 3.085h.833v.437h1.738v-.437h.771v1.543h-.771v-.309h-1.738v.309h-.833zm-3.055.412h.884v.01h1.4v.026h.256v1.095h-1.028v-.309h-.628v.7h.993v.638h-.993v1.028h1.656v1.029H9.44v-1.029h.545V15.55H9.44v-.812h.545zm-2.968-.412H5.84v1.029h.524v2.571h-.267v1.029H7.64v-1.029h-.38v-1.003h1.177c.411 0 .746-.34.746-.76v-.67a.755.755 0 0 0-.746-.755H7.253v-.273h-.237zM8.22 15.55h-.828v.813h.828z" clip-rule="evenodd"/><path fill="#feae00" fill-rule="evenodd" d="M5.067 9.687h2.52c.453 0 .823.334.823.74v2.12c0 .41-.37.74-.823.74h-2.52v-.834h.258v-1.995h-.258zm1.286.771h1.029v2.057H6.353z" clip-rule="evenodd"/><path fill="#fbb200" d="M8.667 9.687h3.086v1.286h-.771v-.515h-.772v.771h.772v.515h-.772v.771h.772v-.257h.771v1.029H8.667v-.772h.515v-2.057h-.515zm8.229 0h-1.543v.771h.257v2.057h-.257v.772h1.543v-.772h-.257v-2.057h.257zm-2.057 0v1.028h-.772v-.206h-.514v.72h1.029v.515h-1.029v.72h.257v.823h-1.543v-.823h.258v-1.955h-.515v-.822z"/><path fill="#feae00" d="M9.439 14.315h3.085V15.6h-.77v-.258h-.772v.772h.884v.514h-.884v1.029h.771v-.772h.771v1.543H9.44v-.771h.514v-2.315H9.44zm3.6 1.286v-1.286h3.343V15.6h-.772v-.515h-.288V17.4h.288v.874h-1.666V17.4h.278v-2.315h-.412v.515z"/><path fill="#feae00" fill-rule="evenodd" d="M5.839 14.315H8.43c.411 0 .75.36.75.802v.71c0 .442-.334.802-.75.802H7.38v1.029h.258v.771H6.096v-.771h.257v-2.54H5.84zm1.543.905h.673v.813h-.673z" clip-rule="evenodd"/><path fill="#ea780b" d="M16.73 19.792c-.066.355-.94.633-2.015.633c-1.07 0-1.944-.278-2.01-.633v-.88c.04-.36.925-.652 2.01-.652c1.105 0 2 .298 2.016.668z"/><path fill="#f8a70a" d="M16.227 20.197a4.5 4.5 0 0 1-1.723.226v-.89c.412-.143 1.302-.375 1.487-.164c.154.175.216.566.231.828z"/><path fill="#fec61d" d="M14.715 19.617c1.113 0 2.016-.304 2.016-.679c0-.374-.903-.678-2.016-.678c-1.114 0-2.016.303-2.016.678s.902.68 2.016.68"/><path fill="#ff851f" d="M14.716 19.442c.738 0 1.337-.226 1.337-.504c0-.279-.599-.504-1.338-.504c-.738 0-1.337.225-1.337.504c0 .278.6.504 1.338.504"/><path fill="#fbe82d" d="M14.715 19.262c.477 0 .864-.17.864-.38c0-.211-.387-.382-.864-.382s-.864.17-.864.381c0 .21.387.38.864.38"/><path fill="#ff9a01" d="M17.554 18.032a.216.216 0 1 0 0-.432a.216.216 0 0 0 0 .432m.483-.769a.216.216 0 1 0 0-.433a.216.216 0 0 0 0 .433"/></g></svg>