<svg xmlns="http://www.w3.org/2000/svg" viewBox="0 0 24 24"><g fill="none"><path fill="#29344a" d="M3.752 14.98c-.016-.158.19-.391.296-.492l-.063-.836a1.64 1.64 0 0 1-.635-.514l.079-1.704l.243-.943c-.084.133-.301.392-.487.392c-.185 0-.195-.265-.18-.392v-.778c0-4.41 3.31-5.982 4.966-6.22c.19-.291.673-.329.89-.307c.264-.096.915-.366 1.344 0c.35.29-.063.73-.312.916c.106.142.582.434 1.599.434c1.27 0 2.371-1.043 3.388-1.043c.82 0 1.371.159 1.54.233l.074.53c2.288.671 2.489 3.112 2.309 4.245c.815 1.233.794 1.524.794 1.842c-.027.26-.114.51-.254.73c.18.308.28 1.012.312 1.324c.514.249 1.345.837 1.345 1.763c0 .741-.313 1.255-.471 1.419l.195.424c0 1.032-.344 1.884-.518 2.18l-.55.18C18.802 20.26 16.891 21 15.461 21c-1.138 0-2.155-.26-2.514-.387l-1.075.07c-.117.105-.397.317-.582.317c-.233 0-1.112-.127-1.462-.265c-.27-.11-.38-.317-.402-.413a3.4 3.4 0 0 1-1.085-.423c-.816.333-1.324-.064-1.393-.064a4.1 4.1 0 0 1-1.667-1.73c-.159-.334-.106-.742-.053-.911l-.207-.313c-.328.016-.492-.053-.529-.095a4 4 0 0 1-.741-1.805"/><path fill="#4b5c7a" d="M14.49 9.071c.132.043.407.154.507.265l.874.143l.598-.17v-.412c.021-.064.074-.233-.656-.16a4.2 4.2 0 0 0-1.324.334m-8.376 5.94c-.1.524.471.794.768.869l-.366.37c-.36.053-1.08-.1-1.08-1.075c0-.942.678-1.969 1.001-2.461c.09-.143.159-.239.159-.27c.026-.122.08-1.567.1-2.277l-.317-.45l.47-.307c-.296.212-.052.593.107.762l.609-.322c.18-.085.545-.265.587-.27c.043-.011.307-.307.434-.456l.154.593a2.45 2.45 0 0 0-1.779 2.17l-.265 2.372c-.153.032-.476.228-.582.752m.768-5.622l-.032.021zm-1.313 2.742c0-.2.116-.264.174-.29l.027-.011c-.36-.127-.402.243-.376.444c-.042 0-.127-.053-.127-.238s.249-.37.37-.44c-.444-.063-.54.265-.529.44c0 .561.397.445.598.318c-.047 0-.143-.043-.137-.223m4.42-2.668c.016-.037.329-.201 1.414.09c1.08.286 1.895.212 2.499-.212c-.037.096-.037.35.275.604v.752c-.339.074-1.027.211-1.075.18l-.042-.037c-.154-.154-.673-.657-1.408-.599c-.35-.29-1.181-.852-1.663-.778m4.58.17c-.075-.127-.323-.143-.445-.133a.45.45 0 0 1 .54 0c-.106-.106-.286-.164-.36-.185c.042-.064.19-.154.423.037c.228.185.053.455-.063.566a.7.7 0 0 0-.095-.285m-2.886 3.218c-.307.186-.91.922-1.175 1.27c.392-.634 1.207-1.926 1.34-2.1c.351-.432.82-.752 1.35-.922l2.43-.646l.783.826h-1.318c-.127 0-.233.037-.36.074c-.17.058-.36.127-.652.106c-.508-.032-1.286.286-1.476.64c-.16.297-.424.456-.731.636zm5.305-1.477c.042.01.09.021.137.021l-.02.006c.296.069.889.02.889-.726a1.218 1.218 0 0 0-1.504-1.207c.228 0 .673.106.916.488a.93.93 0 0 0-.916-.265c.212 0 .683.122.832.635c.19.63-.18 1.006-.334 1.048M6.506 17.907c-.117-.106-.387-.201-.508-.238c0 .143.206.503.407.857l.069.122c.222.392 1 .646 1.059.519c.069-.127-.196-.334-.445-.519a3.2 3.2 0 0 1-.582-.741m2.477 1.26c.09.143.265.344.456.344c.222 0 .28-.196.28-.29c-.196.063-.587.137-.74-.054z"/><path fill="#505e81" d="M14.299 13.021c-.138-.18-.053-.317 0-.36c.074.233.487.36.926.424c.44.063.275-.064.445.106c.137.127-.053.38-.17.487a.55.55 0 0 0 .382-.381l.794.38c-.127-.068-.202-.28-.217-.38c.158.28.857.38 1.048.38c.148 0 .159.107.143.16c.08-.006.233.037.196.243c-.038.212-.434.328-.625.36c.667.053.794-.19.773-.317c.339.314.601.701.767 1.132c-.052.07-.195.276-.37.54c-.175.265-.26 1.165-.275 1.578c-.112.286-.869.874-1.234 1.133l.085-.741l.254-2.192l-2.128-1.376c-.212-.318-.657-1-.794-1.176"/><path fill="#ceddf7" d="M3.88 7.257c-.424.91-.52 2.33-.52 2.928c.488-.37 1.605-1.122 2.176-1.122c.577 0 .757.301.773.455c.212-.228.763-.683 1.287-.683s.704.153.73.228l.16-.281v-.318l-.16.175l-.18-1.8v1.8c-.783-.339-1.44.19-1.667.498a6.45 6.45 0 0 1 1.44-3.854l-.048-.17c-.858.598-1.493 2.88-1.7 3.95c-.052-.149-.296-.413-.846-.281c-.546.132-1.324.635-1.641.868c-.038-1.127.365-2.117.566-2.472c.847-1.625 2.769-2.7 3.621-3.028l.185.37c.016-.031.096-.106.27-.153c.18-.043.334.085.387.159l.46-.307a1.14 1.14 0 0 1-.65-.667h-.059c-.01.164.122.423.19.54a1.06 1.06 0 0 1-.328-.424l-.18.138a2 2 0 0 0-.143.285l-.084-.169a6.74 6.74 0 0 0-4.04 3.335"/><path fill="url(#SVGMeOMCbuf)" fill-rule="evenodd" d="M5.389 9.438c.053-.074.195-.222.317-.19h.01c.16.042.318.084.403.56c.016.09.159.265.598.265c.551 0 .99-.534 1.027-1.037l.636.212v.317c-.456.196-1.366.996-1.366 2.637c.01.65.466 1.906 2.223 1.715l.149.106l.1.556l-.243.116l-.487-.238c-.08.143-.138.53.275.932c-.069.026-.297.026-.651-.207c-.111.106-.228.445.2.921v.17l-.28-.223c-.132.127-.301.477.08.911c-.053.217.037.672.757.752c.1.09.386.27.778.296l.143.73c0 .107.08.313.413.281s.45-.09.466-.116l.397.291c-.064.127-.096.429.243.635c.34.207.54.371.598.424h-1.201l.603.111c.021.122-.069.339-.603.27l-.201-.026c-.546-.064-.826-.096-.921-.503l.434.042c-.551-.143-1.695-.476-1.853-.688l.148-.175l-1.006.355c-.323-.1-1.059-.44-1.435-.995l-.227-.318c-.297-.424-.397-.561-.254-.927a3 3 0 0 1 .121-.264c.122-.238.186-.37-.031-.678l-.09.582l-.583-1.021l.074.44l-.413.052a2.75 2.75 0 0 1-.598-1.45l.28-.366l.318.741a12.3 12.3 0 0 1-.386-3.181l-.159 1.164l-.423-.28a5.2 5.2 0 0 1-.08-1.483c.061-.527.27-1.026.604-1.44l.54-.143c-.138.366-.413 1.181-.413 1.541c.212-.588.714-1.853.969-2.17zm-.106 1.329c.069.021.159-.085.2-.238c.049-.154.022-.291-.052-.307c-.069-.021-.159.085-.207.238c-.042.148-.02.286.053.307zm.688 1.302c-.016.35-.265.625-.545.614c-.28-.015-.498-.312-.482-.667c.016-.349.265-.63.545-.614c.286.016.503.313.482.667m1.006 2.817c.243.624.069 1.27-.387 1.445c-.455.17-1.027-.201-1.27-.831c-.244-.625-.074-1.27.38-1.44c.462-.17 1.028.201 1.271.826zm2.996 4.59c.069-.196-.137-.445-.46-.55c-.318-.107-.636-.038-.704.158c-.07.201.132.45.455.561c.317.106.635.032.71-.17m-2.922-1.313c.45.508.672 1.037.503 1.18c-.175.149-.678-.148-1.128-.656c-.444-.508-.672-1.038-.497-1.186c.174-.143.677.153 1.122.662M4.907 14.17c.032.154 0 .291-.074.307c-.07.016-.16-.095-.19-.249c-.038-.159 0-.29.068-.307c.074-.016.159.095.196.25" clip-rule="evenodd"/><path fill="url(#SVGCnLXEuTU)" d="M9.268 10.937c-.19 0-.482.127-.609.19l.19-.19l-.19-1.032c-.37.212-1.514.81-1.419 2.43c.08 1.292 1.34 1.52 1.96 1.471a.78.78 0 0 0 .862-.132c-.233-.122-.296-.466-.302-.62l-.46-.068c.275.026.625-.074.762-.132c0-.07-.016-.233-.058-.344a1.6 1.6 0 0 1-.074-.419c-.212.096-.53.07-.662.048q.328-.049.625-.196c-.043-.037-.133-.17-.133-.402c0-.228.112-.318.17-.34c-.143-.09-.477-.264-.662-.264"/><path fill="#e5eff9" d="M10.492 11.312c-.127.053-.45.053-.593.043c-.01.095-.01.312.037.455a.8.8 0 0 0 .556-.492zm.265.816c-.143.053-.519.047-.688.037c-.006.095-.01.312.042.455a.88.88 0 0 0 .646-.492M9.91 13.16c.143-.032.455-.117.556-.201c0 .143-.09.47-.392.63a1.4 1.4 0 0 1-.164-.429"/><path fill="#ebeef3" d="M14.098 12.455c-2.95.063-3.696 2.515-3.706 3.732a1.43 1.43 0 0 1 1.503-.842v-.402a2.6 2.6 0 0 1 0-.73c.053-.165.482-.27.694-.302c.354-.837.98-1.006 1.25-.985v-.106z"/><path fill="url(#SVGApZnNcCV)" d="M15.15 11.68a5.13 5.13 0 0 1 4.182 3.516a.8.8 0 0 1 .318.069c.026-.35-.159-1.334-1.032-2.467c-.88-1.138-2.68-1.218-3.468-1.112zm-2.17.61c.645-.127 2.265-.207 3.568.503a6.86 6.86 0 0 1 2.477 2.435h.196c-.28-.794-1.25-2.494-2.912-2.996c-2.085-.62-3.229-.36-3.335.052z"/><path fill="#bcc7d0" d="M18.27 17.93c-.678.81-2.034 1.598-2.627 1.89c1.822-.308 2.637-1.298 2.817-1.753l-.19-.143z"/><path fill="url(#SVGBdLQsetL)" d="M14.95 20.167c-1.482 0-2.647-.482-3.044-.725c.211.37 1.117 1.122 3.044 1.122c2.8 0 4.007-1.572 4.262-2.355c-.053.079-.387.031-.551 0c-.228.608-1.848 1.958-3.706 1.958z"/><path fill="url(#SVG7A8lic4E)" d="M9.063 15.578c.01.212-.19.45-.291.54c.026.355.397.471.582.482a.9.9 0 0 1-.392 0c-.026.185-.264.423-.38.519a.47.47 0 0 0 .264-.128c-.053.138-.201.207-.265.223c.127.286.466.339.62.328c.211.302.826.302 1.106.265c-.603-1.144-.254-2.483 0-3.007c-.35-.19-.635-.143-.73-.1c.063.259-.196.592-.334.724c.064.16.344.34.476.408c-.402-.053-.513-.19-.518-.254z"/><path fill="#f9ffff" d="M8.84 14.587c-.026.154 0 .498.292.646c.085 0 .26-.09.249-.397c-.212-.026-.535-.233-.54-.249m-.158 1.377c-.291-.154-.318-.498-.291-.651c0 .016.328.227.54.254c.01.307-.16.392-.25.397m-.164.963c-.265-.2-.223-.545-.17-.688c0 .016.276.275.482.339c-.048.307-.228.36-.318.35z"/><path fill="url(#SVGn8CiBcQr)" d="M18.184 9.3a12 12 0 0 0-1.022-1.234l.159.89l-1.027-.255l.36.493l-.276.105c-.264.085-.794.392-.757.953c.032.561.583.953.858 1.08a1.37 1.37 0 0 1-.413-.974c0-.609.397-1.059.89-1.059c.497 0 1.228.424 1.228 1.27c0 .679-.355.996-.535 1.065a5 5 0 0 1 1.504 1.101c-.011-1.18-.43-2.393-.636-2.848c.265.302.46.847.524 1.085l.19-.402c-.259-1.36-1.02-2.128-1.376-2.345h-.36c.265.275.567.83.689 1.074"/><path fill="url(#SVGr7Ly4cvt)" d="M9.82 10.92L9.66 10l.107-.307c1.37 0 2.292 1.021 2.578 1.535a1.74 1.74 0 0 0-.55-.868c.454.047.84.44.979.635c-.032-.212-.228-.423-.323-.492c.19.015.65.037.968 0s.662-.397.794-.572c.09.042.308.127.477.127c.212 0 .413-.122.413-.37c0-.191-.069-.313-.106-.345l.688-.095c.37-.053.646.021.741.064l.059-.064l-.196-.524a.96.96 0 0 1 .444.1l.34.424c-.583-.021-.8.201-1.017.582c-.17.302-.07.82 0 1.038c-.98 0-1.42.148-1.948.318c-.53.164-.45.153-1.038.211c-.582.07-.736.508-.905.73a3.2 3.2 0 0 1-.837.79c-.333.212-.757 1.09-.931 1.498l-.106-.805c.54-.513.323-.741.285-.778c-.031-.032-.174.01-.238.037v-.106c.583-.291.561-.688.477-.857c-.175.121-.524.121-.678.105l-.032-.105c.546-.196.614-.567.583-.726h-.604l-.265-.264z"/><path fill="#bcc8d4" d="M17.057 7.31c0-.302-.053-.98-.264-1.26c0 .08.174.873.264 1.26"/><path fill="#c0c5cb" d="m17.214 5.802l-.307.185c.106.201.318.794.265 1.588c.053.08.275.233.667.196c0-1.006-.418-1.731-.625-1.97"/><path fill="#d3d9f3" d="m16.797 5.912l-.148-.694l.307-.301c.037-.032.095.09.117.158l.047.36l.133-.36c1.032.662 1.122 2.23 1.037 2.928l-.318-.164a3.04 3.04 0 0 0-.72-2.176zM16.723 4.8c-.069.058-.106.254-.106.28l.238-.285s-.068-.064-.132 0z"/><path fill="#d9d8dd" d="m15.891 15.811l-1.133-.105c0 .211.276.709.805.709c.53 0 .561-.122.577-.249s-.08-.153-.17-.18c-.074-.026-.084-.122-.079-.164z"/><path fill="#e2e3e5" d="M12.293 15.198c-.18-.016-.106.074-.106.095c0 .058.19.228.37.249c.175.021.297-.207.238-.249c-.052-.042-.317-.08-.502-.095"/><path fill="#ced8f1" fill-rule="evenodd" d="M11.772 15.616c.9 0 1.657.37 1.922.556a1.2 1.2 0 0 0-.344-.381l.085-.074v-.302c.148.026.312-.148.312-.201s-.037-.334-.053-.466c0 .339-.138.487-.201.519l-1.35-.382l.069-.566c.18-.064.545-.185.593-.185c.227-.837.815-.996 1.08-.97a.37.37 0 0 0 .232.318c-.158-.338 0-.524.106-.571c.1.301.906.413 1.297.434c0 .175-.174.328-.259.381c.159.08.45-.085.577-.18l.254.138c-.005.211.096.328.148.36c-.052-.35.08-.52.16-.562c.169.466.889.435 1.005.43h.01c.107.317-.211.492-.386.54h.35c.566.052.725.687.73 1.005a.38.38 0 0 0-.307.159c-.053.424-.17 1.302-.217 1.445a.65.65 0 0 0-.021.339l.137.117c-.825 1.73-2.848 2.16-3.758 2.16c-2.954 0-3.415-2.383-3.415-2.648c0-.264.122-1.413 1.244-1.413m2.467-.042c-.312-.255.26-.599.408-.689l.026-.016c-.09.101-.286.334-.344.456c-.053.122.106.143.196.137h2.223c.053 0 .223.233.302.345c-.286.254-1.006.767-1.614.767c-.614 0-.837-.62-.869-.926c-.121 0-.264-.053-.328-.074m-2.684.825c.048-.09.175-.275.318-.275s.26.244.296.366c-.053-.064-.18-.191-.296-.191a.7.7 0 0 0-.318.106zm-.233 1.155c.064-.106.286-.307.688-.307c.498 0 1.218.45 1.589.894c-.418-.249-1.313-.752-1.589-.752a1.75 1.75 0 0 0-.688.165m2.128-.922c-.132-.047-.317.09-.391.164a.7.7 0 0 1 .339 0c.105.032.185.196.211.27c.005-.127-.02-.391-.159-.434" clip-rule="evenodd"/><path fill="#96a4c1" d="M13.69 13.26c-.239.212-.737.678-.805.884c-.064.202-.371.228-.514.217l-.143.434l1.186.308l.275-.413a32 32 0 0 0-.836-.143c-.17-.021-.175-.064 0-.143c.175-.074.217-.106.275-.265c.053-.159.408-.725.561-.879m3.34 1.191c.02 0 .037-.01.058-.016a5 5 0 0 0-.561.122h-.01a2.5 2.5 0 0 0-.329.138c-.312.148-.768.36-1.228.434c-.54.09-.477.265-.381.339a8.3 8.3 0 0 1 2.382.402h-.138c-.095.212-.476.651-1.217.688c-.742.038-.99-.582-1.027-.894c-.106.243.042.566.132.693l-.514.233a.88.88 0 0 0-1.053-.08c.185-.026.582 0 .699.345c.127.344-.593.476-.969.508c.725.339.926.921.815.995c-.085.053-.317-.159-.418-.264c-.021.434-.45.211-.725.069l-.148-.075c-.212-.084-1.06-.317-1.112.196c-.032.26.35.636.762.953c.476.265 1.096.44 1.895.44c.911 0 2.933-.43 3.76-2.16l-.139-.117a.64.64 0 0 1 .022-.339c.053-.143.164-1.021.217-1.44a.39.39 0 0 1 .307-.169c-.005-.312-.16-.953-.73-1z"/><path fill="#b6bfc6" d="M18.845 15.632c.127-.042.413-.122.556-.122c.148 0 .635.286.858.43l-.122 1.206l-.328.54c-.18-.053-.82-.275-.837-.392a69 69 0 0 1-.127-1.662m.747 1.615c.084.01.18-.154.211-.366c.032-.211-.005-.397-.09-.413c-.079-.01-.174.154-.211.371c-.032.212.01.397.09.408"/><path fill="#fffffd" d="m19.333 16.05l.868-.032l.053-.095h-.916l-.487-.317c-.222.317-.37 1.545-.423 2.117c.106.037.333.138.423.207c.09.063.768-.027 1.096-.085l.207-.741c-.064.074-.228.265-.366.37c-.132.117-.44-.042-.582-.137z"/><path fill="#b5bec5" d="M19.597 12.815c-.01.037 0 .424 0 .62c.143-.048.487-.117.677-.022c-.1-.148-.38-.476-.677-.598m.926 1.784a.95.95 0 0 0-.725-.635l-.148-.44c.106-.052.35-.052.455-.047c.477.095.477.789.424 1.122zm-.455.831c-.016-.423-.201-1.058-.291-1.323c.265 0 .662.318.662.651c0 .27-.244.561-.37.672"/><path fill="#fbffff" d="M7.814 4.318C4.42 5.822 3.78 8.326 3.885 9.39c.037-.053 1.43-1.18 2.23-.588A8.2 8.2 0 0 1 7.94 4.906c-.08-.132-.011-.312.037-.386a.8.8 0 0 0-.164-.202m.148 4.146c-.54-.16-1.112.185-1.324.38c.1-1.535.927-2.922 1.324-3.424l.222 1.08c-.164.38-.217 1.471-.222 1.964"/><path fill="#f7f3f2" d="M9.279 4.113c-.159.084-.477-.28-.614-.477c1.022-.53 1.28-.222 1.112-.127c-.16.096-.302.493-.498.598z"/><path fill="url(#SVGwCekUbJu)" d="m9.168 10.82l-.969-5.904c0-.053.026-.17.132-.17a.19.19 0 0 1 .175.096l1.032 6.014z"/><path fill="#bdcbd8" d="m9.75 14.505l-.079-.477l.355-.079l.08.598zm.657 4.214l-.159-.694l.096-.026l.323.625c-.075.106-.207.106-.26.095"/><path fill="#fffffd" d="M9.566 9.406c.212-1.34-.138-2.043-.339-2.229c.689-.423 2.51-.275 3.335-.158l-.434-2.171c.593 0 2.23-1.048 2.928-1.048c.561 0 .958.19 1.09.286l.821 4.473c-.026-.032-.318-.085-1.323-.085c-1.382 0-2.023.927-3.082.927s-1.296-.074-1.98-.339a.804.804 0 0 0-1.016.339z"/><path fill="#96352f" d="m12.868 4.906l.19-.106c.625-.338 1.26-.677 2.039-.677c.529 0 .91.164 1.106.29l-.058-.327c-.133-.096-.53-.286-1.09-.286c-.36 0-.98.286-1.573.556c-.55.248-1.075.487-1.355.487l.068.354l.064-.02a4 4 0 0 0 .609-.276zm-.535.964l-.085-.403h.022c.17 0 .397-.031.624-.158c.106-.053.207-.106.313-.17c.582-.323 1.276-.715 2.112-.715c.344 0 .651.027.9.064l.08.429a5 5 0 0 0-.98-.085c-.715 0-1.302.323-1.885.646l-.338.19a1.8 1.8 0 0 1-.763.202m.127.64l-.08-.397c.154-.01.334-.053.514-.153c.106-.053.207-.106.313-.17c.582-.323 1.276-.71 2.112-.71q.514-.003 1.022.086l.08.434a5 5 0 0 0-1.107-.117c-.71 0-1.297.323-1.88.651l-.338.186a1.8 1.8 0 0 1-.636.19m.095.487l-.079-.413c.24.03.484-.009.704-.11l.286-.144a4.24 4.24 0 0 1 1.975-.571q.52.007 1.032.11l.08.456a5 5 0 0 0-1.123-.159c-.656-.016-1.207.249-1.758.519l-.317.154a1.75 1.75 0 0 1-.794.158zm-2.98.964a2.6 2.6 0 0 0-.116-.408c.296-.18.751-.37 1.233-.37c.397 0 .72.084 1.006.17h.016c.296.09.566.163.91.163c.143 0 .355-.053.614-.143c.25-.095.52-.212.805-.339l.027-.01c.29-.127.587-.265.868-.36c.25-.1.514-.16.783-.175c.302 0 .614.053.89.127l.08.44a3.5 3.5 0 0 0-.97-.16c-.159 0-.376.054-.64.149c-.265.095-.55.217-.842.35l-.032.01c-.28.122-.561.249-.826.344c-.264.1-.529.175-.757.175c-.407 0-.73-.095-1.022-.18h-.005a3.1 3.1 0 0 0-.905-.159c-.445 0-.879.212-1.117.37zm.053.64a4 4 0 0 0-.021-.444a2 2 0 0 1 .879-.212c.365 0 .74.116 1.09.217l.042.016c.376.111.731.212 1.08.212c.149 0 .34-.053.583-.16c.19-.079.391-.18.614-.285l.175-.09c.56-.275 1.217-.582 1.852-.582c.308 0 .583.031.821.084l.085.44a3.4 3.4 0 0 0-.9-.122c-.53 0-1.101.26-1.673.54l-.164.085c-.223.106-.445.222-.646.307c-.254.106-.514.19-.747.19c-.423 0-.83-.121-1.201-.233h-.011c-.376-.116-.699-.211-1.006-.211c-.333 0-.646.127-.847.248zm7.268-.407a6.5 6.5 0 0 0-1.164-.09c-.778 0-1.345.286-1.837.55l-.069.037c-.471.255-.858.461-1.345.461a2.5 2.5 0 0 1-1.133-.228c-.243-.1-.503-.206-.926-.206c-.334 0-.598.095-.805.222a5 5 0 0 1-.053.46a.804.804 0 0 1 1.017-.338a4.1 4.1 0 0 0 1.98.339c.497 0 .9-.201 1.323-.418a3.7 3.7 0 0 1 1.753-.509c1.016 0 1.302.053 1.328.085l-.069-.37z"/><path fill="#fffffd" d="m10.015 4.784l.074.1l.127.033l-.084.09l.005.116l-.122-.037l-.122.037v-.116l-.079-.09l.127-.032zm-.556.053l.07.106l.126.026l-.08.096v.116L9.46 5.14l-.127.042l.005-.116l-.079-.096l.127-.031l.074-.096zm.397.413l-.074-.095l-.069.095l-.127.032l.08.09v.122l.116-.043l.127.043l-.005-.122l.08-.09zm-.27.328l.07.1l.126.027l-.08.096l.006.116l-.122-.042l-.127.042l.01-.116l-.084-.096l.127-.026zm.45.44l-.074-.1l-.074.1l-.122.031l.08.09l-.006.117l.122-.037l.122.037v-.117l.08-.09zm.472 0l.074.095l.127.032l-.085.095l.005.116l-.121-.042l-.122.042V6.24l-.08-.095l.127-.032zm.635.095l-.069-.095l-.074.095l-.127.032l.08.095v.116l.121-.042l.122.042l-.006-.116l.08-.095zm.434-.106l.074.095l.127.032l-.085.09l.011.122l-.127-.042l-.122.042l.005-.122l-.08-.09l.128-.032l.069-.1zm.36.477l-.074-.096l-.074.096l-.127.031l.084.096l-.005.116l.122-.042l.122.042v-.116l.079-.096zm-1.81-.99l.073.095l.128.032l-.085.095l.005.116l-.122-.042l-.121.042v-.116l-.08-.095l.127-.032zm.619.195l-.075-.1l-.074.1l-.127.032l.085.09l-.005.117l.121-.037l.122.037V5.81l.08-.09zm.487-.1l.074.1l.127.032l-.08.09v.117l-.121-.037l-.122.037l.005-.117l-.08-.09l.128-.032zm.582.09l-.074-.1l-.074.1l-.127.026l.085.096l-.006.116l.122-.042l.122.042v-.116l.08-.096zm-1.535-.53l.074.106l.127.027l-.08.09v.122l-.116-.043l-.127.043l.005-.122l-.08-.09l.128-.032l.074-.095zm.62.202l-.075-.101l-.069.1l-.127.032l.08.09v.117l.116-.042l.127.042l-.005-.117l.08-.09zm.492-.101l.074.1l.127.032l-.085.09l.005.117l-.121-.042l-.122.042v-.117l-.08-.09l.127-.031zm-.795-.312l-.074-.096l-.069.096l-.127.031l.08.096v.116l.116-.042l.127.042l-.005-.116l.08-.096zm.477 0l.069.1l.127.032l-.085.09l.005.117l-.121-.038l-.122.038l.005-.117l-.08-.09l.123-.032l.074-.1zm.635.1l-.074-.1l-.074.1l-.127.032l.085.09l-.006.117l.122-.038l.122.038l-.005-.117l.079-.09zM9.655 6.362l.074.106l.127.026l-.084.095l.01.117l-.127-.042l-.122.042l.006-.117l-.08-.095l.127-.032l.07-.095zm.62.201l-.075-.1l-.074.1l-.127.032l.085.09l-.005.116l.121-.037l.122.037v-.116l.08-.09zm.492-.1l.069.1l.127.032l-.08.09l.006.116l-.122-.037l-.127.037l.01-.116l-.084-.09l.127-.032zm.582.09l-.08-.101l-.068.1l-.127.027l.08.095l-.006.117l.122-.043l.127.043l-.005-.117l.079-.095l-.127-.027z"/><defs><linearGradient id="SVGMeOMCbuf" x1="8.668" x2="13.429" y1="4.576" y2="21.346" gradientUnits="userSpaceOnUse"><stop stop-color="#d5e1f9"/><stop offset="1" stop-color="#8493b4"/></linearGradient><linearGradient id="SVGCnLXEuTU" x1="12.001" x2="12.001" y1="3.001" y2="20.992" gradientUnits="userSpaceOnUse"><stop stop-color="#cfd7ec"/><stop offset="1" stop-color="#ccd6ef"/></linearGradient><linearGradient id="SVGApZnNcCV" x1="12.332" x2="23.303" y1="6.255" y2="13.458" gradientUnits="userSpaceOnUse"><stop offset=".25" stop-color="#fffcff"/><stop offset=".66" stop-color="#bfc2c7"/></linearGradient><linearGradient id="SVGBdLQsetL" x1="18.744" x2="8.019" y1="6.032" y2="7.25" gradientUnits="userSpaceOnUse"><stop stop-color="#b8c5cb"/><stop offset="1" stop-color="#fafeff"/></linearGradient><linearGradient id="SVG7A8lic4E" x1="12.001" x2="8.854" y1="3.006" y2="19.655" gradientUnits="userSpaceOnUse"><stop stop-color="#c9d5ed"/><stop offset=".24" stop-color="#a2afcf"/><stop offset=".4" stop-color="#cfdbf3"/><stop offset=".53" stop-color="#a1aece"/><stop offset=".63" stop-color="#9faccc"/><stop offset=".71" stop-color="#cedaf0"/><stop offset=".78" stop-color="#d0def8"/><stop offset=".86" stop-color="#a9b7d4"/><stop offset="1" stop-color="#b8bfdc"/></linearGradient><linearGradient id="SVGn8CiBcQr" x1="12.005" x2="15.061" y1="2.999" y2="18.821" gradientUnits="userSpaceOnUse"><stop stop-color="#d1d9ee"/><stop offset="1" stop-color="#8893b3"/></linearGradient><linearGradient id="SVGr7Ly4cvt" x1="18.095" x2="7.07" y1="5.897" y2="12.082" gradientUnits="userSpaceOnUse"><stop stop-color="#929fc1"/><stop offset=".6" stop-color="#94a1c4"/><stop offset=".91" stop-color="#d0dcf2"/><stop offset="1" stop-color="#98a5c7"/></linearGradient><linearGradient id="SVGwCekUbJu" x1="12.036" x2="12.45" y1="2.999" y2="20.907" gradientUnits="userSpaceOnUse"><stop stop-color="#aec0cc"/><stop offset=".76" stop-color="#faf8f9"/><stop offset="1" stop-color="#bbc5ce"/></linearGradient></defs></g></svg>