<svg xmlns="http://www.w3.org/2000/svg" viewBox="0 0 24 24"><g fill="none"><path fill="#ffe1a5" d="m4.84 6.979l-.774 1.324A7.955 7.955 0 0 0 6.979 19.17l1.324.764a7.955 7.955 0 0 0 10.867-2.913l.764-1.324A7.95 7.95 0 0 0 17.022 4.83l-1.325-.764A7.954 7.954 0 0 0 4.83 6.979z"/><path fill="#f69d88" d="M13.13 3.613h-2.252a7.254 7.254 0 0 0-7.26 7.264v2.253a7.25 7.25 0 0 0 7.255 7.254h2.253a7.25 7.25 0 0 0 7.254-7.254v-2.253a7.25 7.25 0 0 0-7.254-7.254z"/><path fill="#2196f3" d="M12.005 20.218a8.217 8.217 0 1 0 0-16.434a8.217 8.217 0 0 0 0 16.434"/><path fill="#f0f3fa" d="m15.478 6.047l-2.53 4.326l2.486 1.499l-6.902 6.083l2.5-4.351l-2.5-1.454z"/></g></svg>