<svg xmlns="http://www.w3.org/2000/svg" viewBox="0 0 24 24"><g fill="none"><path fill="#2e3092" d="M10.291 7.003H8.002l3.514 5.118l-3.514 5.377h2.185l2.449-3.748l2.574 3.748h2.288z"/><path fill="#ee008e" d="M17 7.003h-2.09L13.5 9.322L14.566 11z"/><path fill="url(#SVGiNmZecxc)" fill-rule="evenodd" d="M10.021 3.774c.8-.24 1.65-.315 2.524-.315c2.24 0 4.283.794 5.833 2.194a.2.2 0 0 0 .265-.3a9.07 9.07 0 0 0-8.737-1.96a.2.2 0 0 0 .115.38m9.136 2.604c.12 0 .22-.1.22-.225s-.1-.225-.22-.225c-.124 0-.224.1-.224.225s.1.225.224.225m0 .224c.245 0 .45-.2.45-.45s-.205-.45-.45-.45c-.25 0-.45.2-.45.45s.2.45.45.45M4.838 7.717c.1.05.135.17.08.265a8.6 8.6 0 0 0-.97 4.088c0 1.96.6 3.769 1.7 5.223a.2.2 0 0 1-.315.235a9.02 9.02 0 0 1-1.83-5.458c0-1.55.386-2.999 1.07-4.273a.2.2 0 0 1 .265-.08m15.564 8.357c.09.05.12.174.07.27a8.88 8.88 0 0 1-5.098 4.198a.2.2 0 0 1-.146-.019a.2.2 0 0 1-.089-.116a.2.2 0 0 1 .125-.245a8.5 8.5 0 0 0 4.873-4.013a.19.19 0 0 1 .265-.075M8.392 4.394a.15.15 0 1 0-.14-.26q-.361.195-.7.42a.15.15 0 1 0 .16.25c.22-.15.45-.286.68-.41m-1.32.869a.15.15 0 1 0-.184-.23q-.316.254-.61.545a.15.15 0 0 0 .205.21c.19-.185.39-.36.59-.525m-1.134 1.1a.15.15 0 0 0-.225-.19q-.346.402-.645.844a.15.15 0 1 0 .25.165q.285-.428.62-.82m.8 12.14a.15.15 0 0 0-.197.022a.15.15 0 0 0-.003.198q.386.343.81.64a.14.14 0 0 0 .204-.036a.15.15 0 0 0-.035-.2a9 9 0 0 1-.78-.63zm1.569 1.114a.15.15 0 0 0-.23.17a.15.15 0 0 0 .085.09c.285.155.575.3.87.42a.15.15 0 0 0 .166-.089a.15.15 0 0 0-.051-.181a8 8 0 0 1-.84-.41m1.72.725a.15.15 0 0 0-.168.105a.15.15 0 0 0 .082.18a10 10 0 0 0 1 .234a.15.15 0 0 0 .136-.121a.15.15 0 0 0-.146-.178c-.3-.055-.605-.13-.905-.22m1.829.34a.15.15 0 0 0-.131.018a.15.15 0 0 0-.066.114a.15.15 0 0 0 .176.158c.16.015.32.02.48.025a.15.15 0 0 0 .166-.079a.15.15 0 0 0-.09-.212a.2.2 0 0 0-.066-.004c-.155 0-.315-.01-.47-.02" clip-rule="evenodd"/><defs><linearGradient id="SVGiNmZecxc" x1="7.752" x2="17.223" y1="4.128" y2="20.272" gradientUnits="userSpaceOnUse"><stop stop-color="#2b3e9b"/><stop offset="1" stop-color="#d4078f"/></linearGradient></defs></g></svg>