<svg width="920" height="900" viewBox="0 0 920 900" fill="none" xmlns="http://www.w3.org/2000/svg">
<path d="M50.7352 0.534251C31.8391 10.6122 89.0523 226.238 120.021 332.791L301.107 194.219C225.523 125.458 69.6313 -9.54366 50.7352 0.534251Z" fill="#AF49EA"/>
<path d="M885.311 394.196L642.812 186.339L880.587 0.527344C944.834 68.5533 910.506 291.317 885.311 394.196Z" fill="#AF49EA"/>
<path d="M823.247 161.798L765.116 219.929C763.74 221.305 763.929 223.588 765.513 224.719L823.644 266.241C825.728 267.73 828.624 266.24 828.624 263.679V164.025C828.624 161.219 825.231 159.814 823.247 161.798Z" fill="#261F3F"/>
<ellipse cx="485.344" cy="526.471" rx="434.61" ry="373.198" fill="#AF49EA"/>
<path d="M254.02 520.059L148.527 437.071C144.621 433.999 139.242 433.602 134.928 436.067C132.419 437.5 130.501 439.777 129.514 442.492L126.788 449.987C125.436 453.706 124.744 457.633 124.744 461.59V488.37C124.744 496.936 125.862 505.466 128.069 513.743C130.045 521.152 132.879 528.304 136.515 535.056L142.066 545.365L147.638 553.325C151.251 558.487 155.617 563.078 160.591 566.947C165.017 570.39 169.883 573.227 175.06 575.384L186.156 580.008L193.648 582.006C204.216 584.824 215.337 584.824 225.905 582.006C230.88 580.679 235.673 578.743 240.175 576.242L244.02 574.106C246.379 572.795 248.593 571.238 250.624 569.461L250.855 569.259C256.9 563.969 261.075 556.868 262.758 549.014L263.398 546.027C264.375 541.47 264.113 536.734 262.639 532.312C261.026 527.473 258.029 523.213 254.02 520.059Z" fill="#261F3F"/>
<ellipse cx="200.328" cy="528.044" rx="14.1721" ry="31.4935" fill="#AF49EA"/>
<path d="M442.146 525.383L614.085 442.427C619.956 439.594 626.786 439.533 632.706 442.261C637.456 444.448 641.262 448.268 643.433 453.025L645.353 457.231C647.644 462.251 648.69 467.75 648.401 473.261L647.052 499C646.526 509.047 644.164 518.913 640.085 528.111C636.823 535.464 632.502 542.301 627.26 548.403L616.939 560.417L609.64 566.966C602.57 573.31 594.625 578.607 586.049 582.694C579.642 585.748 572.926 588.106 566.016 589.727L546.706 594.259L534.381 595.89C518.116 598.042 501.594 597.176 485.643 593.335L485.251 593.241C477.472 591.368 469.884 588.776 462.585 585.498L456.041 582.56C453.391 581.369 450.853 579.945 448.456 578.304L443.321 574.789C436.785 570.313 432.112 563.6 430.186 555.917L429.372 552.673C427.917 546.868 428.696 540.729 431.555 535.472C433.942 531.083 437.647 527.554 442.146 525.383Z" fill="#261F3F"/>
<ellipse cx="20.4708" cy="33.0682" rx="20.4708" ry="33.0682" transform="matrix(-1 0 0 1 548.331 506)" fill="#AF49EA"/>
<path d="M274.72 616.267C277.91 616.254 281.1 616.24 284.387 616.227C289.448 616.271 289.448 616.271 294.612 616.317C298.029 616.34 301.446 616.364 304.967 616.388C357.844 617.099 357.844 617.099 371.968 623.403C377.974 631.005 380.922 637.244 383.347 646.592C380.146 660.358 370.007 668.06 359.961 677.532C357.937 679.511 355.914 681.49 353.828 683.529C345.433 691.664 337.639 698.778 327.877 705.286C328.996 723.937 333.407 733.158 346.773 746.227C367.721 758.625 386.993 759.591 410.806 760.455C427.978 761.296 427.978 761.296 434.955 768.273C436.333 777.327 436.333 777.327 434.955 787.169C426.052 796.959 418.815 800.575 405.91 801.661C400.83 801.78 395.748 801.8 390.667 801.734C388.016 801.719 385.365 801.704 382.633 801.689C353.223 800.729 331.935 789.156 308.981 771.422C307.455 772.331 305.928 773.241 304.355 774.178C288.17 783.142 277.093 786.446 258.591 784.019C249.143 777.721 249.143 777.721 242.845 771.422C245.761 761.609 247.442 756.769 256.205 751.136C258.941 749.971 261.677 748.805 264.496 747.605C281.105 740.316 281.105 740.316 293.234 727.331C292.513 710.525 285.375 700.791 274.929 688.358C245.815 651.992 245.815 651.992 246.191 631.67C251.469 616.89 260.577 616.302 274.72 616.267Z" fill="#261F3F"/>
<path d="M10.3796 551.973L64.5444 605.489C71.6233 612.483 83.5778 606.845 82.6843 596.934C82.4454 594.285 81.2362 591.832 79.2841 590.024C54.6493 567.214 13.5142 526.896 4.53115 528.027C1.50991 528.408 0.333021 530.182 0.0796829 532.485C-0.746529 539.997 5.00396 546.661 10.3796 551.973Z" fill="#AF49EA"/>
<path d="M809.727 644.566C759.136 638.712 647.468 661.326 591.928 680.312C588.065 681.633 583.676 683.073 580.18 680.963C572.845 676.536 578.239 662.942 586.124 660.316C592.805 656 686.903 630.398 737.292 619.376C748.315 618.326 776.344 616.856 800.279 619.376C824.214 621.895 820.305 644.566 809.727 644.566Z" fill="#261F3F"/>
<path d="M737.981 756.596C700.397 739.265 617.916 730.019 574.762 727.148C571.68 726.943 568.19 726.077 567.447 723.079C566.281 718.371 569.398 711.69 573.913 709.233C576.128 708.028 578.811 707.927 581.332 707.853C598.423 707.35 665.429 713.36 701.871 718.373C712.805 719.877 731.239 727.768 747.855 736.951C759.113 743.173 757.78 750.069 753.421 755.169C749.687 759.539 743.201 759.003 737.981 756.596Z" fill="#261F3F"/>
<path d="M34.2238 663.557L105.847 682.802C107.989 683.378 110.04 681.617 109.794 679.413L107.908 662.453C107.77 661.213 106.917 660.172 105.725 659.801C83.4159 652.872 41.0954 641.023 35.7978 644.687C30.341 648.461 29.3047 662 34.2238 663.557Z" fill="#AF49EA"/>
</svg>
