<svg version="1.1" viewBox="0 0 48 48" xmlns="http://www.w3.org/2000/svg">
 <title>e-os</title>
 <path d="m23.068 20.288a3.8998 3.8998 0 0 0-2.7574 2.7579l-0.0038-1e-3a3.8108 3.8108 0 0 0 1.0012 3.78l-5.5e-4 5.4e-4a3.902 3.902 0 0 0 2.7594 1.1445h16.66a3.9147 3.9147 0 0 0 3.9139-3.9014 20.623 20.623 0 0 0-25.925-20.025h-6e-5a20.648 20.648 0 0 0 5.4459 40.605 3.9148 3.9148 0 1 0 0.08374-7.8292q-0.07425-8.2e-4 -0.14837 0.0012a12.795 12.795 0 0 1-9.0991-3.6849l-6e-5 6e-5a12.811 12.811 0 1 1 18.116-18.116l-6e-5 6e-5a12.849 12.849 0 0 1 3.0862 5.1203h-12.122a3.8774 3.8774 0 0 0-1.0101 0.14667"/>
</svg>
