<svg version="1.1" viewBox="0 0 48 48" xmlns="http://www.w3.org/2000/svg">
 <g stroke-linecap="round" stroke-linejoin="round">
  <path d="m5 14 8-8h29v29l-8 8h-29z" fill="#fff" stroke-width="1.1"/>
  <path transform="translate(43,29)" d="m-20.414-26.733 5.6668 18.683 16.391-12.122c-10.384 7.1178-15.228 0.40355-22.058-6.5615zm0.12666 0c-1.3972 16-14.713 14.732-21.713 15.493 0.18108 0.10404 0.35844 0.20845 0.5332 0.3125l22.403 4.1177zm23.287 5.7334-15 15 16 6c-6.3333-5-6.6667-12-1-21zm1 21-18-2 1 20c2.1072-9.8672 8.8636-16.776 17-18zm-17 18-5.6333-18.367-21.367 14.367c17.547-8.6159 22.409-2.4649 27 4zm-27-4 18-18-19.02-6.6562c13.354 8.205 7.3985 16.43 1.0195 24.656z" fill="#a9acf3" stroke-width="1.1"/>
  <path d="m12 5-8 8v2 29h2 27 2l8-8v-2-27-2h-28.172-0.82812-2zm2 2h26.172l-6 6h-20.172v-6zm-2 0.82812v5.1719h-5.1719l5.1719-5.1719zm29 1.1719v25h-6v-19l6-6zm-35 6h6v19l-6 6v-25zm8 0h18.172 0.82812v19h-18.172-0.82812v-19zm-1.1719 21h20.172v6h-26.172l6-6zm22.172 0h5.1719l-5.1719 5.1719v-5.1719z" stroke-width="10.69"/>
 </g>
 <g stroke-linecap="round" stroke-linejoin="round">
  <path transform="translate(43,29)" d="m-20.54-26.543 5.5402 17.543 16.645-11.172c-12.29 7.1178-16.413-0.03978-22.185-6.3715zm-0.06333 0c-3.6771 15.24-14.396 14.542-21.396 15.303 0.18108 0.10404 0.35844 0.20845 0.5332 0.3125l21.467 2.9277zm23.604 5.5434-15 15 16 6c-6.3333-5-6.6667-12-1-21zm1 21-18-2 1 20c1-10 7-17 17-18zm-17 18-6.19-18.05-20.81 14.05c17.547-10.336 22.409-3.3523 27 4zm-27-4 18-18-19.02-6.6562c13.354 8.205 7.3985 16.43 1.0195 24.656z" fill="#c7c9f7" stroke-width="1.1"/>
  <path d="m22.397 1-1.3476 4.3169 1.4309-0.2855 2.2468 19.345 2.4305-0.57201-3.462-18.901 1.3043-0.22217z" fill="#104161" stroke-width="7.6056"/>
  <path d="m46 8-4.6914 1.3202 0.91789 0.92361-16.889 13.05 1.2025 1.4672 16.383-13.62 0.79122 1.1136z" fill="#f31c23" stroke-width="7.7783"/>
  <path d="m3 43 5.3837-1.5784-0.82098-1.4316 19.103-15.113-1.3288-1.5834-18.53 15.923-1.201-1.2416z" fill="#f31c23" stroke-width="9.0507"/>
  <path d="m1 17.761 3.8919 2.9354 0.3592-1.304 20.569 5.545 0.46508-1.848-20.696-4.8484 0.23254-1.2407z" fill="#3ec455" stroke-width="7.818"/>
  <path d="m30.008 47.167 1.2711-4.3991-0.98465 0.17866-3.0916-19.25-2.5453 0.65131 3.6676 18.956-0.98465 0.17866z" fill="#134d75" stroke-width="7.6571"/>
  <path d="m47 29-3.0546-2.1947-0.49632 0.83587-17.103-4.7956-0.61266 2.3051 17.42 3.7823-0.17967 0.83588z" fill="#3ec455" stroke-width="6.7901"/>
  <circle cx="26" cy="24" r="2" fill="#c7c9f7" stroke-width="6.0472"/>
 </g>
 <g>
  <rect x="6" y="13" width="29" height="2"/>
  <path d="m40.172 7-7.1719 7 2 1 7-7z"/>
  <path d="m33 13v30h2v-30z"/>
  <path d="m4 15v8h2v-9h-2z"/>
  <rect x="21" y="42" width="12" height="2"/>
 </g>
</svg>
