<svg xmlns="http://www.w3.org/2000/svg" viewBox="0 0 24 24"><g fill="none"><path fill="url(#SVGCZqGLb1d)" d="m9.857 5.5l1.055-1.62a8.07 8.07 0 0 0-5.366 3.07l.835 1.15a6.77 6.77 0 0 1 3.476-2.6m3.925-.065a6.8 6.8 0 0 1 3.736 2.736l.715-1.31a8.07 8.07 0 0 0-5.386-2.99zm-8.336 4.65q.226-.787.625-1.484l-.86-1.185a8.15 8.15 0 0 0-1.34 3.75l1.575-1.085zm-1.555 2.861l1.55.905a6.8 6.8 0 0 0 2.11 3.3l-.86 1.051a8.17 8.17 0 0 1-2.8-5.25zm9.181 7.106a8 8 0 0 0 3.66-1.51l-.924-1a6.7 6.7 0 0 1-1.69.865l-1.046 1.65zm-3.365-1.65a6.7 6.7 0 0 1-1.73-.915l-.86 1.05a8.04 8.04 0 0 0 3.74 1.53l-1.15-1.67zm8.69-8.371a7.2 7.2 0 0 0-.55-1.33l.746-1.365a8.15 8.15 0 0 1 1.37 3.63zm-.019 3.935a6.8 6.8 0 0 1-2.135 3.236l.92.995a8.17 8.17 0 0 0 2.8-5.2z"/><path fill="url(#SVGCLjCbcyN)" fill-rule="evenodd" d="m10.173 6.54l.26-.085l.95-1.38V9.8h1.085V5.325l.63 1.05l.315.085a5.7 5.7 0 0 1 3.94 3.87l.09.3l2.276 1.38l-2.35 1.58l-.09.26a5.7 5.7 0 0 1-3.67 3.581l-.28.09l-1.421 2.22l-1.52-2.26l-.26-.09a5.7 5.7 0 0 1-3.616-3.73l-.09-.285l-2.13-1.38l2.095-1.266l.085-.31a5.7 5.7 0 0 1 3.7-3.88m1.97-3.32l1.48 2.45a6.51 6.51 0 0 1 4.506 4.425l2.74 1.66c.17.1.175.35.01.46l-2.835 1.9a6.52 6.52 0 0 1-4.2 4.096l-1.701 2.666a.27.27 0 0 1-.45.005l-1.825-2.716a6.52 6.52 0 0 1-4.13-4.265l-2.616-1.69a.276.276 0 0 1 .005-.46l2.57-1.55a6.52 6.52 0 0 1 4.226-4.436l1.765-2.56a.27.27 0 0 1 .45.014z" clip-rule="evenodd"/><path fill="#fafbf2" d="M6.797 3c1.375.69 4.03 2.95 4.18 6.65c.01.18.01.37.005.556a5.5 5.5 0 0 1 .946-.135l.25.015c.24.03.46.09.56.12a4 4 0 0 1-.045-.575c-.01-1.58.75-4.326 3.865-6.331l.495-.3l.095.575c.115.875.195 2.32-.23 3.776c-.365 1.255-.97 1.95-1.45 2.5c-.4.455-.71.81-.71 1.31l.81.545l-.27.815c.285.36.75 1.21.765 2.2v.026q.003.387-.09.765l-.4-.545c.115.246.143.525.08.79a.7.7 0 0 1-.085.165l-.27-.82a2.6 2.6 0 0 1-.13.55q-.057.18-.14.35a.9.9 0 0 1-.27.325q0-.142-.01-.285a1.3 1.3 0 0 0-.125-.53l-.27.95l-.675-1.36h.135l-.27-.135h-.135q.064.104.125.21l.01.025l.115.215l.02.04q.133.263.25.535l.02.065h-.54l.405.135l-.27.68l-.4-.27v.27l-.645-.875l.58-.555v-.575l.98-.25l-.065.275l.02.045l.15-.075l.05.11l.145-.5l.535.545l.595-.055l.03-.02a3.32 3.32 0 0 0-.64-2.08l.15-.34l-.1-.596l-.71-.475l-.81-.445l-.845-.28c-.04-.015-.11.2-.2.47c-.13.385-.29.875-.435.875c-.14 0-.316-.4-.476-.765c-.134-.31-.26-.59-.34-.57l-.69.175s-.65.33-.95.635a2 2 0 0 1-.205.17l-.255.17c.01.02 0 .095 0 .115c.05.25-.115.475-.115.65v.21l.04.18a2.15 2.15 0 0 0-.5 1.175l-.03.176l.44-.586l.2 1l.38-.574l.225.8l.9.31l.945.66l-.785.875l.135-.41l-.54.41l-.27-.68l.405-.135h-.54l.27-.68l-.27.135l-.4.95l-.275-.95a1.15 1.15 0 0 0-.17.61a.8.8 0 0 0 .035.205c.05.135.015.12-.05.02a4 4 0 0 1-.305-.65l-.015-.04a5 5 0 0 1-.17-.55a1.6 1.6 0 0 0-.15.235l-.05.1a1 1 0 0 0-.085.265q-.023.12.015.21a1.75 1.75 0 0 1-.17-.725q.001-.113.04-.225l-.27.545a4 4 0 0 1-.04-.7v-.015c.015-.7.175-1.6.71-2.14c0-.156-.01-.39-.05-.586c-.04-.2-.11-.365-.22-.365l.5-.315c.14-.095.265-.18.31-.23c.05-.05-.215-.425-.58-.95c-.69-.99-1.76-2.515-1.85-3.4c-.1-1.05-.2-2.506-.06-3.3q.015-.104.045-.201a.8.8 0 0 1 .15-.31z"/><path fill="url(#SVGsXJmuczD)" d="m12.738 13.47l-.135 1.361c-.135 0-.245-.135-.675-.135c-.435 0-.54.135-.675.135l-.135-1.36l-.27.135a2.15 2.15 0 0 0-1.75-2.175a6.9 6.9 0 0 1 2.695-1.225l.135 1.77l.135-1.77c.97 0 2.2.82 2.7 1.225c-1.515.22-1.8 1.54-1.755 2.175z"/><path fill="#52216d" d="M10.037 17.142c.405 0 1.35-.135 1.89-.68a3.24 3.24 0 0 0 1.82.68c-.434-.01-1.31-.13-1.82-.54a2.65 2.65 0 0 1-1.89.54"/><path fill="#ec6b9b" d="M11.927 16.602c-.54.54-1.485.54-1.89.54c.865.11 1.62-.045 1.89-.27c.54.435 1.48.27 1.886.27a3.3 3.3 0 0 1-1.886-.54"/><path fill="#992f60" d="m10.713 13.741l.135-.135c0-1.74-1.17-2.175-1.75-2.175c1.185.11 1.57 1.585 1.615 2.315zm2.425 0l-.135-.135c0-1.74 1.17-2.175 1.755-2.175c-1.185.11-1.575 1.585-1.62 2.315z"/><path fill="#531f69" d="m8.957 12.385l-.4-.55c.065.095.11.685 0 .955c-.115.275-.605.99-.54 1.5l2.02 1.086l.135-.41h-.135l.345-.696a.27.27 0 0 0-.24-.39h-.375c-.65 0-.81-.635-.81-.95v-.55z"/><path fill="#ec6b9b" d="M7.882 15.512c0-.436.09-1.18.135-1.5c0 .22.265.274.4.41h.81l.135.55l.81-.276l-.675 1.766l-.27-.95c-.105.11-.225.41-.27.544a2.9 2.9 0 0 1-.135-.95v.406l-.27-.41a2.3 2.3 0 0 0-.27.82c-.215-.22-.175-.726-.13-.95z"/><path fill="#a42d5e" d="M8.957 13.066c-.32.105-.585.405-.67.54h.4v.135c.22.25.99.195 1.35.14c-.325 0-.85-.55-1.08-.815"/><path fill="#531f69" d="m14.897 12.252l.4-.55c-.09.31-.09.64 0 .95c.11.275.6.995.54 1.5l-2.025 1.09l-.135-.41h.135l-.345-.695a.27.27 0 0 1 .11-.363a.3.3 0 0 1 .135-.032h.37c.65 0 .81-.63.81-.95v-.54z"/><path fill="#ec6b9b" d="M15.973 15.378c0-.435-.09-1.18-.135-1.5c0 .22-.27.274-.405.41h-.81l-.135.55l-.81-.275l.675 1.765l.27-.95c.11.11.225.405.27.545c.11-.22.135-.725.135-.95v.4l.27-.4c.215.43.27.72.27.81c.215-.215.18-.725.135-.95z"/><path fill="#a42d5e" d="M14.997 12.927c.325.11.585.41.675.55h-.405v.13c-.215.245-.99.195-1.35.135c.325 0 .85-.54 1.08-.816"/><path fill="url(#SVG9j7LxbLB)" d="M9.767 13.472c-.65-.11-.72-1.04-.675-1.5c.27.1.865.3 1.08.415c.215.105.36.86.405 1.22z"/><path fill="url(#SVG8R5aDcJW)" d="M14.083 13.472c.65-.11.72-1.04.675-1.5c-.27.1-.86.3-1.08.415c-.215.105-.355.86-.4 1.22z"/><path fill="#52216d" d="m10.172 15.242l.81-1.635l-.135 1.09a1.78 1.78 0 0 1 .81 1.36l-.81.68v-.41l-.4.275l-.14-.275l.135-.27h-.54l.405-.68zm3.506 0l-.805-1.635l.135 1.09a1.78 1.78 0 0 0-.81 1.36l.81.68v-.41l.4.275l.135-.275l-.135-.27h.54l-.4-.68z"/><path fill="url(#SVGSF1CyeXn)" d="M10.448 16.052h-.55l.405.82l.405-.27l.135.27l1.08-.68v-.68l-.81-.545l.675 1.09l-.945.68v-.41l-.4.275l-.14-.275l.135-.27z"/><path fill="url(#SVGXOd1jcqE)" d="M13.408 16.052h.54l-.4.82l-.41-.27l-.13.27l-1.08-.68v-.68l.81-.545l-.675 1.09l.945.68v-.41l.4.275l.135-.275l-.135-.27z"/><path fill="url(#SVGmXQeUToK)" d="M11.928 14.697c-.325 0-.586.09-.676.135l.676.41l.675-.41a1.7 1.7 0 0 0-.675-.135"/><path fill="#28113a" d="M10.173 6.805a6.22 6.22 0 0 0-3.1-3.26a8.95 8.95 0 0 1 2.83 5.03c.11.83-.045 1.75-.135 2.176l.945-.545c.045-.36.15-1.6-.54-3.4"/><path fill="#50226d" d="M9.497 7.625a9.27 9.27 0 0 0-2.56-3.945c-.54 4.626 1.75 6.12 2.02 6.39c.22.22.27.726.27.95l.27-.134c.215-1.74.09-2.9 0-3.26m4.976-.14c.54-1.85 1.935-3.4 2.565-3.94c.535 4.62-1.755 6.12-2.025 6.39c-.215.22-.27.726-.27.95l-.27-.134c-.215-1.74-.09-2.9 0-3.266"/><path fill="#261138" d="m14.083 10.75l-1.21-.68s-.045-1.304.67-2.99c.81-1.9 2.475-3.22 3.24-3.535a20.2 20.2 0 0 0-2.565 3.535c-.75 1.416-.4 3.036-.135 3.67"/><path fill="#eb6a9c" d="M8.552 7.487c-.105-.435-1.03-2.45-1.48-3.4c-.325 1.2-.05 2.585.135 3.13l.4.68l-.13-.41l.135-.815l.4.41l-.4-.135v.54l.54.68l-.27.14c.43.215.9 1.175 1.075 1.63v-.41l.27.275l-.675-1.225c.05-.18.11-.65 0-1.09m6.866-.135c.105-.435 1.035-2.45 1.485-3.4c.32 1.2.045 2.585-.135 3.13l-.405.68l.135-.41l-.135-.815l-.405.41l.4-.14v.55l-.535.675l.27.135c-.435.22-.9 1.18-1.08 1.635v-.41l-.27.275l.675-1.225a2.5 2.5 0 0 1 0-1.09"/><defs><linearGradient id="SVGCZqGLb1d" x1="11.999" x2="11.999" y1="3" y2="21.001" gradientUnits="userSpaceOnUse"><stop stop-color="#f9d193"/><stop offset=".25" stop-color="#f9a566"/><stop offset=".52" stop-color="#dd527c"/><stop offset=".8" stop-color="#6e7ee8"/><stop offset="1" stop-color="#2deaee"/></linearGradient><linearGradient id="SVGCLjCbcyN" x1="11.998" x2="11.998" y1="2.999" y2="21.002" gradientUnits="userSpaceOnUse"><stop stop-color="#f8cd86"/><stop offset=".4" stop-color="#fc776b"/><stop offset=".7" stop-color="#7f65d4"/><stop offset="1" stop-color="#34f7f1"/></linearGradient><linearGradient id="SVGsXJmuczD" x1="11.992" x2="11.992" y1="3" y2="21" gradientUnits="userSpaceOnUse"><stop stop-color="#4b2576"/><stop offset="1" stop-color="#2a1643"/></linearGradient><linearGradient id="SVG9j7LxbLB" x1="17.75" x2="8.928" y1="9.056" y2="20.237" gradientUnits="userSpaceOnUse"><stop stop-color="#64ede7"/><stop offset=".46" stop-color="#fafbf2"/><stop offset="1" stop-color="#71ece0"/></linearGradient><linearGradient id="SVG8R5aDcJW" x1="6.199" x2="15.074" y1="9.056" y2="20.272" gradientUnits="userSpaceOnUse"><stop stop-color="#64ede7"/><stop offset=".46" stop-color="#fafbf2"/><stop offset="1" stop-color="#71ece0"/></linearGradient><linearGradient id="SVGSF1CyeXn" x1="12.022" x2="12.022" y1="3.001" y2="21.001" gradientUnits="userSpaceOnUse"><stop stop-color="#efc9c4"/><stop offset="1" stop-color="#f096ae"/></linearGradient><linearGradient id="SVGXOd1jcqE" x1="12" x2="12" y1="3.001" y2="21.001" gradientUnits="userSpaceOnUse"><stop stop-color="#efc9c4"/><stop offset="1" stop-color="#f096ae"/></linearGradient><linearGradient id="SVGmXQeUToK" x1="12" x2="12" y1="3" y2="21.001" gradientUnits="userSpaceOnUse"><stop stop-color="#fce3cf"/><stop offset="1" stop-color="#f0bbbe"/></linearGradient></defs></g></svg>