<svg xmlns="http://www.w3.org/2000/svg" viewBox="0 0 24 24"><path fill="#fff" fill-rule="evenodd" d="M3.75 7.353L11.711 3l8.539 4.423v2.272l-2.244 1.467L12 7.678l-1.457.876l1.707.985v2.376L10 13.34l-1.75-1.045v1.581l6 3.389v2.337L12 21l-8.25-4.56zm.5 2.595l1.5.951v1.86l-1.5-.93zm0-2.252l1.5.889v1.874l-1.5-.882zm2 1.175l1.5.892v1.878l-1.5-.888zm2 1.19l1.5.91v1.86l-1.5-.902zm-4 2.12l1.5.95v1.86l-1.5-.93zm0 2.217l1.5.897v1.962l-1.5-.842zm2 1.178l1.5.87v1.93l-1.5-.841zm2 1.156l1.5.876v1.894l-1.5-.849zm2 1.155l1.5.863v1.86l-1.5-.843zm3.5-.152l-1.5.951v1.86l1.5-.93zm-6-5.543l-1.5.95v1.86l1.5-.93zm4-2.17l-1.5.95v1.787l1.5-.93zm0-4.513l-1.5.95v1.86l1.5-.93zm.5 0l1.5.885v1.863l-1.5-.876zm2.002 1.18l1.5.886v1.862l-1.5-.895zm1.998 1.179l1.5.882v1.864l-1.5-.89zm3.502-.021l-1.5.915v1.854l1.5-.89zM6.25 11.177v1.477l1.3-.742zm2.16-3.79l1.34-.77v1.564z" clip-rule="evenodd"/></svg>