<svg xmlns="http://www.w3.org/2000/svg" viewBox="0 0 24 24"><g fill="none"><path fill="url(#SVGlchbLbWD)" d="M7.765 14.646v-5.03l6.088-3.44l-1.852-1.06l-6.354 3.442v6.882l6.354 3.706l6.352-3.441v-2.118L12 17.028z"/><path fill="url(#SVGGEIUJ0cm)" d="m14.912 7.5l.794-.529l1.589 1.059l-.795.53zm-5.558 5.03v-1.853l5.029-2.912l1.588 1.059z"/><path fill="url(#SVGVfS1Tddv)" d="m17.03 10.41l-6.353 3.707l1.588 1.059l4.765-2.912z"/><path fill="url(#SVG3do3edNp)" d="m18.353 11.47l-1.059.529v-1.853l1.06-.53z"/><path fill="url(#SVG7pv7XbNO)" fill-rule="evenodd" d="M12 20.47a8.47 8.47 0 1 0 0-16.94a8.47 8.47 0 0 0 0 16.94m0 .53a9 9 0 1 0 0-18a9 9 0 0 0 0 18" clip-rule="evenodd"/><defs><linearGradient id="SVGlchbLbWD" x1="3.375" x2="21.375" y1="14.886" y2="14.886" gradientUnits="userSpaceOnUse"><stop stop-color="#b28947"/><stop offset=".16" stop-color="#f9ce97"/><stop offset=".52" stop-color="#b08656"/><stop offset=".83" stop-color="#f7cf89"/><stop offset="1" stop-color="#b68e5d"/></linearGradient><linearGradient id="SVGGEIUJ0cm" x1="16.801" x2="1.056" y1="8.143" y2="14.372" gradientUnits="userSpaceOnUse"><stop stop-color="#cac5c1"/><stop offset=".47" stop-color="#d3cdcd"/><stop offset="1" stop-color="#6d6d6d"/></linearGradient><linearGradient id="SVGVfS1Tddv" x1="24.751" x2="3.27" y1="3.999" y2="14.31" gradientUnits="userSpaceOnUse"><stop stop-color="#acacac"/><stop offset=".5" stop-color="#e5ddda"/><stop offset="1" stop-color="#747474"/></linearGradient><linearGradient id="SVG3do3edNp" x1="21" x2="-30.594" y1="10.999" y2="85.295" gradientUnits="userSpaceOnUse"><stop stop-color="#acacac"/><stop offset=".5" stop-color="#e5ddda"/></linearGradient><linearGradient id="SVG7pv7XbNO" x1="7.235" x2="16.5" y1="4.588" y2="19.941" gradientUnits="userSpaceOnUse"><stop stop-color="#f4e9cd"/><stop offset="1" stop-color="#f4f2da"/></linearGradient></defs></g></svg>