<svg xmlns="http://www.w3.org/2000/svg" viewBox="0 0 24 24"><g fill="none"><path fill="url(#SVGDsOVPdgR)" d="M12 3a9 9 0 1 0 0 18a9 9 0 1 0 0-18m0 16.407a7.407 7.407 0 1 1 0-14.814a7.407 7.407 0 0 1 0 14.814"/><path fill="url(#SVGL8V5obcW)" d="M11.95 7.051c-2.723.027-4.93 2.283-4.899 5.006c.008.697.16 1.358.427 1.958c.04.09.159.11.227.039l1.091-1.126a.31.31 0 0 0 .08-.278a3.19 3.19 0 0 1 3.653-3.797a.35.35 0 0 0 .314-.1l1.085-1.12a.13.13 0 0 0-.043-.21a4.9 4.9 0 0 0-1.934-.372"/><path fill="url(#SVGBNQr8bfE)" d="M12.049 16.955c2.723-.027 4.93-2.283 4.9-5.006a4.9 4.9 0 0 0-.427-1.957a.14.14 0 0 0-.227-.04l-1.091 1.127a.31.31 0 0 0-.08.277q.065.315.066.65a3.19 3.19 0 0 1-3.72 3.147a.35.35 0 0 0-.314.101l-1.085 1.12a.13.13 0 0 0 .043.21a4.9 4.9 0 0 0 1.935.37"/><path fill="url(#SVGLtYWfbLq)" d="m9.45 12.98l-2.078 2.078a1.08 1.08 0 1 0 1.527 1.527l2.078-2.079A1.08 1.08 0 1 0 9.45 12.98"/><path fill="url(#SVG4mZhCehW)" d="m15.055 7.386l-2.078 2.078a1.08 1.08 0 0 0 1.527 1.527l2.078-2.078a1.08 1.08 0 1 0-1.527-1.527"/><defs><linearGradient id="SVGDsOVPdgR" x1="3" x2="28.127" y1="12" y2="12" gradientUnits="userSpaceOnUse"><stop stop-color="#38ff9c"/><stop offset="1" stop-color="#171717"/></linearGradient><linearGradient id="SVGL8V5obcW" x1="7.051" x2="16.503" y1="10.573" y2="10.573" gradientUnits="userSpaceOnUse"><stop stop-color="#38ff9c"/><stop offset="1" stop-color="#171717"/></linearGradient><linearGradient id="SVGBNQr8bfE" x1="10.035" x2="19.436" y1="13.432" y2="13.432" gradientUnits="userSpaceOnUse"><stop stop-color="#38ff9c"/><stop offset="1" stop-color="#171717"/></linearGradient><linearGradient id="SVGLtYWfbLq" x1="7.055" x2="14.185" y1="14.782" y2="14.782" gradientUnits="userSpaceOnUse"><stop stop-color="#38ff9c"/><stop offset="1" stop-color="#171717"/></linearGradient><linearGradient id="SVG4mZhCehW" x1="12.66" x2="19.238" y1="9.189" y2="9.189" gradientUnits="userSpaceOnUse"><stop stop-color="#38ff9c"/><stop offset="1" stop-color="#171717"/></linearGradient></defs></g></svg>