<svg xmlns="http://www.w3.org/2000/svg" viewBox="0 0 24 24"><path fill="#87f96e" fill-rule="evenodd" d="M12 3c.282 0 .56.063.815.184l6.84 3.737c.445.244.816.848.816 1.34v7.475a1.7 1.7 0 0 1-.816 1.34l-6.84 3.737c-.45.25-1.18.25-1.63 0l-6.84-3.737c-.445-.244-.816-.847-.816-1.34V8.261a1.7 1.7 0 0 1 .816-1.345l6.84-3.732A1.9 1.9 0 0 1 12 3m5.66 5.054l-4.828-2.71a1.63 1.63 0 0 0-1.668.005l-.074.032l-.545.312l-.477.265l5.38 3.113l.005.01q.286.161.487.424l2.107-1.09a1.6 1.6 0 0 0-.387-.36m-4.357 2.325L7.744 7.26l-1.318.736a1.6 1.6 0 0 0-.477.424l5.887 3.388l1.949-1.006a1.6 1.6 0 0 0-.482-.423m-2.965.968L5.785 8.7c-.084.19-.137.397-.137.599v5.4a1.53 1.53 0 0 0 .757 1.286l4.727 2.737c.173.086.36.14.55.159v-1.779a1.6 1.6 0 0 1-.65-.212h-.01L7.807 15c-.175-.11-.313-.323-.313-.497c0-.17.138-.233.313-.143h.01l.01.01l.017.006l2.435 1.45l.847.477c.174.086.363.14.556.159v-1.785a1.6 1.6 0 0 1-.625-.195l-.015-.006l-.016-.01l-3.193-1.88l-.01-.005l-.006-.005l-.01-.006c-.154-.095-.276-.286-.276-.44c0-.147.117-.2.276-.126l.016.01l3.26 1.917q.277.142.594.175v-2.012zm2.314 2.552l-.027.01v.006a1.6 1.6 0 0 1-.624.19v-2.011l1.959-1.006c.084.201.158.413.158.625v1.466zm5.696-4.58c0-.211-.042-.423-.132-.619l-2.107 1.086q.095.211.122.444l.005.022v2.197l-3.61 2.027h-.006c-.19.106-.408.17-.62.19v1.785a1.6 1.6 0 0 0 .62-.19l3.616-2.039v2.563l1.324-.779a1.54 1.54 0 0 0 .794-1.334v-5.3a.3.3 0 0 1-.006-.052M12.6 16.923l.016-.01l1.503-.906v1.779l-1.503.91c-.19.101-.403.165-.614.186v-1.784c.206-.016.418-.08.598-.175" clip-rule="evenodd"/></svg>