<svg xmlns="http://www.w3.org/2000/svg" viewBox="0 0 24 24"><g fill="none"><path fill="url(#SVGy8WPSbMt)" d="M12 9.707L6.316 12L12 3z"/><path fill="url(#SVGXIdIcjDX)" d="M12 9.707L17.684 12L12 3z"/><path fill="url(#SVGi5SIABTW)" d="m12 14.843l-5.684-2.994L12 9.632z"/><path fill="#fbfcf7" d="m12.005 14.843l5.68-2.994l-5.68-2.217z"/><path fill="#b0b4e9" d="M14.998 8.158L14.7 13.43l-2.767-3.6l-2.747 3.728l-.322-5.102L9 8.452l.294 4.718l2.634-3.567l2.652 3.448l.28-4.902l.142.009z"/><path fill="url(#SVGC7aWScYM)" d="M8.95 8.689a.706.706 0 0 0 .714-.697a.706.706 0 0 0-.715-.696a.706.706 0 0 0-.715.696c0 .385.32.697.715.697"/><path fill="#dadcf4" d="M9.11 7.458c.057-.038.18.02.237.052c.014.052.038.161-.028.19c-.08.033-.071-.057-.152-.086c-.08-.033-.137-.104-.062-.156z"/><path fill="url(#SVGYvIuAcvE)" d="M12.004 10.352a.706.706 0 0 0 .716-.697a.706.706 0 0 0-.716-.696a.706.706 0 0 0-.715.696c0 .385.32.697.715.697"/><path fill="#dadcf4" d="M12.161 9.125c.062-.042.185.015.237.048c.02.057.038.166-.023.19c-.081.032-.072-.053-.152-.086c-.085-.028-.142-.1-.062-.152"/><path fill="url(#SVGeHjfld0J)" d="M14.95 8.689a.706.706 0 0 0 .716-.697a.706.706 0 0 0-.715-.696a.706.706 0 0 0-.715.696c0 .385.32.697.715.697"/><path fill="#dadcf4" d="M15.108 7.458c.061-.038.184.02.236.052c.02.052.038.161-.023.19c-.08.033-.071-.057-.157-.086c-.08-.033-.132-.104-.056-.156"/><path fill="url(#SVG8fpkodiP)" d="M14.648 14.057a.706.706 0 0 0 .715-.696a.706.706 0 0 0-.715-.697a.706.706 0 0 0-.715.697c0 .384.32.696.715.696"/><path fill="#dadcf4" d="M14.804 12.825c.062-.038.185.019.237.052c.019.052.038.16-.024.19c-.08.032-.07-.058-.156-.086c-.08-.033-.133-.104-.057-.156"/><path fill="url(#SVGUwBIaeSl)" d="M9.215 14.057a.706.706 0 0 0 .715-.696a.706.706 0 0 0-.715-.697a.706.706 0 0 0-.716.697c0 .384.32.696.716.696"/><path fill="#dadcf4" d="M9.371 12.825c.062-.038.19.019.237.052c.02.052.043.16-.024.19c-.08.032-.07-.058-.151-.086c-.08-.033-.137-.104-.062-.156"/><path fill="url(#SVGvXo0Xd7s)" d="m12.052 16.169l-5.684-3.222L12.052 21z"/><path fill="#c8ccf7" d="m12 16.169l5.684-3.222L12 21z"/><defs><linearGradient id="SVGy8WPSbMt" x1="6.515" x2="15.752" y1="17.912" y2="6.837" gradientUnits="userSpaceOnUse"><stop stop-color="#a795f2"/><stop offset="1" stop-color="#b7d0e1"/></linearGradient><linearGradient id="SVGXIdIcjDX" x1="6.316" x2="14.236" y1="6.553" y2="19.835" gradientUnits="userSpaceOnUse"><stop stop-color="#e1f0f3"/><stop offset="1" stop-color="#b3dbf5"/></linearGradient><linearGradient id="SVGi5SIABTW" x1="17.533" x2="7.339" y1="6.028" y2="8.21" gradientUnits="userSpaceOnUse"><stop stop-color="#dee1f9"/><stop offset="1" stop-color="#d6cdfb"/></linearGradient><linearGradient id="SVGC7aWScYM" x1="17.044" x2="6.017" y1="6.612" y2="13.161" gradientUnits="userSpaceOnUse"><stop stop-color="#c0c7f2"/><stop offset="1" stop-color="#7890d6"/></linearGradient><linearGradient id="SVGYvIuAcvE" x1="17.006" x2="6.004" y1="6.673" y2="13.174" gradientUnits="userSpaceOnUse"><stop stop-color="#c0c7f2"/><stop offset="1" stop-color="#7890d6"/></linearGradient><linearGradient id="SVGeHjfld0J" x1="17.006" x2="5.979" y1="6.612" y2="13.161" gradientUnits="userSpaceOnUse"><stop stop-color="#c0c7f2"/><stop offset="1" stop-color="#7890d6"/></linearGradient><linearGradient id="SVG8fpkodiP" x1="17.007" x2="6.004" y1="6.613" y2="13.114" gradientUnits="userSpaceOnUse"><stop stop-color="#c0c7f2"/><stop offset="1" stop-color="#7890d6"/></linearGradient><linearGradient id="SVGUwBIaeSl" x1="17.044" x2="6.042" y1="6.613" y2="13.114" gradientUnits="userSpaceOnUse"><stop stop-color="#c0c7f2"/><stop offset="1" stop-color="#7890d6"/></linearGradient><linearGradient id="SVGvXo0Xd7s" x1="7.528" x2="20.001" y1="4.059" y2="16.409" gradientUnits="userSpaceOnUse"><stop stop-color="#6e89d3"/><stop offset="1" stop-color="#677ff0"/></linearGradient></defs></g></svg>