<svg width="96" height="96" viewBox="0 0 96 96" fill="none" xmlns="http://www.w3.org/2000/svg">
<g clip-path="url(#clip0_733_6048)">
<path d="M86.1488 0.0273438H9.90639C4.46545 0.0273438 0.0546875 4.4381 0.0546875 9.87905V86.1215C0.0546875 91.5624 4.46545 95.9732 9.90639 95.9732H86.1488C91.5898 95.9732 96.0005 91.5624 96.0005 86.1215V9.87905C96.0005 4.4381 91.5898 0.0273438 86.1488 0.0273438Z" fill="#AA0059"/>
<path style="mix-blend-mode:soft-light" d="M86.0942 0.0273438H9.8517C4.41076 0.0273438 0 4.4381 0 9.87905V86.1215C0 91.5624 4.41076 95.9732 9.8517 95.9732H86.0942C91.5351 95.9732 95.9459 91.5624 95.9459 86.1215V9.87905C95.9459 4.4381 91.5351 0.0273438 86.0942 0.0273438Z" fill="url(#paint0_linear_733_6048)"/>
<path fill-rule="evenodd" clip-rule="evenodd" d="M33.3173 23.2754C34.8329 23.2754 36.0779 24.5204 36.0779 26.036V32.2069C36.0779 33.7225 34.8329 34.9675 33.3173 34.9675C31.8016 34.9675 30.5566 33.7225 30.5566 32.2069V26.036C30.5566 24.5204 31.8016 23.2754 33.3173 23.2754Z" fill="white"/>
<path fill-rule="evenodd" clip-rule="evenodd" d="M63.5497 23.2754C65.0654 23.2754 66.3104 24.5204 66.3104 26.036V32.2069C66.3104 33.7225 65.0654 34.9675 63.5497 34.9675C62.0341 34.9675 60.7891 33.7225 60.7891 32.2069V26.036C60.7891 24.5204 62.0341 23.2754 63.5497 23.2754Z" fill="white"/>
<path fill-rule="evenodd" clip-rule="evenodd" d="M72.914 29.5547H67.6633V32.2071C67.6633 33.3438 67.2032 34.3452 66.4725 35.103C65.7417 35.8338 64.7132 36.2939 63.5765 36.2939C62.4398 36.2939 61.4384 35.8338 60.6805 35.103C59.9498 34.3723 59.4897 33.3438 59.4897 32.2071V29.5547H37.4587V32.2071C37.4587 33.3438 36.9985 34.3452 36.2678 35.103C35.537 35.8338 34.5086 36.2939 33.3718 36.2939C32.2351 36.2939 31.2337 35.8338 30.4758 35.103C29.7451 34.3723 29.285 33.3438 29.285 32.2071V29.5547H24.0343C22.9517 29.5547 22.0586 30.4478 22.0586 31.5304V70.8019C22.0586 71.8845 22.9517 72.7777 24.0343 72.7777H72.9681C74.0507 72.7777 74.9438 71.8845 74.9438 70.8019V31.5304C74.9438 30.4478 74.0507 29.5547 72.9681 29.5547H72.914ZM39.0555 64.171C39.0555 65.1724 38.2435 65.9573 37.2692 65.9573H32.9388C31.9374 65.9573 31.1525 65.1453 31.1525 64.171V59.8406C31.1525 58.8392 31.9644 58.0543 32.9388 58.0543H37.2692C38.2706 58.0543 39.0555 58.8662 39.0555 59.8406V64.171ZM39.0555 51.3421C39.0555 52.3165 38.2706 53.1013 37.2963 53.1013H32.8576C31.8832 53.1013 31.0983 52.3165 31.0983 51.3421V46.9034C31.0983 45.9291 31.8832 45.1442 32.8576 45.1442H37.2963C38.2706 45.1442 39.0555 45.9291 39.0555 46.9034V51.3421ZM52.3986 64.3063C52.3986 65.2265 51.6678 65.9573 50.7476 65.9573H46.1466C45.2263 65.9573 44.4956 65.2265 44.4956 64.3063V59.7052C44.4956 58.785 45.2263 58.0543 46.1466 58.0543H50.7476C51.6678 58.0543 52.3986 58.785 52.3986 59.7052V64.3063ZM52.3986 51.3421C52.3986 52.3165 51.6137 53.1013 50.6394 53.1013H46.2007C45.2263 53.1013 44.4415 52.3165 44.4415 51.3421V46.9034C44.4415 45.9291 45.2263 45.1442 46.2007 45.1442H50.6394C51.6137 45.1442 52.3986 45.9291 52.3986 46.9034V51.3421ZM65.7688 64.3334C65.7688 65.2265 65.038 65.9843 64.1178 65.9843H59.4626C58.5695 65.9843 57.8116 65.2536 57.8116 64.3334V59.6782C57.8116 58.785 58.5424 58.0272 59.4626 58.0272H64.1178C65.0109 58.0272 65.7688 58.758 65.7688 59.6782V64.3334ZM65.7688 51.2609C65.7688 52.2623 64.9568 53.0743 63.9554 53.0743H59.6521C58.6506 53.0743 57.8387 52.2623 57.8387 51.2609V46.9576C57.8387 45.9562 58.6506 45.1442 59.6521 45.1442H63.9554C64.9568 45.1442 65.7688 45.9562 65.7688 46.9576V51.2609Z" fill="white"/>
</g>
<defs>
<linearGradient id="paint0_linear_733_6048" x1="2.89596" y1="93.1043" x2="93.0499" y2="2.92331" gradientUnits="userSpaceOnUse">
<stop stop-color="#FF1CBB"/>
<stop offset="0.4" stop-color="#FF6FD4"/>
<stop offset="0.7" stop-color="#FFBCEB"/>
<stop offset="0.9" stop-color="#FFECF9"/>
<stop offset="1" stop-color="white"/>
</linearGradient>
<clipPath id="clip0_733_6048">
<rect width="96" height="96" fill="white"/>
</clipPath>
</defs>
</svg>