<svg width="96" height="96" viewBox="0 0 96 96" fill="none" xmlns="http://www.w3.org/2000/svg">
<path d="M89.0083 1H6.78014C3.53824 1 0.910156 3.62808 0.910156 6.86998V89.0981C0.910156 92.34 3.53824 94.9681 6.78014 94.9681H89.0083C92.2502 94.9681 94.8783 92.34 94.8783 89.0981V6.86998C94.8783 3.62808 92.2502 1 89.0083 1Z" fill="#C11605"/>
<path style="mix-blend-mode:soft-light" d="M89.0571 1.0332H6.82897C3.58707 1.0332 0.958984 3.66128 0.958984 6.90319V89.1313C0.958984 92.3732 3.58707 95.0013 6.82897 95.0013H89.0571C92.299 95.0013 94.9271 92.3732 94.9271 89.1313V6.90319C94.9271 3.66128 92.299 1.0332 89.0571 1.0332Z" fill="url(#paint0_linear_733_6047)"/>
<path d="M78.4452 51.8794C77.1229 46.3964 71.5432 42.7841 65.8344 43.8807C64.0444 35.5595 56.7876 29.5928 48.5954 29.4799C39.7421 29.367 31.8885 36.1401 30.6468 45.2998C25.4864 43.8968 20.0679 46.8157 18.3908 51.8794C18.3586 51.9923 18.3263 52.089 18.294 52.2019C16.4718 58.346 21.2129 64.5063 27.6312 64.5063H68.9307C72.1398 64.5063 75.1716 62.942 76.9455 60.2651C78.5581 57.8461 79.1709 54.8144 78.4614 51.8794H78.4452ZM55.562 49.8958H52.1109H52.0303V60.3779H44.58V49.8958H41.0483C40.8386 49.8958 40.7096 49.6539 40.8225 49.4765L40.9838 49.2508L42.0804 47.622L48.1439 38.6719C48.2568 38.5106 48.4825 38.5106 48.5954 38.6719L55.0137 48.3316L55.7716 49.4765C55.8845 49.6539 55.7716 49.8958 55.5459 49.8958H55.562Z" fill="white"/>
<defs>
<linearGradient id="paint0_linear_733_6047" x1="2.6845" y1="93.2758" x2="93.2016" y2="2.74259" gradientUnits="userSpaceOnUse">
<stop stop-color="#F46660"/>
<stop offset="0.2" stop-color="#F57772"/>
<stop offset="0.5" stop-color="#F8A6A3"/>
<stop offset="0.9" stop-color="#FEF1F0"/>
<stop offset="1" stop-color="white"/>
</linearGradient>
</defs>
</svg>