<svg width="96" height="96" viewBox="0 0 96 96" fill="none" xmlns="http://www.w3.org/2000/svg">
<g clip-path="url(#clip0_733_6044)">
<path d="M89.2399 0.835938H6.72154C3.47964 0.835938 0.851562 3.46402 0.851562 6.70592V89.2243C0.851562 92.4662 3.47964 95.0943 6.72154 95.0943H89.2399C92.4818 95.0943 95.1099 92.4662 95.1099 89.2243V6.70592C95.1099 3.46402 92.4818 0.835938 89.2399 0.835938Z" fill="#491C84"/>
<path style="mix-blend-mode:soft-light" d="M89.2243 0.851562H6.70592C3.46402 0.851562 0.835938 3.47964 0.835938 6.72154V89.2399C0.835938 92.4818 3.46402 95.1099 6.70592 95.1099H89.2243C92.4662 95.1099 95.0943 92.4818 95.0943 89.2399V6.72154C95.0943 3.47964 92.4662 0.851562 89.2243 0.851562Z" fill="url(#paint0_linear_733_6044)"/>
<path d="M30.2025 76.1449L39.0397 70.1137L30.0734 63.002L26.2031 72.9841L30.2025 76.1449Z" fill="white"/>
<path d="M25.9286 74.1777L24.5901 77.1772C24.0741 78.3867 23.9128 79.5639 24.1224 79.7252C24.3321 79.8865 25.5254 79.4672 26.493 78.6931L29.1055 76.6934L25.9286 74.1777Z" fill="white"/>
<path d="M69.3256 31.8785L72.567 27.7824C73.3572 26.7987 73.1798 25.3473 72.1961 24.5732L66.8099 20.3159C65.8262 19.5257 64.3748 19.7031 63.6008 20.6868L60.3594 24.7829L69.3256 31.8946V31.8785Z" fill="white"/>
<path d="M58.5775 27.0148L31.0312 61.7695L40.0043 68.8815L67.5506 34.1267L58.5775 27.0148Z" fill="white"/>
</g>
<defs>
<linearGradient id="paint0_linear_733_6044" x1="2.56145" y1="93.4005" x2="93.3688" y2="2.56096" gradientUnits="userSpaceOnUse">
<stop stop-color="#F46660"/>
<stop offset="0.3" stop-color="#F79490"/>
<stop offset="0.6" stop-color="#FBCDCB"/>
<stop offset="0.9" stop-color="#FEF1F0"/>
<stop offset="1" stop-color="white"/>
</linearGradient>
<clipPath id="clip0_733_6044">
<rect width="96" height="96" fill="white"/>
</clipPath>
</defs>
</svg>