<svg width="96" height="96" viewBox="0 0 96 96" fill="none" xmlns="http://www.w3.org/2000/svg">
<g clip-path="url(#clip0_733_6050)">
<path d="M90.0813 0.25H6.32115C3.07925 0.25 0.451172 2.87808 0.451172 6.11998V89.8801C0.451172 93.122 3.07925 95.7501 6.32115 95.7501H90.0813C93.3232 95.7501 95.9513 93.122 95.9513 89.8801V6.11998C95.9513 2.87808 93.3232 0.25 90.0813 0.25Z" fill="#02A324"/>
<path style="mix-blend-mode:soft-light" d="M90.0813 0.25H6.32115C3.07925 0.25 0.451172 2.87808 0.451172 6.11998V89.8801C0.451172 93.122 3.07925 95.7501 6.32115 95.7501H90.0813C93.3232 95.7501 95.9513 93.122 95.9513 89.8801V6.11998C95.9513 2.87808 93.3232 0.25 90.0813 0.25Z" fill="url(#paint0_linear_733_6050)"/>
<path fill-rule="evenodd" clip-rule="evenodd" d="M21.6243 30.2932C20.9954 31.406 20.6406 32.6961 20.6406 34.0668V62.2234C20.6406 66.4968 24.1078 69.964 28.3813 69.964H67.794C72.0675 69.964 75.5346 66.4968 75.5346 62.2234V34.0668C75.5346 32.6961 75.1799 31.406 74.5509 30.2932L53.5545 51.2897C50.5388 54.3215 45.6364 54.3215 42.6047 51.2897L21.6082 30.2932H21.6243ZM24.6077 27.3099L45.6042 48.3064C46.9749 49.6771 49.2003 49.6771 50.5872 48.3064L71.5837 27.3099C70.471 26.681 69.1809 26.3262 67.8101 26.3262H28.3974C27.0267 26.3262 25.7365 26.681 24.6238 27.3099H24.6077Z" fill="white"/>
</g>
<defs>
<linearGradient id="paint0_linear_733_6050" x1="2.17669" y1="94.0407" x2="94.2419" y2="1.95939" gradientUnits="userSpaceOnUse">
<stop offset="0.2" stop-color="#5BEF7A"/>
<stop offset="0.7" stop-color="#C2F9CD"/>
<stop offset="1" stop-color="white"/>
</linearGradient>
<clipPath id="clip0_733_6050">
<rect width="96" height="96" fill="white"/>
</clipPath>
</defs>
</svg>