<svg width="96" height="96" viewBox="0 0 96 96" fill="none" xmlns="http://www.w3.org/2000/svg">
<path d="M89.0575 0.466797H7.50672C3.91747 0.466797 1.00781 3.37646 1.00781 6.96571V88.5165C1.00781 92.1058 3.91747 95.0154 7.50672 95.0154H89.0575C92.6468 95.0154 95.5565 92.1058 95.5565 88.5165V6.96571C95.5565 3.37646 92.6468 0.466797 89.0575 0.466797Z" fill="#00979E"/>
<path style="mix-blend-mode:soft-light" d="M89.0575 0.466797H7.50672C3.91747 0.466797 1.00781 3.37646 1.00781 6.96571V88.5165C1.00781 92.1058 3.91747 95.0154 7.50672 95.0154H89.0575C92.6468 95.0154 95.5565 92.1058 95.5565 88.5165V6.96571C95.5565 3.37646 92.6468 0.466797 89.0575 0.466797Z" fill="url(#paint0_linear_733_6045)"/>
<path d="M76.8499 30.9623H21.6818C20.8432 30.9623 19.9885 30.8978 19.15 30.9623C17.2632 31.0913 17.2309 34.2682 19.1338 34.3972C19.2467 34.3972 19.3596 34.4133 19.4725 34.4133C21.8269 34.5584 24.262 34.4133 26.6326 34.3972H76.4145C76.5597 34.3972 76.7048 34.4133 76.8499 34.3972C78.5755 34.2198 78.6238 31.059 76.8499 30.9623Z" fill="white"/>
<path d="M75.2692 36.3164H20.6493C20.7622 38.558 20.6009 40.864 20.6009 43.0733V64.5536C20.6009 66.5533 20.359 69.2141 23.165 69.3109C27.7126 69.4883 32.3086 69.3109 36.8563 69.3109H72.7212C75.5756 69.198 75.2369 66.3597 75.2369 64.3762V36.3164H75.2692Z" fill="white"/>
<path d="M51.8375 29.0593C52.0633 27.4306 51.2731 25.6889 49.6766 24.9471C47.7576 24.044 45.3386 24.7697 44.3872 26.721C44.0324 27.4628 43.9034 28.2691 44.0163 29.0593H51.8214H51.8375Z" fill="white"/>
<defs>
<linearGradient id="paint0_linear_733_6045" x1="2.89459" y1="93.0964" x2="93.6535" y2="2.38583" gradientUnits="userSpaceOnUse">
<stop stop-color="#83EFEF"/>
<stop offset="0.4" stop-color="#B2F5F5"/>
<stop offset="1" stop-color="white"/>
</linearGradient>
</defs>
</svg>