<svg width="96" height="96" viewBox="0 0 96 96" fill="none" xmlns="http://www.w3.org/2000/svg">
<g clip-path="url(#clip0_733_6049)">
<path d="M85.7647 0.365234H10.2086C4.77227 0.365234 0.365234 4.77227 0.365234 10.2086V85.7647C0.365234 91.201 4.77227 95.608 10.2086 95.608H85.7647C91.201 95.608 95.608 91.201 95.608 85.7647V10.2086C95.608 4.77227 91.201 0.365234 85.7647 0.365234Z" fill="#7D4E24"/>
<path style="mix-blend-mode:soft-light" d="M85.792 0.392578H10.236C4.79961 0.392578 0.392578 4.79961 0.392578 10.236V85.792C0.392578 91.2284 4.79961 95.6354 10.236 95.6354H85.792C91.2284 95.6354 95.6354 91.2284 95.6354 85.792V10.236C95.6354 4.79961 91.2284 0.392578 85.792 0.392578Z" fill="url(#paint0_linear_733_6049)"/>
<path d="M44.9302 22.6484H23.7561C23.1882 22.6484 22.7285 23.1082 22.7285 23.676V44.8772C22.7285 45.4451 23.1882 45.9048 23.7561 45.9048H44.8761C45.444 45.9048 45.9037 45.4451 45.9037 44.8772V23.622C45.9037 23.0811 45.4711 22.6484 44.9302 22.6484ZM35.0598 36.2507V39.5498C35.0598 40.0907 34.6271 40.5234 34.0863 40.5234C33.5454 40.5234 33.1127 40.0907 33.1127 39.5498V36.2507C33.1127 35.6828 32.653 35.2231 32.0851 35.2231H29.3268C28.786 35.2231 28.3533 34.7904 28.3533 34.2496C28.3533 33.7087 28.786 33.249 29.3268 33.249H32.0851C32.653 33.249 33.1127 32.7893 33.1127 32.2214V28.9222C33.1127 28.3814 33.5454 27.9487 34.0863 27.9487C34.6271 27.9487 35.0598 28.3814 35.0598 28.9222V32.2214C35.0598 32.7893 35.5195 33.249 36.0874 33.249H38.8187C39.3595 33.249 39.7922 33.6817 39.7922 34.2225C39.7922 34.7634 39.3595 35.2231 38.8187 35.2231H36.0874C35.5195 35.2231 35.0598 35.6828 35.0598 36.2507Z" fill="white"/>
<path d="M44.8761 51.4746H23.7832C23.2153 51.4746 22.7285 51.9343 22.7285 52.5022V73.1895C22.7285 73.7574 23.1882 74.2171 23.7832 74.2171H44.8761C45.444 74.2171 45.9308 73.7574 45.9308 73.1895V52.5022C45.9308 51.9343 45.4711 51.4746 44.8761 51.4746ZM33.5725 65.5366L30.733 68.5112C30.5708 68.7276 30.3274 68.8357 30.057 68.8357H30.0299C29.2727 68.8357 28.8671 67.9704 29.3539 67.3755L32.653 63.5625C32.9505 63.238 32.9505 62.7512 32.653 62.4267L29.6243 58.8842C29.1375 58.3163 29.5432 57.4509 30.3003 57.4509H30.3274C30.5978 57.4509 30.8412 57.5591 31.0034 57.7755L33.6536 60.9935C34.0051 61.4262 34.6812 61.4262 35.0327 60.9935L37.6829 57.7755C37.8451 57.5591 38.0885 57.4509 38.3589 57.4509C39.1161 57.4509 39.5218 58.3163 39.035 58.8842L36.0063 62.4267C35.7088 62.7512 35.7088 63.238 36.0063 63.5625L39.3054 67.3755C39.7922 67.9433 39.3865 68.8357 38.6294 68.8357C38.3589 68.8357 38.1156 68.7276 37.9533 68.5112L34.1133 65.6988L34.1944 65.185L33.5995 65.5636L33.5725 65.5366Z" fill="white"/>
<path d="M51.0957 23.622V45.0124C51.0957 45.4991 51.5013 45.9048 51.9881 45.9048H72.8377C73.3244 45.9048 73.7301 45.4991 73.7301 45.0124V23.5408C73.7301 23.0541 73.3244 22.6484 72.8377 22.6484H52.0692C51.5284 22.6484 51.0957 23.0811 51.0957 23.622ZM67.1318 35.6828H57.6129C57.072 35.6828 56.6394 35.2501 56.6394 34.7093C56.6394 34.1684 57.072 33.7087 57.6129 33.7087H67.1318C67.6726 33.7087 68.1053 34.1414 68.1053 34.6822C68.1053 35.2231 67.6726 35.6828 67.1318 35.6828Z" fill="white"/>
<path d="M50.9336 52.2313V73.2432C50.9336 73.784 51.3663 74.2167 51.9071 74.2167H72.7567C73.2975 74.2167 73.7302 73.784 73.7302 73.2432V52.2313C73.7302 51.6905 73.2975 51.2578 72.7567 51.2578H51.9071C51.3663 51.2578 50.9336 51.6905 50.9336 52.2313ZM67.3212 66.6178H57.8023C57.2615 66.6178 56.8288 66.1851 56.8288 65.6443C56.8288 65.1034 57.2615 64.6437 57.8023 64.6437H67.3212C67.862 64.6437 68.2947 65.0764 68.2947 65.6172C68.2947 66.1581 67.862 66.6178 67.3212 66.6178ZM67.3212 61.4798H57.8023C57.2615 61.4798 56.8288 61.0471 56.8288 60.5063C56.8288 59.9654 57.2615 59.5057 57.8023 59.5057H67.3212C67.862 59.5057 68.2947 59.9384 68.2947 60.4792C68.2947 61.0201 67.862 61.4798 67.3212 61.4798Z" fill="white"/>
<path d="M45.9308 73.2983V52.5569C45.9308 51.989 45.4711 51.5293 44.8761 51.5293H23.7832C23.2153 51.5293 22.7285 51.989 22.7285 52.5569V73.2983C22.7285 73.8662 23.1882 74.3259 23.7832 74.3259H44.8761C45.444 74.3259 45.9308 73.8662 45.9308 73.2983ZM34.4108 59.6149L34.7082 59.9124L37.9533 57.2893C38.1426 57.073 38.3589 56.9648 38.6294 56.9648C39.3865 56.9648 39.7922 57.8572 39.3054 58.4251L36.5201 62.2921C36.2226 62.6166 35.7358 63.0493 36.0063 63.4008L39.035 66.9434C39.5218 67.5113 39.1161 68.3766 38.3589 68.3766C38.0885 68.3766 37.8451 68.2684 37.6829 68.0521L35.0327 64.807C34.6812 64.3744 34.0051 64.3744 33.6536 64.807L31.0034 68.0521C30.8412 68.2684 30.5978 68.3766 30.3274 68.3766H30.3003C29.5432 68.3766 29.1375 67.5113 29.6243 66.9434L32.653 63.4008C32.9505 63.0763 32.3015 62.3192 32.004 61.9946L29.3539 58.4251C28.8671 57.8572 29.2727 56.9648 30.0299 56.9648H30.057C30.3274 56.9648 30.5708 57.073 30.733 57.2893L33.4913 59.7772L34.3837 59.6149H34.4108Z" fill="white"/>
</g>
<defs>
<linearGradient id="paint0_linear_733_6049" x1="3.2861" y1="92.7419" x2="92.7419" y2="3.2861" gradientUnits="userSpaceOnUse">
<stop stop-color="#CCA36F"/>
<stop offset="0.3" stop-color="#D4B286"/>
<stop offset="0.6" stop-color="#E2C9AB"/>
<stop offset="0.8" stop-color="#F3EADF"/>
<stop offset="1" stop-color="white"/>
</linearGradient>
<clipPath id="clip0_733_6049">
<rect width="96" height="96" fill="white"/>
</clipPath>
</defs>
</svg>