<svg width="96" height="96" viewBox="0 0 96 96" fill="none" xmlns="http://www.w3.org/2000/svg">
<g clip-path="url(#clip0_733_6046)">
<path d="M86.0624 0.0410156H9.88439C4.44805 0.0410156 0.0410156 4.44805 0.0410156 9.88439V86.0624C0.0410156 91.4988 4.44805 95.9058 9.88439 95.9058H86.0624C91.4988 95.9058 95.9058 91.4988 95.9058 86.0624V9.88439C95.9058 4.44805 91.4988 0.0410156 86.0624 0.0410156Z" fill="#0034AA"/>
<mask id="mask0_733_6046" style="mask-type:luminance" maskUnits="userSpaceOnUse" x="4" y="24" width="88" height="42">
<path d="M91.5528 24.4062H4.31445V65.6998H91.5528V24.4062Z" fill="white"/>
</mask>
<g mask="url(#mask0_733_6046)">
<mask id="mask1_733_6046" style="mask-type:luminance" maskUnits="userSpaceOnUse" x="15" y="34" width="65" height="31">
<path d="M79.9524 34.709H15.9434V64.3743H79.9524V34.709Z" fill="white"/>
</mask>
<g mask="url(#mask1_733_6046)">
<path d="M68.1895 46.0394C71.2724 46.0394 73.7873 43.4704 73.7873 40.3605C73.7873 37.2507 71.2724 34.6816 68.1895 34.6816C65.1067 34.6816 62.5918 37.2507 62.5918 40.3605C62.5918 43.4704 65.1067 46.0394 68.1895 46.0394Z" fill="white"/>
<path d="M27.6798 46.0394C30.7626 46.0394 33.2775 43.4704 33.2775 40.3605C33.2775 37.2507 30.7626 34.6816 27.6798 34.6816C24.597 34.6816 22.082 37.2507 22.082 40.3605C22.082 43.4704 24.597 46.0394 27.6798 46.0394Z" fill="white"/>
<path d="M79.654 52.3942C79.5728 52.0697 79.4917 51.7452 79.3024 51.5018C79.2213 51.3937 79.1401 51.2855 79.059 51.1773C78.8968 50.961 78.6534 50.7717 78.4641 50.6906C76.7604 49.7711 74.9216 49.1221 73.7047 48.7435C72.9475 48.5001 72.1903 48.3108 71.379 48.2297C70.2432 48.0675 69.2697 47.9863 68.2692 47.9863C67.2686 47.9863 66.6737 47.9863 65.7813 48.1486C64.3751 48.3108 63.1041 48.6083 61.779 49.041C60.8325 49.3655 59.6156 49.8252 58.4258 50.4472C59.3723 50.8528 60.2376 51.2584 61.0489 51.6911C61.5627 51.9615 62.1306 52.3942 62.5632 52.881C62.7796 53.1244 62.9689 53.3677 63.1311 53.6382C63.5368 54.2872 63.8072 54.9903 63.9424 55.7204V55.8827L64.4021 62.2376C69.8106 60.8044 75.0027 58.5869 79.9244 55.6663L79.681 52.4213L79.654 52.3942Z" fill="white"/>
<path d="M37.4149 50.3671C36.2521 49.7722 35.0622 49.2854 34.0617 48.9609C32.7366 48.5282 31.4115 48.2037 30.0594 48.0685C29.167 47.9603 28.3828 47.9062 27.5715 47.9062C26.7603 47.9062 25.5704 47.9874 24.4617 48.1496C23.6774 48.2578 22.8932 48.4201 22.136 48.6634C20.9732 49.015 19.0803 49.691 17.3766 50.6105C17.1332 50.7186 16.9439 50.8809 16.7817 51.0972C16.6735 51.2054 16.6194 51.3136 16.5383 51.4217C16.376 51.6922 16.2679 51.9896 16.1867 52.3141L15.9434 55.5592C20.865 58.4798 26.1112 60.6702 31.4656 62.1305L31.8983 55.7755V55.6133C32.0065 55.1806 32.1146 54.775 32.3039 54.3694V54.2612L32.7366 53.5581C32.8989 53.2877 33.0882 53.0443 33.3315 52.7468C33.7912 52.233 34.278 51.8274 34.8459 51.5029C35.6301 51.0702 36.5225 50.6646 37.469 50.2589" fill="white"/>
<path d="M60.6448 55.1526C60.5636 54.9904 60.4825 54.9093 60.3743 54.8011C60.158 54.5848 59.9417 54.3684 59.6712 54.2332C58.6707 53.7194 57.616 53.2326 56.6695 52.827C55.7771 52.4755 54.9388 52.178 54.3169 52.0157C53.4785 51.7453 52.5862 51.556 51.6667 51.4208C50.3957 51.2586 49.26 51.1504 48.1242 51.1504C46.9884 51.1504 46.2853 51.2315 45.2847 51.3126C43.7163 51.4749 42.2019 51.7994 40.7146 52.3132C40.2549 52.4755 39.7681 52.6377 39.2273 52.827C38.2808 53.2326 37.1991 53.6653 36.2256 54.2332C35.9822 54.3955 35.7388 54.5848 35.5225 54.8011C35.3062 55.0174 35.3602 55.0445 35.2521 55.1526C35.0898 55.4772 34.9276 55.8017 34.8464 56.1803L34.3867 62.9138C36.2797 63.3464 38.1726 63.671 40.1197 63.9143C42.7157 64.2388 45.3118 64.4011 47.9619 64.4011C50.6121 64.4011 53.154 64.2388 55.8042 63.9143C57.7242 63.671 59.6442 63.3464 61.5101 62.9138L61.0504 56.1803C60.9693 55.7746 60.834 55.4772 60.6448 55.1526Z" fill="white"/>
<path d="M41.5254 42.4693C41.5254 46.0118 44.3919 48.9053 47.9344 48.9053C51.4769 48.9053 54.3434 45.9848 54.3434 42.4693C54.3434 38.9538 51.4769 36.0332 47.9344 36.0332C44.3919 36.0332 41.5254 38.9538 41.5254 42.4693Z" fill="white"/>
</g>
</g>
<path style="mix-blend-mode:soft-light" d="M86.0624 0.0410156H9.88439C4.44805 0.0410156 0.0410156 4.44805 0.0410156 9.88439V86.0624C0.0410156 91.4988 4.44805 95.9058 9.88439 95.9058H86.0624C91.4988 95.9058 95.9058 91.4988 95.9058 86.0624V9.88439C95.9058 4.44805 91.4988 0.0410156 86.0624 0.0410156Z" fill="url(#paint0_linear_733_6046)"/>
</g>
<defs>
<linearGradient id="paint0_linear_733_6046" x1="2.93454" y1="93.0393" x2="93.0393" y2="2.93454" gradientUnits="userSpaceOnUse">
<stop stop-color="#80A8F9"/>
<stop offset="0.2" stop-color="#87ADF9"/>
<stop offset="0.4" stop-color="#9DBCFA"/>
<stop offset="0.7" stop-color="#C1D4FC"/>
<stop offset="0.9" stop-color="#F2F6FE"/>
<stop offset="1" stop-color="white"/>
</linearGradient>
<clipPath id="clip0_733_6046">
<rect width="96" height="96" fill="white"/>
</clipPath>
</defs>
</svg>