<svg version="1.1" id="svg2" inkscape:version="0.48.4 r9939" sodipodi:docname="2015 UEFA Europa League logo.svg" xmlns:cc="http://creativecommons.org/ns#" xmlns:dc="http://purl.org/dc/elements/1.1/" xmlns:inkscape="http://www.inkscape.org/namespaces/inkscape" xmlns:rdf="http://www.w3.org/1999/02/22-rdf-syntax-ns#" xmlns:sodipodi="http://sodipodi.sourceforge.net/DTD/sodipodi-0.dtd" xmlns:svg="http://www.w3.org/2000/svg" xmlns="http://www.w3.org/2000/svg" xmlns:xlink="http://www.w3.org/1999/xlink" x="0px" y="0px" width="414.6px" height="250px" viewBox="0 0 414.6 250" enable-background="new 0 0 414.6 250" xml:space="preserve"><path d="M236.9,28.2l13.4,3.5l2.1-8.2L238.6,20c-7.5-2-12.7,0.9-14.5,7.9l-5.6,21.7c-0.3,1-0.2,1.9,0.3,2.7c0.5,0.8,1.2,1.3,2.2,1.6 l5.1,1.3l3.6-14l15.5,4l2.1-8.1l-15.5-4l0.6-2.3C233.2,27.8,234.1,27.5,236.9,28.2z M193.5,16.3l-22.3,4.5c-1,0.2-1.8,0.7-2.3,1.5 c-0.5,0.8-0.7,1.7-0.5,2.7l4.4,21.9c0.7,3.6,2.3,6.1,4.7,7.6c1.6,1,3.5,1.5,5.7,1.5c1.1,0,2.3-0.1,3.6-0.4l13.9-2.8l-1.7-8.3 l-13.6,2.8c-2.8,0.6-3.7,0.3-4.3-2.9l-0.5-2.4l15.7-3.2l-1.7-8.2l-15.7,3.2L178,28l17.1-3.5L193.5,16.3z M288,47.3 c0.4-1.3,0.7-3.2-1.4-4.8l-1.4-1c-2.1-1.6-3.8-0.9-5-0.1l-31.8,20.5l8.3,4.7L277,53.5l-3.5,11.8l-3.1-2.3l-5.3,3.8l6.6,4.9l-1.5,5.3 l7.3,6.7L288,47.3z M115.8,41c25.1-21.6,57.5-33.5,91.5-33.5c33.9,0,66.4,11.9,91.5,33.5c2.6,2.2,5.1,4.6,7.5,7l4.7-5.8 c-2.3-2.3-4.8-4.6-7.3-6.8C277.2,12.6,243,0,207.3,0c-35.7,0-69.9,12.6-96.3,35.4c-2.5,2.2-5,4.5-7.3,6.8l4.7,5.8 C110.8,45.6,113.2,43.2,115.8,41z M207.3,69.1c24.2,0,46.4,11.2,59.5,27.5l4.6-5.6c-14.4-17.2-38-28.9-64.1-28.9 S157.6,73.7,143.2,91l4.6,5.6C160.9,80.3,183.1,69.1,207.3,69.1z M146.4,65.7c-1.7,1.4-3.7,2.1-5.5,1.9c-2.2-0.3-3.6-1.2-5.8-3.9 L122.3,48l-6.9,5.6l13.9,17.1c3,3.6,6.3,5.6,10.3,5.9c0.5,0,0.9,0.1,1.4,0.1c3.8,0,7.4-1.3,10.9-4.1c3.9-3.2,6-6.8,6.5-11.2 c0.5-4-0.8-7.7-3.7-11.3L140.8,33l-6.9,5.6l12.8,15.7c2.2,2.7,2.8,4.2,2.6,6.5C149.2,62.5,148.1,64.3,146.4,65.7z M154.7,127.5h12.9 c7.1,0,9.8,3.7,9.8,8.6c0,5-2.7,8.6-9.8,8.6h-12.9V127.5z M179.1,187.4h19.4l-16.8-30.3c7.6-4.3,13-11.1,13-21 c0-14.8-12-24.1-27.2-24.1h-29.9v75.4h17.2v-27.1h9.3L179.1,187.4z M131.8,231.5h18.8v-9.1h-18.8v-8.2h20.4v-9.1h-30.5v44.1h31v-9.1 h-20.9V231.5z M175.5,231.8l5.2-13.5l5.2,13.5H175.5z M175.3,205.2l-17.9,44.1h11.4l3.2-8.4h17.2l3.2,8.4h11.4L186,205.2H175.3z M366,157.6l8.8-23.2l8.8,23.2H366z M384,112h-18.3l-30.6,75.4h19.5l5.5-14.3h29.5l5.5,14.3h19.5L384,112z M223.7,233.4h13.6v3.1 c-2.2,2.5-5.7,4.3-10.1,4.3c-7.6,0-13.4-4.5-13.4-13.7c0-9.3,6.2-13.7,12.2-13.7c5.5,0,9,2.6,10.5,7.6l9.6-2.8 c-2.3-8.3-8.7-13.8-20-13.8c-12.1,0-22.4,8.7-22.4,22.8c0,14.1,10.2,22.8,22.5,22.8c9.6,0,15.5-3.8,20.3-9.7v-14.7h-23V233.4z M278.6,231.3c0,5.9-3,9.6-8.6,9.6c-5.5,0-8.6-3.7-8.6-9.6v-26.2h-10.1v26.8c0,12.3,8.5,18.1,18.6,18.1c10.1,0,18.6-5.9,18.6-18.1 v-26.8h-10.1V231.3z M304.4,231.5h18.8v-9.1h-18.8v-8.2h20.4v-9.1h-30.5v44.1h31v-9.1h-20.9V231.5z M96.1,205.2H86.1v44.1h31v-9.1 H96.1V205.2z M126.6,112h-17.2v44.8c0,10.1-5.2,16.4-14.6,16.4c-9.5,0-14.6-6.2-14.6-16.4V112H62.8v45.8c0,21,14.5,30.9,31.9,30.9 c17.3,0,31.9-10,31.9-30.9V112z M303.2,127.5h11.4c7.6,0,10.7,4,10.7,9.5c0,5.5-3,9.5-10.7,9.5h-11.4V127.5z M286,187.4h17.2V162 h12.3c14.9,0,27-8.6,27-25c0-16.4-12.2-25-27-25H286V187.4z M239.3,125.8c10.8,0,19.3,7.7,19.3,23.9c0,16.1-8.5,23.9-19.3,23.9 c-10.8,0-19.3-7.7-19.3-23.9C220,133.5,228.5,125.8,239.3,125.8z M239.3,189.1c22.2,0,36.5-15,36.5-39.4c0-24.4-14.3-39.4-36.5-39.4 c-22.2,0-36.5,15-36.5,39.4C202.8,174.1,217.1,189.1,239.3,189.1z M17.2,157.1h32.1v-15.5H17.2v-14.1h34.9V112H0v75.4h53v-15.5H17.2 V157.1z"/></svg>