<svg xmlns="http://www.w3.org/2000/svg" viewBox="0 0 24 24"><path fill="#dbd4c5" d="M9.82 7.209c-3.033 1.094-3.31 3.89-4.177 5.192c-.877 1.325-2.894 2.308-2.617 2.982c.092.23.401.3.83.3H5.62c.434 0 1.034.009 1.292.078c1.2.323 2.77 1.325 4.79 1.316a5.8 5.8 0 0 0 2.018-.333a5.14 5.14 0 0 0 3.11-3.06a.2.2 0 0 0 .015-.087a.24.24 0 0 0-.231-.227a.25.25 0 0 0-.24.13a4.06 4.06 0 0 1-2.243 1.957c-.484.161-.99.239-1.5.23a4.42 4.42 0 0 1-3.268-1.32a3.3 3.3 0 0 1-.582-.867a4 4 0 0 1-.244-.6c.909-.397 1.878-.896 3.069-1.325c1.168-.415 2.695-.762 3.646-1.034c.554-.162 1.325-.43 1.91-.425c.135 0 .163.13.2.231c.106.277.184.725.23 1.011a.205.205 0 0 0 .2.15q.046 0 .086-.02c.439-.222.836-.471 1.191-.675c1.182-.683 1.892-1.273 1.93-1.652a.3.3 0 0 0-.02-.134c-.087-.207-.442-.258-1.01-.258c-.438 0-1.01.018-1.68.134c-3.305.567-6.932 1.486-10.015 2.806c-.01-1.639 1.043-3.023 2.769-3.646a4.5 4.5 0 0 1 1.615-.217c.513.009 1.062.055 1.537.23c.097.033.208.01.277-.06a.22.22 0 0 0 .065-.156a.24.24 0 0 0-.134-.213c-1.348-.683-3.037-.992-4.583-.438"/></svg>