<svg xmlns="http://www.w3.org/2000/svg" viewBox="0 0 24 24"><g fill="none"><path fill="#b0d1fa" fill-rule="evenodd" d="M12 21a9 9 0 1 0 0-18a9 9 0 0 0 0 18m0-1.059a7.942 7.942 0 1 0 0-15.883a7.942 7.942 0 0 0 0 15.883" clip-rule="evenodd"/><path fill="#146ae5" d="M11.513 16.235v-1.292h-2.53a1.004 1.004 0 0 1-1.007-1.016c0-.556.455-1.133 1.006-1.133h1.959v-1.15H8.982a2.28 2.28 0 0 0-2.276 2.299a2.283 2.283 0 0 0 2.276 2.292z"/><path fill="#194989" d="M7.184 12.53c.37.223.953.424 1.604.297c.577-.117.063-.583-.62-1.027c-.389.148-.73.401-.984.73"/><path fill="#146ae5" d="M11.513 8.295v1.291H8.982a1.005 1.005 0 0 0-1.006 1.017c0 .556.455.868 1.006.868h1.959v1.324H8.982a2.21 2.21 0 0 1-2.276-2.208a2.283 2.283 0 0 1 2.276-2.292zm1.847 7.94l3.934-5.293h-1.398L12 16.236z"/><path fill="#1d4988" d="m13.82 13.757l.662.964l.62-.832l-.747-.852l-.53.72z"/><path fill="#146ae5" d="M15.934 16.236L12 10.942h1.398l3.896 5.294z"/></g></svg>