<svg version="1.1" viewBox="0 0 128 128" xml:space="preserve" xmlns="http://www.w3.org/2000/svg">
<style type="text/css">
	.st0{fill:#F29111;}
	.st1{fill:#00758A;}
</style>

<g transform="matrix(.41237 0 0 .41237 -18.373 -18.373)"><path d="m196.3 91.245-142.05 108.51 72.01 104.56 33.539 17.756 46.856-57.707 63.157 19.573 10.358-14.472 48.13 16.42 16.95-35.824-37.485-172.63z"/><g><path d="m69.481 205.84 25.974 2.5974 59.416 100-25.974-10.714z" fill="#b7defb"/><path d="m96.753 204.55 57.143-47.078 71.753 2.9221 71.429-73.701-98.377 11.039-129.87 104.22z" fill="#fff"/><path d="m228.24 162.54 42.753 109.42 37.773-55.396 16.883 57.143 14.61-24.026-40.688-160.52c-72.034 74.199 0.66495-0.2138-71.332 73.383z" fill="#5ba0db"/></g><g fill="#0256ac"><path d="m307.79 225.65-25 39.61 39.61 11.039z"/><path d="m101.3 206.82 57.792 100.32 44.481-49.026-50.325-95.455z"/><path d="m158.11 161.69 66.773 2.4736 43.299 109.86-59.74-16.234z"/></g><path d="m158.51 161.7 97.406 81.395-31.25-79.364z" fill="#b7defb"/><path d="m203.9 115.58-18.182 16.883 66.558 1.6234 26.623 74.351 19.156-23.701-21.753-73.377z" fill="#002e5f"/></g></svg>
