<svg version="1.1" viewBox="0 0 128 128" xml:space="preserve" xmlns="http://www.w3.org/2000/svg"><defs><clipPath id="clip0_5164_1525"><rect width="107" height="24" fill="#fff"/></clipPath><mask id="mask16" maskUnits="userSpaceOnUse"><path d="m107 0h-107v24h107z" fill="#fff"/></mask><mask id="mask19" maskUnits="userSpaceOnUse"><path d="m107 0h-107v24h107z" fill="#fff"/></mask></defs><g transform="translate(-411.91 -439.74)"><g transform="matrix(10.246 0 0 10.246 411.85 439.28)" clip-path="url(#clip0_5164_1525)" fill="#d8fe4e"><path transform="matrix(.49086 0 0 .49086 -13.524 .38871)" d="m45.677 5.0623c-2.0969 0-3.8193 1.0481-4.6931 2.5722l-0.2995-2.1713h-2.3718v18.492h2.9707v-7.249c0.8991 1.3522 2.4714 2.0891 4.3692 2.0891 3.5199 0 5.992-2.7527 5.992-6.8583 0-4.1057-2.4721-6.8747-5.9675-6.8747zm-0.6739 11.349c-3.1892 0-3.7198-0.5707-3.7198-4.5483 0-3.9775 0.9504-4.271 3.6953-4.271 3.1238 0 3.6446 0.51073 3.6446 4.345 0 3.8341-0.5208 4.4743-3.6201 4.4743z" mask="url(#mask19)"/><path transform="matrix(.49086 0 0 .49086 .67561 .38871)" d="m6.7194 2.5428h2.6601v-2.4483h-2.8593c-2.7352 0-4.202 1.3222-4.202 3.7705v1.5982h-2.3124v2.3861h2.3124v10.737h2.9343v-10.737h3.7296v-2.3861h-3.7296v-1.4021c0-0.97976 0.52163-1.5183 1.4668-1.5183z" mask="url(#mask16)"/></g></g></svg>
