<svg xmlns="http://www.w3.org/2000/svg" viewBox="0 0 24 24"><g fill="none"><path fill="url(#SVG70DvXcmC)" d="M14.5 5.19L12 3L9.5 5.19v6.593l1.344 1.26l.68-.73l-1.025-.96V5.64L12 4.33l1.5 1.31v5.711l-5 4.699v-5.547l-.85.85a.5.5 0 0 0-.15.355v6.652l7.002-6.577zm1.851 6.167a.5.5 0 0 1 .15.35v6.637l-3.941-3.62l.68-.74l2.26 2.08v-5.562l.851.85zM12 15.204l-.5.465v4.87L12 21l.5-.46v-4.871l-.5-.46zm-2.5 2.4l1-.915v3.13l-.8-.735a.6.6 0 0 1-.2-.445zm5-.04l-1-.98v3.3l.81-.74c.125-.12.19-.28.19-.45z"/><defs><linearGradient id="SVG70DvXcmC" x1="11.04" x2="11.12" y1="3" y2="20.71" gradientUnits="userSpaceOnUse"><stop stop-color="#6167fb"/><stop offset=".54" stop-color="#26baf8"/><stop offset=".8" stop-color="#46f7b0"/></linearGradient></defs></g></svg>