<svg xmlns="http://www.w3.org/2000/svg" viewBox="0 0 24 24"><g fill="none"><path fill="#2cbcb9" d="M14.118 6.09a1.64 1.64 0 0 0-1.525-.825c-.17.02-.392.11-.587.106a1.175 1.175 0 0 1-1.18-1.07c-.107-.932.952-1.62 1.746-1.149c.291.17.477.392.55.657c.112.407.213.646.546.905c.37.286.831.434 1.286.323c.212-.053.36-.074.44-.074c.74.016 1.016.498 1.207 1.138c.122.418.677.768 1.043.884c.222.069.444.053.693 0c.16-.042.323-.09.487-.074c1.133.106 1.493 1.44.63 2.16c-.053.037-.106.122-.175.254c-.217.413-.232 1.234.096 1.604c.143.159.312.318.407.498c.636 1.164-.815 2.345-1.815 1.471a1.18 1.18 0 0 1-.117-1.635c.302-.355.53-.599.54-1.107c.005-.503-.069-.789-.408-1.143a1.7 1.7 0 0 1-.386-.662a2.3 2.3 0 0 0-.159-.408c-.74-1.164-2.192-.328-1.546.869c.133.238.371.402.509.645c.635 1.149-.763 2.361-1.79 1.483a1.18 1.18 0 0 1-.27-1.456c.17-.328.498-.477.604-.874c.116-.434.106-1.085-.223-1.44c-.121-.137-.27-.27-.36-.434c-.116-.211-.158-.46-.243-.646"/><path fill="#3291c2" d="M6.103 10.716c.577.265 1.154-.286 1.334-.805l.132-.397c.419-.804 1.62-.89 2.07-.074c.434.773-.058 1.758-.958 1.795q-.08 0-.476-.08a1.53 1.53 0 0 0-1.403.408c-.36.323-.344.662-.503.985c-.111.227-.376.423-.492.619c-.265.455-.265 1.096-.016 1.556c.11.212.37.392.492.62c.212.38.18.857-.058 1.228a1.197 1.197 0 0 1-1.7.28a1.186 1.186 0 0 1-.28-1.566c.122-.196.423-.424.519-.662c.164-.455.19-1.202-.164-1.588c-.16-.164-.334-.34-.424-.54c-.238-.508-.09-.99.286-1.377c.233-.248.37-.497.408-.841c.042-.36-.016-.858-.265-1.133c-.154-.17-.334-.334-.424-.54c-.338-.741.133-1.641.97-1.694c.38-.016.772.211 1.206.069c.413-.138.937-.477 1.059-.906c.143-.545.36-.953.953-1.08c.984-.222 1.82.847 1.27 1.763a1.18 1.18 0 0 1-1.133.561c-.206-.031-.455-.11-.656-.106a1.56 1.56 0 0 0-1.482 1.276c-.053.28-.434.546-.572.784c-.28.492-.28 1.175.307 1.445"/><path fill="#2fa6bd" d="M14.224 14.216a1.32 1.32 0 0 0-.582-.831c-.588-.392-.9-.328-1.525-.201c-.227.042-.593-.096-.788-.111a1.6 1.6 0 0 0-1.536 1.053q-.094.333-.132.397c-.344.62-1.218.831-1.779.36a1.196 1.196 0 0 1 .175-1.975c.625-.354 1.165.165 1.821-.121c.355-.16.773-.44.89-.8c.095-.286.158-.571.386-.815c.291-.307.434-.487.466-.9c.042-.508-.032-.958-.434-1.313a1.23 1.23 0 0 1-.165-1.535c.88-1.255 2.806-.01 1.96 1.329a2.6 2.6 0 0 1-.265.307c-.424.46-.45 1.212-.17 1.747c.106.206.334.381.477.603c.105.186.148.434.238.636a1.59 1.59 0 0 0 1.64.81c.144-.032.281-.08.424-.085c.52-.006.9.222 1.128.683c.249.492.064 1.143-.386 1.466a1.18 1.18 0 0 1-1.837-.704z"/><path fill="#309cc0" d="M16.606 17.89c-.069.148-.1.37-.19.535a1.15 1.15 0 0 1-1.054.62c-.196 0-.418-.08-.614-.107c-.55-.074-1.128.302-1.44.73c-.116.16-.175.53-.27.716a1.18 1.18 0 0 1-2.043.052c-.117-.185-.16-.465-.25-.65c-.09-.202-.264-.387-.502-.551c-.392-.265-.794-.355-1.218-.26a2 2 0 0 1-.413.07a1.173 1.173 0 0 1-1.164-1.093a1.2 1.2 0 0 1 .106-.57c.466-1.022 1.874-.9 2.202.18c.095.302.18.53.424.741c.306.249.656.445 1.058.45q.078-.001.45-.074c.217-.048.44-.048.657 0c.46.095.677.106 1.074-.111a.8.8 0 0 0 .16-1.297a1.2 1.2 0 0 0-.97-.292c-.17.016-.391.112-.587.112a1.17 1.17 0 0 1-1.128-1.573a1.155 1.155 0 0 1 1.578-.688q.475.207.609.604c.09.286.158.571.37.81c.185.2.492.391.72.476c.36.127.588.069.91 0c.255-.053.472-.032.715.021c.424.09.64.064 1.017-.137c.391-.212.635-.456.757-.869c.042-.143.08-.275.148-.397c.635-1.1 2.356-.598 2.213.7c-.085.767-.779 1.164-1.498 1.01c-.355-.074-.614-.116-.964.048c-.392.175-.688.397-.868.794z"/></g></svg>