<svg xmlns="http://www.w3.org/2000/svg" viewBox="0 0 24 24"><g fill="none"><path fill="#5f60c7" d="M11.777 3.313h.46v4.12h-.46zM7.803 14.098l.241.394l-3.481 2.084l-.237-.389zm8.46.072l-.237.393l3.534 2.117l.236-.388z"/><path fill="url(#SVGwZIvEejJ)" fill-rule="evenodd" d="M7.737 9.645L12 7.263l4.263 2.382v4.713L12 16.736l-4.263-2.378zm.473.209L12 7.736l3.79 2.118v4.187l-3.785 2.222L8.21 14.04z" clip-rule="evenodd"/><path fill="#8081ee" d="M11.768 11.863h.459v9h-.46z"/><path fill="#8081ee" d="m12.284 11.862l-.237.389l-7.82-4.477l.236-.388z"/><path fill="#8081ee" d="m11.763 11.862l.237.389l7.816-4.477l-.237-.388z"/><path fill="#8081ee" fill-rule="evenodd" d="M3.947 7.524L12 3l8.053 4.524v8.957L12 21l-8.053-4.519zm.474.213L12 3.474l7.579 4.263v8.526L12 20.526l-7.579-4.263z" clip-rule="evenodd"/><defs><linearGradient id="SVGwZIvEejJ" x1="14.058" x2="5.645" y1="1.254" y2="20.342" gradientUnits="userSpaceOnUse"><stop stop-color="#86e0e9"/><stop offset="1" stop-color="#259ac1"/></linearGradient></defs></g></svg>