<svg width="128" height="128" version="1.1" viewBox="0 0 42.667 42.667" xml:space="preserve" xmlns="http://www.w3.org/2000/svg" xmlns:xlink="http://www.w3.org/1999/xlink"><defs><linearGradient id="linearGradient8" x1="20.822" x2="50.822" y1="33.787" y2="63.787" gradientTransform="matrix(.93753 0 0 .93753 2.2172 3.0266)" gradientUnits="userSpaceOnUse"><stop stop-color="#e0146b" offset="0"/><stop stop-color="#7909b6" stop-opacity=".49804" offset=".5"/><stop stop-color="#579eee" offset="1"/></linearGradient></defs><g transform="translate(-14.155 -27.12)"><path d="m24.822 28.453c-5.1707 0-9.3334 4.1627-9.3334 9.3334v12.022l4.334-2.1458v-9.8757c0-2.8445 2.1555-5 5-5h21.332c2.8445 0 4.9994 2.1555 4.9994 5v0.35482l-2.8197 1.3965 0.077475 0.1569-32.923 16.305v3.1198c0 5.1707 4.1627 9.3334 9.3334 9.3334h21.334c5.1707 0 9.3334-4.1627 9.3334-9.3334v-11.971l-4.3347 2.1465v9.8256c0 2.8445-2.1538 4.9981-4.9994 4.9981h-21.332c-2.8456 0-5-2.1535-5-4.9981v-0.51954l31.332-15.516v0.054036l4.3347-2.1465v-3.2064c0-5.1707-4.1627-9.3334-9.3334-9.3334h-21.334z" fill="url(#linearGradient8)"/></g></svg>
