<svg xmlns="http://www.w3.org/2000/svg" viewBox="0 0 512 136"><path fill="#5e5e5e" d="M487.53 110.731q-7.505 0-13.571-3.496q-5.963-3.496-9.356-9.664q-3.393-6.272-3.392-13.983q0-7.401 3.187-13.571q3.186-6.075 8.786-9.642l.364-.228q5.86-3.7 13.365-3.7q7.711 0 13.366 3.392q5.757 3.393 8.74 9.459q2.98 5.962 2.981 13.777q0 .925-.103 1.85l-.093.887q-.01.11-.01.141H472.52q.514 6.992 5.038 10.795q4.524 3.805 10.28 3.804q8.843 0 13.572-8.225l9.665 4.627q-3.393 6.272-9.46 10.076q-5.963 3.7-14.085 3.701m12.955-33.414q-.206-2.467-1.645-5.038q-1.44-2.57-4.524-4.318q-2.982-1.85-7.505-1.85q-5.038 0-8.74 3.084q-3.597 3.084-4.934 8.122zm-64.096 33.414q-8.739 0-14.496-4.01q-5.655-4.112-8.02-10.281l10.076-4.318q1.748 4.215 5.038 6.374q3.393 2.16 7.402 2.16q4.215 0 6.889-1.543q2.673-1.645 2.673-4.215q0-2.365-1.983-3.88l-.177-.13q-2.159-1.644-7.093-2.879l-6.992-1.644q-5.757-1.338-9.972-4.935q-4.113-3.702-4.113-9.562q0-6.943 5.614-11.03l.247-.177q5.86-4.215 14.393-4.215q7.094 0 12.544 2.982q5.551 2.98 8.018 8.636l-9.972 4.215q-1.44-3.186-4.421-4.73q-2.982-1.54-6.477-1.541q-3.224 0-5.704 1.391l-.26.15q-2.57 1.44-2.57 3.908q0 2.159 1.748 3.496q1.77 1.278 5.422 2.18l7.944 1.932q7.71 1.953 11.515 5.963q3.803 3.908 3.804 9.459q0 4.361-2.582 7.96l-.194.265q-2.673 3.7-7.505 5.86q-4.73 2.16-10.796 2.16m-54.104 0q-5.45 0-9.87-2.159q-4.317-2.262-6.889-6.169q-2.466-4.01-2.467-9.047q0-8.02 5.963-12.646q6.065-4.627 15.32-4.627q8.12 0 13.88 2.776V76.7q0-4.486-3.482-7.425l-.22-.183q-3.599-3.084-8.74-3.084q-7.813 0-12.542 6.374l-8.636-5.963q3.598-4.833 8.944-7.403q5.45-2.57 12.235-2.57q10.99 0 17.037 5.44l.235.215q6.168 5.551 6.169 15.73v31.255h-11v-6.271h-.618q-2.467 3.496-6.272 5.757q-3.803 2.16-9.047 2.16m1.85-9.356q3.805 0 6.992-1.85q3.29-1.954 5.14-5.038q1.954-3.187 1.954-6.786q-5.449-2.982-11.618-2.982q-5.655 0-8.841 2.468q-3.187 2.468-3.187 6.271q0 3.496 2.775 5.758q2.88 2.16 6.786 2.159m-49.3 9.356q-5.553 0-9.973-2.365q-4.319-2.364-6.477-5.963h-.617v6.683h-10.693V35.472h11.31v22.105l-.617 7.094h.617q2.159-3.496 6.477-5.86q4.42-2.365 9.973-2.365q6.58 0 12.131 3.496q5.474 3.383 8.73 9.365l.215.402q3.393 6.167 3.393 13.88q0 7.47-3.184 13.492l-.209.387q-3.29 6.168-8.945 9.767q-5.551 3.496-12.131 3.496m-1.954-10.384q4.01 0 7.402-2.056q3.495-2.057 5.552-5.86q2.16-3.907 2.16-8.843q0-4.935-2.16-8.738q-2.055-3.908-5.552-5.964q-3.392-2.056-7.402-2.056t-7.505 2.056q-3.393 2.056-5.552 5.86q-2.055 3.805-2.056 8.842q0 5.039 2.056 8.842q2.16 3.804 5.552 5.86q3.495 2.058 7.505 2.057m-57.628-43.9q7.71 0 13.365 3.392q5.758 3.393 8.74 9.459q2.98 5.962 2.981 13.777q0 .925-.102 1.85l-.082.758a4 4 0 0 0-.021.27H260.86q.514 6.992 5.038 10.795q4.524 3.805 10.281 3.804q8.843 0 13.571-8.225l9.665 4.627q-3.393 6.272-9.459 10.076q-5.962 3.7-14.085 3.701q-7.505 0-13.571-3.496q-5.964-3.496-9.356-9.664q-3.393-6.272-3.393-13.983q0-7.401 3.187-13.571q3.29-6.27 9.15-9.87q5.861-3.7 13.366-3.7m-30.976.102q3.701 0 6.066 1.028v11.824q-3.496-1.748-7.814-1.748q-5.552 0-9.356 4.318q-3.7 4.215-3.701 10.384v26.73h-11.31V58.092h10.693V65.7h.617q1.587-3.767 5.658-6.292l.305-.185q4.318-2.673 8.842-2.673m30.873 9.561q-5.038 0-8.739 3.085q-3.598 3.084-4.935 8.122h27.348q-.205-2.467-1.645-5.038q-1.44-2.57-4.523-4.318q-2.982-1.85-7.506-1.85m-73.128-16.655q-3.186 0-5.449-2.16q-2.16-2.261-2.159-5.448q0-3.187 2.159-5.347q2.262-2.26 5.45-2.261q3.186 0 5.346 2.261q2.262 2.16 2.262 5.347q0 3.186-2.262 5.449q-2.16 2.16-5.347 2.159m-5.654 8.636h11.309v50.995h-11.31zm-51.514-22.619h44.723v11.001h-33.209v21.18h29.919V78.55h-29.919v30.535h-11.514z"/><path fill="#ff9100" d="M33.7 131.256a53.8 53.8 0 0 0 18.23 3.85a53.6 53.6 0 0 0 24.418-4.92a76 76 0 0 1-23.804-14.947A40.76 40.76 0 0 1 33.7 131.256"/><path fill="#ffc400" d="M52.542 115.242C36.862 100.74 27.35 79.75 28.154 56.729c.026-.748.066-1.495.112-2.242a40.6 40.6 0 0 0-21.206.222A53.55 53.55 0 0 0 .033 79.465c-.812 23.256 13.262 43.576 33.665 51.793a40.7 40.7 0 0 0 18.844-16.016"/><path fill="#ff9100" d="M52.543 115.24a40.36 40.36 0 0 0 6.113-20.042c.677-19.384-12.354-36.058-30.39-40.711a84 84 0 0 0-.111 2.241c-.804 23.022 8.708 44.011 24.388 58.513"/><path fill="#dd2c00" d="M56.64 0C46.366 8.229 38.255 19.08 33.348 31.58a75.9 75.9 0 0 0-5.09 22.911c18.035 4.653 31.066 21.328 30.389 40.712a40.45 40.45 0 0 1-6.113 20.043a75.9 75.9 0 0 0 23.804 14.945c17.838-8.245 30.493-25.987 31.226-46.973c.475-13.597-4.75-25.715-12.131-35.944C87.638 36.456 56.639 0 56.639 0"/></svg>