<svg xmlns="http://www.w3.org/2000/svg" viewBox="0 0 24 24"><g fill="none"><path fill="url(#SVGXFQgIepy)" d="M9.75 14.802v-1.16l1.437.803l-1.062.57z"/><path fill="#493636" d="M14.248 14.802v-1.16l-1.434.803l1.066.57z"/><path fill="url(#SVGGZFjXcQN)" d="M16.505 11.499L14.249 12.7l2.256 1.233l2.244-1.233z"/><path fill="#83615b" d="m10.095 8.927l-.348-.188v.375z"/><path fill="#6f5655" d="M18.747 11.098V6.635l-2.25 1.16v4.572z"/><path fill="url(#SVGJvmWidyp)" d="M14.25 8.73V4.201L12 5.437V10z"/><path fill="#654a48" d="m13.865 8.917l.384-.189v.386z"/><path fill="#684b49" d="m13.876 14.991l.373-.202v.414z"/><path fill="#7a5d59" d="m10.13 14.991l-.38-.202v.414z"/><path fill="#7d6563" d="M7.505 5.435L5.25 6.636L7.505 7.87l2.246-1.234z"/><path fill="url(#SVGkw2REe1x)" d="M9.75 8.743V4.198L12 5.428v4.585z"/><path fill="url(#SVG4kG4Pl5U)" d="M14.25 11.112v-4.48l2.25 1.214v4.52z"/><path fill="url(#SVGUO5x0cRy)" d="M14.25 17.233v-4.536l2.25 1.205v4.61z"/><path fill="#7d6563" d="M12.005 3L9.749 4.201l2.256 1.234L14.249 4.2zm4.5 2.435l-2.256 1.201l2.256 1.234l2.244-1.235z"/><path fill="url(#SVGGZFjXcQN)" d="M7.505 11.499L5.249 12.7l2.256 1.233L9.749 12.7z"/><path fill="url(#SVGMFUDdbYv)" d="m12.005 13.984l-2.256 1.202l2.256 1.233l2.244-1.233z"/><path fill="url(#SVGtCt5Gc1r)" d="M5.25 17.234v-4.537l2.25 1.214v4.6z"/><path fill="#7d6563" d="M12.005 7.907L9.749 9.11l2.256 1.233l2.244-1.233z"/><path fill="url(#SVGDOQfqbkL)" d="M9.75 19.724v-4.551L12 16.405V21z"/><path fill="#6e5453" d="M18.75 17.231v-4.539L16.5 13.9v4.612z"/><path fill="#725857" d="M14.25 13.648V9.106L12 10.336v4.586z"/><path fill="#705554" d="M14.25 19.724v-4.551L12 16.405V21z"/><path fill="url(#SVGZPuQAcNO)" d="M9.75 17.234v-4.537L7.5 13.912v4.601z"/><path fill="url(#SVGie9gNdwU)" d="M9.75 11.166v-4.53L7.5 7.846v4.596z"/><path fill="url(#SVGAiyKtcgv)" d="M5.251 11.166v-4.53l2.25 1.21v4.596z"/><path fill="url(#SVGzpHPRbjA)" d="M9.75 13.651v-4.54L12 10.337v4.587z"/><defs><linearGradient id="SVGXFQgIepy" x1="5.334" x2="18.942" y1="12" y2="13.63" gradientUnits="userSpaceOnUse"><stop stop-color="#6c5e5d"/><stop offset="1" stop-color="#684440"/></linearGradient><linearGradient id="SVGGZFjXcQN" x1="12" x2="12" y1="3.001" y2="21.004" gradientUnits="userSpaceOnUse"><stop offset=".491" stop-color="#533534"/><stop offset="1" stop-color="#3c3133"/></linearGradient><linearGradient id="SVGJvmWidyp" x1="5.25" x2="14.846" y1="12.947" y2="5.181" gradientUnits="userSpaceOnUse"><stop stop-color="#543d3d"/><stop offset=".77" stop-color="#4c3939"/></linearGradient><linearGradient id="SVGkw2REe1x" x1="18.751" x2="5.987" y1="12.025" y2="8.406" gradientUnits="userSpaceOnUse"><stop stop-color="#966761"/><stop offset=".768" stop-color="#6a5d5c"/></linearGradient><linearGradient id="SVG4kG4Pl5U" x1="18.751" x2="5.984" y1="12.002" y2="8.387" gradientUnits="userSpaceOnUse"><stop stop-color="#966761"/><stop offset=".768" stop-color="#6a5d5c"/></linearGradient><linearGradient id="SVGUO5x0cRy" x1="18.751" x2="5.971" y1="11.952" y2="8.355" gradientUnits="userSpaceOnUse"><stop stop-color="#966761"/><stop offset=".768" stop-color="#6a5d5c"/></linearGradient><linearGradient id="SVGMFUDdbYv" x1="12" x2="12" y1="2.999" y2="20.998" gradientUnits="userSpaceOnUse"><stop offset=".491" stop-color="#533534"/><stop offset="1" stop-color="#3c3133"/></linearGradient><linearGradient id="SVGtCt5Gc1r" x1="18.751" x2="13.983" y1="6.543" y2="19.902" gradientUnits="userSpaceOnUse"><stop stop-color="#c79890"/><stop offset=".563" stop-color="#c89b94"/></linearGradient><linearGradient id="SVGDOQfqbkL" x1="18.751" x2="14.011" y1="6.724" y2="20.049" gradientUnits="userSpaceOnUse"><stop stop-color="#db9e94"/><stop offset=".453" stop-color="#cf9991"/></linearGradient><linearGradient id="SVGZPuQAcNO" x1="5.249" x2="14.871" y1="12.92" y2="5.161" gradientUnits="userSpaceOnUse"><stop stop-color="#543d3d"/><stop offset=".77" stop-color="#4c3939"/></linearGradient><linearGradient id="SVGie9gNdwU" x1="5.249" x2="14.875" y1="12.915" y2="5.158" gradientUnits="userSpaceOnUse"><stop stop-color="#543d3d"/><stop offset=".77" stop-color="#4c3939"/></linearGradient><linearGradient id="SVGAiyKtcgv" x1="18.751" x2="13.902" y1="7.142" y2="20.211" gradientUnits="userSpaceOnUse"><stop stop-color="#dba096"/><stop offset=".518" stop-color="#bc938d"/></linearGradient><linearGradient id="SVGzpHPRbjA" x1="11.999" x2="9.737" y1="10.354" y2="13.692" gradientUnits="userSpaceOnUse"><stop stop-color="#fabdae"/><stop offset=".516" stop-color="#daa095"/></linearGradient></defs></g></svg>