<?xml version="1.0" encoding="UTF-8"?>
<svg id="Layer_1" xmlns="http://www.w3.org/2000/svg" version="1.1" viewBox="0 0 800 800">
  <!-- Generator: Adobe Illustrator 29.8.2, SVG Export Plug-In . SVG Version: 2.1.1 Build 3)  -->
  <defs>
    <style>
      .st0 {
        fill: #fff;
      }

      .st1 {
        fill: #339af0;
      }
    </style>
  </defs>
  <path class="st1" d="M710.36,0H89.64C40.54,0,0,40.54,0,89.64v620.71c0,49.11,40.54,89.64,89.64,89.64h620.71c49.11,0,89.64-40.54,89.64-89.64V89.64c0-49.11-40.54-89.64-89.64-89.64ZM629.29,507.68c0,7.5-6.43,10.71-13.93,13.93-29.82,12.86-61.79,24.46-96.07,24.46-48.04,0-70.36-29.82-128.04-29.82-41.61,0-85.36,15-120.54,30.89-2.14,1.07-4.29,1.07-6.43,2.14v81.07c0,3.21,0,6.43-1.07,8.57v2.14c-4.29,15-18.21,25.54-34.11,25.54-20.18,0-36.25-16.07-36.25-36.25V240c-13.93-10.71-23.39-27.68-23.39-46.96,0-33.04,26.61-59.82,59.82-59.82s59.82,26.61,59.82,59.82c0,19.29-8.57,36.25-23.39,46.96v33.04c3.21-1.07,6.43-2.14,9.64-4.29,33.04-13.93,72.5-25.54,109.82-25.54,40.54,0,72.5,10.71,108.75,24.46,7.5,3.21,15,4.29,23.39,4.29,40.54,0,85.36-28.75,96.07-28.75,8.57,0,16.07,6.43,16.07,13.93v250.54h-.18Z"/>
  <path class="st0" d="M629.82,507.68c0,7.5-6.43,10.71-13.93,13.93-29.82,12.86-61.79,24.46-96.07,24.46-48.04,0-70.36-29.82-128.04-29.82-41.61,0-85.36,15-120.54,30.89-2.14,1.07-4.29,1.07-6.43,2.14v81.07c0,3.21,0,6.43-1.07,8.57v2.14c-4.29,15-18.21,25.54-34.11,25.54-20.18,0-36.25-16.07-36.25-36.25V240c-13.93-10.71-23.39-27.68-23.39-46.96,0-33.04,26.61-59.82,59.82-59.82s59.82,26.61,59.82,59.82c0,19.29-8.57,36.25-23.39,46.96v33.04c3.21-1.07,6.43-2.14,9.64-4.29,33.04-13.93,72.5-25.54,109.82-25.54,40.54,0,72.5,10.71,108.75,24.46,7.5,3.21,15,4.29,23.39,4.29,40.54,0,85.36-28.75,96.07-28.75,8.57,0,16.07,6.43,16.07,13.93v250.54h-.18Z"/>
</svg>