<svg xmlns="http://www.w3.org/2000/svg" viewBox="0 0 24 24"><g fill="none"><path fill="#2a313e" d="M9.948 3.452L5.124 5.656a.725.725 0 0 0-.017 1.316l4.745 2.282a5.04 5.04 0 0 0 4.385-.01l4.661-2.278a.721.721 0 0 0-.017-1.31l-4.733-2.192a5.04 5.04 0 0 0-4.2-.012m-6.943 12.11V8.939c0-.804.843-1.338 1.585-1.001l4.886 2.238a3.35 3.35 0 0 1 1.962 3.041v6.657c0 .81-.849 1.344-1.591 1l-4.891-2.282a3.35 3.35 0 0 1-1.951-3.036zm17.99-6.6c0-.81-.843-1.344-1.585-1.006l-4.886 2.243a3.35 3.35 0 0 0-1.962 3.036v6.656c0 .81.849 1.35 1.591 1.001l4.891-2.277a3.35 3.35 0 0 0 1.951-3.036z"/><path fill="#a9e3b0" d="m14.947 7.911l-6.32-2.996l.45-.225l6.297 2.996zm-2.778.152l-.225-.377c.703-.022 1.507-.022 2.137-.365c.275-.158.45-.292.55-.422c.203-.27.029-.506-.241-.618a2.9 2.9 0 0 0-1.113-.146c-.36.01-.714.061-.945.14c-.748.259-1.507.534-2.305.49c-.433-.034-1.057-.192-1.293-.602c-.14-.253-.022-.49.169-.686c.72-.72 1.793-.787 2.743-.787l.04.298c-.371 0-1.237-.017-1.732.258c-.225.13-.77.433-.602.782c.152.303.641.393.945.393a4.6 4.6 0 0 0 1.389-.315c.416-.14.944-.258 1.484-.303c.59-.045 1.192 0 1.647.202c.383.169.703.551.45.973c-.562.883-2.193 1.068-3.098 1.085M8.864 17.99c-.225.141-.45.192-.776.192c-.973 0-2.013-.877-2.519-2.103a5.1 5.1 0 0 1-.348-1.546l-.529-.225l.27-.534l.236.101c.006-.27.028-.545.056-.815l-.562-.242l.27-.528l.388.169l.011-.08c.186-.933.59-1.506 1.462-1.506c.691 0 1.44.506 2.018 1.27a3 3 0 0 1-.309.731c-.348-.73-.877-1.236-1.484-1.236c-.652 0-.973.399-1.13 1.062l2.322.995l-.27.534l-2.159-.927c-.034.264-.056.54-.056.815l1.996.86l-.27.529L5.8 14.78c.045.338.123.675.253.979c.393.972 1.18 1.68 1.95 1.68c.231 0 .411-.044.546-.123c.084.14.197.371.315.675m8.196-3.271l1.451-4.037l-.641.22l-1.141 3.243l-1.248-2.136l-.619.36l1.636 2.704v.281l-1.124.557v.562l1.124-.562v.72l-1.124.562v.562l1.124-.562v.99l.563-.305v-.96l1.124-.563v-.562l-1.124.556v-.714l1.124-.562v-.562l-1.124.562z"/></g></svg>