<?xml version="1.0" encoding="UTF-8"?>
<svg id="logo" xmlns="http://www.w3.org/2000/svg" width="1692.24" height="681.65" viewBox="0 0 1692.24 681.65">
  <path d="M314.79,354.49c22.53-36.02,57.16-67.36,92.01-91.77h-161.5c15.44-120.04,86.26-130.57,178.88-129.42,18.88.56,37.74,1.15,57.74,1.15L500.78,1.79h-1.72c-25.16-.59-49.72-1.74-74.88-1.74C274.96-1.1,133.77,16.12,93.18,202.78,65.74,328.55,24,537.62,0,676.03h192.07l44.64-274.9c0-1.74.57-3.44,1.16-4.6h54.18c4.03-9.19,8.69-18.07,13.62-26.8,1.49-2.73,3.1-5.39,4.67-8.07,1.46-2.41,2.92-4.81,4.45-7.17Z" fill="#ff5f00"/>
  <path d="M554.47,262.87c-115.37,0-221.28,93.75-236.56,209.39-15.28,115.64,65.86,209.39,181.22,209.39s221.28-93.74,236.56-209.39c15.28-115.64-65.86-209.39-181.22-209.39ZM621.74,472.26c-6.95,52.56-55.08,95.17-107.52,95.17s-89.31-42.61-82.37-95.17c6.95-52.56,55.08-95.17,107.52-95.17s89.31,42.61,82.37,95.17Z" fill="#ff5f00"/>
  <g>
    <polygon points="1389.14 222.16 1400.03 118.7 1316.9 118.7 1252.12 118.7 1234.36 222.16 1316.9 222.16 1389.14 222.16" fill="#ff5f00"/>
    <path d="M1166.14,681.65h177.14l30.37-289.19h50.31l-12.61,118.3c-11.47,109.74,63.06,174.31,163.94,169.74l72.8-2.3,13.2-120.56h-45.29c-29.82,0-57.9-9.73-52.74-54.3l11.45-111.44h102.06l15.46-126.89h-108.35l10.31-98.87h-145.6l-10.32,98.87h-209.67l-63.61,414.35" fill="#ff5f00"/>
  </g>
  <g>
    <path d="M947.95,617.01c-6.35,1.74-12.39,3.42-18.19,5.05l33.62,59.58h163.25l-65.4-115.91c-27.48,17.22-63.17,34.19-111.3,50.67l-1.98.61Z" fill="#ff5f00"/>
    <path d="M918.08,312.01l-27.36-48.49h-163.25l73.48,130.23c31.33-32.61,71.49-60.6,117.13-81.74Z" fill="#ff5f00"/>
  </g>
  <path d="M733.18,663.85s5.91-107.63,52.69-185.39c39.25-81.91,143.01-150.49,260.74-170.2,0,0,98.92-22.95,129.56-40.77,0,0,33.33-21.6,18.28,28.62,0,0-19.96,48.62-81.52,80.18-14.51,7.3-25.3,8.93-23.02,22.81,4.12,14.1,27.66,3.38,30.88,1.76,5.6-4.63,60.16-19.59,23.8,32.55-36.56,54-58.75,102.99-200.68,151.59-94.62,25.92-132.25,40.5-187.09,90.18-27.42,19.48-23.65-11.34-23.65-11.34Z" fill="#ff5f00"/>
</svg>