<svg xmlns="http://www.w3.org/2000/svg" viewBox="0 0 24 24"><g fill="none"><path fill="url(#SVGn8VIrmUm)" d="M12 21a9 9 0 1 0 0-18a9 9 0 0 0 0 18"/><path fill="#bd6514" d="M12 20.585a8.585 8.585 0 1 0 0-17.17a8.585 8.585 0 0 0 0 17.17m0-.215a8.37 8.37 0 1 0-.001-16.741a8.37 8.37 0 0 0 0 16.74"/><path fill="url(#SVGBCmkTcSH)" d="M12 20.371a8.37 8.37 0 1 0 0-16.74a8.37 8.37 0 0 0 0 16.74"/><path fill="url(#SVGWN2m8cTm)" d="M12 17.999a6 6 0 1 0 0-12a6 6 0 0 0 0 12"/><path fill="url(#SVGPZQGIcjj)" d="M11.975 17.64c3.11 0 5.63-2.51 5.63-5.606s-2.52-5.605-5.63-5.605s-5.63 2.51-5.63 5.605s2.52 5.605 5.63 5.605"/><path fill="#a9d8ec" d="M15.5 11.38c-.06-.015-.07.045-.07.075c.1.05-.03.155-.066.22c-.03.05.075.09.135.1c-.03.05-.06.145.065.15c.125 0 .1.1.075.14c-.005-.015-.04-.05-.095-.025c-.07.025.05.11.1.165c.045.055 0 .04-.05.085c-.05.05.015.065.05.09c.03.025 0 .09.05.155c.05.07.105-.05.145-.18c.035-.13-.065-.1-.11-.13c-.05-.04.05-.09.07-.14c.025-.05-.095-.245-.16-.275s-.11-.13-.075-.2s.005-.215-.065-.23m.614 1.705a.13.13 0 0 0-.125.085c.045.085.165.275.33.34c.2.085-.01.175 0 .29c.005.095.12.055.175.025c-.01-.035 0-.1.09-.1c.12.005.065.085.085.17c.01.065.06.055.085.045c0-.125-.015-.4-.03-.465s-.16-.19-.23-.245c-.05-.015-.165-.025-.215.055c-.05.085-.065.035-.065 0c0-.065-.015-.2-.1-.2"/><path fill="#c4c4c4" d="M14.64 11.45c-.07-.02-.03-.1 0-.13l.08-.065c.024 0 .075.005.09.065c.02.075-.08.15-.17.125z"/><path fill="#a9d8ec" d="M15.376 11.02a.27.27 0 0 1 .05-.2c.095-.1.095.09.08.2c-.035.035-.115.085-.13 0m-.045 2.12c-.095.04-.08.26-.06.36a.2.2 0 0 1 .222-.033a.2.2 0 0 1 .063.047c0-.034-.01-.11-.05-.15c-.035-.03 0-.18.025-.25a.3.3 0 0 0-.2.026m-1.565-.34a.24.24 0 0 1-.15-.215c.08-.086.35.27.435.3s.06-.02 0-.09c-.06-.066-.035-.306-.085-.37c-.05-.065-.1-.16-.05-.17c.045 0 .245.214.34.33c0 .2.025.61.09.6c.085-.01.155.124.135.13c-.02 0-.15.08-.1.175c.045.095.25.1.34.1c.095-.005.095.085.175.1c.07.02.05.06.03.075c-.54-.006-.795-.275-.855-.41c-.05-.16-.185-.5-.305-.56zm2.11-2.5c-.005-.05-.08-.23-.115-.315c.105-.06.33-.2.355-.275c.04-.1-.065-.31-.115-.38c-.045-.06-.045-.31-.035-.425c.07.08.235.26.3.31c.08.07-.15.12-.085.16c.065.035.09.25.11.425v.01c.025.175-.04.175-.21.25c-.165.075-.2.3-.205.24m-6.07 4.474c.06-.084 0-.24-.035-.31c-.03-.07.14-.194.23-.25c0-.06.025-.175.085-.125c.075.06.135.986 0 .99c-.14 0-.35-.205-.28-.305m4.68.336c0 .26-.1.524-.155.625c.095.05.5-.125.8-.185c.23-.05.215.204.175.34c-.01.04.01.12.155.13c.185.02.945-.85.925-1.02c-.025-.24.065-.69.02-1.02c-.025.17-.115.5-.25.46c-.165-.05-.1-.3-.055-.335c.04-.025-.085-.15-.165-.15c-.06 0-.18.214-.235.33a1 1 0 0 0-.17-.1c-.075-.03-.335.315-.45.49c-.2.035-.6.175-.6.434zM12.4 12.585v-.37c.03-.046.12.09.16.165l-.1.19c-.015.034-.045.024-.055.015z"/><path fill="#a9d8ec" d="M15.009 13.376c-.38-.025-.405-.31-.375-.45c.325-.05.54-.42.575-.45c.035-.035.145.09.155.124c.01.03-.05.06-.11.13c-.07.07.03.15.04.236c.01.065-.185.3-.285.41"/><path fill="url(#SVGFkEf6cJI)" fill-rule="evenodd" d="M6.725 12.63a3.1 3.1 0 0 1-.11-1.135c.025-.38.045-.72.215-.93c.115-.14.165-.28.21-.395c.03-.08.05-.15.09-.175a.2.2 0 0 0 .035-.05c.1-.035.245-.12.32-.17c.1-.015.3-.045.315-.035c.025.015-.015.19-.11.28s.255.31.37.3c.06-.01.075-.07.09-.125c.015-.05.025-.1.065-.1c.03 0 .05.02.085.05c.065.045.165.115.405.13c.365.025.44-.425.435-.47c-.005-.04-.235-.02-.385-.01l-.115.01c-.065 0-.025-.23 0-.34c0-.015-.015-.045-.09-.04c-.055.005-.095.12-.13.22c-.025.08-.05.15-.075.16c-.05.01-.02-.29 0-.445c-.025 0-.075-.01-.07-.09c.005-.095-.03-.27-.1-.245c-.04.02-.01.225.02.385a1 1 0 0 1 .02.2c-.01.065-.05.065-.11 0c-.025-.03-.025-.11-.025-.2c.005-.125.01-.26-.06-.28c-.125-.04-.415.22-.505.44a.55.55 0 0 1-.31.27l.05-.16c.04-.15.085-.31.14-.38c.045-.05.11-.1.17-.145c.1-.07.2-.14.23-.245c.01-.05.075-.165.185-.31l.555-.35c.04-.015.12 0 .2.015c.125.02.265.05.325-.01c.04-.04.115-.14.21-.265c.16-.21.36-.48.46-.53c.15-.08-.2.05-.26.12c-.05.07-.5.625-.74.565c-.19-.05.14-.36.33-.51l.075-.075l.135-.07q.459-.217.73-.36c.3-.15.45-.225.485-.185c.015.02.03.075.05.14c.035.13.08.28.15.25h.02c.125-.055.45-.185.67-.21c.09-.015.275-.105.475-.21c.285-.15.615-.315.785-.3c.235.025.4.14.45.19c.305.02.98.08 1.225.17c.3.115.81.305.97.51l.31.325c.26.26.565.57.56.65c-.01.105-.47-.37-.7-.625c-.11-.05-.325-.115-.315 0v.135c-.015.135-.025.27.12.27c.2 0 .49.195.61.44c.115.245-.135.75-.23.78c-.05.015.015.15.08.285c.06.125.115.25.065.25s-.085-.07-.13-.15c-.05-.085-.11-.185-.2-.22a.5.5 0 0 1-.18-.14c-.065-.07-.11-.12-.135-.025c-.025.1-.085.1-.125.1c-.03 0-.05 0-.04.035c.01.05.1.065.19.075c.07.015.14.025.135.055q-.001.024-.025.055c-.04.07-.105.18.055.355c.215.225.25.705-.56 1c-.645.23-.345.455-.115.54c.05.08.125.275.03.395c-.09.12-.25.22-.316.255a1.5 1.5 0 0 0-.3-.43c-.084-.05-.134.235-.15.38q-.028-.195-.04-.39c-.02-.21-.034-.375-.144-.29c-.13.1-.225.06-.225-.08s-.13-.61-.32-.45c-.15.125-.55.48-.725.64c-.005.2-.07.6-.255.665c-.19.065-.335-.8-.38-1.235c-.14-.04-.43-.14-.48-.24c-.035-.065-.155-.1-.305-.065a.6.6 0 0 0-.19-.03c-.225 0-.29-.08-.29-.17c0-.075-.09-.03-.135 0c-.125.01-.365-.03-.365-.265c-.035-.085-.08-.035-.1 0c-.015.095-.025.3.07.37c.1.07.125.13.12.15c.055.04.175.09.2.025c.025-.08.15-.23.165-.165l.01.065c.01.065.02.145.07.15c.03 0 .125 0 .215-.015c-.06.05-.12.11-.175.19c-.27.38-1.07.92-1.16.81H9.47c.2.03-.555-1.58-.61-1.39c.025.3.17 1 .525 1.33l.05.04c-.01.025.015.125.04.195c.175-.05.53-.125.56 0s-.34.77-.53 1.08c.04.335.1 1.025 0 1.1s-.245.24-.3.315c.065.12.18.375.1.44c-.04.035-.04.14-.035.26c.005.175.015.37-.115.4c-.175.04-.24.02-.25 0l-1-1.26c0-.12 0-.4-.1-.55a2.2 2.2 0 0 1-.33-.705v-.035c0-.15 0-.375-.13-.45a.6.6 0 0 1-.135-.125c-.085-.095-.155-.175-.225-.03c-.08.175-.205.12-.26.07m2.41-3.315c-.075.06-.255.065-.34.06c-.03-.095.075-.2.18-.3c.035-.035.075-.07.1-.105c.1-.11.135-.085.145-.05c-.005.05 0 .17.08.185c.06.01.07-.055.075-.125c.01-.04.015-.085.03-.105c.045-.06.19-.01.22.04c.015.025-.015.045-.05.065s-.075.04-.08.075c-.01.035.035.07.085.105c.05.04.1.075.1.12c.015.085-.145.115-.3.12c-.07 0-.11-.035-.145-.065c-.03-.035-.055-.06-.1-.02m1.17.49c-.32-.045-.17-.23-.05-.315c-.05-.02-.135-.11-.145-.3c0-.23.35-.275.435-.285h.015c.065-.01.1.13 0 .15c-.105.02-.29.12-.09.255c.16.11.05.175-.02.2c.085.115.17.345-.15.3z" clip-rule="evenodd"/><path fill="#f3b635" fill-rule="evenodd" d="M11.55 11.14a.696.696 0 0 0-.986 0l-.335.324a.69.69 0 0 0 0 .975c.27.27.705.275.98.005l.335-.33a.69.69 0 0 0 0-.975zm-.221.24a.32.32 0 0 0-.45 0l-.37.364a.31.31 0 0 0-.07.347q.024.059.07.103c.12.12.32.12.45 0l.365-.37a.317.317 0 0 0 0-.45zm2.27-2.306a.695.695 0 0 0-.975 0l-.335.33a.684.684 0 0 0 0 .975c.265.27.7.27.975 0l.335-.33a.684.684 0 0 0 0-.975m-.215.24a.32.32 0 0 0-.45 0l-.37.365a.31.31 0 0 0-.07.347q.024.059.07.103c.125.12.325.125.45 0l.37-.365a.316.316 0 0 0 0-.45" clip-rule="evenodd"/><path fill="#f3b635" d="M12.729 9.94a.2.2 0 0 0-.275 0l-.42.43v.55l.7-.7a.19.19 0 0 0 .04-.216a.2.2 0 0 0-.045-.064m-.935 1.225v-.555l-.635.65a.195.195 0 0 0 0 .275c.08.075.2.07.28-.005zm-2.545 1.75h.915v.27H9.55v.225h.615v.275h-.55v.605H9.25zm3.21 0h.915v.27h-.615v.225h.615v.29h-.615v.285h.615v.305h-.915zm1.375 0h.915v.27h-.615v.225h.615v.29h-.615v.285h.615v.305h-.915z"/><path fill="#f3b635" fill-rule="evenodd" d="M11.44 12.916h-.816v1.375h.415v-.505h.15l.435.505H12v-.095l-.434-.475a.41.41 0 0 0-.125-.8zm-.175.265h-.226v.325h.226a.162.162 0 1 0 0-.325" clip-rule="evenodd"/><path fill="#855521" d="m11.89 3.995l.2.605l.64-.05v.05l-.52.375l.2.56v.05l-.52-.375l-.52.375v-.05l.2-.56l-.52-.375v-.05h.64z"/><path fill="#fee475" d="m11.89 3.946l.2.61h.64l-.52.375l.2.61l-.52-.38l-.52.38l.2-.61l-.52-.375h.64z"/><path fill="#da8c21" d="m11.89 18.4l.2.61h.64l-.52.38l.2.605l-.52-.375l-.52.375l.2-.605l-.52-.38h.64l.2-.605z"/><path fill="#feed8b" d="m9.784 4.176l.35.535l.62-.165l-.4.5l.35.535l-.6-.23l-.41.5l.035-.64l-.6-.23l.62-.165z"/><path fill="#feee91" d="m7.84 5.025l.485.42l.55-.325l-.25.585l.48.42l-.64-.055l-.25.59l-.145-.625l-.64-.06l.55-.325z"/><path fill="#fee981" d="m6.21 6.24l.575.29l.45-.45l-.1.63l.575.29l-.635.1l-.1.635l-.295-.57l-.635.1l.455-.455z"/><path fill="#855521" d="m4.97 7.911l.624.15l.3-.565l.04.025l.05.635l.58.13l.04.025l-.6.24l.05.64l-.04-.025l-.375-.465l-.595.24l-.04-.025l.34-.54z"/><path fill="#ffd650" d="m4.93 7.886l.625.15l.34-.54l.045.635l.625.155l-.6.24l.05.64l-.415-.49l-.595.24l.34-.545z"/><path fill="#ffcc3d" d="m4.895 9.209l.245.59l.64-.05l-.49.415l.245.595l-.55-.34l-.49.415l.15-.62l-.545-.335l.645-.05z"/><path fill="#855521" d="m4.483 11.09l.375.52l.6-.245l.01.044l-.375.52l.365.47l.015.046l-.61-.2l-.38.52l-.015-.045l.015-.595l-.61-.195l-.015-.045l.61-.2z"/><path fill="#ffefb6" d="m4.468 11.05l.375.514l.61-.2l-.375.52l.38.515l-.61-.2l-.38.52v-.64l-.61-.195l.61-.2z"/><path fill="#ffdb6b" d="m4.484 13.009l.5.41l.54-.35l-.235.6l.5.405l-.65-.035l-.23.595l-.165-.62l-.64-.04l.54-.345z"/><path fill="#f0ac24" d="m5.05 14.925l.584.27l.44-.465l-.08.635l.58.27l-.63.12l-.08.635l-.31-.56l-.63.12l.44-.465l-.31-.56z"/><path fill="#855521" d="m6.949 16.185l.11.63l.645.05l-.01.04l-.565.3l.115.58l-.005.05l-.465-.445l-.565.3l.005-.05l.275-.525l-.46-.45l.005-.045l.635.095z"/><path fill="#d98c21" d="m6.954 16.14l.11.63l.64.09l-.57.3l.11.63l-.46-.45l-.57.3l.285-.575l-.465-.445l.64.09z"/><path fill="#fbc134" d="m8.235 17.254l.265.585l.64-.07l-.475.43l.26.58l-.555-.315l-.475.43l.13-.625l-.56-.32l.64-.07z"/><path fill="#855521" d="m9.734 18.1l.405.496l.585-.275l.015.045l-.35.535l.385.45l.02.05l-.62-.17l-.35.54l-.02-.05l-.015-.59l-.62-.165l-.02-.05l.6-.225l-.015-.595z"/><path fill="#eeaa2a" d="m9.72 18.05l.4.5l.6-.23l-.35.535l.404.5l-.62-.164l-.35.535l-.035-.64l-.62-.165l.6-.23z"/><path fill="#ffd247" d="m13.4 4.14l.42.486l.59-.25l-.335.55l.42.485l-.625-.15l-.33.55l-.055-.64l-.625-.15l.59-.245z"/><path fill="#ffd764" d="m15.45 4.71l.265.585l.64-.07l-.475.43l.265.58l-.56-.315l-.476.43l.13-.625l-.56-.32l.64-.07z"/><path fill="#fff0ba" d="m17.184 5.925l.105.635l.635.095l-.57.295l.105.63l-.455-.45l-.575.295l.29-.575l-.455-.45l.635.1z"/><path fill="#ffc737" d="m18.549 7.51l-.085.635l.58.276l-.63.12l-.08.634l-.31-.565l-.63.12l.44-.465l-.31-.56l.58.27l.44-.464z"/><path fill="#e49b21" d="m18.37 9.324l.505.4l.535-.36l-.22.6l.5.396l-.64-.026l-.22.6l-.175-.614l-.64-.02l.53-.36z"/><path fill="#e09725" d="m18.915 11.105l.385.515l.61-.2l-.375.52l.385.51l-.615-.19l-.37.525l-.005-.64l-.615-.195l.61-.2z"/><path fill="#ffc837" d="m18.97 12.965l.21.61l.64-.01l-.516.385l.205.6l-.525-.365l-.515.38l.195-.61l-.525-.37l.64-.005z"/><path fill="#855521" d="m18.385 14.78l.075.639l.635.08l-.01.05l-.585.26l.085.59l-.01.05l-.435-.475l-.585.265l.01-.05l.305-.505l-.43-.475l.01-.045l.625.13z"/><path fill="#e7a026" d="m18.4 14.735l.065.635l.63.13l-.585.265l.075.635l-.435-.47l-.585.265l.315-.56l-.43-.47l.63.125l.315-.55z"/><path fill="#d98c21" d="m16.425 16.476l.565.31l.465-.44l-.115.624l.565.31l-.64.08l-.115.63l-.28-.58l-.635.085l.465-.44z"/><path fill="#dc992b" d="m15.065 17.465l.465.45l.565-.305l-.28.575l.465.445l-.64-.09l-.28.575l-.11-.63l-.64-.085l.57-.3z"/><path fill="#db9529" d="m13.55 18.15l.35.536l.62-.166l-.4.5l.35.536l-.6-.23l-.4.5l.03-.64l-.6-.23l.614-.165z"/><defs><linearGradient id="SVGn8VIrmUm" x1="8.6" x2="16.34" y1="3.415" y2="20.175" gradientUnits="userSpaceOnUse"><stop stop-color="#fde357"/><stop offset=".44" stop-color="#dc8f21"/><stop offset="1" stop-color="#fbf1bf"/></linearGradient><linearGradient id="SVGBCmkTcSH" x1="8.839" x2="16.039" y1="4.021" y2="19.601" gradientUnits="userSpaceOnUse"><stop stop-color="#fde357"/><stop offset=".44" stop-color="#dc8f21"/><stop offset="1" stop-color="#fbf1bf"/></linearGradient><linearGradient id="SVGWN2m8cTm" x1="9.736" x2="15.245" y1="6.354" y2="16.944" gradientUnits="userSpaceOnUse"><stop stop-color="#fefacf"/><stop offset="1" stop-color="#7f5015"/></linearGradient><linearGradient id="SVGPZQGIcjj" x1="11.975" x2="11.85" y1="6.429" y2="20.079" gradientUnits="userSpaceOnUse"><stop stop-color="#006ea6"/><stop offset=".3" stop-color="#024385"/><stop offset=".47" stop-color="#0b4c8b"/><stop offset=".74" stop-color="#7bc2df"/><stop offset=".84" stop-color="#cae8f4"/></linearGradient><linearGradient id="SVGFkEf6cJI" x1="11.375" x2="11.375" y1="6.615" y2="15.74" gradientUnits="userSpaceOnUse"><stop stop-color="#e4f3fa"/><stop offset=".52" stop-color="#a9d8ec"/><stop offset=".86" stop-color="#85c3e1"/></linearGradient></defs></g></svg>