<svg xmlns="http://www.w3.org/2000/svg" viewBox="0 0 24 24"><g fill="none"><path fill="#231f20" d="M9.721 6.795c.837-.085 1.822.264 2.277.264s1.44-.35 2.277-.264c1.572-1.594 2.758-4.437 4.532-3.664c.582.248 1.27 1.111 1.112 2.387c-.17 1.277-.837 2.897-.837 2.897a1.6 1.6 0 0 0-.047.44c.121.613.105 1.932-.922 2.26c-.026.228-.174.688-.423 1.154c0 .757.116 2.044.137 2.34c.07 1.006-.016 2.478-1.164 3.558c-.461.434-1.027.704-1.525 1.08c-.307.233-.567.53-.863.79a3.47 3.47 0 0 1-2.277.963a3.47 3.47 0 0 1-2.277-.964c-.296-.26-.556-.556-.863-.794c-.497-.37-1.059-.64-1.52-1.075c-1.153-1.08-1.238-2.546-1.164-3.558c.016-.296.132-1.583.132-2.34a3.9 3.9 0 0 1-.423-1.154c-1.027-.328-1.043-1.641-.921-2.26c0-.144-.011-.334-.053-.44c0 0-.662-1.62-.826-2.897c-.165-1.27.53-2.139 1.106-2.387c1.774-.773 2.96 2.07 4.532 3.664"/><path fill="#7c6261" d="M5.347 7.472c-.254-.709-.498-1.535-.54-2.176c-.042-.677.212-1.07.492-1.28c.44-.33.826-.213 1.176.19c.519.587 1.064 1.742 1.27 2.922c.106.63.043 1.096-.095 1.435c-.222.556-1.027 1.244-1.535.657c-.376-.45-.572-1.202-.768-1.748m13.205 0c.254-.709.492-1.535.534-2.176c.048-.677-.211-1.07-.487-1.28c-.44-.33-.826-.213-1.175.19a6.5 6.5 0 0 0-1.27 2.922c-.102.478-.07.975.095 1.435c.222.556 1.021 1.244 1.53.657c.38-.45.582-1.202.773-1.748"/><path fill="#e3ba6a" fill-rule="evenodd" d="M7.286 10.094c-.53.466-.688.651-.715.837c0 .127.117.386.233.635c.08.185.164.37.196.492c.048.128.095.795-.074 2.42c.117-.016.424-.016.73.08c.864.27 1.208-.133 1.748-.943l.08-.127c.56-.847 1.027-1.562 2.514-1.562c1.499 0 1.938.678 2.473 1.499l.127.19c.535.81.879 1.218 1.747.943a2 2 0 0 1 .726-.08c-.17-1.625-.122-2.292-.075-2.42c.032-.127.117-.307.196-.492c.117-.249.233-.508.233-.635c-.026-.186-.185-.37-.72-.837q-.72-.66-1.323-1.43l-.191-.238c-.233-.29-.651-.826-.927-.873c-.18-.027-.688.053-1.201.127c-.424.063-.848.127-1.065.127s-.64-.064-1.064-.127c-.508-.08-1.022-.159-1.202-.127c-.275.047-.693.582-.926.873l-.106.138c-.021.027-.053.058-.08.1c-.233.287-.74.917-1.329 1.43zm2.17-.063c-.529.116-1 .497-1.217.725c.498-.175 1.191-.28 1.583-.037c.302.185.487.688.55 1.244c.18-.307.319-.884.244-1.313c-.105-.598-.656-.741-1.164-.62zm6.328.725a2.74 2.74 0 0 0-1.218-.725c-.508-.117-1.059.02-1.165.62c-.074.428.07 1.005.244 1.312c.063-.556.254-1.059.556-1.244c.386-.243 1.08-.138 1.588.037zM9.96 12.35c-.291-1.377-1.61-1.446-2.054-.344c.074.307.354.91.91.878a1.83 1.83 0 0 0 1.144-.529zm6.13-.344c-.444-1.102-1.762-1.038-2.053.344c.153.164.593.503 1.143.53c.556.036.837-.567.91-.874" clip-rule="evenodd"/><path fill="#fff" d="M8.572 12.137A.233.233 0 0 0 8.8 11.9a.233.233 0 0 0-.228-.238a.233.233 0 0 0-.228.238c0 .132.102.238.228.238m6.168-.001a.233.233 0 0 0 .229-.238a.233.233 0 0 0-.228-.238a.233.233 0 0 0-.228.238c0 .132.102.238.228.238"/><path fill="#67686c" fill-rule="evenodd" d="M7.238 15.166c-.28-.106-.36.148-.36.413c.006.677.376 1.196.88 1.546c.905.635 2.011.699 2.895 0a4.53 4.53 0 0 0 1.345-1.97a4.53 4.53 0 0 0 1.345 1.97c.884.699 1.991.635 2.896 0a1.88 1.88 0 0 0 .88-1.546c0-.265-.08-.52-.36-.413c-.498.19-1.07.27-1.547 0a3.04 3.04 0 0 1-1.138-1.271c-.583-1.117-1.324-1.324-2.076-1.324c-.757 0-1.493.207-2.075 1.324a3.04 3.04 0 0 1-1.139 1.27c-.476.27-1.048.191-1.546 0m4.247-2.346a.78.78 0 0 0-.646.37c-.239.382-.286.488-.286.62c0 .17.159.477.513.477a.48.48 0 0 0 .419-.28l-.207-.197c-.016-.016-.032-.069.027-.132c.08-.08.18-.185.29-.122a.8.8 0 0 1 .191.185c.138.202-.084.53-.28.61c-.063.031-.18.121-.1.227c.105.132.465.424.592.424s.493-.292.593-.424c.08-.106-.037-.196-.106-.228c-.19-.08-.412-.407-.275-.609a.7.7 0 0 1 .19-.185c.112-.063.213.043.292.122c.058.063.042.116.026.132l-.206.196a.47.47 0 0 0 .418.28c.35 0 .514-.306.514-.476c0-.132-.053-.238-.286-.625a.8.8 0 0 0-.646-.37h-1.027z" clip-rule="evenodd"/><path fill="#fa8077" d="M10.917 17.681a1.8 1.8 0 0 1-.62.302c.086.296.366.884.721.916c.44.042.778-.037.98-.143c.2.106.54.185.979.143c.355-.032.635-.62.72-.916a1.8 1.8 0 0 1-.62-.302c-.37-.265-.952-.159-1.08.53c-.127-.689-.704-.795-1.08-.53"/><path fill="#67686c" d="M9.72 18.14c-.544.09-1.005 0-1.17-.053c.26.175.88.62 1.293 1.027c.518.503 1.223 1.128 2.155 1.128s1.64-.625 2.154-1.128q.606-.565 1.292-1.027c-.159.053-.625.143-1.165.053c-.105.651-.709 1.827-2.281 1.303c-1.573.524-2.171-.652-2.277-1.303"/></g></svg>