<svg width="128" height="128" version="1.1" viewBox="-1.4017 -1.4017 15.894 15.889" xmlns="http://www.w3.org/2000/svg">
 <g transform="translate(-96.513 -1.0081)">
  <path d="m101.86 1.6006a6.7504 6.7504 0 0 0-6.7504 6.7504 6.7504 6.7504 0 0 0 6.7504 6.7504 6.7504 6.7504 0 0 0 6.7504-6.7504 6.7504 6.7504 0 0 0-1.0062-3.5458l-1.509 0.16612-0.14318 0.020436-0.573 0.040872c-0.21443 0.023821-0.41654-0.038308-0.57286-0.16362-0.15461-0.12596-0.26279-0.2972-0.28649-0.51155l-0.0613-0.71618-0.17034-1.5889a6.7504 6.7504 0 0 0-2.428-0.45183zm0 3.2402a3.5102 3.5102 0 0 1 3.5102 3.5102 3.5102 3.5102 0 0 1-3.5102 3.5102 3.5102 3.5102 0 0 1-3.5102-3.5102 3.5102 3.5102 0 0 1 3.5102-3.5102z" fill="#d73f0e" stroke-linecap="round" stroke-linejoin="round" stroke-width="1.0757"/>
  <path d="m106.31 0.0036804-0.5946 0.067955c-0.35676 0.038707-0.59936 0.35738-0.56063 0.71352l0.20387 1.9027 0.0509 0.5946c0.0197 0.17798 0.10948 0.32014 0.23785 0.42472 0.12979 0.10404 0.29764 0.15569 0.47568 0.13591l0.47568-0.033977 0.11892-0.016961 3.7035-0.40773c0.35744-0.038707 0.6156-0.35608 0.57761-0.71352l-0.068-0.5946c-0.0379-0.35615-0.35741-0.61567-0.7135-0.57761l-3.058 0.33977-0.13591-1.2572c-0.0387-0.35744-0.35608-0.6156-0.71352-0.57761z" fill="#6caa24"/>
 </g>
</svg>
