<svg xmlns="http://www.w3.org/2000/svg" viewBox="0 0 24 24"><g fill="none"><path fill="#c6e9f4" d="M10.03 3.794L7.5 5.435l9-1.096z"/><path fill="#42c6ea" d="m14.25 8.992l-2.812-.82L16.5 4.339z"/><path fill="#42aadb" d="m11.439 8.173l-3.94-2.737L3 14.186z"/><path fill="#2a4d9b" d="M13.97 9.813L3 14.186h10.122z"/><path fill="#1b6db7" d="m13.127 14.186l1.403-4.648L21 12l-7.878 2.186z"/><path fill="#2589c9" d="m21 12l-4.5-7.661l-1.689 4.653z"/><path fill="#243e81" d="m12 20.206l1.127-6.02L20.999 12z"/><path fill="#1d1f50" d="M13.122 14.187H3l9 6.019z"/><path fill="#1996ce" d="m13.97 9.262l-2.531-1.09L3 14.186z"/><path fill="#7cd1ec" d="M11.439 8.172L7.5 5.435l9-1.096z"/></g></svg>