<svg xmlns="http://www.w3.org/2000/svg" viewBox="0 0 24 24"><g fill="none"><path fill="url(#SVGLEEzpbRK)" d="M4.291 7.636a38 38 0 0 1 2.414-1.021L6.022 9.05l1.79 4.267l.529 1.858l-2.7-1.128l-1.98-4.743l.635-1.668z"/><path fill="url(#SVGOY5xk05t)" d="m3.423 14.047l1.086-2.245l1.233 2.245l6.385 2.239l-2.98 1.625l-4.765-1.837z"/><path fill="url(#SVG9qpGQeKV)" d="m16.68 12.057l-1-2.541l-.34-.19l-2.853 7.003l-3.34 1.535l-2.404-.74l.805 2.329l1.832.894l4.706-2.223z"/><path fill="url(#SVGGEXJQbdN)" d="m14.552 20.388l-2.594-1.112l2.255-1.28l2.636-5.744l1.085 2.52l-1.831 4.891z"/><path fill="url(#SVGCO8gSSiy)" d="m18.146 9.712l-2.679-.984q1.257 3.03 2.446 6.088c.037.169-.54 1.72-.831 2.477l2.557-.942l.741-1.747z"/><path fill="url(#SVGZYXAeeHf)" d="m8.379 14.406l2.98-6.877l4.108 1.477l-3.065 7.258L8.38 14.41z"/><path fill="url(#SVGm3wyCdEt)" d="m14.7 5.889l-2.573 1.28l5.998 2.388l1.302 2.526l.974-2.287l-.613-1.906l-5.083-2.001z"/><path fill="url(#SVGMd6Jgsbi)" d="m16.425 4.306l.831 2.287l-.132.19l-2.361-.936l-3.192 1.365l-3.193 7.2l-1.106-2.758L9.633 5.63l4.855-2.07z"/><path fill="url(#SVGT2v8WdZx)" d="m5.975 8.965l1.81-4.637l2.002-.9l2.255 1.164l-2.255.937l-2.62 6.11L5.974 8.97z"/><path fill="#4ab7e5" d="m14.382 11.14l-.17-.085l-3.388-1.519l-.084.212l3.557 1.588z"/><path fill="#2e6ca9" d="m7.658 19.276l1.694.768l.064-.254l-1.615-.704l-.683-1.668l-.148-.148l-.106.148l.79 1.858z"/><path fill="#0b3463" d="m16.574 12.676l.064.323l.084-.19l.81 2.006l-1.81 4.42l.19.17l1.874-4.59l-.847-2.14z"/><path fill="#3286c1" d="m8.527 13.983l-.127-.154h-.042l-.831-1.943h-.212l.847 2.044a.212.212 0 0 0 .36.058z"/><path fill="#0b427b" d="m11.444 7.15l-.17-.154L8.4 13.831l.148.196l2.896-6.883z"/><path fill="#328aba" d="M14.72 5.502v.254l-3.276 1.392l-.17-.153z"/><path fill="#07366b" d="M4.8 12.231h-.354l.106.233l.042-.085a.04.04 0 0 1 .037-.022q.012 0 .022.006t.015.016l.82 1.985l5.554 2.309l-.085.042l.212.127v-.296l-5.574-2.351z"/><path fill="#327abb" d="m3.931 14.088l-.148.128l.635 1.64l4.601 1.885l2.15-.9l-.212-.127l-1.938.81l-4.431-1.837l-.662-1.599z"/><path fill="#1d4d76" d="m4.445 12.231l.106.233l-.635 1.561l.016.064l-.148.127l-.043-.127z"/><path fill="#348ac9" d="m5.742 13.937l2.128.879l.19-.064l-.02-.021l-.191-.196l-1.959-.768l-1.832-4.484h-.275l1.959 4.659z"/><path fill="#0b3061" d="m6.865 6.636l-2.292.958l.106.175l1.784-.773l-.868 2.011l2.255 5.527l.254.26v-.318L5.785 9.023L6.87 6.636z"/><path fill="#093062" d="m9.59 5.587l-.148-.19l-2.276 5.49l.148.211l2.277-5.506z"/><path fill="#0c2f57" d="m8.055 4.44l.07.079l1.64-.683l1.641.688l-.026.063l.042.191l.048-.021a.17.17 0 0 0 .106-.159v-.106c0-.047-.032-.09-.08-.111L9.83 3.635a.17.17 0 0 0-.132 0l-1.61.672a.084.084 0 0 0-.032.132"/><path fill="#2c73aa" d="m9.59 5.587l1.906-.842a.13.13 0 0 0 .074-.117l-.19-.042l-1.938.81z"/><path fill="#1f5275" d="m4.334 11.373l-.19.09l-1.107 2.562h.17l1.127-2.647z"/><path fill="#0e1d3d" d="m3 14.094l.037-.069h.17l-.016.07v.026l.82 2c0 .011.01.017.021.022l2.52 1.075l.027.026l1.006 2.637l.026.02l1.731.737h.032l2.435-1.012a.05.05 0 0 1 .037 0l2.647 1.117h.032l1.63-.688l.022-.026l1.111-2.488l.027-.022l2.583-1.032l.022-.021l.74-1.63h.255l-.784 1.82c0 .011-.01.016-.02.022l-2.69 1.074a.04.04 0 0 0-.027.027l-1.069 2.403l-.021.021l-1.843.795h-.031l-2.626-1.181h-.037l-2.435 1.011H9.3l-1.88-.773a.04.04 0 0 1-.026-.026l-.985-2.658l-.01-.013l-.016-.008l-2.478-.99a.04.04 0 0 1-.02-.026L3 14.126z"/><path fill="#348296" d="m19.935 12.4l.98 2.436h-.255l-.915-2.435z"/><path fill="#225973" d="m19.893 12.294l.043.106h-.19l-.064-.148l1.106-2.52l-.81-2.012c.17.048.895 1.948.895 1.948H21z"/><path fill="#377585" d="m20.259 7.705l.74 1.959h-.126l-.81-1.832l-2.361-1.027l.084-.127l2.467 1.021z"/><path fill="#255a73" d="m17.701 6.805l.085-.127l-.937-2.668l-.127.17z"/><path fill="#336c80" d="m14.7 3.173l2.15.836l-.127.17l-2.17-.943z"/><path fill="#0e3762" d="m9.872 5.65l.105.169l4.49-1.853l1.593.683l.683 1.705l.212.105v-.275l-.699-1.667l-1.704-.795a.21.21 0 0 0-.175 0z"/><path fill="#4396d9" d="m16.955 6.444l-.211-.09l-2.023-.852v.254l2.192.879z"/><path fill="#0f3467" d="m12.91 7.08l-.21-.15l2.191-.958l4.553 1.9l.747 1.795l-.784 1.853l-.153-.19l.704-1.663l-.662-1.604l-4.405-1.853l-1.98.874z"/><path fill="#3c94cc" d="m12.91 7.08l-.21-.15l.042.318L18.3 9.605l.783 1.921h.318l-.148-.195h-.064l-.762-1.943l-5.516-2.303z"/><path fill="#0a3260" d="m15.955 9.135l-.233-.318l2.446 1.022l1.895 4.569l-.726 1.731l-.169-.148l.662-1.625l-1.832-4.421z"/><path fill="#3b9ed4" d="m15.955 9.135l-.233-.318l-.064.17l2.404 5.744h.212z"/><path fill="#2b709c" d="m19.338 16.139l-.17-.148l-1.869.725v.275z"/><path fill="#3581bd" d="m14.043 20.173l1.868-.767l-.19-.17l-1.594.683l-1.853-.852v.296z"/><path fill="#0c396a" d="m14.276 18.208l-2.002.857l.233.106l1.938-.858z"/><path fill="#0c4d7d" d="m15.298 9.712l.127.233l.021-.064h.085l.81 2.028l-2.489 6.024l.17.191l2.53-6.194l-.873-2.223h-.381z"/><path fill="#266096" d="m9.358 20.05l4.66-1.926l-.17-.19l-4.426 1.852z"/><path fill="#092d54" d="m7.129 17.419l-.159-.148h.408l1.768.746l3.277-1.345l.17.106l-3.468 1.472l-2.001-.831z"/><path fill="#3584c7" d="m7.145 10.93l.02-.043l.149.212h-.339l-.937-2.203h.275z"/><path fill="#0d628f" d="m14.848 9.606l-3.441-1.477l-.043.106l-.132-.297h.339l3.536 1.536v.063l-.725 1.604l-.17-.084z"/><path fill="#0b799c" d="m10.274 10.289l.148.19l.037-.084l3.41 1.492l-.636 1.43l.19.132l.6-1.43l.084-.216l-3.41-1.514z"/><path fill="#3ca3d6" d="m13.423 13.448l-.19-.132l-3.388-1.472l-.08.17l3.595 1.561z"/><path fill="#0d668a" d="m12.466 15.73l-.233-.106l.677-1.492l-3.404-1.477l-.042.09l-.17-.212h.34l3.536 1.514z"/><path fill="#3790cc" d="m12.466 15.73l-.17-.127l-3.425-1.493l-.084.19l3.615 1.583z"/><path fill="#2e647a" d="M12.402 4.135L9.676 3.002l-1.996.874h.402l1.594-.635l2.726 1.111z"/><path fill="#0f2d54" d="m3.508 9.325l-.116.043l.751 2.096l.19-.09z"/><path fill="url(#SVG7kCHvM3q)" fill-rule="evenodd" d="M9.633 3.072a.17.17 0 0 1 .133 0l2.43 1.07a.16.16 0 0 0 .132 0l2.224-.9l2.122.9c.043.015.08.052.096.095l.884 2.393a.18.18 0 0 0 .09.095l2.17.958a.18.18 0 0 1 .085.09l.784 1.895a.15.15 0 0 1 0 .133l-1.06 2.371a.17.17 0 0 0-.004.133l.936 2.435a.2.2 0 0 1 0 .138l-.688 1.556a.17.17 0 0 1-.095.09l-2.504.995a.17.17 0 0 0-.095.09l-1.06 2.399a.17.17 0 0 1-.084.084l-1.572.673a.17.17 0 0 1-.138 0l-2.525-1.096a.17.17 0 0 0-.132 0l-2.335.969a.17.17 0 0 1-.132 0l-1.679-.689a.17.17 0 0 1-.09-.106l-.953-2.546a.17.17 0 0 0-.09-.1L4.06 16.19a.17.17 0 0 1-.095-.101l-.779-1.932a.17.17 0 0 1 0-.133l1.054-2.483a.17.17 0 0 0 0-.132l-.863-2.065a.17.17 0 0 1 0-.137l.81-1.864a.2.2 0 0 1 .095-.095l2.203-.868a.17.17 0 0 0 .09-.085L7.644 3.96a.17.17 0 0 1 .09-.084l1.895-.805zm7.66 13.659c0 .116.117.19.218.148l1.758-.752a.2.2 0 0 0 .095-.09l.646-1.588a.17.17 0 0 0 0-.127l-1.843-4.42a.17.17 0 0 0-.09-.09l-2.276-.954a.085.085 0 0 0-.106.106l2.361 5.765h.212l-.805 1.943l-.17.064zm-4.446-9.863a.17.17 0 0 0-.106.159v.068c0 .07.037.133.106.16l5.442 2.35l.747 1.794c.026.064.09.106.158.106h.053a.17.17 0 0 0 .16-.106l.724-1.609a.17.17 0 0 0 0-.132L19.47 7.98a.17.17 0 0 0-.096-.09l-4.42-1.848a.17.17 0 0 0-.133 0zM9.692 3.649a.17.17 0 0 1 .132 0l1.641.72c.064.027.106.09.106.159v.063a.17.17 0 0 1-.106.16l-1.816.783a.17.17 0 0 0-.09.09l-2.202 5.373a.17.17 0 0 1-.159.106h-.106a.17.17 0 0 1-.159-.106l-.815-1.906a.132.132 0 0 1 .122-.19h.074l1.81-4.378a.127.127 0 0 1 .038-.212l1.535-.657zm1.8 3.446a.17.17 0 0 0-.09.096l-2.833 6.723a.17.17 0 0 1-.158.106h-.096a.17.17 0 0 1-.159-.106l-.788-1.89a.1.1 0 0 1 .09-.137a.09.09 0 0 0 .09-.059L9.967 5.82a.08.08 0 0 0-.01-.085a.08.08 0 0 1 0-.106a.1.1 0 0 1 .031-.021l4.405-1.869a.17.17 0 0 1 .137 0l1.652.773a.17.17 0 0 1 .09.1l.609 1.753a.148.148 0 0 1-.201.185l-1.896-.789a.17.17 0 0 0-.132 0zm4.044 2.616c.07 0 .133.042.159.106l.784 2.027a.18.18 0 0 1 0 .127l-2.457 6.088a.17.17 0 0 1-.095.09l-4.5 1.864a.17.17 0 0 1-.138 0l-1.577-.71a.17.17 0 0 1-.085-.09l-.71-1.704a.17.17 0 0 1 .16-.233h.264c.021 0 .042 0 .064.01l1.683.73c.042.017.09.017.132 0l3.198-1.338l.17.105l.254-.592L15.399 10a.17.17 0 0 0 0-.105l-.043-.18h.18zm-3.05 9.476a.17.17 0 0 0-.022.228q.026.034.065.053l1.483.656a.2.2 0 0 0 .132 0l1.678-.688a.18.18 0 0 0 .09-.096l1.842-4.462a.17.17 0 0 0 0-.133l-.825-2.064h-.36l.063.212a.2.2 0 0 1 0 .121l-2.192 5.3l-.169-.107l-2.001.858l.233.106zm-.084-3.5a.17.17 0 0 1-.222.085l-3.23-1.429a.17.17 0 0 1-.084-.217l.667-1.535a.1.1 0 0 1 .047-.051a.1.1 0 0 1 .07-.002l3.35 1.44c.09.037.127.137.09.227zm1.022-2.27a.17.17 0 0 1-.228.09l-3.271-1.43a.17.17 0 0 1-.085-.217l.609-1.445a.17.17 0 0 1 .222-.09l3.282 1.408a.165.165 0 0 1 .09.217l-.02.058l-.594 1.403zm.937-2.24a.17.17 0 0 1-.162.101a.2.2 0 0 1-.066-.016l-3.245-1.44a.17.17 0 0 1-.09-.222l.62-1.504a.17.17 0 0 1 .157-.103a.2.2 0 0 1 .065.013l3.303 1.424c.085.037.127.138.085.222zM3.768 14.153a.17.17 0 0 1 0-.122l.65-1.694a.16.16 0 0 1 .16-.106h.084c.07 0 .133.042.16.106l.74 1.81c.016.042.053.08.09.095l5.405 2.256c.064.026.106.09.106.158v.075a.18.18 0 0 1-.106.158l-1.98.82a.17.17 0 0 1-.127 0l-4.446-1.841a.17.17 0 0 1-.09-.096zm2.011-5.125l2.303 5.463l-.042.17a.168.168 0 0 1-.228.121l-2.006-.82a.17.17 0 0 1-.09-.09L3.895 9.53a.17.17 0 0 1 .1-.223l.064-.026l.62-1.514a.143.143 0 0 1 .052-.228l1.72-.72a.17.17 0 0 1 .218.228l-.884 1.98z" clip-rule="evenodd"/><defs><linearGradient id="SVGLEEzpbRK" x1="9.352" x2="11.833" y1="5.107" y2="20.473" gradientUnits="userSpaceOnUse"><stop stop-color="#1155f2"/><stop offset="1" stop-color="#8fe7fb"/></linearGradient><linearGradient id="SVGOY5xk05t" x1="4.576" x2="20.88" y1="7.4" y2="13.527" gradientUnits="userSpaceOnUse"><stop stop-color="#114cf9"/><stop offset=".72" stop-color="#9ae5fa"/><stop offset="1" stop-color="#52c9fa"/></linearGradient><linearGradient id="SVG9qpGQeKV" x1="18.957" x2="8.398" y1="5.13" y2="20.757" gradientUnits="userSpaceOnUse"><stop stop-color="#5bddfb"/><stop offset=".23" stop-color="#d2fafb"/><stop offset="1" stop-color="#1659f1"/></linearGradient><linearGradient id="SVGGEXJQbdN" x1="18.114" x2="13.333" y1="6.538" y2="21.018" gradientUnits="userSpaceOnUse"><stop stop-color="#4ed3f9"/><stop offset=".23" stop-color="#82e0fa"/><stop offset="1" stop-color="#1563f1"/></linearGradient><linearGradient id="SVGCO8gSSiy" x1="8.605" x2="10.672" y1="4.984" y2="19.883" gradientUnits="userSpaceOnUse"><stop stop-color="#5edefb"/><stop offset="1" stop-color="#136de8"/></linearGradient><linearGradient id="SVGZYXAeeHf" x1="15.381" x2="10.179" y1="5.554" y2="19.779" gradientUnits="userSpaceOnUse"><stop stop-color="#73e2fc"/><stop offset=".25" stop-color="#d5f7fa"/><stop offset=".49" stop-color="#eafbfc"/><stop offset=".72" stop-color="#ccf6fb"/><stop offset="1" stop-color="#83e9fb"/></linearGradient><linearGradient id="SVGm3wyCdEt" x1="19.802" x2="5.126" y1="14.354" y2="9.247" gradientUnits="userSpaceOnUse"><stop stop-color="#1566f0"/><stop offset="1" stop-color="#87dcfb"/></linearGradient><linearGradient id="SVGMd6Jgsbi" x1="19.043" x2="5.262" y1="6.33" y2="19.749" gradientUnits="userSpaceOnUse"><stop stop-color="#1e68f3"/><stop offset=".33" stop-color="#5ac9fd"/><stop offset=".7" stop-color="#baf5fc"/><stop offset="1" stop-color="#50cffb"/></linearGradient><linearGradient id="SVGT2v8WdZx" x1="12" x2="8.991" y1="3.016" y2="19.628" gradientUnits="userSpaceOnUse"><stop stop-color="#2972f7"/><stop offset=".63" stop-color="#93e0fd"/><stop offset="1" stop-color="#8adafc"/></linearGradient><linearGradient id="SVG7kCHvM3q" x1="12.551" x2="15.468" y1="7.726" y2="20.018" gradientUnits="userSpaceOnUse"><stop stop-color="#255e8b"/><stop offset=".3" stop-color="#2492ae"/><stop offset="1" stop-color="#153a5a"/></linearGradient></defs></g></svg>