<svg xmlns="http://www.w3.org/2000/svg" viewBox="0 0 256 256"><defs><linearGradient id="SVGC7Cz9cJB" x1="0%" x2="99.999%" y1="50%" y2="50%"><stop offset="0%" stop-color="#246fdb"/><stop offset="5.52%" stop-color="#2973df"/><stop offset="27.81%" stop-color="#377deb"/><stop offset="54.91%" stop-color="#3f83f2"/><stop offset="100%" stop-color="#4285f4"/></linearGradient></defs><path fill="#ea4335" d="M173.2 82.8c25 25 25 65.5 0 90.5c-12.5 12.5-12.5 32.8 0 45.2c12.5 12.5 32.8 12.5 45.3 0c50-50 50-131 0-181z"/><path fill="url(#SVGC7Cz9cJB)" d="M218.4 37.5c-50-50-130.9-50-180.9 0s-50 131 0 181l45.3-45.2c-25-25-25-65.5 0-90.5s65.5-25 90.5 0c12.5 12.5 32.8 12.5 45.3 0c12.3-12.5 12.3-32.8-.2-45.3"/><path fill="#fbbc04" d="m218.4 218.5l-45.3-45.2c-25 25-65.5 25-90.5 0l-45.3 45.2c50.2 50 131.1 50 181.1 0"/><path fill="#ea4335" d="M173.2 173.3c12.5-12.5 32.7-12.5 45.2 0s12.5 32.8 0 45.3s-32.7 12.5-45.2 0s-12.5-32.8 0-45.3"/><path fill="#34a853" d="M37.5 173.3c12.5-12.5 32.7-12.5 45.2 0s12.5 32.8 0 45.3s-32.7 12.5-45.2 0s-12.5-32.8 0-45.3"/></svg>