<svg version="1.1" viewBox="0 0 128 128" xmlns="http://www.w3.org/2000/svg">
 <g transform="matrix(.5 0 0 .5 6.1957 4)">
  <path d="m205.27 93.21-43.55-75.43c-1.82-2.78-4.85-4.53-8.17-4.72h-87.1c-3.32 0.19-6.35 1.94-8.17 4.72l-43.56 75.43c-1.49 2.97-1.49 6.46 0 9.43l43.56 75.44c1.82 2.78 4.85 4.53 8.17 4.71h87.1c3.32-0.18 6.35-1.93 8.17-4.71l43.56-75.44c1.48-2.97 1.48-6.46-0.01-9.43z" fill="#f1decd"/>
  <polygon points="206.4 89.03 174.28 33.39 160.62 9.74 84.53 9.74 149.31 121.45" fill="#3ea8ff"/>
  <polygon points="60.78 9.74 48.73 26.46 83.12 86.01 113.96 139.45 159.89 113.73 128.69 59.7 99.86 9.74" fill="#2180ce"/>
  <polygon points="208.65 92.93 154.93 119.15 221.23 219.97" fill="#deba92"/>
  <polygon points="161.23 116.05 115.65 142.37 209.23 199.18" fill="#d49b64"/>
  <path d="m231.18 218.98-0.07-0.69c-0.86-9.39-11.15-121.38-11.18-121.86-0.23-2.84-1.07-5.6-2.45-8.09-0.03-0.09-0.07-0.17-0.11-0.25l-0.06-0.15-0.03 0.03-0.02-0.01 0.04-0.02-11.8-20.44-33.19-57.5c-3.58-6.19-10.18-10-17.33-10h-89.99c-7.14 0-13.74 3.81-17.32 10l-45 77.93c-3.57 6.19-3.57 13.81 0 20l45 77.93c3.57 6.19 10.17 10 17.32 10h89.99c3.86-0.03 7.63-1.19 10.85-3.32l38.59 27.68c-6.97-2.18-14.18-3.47-21.47-3.83-18.11-0.87-71.2-0.28-131.42 4.63-24.71 2.01-36.39 7.88-35.03 9.03 3.49 2.98 7.62 4.16 28.2 4.08 18.32-0.06 71.65 1.91 87.76 2.9 11.41 0.71 23.41 2.88 32.04 2.97 9.2-0.12 18.37-0.82 27.48-2.1 13.74-1.89 31.96-5.7 36.15-10.77 2.21-2.1 3.34-5.11 3.05-8.15zm-168.69-194.66c1.67-2.55 4.45-4.16 7.5-4.33h79.99c3.04 0.17 5.81 1.77 7.49 4.31l33.26 57.61c-4.99 5.2-9.32 11-12.89 17.26l-24.77 2.75-14.77 20.08c-7.21-0.04-14.4 0.82-21.4 2.54l-56.13-97.23zm7.5 151.54c-3.05-0.17-5.83-1.78-7.5-4.33l-40-69.27c-1.37-2.72-1.37-5.94 0-8.66l26.73-46.28 59.6 103.24 0.04-0.02c0.69 1.24 1.64 2.31 2.79 3.15l30.93 22.18zm116.76 7.07-57.9-41.53c6.39-1.39 12.91-2.09 19.45-2.09l14.77-20.07 24.77-2.75c3.26-5.66 7.13-10.95 11.52-15.79l7.03 70.9c-8.32-0.89-16.26 3.69-19.64 11.33zm-105.11-28.22c1.49 2.33 0.8 5.42-1.52 6.91-2.33 1.49-5.42 0.8-6.91-1.52-0.08-0.12-0.15-0.25-0.22-0.38l-35-60.61c-1.49-2.33-0.8-5.42 1.52-6.91 2.33-1.49 5.42-0.8 6.91 1.52 0.08 0.12 0.15 0.25 0.22 0.38z" fill="#473a3a"/>
 </g>
</svg>
