<svg version="1.1" viewBox="0 0 64 64" xmlns="http://www.w3.org/2000/svg">
 <path d="m32 3.52c-15.74 0-28.48 12.74-28.48 28.48s12.74 28.48 28.48 28.48 28.48-12.74 28.48-28.48-12.74-28.48-28.48-28.48zm-15.29 44.66c-0.22 0-0.45-0.05-0.63-0.13-0.76-0.31-1.25-1.07-1.25-2.1v-14.13c0-1.88 1.52-3.4 3.4-3.4h10.01c0.63 0 1.16 0.54 1.16 1.16s-0.54 1.16-1.16 1.16h-10.01c-0.58 0-1.07 0.49-1.07 1.07v13.41l21.5-21.5h-4.2c-0.63 0-1.16-0.54-1.16-1.16s0.54-1.16 1.16-1.16h6.48c0.89 0 1.65 0.72 1.65 1.65v6.17c0 0.62-0.54 1.16-1.16 1.16s-1.16-0.54-1.16-1.16v-3.89l-22.26 22.26c-0.36 0.36-0.8 0.58-1.3 0.58m31.74-9.78c0 2.19-1.79 3.93-3.93 3.93h-8.94v3.44c0 1.88-1.52 3.4-3.4 3.4h-9.03c-0.63 0-1.16-0.54-1.16-1.16s0.54-1.16 1.16-1.16h9.03c0.58 0 1.07-0.49 1.07-1.07v-10.02c0-0.63 0.54-1.16 1.16-1.16s1.16 0.54 1.16 1.16v4.29h8.94c0.89 0 1.65-0.76 1.65-1.65v-18.91c0-0.89-0.76-1.65-1.65-1.65h-18.91c-0.89 0-1.65 0.76-1.65 1.65v6.12c0 0.63-0.54 1.16-1.16 1.16s-1.16-0.54-1.16-1.16v-6.12c0-2.19 1.79-3.93 3.94-3.93h18.91c2.19 0 3.93 1.79 3.93 3.93l0.05 18.91z" clip-rule="evenodd" fill="#22415d" fill-rule="evenodd"/>
</svg>
