<svg xmlns="http://www.w3.org/2000/svg" viewBox="59.23 0 171.86 171.87"><path fill="#E04403" d="M59.23 0h171.86v171.87H59.23z"/><path fill="#FFF" d="M157.61 24.43h42.97V67.4h-42.97zM103.72 139.13c-7 0-14.46-1.95-14.46-18.95s9-20 16.57-20a19.57 19.57 0 0 1 8.89 2v6.06a31.25 31.25 0 0 0-8.89-1.89c-3.84 0-9 2.06-9 13.37 0 12 4 13.44 6.77 13.44a33 33 0 0 0 5.15-.55V121.1h-5.15l-.54-5.8h13.27v21.88a52.79 52.79 0 0 1-12.61 1.95ZM145.8 107.18h-8.34v31.41h-7.59v-31.41h-9.2v-6.5h26zM162 139.13c-6.34 0-13.43-2-13.43-19.5s8.93-19.49 14.13-19.49a17 17 0 0 1 7 1.35v6.12a24.14 24.14 0 0 0-6.61-1.3c-3.68 0-6.93 2.22-6.93 13.32 0 9.92 2.33 13.27 6.39 13.27a24.18 24.18 0 0 0 7.15-1.35v6.12a18.29 18.29 0 0 1-7.7 1.46ZM187.28 139.13c-5.85 0-13.54-1.19-13.54-19.5s8.18-19.49 13.54-19.49c5.36 0 13.54 1.3 13.54 19.49 0 18.47-7.82 19.5-13.54 19.5Zm0-33.58c-3.79 0-6 2.49-6 14.08 0 11.76 2.76 14.09 6 14.09s5.95-2.17 5.95-14.09c0-11.37-2.23-14.08-5.95-14.08Z"/></svg>