<svg xmlns="http://www.w3.org/2000/svg" viewBox="0 0 24 24"><g fill="none"><path fill="url(#SVGJwQ3FbaT)" d="M9.48 4.588h4.484l.111.011c1.112.021 2.224.08 3.32.28c.62.112 1.217.281 1.779.567a2.87 2.87 0 0 1 1.508 1.673A6.4 6.4 0 0 1 21 9.184v.17h-3.706l-.016-.36a1.5 1.5 0 0 0-.047-.266c-.281-1.048-1.97-.953-2.812-.963c-1.662 0-3.33 0-4.992.01c-.953.011-1.885.223-2.361 1.133a3.6 3.6 0 0 0-.36 1.504h4.712l-.133.08c-1.524.936-2.975 1.969-4.5 2.9c-.063.038-.09.08-.08.149c.043.36.064.72.128 1.074c.069.419.18.784.53 1.06c.253.195.555.317.873.38a8.7 8.7 0 0 0 1.81.18h3.4c.772 0 1.577-.026 2.345-.148c.725-.122 1.482-.434 1.503-1.286c.021-.456 0-.752 0-1.213H12l.37-.217c1.541-.947 3.32-2.017 4.866-2.959H21v.201c0 .784-.016 1.567-.016 2.356c0 .672-.005 1.345-.074 2.022c-.053.562-.138 1.123-.318 1.657a3.28 3.28 0 0 1-1.625 1.965a5.5 5.5 0 0 1-1.615.529c-.963.18-1.937.249-2.922.26c-1.308.01-2.615.005-3.918.01c-.92 0-1.842 0-2.758-.095a9.6 9.6 0 0 1-1.747-.307a3.57 3.57 0 0 1-2.679-2.61a9 9 0 0 1-.29-1.827L3 14.075v-3.557l.01-.08c.038-.492.064-.979.117-1.466a6.7 6.7 0 0 1 .328-1.546c.318-.884.858-1.583 1.705-2.043c.598-.318 1.239-.488 1.906-.599a17 17 0 0 1 2.276-.19c.053.005.096 0 .138-.006"/><path fill="url(#SVGdsmpbcwh)" d="m6.299 13.269l.122-.471c.01-.053.037-.085.09-.111c.91-.424 1.82-.848 2.72-1.287c1.118-.55 2.23-1.122 3.336-1.683l.471-.233a.13.13 0 0 1 .08-.016l-6.57 4.04c-.085-.07-.16-.138-.25-.202v-.042z"/><path fill="url(#SVGt5dircyG)" d="M9.83 14.91c2.287-1.418 5.119-3.08 7.411-4.5c.112.133.027.36.133.498c.032.037.026.106.032.16c.01.09.042.19.005.253c-.037.059-.143.085-.223.122c-2.302 1.096-5.06 2.366-7.358 3.468"/><defs><linearGradient id="SVGJwQ3FbaT" x1="12.011" x2="12.011" y1="19.232" y2="4.535" gradientUnits="userSpaceOnUse"><stop stop-color="#009c8b"/><stop offset=".5" stop-color="#3f2d87"/><stop offset="1" stop-color="#aa2b87"/></linearGradient><linearGradient id="SVGdsmpbcwh" x1="12.001" x2="12.001" y1="40.404" y2="-13.509" gradientUnits="userSpaceOnUse"><stop stop-color="#009c8b"/><stop offset=".5" stop-color="#3f2d87"/><stop offset="1" stop-color="#aa2b87"/></linearGradient><linearGradient id="SVGt5dircyG" x1="13.806" x2="13.806" y1="19.231" y2="4.534" gradientUnits="userSpaceOnUse"><stop stop-color="#009c8b"/><stop offset=".5" stop-color="#3f2d87"/><stop offset="1" stop-color="#aa2b87"/></linearGradient></defs></g></svg>