<svg xmlns="http://www.w3.org/2000/svg" viewBox="0 0 24 24"><g fill="none"><path fill="#000" fill-rule="evenodd" d="M12 20.47a8.47 8.47 0 1 0 0-16.94a8.47 8.47 0 0 0 0 16.94m0 .53a9 9 0 1 0 0-18a9 9 0 0 0 0 18" clip-rule="evenodd"/><path fill="#000" d="M11.47 8.294H9.353l.529.53v5.823l-.53.53h2.118l-.53-.53V8.824z"/><path fill="#3fd0c8" d="M6.706 13.588V12.21c.608-.678 1.747-1.848 2.784-1.668c.64.106.9.885.837 1.451c.212-.212.423-.434.672-.603c.185-.133.567-.334.974-.127c.376.185.53.513.598.767l.149-.09c.338-.201.847-.471 1.397-.471h3.177v1.059h-3.177c-.392 0-.757.26-1.074.46c-.233.149-.487.334-.779.334c-.19 0-.36-.08-.476-.217c-.201-.233-.159-.53-.238-.81c-.334.26-.583.603-.932.847c-.185.127-.567.328-.974.122a.9.9 0 0 1-.334-.27c-.344-.477.127-.927-.069-1.382c-.92.328-1.905 1.276-2.535 1.975"/><path fill="#000" d="M14.647 8.294h-2.118l.53.53v5.823l-.53.53h2.118l-.53-.53V8.824z"/></g></svg>