<svg xmlns="http://www.w3.org/2000/svg" viewBox="0 0 24 24"><g fill="#ffaa4d"><path d="M13.125 5.57c0-1.417 1.26-2.57 2.813-2.57c1.552 0 2.812 1.153 2.812 2.57v12.86c0 1.417-1.26 2.57-2.812 2.57c-1.553 0-2.813-1.153-2.813-2.57z"/><path d="M10.886 14.813a2.802 2.802 0 0 0 1.975-4.804a2.8 2.8 0 0 0-1.986-.822zM8.062 3C6.51 3 5.25 4.153 5.25 5.57v12.86c0 1.417 1.26 2.57 2.812 2.57c1.553 0 2.813-1.153 2.813-2.57V5.57c0-1.417-1.26-2.57-2.813-2.57m2.813 6.187l-.011 5.626a2.802 2.802 0 0 1-1.975-4.804a2.8 2.8 0 0 1 1.986-.822"/></g></svg>