<svg xmlns="http://www.w3.org/2000/svg" viewBox="0 0 24 24"><g fill="none"><path fill="#1b2126" d="m8.65 4.023l-4.5-1.02a.122.122 0 0 0-.15.118v17.758c0 .076.07.135.145.118l4.502-.927a.12.12 0 0 0 .097-.118V4.138a.115.115 0 0 0-.093-.115m7.699 0l4.501-1.02a.122.122 0 0 1 .149.118v17.758a.12.12 0 0 1-.145.118l-4.502-.927a.12.12 0 0 1-.097-.118V4.138c0-.056.038-.104.093-.115"/><path fill="#0080ff" d="M10.128 9.572h4.744l-4.744 4.742z"/><path fill="#0072e5" d="M14.872 14.314h-4.744l4.744-4.742z"/></g></svg>