<svg xmlns="http://www.w3.org/2000/svg" viewBox="0 0 24 24"><g fill="none"><path fill="url(#SVGbFfWmd9v)" d="M11.658 6.26c.119-.096.247-.38.299-.508v12.642c-.332-.303-1.033-.441-1.35-.484c.1.17.284.389.374.483c-.53-.075-.923-.464-1.317-.852c-.378-.374-.762-.748-1.26-.824a3.5 3.5 0 0 0-1.245.061l-.384 1.616c-.208-.616-.947-1.663-1.288-2.113l.147-2.728l-.085-.152c-.787-1.397-1.241-2.197-.971-3.77c.118-1.089.052-1.184-.303-1.733L4.019 7.5a4.8 4.8 0 0 1-.72-1.895C4.317 6.846 5.217 7.33 5.662 7.33a2.3 2.3 0 0 1 1.199 0c.033-.033.374-.094 1.468-.085c1.103.01 1.747-.166 1.932-.256c.417-.203 1.279-.63 1.397-.729m.597 0c-.123-.096-.25-.38-.298-.508v12.642c.327-.303 1.032-.441 1.35-.484q-.165.259-.375.483c.526-.075.924-.464 1.317-.852c.38-.374.758-.748 1.255-.824a3.5 3.5 0 0 1 1.25.061l.384 1.616c.209-.616.948-1.663 1.288-2.113l-.15-2.728l.084-.152c.791-1.397 1.241-2.197.976-3.77c-.118-1.089-.057-1.184.303-1.733l.256-.398a4.8 4.8 0 0 0 .72-1.895C19.596 6.846 18.697 7.33 18.25 7.33a2.3 2.3 0 0 0-1.198 0c-.033-.033-.374-.094-1.468-.085c-1.104.01-1.753-.166-1.933-.256c-.416-.203-1.278-.63-1.397-.729"/><path fill="url(#SVGjJ8MvbFW)" d="M10.599 17.881a3.7 3.7 0 0 1-.569-1.44v-.004c0-.1 0-.313-.559-.592l-.421.123c.237.113.71.36.743.445c.029.09.171.677.237.962a2.76 2.76 0 0 0-2.984-.962l.076.38l.029.013l.01-.028a3.7 3.7 0 0 1 1.245-.062c.497.076.876.45 1.26.83c.393.383.786.771 1.316.847a3 3 0 0 1-.383-.512"/><path fill="url(#SVGGADbPd4T)" d="M7.159 16.783v-.014L6.107 12.87c-.942-1.516-.819-2.68-.435-3.855a1.78 1.78 0 0 0-.27-1.73c-.488-.141-1.255-.643-2.103-1.68c.156.421.379.771.616 1.08c.127.165.274.33.426.487c.388.426.777.853.824 1.355c.033.346-.028.705-.095 1.099a8 8 0 0 0-.113.88c-.062.882.473 2.004.753 2.45l.715 1.515l.355 3.898l.379-1.592z"/><path fill="url(#SVGxVhWcdvs)" d="m6.78 18.37l-.355-3.893l-.715-1.516c-.275-.45-.815-1.572-.758-2.453a9 9 0 0 1 .118-.881c.067-.394.128-.758.095-1.1c-.047-.506-.436-.932-.824-1.354a7 7 0 0 1-.426-.488a4.2 4.2 0 0 1-.616-1.08c.028.356.218 1.076.72 1.895c.094.161.184.289.256.398c.355.545.421.64.303 1.733c-.27 1.573.184 2.373.97 3.77l.086.152l-.147 2.728c.341.45 1.08 1.502 1.288 2.113v-.024z"/><path fill="url(#SVGgJrnKevy)" d="M5.403 7.287c.222.246.473.781.336 1.468c.095-.204.332-.436.824-.332l1.265.252a20 20 0 0 1-.995-1.355a2.3 2.3 0 0 0-1.17.01a1 1 0 0 1-.26-.043"/><path fill="url(#SVGvCC7uduK)" d="M5.947 8.4a3.2 3.2 0 0 0-.222-.828a1.9 1.9 0 0 1 1.051-.048c.133.223.398.668.37.678c-.038.014-.668-.142-.83-.142c-.127 0-.302.222-.369.336z"/><path fill="url(#SVGdmjM9bWW)" d="M5.946 8.4c.071-.081.256-.233.393-.223c.086.005.237.052.38.095c.156.052.307.1.35.09c.07-.024.08-.114.076-.161a2 2 0 0 1-.299-.053c-.199-.042-.44-.094-.53-.094c-.128 0-.303.227-.37.34z"/><path fill="#bca98a" d="M6.391 7.69c-.109.023-.19.142-.213.198c.17-.175.408-.094.507-.038c-.052-.061-.19-.175-.294-.156z"/><path fill="url(#SVGusqaJceF)" d="m7.785 8.202l-.53-.71c.582-.19 1.45 0 2.24-.077c.791-.075 1.459-.473 1.61-.535c.119-.047.147.047.147.095a.36.36 0 0 1 .299-.057l.407.303v.436a.28.28 0 0 0-.237.132H8.813c-.511 0-.9.275-1.023.413z"/><path fill="url(#SVGjwoCnWLI)" d="M7.874 8.675L6.86 7.33c.034-.033.375-.095 1.469-.085c1.103.01 1.747-.166 1.932-.256a18 18 0 0 0 1.397-.73c.119-.094.247-.378.299-.506V8.06l-.014.104c-.01 0-.02.019-.024.038c-.01.023-.024.047-.048.047H8.764c-.483 0-.795.284-.89.426m-.616-1.184l.53.71c.277-.262.643-.41 1.024-.411h2.908a.28.28 0 0 1 .237-.133V7.22l-.408-.303a.36.36 0 0 0-.298.057c0-.047-.028-.142-.147-.095l-.118.057c-.26.133-.834.417-1.492.474a7 7 0 0 1-1.004.004c-.46-.019-.896-.033-1.232.071z"/><path fill="#19150a" d="M7.326 7.576c.53-.056.814-.033 1.132-.014c.236.014.483.033.866.024a5.6 5.6 0 0 0 1.73-.488l.113.185l.308-.185l.483.332v-.21l-.408-.303a.36.36 0 0 0-.298.057c0-.048-.029-.142-.147-.095l-.118.057c-.26.133-.834.417-1.492.474a7 7 0 0 1-1.004.004c-.46-.019-.895-.033-1.232.071l.067.095z"/><path fill="url(#SVGfHCmekSK)" d="M11.953 7.79v-.133a.28.28 0 0 0-.232.132H8.813c-.512 0-.9.275-1.023.412l-.474-.634c-.047-.01-.118 0-.085.075c.047.11.506.659.544.682c.015.01.067-.028.142-.075c.157-.095.408-.251.64-.275c.275-.033 2.008-.014 2.842 0h.284c.057 0 .109-.057.16-.104c.043-.043.081-.08.114-.08z"/><path fill="url(#SVGo0Xp1bqo)" d="M10.064 17.532c-1.156-1.204-2.179-1.104-3.041-1.104l1.345-.654l.767.18l.659.403c.047.028.075.166.085.218l.19.957z"/><path fill="url(#SVGwp6cWbDw)" d="M10.026 17.376c.033.128-.02-.095 0 0a2.76 2.76 0 0 0-2.98-.962v.014h.161c.825-.009 1.781-.014 2.856 1.104z"/><path fill="url(#SVGSfaCvdzt)" d="m11.953 16.235l-.616.388c-.09-.071-.327-.17-.545-.024c-.01.015-.061.034-.17-.038l-.299-.18l-.876-.549l-.1.114l.664.426c.104.725.52 1.54.597 1.54c.317.042 1.022.18 1.35.482v-2.16z"/><path fill="url(#SVGbp5d3ctB)" d="M10.012 16.367c.284.18.568.332.758.389a.83.83 0 0 1 .53 0l.659-.313v-.208l-.616.388c-.095-.071-.332-.17-.55-.024c-.01.015-.061.034-.17-.038l-.299-.18l-.876-.549l-.08.095c.142.1.331.237.535.37l.114.07z"/><path fill="url(#SVGNZ1pcdva)" d="M10.93 17.02c0 .033-.17.08-.26.1c-.024.047.122.061.222.085s.075.085.123.123c.047.033.483.204.71.36c.176.128.143.2.11.218a2.2 2.2 0 0 0-1.166-.251q-.194-.446-.37-.9c-.013-.061.024-.038.096-.024c.075.015.151.18.336.157c.19-.024.199.094.199.132"/><path fill="url(#SVGKZ18So3y)" d="M10.328 16.83c-.048-.01-.08 0-.052.08c.037.12.213.57.293.744c.01.033.047.11.076.11h.01c.085 0 .644-.015 1.065.227c.062.037.175.033.104-.09a2.24 2.24 0 0 0-1.155-.247c-.095-.227-.275-.649-.341-.824"/><path fill="url(#SVG55JTeOGO)" d="M13.317 17.881c.157-.203.445-.739.569-1.44v-.004c0-.1 0-.313.559-.592l.421.123c-.237.113-.71.36-.744.445c-.028.09-.17.677-.236.962a2.76 2.76 0 0 1 2.983-.962l-.075.38l-.029.013l-.01-.028a3.5 3.5 0 0 0-1.25-.062c-.492.076-.871.45-1.255.83c-.393.383-.79.771-1.316.847c.085-.095.284-.332.383-.512"/><path fill="url(#SVGdJIRSxvc)" d="M16.756 16.783v-.014l1.051-3.898c.943-1.516.82-2.68.436-3.855a1.78 1.78 0 0 1 .27-1.73c.488-.141 1.255-.643 2.103-1.68A4.1 4.1 0 0 1 20 6.685a7 7 0 0 1-.426.487c-.388.426-.777.853-.824 1.355c-.033.346.028.705.095 1.099c.047.274.094.568.113.88c.062.882-.473 2.004-.757 2.45l-.711 1.515l-.355 3.898l-.38-1.592z"/><path fill="url(#SVGhlw5wbSr)" d="m17.134 18.37l.35-3.893l.72-1.516c.275-.45.815-1.572.758-2.453c-.024-.313-.076-.607-.118-.881a4.4 4.4 0 0 1-.095-1.1c.047-.506.436-.932.824-1.354c.147-.16.299-.322.426-.488c.237-.308.46-.663.616-1.08a4.8 4.8 0 0 1-.72 1.895l-.256.398c-.36.545-.421.64-.303 1.733c.266 1.573-.184 2.373-.976 3.77l-.085.152l.152 2.728c-.346.45-1.08 1.502-1.288 2.113z"/><path fill="url(#SVGewAExcah)" d="M18.512 7.287c-.223.246-.474.782-.341 1.468c-.09-.203-.327-.435-.82-.331l-1.264.251c.227-.289.734-.947.995-1.355c.217-.061.71-.132 1.17.01a1 1 0 0 0 .26-.043"/><path fill="url(#SVGs61pSbVu)" d="M17.967 8.4c.01-.246.152-.653.223-.828a1.9 1.9 0 0 0-1.052-.048q-.215.322-.369.678c.038.014.663-.142.829-.142c.128 0 .298.222.37.336z"/><path fill="url(#SVG6oMM0dJV)" d="M17.967 8.4c-.075-.081-.255-.233-.393-.223c-.085.005-.237.052-.379.095c-.156.052-.308.1-.355.09c-.066-.024-.076-.114-.07-.161c.013.004.141-.02.297-.053c.2-.042.441-.094.531-.094c.128 0 .298.227.37.34z"/><path fill="#bca98a" d="M17.523 7.69c.11.023.19.142.214.198c-.17-.175-.412-.094-.512-.038c.057-.061.19-.175.298-.156z"/><path fill="url(#SVGWNqFjeTp)" d="m16.126 8.202l.53-.71c-.577-.19-1.444 0-2.235-.077c-.796-.075-1.464-.473-1.61-.535c-.119-.047-.147.047-.147.095a.36.36 0 0 0-.299-.057l-.407.303v.436c.128 0 .208.09.237.132h2.903c.516 0 .9.275 1.028.413"/><path fill="url(#SVGb406seJW)" d="m16.04 8.675l1.014-1.345c-.034-.033-.374-.095-1.469-.085c-1.103.01-1.752-.166-1.932-.256a18 18 0 0 1-1.397-.73c-.123-.094-.251-.378-.299-.506V8.06l.01.104c.014 0 .024.019.028.038c.01.023.02.047.048.047h3.107c.483 0 .795.284.89.426m.616-1.184l-.53.71a1.5 1.5 0 0 0-1.029-.411H12.19a.28.28 0 0 0-.236-.133V7.22l.412-.303c.047-.019.17-.028.298.057c0-.047.028-.142.147-.095l.118.057c.26.133.834.417 1.492.474c.332.033.673.019 1 .004c.464-.019.9-.033 1.236.071z"/><path fill="#19150a" d="M16.595 7.576a5.7 5.7 0 0 0-1.137-.014c-.237.014-.483.033-.867.024a5.6 5.6 0 0 1-1.728-.488l-.114.185l-.308-.185l-.483.332v-.21l.407-.303c.048-.019.17-.028.299.057c0-.048.028-.142.147-.095l.118.057c.26.133.834.417 1.492.474a7 7 0 0 0 1 .004c.463-.019.9-.033 1.235.071l-.066.095z"/><path fill="url(#SVGzHPAMbwM)" d="M11.953 7.79v-.133c.132 0 .213.09.236.132h2.909c.516 0 .9.275 1.027.412l.474-.634c.047-.01.118 0 .085.075c-.047.11-.511.659-.544.682c-.015.01-.067-.028-.147-.075c-.157-.095-.408-.251-.635-.275c-.275-.033-2.013-.014-2.842 0h-.284c-.057 0-.114-.057-.16-.104c-.048-.043-.081-.08-.115-.08z"/><path fill="url(#SVGo3kSMbCJ)" d="M13.848 17.532c1.16-1.204 2.178-1.104 3.045-1.104l-1.35-.654l-.767.18l-.654.403c-.047.028-.08.166-.085.218z"/><path fill="url(#SVGJIud1cOP)" d="M13.886 17.376c.023-.095-.029.128 0 0a2.76 2.76 0 0 1 2.983-.962v.015h-.16c-.825-.01-1.781-.014-2.861 1.103z"/><path fill="url(#SVGyC89Kcax)" d="M11.953 16.235c.16.094.502.312.62.388c.095-.071.332-.17.545-.024c.014.015.066.034.175-.038q.585-.367 1.175-.729l.094.114l-.663.426c-.1.725-.52 1.54-.592 1.54c-.322.042-1.023.18-1.35.482v-2.16z"/><path fill="url(#SVGRc8A6cZG)" d="M13.895 16.367c-.274.18-.559.332-.748.389a.8.8 0 0 0-.535 0l-.654-.313v-.208l.616.388c.095-.071.331-.17.544-.024c.015.015.067.034.176-.038q.585-.367 1.174-.729l.08.095c-.141.1-.33.237-.54.37l-.108.07z"/><path fill="url(#SVG0P7NCdAw)" d="M12.985 17.02c0 .033.17.08.256.1c.028.047-.124.061-.223.085c-.095.024-.071.085-.123.123c-.048.033-.483.204-.706.36c-.175.128-.142.2-.109.218c.355-.232.924-.265 1.16-.251c.124-.284.365-.853.375-.9c.01-.061-.024-.038-.1-.024c-.076.015-.147.18-.331.157c-.19-.024-.2.094-.2.132"/><path fill="url(#SVG9LJmrdqR)" d="M13.586 16.83c.043-.01.08 0 .052.08q-.135.378-.293.744c-.014.033-.048.11-.076.11h-.01c-.085 0-.644-.015-1.07.227c-.057.037-.17.033-.1-.09a2.24 2.24 0 0 1 1.152-.247c.099-.227.279-.649.345-.824"/><path fill="#c4802f" d="M3.854 10.214c.099-1.165-.521-1.563-.806-2.013c0 .445.062.824.09.962c.067.25.47.544.716 1.051"/><path fill="#221913" d="M3.062 8.215c.047.246.161.691.298.833c.235.34.403.721.498 1.123v.047c-.133-.27-.308-.478-.455-.653c-.128-.157-.237-.284-.265-.403a5 5 0 0 1-.076-.947"/><path fill="#fbc56b" d="M3.56 10.545a1.4 1.4 0 0 1-.512-.791c-.08.256-.095.871.25 1.137c.246.196.437.452.555.743c0-.227.07-.781-.294-1.09"/><path fill="#30120a" d="M3.048 9.759c0 .227.085.696.412 1.013c.274.275.364.616.379.834a1.8 1.8 0 0 0-.54-.71c-.346-.27-.332-.882-.251-1.137"/><path fill="#2d0700" d="M3.722 12.038a1.13 1.13 0 0 0-.597-.512c.114.11.062.341.275.839c.175.417.568.312.715.203c-.057-.042-.218-.213-.393-.53"/><path fill="url(#SVG8i3eKd8e)" d="M3.144 11.545c.1.095.275.322.44.71c.119.28.327.347.521.323l.01-.01c-.057-.042-.218-.213-.393-.53a1.13 1.13 0 0 0-.597-.512l.014.02z"/><path fill="#331200" d="M3.976 13.492c-.246 0-.417-.356-.469-.521c.36.232.569.118.758.132c.142.01.299.28.355.412c-.393-.303-.331-.023-.644-.023"/><path fill="#391101" d="M4.498 13.87c-.308.095-.507.038-.569 0c.142.208.299.308.408.341c.094.033.16-.029.246-.066c.128-.048.203-.048.25-.048c-.132-.241-.279-.255-.335-.227"/><path fill="url(#SVGQ38dHcEm)" d="M3.93 13.87c.084.08.27.199.482.19c.161 0 .294.009.408.037h.014c-.133-.241-.28-.255-.336-.227c-.308.095-.507.038-.569 0"/><path fill="#c4802f" d="M20.146 10.214c-.1-1.16.52-1.563.805-2.013c0 .445-.061.824-.09.962c-.066.25-.469.544-.715 1.051"/><path fill="#221913" d="M20.937 8.215c-.047.246-.16.691-.298.838a3.3 3.3 0 0 0-.497 1.118v.047c.132-.27.308-.478.454-.653c.128-.157.237-.284.265-.403q.082-.47.076-.947"/><path fill="#fbc56b" d="M20.44 10.545a1.4 1.4 0 0 0 .511-.791c.08.256.095.871-.25 1.137a1.8 1.8 0 0 0-.555.743c0-.227-.07-.781.294-1.09"/><path fill="#30120a" d="M20.953 9.759a1.52 1.52 0 0 1-.413 1.013c-.22.224-.355.52-.378.834c.066-.156.217-.455.54-.71c.345-.27.331-.882.25-1.137"/><path fill="#2d0700" d="M20.279 12.038c.18-.322.474-.474.597-.512c-.114.11-.062.341-.275.839c-.175.417-.568.312-.715.203c.057-.042.218-.213.393-.53"/><path fill="url(#SVGwhZh3dxd)" d="M20.857 11.545a2.2 2.2 0 0 0-.44.71c-.12.28-.328.347-.522.323l-.01-.01c.058-.042.219-.213.394-.53c.18-.322.474-.474.597-.512l-.015.02z"/><path fill="#331200" d="M20.024 13.492c.246 0 .416-.356.468-.521c-.36.232-.568.118-.757.132c-.142.01-.299.28-.356.412c.393-.303.332-.023.644-.023"/><path fill="#391101" d="M19.501 13.87c.308.095.507.038.569 0c-.142.208-.299.308-.408.341c-.094.033-.16-.029-.246-.066c-.128-.048-.204-.048-.251-.048c.133-.241.28-.255.332-.227z"/><path fill="url(#SVGI3eufczU)" d="M20.07 13.87a.7.7 0 0 1-.483.19a1.7 1.7 0 0 0-.408.037h-.014c.133-.241.28-.255.332-.227c.312.095.511.038.573 0"/><path fill="url(#SVGyJBRUdaC)" d="M6.79 9.428h.379v2.524H6.79z"/><path fill="url(#SVGB7dUze5B)" d="M7.17 9.428h.345v2.524H7.17z"/><path fill="url(#SVGaAQOvdfs)" d="M8.558 9.428h.37v2.524h-.37z"/><path fill="#fff8f2" d="M7.17 10.493h1.387v.194H7.17z"/><path fill="url(#SVGKZxvmorg)" d="m7.515 11.866l.1.085h-.886l.061-.047V9.441l-.066-.047h.89l-.094.085v1.014h.71V9.479l-.095-.085h.89l-.099.085v2.387l.095.085h-.88l.094-.085v-.985h-.71v.985zm.346-.644v.464l.014.014l.014-.014v-.464zm.014.886c.09.094.232.128.36.128h.691c.17 0 .36-.062.427-.237c.047-.123.014-.218-.08-.313V9.664a.33.33 0 0 0 .075-.355a.35.35 0 0 0-.322-.223h-.89a.36.36 0 0 0-.261.118a.35.35 0 0 0-.26-.118h-.891a.344.344 0 0 0-.337.411q.021.097.09.167v2.022c-.094.095-.122.19-.075.318c.066.175.25.232.421.232h.692c.128 0 .27-.029.36-.128M7.86 9.664l.014-.014l.014.014v.492H7.86z"/><path fill="#591812" d="m7.168 11.573l-.445.38h.89z"/><path fill="#f8f2de" d="m7.168 9.772l-.445-.378h.89z"/><path fill="url(#SVGROLASbfC)" d="M8.212 9.428h.346v2.524h-.346z"/><path fill="#f8f2de" d="m8.58 9.772l-.445-.378h.89z"/><path fill="#591812" d="m8.58 11.573l-.445.38h.89z"/><path fill="#fff8f2" d="M10.816 10.702h-.63v-.184h.952l-.317.184z"/><path fill="url(#SVGIQfJLb6z)" d="M9.84 9.428h.322v2.524H9.84z"/><path fill="url(#SVGNduNYbtY)" d="M10.162 9.428h.417v2.524h-.417z"/><path fill="url(#SVGwJT3teox)" d="m10.162 11.573l-.445.38h1.459l.213-.38z"/><path fill="#591910" d="M10.162 11.573c.076.08.251.232.36.232h.46c.094 0 .317-.165.397-.232h.01l-.213.38h-1.46z"/><path fill="#fff8f2" d="M10.816 10.702h-.654v-.184h.976l-.318.184z"/><path fill="url(#SVGcvZmqcfv)" d="M10.58 10.521v-.73c.032-.009.023 0 .066 0h.052a.5.5 0 0 1 .317.11l.18-.507H9.727l.118.104v2.35l-.123.103h1.459l.213-.379h-.815v-.691h.052q.09 0 .17.033l.081.029l.256-.427h-.559zm.478.71h.331a.35.35 0 0 1 .299.171a.33.33 0 0 1 0 .332l-.209.326a.35.35 0 0 1-.303.176H9.717a.35.35 0 0 1-.322-.223c-.052-.133-.014-.227.095-.322h.005V9.687a.33.33 0 0 1-.1-.378a.34.34 0 0 1 .322-.223h1.469a.35.35 0 0 1 .284.142a.34.34 0 0 1 .047.313l-.175.473a.34.34 0 0 1-.138.17a.35.35 0 0 1 .284.337c0 .06-.016.12-.047.17l-.265.427a.34.34 0 0 1-.118.118z"/><path fill="#f8f2de" d="m10.162 9.796l-.445-.402h1.468l-.27.25c-.336-.014-.336-.014-.753.152"/><path fill="url(#SVGqDL0kVdt)" d="M10.162 9.8c.02.034.066.096.137.086c.034 0 .062-.014.095-.028c.062-.024.133-.052.251-.067a.55.55 0 0 1 .37.11l.18-.507l-.275.25c-.317-.047-.507-.014-.753.157z"/><path fill="url(#SVGSUqvcdYN)" d="M11.205 13.094h.322v2.524h-.322z"/><path fill="url(#SVGBM90Id0u)" d="M11.522 13.094h.37v2.524h-.37z"/><path fill="#f8f2de" d="m11.527 13.469l-.45-.38h1.473l-.27.223c-.322-.047-.511-.014-.758.157z"/><path fill="url(#SVG69PUxbOP)" d="M11.527 13.469c.014.033.066.095.132.085a.4.4 0 0 0 .1-.033c.056-.02.128-.048.246-.066a.6.6 0 0 1 .374.108l.17-.473l-.27.222c-.321-.047-.51-.014-.757.157z"/><path fill="url(#SVGZ6Yqjd7H)" d="m11.527 15.238l-.45.38h1.464l.208-.38h-1.227z"/><path fill="#591910" d="M11.527 15.24c.071.075.246.231.355.231h.46c.095 0 .317-.17.402-.237h.005l-.208.38h-1.464l.445-.38z"/><path fill="#fff8f2" d="M12.18 14.368h-.658v-.185h.98z"/><path fill="#501f0c" d="m12.237 14.604l.265-.421l-.322.17h-.658v.194h.473q.086 0 .166.029l.08.033z"/><path fill="url(#SVG28hz5h0c)" d="M11.896 14.183v-.71a1 1 0 0 1 .16-.02q.097.001.186.039a.7.7 0 0 1 .137.07l.17-.473h-1.468l.123.109v2.311l-.128.104h1.464l.208-.379h-.852v-.686h.095a.5.5 0 0 1 .17.028l.08.033l.261-.426zm.52.715h.332c.123 0 .237.066.299.166a.33.33 0 0 1 .004.336l-.208.38a.34.34 0 0 1-.303.174h-1.464a.346.346 0 0 1-.336-.427a.33.33 0 0 1 .109-.174h.005v-2.004a.4.4 0 0 1-.1-.416a.34.34 0 0 1 .322-.223h1.473a.35.35 0 0 1 .285.142c.066.095.08.251.042.355l-.175.474a.34.34 0 0 1-.137.17a.32.32 0 0 1 .236.166a.33.33 0 0 1 0 .341l-.26.426a.34.34 0 0 1-.118.114z"/><path fill="url(#SVGchf6heTr)" d="M12 9.428h.412v2.524H12z"/><path fill="url(#SVGSuftziEY)" d="M12.412 9.428h.346v2.524h-.346z"/><path fill="url(#SVGoZtOzdqT)" d="m13.307 10.74l.237-.014c.16.444.396.857.696 1.222c-.19-.076-.44-.175-.516-.237c-.085-.076-.469-.767-.483-.791c-.01-.024-.17-.109-.407-.123a.9.9 0 0 0-.422.085v-.17h.35c.285 0 .417-.237.417-.484c0-.246-.132-.52-.416-.52c-.1 0-.275.042-.35.061c.132-.137.307-.237.496-.218c.313.029.56.27.592.545c.034.25-.118.535-.194.644"/><path fill="url(#SVG2WPhLded)" d="M13.724 11.705c.076.066.322.166.521.237v.01h-.63c-.25-.162-.545-.697-.663-.915l-.057-.094q-.022-.028-.066-.034a.3.3 0 0 0-.066 0a1.2 1.2 0 0 0-.35.081v-.109a.9.9 0 0 1 .828.038c.014.024.398.715.483.786"/><path fill="url(#SVGQvOuQcun)" d="M11.645 9.309a.34.34 0 0 1 .322-.223h1.226a1.043 1.043 0 0 1 1.052 1.032a1 1 0 0 1-.294.71c.17.399.426.754.554.9c.095.105.11.19.052.309a.35.35 0 0 1-.312.199h-.63a.35.35 0 0 1-.19-.053c-.08-.051-.16-.07-.232-.146l-.01.033c-.047.133-.18.166-.321.166h-.896a.35.35 0 0 1-.321-.223c-.048-.123-.015-.208.075-.298V9.664a.33.33 0 0 1-.075-.355m.322.118l.033.024v2.472l-.034.028h.896l-.1-.085v-.957h.052c.02 0 .038.01.052.015l.029.023l.047.09h.005l.161.284c.142.237.331.521.507.635h.63v-.005c-.3-.354-.535-.76-.692-1.198c-.01-.005-.01-.014-.014-.024a.7.7 0 0 0 .36-.606a.7.7 0 0 0-.706-.691h-1.226zm.795.275v1.013a.4.4 0 0 0 .346-.194a.6.6 0 0 0 .071-.294a.8.8 0 0 0-.071-.331a.38.38 0 0 0-.346-.19z"/><path fill="url(#SVG3sdfbdxN)" d="m12.412 9.772l-.502-.378h1.283c.389 0 .706.34.706.724a.69.69 0 0 1-.365.607h.005l-.237.014c.08-.11.232-.393.199-.645a.65.65 0 0 0-.592-.544c-.19-.014-.365.08-.497.218z"/><path fill="#591812" d="m12.411 11.573l-.492.38h.975z"/><path fill="url(#SVG9x22McMw)" d="M8.335 13.094h.346v2.524h-.346z"/><path fill="url(#SVGzqTbGbsi)" d="M8.681 13.094h.346v2.524H8.68z"/><path fill="url(#SVGDr7eQeDt)" d="m9.57 14.401l.236-.01c.161.443.397.855.697 1.218c-.19-.071-.436-.17-.512-.237c-.09-.07-.474-.762-.483-.786c-.014-.024-.175-.109-.407-.123a.9.9 0 0 0-.427.085v-.17h.35c.285 0 .422-.237.422-.483c0-.251-.137-.488-.426-.488c-.095 0-.27.042-.34.061c.127-.137.302-.236.492-.218c.317.024.563.237.596.512c.029.25-.123.53-.199.64"/><path fill="url(#SVG302ByqmJ)" d="M9.025 14.463H9.1c.236.01.393.095.407.123c.01.024.393.71.483.786c.076.066.322.166.512.237l.004.005h-.63c-.25-.156-.544-.692-.663-.914l-.057-.095c-.033-.033-.104-.038-.142-.033a1.2 1.2 0 0 0-.34.085v-.109a.9.9 0 0 1 .345-.085z"/><path fill="url(#SVGXLtwqeVl)" d="m8.68 13.469l-.445-.38h1.222c.393 0 .71.313.71.697c0 .26-.151.488-.37.602h.006l-.237.014c.08-.11.232-.389.203-.644c-.033-.27-.284-.483-.596-.507a.62.62 0 0 0-.493.218"/><path fill="#591812" d="m8.68 15.238l-.445.38h.89z"/><path fill="url(#SVGSih6QH5U)" d="M7.909 12.933a.35.35 0 0 1 .327-.223h1.222a1.075 1.075 0 0 1 1.051 1.07c0 .285-.109.53-.294.716c.176.393.431.748.555.895l.004.004a.33.33 0 0 1 .048.36a.35.35 0 0 1-.313.2h-.63a.35.35 0 0 1-.19-.053a1.1 1.1 0 0 1-.227-.203a.346.346 0 0 1-.336.255h-.89a.35.35 0 0 1-.327-.222a.33.33 0 0 1 .08-.355V13.33a.41.41 0 0 1-.08-.398m.327.156l.094.085v2.359l-.094.08h.89l-.1-.08v-.962h.053l.056.015l.029.023l.047.085v.005l.161.284c.142.237.332.521.507.63h.63a3.9 3.9 0 0 1-.692-1.198l-.014-.024v-.004a.7.7 0 0 0 .251-.237a.65.65 0 0 0 .11-.37a.7.7 0 0 0-.706-.691zm.79.317v.971a.39.39 0 0 0 .346-.19a.62.62 0 0 0 0-.587a.38.38 0 0 0-.345-.189z"/><path fill="url(#SVGTupsFdpH)" fill-rule="evenodd" d="M16.234 11.953a1.28 1.28 0 0 0 1.156-1.421a1.34 1.34 0 0 0-1.497-1.127a1.3 1.3 0 0 0-1.151 1.44a1.33 1.33 0 0 0 1.492 1.112zm.227-.299c.233-.075.341-.677.19-1.122c-.175-.493-.687-.862-.919-.791c-.317.095-.37.753-.232 1.146c.19.535.796.815.961.767" clip-rule="evenodd"/><path fill="url(#SVGQdyDQbZd)" d="M16.472 11.777c.407-.114.71-.748.52-1.345c-.198-.602-.89-.947-1.311-.824c-.474.137-.74.753-.545 1.354c.199.602.824.962 1.335.815m.175-1.246c.156.445.047 1.047-.19 1.123c-.16.047-.767-.232-.956-.767c-.143-.394-.086-1.047.236-1.147c.228-.07.74.299.91.791"/><path fill="url(#SVGu2HWqcMg)" fill-rule="evenodd" d="M16.225 11.957h.01c.24-.029.468-.12.662-.265a1.25 1.25 0 0 0 .493-1.16a1.342 1.342 0 0 0-1.753-1.071a1.28 1.28 0 0 0-.9 1.387a1.33 1.33 0 0 0 1.488 1.109m.028-.332q.136.043.209.029l.023-.014a.34.34 0 0 0 .142-.162c.12-.303.128-.638.024-.947a1.32 1.32 0 0 0-.748-.781a.3.3 0 0 0-.17-.01a.3.3 0 0 0-.162.119l-.033.056c-.142.247-.142.678-.038.971a1.3 1.3 0 0 0 .753.74m-.412-1.549a.8.8 0 0 0-.066.318c0 .142.019.284.052.393a.9.9 0 0 0 .502.516v-.005a1.1 1.1 0 0 0-.01-.663a1.1 1.1 0 0 0-.478-.559m1.895.417c.113.872-.55 1.62-1.473 1.729l-.237.014c-.829-.014-1.52-.554-1.63-1.35a1.61 1.61 0 0 1 1.455-1.785a1.677 1.677 0 0 1 1.885 1.392" clip-rule="evenodd"/><path fill="url(#SVG0xI9ZV2d)" d="M6.808 12.71c.157 0 .29.095.332.241l.829 2.79l.147.228a.33.33 0 0 1 .014.345a.34.34 0 0 1-.303.176H6.76a.35.35 0 0 1-.33-.245a.3.3 0 0 1-.011-.144a.74.74 0 0 0-.038-.379h-.17l-.015.085a1.4 1.4 0 0 0-.004.313a.33.33 0 0 1-.095.256a.35.35 0 0 1-.251.114H4.805a.35.35 0 0 1-.303-.176a.33.33 0 0 1 .014-.345l.152-.237l.985-2.795a.345.345 0 0 1 .331-.227zm-2.003 3.438l.175-.265l1-2.794h.828l.843 2.794l.176.265H6.76a1.2 1.2 0 0 0 0-.34a.8.8 0 0 0-.19-.427h-.577c-.095.11-.133.294-.147.464c-.01.119-.01.228 0 .303zm1.217-1.33l.057.08h.445l.085-.095l-.208-1.032h-.095z"/><path fill="url(#SVG6DdzpdUc)" fill-rule="evenodd" d="M5.986 13.09h.824l.843 2.794l.175.265l-.682-.397l-.199-.645h-.246l-.038.034H5.97l-.038-.034h-.246l-.199.645l-.682.397l.175-.265l1-2.794zm.085 1.81l-.048-.072l.285-1.056h.094l.213 1.056l-.09.071z" clip-rule="evenodd"/><path fill="#faf3d9" d="m5.985 13.09l.232.402h.322l.27-.397H5.98z"/><path fill="url(#SVGvkcNqeKr)" d="m6.61 14.799l-.086.099h.346l.047-.109l-.284-1.104l-.095-.189h-.322l-.123.19l-.331 1.136l.047.076h.27l-.057-.08l.284-1.047h.095z"/><path fill="#4d0206" d="M5.843 16.149H4.806l.682-.398l.36.398zm.92 0l.378-.398l.687.398z"/><path fill="url(#SVGenKuNcOb)" d="m5.487 15.746l.36.402c-.019-.18-.01-.587.147-.762h.583a.95.95 0 0 1 .184.762l.38-.402l-.19-.64H6.7l-.038.034H5.97l-.037-.034h-.247z"/><path fill="url(#SVG2Sx02ZRO)" d="M18.253 12.582c.156 0 .289.095.331.242l.83 2.747l.146.227a.336.336 0 0 1-.118.475a.35.35 0 0 1-.175.046h-1.061a.35.35 0 0 1-.336-.244a.3.3 0 0 1-.01-.144a.74.74 0 0 0-.033-.38h-.17l-.015.086a2 2 0 0 0-.01.313a.33.33 0 0 1-.09.26a.35.35 0 0 1-.255.109H16.25a.345.345 0 0 1-.348-.35a.33.33 0 0 1 .054-.171l.151-.237l.995-2.752a.34.34 0 0 1 .322-.227zm-1.923 3.396l.095-.265l1-2.795h.828l.843 2.795l.17.312h-1.06a1.5 1.5 0 0 0 0-.388a.8.8 0 0 0-.19-.426h-.578c-.095.109-.137.293-.151.464c-.01.118-.033.232-.029.303zm1.137-1.326l.057.075h.445l.08-.094l-.203-1.033h-.095l-.284 1.047z"/><path fill="url(#SVGvZ5SPdLr)" fill-rule="evenodd" d="M17.424 12.923h.829l.843 2.79l.17.312l-.677-.445l-.199-.644h-.246l-.038.037h-.691l-.038-.037h-.246l-.2.644l-.681.445l.175-.313l1-2.794zm.085 1.804l-.047-.07l.284-1.057h.1l.208 1.056l-.085.071z" clip-rule="evenodd"/><path fill="#faf3d9" d="m17.424 12.923l.237.398h.322l.265-.398z"/><path fill="url(#SVGr8nwtbZR)" d="m18.048 14.629l-.08.1h.345l.048-.11l-.285-1.103l-.094-.19h-.322l-.123.19l-.332 1.141l.047.071h.27l-.061-.08l.284-1.043h.1z"/><path fill="#4d0206" d="M17.287 16.025H16.25l.682-.445zm.919 0l.378-.445l.683.445z"/><path fill="url(#SVGxQSUnecE)" d="m16.926 15.58l.36.446c-.014-.18-.01-.635.152-.81h.582c.086.09.242.412.185.81l.379-.445l-.194-.644h-.246l-.038.038h-.692l-.038-.038h-.246l-.199.644z"/><path fill="url(#SVGDJjIkwJO)" d="m15.803 13.089l-.11.095l.01 2.43h-.715l-.966-1.365v1.26l.123.104h-.89l.165-.123v-2.254l-.19-.142h.63l1.024 1.501l.066.095h.11v-1.506l-.148-.095zm-1.09.284l-.028-.024a.4.4 0 0 1-.095-.416a.34.34 0 0 1 .322-.223h.89c.143 0 .276.09.328.223a.41.41 0 0 1-.09.407l.01 2.273a.32.32 0 0 1-.1.237a.35.35 0 0 1-.247.104h-.715a.35.35 0 0 1-.284-.142l-.256-.364a.35.35 0 0 1 .024.284a.35.35 0 0 1-.327.222h-.89a.346.346 0 0 1-.337-.427a.33.33 0 0 1 .11-.174l.028-.02v-1.94l-.048-.048c-.113-.09-.151-.28-.104-.412a.35.35 0 0 1 .327-.223h.63c.118 0 .223.057.284.152l.569.871zm-.303 2.022l-.042-.061v.019z"/><path fill="url(#SVGIW2DnBLU)" d="m14.951 14.7l-1.09-1.61h-.44v2.51h.602v-1.35l.966 1.364h.8v-2.52h-.729V14.7z"/><path fill="url(#SVGT7EDxT7O)" d="M15.06 13.09h.35v2.25h-.35z"/><path fill="url(#SVGuQ6KJYVR)" d="M13.677 13.09h-.446l.446.379v.01l.16.435c.086.014.28.066.36.142c.076.08.394.54.54.763a.86.86 0 0 0 .512.288c.062-.056.161-.227.161-.492l-.35-.019v.095h-.11l-1.089-1.596h-.19z"/><path fill="#591812" d="m13.705 15.239l-.45.379h.89l-.444-.38zm.133-1.34c-.047.028-.137.142-.137.45h.322v-.095l.966 1.359h.715c-.199-.166-.27-.426-.45-.507a.85.85 0 0 1-.516-.298c-.142-.223-.464-.687-.54-.763a.85.85 0 0 0-.36-.142z"/><path fill="#f8f2de" d="m15.42 13.469l-.506-.38h.952z"/><defs><linearGradient id="SVGbFfWmd9v" x1="13.738" x2="13.667" y1="8.13" y2="17.896" gradientUnits="userSpaceOnUse"><stop offset=".11" stop-color="#05050c"/><stop offset=".23" stop-color="#3e1e54"/><stop offset=".28" stop-color="#131138"/><stop offset=".43" stop-color="#352c7d"/><stop offset=".56" stop-color="#14122a"/><stop offset="1" stop-color="#010508"/></linearGradient><linearGradient id="SVGjJ8MvbFW" x1="6.947" x2="10.845" y1="16.669" y2="18.289" gradientUnits="userSpaceOnUse"><stop stop-color="#211104"/><stop offset=".24" stop-color="#8c653c"/><stop offset=".41" stop-color="#6f4d28"/><stop offset=".69" stop-color="#5a391a"/><stop offset="1" stop-color="#853210"/></linearGradient><linearGradient id="SVGGADbPd4T" x1="3.768" x2="6.33" y1="5.62" y2="18.375" gradientUnits="userSpaceOnUse"><stop stop-color="#ba8342"/><stop offset=".13" stop-color="#d7a44b"/><stop offset=".21" stop-color="#fdefd2"/><stop offset=".27" stop-color="#f1c870"/><stop offset=".39" stop-color="#efcf72"/><stop offset=".51" stop-color="#facb66"/><stop offset=".88" stop-color="#75512d"/><stop offset="1" stop-color="#c57e3c"/></linearGradient><linearGradient id="SVGxVhWcdvs" x1="3.621" x2="6.089" y1="6.089" y2="18.071" gradientUnits="userSpaceOnUse"><stop stop-color="#36271c"/><stop offset=".23" stop-color="#3b2a1a"/><stop offset=".42" stop-color="#412613"/><stop offset=".47" stop-color="#54250b"/><stop offset=".56" stop-color="#491f06"/><stop offset=".89" stop-color="#331b03"/><stop offset="1" stop-color="#632006"/></linearGradient><linearGradient id="SVGgJrnKevy" x1="6.317" x2="6.497" y1="7.244" y2="8.603" gradientUnits="userSpaceOnUse"><stop stop-color="#8d6029"/><stop offset=".09" stop-color="#52371a"/><stop offset=".75" stop-color="#69380f"/><stop offset="1" stop-color="#663517"/></linearGradient><linearGradient id="SVGvCC7uduK" x1="6.435" x2="6.511" y1="7.472" y2="8.093" gradientUnits="userSpaceOnUse"><stop stop-color="#130a03"/><stop offset="1" stop-color="#403021"/></linearGradient><linearGradient id="SVGdmjM9bWW" x1="5.979" x2="7.145" y1="8.324" y2="8.286" gradientUnits="userSpaceOnUse"><stop stop-color="#ebb53b"/><stop offset="1" stop-color="#ffdf78"/></linearGradient><linearGradient id="SVGusqaJceF" x1="11.835" x2="7.383" y1="7.292" y2="7.87" gradientUnits="userSpaceOnUse"><stop stop-color="#3f3126"/><stop offset=".33" stop-color="#392c1c"/><stop offset=".54" stop-color="#272115"/><stop offset="1" stop-color="#513c21"/></linearGradient><linearGradient id="SVGjwoCnWLI" x1="11.834" x2="7.348" y1="7.221" y2="7.974" gradientUnits="userSpaceOnUse"><stop stop-color="#644624"/><stop offset=".19" stop-color="#c38a3e"/><stop offset=".26" stop-color="#f6e497"/><stop offset=".56" stop-color="#d9913c"/><stop offset="1" stop-color="#755332"/></linearGradient><linearGradient id="SVGfHCmekSK" x1="7.292" x2="11.967" y1="7.803" y2="7.865" gradientUnits="userSpaceOnUse"><stop stop-color="#fff3a7"/><stop offset=".32" stop-color="#f5c15e"/><stop offset=".89" stop-color="#faeb96"/><stop offset="1" stop-color="#c9a454"/></linearGradient><linearGradient id="SVGo0Xp1bqo" x1="7.677" x2="9.784" y1="16.134" y2="16.963" gradientUnits="userSpaceOnUse"><stop stop-color="#060002"/><stop offset=".61" stop-color="#3f3124"/><stop offset="1" stop-color="#1b170e"/></linearGradient><linearGradient id="SVGwp6cWbDw" x1="7.676" x2="9.784" y1="16.135" y2="16.964" gradientUnits="userSpaceOnUse"><stop stop-color="#b78643"/><stop offset=".61" stop-color="#ffef94"/><stop offset="1" stop-color="#ffe577"/></linearGradient><linearGradient id="SVGSfaCvdzt" x1="11.413" x2="11.436" y1="16.358" y2="18.409" gradientUnits="userSpaceOnUse"><stop stop-color="#764a2f"/><stop offset=".27" stop-color="#624025"/><stop offset=".58" stop-color="#4d311c"/><stop offset=".83" stop-color="#3e2a19"/><stop offset="1" stop-color="#873915"/></linearGradient><linearGradient id="SVGbp5d3ctB" x1="9.372" x2="11.944" y1="15.955" y2="16.334" gradientUnits="userSpaceOnUse"><stop stop-color="#746b44"/><stop offset=".34" stop-color="#ca994d"/><stop offset=".5" stop-color="#88522e"/><stop offset=".68" stop-color="#ffcb7a"/><stop offset=".81" stop-color="#8c5d33"/><stop offset="1" stop-color="#885532"/></linearGradient><linearGradient id="SVGNZ1pcdva" x1="10.485" x2="11.858" y1="17.049" y2="17.783" gradientUnits="userSpaceOnUse"><stop stop-color="#0a0904"/><stop offset=".42" stop-color="#372f22"/><stop offset="1" stop-color="#090c03"/></linearGradient><linearGradient id="SVGKZ18So3y" x1="10.313" x2="11.824" y1="16.911" y2="17.981" gradientUnits="userSpaceOnUse"><stop stop-color="#be8542"/><stop offset=".36" stop-color="#efb15f"/><stop offset=".63" stop-color="#fae7a2"/><stop offset="1" stop-color="#f8c166"/></linearGradient><linearGradient id="SVG55JTeOGO" x1="16.969" x2="13.066" y1="16.669" y2="18.289" gradientUnits="userSpaceOnUse"><stop stop-color="#211104"/><stop offset=".24" stop-color="#8c653c"/><stop offset=".41" stop-color="#6f4d28"/><stop offset=".69" stop-color="#5a391a"/><stop offset="1" stop-color="#853210"/></linearGradient><linearGradient id="SVGdJIRSxvc" x1="20.147" x2="17.585" y1="5.62" y2="18.375" gradientUnits="userSpaceOnUse"><stop stop-color="#ba8342"/><stop offset=".13" stop-color="#d7a44b"/><stop offset=".21" stop-color="#fdefd2"/><stop offset=".27" stop-color="#f1c870"/><stop offset=".39" stop-color="#efcf72"/><stop offset=".51" stop-color="#facb66"/><stop offset=".88" stop-color="#75512d"/><stop offset="1" stop-color="#c57e3c"/></linearGradient><linearGradient id="SVGhlw5wbSr" x1="20.293" x2="17.825" y1="6.089" y2="18.071" gradientUnits="userSpaceOnUse"><stop stop-color="#36271c"/><stop offset=".23" stop-color="#3b2a1a"/><stop offset=".42" stop-color="#412613"/><stop offset=".47" stop-color="#54250b"/><stop offset=".56" stop-color="#491f06"/><stop offset=".89" stop-color="#331b03"/><stop offset="1" stop-color="#632006"/></linearGradient><linearGradient id="SVGewAExcah" x1="17.598" x2="17.418" y1="7.245" y2="8.604" gradientUnits="userSpaceOnUse"><stop stop-color="#8d6029"/><stop offset=".09" stop-color="#52371a"/><stop offset=".75" stop-color="#69380f"/><stop offset="1" stop-color="#663517"/></linearGradient><linearGradient id="SVGs61pSbVu" x1="17.48" x2="17.404" y1="7.472" y2="8.093" gradientUnits="userSpaceOnUse"><stop stop-color="#130a03"/><stop offset="1" stop-color="#403021"/></linearGradient><linearGradient id="SVG6oMM0dJV" x1="17.93" x2="16.769" y1="8.324" y2="8.286" gradientUnits="userSpaceOnUse"><stop stop-color="#ebb53b"/><stop offset="1" stop-color="#ffdf78"/></linearGradient><linearGradient id="SVGWNqFjeTp" x1="12.081" x2="16.533" y1="7.292" y2="7.87" gradientUnits="userSpaceOnUse"><stop stop-color="#3f3126"/><stop offset=".33" stop-color="#392c1c"/><stop offset=".54" stop-color="#272115"/><stop offset="1" stop-color="#513c21"/></linearGradient><linearGradient id="SVGb406seJW" x1="12.08" x2="16.566" y1="7.221" y2="7.974" gradientUnits="userSpaceOnUse"><stop stop-color="#644624"/><stop offset=".19" stop-color="#c38a3e"/><stop offset=".26" stop-color="#f6e497"/><stop offset=".56" stop-color="#d9913c"/><stop offset="1" stop-color="#755332"/></linearGradient><linearGradient id="SVGzHPAMbwM" x1="16.618" x2="11.943" y1="7.803" y2="7.865" gradientUnits="userSpaceOnUse"><stop stop-color="#fff3a7"/><stop offset=".32" stop-color="#f5c15e"/><stop offset=".89" stop-color="#faeb96"/><stop offset="1" stop-color="#c9a454"/></linearGradient><linearGradient id="SVGo3kSMbCJ" x1="16.235" x2="14.132" y1="16.134" y2="16.963" gradientUnits="userSpaceOnUse"><stop stop-color="#060002"/><stop offset=".61" stop-color="#3f3124"/><stop offset="1" stop-color="#1b170e"/></linearGradient><linearGradient id="SVGJIud1cOP" x1="16.24" x2="14.132" y1="16.135" y2="16.964" gradientUnits="userSpaceOnUse"><stop stop-color="#b78643"/><stop offset=".61" stop-color="#ffef94"/><stop offset="1" stop-color="#ffe577"/></linearGradient><linearGradient id="SVGyC89Kcax" x1="12.502" x2="12.478" y1="16.358" y2="18.409" gradientUnits="userSpaceOnUse"><stop stop-color="#764a2f"/><stop offset=".27" stop-color="#624025"/><stop offset=".58" stop-color="#4d311c"/><stop offset=".83" stop-color="#3e2a19"/><stop offset="1" stop-color="#873915"/></linearGradient><linearGradient id="SVGRc8A6cZG" x1="14.544" x2="11.972" y1="15.955" y2="16.334" gradientUnits="userSpaceOnUse"><stop stop-color="#746b44"/><stop offset=".34" stop-color="#ca994d"/><stop offset=".5" stop-color="#88522e"/><stop offset=".68" stop-color="#ffcb7a"/><stop offset=".81" stop-color="#8c5d33"/><stop offset="1" stop-color="#885532"/></linearGradient><linearGradient id="SVG0P7NCdAw" x1="13.43" x2="12.056" y1="17.049" y2="17.783" gradientUnits="userSpaceOnUse"><stop stop-color="#0a0904"/><stop offset=".42" stop-color="#372f22"/><stop offset="1" stop-color="#090c03"/></linearGradient><linearGradient id="SVG9LJmrdqR" x1="13.601" x2="12.085" y1="16.911" y2="17.981" gradientUnits="userSpaceOnUse"><stop stop-color="#be8542"/><stop offset=".36" stop-color="#efb15f"/><stop offset=".63" stop-color="#fae7a2"/><stop offset="1" stop-color="#f8c166"/></linearGradient><linearGradient id="SVG8i3eKd8e" x1="3.187" x2="3.973" y1="11.612" y2="12.597" gradientUnits="userSpaceOnUse"><stop stop-color="#9a4818"/><stop offset="1" stop-color="#df8338"/></linearGradient><linearGradient id="SVGQ38dHcEm" x1="3.967" x2="4.853" y1="13.917" y2="14.107" gradientUnits="userSpaceOnUse"><stop stop-color="#4f1c00"/><stop offset=".51" stop-color="#53250d"/><stop offset="1" stop-color="#aa6c33"/></linearGradient><linearGradient id="SVGwhZh3dxd" x1="20.814" x2="20.028" y1="11.612" y2="12.597" gradientUnits="userSpaceOnUse"><stop stop-color="#9a4818"/><stop offset="1" stop-color="#df8338"/></linearGradient><linearGradient id="SVGI3eufczU" x1="20.032" x2="19.146" y1="13.917" y2="14.107" gradientUnits="userSpaceOnUse"><stop stop-color="#4f1c00"/><stop offset=".51" stop-color="#53250d"/><stop offset="1" stop-color="#aa6c33"/></linearGradient><linearGradient id="SVGyJBRUdaC" x1="6.998" x2="6.998" y1="9.707" y2="11.682" gradientUnits="userSpaceOnUse"><stop stop-color="#d89d1d"/><stop offset=".5" stop-color="#c88131"/><stop offset="1" stop-color="#cc9777"/></linearGradient><linearGradient id="SVGB7dUze5B" x1="7.345" x2="7.345" y1="9.792" y2="11.682" gradientUnits="userSpaceOnUse"><stop offset=".11" stop-color="#e5ab30"/><stop offset=".26" stop-color="#d18a20"/><stop offset=".33" stop-color="#ecc276"/><stop offset=".59" stop-color="#51200f"/><stop offset=".67" stop-color="#bd6f2f"/><stop offset=".83" stop-color="#c7936e"/><stop offset="1" stop-color="#e0bfa0"/></linearGradient><linearGradient id="SVGaAQOvdfs" x1="8.752" x2="8.752" y1="9.707" y2="11.682" gradientUnits="userSpaceOnUse"><stop stop-color="#d89d1d"/><stop offset=".5" stop-color="#c88131"/><stop offset="1" stop-color="#cc9777"/></linearGradient><linearGradient id="SVGKZxvmorg" x1="7.875" x2="7.875" y1="9.086" y2="12.292" gradientUnits="userSpaceOnUse"><stop stop-color="#948dae"/><stop offset=".1" stop-color="#3b2e59"/><stop offset=".41" stop-color="#3f354e"/><stop offset=".56" stop-color="#2f2641"/><stop offset="1" stop-color="#1d0f28"/></linearGradient><linearGradient id="SVGROLASbfC" x1="8.406" x2="8.406" y1="9.792" y2="11.682" gradientUnits="userSpaceOnUse"><stop offset=".11" stop-color="#e5ab30"/><stop offset=".26" stop-color="#d18a20"/><stop offset=".33" stop-color="#ecc276"/><stop offset=".37" stop-color="#fff8f2"/><stop offset=".59" stop-color="#51200f"/><stop offset=".67" stop-color="#bd6f2f"/><stop offset=".83" stop-color="#c7936e"/><stop offset="1" stop-color="#e0bfa0"/></linearGradient><linearGradient id="SVGIQfJLb6z" x1="10.001" x2="10.001" y1="9.707" y2="11.682" gradientUnits="userSpaceOnUse"><stop stop-color="#d89d1d"/><stop offset=".5" stop-color="#c88131"/><stop offset="1" stop-color="#cc9777"/></linearGradient><linearGradient id="SVGNduNYbtY" x1="10.29" x2="10.29" y1="9.707" y2="11.682" gradientUnits="userSpaceOnUse"><stop stop-color="#d89d1d"/><stop offset=".04" stop-color="#6e390c"/><stop offset=".08" stop-color="#8f4a12"/><stop offset=".14" stop-color="#d49522"/><stop offset=".33" stop-color="#cd8a2a"/><stop offset=".39" stop-color="#ffeea1"/><stop offset=".42" stop-color="#fff8f2"/><stop offset=".5" stop-color="#c88131"/><stop offset=".6" stop-color="#501f0c"/><stop offset=".67" stop-color="#be7234"/><stop offset=".88" stop-color="#c78a5f"/><stop offset=".94" stop-color="#ffedd4"/><stop offset="1" stop-color="#cc9777"/></linearGradient><linearGradient id="SVGwJT3teox" x1="9.717" x2="11.398" y1="11.782" y2="11.668" gradientUnits="userSpaceOnUse"><stop stop-color="#c7a991"/><stop offset=".33" stop-color="#ffeccf"/><stop offset=".55" stop-color="#f7f2ee"/><stop offset="1" stop-color="#eee6db"/></linearGradient><linearGradient id="SVGcvZmqcfv" x1="10.551" x2="10.551" y1="9.086" y2="12.302" gradientUnits="userSpaceOnUse"><stop stop-color="#948dae"/><stop offset=".1" stop-color="#3b2e59"/><stop offset=".41" stop-color="#3f354e"/><stop offset=".56" stop-color="#2f2641"/><stop offset="1" stop-color="#1d0f28"/></linearGradient><linearGradient id="SVGqDL0kVdt" x1="11.166" x2="10.129" y1="9.574" y2="9.825" gradientUnits="userSpaceOnUse"><stop stop-color="#6e421d"/><stop offset=".53" stop-color="#623209"/><stop offset="1" stop-color="#a95817"/></linearGradient><linearGradient id="SVGSUqvcdYN" x1="11.361" x2="11.361" y1="13.368" y2="15.348" gradientUnits="userSpaceOnUse"><stop stop-color="#d89d1d"/><stop offset=".5" stop-color="#c88131"/><stop offset="1" stop-color="#cc9777"/></linearGradient><linearGradient id="SVGBM90Id0u" x1="11.711" x2="11.711" y1="13.368" y2="15.348" gradientUnits="userSpaceOnUse"><stop stop-color="#d89d1d"/><stop offset=".06" stop-color="#6e390c"/><stop offset=".08" stop-color="#8f4a12"/><stop offset=".14" stop-color="#d49522"/><stop offset=".33" stop-color="#cd8a2a"/><stop offset=".39" stop-color="#ffeea1"/><stop offset=".42" stop-color="#fff8f2"/><stop offset=".5" stop-color="#c88131"/><stop offset=".6" stop-color="#501f0c"/><stop offset=".67" stop-color="#be7234"/><stop offset=".88" stop-color="#c78a5f"/><stop offset=".94" stop-color="#ffedd4"/><stop offset="1" stop-color="#cc9777"/></linearGradient><linearGradient id="SVG69PUxbOP" x1="12.526" x2="11.489" y1="13.237" y2="13.488" gradientUnits="userSpaceOnUse"><stop stop-color="#6e421d"/><stop offset=".53" stop-color="#623209"/><stop offset="1" stop-color="#a95817"/></linearGradient><linearGradient id="SVGZ6Yqjd7H" x1="11.077" x2="12.763" y1="15.447" y2="15.333" gradientUnits="userSpaceOnUse"><stop stop-color="#c7a991"/><stop offset=".33" stop-color="#ffeccf"/><stop offset=".55" stop-color="#f7f2ee"/><stop offset="1" stop-color="#eee6db"/></linearGradient><linearGradient id="SVG28hz5h0c" x1="11.915" x2="11.915" y1="12.753" y2="15.969" gradientUnits="userSpaceOnUse"><stop stop-color="#948dae"/><stop offset=".1" stop-color="#3b2e59"/><stop offset=".41" stop-color="#3f354e"/><stop offset=".56" stop-color="#2f2641"/><stop offset="1" stop-color="#1d0f28"/></linearGradient><linearGradient id="SVGchf6heTr" x1="12.242" x2="12.242" y1="9.707" y2="11.682" gradientUnits="userSpaceOnUse"><stop stop-color="#d89d1d"/><stop offset=".5" stop-color="#c88131"/><stop offset="1" stop-color="#cc9777"/></linearGradient><linearGradient id="SVGSuftziEY" x1="12.587" x2="12.587" y1="9.631" y2="11.682" gradientUnits="userSpaceOnUse"><stop stop-color="#d89d1d"/><stop offset=".02" stop-color="#613512"/><stop offset=".14" stop-color="#dc9a1f"/><stop offset=".44" stop-color="#c88131"/><stop offset=".52" stop-color="#f9e7cd"/><stop offset=".61" stop-color="#773911"/><stop offset=".68" stop-color="#bb631e"/><stop offset="1" stop-color="#cc9777"/></linearGradient><linearGradient id="SVGoZtOzdqT" x1="12.81" x2="13.852" y1="9.575" y2="11.844" gradientUnits="userSpaceOnUse"><stop offset=".02" stop-color="#60340f"/><stop offset=".12" stop-color="#683b24"/><stop offset=".28" stop-color="#e3ab3e"/><stop offset=".42" stop-color="#fff8f6"/><stop offset=".52" stop-color="#f7eddb"/><stop offset=".57" stop-color="#f3e7cd"/><stop offset="1" stop-color="#f0ece9"/></linearGradient><linearGradient id="SVG2WPhLded" x1="12.502" x2="14.103" y1="10.905" y2="11.98" gradientUnits="userSpaceOnUse"><stop stop-color="#844210"/><stop offset=".24" stop-color="#501e13"/><stop offset="1" stop-color="#5b1e11"/></linearGradient><linearGradient id="SVGQvOuQcun" x1="13.108" x2="13.108" y1="9.086" y2="12.302" gradientUnits="userSpaceOnUse"><stop stop-color="#948dae"/><stop offset=".1" stop-color="#3b2e59"/><stop offset=".41" stop-color="#3f354e"/><stop offset=".56" stop-color="#2f2641"/><stop offset="1" stop-color="#1d0f28"/></linearGradient><linearGradient id="SVG3sdfbdxN" x1="12.81" x2="13.435" y1="9.327" y2="10.743" gradientUnits="userSpaceOnUse"><stop stop-color="#faf8e4"/><stop offset=".42" stop-color="#fbedd0"/><stop offset=".59" stop-color="#e4af47"/><stop offset=".68" stop-color="#612711"/><stop offset="1" stop-color="#622a11"/></linearGradient><linearGradient id="SVG9x22McMw" x1="8.505" x2="8.505" y1="13.368" y2="15.348" gradientUnits="userSpaceOnUse"><stop stop-color="#d89d1d"/><stop offset=".5" stop-color="#c88131"/><stop offset="1" stop-color="#cc9777"/></linearGradient><linearGradient id="SVGzqTbGbsi" x1="8.852" x2="8.852" y1="13.368" y2="15.348" gradientUnits="userSpaceOnUse"><stop stop-color="#d89d1d"/><stop offset=".02" stop-color="#613512"/><stop offset=".14" stop-color="#dc9a1f"/><stop offset=".44" stop-color="#c88131"/><stop offset=".52" stop-color="#f9e7cd"/><stop offset=".61" stop-color="#773911"/><stop offset=".68" stop-color="#bb631e"/><stop offset="1" stop-color="#cc9777"/></linearGradient><linearGradient id="SVGDr7eQeDt" x1="9.072" x2="10.114" y1="13.236" y2="15.51" gradientUnits="userSpaceOnUse"><stop offset=".02" stop-color="#60340f"/><stop offset=".12" stop-color="#683b24"/><stop offset=".28" stop-color="#e3ab3e"/><stop offset=".42" stop-color="#fff8f6"/><stop offset=".52" stop-color="#f7eddb"/><stop offset=".57" stop-color="#f3e7cd"/><stop offset="1" stop-color="#f0ece9"/></linearGradient><linearGradient id="SVG302ByqmJ" x1="8.764" x2="10.365" y1="14.572" y2="15.642" gradientUnits="userSpaceOnUse"><stop stop-color="#844210"/><stop offset=".24" stop-color="#501e13"/><stop offset="1" stop-color="#5b1e11"/></linearGradient><linearGradient id="SVGXLtwqeVl" x1="9.073" x2="9.698" y1="12.995" y2="14.411" gradientUnits="userSpaceOnUse"><stop stop-color="#faf8e4"/><stop offset=".42" stop-color="#fbedd0"/><stop offset=".59" stop-color="#e4af47"/><stop offset=".68" stop-color="#612711"/><stop offset="1" stop-color="#622a11"/></linearGradient><linearGradient id="SVGSih6QH5U" x1="9.372" x2="9.372" y1="12.753" y2="15.969" gradientUnits="userSpaceOnUse"><stop stop-color="#948dae"/><stop offset=".1" stop-color="#3b2e59"/><stop offset=".41" stop-color="#3f354e"/><stop offset=".56" stop-color="#2f2641"/><stop offset="1" stop-color="#1d0f28"/></linearGradient><linearGradient id="SVGTupsFdpH" x1="15.58" x2="16.442" y1="9.537" y2="11.882" gradientUnits="userSpaceOnUse"><stop stop-color="#fef3d7"/><stop offset=".23" stop-color="#f3d49b"/><stop offset=".42" stop-color="#e4a353"/><stop offset=".51" stop-color="#a85c20"/><stop offset=".6" stop-color="#582510"/><stop offset="1" stop-color="#5b190d"/></linearGradient><linearGradient id="SVGQdyDQbZd" x1="15.818" x2="16.353" y1="9.726" y2="11.739" gradientUnits="userSpaceOnUse"><stop stop-color="#4b3424"/><stop offset=".36" stop-color="#662d15"/><stop offset=".69" stop-color="#e2aa79"/><stop offset="1" stop-color="#f3efee"/></linearGradient><linearGradient id="SVGu2HWqcMg" x1="15.258" x2="16.49" y1="9.276" y2="12.246" gradientUnits="userSpaceOnUse"><stop stop-color="#877fa4"/><stop offset=".28" stop-color="#4f476f"/><stop offset="1" stop-color="#1d0f28"/></linearGradient><linearGradient id="SVG0xI9ZV2d" x1="6.316" x2="6.316" y1="12.753" y2="16.504" gradientUnits="userSpaceOnUse"><stop stop-color="#948dae"/><stop offset=".1" stop-color="#3b2e59"/><stop offset=".41" stop-color="#3f354e"/><stop offset=".56" stop-color="#2f2641"/><stop offset="1" stop-color="#1d0f28"/></linearGradient><linearGradient id="SVG6DdzpdUc" x1="6.317" x2="6.327" y1="13.095" y2="15.861" gradientUnits="userSpaceOnUse"><stop stop-color="#efc123"/><stop offset=".61" stop-color="#f6f5f1"/><stop offset="1" stop-color="#e8dcce"/></linearGradient><linearGradient id="SVGvkcNqeKr" x1="6.34" x2="6.316" y1="13.491" y2="14.912" gradientUnits="userSpaceOnUse"><stop stop-color="#502302"/><stop offset=".19" stop-color="#4b1b05"/><stop offset=".4" stop-color="#8e3b09"/><stop offset=".93" stop-color="#6b1b08"/><stop offset="1" stop-color="#f5f2ed"/></linearGradient><linearGradient id="SVGenKuNcOb" x1="6.231" x2="6.24" y1="15.201" y2="16.148" gradientUnits="userSpaceOnUse"><stop stop-color="#490802"/><stop offset=".43" stop-color="#591700"/><stop offset="1" stop-color="#914a2c"/></linearGradient><linearGradient id="SVG2Sx02ZRO" x1="17.76" x2="17.76" y1="12.582" y2="16.333" gradientUnits="userSpaceOnUse"><stop stop-color="#948dae"/><stop offset=".1" stop-color="#3b2e59"/><stop offset=".41" stop-color="#3f354e"/><stop offset=".56" stop-color="#2f2641"/><stop offset="1" stop-color="#1d0f28"/></linearGradient><linearGradient id="SVGvZ5SPdLr" x1="17.76" x2="17.77" y1="12.923" y2="15.689" gradientUnits="userSpaceOnUse"><stop stop-color="#efc123"/><stop offset=".61" stop-color="#f6f5f1"/><stop offset="1" stop-color="#e8dcce"/></linearGradient><linearGradient id="SVGr8nwtbZR" x1="17.783" x2="17.759" y1="13.321" y2="14.742" gradientUnits="userSpaceOnUse"><stop stop-color="#502302"/><stop offset=".19" stop-color="#4b1b05"/><stop offset=".4" stop-color="#8e3b09"/><stop offset=".93" stop-color="#6b1b08"/><stop offset="1" stop-color="#f5f2ed"/></linearGradient><linearGradient id="SVGxQSUnecE" x1="17.67" x2="17.68" y1="15.031" y2="15.978" gradientUnits="userSpaceOnUse"><stop stop-color="#490802"/><stop offset=".43" stop-color="#591700"/><stop offset="1" stop-color="#914a2c"/></linearGradient><linearGradient id="SVGDJjIkwJO" x1="14.515" x2="14.515" y1="12.753" y2="15.969" gradientUnits="userSpaceOnUse"><stop stop-color="#948dae"/><stop offset=".1" stop-color="#3b2e59"/><stop offset=".41" stop-color="#3f354e"/><stop offset=".56" stop-color="#2f2641"/><stop offset="1" stop-color="#1d0f28"/></linearGradient><linearGradient id="SVGIW2DnBLU" x1="14.553" x2="14.553" y1="13.095" y2="15.605" gradientUnits="userSpaceOnUse"><stop stop-color="#cd7b0f"/><stop offset=".43" stop-color="#c1660f"/><stop offset=".5" stop-color="#c06614"/><stop offset=".54" stop-color="#bf6616"/><stop offset=".83" stop-color="#b96833"/><stop offset="1" stop-color="#e8ba96"/></linearGradient><linearGradient id="SVGT7EDxT7O" x1="15.235" x2="15.235" y1="13.095" y2="15.34" gradientUnits="userSpaceOnUse"><stop stop-color="#cf8218"/><stop offset=".4" stop-color="#d17811"/><stop offset=".62" stop-color="#d39c56" stop-opacity=".64"/><stop offset=".67" stop-color="#f5f3e7"/><stop offset="1" stop-color="#d9d9d9" stop-opacity="0"/></linearGradient><linearGradient id="SVGuQ6KJYVR" x1="13.563" x2="15.126" y1="13.151" y2="15.018" gradientUnits="userSpaceOnUse"><stop stop-color="#f8eaab"/><stop offset=".12" stop-color="#f1d361"/><stop offset="1" stop-color="#f5f4ef"/></linearGradient></defs></g></svg>