<svg xmlns="http://www.w3.org/2000/svg" viewBox="0 0 24 24"><path fill="#62c6ba" fill-rule="evenodd" d="M11.58 3.111a.85.85 0 0 1 .84 0l7.178 4.1c.25.14.4.394.4.664v8.248c0 .27-.15.525-.4.665l-7.178 4.1a.84.84 0 0 1-.84 0l-7.179-4.1a.77.77 0 0 1-.4-.665V7.875c0-.27.15-.525.4-.665zm.025.495a.8.8 0 0 1 .79 0l6.729 3.87a.72.72 0 0 1 .375.629v7.794c0 .26-.14.5-.375.63l-3.715 2.134l-.15-4.59l.75-1.964l.015-.04l.05-.235c.105-.43.23-.925.22-1.4c0-.314-.075-1.25-.11-1.65l-.005-.104l-.045-.1a2.7 2.7 0 0 0-.415-.665a1.42 1.42 0 0 0-1.255-.525a1.31 1.31 0 0 0-1.06-.5c-.114 0-.22.005-.32.025a1.38 1.38 0 0 0-.91-.53a1.46 1.46 0 0 0-.829.09a1.5 1.5 0 0 0-.66-.245h-.07c-.46 0-.825.125-1.085.395c-.185.19-.29.435-.355.685a2.8 2.8 0 0 0-.88.265c-.494.265-.63.79-.674 1.075a3.2 3.2 0 0 0-.01.895l.255 2.07l1.884 2.369l-.42 5.104l-4.454-2.56a.73.73 0 0 1-.375-.63V8.1c0-.26.14-.5.375-.63L11.6 3.6zm-1.95 15.667l.31.175l.09-1.02l1.385-2.785l3.27 2.835h.01l.02.57l.334-.2l-.165-4.834l.77-2l.005-.02l.06-.25c.1-.43.215-.88.21-1.314c-.005-.3-.075-1.215-.11-1.63l-.005-.05l-.02-.05a2.4 2.4 0 0 0-.365-.58c-.16-.185-.43-.42-.785-.42c-.14 0-.27.02-.375.055a.96.96 0 0 0-.89-.55c-.184 0-.35.04-.484.09a1 1 0 0 0-.8-.595a1.03 1.03 0 0 0-.815.175a1.1 1.1 0 0 0-.655-.32h-.035c-.785 0-1.05.41-1.15 1.05c-.29.02-.674.08-1 .25c-.344.185-.46.565-.504.84c-.05.3-.035.6-.01.8l.25 1.99l1.9 2.399l-.44 5.389zm1.71-3.67l-1.295 2.605l.375-4.32l.935 1.69zM9.57 11.315l.75 2.3l-1.774-2.24zm-.06-.075l-.99.06l-.15-1.2l.01-.04l.02-.01zm-.734-2.75l-.43 1.41l-.05-.44c-.05-.34-.05-1.039.285-1.284l.2.31zm.085-.03l-.21-.324a2.3 2.3 0 0 1 1-.2l.43.785zm1.694-.869l-.785.29l.1-.645c0-.02.015-.05.035-.085zm.06-.71c-.36 0-.56.1-.66.21l.67.45l.02.02l.55-.2c-.085-.35-.415-.465-.58-.48m.68.55h-.005l-.065 2.365l.015.04l.805-1.235l-.75-1.165zm.765-.405c-.44-.07-.645.16-.715.335l1.31.275a.674.674 0 0 0-.6-.61zm1.215 1.65l-.485-.925c.1-.09.31-.215.615-.215c.43 0 .64.325.645.67l-.775.475zm.95-.485l-.04.025l-.01.02l.314.49l.935-.055c-.15-.28-.435-.645-.755-.645c-.24 0-.38.075-.45.15zm1.04 1.195c.084-.22.16-.435.214-.61l.02.05c.03.36.085 1.08.1 1.455l-.335-.9zm.304 1.04l.035.095c-.015.24-.1.684-.175 1.04l-.05.01l-1.8-.526zm-2.044 2.23l1.884-.99l-.06.26l-.785 2.034l-1.04-1.3zm1.015 1.404l.03.035l.14 4.184l-1.46-3.64zm-1.91-6.35l-1.225-.255l.69 1.07zm-1.24 2.045l.705-1.085l.35.485zm-.15.265l.115.1l.51.53a6 6 0 0 0-.735-.335l.11-.3zm-.09-.45l.035-1.395l-.36.415l.325.975zm-.525-.675a1.37 1.37 0 0 1-.715.45l.335.62zm-.485 1.05a.68.68 0 0 1-.265-.505zm.165.09l.475-1.325l.365 1.095v.07c-.04.075-.2.24-.52.24l-.07-.005zm-.075.075l.025.05l.015-.025l.71.93l-2.384-1.025zm.935-.13l-.115.305q-.15-.061-.285-.1a.7.7 0 0 0 .4-.2zm.94.915l.025.03l.005-.02c.405.28.744.647.99 1.074l-1.86-.794zm.05-.09l.11-.57c.12.16.345.35.685.35c.23.006.457-.069.64-.21l-.175.624l-1.26-.2zm.045-.645l-.12.6l-.5-.525q.082.03.18.03c.21 0 .355-.056.44-.105m-.04-.07c-.065.04-.2.1-.4.1a.57.57 0 0 1-.335-.12l-.015-.01l-.075-.08zm.08-.07l-.945-.125l1.13-.635q-.078.383-.185.76m.05.1c.085.15.3.385.66.385c.355 0 .57-.16.66-.26l-.015-.06l-1.3-.08l-.005.02zm1.275-.015l-1.245-.075l.02-.05q.102-.38.175-.765zM12.145 8.6l.51-.78c-.05.36-.12.8-.185 1.19l-.01.035zm-.72 6.889l-.94-1.69l1.785-.03l-.85 1.72zm-.985-1.77l1.775-.03l-2.525-2.28l.745 2.295zm4.05.275l-1.01-1.27l-.24 1.835zm-1.1-1.22l-1.01.96l.78.8zm-.245 1.86l-.805-.825l-.865 1.76l3.16 2.744l-1.46-3.64l-.035.016zm2.054-2.95l-1.714.9l-.235-.53zm-1.784.95l-.23-.525l-.71 1.43l.94-.9zm-.02-1.55l-.225.815c-.233-.39-.54-.73-.905-1l1.13.18zm-1.36-.25a7.4 7.4 0 0 0-1.5-.65a.5.5 0 0 1-.15-.03l.75.975l.015.01h.015l.87-.3zm3.51-.48l-.32-.86c-.096.23-.2.45-.3.616c-.17.27-.38.445-.61.48c-.21.035-.425-.056-.625-.28l-.185.674zm-3.34 3.22l-2.515-2.27l1.4-.085l1.115 2.35zm-2.59-2.34l1.36-.085l-2.4-1.03zm3.62.745l.24-.885l1.734.51zm-.905 1.665l.79-1.585l-1.93-.82zm-2.215-3.62l-1.59-.064l.8-.55v.005c.12.005.285 0 .465-.045c-.02.28.12.51.325.655m3.09-1.304l-.47-.895q-.09.641-.2 1.28zm-.625.45l.66-.38l.3 1.19zm.73-.42l.72-.44c-.1.54-.265 1.36-.375 1.765l-.005-.005l-.335-1.315zm.81-.45c-.095.48-.24 1.215-.35 1.66l.65-1.19l-.3-.475zm-.34 1.81l1.414-.765c.08-.215.15-.425.205-.6l-.91.06l-.71 1.3zm-3.065-2.495l.49-.18l-.015.585l-.475-.4zm.165.785l.275-.31l-.19-.16c-.005.18-.045.345-.085.47m-.27-.75v.01c.04.02.095.06.15.11l.125.125a1.7 1.7 0 0 1-.15.66l-.55.185l-.43-.775l.855-.31zm.08 1c-.15.285-.39.455-.64.56c-.225.09-.45.125-.625.13l.745-.515h.015l.5-.17zm3.614 1.86c-.184.03-.385-.05-.58-.28l1.425-.77a3.7 3.7 0 0 1-.3.61c-.16.26-.35.41-.55.44zM10.07 8.8l-1.224-.26l-.425 1.4z" clip-rule="evenodd"/></svg>