<svg xmlns="http://www.w3.org/2000/svg" width="1000" height="1100"><path fill="#f70" d="M100 990L0 0h1000L900 990l-400 110z"/><path fill="#f90" d="M920 80l-86 848-334 92V80z"/><path fill="#222" d="M254 810l4 58-34-13-14-144 37 15 4 53 12 4-3-53 35 12 9 141-34-11-4-58zm123 63l1 27-60-13-8-141 60 14 1 28-23-5 1 28 22 5 1 26-22-4 1 30zm44 33l-33-5 10-73-15-66 35 5 8 38 8-37 32 2-14 62 20 78-32-2-12-49z"/><path fill="#eee" d="M264 200l48 473 96 26-23-223h115v-92H376l-19-184h-93zm216 571v139h20V771h-20z"/><g fill="#fff"><path d="M643 200l-19 184H500v92h115l-23 223 96-26 48-473h-93zm145 511l-80 29-2 30 21-7-8 113 35-11 10-115 21-8 3-31zm-92 33l-36 9-7 141 34-9 9-141zm-83 19l-57 6-3 140 54-7 28-32 4-84-26-23zm-113 8v139h41v-26h-25v-32h22v-25h-22v-29h25v-27h-41zm99 19l3 3-3 83-4 5-6 1 3-91 7-1z"/><circle cx="633" cy="885" r="15" stroke-width="8" stroke="#f90"/></g></svg>