<?xml version="1.0" encoding="UTF-8" standalone="no"?>
<svg
   viewBox="0 0 128 128"
   version="1.1"
   id="svg4"
   sodipodi:docname="heylogin.svg"
   width="128"
   height="128"
   inkscape:version="1.4.2 (f4327f4, 2025-05-13)"
   xmlns:inkscape="http://www.inkscape.org/namespaces/inkscape"
   xmlns:sodipodi="http://sodipodi.sourceforge.net/DTD/sodipodi-0.dtd"
   xmlns="http://www.w3.org/2000/svg"
   xmlns:svg="http://www.w3.org/2000/svg">
  <sodipodi:namedview
     id="namedview4"
     pagecolor="#505050"
     bordercolor="#eeeeee"
     borderopacity="1"
     inkscape:showpageshadow="0"
     inkscape:pageopacity="0"
     inkscape:pagecheckerboard="0"
     inkscape:deskcolor="#505050"
     inkscape:zoom="3.5529412"
     inkscape:cx="43.344371"
     inkscape:cy="89.925497"
     inkscape:window-width="2560"
     inkscape:window-height="1013"
     inkscape:window-x="-4"
     inkscape:window-y="-4"
     inkscape:window-maximized="1"
     inkscape:current-layer="Layer_1-2" />
  <defs
     id="defs1">
    <style
       id="style1">.cls-1{fill:#292748;}.cls-2{fill:#3e48f8;}.cls-3{fill:#00c9ff;}.cls-4{fill:#00f500;}</style>
  </defs>
  <g
     id="Layer_2"
     data-name="Layer 2">
    <g
       id="Layer_1-2"
       data-name="Layer 1">
      <g
         id="g4"
         transform="translate(4.0622321,4.0326083)">
        <path
           class="cls-2"
           d="m 59.960924,119.96734 a 59.675105,59.682497 0 0 0 34.36284,-10.83136 L 70.997556,81.287701 A 23.899367,23.902327 0 0 1 51.00366,82.22753 L 27.410866,110.3491 a 59.735087,59.742486 0 0 0 32.550058,9.61824 z"
           id="path1"
           style="stroke-width:0.666505;fill:#3e48f8;fill-opacity:1" />
        <path
           class="cls-3"
           d="M 103.90084,19.158982 80.301379,47.31387 A 23.93269,23.935655 0 0 1 70.970893,81.307697 L 94.330427,109.15598 A 59.981679,59.989109 0 0 0 103.9075,19.172314 Z"
           id="path2"
           style="stroke-width:0.666505;fill:#00c9ff;fill-opacity:1" />
        <path
           class="cls-4"
           d="M 83.953596,59.978239 A 23.866043,23.868999 0 0 0 80.301379,47.31387 L 51.01699,82.2342 A 23.992672,23.995644 0 0 0 83.953596,59.978239 Z"
           id="path3"
           style="stroke-width:0.666505;fill:#00f500;fill-opacity:1" />
        <path
           class="cls-1"
           d="M 27.397538,110.3491 50.983666,82.2342 A 23.992672,23.995644 0 1 1 80.308041,47.273878 L 103.89417,19.158982 v 0 A 59.981679,59.989109 0 1 0 27.397538,110.36242 Z"
           id="path4"
           style="stroke-width:0.666505;fill:#292748;fill-opacity:1" />
      </g>
    </g>
  </g>
</svg>
