<svg xmlns="http://www.w3.org/2000/svg" viewBox="0 0 24 24"><g fill="none"><path fill="url(#SVGZWToecid)" d="M17.703 5.034A9.04 9.04 0 0 1 21 12.094l-.085 1.021a8.996 8.996 0 0 1-8.579 7.88a9.12 9.12 0 0 1-8.573-5.36A9.013 9.013 0 0 1 11.05 3.043q3.753-.334 6.658 1.99zm-13.601 7.06q-.001.792.164 1.593a8.02 8.02 0 0 0 7.806 6.223a8.01 8.01 0 0 0 7.832-7.816a8 8 0 0 0-7.859-8.013c-4.34-.032-7.991 3.652-7.949 8.013zm8.88-4.054c.127.084.249.18.355.29l2.339 2.409l.01.01c.225.201.412.441.55.71l-.005.005h-1.249a.07.07 0 0 1-.053-.021l-.195-.207l-1.323-1.365c-.175-.17-.344-.35-.519-.53c-.381-.396-.688-.687-1.201-.465c-.127.053-.27.164-.44.339l-2.154 2.222a.07.07 0 0 1-.052.022l-.175.01H7.81l-.02-.005l-.011-.01a.04.04 0 0 1 0-.038q.11-.188.259-.35q1.174-1.236 2.37-2.465c.297-.302.52-.503.673-.582a1.86 1.86 0 0 1 1.905.02zm-3.97 4.488H7.797l-.012.002l-.01.008l-.003.013q0 .008.003.014c.143.28.381.518.598.74l.032.027l1.921 1.98q.358.397.805.693q.795.443 1.74.02c.176-.105.318-.206.414-.306q1.336-1.374 2.667-2.752q.171-.184.286-.408a.03.03 0 0 0-.016-.026h-1.223a.14.14 0 0 0-.105.042l-1.731 1.784l-.106.116c-.212.238-.476.54-.714.64c-.344.149-.704.053-.974-.217l-.757-.783l-1.503-1.55a.14.14 0 0 0-.1-.043z"/><defs><linearGradient id="SVGZWToecid" x1="3" x2="16.655" y1="6.113" y2="21.001" gradientUnits="userSpaceOnUse"><stop stop-color="#4a5dcd"/><stop offset=".11" stop-color="#4a53c4"/><stop offset=".47" stop-color="#3d065d"/><stop offset="1" stop-color="#c772ad"/></linearGradient></defs></g></svg>