<svg xmlns="http://www.w3.org/2000/svg" viewBox="0 0 24 24"><g fill="none"><path fill="url(#SVG23b3SdHk)" d="M21 19.796L12.01 4.125L3 19.875c.934-.434 2.436-.968 3.785-.968c.777 0 1.542.152 2.127.27c.348.067.663.135.838.135c1.54 0 2.795-.962 3.42-1.434c.202-.152.337-.253.393-.253c.394 0 .574.292.748.573c.18.281.355.557.72.557c.147 0 .248-.113.36-.236c.14-.158.298-.332.574-.332c.63 0 1.052.72 1.22 1.12c.046-.198.242-.552.642-.552c.298 0 .478.276.63.506c.112.158.202.298.304.298c.09 0 .14-.033.213-.073c.124-.079.298-.18.827-.18c.461 0 .872.225 1.193.49z"/><path fill="url(#SVGEGA4gbWa)" d="M21 19.807L12.017 4.125l-9 15.727c.934-.473 2.42-1.097 3.77-1.097c.775 0 1.54.214 2.125.377c.35.101.664.18.838.18c1.542 0 2.796-.956 3.42-1.429c.203-.157.338-.258.394-.258c.394 0 .574.286.754.573c.174.281.348.551.72.551c.14 0 .242-.112.354-.236c.14-.152.298-.326.574-.326c.63 0 1.052.731 1.22 1.125c.045-.191.242-.563.642-.563c.298 0 .478.282.63.507c.112.163.202.303.303.303c.09 0 .14-.033.214-.073c.124-.073.298-.169.827-.169c.461 0 .877.226 1.198.49"/><defs><linearGradient id="SVG23b3SdHk" x1="12" x2="12" y1="4.125" y2="19.874" gradientUnits="userSpaceOnUse"><stop stop-color="#b4386c"/><stop offset="1" stop-color="#f87056"/></linearGradient><linearGradient id="SVGEGA4gbWa" x1="13.845" x2="19.453" y1="15.881" y2="18.969" gradientUnits="userSpaceOnUse"><stop stop-color="#fdc570" stop-opacity="0"/><stop offset="1" stop-color="#fec574"/></linearGradient></defs></g></svg>