<svg xmlns="http://www.w3.org/2000/svg" viewBox="0 0 24 24"><g fill="none"><path fill="#4a9edc" d="M6.6 7.885a1.543 1.543 0 1 0 0-3.085a1.543 1.543 0 0 0 0 3.085"/><path fill="#3c7dc8" d="M6.6 7.13a.787.787 0 1 0 0-1.573a.787.787 0 0 0 0 1.573"/><path fill="#e93536" d="M19.455 14.056a1.029 1.029 0 1 0 0-2.057a1.029 1.029 0 0 0 0 2.057"/><path fill="#dc1755" d="M19.456 13.552a.524.524 0 1 0 0-1.049a.524.524 0 0 0 0 1.049"/><path fill="url(#SVGoI7Pjepy)" d="M5.983 8.307c-4.299.87-3.023 5.436-1.851 7.61c-.37-2.894.746-4.972 2.35-5.12c1.61-.145 2.751.822 5.749 3.804c2.998 2.983 4.7 3.57 6.304 3.512c1.61-.056 2.227-.668 2.108-1.727c-.102-.844-1.635-.664-2.386-.463c.35 0 1.09.15 1.235.756c.154.612-.576.761-.957.761c-2.252-.35-4.201-2.808-7.322-6.232c-2.5-2.741-4.237-3.096-5.225-2.9z"/><path fill="url(#SVGq1Iglc2S)" d="M19.538 17.974c-2.314-.154-3.553-1.08-4.7-1.938a15 15 0 0 0-.596-.437c-.391-.278-.931-.87-1.579-1.579c-1.78-1.944-4.36-4.762-6.736-4.247c-2.397.514-2.469 3.584-2.16 5.399l.144.308l.01-.02l.15-.293c-.104-2.5.945-4.237 2.416-4.371c1.604-.144 2.746.822 5.744 3.805s4.7 3.569 6.304 3.512q.586-.022 1.003-.139"/><path fill="url(#SVGxpYAudIY)" d="M8.184 19.2c-3.168-.052-3.214-2.793-2.844-4.16c.401 2.02.895 2.9 2.844 3.043c1.558.119 4.376-1.06 5.595-1.666l1.326 1.029c-1.296.437-2.967 1.81-6.921 1.748z"/><path fill="url(#SVGsDKLRdyg)" d="M5.18 16.273c.011 1.347.638 2.89 3.004 2.925c3.034.041 4.73-.756 5.934-1.332c.365-.17.689-.323.987-.426l-.787-.602c-1.419.705-4.098 1.8-6.103 1.8c-1.81 0-2.695-1.327-3.034-2.366"/><path fill="url(#SVG88yvxe6A)" d="M19.09 14.596c-1.182-.103-2.725.617-3.342.982l1.208 1.07c.227-.17.926-.515 1.903-.525c.987-.015 1.42.874 1.512 1.327c1.419-1.296.19-2.726-1.286-2.854z"/><path fill="url(#SVG9F3FLeUG)" d="M16.267 16.036c.73-.273 2.052-.68 2.875-.617c1.008.072 1.388.89 1.327 1.938c1.264-1.27.056-2.633-1.379-2.761c-1.182-.103-2.725.617-3.342.982l.514.458z"/><defs><linearGradient id="SVGoI7Pjepy" x1="3.226" x2="21.445" y1="9.291" y2="14.898" gradientUnits="userSpaceOnUse"><stop stop-color="#4ea8e2"/><stop offset=".27" stop-color="#3a6ebf"/><stop offset=".66" stop-color="#563499"/><stop offset="1" stop-color="#e21068"/></linearGradient><linearGradient id="SVGq1Iglc2S" x1="3.7" x2="21.375" y1="8.746" y2="14.569" gradientUnits="userSpaceOnUse"><stop stop-color="#81d5df"/><stop offset=".55" stop-color="#7e88c5"/><stop offset="1" stop-color="#d32b9e"/></linearGradient><linearGradient id="SVGxpYAudIY" x1="2.996" x2="18.829" y1="9.731" y2="10.599" gradientUnits="userSpaceOnUse"><stop stop-color="#f4f35a"/><stop offset=".43" stop-color="#ef2d8e"/><stop offset="1" stop-color="#b039a3"/></linearGradient><linearGradient id="SVGsDKLRdyg" x1="3.261" x2="19.763" y1="9.125" y2="9.367" gradientUnits="userSpaceOnUse"><stop stop-color="#f68f2d"/><stop offset=".22" stop-color="#f24f25"/><stop offset=".46" stop-color="#c61367"/><stop offset="1" stop-color="#8a1a8e"/></linearGradient><linearGradient id="SVG88yvxe6A" x1="5.327" x2="18.472" y1="13.175" y2="14.802" gradientUnits="userSpaceOnUse"><stop stop-color="#8a1a8e"/><stop offset=".54" stop-color="#ea3734"/><stop offset="1" stop-color="#e11169"/></linearGradient><linearGradient id="SVG9F3FLeUG" x1="16.201" x2="20.978" y1="15.676" y2="16.658" gradientUnits="userSpaceOnUse"><stop stop-color="#ae3aa3"/><stop offset=".44" stop-color="#ee2494"/><stop offset="1" stop-color="#f9e449"/></linearGradient></defs></g></svg>