<svg xmlns="http://www.w3.org/2000/svg" viewBox="0 0 24 24"><path fill="#bb4e42" d="M18.516 5.794a9 9 0 0 1 1.879 2.969v.008a9 9 0 0 1 .595 3.667a8.8 8.8 0 0 1-.421 2.326a8.99 8.99 0 0 1-9.258 6.206a9 9 0 0 1-3.797-1.174a8.8 8.8 0 0 1-1.882-1.429a9 9 0 0 1 1.826-14.13a8.99 8.99 0 0 1 11.058 1.556m-9.7 1.146H5.812v8.438h1.125v-3.375h1.879l1.992 3.375h1.524l-2.208-3.669c1.148-.102 1.591-1.318 1.591-2.384c0-1.23-.53-2.059-1.69-2.27a6.3 6.3 0 0 0-1.209-.115m1.629 2.52c0 1.166-1.094 1.418-1.89 1.418H6.937V8.065H8.69c.728.004 1.756.387 1.756 1.395m3.242-.27h-1.125v8.438h1.125v-3.436c.473.588 1.429.889 2.17.88c1.617.014 2.909-1.374 2.893-2.971c.02-1.622-1.21-2.995-2.893-2.967c-.78-.01-1.758.287-2.17.987zm2.06 1.125c.833 0 1.878.513 1.878 1.786c0 1.051-.587 1.85-1.768 1.867c-1.18.017-1.694-.679-1.896-1.225c-.422-1.138.465-2.428 1.785-2.428"/></svg>