<svg xmlns="http://www.w3.org/2000/svg" viewBox="0 0 24 24"><g fill="none"><path fill="#f9aed9" d="M9.474 16.002L6.16 5.339c3.394-1.958 5.712-2 7.03-1.879c1.319.122 3.235 1.239 5.152 2.594c1.535 1.09 2.102 3.653 2.197 4.797c.132.529.122 2.234-1 4.79c-1.398 3.198-2.515 2.796-2.754 2.955c-.19.132-4.955-1.673-7.305-2.594z"/><path fill="#f471b7" d="M8.961 8.104c-.45-1.202-1.752-2.17-2.35-2.504c-.212.053-.668.164-.795.228c-.148.074-1.318 2.154-1.905 3.594c-.477 1.155-.551 1.806-.53 1.986z"/><path fill="#ee509d" d="M14.625 17.257c-2.806-.233-4.574-3.24-5.109-4.718c.604-1.503 1.223-4.462-1.112-4.267c-2.345.202-4.33 2.007-5.029 2.886l.62 3.563l1.376 3.028c1.016.757 3.176 2.303 3.669 2.451c.62.185 1.667.312 4.637.148c2.372-.132 4.31-1.996 4.982-2.911c-.175.037-1.233.052-4.034-.18"/><path fill="#f151ab" d="M5.25 8.177c-.11.863-1.016 1.499-1.45 1.71c.455-.974 1.376-2.938 1.45-3.017c.09-.106.143.227 0 1.307"/><path fill="#ee297b" d="M6.536 9.13c.752-1.588 2.096-1.773 2.673-1.673c.265 2.017.795 6.083.795 6.195c0 .121-.292 1.625-.44 2.36l-3.478-1.148c-.16-1.25-.302-4.15.45-5.734"/><path fill="#f053a0" d="M14.78 15.4c1.71-1.271 4.415-2.669 5.558-3.214c.064.355.186 1.117.17 1.355c-.021.297-.614 2.05-1.758 3.674c-1.138 1.626-3.166 1.483-3.42 1.589c-.201.08-2.17-.741-3.123-1.165c.143-.217.868-.974 2.573-2.24"/><path fill="#d69fa2" d="M10.01 14.403c-.18.122-.52.487-.668.652c-.058.158-.18.508-.18.614v1.064c0 .164.71 1.133.805 1.28c.1.15.847.16 1.165-.327c.254-.387.344-.847.36-1.033l-.255-.084c-.053-.053-.137-.16-.105-.196l.36-.286c-.424-.614-1.308-1.81-1.483-1.684"/><path fill="#51516d" d="M8.522 19.545c-1.71-.736-3.091-2.415-3.568-3.166l.672-1.202c.117-.138.387-.455.567-.635c.228-.228.646-.508 1.445-.355c.636.127 1.123 1.133 1.281 1.62l.217.148c.043.365.133 1.17.202 1.514c.084.424.222.578.296.752c.053.143.138.185.17.19c.015.165.052.287.243.355c.159.053.424-.116.53-.211l.296-.36l.265-.514l.137-.212l.138-.413l.074-.391l.927.476l.444.265l.471.36l.133.275l.047.254v.318l-.09.402l-.116.44a3.6 3.6 0 0 0-.175.529a.8.8 0 0 0 0 .302c-1.487.026-2.472.185-4.606-.736z"/><path fill="#f2edf4" d="M9.242 17.278c.043.027.096.19.117.275c.053.238.159.763.211.964c.037.201.16.556.212.71l.244-.186l.466-.387c.026-.026.068.138 0 .186l-.62.53c0 .01 0 .052-.026.121c-.027.08.02.159.026.307a.27.27 0 0 1-.09.228l-.18-.058a1 1 0 0 1-.047-.202q.068-.236.116-.476l-.037-.095l-.138-.308l-.137-.47a28 28 0 0 0-.212-.97c-.005-.047.037-.195.095-.169"/><path fill="#fef3ef" d="M9.184 16.553a2.8 2.8 0 0 1-.021-.735l.264.709s.482.942.768 1.096c.228.127.741.053.964 0c-.117.227-.376.698-.434.762c-.059.064-.212.201-.276.265a.51.51 0 0 1-.429.106c-.195-.053-.211-.26-.19-.355l-.042.021a3 3 0 0 1-.175-.19c-.037-.053-.17-.44-.186-.461a6.3 6.3 0 0 1-.243-1.218m.789-2.133c-.01-.053-.159-.413-.228-.582a5.84 5.84 0 0 1 .842-2.722l1.832-.762l1.307-.778l2.17 1.726l.123.984v1.43l-.085.18l.19.132l-.19.111l-.265.212l-.106.37l-.439.398l-.302.317l-.312.424l-.223.159l-.301.132a3.6 3.6 0 0 1-.678.159c-.307.053-.847.08-1.08.09h-.53l-.28-.223l-.45-.402l-.344-.37l-.35-.487q-.165-.24-.301-.498"/><path fill="#c78bab" d="M15.087 13.577c-.16-.19-.26-.487-.292-.614c.106 0 .37.07.646.34c.334.343.037.502 0 .54c-.042.036-.159-.033-.354-.266"/><path fill="#b36491" d="m6.743 13.165l-.043-.206l.403.058c.19.026.338.016.582 0c.19-.01.413-.133.498-.19l-.059 1.212c-.01.053.021.307.037.423l-.143-.111l-.264-.842l.031.72l-.248-.063q-.15-.03-.302-.037l-.19-.34l-.302-.63zm3.245 1.292l-.233-.487l-.016.656zm1.175 1.927l1.08.656l.567-.413q-.108.31-.265.599l-.18.174c.037.022.17.053.424 0s.455-.137.518-.174l.742-.52c-.053.107-.207.355-.318.446c-.106.084-.397.243-.53.317c.327-.03.641-.14.916-.317c.303-.195.57-.44.789-.726c.159-.222.265-.476.302-.571l-.233.846l.492-1.027c.09-.19.524-1.201.73-1.683l.07-.249h-.281l-.053.159l.148.132a8 8 0 0 0-.423.318c-.016.016-.09.265-.122.392l-.635.571c-.07.133-.254.43-.392.54l-.053.053c-.143.117-.26.212-.656.297c-.36.08-.81.153-.99.18h-1.128l-.302-.201l-.222.2z"/><path fill="#fbbdc8" d="M6.415 13.657c.064.18.201.434.265.54l.17-.032l-.07-.534l-.058-.524v-.17c.037.027.233.085.672.1c.44.017.71-.158.79-.248c-.017.46-.038 1.45 0 1.689c.042.296.222.656.232.683c.01.021.143.143.212.201v-.095l.01-.106c.053.127.186.418.286.572c.106.158.498.428.683.545l-.074-.244l-.111-.423v-.28l.042-1.08l.032-.117l.133.863l.137.365l-.032-.842l.032-.508l.053-.487l.249-.985c.048-.19.318-.937.45-1.286c.18-.032.651-.106 1.101-.149a1.9 1.9 0 0 0 1.112-.577c.069-.079.318-.38.423-.524l.323-.508c.127-.212.382-.63.392-.662c.01-.031.127-.17.185-.238c-.153.344-.487 1.128-.608 1.504c-.149.47-.212 1.456-.212 1.588c-.005.116.02.307.037.392l.106-.387c.016.148.058.477.1.635c.043.16.186.345.254.413l.032-.174c.265 0 .567-.143.683-.212l-.19.185c.29-.02.635-.317.767-.46c-.026.158-.159.391-.212.487c.26-.172.49-.387.678-.636c.348-.398.582-.882.678-1.403q0 .918-.164 1.822v1.413h.275l-.44 1.075c-.275.609-.83 1.837-.873 1.911c-.053.095-.196.222-.302.312c-.085.07-.317.212-.423.281a1.16 1.16 0 0 0 .582-.233a.5.5 0 0 1-.111.18c-.064.063-.344.307-.477.418c.117-.037.408-.137.652-.233c.301-.116.635-.444.847-.55c.2-.106.476-.503.667-.736c.148-.185.264-.556.307-.715c.01.122.037.424.037.683c.005.254-.1.863-.154 1.133c.085-.275.276-.873.344-1.059c.07-.19.122-.519.138-.667l.074-.582l.17-.704l.143-.471c.052.465.412 1.387 1.408 1.387c1.577 0 1.61-.752 1.61-1.107c0-.28-.186-.598-.281-.72a6 6 0 0 1-.424-.847a10 10 0 0 1-.36-1.112l-.471-1.535c-.074-.148-.265-.466-.418-.567c-.196-.127-.307-.116-.456-.137a1.6 1.6 0 0 0-.487.042a.2.2 0 0 1-.106 0c-.423-.974-1.556-1.837-2.07-2.15l-.915-.423c-.424-.153-1.472-.466-2.266-.466a4.6 4.6 0 0 0-2.028.456a9 9 0 0 0-1.075.74a1.7 1.7 0 0 0-.354.255c-.011 0-.27.148-.371.233c-.09.085-.328.28-.434.392a12 12 0 0 0-.545.65a14 14 0 0 0-.466.816a5 5 0 0 0-.164.519l-.413.408a17 17 0 0 0-.551.56c-.053.064-.106.266-.132.318a1.3 1.3 0 0 0-.085.318q.001.158.122.37q.186.273.444.477c.053.254.186.794.244.974"/><path fill="url(#SVGDmqYN1Rd)" d="M12.143 12.07c-.122.042-.132-.064-.148-.08a1.5 1.5 0 0 0-.995-.254c-.122.053-.207.254-.408.254s-.058-.042-.053-.185c.01-.143.402-.45.545-.503c.149-.053.911.042.996.1c.084.054.227.303.27.477c.042.175-.085.148-.207.19"/><path fill="#9d7691" d="M6.774 12.78c-.413 0-.61-.086-.657-.128c.127.133.577.397 1.34.397c.767 0 1.286-.693 1.45-1.038l.106-.28l.17-.307l.746-1.345l.117-.238l.285-.852l.096-.514l-.032-.678l-.027.027c-.847.445-1.318 1.466-1.45 1.916c-.201.52-.678 1.668-.953 2.128c-.334.572-.673.911-1.191.911m11.345-1.68c0-.518-.296-1.037-.45-1.227c.053.127.154.593.154 1.44c-.033.82-.152 1.634-.355 2.43c.01.084.053.338.17.64c.147.376.386.567.793.736c.328.133.916.053 1.165 0c-1.784.117-1.477-3.367-1.477-4.023z"/><path fill="#fcf3ec" d="M12.937 9.098a1.06 1.06 0 0 0-.646-.175c.052-.08.195-.26.338-.37c.186-.138.434-.297.477-.265c.026.026.275.127.402.174zm.222-.154l-.074.138c.132-.053.232-.26.264-.36a.9.9 0 0 0-.19.222m.238 0a.5.5 0 0 1 .137-.143c.053-.026.075-.02.075 0c0 .021-.143.106-.212.138zm1.038-.148l-.043.318c.032.005.106.026.122.016c.021-.016.095-.18.132-.265zm.148.99l.206.17c.096-.202.302-.652.323-.795l-.227-.174c-.075.238-.244.73-.302.799m1.09.487a1.8 1.8 0 0 1-.815-.254l.323-.8l.297.186l-.138.614l.228-.614l.248.095zm.233-.53l.175.075l-.175.344v-.424z"/><path fill="#411812" d="M10.878 12.106c0 .444.222.683.455.725a.66.66 0 0 0 .715-.646c0-.148-.027-.392-.228-.476a3 3 0 0 0-.72-.127a.82.82 0 0 0-.222.518z"/><path fill="#fffbfa" d="M11.085 11.598c0 .138.185.238.275.275c.196 0 .153-.105.28-.243c.133-.138-.556-.212-.556-.032"/><path fill="#72393f" d="M11.11 11.878c-.063.053-.105.276-.105.313a.4.4 0 0 0 0 .159c.02.063.174.153.407.248c.233.096.212 0 .318-.095c.095-.095.122-.153.09-.296s-.08-.17-.111-.212c-.032-.053-.223-.117-.28-.074c-.054.037.084.137.168.264c.085.133-.01.127-.031.143s-.09.09-.138.096c-.042.01-.074-.053-.106-.106c-.037-.053-.085-.085-.1-.127c-.016-.043.02-.313 0-.37c-.021-.054-.048.004-.106.057z"/><path fill="#ffe6e3" d="M11.56 11.922c0 .11.09.116.138.106c.037-.006.106-.037.106-.106c0-.085-.085-.143-.117-.143c-.031 0-.127 0-.127.143"/><path fill="url(#SVGsicIpeaK)" d="M10.946 12.45c.032.212.265.328.382.36c.238 0 .46-.117.46-.28c0-.16-.09-.223-.212-.244c-.116-.021-.28.116-.301.02c-.016-.094-.133-.184-.212-.184c-.08 0-.154.063-.117.328"/><path fill="#411812" d="M14.186 13.334c-.228.392-.18.693-.026.831c.455.265.778-.127.852-.254s.175-.35.069-.514a2.3 2.3 0 0 0-.471-.413a.86.86 0 0 0-.424.35"/><path fill="#fffbfa" d="M14.594 12.984c-.074.121.01.29.058.36c.149.084.175-.032.334-.09c.164-.064-.307-.419-.392-.265z"/><path fill="#72393f" d="M14.467 13.244c-.074.021-.212.19-.228.222a.5.5 0 0 0-.084.143c-.016.059.053.202.18.387c.121.18.158.09.28.053c.117-.042.17-.08.217-.212c.053-.143.021-.185.027-.238c0-.053-.111-.196-.175-.185c-.058.01-.01.158-.01.307c0 .148-.07.105-.09.105c-.027.006-.117.043-.154.027c-.032-.01-.027-.085-.027-.143s-.016-.106-.005-.148c.005-.048.17-.26.18-.318s-.037-.016-.106 0z"/><path fill="#ffe6e3" d="M14.78 13.472c-.054.095.01.143.052.154c.027.01.101.01.133-.048c.042-.074.005-.159-.016-.175s-.1-.053-.17.07"/><path fill="url(#SVGwvHqhTUl)" d="M14.065 13.667c-.09.196.032.397.1.477c.176.1.398.095.477-.048c.085-.137.053-.228-.026-.296c-.08-.07-.275-.021-.238-.111s-.011-.223-.07-.255c-.052-.031-.142-.015-.248.233z"/><path fill="#000" fill-rule="evenodd" d="m11.878 14.741l.016-.021v-.005l.026-.043l.005-.026v-.016a.04.04 0 0 0-.02-.016c-.011-.005-.027 0-.038 0q-.052.023-.106.043l-.031.01l-.07.037a.1.1 0 0 0-.02.021a.05.05 0 0 0-.017.032l.017.032l.026.021l.026.026l.027.053l.005.006l.08.122c.033.043.08.074.132.09a.24.24 0 0 0 .159-.016q.014.03.053.053c.037.031.106.053.222.063c.027.074.08.17.18.212c.106.047.265.026.46-.117l-.031-.047c-.19.143-.318.153-.408.116a.3.3 0 0 1-.159-.196v-.02h-.02c-.122-.006-.186-.033-.212-.054c-.038-.02-.032-.037-.032-.042l.01-.032h-.031a.34.34 0 0 1-.175-.053a.2.2 0 0 1-.069-.09a.24.24 0 0 1 0-.137v-.006zm.143.318a.3.3 0 0 1-.096-.042a.23.23 0 0 1-.09-.117a.3.3 0 0 1-.005-.18v-.01c.01 0 .01-.011.016-.016l.005-.006l.01-.016h-.015l-.064.032l-.031.01l-.07.043l.017.01l.037.043l.032.053v.005l.079.111a.2.2 0 0 0 .106.075c.016.005.042.01.069 0z" clip-rule="evenodd"/><path fill="#b18697" d="m12.954 10.286l.571-.482l.28-.699l.25-.508l-.28.387l-.414.72l-.307.44l-.106.142zm3.187.392l-.143.365l-.106.302l.106.995l.143-.91l.026-.816z"/><path fill="#000" d="M14.563 6.716c-2.16-.476-3.828.302-4.39.747l-.03-.043c.57-.455 2.254-1.238 4.43-.757z"/><path fill="#000" fill-rule="evenodd" d="M12.121 6.203a4.22 4.22 0 0 0-2.874 1.112c.116-.032.248-.053.412-.037c.202.027.445.106.742.297l.01.005v.016c.005.159.027.54.027.836a4 4 0 0 1-.19.9a4.7 4.7 0 0 1-.34.863c-.158.265-.65 1.165-.884 1.578a2.1 2.1 0 0 1-.826 1.07c-.01.19-.026.46-.032.72a6 6 0 0 0 0 .671c.016.16.053.382.128.593c.063.186.158.366.312.477H8.6a5 5 0 0 1-.138-.37a2 2 0 0 1-.09-.355a4 4 0 0 1 0-.636l.053-.275c-.01.122-.021.688 0 .9q.067.296.17.582v-.529l.052-.26v.683c.032.133.122.445.286.662c.085.106.212.223.35.318c.1.08.2.143.275.19a3 3 0 0 1-.1-.285a1.5 1.5 0 0 1-.075-.435l.074-1.725l.032-.207c0 .201.048.725.095 1.043c.032.238.08.477.149.651c-.032-.407-.053-1.18.09-1.869c.169-.841.434-1.588.688-2.207h.005l.111-.265c.416-.883.939-1.712 1.557-2.467c.423-.593 1.217-1.006 1.599-1.196q.085-.045.169-.096l-1.07.73c-.211.128-.433.34-.661.6c-.658.808-1.206 1.7-1.63 2.651a5.7 5.7 0 0 0 1.254-.836l.185-.164l.286-.244a5.1 5.1 0 0 1-1.488 1.181l.016.016c.122.01.318.021.52.01h.005l-.022-.227l.329.196a1.4 1.4 0 0 0 .317-.08c.217-.08.471-.264.704-.487s.45-.487.598-.741l.08-.138c.27-.476.556-.974.884-1.376l.042.037a5.8 5.8 0 0 0-1.032 3.653l.106-.413l.069-.196a3 3 0 0 0 0 .768c.037.206.121.423.27.598l.01-.598l.048.227v.233c.154-.01.466-.09.741-.301l.106-.096l.159-.138l-.09.112l-.143.159l-.228.2a1.44 1.44 0 0 0 .784-.613l-.043.143a1.3 1.3 0 0 1-.158.45a3.32 3.32 0 0 0 1.244-1.943v-.016a4 4 0 0 0 .106-.895a3.64 3.64 0 0 0-.9-2.525l.02-.021c-1-.54-2.113-.838-3.25-.869m-2.245 7.2a11 11 0 0 1 .572-1.906c0 .165.07.488.106.636c-.021-.254.106-.757.747-.757a1.54 1.54 0 0 1 1.376.81c-.069-.313-.175-.477-.212-.514l.302.291a1.65 1.65 0 0 0-.995-.857a1.4 1.4 0 0 0 .238-.064c.228-.09.487-.275.725-.498c.277-.26.509-.565.689-.9c.169-.29.338-.592.529-.873a5.8 5.8 0 0 0-.715 3.34l.053.006l.069-.297q0 .136.032.286c.048.233.143.477.333.678l.048.042v-.212c.106-.01.291-.052.492-.148l-.106.09h.08c.159-.01.497-.1.741-.407l-.053.143a.6.6 0 0 1-.18.275l-.1.106c.492-.18 1.19-.895 1.498-1.922c-.021.556-.117 1.27-.16 1.588l-.01 1.25a.53.53 0 0 1-.29-.265c-.085-.201-.472-.884-1.483-.328c.238-.022.783-.027 1.01.127c.292.185.477.82 0 1.19a.62.62 0 0 0 .36-.147c.139-.117.409-.154.53-.16c-.11-.084-.333-.264-.338-.338c0-.064.121-.074.211-.069v.185h.26l-.053.16q-.547 1.257-1.112 2.509l.106-.397l.513-1.71q.181-.159.435-.286l-.022-.053c-.174.09-.317.185-.444.296h-.01v.01a2.7 2.7 0 0 0-.371.403c-.106.143-.207.297-.318.466v.005c-.117.17-.238.355-.381.551c-.111.154-.297.27-.53.36a3.5 3.5 0 0 1-.794.201c-.566.085-1.17.09-1.562.064a5.3 5.3 0 0 1-1.895-2.42c.01-.18.037-.365.074-.545zm5.454 1.345c.09-.122.18-.228.285-.328l-.095.312v-.005l-.376.35l-.122.116c.106-.16.202-.307.307-.445m-.149.37l.313-.29l-.297.974a2.61 2.61 0 0 1-1.848 1.62a2 2 0 0 0 .276-.16c.196-.137.413-.428.508-.672l-.08.08a3 3 0 0 1-1.085.672a1.2 1.2 0 0 1-.56.064c.12-.096.311-.334.412-.741l.016-.075l-.598.424l-.016-.01l-.239-.138l-.778-.52l.217-.12q.12.096.255.184l.005.006h.005a7.7 7.7 0 0 0 1.583-.064c.286-.042.566-.106.805-.201c.233-.095.429-.217.55-.381c.106-.138.19-.276.276-.403c.01 0 .069-.053.148-.127zm-3.324 1.769l.338.164l.307.18a.6.6 0 0 1-.174.159l-.053.032l.058.02c.106.032.28.048.519-.01l-.005.01c.058.038.158.101.248.17c.096.074.186.148.233.217c.122.175.16.376.16.62c0 .116-.043.317-.09.529a6 6 0 0 1-.15.53l-.052.148c-.064.159-.122.301-.106.609h.053a1.1 1.1 0 0 1 .1-.583l.053-.159c.043-.116.106-.323.154-.53c.053-.21.09-.423.09-.544c0-.25-.037-.46-.164-.652a1.2 1.2 0 0 0-.318-.275h.043c.476-.047 1.482-.392 1.995-1.371l-.143.53h.006l-.037.068c-.08.143-.265.291-.424.403a3 3 0 0 1-.317.174h-.006l-.106.064c.16.005.419-.053.546-.111c.053-.027.106-.053.143-.085c-.064.08-.143.159-.228.233c-.138.122-.37.275-.455.333h.106a4.2 4.2 0 0 0 1.403-.683c.511-.365.9-.876 1.117-1.466l.031.789l.027-.344v-.625l-.053-.005a3 3 0 0 1-1.154 1.61c-.374.277-.79.492-1.234.634l.244-.2q.2-.166.339-.387l.053-.106c-.053.053-.244.19-.366.254q-.122.057-.264.09l.2-.127c.17-.106.356-.265.446-.418c.074-.117.296-.614.55-1.18l.72-1.632q.258-.852.482-1.715c.09-.339.249-.963.291-1.673a3.87 3.87 0 0 0-.604-2.493l-.169-.127c.51.773.763 1.689.72 2.615a8.4 8.4 0 0 1-.291 1.662l-.032.122c-.095.397-.265.995-.381 1.377h-.223V12.35c.053-.37.17-1.239.165-1.816a3.8 3.8 0 0 0 .106-.916c0-1.286-.54-2.17-.858-2.51l.159.096c.227.153.593.434.953.794c.36.355.71.794.9 1.244l.016.021l.02-.005a1.7 1.7 0 0 1 .54-.063c.213.005.414.052.54.185c.265.275.435.725.488.921c.11.397.36 1.292.476 1.684c.16.487.397 1.021.567 1.28s.35.551.35.848c0 .148-.011.407-.197.635c-.185.228-.556.424-1.291.424c-.583 0-.948-.233-1.165-.53a1.54 1.54 0 0 1-.286-.879l-.053-.01c-.053.116-.18.466-.286.921c-.058.265-.09.519-.122.757l-.01.053c-.032.26-.064.492-.127.688c-.106.323-.18.598-.212.694l-.122.46v.01h-.005v-.01l.18-.53l.212-.608c.063-.201.095-.44.132-.694l.005-.058c.032-.238.064-.492.122-.752c.08-.349.175-.635.238-.794c.021.233.106.53.291.784c.228.307.61.55 1.207.55c.742 0 1.133-.195 1.335-.439c.196-.244.211-.53.211-.678c0-.307-.195-.614-.365-.873a6 6 0 0 1-.55-1.27a56 56 0 0 1-.477-1.679a2.45 2.45 0 0 0-.508-.942c-.143-.143-.36-.196-.577-.201a2 2 0 0 0-.53.053a4.4 4.4 0 0 0-.91-1.24a6.6 6.6 0 0 0-.964-.793c-.53-.34-1.975-1.017-3.51-1.017a4.24 4.24 0 0 0-2.975 1.197c-.111.031-.222.116-.334.227a4 4 0 0 0-1.44 1.35a4.8 4.8 0 0 0-.624 1.329l-.006.005a2 2 0 0 1-.227.244a5 5 0 0 0-.673.651a1.4 1.4 0 0 0-.185.355c-.042.127-.069.248-.085.317v.011c.016.238.207.604.588.879h-.005c.084.656.333 1.223.476 1.482l-.106.042c-.206.106-.397.281-.646.572c-.407.466-.794 1.218-.937 1.53l.053.021c.138-.317.52-1.058.922-1.514c.254-.29.434-.46.635-.56l.106-.049l.01.016l.053-.031h-.005l.148-.037c.117-.016.249-.027.408-.027c.487 0 .783.233.879.355c.02.106.053.222.09.339c.079.217.206.434.407.556l.074.042l-.031-.074l-.037-.09v-.032c.047.154.127.339.238.487c.09.117.222.233.36.334c.132.1.265.185.35.233l.073.037l-.037-.075a4 4 0 0 1-.127-.354a1.5 1.5 0 0 1-.074-.424l.053-1.212l.042.339c.043.317.212.826.318 1.006l-.042-.212l-.01-.016v-.005a8 8 0 0 1-.033-.752l.01.01l.207-.164c.34.643.803 1.213 1.361 1.678a.85.85 0 0 0-.302.26c-.122.164-.016.344.053.413a.5.5 0 0 1-.026-.265l.794.318zm1.185.62a3 3 0 0 0 .551-.287c.159-.11.307-.254.397-.423a3 3 0 0 1-1.085.62zm-.751-.461l.243.143c.074-.112.159-.265.212-.472zm-4.156-2.637a6 6 0 0 1-.027-.847c.01-.243.021-.503.037-.688a1.6 1.6 0 0 1-.391.159l.02.402l.287.916zm-.143-.106l-.212-.65l.032.529l-.053.005c.09.032.17.074.233.111zm-.233-.116L7.7 13.038c-.32.049-.646.03-.959-.053l.006.09l.354.794l.16.233h.01c.19 0 .355.032.487.085m-.561-.085l-.143-.212l-.28-.63l.084.869q.15-.025.339-.027m-.392.037a25 25 0 0 0-.122-1.17a2 2 0 0 1-.476-.227c.095.64.339 1.19.476 1.429zm3.15.297l-.19.153c0-.17.01-.344.02-.53c.043.107.096.234.17.371zm-2.568-1.42c-.22.002-.44-.028-.65-.09c.02-.02-.022-.026-.038-.01c-.715-.227-1.048-.783-1.075-1.085a3 3 0 0 1 .085-.307a1.2 1.2 0 0 1 .175-.339q.301-.353.662-.646c.052-.042.132-.132.238-.249v-.005h.01v-.01c.106-.117.223-.265.35-.413c.264-.318.55-.683.736-.916l.508-.752q.204-.309.455-.582l.032-.016v-.01a.9.9 0 0 1 .28-.197l.011.005l.005-.01h.006a1.3 1.3 0 0 1 .476-.053c.19.021.418.1.704.28c.01.16.027.535.027.821c0 .18-.08.53-.186.884c-.105.35-.238.689-.338.853a74 74 0 0 0-.884 1.582a2.07 2.07 0 0 1-.805 1.049h-.027v.01a1.46 1.46 0 0 1-.757.207m1.308-5.32a4 4 0 0 0-1.281 1.25a4.8 4.8 0 0 0-.583 1.207l.27-.329q.373-.45.736-.91l.509-.752c.105-.159.222-.323.349-.466" clip-rule="evenodd"/><path fill="#f4bec6" d="M11.868 13.239a4.3 4.3 0 0 1-1.334-.73c-.53.412-.233 1.137.18 1.286c.413.148 1.154-.53 1.154-.556"/><path fill="#f4bfc7" d="M14.324 14.313c-.159-.053-.477.085-.556.127c-.265.387.143.71.45.895s.609-.032.688-.185c.064-.127.027-.37 0-.477c-.143-.106-.455-.317-.582-.36"/><path fill="#fadcd1" d="M12.985 13.593c-.064.138.116.37.164.445c.587-.037.37-.212.275-.37c-.095-.149-.381-.212-.44-.075"/><path fill="#000" d="M12.667 11.428a2.5 2.5 0 0 0-.7-.403c.08.01.276.043.398.106c.127.058.254.222.301.297m.64-.816l-.498-.159l.016-.047l.498.159l-.016.053zm2.674 1.705l-.44-.429l.037-.042l.44.434zm-6.82 3.637c-.01.122.096.53.615 1.207zm2.044 1.646l-.783.08h.757l.032-.08z"/><path fill="#262837" d="M8.427 15.515c-.064-.148-.492-.932-.699-1.308c.392.143.747.466.942.81c.138.233.323.715.435 1.006l-.006-.08h.053c.021.334.09 1.06.228 1.59l.01.036c.07.26.174.51.313.741a.3.3 0 0 0 .069.07l.02.01l.043-.027v.053a.36.36 0 0 0 .053.207a.31.31 0 0 0 .265.116c.143-.005.286-.106.418-.227c.127-.128.238-.276.296-.37c.096-.15.239-.398.355-.673c.122-.27.223-.562.233-.79h.053a2.5 2.5 0 0 1-.233.81c-.122.276-.265.53-.36.678q-.158.254-.381.45l.01.006c-.243.243-.598.519-.74.63l-.027.016l-.016-.027c-.206-.466-.365-1.276-.424-1.662a8.5 8.5 0 0 1-.217-1.377l-.031.053l-.106-.222l-.074.037l.29 1.414l.022.116l.026.138l.096.476c.08.35.196.762.35 1.048v.01a1 1 0 0 1-.08.372a.4.4 0 0 0-.027.18c0 .053.016.095.027.127l.164.042a.29.29 0 0 0 .069-.265a.7.7 0 0 1 0-.36v-.01h.01c.106-.085.418-.334.773-.667a4 4 0 0 0 .758-1.148l.009-.007a.03.03 0 0 1 .022 0c.01.006.016.022.01.038c-.116.264-.412.825-.762 1.154a9 9 0 0 1-.773.661a.7.7 0 0 0 0 .318a.34.34 0 0 1-.09.334l-.01.01L9.57 20v-.016a.5.5 0 0 1-.037-.153a.44.44 0 0 1 .032-.212c.053-.116.074-.265.08-.333a4.5 4.5 0 0 1-.355-1.06a11 11 0 0 1-.122-.619l-.021-.11l-.291-1.41c-.027.006-.053.006-.064-.01a5 5 0 0 1-.201-.27c-.159.53-.424 1.064-.704 1.536q-.406.679-.921 1.28l-.043-.036c.228-.254.583-.72.916-1.27a6.7 6.7 0 0 0 .715-1.568a1.5 1.5 0 0 1-.127-.233m3.462 4.384c.053-.16.276-.884.376-1.234l-.159.858l.768-.895a55 55 0 0 0-.879 1.27c-.037.085-.053.329-.053.445l-.127-.037c0-.069.01-.249.074-.407m-2.091-.71c-.143-.344-.265-.857-.344-1.254c.08.2.148.328.201.402a.3.3 0 0 0 .122.106c0 .058.021.143.069.211c.058.08.159.143.317.138a.5.5 0 0 0 .175-.047c-.196.18-.423.349-.54.444m-1.752-3.076a1.4 1.4 0 0 1-1.027.964c.132.17.439.487.624.397c.18-.09.34-.921.403-1.36"/><path fill="#8f8f8f" fill-rule="evenodd" d="M12 21a9 9 0 1 0 0-18a9 9 0 0 0 0 18m0-1.059a7.942 7.942 0 1 0 0-15.883a7.942 7.942 0 0 0 0 15.883" clip-rule="evenodd"/><path fill="#000" d="M20.206 12a8.206 8.206 0 1 1-16.412 0a8.206 8.206 0 0 1 16.412 0M12 19.942a7.942 7.942 0 1 0 0-15.885a7.942 7.942 0 0 0 0 15.885"/><defs><linearGradient id="SVGDmqYN1Rd" x1="4.742" x2="18.817" y1="16.93" y2="17.254" gradientUnits="userSpaceOnUse"><stop stop-color="#faddd9"/><stop offset="1" stop-color="#c487a8"/></linearGradient><linearGradient id="SVGsicIpeaK" x1="12.048" x2="12.048" y1="3" y2="21" gradientUnits="userSpaceOnUse"><stop stop-color="#cb8d76"/><stop offset="1" stop-color="#eadab8"/></linearGradient><linearGradient id="SVGwvHqhTUl" x1="16.738" x2="9.663" y1="6.17" y2="20.913" gradientUnits="userSpaceOnUse"><stop stop-color="#cb8d76"/><stop offset="1" stop-color="#eadab8"/></linearGradient></defs></g></svg>