<svg xmlns="http://www.w3.org/2000/svg" viewBox="0 0 24 24"><g fill="none"><path fill="url(#SVGCT5gEk7L)" d="M20.953 6.132c.594 7.966-4.574 11.731-9.207 12.133c-4.308.373-8.362-2.25-8.718-6.279C2.735 8.657 4.811 7.24 6.442 7.1c1.678-.146 3.088 1 3.21 2.389c.119 1.335-.722 1.942-1.307 1.993c-.462.04-1.043-.238-1.096-.835c-.045-.513.152-.583.104-1.128c-.086-.97-.94-1.084-1.407-1.043c-.566.049-1.593.703-1.449 2.333c.145 1.644 1.736 2.943 3.821 2.762c2.25-.195 3.818-1.931 3.936-4.366a.9.9 0 0 1 .08-.374v-.003q.037-.076.085-.147q.071-.106.19-.236q0-.003.002-.002q.087-.097.206-.21c.983-.919 4.524-3.086 7.872-2.4a.34.34 0 0 1 .264.3"/><defs><linearGradient id="SVGCT5gEk7L" x1="19.143" x2="5.727" y1="8.706" y2="16.386" gradientUnits="userSpaceOnUse"><stop stop-color="#0cc5ff"/><stop offset="1" stop-color="#007fff"/></linearGradient></defs></g></svg>