<svg width="128" height="128" version="1.1" viewBox="0 0 33.867 33.867" xmlns="http://www.w3.org/2000/svg">
 <g transform="translate(-88.084 -43.756)" stroke-linecap="round" stroke-linejoin="round">
  <path d="m110.45 54.246a10.415 10.415 0 0 0-10.415 10.415 10.415 10.415 0 0 0 10.415 10.415 10.415 10.415 0 0 0 10.415-10.415 10.415 10.415 0 0 0-10.415-10.415zm0 2.8558c3.9581 0 7.5595 3.6014 7.5595 7.5595 0 3.9581-3.6014 7.5595-7.5595 7.5595-3.9581 0-7.5595-3.6014-7.5595-7.5595 0-3.9581 3.6014-7.5595 7.5595-7.5595z" fill="#00c8da" stroke-width="1.9536"/>
  <rect x="89.958" y="55.233" width="2.6458" height="19.844" ry="1.1323" fill="#555" stroke-width="1.2927"/>
  <circle cx="91.281" cy="48.419" r="2.1167" fill="#00c8da" stroke-width="1.2524"/>
 </g>
</svg>
