<svg xmlns="http://www.w3.org/2000/svg" viewBox="0 0 24 24"><g fill="none"><path fill="url(#SVGxLVj1cLH)" d="m3 12l1.421-1.422L5.842 12l-1.42 1.421z"/><path fill="url(#SVGwFFpfcRc)" d="m4.895 13.895l1.42-1.421l3.316 3.315l-1.42 1.422z"/><path fill="url(#SVG1ZJq1bbR)" d="m8.684 13.895l1.421-1.421l1.421 1.42l-1.42 1.422z"/><path fill="url(#SVGETP1peVr)" d="M10.58 12L12 10.577L13.423 12L12 13.42z"/><path fill="url(#SVG7FIh8cDK)" d="m12.474 10.106l1.421-1.421l1.421 1.42l-1.42 1.422z"/><path fill="#f3ba2f" d="m14.369 8.21l1.42-1.42l3.317 3.315l-1.422 1.42z"/><path fill="url(#SVGTSPiGcWH)" d="m12.474 13.895l1.421-1.421l1.421 1.42l-1.42 1.422z"/><path fill="url(#SVGHD3DGd2v)" d="m14.369 15.79l3.315-3.316l1.422 1.42l-3.316 3.316z"/><path fill="#f3ba2f" d="m18.158 12l1.421-1.422L21 12l-1.42 1.421z"/><path fill="url(#SVGvxvLQevT)" d="M4.895 10.105L8.21 6.789L9.631 8.21l-3.315 3.316z"/><path fill="url(#SVG1ZJq1bbR)" d="m8.684 10.106l1.421-1.421l1.421 1.42l-1.42 1.422z"/><defs><linearGradient id="SVGxLVj1cLH" x1="9.394" x2="10.825" y1="10.815" y2="9.389" gradientUnits="userSpaceOnUse"><stop stop-color="#4086ff"/><stop offset="1" stop-color="#48d5ff"/></linearGradient><linearGradient id="SVGwFFpfcRc" x1="9.3" x2="12.02" y1="13.563" y2="8.865" gradientUnits="userSpaceOnUse"><stop stop-color="#4086ff"/><stop offset="1" stop-color="#48d5ff"/></linearGradient><linearGradient id="SVG1ZJq1bbR" x1="9.395" x2="10.825" y1="10.816" y2="9.39" gradientUnits="userSpaceOnUse"><stop stop-color="#4086ff"/><stop offset="1" stop-color="#48d5ff"/></linearGradient><linearGradient id="SVGETP1peVr" x1="7.501" x2="12.019" y1="14.605" y2="6.799" gradientUnits="userSpaceOnUse"><stop stop-color="#e8bb41"/><stop offset="1" stop-color="#f6da5b"/></linearGradient><linearGradient id="SVG7FIh8cDK" x1="7.5" x2="12.019" y1="14.606" y2="6.801" gradientUnits="userSpaceOnUse"><stop stop-color="#e8bb41"/><stop offset="1" stop-color="#f6da5b"/></linearGradient><linearGradient id="SVGTSPiGcWH" x1="7.5" x2="12.019" y1="14.605" y2="6.8" gradientUnits="userSpaceOnUse"><stop stop-color="#e8bb41"/><stop offset="1" stop-color="#f6da5b"/></linearGradient><linearGradient id="SVGHD3DGd2v" x1="5.7" x2="12.026" y1="15.647" y2="4.72" gradientUnits="userSpaceOnUse"><stop stop-color="#e8bb41"/><stop offset="1" stop-color="#f6da5b"/></linearGradient><linearGradient id="SVGvxvLQevT" x1="5.7" x2="12.107" y1="15.647" y2="4.673" gradientUnits="userSpaceOnUse"><stop stop-color="#4086ff"/><stop offset="1" stop-color="#48d5ff"/></linearGradient></defs></g></svg>