<svg width="800" height="285" viewBox="0 0 800 285" fill="none" xmlns="http://www.w3.org/2000/svg">
<path d="M0 119.784H47.1407V280.989H0V119.784Z" fill="#FF1515"/>
<path d="M0 31.3756H47.1407V78.5163H0V31.3756Z" fill="#FF1515"/>
<path d="M193.045 119.784L156.105 229.057L119.784 119.784H69.088L128.13 280.989H180.371L238.485 119.784H193.045Z" fill="#FF1515"/>
<path d="M383.771 175.58C383.771 168.315 383.462 149.15 372.643 136.012C356.723 117.465 328.593 115.301 315.301 115.301C300 115.301 281.144 117.929 266.461 128.439C249.614 140.495 248.532 157.805 248.223 166.306H294.59C294.281 161.206 295.518 156.26 298.145 151.932C302.318 146.213 308.964 142.813 316.074 142.968C320.556 142.968 332.921 144.513 337.094 156.414C338.949 162.133 339.258 167.233 339.258 177.743C323.648 177.743 295.209 177.743 275.58 186.708C245.904 200.464 241.422 223.957 241.422 236.785C241.267 249.923 246.213 262.751 255.487 272.179C261.824 278.207 272.334 284.853 295.672 284.853C304.637 284.853 325.966 284.853 343.74 259.042C343.586 266.461 344.204 273.725 345.286 280.989H387.944C385.317 267.543 383.926 253.941 384.08 240.185L383.771 175.58ZM330.294 245.131C325.193 251.005 317.929 254.405 310.201 254.405C294.59 254.405 287.172 242.349 287.172 231.376C287.172 212.21 308.81 202.628 339.103 205.255C339.258 222.566 338.485 234.93 330.294 245.131Z" fill="#FF1515"/>
<path d="M559.042 145.904C554.869 134.776 541.577 115.61 509.892 115.61C474.807 115.61 462.133 136.321 457.651 143.586L456.414 119.629H411.128C412.056 130.757 412.056 148.068 412.056 148.686V280.989H459.505V186.708C459.505 174.343 462.442 166.306 465.224 162.133C470.788 154.096 480.062 149.459 489.799 149.614C499.536 149.304 508.501 154.559 512.828 163.369C515.301 168.47 515.301 174.189 515.301 180.835V280.989H563.524V193.972C563.524 164.142 562.442 155.796 559.042 145.904Z" fill="#FF1515"/>
<path d="M657.96 79.1345L611.128 91.963V119.784H580.216V151.005H611.128V240.495C611.128 253.941 611.128 283.926 658.578 283.926C670.943 283.771 683.308 282.071 695.209 278.825V247.913C689.954 248.532 684.544 248.841 679.289 248.841C658.269 248.841 658.269 239.567 657.96 224.884V150.85H696.291V119.629H657.96V79.1345Z" fill="#FF1515"/>
<path d="M721.329 119.784H768.47V280.989H721.329V119.784Z" fill="#FF1515"/>
<path d="M721.329 47.1406H752.705V78.5162H721.329V47.1406Z" fill="#FF1515"/>
<path d="M768.624 31.3756V78.5162H800V0H721.329V31.5301L768.624 31.3756Z" fill="#FF1515"/>
</svg>
