<svg xmlns="http://www.w3.org/2000/svg" viewBox="0 0 24 24"><path fill="#f6931e" fill-rule="evenodd" d="M8.917 3.542a9 9 0 0 1 1.586-.418v.461h.762V3.03c.498-.04 1-.039 1.497.003v.553h.763V3.13q.827.142 1.597.427l-.19.393l.688.33l.206-.427q.722.34 1.368.797l-.29.334l.577.5l.317-.366c.413.348.795.734 1.14 1.15l-.353.226l.412.642l.403-.258q.453.652.788 1.381l-.377.126l.24.723l.425-.14q.271.757.406 1.572h-.413v.774l.504-.011a9 9 0 0 1-.015 1.564l-.003-.018h-.503v.774l.404-.009a9 9 0 0 1-.43 1.557l-.343-.174l-.35.691l.392.188a9 9 0 0 1-.802 1.358l-.264-.267l-.55.543l.34.33q-.517.604-1.129 1.11l-.18-.326l-.677.373l.242.417a9 9 0 0 1-1.31.75l-.088-.337l-.749.197l.125.435a9 9 0 0 1-1.607.422v-.404h-.73v.494a9 9 0 0 1-1.525-.003v-.483h-.73v.39a9 9 0 0 1-1.544-.405l.128-.446l-.748-.197l-.093.35a9 9 0 0 1-1.44-.834l.227-.25l-.502-.456l-.266.29a9 9 0 0 1-1.123-1.112l.294-.214l-.448-.618l-.314.229a9 9 0 0 1-.81-1.383l.354-.105l-.218-.73l-.432.128a9 9 0 0 1-.416-1.535l.439-.022l-.037-.762l-.504.025a9 9 0 0 1-.007-1.575l.46.044l.072-.76l-.437-.04q.136-.806.407-1.556l.39.174l.311-.696l-.41-.183q.331-.72.78-1.364l.367.288l.47-.6l-.376-.295q.511-.617 1.12-1.133l.277.349l.597-.475l-.271-.342a9 9 0 0 1 1.424-.829l.202.442l.693-.318zM12 19.412a7.412 7.412 0 1 0 0-14.823a7.412 7.412 0 0 0 0 14.823M18.882 12a6.882 6.882 0 1 1-13.764 0a6.882 6.882 0 1 1 13.764 0M12 8.294a1.059 1.059 0 1 0 0-2.117a1.059 1.059 0 0 0 0 2.117m-2.647 2.647l3.706-2.044v3.182l3.706-1.873v.707l-3.706 1.879v2.344c0 1.79-1.068 2.9-2.36 2.9c-1.165 0-2.28-.607-2.28-2.076c0-1.34 1.503-2.443 3.051-3.169v-2.265l-2.117 1.076zm2.117 3.898v-1.25c-.863.51-1.451 1.349-1.552 1.888c-.101.54-.02 1.398.69 1.276c.711-.123.862-1.276.862-1.914" clip-rule="evenodd"/></svg>