<svg xmlns="http://www.w3.org/2000/svg" viewBox="0 0 24 24"><g fill="none"><path fill="url(#SVGm7o2xdLI)" d="M7.235 7.765h9v8.47h-9z"/><path fill="#b5f759" d="m8.294 13.589l-3.176 1.323V8.824l3.176 1.853z"/><path fill="#2ab059" d="m15.97 10.413l3.177-1.324v6.088l-3.176-1.853z"/><path fill="#26a379" d="m15.971 13.589l3.182 1.308l-4.304 4.309l-.937-3.558z"/><path fill="#e5ff9e" d="M8.294 10.412L5.112 9.104l4.304-4.31l.937 3.559z"/><path fill="#60e840" d="m10.18 15.97l-1.383 3.156l-4.208-4.4l3.578-.857zm3.63-7.77l1.377-3.15l4.224 4.04l-3.59 1.217z"/><path fill="#b5f759" d="M10.412 8.03L9.088 4.854h6.088L13.323 8.03z"/><path fill="#2ab059" d="m13.588 15.706l1.323 3.177H8.823l1.853-3.177z"/><path fill="#f0f3fa" fill-rule="evenodd" d="m14.118 7.764l2.118 2.118l2.943-1.223l.254.582l-3.197 1.435v2.647l3.187 1.382l-.254.582l-2.933-1.17l-2.118 2.118l1.323 3.177h-.794l-1.323-3.177h-2.647l-1.324 3.177H8.56l1.324-3.177l-2.118-2.118l-2.79 1.18l-.254-.582l3.044-1.392v-2.647l-3.05-1.44l.255-.582l2.795 1.228l2.118-2.118l-1.165-2.922l.577-.254l1.382 3.176h2.647l1.482-3.15l.583.254zm-5.559 2.383l2.383 5.559h-.53L8.56 13.853zm4.5 5.559L9.883 8.823l.53-.265l3.175 6.883zm.53-7.148l1.852 1.589v3.706l-1.043 1.059l-2.927-6.354z" clip-rule="evenodd"/><path fill="url(#SVGbkoxpeCn)" fill-rule="evenodd" d="M15.706 3L21 8.294v7.412L15.706 21H8.294L3 15.706V8.294L8.294 3zm-1.059 2.118l1.059 1.058l-.265 2.483l2.383-.365l1.058 1.059v5.294l-1.058 1.059l-2.383-.265l.265 2.383l-1.059 1.058H9.353l-1.059-1.058l.265-2.383l-2.912.265l-.53-.583v-5.77l1.06-1.059l2.382.265l-.265-2.383l1.059-1.058z" clip-rule="evenodd"/><path fill="url(#SVG2ZLnEecN)" fill-rule="evenodd" d="m15.441 3.53l5.03 5.029v6.882l-5.03 5.03H8.56l-5.03-5.03V8.56l5.03-5.03zm-.264 1.058l1.058 1.059l-.264 2.382l2.382-.264l1.059 1.058v6.353l-1.059 1.06l-2.382-.266l.264 2.383l-1.058 1.059H8.824l-1.06-1.06l.266-2.382l-2.383.265l-1.059-1.059V8.823l1.06-1.058l2.382.264l-.265-2.382l1.059-1.059z" clip-rule="evenodd"/><path fill="#ffd464" fill-rule="evenodd" d="m15.267 4.376l1.19 1.192l-.248 2.223l2.224-.249l1.19 1.191v6.533l-1.19 1.191l-2.224-.248l.249 2.223l-1.191 1.191H8.734l-1.192-1.19l.25-2.224l-2.224.248l-1.191-1.19V8.732l1.19-1.19l2.224.248l-.249-2.223l1.192-1.192zM8.03 8.03l-2.383-.264l-1.059 1.058v6.353l1.06 1.06l2.382-.266l-.265 2.383l1.059 1.059h6.353l1.058-1.06l-.264-2.382l2.382.265l1.059-1.059V8.823l-1.059-1.058l-2.382.264l.264-2.382l-1.058-1.059H8.824l-1.06 1.059zm7.321-4.288H8.65L3.74 8.65v6.702l4.91 4.908h6.702l4.908-4.908V8.65zm5.12 4.818l-5.03-5.03H8.56L3.53 8.56v6.882l5.03 5.03h6.882l5.03-5.03z" clip-rule="evenodd"/><defs><linearGradient id="SVGm7o2xdLI" x1="7.764" x2="19.195" y1="4.687" y2="19.212" gradientUnits="userSpaceOnUse"><stop stop-color="#dcfa9c"/><stop offset=".45" stop-color="#81f045"/><stop offset=".95" stop-color="#3fb66b"/></linearGradient><linearGradient id="SVGbkoxpeCn" x1="5.647" x2="18.618" y1="5.118" y2="18.618" gradientUnits="userSpaceOnUse"><stop stop-color="#f3df6d"/><stop offset="1" stop-color="#c4732d"/></linearGradient><linearGradient id="SVG2ZLnEecN" x1="5.25" x2="18.188" y1="5.812" y2="18.75" gradientUnits="userSpaceOnUse"><stop stop-color="#fcfa95"/><stop offset="1" stop-color="#f09a4f"/></linearGradient></defs></g></svg>