<svg xmlns="http://www.w3.org/2000/svg" viewBox="0 0 24 24"><g fill="none"><path fill="#f58580" d="M12 20.47c4.765 0 8.47-3.97 8.47-8.47S16.766 3.53 12 3.53S3.53 7.5 3.53 12s3.705 8.47 8.47 8.47M21 12a9 9 0 1 1-18 0a9 9 0 0 1 18 0"/><path fill="#f0f3fa" d="M12.528 6.706c0-.265-.169-.53-.53-.53c-.36 0-.528.265-.528.53v2.41l-1.79-1.79c-.142-.139-.407-.16-.66.09c-.255.253-.234.518-.09.66l1.804 1.806H8.166c-.201 0-.402.238-.402.53c0 .29.2.529.402.529h2.552l-1.805 1.805c-.138.143-.117.45.09.662c.206.206.519.228.661.09l1.806-1.805v3.483h-1.06c-.344 0-.529.239-.529.53c0 .29.196.529.53.529h1.057v1.059c0 .265.239.53.53.53s.53-.265.53-.53v-1.059h1.059c.302 0 .53-.238.53-.53a.524.524 0 0 0-.53-.529h-1.06v-3.5l1.822 1.822c.143.138.456.116.662-.09c.206-.212.228-.519.085-.662l-1.804-1.805h2.539c.201 0 .402-.17.402-.53s-.2-.529-.402-.529H13.28l1.806-1.805c.137-.143.164-.408-.09-.662c-.255-.249-.52-.228-.662-.09l-1.806 1.806z"/></g></svg>