<svg width="695" height="720" viewBox="0 0 695 720" fill="none" xmlns="http://www.w3.org/2000/svg">
<path d="M754.782 558.949C754.41 566.931 751.499 583.063 749.873 590.899C738.396 646.24 714.197 705.017 672.101 744.075C647.501 767.044 612.982 783.274 579.088 784.533C558.762 785.288 543.589 783.534 523.32 789.954C508.732 794.574 499.06 799.549 485.812 806.836C462.105 819.877 434.803 825.611 407.867 824.552C339.445 821.913 276.707 778.522 231.737 729.598C184.825 678.868 151.33 617.222 134.298 550.258C126.125 519.05 121.431 487.757 122.797 455.482C125.384 392.415 149.245 329.527 196.414 286.42C227.669 257.858 266.537 241.309 309.268 243.302C316.049 243.617 322.879 243.875 329.672 244.181C334.334 243.42 341.436 243.991 346.452 243.472C355.203 242.565 364.084 240.913 372.654 238.964C388.188 234.637 401.957 229.882 415.959 221.616C427.406 214.858 437.939 207.727 449.918 201.787C503.508 175.213 566.563 187.236 616.867 215.547C684.215 253.449 723.607 315.879 743.863 389.039C755.022 429.881 759.941 472.173 758.453 514.485C758.315 518.477 757.82 532.462 756.966 536.149C756.686 542.447 755.889 552.683 754.782 558.949Z" fill="#E9413B"/>
<path d="M543.127 430.737C567.956 420.751 596.186 432.723 606.265 457.514C616.345 482.305 604.48 510.579 579.728 520.753C554.843 530.981 526.383 519.039 516.249 494.115C506.115 469.19 518.166 440.777 543.127 430.737Z" fill="#2A2A2A"/>
<path d="M571.169 435.331C577.324 433.39 583.892 436.775 585.882 442.914C587.872 449.053 584.539 455.648 578.415 457.686C572.224 459.747 565.539 456.368 563.527 450.161C561.514 443.953 564.946 437.294 571.169 435.331Z" fill="#DEE7EA"/>
<path d="M315.265 491.699C339.912 481.171 368.424 492.656 378.892 517.329C389.361 542.002 377.807 570.486 353.108 580.894C328.495 591.267 300.129 579.761 289.698 555.173C279.265 530.585 290.702 502.191 315.265 491.699Z" fill="#2A2A2A"/>
<path d="M341.588 496.79C347.168 493.513 354.347 495.376 357.628 500.954C360.908 506.531 359.048 513.712 353.472 516.996C347.892 520.282 340.705 518.419 337.422 512.838C334.139 507.256 336.005 500.07 341.588 496.79Z" fill="#DEE7EA"/>
<path d="M617.982 519.114C618.817 519.041 618.485 519.134 619.112 518.877C638.745 510.828 659.23 527.158 653.703 548.293C651.829 555.46 648.07 560.443 641.83 564.026L638.426 565.981C629.332 568.574 622.341 570.342 613.5 565.827C599.502 558.678 598.598 539.572 607.105 527.927C610.274 523.59 613.437 521.772 617.982 519.114Z" fill="#F08278"/>
<path d="M305.824 602.226C308.11 600.507 316.228 599.799 319.02 600.564C335.95 605.203 346.205 621.612 337.213 638.094C333.84 644.278 330.383 645.605 324.786 648.999C324.063 649.092 322.921 649.565 322.225 649.817C313.96 652.853 307.701 652.716 299.905 648.513C279.89 637.726 284.513 607.808 305.824 602.226Z" fill="#F08278"/>
<path d="M490.327 529.959C492.799 529.216 496.388 528.73 498.554 530.228C506.509 535.727 501.749 547.845 498.008 553.998C490.536 566.29 478.336 573.082 464.745 576.226C450.955 579.417 438.141 578.4 426.048 570.925C422.994 568.645 421.163 567.023 418.764 563.96C413.201 556.855 416.301 547.618 426.008 548.327C429.796 548.603 432.928 552.567 436.147 554.647C439.165 556.586 442.543 557.898 446.08 558.507C456.998 560.367 474.34 555.522 480.616 545.66C484.046 540.271 484.95 533.621 490.327 529.959Z" fill="#2A2A2A"/>
<path d="M315.178 140.292L315.24 139.571C316.069 129.067 314.442 116.537 315.133 105.713C318.366 55.3734 328.06 2.83568 369.021 -31.1214C389.257 -47.8966 408.928 -54.1702 432.138 -64.7183C466.168 -80.1835 499.727 -87.0109 535.168 -97.2724C545.951 -45.1064 533.922 24.2036 504.026 68.7C473.705 113.829 428.626 132.601 377.261 143.184C363.469 146.145 349.469 148.04 335.386 148.856C331.871 149.082 325.639 149.54 322.284 149.237L315.178 140.292Z" fill="#92A438"/>
<path d="M525.873 -76.355C526.362 -76.1004 526.137 -76.3037 526.395 -75.6109L525.197 -74.1048C519.414 -66.9312 512.976 -55.8801 507.535 -47.9831C469.69 6.94977 424.554 54.6603 374.958 99.0928C362.374 110.367 348.69 121.331 336.299 132.877L335.997 132.766L335.945 132.244C376.364 84.3207 417.755 37.2262 460.093 -9.01056C481.411 -31.8447 504.529 -53.7864 525.873 -76.355Z" fill="#728527"/>
<path d="M329.676 244.181C312.865 212.318 284.272 181.448 256.105 159.161C250.83 154.975 245.467 150.903 240.019 146.945C230.053 139.659 220.721 135.589 221.493 121.397C222.453 103.76 244.283 88.3257 260.825 90.3485C264.588 90.8055 268.196 92.1138 271.377 94.1742C282.792 101.424 306.524 129.487 315.179 140.293L322.285 149.238C342.76 177.811 359.532 206.186 372.659 238.963C364.089 240.913 355.208 242.565 346.456 243.471C341.441 243.991 334.338 243.42 329.676 244.181Z" fill="#854E21"/>
</svg>
