<svg xmlns="http://www.w3.org/2000/svg" viewBox="0 0 24 24"><g fill="none"><path fill="#e6403b" d="M6.938 6.375a1.688 1.688 0 1 0 0-3.375a1.688 1.688 0 0 0 0 3.375"/><path fill="#fcb82b" d="M6.938 11.438a1.687 1.687 0 1 0 0-3.375a1.687 1.687 0 0 0 0 3.374"/><path fill="#40d27e" d="M6.938 16.5a1.688 1.688 0 1 0 0-3.375a1.688 1.688 0 0 0 0 3.375"/><path fill="#2ba5f8" d="M6.938 21a1.687 1.687 0 1 0 0-3.375a1.687 1.687 0 0 0 0 3.375"/><path fill="#414141" d="M15.375 8.063h3.375l-5.625 6.187L18.75 21h-3.375L9.75 14.25z"/></g></svg>