<svg xmlns="http://www.w3.org/2000/svg" viewBox="0 0 24 24"><g fill="none"><path fill="#9c2131" d="m3.009 8.101l3.117 6.912l5.177 5.087L6.17 4.325z"/><path fill="#576b98" d="M3.009 8.101L8.44 11.31L6.17 4.325z"/><path fill="#d71b2a" d="m8.085 3.9l1.796 5.53l1.12.397l1.322-4.147z"/><path fill="#c41a24" d="m20.992 9.113l-2.488 3.434l-5.706-2.051l1.623-4.942l4.41-1.112z"/><path fill="#c71c26" d="m17.327 14.173l-4.056 5.53l-2.616-7.924z"/><path fill="#a71927" d="m10.382 6.222l.62 3.605l1.322-4.147z"/><path fill="#61395f" d="m9.854 9.438l1.148.398l-.62-3.605L8.085 3.9z"/><path fill="#614268" d="m8.432 11.309l-2.315 3.704L3 8.101z"/><path fill="#da1728" d="m14.412 5.562l2.068 3.163l-3.682 1.78z"/><path fill="#e42735" d="M18.823 4.451L16.48 8.725l-2.068-3.163z"/><path fill="#a61d1e" d="m18.503 12.547l-2.014-3.831L21 9.113z"/><path fill="#d71b2a" d="m13.417 14.841l-.146 4.861l-2.616-7.924z"/><path fill="#a51c1c" d="m13.272 19.702l.146-4.86l3.91-.67z"/><path fill="#721919" d="m11.321 20.1l-5.204-5.087l3.737.696z"/></g></svg>