<svg xmlns="http://www.w3.org/2000/svg" viewBox="0 0 24 24"><g fill="none"><path fill="#000" d="M11.841 3h.328c2.759.111 5.003 1.191 6.73 3.23A8.8 8.8 0 0 1 21 11.82v.381a8.84 8.84 0 0 1-2.573 6.088A8.87 8.87 0 0 1 12.191 21h-.398a9.05 9.05 0 0 1-8.195-5.77A10 10 0 0 1 3 12.212v-.419A9.02 9.02 0 0 1 5.991 5.32A9 9 0 0 1 11.847 3z"/><path fill="#304631" d="M6.515 5.08a8.81 8.81 0 0 1 9.81-.762a8.63 8.63 0 0 1 3.865 4.384a8.9 8.9 0 0 1 .614 2.679a8.77 8.77 0 0 1-1.377 5.384a.09.09 0 0 1-.1 0a29 29 0 0 0-2.086-1.398a.07.07 0 0 1-.037-.058l-.08-1.567q0-.05.032-.09c.175-.18.196-.392.074-.635a.11.11 0 0 1-.005-.096q.19-.571-.159-.857a.13.13 0 0 1-.047-.1c.005-.213-.096-.382-.106-.594c-.07-.963-.149-1.906-.196-2.885c-.021-.45-.058-.9-.117-1.34c-.037-.254-.365-.587-.524-.783a.32.32 0 0 1-.069-.212c.01-.291-.068-.725-.47-.699c-.45.027-.837-.121-1.271-.159a9 9 0 0 1-1.663-.285a2.2 2.2 0 0 0-1.074.02c-.53.133-1.06.18-1.589.308q-1.183.277-2.207.767c-.19.09-.228.456-.297.641c-.111.307-.508.328-.667.625a1 1 0 0 0-.1.339c-.022.211-.059.434-.17.635a13 13 0 0 0-.741 1.673q-.254.688-.477 1.387a3.3 3.3 0 0 1-.232.556c-.128.238-.302.524-.371.789c-.053.243-.132.439.106.624q.278.213.53.455a.05.05 0 0 1-.006.048l-.021.016l-1.52.964a.084.084 0 0 1-.106-.006q-.103-.22-.169-.455c-.9-3.478.212-7.094 3.023-9.318z"/><path fill="#5548c8" d="M11.99 7.627a9 9 0 0 0-.414-2.345q-.032-.112.085-.127l.466-.069a.175.175 0 0 1 .19.111q.114.31.122.572c.027.662-.026 1.292.09 1.996q.01.048-.037.048l-.46.015c-.032 0-.053-.015-.053-.047c-.01-.048.016-.106.01-.159z"/><path fill="#eebd2f" d="M13.372 6.817c-.238.254-.434.598-.424.937q.01.078-.068.069l-.138-.01q-.062 0-.069-.064a12 12 0 0 1-.069-1.684a2.8 2.8 0 0 0-.132-.873c-.01-.043 0-.059.048-.053l.603.153a.1.1 0 0 1 .074.069c.149.44.16.921.201 1.377c0 .031-.005.058-.026.079m-2.42-1.186a1.3 1.3 0 0 0-.142-.233c-.027-.032-.016-.053.02-.063l.51-.106a.074.074 0 0 1 .089.053a10 10 0 0 1 .376 1.826q.036.354.005.71a.04.04 0 0 1-.02.01l-.33.032a.026.026 0 0 1-.031-.016v-.01a6.3 6.3 0 0 0-.476-2.203"/><path fill="#5548c8" d="M14.013 5.467q.207.526.058 1.075a.07.07 0 0 1-.053.053l-.424.09a.05.05 0 0 1-.048-.025l-.005-.017a8.5 8.5 0 0 0-.169-1.26c-.005-.027 0-.037.032-.037l.56.084a.05.05 0 0 1 .043.037zm-4.215.075v-.006h.006l.688-.174a.12.12 0 0 1 .116.026c.106.095.18.212.233.339c.254.625.403 1.345.434 2.16c0 .016-.005.021-.02.026l-.673.09a.03.03 0 0 1-.016-.01a.03.03 0 0 1-.01-.016a5.06 5.06 0 0 0-.758-2.435"/><path fill="#eebd2f" d="m14.631 7.79l.122-.12c.031-.038.026-.064-.027-.08l-.217-.053a.03.03 0 0 1-.016-.007a.03.03 0 0 1-.011-.03q0-.01.006-.016c.085-.1.212-.286.143-.418a.8.8 0 0 0-.376-.408q-.054-.024-.037-.08a1.76 1.76 0 0 0-.042-1.111a.04.04 0 0 1 .014-.025l.014-.006l.014-.001l.635.106c.027.01.043.026.043.058q-.016.58.063 1.287q.056.47-.175.963c-.037.085-.105.117-.195.085c-.202-.064-.508-.095-.54-.36c0-.037.01-.053.053-.053q.271.016.439.265a.058.058 0 0 0 .09.005m-5.008.287c-.106-.757-.143-1.615-.577-2.266c-.027-.042-.016-.064.026-.08l.477-.142a.1.1 0 0 1 .09.026q.19.192.29.424a5.7 5.7 0 0 1 .467 1.91c0 .048-.016.075-.064.08l-.625.106a.074.074 0 0 1-.084-.058"/><path fill="#5548c8" d="M15.404 6.6q.15.632.17 1.282a.084.084 0 0 1-.085.052h-.503q-.066 0-.043-.063c.143-.37.207-.672.18-.91a13 13 0 0 1-.079-1.298c0-.042.016-.053.053-.053l.572.022q.063 0 .031.058l-.058.116a.09.09 0 0 1-.085.053c-.37-.005-.206.535-.158.741zM9.14 8.125a15 15 0 0 0-.672-1.44a1.7 1.7 0 0 0-.408-.53a.03.03 0 0 1 0-.026l.016-.01l.598-.27c.143-.064.249-.022.318.116c.317.667.37 1.239.476 2.118q.01.062-.053.069l-.18.031a.09.09 0 0 1-.1-.058z"/><path fill="#eebd2f" d="M7.563 6.827q.08-.221.154-.481a.095.095 0 0 1 .09-.075q.256.007.392.244q.458.806.794 1.673a.04.04 0 0 1-.021.021l-.027.01a.09.09 0 0 1-.106-.042a21 21 0 0 0-.513-.794c-.117-.18-.355-.492-.598-.365a.23.23 0 0 0-.106.286a.96.96 0 0 0 .29.392q.47.387.78.767a.2.2 0 0 1 .041.148l-.005.08c-.01.063-.037.074-.08.021a1.8 1.8 0 0 0-.306-.302l-.773-.571a.9.9 0 0 0-.689-.154c-.031.005-.052-.01-.047-.042c.047-.466.572-.413.73-.816"/><path fill="#ffe364" d="M15.8 7.67c-.01-.265 0-.673.191-.884a.16.16 0 0 1 .185-.037a.15.15 0 0 1 .053.047l.191.265a.05.05 0 0 1 .01.04a.05.05 0 0 1-.02.034a.1.1 0 0 1-.027.01c-.381.011-.408.334-.572.583c-.01.021-.021.016-.021-.005l.005-.032z"/><path fill="#eebd2f" d="M13.615 7.537c.005-.031-.01-.052-.043-.052c-.026 0-.053 0-.08.01a.074.074 0 0 0-.052.069c-.021.243.021.487.117.741v.053q-.009.064-.064.064c-.021 0-.037 0-.053-.016q-.595-.532-.148-1.255q.221-.365.688-.381c.302-.01.604.265.434.572a.08.08 0 0 1-.063.042a.65.65 0 0 1-.43-.08q-.04-.022-.026-.068c.043-.122 0-.207-.106-.25a.106.106 0 0 0-.127.038a.11.11 0 0 0-.026.085c.005.037.026.053.063.063c.075.016.096.064.064.133a.08.08 0 0 0 .037.1a.16.16 0 0 1 .095.164a.07.07 0 0 1-.063.074a.4.4 0 0 0-.196.085q-.056.046-.048-.026l.027-.16z"/><path fill="#5548c8" d="M16.527 7.785v.032a.05.05 0 0 1-.026.027a1.2 1.2 0 0 0-.55.465q-.006 0-.01-.002l-.007-.008l-.095-.212V8.05c.106-.212.201-.424.307-.625c.048-.08.138-.127.275-.132q.054-.001.053.053c-.01.148.01.291.053.44"/><path fill="#ffe364" d="M13.965 7.934c-.096.006-.196.01-.286.07c-.032.02-.053.01-.053-.027a.09.09 0 0 1 .032-.085a.7.7 0 0 1 .232-.117c.053-.015.085 0 .106.048l.016.032a.053.053 0 0 1-.048.08"/><path fill="#5548c8" d="M8.602 8.835a.43.43 0 0 1 .116.381q-.015.057-.063.027a5.1 5.1 0 0 0-2.028-.763a.04.04 0 0 1-.016-.031v-.022c.09-.153.154-.317.186-.503a.085.085 0 0 1 .068-.074a.8.8 0 0 1 .61.106c.391.265.804.54 1.127.879"/><path fill="#eebd2f" d="m16.543 8.67l-.212.138a.064.064 0 0 1-.085-.01l-.243-.281a.06.06 0 0 1-.017-.043q0-.023.017-.042l.423-.408a.06.06 0 0 1 .066-.012a.06.06 0 0 1 .04.054l.042.546a.06.06 0 0 1-.032.058m-4.516-.27c-.958.085-2.155.625-2.33 1.678a2.1 2.1 0 0 0 .149 1.266c.01.026.005.053-.016.068l-.456.382q-.063.063-.143 0a.72.72 0 0 1-.29-.493c-.117-.937-.085-1.895-.054-2.832a.13.13 0 0 1 .027-.08a.12.12 0 0 1 .08-.037q.676-.057 1.407-.169c.503-.08 1.038-.159 1.557-.132c.307.015.635.015 1.006.01q.022-.002.037.021l.143.292q.006.015-.01.015a6.5 6.5 0 0 0-1.113.011z"/><path fill="#ffe364" d="M14.081 8.241a.8.8 0 0 0-.344-.053c-.053.011-.058-.005-.016-.037a.4.4 0 0 1 .296-.079c.08.01.117.053.106.138a.032.032 0 0 1-.042.031m1.625.186l-1.17-.085a.03.03 0 0 1-.017-.009a.03.03 0 0 1-.01-.018v-.158q0-.01.006-.02a.03.03 0 0 1 .016-.012l1.043-.042a.03.03 0 0 1 .026.015l.133.286a.03.03 0 0 1-.011.037h-.016zm-1.821.159c.122 0 .222-.053.217-.122c0-.07-.1-.122-.222-.117c-.122 0-.212.053-.212.122s.095.122.217.117"/><path fill="#38953c" d="M15.812 11.799a2 2 0 0 1-.81-.28q-.216-.136.037-.096c.122.016.26.063.376.058c.36-.01.688-.01.995.01c.334.022.456.302.397.593c-.08.408-.254.774-.688.848l-.635.127a4.65 4.65 0 0 1-1.853-.022c-.704-.132-1.377-.259-2.065-.47a8 8 0 0 0-1.207-.276a.456.456 0 0 0-.466.672c.18.334.99.673 1.244.742q.36.095.662.206c.71.249 1.419.328 2.213.402c.784.074 1.588-.042 2.382-.053a.15.15 0 0 1 .111.058a.14.14 0 0 1 .027.122c-.08.345-.381.8-.773.863c-.032.006-.053 0-.063-.032c-.09-.18-.265-.497-.482-.524c-.37-.047-.816.149-.816.567c0 .042-.02.069-.068.069c-.742.01-1.408-.006-2.144-.138c-.583-.106-1.15-.138-1.726-.318c-.408-.121-.937-.285-1.18-.635a1.3 1.3 0 0 1-.191-.53a6.5 6.5 0 0 1-.106-1.588a.6.6 0 0 1 .09-.248c.016-.032.042-.043.074-.022l.143.075a.08.08 0 0 0 .095-.01l.566-.435a.18.18 0 0 0 .07-.164c-.096-.588-.16-1.123.2-1.641a2.52 2.52 0 0 1 1.97-1.123c.64-.053 1.376-.016 1.615.7c.107.305.145.63.11.952l-.01.01a.04.04 0 0 1-.03.002l-.012-.007a1.68 1.68 0 0 0-1.096-.503q-.296-.017-.995.149a.15.15 0 0 0-.1.074a.1.1 0 0 0-.011.053a.06.06 0 0 0 .052.053h.022a3.7 3.7 0 0 1 1.037-.17c.424.048.763.212 1.022.514c.106.122.085.143-.053.08a3.17 3.17 0 0 0-2.483-.011a.53.53 0 0 0-.212.158a.16.16 0 0 0 .074.25c.196.052.281-.16.509-.054c.423.201.82.323 1.201.37q.54.055.985-.296q.105-.08.043.032a.4.4 0 0 1-.186.175a2.55 2.55 0 0 1-1.43.249c-.02 0-.036 0-.047.01a.06.06 0 0 0-.026.037v.027q-.016.079.063.084a2.46 2.46 0 0 0 1.456-.243l.01.026c.011.011.006.016 0 .027q-.354.355-.788.609a.04.04 0 0 0 0 .047l.016.022q.038.056.1.026c.382-.222.73-.476 1.054-.762q.038-.031.085-.022c.105.027.211.043.296.101c.408.265.81.519 1.297.582a.09.09 0 0 0 .1-.074v-.02a.05.05 0 0 0-.01-.043a.05.05 0 0 0-.037-.021"/><path fill="#38953c" d="M14.547 9.48q-.188.065-.355.17q-.062.04-.053-.037a.85.85 0 0 0-.132-.556a.18.18 0 0 1 .016-.223a.2.2 0 0 1 .063-.042c.32-.125.658-.197 1-.212c.276-.02.52-.016.715.212q.261.31.387.588c.01.026.016.053.005.074c-.032.106-.106.17-.217.206a6 6 0 0 1-.603.149c-.292.052-.546.2-.816.275q-.269.08-.116-.159a.9.9 0 0 1 .333-.291a.08.08 0 0 0 .043-.1a.08.08 0 0 0-.053-.054a.34.34 0 0 0-.212 0z"/><path fill="#eebd2f" d="M6.568 8.64c.704.09 1.499.354 2.08.767a.14.14 0 0 1 .06.116l.015.493q0 .07-.064.053a20 20 0 0 0-1.561-.434a3.6 3.6 0 0 0-.98-.08l-.016-.01a.03.03 0 0 1 0-.032l.371-.82a.095.095 0 0 1 .095-.054"/><path fill="#5548c8" d="M16.431 8.908a.3.3 0 0 1 .074-.037c.053-.01.08.006.085.064v.116q.001.07-.053.037a.3.3 0 0 1-.122-.1q-.03-.048.016-.08m-10.757 1.78l.328-.933a.11.11 0 0 1 .095-.069c.46.011.905.053 1.36.18l1.176.34a.12.12 0 0 1 .09.105l.021.519c0 .053-.026.08-.08.064a9 9 0 0 0-1.873-.255a4.8 4.8 0 0 0-1.08.085c-.037.01-.053-.005-.037-.037"/><path fill="#38953c" d="M14.78 10.185q.573-.27 1.233-.27c.228 0 .334.127.334.376c0 .053-.021.058-.058.026l-.106-.09a.24.24 0 0 0-.117-.053a1.73 1.73 0 0 0-1.059.106a1.4 1.4 0 0 1-.476.122c-.037 0-.053-.01-.042-.042q0-.042.042-.058z"/><path fill="#fff" d="M15.309 10.571c.053-.042.074-.116.037-.159c-.032-.047-.106-.053-.159-.01s-.074.111-.042.159c.037.042.106.047.159.005z"/><path fill="#fff" d="M15.7 10.84c.233-.063.36-.21.37-.423a.03.03 0 0 1 .017-.032l.016-.003l.016.003l.026.011q.054.015.053.08c0 .275-.212.396-.44.476c-.423.159-1.005.032-1.402-.143a.063.063 0 0 1-.027-.095a.23.23 0 0 1 .159-.096c.159-.02.307-.063.429-.127c.026-.016.053-.005.063.021c.143.313.387.424.72.329m-2.922.101c.27.043.466-.08.572-.365a.06.06 0 0 1 .037-.032a.06.06 0 0 1 .047 0l.318.133q.016.006.024.02q.01.016.008.033l-.01.02c-.186.228-.44.27-.71.33a.6.6 0 0 1-.238 0a5.8 5.8 0 0 1-1.144-.356a.42.42 0 0 0-.466.059a.03.03 0 0 1-.037 0a.03.03 0 0 1-.005-.016q0-.01.005-.016a.27.27 0 0 1 .17-.138q.424-.117.857-.196l.016.021c.069.27.28.461.556.503"/><path fill="#fff" d="M12.529 10.603a.098.098 0 1 0 0-.196a.098.098 0 0 0 0 .196m3.398-.095l.011.015a.05.05 0 0 1-.01.053l-.09.096a.2.2 0 0 1-.043.037a.2.2 0 0 1-.053.016h-.048a.1.1 0 0 1-.037-.021l-.026-.027a.1.1 0 0 1-.027-.08a.17.17 0 0 1 .053-.1l.09-.095a.05.05 0 0 1 .064 0zm-3.038.106c-.053.09-.043.195.026.238s.164 0 .217-.085c.053-.09.042-.196-.026-.233c-.064-.042-.165-.005-.217.08m2.514.132a.08.08 0 0 0 .08-.08a.08.08 0 0 0-.024-.056a.08.08 0 0 0-.112 0a.08.08 0 0 0 .056.136m-2.81-.069a.07.07 0 0 1 .057-.032a.07.07 0 0 1 .059.032a.1.1 0 0 1 .01.09a.063.063 0 0 1-.074.037l-.026-.01c-.037-.032-.053-.07-.027-.112z"/><path fill="#38953c" d="M14.515 11.031c.55.19 1.376.286 1.779-.28c0-.006 0-.011.01-.011a.03.03 0 0 1 .032.01q.23.334-.143.466q-.256.09-.519.09c-.397 0-.794-.052-1.18-.153c-.022 0-.037-.021-.037-.048v-.031q0-.011.003-.02l.012-.017a.04.04 0 0 1 .043-.006"/><path fill="#eebd2f" d="M5.213 11.953c.159-.239.254-.625.323-.916a.2.2 0 0 1 .17-.159c.973-.196 2.07-.047 3.012.18c.01 0 .02.01.02.027l.128.667v.016a.02.02 0 0 1-.016 0a13 13 0 0 0-2.314-.07c-.37.027-.794.138-1.249.34c-.116.053-.138.02-.074-.085"/><path fill="#000" d="M10.655 10.942a.9.9 0 0 0 .37.08c.053 0 .075.026.053.079v.02a.095.095 0 0 1-.1.07a.9.9 0 0 1-.34-.096c-.041-.02-.052-.053-.052-.09l.005-.026a.05.05 0 0 1 .021-.032a.04.04 0 0 1 .043 0z"/><path fill="#5548c8" d="M5.107 12.25c.402-.165.926-.371 1.36-.397a12 12 0 0 1 2.272.052a.11.11 0 0 1 .095.117l-.016.397c0 .074-.037.106-.111.106c-.392-.01-.768 0-1.138.026q-.554.042-1.054.106a3.6 3.6 0 0 0-1.588.582a.105.105 0 0 1-.138-.035a.1.1 0 0 1-.016-.05c.011-.312.096-.597.27-.851a.14.14 0 0 1 .064-.054"/><path fill="#000" d="M9.431 12.45c.106-.264.265-.444.466-.53h.032l.016.027c.026.037.02.064-.016.09a1 1 0 0 0-.376.477l-.021.026a.04.04 0 0 1-.027 0l-.037-.01a.06.06 0 0 1-.037-.032a.06.06 0 0 1 0-.053z"/><path fill="#ea4734" d="m10.433 12.863l-.006.021c0 .053.016.085.07.1c.603.191 1.243.377 1.905.562c.392.106.784.143 1.186.222c.49.077.989.088 1.482.032c.265-.053.535-.1.826-.132c.381-.037.672-.212 1.006-.334c.058-.021.095 0 .106.053a.16.16 0 0 1-.027.133a.64.64 0 0 1-.233.2c-.317.149-.635.308-.99.355a9.3 9.3 0 0 1-2.784-.037c-.625-.084-1.165-.29-1.747-.466q-.523-.151-1.022-.487q-.284-.19-.196-.476c.037-.106.111-.159.233-.159c.53 0 1.096.207 1.641.355q1.351.375 2.361.47c.456.038.816.033 1.08-.03q.446-.104.858-.165q.24-.04.487-.19c.138-.09.159-.244.217-.387a.064.064 0 0 1 .095-.032c.196.106.075.45-.052.562c-.281.248-.546.386-.795.423l-1.085.18a5.1 5.1 0 0 1-1.525-.053c-.312-.058-.62-.069-.916-.148a41 41 0 0 1-2.138-.614a.04.04 0 0 0-.027.014a.04.04 0 0 0-.01.028"/><path fill="#eebd2f" d="M5.054 13.323c.43-.276.917-.45 1.424-.508a17 17 0 0 1 2.293-.154q.03-.002.031.037l-.02.604a.04.04 0 0 1-.014.028l-.013.008h-.016a3.6 3.6 0 0 0-1.281.213q-.445.18-.953.37a3 3 0 0 0-.52.244c-.026.02-.052.016-.073 0l-.858-.763q-.048-.04 0-.08"/><path fill="#5548c8" d="M6.363 14.139q.653-.274 1.323-.503q.519-.148 1.059-.154c.032 0 .042.016.042.043l-.042.704q-.002.038-.042.037a10 10 0 0 0-2.086.286q-.222.056-.424.164c-.053.026-.08.016-.09-.037l-.085-.291c-.01-.048 0-.08.043-.106c.095-.053.196-.095.302-.143"/><path fill="#eebd2f" d="M5.896 14.457q.104.317.112.91c0 .054-.016.054-.048.022c-.318-.37-.598-.752-.858-1.128a.06.06 0 0 1 .002-.073l.02-.017l.28-.19q.041-.024.074 0c.217.132.355.296.418.476"/><path fill="#5548c8" d="m5.117 14.632l-.434.386a.07.07 0 0 1-.095-.005l-.233-.255a.07.07 0 0 1 .01-.1l.535-.344a.07.07 0 0 1 .053-.01a.07.07 0 0 1 .042.032l.133.21a.07.07 0 0 1-.016.086z"/><path fill="#eebd2f" d="M6.294 14.806a8.2 8.2 0 0 1 2.398-.37c.016 0 .021 0 .021.015l-.021.652q.002.025-.021.026a13.4 13.4 0 0 0-2.398.19c-.096.022-.138-.02-.133-.116l.01-.196a.21.21 0 0 1 .144-.195zm-1.557.344l.477-.413a.04.04 0 0 1 .042-.005l.01.01l.244.318a.03.03 0 0 1 .011.024a.03.03 0 0 1-.01.024l-.456.45a.03.03 0 0 1-.028.012a.03.03 0 0 1-.015-.006l-.01-.011l-.265-.36a.03.03 0 0 1 0-.042m-.603-.376l-.387.26a.064.064 0 0 0-.016.09a.065.065 0 0 0 .09.016l.387-.26a.064.064 0 0 0 .016-.09a.065.065 0 0 0-.09-.016"/><path fill="#5548c8" d="M16.997 15.26c-.18 0-.323-.026-.498.017c-.021 0-.037-.006-.048-.027v-.026l.016-.016l.53-.318a.03.03 0 0 1 .026 0l.005.016v.01a1 1 0 0 0 .016.308a.05.05 0 0 1-.027.032h-.02zm-13.12.022l.371-.28a.116.116 0 0 1 .16.02l.237.281a.117.117 0 0 1-.01.159l-.392.408a.12.12 0 0 1-.154.016a.1.1 0 0 1-.036-.043l-.212-.413a.116.116 0 0 1 .037-.148m2.06.328l-.466.408l-.01.008a.03.03 0 0 1-.037-.008l-.276-.307l-.008-.011a.03.03 0 0 1 0-.026l.008-.01l.44-.445l.012-.009l.014-.002q.013 0 .021.01l.308.345v.01a.03.03 0 0 1 0 .027z"/><path fill="#ffe364" d="m15.59 15.653l-.488-.238q-.046-.026-.037-.074q.024-.112.127-.096l.08.01c.227.011.35.138.354.371q0 .008-.002.014a.03.03 0 0 1-.035.013"/><path fill="#5548c8" d="M8.734 15.838a.03.03 0 0 1-.021.026l-1.816.107c-.19.005-.37.005-.508-.005s-.212-.038-.212-.064l-.026-.381q-.001-.025.053-.043l.153-.047q.252-.053.509-.059l1.81-.105a.026.026 0 0 1 .027.026z"/><path fill="#ffe364" d="M14.88 15.272q.07-.017.047.053a1.3 1.3 0 0 1-.286.45c-.02.026-.042.02-.053-.011q-.128-.373.292-.492"/><path fill="#38953c" d="m12.773 16.13l-.031.015l-.018.016l-.009.021a.05.05 0 0 0 .016.043c.18.201.598.45.868.265q.151-.11.265-.223a.11.11 0 0 0 .042-.084a.36.36 0 0 1 .127-.244a.11.11 0 0 1 .133 0a.11.11 0 0 1 .048.122l-.075.243a.1.1 0 0 1-.053.059c-.323.158-.582.243-.773.264a8 8 0 0 1-.91.032a1.91 1.91 0 0 1-1.853-1.233a.084.084 0 0 1 .063-.085a.76.76 0 0 1 .345-.01c.418.079.825.158 1.254.169q.603.016 1.175.058c.112.01.218.032.329.069a.16.16 0 0 1 .106.185c-.037.148-.021.323-.133.434c-.376.355-.582.048-.9-.116z"/><path fill="#eebd2f" d="m17.056 15.456l.053.461q.002.04-.037.032a3.5 3.5 0 0 0-.9-.032q-.216.022-.17-.185s0-.032.016-.08q.042-.222.265-.222l.726-.016c.031 0 .042.016.047.042m-12.785.567l.476-.471a.05.05 0 0 1 .04-.018q.011 0 .022.004l.018.014l.264.307a.05.05 0 0 1 .01.058l-.015.016l-.503.407a.053.053 0 0 1-.069 0l-.243-.248a.05.05 0 0 1-.016-.032q0-.022.016-.037"/><path fill="#ffe364" d="m14.726 16.183l-.069-.18a.1.1 0 0 1 0-.038a.06.06 0 0 1 .021-.031a.9.9 0 0 0 .286-.323c.016-.032.037-.048.074-.043q.079.015.133.07c.026.031.037.063.02.105a.82.82 0 0 1-.401.466q-.048.025-.064-.021zm.572-.302a.3.3 0 0 0 .042-.111c0-.043.021-.053.053-.043a.55.55 0 0 1 .386.508c0 .032-.005.038-.031.016a.9.9 0 0 0-.44-.211c-.042 0-.053-.027-.053-.064a.24.24 0 0 1 .043-.095"/><path fill="#eebd2f" d="M6.039 15.791a2.1 2.1 0 0 0 .053.747q.025.104-.053.032l-.445-.398q-.039-.04 0-.074l.381-.338a.04.04 0 0 1 .02-.01a.04.04 0 0 1 .023.004q.009.007.015.016a.04.04 0 0 1 .006.021"/><path fill="#5548c8" d="m5.256 16.04l.44.413a.06.06 0 0 1 .015.042a.06.06 0 0 1-.016.042l-.407.37a.05.05 0 0 1-.04.019a.05.05 0 0 1-.04-.018l-.492-.413a.05.05 0 0 1-.021-.042a.05.05 0 0 1 .02-.048l.467-.365a.053.053 0 0 1 .074 0"/><path fill="#eebd2f" d="m6.257 16.605l-.08-.423c0-.043.01-.059.053-.059l2.462-.068q.025-.001.026.02l.09.853q.001.024-.02.016a30 30 0 0 0-1.854-.159a2.6 2.6 0 0 1-.62-.106a.08.08 0 0 1-.057-.069z"/><path fill="#5548c8" d="m17.135 16.463l-1.032-.117a.03.03 0 0 1-.026-.032l-.016-.216v-.014q0-.007.005-.013a.03.03 0 0 1 .026-.01l1.006.026a.03.03 0 0 1 .027.027l.042.317v.01a.03.03 0 0 1-.012.017a.03.03 0 0 1-.02.005"/><path fill="#ffe364" d="M14.87 16.765a1.1 1.1 0 0 0-.106-.339c-.01-.026 0-.047.026-.052a.76.76 0 0 0 .302-.186a.1.1 0 0 1 .08-.032c.052 0 .095.027.132.064a.09.09 0 0 1 .01.106a1.5 1.5 0 0 1-.412.47a.03.03 0 0 1-.021-.006a.03.03 0 0 1-.011-.02zm.556-.28l.053-.186q.009-.056.058-.026a.97.97 0 0 1 .35.397a.04.04 0 0 1-.006.04a.04.04 0 0 1-.037.018a.63.63 0 0 1-.397-.17a.07.07 0 0 1-.021-.073m2.906-.217l.344.217q.01.006.015.018a.04.04 0 0 1 .001.024l-.01.016l-.149.153l-.012.009a.04.04 0 0 1-.029 0l-.012-.009l-.344-.285a.04.04 0 0 1-.012-.014a.04.04 0 0 1-.004-.018a.04.04 0 0 1 .021-.027l.154-.09a.04.04 0 0 1 .037 0z"/><path fill="#eebd2f" d="M10.714 20.047c.22.226.498.386.805.46l.01.016l.005.021c0 .006 0 .011-.01.011c-.757 0-1.44-.08-2.038-.238a19 19 0 0 1-1.186-.37a4.7 4.7 0 0 1-1.09-.52A9.4 9.4 0 0 1 4.381 16.5a.03.03 0 0 1 0-.032c.016-.048.048-.053.085-.016a12.6 12.6 0 0 0 2.462 1.842c.174.106.317.323.508.366c.153.032.296.037.44.11c.905.472 1.794.742 2.81.97c.043.01.053.032.043.074l-.037.106a.11.11 0 0 0 .021.121z"/><path fill="#5548c8" d="m17.993 16.484l.36.307q.01.009.01.022a.03.03 0 0 1-.01.026l-.286.228a.03.03 0 0 1-.042-.01l-.217-.34a.03.03 0 0 1 0-.037l.143-.19a.03.03 0 0 1 .042-.005"/><path fill="#ffe364" d="m17.199 16.987l-.97-.122a.03.03 0 0 1-.026-.021l-.058-.297a.03.03 0 0 1 .02-.029l.012-.002l.974.121q.01.001.016.007a.03.03 0 0 1 .01.015l.053.29q0 .008-.002.015l-.008.012a.03.03 0 0 1-.021.01"/><path fill="#eebd2f" d="m5.833 17.432l-.429-.339a.07.07 0 0 1-.027-.052a.07.07 0 0 1 .022-.054l.413-.36c.02-.016.042-.021.063-.005a.53.53 0 0 1 .244.238q.152.334-.148.572q-.065.055-.138 0"/><path fill="#5548c8" d="m19.274 16.977l-.424.44a.04.04 0 0 1-.03.011a.04.04 0 0 1-.028-.011l-.376-.355a.04.04 0 0 1-.015-.025q-.002-.016.004-.028l.011-.01l.413-.387a.04.04 0 0 1 .053 0l.386.302l.01.014a.04.04 0 0 1 0 .035l-.01.014z"/><path fill="#ffe364" d="M15.108 17.31q-.079.025-.1-.053l-.064-.212a.09.09 0 0 1 .026-.09l.318-.302a.04.04 0 0 1 .026-.01l.017.002l.015.008a.7.7 0 0 0 .106.112c.233.222-.159.481-.344.545"/><path fill="#eebd2f" d="M10.92 18.237q-.719-.212-1.399-.524a5.5 5.5 0 0 0 1.642-.186q.065.017.026.074a1.1 1.1 0 0 0-.201.588q.002.07-.069.053z"/><path fill="#5548c8" d="M8.818 17.093c.026 0 .048.016.053.047l.069.329q.007.054-.043.053c-.81.015-1.614-.064-2.403-.239a.2.2 0 0 1-.17-.174l-.037-.186q-.017-.11.085-.079c.212.053.424.085.62.095c.56.027 1.164.074 1.826.154"/><path fill="#ffe364" d="M15.58 17.157a.32.32 0 0 0 .105-.25q0-.01.003-.02a.04.04 0 0 1 .013-.016a.04.04 0 0 1 .037-.006l.122.027c.037.005.053.032.053.069q-.001.182.053.35c.016.052 0 .073-.053.052l-.307-.116c-.053-.021-.059-.053-.027-.09m2.101.11l.01-.36a.032.032 0 0 1 .048-.026l.01.01l.155.255a.03.03 0 0 1-.011.042l-.164.106a.03.03 0 0 1-.043-.01a.03.03 0 0 1-.005-.016"/><path fill="#5548c8" d="m16.31 17.041l.91.106q.018.005.029.019q.01.015.008.034l.016.275a.05.05 0 0 1-.01.037l-.018.012l-.02.004l-.831-.037a.05.05 0 0 1-.043-.032l-.095-.36q0-.01.003-.021a.05.05 0 0 1 .05-.032z"/><path fill="#eebd2f" d="m18.267 17.135l.397.35l.011.014a.04.04 0 0 1 .005.018a.04.04 0 0 1-.021.037l-.344.254a.04.04 0 0 1-.053 0l-.366-.382a.04.04 0 0 1-.005-.052l.01-.016l.313-.223a.04.04 0 0 1 .053 0"/><path fill="#ffe364" d="M12.16 19.337a1.05 1.05 0 0 1-.742-.339a1.073 1.073 0 0 1 .402-1.731a1.04 1.04 0 0 1 1.144.265a1.076 1.076 0 0 1-.397 1.736a1 1 0 0 1-.408.069"/><path fill="#eebd2f" d="M13.499 18.417q-.064.017-.064-.053q0-.334-.159-.651c-.02-.032-.01-.053.027-.053a5.6 5.6 0 0 0 1.488-.424c.02 0 .037 0 .042.022l.212.672c0 .016 0 .026-.016.032a9.5 9.5 0 0 1-1.535.455z"/><path fill="#000" d="m12.763 18.242l-.53.264c-.01.006-.016.01-.01.022l.01.02q.014.033.053.017l.514-.281a.2.2 0 0 1 .053.08a.14.14 0 0 1-.032.079q-.267.384-.53.773a.1.1 0 0 1-.065.01a.1.1 0 0 1-.056-.037l-.572-.773c-.037-.053-.032-.095.016-.137c.021-.021.016-.043-.005-.064c-.048-.032-.053-.074-.022-.116q.294-.42.604-.826a.053.053 0 0 1 .069.021c.185.265.36.545.53.826q.044.08-.027.122"/><path fill="#ffe364" d="m15.17 17.807l-.105-.29a.04.04 0 0 1 0-.038a.04.04 0 0 1 .037-.021a.4.4 0 0 0 .27-.111a.09.09 0 0 1 .103-.018a.1.1 0 0 1 .03.023l.02.048c.032.211-.058.354-.275.44q-.055.023-.08-.033"/><path fill="#5548c8" d="m6.245 17.443l.106.265a.03.03 0 0 1-.016.037a.03.03 0 0 1-.042 0l-.223-.17a.04.04 0 0 1-.016-.026q0-.008.002-.014a.03.03 0 0 1 .009-.013l.122-.095a.03.03 0 0 1 .031 0a.03.03 0 0 1 .027.016"/><path fill="#ffe364" d="m15.712 17.469l.243.053c.037.005.053.031.063.069l.006.074c.005.031-.01.042-.043.042a.4.4 0 0 1-.243-.069c-.053-.042-.069-.095-.037-.164h.01z"/><path fill="#5548c8" d="m17.833 18.035l-.137-.524q-.002-.009.003-.018a.03.03 0 0 1 .032-.016q.01 0 .017.008l.371.392a.03.03 0 0 1 0 .037l-.005.01l-.239.133a.03.03 0 0 1-.026 0l-.01-.011z"/><path fill="#fff" d="M11.947 17.962c-.037.015-.048.005-.021-.032l.159-.249q.031-.054.047.01q.042.183-.18.27z"/><path fill="#38953c" d="m12.339 17.713l.143.2c.031.043.02.054-.032.043q-.183-.047-.143-.238c0-.026.016-.032.032-.005"/><path fill="#eebd2f" d="m14.07 20.021l-.116-.148a.06.06 0 0 1-.01-.058a.06.06 0 0 1 .047-.043l1.144-.243q.271-.056.518-.175c.032-.01.053-.005.08.01c.355.302.773.138 1.096-.137c.122-.106.159-.222.095-.35c-.016-.037-.01-.063.027-.079a13 13 0 0 0 1.62-1.006q.276-.2.052.053a9.2 9.2 0 0 1-2.403 1.906c-.487.275-.948.477-1.504.582a15 15 0 0 1-1.058.154c-.106.01-.112-.01-.022-.069c.165-.106.323-.153.44-.317a.06.06 0 0 0 .012-.038a.06.06 0 0 0-.012-.037z"/><path fill="#ffe364" d="m15.352 18.279l-.106-.212c-.01-.037 0-.053.032-.069a.6.6 0 0 0 .222-.127q.293-.262.228.127q-.04.224-.296.312h-.048a.06.06 0 0 1-.032-.031m.524-.085c-.026-.01-.031-.032-.02-.053a.5.5 0 0 0 .042-.222q0-.049.042-.059a.1.1 0 0 1 .085.022a.09.09 0 0 1 .053.08c.01.089.031.18.052.258c.022.064 0 .085-.058.053zm-5.971-.069l-.09.376q-.011.054-.07.053a.2.2 0 0 1-.079-.026a.1.1 0 0 1-.053-.085a2 2 0 0 0-.079-.493c-.021-.052 0-.068.053-.042l.286.143q.047.025.032.074"/><path fill="#304631" d="M11.937 18.142a.22.22 0 0 1 .148-.048c.031.005.053.021.053.053v.116c0 .043-.021.053-.053.032l-.149-.085q-.056-.04 0-.074z"/><path fill="#5548c8" d="m10.312 18.194l-.201-.053a.043.043 0 0 0-.053.026l-.106.402c0 .022.01.043.032.053l.201.053c.021 0 .042-.01.053-.031l.106-.403l.001-.017l-.005-.016l-.012-.013l-.016-.007z"/><path fill="#304631" d="M12.475 18.194a.23.23 0 0 1-.106.064c-.037.01-.053 0-.053-.043v-.053c0-.042.016-.053.053-.053l.085.016q.01 0 .017.006q.008.005.014.012a.04.04 0 0 1 .006.035z"/><path fill="#eebd2f" d="m14.573 18.29l.44-.154a.04.04 0 0 1 .042.021l.17.423a.04.04 0 0 1-.001.02a.04.04 0 0 1-.01.017l-.011.011l-.476.132a.04.04 0 0 1-.029 0a.04.04 0 0 1-.02-.02l-.126-.408a.04.04 0 0 1 .02-.043m2.758-.064a.9.9 0 0 0 .339-.069c.053-.021.063-.01.021.032c-.08.069-.164.132-.265.19q-.054.04-.1-.016a.2.2 0 0 1-.037-.084c-.01-.037 0-.053.042-.053"/><path fill="#5548c8" d="M17.215 18.449q.017.024-.006.031l-.397.207c-.016.01-.026 0-.032-.016l-.1-.44c-.01-.042.005-.052.042-.042a.8.8 0 0 0 .291.043c.037 0 .07.015.09.047z"/><path fill="#ffe364" d="m10.777 18.83l-.36-.096a.05.05 0 0 1-.032-.053l.101-.37a.04.04 0 0 1 .037-.038h.021l.302.106q.016.005.025.018q.009.014.007.03l-.043.37a.05.05 0 0 1-.037.038h-.02z"/><path fill="#304631" d="M11.82 18.315a.5.5 0 0 1 .095.059q.05.046-.02.037a.26.26 0 0 1-.16-.1q-.023-.033.017-.033c.015 0 .031.01.042.022a.03.03 0 0 0 .026.015"/><path fill="#ffe364" d="m15.558 18.792l-.117-.265q-.028-.063.037-.079l.096-.026a.18.18 0 0 0 .106-.08q.056-.078.137-.005a.095.095 0 0 1 .027.106a1 1 0 0 1-.228.36c-.021.026-.042.021-.053-.01z"/><path fill="#5548c8" d="m14.362 18.364l-.318.08a.05.05 0 0 0-.04.047q0 .011.003.021l.09.345a.053.053 0 0 0 .063.042l.318-.08l.02-.01a.05.05 0 0 0 .017-.06l-.085-.348a.052.052 0 0 0-.068-.037"/><path fill="#ffe364" d="m15.987 18.58l.021-.105a.05.05 0 0 1 .048-.048a.2.2 0 0 1 .08.01c.031.016.052.037.052.07c.006.036-.005.052-.037.063l-.137.032q-.033.01-.027-.022m-2.345.376l-.111-.328a.05.05 0 0 1 0-.037a.05.05 0 0 1 .032-.027l.232-.079a.05.05 0 0 1 .058.021l.011.021l.08.371a.05.05 0 0 1-.008.04a.05.05 0 0 1-.035.023l-.2.032a.05.05 0 0 1-.054-.037z"/><path fill="#fff" d="m12.09 18.819l-.122-.18c-.021-.037-.016-.053.027-.032q.16.062.153.196q-.001.103-.058.016"/><path fill="#eebd2f" d="m10.004 18.819l-.09.53a.05.05 0 0 1-.021.03a.05.05 0 0 1-.037 0l-.445-.137a.05.05 0 0 1-.037-.042v-.021l.196-.482a.05.05 0 0 1 .021-.024a.05.05 0 0 1 .032-.008l.344.096q.016.005.028.02q.01.014.01.033z"/><path fill="#5548c8" d="M11.016 18.682q.014-.048.037 0l.08.201c.015.032 0 .043-.032.032l-.085-.037a.04.04 0 0 1-.021-.026a.27.27 0 0 1 .02-.17"/><path fill="#38953c" d="M12.44 18.66c.037-.011.042 0 .026.031a.4.4 0 0 1-.105.138q-.055.04-.053-.021c.005-.08.053-.128.132-.149"/><path fill="#ffe364" d="M8.454 18.888c-.08-.038-.17-.075-.233-.133c-.037-.032-.032-.047.015-.037l.265.048c.032 0 .043.021.032.053l-.016.047c-.016.032-.032.037-.063.022"/><path fill="#5548c8" d="M8.685 18.978a.05.05 0 0 1-.037-.053c0-.047.016-.09.053-.121a.1.1 0 0 1 .08-.032q.277.017.555-.053q.065-.023.043.042l-.143.37a.053.053 0 0 1-.053.043h-.021z"/><path fill="#ffe364" d="M15.739 18.898c.148-.11.302-.17.444-.159c.106 0 .106.022.016.07l-.429.211q-.038.025-.053-.021v-.026q-.013-.041.022-.075"/><path fill="#5548c8" d="m15.33 19.279l-.211-.408a.05.05 0 0 1-.006-.042a.05.05 0 0 1 .027-.027l.185-.058a.05.05 0 0 1 .053.027l.19.413a.05.05 0 0 1-.01.053l-.016.005l-.159.063a.05.05 0 0 1-.053-.027m-1.985-.212a.04.04 0 0 1-.032-.016a.04.04 0 0 1 0-.032l.074-.185c.022-.053.043-.053.053 0l.043.138c.005.032 0 .053-.032.069a.3.3 0 0 1-.106.026m-2.822-.106l-.031.524q-.001.008-.005.015l-.011.012a.04.04 0 0 1-.027.005l-.365-.074a.037.037 0 0 1-.027-.048l.101-.54l.007-.015l.013-.011a.04.04 0 0 1 .033 0l.286.09a.04.04 0 0 1 .026.042"/><path fill="#eebd2f" d="m14.63 19.465l-.158-.456a.03.03 0 0 1 .005-.032l.016-.005l.423-.106a.03.03 0 0 1 .022.002a.03.03 0 0 1 .016.014l.222.434l.002.014l-.003.012a.03.03 0 0 1-.02.017l-.487.122h-.027a.03.03 0 0 1-.01-.022z"/><path fill="#ffe364" d="m11.09 19.185l-.26.397a.085.085 0 0 1-.159-.048l-.005-.476a.085.085 0 0 1 .106-.08l.27.08q.02.005.036.019t.022.034c0 .01.005.026 0 .037c0 .015 0 .026-.01.037"/><path fill="#5548c8" d="m14.06 19.539l-.105-.376l-.004-.027l.009-.026a.07.07 0 0 1 .048-.032l.248-.053a.07.07 0 0 1 .08.042l.137.371a.07.07 0 0 1-.005.057a.07.07 0 0 1-.047.033l-.286.053a.07.07 0 0 1-.075-.042"/><path fill="#ffe364" d="M13.462 19.21c-.016-.016-.016-.026.01-.026l.265-.038q.048-.006.063.043q.029.107.064.212q.167.515-.159.084c-.074-.1-.159-.19-.244-.275m-.149.535a2.07 2.07 0 0 1-1.286.317a1.25 1.25 0 0 1-.82-.323a.05.05 0 0 0-.048 0l-.016.022l-.021.031c-.016.027-.016.053.015.08q.358.319.826.344c.043 0 .059.021.059.058v.482q-.002.07-.075.069h-.217a.04.04 0 0 1-.042-.032v-.021l.026-.217a.17.17 0 0 0-.127-.19a1.8 1.8 0 0 1-.714-.371a.08.08 0 0 1-.021-.106l.275-.487c.021-.043.053-.053.09-.016q1.065.872 2.107-.043c.01-.01.021-.005.032 0l.423.625q.015.025 0 .042a1.9 1.9 0 0 1-.73.376a.1.1 0 0 0-.07.064a.4.4 0 0 0-.031.222q.01.096-.085.127a.1.1 0 0 1-.042.01q-.079-.001-.085-.073l-.08-.477c0-.031.006-.053.038-.063l.646-.276q.062-.031.053-.095l-.006-.042c-.005-.053-.031-.058-.074-.037"/><path fill="#ffe364" d="M12.18 20.259q0-.014.01-.023a.03.03 0 0 1 .022-.01l.254-.026q.012 0 .02.008q.01.007.012.019l.08.55l-.001.013l-.005.011l-.01.009l-.011.004l-.34.006a.03.03 0 0 1-.017-.003a.03.03 0 0 1-.014-.013z"/><path fill="#eebd2f" d="M13.308 20.656c.132-.1.254-.016.397-.032q.022 0 .015.027c0 .01-.01.015-.02.015a1.5 1.5 0 0 1-.371.053c-.069 0-.08-.02-.021-.063m-1.784.08h.005l.005.006v.046s-.021.01-.053.01l-.143.006a5 5 0 0 1-.466-.032h-.037a8 8 0 0 1-.603-.095q-.048-.017-.048-.026l.005-.038v-.005a.02.02 0 0 1 .01-.01h.011l1.308.132z"/></g></svg>