<svg xmlns="http://www.w3.org/2000/svg" viewBox="0 0 24 24"><g fill="none"><path fill="url(#SVGxmRNteQH)" d="M12 3a9 9 0 1 1 0 18a9 9 0 0 1 0-18"/><path fill="#181b1e" d="M12 4.059a7.942 7.942 0 1 1 0 15.883a7.942 7.942 0 0 1 0-15.883"/><path fill="#ee2225" d="m12 17.628l2.81-2.255v-.561H9.465l-.276.28L12 17.622z"/><path fill="#ec2022" d="M16.764 13.689s.297.767.297 1.503c0 .556-.487 1.032-1.567 1.043c-.35 0-.763-.048-1.244-.159l-.562-.926l1.287-1.27l1.79-.186z"/><path fill="#981c1e" d="M16.15 13.689s.35.677.35 1.323c0 .657-1.005 1.18-3.282.794l-.656-.826l1.508-1.117z"/><path fill="#db2027" d="M10.878 7.5s.91-.7 2.477-.583c0 0 .625-.54 1.948-.54c1.324 0 3.526 1.011 4.109 1.387c0 0-3.124-.91-4.082-.302c-.963.61-.662 1.726-.662 1.726l-2.578-.265L10.872 7.5z"/><path fill="#ea1c27" d="M16.659 8.628s.969 1.461.969 2.208c0 .752-.318 1.085-1.139 1.16c-.82.074-1.148-.403-1.111-.583l.566-2.42l.715-.37z"/><path fill="#981c1e" d="M16.092 9.188s.969 1.218.969 1.843c0 .624-.313.9-1.133.963c-.82.059-1.154-.333-1.112-.487c.037-.159.566-2.011.566-2.011z"/><path fill="url(#SVGJXTKibQf)" d="M5.452 13.588S4.35 10.893 7.15 9.708l.35-.133l-.085-.387l-.265.106s-3.59.35-3.59 2.917c0 1.975 1.377 2.965 1.377 2.965s-1.556-2.102-.116-3.706c0 0-.26.847.635 2.118z"/><path fill="url(#SVG78hjFb8x)" d="M16.558 8.125s3.88 1.377 3.88 3.357c0 1.683-1.027 1.577-1.027 1.577s.958-.804.08-2.075c0 0-.08 1.546-2.197 1.546c0 0 1.535-.36 1.535-1.117c0-.763-.852-1.996-2.287-3.103l-.604.006l.053-.254z"/><path fill="url(#SVGO5D5HdDc)" d="M7.68 10.312s-1.868.656-1.868 2.52c0 1.858.534 3.578 3.541 5.521c0 0-2.456-1.948-2.42-4.246c0 0 1.33 5.02 7.714 5.835c0 0-4.304-1.361-5.707-4.156l-.206-4.574z"/><path fill="#f0f3fa" d="M11.936 15.939c-2.711 0-4.712-1.689-4.712-1.689l.328-.561l-.614.01L7.552 12h-.37l.677-.688a8.1 8.1 0 0 1-.921-3.246V7.5c1.313.053 2.965 1.191 2.965 1.191l1.19.286l-.465-1.477l2.457 1.403V8.06l.926.567c1.101-.794 2.763-.842 2.763-.842c0 1.403-.92 3.653-.92 3.653l.762.561h-.456l.9 1.689l-.9-.18l.34.81c-.51.688-1.854 1.62-4.564 1.62M8.479 8.824s.248.688.307.709l-.742.021l.445 1.08l-.212.238l-.725-2.25l.466.1zm6.654.01l-.2.651h.714l-.503 1.08l.307.302l.71-2.25l-1.028.212zm-3.891 3.732L9.4 11.434c-.053.624.582 1.683 1.08 1.683c.482 0 .762-.55.762-.55m3.07-1.132l-1.842 1.132s.281.556.763.556c.497 0 1.133-1.064 1.08-1.694zm-2.456 3.372c-.683 0-1.228-.249-1.228-.561c0-.149.026-.318.185-.413c.265-.149.779-.149 1.043-.149c.265 0 .773 0 1.043.149c.159.08.186.264.186.413c0 .312-.546.56-1.229.56"/><path fill="#181b1e" d="m6.658 7.495l.01-.286l.287.01c.714.032 1.503.355 2.085.646q.506.256.98.567l.656.159l-.529-1.695l2.658 1.52v-.852L14 8.289a5.2 5.2 0 0 1 1.747-.657q.494-.097.995-.127h.022l.01.28s-.106 0-.28.022c-.525.053-1.658.228-2.489.82l-.92-.566v.842L10.628 7.5l.466 1.482l-1.192-.29s-1.429-.98-2.684-1.166a3 3 0 0 0-.28-.026v.566c.01.694.296 2.086.92 3.246L7.189 12h.37l-.62 1.694l.615-.005l-.323.561l-.185.212l-.18-.149l.195-.338l-.524.01l.62-1.704h-.64l1.005-1.017c-.582-1.165-.847-2.488-.863-3.192q-.005-.27 0-.54zm9.503 6.014l.339.81c-.508.688-1.853 1.62-4.564 1.62c-2.71 0-4.711-1.689-4.711-1.689l-.18.212v.005h.01l.021.021q.165.14.344.26c.239.159.583.38 1.022.598c.863.434 2.08.873 3.494.873c2.774 0 4.215-.958 4.791-1.736l.096-.127l-.196-.471l.963.196l-.963-1.8h.842l-1.27-.943q.211-.552.386-1.117c.227-.741.476-1.689.476-2.435v-.291l-.296.01l.01.28c0 .09 0 .186-.01.281c-.106 1.403-.911 3.373-.911 3.373l.762.561h-.455l.9 1.689zm-1.016-2.938l.307.301l.71-2.25l-1.028.212l-.201.657h.714zm.54-1.361l.063-.212l-.397.085l-.037.127zm-6.899.328a1.1 1.1 0 0 1-.137-.275c-.085-.201-.17-.434-.17-.434l-.926-.207l.725 2.25l.212-.233l-.445-1.08zm-.725-.264l-.09-.27l.296.063l.08.201l-.286.01zm4.41 3.298q.064.126.159.233c.132.148.339.317.603.317c.413 0 .922-.73 1.054-1.339q.04-.184.026-.344zm1.45-.561l-1.048.646c.106.11.233.185.36.185c.027 0 .096-.016.207-.106c.208-.208.373-.454.487-.725zm-1.154 2.075h-.005a1.1 1.1 0 0 0-.413-.1a5 5 0 0 0-.984 0c-.191.02-.334.052-.413.095c-.011.01-.021.016-.027.037a.4.4 0 0 0-.016.132s.016.058.196.143c.175.08.445.138.752.138c.312 0 .577-.053.752-.138c.18-.085.196-.148.196-.148v.005a.4.4 0 0 0-.016-.138l-.01-.02h-.012zM9.4 11.439c-.005.106 0 .222.027.344c.132.609.64 1.345 1.053 1.345c.265 0 .477-.175.604-.323l.085-.111a.6.6 0 0 0 .074-.122zm.392.572c.048.116.106.238.18.354a1.5 1.5 0 0 0 .307.37c.106.09.175.107.201.107c.127 0 .25-.074.355-.186zm3.108 1.826c-.265-.148-.773-.148-1.043-.148c-.265 0-.773 0-1.043.148c-.159.09-.185.265-.185.413c0 .312.545.561 1.228.561s1.228-.249 1.228-.561c0-.148-.026-.334-.185-.413"/><path fill="#2b2a29" d="m10.877 11.439l.524.56s.07-.253.017-.317c-.054-.053-.54-.244-.54-.244m2.25 0l-.529.56s-.069-.253-.016-.317c.058-.053.54-.244.54-.244zm-2.107 2.228v-.005a2.4 2.4 0 0 1 .635-.376c.117-.042.234-.069.345-.069c.368.03.715.187.979.445c.021.021.069.032.106.021c.037-.016.053-.042.032-.063A1.7 1.7 0 0 0 12 13.127a1.2 1.2 0 0 0-.424.08a2 2 0 0 0-.683.402h-.005c-.027.027-.016.053.021.069s.085.01.106-.01zm2.647 1.176a.096.096 0 0 1-.005.121h-.005a1 1 0 0 1-.069.064c-.048.037-.111.09-.19.143a1.23 1.23 0 0 1-1.187.09a.4.4 0 0 1-.211-.36c0-.053.037-.09.08-.09c.047 0 .084.042.084.09a.24.24 0 0 0 .122.212a1.08 1.08 0 0 0 1.027-.09q.124-.083.233-.186m.121 0a.08.08 0 0 0-.058-.025a.08.08 0 0 0-.058.025z"/><path fill="#2b2a29" d="M10.333 14.843a.09.09 0 0 0 .005.122c.238.228.572.408.9.408c.482 0 .762-.16.762-.477c0-.042-.037-.085-.079-.085c-.048 0-.085.043-.085.09c0 .18-.158.302-.598.302c-.254 0-.609-.19-.789-.37m-.116.01a.08.08 0 0 1 .057-.028a.08.08 0 0 1 .06.023h-.117z"/><path fill="#e72528" d="M14.779 13.128s-.582.567-1.09.752l.846.932s.387-.752.244-1.689zm-5.559 0s.583.567 1.09.752l-.846.932s-.387-.752-.244-1.689z"/><defs><linearGradient id="SVGxmRNteQH" x1="6.658" x2="17.908" y1="4.408" y2="19.311" gradientUnits="userSpaceOnUse"><stop stop-color="#0206bc"/><stop offset=".95" stop-color="#3daf49"/></linearGradient><linearGradient id="SVGJXTKibQf" x1="13.283" x2="12.056" y1="5.53" y2="13.903" gradientUnits="userSpaceOnUse"><stop stop-color="#e4282e"/><stop offset="1" stop-color="#f89f1c"/></linearGradient><linearGradient id="SVG78hjFb8x" x1="7.489" x2="18.03" y1="3" y2="23.217" gradientUnits="userSpaceOnUse"><stop offset=".4" stop-color="#e4282e"/><stop offset="1" stop-color="#f89f1c"/></linearGradient><linearGradient id="SVGO5D5HdDc" x1="12.168" x2="4.395" y1="12.47" y2="9.555" gradientUnits="userSpaceOnUse"><stop stop-color="#e4282e"/><stop offset="1" stop-color="#fdbe0e"/></linearGradient></defs></g></svg>