<svg xmlns="http://www.w3.org/2000/svg" viewBox="0 0 24 24"><g fill="none"><path fill="#181b1e" d="M7.709 6.79c-.827-.55-1.158-1.168-2.462-1.168c-.574 1.075-.408 2.958-.126 3.994l.554 1.79c.137.35.175.253.03.603c-.064.156-.166.278-.244.487c-1.265 3.099-1.143 4.835 1.873 6.806c3.396 2.214 6.023 2.277 9.326.107c1.07-.7 2.627-2.014 2.637-3.707c0-.36-.073-1.036-.136-1.406c-.146-.817-.448-1.528-.851-2.233c-.253-.448.287-1.528.496-2.418c.229-.958.438-1.766.389-2.773c-.034-.73-.282-.939-.365-1.265a3 3 0 0 0-1.712.56l-.268.194c-.219.156-.365.268-.555.418c.04-.291.195-1.367.322-1.556c.126-.19.145-.078-.088-.438c-.185-.268-.097-.214-.35-.151c0 .487.063.38-.175.618c-.147.131-.492.301-.73.36c-.949-.623-.457-1.353-.457-1.353c-.438-.291 0-.19-.628-.043c-.175.73-.049.19-.175.603c-.01.014-.34.632-.384.7c-.648-.17-1.066-1.153-1.363-1.707c.22-.326.112 0-.024-.57c-.127-.029-.088.01-.243 0h-.112c-.136.01-.068-.15-.131 0c-.244.57.505.575-.944 1.917c-.112.107-.239.18-.365.273c-.638-.462-.545-.822-.638-1.216c-.428 0-.68-.273-.612.194l.038.127c.05.219.044-.034.044.165c0 .268-.491.88-.657.997c-.33-.073-.647-.277-.695-.559c-.088-.487.52-.33-.312-.53a4 4 0 0 0-.364.36c.145.292.457.253.457 1.82"/><path fill="#f07e17" d="M14.273 13.64c.17.029.136.063.107-.107a2.44 2.44 0 0 1 1.226-.667c.827-.219.953.127.953.866c-.671.423-1.63.915-2.797.778c-.02-.403.253-.73.51-.87m-3.892.827c-.535.228-1.654-.127-2.092-.312c-1.426-.622-.496-1.323-.302-1.323c1.43-.01 2.506 1.202 2.399 1.635zm-5.366 1.279l.613-.092a4.1 4.1 0 0 1 3.162 1.508c.02-.02.049-.063.053-.054c.054.107.818-.486.973-.73c1.864-2.821 4.345-1.41 4.865.974c1.586-1.022 1.752-1.606 4.291-1.655c-.063-1.177-.253-2.257-.744-3.171c-.448-.847-.404-.623-.112-1.596c.51-1.683 1.104-3.284.53-4.953c-.637.01-1.07.292-1.45.54c-.997.662-.778.681-1.075.91c-.048.876-.068.783-.039 1.012c.093.788-.092.564-1.96.311c-1.73-.2-3.48-.183-5.206.049c-.258.034-.763.17-.943-.058l-.064-1.324c-.292-.121-.365-.277-.55-.457l-.136-.127c-.51-.423-1.075-.88-1.785-.934c-.375 1.042-.311 1.484-.166 2.69c.239 1.99 1.032 2.89.75 3.547c-.613 1.42-.827 1.654-1.007 3.61"/><path fill="#fffffe" d="M12.647 18.402c-.175.097-.297.16-.404.165c-.258.005-.399-.214-.817-.185c-.487.049-1.007.156-1.372-.087c.219-.273.165-.156.603-.117c.667.049 1.207-.117 1.343-.885c-.856-.433-.94-.458-.827-1.582c.404-.097.57-.063 1.09-.063c.53 0 .613-.097.914.15c.409.818-.18 1.251-.69 1.533c.111.429.34.701.778.818c.973.253.837-.34 1.167.209c-.841.258-1.158-.083-1.785.044m-7.035-2.744c.22 1.041.39 1.878 1.231 2.52l2.165 1.654c.39.39 2.316.953 3.157.91c1.859-.107 4.214-1.27 5.488-2.5c.448-.439 1.499-1.723 1.3-2.54c-2.545.043-2.292.258-3.878 1.274c-.52-2.393-3.897-3.663-5.76-.841c-.151.243-.511.943-.565.836c-.647-.812-1.64-1.264-3.138-1.313"/><path fill="#fdeb22" d="M11.173 6.878c-.224-.059-.224.029-.433-.36c.165-.321.092-.146.384-.423c.229-.224.365-.502.783-.755c.331.098.487.341.701.575c.214.238.433.379.55.598c-.156.195-.39.404-.604.632c-.209.214-.326.419-.637.526c-.272-.146-.657-.487-.75-.793zM8.998 6.07a1.85 1.85 0 0 1-.958-.413c-.273-.21-.03-.093-.346-.244l.428 2.608c.691.063 2.944-.17 3.878-.15l3.902.252c.048-.603.073-.9.155-1.46c.064-.432.21-1.035.22-1.395c-1.115.559-2.638 1.693-3.96-.779c-.05-.102-.089-.219-.152-.311c-.228-.375.049-.16-.292-.258c-.569 1.333-1.435 2.33-2.875 2.15"/><path fill="#d03e16" d="m16.106 7.778l-.048.175c.194.15.029-.01.165.16c.21.278 1.265 2.89 1.265 2.89c.122.18.049.097.224.253c.049-.452.097-.38.262-.822c.448-1.158.74-2.968.477-4.16c-.33.059-.987.438-1.25.613l-.277.18c-.4.292-.41.477-.818.71M5.58 6.304c-.292.656-.01 2.807.282 3.653c.092.346.27.663.52.92c.16-.55.472-.983.681-1.397c.623-1.216 1.08-1.1.073-2.213a4 4 0 0 0-.272-.268c-.34-.306-.959-.715-1.284-.695"/><path fill="#f7a74b" d="M8.103 8.322c-.034.657.146.33 1.523.258c1.751-.088 2.49-.136 4.281.01c.647.053 1.401.253 1.995.272l.01-.443c-.657-.403-7.098-.569-7.809-.097"/><path fill="#fee9d7" d="m9.018 19.833l-1.946-1.79a3.62 3.62 0 0 1-1.45-2.384l-.613.088c-.073.477.321 1.196.521 1.474c.613.846 2.54 2.452 3.488 2.612"/><path fill="#fffffe" d="M14.638 11.319c-.292.083-.828.316-.657.676c.146.292.958.253 1.338.234c1.177-.083.34-1.202-.681-.91m-5.084.744c.165-.759-1.163-1.055-1.727-.52c-.823.778 1.055.837 1.727.52"/><path fill="#f7af67" d="M5.433 15.522c.437-.21.145-.54.564-2.053l.063-.22l.093-.267c.194-.496.554-1.06.647-1.41c-.404.033-.273-.074-.647.69a5.7 5.7 0 0 0-.39.983l-.253 1.09c-.024.17-.063.403-.107.617c-.097.453-.116.37.03.57"/><path fill="#fcc009" d="M8.707 5.899c.793.078.783.136 1.46-.18c-.04-.316-.127-.35-.269-.55c-.194-.297-.097-.326-.37-.438c-.019.015-.038.015-.038.044l-.783 1.12zm4.996-.102c.681.112.652.029 1.299 0c-.122-.243-.205-.287-.35-.545c-.244-.443-.117-.39-.419-.535c-.126.297-.472.749-.53 1.08"/><path fill="#181b1e" d="M7.622 5.432a.487.487 0 1 0 0-.973a.487.487 0 0 0 0 .973m1.946-.485a.487.487 0 1 0 0-.973a.487.487 0 0 0 0 .973m6.811.485a.487.487 0 1 0 0-.973a.487.487 0 0 0 0 .973m-1.947-.485a.486.486 0 1 0 0-.973a.486.486 0 0 0 0 .973M12 3.973A.486.486 0 1 0 12 3a.486.486 0 0 0 0 .973"/><path fill="#f7af67" d="M7.071 11.1c.331-.18.093-.108.492-.677c.102-.146.097-.132.184-.268c.22-.326.73-.802.487-.88c-.243-.083-.642.574-.769.778l-.146.229c-.355.564-.457.496-.243.817z"/><path fill="#f4971c" d="M11.635 3.55c.17.253.015.146.365.243c.136-.092.472-.262.2-.54c-.302-.316-.511-.053-.565.292z"/><path fill="#e5232d" d="M12.647 18.403c-.092-.297-.126-.307-.374-.453c-.176.098-.166.049-.375.4l-.034.072l.778-.02z"/><path fill="#f4971c" d="M7.68 4.728c-.365.01-.385.398-.083.437a.23.23 0 0 0 .248-.175c.039-.209-.049-.17-.166-.262"/><path fill="#f7a74b" d="M16.174 4.84c.088.35-.03.267.409.257c-.01-.122.034-.224-.064-.302c-.272-.253-.34.044-.345.044"/><path fill="#f49717" d="M14.214 4.264c-.05.36.063.526.291.292c.239-.238.073-.335-.291-.292m-4.87.185c.02.01.048.01.053.034c.01.03.049.03.063.03c.122.024.142.019.258.024l-.092-.365c-.39.049-.229-.093-.282.277"/><path fill="#fbbe00" d="M11.188 6.717c.073-.292-.02-.613-.282-.19c.146.18.024.098.282.195z"/><path fill="#f9bd01" d="M12.993 6.517c-.126-.17-.01-.117-.292-.15v.277c.302.053.122.092.292-.127"/><path fill="#f0f3fa" d="M9.324 14.19a.243.243 0 1 0 0-.487a.243.243 0 0 0 0 .487m5.352 0a.243.243 0 1 0 0-.487a.243.243 0 0 0 0 .487"/><path fill="#f9bd01" d="M11.173 6.805v.087l.744.73l.715-.73l-.02-.082h-1.44zm1.313-.239c-.428-.55-.598-.457-.73-.389l-.048.03l.063-.132c.02-.049.025-.054.127-.175c.18.102.184.117.194.146s.025.063.136.17c.117.102.146.146.185.146c.034.005.078-.034.214-.097c-.058-.214-.126-.273-.243-.375a3 3 0 0 1-.194-.185c-.108-.102-.151-.146-.302-.238l-.647.7l.01.049l.01.024c0 .01 0 .025.01.034l.009.04l.014.072l.025.073c.01.015.014.025.029.107z"/></g></svg>