<svg xmlns="http://www.w3.org/2000/svg" viewBox="0 0 24 24"><g fill="none"><path fill="#31006b" d="M8.818 4.935c.917-.446 2.238-.746 3.53-.698c1.374 0 2.625.465 3.079.698c3.78-2.372 4.974-1.65 5.097-.994c.593 2.481-.17 4.994-.626 5.94c1.632 4.865 1.097 7.418.626 8.086c-1.9 2.824-5.515 2.824-9.778 2.688c-4.263-.137-5.491-.616-6.928-2.688c-1.15-1.658-.373-5.464.16-7.16c-.58-1.14-1.7-6.004-.31-6.866c1.388-.862 4.923.875 5.15.994"/><path fill="#fff" d="M8.695 5.466c.867-.421 2.373-.791 3.594-.746c1.3 0 2.75.456 3.18.676c3.576-2.244 4.566-1.638 4.682-1.016c.561 2.346-.342 4.54-.773 5.436c1.542 4.6 1.128 7.195.683 7.827c-1.797 2.67-5.215 2.67-9.246 2.542c-4.032-.13-5.227-.46-6.552-2.542c-1.023-1.608-.31-5.352.194-6.955c-.549-1.078-1.715-5.604-.402-6.419c1.176-.73 4.465 1.095 4.64 1.197"/><path fill="#f9ebd1" d="M12.248 6.197c-1.2.02-1.971-.384-2.207-.588c-4.686 1.166-7.262 8.256-5.89 11.863c1.097 2.886 5.784 2.693 8.177 2.758c1.26 0 4.252 0 5.93-.974c2.171-1.26 2.276-2.85 2.171-3.859c-.642-6.145-4.468-9.53-5.925-9.789c-.252.189-1.056.57-2.256.589"/><path fill="#fff" d="M8.498 14.309c.416-1.028 2.569-1.612 3.594-1.776c1.287 0 3.803 1.443 3.803 2.463c0 1.344-1.048 4.533-3.803 4.425S7.98 15.594 8.498 14.31"/><path fill="#dcc7e6" d="M11.056 14.896a.94.94 0 0 1-.881-.623l-.208.44l.498.597l2.45.302l1.253-.42V14.6c-.06.161-.3.472-.777.43c-.477-.043-1.022-.524-1.235-.758c-.136.215-.545.64-1.1.623"/><path fill="#3b0364" d="M11.122 13.448c.132-.41.872-.473 1.094-.464c.787 0 1.154.306 1.143.69c-.007.309-.672.604-1.004.713v.584c.047.118.323.356 1.056.365c.734.007.793-.525.731-.792c.24.377.362.662-.239 1.103c-.48.353-.684 1.096-.724 1.424c.116.643.035 1.91-1.217 1.836c-1.564-.092-1.18-1.737-1.101-2.028c.08-.292-.304-.969-.384-1.232s-.659-.676-.637-.976c.017-.238.263-.383.384-.427c-.152.542.318.976.797.962c.382-.012.82-.162.973-.235v-.584c-.422-.15-1.004-.53-.872-.94"/><path fill="#fb6e64" d="M11.562 16.864c.318.038.445.566.475.794c.095-.297.185-.77.504-.728c.318.042.37.374.36.565c-.009.192-.037 1.117-.864 1.135c-.828.02-.966-.944-.956-1.065c.01-.122.129-.742.48-.7"/><path fill="#d85465" d="M11.968 18.018a.84.84 0 0 1-.748-.405c-.04.3.065.894.799.882c.733-.013.745-.584.66-.869c-.06.128-.287.385-.71.392"/><path fill="#bd98db" d="M12.169 13.254c-.367.002-.543.107-.585.159c0 .118.505.153.585.153s.714-.12.716-.174s-.258-.142-.716-.138"/><path fill="#3b0364" d="M16.488 11.132c-1.15.023-1.432 1.017-1.428 1.51c.14-.298.622-.921 1.428-1.029s1.569.552 1.849.894c-.137-.468-.698-1.398-1.849-1.375M7.57 11.12c1.15.022 1.432 1.016 1.428 1.51c-.14-.299-.622-.922-1.428-1.03s-1.569.552-1.849.895c.137-.468.699-1.398 1.85-1.375m4.722 1.214c-1.135-.108-2.208.796-2.602 1.26c.397-.312 1.448-.94 2.475-.952s2.046.771 2.426 1.164c-.41-.577-.88-1.337-2.3-1.472"/><path fill="#d3bdbf" d="M12.183 19.48c-4.318.516-7.244-2.058-8.166-3.409c.448 1.838 1.429 2.616 2.481 3.41c1.052.793 8.166 1.146 11.047.076c2.305-.855 2.67-2.778 2.563-3.632c-1.148 1.58-2.526 2.912-7.925 3.556"/><path fill="#f6eed4" d="M19.347 9.77c-.771-2.241-2.433-3.602-3.168-4.002c2.218-1.664 3.221-1.723 3.445-1.545c1.367 1.046.386 4.134-.277 5.547"/><path fill="#480066" d="M16.534 6.017c1.358.958 2.139 2.277 2.362 2.978c.936-1.584 1.063-3.3.973-4.088c-.003-.201-.173-.598-.886-.448c-.714.151-1.956 1.134-2.449 1.558"/><path fill="#ff696e" d="M18.958 8.154c-.625-1.123-1.47-1.894-1.815-2.139c1.202-.86 1.837-1.175 2.095-1.252c.071-.022.138.017.166.084c.359.872-.14 2.55-.447 3.307"/><path fill="#dc546c" fill-rule="evenodd" d="M17.87 6.675c.308-.577.876-1.422 1.261-1.22c.208.11.317.357.37.622c.052-.462.037-.903-.097-1.23c-.028-.067-.095-.106-.166-.084c-.258.077-.893.392-2.095 1.252c.16.113.426.339.727.66" clip-rule="evenodd"/><path fill="#f8ebda" d="M7.994 5.887c-3.77-2.47-4.602-.783-4.547.369c.075 1.649.698 3.653 1 4.449c.73-2.537 2.148-3.936 2.765-4.32z"/><path fill="#31006b" d="M7.229 6.385c-1.358.958-2.145 2.598-2.37 3.3c-.935-1.584-.99-3.557-.9-4.346c.003-.201.187-.565.9-.415c.715.15 1.877 1.037 2.37 1.461"/><path fill="#fd6b6c" d="M4.38 5.517c-.118 1.364.262 2.65.48 3.146c.214-.459.86-1.563 1.737-2.313c-.943-.63-1.574-.926-1.92-1.042c-.148-.05-.284.054-.297.21"/><path fill="#d65969" fill-rule="evenodd" d="M4.396 6.763c.036-.322.123-.656.305-.681c.231-.032.901.46 1.341.817c.172-.193.358-.38.555-.55c-.943-.63-1.574-.925-1.92-1.041c-.148-.05-.284.054-.297.21c-.037.43-.025.853.016 1.245" clip-rule="evenodd"/></g></svg>