<svg xmlns="http://www.w3.org/2000/svg" viewBox="0 0 24 24"><g fill="none"><path fill="url(#SVG1vrzSWpb)" d="M12 21a9 9 0 1 0 0-17.998A9 9 0 0 0 12 21m0-1.51c4.26 0 7.715-3.4 7.715-7.6S16.265 4.285 12 4.285c-4.26 0-7.715 3.4-7.715 7.6S7.735 19.49 12 19.49"/><path fill="#fff2ff" d="m11.7 4.154l1.115.035l1.335.255l.58.2l-.725.185a.2.2 0 0 0-.09.05l-.075.085l-.495-.08a3.3 3.3 0 0 0-.87-.1l-.87.015a4.8 4.8 0 0 0-1.215.135q-.246-.241-.68-.415a8.5 8.5 0 0 1 1.995-.365z"/><path fill="#ff9ed9" d="M9.71 4.52q.434.178.68.416l-.75.205l-.71-.335c.21-.065.32-.12.32-.17c.19-.02.34-.06.46-.115m5.02.13l1.22.58q-.227.113-.504.105a.1.1 0 0 0-.1.056c-.025.05-.055.075-.1.08l-1.26-.44l-.145-.065l.075-.085a.16.16 0 0 1 .09-.05l.725-.185z"/><path fill="#fd45a3" d="M13.35 4.885c.1.27.01.53-.285.77a.165.165 0 0 0-.05.185a.12.12 0 0 0 .035.06l.255.26c-.315-.03-.63-.05-.945-.07a5.93 5.93 0 0 0-3.44.85c-.25-.035-.55-.15-.915-.35c.04-.02.065-.05.085-.09a.1.1 0 0 1 .08-.055c.38-.06.72-.24 1.09-.29c.25-.04.6-.17.74-.21c.74-.185 1.475-.41 2.195-.665a.07.07 0 0 0 .05-.065V5.17a.1.1 0 0 0-.08-.03c-1.51-.15-3.03.335-4.285 1.175q-.076.053-.145.165l-.29-.125l.96-.665l1.235-.55l.75-.205q.593-.15 1.215-.135c.085 0 .375 0 .87-.015q.427-.006.87.1z"/><path fill="#ff6db0" d="m8.93 4.805l.71.335l-1.235.55c-.2-.175-.435-.125-.58-.275z"/><path fill="#e63f93" d="m13.35 4.885l.49.08l.15.065c-.05.09-.034.15.03.185c.136.055.25.115.36.165a.22.22 0 0 1 .12.175a.23.23 0 0 1-.074.2a.46.46 0 0 1-.21.1c-.215.05-.235.135-.06.265q.122.089.264.335l-1.114-.3l-.25-.255a.164.164 0 0 1 .01-.245c.294-.24.39-.5.28-.77z"/><path fill="#be498b" d="m13.985 5.03l1.26.44l1.02.62l-1.35.635l-.5-.27a1.1 1.1 0 0 0-.26-.335c-.175-.13-.15-.22.06-.26a.46.46 0 0 0 .205-.1a.23.23 0 0 0 .08-.2a.23.23 0 0 0-.12-.18c-.105-.05-.225-.11-.36-.165c-.065-.035-.08-.095-.035-.185"/><path fill="#ff6db0" d="M8 6.595a.8.8 0 0 1-.265-.115a.5.5 0 0 1 .145-.165a6.67 6.67 0 0 1 4.285-1.175c.04 0 .065.015.075.03c.01.01.01.025.01.045q-.009.044-.055.065c-.72.255-1.45.48-2.2.665c-.14.04-.485.17-.735.21c-.37.05-.71.23-1.09.29a.1.1 0 0 0-.08.055a.2.2 0 0 1-.085.095zm7.95-1.365a.3.3 0 0 0 .08.045l.795.555l-.56.26l-1.02-.62q.061-.006.1-.08a.1.1 0 0 1 .1-.05q.276.001.5-.11z"/><path fill="#e36580" d="M7.824 5.415c.15.15.38.1.58.275l-.96.665l-.575-.235l.95-.705z"/><path fill="#ffb563" d="M17.65 5.625a18 18 0 0 0-2.034 1.11c-.125.08-.2.19-.315.27q-.149.106.025.16l.25.08l-.56.72a.51.51 0 0 0-.51.015a.23.23 0 0 0-.1.29q.09.195.3.3c.005.02-.045.075-.15.155l-.35-.08a.17.17 0 0 1-.1-.065a3 3 0 0 0-1.51-1.055c.215-.3.5-.55.86-.76c.29.02.6.065.945.14q.211.045.52-.18l1.35-.635l.55-.26l.835-.205z"/><path fill="#ca7635" d="M17.651 5.625q.346-.054.49.335c.125.36.085.95.125 1.36a.6.6 0 0 0-.065.27l-.2.15a.24.24 0 0 0-.07.095l-.125.265c-.02.045-.05.05-.1.03c-.15-.095-.3-.2-.44-.31a4.2 4.2 0 0 0-1.42-.66a.1.1 0 0 0-.07 0a.12.12 0 0 0-.055.05l.005.06l-.15-.025l-.25-.08q-.174-.054-.025-.16c.115-.08.185-.19.315-.27c.62-.4 1.3-.765 2.035-1.11M6.216 6c.65.335 1.3.695 1.935 1.07a.6.6 0 0 1 .22.235c.015.04.005.06-.03.07a.8.8 0 0 0-.27.13q-.525.18-1.17.615q-.196.104-.46.305q-.421.321-.79.68a.75.75 0 0 1-.2-.3l-.12-.83c-.03-.535-.03-1.1-.01-1.685c.02-.52.59-.365.895-.29"/><path fill="#ffde93" d="m6.21 5.91l.66.21l.574.235l.29.125a.8.8 0 0 0 .27.115c.365.2.67.31.915.345c.12.115.21.16.28.14q1.521-.451 3.215-.415q-.599.345-.56.72a3.75 3.75 0 0 0-1.96.475a2.9 2.9 0 0 1-1.825-.35a.8.8 0 0 1 .27-.135c.035-.01.05-.03.03-.07a.56.56 0 0 0-.22-.235A38 38 0 0 0 6.214 6q-.089-.045-.005-.09"/><path fill="#ff6db0" d="m13.305 6.16l1.114.294l.5.27q-.308.225-.52.18a6.5 6.5 0 0 0-.944-.14l-1.04-.1q-1.694-.036-3.216.415c-.07.02-.16-.025-.28-.14a5.93 5.93 0 0 1 3.44-.85c.316.02.63.04.946.07"/><path fill="#ffca81" d="m12.415 6.665l1.04.1c-.337.19-.63.45-.86.76l-.74-.14c-.025-.25.165-.49.56-.72"/><path fill="#ab6d31" d="m18.2 7.59l.015.4l-.09.58a.2.2 0 0 0 .05.16l.7.74c.015.05.045.09.075.115c-.01.075-.01.125.01.15c.815 1.455 1.395 2.81.995 4.5c-.055.23-.15.35-.27.37l-.025-.265l-.055-1.3A3.45 3.45 0 0 0 19.19 11a27 27 0 0 0-1.035-1.785c-.19-.3-.205-.64-.495-.875a5.3 5.3 0 0 0-1.05-.65l-.885-.42c-.005-.035-.01-.055-.005-.065a.1.1 0 0 1 .055-.04q.039-.015.07 0c.5.15 1 .33 1.42.655c.14.115.29.215.445.31c.045.025.075.015.1-.03l.12-.265a.24.24 0 0 1 .075-.09l.195-.15z"/><path fill="#e79b4c" d="m15.576 7.25l.15.02l.885.42c-.21.65.14 1.17.515 1.655q.27.352.36.75a8.8 8.8 0 0 0-2.93-1.37c.105-.08.15-.135.15-.16c.58.26.915-.245.31-.6l.56-.72z"/><path fill="#a44a5e" d="m18.265 7.32l.725 1.155q-.119.166-.035.55q.039.158-.08.135l-.66-1.17l-.015-.4q-.001-.098.065-.27"/><path fill="#fcfcff" d="m11.855 7.385l.74.14q.931.299 1.51 1.055q.039.051.1.065l.35.08q1.574.404 2.93 1.37a5.5 5.5 0 0 1 1.62 1.86c.31 1.54-.09 2.7-1.2 3.49c-.035.03-.08.02-.14-.02c.15-.27.31-.535.35-.84a3.34 3.34 0 0 0-1.25-3.055a6.15 6.15 0 0 0-3.145-1.425a10.35 10.35 0 0 0-4.76.3c-.32-.18-.575-.34-.95-.445a6 6 0 0 1-.82-.295l1.35-.64c.22-.05.36-.11.405-.19c.257-.378.579-.708.95-.975a3.75 3.75 0 0 1 1.96-.475"/><path fill="#ffca81" d="M8.07 7.504q.684.449 1.825.35c-.372.268-.693.6-.95.98c-.05.08-.185.14-.41.19a.33.33 0 0 0-.005-.185c.125-.1.18-.23.17-.405c.005-.125-.065-.215-.21-.26c-.23-.075-.44-.005-.62.205q-.045.031-.06.025a2.4 2.4 0 0 1-.91-.285c.43-.29.82-.5 1.17-.615"/><path fill="#8a6c6b" d="M12.335 7.65c-.576.4-1.15.456-1.73.176q.749-.421 1.73-.175"/><path fill="#6f4a3e" d="M12.335 7.65q.164.031.275.174a.13.13 0 0 1-.015.17q-.885.854-1.89.2c-.126-.085-.155-.205-.1-.37q.868.419 1.73-.175"/><path fill="#d08941" d="M16.61 7.69c.385.18.735.4 1.05.65c.29.235.305.58.495.875q.55.874 1.035 1.785c.344.62.488 1.33.415 2.035l-.5-1.08c-.36-.7-.9-1.315-1.62-1.86a1.9 1.9 0 0 0-.36-.75c-.375-.485-.72-1-.515-1.65z"/><path fill="#6f4a3e" d="M15.014 7.965c.61.354.27.86-.31.6a.6.6 0 0 1-.3-.295a.23.23 0 0 1 .1-.29q.24-.142.51-.015"/><path fill="#87324c" d="m5.33 7.975l.12.83q-.374.473-.485 1.095l-.07.145l-.51.905a.05.05 0 0 1-.03.025l-.019-.004l-.016-.011a.1.1 0 0 1-.025-.04A7.6 7.6 0 0 1 5.33 7.975"/><path fill="#77154f" d="m18.215 7.99l.66 1.17l.1.195q.03.053-.016.09a.14.14 0 0 1-.09.025l-.695-.74a.2.2 0 0 1-.05-.16z"/><path fill="#ffb563" d="M6.9 8.12q.414.232.91.284c-.1.17-.12.315-.07.435c.135.32.59.15.79 0q.029.089.005.185l-1.35.64l.12-.095a3.35 3.35 0 0 0-1.655-.15a.12.12 0 0 1-.1-.015l-.1-.075l.2-.225c.25-.24.51-.465.79-.68q.264-.202.46-.3z"/><path fill="#8a6c6b" d="M8.7 8.436c-.336.14-.616.125-.83-.05c.18-.215.39-.285.62-.21c.15.05.214.135.21.26"/><path fill="#6f4a3e" d="M7.87 8.38c.216.18.496.2.83.05q.017.269-.17.41c-.2.15-.65.32-.79 0q-.073-.18.07-.435c.01.005.03 0 .06-.025"/><path fill="#87324c" d="M18.99 8.476c.345.665.475 1.18.715 2.02c.02 0 .01.05-.025.14a4 4 0 0 0-.73-1.05a.3.3 0 0 1-.08-.115q.052-.001.09-.025q.044-.037.015-.09l-.1-.195q.111.023.08-.135c-.055-.255-.05-.44.035-.55"/><path fill="#be498b" d="M5.45 8.805a.8.8 0 0 0 .2.3l-.2.225l-.485.57q.111-.622.485-1.095"/><path fill="#e79b4c" d="m5.45 9.33l.095.075c.03.02.065.03.1.02a3.35 3.35 0 0 1 1.655.15l-1.005.705a2.6 2.6 0 0 0-1.4-.235l.07-.145z"/><path fill="#93582a" d="M18.95 9.585q.436.45.73 1.05l.27.585l.215.735l.14.92l-.03.94l-.14.64a4.05 4.05 0 0 1-.995 1.695a.9.9 0 0 0 .05-.35a2 2 0 0 0 .495-1.195q.188-.023.27-.375c.4-1.685-.18-3.04-1-4.49q-.021-.045-.005-.15z"/><path fill="#dddde2" d="m7.3 9.57l-.11.1c.28.12.555.22.825.29c.37.1.625.265.945.45l-1.4.7c-.35.22-.67.5-.97.84a5.7 5.7 0 0 0-1.095-.885l.8-.785l1.01-.71z"/><path fill="#333131" d="M13.72 10.1q-.406.655-.055.82a20 20 0 0 1-1.83 1.85l-1.195-1l-.91-.93a.1.1 0 0 0-.1-.03q-.989.223-1.85.716a.9.9 0 0 0-.22-.415l1.4-.7a10.35 10.35 0 0 1 4.76-.305z"/><path fill="#d08941" d="M4.895 10.045a2.6 2.6 0 0 1 1.4.235l-.8.785l-.515.72l-.18.33l-.55-.88l-.035.055q.014-.226.08-.37a.1.1 0 0 0 .025.04a.05.05 0 0 0 .035.01a.04.04 0 0 0 .03-.02z"/><path fill="#221f20" d="M13.72 10.1a6.15 6.15 0 0 1 3.145 1.43a3.34 3.34 0 0 1 1.25 3.056c-.045.3-.2.57-.35.84q-.089.075-.065.15a.13.13 0 0 0-.085-.04l.23-.63c.2-.45.165-.976-.09-1.565a3.3 3.3 0 0 0-1.32-1.55a6.4 6.4 0 0 0-2.57-1.05a.1.1 0 0 0-.1.04l-.1.14c-.235-.11-.215-.385.055-.816z"/><path fill="#ece7e3" d="m16.435 11.79l.41.74q.279.494.31.785a1.84 1.84 0 0 1-1.05 1.75l-.006-.175q.022-.33-.1-.765q-.023-.068.05-.075c.2-.015.375-.1.526-.245q.098-.099-.03-.04q-.149.075-.305.195a.21.21 0 0 1-.2.03a.22.22 0 0 1-.14-.15c-.056-.255-.37-.645-.665-.62a.4.4 0 0 0-.31.205a2.2 2.2 0 0 0-.19 1.9c-.91.105-2.22-.05-2.765-.88a1.79 1.79 0 0 1-.136-1.68q.977-.862 1.83-1.845l.1-.14a.1.1 0 0 1 .1-.035q1.446.263 2.57 1.05z"/><path fill="#cdc6c3" d="M10.64 11.77c-.075.495-.225 1.015-.225 1.46c0 2.145 2.01 2.905 3.8 2.735c.4-.04.94-.115 1.63-.23c-.225.175-.325.345-.3.5c-1.02.265-2.06.32-3.105.17q.165-.196.06-.28c-.235-.19-.725-.235-.855.12c-.8-.26-1.55-.71-2.235-1.355a2 2 0 0 0-.35-1.105a.65.65 0 0 0-.32-.27q-.322-.111-.435.25c-.11.14-.215.175-.3.1c-.255-.605-.565-1.32-1.05-1.75l.83-.59a6.7 6.7 0 0 1 1.84-.715a.1.1 0 0 1 .105.03z"/><path fill="#dddde2" d="m12.43 10.975l.06-.065a.13.13 0 0 1 .22.125a.45.45 0 0 0 .02.3a.14.14 0 0 1-.01.125a.23.23 0 0 1-.12.095a.1.1 0 0 1-.11-.03l-.1-.11a.13.13 0 0 0-.1-.05l-.99.025c-.05 0-.1.02-.135.06l-.075.085c-.04.04-.085.05-.13.02l-.055-.025a.1.1 0 0 1-.06-.11c.015-.125-.06-.335-.015-.425a.13.13 0 0 1 .11-.085a.11.11 0 0 1 .115.04l.07.075a.17.17 0 0 0 .095.045c.375.03.745.02 1.115-.04a.16.16 0 0 0 .1-.05z"/><path fill="#c4c1c7" d="M5.5 11.065q.608.383 1.09.885c-.24.22-.46.55-.65.98l-.96-1.15l.52-.71z"/><path fill="#221f20" d="M7.56 11.11a1 1 0 0 1 .224.415l-.83.59l-.555.625l-.245.39a2.2 2.2 0 0 0-.25 1.01a1.8 1.8 0 0 0 .29 1.16q.021.061-.085.055l-.35-.65a2.87 2.87 0 0 1 .175-1.775c.2-.43.415-.76.65-.98c.285-.323.613-.606.975-.84"/><path fill="#ab6d31" d="m4.25 11.235l.55.88a2.1 2.1 0 0 0-.32 1.085q-.001.097-.1.165c-.205-.345-.19-.69-.36-1.05z"/><path fill="#b5adb4" d="m4.979 11.785l.955 1.145q-.354.711-.175 1.775a3.37 3.37 0 0 1-1.28-1.505c-.02-.29.09-.65.32-1.085z"/><path fill="#e1d9d5" d="m10.641 11.77l1.2 1a1.78 1.78 0 0 0 .13 1.675c.55.835 1.86.985 2.765.875c.28.265.655.29 1.125.085c.12-.05.2-.164.25-.34a1.835 1.835 0 0 0 1.05-1.75c-.025-.195-.125-.45-.315-.785l-.41-.74q.99.674 1.32 1.55c-.125.735-.385 1.27-.77 1.6c-.3.25-.5.44-.605.55l-.535.245c-.69.115-1.23.19-1.63.23c-1.79.17-3.8-.59-3.8-2.735c0-.444.15-.965.225-1.46"/><path fill="#dad1d6" d="m19.105 11.95l.5 1.084l.055 1.305c-.435.525-.675 1.02-1.235 1.44a4.7 4.7 0 0 1-1.935.885l.545-.385l.66-.71q-.021-.076.07-.145c.06.04.105.05.145.02q1.65-1.179 1.2-3.49z"/><path fill="#b9a9a8" d="M6.95 12.115c.49.43.8 1.145 1.05 1.75a.95.95 0 0 1-.65-.4c-.02-.02-.03-.02-.045 0l-.01.03v.01c.265.21.35.415.765.445q.074.001.065.07c-.025.25-.235.265-.415.16c-.095-.05-.2-.11-.3-.18q-.411-.374-.455-.545a1.08 1.08 0 0 0-.555-.715z"/><path fill="#93582a" d="M4.02 12.315c.17.36.155.705.36 1.05l.02.94l.065.82a4.3 4.3 0 0 1-.445-2.815z"/><path fill="#a89a9f" d="M6.4 12.74q.429.226.55.715c.035.115.185.3.455.545q.204.261.61.32l.015.005l.005.015l-.055.79a2.2 2.2 0 0 1-.95-.77q-.42-.627-.875-1.23z"/><path fill="#9c7e87" d="M16.475 13.4c.005-.02 0-.035-.035-.04l.14-.19q.045-.068.06.015c.01.065-.05.135-.165.22z"/><path fill="#a09091" d="M6.155 13.129c.15.185.44.6.875 1.23c.237.341.566.609.95.77c.035.235.15.4.335.505q.097.059.33.08c.15.02.26.04.34.07c.897.563 1.908.92 2.96 1.045q.211.279.4-.02q1.965.204 3.87-.425a.1.1 0 0 0 .038-.03a.1.1 0 0 0 .017-.045c0-.03-.01-.05-.04-.05l.375-.14c.16 0 .355-.08.595-.25c.215-.15.35-.265.415-.335c.03 0 .06.015.085.035l-.665.71q-.174-.059-.43.1c-.554.298-1.154.5-1.775.6a.14.14 0 0 0-.1.035c-.2.18-.845-.1-1.15.105a.17.17 0 0 1-.1.03c-.42 0-.85-.02-1.27-.045a10.5 10.5 0 0 1-3.735-.935a2.07 2.07 0 0 0-1.22-.52l-1.35-1.51a2.2 2.2 0 0 1 .25-1.01"/><path fill="#5c4b47" d="M16.1 14.89c-.175.14-.335.225-.47.25q-.614.134-.68-.475q-.084-.729-.025-1.24a.4.4 0 0 1 .31-.2c.295-.03.61.36.665.61a.216.216 0 0 0 .241.167a.2.2 0 0 0 .099-.042c.105-.08.205-.15.305-.195q.135-.059.03.04a.84.84 0 0 1-.53.25c-.04 0-.06.025-.05.07c.085.29.12.55.1.765z"/><path fill="#a89a9f" d="M4.48 13.2a3.37 3.37 0 0 0 1.28 1.504l.35.65l.41.57q-.599-.219-.755-.31c-.43-.26-.885-.7-1.365-1.31l-.02-.94q.099-.067.1-.165"/><path fill="#696868" d="M16.44 13.36q.044.008.035.045a.8.8 0 0 1-.5.295c-.02 0-.034-.005-.034-.025l-.006-.035l.005-.01a.95.95 0 0 0 .5-.27"/><path fill="#cdc6c3" d="M17.749 13.34c.26.59.29 1.11.1 1.565l-.865.66c-.235-.19-.39-.02-.605-.07c.1-.115.305-.3.6-.55q.586-.502.775-1.605z"/><path fill="#2b1916" d="M8 13.865c.09.075.194.04.3-.1c.014.365.01.72-.01 1.055c-.036.59.63.78 1.03.44c.024-.025.04-.015.05.015l.004.045q.067.285-.39.465c-.08-.03-.195-.05-.34-.07a1 1 0 0 1-.335-.08a.65.65 0 0 1-.33-.5l.055-.795l-.005-.015l-.015-.005a.9.9 0 0 1-.61-.32l.3.18c.185.105.4.09.42-.16q.001-.069-.065-.07c-.415-.03-.5-.235-.765-.45l.01-.03c.015-.025.025-.025.04 0c.165.22.385.355.655.395"/><path fill="#40302d" d="M14.925 13.425c-.04.345-.035.755.02 1.24c.05.405.275.565.685.475q.201-.039.47-.25l.01.175q-.076.264-.25.34c-.47.205-.845.18-1.125-.085a2.2 2.2 0 0 1 .19-1.895M9.41 14.89q.024.309-.035.43v-.045c-.015-.03-.03-.04-.055-.015c-.4.34-1.065.15-1.03-.44c.02-.335.025-.69.015-1.055q.113-.361.435-.25c.12.04.23.13.32.27c.225.33.345.7.35 1.1z"/><path fill="#fcfcff" d="M15.315 14.201c.025.3.175.535.335.52c.16-.01.27-.265.25-.565c-.03-.3-.175-.535-.335-.525c-.16.015-.27.27-.25.57"/><path fill="#b5adb4" d="M8.59 14.33c.015.3.15.534.31.53c.155-.01.27-.255.255-.555c-.01-.3-.15-.535-.305-.525c-.16.005-.275.25-.26.55"/><path fill="#9c7e87" d="m5.91 14.14l1.34 1.51c-.09.016-.17.08-.23.2l-.825-.55a1.8 1.8 0 0 1-.285-1.16"/><path fill="#b5adb4" d="m19.66 14.34l.026.265a2 2 0 0 1-.5 1.2a7.4 7.4 0 0 1-3.176 1.45a8.4 8.4 0 0 1-1.8.205l.135-.05a9.2 9.2 0 0 0 2.15-.75a4.7 4.7 0 0 0 1.93-.88c.56-.42.8-.915 1.235-1.44"/><path fill="#9c7e87" d="M4.4 14.305q.712.921 1.364 1.31c.1.065.35.165.75.31c.185.21.32.305.395.28c.115.175.285.325.52.44a8.4 8.4 0 0 0 3.2.915q1.963.149 3.576-.1q.914 0 1.804-.21c1.2-.275 2.085-.6 3.175-1.45c.01.12 0 .23-.045.35l-.784.65c-.246.035-.48.14-.71.3a.2.2 0 0 1-.11.04c-.186 0-.36.125-.51.16c-.286.065-.56.15-.83.26c-.086.035-.18 0-.28.045q-.301.114-.626.13c-.135.005-.3.025-.5.05c-.134.02-.3.03-.515.04c-.86.035-1.72.04-2.585.025c-.194 0-.42.065-.605.05a18 18 0 0 1-3.015-.5a10 10 0 0 1-1.795-.61c-.35-.185-.735-.365-1.155-.55a4.8 4.8 0 0 1-.65-1.115z"/><path fill="#b9a9a8" d="M9.41 14.89a5.9 5.9 0 0 0 2.235 1.356c.16.22.425.27.795.16c1.05.15 2.085.1 3.11-.165a1 1 0 0 0 .68.02c.03 0 .045.02.04.05a.09.09 0 0 1-.06.075a9.2 9.2 0 0 1-3.865.425c-.08-.326-.42-.31-.4.02a7.2 7.2 0 0 1-2.96-1.05c.3-.115.435-.27.39-.46q.059-.121.035-.43m8.44.01l-.235.636q-.091.107-.415.335c-.24.17-.435.25-.6.25c.215-.135.35-.27.415-.405c.02-.05.015-.1-.025-.15l.855-.66z"/><path fill="#8a6c6b" d="m6.2 15.3l.82.55q.436.654 1.33.61l-.09.026a.04.04 0 0 0-.025.025a.04.04 0 0 0 .005.035l.02.015c.854.3 1.75.55 2.675.745c-.316.08-.54-.02-.8-.05l-.325-.05a10.4 10.4 0 0 1-2.9-1q-.113.036-.39-.28l-.416-.57q.112.001.09-.05z"/><path fill="#b26868" d="M16.99 15.565c.034.05.05.1.024.15q-.096.204-.41.4l-.375.145a1 1 0 0 1-.68-.02q-.044-.241.295-.505l.535-.24c.215.05.37-.12.61.07"/><path fill="#834345" d="M7.251 15.65c.49.05.9.22 1.225.52q.061.186-.02.24a.6.6 0 0 1-.105.05c-.6.03-1.04-.176-1.33-.606c.06-.125.14-.19.23-.2z"/><path fill="#9c7e87" d="M12.434 16.4q-.549.172-.79-.15c.13-.36.62-.315.855-.125q.106.084-.065.28z"/><path fill="#9c7e87" d="M8.475 16.17c1.2.55 2.45.86 3.735.935q.638.037 1.275.045c.035 0 .065-.01.1-.03c.3-.2.94.075 1.14-.1a.14.14 0 0 1 .1-.045a5.6 5.6 0 0 0 1.78-.6q.256-.151.43-.1l-.545.39a9.2 9.2 0 0 1-2.145.745c.035-.045.05-.08.04-.115a.07.07 0 0 0-.03-.05a.07.07 0 0 0-.05-.01a8 8 0 0 1-1.09.135q-.99.031-2.28-.065a20.5 20.5 0 0 1-2.695-.76a.04.04 0 0 1 .02-.06l.09-.025a.4.4 0 0 0 .1-.05c.06-.035.065-.115.025-.24"/><path fill="#8c606a" d="m18.355 16.794l-.565.37l-1.02.4l-1.575.3c-1.26.165-2.165.24-2.71.235a10 10 0 0 0-1.605.075l-.665-.1l-2.385-.32l-1.665-.66l-.36-.25l-.685-.605c.425.185.81.365 1.155.55c.31.165.905.365 1.8.605c.81.22 1.815.39 3.01.5c.185.02.41-.05.605-.045c.865.015 1.725.01 2.59-.025c.205-.01.375-.02.51-.04c.2-.025.37-.045.5-.05c.215-.01.425-.05.625-.13c.1-.04.2-.01.28-.045c.27-.11.55-.2.83-.26c.15-.035.325-.165.515-.16q.06.001.105-.035c.23-.165.47-.27.71-.31"/><path fill="#8c606a" d="M10.935 17.3q1.29.099 2.28.07c.285-.01.65-.05 1.085-.135c.02 0 .04 0 .05.015q.029.015.035.045c.005.035-.005.07-.04.115l-.14.05q-1.611.249-3.575.1a8.4 8.4 0 0 1-3.2-.915a1.3 1.3 0 0 1-.52-.44c1.008.525 2.096.88 3.22 1.05c.265.03.49.13.8.05z"/><path fill="#8c606a" d="M12.345 16.81c-.125.2-.26.2-.4.02c-.02-.33.32-.35.4-.02"/><path fill="#490225" d="M7.83 17.756c.2.4.465.76.79 1.07q.039.038-.005.135a7 7 0 0 1-2.45-1.865z"/><path fill="#77154f" d="M17.79 17.165c-.4.46-.84.855-1.33 1.18q-.001-.135.23-.3c.11-.08.2-.18.255-.3q.022-.051-.03-.05l-.09.005c-.04 0-.06-.015-.07-.05c0-.025 0-.05.015-.085z"/><path fill="#8e1e60" d="M16.77 17.565a.14.14 0 0 0-.015.08c.01.04.03.06.07.055h.09c.035-.005.05.01.03.04a.8.8 0 0 1-.255.305c.05-.08.04-.14-.04-.175c-.075-.03-.125-.02-.15.045l-2.25.46l-.115.01c-.29-.016-.615.084-.84.1q-1.079.066-2.15.17c-.275.025-.44.38-.19.57q.284.208.53.5l-.28-.02l-.85-.14a5 5 0 0 0-.59-.575a.9.9 0 0 1-.275-.605a.1.1 0 0 1 .035-.1q.27-.217.69-.21l.665.1a12.6 12.6 0 0 0 3.035-.025c.19-.03.375.03.6-.035c.235-.07.48-.102.725-.096a.05.05 0 0 0 .025-.064c-.03-.06-.05-.095-.07-.09z"/><path fill="#77154f" d="m7.83 17.755l2.385.32a1.02 1.02 0 0 0-.69.21a.1.1 0 0 0-.035.1q.044.404.275.605c.3.265.5.45.59.575a6.3 6.3 0 0 1-1.74-.605q.045-.098 0-.135a3.9 3.9 0 0 1-.785-1.07"/><path fill="#87324c" d="M15.2 17.864q.021-.001.06.095a.05.05 0 0 1-.02.06a2.4 2.4 0 0 0-.726.095c-.225.065-.41.005-.6.035c-1.006.132-2.026.14-3.035.025c.36-.055.9-.08 1.6-.075c.55.005 1.455-.07 2.715-.235z"/><path fill="#be498b" d="M16.69 18.05q-.231.15-.23.3a7.5 7.5 0 0 1-2.135 1.05c-.6.18-1.21.3-1.84.345l-.15-.005l.035-.03a.08.08 0 0 0-.015-.08a1.3 1.3 0 0 1-.6-.365a.15.15 0 0 1-.04-.12a.5.5 0 0 1 .175-.34a.2.2 0 0 1 .095-.05l.51-.105c.23-.04.435.06.69.015c.725-.135 1.455-.26 2.185-.385c.44-.07.815-.195 1.125-.365c.03-.065.08-.075.155-.045c.08.035.09.095.04.175z"/><path fill="#a33173" d="M16.495 17.915c-.31.17-.685.295-1.125.365c-.73.125-1.46.25-2.185.385c-.25.045-.46-.05-.69-.015q-.255.044-.51.11a.2.2 0 0 0-.095.05a.5.5 0 0 0-.175.335c0 .045.01.085.045.12c.162.173.367.3.595.365l.015.025v.055l-.035.03l-.85-.015a3.2 3.2 0 0 0-.53-.5c-.25-.19-.085-.55.19-.57q1.071-.104 2.15-.17c.22-.015.55-.115.84-.1c.035 0 .075 0 .115-.01z"/><defs><linearGradient id="SVG1vrzSWpb" x1="19.31" x2="10.45" y1="7.015" y2="21.13" gradientUnits="userSpaceOnUse"><stop stop-color="#675f43"/><stop offset=".61" stop-color="#ffffd4"/><stop offset="1" stop-color="#ccc190"/></linearGradient></defs></g></svg>