<svg version="1.1" viewBox="0 0 128 128" xmlns="http://www.w3.org/2000/svg">
 <g transform="matrix(.87202 0 0 .86875 3.9989 4)" fill="#4f6814">
  <path class="st1" d="m27.61 116.62c-1.71 1.71-1.72 4.48 0.1 6.07 5.12 4.45 10.92 8.05 17.21 10.65 7.63 3.16 15.81 4.79 24.06 4.79s16.43-1.63 24.06-4.79c6.28-2.6 12.09-6.2 17.21-10.65 1.82-1.58 1.81-4.36 0.1-6.07l-35.19-35.19c-3.41-3.41-8.94-3.41-12.36 0z"/>
  <path class="st1" d="m68.83 0c12.79 0 25.33 3.56 36.21 10.26s19.66 16.28 25.36 27.66c5.7 11.39 8.1 24.13 6.92 36.79-1.03 11.01-4.72 21.59-10.73 30.83-1.44 2.21-4.53 2.43-6.4 0.57l-28.32-27.95c-1.25-1.23-1.6-3.09-1.17-4.79 0.43-1.67 0.67-3.42 0.69-5.22 0.17-12.39-9.8-22.58-22.27-22.75s-22.71 9.74-22.88 22.13c-0.03 2.05 0.22 4.04 0.71 5.94 0.45 1.72 0.1 3.59-1.17 4.83l-28.38 27.79c-1.88 1.84-4.96 1.62-6.39-0.59-6.01-9.25-9.7-19.84-10.72-30.85-1.17-12.66 1.23-25.4 6.94-36.78s14.5-20.95 25.38-27.64c10.88-6.7 23.42-10.23 36.22-10.23z"/>
 </g>
</svg>
