<svg xmlns="http://www.w3.org/2000/svg" viewBox="0 0 24 24"><g fill="none"><path fill="url(#SVG76mRtdBt)" d="m19.375 19.457l-7.339-6.246L4.5 19.583c-.582.492-1.5.096-1.5-.654V5.069c0-.75.918-1.14 1.5-.654l7.536 6.402l7.405-6.318a.96.96 0 0 1 1.32.072a.88.88 0 0 1-.078 1.278l-7.225 6.132l7.17 6.12a.88.88 0 0 1 .09 1.272a.973.973 0 0 1-1.343.084M4.8 6.983v9.978l5.814-4.956z"/><defs><linearGradient id="SVG76mRtdBt" x1="3" x2="21" y1="11.999" y2="11.999" gradientUnits="userSpaceOnUse"><stop stop-color="#9eebfd"/><stop offset=".23" stop-color="#aac5f9"/><stop offset=".52" stop-color="#a5bcf8"/><stop offset=".74" stop-color="#b6b5f7"/><stop offset=".9" stop-color="#ebb0f2"/><stop offset="1" stop-color="#aea0f4"/></linearGradient></defs></g></svg>