<svg xmlns="http://www.w3.org/2000/svg" viewBox="0 73 777 754" width="777" height="754" fill="none">
<path d="M385.807 73.0665C378.938 73.4125 372.208 75.1156 366.011 78.0758L95.8876 207.144C88.8962 210.482 82.7531 215.341 77.9146 221.357C73.0761 227.374 69.6664 234.395 67.939 241.898L1.29776 531.817C-0.241084 538.497 -0.413303 545.415 0.791299 552.162C1.9959 558.909 4.55284 565.347 8.31081 571.097C9.22203 572.502 10.202 573.863 11.2473 575.173L198.216 807.641C203.056 813.656 209.199 818.512 216.191 821.85C223.183 825.187 230.842 826.919 238.602 826.918L538.435 826.849C546.192 826.854 553.85 825.128 560.841 821.796C567.833 818.465 573.978 813.615 578.821 807.606L765.721 575.104C770.563 569.086 773.975 562.063 775.703 554.557C777.432 547.05 777.432 539.254 775.705 531.748L708.96 241.829C707.232 234.326 703.823 227.305 698.984 221.288C694.146 215.272 688.003 210.413 681.011 207.074L410.853 78.0758C403.059 74.352 394.447 72.6296 385.807 73.0665Z" fill="#326CE5"/>
<path fill-rule="evenodd" clip-rule="evenodd" d="M458.77 630.581L431.242 454.262C431.242 454.262 540.215 425.917 563.042 421.555C585.868 417.193 605.368 395.381 605.368 362.675C605.368 329.968 605.368 250 605.368 250C605.368 250 577.043 303.412 544.526 303.412C512.009 303.412 481.325 303.412 447.45 303.412C409.757 303.412 388.525 334.792 388.525 376.968C388.525 334.792 367.294 303.412 329.601 303.412C295.726 303.412 265.042 303.412 232.525 303.412C200.008 303.412 171.683 250 171.683 250C171.683 250 171.683 329.968 171.683 362.675C171.683 395.381 191.2 417.193 214.009 421.555C236.836 425.917 345.809 454.262 345.809 454.262L318.281 630.581H150.197C145.666 630.581 142 634.923 142 640.29C142 645.658 145.666 650 150.197 650H626.803C631.334 650 635 645.658 635 640.29C635 634.923 631.334 630.581 626.803 630.581H458.719H458.77Z" fill="white"/>
</svg>
