<svg xmlns="http://www.w3.org/2000/svg" viewBox="0 0 24 24"><g fill="none"><path fill="url(#SVGD8ZAocSd)" d="M12 20.47a8.47 8.47 0 1 0 0-16.94a8.47 8.47 0 0 0 0 16.94"/><path fill="url(#SVGai7pCdce)" d="M20.47 12a8.47 8.47 0 1 0-16.94 0a8.47 8.47 0 0 0 16.94 0"/><path fill="#181b1e" d="M10.411 6.706H12v10.059h-1.588zm6.771-2.647l-.937-.985L16.187 3a14.54 14.54 0 0 0-3.129 8.958c0 3.43 1.191 6.58 3.177 9.042l1.058-1.048a13.04 13.04 0 0 1-2.694-7.994c0-2.954.958-5.729 2.583-7.9"/><defs><linearGradient id="SVGD8ZAocSd" x1="16.939" x2="6.927" y1="4.125" y2="19.714" gradientUnits="userSpaceOnUse"><stop offset=".16" stop-color="#ffa3a3"/><stop offset=".59" stop-color="#c50000"/><stop offset="1" stop-color="#c50101"/></linearGradient><linearGradient id="SVGai7pCdce" x1="14.647" x2="12.33" y1="3.562" y2="7.379" gradientUnits="userSpaceOnUse"><stop offset=".07" stop-color="#ff5353"/><stop offset="1" stop-color="#c50101" stop-opacity="0"/></linearGradient></defs></g></svg>