<svg xmlns="http://www.w3.org/2000/svg" viewBox="0 0 24 24"><g fill="none"><path fill="#764d40" d="M19.123 9.434q-.165-.027-.07-.255a.8.8 0 0 0 .07-.233a2.7 2.7 0 0 0-.058-.714c-.029-.133-.11-.232-.157-.354a.064.064 0 0 0-.11-.023a.16.16 0 0 0-.046.157c.104.481.22.97-.03 1.416a.4.4 0 0 0-.046.145q-.017.164.105.146a.2.2 0 0 0-.116.034c-.024.018-.041.012-.059-.005l-.023-.041l-.04-.29a.1.1 0 0 0-.018-.047c-.07-.104-.203-.14-.244-.255c-.063-.175.012-.32.093-.465a.087.087 0 0 0-.093-.128l-.267.047c-.034 0-.058-.006-.081-.035a.27.27 0 0 1-.029-.279q.018-.051.052 0q.046.07.116.105c.047.023.076.011.087-.047c.006-.058 0-.098-.04-.127a1 1 0 0 1-.227-.256a.65.65 0 0 1 0-.302c.03-.116.041-.226.035-.319a9 9 0 0 1 0-1.045a.3.3 0 0 0-.017-.157a.5.5 0 0 0-.082-.145a8 8 0 0 0-.406-.465a.05.05 0 0 1 .012-.046l.023-.012a.23.23 0 0 1 .203.047c.116.11.267.191.354.325c.151.232.325.36.314.69v.256q.009.692-.012 1.382a.07.07 0 0 0 .058.04h.035l.03-.01a.09.09 0 0 0 .069-.094q0-.227.209-.307a.12.12 0 0 0 .07-.07l.104-.261q.216-.497.058-.94a1.65 1.65 0 0 0-.494-.692a4.3 4.3 0 0 0-.754-.505a1.2 1.2 0 0 0-.482-.15a4 4 0 0 0-.529.005a.04.04 0 0 0-.005.029a.3.3 0 0 0 .064.116c.034.023.07.058.098.093c.058.058.116.11.186.163c.128.104.261.26.395.476a.7.7 0 0 1 .098.255q.027.15.07.273q.062.2.047.424c-.03.267-.024.528.011.795q.008.054-.046.047l-.093-.018h-.035a11 11 0 0 0-.36-1.08a1.4 1.4 0 0 1-.075-.278a.5.5 0 0 0-.186-.32q-.034-.024-.04.012a.3.3 0 0 0 .057.279q.017.026.018.058c.017.133.058.25.116.36c.104.209.127.458.058.743a.1.1 0 0 1-.035.058l-.255.203a.14.14 0 0 1-.128.023q-.044-.016-.035-.058l.012-.058l.145-.127a.12.12 0 0 0 .044-.106a.12.12 0 0 0-.067-.092c-.116-.058-.29-.04-.378.081a.4.4 0 0 1-.052.064c-.023.03-.035.023-.023-.017q.053-.192-.058-.174l.058-.018c.029 0 .029-.017 0-.029l-.047-.029q-.043-.019-.035-.064c.059-.447.024-.87-.104-1.283a1 1 0 0 0-.145-.313a.44.44 0 0 0-.186-.163c-.052-.017-.064 0-.046.04q.148.463.243.918q.105.496 0 .784a2.6 2.6 0 0 0-.14.685c0 .035-.022.058-.057.064l-.052.011a.6.6 0 0 1-.053-.278l.012-.5c0-.07-.035-.11-.093-.116q-.051-.017-.075.035l-.012.023c-.017.041-.04.041-.064.012q-.059-.06-.058-.174c.076.046.134.029.186-.047a.3.3 0 0 0 .046-.156a1.05 1.05 0 0 0-.186-.65a.07.07 0 0 0-.091-.02a.1.1 0 0 0-.025.025a.67.67 0 0 0 0 .575q-.114-.027-.116.058q-.01.539.146 1.295q.017.052-.035.035a.7.7 0 0 1-.221-.14a7 7 0 0 1-.592-.644a.05.05 0 0 0-.058.017a.11.11 0 0 0-.012.087c.099.378.174 1.022-.261 1.237a.1.1 0 0 0-.052-.017c-.024 0-.035-.018-.03-.041c0-.012 0-.017.012-.03a.1.1 0 0 1 .03-.022a.18.18 0 0 0 .115-.116c0-.018.012-.03.024-.041q.087-.07 0-.157a.09.09 0 0 1-.03-.075q.008-.15.041-.29c.035-.18.018-.337.006-.523a.7.7 0 0 0-.058-.22a3 3 0 0 1-.157-.506c-.058-.25-.116-.493-.186-.732c-.017-.197-.087-.325-.22-.377a.215.215 0 0 0-.268.093a1.67 1.67 0 0 0-.104 1.347q.087.201.104.453a.25.25 0 0 0 .059.133q.06.095.07.198c0 .023.01.046.017.064l.058.116q.027.043.011.087c-.005.052 0 .093.041.128a.1.1 0 0 1 .035.064a.08.08 0 0 1-.035.063q-.016.009-.058-.017c-.244-.273-.406-.523-.476-.755a2 2 0 0 1-.018-.557a.9.9 0 0 0-.348-.116q-.036-.002-.046-.047a3.5 3.5 0 0 1-.018-.673a.95.95 0 0 1 .215-.5a.2.2 0 0 1 .058-.046a.12.12 0 0 0 .07-.081c.011-.058 0-.11-.035-.146a.16.16 0 0 0-.226 0l-.122.134c-.1.11-.122.261-.221.383a.16.16 0 0 0-.029.076a1 1 0 0 1-.104.296a.2.2 0 0 0-.024.116a1.7 1.7 0 0 1-.035.604a.6.6 0 0 1-.075.174a.5.5 0 0 0-.07.174l-.04.279q-.009.054-.087.029a.2.2 0 0 1-.082-.07q.114.036.157-.023q.033-.036.023-.134a5.5 5.5 0 0 1 0-.841a.1.1 0 0 0-.023-.07l-.035-.035q-.051-.054-.075.023c-.04.116-.024.232-.07.349c-.058.127-.104.267-.163.406q.069-.636.268-1.237a1 1 0 0 1 .133-.267l.203-.255a.1.1 0 0 0 .02-.038a.1.1 0 0 0-.002-.043a.9.9 0 0 0-.186-.326a.4.4 0 0 0-.244-.145a1.4 1.4 0 0 0-.58.006a4 4 0 0 0-.465.14a.07.07 0 0 0-.058.057a.58.58 0 0 1-.215.349l-.186.116a.11.11 0 0 0-.052.075c-.081.355-.186.72-.325 1.063q-.076.182-.087.377q-.045.664.035 1.336c0 .029.017.058.034.081c.047.058.059.134.041.22c-.023.094-.087.134-.186.111a1.7 1.7 0 0 0-.307-.546q.017-.053-.018-.174a.2.2 0 0 1 0-.07q.077-.465.174-.929c.058-.209.116-.418.157-.638a3 3 0 0 1 .076-.285a.9.9 0 0 0 .058-.33a.104.104 0 0 0-.122-.1c-.465.076-1.336.343-1.487.842q-.132.47-.185.889q-.034.254.011.534c.035.174-.006.342.047.505q.05.172.075.354l.047.465a.11.11 0 0 0 .046.087a.4.4 0 0 1 .128.255a.05.05 0 0 0 .035.04c.023.007.034.018.034.042q.089.306.233.592a.35.35 0 0 0 .278.215c.03.08-.023.11-.168.075a.5.5 0 0 1-.151-.064a2.4 2.4 0 0 0-.406-.209q-.374-.045-.494-.447c-.034-.18-.03-.366.012-.546a.14.14 0 0 0-.006-.08c-.076-.227-.157-.454-.174-.692l-.058-.819a1 1 0 0 0-.07-.301a.58.58 0 0 1 0-.39a72 72 0 0 1 .313-1.004a.07.07 0 0 0-.053-.057l-.028-.001a.53.53 0 0 0-.267.128l-.447.383l-.104.128a.6.6 0 0 0-.088.145a2.6 2.6 0 0 0-.214 1.155l-.064 1.278c-.023.203.013.409.104.592c.058.128.099.116.116-.023l.012-.151c0-.175.075-.355.087-.535c.018-.313.122-.58.122-.9c0-.005 0-.017.012-.028a.05.05 0 0 1 .023-.018c.023 0 .029-.017.029-.035c0-.104.017-.215.046-.32c.012-.057.053-.08.105-.075l.035.006a.16.16 0 0 1 .104.163l-.052.522a3 3 0 0 0 0 .523c.012.25.012.517-.012.801c-.011.18-.116.273-.174.436a.9.9 0 0 1-.186.313q-.261.272-.522.57c-.076.08-.163.127-.25.185a.13.13 0 0 1-.075.023a.07.07 0 0 0-.058.04a.13.13 0 0 1-.058.059a.66.66 0 0 0-.372.552l-.465.127a.52.52 0 0 1 .018-.36c.128-.325.325-.638.435-.987q.147-.446.198-.882c.04-.326.093-.616.145-.883l.348-1.69l.093-.83q.025-.165-.116-.07c-.075.053-.134.157-.186.32a.5.5 0 0 1-.209.232a.16.16 0 0 0-.058.058q-.122.286-.348.511c-.07.07-.134.163-.192.261a7 7 0 0 0-.505 1.127c-.104.313-.238.61-.32.935c-.069.29-.144.58-.232.859c-.139.435-.209.836-.29 1.266c-.058.336-.017.685-.035 1.033a6 6 0 0 0 .099 1.811q.164.61.424 1.115c.093.175.157.169.191-.029c.059-.325-.04-.627-.029-.94q.018-.498.018-1.022a1 1 0 0 1 .029-.256q.06-.192.174-.203q.296.367.68.604a.2.2 0 0 1-.117.012c-.029-.006-.058 0-.075.017q-.053.051 0 .11c.209.204.464.383.737.494l.488.215a.55.55 0 0 1 .197.145c.064.07.128.14.204.203c.075.075.098.203.098.308q.002.042.03.075l.162.186q.028.033.029.076c0 .023.011.046.023.07c.157.22.325.382.517.487a.9.9 0 0 1 .296.244c.081.099.162.197.255.29c.14.151.28.244.407.267c.186.04.29.134.325.29c-.465.221-.819.349-1.057.372a9 9 0 0 0-.882.14a3.5 3.5 0 0 1-.796.075q-.573 0-1.155.07c-.267.034-1.161.168-1.266-.21c-.064-.249.267-.36.441-.435a.15.15 0 0 0 .087-.168q-.067-.329-.162-.668c-.099-.348 0-.766-.174-1.086a3.8 3.8 0 0 1-.453-1.15c-.058-.4-.134-.8-.134-1.207c0-.883.151-1.742.453-2.59c.105-.296.29-.551.29-.882c0-.29-.034-.563.012-.865c.047-.314.087-.58.134-.813q.042-.235.319-.662a1.1 1.1 0 0 0 .145-.435c.03-.186.099-.36.163-.54c.023-.076.046-.192.058-.349a2 2 0 0 1 .081-.36c0 .105.006.175.03.204a.035.035 0 0 0 .04.011l.011-.006l.03-.029a.07.07 0 0 1 .069-.011l.093.011a.14.14 0 0 0 .081-.029c.174-.116.366-.191.54-.319c.269-.208.583-.347.918-.406c.327-.04.641-.149.923-.32c.087-.058.191-.035.29-.075a.5.5 0 0 1 .203-.035c.174.006.337-.07.511-.07c.21 0 .424-.017.65-.046q.558-.078 1.115-.052c.03 0 .052.011.07.023a.58.58 0 0 0 .389.104c.116-.017.232-.017.348-.011a.72.72 0 0 0 .436-.082a.46.46 0 0 1 .308-.063h.22c.105-.018.215-.024.32-.035q.105 0 .208-.035l.238-.081a.1.1 0 0 0 .018-.03c.046-.133-.006-.208-.145-.214a5.6 5.6 0 0 0-.848.017a.3.3 0 0 0-.15.04a.2.2 0 0 1-.082.018h-.964a.2.2 0 0 1-.186-.11l-.075-.145a.1.1 0 0 1-.018-.058a.06.06 0 0 0-.046-.058a.4.4 0 0 0-.169-.012c-.034 0-.07 0-.098-.023a1.1 1.1 0 0 0-.552-.174c-.133 0-.25-.03-.389-.006c-.32.058-.662.07-.97.18c-.125.049-.26.074-.394.075c-.128 0-.244.064-.349.134a1 1 0 0 1-.267.116c-.191.046-.383.14-.574.273a.2.2 0 0 1-.105.04a.16.16 0 0 1-.099-.023c-.011-.011-.017-.035-.017-.081c.197-.215.36-.424.61-.58c.603-.366 1.248-.755 1.974-.779a30 30 0 0 1 3.35.07a12 12 0 0 1 1.765.296c.116.03.22.07.33.116l1.888.807c.232.099.493.238.784.43l.772.493q.235.15.574.488q.226.225.366.616c.18.505.29.905.343 1.201a2.47 2.47 0 0 1-.43 1.899"/><path fill="#68473d" d="m5.234 5.77l1.568-1.394c-.006.047 0 .07.011.082a.15.15 0 0 0 .1.023c.04 0 .075-.017.104-.04c.191-.134.383-.233.58-.274a1 1 0 0 0 .261-.116c.105-.07.221-.133.349-.133q.193.002.395-.076c.307-.116.65-.127.97-.18c.139-.023.255 0 .388.012q.316.009.552.174q.045.026.099.018a.5.5 0 0 1 .168.011a.06.06 0 0 1 .046.058q0 .033.018.058l.075.145c.04.076.099.117.186.117h.964a.2.2 0 0 0 .081-.024a.4.4 0 0 1 .151-.04q.423-.042.848-.018c.14.006.191.082.145.215a.08.08 0 0 1-.046.052l-.21.058a.7.7 0 0 1-.209.035q-.16.012-.319.035h-.22a.5.5 0 0 0-.308.058a.67.67 0 0 1-.43.087q-.173-.008-.354.012a.53.53 0 0 1-.39-.105a.13.13 0 0 0-.069-.023a6 6 0 0 0-1.114.052a5 5 0 0 1-.65.047c-.175 0-.337.075-.512.07a.5.5 0 0 0-.209.034c-.098.04-.197.018-.29.076c-.273.174-.58.273-.917.32c-.331.04-.656.22-.918.406c-.174.127-.366.203-.54.319a.16.16 0 0 1-.081.029c-.035 0-.064 0-.093-.012a.07.07 0 0 0-.07.012l-.029.029a.04.04 0 0 1-.029.006a.04.04 0 0 1-.023-.012c-.023-.035-.029-.099-.029-.203"/><path fill="#84584d" d="M11.692 7.186q.104.096.087.192q-.045-.044-.082-.018a.07.07 0 0 0-.034.041q-.105.28-.07.557a.5.5 0 0 1-.058.302c-.145.29-.4.418-.755.39c-.261-.024-.383-.291-.302-.523c.012-.03.035-.035.058-.018a.26.26 0 0 1 .116.105c.035.058.117.093.186.058a.08.08 0 0 0 .047-.076c.023-.25-.105-.272-.244-.423c.075.023.127.005.145-.047a3.2 3.2 0 0 0 .203-1.033c0-.116-.052-.157-.162-.11c-.11.046-.169.191-.175.423c0 .035 0 .064-.017.093a.74.74 0 0 0-.081.43l-.024-.006l-.005-.006c-.053-.36.017-.69.197-.987q.028-.062.203-.22a.7.7 0 0 0 .169-.268a.1.1 0 0 1 .046-.058a.8.8 0 0 0 .244-.22a.13.13 0 0 1 .064-.047a.46.46 0 0 0 .255-.197a.08.08 0 0 0-.02-.09a.1.1 0 0 0-.032-.015a.24.24 0 0 0-.174.035a.14.14 0 0 1-.076.03h-.046c-.03 0-.058 0-.081.017a4 4 0 0 0-.488.348a.5.5 0 0 0-.198.395q-.001.023-.011.045a.1.1 0 0 1-.03.036l-.028.03a.2.2 0 0 0-.04.069l-.123.32q-.06.156-.075.365c-.022.29-.079.577-.169.853q-.025.105 0 .453a.1.1 0 0 0 .03.076c.034.058.058.14.058.232l-.105.314c-.006.029-.03.04-.058.023a.5.5 0 0 1-.197-.25q.149.034.185-.116a.24.24 0 0 0-.04-.215a.16.16 0 0 1-.035-.081a8 8 0 0 1-.035-1.336a1.2 1.2 0 0 1 .087-.377c.14-.342.244-.708.325-1.062a.1.1 0 0 1 .053-.076l.185-.116c.105-.07.175-.186.22-.348a.07.07 0 0 1 .047-.058c.157-.059.314-.1.465-.14c.191-.04.389-.046.58-.006a.38.38 0 0 1 .25.146c.087.11.151.214.186.325c.006.035 0 .058-.018.081l-.203.255a.8.8 0 0 0-.133.268a6 6 0 0 0-.267 1.236m6.2.743a.33.33 0 0 0-.174.105a.093.093 0 0 1-.162-.047l-.04-.18l.092.018c.04 0 .058-.012.047-.047a3.3 3.3 0 0 1-.012-.795c.012-.15 0-.29-.047-.424a1.3 1.3 0 0 1-.07-.273a.6.6 0 0 0-.098-.255a1.8 1.8 0 0 0-.395-.476l-.186-.163a1 1 0 0 0-.098-.099a.2.2 0 0 1-.064-.11a.04.04 0 0 1 .006-.029a.03.03 0 0 1 .029-.012c.162-.005.33 0 .499.006c.157.012.314.058.482.151c.29.157.546.325.755.505c.238.21.406.436.493.691c.105.29.087.61-.058.94l-.104.262a.12.12 0 0 1-.07.07c-.14.058-.209.157-.209.308q0 .068-.07.092l-.029.012a.1.1 0 0 1-.036.004a.1.1 0 0 1-.033-.016a.1.1 0 0 1-.022-.025a.1.1 0 0 1-.007-.033q.029-.803.017-1.608c.012-.33-.163-.453-.313-.69c-.088-.134-.233-.216-.355-.326a.23.23 0 0 0-.197-.052a.05.05 0 0 0-.04.04a.05.05 0 0 0 .011.047q.211.216.395.441c.034.04.058.087.081.145c.017.047.03.099.023.157a8 8 0 0 0-.006 1.045c0 .093 0 .203-.029.32a.6.6 0 0 0 0 .301zm-4.795-1.004a1 1 0 0 0-.244-.04c-.203-.007-.29.121-.314.307q-.04.437-.098.87a.076.076 0 0 0 .08.059a.2.2 0 0 0 .082-.029a.05.05 0 0 1 .058-.006c.006 0 .018.018.018.03a.06.06 0 0 1-.006.057a.47.47 0 0 1-.192.169a.163.163 0 0 1-.209-.082l-.313-.679q.078.016.087-.029l.04-.279a.5.5 0 0 1 .07-.174a.8.8 0 0 0 .076-.174a1.7 1.7 0 0 0 .034-.604c0-.04 0-.081.024-.116a.8.8 0 0 0 .104-.296a.1.1 0 0 1 .03-.076c.098-.116.115-.272.22-.383l.122-.133a.163.163 0 0 1 .226 0q.053.05.035.145a.12.12 0 0 1-.064.081a.16.16 0 0 0-.064.047a.95.95 0 0 0-.214.499a3 3 0 0 0 .023.673q.001.044.046.053a.8.8 0 0 1 .343.11"/><path fill="#9b7266" d="m10.547 7.529l.023.023c-.284.093-.29.894-.377 1.173a.4.4 0 0 0-.058-.232a.2.2 0 0 1-.024-.082q-.025-.348 0-.452q.14-.435.175-.854c0-.14.029-.261.07-.366l.121-.32a.2.2 0 0 1 .04-.069l.03-.029a.1.1 0 0 0 .029-.036a.1.1 0 0 0 .011-.045c0-.157.07-.29.198-.395q.243-.2.488-.348l.08-.018q.025.002.047 0a.1.1 0 0 0 .076-.029a.24.24 0 0 1 .174-.035a.1.1 0 0 1 .035.013a.1.1 0 0 1 .023.028a.07.07 0 0 1-.006.064a.46.46 0 0 1-.255.197a.13.13 0 0 0-.064.047a.74.74 0 0 1-.244.22a.1.1 0 0 0-.046.059a.64.64 0 0 1-.169.267c-.116.11-.185.18-.203.22a1.47 1.47 0 0 0-.192.987l.024.012zm5.69-.151l-.383.604a.06.06 0 0 1-.03.023q-.087.045-.098-.023l.052-.012a.06.06 0 0 0 .058-.058a3 3 0 0 1 .14-.69q.105-.288 0-.785a8 8 0 0 0-.244-.917c-.018-.046 0-.058.046-.04q.107.05.186.162c.058.087.11.192.145.313c.128.407.163.837.105 1.278c0 .035.005.058.034.07l.053.029q.034.018 0 .029z"/><path fill="#84584d" d="M13.88 5.887a.5.5 0 0 0-.116-.168c-.04-.04-.064-.03-.064.035q.018.319.105.627c.029.087.034.18.017.29c0 .029 0 .058.012.081a.6.6 0 0 1 .058.256c0 .093.006.186.029.278q.123.454.099.744c-.024.29-.117.522-.297.69c-.278 0-.499-.07-.65-.208c-.046-.041-.058-.082-.046-.128c.029-.082.075-.087.127-.023c.134.139.256.191.378.156a.1.1 0 0 0 .075-.081a.37.37 0 0 0-.023-.197c.035.017.058.023.058.017a.08.08 0 0 0 .035-.058a.1.1 0 0 0-.03-.07a.12.12 0 0 1-.04-.127a.15.15 0 0 0-.011-.088l-.058-.116a.2.2 0 0 1-.018-.058a.4.4 0 0 0-.075-.203a.3.3 0 0 1-.053-.133a1.6 1.6 0 0 0-.104-.453a1.67 1.67 0 0 1 .104-1.347a.215.215 0 0 1 .268-.093c.133.058.203.174.22.377"/><path fill="#9b7266" d="m13.88 5.885l.186.732c.058.22.105.389.157.505a.8.8 0 0 1 .058.227c.012.174.03.336-.006.51c-.023.1-.034.198-.046.297q.002.05.029.075q.087.087 0 .157a.1.1 0 0 0-.023.04a.18.18 0 0 1-.116.117a.1.1 0 0 0-.024.023a.1.1 0 0 0-.011.029c-.006.023 0 .04.029.04l.058.018a1.1 1.1 0 0 1-.447.064q.261-.261.296-.697a2.4 2.4 0 0 0-.099-.737a1 1 0 0 1-.035-.279a.6.6 0 0 0-.052-.255a.14.14 0 0 1-.011-.082a.6.6 0 0 0-.018-.29a3 3 0 0 1-.104-.627q0-.096.07-.035q.05.046.11.168"/><path fill="#84584d" d="M9.531 8.262a2.38 2.38 0 0 0-.487 1.765q.024.261.075.522q-.183-.017-.279-.209q-.166-.302-.267-.633a.05.05 0 0 1-.035-.04a.36.36 0 0 0-.127-.256a.13.13 0 0 1-.047-.087l-.046-.464a1.7 1.7 0 0 0-.076-.349c-.058-.174-.011-.342-.046-.51a1.7 1.7 0 0 1-.012-.535q.054-.418.186-.888c.145-.5 1.016-.767 1.486-.842a.104.104 0 0 1 .117.099a.9.9 0 0 1-.053.33a2 2 0 0 0-.075.291a10 10 0 0 1-.203.853c-.047.233-.093.47-.128.709a.2.2 0 0 0 0 .07c.029.08.029.139.017.174M7.9 9.91q-.044.001-.07-.058q-.019-.026-.046-.006a.05.05 0 0 0-.018.023a.14.14 0 0 0-.006.081c.03.18-.005.32-.116.418a1.7 1.7 0 0 0-.383.517a1 1 0 0 1-.203.261q-.132.138.058.11c.15-.028.33-.104.383.117l-1.817.563a.7.7 0 0 1 .371-.552a.13.13 0 0 0 .059-.058a.07.07 0 0 1 .063-.04q.047.001.076-.024c.087-.058.174-.104.244-.185q.261-.299.522-.57a.8.8 0 0 0 .192-.313c.058-.162.162-.255.174-.435q.033-.426.006-.807a3 3 0 0 1 .006-.523l.052-.517a.16.16 0 0 0-.14-.174c-.057 0-.092.03-.104.081c-.029.105-.04.215-.046.32c0 .017-.006.029-.03.035a.1.1 0 0 0-.023.017a.05.05 0 0 0-.011.029c0 .32-.105.586-.116.9c-.018.18-.087.354-.093.534c0 .047 0 .099-.012.151c-.017.14-.058.151-.116.017a1.06 1.06 0 0 1-.104-.592l.063-1.277c0 .209 0 .383.024.528c.023.163.063.169.133.024a1.3 1.3 0 0 0 .116-.558a.83.83 0 0 1 .151-.476a.15.15 0 0 0 .023-.087q0-.068.035-.128c.11-.162.122-.453.116-.638q-.008-.051-.052-.059l-.14-.029l.448-.383a.53.53 0 0 1 .267-.122a.07.07 0 0 1 .081.058v.03c-.116.33-.215.655-.313.969a.58.58 0 0 0 0 .389q.06.156.075.302l.058.819c.012.238.093.464.169.696c.005.024.011.047 0 .076c-.04.18-.042.365-.006.546"/><path fill="#9b7266" d="M8.753 9.997a1.2 1.2 0 0 1-.098-.51l.023-1.528q.001-.48.116-.813c.145-.377.348-.807.697-1.062a.07.07 0 0 1 .07-.006a.07.07 0 0 1 .04.058c0 .076-.012.14-.04.203c-.14.32-.308.645-.512.982a1.05 1.05 0 0 0-.133.406c-.081.766-.157 1.417-.047 2.137a.2.2 0 0 1-.023.139a.052.052 0 0 1-.075.017a.05.05 0 0 1-.018-.023"/><path fill="#68473d" d="m15.383 6.984l-.07-.273a.66.66 0 0 1 0-.575a.07.07 0 0 1 .094-.029c.011 0 .017.012.023.023q.201.296.186.65a.3.3 0 0 1-.047.157q-.08.115-.186.047"/><path fill="#9b7266" d="M17.48 7.802c-.006-.052-.046-.075-.122-.08a.12.12 0 0 0-.081.028a.94.94 0 0 1-.72.22a.09.09 0 0 1-.078-.06a.09.09 0 0 1 .02-.096a.3.3 0 0 1 .128-.07l-.012.064c0 .03.006.047.035.058a.15.15 0 0 0 .128-.023l.255-.197a.1.1 0 0 0 .04-.064c.059-.29.041-.534-.069-.743a1.1 1.1 0 0 1-.11-.36a.1.1 0 0 0-.023-.058a.3.3 0 0 1-.058-.28c.011-.022.023-.028.046-.01a.47.47 0 0 1 .186.319c.011.098.04.191.075.278c.134.349.256.703.36 1.074"/><path fill="#84584d" d="M6.362 7.263c-.197 0-.366.093-.517.285a.64.64 0 0 0-.122.244c-.08.383-.229.75-.44 1.08a3.4 3.4 0 0 0-.303 1.544c0 .017-.011.029-.023.04a.04.04 0 0 0-.017.03q-.176.86-.117 1.73l-.325.412a.18.18 0 0 0-.029.174c.093.244.232.453.407.639c-.076 0-.134.075-.175.203a1 1 0 0 0-.029.256q0 .523-.017 1.021c-.012.314.093.616.03.941c-.036.197-.1.203-.193.03a5.4 5.4 0 0 1-.423-1.116c-.151-.58-.134-1.219-.1-1.811c.018-.349-.022-.697.042-1.034c.075-.43.145-.83.278-1.266q.14-.424.238-.859c.082-.325.21-.621.32-.935c.127-.377.29-.754.505-1.126a1 1 0 0 1 .197-.261c.14-.151.261-.32.349-.505a.2.2 0 0 1 .052-.058c.087-.064.174-.14.203-.238c.058-.163.116-.268.192-.32q.14-.096.116.07z"/><path fill="#68473d" d="m11.883 7.512l-.105-.134c.012-.058-.017-.127-.087-.191l.163-.407c.046-.116.029-.232.07-.348c.01-.052.04-.058.075-.023l.035.035c.017.017.028.04.023.07a5 5 0 0 0 0 .841c0 .064 0 .11-.023.134q-.045.059-.157.023z"/><path fill="#9b7266" d="m7.122 6.531l.145.03c.024.005.041.023.041.057c.012.186 0 .476-.104.639a.23.23 0 0 0-.041.128a.15.15 0 0 1-.023.087a.84.84 0 0 0-.151.476c0 .215-.04.395-.116.557c-.07.145-.116.14-.134-.023a4 4 0 0 1-.017-.522c-.018-.407.058-.79.209-1.162c.023-.046.046-.093.087-.139z"/><path fill="#68473d" d="m10.64 7.774l-.07-.221l-.017-.023a.74.74 0 0 1 .082-.43c.011-.029.023-.058.023-.093c0-.232.058-.377.174-.424c.104-.046.162-.011.157.11q-.002.487-.203 1.034c-.024.058-.07.07-.146.046"/><path fill="#d8d5b6" d="m15.308 6.71l.076.273q-.002.114.058.175c.029.029.046.029.064-.012l.011-.023c.018-.03.04-.047.076-.035c.058.006.093.046.093.116c0 .163 0 .325-.012.5a.65.65 0 0 0 .058.278c0 .047.035.058.093.023a.06.06 0 0 0 .03-.023l.382-.604q.112-.017.058.174q-.016.061.03.018a.4.4 0 0 0 .046-.058c.081-.128.255-.145.377-.087a.116.116 0 0 1 .06.15a.1.1 0 0 1-.037.047l-.145.122a.3.3 0 0 0-.127.07a.09.09 0 0 0-.02.109a.1.1 0 0 0 .025.03l.053.017a.95.95 0 0 0 .72-.22a.12.12 0 0 1 .08-.023q.114-.002.123.075h.035l.04.186a.093.093 0 0 0 .163.046a.33.33 0 0 1 .174-.104a.8.8 0 0 0 .232.255q.044.043.035.128c-.011.058-.04.07-.087.046a.3.3 0 0 1-.116-.11q-.033-.043-.058 0a.27.27 0 0 0 .035.29q.027.037.08.03l.268-.047a.1.1 0 0 1 .071.017a.1.1 0 0 1 .034.064c0 .018 0 .03-.012.047c-.081.145-.157.29-.093.464c.04.116.174.151.244.256q.015.024.017.052l.041.29l.011.204a4 4 0 0 1-.058.534q-.024.183.012.383a.116.116 0 0 1-.075.133c-.058.018-.105-.005-.128-.063a.2.2 0 0 1 0-.146a.32.32 0 0 0-.128-.377a.2.2 0 0 0-.07-.023c-.203-.012-.238-.175-.255-.337c0-.029 0-.058.012-.087a.2.2 0 0 0 .011-.145a.13.13 0 0 1 0-.082q.07-.28-.087-.29a1.57 1.57 0 0 0-.97-.551c-.296-.053-1.114-.058-1.277.26a.08.08 0 0 0 .023.104a.43.43 0 0 0 .308.065a3.7 3.7 0 0 1 1.161.023q.227.043.575.302q0 .208-.192.198a1.53 1.53 0 0 0-1.08-.157l-.139-.04a.06.06 0 0 1-.046-.047q-.019-.105-.116-.087a1 1 0 0 0-.267.081a.7.7 0 0 0-.233.163l-.336.32c-.117.104-.175.249-.273.365a.8.8 0 0 0-.128.255c-.04.116-.058.215-.075.285q-.046.26-.117.929c-.04.081-.098.127-.162.127h-.105a.9.9 0 0 1-.389.006a.74.74 0 0 0-.476.024a1 1 0 0 1-.232.075l-.308.058a.1.1 0 0 0-.075.035a.9.9 0 0 1-.29.215c-.041-.29-.059-.621-.175-.871c-.395-.83-1.405-.999-2.125-.465c-.551.418-.987.738-.987 1.498a.076.076 0 0 0 .101.078a.1.1 0 0 0 .039-.031l.017-.035c.128.209.244.464.377.639c.215.267.465.487.773.65c-.018.058.035.145.168.261c-.052.012-.03.04.058.081c.087.041.192.006.279 0a.12.12 0 0 1 .087.035a.5.5 0 0 0 .226.116a.1.1 0 0 1 .076.041a.26.26 0 0 0 .22.081a.7.7 0 0 1 .262.03c.029.011.058.011.092.011c.25-.035.477-.116.68-.261c.244-.175.5-.302.76-.39l.639-.214a.2.2 0 0 1 .128 0c.023.011.052.006.075 0a.75.75 0 0 1 .639-.04q.045.013.064.046l.029.046l.011.134a.1.1 0 0 0 .035.07q.112.104.232.174c.146.08.262.232.215.4q-.077.316-.087.639a.12.12 0 0 1-.04.093q-.156.13-.302.278a.8.8 0 0 1-.372.21a1.9 1.9 0 0 1-.673.057a1.4 1.4 0 0 0-.349 0a.8.8 0 0 1-.435-.058a.55.55 0 0 0-.279-.058a2 2 0 0 1-.33 0c-.14 0-.245.07-.367.122q-.041.018-.087.012a1 1 0 0 0-.273 0h-.017l-.01-.007l-.008-.01q-.008-.026-.034-.024c-.175 0-.349-.023-.505-.075a.1.1 0 0 1-.059-.058c-.017-.035-.04-.058-.08-.058a.1.1 0 0 1-.059-.018a.33.33 0 0 0-.185-.058a.2.2 0 0 1-.088-.029a2 2 0 0 1-.215-.145l-.452-.372a3 3 0 0 0-.36-.243a4 4 0 0 1-.378-.256a.25.25 0 0 1-.104-.174a5 5 0 0 1-.035-.459a.15.15 0 0 0-.012-.07a1.6 1.6 0 0 1-.104-.313a10 10 0 0 1-.203-.964q-.04-.074-.07-.15c-.099-.233-.285-.105-.465-.14a.204.204 0 0 0-.22.104a2 2 0 0 0-.122.296a.42.42 0 0 0 0 .262q.091.34.116.69c0 .053 0 .1.029.134a.17.17 0 0 1 .023.093c-.011.261-.296.279-.482.203a3 3 0 0 0-.36-.116c-.058 0-.116 0-.18-.023a7 7 0 0 1-.83-.29c-.087-.047-.145-.128-.232-.146c-.198-.046-.29-.272-.447-.383a2 2 0 0 1-.18-.133q-.097-.08.023-.116l.07-.024a.2.2 0 0 1 .209.041q.146.122.371.122q.21-.001.418-.064l.697-.232a.3.3 0 0 0 .134-.099q.045-.054-.024-.046c-.058 0-.104.029-.145.075a.12.12 0 0 1-.07.035a.7.7 0 0 0-.191.058a.6.6 0 0 1-.192.052a1.3 1.3 0 0 0-.406.088c-.157.052-.273.028-.39-.082a.1.1 0 0 1-.022-.046c0-.018 0-.035.011-.053c.128-.162.273-.226.447-.191c.018 0 .035 0 .047-.023a.03.03 0 0 1 .023-.024c.22-.04.43-.046.633-.029a.55.55 0 0 0 .325-.058c.116-.064.174-.174.197-.319a.5.5 0 0 0-.034-.261a.1.1 0 0 1 0-.093c.075-.116.058-.227-.058-.32c.25-.214.267-.435.33-.714c.041-.174.146-.185.308-.191c.134.052.267.116.407.209q.089.054.15.064c.146.034.198.005.169-.076c-.035-.18-.058-.354-.081-.522A2.38 2.38 0 0 1 9.53 8.26q.211.26.308.546a.5.5 0 0 0 .203.25c.03.017.047.005.058-.024l.093-.308c.087-.278.093-1.08.377-1.173l.07.221c.14.151.267.174.244.424q-.001.051-.046.075c-.07.035-.151 0-.186-.058a.3.3 0 0 0-.116-.104c-.024-.018-.047-.012-.058.023c-.082.226.04.494.302.523c.354.023.61-.105.754-.395a.5.5 0 0 0 .058-.302q-.035-.279.07-.558a.07.07 0 0 1 .035-.04q.045-.027.081.017l.099.134a.2.2 0 0 0 .081.07l.314.679a.163.163 0 0 0 .209.081a.5.5 0 0 0 .191-.174a.1.1 0 0 0 .01-.028q.003-.015-.004-.03a.05.05 0 0 0-.023-.023a.05.05 0 0 0-.058 0a.2.2 0 0 1-.076.034a.08.08 0 0 1-.064-.023a.08.08 0 0 1-.023-.064c.04-.273.076-.557.105-.842c.023-.185.11-.313.313-.307c.082 0 .163.017.244.04q-.026.42.018.558c.07.232.232.482.47.755a.34.34 0 0 1 .023.197a.1.1 0 0 1-.075.081c-.117.035-.244-.017-.372-.157c-.058-.063-.104-.058-.128.024c-.017.046 0 .087.041.127c.15.14.371.21.65.21q.181.018.441-.059c.43-.22.36-.87.262-1.242c-.012-.03 0-.058.011-.087a.05.05 0 0 1 .04-.023h.018l.018.017q.286.35.58.639a.6.6 0 0 0 .215.133q.053.018.035-.035a5.5 5.5 0 0 1-.14-1.294q0-.086.111-.058z"/><path fill="#9b7266" d="m6.367 7.263l-.348 1.69a10 10 0 0 0-.145.882c-.035.29-.1.58-.198.882c-.116.349-.308.662-.435.987a.52.52 0 0 0-.018.36a1.2 1.2 0 0 0-.4.151c-.04-.58 0-1.16.116-1.73c0-.018.006-.023.017-.029a.04.04 0 0 0 .023-.04c-.03-.684.148-1.36.511-1.94c.105-.215.175-.447.233-.685a.64.64 0 0 1 .122-.244c.15-.191.319-.284.522-.29z"/><path fill="#84584d" d="M19.123 9.433c-.128.14-.244.232-.343.29c-.075.006-.116-.04-.105-.15a.4.4 0 0 1 .047-.146c.25-.447.133-.934.03-1.416a.16.16 0 0 1 .046-.157a.07.07 0 0 1 .06-.017a.07.07 0 0 1 .05.04c.046.116.127.22.157.349c.052.238.07.481.057.72a.8.8 0 0 1-.069.232c-.058.15-.04.232.07.255"/><path fill="#050404" d="M17.828 9.41a.26.26 0 0 1 .064.157c0 .058-.03.1-.087.105a.24.24 0 0 1-.157-.058c-.232-.174-.424-.267-.575-.296a3.7 3.7 0 0 0-1.16-.023a.4.4 0 0 1-.309-.064a.08.08 0 0 1-.029-.105c.169-.32.987-.313 1.283-.261c.39.064.715.25.97.546m-7.63-.052c.477-.209 1.226.03 1.644.331q.095.069.023.163a.09.09 0 0 1-.081.029c-.523-.058-1.028-.279-1.568-.145c-.36.087-.592.534-.72.865a.12.12 0 0 1-.058.058a.14.14 0 0 1-.116.012c-.04-.018-.058-.053-.046-.1c.046-.18.029-.37.145-.533q.347-.488.772-.68z"/><path fill="#ccc4a7" d="M17.829 9.41c.104.012.133.116.087.296a.13.13 0 0 0 0 .081a.18.18 0 0 1-.012.146a.16.16 0 0 0-.012.087c.018.162.053.325.256.337c.023 0 .046.011.07.023c.133.08.174.232.127.377a.2.2 0 0 0 0 .145c.024.058.064.082.128.064a.116.116 0 0 0 .076-.133a1 1 0 0 1-.006-.383c.029-.198.04-.349.058-.535q.036.573-.03 1.144a10 10 0 0 1-.37 2.421a.7.7 0 0 1-.117.22l-.395.837a5.1 5.1 0 0 1-1.678 1.539c-.116.07-.255.092-.371.174a4 4 0 0 1-1.196.482a.07.07 0 0 0-.058.07l.029.388c-.012.186.023.354.26.32l.57.011l-.435.018a.17.17 0 0 0-.129.06a.17.17 0 0 0-.04.137q.044.314-.052.645a.55.55 0 0 1-.273.336a1.4 1.4 0 0 1-.546.18a4 4 0 0 1-1.057-.058q-.495-.08-.853-.534q.26.106.459.134c.087.011.15 0 .203-.035l.209-.157a.4.4 0 0 1 .128-.07c.058-.011.104-.035.15-.058a.2.2 0 0 0 .07-.046c.03-.035.058-.058.105-.058a.14.14 0 0 0 .088-.065a.13.13 0 0 0 .01-.11a.6.6 0 0 1 .012-.325a.57.57 0 0 0 .012-.307a.37.37 0 0 0-.151-.233a.2.2 0 0 1-.064-.075a.14.14 0 0 0-.116-.087a8.5 8.5 0 0 1-1.12-.186l-1.226-.412c-.418-.203-.824-.406-1.26-.557a52 52 0 0 1-3.21-1.26c-.221-.093-.407-.233-.604-.355a2.7 2.7 0 0 1-.68-.603a1.9 1.9 0 0 1-.406-.64a.18.18 0 0 1 .029-.173l.325-.407a1.1 1.1 0 0 1 .406-.156l.453-.122l1.818-.563l.255-.117c.116.093.134.204.058.32a.1.1 0 0 0 0 .093q.045.13.03.26q-.027.227-.192.314a.54.54 0 0 1-.326.064a2.4 2.4 0 0 0-.633.03l-.014.008a.03.03 0 0 0-.009.014c-.011.018-.029.03-.052.024q-.251-.052-.441.191a.076.076 0 0 0 .006.099c.116.116.238.134.389.081q.21-.078.412-.087a.6.6 0 0 0 .191-.052a.7.7 0 0 1 .192-.058a.12.12 0 0 0 .07-.035a.22.22 0 0 1 .145-.075c.046 0 .058.011.023.046a.27.27 0 0 1-.128.099l-.702.232a1.5 1.5 0 0 1-.418.064a.56.56 0 0 1-.372-.122a.2.2 0 0 0-.209-.04l-.07.023q-.12.036-.023.115l.174.134c.163.116.25.337.447.383c.093.018.151.099.239.14c.25.116.522.209.83.296q.088.026.18.023q.183.048.36.116c.186.075.464.058.482-.203a.2.2 0 0 0-.024-.093a.2.2 0 0 1-.023-.133v-.11a4 4 0 0 0-.127-.581a.42.42 0 0 1 0-.262q.058-.158.127-.29a.2.2 0 0 1 .22-.116c.18.04.367-.087.465.145a.7.7 0 0 0 .07.151l.023.064c.04.29.105.58.174.9l.105.313l.017.07c0 .157.018.308.035.464c.012.07.04.128.099.175c.128.087.255.174.383.25c.134.075.25.156.36.243l.453.372l.215.145a.16.16 0 0 0 .087.023c.064 0 .122.023.18.058q.027.025.064.023c.04 0 .063.024.081.058a.1.1 0 0 0 .058.059q.235.076.505.075q.027-.001.035.023l.018.018h.017q.141-.018.273 0c.029 0 .058 0 .087-.012c.122-.052.232-.116.366-.116h.33a.47.47 0 0 1 .28.052a.8.8 0 0 0 .429.058q.173-.025.354 0c.22.024.447 0 .668-.058a.85.85 0 0 0 .377-.209q.147-.148.302-.279a.12.12 0 0 0 .04-.092q.01-.324.088-.639c.04-.174-.07-.32-.215-.4a1.2 1.2 0 0 1-.232-.175a.1.1 0 0 1-.035-.07l-.012-.133v-.035c0-.023.012-.029.03-.006a.7.7 0 0 1 .127.192q.051.104.128.162q.078.054.174.1c.04.016.046.005.035-.03l-.053-.14q-.016-.06.03-.086c.139-.076.272-.117.36-.25a.12.12 0 0 1 .07-.052a1 1 0 0 1 .255-.018l.023.012l.006.023c0 .012 0 .023.012.04q.041.062.057-.017c0-.023.006-.046.03-.063a.78.78 0 0 1 .487-.186q.046.001.064-.041a.2.2 0 0 0 .023-.099c.145.07.233.058.273-.046c.035-.093-.046-.134-.232-.122c.116.006.174 0 .186-.018c.37-.548.58-1.19.603-1.852c.082.03.117 0 .117-.098v-.024a3.5 3.5 0 0 0-.43-.928a.13.13 0 0 1-.023-.076q0-.036.035-.046q.07-.027.029-.088l-.07-.121q.192.009.192-.198c.058.04.116.058.156.052q.087-.008.087-.104a.26.26 0 0 0-.058-.157z"/><path fill="#ccc4a7" d="M16.377 9.66q-.33.132-.61.377c-.063.058-.075.117-.022.169l.04.011l.04-.005l.407-.256c.047-.006.07 0 .076.03c-.732.527-.935 1.416-.703 2.252l-.023.029c-.03.04-.04.04-.03-.012l-.005-.029q-.018-.025-.029 0l-.017.07q-.017.05-.058.023l-.018-.029a.06.06 0 0 1-.03-.058a.15.15 0 0 0-.04-.11a.06.06 0 0 0-.058-.018a.64.64 0 0 1-.319 0a.12.12 0 0 0-.075.012l-.11.058c-.018.012-.035.006-.059-.006a.32.32 0 0 1-.087-.29l.116-.93c.018-.069.041-.167.082-.284a.8.8 0 0 1 .127-.255c.1-.116.163-.261.273-.366l.337-.32a.7.7 0 0 1 .232-.162c.082-.04.175-.064.267-.081q.098-.018.116.087q.01.035.047.047l.14.04z"/><path fill="#050404" d="m17.456 9.817l.07.116c.023.047.017.076-.029.093q-.035.01-.035.047c0 .023.006.052.023.075a3.5 3.5 0 0 1 .43.953c0 .098-.035.127-.116.098a.4.4 0 0 0-.093-.128c-.029-.023-.04-.017-.046.018l-.117.87c-.058.36-.232.732-.534 1.11c.186-.012.267.029.233.116c-.035.11-.128.122-.268.052a4.3 4.3 0 0 1-1.126-.546a.58.58 0 0 1-.244-.453c-.232-.836-.029-1.724.697-2.252c.216-.091.45-.13.685-.116v-.024q.009-.026-.017-.034a.97.97 0 0 0-.738.145l-.406.255a.06.06 0 0 1-.04.006a.07.07 0 0 1-.042-.012c-.052-.052-.04-.104.03-.168q.27-.245.61-.377c.4-.076.754-.03 1.073.156"/><path fill="#696868" d="M16.307 9.986c0-.03-.029-.035-.075-.03c.226-.144.47-.197.737-.144c.018 0 .023.017.023.035v.023h-.011a1.6 1.6 0 0 0-.674.116"/><path fill="#9b7266" d="M7.9 9.91q.119.402.493.447c-.162 0-.267.024-.308.192c-.064.279-.08.5-.33.714l-.256.116c-.058-.226-.232-.15-.383-.122q-.19.028-.058-.11c.081-.081.15-.162.203-.261q.156-.316.383-.517c.11-.099.145-.232.116-.418a.2.2 0 0 1 0-.081l.023-.023c.018-.012.035-.012.047.011c.017.035.04.058.07.058z"/><path fill="#e9e9e9" d="M16.238 10.671c.018.198.122.349.238.343s.204-.174.186-.372c-.012-.197-.116-.348-.232-.348c-.116.011-.203.18-.192.377"/><path fill="#050404" d="M12.109 10.629a2.65 2.65 0 0 0-1.986.447q-.07.052-.134-.011l-.017-.012a.04.04 0 0 1-.011-.05a.04.04 0 0 1 .011-.014a2.68 2.68 0 0 1 2.206-.563c.047.006.07.035.082.075l-.006.047q-.043.098-.145.081"/><path fill="#50556f" d="M17.312 12.093q-.017.05-.059.023l-.046-.023c-.046-.023-.058-.058-.046-.116c.168-.482.238-.987.22-1.516c0-.023.006-.028.03-.028h.028c.018 0 .024.011.024.023c.046.534 0 1.08-.151 1.637"/><path fill="#050404" d="M12.609 12.424c.017.557-.261 1.254-.796 1.51a2.1 2.1 0 0 1-1.016.214c-.133-.116-.186-.203-.168-.261a.4.4 0 0 1 .128-.035q.245.052.029-.07a1.93 1.93 0 0 1-1.028-1.626c0-.07-.029-.075-.064-.023q-.155.202-.215.465l-.017.035a.075.075 0 0 1-.14-.047c0-.76.436-1.08.988-1.498c.72-.534 1.73-.366 2.119.465c.122.25.14.58.18.87"/><path fill="#e9e9e9" d="m10.46 11.38l.39-.134q.132-.045.133.093v.116c0 .093-.04.145-.128.157c-.139.023-.278-.035-.406-.168q-.051-.043.012-.058z"/><path fill="#50556f" d="M15.906 11.42c.047.32.134.592.273.819q.218.365.523.261a.22.22 0 0 1 .267.116c.017.03.023.07.023.105q-.001.12-.116.215a.204.204 0 0 1-.244.023a8 8 0 0 0-.621-.348c-.29-.157-.25-.964-.215-1.19q.059-.35.11 0m-4.453 1.742a.3.3 0 0 1 .145-.052c.035 0 .058.017.058.052a.52.52 0 0 0 .174.366c.035.035.035.058 0 .093c-.162.145-.464.273-.667.127a1 1 0 0 0-.215-.116a1.27 1.27 0 0 1-.674-.638c-.145-.314-.32-.813-.244-1.162q.054-.225.117 0c.11.349.267.68.476.982q.252.373.766.371a.1.1 0 0 0 .064-.023"/><path fill="#e0c3b1" d="M14.64 11.885a.31.31 0 0 0 .093.29c.018.012.035.017.058 0l.105-.058a.12.12 0 0 1 .081-.006a.7.7 0 0 0 .308 0a.06.06 0 0 1 .064.018q.042.05.04.11c0 .023.006.04.03.058l.029.023q.034.028.052-.023l.017-.064q.01-.034.03 0v.023c0 .053.005.058.034.012l.023-.03c.018.204.093.35.244.454c.32.226.697.406 1.12.545q-.002.063-.023.1a.07.07 0 0 1-.063.04a.72.72 0 0 0-.488.186a.1.1 0 0 0-.035.064c0 .052-.023.058-.052.017a.1.1 0 0 1-.012-.04l-.006-.024a.04.04 0 0 0-.023-.012a1 1 0 0 0-.255.018a.12.12 0 0 0-.07.052c-.087.14-.22.174-.36.25q-.053.025-.029.087l.058.14c.006.034 0 .046-.035.028a1 1 0 0 1-.174-.099a.44.44 0 0 1-.133-.162a1 1 0 0 0-.128-.192c-.018-.023-.03-.017-.03.006v.03l-.028-.042a.12.12 0 0 0-.058-.046a.78.78 0 0 0-.645.035a.1.1 0 0 1-.075.006a.2.2 0 0 0-.122 0l-.645.214a2.7 2.7 0 0 0-.754.39c-.21.139-.436.232-.685.26c-.035 0-.064 0-.094-.01a.7.7 0 0 0-.26-.03a.24.24 0 0 1-.221-.081a.14.14 0 0 0-.076-.046a.44.44 0 0 1-.226-.117a.12.12 0 0 0-.087-.029c-.088.006-.192.041-.273 0c-.093-.04-.116-.07-.064-.081c.348.012.69-.058 1.016-.215c.534-.255.813-.952.795-1.51a1 1 0 0 0 .29-.214a.13.13 0 0 1 .076-.041q.15-.015.308-.058a.8.8 0 0 0 .232-.07a.74.74 0 0 1 .476-.023a.85.85 0 0 0 .383-.006h.11q.097-.001.157-.133z"/><path fill="#50556f" d="M12.324 12.97v.012a.02.02 0 0 1-.015.005a.02.02 0 0 1-.014-.005l-.012-.006a1 1 0 0 0-.15-.279a.13.13 0 0 1-.018-.127q.076-.236.093-.453c.005-.128.034-.128.075-.012q.139.366.04.871z"/><path fill="#d8d5b6" d="M16.969 12.383c.023.075.087.122.145.105c.052-.018.075-.093.046-.175c-.023-.07-.087-.116-.139-.098c-.058.017-.076.093-.052.168"/><path fill="#e9e9e9" d="M11.854 13.115c.011.122.064.221.122.215c.058 0 .104-.104.092-.232c-.011-.116-.063-.215-.121-.21c-.059.007-.105.111-.093.233z"/><path fill="#84584d" d="M18.084 13.702c.07.04.122.087.168.134a.33.33 0 0 1 .076.191c.023.262.081.476.186.639c.087.145.168.29.232.43l.244.505q.114.252.186.557c.058.267.145.534.243.807q.087.234.21.406c-.059.053-.024.1.092.134a.2.2 0 0 0 .151.006c.186-.058.273-.186.267-.372c0-.034.012-.07.04-.098a.06.06 0 0 1 .058-.012a.11.11 0 0 1 .077.058c.058.128.052.29-.058.395c-.146.145-.244.33-.494.29l-.488-.093a.55.55 0 0 1-.389-.29a4.8 4.8 0 0 1-.435-1.138c-.018-.093-.047-.174-.076-.267c-.064-.186-.15-.366-.156-.57a1.5 1.5 0 0 0-.053-.313c0-.029-.023-.035-.046-.017a.05.05 0 0 0-.023.04q-.008.419.116.82l.284.783q.167.458.407.883v.04c-.058.122-.198.175-.308.082a2.8 2.8 0 0 1-.47-.477a1.2 1.2 0 0 1-.145-.243c-.088-.204-.239-.349-.256-.581s0-.494.046-.755c.03-.197.047-.36.047-.5q.006-.26.017-.522a.1.1 0 0 1 .035-.04c.081-.076.116-.163.093-.273q-.007-.052-.058-.018l-.22.215l.406-.836z"/><path fill="#68473d" d="M5.555 14.043c.197.128.383.261.598.348c1.056.459 2.13.877 3.216 1.266c.436.151.842.348 1.26.558c.035.174.046.348.018.522c-.041.261-.372.325-.575.389c-.325.105-.598.302-.94.406c-.036-.156-.14-.25-.326-.29c-.128-.023-.267-.116-.406-.267a4 4 0 0 1-.256-.29a.9.9 0 0 0-.296-.244a1.5 1.5 0 0 1-.517-.488a.13.13 0 0 1-.023-.07a.12.12 0 0 0-.029-.075l-.163-.186a.12.12 0 0 1-.029-.075c0-.105-.023-.232-.104-.308a3 3 0 0 1-.197-.203a.6.6 0 0 0-.198-.145l-.488-.215a2.4 2.4 0 0 1-.737-.494q-.053-.059 0-.11a.08.08 0 0 1 .07-.017c.046 0 .087 0 .122-.012"/><path fill="#764d40" d="M19.629 17.372c.301.157.371-.169.447-.355a.15.15 0 0 1 .084-.083a.14.14 0 0 1 .119.008a.25.25 0 0 1 .14.261c-.076.767-.779.755-1.336.535a.09.09 0 0 0-.093.005c-.163.116-.238.273-.476.227a1.56 1.56 0 0 0-.802.058c-.377.133-.673-.047-1.021-.087l-.86-.325l-.586-.093l-.57-.012l.216-.075c.029-.006.04-.03.035-.058l-.03-.198a.09.09 0 0 0-.063-.07a.7.7 0 0 1-.296-.186q-.116-.11-.117.047v.22l-.029-.388a.07.07 0 0 1 .058-.07c.422-.094.824-.26 1.19-.488c.117-.075.256-.098.372-.168a5.1 5.1 0 0 0 1.678-1.539l.22-.215q.044-.034.053.018a.27.27 0 0 1-.093.273a.13.13 0 0 0-.046.093v.464c0 .145-.024.308-.058.5c-.04.267-.058.522-.04.766c.016.22.173.371.255.575q.068.148.145.244q.156.216.47.476c.11.093.256.04.302-.081a.1.1 0 0 0 0-.082a6 6 0 0 1-.406-.842l-.273-.784a2.4 2.4 0 0 1-.116-.818c0-.018 0-.03.017-.04q.034-.027.052.016q.035.158.047.314c.005.203.093.383.156.57q.047.128.076.266c.087.36.232.743.435 1.138a.56.56 0 0 0 .39.29l.487.093c.25.041.348-.145.5-.29c.104-.099.116-.267.052-.395a.1.1 0 0 0-.032-.037a.1.1 0 0 0-.044-.02a.1.1 0 0 0-.03-.003a.1.1 0 0 0-.028.014a.13.13 0 0 0-.04.098q.01.277-.268.372a.23.23 0 0 1-.15 0q-.174-.06-.094-.14"/><path fill="#9b7266" d="M14.989 14.834h-.877a.05.05 0 0 0-.033.014a.05.05 0 0 0-.014.032c0 .024.018.047.047.047h.877a.046.046 0 0 0 .046-.047a.046.046 0 0 0-.046-.046"/><path fill="#84584d" d="M6.53 17.935c0 .017-.012.023-.024.029H6.49a1 1 0 0 0-.36.017q-.298.062-.598.116a.97.97 0 0 1-.627-.081c-.145-.058-.267-.058-.418-.058c-.169 0-.174-.041-.035-.128a.2.2 0 0 1 .058-.017a.11.11 0 0 0 .099-.082l.052-.232a.035.035 0 0 1 .042-.026a.03.03 0 0 1 .016.009l.267.325q.015.015.035.017q.011.001.022-.002l.019-.01l.017-.017q.018-.01 0-.029c-.14-.174-.313-.32-.406-.54a3.2 3.2 0 0 1-.256-1.167q-.009-.139.087-.035c.14.151.273.29.372.476q.348.698.87 1.376q.008.01.018.018a.06.06 0 0 0 .07-.006l.017-.012l.012-.01l.006-.013a.03.03 0 0 0-.012-.029a5 5 0 0 1-.313-.493a1.33 1.33 0 0 1-.163-.715c0-.08.058-.11.168-.075a.19.19 0 0 1 .128.14l.099.412c.104.371.638.43.79.79v.017c0 .023-.006.035-.03.035z"/><path fill="#b2a98b" d="M11.854 16.627q.462.116 1.115.186q.088.009.116.087a.2.2 0 0 0 .07.081a.38.38 0 0 1 .15.232a.6.6 0 0 1-.011.302a.6.6 0 0 0-.012.325a.13.13 0 0 1-.052.145a.1.1 0 0 1-.046.024a.18.18 0 0 0-.105.064a.2.2 0 0 1-.07.052l-.15.058a.4.4 0 0 0-.128.064c-.064.058-.134.104-.21.157c-.052.034-.115.046-.202.034a2 2 0 0 1-.465-.133a1.34 1.34 0 0 1-.337-.726a.7.7 0 0 0 .262-.087q.033-.016.058.012v.023a.1.1 0 0 0 .029.116c.052.058.11.064.174.03l.238-.146q.033-.018.058.017l.011.024q.034.06.059 0l.127-.297c.018-.046 0-.058-.046-.04q-.08.033-.064.128c.006.04-.011.058-.046.063c-.122.024-.215-.023-.28-.133a.46.46 0 0 0 .129-.215a.1.1 0 0 0-.012-.07a.1.1 0 0 0-.023-.023a.075.075 0 0 1-.03-.081a.13.13 0 0 1 .076-.099c.047-.023.047-.04-.011-.058a.06.06 0 0 0-.047.018c-.116.11-.29.371-.191.54l.093.15a.05.05 0 0 1 .005.043a.05.05 0 0 1-.029.033a.1.1 0 0 1-.029 0h-.081c-.046 0-.07-.03-.07-.076z"/><path fill="#68473d" d="M12.098 17.283a.13.13 0 0 1-.117.018c-.092-.169.076-.43.198-.54l.022-.011l.024-.001c.059.012.059.029.012.058a.12.12 0 0 0-.075.093c0 .035 0 .058.028.081c.012 0 .018.012.024.023q.018.036.011.07a.46.46 0 0 1-.127.215z"/><path fill="#050404" d="M14.67 17.51c-.233.035-.268-.133-.25-.319v-.22c0-.105.04-.117.115-.047a.7.7 0 0 0 .297.186c.034.011.058.035.058.07l.04.197c0 .029-.011.052-.04.058l-.215.075z"/><path fill="#e9e9e9" d="M11.518 17.574q.08.453.342.731c.232.302.522.482.854.54a4.5 4.5 0 0 0 1.056.053q.26-.027.546-.175a.55.55 0 0 0 .273-.342q.094-.332.058-.645a.17.17 0 0 1 .04-.136a.18.18 0 0 1 .128-.061l.43-.018l.58.093l.146 3.385h-5.522a5.5 5.5 0 0 0 .052-1.707a5.6 5.6 0 0 0-.127-.813a21 21 0 0 0-.204-.8a2.57 2.57 0 0 1 1.348-.1z"/><path fill="#ccc4a7" d="m15.83 17.615l.86.325q.617.534.86 1.336q.245.832.464 1.672a.06.06 0 0 1-.02.034a.06.06 0 0 1-.038.012L15.97 21z"/><path fill="#696868" d="M12.312 17.679c0-.058.017-.064.058-.035l.21.15l.005.004l.005.006l.002.007l-.001.007l-.007.009l-.01.003l-.163.012a.06.06 0 0 1-.038-.008a.06.06 0 0 1-.026-.027a.3.3 0 0 1-.035-.128"/><path fill="#ccc4a7" d="M10.17 17.679q.114.417.203.8c.058.262.104.535.128.814c.07.568.05 1.144-.059 1.707H8.26c-.04 0-.058-.023-.052-.058c.151-.796.267-1.516.616-2.294c.139-.308.43-.61.725-.72q.472-.163.622-.25"/><path fill="#696868" d="M15.042 18.08c-.163-.006-.232-.082-.192-.221q.02-.069.047 0c.023.035.058.052.098.04q.07-.013.087.059l.012.07q.009.059-.052.058z"/><path fill="#050404" d="M11.204 18.196q-.044.008-.035.034c-.075-.046-.11-.139-.07-.22a.03.03 0 0 0 0-.03q-.042-.058.03-.057l.284-.018q.059-.001.058.058l-.023.058q-.033.063-.11.047c-.105-.012-.145.029-.134.127"/><path fill="#696868" d="M11.169 18.23c0-.017.006-.028.035-.028c0 .017 0 .029.017.035c.012.011.03.011.04-.006l.024-.047q.025-.035.058-.017a.12.12 0 0 0 .14-.012q.042-.025.058.018c.017.04.011.075 0 .116c-.018.017-.03.017-.053.011q-.155-.077-.232.117a.03.03 0 0 0-.005.017q0 .01.005.017a.035.035 0 0 0 .04.012l.094-.03a.07.07 0 0 1 .081.018l.395.366c.035.03.029.058-.018.058a.2.2 0 0 0-.116.087a.06.06 0 0 1-.052.024a.06.06 0 0 1-.046-.023l-.024-.041q-.035-.069.04-.058q.019.007.018-.012q.01-.054-.04-.029c-.047.03-.082.017-.105-.03c-.006-.016-.023-.028-.046-.022a.16.16 0 0 1-.105-.018c-.04-.017-.04-.04 0-.058l.116-.058c.03-.011.041-.035.018-.07c-.018-.029-.047-.04-.093-.046a.08.08 0 0 0-.058.023l-.018.018q-.043.043-.087 0a.32.32 0 0 1-.081-.331m3.693-.052a.03.03 0 0 1 .016-.018l.012-.002q.007 0 .012.003l.1.03a.13.13 0 0 1 .074.075c.012.017.012.035.018.058c0 .017 0 .034-.012.058a.16.16 0 0 1-.075.093a.14.14 0 0 1-.105.011l-.104-.035l-.011-.006l-.007-.01l-.003-.012l.003-.012z"/><path fill="#e9e9e9" d="M14.908 18.376a.04.04 0 0 1-.018-.018v-.029c.018-.035.046-.046.093-.04l.018.01l.011.019a.04.04 0 0 1 0 .04c-.03.035-.058.04-.104.018"/><path fill="#696868" d="M14.728 18.537c.04.079.105.142.185.18c.024.012.03.035.024.058l-.012.023l-.004.01l-.008.008h-.023c-.157-.058-.22-.151-.203-.273q0-.006.006-.011l.011-.007h.012zm-.064.488a.16.16 0 0 0-.076-.087a.07.07 0 0 0-.084.015a.1.1 0 0 0-.015.025q-.027.089.058.134c.018.011.03.029.018.058l-.012.017c-.011.023-.023.03-.052.012a.6.6 0 0 1-.14-.128c-.023-.023-.017-.052.012-.07a.32.32 0 0 0 .14-.226q.001-.042.046-.058a.06.06 0 0 1 .058.023a.07.07 0 0 1 .023.053c0 .07.041.116.11.133a.05.05 0 0 1 .03.047v.017a.1.1 0 0 1-.035.052a.06.06 0 0 1-.081-.023zm-2.73-.116a.1.1 0 0 1 .094-.024l.075.024l.012.005l.003.01v.01l-.006.01l-.009.005a.27.27 0 0 0-.157.14a.07.07 0 0 1-.03.033q-.022.011-.045.007h-.018q-.033-.025-.023-.058a.4.4 0 0 1 .105-.162m.239.046c.011-.035.046-.046.093-.035a.06.06 0 0 1 .046.053a.06.06 0 0 1-.029.058a.23.23 0 0 0-.104.174q0 .024-.018.04a.06.06 0 0 1-.04.018a.2.2 0 0 1-.093-.018a.05.05 0 0 1-.023-.024a.05.05 0 0 1 0-.034l.011-.023a.6.6 0 0 0 .157-.209m1.8.105l-.024.011a.04.04 0 0 0-.022.021a.04.04 0 0 0 0 .031l.11.256c.005.023.029.029.052.023l.023-.011a.04.04 0 0 0 .023-.053l-.11-.255a.04.04 0 0 0-.052-.023m.325.133l.046.087c.012.047 0 .064-.058.052c-.081-.029-.127-.08-.133-.174q-.002-.051.058-.075l.058-.012q.068-.026.04.052l-.017.024a.04.04 0 0 0-.005.024a.04.04 0 0 0 .01.022m-1.835-.029c-.075.04-.087.116-.116.192a.06.06 0 0 1-.052.04l-.03-.005q-.026-.025-.017-.058a.7.7 0 0 1 .134-.221a.07.07 0 0 1 .064-.03c.005 0 .017 0 .023.012q.045.036-.006.07m1.3.11a.18.18 0 0 0-.01-.116c-.018-.046-.007-.064.04-.064q.033 0 .058.035a.05.05 0 0 1 .023.047a.3.3 0 0 0 .064.186q.036.051-.023.075a.16.16 0 0 1-.117 0a.1.1 0 0 0-.046 0l-.174.058a.06.06 0 0 1-.064-.029a.1.1 0 0 1 0-.029l.035-.128a.09.09 0 0 1 .052-.064c.052-.023.093-.006.116.035c.024.035.04.03.047 0zm-.493.163a.18.18 0 0 1 .11-.093q.046-.017.064.03l.035.069c.018.023.012.046-.017.058a.5.5 0 0 1-.395.058a.174.174 0 0 1-.116-.25c.087-.162.238-.215.464-.145q.123.034 0 .07a.4.4 0 0 0-.174.087q-.024.027-.058-.006a.1.1 0 0 1 0-.029c-.011-.047-.035-.058-.064-.017a.1.1 0 0 0-.017.023a.05.05 0 0 0 0 .04q.03.068.087.117a.06.06 0 0 0 .058 0zm-.795-.076a.13.13 0 0 0 .058-.139a.03.03 0 0 1 0-.019a.03.03 0 0 1 .011-.016l.018-.011h.017l.145.04q.046.017.03.058l-.059.18a.1.1 0 0 1-.046.052a.1.1 0 0 1-.07 0l-.093-.04c-.07-.029-.07-.058-.011-.105"/></g></svg>