<svg version="1.1" viewBox="0 0 672.35 172.3" xmlns="http://www.w3.org/2000/svg">
 <g id="b" transform="translate(-462.07,-59)" fill="#1a1a18" data-name="Layer 1">
  <polygon class="c" points="462.07 167.86 528.01 167.86 528.01 150.13 483.84 150.13 483.84 60.56 462.07 60.56"/>
  <polygon class="c" points="660.94 60.56 660.94 167.86 682.71 167.86 682.71 66.78 715.83 167.86 757.98 167.86 757.98 60.56 736.21 60.56 736.21 161.64 703.08 60.56"/>
  <path class="c" d="m613.52 60.56h-38.19l-34.52 107.31h21.77l8.37-26.28h46.97l8.37 26.28h21.77l-34.52-107.31zm-36.82 62.98 17.73-55.21 17.73 55.21z"/>
  <path class="c" d="m843.49 145.47c-4.67 4.15-10.52 6.22-17.57 6.22-9.33 0-16.8-3.32-22.39-9.95-5.6-6.63-8.4-15.81-8.4-27.53s2.69-20.89 8.09-27.53c5.39-6.63 12.6-9.95 21.62-9.95 7.46 0 13.45 2.02 17.96 6.07 4.51 4.04 7.33 9.95 8.48 17.73h22.55c-0.73-6.32-2.57-12.05-5.52-17.18s-6.64-9.49-11.04-13.06c-4.41-3.58-9.46-6.35-15.16-8.32s-11.66-2.95-17.88-2.95c-7.57 0-14.52 1.45-20.84 4.35s-11.74 6.82-16.25 11.74c-4.51 4.93-8.04 10.76-10.57 17.5-2.54 6.74-3.81 13.95-3.81 21.62s1.27 14.88 3.81 21.62 6.09 12.57 10.65 17.5 10.03 8.84 16.41 11.74 13.35 4.35 20.92 4.35c6.22 0 12.18-0.96 17.88-2.88s10.78-4.67 15.24-8.24c4.46-3.58 8.16-7.93 11.12-13.06 2.95-5.13 4.79-10.86 5.52-17.18h-22.55c-0.83 7.47-3.58 13.27-8.24 17.42z"/>
  <path class="c" d="m985.27 92.59c-2.54-6.74-6.07-12.57-10.57-17.5-4.51-4.92-9.93-8.84-16.25-11.74s-13.32-4.35-21-4.35-14.67 1.45-20.99 4.35-11.74 6.82-16.25 11.74c-4.51 4.93-8.04 10.76-10.57 17.5-2.54 6.74-3.81 13.95-3.81 21.62s1.27 14.88 3.81 21.62 6.06 12.57 10.57 17.5 9.93 8.84 16.25 11.74 13.32 4.35 20.99 4.35 14.67-1.45 21-4.35c6.32-2.9 11.74-6.82 16.25-11.74s8.03-10.75 10.57-17.5c2.54-6.74 3.81-13.94 3.81-21.62s-1.27-14.88-3.81-21.62zm-26.9 49.14c-5.55 6.64-12.52 9.95-20.92 9.95s-15.37-3.32-20.92-9.95-8.32-15.81-8.32-27.53 2.77-20.89 8.32-27.53c5.54-6.63 12.52-9.95 20.92-9.95s15.37 3.32 20.92 9.95c5.54 6.64 8.32 15.81 8.32 27.53s-2.78 20.89-8.32 27.53z"/>
  <polygon class="c" points="1088.8 167.86 1111.7 66.78 1111.7 167.86 1133.5 167.86 1133.5 60.56 1091.6 60.56 1068.8 161.64 1045.9 60.56 1004.1 60.56 1004.1 167.86 1025.9 167.86 1025.9 66.78 1048.7 167.86"/>
  <path class="c" d="m906.05 208.3-5.03-0.89c-3.98-0.69-7.52-2.18-7.52-6.39s3.48-6.5 8.9-6.5 9.13 2.27 9.4 7.47h5.36c-0.33-8.3-7.02-12.17-14.77-12.17s-14.21 3.84-14.21 11.26 5.7 10.07 11.01 11.01l5.03 0.88c4.18 0.75 8.02 2.21 8.02 6.58s-3.37 7.05-9.24 7.05-10.29-2.65-10.67-9.13h-5.36c0.28 9.57 7.8 13.83 16.04 13.83s14.55-4.29 14.55-11.81-5.67-10.18-11.5-11.2z"/>
  <path class="c" d="m972.61 208.3-5.03-0.89c-3.98-0.69-7.52-2.18-7.52-6.39s3.48-6.5 8.9-6.5 9.13 2.27 9.4 7.47h5.36c-0.33-8.3-7.02-12.17-14.77-12.17s-14.21 3.84-14.21 11.26 5.7 10.07 11.01 11.01l5.03 0.88c4.18 0.75 8.02 2.21 8.02 6.58s-3.37 7.05-9.24 7.05-10.29-2.65-10.67-9.13h-5.36c0.28 9.57 7.8 13.83 16.04 13.83s14.55-4.29 14.55-11.81-5.67-10.18-11.5-11.2z"/>
  <polygon class="c" points="1000.1 230.48 1005.4 230.48 1005.4 195.42 1018.1 195.42 1018.1 190.66 987.35 190.66 987.35 195.42 1000.1 195.42"/>
  <polygon class="c" points="1047.7 207.36 1029.8 207.36 1029.8 195.42 1049.7 195.42 1049.7 190.66 1024.4 190.66 1024.4 230.48 1050 230.48 1050 225.73 1029.8 225.73 1029.8 212.12 1047.7 212.12"/>
  <polygon class="c" points="1056 190.66 1056 230.48 1061.3 230.48 1061.3 194.31 1073 230.48 1081.4 230.48 1093.1 194.31 1093.1 230.48 1098.3 230.48 1098.3 190.66 1088.9 190.66 1077.2 226.8 1065.5 190.66"/>
  <path class="c" d="m1122.9 208.3-5.03-0.89c-3.98-0.69-7.52-2.18-7.52-6.39s3.48-6.5 8.9-6.5 9.13 2.27 9.4 7.47h5.36c-0.33-8.3-7.02-12.17-14.77-12.17s-14.21 3.84-14.21 11.26 5.7 10.07 11.01 11.01l5.03 0.88c4.18 0.75 8.02 2.21 8.02 6.58s-3.37 7.05-9.24 7.05-10.29-2.65-10.67-9.13h-5.36c0.28 9.57 7.8 13.83 16.04 13.83s14.55-4.29 14.55-11.81-5.67-10.18-11.5-11.2z"/>
  <polygon class="c" points="918.09 190.66 932.96 212.87 932.96 230.48 938.26 230.48 938.26 212.87 953.13 190.66 947.12 190.66 935.61 207.84 924.1 190.66"/>
 </g>
</svg>
