<svg id="svg" version="1.1" width="400" height="400" viewBox="0 0 400 400" xmlns="http://www.w3.org/2000/svg" xmlns:xlink="http://www.w3.org/1999/xlink"><g id="svgg"><path id="path0" d="M194.453 93.365 C 192.894 95.216,191.068 97.331,190.395 98.065 C 187.770 100.927,181.207 109.308,180.218 111.061 C 179.865 111.687,179.226 112.740,178.799 113.400 C 178.372 114.060,177.652 115.230,177.200 116.000 C 176.748 116.770,176.068 117.882,175.689 118.471 C 174.398 120.478,170.800 126.793,170.800 127.051 C 170.800 127.193,169.616 129.759,168.170 132.754 C 164.299 140.768,164.492 140.295,162.600 146.400 C 161.618 149.570,160.746 152.162,160.180 153.600 C 159.877 154.370,159.518 155.900,159.383 157.000 C 159.248 158.100,158.893 159.900,158.595 161.000 C 157.913 163.518,157.263 167.962,156.619 174.509 C 156.342 177.318,156.045 179.688,155.958 179.774 C 155.871 179.860,155.159 180.441,154.374 181.065 C 153.019 182.145,152.002 183.241,147.400 188.588 C 144.448 192.018,143.914 192.845,140.351 199.524 C 139.727 200.693,139.081 201.863,138.914 202.124 C 138.381 202.961,136.804 206.982,136.802 207.508 C 136.801 207.787,136.350 209.303,135.800 210.877 C 135.250 212.451,134.800 214.101,134.800 214.543 C 134.800 216.327,133.175 218.733,131.078 220.054 C 122.264 225.605,107.129 241.023,101.412 250.277 C 100.758 251.335,100.078 252.380,99.901 252.600 C 99.724 252.820,99.005 253.900,98.304 255.000 C 97.603 256.100,96.913 257.090,96.771 257.200 C 96.628 257.310,96.172 258.010,95.756 258.756 C 92.388 264.799,91.560 266.326,91.179 267.199 C 90.940 267.749,90.508 268.469,90.219 268.799 C 89.931 269.130,89.561 269.850,89.398 270.400 C 89.235 270.950,88.912 271.637,88.680 271.926 C 88.206 272.518,83.335 284.342,82.800 286.200 C 82.610 286.860,82.180 288.120,81.845 289.000 C 81.509 289.880,81.227 290.965,81.218 291.411 C 81.208 291.857,80.953 292.577,80.651 293.011 C 80.349 293.445,79.921 294.610,79.700 295.600 C 79.479 296.590,79.173 297.697,79.021 298.061 C 78.680 298.877,81.982 300.228,85.266 300.616 C 86.440 300.754,88.300 301.113,89.400 301.414 C 91.537 301.998,99.489 303.088,105.400 303.608 C 115.953 304.537,135.975 303.506,143.800 301.632 C 145.560 301.210,148.080 300.689,149.400 300.474 C 152.404 299.985,156.562 298.809,160.200 297.420 C 161.740 296.831,163.705 296.174,164.567 295.958 C 165.429 295.742,166.599 295.325,167.167 295.030 C 170.786 293.152,172.900 292.350,174.254 292.340 C 175.995 292.328,179.551 293.068,180.184 293.574 C 180.413 293.757,181.559 294.109,182.731 294.356 C 183.903 294.603,185.163 294.966,185.532 295.164 C 188.045 296.509,211.629 296.461,214.173 295.106 C 214.598 294.879,215.858 294.457,216.973 294.167 C 222.723 292.672,223.857 292.344,224.495 291.988 C 225.617 291.361,226.512 291.527,229.027 292.826 C 231.837 294.277,233.876 295.076,236.600 295.792 C 237.700 296.081,239.269 296.606,240.087 296.959 C 240.905 297.311,241.895 297.606,242.287 297.614 C 242.679 297.621,243.720 297.975,244.600 298.400 C 245.480 298.825,246.740 299.183,247.400 299.196 C 248.060 299.209,249.320 299.401,250.200 299.624 C 252.694 300.254,260.643 301.635,264.400 302.091 C 266.270 302.318,274.010 302.523,281.600 302.548 C 295.936 302.594,297.151 302.495,308.200 300.381 C 309.300 300.171,311.640 299.727,313.400 299.394 C 316.756 298.761,320.373 297.709,320.926 297.205 C 321.268 296.894,320.306 293.311,319.421 291.600 C 319.136 291.050,318.775 289.889,318.619 289.020 C 318.462 288.152,318.079 287.077,317.767 286.631 C 317.455 286.186,317.194 285.457,317.187 285.011 C 317.181 284.565,316.732 283.300,316.191 282.200 C 315.650 281.100,315.206 279.990,315.204 279.732 C 315.202 279.475,314.939 278.755,314.620 278.132 C 314.300 277.510,313.648 276.100,313.170 275.000 C 312.048 272.420,310.168 268.632,309.001 266.600 C 308.496 265.720,307.515 263.911,306.822 262.581 C 306.129 261.251,304.763 258.911,303.785 257.381 C 301.449 253.726,301.147 253.278,300.189 252.044 C 299.743 251.470,298.843 250.190,298.189 249.200 C 296.682 246.919,296.775 247.046,294.538 244.200 C 292.123 241.127,283.374 231.369,282.438 230.706 C 282.046 230.428,280.302 228.913,278.563 227.340 C 275.692 224.745,272.354 222.039,270.741 221.000 C 269.617 220.276,267.014 218.441,266.246 217.831 C 265.831 217.502,265.258 216.370,264.972 215.316 C 264.687 214.262,264.268 212.860,264.043 212.200 C 263.190 209.706,262.341 206.945,261.956 205.416 C 261.737 204.544,261.406 203.644,261.219 203.416 C 261.033 203.187,260.137 201.560,259.227 199.800 C 256.618 194.753,255.352 192.605,254.340 191.511 C 253.823 190.952,251.960 188.704,250.200 186.515 C 248.440 184.326,245.707 181.491,244.127 180.215 C 240.686 177.437,240.718 177.515,239.595 169.215 C 239.106 165.594,238.482 161.994,238.209 161.215 C 237.937 160.437,237.590 158.900,237.438 157.800 C 237.115 155.466,235.807 150.725,235.010 149.000 C 234.705 148.340,234.338 147.350,234.196 146.800 C 233.957 145.880,233.263 143.939,231.691 139.800 C 230.951 137.849,223.844 123.471,222.794 121.800 C 222.379 121.140,221.301 119.340,220.397 117.800 C 217.044 112.086,214.181 107.919,211.052 104.200 C 210.496 103.540,209.124 101.873,208.003 100.496 C 205.322 97.203,198.261 90.000,197.715 90.000 C 197.479 90.000,196.011 91.514,194.453 93.365 M198.481 110.034 C 200.058 110.779,206.858 120.165,211.169 127.546 C 213.449 131.451,219.600 143.669,219.600 144.294 C 219.600 144.574,219.960 145.475,220.400 146.296 C 220.840 147.116,221.200 148.034,221.200 148.334 C 221.200 148.634,221.469 149.446,221.797 150.140 C 222.440 151.496,223.342 154.474,224.179 158.000 C 224.466 159.210,225.005 161.231,225.377 162.492 C 226.719 167.047,225.886 168.290,222.363 166.988 C 221.393 166.629,219.707 166.155,218.615 165.935 C 217.524 165.714,216.157 165.288,215.579 164.989 C 215.000 164.690,213.103 164.334,211.363 164.199 C 209.623 164.064,206.355 163.683,204.100 163.352 C 200.446 162.816,199.554 162.817,195.900 163.356 C 193.645 163.689,190.180 164.079,188.200 164.223 C 186.220 164.367,184.240 164.678,183.800 164.914 C 183.360 165.151,182.100 165.573,181.000 165.852 C 177.797 166.666,175.125 167.589,173.331 168.501 C 170.584 169.898,169.875 168.068,171.277 163.200 C 171.499 162.430,172.008 160.450,172.410 158.800 C 174.169 151.564,176.138 146.052,179.563 138.768 C 180.243 137.321,180.800 135.948,180.800 135.717 C 180.800 135.487,181.052 135.089,181.361 134.833 C 181.669 134.577,182.025 133.955,182.152 133.450 C 182.363 132.608,183.130 131.180,185.473 127.261 C 185.954 126.457,186.704 125.170,187.140 124.400 C 189.209 120.748,196.900 109.754,197.481 109.619 C 197.526 109.609,197.976 109.795,198.481 110.034 M207.254 176.774 C 210.474 177.191,213.624 177.792,214.254 178.110 C 214.884 178.427,216.045 178.786,216.833 178.908 C 218.404 179.149,224.751 182.062,226.500 183.344 C 227.755 184.264,228.026 188.151,227.173 193.000 C 226.941 194.320,226.530 196.750,226.260 198.400 L 225.769 201.400 223.385 201.529 C 221.994 201.605,219.750 201.355,218.000 200.929 C 214.142 199.991,186.025 199.820,183.600 200.719 C 182.830 201.005,180.398 201.399,178.195 201.596 C 175.992 201.792,173.907 202.061,173.561 202.194 C 172.077 202.763,171.219 201.195,170.608 196.800 C 170.287 194.490,169.811 191.201,169.550 189.492 C 168.970 185.691,169.166 185.406,174.359 182.493 C 178.566 180.133,180.417 179.336,182.951 178.793 C 184.024 178.562,185.277 178.173,185.736 177.927 C 188.632 176.377,199.641 175.787,207.254 176.774 M243.176 198.300 C 244.123 199.345,245.223 200.920,245.622 201.800 C 246.021 202.680,246.891 204.324,247.555 205.452 C 248.219 206.581,248.650 207.616,248.514 207.752 C 248.072 208.195,245.952 208.014,244.660 207.423 C 243.967 207.106,242.668 206.658,241.774 206.428 C 238.791 205.659,238.390 204.805,239.032 200.600 C 239.335 198.620,239.587 196.865,239.591 196.700 C 239.620 195.701,241.639 196.602,243.176 198.300 M158.409 201.800 C 159.568 206.421,159.473 206.534,152.889 208.391 L 150.378 209.099 150.637 208.249 C 151.319 206.013,153.883 201.373,155.725 199.044 L 156.956 197.488 157.431 198.644 C 157.693 199.280,158.132 200.700,158.409 201.800 M211.800 213.634 C 213.340 213.859,216.040 214.201,217.800 214.396 C 219.560 214.590,221.045 214.761,221.100 214.775 C 221.513 214.879,221.045 217.652,220.362 219.156 C 219.901 220.170,219.205 221.720,218.816 222.600 C 217.712 225.098,212.442 235.633,211.472 237.282 C 210.992 238.097,209.932 239.915,209.115 241.321 C 208.298 242.727,207.353 244.107,207.015 244.388 C 206.677 244.668,206.400 245.063,206.400 245.265 C 206.400 245.683,205.358 247.209,202.897 250.395 C 200.393 253.636,200.430 253.600,199.629 253.600 C 198.889 253.600,198.434 253.104,195.040 248.600 C 194.045 247.280,192.991 245.930,192.697 245.600 C 192.114 244.947,190.978 243.222,190.012 241.525 C 189.675 240.934,188.680 239.261,187.800 237.807 C 186.920 236.353,185.808 234.497,185.328 233.682 C 184.462 232.209,180.699 224.747,180.243 223.600 C 180.112 223.270,179.833 222.730,179.623 222.400 C 178.623 220.832,177.147 216.792,177.266 215.952 C 177.423 214.847,178.916 214.470,183.400 214.406 C 184.940 214.383,187.280 214.121,188.600 213.824 C 191.533 213.162,207.655 213.030,211.800 213.634 M243.044 220.462 C 243.948 220.868,244.938 221.201,245.244 221.203 C 245.550 221.204,246.340 221.563,247.000 222.000 C 247.660 222.437,248.470 222.808,248.800 222.824 C 250.523 222.908,252.996 225.441,253.300 227.434 C 253.824 230.866,252.376 242.505,251.029 245.687 C 250.683 246.505,250.400 247.497,250.400 247.891 C 250.400 248.549,248.662 252.170,245.761 257.556 C 244.306 260.257,237.939 267.720,235.121 270.027 C 233.954 270.982,232.716 272.042,232.370 272.382 C 228.972 275.717,225.923 276.920,224.084 275.654 C 223.488 275.244,222.010 274.272,220.800 273.495 C 218.850 272.242,216.395 270.449,214.885 269.175 C 214.602 268.936,213.297 267.848,211.985 266.756 C 209.039 264.304,209.039 264.315,212.125 260.512 C 215.090 256.858,219.600 250.354,219.600 249.731 C 219.600 249.493,219.889 249.058,220.242 248.765 C 220.595 248.473,221.054 247.865,221.262 247.416 C 221.471 246.967,222.078 245.880,222.613 245.000 C 223.147 244.120,223.806 242.950,224.076 242.400 C 224.347 241.850,224.890 240.971,225.284 240.446 C 225.678 239.921,226.000 239.184,226.000 238.808 C 226.000 238.432,226.360 237.798,226.800 237.400 C 227.240 237.002,227.600 236.282,227.600 235.800 C 227.600 235.318,227.960 234.598,228.400 234.200 C 228.840 233.802,229.200 233.225,229.200 232.917 C 229.200 232.610,229.560 231.648,230.000 230.779 C 232.043 226.747,232.318 226.112,232.596 224.800 C 232.759 224.030,233.097 223.148,233.346 222.841 C 233.596 222.533,233.980 221.547,234.200 220.650 C 234.915 217.733,236.871 217.692,243.044 220.462 M162.794 219.597 C 163.202 219.815,163.742 220.670,163.994 221.497 C 164.734 223.928,165.569 225.892,168.204 231.400 C 172.013 239.364,172.774 240.854,174.031 242.800 C 174.670 243.790,175.393 245.095,175.636 245.700 C 175.879 246.305,176.207 246.800,176.365 246.800 C 176.523 246.800,176.963 247.385,177.342 248.100 C 179.043 251.301,182.249 255.970,184.891 259.091 C 189.746 264.826,189.904 265.282,187.707 267.230 C 184.052 270.472,178.376 274.800,177.779 274.800 C 177.640 274.800,177.069 275.160,176.509 275.600 C 174.477 277.199,171.452 276.285,167.800 272.970 C 166.920 272.171,165.580 271.041,164.821 270.459 C 162.743 268.863,161.125 267.235,159.197 264.800 C 158.239 263.590,156.876 261.970,156.168 261.200 C 154.623 259.518,149.807 250.669,149.398 248.758 C 149.238 248.011,148.969 247.220,148.801 247.000 C 148.632 246.780,148.291 245.641,148.044 244.469 C 147.797 243.297,147.422 242.015,147.211 241.620 C 146.466 240.228,145.878 228.374,146.469 226.655 C 147.080 224.878,150.713 222.730,156.400 220.783 C 157.170 220.520,158.430 220.064,159.200 219.770 C 160.904 219.119,161.819 219.075,162.794 219.597 M133.603 238.400 C 133.621 239.390,133.797 240.920,133.996 241.800 C 135.162 246.976,135.503 248.280,135.878 249.000 C 136.107 249.440,136.415 250.467,136.562 251.283 C 136.815 252.683,137.967 255.748,138.827 257.309 C 139.042 257.698,140.139 259.768,141.265 261.909 C 143.997 267.103,151.306 276.176,155.481 279.555 C 159.857 283.098,160.165 283.791,157.704 284.568 C 156.657 284.899,154.900 285.458,153.800 285.810 C 148.812 287.406,143.934 288.462,138.000 289.231 C 136.350 289.444,133.650 289.802,132.000 290.025 C 119.293 291.741,102.128 291.322,96.491 289.158 C 95.505 288.779,95.549 287.671,96.632 285.600 C 96.919 285.050,97.637 283.430,98.226 282.000 C 99.484 278.949,102.848 272.089,104.208 269.800 C 104.731 268.920,105.352 267.840,105.587 267.400 C 105.823 266.960,106.549 265.790,107.200 264.800 C 107.851 263.810,108.573 262.569,108.804 262.042 C 109.035 261.516,109.762 260.406,110.419 259.577 C 111.076 258.747,112.195 257.255,112.907 256.262 C 118.446 248.525,123.480 242.868,129.887 237.181 C 132.949 234.462,133.538 234.655,133.603 238.400 M269.975 236.702 C 276.357 242.273,289.451 257.680,291.212 261.689 C 291.432 262.190,292.406 263.860,293.378 265.400 C 296.446 270.262,299.945 277.118,303.213 284.670 C 304.393 287.397,304.215 287.682,300.747 288.611 C 296.549 289.735,266.510 289.811,261.400 288.711 C 259.640 288.332,257.210 287.844,256.000 287.628 C 254.790 287.412,252.450 286.843,250.800 286.364 C 249.150 285.886,246.450 285.142,244.800 284.711 C 242.173 284.026,240.800 283.232,240.800 282.398 C 240.800 282.260,242.105 281.096,243.700 279.811 C 245.295 278.526,247.724 276.108,249.099 274.437 C 250.473 272.767,252.248 270.680,253.042 269.800 C 254.831 267.819,256.177 265.765,257.891 262.400 C 258.619 260.970,259.721 258.900,260.338 257.800 C 260.956 256.700,261.876 254.450,262.382 252.800 C 262.889 251.150,263.730 248.493,264.252 246.896 C 264.773 245.300,265.200 243.288,265.200 242.427 C 265.200 241.566,265.397 239.902,265.637 238.731 C 265.877 237.559,266.151 236.195,266.245 235.700 C 266.506 234.320,267.576 234.608,269.975 236.702 M204.238 277.276 C 205.578 278.444,207.425 280.019,208.342 280.775 C 209.259 281.532,209.872 282.273,209.705 282.422 C 208.504 283.490,191.419 283.506,190.295 282.440 C 190.128 282.281,190.751 281.532,191.680 280.775 C 192.610 280.019,194.341 278.500,195.527 277.400 C 199.279 273.922,200.370 273.906,204.238 277.276 " stroke="none" fill="#f10404" fill-rule="evenodd"></path><path id="path1" d="M0.000 200.000 L 0.000 400.000 200.000 400.000 L 400.000 400.000 400.000 200.000 L 400.000 0.000 200.000 0.000 L 0.000 0.000 0.000 200.000 M202.054 93.996 C 204.204 96.193,206.881 99.118,208.003 100.496 C 209.124 101.873,210.496 103.540,211.052 104.200 C 214.181 107.919,217.044 112.086,220.397 117.800 C 221.301 119.340,222.379 121.140,222.794 121.800 C 223.844 123.471,230.951 137.849,231.691 139.800 C 233.263 143.939,233.957 145.880,234.196 146.800 C 234.338 147.350,234.705 148.340,235.010 149.000 C 235.807 150.725,237.115 155.466,237.438 157.800 C 237.590 158.900,237.937 160.437,238.209 161.215 C 238.482 161.994,239.106 165.594,239.595 169.215 C 240.718 177.515,240.686 177.437,244.127 180.215 C 245.707 181.491,248.440 184.326,250.200 186.515 C 251.960 188.704,253.823 190.952,254.340 191.511 C 255.352 192.605,256.618 194.753,259.227 199.800 C 260.137 201.560,261.033 203.187,261.219 203.416 C 261.406 203.644,261.737 204.544,261.956 205.416 C 262.341 206.945,263.190 209.706,264.043 212.200 C 264.268 212.860,264.687 214.262,264.972 215.316 C 265.258 216.370,265.831 217.502,266.246 217.831 C 267.014 218.441,269.617 220.276,270.741 221.000 C 272.354 222.039,275.692 224.745,278.563 227.340 C 280.302 228.913,282.046 230.428,282.438 230.706 C 283.374 231.369,292.123 241.127,294.538 244.200 C 296.775 247.046,296.682 246.919,298.189 249.200 C 298.843 250.190,299.743 251.470,300.189 252.044 C 301.147 253.278,301.449 253.726,303.785 257.381 C 304.763 258.911,306.129 261.251,306.822 262.581 C 307.515 263.911,308.496 265.720,309.001 266.600 C 310.168 268.632,312.048 272.420,313.170 275.000 C 313.648 276.100,314.300 277.510,314.620 278.132 C 314.939 278.755,315.202 279.475,315.204 279.732 C 315.206 279.990,315.650 281.100,316.191 282.200 C 316.732 283.300,317.181 284.565,317.187 285.011 C 317.194 285.457,317.455 286.186,317.767 286.631 C 318.079 287.077,318.462 288.152,318.619 289.020 C 318.775 289.889,319.136 291.050,319.421 291.600 C 320.306 293.311,321.268 296.894,320.926 297.205 C 320.373 297.709,316.756 298.761,313.400 299.394 C 311.640 299.727,309.300 300.171,308.200 300.381 C 297.151 302.495,295.936 302.594,281.600 302.548 C 274.010 302.523,266.270 302.318,264.400 302.091 C 260.643 301.635,252.694 300.254,250.200 299.624 C 249.320 299.401,248.060 299.209,247.400 299.196 C 246.740 299.183,245.480 298.825,244.600 298.400 C 243.720 297.975,242.679 297.621,242.287 297.614 C 241.895 297.606,240.905 297.311,240.087 296.959 C 239.269 296.606,237.700 296.081,236.600 295.792 C 233.876 295.076,231.837 294.277,229.027 292.826 C 226.512 291.527,225.617 291.361,224.495 291.988 C 223.857 292.344,222.723 292.672,216.973 294.167 C 215.858 294.457,214.598 294.879,214.173 295.106 C 211.629 296.461,188.045 296.509,185.532 295.164 C 185.163 294.966,183.903 294.603,182.731 294.356 C 181.559 294.109,180.413 293.757,180.184 293.574 C 179.551 293.068,175.995 292.328,174.254 292.340 C 172.900 292.350,170.786 293.152,167.167 295.030 C 166.599 295.325,165.429 295.742,164.567 295.958 C 163.705 296.174,161.740 296.831,160.200 297.420 C 156.562 298.809,152.404 299.985,149.400 300.474 C 148.080 300.689,145.560 301.210,143.800 301.632 C 135.975 303.506,115.953 304.537,105.400 303.608 C 99.489 303.088,91.537 301.998,89.400 301.414 C 88.300 301.113,86.440 300.754,85.266 300.616 C 81.982 300.228,78.680 298.877,79.021 298.061 C 79.173 297.697,79.479 296.590,79.700 295.600 C 79.921 294.610,80.349 293.445,80.651 293.011 C 80.953 292.577,81.208 291.857,81.218 291.411 C 81.227 290.965,81.509 289.880,81.845 289.000 C 82.180 288.120,82.610 286.860,82.800 286.200 C 83.335 284.342,88.206 272.518,88.680 271.926 C 88.912 271.637,89.235 270.950,89.398 270.400 C 89.561 269.850,89.931 269.130,90.219 268.799 C 90.508 268.469,90.940 267.749,91.179 267.199 C 91.560 266.326,92.388 264.799,95.756 258.756 C 96.172 258.010,96.628 257.310,96.771 257.200 C 96.913 257.090,97.603 256.100,98.304 255.000 C 99.005 253.900,99.724 252.820,99.901 252.600 C 100.078 252.380,100.758 251.335,101.412 250.277 C 107.129 241.023,122.264 225.605,131.078 220.054 C 133.175 218.733,134.800 216.327,134.800 214.543 C 134.800 214.101,135.250 212.451,135.800 210.877 C 136.350 209.303,136.801 207.787,136.802 207.508 C 136.804 206.982,138.381 202.961,138.914 202.124 C 139.081 201.863,139.727 200.693,140.351 199.524 C 143.914 192.845,144.448 192.018,147.400 188.588 C 152.002 183.241,153.019 182.145,154.374 181.065 C 155.159 180.441,155.871 179.860,155.958 179.774 C 156.045 179.688,156.342 177.318,156.619 174.509 C 157.263 167.962,157.913 163.518,158.595 161.000 C 158.893 159.900,159.248 158.100,159.383 157.000 C 159.518 155.900,159.877 154.370,160.180 153.600 C 160.746 152.162,161.618 149.570,162.600 146.400 C 164.492 140.295,164.299 140.768,168.170 132.754 C 169.616 129.759,170.800 127.193,170.800 127.051 C 170.800 126.793,174.398 120.478,175.689 118.471 C 176.068 117.882,176.748 116.770,177.200 116.000 C 177.652 115.230,178.372 114.060,178.799 113.400 C 179.226 112.740,179.865 111.687,180.218 111.061 C 181.207 109.308,187.770 100.927,190.395 98.065 C 191.068 97.331,192.894 95.216,194.453 93.365 C 197.926 89.240,197.354 89.193,202.054 93.996 M195.663 111.809 C 193.877 114.042,188.550 121.911,187.140 124.400 C 186.704 125.170,185.954 126.457,185.473 127.261 C 183.130 131.180,182.363 132.608,182.152 133.450 C 182.025 133.955,181.669 134.577,181.361 134.833 C 181.052 135.089,180.800 135.487,180.800 135.717 C 180.800 135.948,180.243 137.321,179.563 138.768 C 176.138 146.052,174.169 151.564,172.410 158.800 C 172.008 160.450,171.499 162.430,171.277 163.200 C 169.875 168.068,170.584 169.898,173.331 168.501 C 175.125 167.589,177.797 166.666,181.000 165.852 C 182.100 165.573,183.360 165.151,183.800 164.914 C 184.240 164.678,186.220 164.367,188.200 164.223 C 190.180 164.079,193.645 163.689,195.900 163.356 C 199.554 162.817,200.446 162.816,204.100 163.352 C 206.355 163.683,209.623 164.064,211.363 164.199 C 213.103 164.334,215.000 164.690,215.579 164.989 C 216.157 165.288,217.524 165.714,218.615 165.935 C 219.707 166.155,221.393 166.629,222.363 166.988 C 225.886 168.290,226.719 167.047,225.377 162.492 C 225.005 161.231,224.466 159.210,224.179 158.000 C 223.342 154.474,222.440 151.496,221.797 150.140 C 221.469 149.446,221.200 148.634,221.200 148.334 C 221.200 148.034,220.840 147.116,220.400 146.296 C 219.960 145.475,219.600 144.574,219.600 144.294 C 219.600 143.669,213.449 131.451,211.169 127.546 C 206.858 120.165,200.058 110.779,198.481 110.034 C 197.341 109.495,197.690 109.275,195.663 111.809 M191.785 176.787 C 188.916 177.169,186.194 177.682,185.736 177.927 C 185.277 178.173,184.024 178.562,182.951 178.793 C 180.417 179.336,178.566 180.133,174.359 182.493 C 169.166 185.406,168.970 185.691,169.550 189.492 C 169.811 191.201,170.287 194.490,170.608 196.800 C 171.219 201.195,172.077 202.763,173.561 202.194 C 173.907 202.061,175.992 201.792,178.195 201.596 C 180.398 201.399,182.830 201.005,183.600 200.719 C 186.025 199.820,214.142 199.991,218.000 200.929 C 219.750 201.355,221.994 201.605,223.385 201.529 L 225.769 201.400 226.260 198.400 C 226.530 196.750,226.941 194.320,227.173 193.000 C 228.026 188.151,227.755 184.264,226.500 183.344 C 224.751 182.062,218.404 179.149,216.833 178.908 C 216.045 178.786,214.884 178.427,214.254 178.110 C 210.901 176.420,199.566 175.753,191.785 176.787 M239.591 196.700 C 239.587 196.865,239.335 198.620,239.032 200.600 C 238.390 204.805,238.791 205.659,241.774 206.428 C 242.668 206.658,243.967 207.106,244.660 207.423 C 245.952 208.014,248.072 208.195,248.514 207.752 C 248.650 207.616,248.219 206.581,247.555 205.452 C 246.891 204.324,246.021 202.680,245.622 201.800 C 244.182 198.624,239.646 194.788,239.591 196.700 M155.725 199.044 C 153.883 201.373,151.319 206.013,150.637 208.249 L 150.378 209.099 152.889 208.391 C 157.746 207.021,159.315 206.138,159.100 204.895 C 158.778 203.033,157.930 199.857,157.431 198.644 L 156.956 197.488 155.725 199.044 M188.600 213.824 C 187.280 214.121,184.940 214.383,183.400 214.406 C 178.916 214.470,177.423 214.847,177.266 215.952 C 177.147 216.792,178.623 220.832,179.623 222.400 C 179.833 222.730,180.112 223.270,180.243 223.600 C 180.699 224.747,184.462 232.209,185.328 233.682 C 185.808 234.497,186.920 236.353,187.800 237.807 C 188.680 239.261,189.675 240.934,190.012 241.525 C 190.978 243.222,192.114 244.947,192.697 245.600 C 192.991 245.930,194.045 247.280,195.040 248.600 C 198.434 253.104,198.889 253.600,199.629 253.600 C 200.430 253.600,200.393 253.636,202.897 250.395 C 205.358 247.209,206.400 245.683,206.400 245.265 C 206.400 245.063,206.677 244.668,207.015 244.388 C 207.353 244.107,208.298 242.727,209.115 241.321 C 209.932 239.915,210.992 238.097,211.472 237.282 C 212.442 235.633,217.712 225.098,218.816 222.600 C 219.205 221.720,219.901 220.170,220.362 219.156 C 221.045 217.652,221.513 214.879,221.100 214.775 C 221.045 214.761,219.560 214.590,217.800 214.396 C 216.040 214.201,213.340 213.859,211.800 213.634 C 207.655 213.030,191.533 213.162,188.600 213.824 M235.542 218.551 C 234.926 218.857,234.461 219.583,234.200 220.650 C 233.980 221.547,233.596 222.533,233.346 222.841 C 233.097 223.148,232.759 224.030,232.596 224.800 C 232.318 226.112,232.043 226.747,230.000 230.779 C 229.560 231.648,229.200 232.610,229.200 232.917 C 229.200 233.225,228.840 233.802,228.400 234.200 C 227.960 234.598,227.600 235.318,227.600 235.800 C 227.600 236.282,227.240 237.002,226.800 237.400 C 226.360 237.798,226.000 238.432,226.000 238.808 C 226.000 239.184,225.678 239.921,225.284 240.446 C 224.890 240.971,224.347 241.850,224.076 242.400 C 223.806 242.950,223.147 244.120,222.613 245.000 C 222.078 245.880,221.471 246.967,221.262 247.416 C 221.054 247.865,220.595 248.473,220.242 248.765 C 219.889 249.058,219.600 249.493,219.600 249.731 C 219.600 250.354,215.090 256.858,212.125 260.512 C 209.039 264.315,209.039 264.304,211.985 266.756 C 213.297 267.848,214.602 268.936,214.885 269.175 C 216.395 270.449,218.850 272.242,220.800 273.495 C 222.010 274.272,223.488 275.244,224.084 275.654 C 225.923 276.920,228.972 275.717,232.370 272.382 C 232.716 272.042,233.954 270.982,235.121 270.027 C 237.939 267.720,244.306 260.257,245.761 257.556 C 248.662 252.170,250.400 248.549,250.400 247.891 C 250.400 247.497,250.683 246.505,251.029 245.687 C 252.376 242.505,253.824 230.866,253.300 227.434 C 252.996 225.441,250.523 222.908,248.800 222.824 C 248.470 222.808,247.660 222.437,247.000 222.000 C 246.340 221.563,245.550 221.204,245.244 221.203 C 244.938 221.201,243.948 220.868,243.044 220.462 C 239.226 218.749,236.529 218.062,235.542 218.551 M159.200 219.770 C 158.430 220.064,157.170 220.520,156.400 220.783 C 150.713 222.730,147.080 224.878,146.469 226.655 C 145.878 228.374,146.466 240.228,147.211 241.620 C 147.422 242.015,147.797 243.297,148.044 244.469 C 148.291 245.641,148.632 246.780,148.801 247.000 C 148.969 247.220,149.238 248.011,149.398 248.758 C 149.807 250.669,154.623 259.518,156.168 261.200 C 156.876 261.970,158.239 263.590,159.197 264.800 C 161.125 267.235,162.743 268.863,164.821 270.459 C 165.580 271.041,166.920 272.171,167.800 272.970 C 171.452 276.285,174.477 277.199,176.509 275.600 C 177.069 275.160,177.640 274.800,177.779 274.800 C 178.376 274.800,184.052 270.472,187.707 267.230 C 189.904 265.282,189.746 264.826,184.891 259.091 C 182.249 255.970,179.043 251.301,177.342 248.100 C 176.963 247.385,176.523 246.800,176.365 246.800 C 176.207 246.800,175.879 246.305,175.636 245.700 C 175.393 245.095,174.670 243.790,174.031 242.800 C 172.774 240.854,172.013 239.364,168.204 231.400 C 165.569 225.892,164.734 223.928,163.994 221.497 C 163.302 219.224,161.926 218.729,159.200 219.770 M129.887 237.181 C 123.480 242.868,118.446 248.525,112.907 256.262 C 112.195 257.255,111.076 258.747,110.419 259.577 C 109.762 260.406,109.035 261.516,108.804 262.042 C 108.573 262.569,107.851 263.810,107.200 264.800 C 106.549 265.790,105.823 266.960,105.587 267.400 C 105.352 267.840,104.731 268.920,104.208 269.800 C 102.848 272.089,99.484 278.949,98.226 282.000 C 97.637 283.430,96.919 285.050,96.632 285.600 C 95.549 287.671,95.505 288.779,96.491 289.158 C 102.128 291.322,119.293 291.741,132.000 290.025 C 133.650 289.802,136.350 289.444,138.000 289.231 C 143.934 288.462,148.812 287.406,153.800 285.810 C 154.900 285.458,156.657 284.899,157.704 284.568 C 160.165 283.791,159.857 283.098,155.481 279.555 C 151.306 276.176,143.997 267.103,141.265 261.909 C 140.139 259.768,139.042 257.698,138.827 257.309 C 137.967 255.748,136.815 252.683,136.562 251.283 C 136.415 250.467,136.107 249.440,135.878 249.000 C 135.503 248.280,135.162 246.976,133.996 241.800 C 133.797 240.920,133.621 239.390,133.603 238.400 C 133.538 234.655,132.949 234.462,129.887 237.181 M266.245 235.700 C 266.151 236.195,265.877 237.559,265.637 238.731 C 265.397 239.902,265.200 241.566,265.200 242.427 C 265.200 243.288,264.773 245.300,264.252 246.896 C 263.730 248.493,262.889 251.150,262.382 252.800 C 261.876 254.450,260.956 256.700,260.338 257.800 C 259.721 258.900,258.619 260.970,257.891 262.400 C 256.177 265.765,254.831 267.819,253.042 269.800 C 252.248 270.680,250.473 272.767,249.099 274.437 C 247.724 276.108,245.295 278.526,243.700 279.811 C 242.105 281.096,240.800 282.260,240.800 282.398 C 240.800 283.232,242.173 284.026,244.800 284.711 C 246.450 285.142,249.150 285.886,250.800 286.364 C 252.450 286.843,254.790 287.412,256.000 287.628 C 257.210 287.844,259.640 288.332,261.400 288.711 C 269.923 290.546,303.076 289.431,303.901 287.281 C 304.353 286.103,297.662 272.189,293.378 265.400 C 292.406 263.860,291.432 262.190,291.212 261.689 C 290.430 259.910,282.258 249.338,278.658 245.449 C 269.615 235.681,266.685 233.379,266.245 235.700 M199.142 274.965 C 198.341 275.204,196.714 276.300,195.527 277.400 C 194.341 278.500,192.610 280.019,191.680 280.775 C 190.751 281.532,190.128 282.281,190.295 282.440 C 191.419 283.506,208.504 283.490,209.705 282.422 C 209.872 282.273,209.259 281.532,208.342 280.775 C 207.425 280.019,205.578 278.444,204.238 277.276 C 201.107 274.548,200.883 274.447,199.142 274.965 " stroke="none" fill="#2c242c" fill-rule="evenodd"></path></g></svg>