<svg xmlns="http://www.w3.org/2000/svg" viewBox="0 0 24 24"><g fill="none"><path fill="url(#SVGSYRHrbNT)" fill-rule="evenodd" d="M6.68 6C5.585 6 4.84 7.16 4.84 8.16c0 .26.05.5.11.685C4.1 10.94 3 13.375 3 15.67C3 16.72 3.57 18 4.785 18c1.7 0 3.35-2.29 4.235-3.5c.965.2 2 .515 2.98.5c.985.015 2.015-.3 2.98-.5c.845 1.15 2.525 3.5 4.235 3.5C20.43 18 21 16.72 21 15.67c0-2.3-1.1-4.73-1.95-6.825c.06-.19.11-.425.11-.685c0-1-.75-2.16-1.84-2.16c-.645 0-1.025.175-1.525.41l-.17.075C14.465 6.3 13.25 6 12 6s-2.465.3-3.625.485l-.17-.075c-.5-.235-.88-.41-1.525-.41M12 7.5c-1.25 0-2.415.11-3.565.36a.65.65 0 0 1-.4-.04l-.465-.2c-.445-.205-.55-.255-.89-.255c-.32 0-.5.55-.5.8a.8.8 0 0 0 .07.33c.11.185.125.415.04.615c-.85 2.065-1.79 4.29-1.79 6.56c0 .25.075.83.45.83c1.21-.02 2.67-2.4 3.25-3.22a.65.65 0 0 1 .695-.265c.89.215 2.32.47 3.105.485c.785-.015 2.215-.27 3.105-.485c.265-.065.54.04.7.265c.73 1.05 1.735 3.19 3.25 3.22c.37 0 .445-.575.445-.83c0-2.27-.94-4.5-1.79-6.56a.68.68 0 0 1 .04-.615a.8.8 0 0 0 .075-.335c0-.245-.185-.795-.5-.795c-.345 0-.45.05-.9.25l-.455.205a.65.65 0 0 1-.4.04A16.7 16.7 0 0 0 12 7.5" clip-rule="evenodd"/><path fill="#9410ed" d="M9 9.5a.5.5 0 0 0-1 0v2a.5.5 0 1 0 1 0z"/><path fill="#9410ed" d="M9.5 10.999a.5.5 0 1 0 0-1h-2a.5.5 0 0 0 0 1z"/><path fill="#7024e7" d="M15.25 11.5a1.25 1.25 0 1 0 0-2.5a1.25 1.25 0 0 0 0 2.5"/><defs><linearGradient id="SVGSYRHrbNT" x1="12" x2="12" y1="6" y2="18" gradientUnits="userSpaceOnUse"><stop stop-color="#b202fb"/><stop offset="1" stop-color="#3741d7"/></linearGradient></defs></g></svg>