<svg xmlns="http://www.w3.org/2000/svg" viewBox="0 0 24 24"><g fill="none"><path fill="url(#SVGo8l5GuLk)" d="M15.524 16.897L7.402 8.671l.9-1.602l7.888 8.105z"/><path fill="url(#SVGGnRBHdaI)" d="M7.95 7.05c.122 0 .239.004.36.013l-.707 1.805a3.15 3.15 0 1 0 3.488 3.375l.054-.135V12a4.927 4.927 0 1 1 4.374 4.896l.67-1.72l-.044-.026a3.15 3.15 0 1 0-3.24-3.303l-.005.018V12a4.95 4.95 0 1 1-4.95-4.95"/><defs><linearGradient id="SVGo8l5GuLk" x1="5.701" x2="11.456" y1="8.683" y2="20.326" gradientUnits="userSpaceOnUse"><stop offset=".18" stop-color="#faa31c"/><stop offset=".49" stop-color="#312d2e"/><stop offset=".89" stop-color="#fe4c38"/></linearGradient><linearGradient id="SVGGnRBHdaI" x1="3.927" x2="20.217" y1="13.678" y2="11.973" gradientUnits="userSpaceOnUse"><stop offset=".12" stop-color="#f9c213"/><stop offset=".79" stop-color="#ff443b"/></linearGradient></defs></g></svg>