<svg xmlns="http://www.w3.org/2000/svg" viewBox="0 0 24 24"><path fill="#4dd9f6" fill-rule="evenodd" d="M13.466 3s0 4.346 2.16 6.974c2.16 2.633 2.546 4.345 2.546 5.554c0 1.214-.993 5.472-5.74 5.472S5.83 16.613 5.83 13.774c0-2.838 2.2-8.352 7.637-10.774m-.941 2s.396 3.503 2.33 5.653c1.938 2.144 2.288 3.682 2.288 4.716c0 1.038-.17 3.23-3.6 4.628c0 0 .771-1.167.771-2.803c0-.828-.514-1.8-1.105-2.92c-.792-1.508-1.723-3.277-1.723-5.298c0-2.751 1.039-3.975 1.039-3.975m-5.668 8.666c0-4.191 4.629-8.167 4.629-8.167s-1.029 1.77-1.029 4.002c0 1.81.967 3.687 1.774 5.245c.566 1.101 1.055 2.042 1.055 2.69c0 .864-.103 2.566-1.841 2.566c-1.734 0-4.588-2.15-4.588-6.336" clip-rule="evenodd"/></svg>