<svg xmlns="http://www.w3.org/2000/svg" viewBox="0 0 24 24"><g fill="none"><path fill="#ee7730" d="m20.86 10.51l-.723-.932l-4.123-2.651a5 5 0 0 0 .045.233a10 10 0 0 0 .203.758c.815 2.607 2.441 3.846 4.624 5.507a9 9 0 0 0 .027-2.678z"/><path fill="#f9d85e" d="M12.864 14.247C8.945 12.495 6.496 8.94 6.353 5.36a.18.18 0 0 0-.3-.127a9.005 9.005 0 0 0-.801 12.714a9.016 9.016 0 0 0 15.18-2.742a.18.18 0 0 0-.21-.24a11.34 11.34 0 0 1-7.358-.719m8.049-3.497q-.318-.735-8.864-3.817c-4.3-1.552-5.1-3.049-1.986-3.726q.228-.05.459-.087c4.92-.802 9.559 2.53 10.362 7.44z"/></g></svg>