<svg xmlns="http://www.w3.org/2000/svg" viewBox="0 0 24 24"><g fill="none"><path fill="#745ddf" d="M13.688 21C17.847 20.206 21 16.39 21 12s-3.153-8.046-7.312-8.84v2.384c.848.342 1.67 1.028 2.409 2.31c0 .077-1.496 1.1-2.203 1.58c-.874-2.111-2.23-2.133-2.794-1.373c-.807 1.088.603 1.81 2.218 2.413c1.827.68 3.208 2.288 3.182 4.339c-.025 2.004-1.457 3.054-2.812 3.571z"/><path fill="#2eb6ea" d="M10.875 3H3v9.162C3.081 16.69 6.47 20.47 10.875 21v-2.55c-1.525-.362-3.012-1.508-3.185-3.88l2.514-.73c-.016.782.321 2.345 1.797 2.335s1.796-1.074 1.772-1.604c.056-.348-.22-1.19-1.772-1.785c-1.94-.742-3.688-2.155-3.688-4.072c0-2.065 1.24-2.846 2.562-3.24z"/></g></svg>