<svg xmlns="http://www.w3.org/2000/svg" viewBox="0 0 24 24"><path fill="#ff7d34" d="m17.68 3.58l-.002-.053l-.083.053l-1.093.795q-1.989 1.45-3.984 2.893a.29.29 0 0 0-.135.266l.002 12.72v.106c.003.111.018.12.127.085l1.584-.514a.17.17 0 0 0 .122-.122l.288-1.006V18.8l.178-.618a688 688 0 0 1 1.054-3.674l.224-.787q.104-.376.212-.748l.209-.722v-.001l.181-.624l.209-.731a301 301 0 0 1 .484-1.688l.102-.352q.11-.37.214-.743a2 2 0 0 0 .106-.476q.008-1.515.005-3.03v-.955q0-.032-.004-.073m-6.06 10.351q-.003-3.203.002-6.404a.26.26 0 0 0-.123-.237l-1.861-1.35l-3.215-2.339a.4.4 0 0 0-.092-.035a.5.5 0 0 0-.017.091v3.993a.4.4 0 0 0 .012.113a746 746 0 0 0 .743 2.578v.001l.42 1.463a107 107 0 0 0 .377 1.315l.371 1.294l.165.579l.236.82L9 17.067l.128.447l.178.617l.165.572q.163.565.322 1.13a.14.14 0 0 0 .105.103q.314.101.627.204l.256.084l.716.233c.108.035.123.024.124-.088zm3.837 4.271l2.772-9.707l.045-.025a.4.4 0 0 0 .036.078l2.65 3.336a.15.15 0 0 1 .03.16q-.1.33-.19.662l-.087.307l-.14.491v.002l-.149.518l-.004.017q-.088.304-.168.609a.37.37 0 0 1-.15.224q-.631.455-1.26.914l-.515.376l-2.762 2.007l-.052.033l-.026.015zm-6.967.01l.034.02c.002-.117-2.718-9.673-2.787-9.73l-.088.106l-.47.592q-1.069 1.348-2.14 2.695a.14.14 0 0 0-.031.144q.15.517.298 1.037l.166.588l.297 1.05a.27.27 0 0 0 .09.132l1.8 1.313l2.767 2.012z"/></svg>