<svg xmlns="http://www.w3.org/2000/svg" viewBox="0 0 24 24"><g fill="none"><path fill="url(#SVGXcFPJbep)" d="m15.884 9.979l-3.134 3.145H4.812c-.574 0-.861-.658-.473-1.052l8.872-8.929a.495.495 0 0 1 .794.135l2.21 4.923a1.59 1.59 0 0 1-.33 1.778"/><path fill="url(#SVGZafFLr4k)" d="M3 13.686c.18.242.827.563 1.947.563h12.321c.714 0 1.361.416 1.643 1.069l2.042 4.827a.62.62 0 0 1-.574.855H7.523a2.03 2.03 0 0 1-1.856-1.204z"/><defs><linearGradient id="SVGXcFPJbep" x1="12" x2="12" y1="2.994" y2="21.001" gradientUnits="userSpaceOnUse"><stop stop-color="#5adcd3"/><stop offset="1" stop-color="#37c4b1"/></linearGradient><linearGradient id="SVGZafFLr4k" x1="18.838" x2="5.267" y1="15.025" y2="19.988" gradientUnits="userSpaceOnUse"><stop stop-color="#47d1c1"/><stop offset="1" stop-color="#21bfa1"/></linearGradient></defs></g></svg>