<svg version="1.1" viewBox="0 0 600 600" xmlns="http://www.w3.org/2000/svg">
 <rect width="600" height="600" rx="100" fill="#fff"/>
 <path d="m550 300.5c0 130.06-105.34 235.5-235.29 235.5s-264.71-214.35-264.71-344.41 134.76-126.58 264.71-126.58 235.29 105.44 235.29 235.5z" fill="#E8EFE9"/>
 <g fill="#9DC08B">
  <path d="m483 300c0 95.544-77.112 173-172.24 173s-193.76-157.46-193.76-253.01c0-95.543 98.642-92.985 193.76-92.985s172.24 77.453 172.24 173z"/>
  <path d="m483 300c0 95.544-77.112 173-172.24 173s-193.76-157.46-193.76-253.01c0-95.543 98.642-92.985 193.76-92.985s172.24 77.453 172.24 173z"/>
  <path d="m483 300c0 95.544-77.112 173-172.24 173s-193.76-157.46-193.76-253.01c0-95.543 98.642-92.985 193.76-92.985s172.24 77.453 172.24 173z"/>
 </g>
 <g fill="#609966">
  <path d="m413 300c0 58.541-47.616 106-106.35 106s-119.65-96.481-119.65-155.02 60.91-56.974 119.65-56.974 106.35 47.457 106.35 106z"/>
  <path d="m413 300c0 58.541-47.616 106-106.35 106s-119.65-96.481-119.65-155.02 60.91-56.974 119.65-56.974 106.35 47.457 106.35 106z"/>
  <path d="m413 300c0 58.541-47.616 106-106.35 106s-119.65-96.481-119.65-155.02 60.91-56.974 119.65-56.974 106.35 47.457 106.35 106z"/>
 </g>
</svg>
