<?xml version="1.0" encoding="UTF-8"?>
<svg width="960px" height="666px" viewBox="0 0 960 666" version="1.1" xmlns="http://www.w3.org/2000/svg" xmlns:xlink="http://www.w3.org/1999/xlink">
    <title>Artboard</title>
    <defs>
        <polygon id="path-1" points="0 -4.27635366e-14 83.9450999 -4.27635366e-14 83.9450999 117.515015 0 117.515015"></polygon>
    </defs>
    <g id="Artboard" stroke="none" stroke-width="1" fill="none" fill-rule="evenodd">
        <g id="Group-24" transform="translate(130.000000, 117.000000)">
            <g id="Group-7" transform="translate(196.877680, 0.000000)">
                <path d="M13.0238884,5.50888354 C0.529622081,13.0620166 0,28.1141169 0,28.1141169 L0,213.960311 L39.929292,184.984566 L39.929292,48.2608205 L239.653992,180.539954 L239.653992,131.7094 L52.4265676,6.73062538 C31.9548686,-6.84394966 13.0238884,5.50888354 13.0238884,5.50888354" id="Fill-1" fill="#3096FF"></path>
                <path d="M252.85753,9.205104 L167.633514,65.9318418 L203.717027,90.3335773 L266.272617,48.2647325 C266.272617,48.2647325 269.035078,8.8560349 252.85753,9.205104" id="Fill-3" fill="#0F9947"></path>
                <path d="M294.845427,5.50888354 C294.845427,5.50888354 285.095566,-2.02017582 271.689507,0.525621226 C271.475853,0.567750256 271.283263,0.612888501 271.057572,0.65501753 C270.648318,0.736266372 270.25712,0.823533647 269.850876,0.919828571 C268.95413,1.14251058 268.048356,1.41334006 267.127535,1.74736307 C264.626877,2.41540911 261.996821,3.60404957 259.670697,4.86190202 C255.74367,6.95631661 252.701352,9.19216437 252.701352,9.19216437 L252.812693,9.21021967 C269.032369,8.85513214 266.272918,48.2608205 266.272918,48.2608205 L266.272918,176.107378 L266.272918,193.846708 L306.223274,222.843517 L306.223274,205.089141 L306.223274,28.1141169 C306.223274,28.1141169 307.327657,13.0620166 294.845427,5.50888354" id="Fill-5" fill="#59BD69"></path>
            </g>
            <polygon id="Fill-8" fill="#FEFEFE" points="80.2588098 294.424349 48.7613421 336.472129 18.497653 294.424349 0 294.424349 0 394.405563 18.6300585 394.405563 18.6300585 324.961877 48.6168997 365.646482 79.301879 324.281794 79.301879 394.405563 97.9259191 394.405563 97.9259191 294.424349"></polygon>
            <g id="Group-18" transform="translate(106.292142, 283.054025)">
                <path d="M39.4327713,111.490865 C34.5909422,111.490865 29.8213342,110.5881 25.1269567,108.78257 C20.4265607,106.983059 16.1956025,104.356013 12.4491281,100.928515 C8.70566296,97.4949993 5.69644659,93.2971425 3.40944215,88.3229078 C1.13146536,83.3516824 2.13817683e-14,77.6943556 2.13817683e-14,71.3599552 C2.13817683e-14,64.932269 1.10137319,59.2358224 3.35226704,54.2615877 C5.5881148,49.2873531 8.54918371,45.0834778 12.2535291,41.6559804 C15.9488468,38.2194553 20.2008695,35.6074555 24.991542,33.7989164 C29.7912421,31.9963958 34.6872371,31.0906217 39.7036008,31.0906217 C45.0028308,31.0906217 49.8897982,32.0505617 54.3645029,33.9644233 C58.8392077,35.8752757 62.5345254,38.4902847 65.4594837,41.7974135 L65.4594837,31.2260364 L83.9541275,31.2260364 L83.9541275,111.352441 L65.4594837,111.352441 L65.4594837,99.965566 C62.5345254,103.543524 58.7910602,106.36316 54.2351066,108.412436 C49.6610978,110.461713 44.7289921,111.490865 39.4327713,111.490865 M42.4540245,94.5068475 C45.9176326,94.5068475 49.1164296,93.9110226 52.0443971,92.7103453 C54.9603278,91.5036495 57.467005,89.8365437 59.5734565,87.6879632 C61.6648619,85.5423919 63.3289585,83.0597884 64.5687557,80.231125 C65.811562,77.3964432 66.4134053,74.3541254 66.4134053,71.0951441 C66.4134053,67.9234301 65.811562,64.9232413 64.5687557,62.094578 C63.3289585,59.2568869 61.6648619,56.7923387 59.5734565,54.6949149 C57.467005,52.5944819 54.9603278,50.9394129 52.0443971,49.7417448 C49.1164296,48.5440766 45.9176326,47.9392241 42.4540245,47.9392241 C39.0746746,47.9392241 35.8969421,48.5440766 32.9268455,49.7417448 C29.9657766,50.9394129 27.3808598,52.5673989 25.1961687,54.6257029 C23.0024499,56.6870161 21.293215,59.1304998 20.0564271,61.9621724 C18.831676,64.793845 18.2087683,67.839172 18.2087683,71.0951441 C18.2087683,74.3541254 18.831676,77.4205169 20.0564271,80.2943186 C21.293215,83.165111 23.0024499,85.6537329 25.1961687,87.7511567 C27.3808598,89.854599 29.9657766,91.5036495 32.9268455,92.7103453 C35.8969421,93.9110226 39.0746746,94.5068475 42.4540245,94.5068475" id="Fill-9" fill="#FEFEFE"></path>
                <g id="Group-13" transform="translate(91.897556, 31.090020)">
                    <mask id="mask-2" fill="white">
                        <use xlink:href="#path-1"></use>
                    </mask>
                    <g id="Clip-12"></g>
                    <path d="M65.5948984,68.0775019 C62.6789678,71.9082344 58.9324934,74.9234692 54.3614937,77.1141787 C49.7995217,79.3078974 44.8222778,80.400243 39.4327713,80.400243 C34.587933,80.400243 29.8243434,79.4974781 25.1209383,77.6919482 C20.4205423,75.8924369 16.1956025,73.265391 12.4491281,69.8378935 C8.70265374,66.4073869 5.69343737,62.2065208 3.41245136,57.2322861 C1.13146536,52.2610607 0,46.6037339 0,40.2693335 C0,33.8446565 1.10137319,28.1452007 3.35527625,23.1739753 C5.5881148,18.1997406 8.55219292,13.9958653 12.2475106,10.5653587 C15.951856,7.1318428 20.1978603,4.51683377 24.991542,2.70829473 C29.7852236,0.905774127 34.6872371,-4.27635366e-14 39.70661,-4.27635366e-14 C44.9998216,-4.27635366e-14 49.886789,1.03817965 54.3614937,3.09949286 C58.8392077,5.15779686 62.5345254,7.94734043 65.4624929,11.4530775 L65.4624929,0.135414737 L83.9450999,0.135414737 L83.9450999,77.2195013 C83.9450999,82.8076161 83.057381,88.0376341 81.2849526,92.903537 C79.4944688,97.7724491 76.8704322,102.036509 73.4068241,105.689697 C69.9311792,109.336868 65.6219814,112.219697 60.4611753,114.344204 C55.3003692,116.456674 49.3421208,117.515918 42.5864301,117.515918 C37.383495,117.515918 32.6530068,116.941157 28.4220486,115.803674 C24.1730351,114.663181 20.3513303,113.065287 16.9749895,111.009992 C13.5956396,108.960716 10.6345707,106.535287 8.0707183,103.751762 C5.51589361,100.968237 3.32819331,97.8837901 1.49558054,94.5074493 L17.9379388,84.5138418 C20.8538694,89.8943206 24.1459522,93.9146337 27.7991408,96.5657533 C31.4493203,99.2078453 36.4686932,100.5319 42.863278,100.5319 C46.3329044,100.5319 49.4865632,99.8909374 52.3152266,98.6150297 C55.1348623,97.3361127 57.5422354,95.6479423 59.5012353,93.5475093 C61.4692628,91.4440671 62.9768802,88.9795188 64.0240875,86.1508555 C65.0682856,83.3221921 65.5948984,80.400243 65.5948984,77.3880174 L65.5948984,68.0775019 Z M42.4570338,63.419235 C45.9176326,63.419235 49.1194388,62.8204009 52.0413879,61.6197236 C54.9573186,60.4130278 57.467005,58.745922 59.5734565,56.5973415 C61.6678711,54.4547794 63.3319677,51.9721759 64.5687557,49.1405033 C65.8055436,46.3058215 66.4103961,43.266513 66.4103961,40.0075316 C66.4103961,36.8328084 65.8055436,33.8326196 64.5687557,31.0039563 C63.3319677,28.1692744 61.6678711,25.701717 59.5734565,23.6042932 C57.467005,21.5038602 54.9573186,19.8487912 52.0413879,18.6511231 C49.1194388,17.4534549 45.9176326,16.8486025 42.4570338,16.8486025 C39.0746746,16.8486025 35.8969421,17.4534549 32.9268455,18.6511231 C29.9627674,19.8487912 27.383869,21.4797864 25.1991779,23.5350812 C23.0084684,25.5994037 21.2871966,28.0428874 20.0594363,30.8715507 C18.831676,33.7032233 18.2117775,36.7485503 18.2117775,40.0075316 C18.2117775,43.266513 18.831676,46.3298952 20.0594363,49.2036969 C21.2871966,52.0774985 23.0084684,54.5631112 25.1991779,56.6635442 C27.383869,58.7639773 29.9627674,60.4130278 32.9268455,61.6197236 C35.8969421,62.8204009 39.0746746,63.419235 42.4570338,63.419235 L42.4570338,63.419235 Z" id="Fill-11" fill="#FEFEFE" mask="url(#mask-2)"></path>
                </g>
                <path d="M183.660299,11.6456674 C183.660299,8.17002244 184.707506,5.36543279 186.798912,3.21986152 C188.911382,1.07729946 191.743054,0 195.299948,0 C198.950127,0 201.802865,1.07729946 203.861169,3.21986152 C205.910445,5.36543279 206.942606,8.17002244 206.942606,11.6456674 C206.942606,15.1152938 205.910445,17.898819 203.861169,19.9932336 C201.802865,22.1026942 198.950127,23.1529108 195.299948,23.1529108 C191.550464,23.1529108 188.682681,22.1026942 186.672525,19.9932336 C184.65635,17.898819 183.660299,15.1152938 183.660299,11.6456674 L183.660299,11.6456674 Z M185.983414,111.353043 L204.616482,111.353043 L204.616482,31.2266383 L185.983414,31.2266383 L185.983414,111.353043 Z" id="Fill-14" fill="#FEFEFE"></path>
                <path d="M254.324222,111.490865 C248.486343,111.490865 243.024615,110.43463 237.954085,108.32216 C232.889574,106.20969 228.4901,103.347925 224.734598,99.7398747 C220.988123,96.1318243 218.054138,91.88582 215.914585,87.0018618 C213.756977,82.1148945 212.691714,76.9029317 212.691714,71.3599552 C212.691714,65.7267021 213.756977,60.4696011 215.914585,55.5796245 C218.054138,50.6926571 220.988123,46.4285975 224.734598,42.7754089 C228.4901,39.1252294 232.889574,36.2634646 237.954085,34.196133 C243.024615,32.1288013 248.486343,31.0906217 254.324222,31.0906217 C258.798927,31.0906217 263.020858,31.6984834 266.996033,32.9111976 C270.965189,34.1209026 274.594304,35.8060637 277.880368,37.9576534 C281.178469,40.1092432 284.040234,42.6670771 286.51381,45.6251368 C288.978358,48.5862057 290.988515,51.8632423 292.538261,55.4502282 L275.966507,61.9922646 C274.133894,57.881675 271.326295,54.5956108 267.540701,52.1521271 C263.746079,49.7086434 259.391743,48.4899107 254.468665,48.4899107 C251.077278,48.4899107 247.953711,49.091754 245.082919,50.2864129 C242.209117,51.4870902 239.690403,53.1090579 237.55386,55.1673619 C235.399261,57.2256659 233.735164,59.6450758 232.540505,62.4255918 C231.366911,65.2121261 230.768077,68.1882411 230.768077,71.3539367 C230.768077,74.4444019 231.366911,77.3723695 232.540505,80.1589038 C233.735164,82.942429 235.399261,85.3618389 237.55386,87.4111153 C239.690403,89.4694193 242.227173,91.1004145 245.15514,92.2980827 C248.071071,93.49876 251.215702,94.097594 254.598061,94.097594 C259.807015,94.097594 264.254636,92.7885849 267.958982,90.1795943 C271.642263,87.5675945 274.41676,84.2062998 276.240345,80.0957103 L292.809091,86.7761706 C291.259344,90.3571381 289.255206,93.6702853 286.787649,96.7156123 C284.314073,99.7609393 281.458326,102.381967 278.223419,104.572676 C274.985502,106.769404 271.347359,108.466602 267.345102,109.679316 C263.31877,110.883003 258.97948,111.490865 254.324222,111.490865" id="Fill-16" fill="#FEFEFE"></path>
            </g>
            <polygon id="Fill-19" fill="#FEFEFE" points="407.175562 394.40797 425.80863 394.40797 425.80863 294.423747 407.175562 294.423747"></polygon>
            <polygon id="Fill-20" fill="#FEFEFE" points="437.998665 294.424048 459.096281 294.424048 502.371821 362.492522 502.371821 294.424048 521.00188 294.424048 521.00188 394.408271 501.135033 394.408271 456.628723 324.14006 456.628723 394.408271 437.998665 394.408271"></polygon>
            <polygon id="Fill-21" fill="#FEFEFE" points="532.503707 294.424048 589.067947 294.424048 589.067947 312.229581 551.130756 312.229581 551.130756 335.23805 589.067947 335.23805 589.067947 353.046592 551.130756 353.046592 551.130756 394.408271 532.503707 394.408271"></polygon>
            <path d="M648.777119,394.54489 C641.657313,394.54489 634.991899,393.229862 628.789904,390.602816 C622.569854,387.972761 617.171319,384.409849 612.549163,379.905052 C607.948071,375.409283 604.309929,370.104034 601.664827,363.998334 C599.013708,357.892634 597.692662,351.368653 597.692662,344.414354 C597.692662,337.466074 599.013708,330.960148 601.664827,324.896577 C604.309929,318.839024 607.948071,313.539794 612.549163,308.992868 C617.171319,304.445942 622.569854,300.858956 628.789904,298.228901 C634.991899,295.604865 641.657313,294.286828 648.777119,294.286828 C655.899934,294.286828 662.562339,295.604865 668.773362,298.228901 C674.984384,300.858956 680.422038,304.445942 685.074287,308.992868 C689.735563,313.539794 693.388752,318.839024 696.036862,324.896577 C698.672936,330.960148 700,337.466074 700,344.414354 C700,351.368653 698.672936,357.892634 696.036862,363.998334 C693.388752,370.104034 689.735563,375.409283 685.074287,379.905052 C680.422038,384.409849 674.984384,387.972761 668.773362,390.602816 C662.562339,393.229862 655.899934,394.54489 648.777119,394.54489 M648.777119,376.18867 C653.348119,376.18867 657.612178,375.358126 661.587353,373.685002 C665.562528,372.020905 669.020117,369.754965 671.999242,366.89621 C674.954292,364.037454 677.292453,360.679169 678.980624,356.812326 C680.665785,352.942473 681.514384,348.810819 681.514384,344.414354 C681.514384,340.023907 680.665785,335.892253 678.980624,332.022401 C677.292453,328.158567 674.954292,324.794263 671.999242,321.938517 C669.020117,319.079762 665.562528,316.813822 661.587353,315.143707 C657.612178,313.47961 653.348119,312.640039 648.777119,312.640039 C644.221165,312.640039 639.951087,313.47961 635.978922,315.143707 C632.000738,316.813822 628.552176,319.079762 625.636245,321.938517 C622.711287,324.794263 620.403218,328.158567 618.712038,332.022401 C617.023868,335.892253 616.181287,340.023907 616.181287,344.414354 C616.181287,348.810819 617.023868,352.942473 618.712038,356.812326 C620.403218,360.679169 622.711287,364.037454 625.636245,366.89621 C628.552176,369.754965 632.000738,372.020905 635.978922,373.685002 C639.951087,375.358126 644.221165,376.18867 648.777119,376.18867" id="Fill-22" fill="#FEFEFE"></path>
        </g>
    </g>
</svg>