<svg xmlns="http://www.w3.org/2000/svg" viewBox="0 0 24 24"><g fill="none"><path fill="url(#SVGjzRcRcfa)" d="M20.577 10.683L16.613 5.15a1.52 1.52 0 0 0-1.251-.649a1.52 1.52 0 0 0-1.252.649l-.432.603l-.43-.603a1.52 1.52 0 0 0-1.253-.649a1.52 1.52 0 0 0-1.251.649l-.426.594l-.427-.594A1.52 1.52 0 0 0 8.64 4.5c-.5 0-.957.235-1.252.649l-3.965 5.534a2.26 2.26 0 0 0 0 2.634l3.965 5.535a1.53 1.53 0 0 0 1.252.648a1.52 1.52 0 0 0 1.252-.648L12 15.905l.435.609l.004.006l1.67 2.332a1.53 1.53 0 0 0 1.25.648a1.52 1.52 0 0 0 1.252-.648l3.963-5.535a2.25 2.25 0 0 0 .003-2.634m-9.2-5.063a.75.75 0 0 1 .618-.32c.248 0 .475.117.62.32l.578.808L12 8.093L10.802 6.42zM9.258 18.38a.756.756 0 0 1-.968.235a.75.75 0 0 1-.27-.236l-3.964-5.534a1.45 1.45 0 0 1 0-1.69L8.02 5.62a.76.76 0 0 1 .62-.32c.247 0 .474.117.62.32l.573.802l-3.052 4.261a2.26 2.26 0 0 0 .002 2.634l.233.32l2.046 2.875c.26.365.646.59 1.077.639zm1.674-2.336a.757.757 0 0 1-1.24 0L7.59 13.086h-.003l-.176-.244a1.45 1.45 0 0 1 0-1.69l2.905-4.056l1.197 1.674l-1.368 1.91a2.26 2.26 0 0 0 0 2.636l1.368 1.91zM12 9.448l1.223 1.705a1.45 1.45 0 0 1 0 1.69L12 14.55l-1.223-1.705a1.45 1.45 0 0 1 0-1.69zm1.855 3.867a2.26 2.26 0 0 0 0-2.635l-1.368-1.91l1.193-1.666l2.899 4.05a1.45 1.45 0 0 1-.003 1.692l-.463.658l-1.805 2.537a.757.757 0 0 1-1.235.006l-.588-.821zm6.09-.471l-3.963 5.534a.755.755 0 0 1-.969.236a.75.75 0 0 1-.27-.236l-.88-1.228a1.53 1.53 0 0 0 1.078-.64l1.55-2.18l.002.003l.254-.36l.297-.419l-.002-.002l.169-.24a2.26 2.26 0 0 0 0-2.634l-3.046-4.25l.578-.808a.75.75 0 0 1 .62-.32c.247 0 .473.116.62.32l3.962 5.533a1.45 1.45 0 0 1 0 1.69"/><path fill="url(#SVGjB6z5b5K)" d="M10.311 17.16q-.089 0-.178-.01l-.851 1.196l.643.462l1.555-2.178a1.54 1.54 0 0 1-1.169.53"/><path fill="url(#SVGIXM8jdkX)" d="M13.683 17.16q.09 0 .18-.01l.85 1.196l-.643.463l-1.547-2.176a1.52 1.52 0 0 0 1.16.527"/><path fill="url(#SVGKrVrZbUH)" d="m11.509 15.223l.495.689l-.753 1.03l-.495-.67z"/><path fill="url(#SVGZqL9Heox)" d="m9.831 6.419l.489.683l-1.763 2.47l-.615-.497z"/><path fill="url(#SVGhSlSLbYy)" d="m11.517 8.77l.48.683l-1.122 1.585l-.616-.499z"/><path fill="url(#SVGyBitPdZH)" d="m13.194 6.428l.484.678l-1.19 1.663l-.486-.678z"/><defs><linearGradient id="SVGjzRcRcfa" x1="6.322" x2="17.905" y1="17.792" y2="6.438" gradientUnits="userSpaceOnUse"><stop stop-color="#ff8506"/><stop offset=".581" stop-color="#fd3947"/><stop offset="1" stop-color="#fb0078"/></linearGradient><linearGradient id="SVGjB6z5b5K" x1="16.97" x2="8.207" y1="4.389" y2="18.85" gradientUnits="userSpaceOnUse"><stop stop-color="#78005b"/><stop offset=".348" stop-color="#7a025a" stop-opacity=".652"/><stop offset=".51" stop-color="#820955" stop-opacity=".49"/><stop offset=".633" stop-color="#8e154e" stop-opacity=".367"/><stop offset=".737" stop-color="#a12643" stop-opacity=".263"/><stop offset=".828" stop-color="#b83c36" stop-opacity=".172"/><stop offset=".911" stop-color="#d65725" stop-opacity=".089"/><stop offset=".986" stop-color="#f87711" stop-opacity=".014"/><stop offset="1" stop-color="#ff7e0d" stop-opacity="0"/></linearGradient><linearGradient id="SVGIXM8jdkX" x1="17.02" x2="8.793" y1="16.591" y2="2.752" gradientUnits="userSpaceOnUse"><stop stop-color="#ff7e0d" stop-opacity="0"/><stop offset=".009" stop-color="#f97811" stop-opacity=".013"/><stop offset=".065" stop-color="#d65825" stop-opacity=".089"/><stop offset=".127" stop-color="#b93d36" stop-opacity=".173"/><stop offset=".195" stop-color="#a12643" stop-opacity=".266"/><stop offset=".272" stop-color="#8f154e" stop-opacity=".371"/><stop offset=".363" stop-color="#820955" stop-opacity=".495"/><stop offset=".482" stop-color="#7a025a" stop-opacity=".657"/><stop offset=".734" stop-color="#78005b"/></linearGradient><linearGradient id="SVGKrVrZbUH" x1="6.968" x2="13.909" y1="16.553" y2=".363" gradientUnits="userSpaceOnUse"><stop stop-color="#ff7e0d" stop-opacity="0"/><stop offset=".013" stop-color="#f97910" stop-opacity=".019"/><stop offset=".114" stop-color="#d25427" stop-opacity=".166"/><stop offset=".219" stop-color="#b1363a" stop-opacity=".318"/><stop offset=".326" stop-color="#981e48" stop-opacity=".473"/><stop offset=".438" stop-color="#860d53" stop-opacity=".634"/><stop offset=".555" stop-color="#7b0359" stop-opacity=".805"/><stop offset=".69" stop-color="#78005b"/></linearGradient><linearGradient id="SVGZqL9Heox" x1="3.738" x2="13.653" y1="17.611" y2="2.155" gradientUnits="userSpaceOnUse"><stop stop-color="#ff4630" stop-opacity="0"/><stop offset=".572" stop-color="#b31f48" stop-opacity=".572"/><stop offset="1" stop-color="#78005b"/></linearGradient><linearGradient id="SVGhSlSLbYy" x1="4.61" x2="13.849" y1="17.262" y2="3.085" gradientUnits="userSpaceOnUse"><stop stop-color="#ff4630" stop-opacity="0"/><stop offset=".572" stop-color="#b31f48" stop-opacity=".572"/><stop offset="1" stop-color="#78005b"/></linearGradient><linearGradient id="SVGyBitPdZH" x1="12.089" x2="13.62" y1="8.364" y2="6.863" gradientUnits="userSpaceOnUse"><stop stop-color="#ff4630" stop-opacity="0"/><stop offset=".572" stop-color="#b31f48" stop-opacity=".572"/><stop offset="1" stop-color="#78005b"/></linearGradient></defs></g></svg>