<svg version="1.1" viewBox="0 0 128 128" xmlns="http://www.w3.org/2000/svg">
 <rect x="4" y="4" width="120" height="120" ry="10" fill="#abe659" stroke-linecap="round" stroke-linejoin="round" stroke-width="1.8512"/>
 <path d="m88.477 54.361c2.2204 1.2539 3.1608 1.2539 5.0416-0.62694l1.2539-1.2539c0.94041-1.2539 1.5674-1.9069 1.2539-3.4743l-10.736-32.836c-0.94041-3.4743-3.4743-5.3551-7.262-5.3551h-15.778c-2.5339 0-3.7878 0.62694-5.0416 2.2204l-4.4147 5.6947c-3.1608 4.4147-2.5339 6.6351 1.5673 9.7959m-14.838 45.113c-2.2204-1.2539-3.1608-1.2539-5.0416 0.62694l-1.2539 1.2539c-0.94041 1.2539-1.5673 1.9069-1.2539 3.4743l10.736 32.836c0.94041 3.4743 3.4743 5.3551 7.262 5.3551h15.778c2.5339 0 3.7878-0.62694 5.0416-2.2204l4.4147-5.6947c3.1608-4.4147 2.5339-6.6351-1.5673-9.7959m0-10.998c-1.2539 2.2204-1.2539 3.1608 0.62694 5.0416l1.2539 1.2539c1.2539 0.94041 1.9069 1.5674 3.4743 1.2539l32.836-10.736c3.4743-0.94041 5.3551-3.4743 5.3551-7.262v-15.778c0-2.5339-0.62694-3.7878-2.2204-5.0416l-5.6947-4.4147c-4.4147-3.1608-6.6351-2.5339-9.7959 1.5673m-45.113-14.838c1.2539-2.2204 1.2539-3.1608-0.62694-5.0416l-1.2539-1.2539c-1.2539-0.94041-1.9069-1.5673-3.4743-1.2539l-32.836 10.736c-3.4743 0.94041-5.3551 3.4743-5.3551 7.262v15.778c0 2.5339 0.62694 3.7878 2.2204 5.0416l5.6947 4.4147c4.4147 3.1608 6.6351 2.5339 9.7959-1.5673" fill="#19353f" stroke-width=".26122"/>
</svg>
