<svg xmlns="http://www.w3.org/2000/svg" viewBox="0 0 24 24"><g fill="none"><path fill="url(#SVG405vMwoP)" d="M9.206 6.863v7.706h6.637z"/><path fill="#fff" d="M3 14.569h6.206V6.863z"/><path fill="#ff2d55" d="M6.251 19.064a10.7 10.7 0 0 0 6.165 1.926c2.312 0 4.449-.717 6.165-1.926z"/><path fill="#ffbc5b" d="M3 14.57c.32.687.722 1.334 1.197 1.926H15.93v-1.927z"/><path fill="url(#SVGm1GdcdDA)" d="M16.29 12v5.78H21z"/><path fill="#fff" d="M11.584 17.78h4.706V12z"/><path fill="#ffc95b" d="M16.29 9.688a2.568 2.568 0 1 0 0-5.137a2.568 2.568 0 0 0 0 5.137m-7.084-4.11a1.284 1.284 0 1 0 0-2.568a1.284 1.284 0 0 0 0 2.568"/><defs><linearGradient id="SVG405vMwoP" x1="12.287" x2="12.287" y1="3.01" y2="20.991" gradientUnits="userSpaceOnUse"><stop stop-color="#a524b3"/><stop offset="1" stop-color="#ff2d55"/></linearGradient><linearGradient id="SVGm1GdcdDA" x1="11.995" x2="11.995" y1="3.01" y2="20.99" gradientUnits="userSpaceOnUse"><stop stop-color="#a524b3"/><stop offset="1" stop-color="#ff2d55"/></linearGradient></defs></g></svg>