<svg version="1.0" viewBox="0 0 128 128" xml:space="preserve" xmlns="http://www.w3.org/2000/svg" xmlns:xlink="http://www.w3.org/1999/xlink"><defs><linearGradient id="linearGradient5" x1="120" x2="120" y1="5" y2="125" gradientUnits="userSpaceOnUse"><stop stop-color="#34d412" offset="0"/><stop stop-color="#1eaf00" offset="1"/></linearGradient></defs><path d="m57.73 62.167-22.73 22.833c1.5143 2.7777 5.2728 5.9365 7.232 7.1741l21.363-23.886" fill="#fff" strokeWidth="1.309"/><path d="m93.256 51.275c0 11.198-8.7878 20.275-19.628 20.275-10.84 0-19.628-9.0774-19.628-20.275 0-11.198 8.7872-20.275 19.628-20.275 10.84 0 19.628 9.0774 19.628 20.275z" fill="#fff" strokeWidth="2.945"/><rect x="4" y="4" width="120" height="120" ry="6" fill="url(#linearGradient5)"/><path d="m19.137 110.13c0-0.53924 1.8646-5.4001 4.1435-10.802 10.956-25.969 16.246-50.535 15.194-70.555l-0.43042-8.1888 1.7757-1.6494c1.2921-1.2002 2.7506-1.7191 5.3555-1.9052 4.4181-0.31564 8.0648 1.5701 10.843 5.607 1.6367 2.3783 9.3502 18.912 14.239 30.52 0.90613 2.1517 1.8372 3.9174 2.0692 3.9238 0.90905 0.0251 14.871-15.072 20.345-22 3.2116-4.0643 6.2944-7.3256 6.9267-7.3278 1.832-0.0062 4.8989 3.0147 7.0132 6.9081 2.6896 4.9528 2.8546 9.4385 1.389 37.752-1.3157 25.417-1.8822 28.538-5.3376 29.408-7.381 1.8567-9.2467-4.0273-9.2855-29.284l-0.37697-15.541-6.0845 5.4201c-9.0823 8.0905-15.436 14.264-17.864 14.75-2.8685 0.57499-4.7753-2.511-10.393-14.303-2.532-5.3152-5.3121-10.652-5.659-10.867-0.34902-0.21619-1.208 5.6568-2.449 12.142-2.667 13.937-5.8922 24.131-10.598 33.495-3.8726 7.7064-5.4516 9.1564-12.246 11.246-6.9038 2.1229-8.5701 2.3662-8.5701 1.2518z" fill="#fff" stroke-width=".68163"/></svg>
