<svg xmlns="http://www.w3.org/2000/svg" viewBox="0 0 24 24"><g fill="#762fed"><path d="M11.865 3.015v1.15l-4.5 2.63v5.025l-.865.66V6.055zm.21-.015v1.16L17.5 7.3V6.05z"/><path d="m17.35 7.45l-5.38-3.1l-4.27 2.5l1.03.44l3.195-1.914l3.4 1.994l-4.375 2.655l4.2 2.42l1.01-.49l-3.405-1.87l4.594-2.63z"/><path d="m14.295 9.47l-1.1.61l3.3 1.816v5.12l1.005.535v-6.2l-3.205-1.885zm3.155 8.29l-1.05-.56l-4.41 2.625l-3.565-2.075l4.5-2.574L7.475 12l-.865.66l4.355 2.49l-4.305 2.675L11.995 21z"/><path d="m6.5 17.675l4.05-2.515l-.97-.53l-3.08 1.815zm6.51-2.69V13.82l-4.385-2.43V7.47l-1.05-.45v4.79zm-3.11 2.21l-1.05.56l3.03 1.765v-1.25zm2.19 1.085v1.235l4.2-2.5v-4.89l-1.03.5v3.85l-3.175 1.8zm-1.205-8.465l4.035-2.45l-.925-.58l-3.11 1.82z"/></g></svg>