<svg xmlns="http://www.w3.org/2000/svg" viewBox="0 0 24 24"><g fill="none"><path fill="url(#SVGeFBYwb7h)" fill-rule="evenodd" d="M21 12a9 9 0 1 1-18 0a9 9 0 0 1 18 0M3.953 9.972l2.107.196c.016 1.25.291 3.743 1.255 3.76c.969.02 1.25-2.315 1.27-3.516h6.951c.022 1.201.302 3.536 1.271 3.515c.963-.016 1.239-2.51 1.255-3.759l2.107-.196c.497 2.055.143 3.854-.096 4.5c-2.392 2.33-4.955.996-5.982-.26c-.773-.952-1.641-1.206-2.027-1.217c-.398.01-1.26.265-2.039 1.218c-1.021 1.26-3.584 2.589-5.977.26a8.54 8.54 0 0 1-.095-4.5m3.822-5.156A8.95 8.95 0 0 0 7.913 8.4c.058.201.286.582.725.482c.55-.122.466-.752.366-1.266c-.106-.513-.106-1.964 0-3.398c-.313.116-.99.402-1.229.598M16.182 8.4c.392-1.44.255-2.991.143-3.584c-.238-.196-.92-.477-1.228-.598c.1 1.434.1 2.885 0 3.398c-.106.514-.19 1.144.36 1.271c.44.095.667-.286.725-.487m-9.92-2.404c-.27.26-.874.89-1.123 1.335c-.053.698 0 2.08.577 1.985c.725-.117.672-.71.492-1.588c-.026-.556.006-1.006.032-1.34c.01-.159.021-.29.021-.392m12.7 1.335c-.25-.445-.853-1.075-1.123-1.335c0 .101.006.228.022.392c.02.334.052.784.031 1.34c-.18.878-.238 1.471.493 1.588c.582.095.624-1.287.577-1.985m-8.047-3.627a10.7 10.7 0 0 1 2.223 0c.228 1.853.344 5.575-1.021 5.628c-1.536.058-1.377-3.727-1.208-5.628z" clip-rule="evenodd"/><defs><linearGradient id="SVGeFBYwb7h" x1="5.483" x2="18.284" y1="6.288" y2="18.273" gradientUnits="userSpaceOnUse"><stop stop-color="#e122fc"/><stop offset="1" stop-color="#26c5e2"/></linearGradient></defs></g></svg>