<svg xmlns="http://www.w3.org/2000/svg" viewBox="0 0 24 24"><g fill="none"><path fill="url(#SVG8MzxNb3S)" fill-rule="evenodd" d="M11.962 21L4.42 16.495V7.51L11.96 3l7.618 4.51v8.99zm1.227-16.323L8.604 7.472l3.306 1.951l4.566-2.747zm-6.873 8.635v-4.58l1.743-.99l3.268 1.975l-1.696.995v4.424zm0 3.373V13.87l3.315 1.994v2.795zm6.631-4.102v6.76l.948-.688v-5.352l1.42-.853v5.518l.948-.686v-5.415l1.421-.862v5.68l.947-.71V9.143zM7.585 6.406l.701-.47l.63.527l-.706.464zm5.902 2.733l-.7.464l.624.521l.702-.464zM9.385 5.331l.701-.465l.625.521l-.7.47l-.626-.522zm5.898 2.733l-.702.464l.626.526l.7-.465l-.624-.52zm-4.107-3.795l.7-.464l.626.521l-.701.47zm5.897 2.734l-.701.464l.625.52l.701-.459l-.625-.52zm-11.245.44l.706-.464l.625.521l-.706.469l-.625-.521zm-.933 1.355l.947.469v.834l-.947-.474zm0 2.113l.947.464v.834l-.947-.474zm.947 2.576l-.947-.469v.83l.947.473zm-.947 1.644l.947.464v.834l-.947-.474zm6.158-2.946l-.948-.474v.834l.947.473zm0 2.108l-.948-.47v.83l.947.473zm-.948 1.643l.947.47v.833l-.947-.474v-.833zm.947 2.577l-.947-.469v.83l.947.473zm.678-8.337l-.701.47l.625.52l.701-.464l-.625-.52z" clip-rule="evenodd"/><defs><linearGradient id="SVG8MzxNb3S" x1="12" x2="12" y1="3" y2="21" gradientUnits="userSpaceOnUse"><stop offset=".16" stop-color="#c09124"/><stop offset="1" stop-color="#fddc03"/></linearGradient></defs></g></svg>