<svg xmlns="http://www.w3.org/2000/svg" viewBox="0 0 24 24"><g fill="none"><path fill="#ce3a6c" fill-rule="evenodd" d="M12 19.908a8.181 8.181 0 1 0 0-16.362a8.181 8.181 0 0 0 0 16.362m0-.709a7.472 7.472 0 1 0 0-14.944a7.472 7.472 0 0 0 0 14.944" clip-rule="evenodd"/><path fill="#fff6ff" fill-rule="evenodd" d="M12 19.493a7.77 7.77 0 0 0 7.367-10.792A7.77 7.77 0 0 0 12 3.954a7.772 7.772 0 1 0 0 15.545zm0 .191a7.96 7.96 0 0 0 7.352-11.003A7.959 7.959 0 1 0 12 19.684" clip-rule="evenodd"/><path fill="#602e9d" d="M8.057 16.55c-.59.708-1.773 2.132-1.784 2.165c-.06-.077-.36-.06-.518.109a.38.38 0 0 0-.065.382l-.246.054l-.436 1.636l.125.104l1.598-.633l-.092-.338c.098-.005.321-.054.392-.174s.055-.3.033-.371l1.986-2.335z"/><path fill="#441c56" d="m7.2 19.424l-.927-.845l.19-.219l.928.846zm.235-.316l-.928-.846l.197-.218l.927.851zm.321-.317l-.927-.845l.191-.218l.927.85zm.235-.256l-.927-.845l.196-.219l.927.851zm.19-.316l-.92-.846l.19-.218l.927.851zm.257-.311l-.927-.851l.196-.218l.928.85zm.344-.317l-.922-.85l.196-.213l.928.845zM6.18 18.983c-.207-.109-.382-.092-.442-.07c.033-.213.382-.24.513-.191c.13.049.6.594.736.714c.11.098.071.142.033.153c-.196-.153-.633-.491-.84-.6z"/><path fill="#ae8fec" d="m6.895 19.92l-.905-.775c.163.033.529.137.73.311c.202.18.202.382.175.464m-1.8 1.004l.087-.273l.142.07l1.037-.3l-1.124.503z"/><path fill="#f781fc" d="m6.344 20.208l-.72-.616c0 .01 0 .038.016.076c.017.055.039.11.06.311c.022.202-.027.066-.043.12c-.022.055 0 .07-.082.093c-.082.027-.093.114-.142.202c-.043.07.017.12.055.13c.07-.076.234-.25.294-.3c.071-.06.142-.016.164-.016s.098-.033.174-.054c.06-.022.077.027.082.054z"/><path fill="#382671" d="m8.792 14.862l-.31-.272l.43-.338l1.91 1.456l-.082.643l-.47-.218l-.381.284l-1.206-.808z"/><path fill="#d83f7f" d="m8.978 15.56l.038-.534l.338.273zm.556-.065l-.469.251l.437.333zm.148.126l.06.562l.398-.251z"/><path fill="url(#SVG7ET7Tdbz)" d="M12.218 18.272c1.473 0 2.83-.486 3.922-1.31c-.028-.07-.028-.18-.033-.294a.8.8 0 0 0-.038-.305c-.033-.082.032-.088.098-.093c.109-.011.218-.022-.011-.29c.033-.108-.038-.141-.153-.13l-.196.175a2 2 0 0 0-.033-.142c-.038-.137-.082-.115-.283-.011c-.339.169-1.146.578-3.153.834c-2.553.322-4.473-1.554-5.105-2.53c.12.283.534.943 1.336 1.8a5.597 5.597 0 1 1 8.536-1.522c.06.032.13.06.218.07c.164.022.295-.19.393-.485c-.033.273 0 .53.054.546c.077.027.437-.966.459-1.14c.016-.11.016.452-.071 1.025a6.545 6.545 0 1 0-5.94 3.802m5.498-4.227c.01-.088.033-.18.054-.262q.125-.434.164-.884a5.5 5.5 0 0 1-.218 1.146"/><path fill="url(#SVGjeuvpe3y)" d="M7.892 13.75a.68.68 0 0 1-.785-.19c.158 1.09 1.293 1.101 1.844.97a3.76 3.76 0 0 0 1.608 1.342c-.18 1.467.775 1.67 1.272 1.582c-.442-.78-.153-1.32.049-1.495l-3.251-2.525a9 9 0 0 1-.737.317"/><path fill="#d83f7f" d="m8.619 13.634l-.06.611l.61-.202l-.556-.414zm2.307 2.008l-.055.61l.611-.196z"/><path fill="url(#SVGVtYhnppT)" d="M10.806 12.229h-.507l.125.518h-.518l.098.42h-.475v.104h-.136v.25l.742 1.146l4.074-4.582l5.766-6.949L19.822 3c-1.44.84-2.586.878-2.978.796l-5.591 7.396l-.633.502z"/><path fill="#afddea" d="M10.299 12.23h.507l-.186-.535l.633-.502l1.604-2.116c.436.207.987.534.845.698c-.174.196-.78.054-1.058-.044l-.71.818h.688c.076-.01.245.006.245.164c0 .207-.616.365-1.352.338l.758 1.211l-2.138 2.405l-.742-1.145v-.25h.136v-.105h.475l-.098-.42h.518z"/><path fill="#f3fffd" d="M16.129 4.745c.316-.07.763-.12 1.09.011c.437.175.628.437.617.955l2.138-2.575L19.822 3c-1.44.84-2.586.878-2.979.796z"/><path fill="#3d89c7" d="m12.595 13.766l.082.507l-.524-.043l.082.518l-.426-.028l.077.47l-.098.016l.021.142l-.245.038l-1.238-.551l3.97-4.86l5.684-6.84l.164.131c-.59 1.582-.448 2.727-.3 3.11l-6.317 6.768l-.381.72l-.557-.104z"/><path fill="#184bb9" d="M17.684 5.906c.534-.425 1.172-.867 1.303-.72c.18.202.437.535.431 1.642l.425-.453c-.147-.382-.288-1.527.295-3.109l-.158-.13z"/><path fill="#5aa3d6" d="m13.876 10.783l5.237-6.338c-1.91 2.814-5.782 8.503-5.946 8.721a2 2 0 0 1-.48.437h-.354v.507h-.453v.37h-.436v.437l-.573-.19l.49-.617l1.326-.845l-.207-.202l.687-.437l-.245-.24l.524-.36l-.164-.212l.6-1.037z"/><path fill="url(#SVGqEgsIcse)" d="M10.724 13.277c-.137.393-.786.807-1.091.965l.54.6l.55.306c0-.595 1.124-1.527 1.691-1.92l-.136-.153l.655-.507l-.273-.093l.562-.425l-.186-.093l1.146-1.942l-1.626 1.516l-.152-.234l-.29.753l-.18-.328l-.354.846l-.196-.29l-.524.999h-.142z"/><path fill="#1ed096" d="m10.937 13.277l-.36.49l.6-.49h.185l2.018-2.313l-.85.824l-.132-.12l-.229.529h-.185l-.355.54l-.212-.109l-.338.65z"/><defs><linearGradient id="SVG7ET7Tdbz" x1="4.278" x2="19.6" y1="8.182" y2="13.844" gradientUnits="userSpaceOnUse"><stop offset=".55" stop-color="#f3feff"/><stop offset="1" stop-color="#2dd2ee"/></linearGradient><linearGradient id="SVGjeuvpe3y" x1="11.223" x2="14.092" y1="11.146" y2="8.465" gradientUnits="userSpaceOnUse"><stop stop-color="#21826f"/><stop offset="1" stop-color="#062f6f"/></linearGradient><linearGradient id="SVGVtYhnppT" x1="12" x2="14.291" y1="8.545" y2="10.276" gradientUnits="userSpaceOnUse"><stop offset=".07" stop-color="#b1e2ef"/><stop offset=".18" stop-color="#cfecf2"/><stop offset=".82" stop-color="#cdeaee"/><stop offset="1" stop-color="#ade0f3"/></linearGradient><linearGradient id="SVGqEgsIcse" x1="8.841" x2="11.771" y1="12.928" y2="15.757" gradientUnits="userSpaceOnUse"><stop stop-color="#108550"/><stop offset="1" stop-color="#0e4e4d"/></linearGradient></defs></g></svg>