<svg xmlns="http://www.w3.org/2000/svg" viewBox="0 0 24 24"><g fill="none"><path fill="#ff86c0" d="m21 8.84l-2.882-2.919l2.88-2.92z"/><path fill="#d93389" d="m20.998 14.918l-.001.002l-2.881-2.922l2.88-2.92l.002.002z"/><path fill="#92278f" d="m20.998 20.999l-2.882-2.92l2.88-2.92z"/><path fill="#b41d8e" d="m18 17.96l-.002-5.839l.001-.001l2.883 2.92z"/><path fill="#ef59a1" d="m18 11.88l-.002-5.838l2.884 2.92z"/><path fill="#92278f" d="m18 17.96l-2.883-2.92l2.881-2.918v5.836z"/><path fill="#371466" d="m18 11.88l-2.881-2.919l2.88-2.92z"/><path fill="#702c91" d="m17.9 12l.002.003l-2.883 2.92l-2.882-2.92l.001-.003z"/><path fill="#562988" d="m12.14 12l2.88-2.925L17.903 12z"/><path fill="#371466" d="M11.999 17.959v-5.84l2.882 2.92z"/><path fill="#272262" d="m12 17.959l-2.882-2.92L12 12.119z"/><path fill="#1d3d88" d="m11.9 12l.001.003l-2.882 2.92l-2.88-2.92V12z"/><path fill="#252f77" d="M6.14 12L9 9.075L11.9 12z"/><path fill="#084f9d" d="M6.001 17.96v-5.838l2.88 2.918z"/><path fill="#272262" d="M6.001 11.879V6.04l2.88 2.92z"/><path fill="#1b87c7" d="m6 17.959l-2.881-2.92l2.88-2.92l.002.002z"/><path fill="#0cb699" d="M6 11.879L3.119 8.96L6 6.041z"/><path fill="#0058a2" d="M3 20.999v-5.84l2.882 2.92z"/><path fill="#3bc3f3" d="M3 14.92V9.079l2.882 2.92z"/><path fill="#0fe9c4" d="M3 8.84V3.002l2.882 2.92z"/></g></svg>