<svg xmlns="http://www.w3.org/2000/svg" viewBox="0 0 24 24"><g fill="#010e35" fill-rule="evenodd" clip-rule="evenodd"><path d="M20.02 11.028q.057.477.058.972c0 4.473-3.616 8.1-8.078 8.1a8.08 8.08 0 0 1-7.333-4.696l1.293-.652A6.63 6.63 0 0 0 12 18.65c3.662 0 6.632-2.977 6.632-6.65l-.003-.204zM12 3.9c3.402 0 6.314 2.11 7.504 5.096l-1.382.441a6.63 6.63 0 0 0-6.123-4.087c-3.662 0-6.632 2.977-6.632 6.65l.002.136l-1.353 1.11A8 8 0 0 1 3.92 12c0-4.474 3.617-8.1 8.078-8.1"/><path d="m3 15.239l7.901-6.48l-.328 2.694l4.612-2.62l-.234 2.559L21 9.46l-8.204 4.53l.613-2.577l-4.74 2.785l.313-1.978z"/></g></svg>