<svg width="24" height="24" viewBox="0 0 24 24" fill="none" xmlns="http://www.w3.org/2000/svg">
<g clip-path="url(#clip0_4966_1780)">
<path d="M9.82411 21.9987C9.46652 21.9987 9.11469 21.5929 8.79992 20.8195C8.77893 20.7679 8.75813 20.7147 8.73748 20.6598C8.72319 20.6219 8.70911 20.5831 8.69504 20.5437C8.57435 20.2061 8.47626 19.9319 8.38625 19.7126C8.23643 19.3475 8.10867 19.1346 7.93589 19.0348C7.65937 18.8753 7.18966 18.9607 6.25051 19.1319C6.20939 19.1394 6.16869 19.1466 6.1287 19.1532C5.2036 19.3058 4.6161 19.2121 4.42533 18.8817C4.04596 18.2227 5.10405 16.9841 8.98566 10.261C8.68042 10.7897 8.51969 11.3896 8.51969 12.0001C8.51972 12.6105 8.68066 13.2102 8.98588 13.7388C12.8687 20.464 13.4106 21.9985 14.1713 21.9985L9.82411 21.9987Z" fill="url(#paint0_linear_4966_1780)"/>
<path d="M9.82411 21.9987C9.46652 21.9987 9.11469 21.5929 8.79992 20.8195C8.77893 20.7679 8.75813 20.7147 8.73748 20.6598C8.72319 20.6219 8.70911 20.5831 8.69504 20.5437C8.57435 20.2061 8.47626 19.9319 8.38625 19.7126C8.23643 19.3475 8.10867 19.1346 7.93589 19.0348C7.65937 18.8753 7.18966 18.9607 6.25051 19.1319C6.20939 19.1394 6.16869 19.1466 6.1287 19.1532C5.2036 19.3058 4.6161 19.2121 4.42533 18.8817C4.04596 18.2227 5.10405 16.9841 8.98566 10.261C8.68042 10.7897 8.51969 11.3896 8.51969 12.0001C8.51972 12.6105 8.68066 13.2102 8.98588 13.7388C12.8687 20.464 13.4106 21.9985 14.1713 21.9985L9.82411 21.9987Z" fill="url(#paint1_linear_4966_1780)" fill-opacity="0.7"/>
<path d="M9.8239 2C10.5844 2.00076 11.5 3.5 15.0094 10.264C14.9353 10.1356 14.8533 10.0124 14.764 9.89527C14.7147 9.83047 14.6631 9.7675 14.6094 9.70642C14.5103 9.59376 14.4039 9.48751 14.2911 9.38856C14.1966 9.30565 14.0972 9.22776 13.994 9.15535C13.9524 9.12617 13.91 9.09808 13.867 9.07069C13.8472 9.05806 13.8273 9.0455 13.8072 9.03325C13.7838 9.01901 13.7605 9.00463 13.7368 8.99092C13.638 8.9339 13.5365 8.88187 13.4331 8.83504C12.9833 8.63119 12.4937 8.52491 11.9973 8.52491C11.9532 8.52491 11.9093 8.52554 11.8654 8.52573C11.9101 8.52575 11.955 8.52613 12.0001 8.52613C11.852 8.52614 11.7045 8.53552 11.5585 8.55422C11.4776 8.56458 11.397 8.57811 11.3172 8.5941C11.1701 8.62357 11.025 8.6623 10.8829 8.7105C10.7639 8.75089 10.6468 8.7981 10.5325 8.85132C10.4864 8.87277 10.4409 8.89539 10.3957 8.91889C10.3749 8.92973 10.3541 8.94098 10.3335 8.95226C10.3094 8.9654 10.2852 8.97842 10.2614 8.99214C10.1627 9.04915 10.0671 9.11087 9.97489 9.17692C9.57341 9.46454 9.23658 9.83528 8.98833 10.2652C5.12072 16.9641 4.05577 18.2173 4.42345 18.8781L2.25416 15.1211C2.13499 14.9147 2.17356 14.6203 2.36405 14.2518C2.47849 14.0305 2.64776 13.7824 2.87076 13.5106C2.89643 13.4793 2.92271 13.4476 2.94972 13.4158C3.50964 12.7562 3.81577 12.3954 3.86831 12.0959C3.87379 12.0648 3.87684 12.0344 3.87686 12.0043C3.87685 11.6851 3.56803 11.3207 2.95012 10.5929C2.92307 10.561 2.89647 10.5294 2.87076 10.498C2.29469 9.79587 2.07718 9.25256 2.23747 8.91889L2.25416 8.88714C2.28896 8.82698 2.33398 8.77478 2.39294 8.72963C2.33716 8.76732 2.29341 8.81603 2.25619 8.87819L4.42508 5.1212C4.54425 4.91479 4.81857 4.80065 5.23297 4.78135C5.48177 4.76984 5.78113 4.79253 6.12796 4.84973C6.1679 4.85632 6.20857 4.86341 6.24965 4.87089C7.10092 5.02603 7.5668 5.1107 7.8524 5.00642C7.88207 4.99562 7.90982 4.98277 7.93584 4.96776C8.21232 4.8081 8.37308 4.35846 8.69448 3.45943C8.70854 3.42009 8.72294 3.38134 8.73721 3.34343C9.05728 2.49346 9.41895 2.02798 9.78808 2H9.8239Z" fill="url(#paint2_linear_4966_1780)"/>
<path d="M19.5689 5.11725C19.9488 5.77534 19 6.99995 15.0215 13.7172C15.2733 13.2739 15.4238 12.7815 15.464 12.2752C15.4703 12.1961 15.4738 12.1167 15.4747 12.037C15.4748 12.0247 15.4752 12.0125 15.4752 12.0002L15.4751 11.9987L15.4734 11.8845C15.4547 11.3137 15.2954 10.7558 15.0093 10.2602C15.0046 10.2521 14.9998 10.2441 14.9951 10.236C11.1254 3.53204 10.5836 2.00146 9.82379 2.0014L14.171 2.00122C14.5525 2.00123 14.9274 2.46321 15.2578 3.34066C15.2721 3.37859 15.2862 3.41745 15.3002 3.45681C15.4853 3.97445 15.6173 4.34301 15.7486 4.59309C15.7701 4.63397 15.7918 4.67154 15.8135 4.70621C15.8894 4.82776 15.9677 4.91221 16.0589 4.96491C16.3354 5.12455 16.8053 5.03925 17.7446 4.86807C17.7857 4.86058 17.8264 4.85335 17.8664 4.84675C18.7468 4.70155 19.3204 4.78007 19.5383 5.07273C19.549 5.08728 19.5599 5.10165 19.5689 5.11725Z" fill="url(#paint3_linear_4966_1780)"/>
<path d="M19.5689 5.11725C19.9488 5.77534 19 6.99995 15.0215 13.7172C15.2733 13.2739 15.4238 12.7815 15.464 12.2752C15.4703 12.1961 15.4738 12.1167 15.4747 12.037C15.4748 12.0247 15.4752 12.0125 15.4752 12.0002L15.4751 11.9987L15.4734 11.8845C15.4547 11.3137 15.2954 10.7558 15.0093 10.2602C15.0046 10.2521 14.9998 10.2441 14.9951 10.236C11.1254 3.53204 10.5836 2.00146 9.82379 2.0014L14.171 2.00122C14.5525 2.00123 14.9274 2.46321 15.2578 3.34066C15.2721 3.37859 15.2862 3.41745 15.3002 3.45681C15.4853 3.97445 15.6173 4.34301 15.7486 4.59309C15.7701 4.63397 15.7918 4.67154 15.8135 4.70621C15.8894 4.82776 15.9677 4.91221 16.0589 4.96491C16.3354 5.12455 16.8053 5.03925 17.7446 4.86807C17.7857 4.86058 17.8264 4.85335 17.8664 4.84675C18.7468 4.70155 19.3204 4.78007 19.5383 5.07273C19.549 5.08728 19.5599 5.10165 19.5689 5.11725Z" fill="url(#paint4_linear_4966_1780)" fill-opacity="0.5"/>
<path d="M19.5689 5.11725C19.9488 5.77534 19 6.99995 15.0215 13.7172C15.2733 13.2739 15.4238 12.7815 15.464 12.2752C15.4703 12.1961 15.4738 12.1167 15.4747 12.037C15.4748 12.0247 15.4752 12.0125 15.4752 12.0002L15.4751 11.9987L15.4734 11.8845C15.4547 11.3137 15.2954 10.7558 15.0093 10.2602C15.0046 10.2521 14.9998 10.2441 14.9951 10.236C11.1254 3.53204 10.5836 2.00146 9.82379 2.0014L14.171 2.00122C14.5525 2.00123 14.9274 2.46321 15.2578 3.34066C15.2721 3.37859 15.2862 3.41745 15.3002 3.45681C15.4853 3.97445 15.6173 4.34301 15.7486 4.59309C15.7701 4.63397 15.7918 4.67154 15.8135 4.70621C15.8894 4.82776 15.9677 4.91221 16.0589 4.96491C16.3354 5.12455 16.8053 5.03925 17.7446 4.86807C17.7857 4.86058 17.8264 4.85335 17.8664 4.84675C18.7468 4.70155 19.3204 4.78007 19.5383 5.07273C19.549 5.08728 19.5599 5.10165 19.5689 5.11725Z" fill="url(#paint5_linear_4966_1780)"/>
<path d="M21.7458 8.88704C21.865 9.09354 21.8266 9.38807 21.6359 9.75679C21.5432 9.936 21.4142 10.1326 21.2501 10.3453C21.2116 10.3952 21.1716 10.4463 21.1292 10.4979C21.1035 10.5293 21.0769 10.5609 21.0499 10.5928C20.4321 11.3205 20.1232 11.6846 20.1231 12.0038C20.1231 12.3231 20.432 12.6871 21.0499 13.4149C21.0769 13.4467 21.1035 13.4784 21.1292 13.5097C21.7239 14.2345 21.9364 14.7901 21.7458 15.1206C21.7389 15.1326 21.7304 15.1435 21.7226 15.1548L19.57 18.8845C19.3912 19.1941 18.8638 19.2957 18.0369 19.1816C17.9817 19.174 17.925 19.1655 17.8671 19.156C17.8272 19.1494 17.7865 19.1423 17.7455 19.1348C17.3928 19.0705 17.1061 19.0184 16.8712 18.9867C16.4803 18.9339 16.232 18.9379 16.0593 19.0375C15.7828 19.1973 15.622 19.647 15.3006 20.5459C15.2866 20.5852 15.2722 20.624 15.2579 20.6619C14.9275 21.5393 14.5527 22.0013 14.1712 22.0013C13.4108 22.0004 12.8673 20.4648 8.98566 13.7417C9.29087 14.2703 9.73013 14.7092 10.2587 15.0144C10.7873 15.3195 11.3871 15.4804 11.9974 15.4804C12.0011 15.4804 12.0051 15.48 12.0088 15.48H12.1142C12.685 15.4612 13.243 15.3021 13.7386 15.016C14.2342 14.7298 14.6514 14.326 14.953 13.841L15.0117 13.7429C18.8942 7.01819 19.9522 5.78119 19.5721 5.12231L21.7458 8.88704Z" fill="url(#paint6_linear_4966_1780)"/>
<path d="M21.7458 8.88704C21.865 9.09354 21.8266 9.38807 21.6359 9.75679C21.5432 9.936 21.4142 10.1326 21.2501 10.3453C21.2116 10.3952 21.1716 10.4463 21.1292 10.4979C21.1035 10.5293 21.0769 10.5609 21.0499 10.5928C20.4321 11.3205 20.1232 11.6846 20.1231 12.0038C20.1231 12.3231 20.432 12.6871 21.0499 13.4149C21.0769 13.4467 21.1035 13.4784 21.1292 13.5097C21.7239 14.2345 21.9364 14.7901 21.7458 15.1206C21.7389 15.1326 21.7304 15.1435 21.7226 15.1548L19.57 18.8845C19.3912 19.1941 18.8638 19.2957 18.0369 19.1816C17.9817 19.174 17.925 19.1655 17.8671 19.156C17.8272 19.1494 17.7865 19.1423 17.7455 19.1348C17.3928 19.0705 17.1061 19.0184 16.8712 18.9867C16.4803 18.9339 16.232 18.9379 16.0593 19.0375C15.7828 19.1973 15.622 19.647 15.3006 20.5459C15.2866 20.5852 15.2722 20.624 15.2579 20.6619C14.9275 21.5393 14.5527 22.0013 14.1712 22.0013C13.4108 22.0004 12.8673 20.4648 8.98566 13.7417C9.29087 14.2703 9.73013 14.7092 10.2587 15.0144C10.7873 15.3195 11.3871 15.4804 11.9974 15.4804C12.0011 15.4804 12.0051 15.48 12.0088 15.48H12.1142C12.685 15.4612 13.243 15.3021 13.7386 15.016C14.2342 14.7298 14.6514 14.326 14.953 13.841L15.0117 13.7429C18.8942 7.01819 19.9522 5.78119 19.5721 5.12231L21.7458 8.88704Z" fill="url(#paint7_linear_4966_1780)"/>
</g>
<defs>
<linearGradient id="paint0_linear_4966_1780" x1="4.29171" y1="15.5417" x2="19.2915" y2="19.1885" gradientUnits="userSpaceOnUse">
<stop stop-color="#2052CB"/>
<stop offset="0.249589" stop-color="#6864F6"/>
<stop offset="0.653241" stop-color="#7B7BFF"/>
<stop offset="1" stop-color="#4894FE"/>
</linearGradient>
<linearGradient id="paint1_linear_4966_1780" x1="11.6875" y1="22" x2="11.6875" y2="18.0417" gradientUnits="userSpaceOnUse">
<stop stop-color="#4894FE"/>
<stop offset="1" stop-color="#6864F6" stop-opacity="0"/>
</linearGradient>
<linearGradient id="paint2_linear_4966_1780" x1="1.67515" y1="13.743" x2="13.4127" y2="7.11363" gradientUnits="userSpaceOnUse">
<stop stop-color="#58AAFE"/>
<stop offset="0.609083" stop-color="#6864F6"/>
<stop offset="0.830547" stop-color="#4A43CB"/>
<stop offset="1" stop-color="#3D35B1"/>
</linearGradient>
<linearGradient id="paint3_linear_4966_1780" x1="10.4698" y1="1.34805" x2="19.8245" y2="7.22254" gradientUnits="userSpaceOnUse">
<stop stop-color="#BABAFF"/>
<stop offset="0.637829" stop-color="#7B7BFF"/>
<stop offset="1" stop-color="#5750E2"/>
</linearGradient>
<linearGradient id="paint4_linear_4966_1780" x1="17.9374" y1="8.04162" x2="13.4582" y2="1.99995" gradientUnits="userSpaceOnUse">
<stop stop-color="#AC80FF" stop-opacity="0"/>
<stop offset="1" stop-color="#FFBAC7"/>
</linearGradient>
<linearGradient id="paint5_linear_4966_1780" x1="16.778" y1="6.08963" x2="16.778" y2="1.79162" gradientUnits="userSpaceOnUse">
<stop stop-color="#8F8FFF" stop-opacity="0"/>
<stop offset="0.7" stop-color="#FECBE6" stop-opacity="0.4"/>
<stop offset="1" stop-color="#FFDAC2"/>
</linearGradient>
<linearGradient id="paint6_linear_4966_1780" x1="24.2916" y1="11.0625" x2="11.8902" y2="19.1749" gradientUnits="userSpaceOnUse">
<stop stop-color="#BABAFF"/>
<stop offset="0.533177" stop-color="#6864F6"/>
<stop offset="0.760072" stop-color="#5750E2"/>
<stop offset="1" stop-color="#163697"/>
</linearGradient>
<linearGradient id="paint7_linear_4966_1780" x1="14.7083" y1="13.4584" x2="21.7916" y2="6.37504" gradientUnits="userSpaceOnUse">
<stop offset="0.586768" stop-color="#AC80FF" stop-opacity="0"/>
<stop offset="1" stop-color="#FFC7A3"/>
</linearGradient>
<clipPath id="clip0_4966_1780">
<rect width="24" height="24" fill="white"/>
</clipPath>
</defs>
</svg>