<svg id="logosandtypes_com" data-name="logosandtypes com" xmlns="http://www.w3.org/2000/svg" viewBox="0 0 150 150"><defs><style>.cls-1{fill:none;}.cls-2{fill:#31303a;}</style></defs><path class="cls-1" d="M0,.2H150v150H0Z" transform="translate(0 -0.2)"/><path class="cls-2" d="M75,9.67a66,66,0,1,1-66,66A66,66,0,0,1,75,9.67Zm0,71.22L91.82,97.71H58.18Zm22-22V92.52L80.19,75.7ZM53,92.52V58.88L69.81,75.7Zm49.07,12.25a3.61,3.61,0,0,0,2-2v0a3.64,3.64,0,0,0,.29-1.42V50a3.67,3.67,0,0,0-6.27-2.59L75,70.51,51.92,47.43A3.67,3.67,0,0,0,45.65,50v51.36a3.68,3.68,0,0,0,3.67,3.67h51.36a3.8,3.8,0,0,0,1.43-.29l0,0Z" transform="translate(0 -0.2)"/></svg>