<svg xmlns="http://www.w3.org/2000/svg" viewBox="0 0 24 24"><g fill="none"><path fill="url(#SVGsP8gIWFZ)" d="M8.814 6.774h.238c.313 0 .56.162.684.257c.147.11.29.247.418.394c.266.286.552.675.837 1.094c.332.494.68 1.06.998 1.616q.445-.759.922-1.498c.285-.427.57-.84.841-1.155a3.6 3.6 0 0 1 .418-.427c.12-.09.376-.28.713-.28c.252 0 .452.109.552.17c.118.076.232.167.332.262c.195.19.41.437.628.727c.442.575.955 1.374 1.454 2.281c.18.324.357.675.532 1.032a11 11 0 0 0 1.607-.428a.743.743 0 0 1 .965.437a.767.767 0 0 1-.437.98c-.447.166-.97.308-1.502.427a14.3 14.3 0 0 1 1.021 3.731a.752.752 0 0 1-1.487.162a13.3 13.3 0 0 0-1.046-3.617c-.404.062-.765.11-1.046.147l-.18.024a.747.747 0 0 1-.841-.651a.757.757 0 0 1 .641-.851l.157-.02l.599-.08l-.295-.56a17 17 0 0 0-1.326-2.092a8 8 0 0 0-.323-.39a11 11 0 0 0-.727 1.013c-.5.76-1.027 1.658-1.412 2.324l-.1.17a.794.794 0 0 1-1.397-.047A26 26 0 0 0 9.75 9.374a9 9 0 0 0-.675-.903c-.741.68-1.416 1.716-1.991 2.918c.285.057.532.1.727.129a.75.75 0 0 1 .642.85a.75.75 0 0 1-.842.652a17 17 0 0 1-1.13-.21a20 20 0 0 0-1.037 3.784a.75.75 0 0 1-.855.627a.76.76 0 0 1-.623-.865a21.4 21.4 0 0 1 1.036-3.878l-1.497-.371a.76.76 0 0 1 .366-1.469c.447.114 1.07.271 1.71.419c.742-1.635 1.75-3.242 3.043-4.15l.19-.137z"/><defs><linearGradient id="SVGsP8gIWFZ" x1="5.96" x2="12.318" y1="8.411" y2="19.016" gradientUnits="userSpaceOnUse"><stop stop-color="#6df1b5"/><stop offset="1" stop-color="#2dd8e0"/></linearGradient></defs></g></svg>