<svg xmlns="http://www.w3.org/2000/svg" viewBox="0 0 335.85 81"><defs><style>.cls-1{fill:#fff;}.cls-2{fill:#bc0022;}.cls-3{fill:#041e42;}</style></defs><title>MLBTV-19-ondark-RGB</title><g id="Layer_2" data-name="Layer 2"><g id="Artwork"><path class="cls-1" d="M321.54,0H12.22A12.3,12.3,0,0,0,3.56,3.52,12.15,12.15,0,0,0,0,12.23v54.5a12.1,12.1,0,0,0,3.54,8.68A12.25,12.25,0,0,0,12.22,79H321.54a12.25,12.25,0,0,0,12.19-12.27V12.23A12.14,12.14,0,0,0,321.54,0Z"/><path class="cls-2" d="M329.44,12.23a7.84,7.84,0,0,0-7.9-7.94H287.41L307,37l1.81.23,1.09,1.49v1.4l1.23.26,1.13,1.55v1.35l1.29.22,1.28,1.41V48A21.16,21.16,0,0,0,320,51.5c1.73.67,1.92,3.41,3,4.9,1.3,2.15,3.09,3,2.71,4.22-.88,3.21-4.17,8.63-7.23,8.89H306.35v5.2h15.19a7.93,7.93,0,0,0,7.9-8V12.23"/><path class="cls-3" d="M246,69.56h-5.88c0-14.66,5-22.77,10.89-24.38.82-.15.43-4.16-.6-5.37,0,0-2.88,0-3.49,0s-.23-1-.23-1l2.78-5.94L249,31.17H238.82l8.45-5.9c.39-15.57,16.35-16.78,26-10.35C279,18.71,279.4,26.21,279,31.4c-.08.33-1.49.11-1.49.11s-1,5.68,1.57,5.68h11.23c4.58-.18,9,2.92,9,2.92l1.08-3.93L275.75,4.29H12.22a8.08,8.08,0,0,0-5.66,2.3,7.94,7.94,0,0,0-2.27,5.64v54.5a7.85,7.85,0,0,0,2.27,5.63,8,8,0,0,0,5.66,2.34H249c-1.21-2.08-2.6-4.45-3-5.14"/><path class="cls-1" d="M334.74,78.35c0-.61-.36-.7-.88-.7h-1.12v2.28h.48V79h.39l.53.91h.54l-.55-.91a.6.6,0,0,0,.61-.67m-.88.26h-.64v-.56h.53c.23,0,.52,0,.52.26s-.14.3-.41.3"/><path class="cls-1" d="M333.66,76.6a2.2,2.2,0,1,0,2.19,2.21,2.17,2.17,0,0,0-2.19-2.21m0,3.92a1.72,1.72,0,1,1,1.72-1.71,1.69,1.69,0,0,1-1.72,1.71"/><path class="cls-1" d="M141.75,38c2.41-1.29,4.7-5,4.7-8.39,0-7-5.93-12.62-14.32-12.62H111.24V62.8h21.3c8.45,0,15.78-4.45,15.78-13.61C148.32,43.67,145.92,40,141.75,38Zm-21.24-3.12V25.66h12.06a4.63,4.63,0,0,1,0,9.26Zm0,19.26V43.32H133.1a5.43,5.43,0,1,1,0,10.86Z"/><polygon class="cls-1" points="57.19 17.03 42.32 41.87 27.46 17.03 18.2 17.03 18.2 62.8 27.59 62.8 27.59 35.48 39.75 55.81 44.89 55.81 57.06 35.48 57.06 62.8 66.44 62.8 66.44 17.03 57.19 17.03"/><polygon class="cls-1" points="83.46 17.03 74.08 17.03 74.08 62.8 104.43 62.8 104.43 53.53 83.46 53.53 83.46 17.03"/><path class="cls-1" d="M158.89,52.31a5.53,5.53,0,1,0,5.53,5.53A5.53,5.53,0,0,0,158.89,52.31Z"/><path class="cls-1" d="M173.25,37.65h-10V29.49h29.43v8.16H182.57V63.1h-9.32Z"/><path class="cls-1" d="M195.72,29.49h10.37l7.63,21.27,7.68-21.27h10.18L217.94,63.34H209.3Z"/></g></g></svg>