<svg xmlns="http://www.w3.org/2000/svg" viewBox="0 0 24 24"><g fill="none"><path fill="#c5e2e6" d="M17.192 17.376a7 7 0 0 1-1.777.652a7.6 7.6 0 0 0 .292-2.092c0-4.038-3.15-7.312-7.03-7.312c-.495 0-.98.056-1.446.158c.866-3.026 3.555-5.22 6.738-5.22C17.85 3.562 21 6.836 21 10.874a7.45 7.45 0 0 1-1.704 4.77a1.406 1.406 0 0 0-2.104 1.726z"/><path fill="#a8d3d9" d="m18.615 5.39l-5.174 5.175a6.86 6.86 0 0 0-6.21-1.783c.866-3.026 3.555-5.22 6.738-5.22c1.783 0 3.409.692 4.646 1.828"/><path fill="#8ebac3" d="M13.405 9.185a1.969 1.969 0 1 0 0-3.937a1.969 1.969 0 0 0 0 3.937M9.47 8.06a.844.844 0 1 0 0-1.687a.844.844 0 0 0 0 1.687"/><path fill="#a8d3d9" d="M17.063 10.873a1.125 1.125 0 1 0 0-2.25a1.125 1.125 0 0 0 0 2.25m-.563 2.813a.563.563 0 1 0 0-1.125a.563.563 0 0 0 0 1.125"/><path fill="#ff3e87" d="M11.949 19.76a5.15 5.15 0 0 0 2.396-4.364a5.09 5.09 0 0 0-3.097-4.725a5.1 5.1 0 0 0-1.943-.404c-1.282 0-2.576.646-3.6 1.625c.54.338 1.221.805 1.463 1.046a3.63 3.63 0 0 0-3.094 2.858c.473-.107 1.53-.209 1.935.219c-.332.534-1.4 2.126-3.009 4.213c.945.281 3.29.32 5.13-1.828c.135.326.242 1.181-.405 1.985c.776.18 2.604 0 3.74-2.16c.085.35.259.99.484 1.542z"/></g></svg>