<svg xmlns="http://www.w3.org/2000/svg" viewBox="0 0 24 24"><g fill="none"><path fill="#181b1e" d="M4.856 14.786v-.119c.148-.007.219-.018.219-.204v-1.652l-.665 1.975h-.193a85 85 0 0 0-.668-2.004v1.34c0 .26.049.538.371.538v.126H3v-.126c.334-.019.371-.223.371-.52v-1.099c0-.23-.148-.341-.371-.356v-.126h1.01l.434 1.485l.441-1.21q.045-.11.067-.275h.943v.119c-.141.015-.297.026-.297.196v1.574c0 .163.163.182.297.197v.14zm2.828-.074a.7.7 0 0 1-.305.074c-.193 0-.248-.063-.282-.2H7.09c-.123.137-.334.2-.52.2c-.208 0-.37-.149-.37-.356c0-.401.582-.468.882-.576v-.133c0-.2-.126-.297-.252-.297a.26.26 0 0 0-.163.048c0 .063.044.126.044.193c0 .111-.074.175-.23.175c-.148 0-.23-.071-.23-.205c0-.248.405-.334.594-.334c.223 0 .386.037.475.112c.085.081.134.2.134.356v.66c0 .16.081.171.215.171zm-.602-.724c-.185.063-.434.156-.434.375q-.001.207.16.208c.074 0 .223-.037.274-.108zm2.042.798v-.112c.111 0 .185-.037.185-.152v-.683c0-.2-.052-.304-.185-.304c-.186 0-.483.06-.557.186v.78c0 .118.074.155.186.173v.112h-.769v-.112c.112-.007.212-.03.212-.159v-.846c0-.119-.074-.19-.234-.204v-.104l.583-.06l.022.022v.234h.007c.141-.148.453-.256.743-.256s.363.204.363.483v.723c0 .123.075.156.186.167v.112zm11.134 0v-.112c.111 0 .185-.037.185-.152v-.683c0-.2-.052-.304-.185-.304c-.186 0-.483.06-.557.186v.78c0 .118.074.155.186.173v.112h-.769v-.112c.112-.007.212-.03.212-.159v-.846c0-.119-.074-.19-.234-.204v-.104l.583-.06l.022.022v.234h.008c.14-.148.452-.256.742-.256s.363.204.363.483v.723c0 .123.075.156.186.167v.112zm-8.722-.386a.76.76 0 0 1-.686.386c-.253 0-.453-.074-.587-.2a.73.73 0 0 1-.211-.55a.744.744 0 0 1 .764-.735c.353 0 .72.216.72.605v.138h-1.113c0 .393.285.549.59.549c.163 0 .297-.085.415-.26zm-.371-.534c0-.297-.23-.457-.371-.457c-.156 0-.364.148-.371.457zm4.825.33q-.311.59-1.017.59c-.646 0-1.21-.416-1.21-1.095c0-.694.597-1.132 1.258-1.132q.335 0 .62.137l.1-.085h.141l.015.772h-.137q-.13-.351-.294-.52a.56.56 0 0 0-.419-.167c-.397 0-.727.323-.727.943c0 .457.274.928.801.928c.29 0 .538-.149.735-.453zm-3.222.49c-.16.063-.3.1-.434.1c-.278 0-.427-.137-.427-.416v-.883h-.252V13.3h.252v-.37h.371v.37h.371v.186h-.37v.772c0 .148.088.334.278.334c.074 0 .14-.008.196-.015l.015.111z"/><path fill="#38a632" d="m16.906 10.703l.508.453l.639-.249l-.275.62l.438.523l-.68-.07l-.37.579l-.141-.664l-.665-.168l.594-.345z"/><path fill="#b2e0af" d="m15.262 9.22l.416.545l.683-.119l-.397.546l.323.597l-.657-.204l-.494.49l-.007-.668l-.627-.305l.66-.211l.096-.672z"/><path fill="#a4e3a0" d="m13.306 9.218l.327.26l.364-.182l-.142.393l.279.297l-.408-.015l-.197.36l-.108-.397l-.4-.085l.337-.223l-.052-.412z"/><path fill="#8fe68b" d="m12.093 9.59l.223.17l.24-.11l-.096.252l.19.196l-.275-.007l-.13.241l-.074-.267l-.264-.052l.223-.149z"/><path fill="#181b1e" d="M17.088 14.786a.715.715 0 0 1-.728-.739c0-.43.305-.746.743-.746c.43 0 .742.297.742.732c0 .441-.32.753-.757.753m.01-1.373c-.18 0-.366.2-.366.605c0 .185.089.645.37.645c.186 0 .372-.211.372-.638c-.008-.405-.193-.609-.371-.609zm1.267-.323c-.134 0-.223-.137-.223-.26s.081-.27.215-.27c.141 0 .23.14.23.266c0 .127-.085.26-.223.26zm-.327 1.58c.074 0 .122-.021.145-.044a.18.18 0 0 0 .033-.111v-.872q0-.17-.2-.204v-.1l.556-.038l.015.022v1.18q-.001.072.037.116c.019.03.067.044.134.06v.107h-.72z"/></g></svg>