<svg data-name="Layer 1" version="1.1" viewBox="0 0 128 128" xmlns="http://www.w3.org/2000/svg">
 <defs>
  <style>.cls-1 {
        fill: #d00000;
      }

      .cls-1, .cls-2, .cls-3, .cls-4, .cls-5, .cls-6, .cls-7 {
        stroke-width: 0px;
      }

      .cls-2 {
        fill: #28c6ff;
      }

      .cls-4 {
        fill: #16d316;
      }

      .cls-5 {
        fill: #18a000;
      }

      .cls-6 {
        fill: #ff3627;
      }

      .cls-7 {
        fill: #0092d3;
      }</style>
 </defs>
 <g data-name="Layer 1">
  <path id="Vector" class="cls-2" d="m69.382 65.306-13.696 24.455c-0.97565 1.9566-3.2628 3.2628-5.5447 3.2628h-27.718c-1.3062 0-2.6071-0.98098-3.2628-1.9566l-14.672-25.436c-0.65044-0.98098-0.65044-2.6071 0-3.9133l14.347-25.436s0.97565-1.9566 3.9133-1.9566h28.369c1.3062 0 2.6071 0.98098 3.2628 1.9566l14.672 25.436c0.65044 1.3062 0.65044 2.6071 0.32522 3.5881z"/>
  <path class="cls-7" d="m50.146 93.024h-28.043c-0.65044 0-1.9566-0.65044-1.9566-0.65044l16.629-28.699h32.607v0.98098c0 0.65044-0.32522 0.98098-0.32522 0.98098l-14.022 24.455c0.32522 0-1.6314 2.9323-4.8889 2.9323z" data-name="Vector 2"/>
  <path class="cls-6" d="m123.52 97.588-13.696 24.455c-0.98098 1.9566-3.2628 3.2628-5.5447 3.2628h-27.393c-1.3062 0-2.6071-0.97566-3.2628-1.9566l-14.672-25.436c-0.65044-0.97565-0.65044-2.6071 0-3.9133l14.347-25.436s0.98098-1.9566 3.9133-1.9566h28.369c1.3062 0 2.6071 0.98098 3.2628 1.9566l14.672 25.436c0.65044 0.98098 0.65044 2.6071 0 3.5881z" data-name="Vector 3"/>
  <path class="cls-1" d="m104.6 125.31h-28.043c-0.65044 0-1.9566-0.65044-1.9566-0.65044l16.629-28.694h32.612v0.97565c0 0.65044-0.32522 0.98098-0.32522 0.98098l-14.022 24.455c0.32522 0-1.6314 2.9323-4.8889 2.9323z" data-name="Vector 4"/>
  <path class="cls-4" d="m123.52 34-13.696 24.455c-0.98098 1.9566-3.2628 3.2628-5.5447 3.2628h-27.393c-1.3062 0-2.6071-0.98098-3.2628-1.9566l-14.672-25.762c-0.65044-0.98098-0.65044-2.6071 0-3.9133l14.347-25.436s0.98098-1.9566 3.9133-1.9566h28.369c1.3062 0 2.6071 0.97565 3.2628 1.9566l14.672 25.436c0.65044 1.3062 0.65044 2.6071 0 3.9133z" data-name="Vector 5"/>
  <path class="cls-5" d="m104.6 61.718h-28.043c-0.65044 0-1.9566-0.65044-1.9566-0.65044l16.629-28.699h32.612v0.98098c0 0.65044-0.32522 0.65044-0.32522 0.65044l-14.022 24.455c0.32522 0-1.6314 3.2628-4.8889 3.2628z" data-name="Vector 6"/>
 </g>
</svg>
