<svg id="Layer_2" data-name="Layer 2" xmlns="http://www.w3.org/2000/svg" viewBox="0 0 615.94 152.98"><defs><style> .cls-1 { fill-rule: evenodd; } .cls-1, .cls-2 { fill: #0357ee; } .cls-1, .cls-2, .cls-3 { stroke-width: 0px; } .cls-3 { fill: #fff; } </style></defs><g id="Layer_1-2" data-name="Layer 1"><g><g><path class="cls-2" d="M77.27,152.98h-.55c-35.69-.09-59.61-7.49-64.57-12.06C6.9,136.26,0,112.13,0,76.49S6.9,16.72,12.14,12.06C17.11,7.49,41.12.09,76.72,0h.55c35.69.09,59.61,7.49,64.57,12.06,5.24,4.66,12.14,28.88,12.14,64.43s-6.9,59.77-12.14,64.43c-4.97,4.66-28.89,12.06-64.57,12.06Z"/><path class="cls-3" d="M111.19,80.89l-2.87-34.55h-17.31s-13.19,26.6-14.35,30.22h-.18l-13.9-30.22h-17.4l-2.87,29.96-2.42,30.4h10.58c4.57,0,6.37-1.94,6.73-6.72,0,0,1.8-27.84,1.53-31.9h.18l.54,1.86c.72,2.47,10.58,26.24,10.58,26.24h13.01s9.87-23.42,11.12-28.1h.18l1.53,31.9c.36,4.77,2.24,6.72,6.73,6.72h10.58l-1.97-25.8h0Z"/></g><g><path class="cls-2" d="M556.93,104.19h-13.54v-40.37l7.36-.04c1.83,0,3.21.42,4.15,1.26.99.79,1.49,1.89,1.49,3.3v.55l-.08.94h.16c2.77-4.66,7.02-6.99,12.76-6.99,9.66,0,14.48,5.05,14.48,15.14v26.21h-7.83c-1.98,0-3.45-.44-4.39-1.33-.89-.94-1.33-2.4-1.33-4.4v-17.97c0-3.56-1.49-5.34-4.46-5.34-3.96,0-6.63,1.94-7.99,5.81-.52,1.41-.78,3.19-.78,5.34v17.89h0Z"/><path class="cls-1" d="M472.1,84.1c0-6.28,2.16-11.38,6.5-15.3,4.33-3.97,9.73-5.96,16.21-5.96s11.95,1.99,16.28,5.96c4.39,3.93,6.58,9.03,6.58,15.3s-2.19,11.3-6.58,15.22c-4.33,3.87-9.73,5.81-16.2,5.81s-11.85-1.93-16.28-5.81c-4.33-3.93-6.5-9-6.5-15.22ZM485.73,84.1c0,2.87.86,5.23,2.59,7.06,1.78,1.78,3.96,2.67,6.58,2.67s4.77-.89,6.5-2.67c1.78-1.83,2.66-4.19,2.66-7.06s-.89-5.31-2.66-7.14c-1.72-1.88-3.89-2.83-6.5-2.83s-4.8.94-6.58,2.83c-1.72,1.83-2.59,4.21-2.59,7.14Z"/><path class="cls-1" d="M425.57,119.89h13.54v-14.76c0-1.04-.05-2.2-.16-3.46h.16l1.1.86c.84.63,2.12,1.2,3.84,1.73,1.78.57,3.55.86,5.33.86,5.43,0,9.92-1.93,13.47-5.81,3.55-3.87,5.33-8.97,5.33-15.3s-1.67-11.49-5.01-15.3c-3.29-3.93-7.67-5.89-13.16-5.89-2.56,0-4.83.44-6.81,1.33-1.98.89-3.37,1.73-4.15,2.51-.73.73-1.1,1.17-1.1,1.33h-.16v-.7c0-1.04-.44-1.88-1.33-2.51-.84-.68-2.14-1.02-3.91-1.02h-7.18l.21,10.83v45.28ZM440.83,91.16c-1.41-1.88-2.12-4.19-2.12-6.9,0-3.19.73-5.65,2.19-7.37,1.46-1.73,3.37-2.59,5.71-2.59s4.25.91,5.71,2.74c1.46,1.83,2.19,4.24,2.19,7.22s-.75,5.29-2.27,7.06c-1.46,1.73-3.34,2.59-5.64,2.59s-4.33-.91-5.8-2.74h0Z"/><path class="cls-1" d="M379.66,83.94c0-6.07,1.91-11.09,5.71-15.07,3.86-4.03,8.95-6.04,15.26-6.04,5.8,0,10.33,1.83,13.63,5.49,3.34,3.56,5.01,8.24,5.01,14.04l-.31,4.08h-25.45c.47,2.36,1.54,4.19,3.21,5.49,1.72,1.26,3.78,1.88,6.18,1.88,1.56,0,3.24-.31,5.01-.94,1.78-.68,3.21-1.41,4.31-2.2l1.41-1.1,5.4,9.1c-.47.47-1.46,1.23-2.98,2.27-1.56.94-2.77,1.6-3.6,1.96-3.5,1.47-7.05,2.2-10.64,2.2-6.78,0-12.19-2.09-16.21-6.28-3.96-4.13-5.95-9.1-5.95-14.91ZM393.9,78.21h11.51c0-1.36-.47-2.56-1.41-3.61-.94-1.04-2.06-1.57-3.37-1.57-3.5,0-5.74,1.73-6.73,5.18Z"/><path class="cls-2" d="M360.5,98.47c0,1.99.44,3.46,1.33,4.4.94.89,2.4,1.33,4.38,1.33h7.83v-34.69c0-1.99-.47-3.43-1.41-4.31-.89-.94-2.32-1.41-4.31-1.41h-7.83v34.69h0Z"/><path class="cls-2" d="M327.32,104.19h-13.54v-27.31c0-1.15,0-1.58,0-1.58v-11.53h7.35c1.83,0,3.21.42,4.15,1.26.99.79,1.49,1.89,1.49,3.3v.55l-.08.94h.16c2.77-4.66,7.02-6.99,12.76-6.99,9.66,0,14.48,5.05,14.48,15.14v14.17c0,.12,0,.24,0,.51-.1,4.44-.04,11.53-.04,11.53h-7.79c-1.98,0-3.44-.44-4.38-1.33-.89-.94-1.33-2.4-1.33-4.4v-17.97c0-3.56-1.49-5.34-4.46-5.34-3.96,0-6.63,1.93-7.99,5.81-.52,1.41-.78,3.19-.78,5.34v17.89h0Z"/><path class="cls-1" d="M263.85,84.1c0-6.28,2.16-11.38,6.5-15.3,4.33-3.97,9.73-5.96,16.21-5.96s11.95,1.99,16.28,5.96c4.39,3.93,6.58,9.03,6.58,15.3s-2.19,11.3-6.58,15.22c-4.33,3.87-9.73,5.81-16.21,5.81s-11.85-1.93-16.28-5.81c-4.33-3.93-6.5-9-6.5-15.22ZM277.47,84.1c0,2.87.87,5.23,2.59,7.06,1.78,1.78,3.97,2.67,6.58,2.67s4.78-.89,6.5-2.67c1.78-1.83,2.66-4.19,2.66-7.06s-.89-5.31-2.66-7.14c-1.72-1.88-3.89-2.83-6.5-2.83s-4.8.94-6.58,2.83c-1.72,1.83-2.59,4.21-2.59,7.14Z"/><path class="cls-2" d="M256.23,48.08l2.63,32.07,1.81,23.95h-9.7c-4.11,0-5.84-1.8-6.17-6.23l-1.39-29.61h-.16c-1.15,4.35-10.19,26.08-10.19,26.08h-11.92s-9.05-22.07-9.7-24.37l-.49-1.72h-.16c.26,3.77-1.39,29.61-1.39,29.61-.34,4.42-1.98,6.23-6.17,6.23h-9.71l2.21-28.21,2.63-27.8h15.95l12.74,28.05h.16c1.07-3.35,13.16-28.05,13.16-28.05h15.87Z"/><path class="cls-2" d="M593.39,74.38v14.91c0,5.6,2.32,9.83,6.97,12.71,3.24,1.73,7.2,2.59,11.9,2.59,1.46,0,2.69-.08,3.68-.24v-11.77l-1.8.08c-4.8,0-7.2-1.73-7.2-5.18v-13.1h8.46v-10.59h-8.46v-10.91h-13.16v10.91h-5.56v10.59h5.17Z"/><path class="cls-2" d="M373.95,53.33c0,1.44-.23,2.84-.65,4.15-.3.91-1.03,1.64-1.94,1.93-1.31.42-2.7.64-4.13.64s-2.83-.23-4.14-.64c-.91-.29-1.64-1.02-1.94-1.93-.42-1.31-.65-2.71-.65-4.15s.23-2.84.65-4.15c.3-.91,1.03-1.64,1.94-1.93,1.31-.42,2.7-.64,4.14-.64s2.83.23,4.13.64c.91.29,1.64,1.02,1.94,1.93.42,1.31.65,2.71.65,4.15Z"/><path class="cls-2" d="M522.98,98.47c0,1.99.44,3.46,1.33,4.4.94.89,2.4,1.33,4.38,1.33h7.83v-34.69c0-1.99-.47-3.43-1.41-4.31-.89-.94-2.32-1.41-4.31-1.41h-7.83v34.69h0Z"/><path class="cls-2" d="M536.44,53.33c0,1.44-.23,2.84-.65,4.15-.3.91-1.03,1.64-1.94,1.93-1.31.42-2.7.64-4.13.64s-2.83-.23-4.14-.64c-.91-.29-1.64-1.02-1.94-1.93-.42-1.31-.65-2.71-.65-4.15s.23-2.84.65-4.15c.3-.91,1.03-1.64,1.94-1.93,1.31-.42,2.7-.64,4.14-.64s2.83.23,4.13.64c.91.29,1.64,1.02,1.94,1.93.42,1.31.65,2.71.65,4.15Z"/></g></g></g></svg>