<svg xmlns="http://www.w3.org/2000/svg" viewBox="0 0 24 24"><path fill="#fbda4f" d="M18.959 11.822q-.244 0-.472-.072l-.02-.006l-.055-.017a1 1 0 0 1-.148-.067l-.019-.01a1.6 1.6 0 0 1-.519-.428a1.496 1.496 0 0 1 .004-1.838c.172-.22.401-.39.662-.49l.026-.011a.7.7 0 0 1 .181-.056l.05-.008q.151-.03.31-.031c.63 0 1.157-.191 1.524-.552c.337-.335.513-.795.51-1.331V5H17.14v1.255q-.002.368 0 .734c0 .494-.286 1.169-.809 1.34c-.334.11-.748-.053-1.102-.013c-.292.033-.574.13-.822.284a1.92 1.92 0 0 0-.899 1.408a2.3 2.3 0 0 0 0 .507c.011.135.015.175-.033.31a1.44 1.44 0 0 1-.568.684c-.271.18-.583.278-.879.278h-.059c-.295 0-.606-.099-.878-.278a1.42 1.42 0 0 1-.567-.685a.57.57 0 0 1-.033-.309c.01-.12.024-.286-.002-.507A1.92 1.92 0 0 0 9.591 8.6a2 2 0 0 0-.82-.284c-.356-.04-.769.123-1.102.014c-.525-.172-.811-.847-.81-1.341V5H3.008v1.905c-.003.536.173.996.51 1.33c.367.362.893.553 1.524.553q.158 0 .312.03l.048.009a.8.8 0 0 1 .181.056l.026.01c.26.101.49.271.662.49c.422.541.424 1.297.004 1.839c-.14.178-.317.326-.52.429l-.017.01a1 1 0 0 1-.204.083l-.02.006q-.227.072-.472.072C3.82 11.822 3 12.558 3 13.654c0 .855.396 1.3.73 1.521c.407.27.899.347 1.37.39l.031.003c.125.016.231.041.352.084l.057.022l.011.003c.316.106.582.323.747.61c.093.162.157.375.181.598q.015.131.022.257l.017.208V19h3.826v-1.943a1.87 1.87 0 0 0-.594-1.374q-.043-.04-.076-.066l-.012-.011c-.415-.352-.954-.362-1.349-.369H8.31l-.184-.005l-.058-.009l-.127-.027l-.12-.036l-.13-.05a1.6 1.6 0 0 1-.37-.232l-.026-.02a1.52 1.52 0 0 1-.54-1.178c.001-.342.113-.667.324-.94c.204-.264.495-.461.818-.555c.327-.094.935-.096 1.23-.004c.535.167.916.65.945 1.199q.002.067-.002.148c-.005.162-.014.382.081.661c.268.777 1.01 1.3 1.849 1.304a1.96 1.96 0 0 0 1.849-1.304c.093-.279.086-.5.08-.66a1 1 0 0 1-.001-.15c.029-.549.409-1.03.944-1.198c.294-.092.904-.09 1.23.004c.324.094.613.291.819.556c.21.272.323.597.323.94a1.52 1.52 0 0 1-.54 1.176l-.025.021a1.6 1.6 0 0 1-.372.231l-.129.05l-.12.037l-.126.027l-.058.01l-.184.004h-.003c-.395.007-.934.017-1.348.369l-.013.01q-.033.027-.077.067l-.039.038a1.86 1.86 0 0 0-.554 1.336V19h3.824v-1.65l.019-.208q.006-.126.02-.257c.026-.223.09-.436.183-.598c.165-.287.43-.504.747-.61l.009-.003l.059-.022a1.6 1.6 0 0 1 .35-.084l.033-.003c.47-.043.961-.12 1.368-.39c.334-.222.732-.666.732-1.52c0-1.097-.82-1.833-2.041-1.833"/></svg>