<svg xmlns="http://www.w3.org/2000/svg" viewBox="0 0 24 24"><g fill="none"><path fill="#f7df53" d="M21 12a9 9 0 1 1-18 0a9 9 0 0 1 18 0"/><path fill="#8117c9" fill-rule="evenodd" d="M12 20.63a8.63 8.63 0 1 0 0-17.26a8.63 8.63 0 0 0 0 17.258m0 .37a9 9 0 1 0 0-18a9 9 0 0 0 0 18" clip-rule="evenodd"/><path fill="#440090" d="M19.57 12a7.57 7.57 0 1 1-15.139 0a7.57 7.57 0 0 1 15.14 0"/><path fill="#2f0065" d="M18.877 12a6.876 6.876 0 1 1-13.753 0a6.876 6.876 0 0 1 13.753 0"/><path fill="#030007" d="M18.115 11.999a6.114 6.114 0 1 1-12.228 0a6.114 6.114 0 0 1 12.228 0"/></g></svg>