<svg xmlns="http://www.w3.org/2000/svg" viewBox="0 0 24 24"><g fill="none"><path fill="#fff" d="M21 3H3v18h18z"/><path fill="url(#SVGecVMkeHq)" d="M3 3h18v18H3z"/><path fill="#003414" d="m7.323 14.046l.457-4.834l2.777-2.282l.337.26l.81 2.755l.463.135l1.019-1.88l2.137.225l1.424 5.888l-.566.235l-2.201-.07l.424-1.1l-.074-1.382l-.803.032l-.952 2.372l-1.964-.058l.63-1.305l-.797-.794l-.778.138l.148 1.993l-2.234.007z"/><path fill="#178729" d="m8.946 9.222l-.003.135c-.138.032-.296.08-.424.11c.147.295.022.051.443.077c-.138.851 1.456.578 1.119 1.311c.08.193.112.3.218.225c-.128.08-.234.129-.302-.029c-.074-.36-.302-.212.058.354c.257.38 2.95-.29 1.938.215c-.09.103-.048 0-.112.167c.562.122 1.632-1.555.485.248l-.424-.148c-.341-.097-.016.135.083.225c-.69.614 1.222.132-.858.71c-.103.03-.067-.058-.09.08c-.022.13-.01.113-.116.13c-.1.018-.132-.02-.373-.023c-.16.777-.642.437.004.553c.311.067 1.157.54 1.414.305c.174-.158.106-.048.235-.151l.019-.02l.02-.019c-.245-.19-.207.129-.628.155c-.167-.197-.215-.11.065-.274c-.039-.022 1.256-.739 1.404-1.18c-1.295.055-.675.071-.482-.32c.087-.178-.042-.033.187-.068c2.822-.466 3.011-1.524 1.263-1.36c-.408.039-1.286.8-.57-.026c.123-.096.1-.045.277-.205c.065-.013.055.096.07.128c.162-.07.02.007.142-.15c.235-.303.367-.071-.173-.226c-1.328-.366-.306.042-.09.257c-1.967.473-1.302.254-2.308.46c.058-.28 1.64-.759-.006-.569c.067-.032-.547-2.594-.547-2.597c0-.01-.186-.032-.183-.039c.11-.215-.248-.633.035-.73c-.55-.063.187.493-.247.743c-.19.139-.113.103-.235.077c-.466-.1-.183.248-.482.258c.048.536-.032 1.063-.826 1.211"/><path fill="#157416" d="M11.984 9.983c.026.039.016.071.016.071c0-.006-.007.01-.013.016c.315.44-.376-.003-.55.797c.778-.16.46-.19.406.129c.134.035 2.5-.437 3.278-.9c-.035.218-.032-.106.035.122l.01.032c.013.055.354.097.16-.157c0 .183.136-.756-.105-1.074c-.033-.035-.02-.038-.071-.064c.032-.026.135-.074.18-.097l-.183-.102c-.103-.033-.061-.023-.184-.013l.023.064c.003.135.058-.032-.02.09c-.353 0-1.937.106-2.015.1l.016.138s-.299-.148-.479.17c.473-.058.235.145.049.344c3.066-.145.913.129.08.473c-.064.028-.074-.023-.29-.017c-.121.004-.16.03-.202-.122z"/><path fill="#061709" d="m15.15 8.757l.18.103c-.196.106-.045 1.054.067 1.24c.103.052.074.113.074.113c.296.675-.02.656.408 1.054c-.128.036-.119.065-.176.174c-.049.08-.087.132-.145.15c.299.168.267-.044.276.28v.206c-.006.077.364 1.44.418 1.601c-.17.103-.305-.02-.392.1c.543-.055.386.003.52.372c-.285.065-.873.476-.15.27l-.026.152l.11-.03l1.651-.086c.222-.01.29.032.463-.097c-.173-.01-.225-.051-.334-.141c-.177-.141-.11-.09-.482-.193c-.936-.202-.553.132-.418-.64c-.177.206-.328.73-.527.142l-.007-.023c-.08-.298-.205-.626-.07-.883l.06-.142c-.205-.055-.23-.02-.311-.196l-.07-.16c.137-.059.07-.078.192-.178c.048.058.07.094.11.161c.06-.44.24-.257-.107-.482c.013-.148.02-.048-.022-.212c-.2.247-.228-.048-.264-.187c-.06-.253 0-.032.01-.314c.038-.9-.167-.18-.264-.997c-.077-.427.113-.337-.18-.504c.12-.344-.038-.132-.074-.377l-.019-.45l-.038-.134c-.145.038.051-.013-.103-.058c-.11-.032-.078-.016-.187-.007c.032.09-.019-.042-.042.164c-.022.183.049.135-.135.21z"/><path fill="#179737" d="M7.999 8.628c.321.135.218-.106.418.09c-.03.042-.071.129-.113.158c-.836.237 1.434-.065-.395.392c.144-.016.302.315-.045.16v.02l.01.083c.003.023.019.065.035.077c.045.042 1.327-.524 1.327-.524c.08-.093.026.023.016-.102c0-.03-.01-.032-.003-.065c.501-.192.456-.041.646-.041V8.68c-.19-.062-.257.045-.405-.12l.039-.05c.077-.14.022.173.016-.065l-.013-.16h.231c.042-.107.023-.142.01-.277c.299-.007.016-.354.482-.254c.804.173-.087-.89.482-.82l.09-.016l.106-.038c-.745-.071-.643.038-.954.09c-.155.025-.309.032-.463.077s-.306.09-.444.119c-.495.1-.868-.286-.938.893c-.007.103-.01.097.048.177c-.203.08-.238.132-.183.392m-1.34 4.497c.035.18.183.289.26.495c.045.115.019.109.087.202c-.09.074-.557.37-.698.47c-.228.138.154-.04-.093.109l.1.019l.334-.106c.193-.045.321.026.688.029l.24.042c.28.032.611 0 .891-.003c-.135-.03-.08-.09-.193-.104c-.141-.019.151-.022-.087.033c-.06.012-1.009-.151-.022-.29c-.074-.35.424-.06.498-.032c-.006-.013-.016-.048-.022-.042c-.386-.572-.974-.636-.958-.806l-.129-.061c.376-.097.167.032.405-.232a.4.4 0 0 0-.01-.087c.759.03.248-.292.177-.54c.322.078.177.12.47-.016c.372-.01.388-.356.356-.012v.051c.045 1.44.415.376.364.225c-.033-.096-.187-.096-.274-.119c.392-.119.44-.051.309-.386c.138-.077.225-.112.235-.215l-.213-.016c-.716.489-1.163.244-1.706-.495c.196-.045-.087-.016.138-.02c.064 0 .128.023.267-.022l-.078-.06c-.173-.133-.115-.113-.401-.213c-.032.177-.013.064-.052.151c-.128.29-.035.119-.041.286c-.007.138-.058.142-.078.183c-.16.386-.231 1.215-.34 1.652c.193.016-.026.023-.004.431c-.122-.045-.16-.231-.295-.389l-.129-.11z"/><path fill="#15671a" d="m14.759 10.395l-.161-.025c-.167.742.916.401.501.646c-.321.193-.01.199.225.09c.25-.122.032 0 .164-.013c-.257.27-.344.141-.43.103c0 .176-.042.15-.02.193c0 .01.039.05.045.064c-.91 0 .302.832-.389.408c-.312-.151-.28-.032-.501-.007c-.07-.064-.042.02-.042-.147c-.096-.084.036-.036-.119-.032c.013.144.016.106-.064.16c.427.11-.347.942.225.466c.061.106.074.498.119.582c.048.097-.042-.016.128-.051l.19.019c-.244.144-.2 0-.235.315c1.51-.267.489.18.949.43c.289-.302.192.017.41-.16c.126-.11.21-.129.04-.183c-.168-.058-.068.019-.065.032c-.119-.158-.032-.119.225-.183c.077-.023.08-.017.17-.017c-.09-.012-.16-.196-.138-.315c.026-.14-.15-.465-.15-.9c-.01-.32.019-.112-.277-.279c.058-.02.096-.07.141-.151l.032-.051c.071-.113.045-.094.148-.123c-.067-.06-.02-.086-.135-.128c-.106-.036-.16.022-.16-.148l.048-.312c.029-.144-.01-.116-.16-.466c0 0 .028-.061-.075-.112c-.15.032 0-.03-.032.193c-.17-.02-.18.028-.209-.074c-.067-.225-.415.17-.399.176"/><path fill="#072616" d="M12.289 14.339c-.096.17-.466.051-.691.067c-.534.042-.678-.115-.582.074a18 18 0 0 1 2.08.052l.405-.036c.562-.045 1.796.042 2.423.065c-.026-.129-1.523-.11-1.636-.129c0-.257.035-.119-.096-.636c.215-.058.138-.03.122 0c.026-.257.02-.013-.097-.203c-.173.016-.27.026-.321.168c-.051.15.077-.097-.026.122c.177-.036.097-.052.27 0a3 3 0 0 1-.154.305c-.257.344-.44.183-.65.119c-.118-.036-.054 0-.176-.061c.055-.409-.055-.489.447-.3c0 0-.409-.417-.071-1.031l.174-.498c.051-.084.057-.074.202-.084c.006.129.032.466-.026.534c.107.01.608-1.524.63-1.575c.065.006.155.042.168.045l.086.02c.078-.026-.025.006.078-.065c.144-.106.012-.039.157-.077c-.569-.093.334 0-.312.006c-.315 0-.758-1.118-.913.097c-.006.07-.032-.02 0 .08c-.7.087-1.157.868-1.334.871c-.038 0-.112.042-.212.061c0 0 .126.116.489.064l.398-.016c-.032.087-.01.151-.225.161l-.013.11c-.041.064-.16.07-.173.07l-.376-.029c.164.064.28.145.276.296c.145-.026.216-.016.322.06c-.309.252-.418.917-.643 1.293"/><path fill="#17a737" d="M12.826 8.116c.032.135-.007.2-.074.303c-.322.491-.193 1.05-.717 1.465c-.084.07-.016 0-.052.1h.142c.042.15.08.128.202.122c.216-.006.222.045.29.016c.82-.074 1.06-.675 1.208-.167c.17-.032.103-.051.244-.02l.068-.176l-.09-.045c-.106-.045-.273-.2-.28-.187c0 0-.135-.096-.16-.073c-.203.096-.241.376-.418.32c-.16-.054.093-.031-.158-.105c-.07-.023-.164 0-.202.07c-.129-.077-.135-.096-.29-.09c.65-.707.9-.915 1.855-.996c.318.563.579.048.752.103c.183-.074.113-.026.132-.209c.026-.206.08-.074.045-.16c.11-.013.077-.03.183 0c.16.048-.038.096.106.064l-.029-.142c-.466-.09-.867-.199-1.35-.25c-.128-.016-.225-.065-.334-.078l-.803.01c-.27.029-.013.016-.27.129z"/><path fill="#167728" fill-rule="evenodd" d="M14.218 13.594c.119.19.122-.058.096.199c.016-.026.113.026-.103.08c.084.322.078.164-.087.486c-.08.192.563.057.688.019c-.096.19-.147.103.38.1c.379-.084.636.08 1.012.093l.023-.151c-.701.199-.09-.097-.11-.184c-.032-.15-.048-.064-.096-.08c.11.013.122.032.186.032l.174-.038c-.322-.884-.73-.113-.129-.473l-.17-.472c.11 0 .016.019.042-.12c-.087 0-.093-.006-.174.017c-1.334.353-.684-.164-1.205-.068c-.096.02-.148.097-.354.129c.036-.296.229-.408.004-.306c-.01.007-.08.036-.084.026c-.02-.032-.174-.324-.193-.038c-.026.289.02-.087.125.225c.08.24-.051.315-.202.379c.193.103.193-.016.18.145z" clip-rule="evenodd"/><path fill="#061709" d="M9.716 11.003c.006.208-.065.363-.103.588l-.212.038c.038.174.016.036-.026.103l.212.016c-.023.286-.25-.07-.16.486l-.386.115c.09.02.244.026.276.12c.2.584-.759.32.34 1.905c-.144.003-.221-.032-.356-.016c-.228.029-.09.096-.27-.064c-.569.086-1.99-.074-2.382.019l-.334.106c1.135.058 2.115.032 3.224.045c.231 0 .443.01.678-.016c.312-.032.437.006.61-.023l.046.01c-.113-.177-.074-.032-.26-.096c-.457-.01-.672-.344-.756-.743a3 3 0 0 1-.003-1.038l.096-.026c-.038-.128 0-.353.016-.41c.03-.09.103-.313.174-.383c-.013-.065-.097.083-.045-.12c-.106-.118-.116-.16-.08-.314c-.103-.09-.094-.245-.213-.132c.058-.12.139-.02.08-.235a.3.3 0 0 0-.054-.09l-.193.058c-.003.064-.035-.02.016.055l.065.038z"/><path fill="#076825" d="M7.87 11.04c.016.031-.013-.014.202.16c-.138.042-.2.02-.267.02c-.225 0 .058-.026-.138.015c.309.421.579.482.97.833l.36-.164c.071-.045.11-.122.171-.145c.16-.064.418-.016.489-.411c.048-.174-.042-.032.064-.129c-.007-.225-.25-.469-.463-.469c-.058 0-.084 0-.138.013c-.097.029-.154.096-.216.183c-.334.47-.083-.051-.263.283c-.052-.039.026-.035-.122-.058c.16-.688-.142-.707.537-.633c.24.029.096 0 .23-.032c.113-.026.194.058.29-.08l.077-.13c-.086-.015-.144-.073-.286-.144l-.08.177c-.158-.042-.44-.058-.428-.164c.155-1.234-1.475 1.199-.99.874"/><path fill="#18b847" d="M7.755 9.823c.003.409-.148.106-.142.409c.003.417.064.122-.135.514l-.006.02l.1.108c.05-.045.186-.054.186-.054c.016 0 1.276-2.032 1.102-.656c0 .007-.022.032-.026.042c.161.045 1.479.051.45.302c-.131.032.013.058-.228.032c-1.758.232 0 .412-.08.662c-.055.103.482-.234.514-.17c.354.038.138-.064.148-.129c.37-.106.26-.128.34.052l.02.096c.064.16.17.11.302.03c-.064.044.142.07-.064.002c-.1-.032-.064-.019-.154-.225c.118-.26-1.141-1.08-1.318-1.041c1.064-1.07-.794-.151-.855-.209a.2.2 0 0 1-.036-.077c-.019-.18.444-.309.036-.264c1.456-.36.11.097.504-.55c-.196-.195-.096.046-.414-.09c-.036.007-.03-.05-.068.116c-.074.319-.183.63-.176 1.08"/><path fill="#045816" fill-rule="evenodd" d="M8.465 14.378c.106.058.475.003.565-.08c.18.16.039.09.267.064c.138-.02.215.016.36.013c-.222-.315.08-.016-.193-.203c-.106-.119-.299-.257-.183-.37c.084-.083.013-.469-.312-.16c-.106-.08-.045-.042-.103-.177c.412-.022.412-.06.36-.656c.17-.093-.051.052.084-.01c.016-.006.07-.054.09-.067c-.215-.022-.064-.006-.116-.067c-.186-.032-.013-.01-.09-.052c-.787-.414-.2 1.026-.24-.37v-.05l.015-.075c.003-.01.032-.064.032-.08c-.131.055-.074.023-.183.096c-.074.046-.344.161-.434.158c-.025 0-.01-.006-.09-.032l-.17-.039c.128.434.337.624-.572.858c.225.106.132.129.038.264c.241-.061.2-.141.27.093l.01.036l.43-.19l.27.16c-.118.014-.128.014-.224.04c-.045.015.527.546-.544.6c-.022 0-.01.257.229.08c-.01.29.205.11.244.116c.11.013.058.074.193.103z" clip-rule="evenodd"/><path fill="#05260a" d="M10.737 6.934c-.135.045-.077.035-.096.16c-.042.328.186.322.061.572l-.02.026c.078.064.139.077.174.183c.084.203.116.47.187.605c-.386.215.16.842.42 1.485c-.031.016-.23.128-.186.07c.097.087-.025.016.129.045c.051.01.074-.01.17.016c-.022.222-.177.331.193.087c.495-.328.02-.09.267-.299c-.328-.337.34-.652-.225-.546a1.9 1.9 0 0 0-.457-1.132c.132-.125.068-.032.08-.119c.033-.263-.166-.33-.243-.514l-.258-.694l-.106.038z"/><path fill="#045816" d="M10.014 11.307c-.036.154-.026.192.077.314c.16-.003.173-.054.263-.064c.106-.013.219.09.219.09c-.514.579.128.82.411.984c.283.16.72.192.875.225c-1.312 1.462.472-.457-.097-.987c.8-.029.151.46 1.06-.312l.236-.16c-.135-.078-.071 0-.097-.155l-.196.064c-.042.02.074.126-.177.058c-.25-.064.02-.07-.15-.08c-.149-.01-.113.087-.136.19l.267.054c-.65.412-.932.274-.321-.032a2 2 0 0 0-.123-.116c-.01 0-.016 0-.019.013c-.787.122-.08-.202-.427.225c-.405-.402.012-.205-.37.007l-.032.019l-.116.064c.052-.238-.964.055-.437-.177c.742-.167.096-.122-.215-.057c-.151.054.154.025-.08-.042c-.149-.042-.184.138-.345.02l-.028-.046l-.01-.022c-.052-.1.1.025-.032-.078"/><path fill="#155819" d="m10.753 14.088l-.007.023l-.138.231c.19.064.151-.083.263.093l-.045-.01c.052.068.058.046.187.055c-.097-.19.051-.032.585-.074c.225-.016.591.103.694-.067c.103-.177-.128-.151.17-.296l-.096-.106c.322-.029.244-.215.244-.231l.01-.068c.016-.093.116-.244.225-.357c-.116-.032-.145-.022-.241-.07c.074-.065.145-.071.225-.074l-.003-.039l-.25.01c-.197-.026-.496.157-.676.283c-.202.141-.389.058-.18.167l-.231.135c.115.058.09.048.164.138c.112-.006.867-.363.607-.135c-.096.08-.151.074-.257.17l-.013.01l-.087.064c-.353.248-.096-.167-.373-.157c-1.279.045.878-.042-.742-.167c.01.01.029.016.038.019l.09.048c.068.042.033-.096.042.19c-.106.106-.093 0-.205.218z"/><path fill="#139247" fill-rule="evenodd" d="M10.095 11.62c-.055.203.032.058.044.119c-.07.07-.144.29-.173.386c-.241.81.842.707 1.048.726l-.016-.119c-.084-.704.247-.504-.026-.37c-.566.239.257.097.283-.199c.18.148.238.013.302-.06c-.154-.027.193.044-.09-.12a.31.31 0 0 0-.26-.01c-.168.058-1.077.418-.248-.102c.084-.106-.02.09.07-.11c-.404-.15-.353.078-.366.145l-.401-.11c-.062-.08.106-.018.199-.063c.119-.055.022.016.116-.087c0 0-.116-.103-.222-.09c-.09.01-.103.06-.26.064" clip-rule="evenodd"/><path fill="#003414" d="m7.323 14.716l.457 4.265L10.557 21l.337-.228l.81-2.433l.463-.12l1.019 1.662l2.137-.196l1.424-5.207l-.566-.202l-2.201.064l.424.968l-.074 1.221l-.803-.032l-.952-2.09l-1.964.049l.63 1.15l-.797.708l-.778-.129l.148-1.758l-2.234-.007l-.257.3z"/><path fill="#178729" d="m8.946 18.975l-.003-.12c-.138-.028-.296-.073-.424-.096c.147-.263.022-.045.443-.067c-.138-.752 1.456-.514 1.119-1.16c.08-.17.112-.264.218-.197c-.128-.073-.234-.115-.302.023c-.074.321-.302.19.058-.312c.257-.334 2.95.257 1.938-.19c-.09-.093-.048 0-.112-.147c.562-.11 1.632 1.375.485-.219l-.424.129c-.341.09-.016-.116.083-.2c-.69-.54 1.222-.112-.858-.623c-.103-.026-.067.048-.09-.07c-.022-.117-.01-.1-.116-.117c-.1-.015-.132.02-.373.023c-.16-.688-.642-.386.004-.492c.311-.058 1.157-.476 1.414-.267c.174.139.106.042.235.132l.019.02l.02.016c-.245.167-.207-.113-.628-.135c-.167.173-.215.096.065.24c-.039.017 1.256.65 1.404 1.042c-1.295-.048-.675-.064-.482.286c.087.151-.042.026.187.058c2.822.411 3.011 1.343 1.263 1.199c-.408-.032-1.286-.707-.57.022c.123.084.1.042.277.184c.065.01.055-.087.07-.116c.162.064.02-.003.142.135c.235.267.367.064-.173.193c-1.328.328-.306-.032-.09-.225c-1.967-.418-1.302-.219-2.308-.402c.058.247 1.64.669-.006.501c.067.032-.547 2.292-.547 2.292c0 .01-.186.029-.183.032c.11.193-.248.563.035.646c-.55.061.187-.434-.247-.655c-.19-.123-.113-.09-.235-.065c-.466.087-.183-.218-.482-.225c.048-.475-.032-.945-.826-1.073"/><path fill="#061709" d="m15.15 19.386l.18-.09c-.196-.097-.045-.932.067-1.096c.103-.045.074-.1.074-.1c.296-.595-.02-.579.408-.932c-.128-.032-.119-.055-.176-.154c-.049-.068-.087-.116-.145-.132c.299-.148.267.038.276-.248v-.183c-.006-.064.364-1.27.418-1.41c-.17-.09-.305.015-.392-.088c.543.046.386-.003.52-.33c-.285-.055-.873-.418-.15-.239l-.026-.135l.11.026l1.651.077c.222.01.29-.032.463.084a.5.5 0 0 0-.334.129c-.177.122-.11.077-.482.17c-.936.18-.553-.119-.418.562c-.177-.18-.328-.643-.527-.125l-.007.022c-.08.264-.205.553-.07.781l.06.123c-.205.048-.23.019-.311.176l-.07.139c.137.054.07.07.192.154a.7.7 0 0 0 .11-.138c.06.389.24.225-.107.424c.013.128.02.042-.022.186c-.2-.218-.228.045-.264.164c-.06.225 0 .032.01.28c.038.797-.167.16-.264.88c-.077.377.113.3-.18.444c.12.306-.038.12-.074.335l-.019.398l-.038.119c-.145-.032.051.01-.103.051c-.11.026-.078.013-.187 0c.032-.073-.019.042-.042-.141c-.022-.16.049-.119-.135-.183z"/><path fill="#179737" d="M6.658 15.526c.036-.158.184-.25.26-.434c.046-.103.02-.097.088-.18c-.09-.064-.557-.325-.698-.412c-.228-.125.154.033-.093-.1l.1-.015l.334.093c.193.042.321-.022.688-.022l.24-.04c.28-.028.611 0 .891 0c-.135.027-.08.081-.193.097c-.141.013.151.016-.087-.032c-.06-.01-1.009.132-.022.257c-.074.309.424.052.498.026c-.006.013-.016.045-.022.039c-.386.504-.974.562-.958.71l-.129.055c.376.086.167-.026.405.205a.3.3 0 0 1-.01.078c.759-.026.248.257.177.475c.322-.07.177-.103.47.013c.372.01.388.318.356.01v-.042c.045-1.273.415-.334.364-.2c-.033.084-.187.087-.274.103c.392.11.44.049.309.341c.138.07.225.103.235.193l-.213.016c-.716-.434-1.163-.219-1.706.437c.196.036-.087.013.138.013c.064 0 .128-.02.267.02l-.078.054c-.173.119-.115.096-.401.193c-.032-.16-.013-.064-.052-.138c-.128-.258-.035-.106-.041-.251c-.007-.122-.058-.126-.078-.164c-.16-.337-.231-1.073-.34-1.456c.193-.016-.026-.023-.004-.383c-.122.04-.16.203-.295.344l-.129.097z"/><path fill="#15671a" d="m14.759 17.936l-.161.026c-.167-.66.916-.357.501-.572c-.321-.168-.01-.174.225-.078c.25.107.032 0 .164.01c-.257-.238-.344-.128-.43-.093c0-.154-.042-.129-.02-.17c0-.007.039-.042.045-.052c-.91-.006.302-.74-.389-.363c-.312.135-.28.026-.501.006c-.07.055-.042-.019-.042.129c-.096.074.036.032-.119.032c.013-.129.016-.096-.064-.142c.427-.1-.347-.835.225-.414c.061-.096.074-.44.119-.514c.048-.087-.042.013.128.045l.19-.016c-.244-.129-.2 0-.235-.277c1.51.235.489-.16.949-.386c.289.27.192-.01.41.148c.126.093.21.11.04.161c-.168.048-.068-.02-.065-.029c-.119.138-.032.103.225.16c.077.02.08.014.17.014c-.09.012-.16.173-.138.28c.026.125-.15.41-.15.793c-.01.29.019.1-.277.248c.058.016.096.064.141.131l.032.049c.071.1.045.08.148.106c-.067.054-.02.077-.135.112c-.106.032-.16-.019-.16.129c.012.096.032.19.048.28c.029.128-.01.1-.16.41c0 0 .028.055-.075.097c-.15-.025 0 .03-.032-.167c-.17.016-.18-.026-.209.064c-.067.2-.415-.15-.399-.157"/><path fill="#072616" d="M12.29 14.456c-.097-.15-.466-.045-.691-.06c-.534-.036-.679.102-.585-.065c.276.026 1.877 0 2.083-.045l.405.032c.562.039 1.793-.038 2.423-.058c-.026.116-1.524.097-1.636.116c0 .225.035.103-.096.563c.215.048.134.022.122 0c.025.225.019.009-.097.176c-.173-.013-.27-.022-.321-.148c-.052-.135.077.084-.026-.106c.177.032.096.045.267 0a2 2 0 0 0-.151-.27c-.257-.305-.44-.164-.65-.106c-.118.032-.054 0-.176.052c.054.363-.055.433.447.263c0 0-.409.373-.071.916l.173.437c.052.074.058.065.203.074c.006-.112.032-.411-.026-.472c.106-.01.608 1.35.63 1.395c.064-.007.154-.039.164-.042l.087-.016c.08.022-.023-.007.08.058c.145.09.013.032.158.064c-.57.084.334 0-.312-.003c-.315-.003-.759.987-.913-.087c-.006-.064-.032.016 0-.07c-.7-.078-1.157-.766-1.334-.772c-.038 0-.112-.035-.212-.052c0 0 .125-.1.489-.057l.398.016c-.032-.077-.01-.132-.225-.145l-.013-.096c-.042-.055-.16-.061-.173-.061l-.376.025c.164-.058.28-.128.276-.263c.145.026.215.016.321-.052c-.308-.218-.417-.81-.642-1.14"/><path fill="#167728" fill-rule="evenodd" d="M14.221 15.114c.116-.167.119.051.096-.177c.013.023.11-.022-.106-.07c.084-.283.078-.145-.087-.428c-.08-.17.563-.051.688-.02c-.096-.163-.147-.09.38-.086c.379.074.636-.07 1.012-.084l.026.135c-.704-.176-.09.084-.113.161c-.032.135-.048.061-.096.074c.11-.013.122-.032.186-.029l.174.032c-.322.781-.73.1-.129.418l-.17.418c.11 0 .016-.02.042.103c-.087 0-.093.006-.174-.013c-1.334-.312-.684.145-1.205.061c-.096-.016-.148-.084-.35-.116c.032.264.225.36 0 .27c-.01-.003-.08-.032-.084-.022c-.02.032-.174.29-.193.035c-.026-.257.02.077.125-.199c.08-.215-.051-.28-.202-.334c.193-.094.193.012.18-.129" clip-rule="evenodd"/><path fill="#076825" d="M7.87 17.367c.016-.025-.013.016.202-.138c-.138-.038-.2-.02-.267-.02c-.225 0 .058.023-.138-.012c.309-.373.579-.427.97-.736l.36.145c.071.041.11.109.171.128c.16.058.418.013.489.363c.048.155-.042.032.064.116c-.007.2-.25.412-.463.415c-.058 0-.084 0-.138-.013c-.097-.026-.154-.087-.216-.16c-.334-.415-.083.044-.263-.252c-.052.032.026.032-.122.049c.16.61-.142.626.537.559c.24-.023.096 0 .23.029c.113.022.194-.048.29.07l.077.113c-.086.016-.144.064-.286.129l-.08-.155c-.158.036-.44.052-.428.145c.155 1.09-1.475-1.06-.99-.771z"/><path fill="#045816" fill-rule="evenodd" d="M8.465 14.42c.106-.052.475 0 .565.074c.18-.142.039-.08.267-.055c.138.013.215-.02.36-.016c-.222.28.08.013-.193.18c-.106.106-.299.225-.183.328c.084.07.013.414-.312.141c-.106.068-.045.036-.103.154c.412.023.412.055.36.579c.17.084-.051-.045.084.01c.016.006.07.048.09.06c-.215.02-.064.004-.116.059c-.186.025-.013.01-.09.045c-.787.366-.2-.904-.24.327v.042l.015.068c.003.006.032.06.032.07c-.131-.048-.074-.019-.183-.083a1.5 1.5 0 0 0-.434-.138c-.025 0-.01 0-.09.025l-.17.036c.128-.386.337-.553-.572-.759c.225-.093.132-.116.038-.231c.241.051.2.122.27-.084l.01-.032l.43.167l.27-.141c-.118-.01-.128-.01-.224-.032c-.045-.016.527-.482-.544-.53c-.022 0-.01-.226.229-.071c-.01-.258.205-.097.244-.103c.11-.013.058-.065.193-.09z" clip-rule="evenodd"/><path fill="#045816" d="M10.014 17.137c-.036-.138-.026-.174.077-.28c.16.004.173.049.263.058c.106.01.219-.08.219-.08c-.514-.514.128-.723.411-.868s.72-.174.875-.196c-1.312-1.292.472.399-.097.868c.8.026.151-.405 1.06.276l.236.142c-.135.067-.071 0-.097.138l-.196-.058c-.042-.02.074-.11-.177-.051c-.25.058.02.06-.15.07c-.149.007-.113-.077-.136-.167l.267-.048c-.65-.366-.932-.241-.321.029l-.123.1c-.01 0-.016 0-.019-.01c-.787-.11-.08.177-.427-.2c-.405.354.012.18-.37-.006l-.032-.016l-.116-.058c.052.212-.964-.045-.437.158c.742.148.096.106-.215.051c-.151-.051.154-.022-.08.036c-.149.038-.184-.123-.345-.016l-.028.038l-.01.02c-.052.09.1-.02-.032.07"/><path fill="#155819" d="m10.753 14.675l-.007-.02l-.138-.202c.19-.055.151.074.263-.08l-.045.009c.052-.064.058-.045.187-.051c-.097.167.051.029.585.064c.225.016.591-.09.694.064s-.128.129.17.257l-.096.094c.322.025.244.192.244.205l.01.061c.016.08.116.216.225.315c-.116.03-.145.02-.241.061a.33.33 0 0 0 .225.065l-.003.032l-.25-.007c-.197.026-.496-.138-.676-.247c-.202-.126-.389-.055-.18-.148l-.231-.119c.115-.055.09-.045.164-.122c.112.006.867.321.607.119c-.096-.074-.151-.065-.257-.151l-.013-.01l-.087-.055c-.353-.218-.096.145-.373.139c-1.279-.042.878.035-.742.147c.01-.01.029-.012.038-.019c.026-.013.065-.026.09-.042c.068-.035.033.087.042-.167c-.106-.096-.093 0-.205-.193"/><path fill="#139247" fill-rule="evenodd" d="M10.095 16.853c-.055-.177.032-.048.044-.103a1 1 0 0 1-.173-.337c-.241-.717.842-.624 1.048-.643l-.016.106c-.084.62.247.444-.026.325c-.566-.21.257-.084.283.177c.18-.13.238-.01.302.054c-.154.023.193-.042-.09.103a.34.34 0 0 1-.264.01c-.16-.052-1.076-.37-.244.093c.084.093-.02-.084.07.093c-.404.135-.353-.067-.366-.129l-.401.097c-.062.074.106.02.199.058c.119.048.022-.013.116.077c0 0-.116.09-.222.08c-.09-.01-.103-.054-.26-.058z" clip-rule="evenodd"/><path fill="url(#SVGOtn7Ydwz)" d="M3 14.25h18V21H3z"/><path fill="#195936" d="M6.797 13.526c0 .042-.354-.231-.409-.296c.02.106.042.34-.019.444c-.064-.068-.093-.238-.096-.318a1 1 0 0 1-.296.318c-.026-.058.058-.238.122-.36c-.058.1-.141.225-.18.212a.33.33 0 0 1 .058-.338c-.039.013-.132.04-.193.02c.013-.065.2-.126.29-.145l-.213-.17c.065.006.21.022.274.022c0-.103.064-.257.096-.318l.039.318l.118-.276v.212c.045-.032.242-.084.332-.106a1 1 0 0 0-.02.17c.065 0 .103.042.116.065c-.051.032-.16.106-.174.125a.27.27 0 0 1 .155.125c-.026 0-.12-.003-.29-.022c.097.045.29.276.29.318"/><path fill="#132725" d="M17.175 13.575c0 .029.232-.155.273-.196c-.016.07-.032.225.013.295c.042-.045.058-.16.065-.212a.64.64 0 0 0 .192.212c.02-.038-.035-.16-.08-.24c.039.067.096.15.122.14a.22.22 0 0 0-.038-.224q.062.024.128.016c-.01-.045-.135-.087-.193-.1l.142-.112l-.183.012a.6.6 0 0 0-.065-.209l-.025.21l-.078-.184v.142a1 1 0 0 0-.225-.071c.007.02.017.067.017.112a.1.1 0 0 0-.08.042c.035.026.108.074.118.087c-.064.023-.096.064-.103.084c.016 0 .08 0 .193-.013a.6.6 0 0 0-.193.209"/><defs><linearGradient id="SVGecVMkeHq" x1="12" x2="12" y1="3" y2="20.999" gradientUnits="userSpaceOnUse"><stop stop-color="#0980b8"/><stop offset=".21" stop-color="#4dccf7"/><stop offset=".35" stop-color="#48c9f4"/><stop offset=".57" stop-color="#10a8d9"/><stop offset="1" stop-color="#044f7c"/></linearGradient><linearGradient id="SVGOtn7Ydwz" x1="12" x2="12" y1="13.79" y2="20.999" gradientUnits="userSpaceOnUse"><stop stop-color="#10a3d4" stop-opacity=".28"/><stop offset=".57" stop-color="#034e78"/></linearGradient></defs></g></svg>