<?xml version="1.0" encoding="UTF-8" standalone="no"?>
<!-- Generator: Adobe Illustrator 19.2.1, SVG Export Plug-In . SVG Version: 6.00 Build 0)  -->

<svg
   version="1.1"
   id="Ebene_1"
   x="0px"
   y="0px"
   viewBox="0 0 128 128"
   xml:space="preserve"
   sodipodi:docname="mundraub.svg"
   width="128"
   height="128"
   inkscape:version="1.4.2 (f4327f4, 2025-05-13)"
   xmlns:inkscape="http://www.inkscape.org/namespaces/inkscape"
   xmlns:sodipodi="http://sodipodi.sourceforge.net/DTD/sodipodi-0.dtd"
   xmlns="http://www.w3.org/2000/svg"
   xmlns:svg="http://www.w3.org/2000/svg"><defs
   id="defs20" /><sodipodi:namedview
   id="namedview20"
   pagecolor="#505050"
   bordercolor="#eeeeee"
   borderopacity="1"
   inkscape:showpageshadow="0"
   inkscape:pageopacity="0"
   inkscape:pagecheckerboard="0"
   inkscape:deskcolor="#505050"
   showgrid="true"
   inkscape:zoom="5.08"
   inkscape:cx="60.23622"
   inkscape:cy="78.444882"
   inkscape:window-width="2560"
   inkscape:window-height="1013"
   inkscape:window-x="-4"
   inkscape:window-y="-4"
   inkscape:window-maximized="1"
   inkscape:current-layer="Ebene_1"><inkscape:grid
     id="grid20"
     units="px"
     originx="0"
     originy="0"
     spacingx="1"
     spacingy="1"
     empcolor="#0099e5"
     empopacity="0.30196078"
     color="#0099e5"
     opacity="0.14902"
     empspacing="5"
     enabled="true"
     visible="true" /></sodipodi:namedview>
<style
   type="text/css"
   id="style1">
	.st0{fill:#94B422;}
	.st1{fill:#516F29;}
	.st2{fill:#FFFFFF;}
</style>
<path
   id="path10"
   style="stroke-width:3.11218"
   class="st0"
   d="M 37.105469 6 C 35.929193 5.9828486 34.325842 9.7800385 35.119141 10.658203 C 35.994536 11.627212 45.330908 20.670897 47.957031 36.498047 C 47.957031 37.467056 50.291923 37.142621 50 34.558594 C 48.249241 20.992464 38.620287 7.1037751 37.453125 6.1347656 C 37.343704 6.043921 37.227152 6.0017743 37.105469 6 z M 65.943359 37.236328 C 60.963865 37.236328 55.672305 38.482238 49.136719 41.283203 C 47.580627 41.283203 46.026184 40.658874 43.847656 40.347656 C 40.424253 39.414001 36.37787 38.480469 32.332031 38.480469 C 23.617917 38.480469 16.770571 42.527463 10.857422 50.619141 C 0.27599762 65.246404 4.0098847 87.653257 12.101562 103.52539 C 18.948367 116.90778 28.285886 125 37 125 C 37.933656 125 38.867798 125.00067 39.490234 124.68945 L 39.800781 124.68945 C 41.356873 124.06702 42.601501 123.75525 43.535156 123.13281 C 45.713685 122.19916 46.336364 121.88867 49.759766 121.88867 C 52.871949 121.88867 54.428893 122.82092 56.607422 123.44336 C 57.852295 123.75458 58.785705 124.37823 60.341797 124.68945 L 60.652344 124.68945 C 61.585999 125.00067 62.51947 125 63.453125 125 C 71.544802 125 80.569883 117.53077 87.105469 105.08203 C 94.885928 89.832336 98.932988 66.180059 88.351562 50.619141 C 82.127195 41.593808 74.968692 37.236328 65.943359 37.236328 z " /><g
   id="g12"
   transform="matrix(3.1121837,0,0,3.1121837,-458.77086,-11.624864)">
			<g
   id="g11">
				
			</g>
		</g><path
   id="path20"
   style="fill:#516f29;fill-opacity:1;stroke:none;stroke-width:3.112;stroke-dasharray:none"
   class="st0"
   d="M 113 20 C 93.685912 32.321893 93 50 93 50 C 108.57588 44.763195 114.24607 42.795502 113 20 z M 106.21289 49.03125 C 99.950494 48.941198 95.94044 51.254462 94 53 C 98.39049 60.930343 111.51492 65.688724 125 55 C 117.31664 50.625381 111.08364 49.10129 106.21289 49.03125 z M 89.335938 52.160156 C 54.870183 60.362525 19.665348 59.690303 6.515625 59.076172 C 3.7566741 67.124756 3.8311268 76.35341 5.6679688 85.230469 C 21.704242 87.311278 65.97998 89.341308 94.572266 78.554688 C 95.291398 69.230511 93.941254 59.834185 89.335938 52.160156 z " /><ellipse
   transform="matrix(0.11256565,-0.99364429,0.99383714,0.11085008,0,0)"
   class="st2"
   cx="-68.785118"
   cy="41.497414"
   id="ellipse15"
   rx="8.4869289"
   ry="8.5515213"
   style="stroke-width:3.2766" /><ellipse
   transform="rotate(-83.58071)"
   class="st2"
   cx="-64.722412"
   cy="73.195084"
   id="ellipse17"
   rx="8.5"
   ry="8.5000067"
   style="stroke-width:3.26926" /><ellipse
   transform="matrix(0.11476968,-0.99339213,0.99400911,0.10929729,0,0)"
   class="st1"
   cx="-65.201302"
   cy="37.262348"
   id="ellipse16"
   rx="3.8687048"
   ry="3.9631422"
   style="stroke-width:3.26303" /><ellipse
   transform="matrix(0.11486756,-0.99338081,0.9940405,0.10901143,0,0)"
   class="st1"
   cx="-61.874565"
   cy="68.560631"
   id="ellipse18"
   rx="3.9402437"
   ry="4.0433526"
   style="stroke-width:3.32622" />
</svg>
