<svg fill="none" version="1.1" viewBox="0 0 32 32" xmlns="http://www.w3.org/2000/svg">
 <g transform="translate(-86.07 -2.9472)">
  <path d="m113.11 14.35c0 0.671-0.267 1.3145-0.741 1.789-0.475 0.4744-1.118 0.741-1.789 0.741-1.411 0-2.53-0.0846-3.518-0.8605 1.759-0.7713 2.121-4.1994 3.518-4.1994 0.671 0 1.314 0.2665 1.789 0.741 0.474 0.4744 0.741 1.1179 0.741 1.7889z" fill="url(#paint0_linear_1_3820)"/>
  <path d="m98.226 19.758c0.6637 0.2447 1.3424 0.4474 2.0317 0.6067 1.961 0.4127 3.977 0.5033 5.967 0.268 3.25-0.5455 5.681-2.4218 6.433-3.9032 0.458-0.8784 0.585-1.876 0.432-2.8548l-2.584 0.2168-2.639 0.9969c-0.344 1.2273-2.352 1.4107-4.806 1.1756-0.635-0.0566-1.263-0.1619-1.881-0.315-0.611-0.1654-1.2098-0.3729-1.7921-0.6208-0.3725 0.4387-0.6668 0.9382-0.87 1.4766-0.2406 0.6615-0.3617 1.3605-0.3575 2.0644-0.0029 0.2976 0.0192 0.5949 0.0659 0.8888z" clip-rule="evenodd" fill="url(#paint1_linear_1_3820)" fill-rule="evenodd"/>
  <path d="m95.542 21.103c-0.2318-0.838-0.3146-1.7103-0.2445-2.577l-4.8059-3.3811c-0.3616 1.2219-0.5531 2.4878-0.569 3.762-0.0245 2.1095 0.4927 4.1901 1.5022 6.0426 1.0094 1.8525 2.4771 3.4151 4.263 4.5381l3.3529-3.4939c-0.884-0.5358-1.6498-1.2456-2.2512-2.0863s-1.0259-1.7948-1.2475-2.8044z" fill="url(#paint2_linear_1_3820)"/>
  <path d="m109.4 24.969c-0.614 0.4511-1.269 0.8432-1.957 1.1709-1.816 0.8607-3.857 1.1305-5.835 0.7712-0.91-0.1468-1.7829-0.466-2.5726-0.9405l-2.7276 0.9405-0.6301 2.5723c1.9135 1.2004 4.1272 1.8361 6.3863 1.834 5.996 0 9.094-3.5504 9.094-3.5504l-0.258-1.7823z" fill="url(#paint3_linear_1_3820)"/>
  <path d="m114.13 22.589c0.39-1.5048-0.588-2.0221-1.293-1.0299-1.34 1.8147-3.057 3.3179-5.032 4.4063l1.594 3.2025c2.897-1.7635 4.251-4.7261 4.731-6.5789z" fill="url(#paint4_linear_1_3820)"/>
  <path d="m102.32 11.247c3.762 0 5.864 2.6193 5.511 3.842l5.258-1.2086c-0.17-1.0258-0.588-1.9945-1.218-2.8215-1.919-2.6616-5.474-4.4816-10.096-4.4816-1.659 0.04678-3.2917 0.42493-4.8019 1.1122-1.5102 0.68728-2.8676 1.6698-3.9923 2.8896-1.1637 1.3091-2.0144 2.8658-2.4877 4.5521 1.7634 2.1209 4.8013 3.3811 4.8013 3.3811 0.0598-1.6864 0.6305-3.3148 1.6365-4.6696 0.6222-0.8353 1.4374-1.5076 2.3758-1.9596 0.9383-0.4521 1.9723-0.6703 3.0133-0.6362z" fill="url(#paint5_linear_1_3820)"/>
  <path d="m97.475 13.212c0.6292-0.6438 1.3847-1.1507 2.219-1.489 0.8339-0.3382 1.7299-0.5005 2.6289-0.4766 3.762 0 5.865 2.6193 5.512 3.8419-0.09 0.2585-0.246 0.4891-0.452 0.6689s-0.455 0.3026-0.724 0.3563c0.683-0.2016 1.317-0.542 1.863-1 0.545-0.458 0.99-1.0237 1.307-1.6617 1.062-2.4124-0.574-5.3044-4.703-6.5177-1.097-0.23354-2.216-0.34861-3.338-0.34328-2.9736 0.07823-5.8196 1.2232-8.0185 3.2259z" fill="url(#paint6_linear_1_3820)"/>
 </g>
 <defs>
  <linearGradient id="paint0_linear_1_3820" x1="114.25" x2="107.06" y1="15.583" y2="13.49" gradientUnits="userSpaceOnUse">
   <stop stop-color="#FF6E00" offset="0"/>
   <stop stop-color="#F8432E" offset="1"/>
  </linearGradient>
  <linearGradient id="paint1_linear_1_3820" x1="118.8" x2="95.301" y1=".57658" y2="29.121" gradientUnits="userSpaceOnUse">
   <stop stop-color="#FFDA00" offset="0"/>
   <stop stop-color="#FF9B00" offset=".83"/>
   <stop stop-color="#FF5D69" offset="1"/>
  </linearGradient>
  <linearGradient id="paint2_linear_1_3820" x1="114.28" x2="90.778" y1="-3.1476" y2="25.401" gradientUnits="userSpaceOnUse">
   <stop stop-color="#FFDA00" offset="0"/>
   <stop stop-color="#FF9B00" offset=".83"/>
   <stop stop-color="#FF5D69" offset="1"/>
  </linearGradient>
  <linearGradient id="paint3_linear_1_3820" x1="122.95" x2="99.456" y1="3.9907" y2="32.54" gradientUnits="userSpaceOnUse">
   <stop stop-color="#FFDA00" offset="0"/>
   <stop stop-color="#FF9B00" offset=".83"/>
   <stop stop-color="#FF5D69" offset="1"/>
  </linearGradient>
  <linearGradient id="paint4_linear_1_3820" x1="126.18" x2="102.67" y1="6.6477" y2="35.193" gradientUnits="userSpaceOnUse">
   <stop stop-color="#FFDA00" offset="0"/>
   <stop stop-color="#FF9B00" offset=".83"/>
   <stop stop-color="#FF5D69" offset="1"/>
  </linearGradient>
  <linearGradient id="paint5_linear_1_3820" x1="115.12" x2="91.62" y1="-2.4564" y2="26.093" gradientUnits="userSpaceOnUse">
   <stop stop-color="#FFDA00" offset="0"/>
   <stop stop-color="#FF9B00" offset=".83"/>
   <stop stop-color="#FF5D69" offset="1"/>
  </linearGradient>
  <linearGradient id="paint6_linear_1_3820" x1="96.215" x2="109.63" y1="8.8202" y2="12.568" gradientUnits="userSpaceOnUse">
   <stop stop-color="#FFDA00" stop-opacity="0" offset="0"/>
   <stop stop-color="#FF9B00" offset=".83"/>
   <stop stop-color="#FF5D69" offset="1"/>
  </linearGradient>
 </defs>
</svg>
