<svg xmlns="http://www.w3.org/2000/svg" viewBox="0 0 24 24"><g fill="none"><path fill="url(#SVGrmb6ed4E)" d="M12 20.602a8.603 8.603 0 1 0 0-17.206a8.603 8.603 0 0 0 0 17.206"/><path fill="#17d6ff" d="M16.643 5.096c.053 0 .122.005.175.042c.127.064.206.238.138.477c-.027.09-.037.317.02.592c.054.265.176.551.387.758l.09.09c.625.608 2.822 2.763 2.822 5.812a4.49 4.49 0 0 1-2.16 3.87c-.122.08-.243.16-.37.228c.158.159.36.402.529.688c.317.97-2.404 2.785-3.579 1.467a4.4 4.4 0 0 1-.741-1.059c-.53.053-1.09.085-1.679.085c-.465 0-1.027-.037-1.625-.127c-.127.206-.312.45-.566.736c-.54.603-1.509.767-2.324.677c-.408-.042-.794-.153-1.086-.317c-.285-.16-.513-.397-.524-.7c-.01-.402.16-.804.355-1.132c.143-.238.312-.45.455-.604a4.2 4.2 0 0 1-1.97-3.6c0-2.51 1.277-4.283 2.907-5.442a10.15 10.15 0 0 1 5.04-1.79c1.414-.079 2.208-.222 2.68-.36c.343-.105.497-.19.619-.254a1 1 0 0 1 .127-.068a.6.6 0 0 1 .28-.07"/><path fill="#fd8727" d="M5.8 17.183c-.18.482-.105.879-.052 1.022c.095.386.725.646 1.747.646c1.016 0 1.959-.598 2.26-1.202c.297-.609.35-.895.318-.921c-.016-.021-2.298-.403-3.43-.593c-.37.268-.662.63-.848 1.048z"/><path fill="#d95d15" d="M7.3 17.193c-.562.37-.604.779-.557.932c.223.201.927.445 1.96-.18c1.042-.625.19-1.17-.366-1.366a10 10 0 0 0-1.038.614"/><path fill="#f16607" d="M9.374 18.168c-1.239-.45-1.874-1.123-2.017-1.409l.275-.222l2.32.646c-.186.328-.562.985-.583.985z"/><path fill="#d43c00" d="M8.93 16.892c.317.264.45.619-.165 1.016a4.1 4.1 0 0 1-1.217-.879a9 9 0 0 1 .598-.35z"/><path fill="#ffecdd" d="M6.71 17.877a.334.334 0 1 0 0-.667a.334.334 0 0 0 0 .667"/><path fill="#d43c00" d="m6.504 16.023l3.706.578l.032.068a.38.38 0 0 1 .026.244a1 1 0 0 1-.106.328a4.4 4.4 0 0 1-.74 1.059c-.535.604-1.51.768-2.32.678a3 3 0 0 1-1.09-.318c-.286-.159-.514-.397-.524-.699c-.01-.402.159-.805.354-1.133c.202-.328.44-.603.61-.752zm.096.318c-.143.143-.34.37-.503.64c-.186.308-.318.652-.313.97c.006.148.122.307.37.45c.25.137.6.243.98.28c.773.085 1.626-.08 2.065-.582c.28-.291.515-.621.699-.98a1 1 0 0 0 .08-.254z"/><path fill="#fd8727" d="M17.665 17.548c.18.487.105.884.053 1.022c-.107.387-.726.646-1.748.646c-1.021 0-1.964-.598-2.26-1.202c-.297-.609-.35-.894-.323-.921c.021-.016 2.297-.402 3.436-.593c.366.27.654.632.836 1.048z"/><path fill="#d95d15" d="M16.161 17.56c.561.37.604.778.556.931c-.222.201-.921.445-1.959-.18c-1.043-.625-.19-1.17.365-1.366c.117.053.482.244 1.038.614"/><path fill="#f16607" d="M14.091 18.533c1.234-.445 1.875-1.122 2.012-1.403l-.275-.228l-2.319.646c.185.328.561.99.582.99z"/><path fill="#d43c00" d="M14.53 17.262c-.317.26-.444.62.17 1.011a4.1 4.1 0 0 0 1.212-.879a11 11 0 0 0-.593-.35z"/><path fill="#ffecdd" d="M16.749 18.241a.333.333 0 1 1 0-.666a.333.333 0 0 1 0 .666"/><path fill="#d43c00" d="m16.96 16.389l-3.706.582l-.037.064a.4.4 0 0 0-.026.243q.016.136.106.329c.116.264.338.608.74 1.058c.535.604 1.51.768 2.325.678c.408-.043.794-.154 1.085-.318c.286-.159.514-.397.524-.699c.01-.402-.159-.804-.354-1.133a3.7 3.7 0 0 0-.604-.751zm-.1.317c.148.143.338.371.503.641c.185.307.317.651.312.969c-.005.148-.122.307-.37.45a2.7 2.7 0 0 1-.98.286c-.773.084-1.625-.085-2.065-.583a4.2 4.2 0 0 1-.693-.984a1 1 0 0 1-.085-.255z"/><path fill="url(#SVGYghnOGKF)" d="m12.927 17.543l-2.213-.106c-2.398-.037-4.257-.98-5.278-2.176c-.604-.715-.79-1.641-.97-2.176l.281-2.356l.689-1.382l.905-1.291L7.844 6.96l2.32-1.064l1.826-.302l2.064-.228l1.42-.391l.497-.175l.175.175V5.7l.391.937L17.702 7.7l.852 1.308l.567 1.381l.392 1.631l-.127 1.52l-.832 1.593l-.99.9l-1.418.715z"/><path fill="url(#SVGfivNyeSJ)" d="M9.708 6.923c1.996-.943 4.58-1.17 5.622-1.165c.053.233.27.831.762 1.324c.61.603 2.552 2.769 2.552 4.913h.9l-.328-1.742l-1.154-1.97l-1.668-1.842l-.302-1.043l.128-.625h-.334l-.699.371l-1.678.254l-2.012.254l-1.99.508l-2.24 1.08l-1.016 1.043l-1.043 1.324l-.508 1.218L4.419 13l.699.206c0-3.738 2.102-5.098 4.59-6.284"/><path fill="url(#SVGyHfMaeIz)" d="M10.587 8.998c-3.145.678-3.643 3.044-3.5 4.146l9.768-1.525c-1.049-1.292-2.34-3.468-6.268-2.62"/><path fill="#fffef9" d="M11.148 7.754c-.053-.085-.117-.296.106-.466c.28-.212.465-.148.56-.069c.096.08.133.265-.1.482c-.233.212-.476.154-.566.053m-2.446.969c-.09-.233-.117-.773.519-1.07c.794-.365 1.207-.1 1.397.149c.186.243.175.725-.513 1.111c-.689.392-1.244.106-1.403-.19"/><path fill="url(#SVGNFDBAd5U)" d="M12.01 16.855c3.024 0 5.475-1.052 5.475-2.35s-2.45-2.35-5.474-2.35s-5.474 1.052-5.474 2.35s2.45 2.35 5.474 2.35"/><path fill="#792207" d="M6.356 14.198c.453 0 .82-.491.82-1.096s-.367-1.096-.82-1.096s-.82.49-.82 1.096c0 .605.367 1.096.82 1.096"/><path fill="#f6fef8" d="M6.42 12.768a.307.307 0 1 0 0-.614a.307.307 0 0 0 0 .614"/><path fill="#792207" d="M13.694 15.521c.453 0 .82-.49.82-1.096c0-.605-.367-1.096-.82-1.096s-.82.49-.82 1.096c0 .605.367 1.096.82 1.096"/><path fill="#f6fef8" d="M13.758 14.09a.307.307 0 1 0 0-.614a.307.307 0 0 0 0 .615"/><path fill="#792207" d="M8.781 13.905c.074-.037.159 0 .201.07l.005.015c.053.106.128.27.223.413q.081.11.153.175c.048.042.08.053.1.053a.85.85 0 0 0 .393-.111c.127-.07.233-.154.307-.223a.15.15 0 0 1 .106-.044a.15.15 0 0 1 .106.256c-.096.09-.228.19-.382.275c-.159.08-.338.143-.53.143a.47.47 0 0 1-.296-.122a1.2 1.2 0 0 1-.2-.238a3 3 0 0 1-.244-.445l-.01-.02c-.038-.075 0-.16.068-.197"/><path fill="#fbf9eb" d="M15.981 15.725c.15.156.417.143.596-.03c.18-.172.203-.438.053-.594s-.417-.143-.596.03c-.18.172-.203.438-.053.594"/><path fill="#e7b45b" fill-rule="evenodd" d="M15.986 4.932a.5.5 0 0 0-.164.053c-.021 0-.042.02-.08.037c-.11.063-.317.18-.704.296c-.898.223-1.817.347-2.742.37A9.86 9.86 0 0 0 7.41 7.426c-1.567 1.112-2.78 2.806-2.78 5.2c0 1.884 1.138 3.07 2.594 3.795a10.5 10.5 0 0 0 4.394.974c2.42 0 4.352-.492 5.67-1.36a4.19 4.19 0 0 0 2.033-3.622c0-2.922-2.117-4.992-2.742-5.606a1.8 1.8 0 0 1-.556-.995a1.7 1.7 0 0 1-.01-.736c.02-.08.01-.117.005-.127v-.011l.01.01l-.047-.026l.021.01h.005zm.17-.254a.3.3 0 0 0-.175-.043a.8.8 0 0 0-.28.074l-.128.064a2.4 2.4 0 0 1-.62.26c-.465.132-1.265.28-2.673.36c-1.44.079-3.42.635-5.045 1.789c-1.625 1.16-2.901 2.927-2.901 5.442c0 2.033 1.239 3.304 2.753 4.06a10.8 10.8 0 0 0 4.526 1.006c2.462 0 4.458-.497 5.84-1.408a4.48 4.48 0 0 0 2.165-3.87c0-3.05-2.202-5.204-2.827-5.813l-.09-.09a1.5 1.5 0 0 1-.381-.757a1.45 1.45 0 0 1-.022-.598c.064-.233-.01-.413-.142-.476" clip-rule="evenodd"/><path fill="#fefefc" fill-rule="evenodd" d="M12 21a9 9 0 1 0 0-17.998A9 9 0 0 0 12 21m0-.508A8.47 8.47 0 1 0 12 3.55a8.47 8.47 0 0 0 0 16.942" clip-rule="evenodd"/><defs><linearGradient id="SVGrmb6ed4E" x1="12" x2="12" y1="3.005" y2="20.999" gradientUnits="userSpaceOnUse"><stop stop-color="#7deaf9"/><stop offset="1" stop-color="#c9f6fc"/></linearGradient><linearGradient id="SVGYghnOGKF" x1="12" x2="12" y1="3" y2="21" gradientUnits="userSpaceOnUse"><stop stop-color="#fddc2a"/><stop offset="1" stop-color="#ffd829"/></linearGradient><linearGradient id="SVGfivNyeSJ" x1="12.003" x2="12.003" y1="11.079" y2="21" gradientUnits="userSpaceOnUse"><stop stop-color="#ffff79"/><stop offset=".94" stop-color="#ffff79" stop-opacity="0"/></linearGradient><linearGradient id="SVGyHfMaeIz" x1="11.392" x2="14.398" y1="3" y2="20.589" gradientUnits="userSpaceOnUse"><stop stop-color="#fcc216"/><stop offset="1" stop-color="#fcc216" stop-opacity="0"/></linearGradient><linearGradient id="SVGNFDBAd5U" x1="3.627" x2="20.639" y1="10.582" y2="12.211" gradientUnits="userSpaceOnUse"><stop stop-color="#ff9503"/><stop offset="1" stop-color="#ff9503" stop-opacity="0"/></linearGradient></defs></g></svg>