<svg xmlns="http://www.w3.org/2000/svg" viewBox="0 0 24 24"><g fill="none"><path fill="url(#SVGJYIlZbgX)" d="M7.934 13.96L3.87 18.533V5.308a2.032 2.032 0 0 1 4.064 0z"/><path fill="url(#SVGIEX6hcZK)" d="m7.788 10.693l-.18-6.496L18.82 17.714a1.99 1.99 0 0 1-.288 2.833a2.046 2.046 0 0 1-2.85-.294z"/><path fill="#ffc524" d="m3.874 18.377l4.065-4.825v5.416a2.032 2.032 0 1 1-4.065 0z"/><path fill="#91d450" d="m3.874 5.949l4.065 4.971V5.308a2.032 2.032 0 1 0-4.065 0z"/><path fill="#ff7819" d="M19.929 6.88c.133-.33.202-.685.202-1.042C20.13 4.271 18.83 3 17.227 3s-2.903 1.27-2.903 2.838c0 .349.063.683.181.991c.55 1.803 1.989 3.205 2.707 3.72c1.602-1.18 2.396-2.68 2.717-3.669"/><path fill="#ac46bc" d="M17.227 7.065a1.162 1.162 0 1 0 .001-2.323a1.162 1.162 0 0 0 0 2.323"/><defs><linearGradient id="SVGJYIlZbgX" x1="20.131" x2="3.887" y1="12.499" y2="11.94" gradientUnits="userSpaceOnUse"><stop stop-color="#5dc17c"/><stop offset="1" stop-color="#8cd037"/></linearGradient><linearGradient id="SVGIEX6hcZK" x1="3.868" x2="14.423" y1="6.259" y2="23.395" gradientUnits="userSpaceOnUse"><stop stop-color="#9cd863"/><stop offset="1" stop-color="#49adda"/></linearGradient></defs></g></svg>