<svg xmlns="http://www.w3.org/2000/svg" viewBox="0 0 24 24"><g fill="#0c7bfe"><path d="M3.383 11.814h.383v.382h-.383zM3 11.43h.383v.383H3zm.383-.383h.383v.383h-.383zm.383.383h.383v.383h-.383zm0-.766h.383v.383h-.383zm.383-.383h.383v.383h-.383zm.766 0h.383v.383h-.383zm.383-.383h.383v.383h-.383zm.383-.383h.383v.383H5.68zm12.584 4.212a.82.82 0 0 1-.823-.82v-.903h.383v.938a.44.44 0 0 0 .877 0v-.938h.383v.904a.82.82 0 0 1-.82.82"/><path fill-rule="evenodd" d="M16.48 13.727a.865.865 0 0 0 .802-1.193a.87.87 0 0 0-.805-.53a.865.865 0 0 0-.87.862a.867.867 0 0 0 .87.861zm0-.387a.477.477 0 1 0-.004-.954a.477.477 0 0 0-.482.476c0 .264.219.482.487.482z" clip-rule="evenodd"/><path d="M14.956 13.355a.867.867 0 0 1-1.57-.49a.862.862 0 0 1 1.578-.482l-.295.283a.47.47 0 1 0-.787.504a.47.47 0 0 0 .787-.087zm-2.183-.486a.48.48 0 0 1-.482.479a.48.48 0 0 1-.483-.48a.48.48 0 0 1 .483-.474c.268 0 .482.214.482.475"/><path fill-rule="evenodd" d="M6.228 14.876c-1.314-.265-1.582-1.199-1.712-1.532H5.68v-.383h-.91v-.383h.272v-.383h.383v-.383h-.51v.383h-.383v-.766h-.383v-.383h1.15v-.383h.382v-.383h.383v-.383h.383v.383h.766v-.532h-.195v-.215a2.81 2.81 0 0 1 3.6.579c1.804-.3 2.13.95 2.068 1.612c.628.268.823.965.842 1.279q-.002.195-.038.368a.207.207 0 0 0-.21-.207a.21.21 0 0 0-.211.207a.21.21 0 0 0 .398.095c-.188.889-1.003 1.41-1.34 1.41zm.218-4.213h.766v.383h-.766zm-.574 2.202a.862.862 0 0 1 1.723 0v.862h-.383v-.896a.479.479 0 1 0-.957 0v.896h-.383zm2.776.862a.86.86 0 0 1-.861-.862v-.861h.383v.896a.478.478 0 1 0 .957 0v-.896h.383v.861a.86.86 0 0 1-.862.862m4.516-.862a.87.87 0 0 1-.541.799a.9.9 0 0 1-.333.063a.865.865 0 0 1-.873-.862a.866.866 0 0 1 .873-.861c.483 0 .874.382.874.861m-1.973.49a.872.872 0 0 1-1.585-.49a.874.874 0 0 1 1.593-.482l-.299.287a.47.47 0 0 0-.896.199c0 .26.21.467.471.467a.47.47 0 0 0 .421-.256z" clip-rule="evenodd"/><path d="M4.532 12.195v.383h-.766v-.383zm10.562-.766h.383v2.298h-.383zm5.906 0h-.383v.574h-.49a.865.865 0 0 0-.87.862a.865.865 0 0 0 .87.862a.865.865 0 0 0 .869-.805H21zm-.383 1.455a.495.495 0 0 1-.988-.004c0-.268.226-.486.498-.486h.49z"/></g></svg>