<svg xmlns="http://www.w3.org/2000/svg" viewBox="0 0 24 24"><path fill="#fff" d="m13.726 14.84l.21.05c.065.015.134.04.205.045c.06.01.11-.045.135-.09c.01-.015.02-.015.035-.015a.05.05 0 0 1 .035.015c.05.06.07.135.05.215a.3.3 0 0 1-.14.17a.6.6 0 0 1-.41.03c-.125-.03-.286-.1-.36-.205c0-.01-.01-.01-.01-.015c0-.015-.02-.024-.035-.03a.05.05 0 0 0-.035-.014a.84.84 0 0 1-.445-.016c-.02-.01-.025-.025-.035-.045q0-.03.03-.045c.175-.09.35-.17.485-.315a.7.7 0 0 1 .135-.11c.23-.14.575-.17.785.02c.07.065.105.19.044.28a.05.05 0 0 1-.044.025a.04.04 0 0 1-.035-.025c-.056-.095-.15-.09-.24-.08a.64.64 0 0 0-.365.17zm1.18 3.995c.124.095.204.265.134.42c-.044.15-.13.295-.285.34c-.055.02-.11.02-.175.025l-.1.01c0 .03.01.06.015.08l.016.15a.93.93 0 0 1-.115.49c-.09.17-.23.29-.41.355c-.02.01-.04 0-.055-.02c-.015-.025-.015-.05 0-.06c.21-.265.21-.55.15-.87c-.035-.125-.035-.265.06-.37c.1-.1.255-.125.39-.125c.044 0 .09.01.134-.005c.036-.025.07-.085.1-.12a.3.3 0 0 0 .035-.075v-.005c.016-.06-.02-.135-.055-.19a1.6 1.6 0 0 1-.384 0a4.3 4.3 0 0 1-.9-.225c-.025-.005-.04-.035-.03-.055a.05.05 0 0 1 .05-.04c.385.075.8.14 1.185.1c.19-.035.36-.13.49-.275v-.025c0-.1-.016-.21-.025-.315a1 1 0 0 1 .03-.34c.04-.15.22-.21.35-.25l.355-.095c.104-.03.214-.06.304-.11a.4.4 0 0 0-.05-.175a2 2 0 0 0-.14-.195c-.05-.075-.085-.16-.12-.24q-.21-.509-.4-1.025c-.1-.3-.18-.62-.01-.91c.105-.175.27-.3.416-.44c.22-.25.08-.735-.035-1.01a1.8 1.8 0 0 1-.056-.69c0-.024.02-.05.04-.05c.025 0 .046.02.05.05c.035.21.06.425.145.626c.1.19.2.4.23.624c.045.235.015.47-.135.656c-.085.1-.18.184-.26.28a.46.46 0 0 0-.12.3c-.005.15.07.314.12.45q.21.57.45 1.11a.6.6 0 0 0 .11.15c.05.06.09.12.12.194c.09.205.105.47-.12.59a1.8 1.8 0 0 1-.48.16l-.24.05l-.18.05c-.035.13-.02.36-.02.485c0 .045 0 .085-.014.14s-.036.11-.086.14l-.014.005l-.056.045q-.181.151-.415.22zm3.164-7.464c-.31.315-.79.21-1.17.13c-.715-.16-1.43-.325-2.154-.295c-.03 0-.05-.02-.05-.045s.01-.05.04-.05c.374-.045.75-.035 1.114 0c.37.035.735.1 1.105.165c.15.02.3.05.445.055c.09.01.19 0 .285-.035a.55.55 0 0 0 .21-.16c.085-.105.16-.225.235-.335c.11-.185.26-.34.47-.38c.12-.05.235-.155.325-.25c.07-.075.15-.185.195-.285c-.095-.04-.205-.055-.305-.07a1.7 1.7 0 0 0-.615.02c-.065.015-.13.025-.19.015c-.3-.02-.575-.125-.855-.215q-.524-.174-1.025-.4c-.334-.135-.664-.285-.99-.425c-.28-.113-.54-.27-.77-.465a3 3 0 0 1-.314-.28a2 2 0 0 1-.24-.315c-.05-.1-.085-.205-.04-.31a.23.23 0 0 1 .1-.1l-1.1-.775a.7.7 0 0 0-.275-.1h-.035l-.14-.01c-1.01-.105-2.03-.21-3.04-.325c-.025 0-.04-.03-.04-.05c0-.03.02-.05.05-.05c1.085.04 2.17.105 3.255.165c.23.015.435.155.615.28l.884.575l.22.15c.066.04.126.08.175.14c.035.04.056.1.046.16a.19.19 0 0 1-.12.14a.4.4 0 0 1-.16.03c.232.296.528.537.864.705c.4.185.815.355 1.225.53q.492.213.995.395c.25.08.51.18.77.19c.264-.06.538-.069.805-.025c.205.04.595.1.63.365v.005c.005.14-.045.215-.105.32c-.11.16-.24.3-.39.41c-.115.09-.26.16-.4.19a.16.16 0 0 0-.065.05c-.085.075-.15.18-.22.275c-.08.11-.15.215-.25.3zm-2.015.615c-.215-.05-.445-.07-.66-.095l-.694-.045l-1.32-.055c-.335-.01-.675.005-1.005 0c-.12-.01-.24-.01-.35-.06c-.025-.01-.04-.035-.03-.06a.05.05 0 0 1 .019-.026a.05.05 0 0 1 .03-.01c.1.016.216-.01.316-.024c.115-.015.22-.045.335-.05c.9-.15 1.815-.125 2.71-.03c.264.03.53.075.78.17h.004c.025.005.045.02.065.03a.2.2 0 0 1 .066.035c.29.18.62.06.85-.17c.01-.015.04-.015.06 0s.02.05.014.06c-.09.19-.26.33-.45.4a.84.84 0 0 1-.64-.04l-.09-.035zm-2.77-3.65c-.26.52-1.114.335-1.53.16c-.16-.065-.29-.15-.45-.2q-.038-.008-.04-.045q0-.016.01-.027l.02-.018a.8.8 0 0 1 .29-.04c.25.015.5.065.75.11c.31.05.586.125.89-.01a.05.05 0 0 1 .05.015c.02.015.02.04.01.06v-.01zm-5.209-2.6a2.95 2.95 0 0 1 .325-1.325a1.8 1.8 0 0 1 1.035-.965c.02-.005.04 0 .055.025c.015.02.01.045-.005.06c-.325.305-.5.675-.71 1.06l-.29.58c-.1.2-.2.4-.315.585c-.015.015-.035.03-.05.02a.044.044 0 0 1-.035-.045l-.01.01zm2.2.21a2.04 2.04 0 0 1-.85-2.33c.01-.02.025-.035.045-.035s.035.015.04.035c.11.34.18.685.285 1.025q.211.654.535 1.24c.015.02.01.045-.005.055c-.015.015-.035.025-.055.01zm5.05 8.335c-.195-.1-.4-.19-.6-.25a1.3 1.3 0 0 0-.45-.06c-.15.005-.3.03-.45.06c-.215.034-.425.08-.635.11h-.01a.9.9 0 0 1-.38-.046a.044.044 0 0 1-.03-.05c0-.025.02-.04.045-.05c.1-.01.2-.05.3-.084c.185-.08.375-.16.575-.23c.2-.065.415-.1.63-.095c.41.014.84.26 1.064.62c.015.024.01.045-.005.06a.05.05 0 0 1-.06.014h.01zm-2.955 2.394c-.8-.03-1.615-.25-2.32-.635a4 4 0 0 1-1.635-1.55a3.2 3.2 0 0 1-.385-1.37c0-.02.01-.04.035-.05c.02-.004.04.01.055.03c.155.436.34.855.6 1.23c.83 1.226 2.31 1.9 3.66 2.25c.025.005.045.03.035.05c0 .02-.02.045-.05.045zM11 13.835a1.5 1.5 0 0 1 .225-.85a2.6 2.6 0 0 1 1.295-1.03c.02-.01.05 0 .055.02a.05.05 0 0 1-.015.066c-.485.35-1.04.85-1.13 1.495c-.105 1.084.41 2.114 1.115 2.874a.05.05 0 0 1 0 .065c-.015.02-.04.02-.06.01a3.3 3.3 0 0 1-1.1-1.174a3.05 3.05 0 0 1-.395-1.48zm2.05-2.93c-1.18-.074-2.39-.15-3.565.096l-.15.035c-.05.015-.11.025-.15.05c-.185.05-.355.12-.54.175c-.32.07-.665.095-.98.035a2.47 2.47 0 0 1-1.515-.945c-.015-.02-.015-.05.005-.065a.047.047 0 0 1 .065 0q.322.278.705.465a2.3 2.3 0 0 0 1.615.17c.135-.05.275-.1.41-.14c.15-.05.3-.1.46-.135c1.215-.24 2.48-.13 3.675.17c.02.01.04.03.035.06c-.01.02-.03.045-.05.045zm-5.825-2.89c.79.4 1.61.746 2.445 1.05c.12.05.25.086.365.146c.025.005.04.03.03.05q-.009.039-.04.04a3.7 3.7 0 0 1-1.6-.3a3.04 3.04 0 0 1-1.25-.91a.05.05 0 0 1 0-.06a.05.05 0 0 1 .055-.015zm-2.055.526a4 4 0 0 1-.37-1.41a5.84 5.84 0 0 1 .86-3.49c.13-.215.28-.415.425-.62c.015-.025.045-.025.065-.015c.02.015.03.035.02.06c-.125.33-.28.65-.395.995a8.4 8.4 0 0 0-.51 4.435c.01.02-.005.05-.025.06c-.025.005-.05 0-.06-.025zm2.625-2.345c.11.16.165.375.145.575a.67.67 0 0 1-.32.515q-.029.022-.065-.015a.055.055 0 0 1 0-.065c.285-.33.08-.72-.19-.98a3.87 3.87 0 0 1-.99-1.75a2.4 2.4 0 0 1-.025-1.085q.006-.039.05-.04a.05.05 0 0 1 .05.04c.06.335.14.675.27.99c.185.49.455.95.75 1.365c.11.15.235.29.325.45m4.435 14.799a4.5 4.5 0 0 1-2.11-.775a6.1 6.1 0 0 1-2.395-3.35c-.2-.63-.31-1.285-.345-1.94a.05.05 0 0 1 .04-.05c.025-.01.05.01.06.035c.34 1.275.74 2.51 1.49 3.6a5.72 5.72 0 0 0 3.285 2.38c.025.01.045.03.035.06c-.005.025-.025.045-.05.045zm-7.135-9.56q-.202 1.026-.225 2.07q-.021 1.051.16 2.08a8.7 8.7 0 0 0 1.71 3.85c.255.335.55.645.835.95c.015.025.02.05 0 .07c-.015.02-.04.02-.065.005a7.65 7.65 0 0 1-2.89-4.8a8.4 8.4 0 0 1 .375-4.26c.01-.024.035-.04.055-.03c.025.006.04.03.04.056z"/></svg>