<svg xmlns="http://www.w3.org/2000/svg" viewBox="0 0 24 24"><g fill="none"><path fill="url(#SVGOxYylGSV)" d="m12.984 13l-.44 1.117h-1.112l-.412-1.138l.794-1.747h.116l-.021 1.641a.316.316 0 0 0-.224.35a.317.317 0 1 0 .404-.35l.021-1.641h.117z"/><path fill="url(#SVGPQr8CG6t)" d="M14.748 15.003h-5.49l-.032-.148c-.016-.08-.37-1.933.418-2.68q.445-.395.953-.687c.424-.265.757-.477.757-.726v-.148c0-.249-.333-.455-.757-.72q-.511-.3-.953-.693c-.794-.742-.434-2.6-.418-2.68l.032-.147h5.49l.026.148c.016.08.37 1.932-.413 2.679c-.296.264-.62.492-.958.693c-.424.265-.757.477-.757.72v.148c0 .25.333.456.757.72c.339.202.662.434.953.694c.794.746.434 2.6.423 2.679zm-5.11-.355h4.729c.09-.582.158-1.773-.345-2.25a6 6 0 0 0-.894-.646c-.493-.307-.921-.577-.921-.99v-.148c0-.413.423-.678.92-.99c.318-.185.62-.402.895-.646c.503-.476.434-1.694.345-2.27H9.639c-.09.581-.159 1.8.344 2.27q.413.367.89.646c.497.307.92.577.92.99v.148c0 .413-.423.678-.92.99q-.477.283-.89.646c-.503.477-.434 1.673-.344 2.25"/><path fill="url(#SVGEUMIQkiC)" d="M15.177 5.647H8.824v.53h6.353z"/><path fill="url(#SVGdWD3vdwI)" d="M15.177 15.176H8.824v.53h6.353z"/><path fill="url(#SVGLWW19brH)" d="m10.861 7.765l-.46-.73l.121-.085l.159.264l.027-.074a.2.2 0 0 1 .058-.053l.08-.031c.02 0 .041 0 .063.01a.1.1 0 0 1 .042.032l.053.085l.127.196l.042.074l.011.053a.14.14 0 0 1-.08.116a.16.16 0 0 1-.079.032a.3.3 0 0 1-.069-.01l.027.052l-.122.074zm.021-.514a.1.1 0 0 0-.042-.037a.06.06 0 0 0-.058.011a.07.07 0 0 0-.037.074c0 .005 0 .016.01.021l.127.212a.07.07 0 0 0 .074.032l.032-.01a.06.06 0 0 0 .032-.054a.1.1 0 0 0-.016-.053z"/><path fill="url(#SVGAoECwbmH)" d="M11.486 7.627a.3.3 0 0 1 .026-.063a.2.2 0 0 1 .043-.048a.2.2 0 0 1 .095-.032a.24.24 0 0 1 .122.016a.3.3 0 0 1 .095.064a.24.24 0 0 1 .048.09a.2.2 0 0 1 0 .058l-.021.069l-.075.196a.4.4 0 0 1-.026.063a.14.14 0 0 1-.042.043a.2.2 0 0 1-.09.037a.3.3 0 0 1-.122-.021a.3.3 0 0 1-.095-.064a.2.2 0 0 1-.048-.09a.2.2 0 0 1 0-.053l.021-.074zm.053.26a.07.07 0 0 0 0 .053q.015.029.047.037a.05.05 0 0 0 .053 0a.08.08 0 0 0 .038-.043l.084-.227a.07.07 0 0 0 0-.053a.08.08 0 0 0-.042-.037a.1.1 0 0 0-.053 0a.07.07 0 0 0-.037.042l-.085.228z"/><path fill="url(#SVGQPVOeBDW)" d="M11.561 8.797a.4.4 0 0 1-.053-.048a.2.2 0 0 1-.037-.053a.2.2 0 0 1-.005-.095a.3.3 0 0 1 .138-.19a.2.2 0 0 1 .095-.022c.02 0 .042 0 .058.011l.063.037l.16.122l.052.047l.037.053a.2.2 0 0 1 .006.096a.3.3 0 0 1-.048.106a.25.25 0 0 1-.09.079a.2.2 0 0 1-.095.021a.2.2 0 0 1-.059-.01l-.058-.038zm.265.016a.07.07 0 0 0 .053.016a.08.08 0 0 0 .047-.032a.08.08 0 0 0 .016-.053a.07.07 0 0 0-.031-.053l-.196-.138a.07.07 0 0 0-.053-.015a.1.1 0 0 0-.043.031a.07.07 0 0 0-.02.053q.002.015.012.028a.1.1 0 0 0 .024.02z"/><path fill="url(#SVGS6BVtbOc)" d="m11.673 9.963l.291-.82l.138.052l-.175.487l.26-.196l.137.053l-.249.18l.074.413l-.148-.053l-.032-.302l-.095.07l-.064.158z"/><path fill="#a57f62" d="M8.664 18.353v-2.118h.609c.116 0 .233.011.344.043a.7.7 0 0 1 .228.122a.45.45 0 0 1 .132.17a.5.5 0 0 1 .037.2v.074q.002.078-.021.149a.3.3 0 0 1-.053.106a.7.7 0 0 1-.212.142a.37.37 0 0 1 .212.149c.053.08.08.174.074.264v.122a.53.53 0 0 1-.185.429c-.127.1-.323.148-.598.148zm.413-1.832v.583h.19c.1.01.201-.018.281-.08a.3.3 0 0 0 .074-.217a.27.27 0 0 0-.08-.211a.44.44 0 0 0-.29-.075zm0 .848v.677h.18a.6.6 0 0 0 .196-.026a.23.23 0 0 0 .106-.075a.2.2 0 0 0 .047-.11a1 1 0 0 0 0-.287a.2.2 0 0 0-.053-.1a.24.24 0 0 0-.11-.058a.7.7 0 0 0-.186-.021zm1.302-.625a.43.43 0 0 1 .064-.223a.5.5 0 0 1 .164-.158a.8.8 0 0 1 .222-.096a.98.98 0 0 1 .736.096a.5.5 0 0 1 .159.159a.43.43 0 0 1 .064.222v1.101c0 .08-.022.159-.064.222a.5.5 0 0 1-.159.16a1 1 0 0 1-.73.094a.7.7 0 0 1-.228-.095a.5.5 0 0 1-.159-.153a.4.4 0 0 1-.063-.223v-1.106zm.424 1.101c0 .032 0 .064.016.09a.2.2 0 0 0 .069.069a.4.4 0 0 0 .397 0a.16.16 0 0 0 .08-.159v-1.101c0-.032 0-.058-.017-.09a.2.2 0 0 0-.063-.069a.4.4 0 0 0-.397 0a.2.2 0 0 0-.07.069a.16.16 0 0 0-.015.09zm1.276-1.101a.43.43 0 0 1 .063-.223a.5.5 0 0 1 .16-.158a.98.98 0 0 1 .952 0q.1.06.164.159a.43.43 0 0 1 .064.222v1.101a.36.36 0 0 1-.064.222a.5.5 0 0 1-.159.16a1 1 0 0 1-.73.094a.7.7 0 0 1-.223-.095a.5.5 0 0 1-.164-.159a.4.4 0 0 1-.063-.222zm.423 1.101a.13.13 0 0 0 .016.09a.2.2 0 0 0 .064.069a.4.4 0 0 0 .397 0a.16.16 0 0 0 .063-.069a.16.16 0 0 0 .016-.09v-1.101a.16.16 0 0 0-.016-.09a.2.2 0 0 0-.063-.069a.4.4 0 0 0-.397 0a.19.19 0 0 0-.085.159v1.101zm2.626-.974a.9.9 0 0 0-.381-.117l.344-.503c.085-.127-.042-.27-.238-.27l-.524.816v-.562c-.233 0-.424.133-.424.302v1.8c.239 0 .424-.132.424-.296v-.82c0-.032.01-.064.02-.09a.2.2 0 0 1 .065-.07a.5.5 0 0 1 .487 0a.3.3 0 0 1 .074.085a.2.2 0 0 1 .016.106v.847c0 .133.158.244.344.244v-1.09a.4.4 0 0 0-.048-.213a.44.44 0 0 0-.159-.17"/><path fill="url(#SVGbnimHS1u)" d="M12 21a9 9 0 1 1 0-18a9 9 0 0 1 0 18m0-17.799A8.799 8.799 0 1 0 12 20.8a8.799 8.799 0 0 0 0-17.6"/><defs><linearGradient id="SVGOxYylGSV" x1="-6.413" x2="24.461" y1="33.913" y2="-37.632" gradientUnits="userSpaceOnUse"><stop stop-color="#99644f"/><stop offset=".32" stop-color="#a57f62"/><stop offset=".71" stop-color="#dbc0b0"/></linearGradient><linearGradient id="SVGPQr8CG6t" x1="2.285" x2="12.421" y1="22.194" y2="-1.889" gradientUnits="userSpaceOnUse"><stop stop-color="#99644f"/><stop offset=".32" stop-color="#a57f62"/><stop offset=".71" stop-color="#dbc0b0"/><stop offset="1" stop-color="#e8e1da"/></linearGradient><linearGradient id="SVGEUMIQkiC" x1="-2.114" x2="55.16" y1="365.159" y2="359.457" gradientUnits="userSpaceOnUse"><stop offset=".32" stop-color="#a57f62"/><stop offset=".71" stop-color="#dbc0b0"/><stop offset="1" stop-color="#e8e1da"/></linearGradient><linearGradient id="SVGdWD3vdwI" x1="9.421" x2="66.695" y1="76.62" y2="70.919" gradientUnits="userSpaceOnUse"><stop stop-color="#99644f"/><stop offset=".32" stop-color="#a57f62"/></linearGradient><linearGradient id="SVGLWW19brH" x1="-85.784" x2="46.406" y1="157.684" y2="-60.822" gradientUnits="userSpaceOnUse"><stop offset=".32" stop-color="#a57f62"/><stop offset=".71" stop-color="#dbc0b0"/></linearGradient><linearGradient id="SVGAoECwbmH" x1="-134.844" x2="22.595" y1="202.234" y2="-100.121" gradientUnits="userSpaceOnUse"><stop offset=".32" stop-color="#a57f62"/><stop offset=".71" stop-color="#dbc0b0"/></linearGradient><linearGradient id="SVGQPVOeBDW" x1="-102.05" x2="97.235" y1="206.022" y2="-86.058" gradientUnits="userSpaceOnUse"><stop offset=".32" stop-color="#a57f62"/><stop offset=".71" stop-color="#dbc0b0"/></linearGradient><linearGradient id="SVGS6BVtbOc" x1="-84.657" x2="3.286" y1="113.984" y2="-96.858" gradientUnits="userSpaceOnUse"><stop offset=".32" stop-color="#a57f62"/><stop offset=".71" stop-color="#dbc0b0"/></linearGradient><linearGradient id="SVGbnimHS1u" x1="12.042" x2="11.958" y1="20.751" y2="2.788" gradientUnits="userSpaceOnUse"><stop stop-color="#99644f"/><stop offset=".32" stop-color="#a57f62"/><stop offset=".71" stop-color="#dbc0b0"/><stop offset="1" stop-color="#e8e1da"/></linearGradient></defs></g></svg>