<svg xmlns="http://www.w3.org/2000/svg" viewBox="0 0 24 24"><g fill="none"><path fill="url(#SVGoQi31dRd)" d="M4.25 7.375L11.585 3c.005 0 0 .015-.015.035l-1.11 1.91l-.01.01l-.59 1.02c-1.635 2.8-1.695 2.9-1.715 2.895a1.2 1.2 0 0 0-.365.02a.9.9 0 0 0-.375.2l-.05.045L5.79 8.26c-1.45-.815-1.56-.875-1.54-.885m9.89-1.41L12.425 3.02c-.02-.025-.005-.025.165.08l1.535.915l2.15 1.285l3.495 2.09c0 .005-3.1 1.74-3.115 1.74a.3.3 0 0 1-.065-.05a.85.85 0 0 0-.565-.215h-.15l-.04.005zM11.75 3.71L8.58 9.065l.065.07a.9.9 0 0 1 .215.375c.02.07.025.105.03.22c0 .095 0 .15-.01.19l-.015.06l2.885 1.61zm3.39 6.27l-2.89 1.58V3.69l3.18 5.38l-.05.05a.91.91 0 0 0-.25.835zM4 11.9V16s.765-1.29 1.67-2.84l1.645-2.825l-.05-.08a.88.88 0 0 1-.145-.64c.01-.04.015-.08.01-.085L4 7.79zm12.87-2.37l1.56-.87L20 7.785V16l-1.665-2.835l-1.65-2.825l.045-.055a.9.9 0 0 0 .15-.72l-.01-.03zm-8.275.9a1 1 0 0 1-.32.18l-.05.02v2.73l.075.025c.1.035.2.095.285.165l.065.06l1.44-.805l1.44-.81l-2.875-1.61l-.06.04zm3.885 1.565q1.425-.825 2.87-1.615l.055.045c.09.08.215.15.325.185l.05.02v2.73l-.05.015a1 1 0 0 0-.325.19l-.05.045l-1.435-.805zm-4.805-1.38c-.06.095-3.055 5.24-3.05 5.245a113 113 0 0 0 2.505-1.42l-.01-.085v-.03c-.05-.41.2-.81.595-.94l.06-.02v-2.74l-.04-.01l-.04-.015zm8.55.015l.045-.015l.045-.015c.005 0 3.075 5.255 3.07 5.26l-2.505-1.4v-.065a.904.904 0 0 0-.6-1.02l-.05-.015v-2.73zM8.865 14l.015.065c.02.1.01.305-.02.405a.9.9 0 0 1-.22.38l-.06.065l3.17 5.35V12.4l-2.885 1.605zm6.56.915L12.25 20.28v-7.85l2.89 1.58l-.01.025c-.06.3.03.61.235.825l.06.06zm-9.625.81c-.855.48-1.555.875-1.55.88l7.345 4.385a942 942 0 0 0-3.435-5.87l-.1.01a.88.88 0 0 1-.65-.23l-.05-.05zm10.565-.67a1 1 0 0 0 .29-.2c.19.1 3.1 1.735 3.11 1.74c.01.01-.785.485-3.605 2.17l-3.36 2l-.325.2l-.065.035l.02-.03l.24-.415l1.475-2.53c1.68-2.88 1.7-2.91 1.72-2.9h.15c.14 0 .235-.02.35-.07"/><defs><linearGradient id="SVGoQi31dRd" x1="6.903" x2="17.765" y1="5.228" y2="17.622" gradientUnits="userSpaceOnUse"><stop stop-color="#5566fe"/><stop offset="1" stop-color="#b370ff"/></linearGradient></defs></g></svg>