<svg xmlns="http://www.w3.org/2000/svg" viewBox="0 0 24 24"><g fill="none"><path fill="url(#SVGbgjJzbFW)" d="M3 8.71v6.875l1.5 1.01V7.7L3 8.715z"/><path fill="url(#SVGk5s7eemv)" d="M4.5 7.7v8.9L6 15.585V8.71z"/><path fill="url(#SVG4MNFrdwr)" d="M6 5.95v12.384l1.5 1.01v-14.4L6 5.954z"/><path fill="url(#SVGltfQrJSL)" d="M7.5 19.35L9 18.34V5.95L7.5 4.935z"/><path fill="url(#SVG3ilEzw3n)" d="M21 8.71v6.875l-1.5 1.01V7.7L21 8.715z"/><path fill="url(#SVGCLEACezr)" d="M19.5 7.7v8.9L18 15.585V8.71z"/><path fill="url(#SVGhfRoMb0F)" d="M18 5.95v12.384l-1.5 1.01v-14.4l1.5 1.01z"/><path fill="url(#SVGp5yczeLH)" d="M16.5 19.35L15 18.34V5.95l1.5-1.015z"/><path fill="url(#SVGM4yyjbaz)" d="M9 4.01v15.98L10.495 21h.005V3z"/><path fill="url(#SVGHQlPadhI)" d="M10.5 21h.005l1.494-1.01V4.01L10.5 3z"/><path fill="url(#SVGM4yyjbaz)" d="M12 4.01v15.98L13.495 21h.005V3z"/><path fill="url(#SVGX0VQBevp)" d="M13.5 21h.005L15 19.99V4.01L13.5 3z"/><defs><linearGradient id="SVGbgjJzbFW" x1="12" x2="12" y1="3" y2="21" gradientUnits="userSpaceOnUse"><stop stop-color="#670057"/><stop offset="1" stop-color="#230059"/></linearGradient><linearGradient id="SVGk5s7eemv" x1="12" x2="12" y1="3" y2="20.99" gradientUnits="userSpaceOnUse"><stop stop-color="#cc1b99"/><stop offset="1" stop-color="#471288"/></linearGradient><linearGradient id="SVG4MNFrdwr" x1="12" x2="12" y1="2.993" y2="20.999" gradientUnits="userSpaceOnUse"><stop stop-color="#670057"/><stop offset="1" stop-color="#230059"/></linearGradient><linearGradient id="SVGltfQrJSL" x1="12" x2="12" y1="3.006" y2="20.993" gradientUnits="userSpaceOnUse"><stop stop-color="#cc1b99"/><stop offset="1" stop-color="#471288"/></linearGradient><linearGradient id="SVG3ilEzw3n" x1="12" x2="12" y1="3" y2="21" gradientUnits="userSpaceOnUse"><stop stop-color="#cc1b99"/><stop offset="1" stop-color="#471288"/></linearGradient><linearGradient id="SVGCLEACezr" x1="12.001" x2="12.001" y1="3" y2="20.99" gradientUnits="userSpaceOnUse"><stop stop-color="#670057"/><stop offset="1" stop-color="#230059"/></linearGradient><linearGradient id="SVGhfRoMb0F" x1="12.001" x2="12.001" y1="2.993" y2="20.999" gradientUnits="userSpaceOnUse"><stop stop-color="#cc1b99"/><stop offset="1" stop-color="#471288"/></linearGradient><linearGradient id="SVGp5yczeLH" x1="12" x2="12" y1="3.006" y2="20.993" gradientUnits="userSpaceOnUse"><stop stop-color="#670057"/><stop offset="1" stop-color="#230059"/></linearGradient><linearGradient id="SVGM4yyjbaz" x1="12" x2="12" y1="3" y2="21.005" gradientUnits="userSpaceOnUse"><stop stop-color="#670057"/><stop offset="1" stop-color="#230059"/></linearGradient><linearGradient id="SVGHQlPadhI" x1="14.249" x2="14.249" y1="3" y2="21.005" gradientUnits="userSpaceOnUse"><stop stop-color="#cc1b99"/><stop offset="1" stop-color="#471288"/></linearGradient><linearGradient id="SVGX0VQBevp" x1="14.25" x2="14.25" y1="3" y2="21.005" gradientUnits="userSpaceOnUse"><stop stop-color="#cc1b99"/><stop offset="1" stop-color="#471288"/></linearGradient></defs></g></svg>