<svg xmlns="http://www.w3.org/2000/svg" viewBox="0 0 24 24"><g fill="#4100a8"><path d="M7.481 7.643c.515-.5 1.1-.895 1.77-1.14a4.38 4.38 0 0 1 3.785.4c.4.26.74.575 1.05.935l-.57.455a4.7 4.7 0 0 0-.675-.725a3.4 3.4 0 0 0-1-.585a3.93 3.93 0 0 0-2.325-.15c-.69.165-1.328.5-1.855.975c-.015.015-.02.025-.03.01l-.05-.06z"/><path d="m20.245 5.399l-1.51.17c-.16.02-.334.03-.45.155c-.17.185-.01.42.125.56l.4.43l.145.15c.01.01-.11.125-.125.14l-.71.775l-.035.04a10 10 0 0 0-1.12-1.32c-.01-.01-.07-.085-.08-.07l-.1.09l-.095.085c-.01.015.07.095.08.105l.35.42q.364.451.66.95c.025.04.03.04-.005.08l-.44.48a6.92 6.92 0 0 0-3.03-2.995a6.54 6.54 0 0 0-4.94-.3a6.94 6.94 0 0 0-3.81 3.21a7.25 7.25 0 0 0-.56 5.59c.01.035.02.05 0 .075l-.06.06l-.11.115l-.23.245l-.755.8l-.81.855c0 .005-.035.03-.03.035l.2.19c.02.025.035.065.06.04l.085-.09l1.035-1.055l.775-.8a7.1 7.1 0 0 0 1.985 2.805a6.614 6.614 0 0 0 9.04-.42a6.94 6.94 0 0 0 1.945-3.94a7.4 7.4 0 0 0-.365-3.45c-.015-.045-.05-.085-.015-.115l.11-.11l.4-.4c.751 1.6.905 3.416.435 5.12a8.3 8.3 0 0 1-.56 1.5a13 13 0 0 1-.715 1.23l.89.565c.375-.665.7-1.35.94-2.08a8.23 8.23 0 0 0-.455-6.34l-.14-.26l-.034-.06c-.016-.03 0-.035.03-.055l.124-.13l.435-.43l.445-.44l.65.695c.15.15.415.31.545.055c.06-.125.06-.27.065-.41l.06-1.215l.025-.505c.01-.16.01-.315-.065-.465a.675.675 0 0 0-.685-.35zM5.55 13.049a6.2 6.2 0 0 1 .77-4.7a5.66 5.66 0 0 1 3.83-2.6c1.64-.27 3.345.25 4.595 1.34a5.8 5.8 0 0 1 1.65 2.39c.015.04.06.11.025.145l-.12.135l-.85.92l-1.784 1.92l-.916.985l-.325.35c-.075.08-.235.25-.365.19c-.16-.07-.185-.37-.215-.525l-.235-1.275c-.16-.86-.3-1.73-.48-2.585c-.075-.37-.285-.765-.7-.805c-.28-.03-.545.11-.74.3c-.2.2-.385.405-.575.61l-.925.975l-2.515 2.68l-.12-.44c.035.15-.27-1.125 0 0zm6.33.73c0 .01 0 .005 0 0m4.74-.915a6.05 6.05 0 0 1-2.63 3.87a5.466 5.466 0 0 1-6.68-.645l-.05-.05l-.015-.01a5.9 5.9 0 0 1-1.37-1.985c-.015-.04-.065-.1-.03-.135l.12-.125l.82-.835l1.77-1.815l.945-.96c.19-.19.37-.395.566-.575c.084-.075.224-.18.344-.135c.16.065.19.31.215.455l.23 1.31l.43 2.52c.03.19.06.39.16.555c.17.3.45.49.81.43c.3-.05.525-.26.735-.47l.95-.95l2.74-2.765c.12.77.105 1.555-.055 2.315c.17-.81-.085.41 0 0z"/></g></svg>