<?xml version="1.0" encoding="UTF-8" standalone="no"?>
<!-- Created with Inkscape (http://www.inkscape.org/) -->

<svg
   version="1.0"
   width="128"
   height="128"
   id="svg1973"
   sodipodi:docname="öpnvmap.svg"
   inkscape:version="1.4.2 (f4327f4, 2025-05-13)"
   xml:space="preserve"
   xmlns:inkscape="http://www.inkscape.org/namespaces/inkscape"
   xmlns:sodipodi="http://sodipodi.sourceforge.net/DTD/sodipodi-0.dtd"
   xmlns:xlink="http://www.w3.org/1999/xlink"
   xmlns="http://www.w3.org/2000/svg"
   xmlns:svg="http://www.w3.org/2000/svg"><defs
     id="defs3"><linearGradient
       id="linearGradient15"
       inkscape:collect="always"><stop
         style="stop-color:#ffffff;stop-opacity:0.85968029;"
         offset="0"
         id="stop15" /><stop
         style="stop-color:#ffffff;stop-opacity:0;"
         offset="1"
         id="stop16" /></linearGradient><linearGradient
       id="linearGradient8"
       inkscape:collect="always"><stop
         style="stop-color:#5e5e5f;stop-opacity:1;"
         offset="0"
         id="stop8" /><stop
         style="stop-color:#000000;stop-opacity:1;"
         offset="1"
         id="stop9" /></linearGradient><linearGradient
       inkscape:collect="always"
       xlink:href="#linearGradient8"
       id="linearGradient9"
       x1="51.53838"
       y1="51.824139"
       x2="51.240063"
       y2="4.4260616"
       gradientUnits="userSpaceOnUse" /><linearGradient
       inkscape:collect="always"
       xlink:href="#linearGradient15"
       id="linearGradient16"
       x1="27.839592"
       y1="26.717916"
       x2="19.323809"
       y2="-4.7628951"
       gradientUnits="userSpaceOnUse" /></defs><sodipodi:namedview
     id="namedview3"
     pagecolor="#ffffff"
     bordercolor="#6f6f6f"
     borderopacity="1"
     inkscape:showpageshadow="0"
     inkscape:pageopacity="0"
     inkscape:pagecheckerboard="0"
     inkscape:deskcolor="#ffffff"
     showgrid="true"
     inkscape:zoom="1"
     inkscape:cx="58.5"
     inkscape:cy="67.5"
     inkscape:window-width="2560"
     inkscape:window-height="1013"
     inkscape:window-x="-4"
     inkscape:window-y="-4"
     inkscape:window-maximized="1"
     inkscape:current-layer="svg1973"><inkscape:grid
       id="grid3"
       units="px"
       originx="0"
       originy="0"
       spacingx="1"
       spacingy="1"
       empcolor="#0099e5"
       empopacity="0.30196078"
       color="#0099e5"
       opacity="0.14901961"
       empspacing="5"
       enabled="true"
       visible="true" /></sodipodi:namedview><g
     id="g8"
     transform="matrix(2.2707782,0,0,2.2707782,-6.6215624,2.5681462)"><path
       id="path6"
       style="opacity:1;fill:url(#linearGradient9);stroke-width:0.921267;fill-opacity:1"
       d="M 18.987821,4.6386898 C 13.572457,4.6655069 7.7258895,7.2961642 5.5692474,12.543132 c -1.580375,3.922441 -1.1226956,8.896267 1.7475644,12.11044 2.4738658,2.596282 7.5282122,2.560007 9.5651772,-0.529992 1.447217,-2.795273 -1.422113,-5.526647 -1.120204,-8.410511 0.272985,-2.985958 3.224525,-4.824592 5.773743,-5.8118417 5.84335,-1.8881992 12.046398,0.6371777 16.934454,3.8260587 5.214287,3.580912 9.81054,8.656883 11.534725,14.857607 0.704021,2.474871 0.22735,5.192879 -1.376981,7.218966 -1.683574,2.691304 -5.266081,2.350436 -8.021491,2.220997 -2.460034,-0.402576 -5.349235,0.913006 -4.872319,3.747749 0.187811,3.429459 2.794765,6.775854 6.164802,7.546114 4.936344,0.684068 10.753556,-0.45405 13.64379,-4.902691 C 58.894974,39.415894 57.484815,32.913215 54.987479,27.864504 49.151273,16.379278 37.885579,7.7324801 25.250102,5.1649327 23.188946,4.7728981 21.086682,4.5698202 18.987821,4.6386898 Z"
       sodipodi:nodetypes="cccccccccccccccc" /><path
       id="path7"
       style="opacity:1;fill:#3d7468;fill-opacity:1;stroke-width:1.00206"
       d="M 45.474856,26.630375 C 44.319387,44.236 8.2188378,15.075617 27.189467,12.204271 33.363021,11.269858 45.87831,20.483014 45.474856,26.630375 Z"
       sodipodi:nodetypes="sss" /><path
       id="path8"
       style="opacity:1;fill:#3d7468;fill-opacity:1;stroke-width:0.871553"
       d="m 32.389349,36.447599 c 1.062791,1.069206 1.456066,2.808512 0.833653,4.199568 -0.276695,0.647405 -0.919386,1.048402 -1.591565,1.179689 -1.26793,0.267544 -2.632299,0.09259 -3.79139,-0.486954 -1.132603,-0.553582 -1.812307,-1.738644 -2.061396,-2.937357 -0.180646,-0.911551 -0.191935,-1.943527 0.346423,-2.742613 0.461785,-0.636068 1.317142,-0.734801 2.045771,-0.740731 1.3228,0.02717 2.664057,0.390803 3.761063,1.144045 0.162105,0.116006 0.316402,0.243353 0.457441,0.384353 z m -0.259726,0.325486 c 1.062791,1.069205 1.456068,2.808512 0.833654,4.199567 -0.276696,0.647405 -0.919386,1.048402 -1.591566,1.179689 -1.26793,0.267545 -2.632298,0.09259 -3.791389,-0.486953 -1.132602,-0.553582 -1.812306,-1.738644 -2.061395,-2.937356 -0.180646,-0.911551 -0.191935,-1.943527 0.346422,-2.742614 0.461785,-0.636068 1.317142,-0.734802 2.045771,-0.740732 1.322799,0.02717 2.664057,0.390804 3.761062,1.144046 0.162105,0.116006 0.316402,0.243353 0.457441,0.384353 z"
       sodipodi:nodetypes="cccccccccccccccccc" /><path
       id="path8-9"
       style="opacity:1;fill:#3d7468;fill-opacity:1;stroke-width:1.01104"
       d="m 23.597128,28.874458 c 0.969849,1.422639 1.058136,3.441141 0.108802,4.895248 -0.420396,0.666959 -1.185008,1.04031 -1.960935,1.068754 -1.475789,0.08416 -2.971467,-0.373165 -4.184672,-1.208944 -0.930658,-0.623573 -1.540404,-1.639357 -1.769579,-2.725031 -0.269112,-1.257066 -0.210078,-2.650787 0.447688,-3.783113 0.339111,-0.612956 1.012026,-0.983317 1.70789,-0.980633 1.36845,-0.03434 2.700462,0.467788 3.867563,1.149123 0.681201,0.414912 1.324564,0.924518 1.783243,1.584596 z m -0.365363,0.315994 c 0.96985,1.422639 1.058138,3.441141 0.108803,4.895248 -0.446621,0.709192 -1.284399,1.093689 -2.111299,1.05408 -1.547325,-0.049 -3.027282,-0.834353 -4.046934,-1.981101 -0.934874,-1.119966 -1.456857,-2.566035 -1.543104,-4.016252 -0.03469,-0.857261 0.113864,-1.864736 0.874363,-2.385346 0.783693,-0.460055 1.746934,-0.319005 2.590678,-0.127679 1.458185,0.382271 2.876952,1.102557 3.885136,2.244357 0.08587,0.101532 0.167139,0.207015 0.242357,0.316693 z" /><path
       id="path9"
       style="opacity:0.34375;fill:url(#linearGradient16);fill-opacity:1;stroke:none;stroke-width:0.440378"
       d="M 18.988053,4.6386813 C 13.572689,4.6654984 7.7260777,7.2961488 5.5694356,12.543116 c -1.580375,3.922441 -1.1225111,8.896213 1.7477489,12.110386 2.4738658,2.596282 7.5274875,2.56017 9.5644525,-0.529829 1.447217,-2.795273 -1.421776,-5.526318 -1.119867,-8.410182 0.272985,-2.985958 3.224718,-4.825391 5.773936,-5.8126407 5.84335,-1.8881992 12.045842,0.6377597 16.933898,3.8266407 2.651519,1.820931 5.142932,4.028415 7.1785,6.573841 l 3.830081,-0.676908 C 43.267675,12.335204 34.636868,7.0725621 25.249673,5.1650702 23.188517,4.7730356 21.086914,4.5698117 18.988053,4.6386813 Z m 9.428554,7.5062027 c -0.430689,-0.01765 -0.841533,9.47e-4 -1.22738,0.05935 -7.740576,1.171594 -6.312262,6.719671 -1.83032,11.68205 5.471994,-1.240733 10.793056,-2.556933 17.629728,-3.115328 -3.55324,-4.389201 -10.130253,-8.444031 -14.572028,-8.62607 z"
       sodipodi:nodetypes="cccccccccccssccs" /></g></svg>
