<svg fill="none" version="1.1" viewBox="0 0 48 48" xmlns="http://www.w3.org/2000/svg">
 <path d="m45.284 8h-42.568c-1.4907 0-2.7161 1.2106-2.7161 2.683v14.757c2.0203 0.35985 3.5441 2.1267 3.5441 4.2209 0 2.094-1.5238 3.8609-3.5441 4.2209v3.4356c0 1.4724 1.2254 2.683 2.7161 2.683h42.568c1.4897 0 2.7161-1.2106 2.7161-2.683v-26.601c0-1.4724-1.2264-2.6831-2.7161-2.6831zm-24.017 25.685h-14.709v-19.37h14.31v3.0103h-10.666v5.0388h9.4739v2.9776h-9.4739v5.3333h11.065zm20.273-8.4417c0 2.8138-0.76187 4.9733-2.2526 6.4785-1.4907 1.5051-3.6111 2.2577-6.3272 2.2577-2.7171 0-4.8365-0.75259-6.3272-2.2577-1.5238-1.5052-2.2856-3.6647-2.2856-6.4785v-10.928h3.6432v10.798c0 3.7955 1.6569 5.6933 5.0027 5.6933 3.3458 0 4.9687-1.8977 4.9687-5.6933v-10.798h3.5781z" fill="#ffe600" stroke-width=".99133"/>
</svg>
