<svg version="1.1" viewBox="0 0 180 54" xmlns="http://www.w3.org/2000/svg">
 <path d="m69.816 14.301c-0.5294-0.5-0.7941-1.1333-0.7941-1.8667 0-0.7333 0.2647-1.3667 0.7941-1.8667s1.1912-0.76662 1.9853-0.76662 1.4559 0.23332 1.9853 0.73332c0.5294 0.4667 0.7941 1.1 0.7941 1.8s-0.2647 1.4334-0.7941 1.9667-1.1912 0.8-2.0184 0.8-1.4559-0.2667-1.9853-0.7667l0.0331-0.0333z"/>
 <path d="m165.11 11.6h-42.519c-1.489 0-2.713 1.2333-2.713 2.7333v15.033c2.018 0.3666 3.54 2.1666 3.54 4.3 0 2.1333-1.522 3.9333-3.54 4.3v3.5c0 1.5 1.224 2.7333 2.713 2.7333h42.519c1.488 0 2.713-1.2333 2.713-2.7333v-27.1c0-1.5-1.225-2.7334-2.713-2.7334v-0.0333zm-23.989 26.167h-14.692v-19.733h14.294v3.0667h-10.654v5.1333h9.463v3.0334h-9.463v5.4333h11.052v3.0667zm20.25-8.6c0 2.8666-0.761 5.0666-2.25 6.6-1.489 1.5333-3.607 2.3-6.32 2.3-2.714 0-4.831-0.7667-6.32-2.3-1.522-1.5334-2.283-3.7334-2.283-6.6v-11.133h3.639v11c0 3.8667 1.655 5.8 4.997 5.8s4.963-1.9333 4.963-5.8v-11h3.574v11.133z" fill="#FFE600"/>
 <g>
  <path d="m17.735 36.767c-1.886-1.0334-3.3419-2.4334-4.4338-4.2667-1.0588-1.8-1.5882-3.8333-1.5882-6.1s0.5294-4.2667 1.5882-6.1c1.0589-1.8 2.5478-3.2333 4.4338-4.2667 1.8861-1.0333 3.9706-1.5333 6.3199-1.5333s4.4338 0.5 6.3199 1.5333c1.886 1.0334 3.3419 2.4334 4.4338 4.2334 1.0588 1.8 1.5882 3.8333 1.5882 6.1 0 2.2666-0.5294 4.3-1.5882 6.1s-2.5478 3.2-4.4338 4.2333c-1.8861 1.0333-3.9706 1.5333-6.3199 1.5333s-4.4338-0.5-6.3199-1.5333v0.0667zm10.456-3.2667c1.2243-0.7 2.1839-1.6667 2.8787-2.9 0.6949-1.2333 1.0588-2.6333 1.0588-4.1667 0-1.5333-0.3639-2.9333-1.0588-4.1666-0.6948-1.2334-1.6544-2.2-2.8787-2.9-1.2242-0.7-2.6139-1.0334-4.136-1.0334s-2.9118 0.3334-4.136 1.0334c-1.2243 0.7-2.1838 1.6666-2.8787 2.9-0.6949 1.2333-1.0588 2.6333-1.0588 4.1666 0 1.5334 0.3639 2.9334 1.0588 4.1667s1.6544 2.2 2.8787 2.9c1.2242 0.7 2.5809 1.0333 4.136 1.0333 1.5552 0 2.9118-0.3333 4.136-1.0333z"/>
  <path d="m45.331 17v1.1667h5.3934v3.7h-5.261v15.9h-4.5993v-15.9h-3.2426v-3.7h3.2426v-1.2667c0-2.1333 0.5956-3.8 1.8199-5 1.2243-1.2333 2.9448-1.8333 5.1618-1.8333 2.2169 0 3.1433 0.3667 4.136 1.0667l-1.2905 3.4666c-0.7941-0.5333-1.6213-0.8-2.5147-0.8-1.9191 0-2.9117 1.0667-2.9117 3.1667l0.0661 0.0333z"/>
  <path d="m60.618 17v1.1667h5.3933v3.7h-5.261v15.9h-4.5993v-15.9h-3.2426v-3.7h3.2426v-1.2667c0-2.1333 0.5956-3.8 1.8199-5 1.2243-1.2333 2.9449-1.8333 5.1618-1.8333s3.1433 0.3667 4.136 1.0667l-1.2904 3.4666c-0.7942-0.5333-1.6214-0.8-2.5148-0.8-1.9191 0-2.9117 1.0667-2.9117 3.1667l0.0662 0.0333z"/>
  <path d="m69.518 18.033h4.5992v19.733h-4.5992v-19.733z"/>
  <path d="m81.992 36.734c-1.6214-0.8667-2.8787-2.0667-3.7721-3.6s-1.3566-3.2667-1.3566-5.2333c0-1.9667 0.4632-3.6667 1.3566-5.2 0.8934-1.5334 2.1507-2.7334 3.7721-3.6 1.5882-0.8667 3.4411-1.3 5.4926-1.3s3.6397 0.4 5.0956 1.1666c1.4559 0.8 2.5478 1.9334 3.2757 3.4l-3.5073 2.0667c-0.5625-0.9-1.2574-1.6-2.1177-2.0667-0.8272-0.4666-1.7536-0.7-2.7794-0.7-1.7206 0-3.1434 0.5667-4.2684 1.6667-1.125 1.1333-1.6875 2.6333-1.6875 4.5s0.5625 3.3667 1.6544 4.5c1.125 1.1333 2.5478 1.6667 4.2684 1.6667s1.9191-0.2334 2.7794-0.7c0.8603-0.4667 1.5552-1.1334 2.1177-2.0667l3.5073 2.0667c-0.761 1.4666-1.8529 2.6333-3.3088 3.4333s-3.1434 1.2-5.0294 1.2-3.8382-0.4333-5.4596-1.3l-0.033 0.1z"/>
  <path d="m114.72 33.601c0-1.2 0.463-2.2666 1.257-3.0666-1.39 1.2666-4.467 3.5666-8.438 3.5-1.687 0-3.11-0.4334-4.235-1.2667s-1.853-2-2.118-3.4667h15.387c0.033-0.6 0.066-1.0333 0.066-1.3666 0-2.0334-0.43-3.8-1.258-5.3334-0.827-1.5333-2.018-2.7333-3.507-3.6-1.489-0.8333-3.21-1.2666-5.129-1.2666s-3.672 0.4333-5.195 1.3c-1.5547 0.8666-2.7459 2.0666-3.6062 3.6-0.8603 1.5333-1.2904 3.2666-1.2904 5.2 0 1.9333 0.4301 3.7 1.3235 5.2333s2.1511 2.7333 3.8051 3.6 3.541 1.3 5.691 1.3c2.151 0 3.21-0.2667 4.533-0.8 1.192-0.4667 2.184-1.1667 3.011-2.0333-0.165-0.4667-0.264-1-0.264-1.5334h-0.033zm-11.714-10.833c1.026-0.8667 2.25-1.3 3.739-1.3s2.747 0.4333 3.739 1.3333c0.993 0.9 1.589 2.0334 1.787 3.4667h-11.118c0.232-1.4667 0.828-2.6333 1.853-3.5z"/>
 </g>
</svg>
