<svg xmlns="http://www.w3.org/2000/svg" viewBox="0 0 24 24"><g fill="none"><path fill="#fed501" d="M12.45 18.75a7.2 7.2 0 1 0 0-14.4a7.2 7.2 0 0 0 0 14.4"/><path fill="#72b4c4" d="M11.13 6.375c.374.045.437.184.622.373c.112-.423.517-.994 1.003-.607c.558.45.711 2.367.198 2.875c-.324.324-.819.36-1.197-.144c-.193.158-.063.149-.364.315c-.171.009-.1 0-.185.059c.162.099.302.225.405.396c.122.202.113.423-.058.517c-.315.707-1.877.72-2.745.45c-.882-.283-1.521-.823-1.535-1.935c-.099-.004-.072-.013-.166.009c-.104.023-.054.009-.108.045l.108.036c-.27.099-.482.423-.567.72c-.13.464-.01.72.045 1.13l-.135-.059c.225.63 1.62 1.499 2.187 2.88c.8 1.967.297 3.006.247 4.329c.306.27 1.557.774 1.994.864c.418.08.99.126 1.57.122c1.674 0 3.569-.662 4.662-1.76c-.153-.315-.382-.562-.567-.927a3.2 3.2 0 0 1-.337-1.143c-.117-1.283.787-3.28 1.273-4.558c.261-.693.563-1.4.765-2.142l-.036-.018l-.283-.108a.29.29 0 0 1-.153-.27c0-.396.396-.18.549-.266c.184-.099.09-.571.013-.756c-.09-.234-.198-.382-.414-.477l-.031.225c.08.032.112-.031.18.18c.157.518-1.17.225-.936-.198c.05-.067-.027-.045.144-.112c.346-.126.382.17.54-.239c-1.17-.346-1.769.387-2.323.932c-.233.234-1.633 1.3-2.033 1.386c.189-.82-.005-2.633-1.004-2.624c-.44 0-.558.266-.751.509c-.198-.059-.392-.135-.576-.01"/><path fill="#081517" d="m15.645 8.25l.306-.206c-.37 1.165-2.565 2.398-3.838 2.799c-1.202.378-3.029.63-4.213-.023c-.369-.202-.846-.378-.562-.909c-.657.653.868 1.085 1.075 1.287c.09.09.644 1.697.725 1.935c.23.675.427 1.45.954 1.71c.544.275 1.813.225 2.425.095c1.476-.306 2.196-1.36 2.754-2.583a10 10 0 0 0 .653-2.016c.202-.918.202-1.485.256-2.444l1.013-.252a2.76 2.76 0 0 0-1.251.257c.517-.567.594-.428 1.395-.689c-.734-.17-1.557.545-1.692 1.035z"/><path fill="#fee563" d="M11.478 19.42c.149.198.378.437.558.64c.306.35.036.54.212.931l.724.009c.068-.621-.157-.486.27-.945c.171-.184.378-.414.558-.652a1.22 1.22 0 0 0-.706-.365l-.5.576c-.193-.149-.306-.405-.504-.572c-.238.023-.283.162-.495.257c-.427-.324-.751-.706-1.498-.482c-.54.167-.932.617-.752 1.256c.257.909 1.778 1.125 2.246.076c.198-.45-.18-.341-.585-.4c-.225-.031-.31-.058-.572-.058l-.085.341l.18.059c.121.076.054-.036.09.099c-.495.202-.76-.22-.527-.54c.248-.337.675-.261.891.014z"/><path fill="#0c0c0c" d="m17.895 6.55l.086.329c-.334.126-.675.022-.788-.234c.099-.194.158-.198.41-.194c.063.149-.09.023.05.23c.184-.054.076-.054.238-.135zm-5.386-2.097c.112.225.238.851.22 1.134l-.675.032a19 19 0 0 1-.35-1.035c-.18-.234-.307-.54-.473-.765c-.203-.27-.36-.396-.585-.594c.224.126.778 1.012.9 1.35c.103.108.283.585.333.765c.08.301.036.41-.288.837c-.144.004-.306-.014-.378.072l-.01.076c.217-.045.329.01.505.059c.193-.243.31-.504.751-.509c1-.009 1.193 1.8 1.004 2.624c.405-.09 1.8-1.152 2.034-1.386c.553-.54 1.156-1.278 2.322-.932c-.158.405-.198.113-.54.239c-.171.063-.09.045-.145.112c-.238.428 1.094.716.937.198c-.068-.211-.1-.148-.18-.18l.031-.225c.216.09.324.243.414.477c.077.18.171.657-.013.756c-.153.086-.55-.13-.55.27c0 .135.068.212.154.266l.283.112l.031.014c-.197.742-.494 1.449-.764 2.142c-.486 1.278-1.386 3.276-1.27 4.558c.041.432.18.837.338 1.143c.184.365.414.617.567.927c.185-.072.108-.027.113-.135c-1.148-1.449-1.008-2.731-.334-4.612c.27-.751.559-1.44.838-2.174c.229-.612.688-1.638.778-2.254c.068-.306.059-.27.337-.378c.36-.144.383-.086.554-.216c-.423.018-.486.108-.823.18c-.04-.81-.203-.752-.495-1.247c.207-.436.513-.414.774-.688c-.405.085-.671.396-.9.594c-.234-.04-.297-.149-.599-.149c-.238-.004-.445.081-.643.135c-.09.086-.509.311-.67.423c-.406.297-1.54 1.395-1.98 1.386c-.037-.675-.172-1.471-.523-1.849c-.432-.473-.531-.13-.63-.563c-.054-.238-.202-.724-.193-.918c-.162-.18-.428-1.174-.765-1.525z"/><path fill="#fdfdfd" d="M11.1 13.179c-.004.252.252 1.476.36 1.692c.707.076 1.305-.171 1.827-.4l-.085-1.922c-.324.103-.608.27-.959.391c-.418.144-.68.19-1.147.239z"/><path fill="#fee666" d="M8.337 19.335c-.199.337-.82-.1-.54-.545c.103-.157.341-.225.58-.166c.207.05.279.189.387.324c.518-.162.801-.252.045-.873c-.211-.18-.463-.248-.841-.22c-.649.053-.972.562-.91 1.192c.122 1.332 2.3 1.386 2.242.243a3.6 3.6 0 0 0-.73-.306c-.36-.122-.49-.194-.521.247l.287.108z"/><path fill="#fee563" d="M6.33 16.954c.315.563-.104 1.161-.46.855c-.152-.126-.152-.459-.062-.684c.103-.247.283-.225.522-.17m-.572-.774c-1.134.793-.144 3.105.774 2.457c1.112-.787.23-3.163-.774-2.457"/><path fill="#fee666" d="M16.877 17.714c0 .37.117.405.122.76l-.95-.197c.014.247.387 1.674.477 1.822c.194-.022.509-.27.58-.36c-.04-.225-.148-.27-.116-.513l.86-.053c.004-.32-.113-.63-.172-.945c-.031-.18-.067-.253-.099-.428l-.108-.4a6 6 0 0 0-.594.314"/><path fill="#fcfdfc" d="m13.332 12.445l.045 1.949c.323-.09.886-.711 1.08-.981c.701-.99.706-1.157.684-2.057c-.212.09-.603.405-.86.558c-.27.162-.648.419-.945.531z"/><path fill="#fee666" d="m18.138 16.918l.112.27c.18.356.46.622.315.856c-.198-.064-.18-.19-.306-.496l-.207-.481c-.031-.05-.031-.045-.067-.081c-.22.045-.455.211-.585.302c.112.305.306.688.463 1.012c.198.423.495.634.968.243c.652-.54.32-1.143-.081-1.818c-.032-.05-.036-.068-.068-.104c-.058-.076.018.01-.045-.054c-.045-.049-.027-.035-.072-.067c-.135.072-.288.292-.427.418"/><path fill="#fdfdfd" d="M10.929 11.829c-.072.337.085.846.112 1.192c.797-.045 1.544-.324 2.138-.62l-.144-1.198c-.261.04-.675.225-.99.31a5 5 0 0 1-1.08.18zm2.335-.482l.063.968c.324-.113.666-.338.945-.509c.31-.18.603-.44.855-.571l-.027-.455c-.166-.153-.144-.301-.418-.31c-.284-.005-1.13.454-1.4.59z"/><path fill="#b70119" d="m9.732 8.175l-.085.095c-.104-.032-.104-.045-.252-.068c-.203.374.063.446-.392.878c-.279.27-.675.14-.913.306c-.167-.027-.22-.045-.338-.135a4 4 0 0 1-.26-.212c-.113.153-.064.18-.064.216c.392.28.288.288.76.477c-.404.117.338.45.54.572c.136.085-.035.031.15.121c.278.135 1.07.149 1.394.108c.621-.08.392.14.864-.225a1.4 1.4 0 0 1 .419-.148c.17-.09.18-.315.058-.518c-.1-.164-.239-.3-.405-.396c.09-.058.014-.05.185-.063l-.28-.004c-.03-.059-.134.072-.022-.113c-.405-.198-.522-.553-.54-1.089c-.018-.477.045-1.035.315-1.314c-.076 0-.067.023-.054-.045c-.211.216-.288.684-.315 1.022c-.045.472.1.792.104 1.215c-.387-.144-.617-.585-.869-.675z"/><path fill="#fdfdfd" d="M11.356 14.88c-.117-.554-.32-1.103-.418-1.701c-.509.009-.815-.068-1.283-.14c.104.441.27.918.405 1.346c.095.306.126.36.45.44a2.4 2.4 0 0 0 .846.06z"/><path fill="#f8f8f7" d="M10.865 6.663c-.27.28-.333.837-.315 1.314c.014.54.135.891.54 1.09c.873.049.486-.739.504-1.44c.01-.374.167-.676-.036-.932c-.238-.302-.477-.243-.693-.032"/><path fill="#171403" d="M5.997 8.495c.194.054.333.103.46.22c-.136.261-.289.153-.401.896l-.59-.072c-.328-.014-.86-.032-1.116.08c.324.109 1.107-.103 1.328.109c.526-.01.315.382.576.81c.616 1.035 2.385 2.007 2.641 4.32c.077.666.068 1.948-.112 2.574c-.027.238-.09.27.103.333c.05-1.323.554-2.363-.247-4.33c-.563-1.38-1.962-2.25-2.192-2.88c-.558-.418-.27-1.903.554-1.822c.054-.04 0-.027.108-.05c.094-.022.067-.013.166-.008c-.027-.185-.166-.13-.36-.117c-.36.072-.27.022-.558-.095a4 4 0 0 0-.495-.148a5 5 0 0 0-.549-.032l-.405.045c-.08.027-.067.027-.112.059c.405-.014.918-.032 1.201.108"/><path fill="#fdfdfd" d="M9.4 11.802c-.019.247.112.855.224 1.044c.257.18.9.225 1.26.175l-.189-1.305a10 10 0 0 1-.72.023c-.117 0-.247-.018-.355-.018c-.234-.005-.171-.072-.22.08"/><path fill="#990516" d="M6.91 8.558c.198-.014.338-.068.36.117c.018 1.111.653 1.652 1.54 1.935c.868.27 2.43.257 2.744-.45c-2.259.414-.639.54-3.6-.63c-.144-.081-.594-.31-.463-.49c-.014-.145-.032-.316-.032-.455c-.013-.603.783-.954 1.463-.747c.207.063.315.103.414.261c.013.022.031.045.058.103c.149.023.149.036.252.068l.086-.09c-.54-.675-2.318-.752-2.44.337l-.382.045z"/><path fill="#fee563" d="M14.705 18.592c-.055.473.315 1.521.431 1.958a1.7 1.7 0 0 0 .914-.275c.018-.27-.225-1.8-.369-1.975c-.248.022-.315.076-.508.14c-.176.062-.329.107-.468.152"/><path fill="#cdcdcb" d="M15.253 11.087c.49-.239.477-.55.594-1.216c.077-.44.207-1.138.194-1.579c-.135.36-.72.882-.878 1.053c-.18.202-.067.247.005.81c.04.315.063.617.09.931zm-1.989.26l.018-.287c.27-.135 1.116-.594 1.395-.585c.28.004.257.152.423.306l-.198-1.162c-.252.104-1.116.824-1.773 1c.027.207.032.594.135.729m-2.335.482l.036-.135a5 5 0 0 0 1.08-.18c.315-.085.733-.27.99-.31l-.095-.468c-.288.053-.666.233-.999.328c-.32.09-.765.225-1.098.248c0 .085.005.18.018.26z"/><path fill="#17191b" d="m11.203 6.33l.009-.08a1.05 1.05 0 0 0-.4.364c-.014.072-.028.045.053.045c.216-.207.455-.265.693.036c.045.063.477 2.43-.468 2.372c-.112.18-.008.054.023.112l.279.005c.301-.162.17-.153.36-.31c.382.503.877.467 1.201.143c.513-.508.36-2.42-.198-2.875c-.486-.387-.89.18-1.003.607c-.185-.189-.248-.328-.621-.373z"/><path fill="#cf2133" d="M7.491 9.04c.05.045.198.166.261.211c.117.09.171.108.338.135c.243-.166.634-.036.913-.306c.455-.432.19-.504.392-.877c-.027-.063-.045-.081-.059-.104c-.094-.157-.207-.198-.414-.261c-.68-.207-1.476.144-1.462.747c0 .14.018.31.031.455"/><path fill="#e04f65" d="M8.278 8.004c-.378.081-.729.284-.675.756c.018.153.198.333.293.387c.162.095.495.054.634 0c.059-.022.158-.081.225-.117c.234-.135.455-.301.46-.616c0-.387-.559-.495-.937-.41"/><path fill="#abd3d6" d="m6.447 10.56l.135.055c-.05-.41-.171-.666-.04-1.125c.09-.302.301-.626.567-.725L7 8.734c-.823-.081-1.111 1.404-.553 1.822z"/><path fill="#cdcdcb" d="M9.4 11.803c.045-.153-.014-.086.225-.082c.103 0 .234.014.346.019c.243 0 .482 0 .72-.027l-.036-.338l-1.35.05c.014.148.014.27.095.378"/><path fill="#fafafa" d="M13.102 8.418c.126-.585.063-1.431-.203-1.926c-.117-.216-.333-.527-.693-.338c-.481.257-.693 2.012-.36 2.664c.203.378 1.035.63 1.26-.405z"/><path fill="#69ad52" d="M12.239 7.077c-.261.207-.158 1.332.27 1.008c.234-.184.162-1.354-.27-1.008m-.977 1.341c.167-.17.171-.306.167-.594c0-.32-.117-.495-.239-.526c-.135-.027-.274.13-.287.477c-.01.328-.005.616.36.643"/><path fill="#f8f8f7" d="m10.024 14.565l-.45-1.368c-.08-.266-.063-.23-.342-.293c.113.563.437 1.386.792 1.66"/><path fill="#fafafa" d="M9.178 11.766a.1.1 0 0 0-.04-.031l-.077-.059a.4.4 0 0 0-.077-.031c-.08-.018-.094-.027-.144.045c0 .189.113.423.18.62c.122.347.045.41.419.505z"/><path fill="#ed8f9c" d="M7.923 8.256s-.5.797.383.617c.495-.104.612-.293.62-.594c-.45-.194-.589-.018-1.003-.023"/><path fill="#efb64b" d="M17.895 6.551c-.166.077-.058.077-.243.135c-.135-.211.014-.09-.05-.234c-.247 0-.314 0-.409.194c.108.256.455.36.788.234l-.09-.329z"/><path fill="#082429" d="M12.55 15.95c-.136-.108-.626.036-1.144.032c-.486 0-.688-.1-1.102-.225c.045.126-.095.085.418.234c.522.153 1.404.144 1.827-.04"/><path fill="#d9ac64" d="M18.098 7.919c-.045-.135.009-.167.054-.28c-.797-.013.184.919.202.163c-.198.072-.103.08-.256.117"/><path fill="#cdcdcb" d="M8.84 11.685c.045-.068.063-.059.144-.04l.077.031l.08.058l.037.032l-.068-.373l-.418-.082zm6.422-.473l-.01.58l.316-.769c-.122.063-.19.126-.306.19"/><path fill="#060906" d="M11.1 7.72c-.085.221-.099.374.167.406c.076-.243.121-.365-.171-.405z"/><path fill="#0c0c0c" d="M12.414 7.384c-.284.045-.261.279-.063.418c.175-.112.18-.225.063-.418"/></g></svg>