<svg xmlns="http://www.w3.org/2000/svg" viewBox="0 0 24 24"><g fill="none"><path fill="#0a01cc" d="M4.753 12.063c-.147-1.213.388-2.714.672-3.316l.749.767a6.3 6.3 0 0 0-.455 2.819z"/><path fill="#000" d="m5.417 8.703l.79.805l-.009.015a6.3 6.3 0 0 0-.45 2.804v.042l-1.023-.284v-.024c-.076-.61.024-1.293.175-1.894a8.4 8.4 0 0 1 .502-1.43l.02-.034zm.019.095a8 8 0 0 0-.484 1.383a5.4 5.4 0 0 0-.175 1.857l.91.256c-.048-.488-.01-1.658.454-2.776l-.71-.72z"/><path fill="#1baf01" d="M19.247 11.938c.147 1.213-.388 2.714-.672 3.316l-.749-.768a6.3 6.3 0 0 0 .455-2.818z"/><path fill="#000" d="m18.584 15.301l-.791-.805l.01-.02a6.3 6.3 0 0 0 .45-2.804v-.042l1.022.284v.024c.076.61-.023 1.293-.175 1.895q-.184.738-.502 1.43l-.019.038zm-.02-.095a8.4 8.4 0 0 0 .484-1.388c.147-.592.242-1.26.175-1.857l-.91-.255c.048.488.01 1.658-.454 2.776l.71.72z"/><path fill="url(#SVGUNRVUbOT)" d="M5.293 5.733H3.857l6.035 6.263l-2.203 2.287l-2.557-2.633l-2.094 2.15l4.651 4.77L12 14.165l3.278 3.396l1.516.119L12 12.706l-4.31 4.477l-3.269-3.387l.71-.74l2.558 2.696l3.657-3.757z"/><path fill="#000" d="M3.791 5.7h1.516l6.077 6.3l-3.694 3.79l-2.558-2.69l-.673.696l3.23 3.344L12 12.668l4.841 5.03l-1.577-.108l-3.269-3.382l-4.305 4.405L3 13.8l2.132-2.188L7.69 14.24L9.854 12L3.791 5.71zm.133.062l6.006 6.234l-2.24 2.325l-2.558-2.633L3.076 13.8l4.614 4.732L12 14.127l3.292 3.41l1.435.105L12 12.749L7.69 17.22l-3.307-3.424l.753-.777l2.558 2.69L11.304 12l-6.02-6.238z"/><path fill="url(#SVGThFw9mvu)" d="M18.707 18.268h1.435l-6.034-6.263l2.202-2.287l2.558 2.633l2.094-2.15l-4.652-4.77L12 9.836L8.722 6.44l-1.516-.12L12 11.295l4.31-4.476l3.269 3.386l-.71.74l-2.559-2.696l-3.656 3.756z"/><path fill="#000" d="M20.21 18.3h-1.517L12.616 12l3.695-3.79l2.558 2.691l.672-.696l-3.23-3.344L12 11.333L7.182 6.334l1.553.076l3.269 3.382l4.306-4.405L21 10.2l-2.132 2.189l-2.558-2.63L14.146 12l6.063 6.291zm-.134-.061l-6.006-6.234l2.24-2.326l2.559 2.634l2.055-2.113l-4.613-4.732L12 9.874L8.707 6.463l-1.435-.104L12 11.252l4.31-4.472l3.307 3.425l-.753.777l-2.558-2.69L12.696 12l6.02 6.234h1.36z"/><path fill="url(#SVGBnZYkeYq)" d="M7.69 17.178v1.392L12 14.165l3.292 3.415l1.507.095L12 12.711l-4.31 4.472z"/><path fill="#000" d="m12 12.668l4.841 5.035l-1.596-.142L12 14.212l-4.31 4.406v-1.469L12 12.663zM7.69 17.21v1.316L12 14.132l3.34 3.443l1.44.123l-4.785-4.945z"/><path fill="url(#SVGO5Mcwe8b)" d="M16.31 6.823V5.431L12 9.836L8.722 6.44l-1.52-.119L12 11.295l4.31-4.476z"/><path fill="#000" d="M12 11.333L7.189 6.34l1.549.07l3.268 3.383l4.306-4.405V6.85zm4.311-4.548V5.463l-4.31 4.406l-3.292-3.41l-1.436-.105l4.728 4.898z"/><path fill="#0a01cc" d="M12.152 19.547a7.4 7.4 0 0 1-4.169-1.237l.735-.739a6.63 6.63 0 0 0 3.349.938c1.681-.057 2.68-.616 3.207-.938l1.515.1c-.691.706-2.35 1.776-4.642 1.876z"/><path fill="#000" d="m8.712 17.537l.019.01a6.6 6.6 0 0 0 3.335.933a6.17 6.17 0 0 0 3.192-.933l1.583.156c-.697.706-2.393 1.772-4.69 1.871c-1.838.08-3.553-.796-4.183-1.241l-.028-.019zm6.65.02a6.54 6.54 0 0 1-3.296.98c-.578.023-2.046-.138-3.344-.929l-.697.697c.644.45 2.326 1.288 4.121 1.212c2.236-.095 3.894-1.127 4.605-1.823z"/><path fill="#1baf01" d="M11.848 4.455a7.4 7.4 0 0 1 4.169 1.237l-.734.739a6.63 6.63 0 0 0-3.35-.938c-1.68.057-2.794.649-3.315.976l-1.374-.114a7.06 7.06 0 0 1 4.604-1.895z"/><path fill="#000" d="m15.288 6.463l-.02-.01a6.6 6.6 0 0 0-3.334-.933c-1.677.057-2.677.616-3.202.938l-1.55-.118l.01-.029c.696-.71 2.36-1.785 4.656-1.885c1.838-.08 3.553.796 4.183 1.241l.029.02zm-6.651-.014a6.5 6.5 0 0 1 3.297-.986c.573-.023 2.046.138 3.344.929l.696-.696a7.4 7.4 0 0 0-4.12-1.213a7.25 7.25 0 0 0-4.596 1.862l1.374.104z"/><defs><linearGradient id="SVGUNRVUbOT" x1="6.198" x2="7.864" y1="5.142" y2="15.06" gradientUnits="userSpaceOnUse"><stop stop-color="#eb1ff4"/><stop offset="1" stop-color="#02d2df"/></linearGradient><linearGradient id="SVGThFw9mvu" x1="11.994" x2="11.994" y1="19.58" y2="10.916" gradientUnits="userSpaceOnUse"><stop stop-color="#fb8a07"/><stop offset="1" stop-color="#dfdf01"/></linearGradient><linearGradient id="SVGBnZYkeYq" x1="19.624" x2="3.451" y1="16.884" y2="17.306" gradientUnits="userSpaceOnUse"><stop stop-color="#0a02c9"/><stop offset="1" stop-color="#02d2df"/></linearGradient><linearGradient id="SVGO5Mcwe8b" x1="21" x2="4.562" y1="6.087" y2="6.581" gradientUnits="userSpaceOnUse"><stop stop-color="#e6e101"/><stop offset="1" stop-color="#1baf01"/></linearGradient></defs></g></svg>