<svg xmlns="http://www.w3.org/2000/svg" viewBox="0 0 24 24"><g fill="none"><path fill="url(#SVGGwDB3cHF)" d="M13.434 4.708a7.34 7.34 0 0 1 5.349 2.964l1.367-.995a9.03 9.03 0 0 0-6.716-3.656zm-6.16.225a9 9 0 0 0 2.172 15.395l.579-1.586A7.313 7.313 0 0 1 8.338 6.238l-1.07-1.305zm6.891 14.265l.281 1.665a9 9 0 0 0 5.557-3.353l-1.242-1.153a7.34 7.34 0 0 1-4.596 2.84"/><path fill="url(#SVGt5b2GbEb)" d="M10.61 6.375a1.69 1.69 0 0 0 1.693-1.688A1.69 1.69 0 0 0 10.61 3a1.69 1.69 0 0 0-1.693 1.687a1.69 1.69 0 0 0 1.693 1.688"/><path fill="url(#SVGay73BbAy)" d="M8.917 13.125c.625 0 1.13-.504 1.13-1.125s-.505-1.125-1.13-1.125s-1.13.504-1.13 1.125s.506 1.125 1.13 1.125"/><path fill="url(#SVGUSI9yOkm)" d="M12 21c.78 0 1.412-.63 1.412-1.406c0-.777-.632-1.407-1.412-1.407s-1.412.63-1.412 1.407A1.41 1.41 0 0 0 12 21"/><path fill="url(#SVGWHR2ZcEP)" d="M15.262 14.385a3.38 3.38 0 0 1-5.36-.754l-1.688.394a5.08 5.08 0 0 0 8.246 1.552zm.168-4.59a3.38 3.38 0 0 0-5.495.518H8.079a5.08 5.08 0 0 1 8.628-1.632z"/><defs><linearGradient id="SVGGwDB3cHF" x1="17.101" x2="7.151" y1="5.529" y2="19.946" gradientUnits="userSpaceOnUse"><stop stop-color="#3ad02c"/><stop offset=".28" stop-color="#3dd22d"/><stop offset=".59" stop-color="#79d41c"/><stop offset="1" stop-color="#c9d505"/></linearGradient><linearGradient id="SVGt5b2GbEb" x1="17.442" x2="8.345" y1="7.5" y2="17.106" gradientUnits="userSpaceOnUse"><stop stop-color="#233d1a"/><stop offset="1" stop-color="#2bd009"/></linearGradient><linearGradient id="SVGay73BbAy" x1="18.123" x2="5.167" y1="9.75" y2="17.545" gradientUnits="userSpaceOnUse"><stop stop-color="#a7a710"/><stop offset="1" stop-color="#162c00"/></linearGradient><linearGradient id="SVGUSI9yOkm" x1="20.15" x2="7.098" y1="13.8" y2="13.8" gradientUnits="userSpaceOnUse"><stop stop-color="#489722"/><stop offset="1" stop-color="#516d3a"/></linearGradient><linearGradient id="SVGWHR2ZcEP" x1="10.61" x2="14.823" y1="8.344" y2="15.667" gradientUnits="userSpaceOnUse"><stop stop-color="#47d12d"/><stop offset=".45" stop-color="#c8d65e" stop-opacity=".59"/><stop offset=".74" stop-color="#51ce32"/><stop offset="1" stop-color="#bfd30f"/></linearGradient></defs></g></svg>