<svg xmlns="http://www.w3.org/2000/svg" viewBox="0 0 24 24"><g fill="none"><path fill="#fff" d="m19.415 17.557l-.175-.264c.138-.398.212-.678.064-1.107c-.106-.297-.027-.816-.34-.98c.213-.625-.084-1.59-.688-1.907c0-.074.01-.212 0-.28c-.026-.255-.227-.35-.46-.313c-.107.016-.212.1-.35.085c-.37-.037-.445-.212-1.112-.186c-.297.01-.768.212-.911.466c-.715 0-.43.096-1.06.09c0-.503.1-.805-.402-.836c-.35-.022-.795 0-1.15 0c-.132-.25-.095-.223-.095-.599v-.742c.1-.068.228-.068.37-.116c.742-.238 1.219-.61 1.42-1.398c.255-1.023.117-1.25.244-1.981c.085-.456.138-2.14-.09-2.595c-.143-.276-.08.037-.217-.329a1.9 1.9 0 0 0-.43-.651a2.97 2.97 0 0 0-1.376-.853a3.54 3.54 0 0 0-2.33.36C9.25 4.11 9.68 4.27 9.15 4.872c-.286.329-.264 2.42-.095 2.977l.212 1.42c.037.142.01.031.037.116c.106.318.212.673.445.91c.667.668.9.44 1.34.69c0 .232.08.672-.117.794c-.164.106-.19.17-.286.339l-.1.26c-.297 0-.954-.122-1.007.317v.514c-.466 0-.254.032-.466-.053c-.164-.069-.397-.037-.588-.037c-.068-.032-.153-.106-.227-.148a1.4 1.4 0 0 0-1.06-.255c-.132.027-.2.053-.317.096c-.742.243-.567 0-.911.032c-.18.016-.133.016-.196.079c-.143.148-.127.328-.127.52c-.26.052-.461.476-.567.693c-.185.392-.196.635-.154 1.208c.016.005-.196.36-.196.65c0 .42-.291 1.065.048 1.442c-.032.079-.148.254-.233.28C5.951 19.756 8.732 21 11.719 21c3.099-.005 6.224-1.218 7.696-3.443"/><path fill="#0f0f0f" d="M11.417 5.19c-.212.122-.45.275-.699.265c.085.148.032 0 .021.233l-.116.868c-.175 1.086-.186.975.042 2.235c.117.61.026.456.254.7c.106.127.053.042.122.206c.122.048.254.27.424.36c.635.318 1.218-.116 1.515-.646c.121-.28.148-.662.19-1.006c.09-.678.117-.593-.09-.953c-.18-.308-.085-1.166-.053-1.547c.021-.244-.037-.233-.016-.471c-.227-.043-.339-.154-.53-.228c-.185-.074-.354-.09-.524-.212c-.031-.265-.106-.625-.037-.88c-.08.123-.069.319-.074.467c0 .143 0 .291-.021.434c-.159.106-.212.122-.408.175"/><path fill="#171717" d="M15.315 19.618c-.122-.138-.143-.392-.005-.535c.063.201.053.334 0 .535zm-2.743-.72l-.011-.35l1.382-.037c-.185.159-.233.233-.55.323a1.8 1.8 0 0 1-.821.064m.667-.62l-.678.037l-.016-.667c.98.037.54-.08.694.63m-.689-.747l.064-.037c.201-.064.741-.053.948-.042c.402.02.599.058.614.497c.022.604-.46.504-1.122.514c-.08 0-.207.011-.276 0c-.243-.005-.18-.02-.212-.053c.17-.105.525-.031.726-.08c.042-.158-.043-.131-.043-.338c0-.228.106-.212.053-.376c-.217-.01-.635.005-.752-.085m0-.492c.657-.064.97.063 1.356.381c-.503-.027-.847-.042-1.366 0l.005-.381zm-1.71-4.693c-.059.042-.027-.058-.096.132c-.264.154-.704-.037-.985.122c-.159.382.07.477-.026.758a1.7 1.7 0 0 1-.562.047c-.28-.042.08-.063-.466-.09c-.397-.02-.228-.212-.826-.392c-.88-.27-1.202.212-1.525.16c-.175-.033-.302-.112-.456-.085c-.095.211-.005.423-.159.582c-.17.196-.815.667-.604 1.515c.09.365.022.233-.116.53c-.127.28-.016.37-.106.624c-.254.737-.09.562.074 1.144c-.196.244-.164.117-.222.371l.047-.026c.244-.292.461-.43.938-.445c-.053.466-.154.148-.254.477c-.07.222-.175.323-.101.53l.122.126l.063-.238l1.976.069c.074.466-.19 1.123-.148 1.462l.243.121c-.005-.211-.069-.36-.074-.513c0-.122.053-.35.064-.504l-.006-.2c-.037-.218.043-.17.032-.313c-.016-.217.159-.07-.233-.133c.095-.206.005-.074.132-.17l.106-.158c-.068-.138-.084-.09-.053-.249c.149.18.191.524.398.445c.148-.127-.112-.339-.075-.583l-.333.075l.095-.45c.318-.054 1.61-.36 1.827-.25l-.227.111c-.292.054-.572.022-.906.16l-.037.02c.159.011.032-.01.09.038l.042.053c.327-.13.672-.207 1.023-.228l-.022.424c.006.015.016.02.022.053c.01.084.063.053.063.429l-.037.37c-.069.25 0 .032-.053.138c-.01.938-.244 1.43.477 2.05c.159.143.111.01.19.196l.096.016c.031-.212.328-.117.879-.117c.339 0 .672 0 1.006-.01c.689-.011 1.377-.032 2.066-.027l.434-.058l-.021-.62v-.042c.053-.604-.053-1.669-.08-2.325h.604c.01.492 0 .969.01 1.445l.017 1.06c.01.233-.032.228.106.28c-.053-.37.148-.254.265-.593c.084-.238.074-.54-.075-.725c-.249-.313-.243-.037-.238-.62c0-.302.01-.636 0-.932h-.678l-.021-.44c.175.01.598.064.757.106c.18.043.435.201.657.265l-.026.37l.01.335l.059.105l.36-.069c.047.265.052.557.095.816c.08.456.027.398 0 .837l.265-.111c-.074-.37-.254-1.06-.212-1.457l1.991-.1l.053.249c.106-.064.027.042.106-.117c.175-.291-.127-.323-.095-.689l-.048-.015c-.18-.075-.19-.043-.19-.318c1.017.053.688.524.974.381l-.074-.175c-.095-.053-.069-.026-.153-.095c.031-.212.174-.355.195-.604c.027-.328-.084-.381-.159-.593c-.079-.233.022-.318-.132-.604c-.148-.286-.212-.138-.122-.503a1.58 1.58 0 0 0-.254-1.15c-.106-.163-.238-.232-.365-.37c-.143-.148-.08-.37-.16-.572c-.169-.042-.301.053-.492.085c-.296.042-.726-.445-1.504-.133c-.636.255-.434.403-.805.43c-.599.042-.164.058-.509.105c-1.006.143-.264-.514-.582-.805c-.276-.148-1.134-.026-1.536-.09l-.01-1.642l.386-.1c-.053-.053.106-.106-.159-.059c.207-.127.276-.211.397-.354c.138-.16.175-.16.307-.371c-.063-.053 0-.09-.063.037c-.149.037-.053.063-.154.148l-.026.021c-.43.318-.117.196-.382.403c-.127.106-.376.265-.534.217c.317 0 .053-.021.127.095c-.106.477.084 1.441-.053 1.801c-.223.27-.774.302-1.023 0l-.037-.884c-.084-.09-.031 0-.074-.133c-.021-.063-.016-.074-.021-.143c-.021-.233-.027-.53.095-.704c-.339-.127-.132-.106-.397-.28c-1.176-2.066-.81-2.03-.683-2.035c.466 0-.233-3.167-.53-3.23c-.005-.292-.212-.588-.053-.864c.276-.476.403-.344.562-.265l-.138-.185c.08-.08.1-.08.17-.138c.53-.413.757-.233.508-.36c-.53.085-1.181.752-1.367 1.33c-.19.587-.317.052-.376 1.25c-.042.773.175 3.236.52 3.792c.105-.064.037.021.02-.117l-.29-1.123c.02-1.996.11.345 1 1.457l.684.688c-.318 0-.048-.01-.165.053l.392.085l.021.97c-.19.148-.434.264-.44.529zm-.694 1.753c.265 0 1.499-.026 1.663.027c.238.074 1.44 1.191 1.727 1.589c.158.217.2 1.085.185 1.419a2.2 2.2 0 0 0-1.24-.18c-.053.159-.042 1.446-.026 1.78l.053.227c.318.286 2.235-.228 1.695-1.34c-.106-.206-.233-.265-.276-.36c-.02-.053-.121-1.027-.148-1.202c.249.19.355.62.63.81l.106 3.167v.382l-2.044.02l-.148-5.756l-2.4.032l-.159.243c-.09.09-.01.032-.121.1l.016-.56c.503-.064.2-.054.466.142c.069-.148.047-.354.02-.54m4.221 2.044l.01.403c-.195-.201-.884-1.366-1.9-2.118c-.117-.09-.229-.186-.36-.239l.147-.132l1.536-.005c0 .174-.026.391.032.534l.122-.148c0-.016.01-.021.016-.032l.333.043zm-3.395-3.654l.064-.244c.122-.063.053-.074.26-.132l.004.387l-.328-.006zm1.213 2.314c.053.16.201 5.26.159 5.615l-2.278.016c-.53-.79-.476-.196-.46-1.706c.005-.72.037-1.446.037-2.166v-1.06c0-.259.275-.63.407-.667c.09-.026 1.97-.053 2.135-.032m-6.472 2.84l-.01.407l-.176.01c.01-.142.053-.37.186-.423zm2.076-.085c.138.095.18.249.185.424c-.18-.112-.265-.36-.185-.424m-.413.577l-1.552-.053l.111-2.002c.064-.005 1.335.424 1.727.477zm-1.737-1.377l.121.026l-.08.419c-.063.016-.026.01-.09.01c0 .16-.079.096-.169.053l-.233-.01c-.143-.265-.264-.498-.053-.784l.239.185c.08-.122.196-.095-.228-.249c.053-.1.064-.106.122-.185c.153.053.127.106.291.185c.233.127.207 0 .233.239c-.143.053-.09.053-.159.11zm.158-.768v.408c-.18 0-.307-.122-.402-.186c.063-.185.185-.339.397-.222zm1.928 1.012c.064-.557.085-.302.202-.482c.074-.117.09-.414.143-.546c.08-.212.01-.032.36-.334a.5.5 0 0 1 .55-.058l.08-.085l.027-.037l.031-.037l.408.016c0 .62.08.604-.567 1.107c-.434.339-.572.392-1.234.456m-1.774-3.92l.413.095c-.095.122-.159.128-.249.276c-.37.572-.206.095-.164-.37M18.334 17.5c.127.048.159.255.185.398c-.159.074-.132 0-.159-.01zm-2.277.382c.037-.164.074-.34.206-.44c.064.133-.058.345-.201.44zm.328-1.41c.238-.12.63-.163.9-.253c.207-.075.636-.276.795-.286l.143 2.002l-1.547.069l-.29-1.536zm1.864-.211c-.159-.604.186-.556.371-.249c-.085.143-.17.233-.37.249m.599.863l-.551-.074l-.021-.402l.238-.08c.17-.095.28-.18.424-.254c.138.175.053.286-.09.81m-3.316-1.578c.604.445.302.17.53.763c.116.317.222.01.244.566a1.86 1.86 0 0 1-1.277-.407c-.402-.308-.614-.398-.561-1.065c.434-.085.402.032.566.069c.217.053.276-.085.498.074m3.072-1.006c.016.212.01.423-.111.582l-.116-.54zm-.424-.848c.175.09.117.08.218.26c.084.148.09.127.127.318l-.265-.022l-.085-.556z"/><path fill="#cdcfdb" d="m14.516 20.038l-.106-3.168c-.276-.19-.382-.62-.63-.81c.026.175.127 1.15.148 1.202c.042.09.174.16.275.36c.54 1.113-1.377 1.626-1.695 1.34l-.053-.227c-.015-.334-.026-1.621.027-1.78c.445-.074.879.027 1.24.18c.015-.334-.022-1.202-.186-1.425c-.286-.392-1.488-1.509-1.727-1.589c-.164-.047-1.403-.026-1.663-.02c.027.185.053.391-.021.54c-.037-.027-.117-.186-.138-.186l-.328.043l-.016.56c.106-.068.032-.01.122-.1l.159-.243l2.399-.032l.148 5.757l2.045-.021zM8.8 14.815c.265-.932-.37-1.626-1.044-1.806c-.9-.243-1.641.371-1.806 1.06c-.46 1.89 2.31 2.658 2.85.741zm7.584-1.96a1.503 1.503 0 0 0-1.266 1.68c.218 1.885 3.226 1.567 2.913-.45a1.446 1.446 0 0 0-1.641-1.23z"/><path fill="#cdcfdb" d="M12.053 19.327c-.36 1.536-2.543.954-2.246-.498a1.154 1.154 0 0 1 1.393-.863c.53.122 1.006.7.848 1.361zm-1.446-4.2c.699-.196 1.26.318 1.393.795a1.155 1.155 0 0 1-.768 1.43c-1.409.429-2.172-1.78-.625-2.225m1.578-.323c-.159-.021-2.044.005-2.134.032c-.133.037-.408.408-.408.662v1.065c0 .72-.032 1.446-.037 2.166c-.016 1.51-.064.916.46 1.705l2.278-.021c.043-.35-.106-5.45-.159-5.614z"/><path fill="#484848" d="M9.801 5.243c-.032.249.027.466.032.72c.005.28-.058.583-.042.784c.042.524.17.657.434 1c.127.16.122.398.143.594c.069.016.148.869.222 1.022l.435.53c.116.132.037.08.196.17a1 1 0 0 0-.16-.255c-.079-.095-.095-.085-.158-.196l.138.085c-.064-.159-.011-.08-.122-.207c-.228-.243-.143-.09-.255-.699c-.227-1.26-.222-1.149-.042-2.235l.117-.868c.01-.233.063-.085-.022-.228c.25.005.482-.148.7-.265c.053-.318-.011-.487.11-.678c.398.228-.063-.28 1.14-.053c.45.08.084.694.26.88l.333.015c-.117.604-.021 1.515.042 2.13c.021.227-.016.518-.037.725c.159-.286.138-1.991.122-2.532c-.01-.392.138-.323-.148-.408l.042-.884c.339-.026-.005-.132.477-.09l.042.185c.037.308.164.477.148.88c-.016.317-.095.598-.1.905c0 .239-.048.636-.09.88c-.048.28-.17.38-.233.661c-.106.498-.101 1.208-.334 1.616l.127-.074c.08-.329.127-.726.185-1.086c.127-.794.265-.138.371-.858c.053-.387.366-1.907.138-2.172l.233-.132c.037-.28-.117-.54-.244-.741c-.238-.392-.296-.371-.524-.297l-.148.09c-.016-.254.053-.053-.175-.228c-.239-.19-.212-.418-1.203-.291l-.047.005l-.408.016c-.508.016-.763.09-1.155.36c-.02.265-.275-.408-.53.9c-.036.17-.052.228-.01.324"/><path fill="#201f20" d="M13.482 4.067c.223-.07.28-.096.52.291c.127.207.28.466.243.741c-.08.059-.027.011-.106.053l-.127.09c.228.255-.08 1.78-.138 2.172c-.106.715-.244.064-.37.853c-.053.36-.106.757-.186 1.085l-.127.075c-.005.09-.524.635-.81.741c-.615.223-.832.201-1.23-.238l-.56-.567c-.075-.159-.16-1.006-.223-1.022c-.223 0-.164-.095-.228-.26c0 .01-.582-2.155-.747-2.944c-.063.158.133 1.106.17 1.345c.095.625.085 1.101.334 1.864c.195.588.423 1.838 1.022 2.225c.265.164.09.106.424.227c-.223.345.105 1.944.053.133c.211.021.333 0 .56-.01c.229-.011.356-.064.562-.07c.106-.037.16-.116.408-.312c.346-.252.624-.585.81-.97c.62-2.039.44-1.25.837-1.292c.08-.82.16-1.853.07-2.68c-.022-.17-.054-.413-.133-.545c-.143-.207.159.196-.09-.096c-.08-.095-.006.038-.074-.105c-.133-.297-.265-.79-.742-1.044c-.095.074-.196.175-.122.26"/><path fill="#ced0dc" d="M7.662 16.551c-.392-.042-1.663-.476-1.727-.476l-.106 2.002l1.547.058l.286-1.578z"/><path fill="#cdcfdb" d="m16.385 16.47l.291 1.536l1.547-.074l-.138-2.002c-.164.01-.593.212-.8.286c-.27.09-.662.133-.9.254"/><path fill="#030403" d="M12.053 19.326c.154-.662-.318-1.239-.848-1.36a1.16 1.16 0 0 0-1.398.862c-.302 1.457 1.886 2.029 2.246.498"/><path fill="#050506" d="M10.607 15.126c-1.547.445-.784 2.653.625 2.224A1.154 1.154 0 0 0 12 15.915c-.133-.477-.694-.99-1.393-.794z"/><path fill="#414241" d="M13.52 9.887c-.127.212-.138.25-.276.413c-.121.143-.19.228-.402.355c.27-.042.111.006.164.059c.307-.07.794-.287.975-.504c.376-.46.561-1.324.593-1.933c-.106-.021-.07-.085-.059-.238c0-.117.027-.408.027-.424c.016-1.112.085-.964-.042-2.293c-.244 1.112-.398 3.75-.98 4.565"/><path fill="#4a4a4c" d="m15.924 18.018l-.01-.34l-.07-.19c-.036-.116.011-.069-.073-.159c-.075-.074-.212-.105-.318-.137l-.37-.096c-.552-.122-.361-.037-.409.064c.08.18-.09.106.255.116c.386.011.402-.106.397.805c0 .604-.059.54.18.763c.519.466-.127.9-.138 1.361c.307-.069.678-.291.943-.407c.01-.345.116-.54.08-.832c-.128-1.112-.213-.646-.578-.89l.037-.222l.01.037c.059.17-.026.048.064.127"/><path fill="#494a4c" d="m7.736 19.464l.064.45c.302.106.577.25.9.35c.064-.074.048.027.074-.17c-.249-.2-.625-.773-.222-1.196c.249-.26.18-.212.175-.678c-.006-.255-.07-.625.069-.832c.307-.159.64.095.55-.28c-.519-.016-.762.174-1.101.375c-.053.562.265.678-.318.821c-.021.011-.064.043-.074.027c-.095-.154-.127.9-.117 1.133"/><path fill="#363636" d="M10.845 3.43c.249.128.021-.052-.509.361c-.069.053-.09.053-.17.138l.139.185c-.16-.08-.287-.212-.562.265c-.159.275-.228.514-.217.8l.275.063c-.042-.095-.026-.159.006-.323c.116-.577.233-.699.635-.752c-.02.021.053.138-.053 0c-.063-.09-.026.016-.053-.148c.397-.265.652-.344 1.165-.36l.403-.016l.048-.006c.995-.127.964.106 1.202.292c.228.17.159-.027.175.228l.153-.09c-.074-.085.027-.186.122-.265c-.355-.54-2.15-.848-2.76-.371"/><path fill="#2d2d2e" d="M12.98 9.412c.11-.074.106-.032.153-.223l.053-.317c.032-.223.085-.424.08-.657c.02-.207.063-.498.037-.726c-.064-.614-.16-1.525-.043-2.129l-.333-.016c.084-.116.069-.572.02-.741c0-.011-.015-.016-.015-.032c-.005-.064-.212-.1-.265-.106a1.5 1.5 0 0 0-.254-.032l-.043-.122c-.47-.01-.476-.01-.407-.466c-.34.043-.413.117-.678.18l.508-.08c.01.096.016.229-.026.319c-.058.121-.106.058-.239.254c-.122.19-.053.36-.106.673c.345-.096.477-.128.52-.329l.015.138c.17.116.34.132.53.206c.185.075.297.186.52.228c-.022.244.042.228.02.472c-.031.38-.127 1.239.053 1.551c.212.355.18.27.09.954c-.042.339-.069.72-.19 1"/><path fill="#393a39" d="m9.352 8.564l.291 1.123c.016.138.09.053-.02.116c.105.345.27.466.508.636c.254.175.46.19.736.328c.116-.069-.16-.053.159-.053l-.678-.694c-.482-.603-.493-1.864-.62-2.007c-.021.133-.016.286-.032.334c-.026.095-.032.058-.137.026c-.106.265-.032.17-.212.191z"/><path fill="#8e8e8e" d="M11.915 13.819c.207-.038.19-.09.45-.09l1.515.042c.19-.143.275-.275.17-.562l-1.23-.031c-.317.031-.857.545-1.588.026c.053.18.143.228.27.36c.19.196.132.112.307.191l.037.016c.006.005.027.032.032.021s.027.016.037.027"/><path fill="#8e8e8e" d="M10.93 12.616c.043.222.122.37.201.508c.26-.137.281.133.641.16c.758.052.604-.223 1.049-.234c.376-.01.927.048 1.271-.005c.127-.503-.053-.424-.44-.424c-1.551-.01-.71-.085-1.212.239c-.398.254-.864.18-1.166-.228z"/><path fill="#767676" d="M5.787 14.592c-.084.27-.233.794-.254 1.101c.355.148 1.817.906 2.325.742l.08-.472c-.641.09-.954.16-1.483-.222c-.371-.265-.54-.53-.668-1.15m10.28 1.27c.027.17.075.366.15.477c.492-.037 1.26-.307 1.736-.519c.191-.084.334-.2.498-.28l-.265-1.076c-.159.413-.084.689-.64 1.134c-.525.423-.806.297-1.478.265"/><path fill="#121212" d="M15.867 16.043c-.07-.228-.122-.16-.308-.292c-.26-.185-.143-.106-.492-.106c-.45-.005-.01-.153-.44-.121c-.042.248-.037.434.122.582c.27.249.964.826 1.377.636c-.032-.233.037-.043-.18-.17a2.7 2.7 0 0 0-.08-.53"/><path fill="#111011" d="M7.906 16.868a1.54 1.54 0 0 0 1.017-.413c.116-.096.28-.233.37-.318c.075-.08.08-.08.096-.223l-.043-.333c-.45-.021.133.116-.55.116c-.292 0-.25.064-.467.212c-.354.239-.116.45-.248.715c-.128.265-.09-.106-.175.25z"/><path fill="#cdcfdb" d="m10.252 20.666l.159.031c.238.064-.239-.079.074.022l.08.037h2.7c.112-.064.08-.048.239-.074l.228-.037c.159-.022.339-.048.476-.133c-.688-.005-1.377.016-2.065.027c-.34.01-.673.01-1.007.01c-.556 0-.852-.095-.884.117"/><path fill="#8e8e8e" d="m11.295 13.787l.1-.027l-.402-.514a4 4 0 0 0-1.07.011c-.19.313 0 .567.334.567c.344 0 .704-.085 1.038-.037"/><path fill="#505050" d="M9.203 6.955q-.031.406.043.805c.032.158.122.656.106.805c.18-.022.106.074.212-.191c.106.032.11.069.137-.027c.016-.047.016-.2.032-.333c.016-.36-.143-.89-.185-1.271c-.122.026-.064.016-.149.042l-.084.021c-.037.016-.07-.09-.106.149z"/><path fill="#2d2e30" d="m8.822 19.146l.021.535c-.137-.148-.206-.397-.015-.53zm-.026.943c.249.212-.096-.053.153.233l-.053-2.802l.61.01l-.016.874c.053-.105-.016.106.053-.132l.037-.37c0-.382-.053-.35-.064-.435c0-.032-.016-.037-.021-.053l-.667.048c0 1.838.042 1.101-.244 1.557a.76.76 0 0 0-.106.392c.005.132.053.302.106.397c.042.08.042.064.1.133l.107.148z"/><path fill="#484848" d="M7.943 17.457c.09.096.296.72-.117.615c-.18-.053-.064-.053-.265-.064c-.122.095-.032-.037-.127.17c.355.058.143.762.28 0c.758.196.414-.366.409-.768c.164-.07.26-.09.37-.191l-.042-.053c-.058-.053.064-.027-.09-.037l.037-.016c.334-.143.614-.111.9-.164l.234-.106c-.016-.01-.032-.053-.212-.043l-1.616.287l-.095.45z"/><path fill="gray" d="M13.478 6.88c.09-.201.105-.641.148-.917c.074-.545-.01-.693.254-.783c.042.333-.111 1.017-.154 1.382c-.005.212-.09.884-.286 1.022zm.37-.61c0-.307.085-.593.1-.9c.017-.402-.11-.577-.147-.884l-.048-.186c-.477-.042-.133.064-.477.09l-.037.885c.286.08.138.016.149.408c.015.54.042 2.245-.122 2.531c.005.233-.053.435-.085.657a3 3 0 0 1-.053.318c-.042.19-.037.148-.148.222c-.297.53-.88.97-1.515.647c-.17-.09-.302-.313-.424-.36l-.132-.085c.058.11.074.1.159.196c.069.084.095.137.159.254c.095.339.863.302 1.18.185c.329-.2.599-.484.784-.82c.234-.408.228-1.113.334-1.616c.064-.28.186-.381.233-.662c.043-.244.09-.636.09-.88"/><path fill="#6a6b6d" d="M10.12 5.783c.132.29.164.476.069.847c-.08-.053-.101.085-.16-.344c0-.048-.031-.207-.031-.233c-.016-.445.005-.17.122-.27m.249-.345c.069-.084.053-.074.307-.074c.021-.201-.005-.201.063-.355l.143-.222l.016-.032l.032-.053c.106-.175.254-.344.27-.593c-.243.021-.651.042-.773.201c-.318.424-.254.599-.487.874c-.085.106.016-.032-.07.09c-.01.122.107 1.314.123 1.382c.095.355.386.779.323 1.187l.074-.021c-.021-.435-.127-.837-.064-1.25c.01-.064.265-.8.043-1.134"/><path fill="#8e8e8e" d="m10.887 13.02l-.037-.053c-.021-.037-.021-.027-.048-.085c-.031-.09-.031-.132-.042-.233l-.9.032l-.027.423l.567-.005c.137 0 .455.053.487-.08"/><path fill="#9b9b9c" d="m13.477 6.88l-.037.704c.196-.137.28-.81.286-1.022c.042-.365.196-1.049.154-1.377c-.265.085-.18.233-.255.779c-.042.275-.058.715-.148.916"/><path fill="#2f2f31" d="M11.401 19.374c.355-.667-.582-1.165-.937-.535c-.376.657.62 1.134.937.53z"/><path fill="#6a6b6d" d="M11.046 15.916c-.317-.026-.561.09-.45.445c.133.434.932.148.45-.445"/><path fill="#444443" d="M10.596 16.361c.133.434.932.148.45-.445c-.312-.032-.556.09-.45.445m-.143.016c.09.493.99.46.869-.222c-.106-.573-.996-.44-.869.222"/><path fill="#3d3d3d" d="M4.813 17.737c.074.16.052.133.206.212c.117-.212.196-.302.503-.339c-.085.18-.127.461-.243.583c.047.085 0 .053.116.106c-.074-.207.032-.307.106-.53c.095-.328.196-.01.249-.476c-.477.015-.694.158-.937.444"/><path fill="#3e3e3e" d="M18.642 18.17c.08-.052.053-.015.106-.074c.069-.074.01 0 .074-.105c-.17.127-.053.053-.111-.027l-.064-.17c-.042-.127-.069-.217-.116-.338c.296.047.317.11.492.243c.016.117.021.021-.064.064c.053.106-.042.084.085.08c.053-.096.032-.054.096-.133c.084-.106.063-.053.143-.18c-.286.143.042-.329-.975-.376c0 .27.01.238.19.317c.017 0 .033 0 .048.011c-.031.366.265.397.096.689"/><path fill="#67686a" d="M10.623 18.903c.053.291 0 .26.153.466l.34-.016c.18-.339.1-.636-.25-.583c-.132.021-.212.128-.222.111l-.027.022z"/><path fill="#222" d="M5.422 17.271c.09.037.17.106.17-.053c-.213-.084-.091.01.02-.116c.281-.318-.423-.445-.423-.445c-.138.095-.085.37.09.498z"/><path fill="#0b0b0b" d="M18.377 16.742c0 .413.35.296.53.1l.01-.333c-.202 0-.435.138-.54.233"/><path fill="#3c3c3b" d="m5.38 16.656l.26.106c.063-.063.01-.063.158-.116c-.032-.238-.005-.111-.238-.238c-.165-.085-.138-.128-.292-.186c-.053.074-.069.085-.122.186c.424.159.308.127.228.248z"/><path fill="#ababac" d="M10.12 5.784c-.117.106-.138-.175-.122.27l.037.233c.053.424.074.292.159.34c.09-.366.053-.552-.074-.848z"/><path fill="#777" d="M5.887 13.78c.127-.122.133-.19.228-.328c.095-.149.154-.16.249-.276l-.413-.1z"/><path fill="#767676" d="M17.593 13.04c.296.264.212.323.46.614l-.052-.7z"/><path fill="#6a6b6d" d="M8.759 16.816c.355 0 .752-.186.773-.583l-.609.46c-.064.054-.106.09-.164.128z"/><path fill="#696a6a" d="M15.972 18.008c.18.052.403-.037.55-.143c-.068-.09-.047-.048-.137-.106l.042-.106c.053-.313.043-.07-.037-.17c-.069.196-.164.54-.36.471c-.016-.015-.122.027.01-.317c.154-.403.075-.228.038-.276c-.138.149-.159.461-.106.647"/><path fill="#6a6b6d" d="m15.23 16.757l-.725-.572c-.006.286.053.28.227.387c.18.106.255.159.498.185"/><path fill="#67686a" d="M16.427 17.39c-.026-.218-.058-.207-.264-.26a2 2 0 0 0-.498-.053c.185.137.487.243.762.312"/><path fill="#f7f9f9" d="m5.438 14.41l.243-.02l.111-.556c-.196.09-.29.301-.354.582z"/><path fill="#0d0d0d" d="m18.822 17.991l-.16-.407c.133.042.027-.032.16.09c.105.085.042.074.137.09c.085-.043.08.053.064-.064c-.17-.132-.196-.196-.493-.244c.048.122.074.212.117.34l.063.169c.064.08-.053.154.106.026z"/><path fill="#101010" d="M5.02 17.95c.02.053-.096.037.063.042c.084-.159.137-.228.302-.265l-.138.382c-.016.19-.016.047.037.084c.111-.122.153-.402.238-.582c-.307.037-.386.122-.503.339"/><path fill="#737374" d="m8.928 14.008l.02-.583h-.296l.281.583z"/><path fill="#656565" d="M7.567 18.007c.196.011.08.016.265.064c.408.106.201-.52.11-.615c-.036.25.223.461.075.588c-.212.08-.249-.264-.397-.444c-.037.159-.016.11.053.254l-.106.159z"/><path fill="#767676" d="M15.024 13.94c.08-.212.19-.392.265-.572h-.28z"/><path fill="#707272" d="M8.928 14.883c-.096.159-.196.376-.286.55l.29-.02z"/><path fill="#696a6a" d="m15.046 15.338l.28.021l-.238-.445a1 1 0 0 1-.037-.095c-.027-.175-.021.021.016-.069z"/></g></svg>