<svg version="1.0" viewBox="0 0 128 128" xmlns="http://www.w3.org/2000/svg">
 <path d="m4 5 30 8 26-8 28 8 28-9 8 30-9 27 7 27-7 28-27.575 7.9859-28.425-7.9859-21 8-33-5 9-30-9-29 8-26z" fill="#eb5757"/>
 <path d="m57.73 62.167-22.73 22.833c1.5143 2.7777 5.2728 5.9365 7.232 7.1741l21.363-23.886" fill="#fff" strokeWidth="1.309"/>
 <path d="m93.256 51.275c0 11.198-8.7878 20.275-19.628 20.275-10.84 0-19.628-9.0774-19.628-20.275 0-11.198 8.7872-20.275 19.628-20.275 10.84 0 19.628 9.0774 19.628 20.275z" fill="#fff" strokeWidth="2.945"/>
</svg>
