<svg xmlns="http://www.w3.org/2000/svg" viewBox="0 0 24 24"><g fill="none"><path fill="url(#SVGeAjs2j6M)" d="M6.632 17.016a5 5 0 0 1-.347-.466a3 3 0 0 0-.139-.198c-.011-.012-.023-.036-.035-.047c-.034-.059-.08-.128-.115-.199l-.035-.07c-.035-.057-.07-.128-.104-.186l-.035-.07a1 1 0 0 1-.092-.198c-.012-.023-.024-.058-.035-.081c-.035-.07-.058-.129-.092-.199l-.036-.081c-.022-.07-.057-.14-.08-.21c0-.011-.011-.035-.011-.047a8 8 0 0 1-.163-.49c0-.01-.011-.023-.011-.046c-.011-.058-.035-.116-.047-.175l-.034-.14l-.035-.163c-.011-.047-.023-.105-.035-.151c-.011-.059-.023-.105-.034-.164l-.035-.175c-.011-.046-.011-.104-.023-.15c-.011-.06-.023-.117-.023-.187c-.011-.047-.011-.094-.024-.152c-.01-.07-.01-.129-.022-.198c0-.047-.012-.093-.012-.14c0-.082-.012-.152-.012-.234c0-.034 0-.069-.01-.116c0-.117-.013-.233-.013-.35s0-.221.012-.337v-.106c0-.081.01-.15.01-.233c0-.034.013-.081.013-.116c.011-.07.011-.151.023-.222c0-.035.011-.07.011-.105l.035-.256c0-.024 0-.047.011-.059c.013-.104.036-.21.059-.314c.01-.035.01-.07.023-.093c.011-.07.035-.14.046-.21a.4.4 0 0 0 .023-.117c.012-.07.035-.129.046-.198c.012-.035.023-.082.035-.117c.023-.07.046-.14.058-.21c.011-.034.023-.058.035-.093l.104-.28c.01-.034.023-.058.034-.093c.023-.07.046-.128.081-.198c.012-.035.035-.07.047-.116c.023-.059.046-.105.08-.163c.023-.036.036-.082.059-.117c.022-.059.057-.105.08-.163c.024-.035.035-.07.058-.105l.14-.245a4.8 4.8 0 0 0-.152 1.247c0 1.516.637 2.67 1.898 3.45c.069 1.365.462 2.437 1.133 3.125z"/><path fill="url(#SVG0DCFwdVj)" d="M13.965 8.855c.393.594.647 1.34.74 2.238c.324.152.601.326.856.525c.937.734 1.411 1.806 1.411 3.17c0 .163-.012.327-.023.49v-.011c1.157-2.627.776-6.236-1.1-8.438z"/><path fill="#fafbfc" fill-rule="evenodd" d="M12.344 10.651q.107.026.222.046c1.931.385 4.152 1.189 4.141 4.15c0 .443-.046.863-.15 1.236a6.3 6.3 0 0 1-.672.967a5.84 5.84 0 0 1-2.428 1.725l-.128.042l-.127.04a4 4 0 0 1-.251.076V21H9.59v-2.09c-.971-.344-2.445-1.256-2.97-1.883v-.082l2.256-1.527a3.33 3.33 0 0 0 2.382 1.014c1.619 0 2.394-.885 2.394-1.596c0-1.14-1.082-1.34-2.339-1.573l-.009-.001q-.555-.087-1.099-.222c-2.012-.49-4.071-1.364-4.071-4.114c0-.805.173-1.505.52-2.087c1.506-1.772 2.56-1.883 2.854-1.913c.06-.006.088-.01.083-.023V3h3.36v1.938c1.235.287 2.134.975 2.947 1.947l.011.07l-1.861 1.923l-.079-.016c-.602-.898-1.54-1.382-2.71-1.382c-1.306 0-2.035.594-2.035 1.34c0 1.193 1.221 1.442 2.916 1.789l.033.006q.086.016.172.036" clip-rule="evenodd"/><path fill="#fff" fill-rule="evenodd" d="M19.057 5.637c-1.065 0-1.46.347-1.46 1.462c0-1.114-.395-1.462-1.46-1.462c1.066 0 1.46-.347 1.46-1.46c0 1.113.395 1.46 1.46 1.46" clip-rule="evenodd"/><defs><linearGradient id="SVGeAjs2j6M" x1="12.127" x2="9.88" y1="17.322" y2=".981" gradientUnits="userSpaceOnUse"><stop offset=".001" stop-color="#fff"/><stop offset="1" stop-color="#1e313f"/></linearGradient><linearGradient id="SVG0DCFwdVj" x1="11.716" x2="13.969" y1="6.269" y2="23.091" gradientUnits="userSpaceOnUse"><stop offset=".001" stop-color="#fff"/><stop offset=".997" stop-color="#4e5a64"/></linearGradient></defs></g></svg>