<svg xmlns="http://www.w3.org/2000/svg" viewBox="0 0 24 24"><g fill="none"><path fill="#061d41" d="M6.976 19.399a1.93 1.93 0 0 1-1.894-1.815a.1.1 0 0 0-.02-.02a1.84 1.84 0 0 1-.99-.81a2 2 0 0 1-.148-1.762a.05.05 0 0 0-.01-.042a2.03 2.03 0 0 1-.196-2.02c.037-.096.11-.186.158-.281a.06.06 0 0 0 .006-.048a2 2 0 0 1 .222-1.671a.04.04 0 0 0 0-.043a1.984 1.984 0 0 1 .661-2.565a1.74 1.74 0 0 1 .772-1.746a.1.1 0 0 0 .037-.058a1.75 1.75 0 0 1 1.032-1.402l.032-.021a.1.1 0 0 0 .015-.037A1.71 1.71 0 0 1 8.367 3.64a.1.1 0 0 0 .074-.031a1.64 1.64 0 0 1 1.074-.593c.868-.106 1.53.317 1.889 1.08c.047.1.069.195.069.295v15.23q-.002.088-.027.17a1.756 1.756 0 0 1-2.666.898c-.143-.105-.296-.074-.455-.121a2 2 0 0 1-1.095-.778c-.08-.105-.137-.238-.196-.36a.06.06 0 0 0-.053-.037z"/><path fill="#613cc0" d="M8.632 17.759c.032-.519-.582-.513-.63-.053a1.18 1.18 0 0 1-.74 1.042a.85.85 0 0 1-.471.053a1.23 1.23 0 0 1-1.005-.778a1.3 1.3 0 0 1-.058-.598c.01-.174-.106-.317-.286-.37c-.275-.084-.529-.137-.74-.36c-.424-.46-.482-.984-.16-1.565q.048-.09.017-.233a.4.4 0 0 0-.106-.185a1.6 1.6 0 0 1-.238-.317a1.15 1.15 0 0 1-.021-1.101c.068-.143.174-.264.264-.391c.132-.196-.037-.424-.085-.62a1.18 1.18 0 0 1 .09-.82c.096-.184.233-.317.323-.512a.15.15 0 0 0-.005-.138c-.212-.338-.429-.703-.323-1.127c.111-.444.37-.745.788-.91c.148-.058.37-.116.53-.079c.523.117.793.434.967.9c.053.142.212.275.37.222c.16-.053.318-.196.265-.37A1.89 1.89 0 0 0 5.791 8.02c-.132-.016-.264-.005-.397-.021a.03.03 0 0 1-.026-.021a.6.6 0 0 1 0-.28c.09-.381.328-.572.666-.741c.196-.095.186-.318.186-.508c.005-.227.153-.476.312-.635c.143-.143.349-.211.545-.264c.158-.053.243-.196.248-.365a1.005 1.005 0 0 1 .878-.995c.535-.09.868.339.963.82c.032.154.026.28.201.333c.28.096.56-.026.508-.37a2 2 0 0 0-.122-.476a2 2 0 0 0-.529-.72a.05.05 0 0 1 .021-.063c.249-.185.53-.211.83-.17a.9.9 0 0 1 .445.212c.28.223.424.566.424.92v14.59c0 .651-.376 1.133-1.037 1.185c-.111.01-.238 0-.37-.037c-.233-.053-.376-.254-.593-.333a.3.3 0 0 0-.106-.016c-.492.01-.873-.222-1.132-.698a.106.106 0 0 1 .032-.138c.529-.349.846-.814.894-1.465z"/><path fill="#061d41" fill-rule="evenodd" d="M18.958 17.557a1.975 1.975 0 0 0 1.117-2.587l.004-.02q.746-1.13.053-2.297a.07.07 0 0 1-.01-.047c0-.043.016-.085.032-.127l.026-.106c.09-.513 0-.995-.28-1.444a.04.04 0 0 1 0-.043a1.99 1.99 0 0 0-.646-2.544a.04.04 0 0 1-.016-.015a.04.04 0 0 1-.005-.022a1.76 1.76 0 0 0-.762-1.724a.1.1 0 0 1-.047-.075a1.75 1.75 0 0 0-1.026-1.39a.1.1 0 0 1-.053-.07a1.724 1.724 0 0 0-1.667-1.407c-.047 0-.09 0-.127-.037q-.444-.509-1.063-.582c-.576-.074-1.058.075-1.46.45c-.227.212-.497.582-.497.915V19.61a.6.6 0 0 0 .053.243a1.745 1.745 0 0 0 1.867 1.121a1.7 1.7 0 0 0 .82-.317a.4.4 0 0 1 .217-.053c.053-.01.095-.01.137-.026a2 2 0 0 0 1.228-.905l.069-.143l.052-.106l.015-.017l.022-.01a1.96 1.96 0 0 0 1.894-1.766a.09.09 0 0 1 .053-.074m-4.1-12.532c-.02.175-.105.328-.29.355c-.244.031-.508-.058-.487-.355a1.83 1.83 0 0 1 .677-1.27a.03.03 0 0 0 .004-.015a.03.03 0 0 0-.004-.016l-.01-.01a1.068 1.068 0 0 0-1.64.618c-.043.143-.043.307-.043.46v14.225c0 .37.021.619.074.74a1.07 1.07 0 0 0 1.444.604c.07-.027.133-.08.196-.127c.1-.074.196-.148.312-.159h.053c.106-.01.212-.016.317-.042a1.24 1.24 0 0 0 .847-.71v-.031a.05.05 0 0 0-.021-.021a1.82 1.82 0 0 1-.942-1.513a.4.4 0 0 1 .053-.26c.138-.21.444-.174.582.022c.047.074.053.175.063.265v.047c.048.407.318.74.688.9c.38.158.83.037 1.127-.212c.285-.249.455-.582.444-.952v-.075c-.01-.1-.021-.2.032-.285c.09-.138.217-.17.36-.201l.11-.027a1.2 1.2 0 0 0 .699-1.777c-.159-.264-.032-.407.137-.592l.016-.022c.323-.354.36-.872.164-1.29a1.6 1.6 0 0 0-.248-.37c-.127-.16-.064-.307.01-.471l.006-.022a1.15 1.15 0 0 0-.106-1.09l-.09-.121c-.122-.159-.244-.317-.095-.54q.149-.22.211-.402a1.13 1.13 0 0 0-.1-.957a1.2 1.2 0 0 0-.863-.603c-.582-.106-1.079.344-1.237.857c-.07.211-.286.323-.492.227c-.196-.09-.249-.259-.17-.502a1.91 1.91 0 0 1 1.984-1.317c.021 0 .032-.006.027-.027a.98.98 0 0 0-.63-.963c-.228-.105-.233-.264-.238-.444a.8.8 0 0 0-.026-.217a.97.97 0 0 0-.71-.74c-.137-.032-.264-.08-.338-.212a.7.7 0 0 1-.063-.29c-.01-.086-.016-.17-.053-.255a.97.97 0 0 0-.9-.656c-.465-.037-.793.434-.846.847z" clip-rule="evenodd"/><path fill="#613cc0" d="M15.176 6.703a.529.529 0 1 0 0-1.058a.529.529 0 0 0 0 1.058m1.587 1.586a.529.529 0 1 0 0-1.057a.529.529 0 0 0 0 1.057m-2.645 0a.53.53 0 1 0 0-1.058a.53.53 0 0 0 0 1.058m.529 3.174a1.058 1.058 0 1 0 0-2.116a1.058 1.058 0 0 0 0 2.116m2.644 0a.529.529 0 1 0 0-1.057a.529.529 0 0 0 0 1.057m-2.644 1.587a.528.528 0 1 0 0-1.056a.528.528 0 0 0 0 1.056m1.851 1.587a.794.794 0 1 0 0-1.587a.794.794 0 0 0 0 1.587m1.851 0a.53.53 0 1 0 0-1.058a.53.53 0 0 0 0 1.058m-3.967 1.587a.793.793 0 1 0 0-1.587a.793.793 0 0 0 0 1.587m2.38.53a.529.529 0 1 0 0-1.058a.529.529 0 0 0 0 1.057m-2.644 1.586a.53.53 0 1 0 0-1.058a.53.53 0 0 0 0 1.058"/></g></svg>