<svg version="1.1" viewBox="0 0 128 128" xmlns="http://www.w3.org/2000/svg" xmlns:xlink="http://www.w3.org/1999/xlink">
 <defs>
  <linearGradient id="linearGradient11" x1="22" x2="22" y1="14" y2="30" gradientTransform="scale(3)" gradientUnits="userSpaceOnUse">
   <stop stop-color="#ffe2ab" offset="0"/>
   <stop stop-color="#ffe2ab" offset="1"/>
  </linearGradient>
  <linearGradient id="linearGradient12" x1="20.533" x2="21.458" y1="15.164" y2="20.258" gradientTransform="scale(3)" gradientUnits="userSpaceOnUse">
   <stop stop-color="#e9c483" offset="0"/>
   <stop stop-color="#ffe2ab" offset="1"/>
  </linearGradient>
  <linearGradient id="linearGradient22" x1="75.346" x2="75" y1="7" y2="120" gradientUnits="userSpaceOnUse">
   <stop stop-color="#fff" offset="0"/>
   <stop stop-color="#e3e3e3" offset="1"/>
  </linearGradient>
 </defs>
 <circle cx="64" cy="64" r="60"/>
 <circle cx="64" cy="64" r="57" fill="url(#linearGradient22)"/>
 <g transform="translate(15.626 14.226)">
  <path d="m45.089 7.2034a1.8 1.8 0 0 0-0.23438 0.0039063c-4.0303 0.32428-7.8739 0.89599-11.191 3.7207a1.8002 1.8002 0 0 0-0.00586 0.005859l-1.5 1.2949a1.8 1.8 0 0 0-0.082031 0.074219c-5.1467 0.79537-10.04 3.2559-13.717 6.9746-4.5308 4.5823-7.161 11.013-7.1602 17.479 4.6e-5 3.9948 1.0875 7.9186 2.9297 11.455-1.099 0.20352-2.1637 0.54561-3.0234 1.125-1.9202 1.294-3.1012 3.1452-3.8848 5.0449s-1.1764 3.8989-1.2129 5.8359c-0.18548 9.8403 17.683 33.552 43.951 32.062 15.678-0.88891 30.437-9.9743 38.812-22.986 0.04803-0.07629 0.093006-0.15446 0.13477-0.23438 2.8499-5.324 2.1969-11.607-0.65039-16.857-2.398-4.4222-6.6148-7.972-11.678-10.412 0.55768-1.728 1.3605-3.3986 1.3594-5.2148v-0.005859c-0.0032-4.5299-1.8571-9.0331-5.0508-12.24-0.7955-0.79885-1.6721-1.5159-2.6094-2.1406 0.081146-1.9957-0.67761-3.8246-1.7441-5.3242-1.2235-1.7203-2.8559-3.1262-4.4355-4.3418a1.8 1.8 0 0 0-1.3301-0.35742 1.8 1.8 0 0 0-1.1895 0.69141 1.8 1.8 0 0 0 0.32812 2.5195c1.4506 1.1163 2.8209 2.3503 3.6914 3.5742 0.31132 0.43773 0.55827 0.85845 0.73828 1.2754-1.8183-0.63734-3.7396-0.97594-5.666-0.97656-2.3283-0.0016-4.4737 1.0134-6.6152 1.9277-4.0286-4.767-9.6376-8.2074-15.746-8.9863 1.9195-0.88553 4.111-1.1769 6.8398-1.3965a1.8 1.8 0 0 0 1.6465-1.9395 1.8 1.8 0 0 0-1.7051-1.6504z" stroke-linecap="round" stroke-width="2.736"/>
  <ellipse cx="60.666" cy="36.577" rx="13.909" ry="13.968" fill="#fff"/>
  <path d="m17.282 51.61c-6.8025-2.1928-9.375 8.8611-7.1023 12.429 20.104 37.603 60.203 27.599 75.758 3.4328 5.8977-11.018-6.9496-28.074-25.568-24.977-13.88 8.2366-16.971 20.87-43.088 9.1147z" fill="url(#linearGradient11)"/>
  <ellipse cx="35.689" cy="36.755" rx="21.129" ry="21.366" fill="#fff"/>
  <path d="m17.282 51.61c-6.8025-2.1928-9.375 8.8611-7.1023 12.429 16.82 34.961 60.203 27.599 75.758 3.4328 5.8977-11.018-6.9496-28.074-25.568-24.977-13.88 8.2366-16.971 20.87-43.088 9.1147z" fill="url(#linearGradient12)"/>
  <path d="m71.602 41.49c-3.9364-0.22413-8.484 0.09138-12.48 0.69141-0.07317 0.0111-0.14556 0.0267-0.21681 0.04689-5.6559 1.5941-8.2578 4.9125-10.488 7.459-2.215 2.5287-4.0052 4.4121-9.3105 4.9746-3.685-0.05727-6.7039-0.20769-11.203-1.2422-0.06377-0.0153-0.12831-0.027-0.19336-0.03516-2.1193-0.25089-4.6417-1.1052-6.6445-2.3145-2.0028-1.2093-3.6242-2.8746-3.9863-4.1997-0.14745-0.28242-1.0288-1.4143-1.9902-1.15-0.96013 0.26292-1.5245 1.2552-1.2598 2.2148 0.73887 2.7033 2.8972 4.7183 5.3789 6.2168 2.471 1.492 5.3499 2.4703 8.0449 2.7949 4.7245 1.0706 8.158 1.2682 11.924 1.3242 0.07038 0.0021 0.14079 1.23e-4 0.21093-6e-3 6.2636-0.63605 9.3863-3.5281 11.736-6.2109 2.3328-2.6632 4.0201-4.9823 8.6777-6.3223 3.7437-0.55302 8.0564-0.84604 11.596-0.64453 1.792 0.10203 3.3868 0.33119 4.5586 0.66797 1.1718 0.33678 3.0257 0.92408 3.0465 0.93928 1.9984 0.62454 2.3073 1.8901 3.11 1.305 0.80202-0.58604-0.67876-2.549-1.2639-3.3517-0.93418-1.2785-2.3293-1.9051-3.8965-2.3555s-3.3814-0.69067-5.3496-0.80273z" stop-color="#000000" stroke-linecap="round" stroke-linejoin="round" stroke-width="3"/>
  <path d="m28.365 65.678c-0.46952-0.08682-0.9543 0.0165-1.3477 0.2871-2.6597 1.8217-2.7036 3.6843-2.5368 6.6677 0.16682 2.9834 2.8927 10.253 4.8931 13.141 4.0008 5.7753 8.5936 5.6022 16.435 6.5348 0.98906 0.1197 1.8872-0.58674 2.0039-1.5762 0.11622-0.98692-1.8256-0.61567-2.8125-0.73242-8.8235-3.1887-19.451-18.058-15.387-20.841 0.8183-0.56334 0.46868-1.9058-0.0939-2.7247-0.26909-0.39527-0.68441-0.66723-1.1543-0.75586z" stop-color="#000000" stroke-linecap="round" stroke-linejoin="round" stroke-width="3"/>
  <circle cx="37.5" cy="37.5" r="4.5"/>
  <circle cx="57" cy="36" r="3"/>
 </g>
</svg>
