<svg xmlns="http://www.w3.org/2000/svg" viewBox="0 0 24 24"><g fill="none"><path fill="#fff" d="M21 3H3v18h18z"/><path fill="#4f9843" d="M3 3h18v18H3z"/><path fill="#fff" d="m10.784 9.776l.61.322l.078.048c.212.125.707.418 1.173.418c.428 0 .98-.1 1.202-.152c-.048-.167-.192-.536-.395-.671a1.1 1.1 0 0 0-.601-.193l-1.357.022a2.1 2.1 0 0 0-.71.206m3.417.502c.022-.116.128-.37.37-.46c.305-.116.575-.193.912-.164c.25.028.494.099.72.209c.013.016.113.15.12.235c.009.086-.113.347-.643.453c-.42.068-.848.04-1.254-.084a.6.6 0 0 1-.225-.193z"/><path fill="#206814" d="m12.203 12.244l-1.526-.37c-.264-.064-.582-.093-.682.055c-.08.116.212.386.367.508l1.147.569c.405.18 1.569.54 3.002.54c1.437 0 1.832-.444 1.848-.669l-.045-.244v-.193c.09-.113.287-.376.338-.566c.051-.186-.097-.295-.18-.328l-.07.235l-.303.463a7 7 0 0 1-.52.228c-.245.097-.772.042-.833.042a61 61 0 0 1-1.222-.077a20 20 0 0 1-1.317-.193z"/><path fill="#000" d="M9.916 7.178q-.303.35-.562.733q-.555.786-1.045 1.613a9.1 9.1 0 0 0-1.343 4.947c0 .518.138.92.36 1.228c.222.3.517.537.858.688a4.7 4.7 0 0 0 1.922.376c.428 0 .74-.016 1.08-.032h.087c.376-.02.794-.035 1.43-.035c.498 0 .781-.152.939-.332a.7.7 0 0 0 .173-.54a.055.055 0 1 1 .11-.013a.84.84 0 0 1-.2.624c-.183.21-.501.37-1.022.37c-.633 0-1.05.016-1.424.032l-.09.006c-.337.013-.655.03-1.083.03c-.466 0-1.276-.059-1.967-.386a2.27 2.27 0 0 1-.903-.724a2.17 2.17 0 0 1-.38-1.292c0-2.13.547-3.635 1.36-5.001q.492-.831 1.048-1.62q.261-.385.566-.736l.006-.01l.058-.077c.051-.064.122-.141.225-.215c.315-.203.687-.3 1.06-.277c.393 0 .688.064.91.177a1 1 0 0 1 .421.395c.275-.269.644-.42 1.029-.424c.334 0 .601.023.82.116c.218.096.379.267.504.543l.322.72c.225.129.401.267.504.366c.161.168.331.38.412.486c.144.064.27.16.357.305a.3.3 0 0 1 .032.074l.016.11c.006.096 0 .218-.036.346a.8.8 0 0 1 .068.264a.64.64 0 0 1-.08.386a3 3 0 0 1-.306.411c.068.068.151.164.219.273a.9.9 0 0 1 .15.396a.36.36 0 0 1 .174.238a.55.55 0 0 1-.038.308q-.122.283-.334.505c.051.087.09.193.093.302a.51.51 0 0 1-.18.382c-.179.147-.39.246-.618.29c-.295.07-.69.112-1.215.112c-2.449 0-3.908-1.012-4.226-1.23l-.048-.033a.5.5 0 0 1-.135-.148a.4.4 0 0 1-.058-.193a.23.23 0 0 1 .074-.19a.37.37 0 0 1 .247-.076c.212 0 .515.08.836.173l.17.048c.28.084.566.167.836.222c.652.129 2.23.28 3.095.28c.421 0 .694-.129.874-.302a1.3 1.3 0 0 0 .328-.563a.3.3 0 0 0 .017-.093a.74.74 0 0 0-.132-.37a1.5 1.5 0 0 0-.203-.247l-.093.096a.77.77 0 0 1-.389.212a.056.056 0 0 1-.02-.11a.6.6 0 0 0 .329-.179q.261-.259.46-.569a.53.53 0 0 0 .064-.321a.7.7 0 0 0-.065-.241c-.087-.12-.392-.373-.91-.373c-.278-.003-.547.1-.751.289a1.4 1.4 0 0 1 .556-.106c.414 0 .69.074.867.174c.174.096.258.225.267.321a.26.26 0 0 1-.064.177a.7.7 0 0 1-.193.173c-.173.106-.44.193-.8.193c-.354 0-.653-.022-.859-.083a.5.5 0 0 1-.24-.129a.23.23 0 0 1-.049-.231v-.004a.8.8 0 0 1 .254-.334l.003-.01a1.17 1.17 0 0 1 1.01-.54c.463 0 .778.19.929.338q.018-.117.012-.209a.6.6 0 0 0-.247-.148a2 2 0 0 0-.694-.106c-.393 0-.64.09-.788.183a.8.8 0 0 0-.206.177l-.006.007l-.016.016a.06.06 0 0 1-.04.01a.055.055 0 0 1-.03-.094l.006-.01q.025-.03.054-.057a.8.8 0 0 1 .18-.145a1.6 1.6 0 0 1 .846-.196c.321 0 .562.048.732.112a.7.7 0 0 1 .161.077a.63.63 0 0 0-.267-.228a.06.06 0 0 1-.048-.022a1.2 1.2 0 0 0-.411-.077a2.4 2.4 0 0 0-.83.138a.055.055 0 1 1-.038-.103c.278-.1.572-.148.868-.145q.151 0 .292.036a2.24 2.24 0 0 0-.877-.74a2.06 2.06 0 0 0-.91-.237a3 3 0 0 0-.636.06a1.3 1.3 0 0 0-.225.065q.047.062.086.128c.123.184.238.357.322.521c.093.18.151.354.122.514a.055.055 0 0 1-.064.045a.055.055 0 0 1-.045-.064c.022-.122-.02-.27-.11-.443c-.08-.161-.192-.328-.315-.515l-.032-.045a1 1 0 0 0-.09-.122c-.25-.29-.63-.427-1.375-.427a1.46 1.46 0 0 0-1.225.61l-.02.023a.05.05 0 0 1-.058.017l-.018-.01a.06.06 0 0 1-.02-.059l.01-.019l.02-.022a1.59 1.59 0 0 1 1.31-.65c.319 0 .58.023.791.078a1.4 1.4 0 0 0-.106-.335a.9.9 0 0 0-.411-.418a1.9 1.9 0 0 0-.858-.16c-.515 0-.814.122-.997.254a.9.9 0 0 0-.202.192l-.058.074zm2.758.418c.216.067.386.173.518.321a1 1 0 0 1 .276-.09a3 3 0 0 1 .66-.064c.327 0 .639.096.9.219l-.264-.595a.87.87 0 0 0-.45-.485a2 2 0 0 0-.772-.11c-.482 0-.839.267-.977.418q.077.181.11.386m3.584 5.046a.5.5 0 0 1-.15.142c-.133.08-.341.148-.653.16c-.386.023-1.322.033-2.302-.06q-.727-.06-1.44-.22a3.5 3.5 0 0 1-1.125-.436a.055.055 0 0 1-.013-.077c.017-.026.052-.033.074-.013c.264.18.646.315 1.09.418c.44.106.935.173 1.424.218c.974.09 1.906.08 2.288.064c.209.001.414-.05.598-.147c.113-.071.145-.142.148-.174v-.02l.016-.015c.12-.12.27-.312.344-.499a.47.47 0 0 0 .032-.247a.24.24 0 0 0-.08-.132l-.006.03a1.46 1.46 0 0 1-.36.61c-.26.232-.6.352-.949.334a21.6 21.6 0 0 1-3.118-.286c-.273-.055-.565-.141-.845-.222l-.167-.048c-.328-.096-.61-.167-.804-.167c-.096 0-.147.022-.176.048a.13.13 0 0 0-.039.103a.27.27 0 0 0 .045.141a.3.3 0 0 0 .096.11l.049.032c.315.218 1.755 1.215 4.169 1.215c.517 0 .903-.045 1.189-.113c.283-.067.463-.16.569-.263a.396.396 0 0 0 .096-.482zm-1.967-2.426a.13.13 0 0 0 .026.125c.032.035.096.07.193.096c.186.058.475.078.826.078c.258.01.515-.05.742-.174a.6.6 0 0 0 .164-.145c.032-.048.042-.08.042-.096c-.006-.055-.055-.151-.212-.241a1.7 1.7 0 0 0-.813-.161c-.634 0-.907.354-.965.514z"/><path fill="#000" fill-rule="evenodd" d="M13.446 9.319c.338.294.615.651.817 1.05a.057.057 0 0 1-.047.08a.05.05 0 0 1-.053-.031a3.3 3.3 0 0 0-.787-1.016a2.1 2.1 0 0 0-1.46-.562c-.74.029-1.157.177-1.382.33c-.222.158-.244.319-.225.387l.013.035q.013.048.026.07v.007a2.02 2.02 0 0 1 1.565-.685a2 2 0 0 1 1.311.537c.174.052.322.219.428.392c.11.17.19.364.231.495a.2.2 0 0 1 .08.145q.012.12-.14.238a2 2 0 0 0-.171.15c-.26.248-.685.65-1.565.885a.055.055 0 0 1-.063-.08a.06.06 0 0 1 .034-.026a3.2 3.2 0 0 0 1.427-.772a26 26 0 0 0-1.527-.074c-.257 0-.482-.106-.656-.238a1.6 1.6 0 0 1-.37-.395a.05.05 0 0 1-.007-.043a.06.06 0 0 1 .027-.034a.055.055 0 0 1 .074.016c.06.097.18.244.344.367c.16.125.363.218.588.218c.473 0 1.273.051 1.64.08q.085-.087.16-.141c.087-.064.1-.116.096-.141a.1.1 0 0 0-.028-.058a3.7 3.7 0 0 1-1.03.138c-.648 0-1.12-.299-1.352-.447a6 6 0 0 0-.72-.353l-.116-.052l.113-.051q.331-.166.697-.225h1.633a1.9 1.9 0 0 0-1.99-.245a1.9 1.9 0 0 0-.472.341q-.096.087-.2.16a.1.1 0 0 1-.057.01c-.052-.003-.074-.048-.087-.077l-.03-.083c0-.013-.006-.023-.009-.032c-.038-.129.02-.335.267-.508c.248-.174.688-.322 1.44-.354a2.2 2.2 0 0 1 1.533.592m-.257.305c.135.039.264.177.37.347c.096.148.167.315.209.437a3.7 3.7 0 0 1-.974.126c-.61 0-1.06-.286-1.292-.431a6 6 0 0 0-.62-.312q.261-.12.546-.167z" clip-rule="evenodd"/><path fill="#000" d="m14.427 10.837l.064-.086c.096.045.241.067.389.077c.148.006.29 0 .373-.007a.055.055 0 0 1 .06.049c0 .032-.018.057-.047.064a2.7 2.7 0 0 1-.614-.023l.588.604a.06.06 0 0 1 0 .08a.055.055 0 0 1-.08 0zM9.74 11.914a.06.06 0 0 1-.044.044a.06.06 0 0 1-.042-.009a.06.06 0 0 1-.023-.036v-.021l.02-.049l.041-.07a.8.8 0 0 1 .177-.177c.16-.119.415-.203.784-.119a.05.05 0 0 1 .032.025a.054.054 0 0 1-.018.073a.05.05 0 0 1-.04.008c-.34-.077-.559.003-.694.103a.64.64 0 0 0-.193.228m.698-.79c.025.012.035.048.022.073a.16.16 0 0 1-.106.08a.4.4 0 0 1-.128.017h-.132a.3.3 0 0 0-.08.01a.055.055 0 0 1-.068-.04a.055.055 0 0 1 .039-.067c.032-.01.07-.01.109-.01h.125a1 1 0 0 0 .103-.015c.032-.01.039-.02.042-.023l.013-.017a.06.06 0 0 1 .04-.014q.01 0 .02.005"/><path fill="#000" fill-rule="evenodd" d="M14.42 14.476a.7.7 0 0 1 .123.151a.26.26 0 0 1-.045.312a.055.055 0 0 1-.078 0a.055.055 0 0 1 0-.074c.033-.032.045-.064.045-.093a.17.17 0 0 0-.022-.093a.5.5 0 0 0-.129-.145a.44.44 0 0 0-.234.308v.01a.2.2 0 0 0 0 .116c.016.032.045.067.118.077a.65.65 0 0 0 .373-.058l.563-.405h.466l.032.408l.402-.334a.06.06 0 0 1 .06-.007l.017.013a.056.056 0 0 1-.006.078l-1.215 1.019a.5.5 0 0 0 .041.154a.37.37 0 0 0 .155.177a.6.6 0 0 0 .418.041l.524-.662a.055.055 0 0 1 .077-.01c.022.02.025.055.006.078l-.53.672a.2.2 0 0 0-.013.15c.02.042.067.097.212.103c.154.01.254 0 .315-.016l.058-.025l.01-.01v-.003l.494-.614a.06.06 0 0 1 .037-.021a.05.05 0 0 1 .04.011c.026.02.03.055.01.077l-.482.601a.2.2 0 0 0 0 .13q.014.027.045.047q.029.024.1.03a.3.3 0 0 0 .154-.059a1 1 0 0 0 .19-.16c.125-.126.24-.28.308-.386a.056.056 0 0 1 .078-.013a.053.053 0 0 1 .015.074c-.07.11-.192.27-.324.405a1.3 1.3 0 0 1-.21.174a.36.36 0 0 1-.214.073a.3.3 0 0 1-.158-.044a.2.2 0 0 1-.083-.103a.3.3 0 0 1-.017-.084l-.022.006c-.077.02-.19.033-.35.023c-.17-.013-.267-.077-.306-.174a.3.3 0 0 1-.016-.15a.65.65 0 0 1-.418-.065a.48.48 0 0 1-.202-.228a.4.4 0 0 1-.032-.09a.18.18 0 0 1-.155.013a.15.15 0 0 1-.09-.071a.2.2 0 0 1-.019-.1c0-.035.01-.07.02-.103a.4.4 0 0 1-.13-.128a.2.2 0 0 1-.025-.135c0-.042.016-.09.032-.129l.032-.074a.7.7 0 0 1-.283.013c-.112-.016-.176-.074-.202-.148a.3.3 0 0 1-.013-.167a1 1 0 0 0-.048-.096a.4.4 0 0 0-.093-.113a.2.2 0 0 0-.168-.038c-.06.013-.128.058-.186.17a.24.24 0 0 0-.025.145a.4.4 0 0 0 .057.144q.075.115.168.216l.125.148a.8.8 0 0 1 .144.424c.01.128-.003.25-.022.331c.16.29.762.865 1.983.865c.588 0 1.003-.09 1.283-.203c.273-.11.418-.244.472-.334v-.026a1.6 1.6 0 0 0-.112-.273a4 4 0 0 0-.444-.669c-.106-.141-.222-.302-.347-.453a2.2 2.2 0 0 0-.547-.508a1.3 1.3 0 0 1-.427-.405a.8.8 0 0 0-.405-.302a.36.36 0 0 0-.264.032a1.2 1.2 0 0 0-.27.193q-.085.079-.16.158l-.097.096q-.076.075-.164.138zm3.34 1.951a1.7 1.7 0 0 0-.119-.283a4 4 0 0 0-.337-.52l-.113-.158c-.106-.141-.225-.305-.354-.46a2.3 2.3 0 0 0-.578-.533a1.2 1.2 0 0 1-.396-.376a.9.9 0 0 0-.456-.34a.47.47 0 0 0-.34.034a1.3 1.3 0 0 0-.3.216l-.17.16l-.09.09a.8.8 0 0 1-.209.164a.6.6 0 0 0-.283.267a.5.5 0 0 0-.122-.144a.32.32 0 0 0-.257-.062a.4.4 0 0 0-.26.229a.35.35 0 0 0-.039.209c.01.067.039.128.074.193q.08.12.18.225l.119.144a.64.64 0 0 1 .122.363a1 1 0 0 1-.026.322l-.003.016l.01.02c.16.324.807.94 2.09.94c.597 0 1.028-.09 1.32-.208c.215-.07.401-.206.534-.389l.025-.048a.05.05 0 0 0 .003-.04a.05.05 0 0 0-.025-.03m-3.118-1.35a.7.7 0 0 0-.106.177a.3.3 0 0 0-.026.1q-.005.046.01.064a.3.3 0 0 0 .09.096l.807-.823h-.248l-.53.386zm.865-.315l-.83.842a.3.3 0 0 0-.032.11q-.002.028.007.041q.003.015.026.02c.041.012.064.003.073-.007a.1.1 0 0 0 .033-.045v-.02l.752-.626l-.026-.315z" clip-rule="evenodd"/><path fill="#000" d="M13.138 8.875a2 2 0 0 0-.582.055a.055.055 0 0 1-.025-.106c.144-.039.382-.074.614-.058s.475.08.617.257c.135.17.212.373.25.556c.042.184.046.354.04.45l-.006.021a.05.05 0 0 1-.032.028a.05.05 0 0 1-.041-.003a.06.06 0 0 1-.031-.052c.006-.09 0-.244-.036-.418a1.25 1.25 0 0 0-.228-.511c-.115-.141-.318-.202-.54-.219"/><path fill="#000" fill-rule="evenodd" d="M11.66 9.65c-.055.103-.193.35-.18.485c.144.087.5.283.774.37c.344.109.598-.203.598-.47a.65.65 0 0 0-.154-.427h-1.016zm.122.34a.14.14 0 0 0 0-.28a.14.14 0 0 0 0 .28m.096.245a.096.096 0 1 0 0-.193a.096.096 0 0 0 0 .193m.74-.21a.205.205 0 0 1-.283.194a.2.2 0 0 1-.126-.193c0-.116.09-.206.206-.206c.112 0 .206.09.206.206zm1.905.492c-.019-.18-.022-.578.123-.726c.147-.148.652-.17.887-.16c.07.064.202.273.183.546a.46.46 0 0 1-.293.418c-.193.01-.646.01-.9-.078m.274-.385a.143.143 0 0 0 .141-.142a.143.143 0 0 0-.141-.141a.14.14 0 0 0-.139.141a.14.14 0 0 0 .139.139zm.096.24a.096.096 0 1 0 0-.192a.096.096 0 0 0 0 .193m.742-.208a.208.208 0 0 1-.285.193a.205.205 0 0 1-.126-.193c0-.112.093-.206.206-.206s.206.094.206.206" clip-rule="evenodd"/><path fill="#000" d="M15.983 13.373a.58.58 0 0 1-.312.626l-.065-.144a.42.42 0 0 0 .216-.457z"/></g></svg>