<svg xmlns="http://www.w3.org/2000/svg" viewBox="0 0 24 24"><g fill="none"><path fill="#94191b" d="m4.907 16.727l.016-.049c.453-.442 1.528-1.402 2.237-1.675c.246-.147 6.412.513 9.462.862c.622.393 1.888 1.217 1.959 1.38c.049.11.289.546.513.945a9 9 0 0 1-14.187-1.463"/><path fill="#000" fill-rule="evenodd" d="M7.155 15.003c-.704.273-1.779 1.233-2.232 1.675l-.016.055a8.996 8.996 0 0 0 14.187 1.457a24 24 0 0 1-.513-.944c-.071-.164-1.337-.988-1.965-1.38c-3.044-.35-9.21-1.01-9.461-.863m9.358 1.168a358 358 0 0 0-5.703-.606a104 104 0 0 0-3.306-.262a3 3 0 0 0-.246 0c-.305.12-.709.398-1.118.72c-.317.257-.622.524-.84.732a8.674 8.674 0 0 0 13.4 1.386q-.214-.373-.414-.753a12 12 0 0 0-.655-.492q-.553-.372-1.118-.725m1.8 1.25q.009 0 0 0" clip-rule="evenodd"/><path fill="#67b312" d="m7.81 13.87l.698-.18c-.453-2.516-.006-5.064.272-6.024l.764-.611l6.848-.431c.393.19 1.173.714 1.173 1.31c0 .6-.48 1.221-.72 1.456c.136.13.437.426.584.491c.18.093.72.868.338 2.4c-.382 1.545-2.384 2.314-2.592 2.402c-.163.076-.202.354-.202.48l1.556.906a3.5 3.5 0 0 1-.317.976c-.142.219.06.89.18 1.2l-1.31-.998l-7.071-1.336z"/><path fill="#000" d="M16.382 6.465a.14.14 0 0 1 .081.017c.28.138.54.317.77.529c.256.24.49.562.49.928c0 .338-.136.67-.294.938a2.6 2.6 0 0 1-.36.508q.21.189.437.36a.8.8 0 0 1 .24.25c.082.126.158.295.218.503c.114.43.153 1.036-.044 1.828c-.202.823-.84 1.43-1.424 1.833a6.8 6.8 0 0 1-1.255.671c-.016.011-.054.044-.076.126l-.027.12l1.473.856a.15.15 0 0 1 .07.164a6 6 0 0 1-.12.513a2 2 0 0 1-.218.524a.4.4 0 0 0-.021.147c0 .082.016.186.038.295c.043.223.125.463.18.61a.16.16 0 0 1-.055.186a.16.16 0 0 1-.185 0l-1.277-.976l-7.039-1.326a.16.16 0 0 1-.13-.142l-.203-2.04a.16.16 0 0 1 .12-.165l.557-.147c-.415-2.504.022-4.998.3-5.953a.16.16 0 0 1 .054-.082l.764-.61a.2.2 0 0 1 .088-.034zm-1.25 8.976v.475c0 .087-.07.164-.158.164a.16.16 0 0 1-.158-.164v-.748a.9.9 0 0 1 .054-.305a.46.46 0 0 1 .246-.317l.049-.021a6 6 0 0 0 1.151-.617c.562-.393 1.124-.938 1.299-1.653c.185-.748.147-1.299.043-1.665q-.06-.22-.18-.414a.7.7 0 0 0-.12-.142a2 2 0 0 1-.327-.251l-.3-.273a.164.164 0 0 1 0-.23c.114-.108.284-.31.43-.556c.143-.245.246-.524.246-.78c0-.235-.152-.475-.387-.693a3 3 0 0 0-.655-.458l-6.766.42l-.682.551c-.273.982-.693 3.46-.256 5.904a.164.164 0 0 1-.11.18l-.572.147l.18 1.785l6.957 1.315q.04.008.065.032l.911.693a3.5 3.5 0 0 1-.087-.534c0-.11.016-.23.076-.328c.055-.082.12-.25.175-.436l.098-.366l-1.222-.71z"/><path fill="#94191b" d="M7.63 13.532c.327-.088.736.174.9.316c-.764-.546-.563 1.25-.159 1.768c.846.71 4.77 1.2 6.624 1.364c.3.382.9 1.2.9 1.419c-3.672.545-3.939-.311-5.227-.699c-1.282-.382-3.197-1.473-3.29-1.79c-.087-.316-.153-2.264.251-2.378"/><path fill="#000" d="M8.202 13.46c.18.076.338.19.43.273c.066.054.072.147.023.218a.16.16 0 0 1-.219.027c-.081-.054-.13-.07-.152-.07c-.017 0-.028 0-.039.016a.34.34 0 0 0-.054.142a1.3 1.3 0 0 0-.022.267c0 .207.038.447.098.665s.142.399.219.508c.185.147.556.3 1.058.447a21 21 0 0 0 1.79.393c1.31.23 2.75.393 3.678.47c.043 0 .081.027.109.06q.44.574.818 1.189l.082.17a.6.6 0 0 1 .033.163a.165.165 0 0 1-.131.164c-1.85.272-2.86.19-3.58-.011a5.4 5.4 0 0 1-.9-.36l-.027-.011a4.5 4.5 0 0 0-.792-.328a11.8 11.8 0 0 1-2.962-1.451a2.6 2.6 0 0 1-.371-.328a.4.4 0 0 1-.06-.12a3 3 0 0 1-.066-.523a8 8 0 0 1 0-.792a3.6 3.6 0 0 1 .087-.769c.028-.11.06-.213.11-.295a.38.38 0 0 1 .223-.196c.219-.055.437 0 .617.082m-.53.223s-.016.011-.038.05a.7.7 0 0 0-.076.212c-.044.186-.07.437-.082.71q-.018.608.055 1.211l.01.016l.06.066q.084.084.24.191c.887.6 1.853 1.074 2.87 1.408c.328.098.585.218.836.343l.032.017c.262.125.524.245.852.338c.633.18 1.555.262 3.257.027a14 14 0 0 0-.775-1.145a47 47 0 0 1-3.634-.47a18 18 0 0 1-1.822-.403a3.5 3.5 0 0 1-1.212-.54a1.8 1.8 0 0 1-.278-.628a2.8 2.8 0 0 1-.109-.753c-.005-.115 0-.23.022-.333a.56.56 0 0 1 .125-.278a.57.57 0 0 0-.332-.038"/><path fill="#94191b" d="M15 14.803v.676c.383-.158 1.103.59 1.234.84c0 .59.36 1.517.474 1.632c.11.11.273-.747.273-1.544c-.18-.546-1.397-1.299-1.986-1.604z"/><path fill="#000" d="M14.913 14.666a.16.16 0 0 1 .159-.005c.294.158.753.425 1.162.73c.202.148.398.312.556.47c.153.158.284.327.339.497q.008.598-.088 1.189c-.027.153-.054.29-.098.382a.4.4 0 0 1-.082.136a.185.185 0 0 1-.262 0a.5.5 0 0 1-.082-.12a4.7 4.7 0 0 1-.436-1.582a2.5 2.5 0 0 0-.808-.71c-.109-.043-.18-.043-.218-.027a.16.16 0 0 1-.148-.015a.16.16 0 0 1-.07-.132v-.677c0-.054.033-.109.076-.136m.24.404v.229q.124.016.24.065c.398.203.737.506.983.879c.015.349.085.693.207 1.02q.059.197.126.344l.021-.115c.055-.283.088-.676.093-1.058a1.1 1.1 0 0 0-.262-.35a4.4 4.4 0 0 0-.513-.436a9 9 0 0 0-.894-.578"/><path fill="#000" d="M16.294 16.865a.17.17 0 0 1 .12.191c-.082.36.017.786.17 1.222l.054.148c.185.283.327.622.41 1.036a.157.157 0 0 1-.119.177a.16.16 0 0 1-.187-.1a5 5 0 0 0-.202-.519l-.017-.038l-.163-.41a2.2 2.2 0 0 0-.988-.834a.16.16 0 0 1-.065-.194a.16.16 0 0 1 .174-.106c.236.094.454.23.644.398a2 2 0 0 1-.022-.851a.16.16 0 0 1 .191-.12"/><path fill="#94181a" d="M8.617 5.92c-.088.545.038 1.39.114 1.745c.579-.764 4.207-2.1 5.948-2.673c-.186-.546-.6-1.692-.764-1.834c-2.074.273-5.184 2.085-5.293 2.761z"/><path fill="#000" d="M13.893 3c.05 0 .093.01.126.038a.5.5 0 0 1 .103.137l.099.185l.218.502c.147.382.294.802.393 1.08a.164.164 0 0 1-.104.202q-1.722.57-3.4 1.26c-.594.252-1.15.508-1.593.743c-.218.12-.414.235-.562.338q-.227.166-.316.273a.158.158 0 0 1-.278-.055a7 7 0 0 1-.12-.823a4 4 0 0 1 .005-.983c.022-.13.11-.262.213-.382c.109-.125.256-.261.43-.398c.345-.273.82-.578 1.349-.873A10.9 10.9 0 0 1 13.893 3M8.911 5.728c-.092.11-.13.18-.136.218q-.054.453 0 .906c.01.175.038.344.055.491l.163-.12c.164-.109.366-.234.595-.354a20 20 0 0 1 1.62-.759a50 50 0 0 1 3.274-1.217q-.25-.706-.545-1.396l-.087-.164a10.8 10.8 0 0 0-3.242 1.195a10 10 0 0 0-1.31.84a3 3 0 0 0-.381.355z"/><path fill="#94181a" d="M14.679 4.992c.845-.022 2.619.131 3 .928c0 .365-1.014.955-4.102 1.02c-2.745.06-4.027.23-4.611.491c1.053-.556 4.327-2.1 5.713-2.439"/><path fill="#000" fill-rule="evenodd" d="M14.701 5.15c-.677.169-1.823.632-2.941 1.124c-.54.24-1.064.485-1.528.703l.213-.027a37 37 0 0 1 3.126-.164a12 12 0 0 0 3.165-.398a2.2 2.2 0 0 0 .644-.29a.4.4 0 0 0 .137-.152a1.04 1.04 0 0 0-.42-.37a3.3 3.3 0 0 0-.776-.274a7.3 7.3 0 0 0-1.62-.152M9.037 7.572a5.3 5.3 0 0 1 1.44-.305c.732-.082 1.736-.137 3.105-.164c1.55-.038 2.592-.202 3.252-.41c.328-.108.568-.218.732-.343c.158-.115.272-.262.272-.431a.2.2 0 0 0-.016-.066c-.114-.24-.327-.42-.578-.556a3.2 3.2 0 0 0-.857-.3a7.4 7.4 0 0 0-1.746-.159c-.71.175-1.883.65-3.007 1.146q-1.495.66-2.946 1.414a.164.164 0 0 0-.044.218c.044.07.137.093.213.054z" clip-rule="evenodd"/><path fill="#000" d="M14.87 8.293c-1.048-1.08-2.374-.639-3.029-.366a.112.112 0 1 1-.087-.207c.655-.273 2.117-.78 3.274.41a.11.11 0 0 1 0 .163a.11.11 0 0 1-.122.025a.1.1 0 0 1-.037-.025"/><path fill="#000" d="M12.764 8.156a3.4 3.4 0 0 0-.627.371a.1.1 0 0 1-.084.024a.1.1 0 0 1-.075-.045a.1.1 0 0 1-.026-.087a.11.11 0 0 1 .048-.077c.136-.104.382-.262.677-.393a2.38 2.38 0 0 1 2.319.125a.11.11 0 0 1 .021.159a.11.11 0 0 1-.114.04a.1.1 0 0 1-.038-.018a2.17 2.17 0 0 0-2.096-.099zm2.472.792c.054.032.07.103.038.158a1.88 1.88 0 0 1-1.626.917a4 4 0 0 1-1.119-.186a.114.114 0 0 1-.016-.211a.12.12 0 0 1 .087-.007c.175.054.628.174 1.042.174c.513 0 1.103-.234 1.441-.802a.11.11 0 0 1 .153-.043"/><path fill="#fff" d="M14.433 7.982c-.578 0-1.62.818-2.073 1.222c.07.115.475.295.971.295c1.643 0 1.866-.404 1.866-.791c0-.382-.382-.726-.764-.726"/><path fill="#000" d="M12.534 9.204a1.9 1.9 0 0 0 .797.18c.818 0 1.255-.099 1.495-.235a.5.5 0 0 0 .213-.207a.5.5 0 0 0 .048-.235a.6.6 0 0 0-.201-.426a.68.68 0 0 0-.453-.185q-.18.001-.459.125c-.18.077-.37.191-.562.317a8 8 0 0 0-.878.666m1.348-1.19c.19-.087.382-.147.55-.147a.88.88 0 0 1 .601.25c.164.148.278.36.278.59a.8.8 0 0 1-.07.338a.74.74 0 0 1-.306.3c-.29.164-.78.273-1.604.273a2.1 2.1 0 0 1-.917-.218a.4.4 0 0 1-.153-.136a.11.11 0 0 1 .022-.142a9 9 0 0 1 1.004-.775c.196-.131.404-.246.6-.333zm3.137-.802c-.19-.273-.524-.404-1.042-.36c-.197.016-.464.109-.726.229a5 5 0 0 0-.65.344a.11.11 0 0 1-.152-.038a.11.11 0 0 1 .038-.159c.148-.092.399-.234.672-.354c.25-.125.52-.21.796-.251c.562-.044.993.092 1.255.458a.11.11 0 0 1 0 .128a.1.1 0 0 1-.033.03a.1.1 0 0 1-.082.018a.1.1 0 0 1-.07-.045z"/><path fill="#000" d="M16.436 6.76a.1.1 0 0 1-.016.084a.1.1 0 0 1-.072.047a3.43 3.43 0 0 0-1.647 1.053a.11.11 0 0 1-.08.043a.11.11 0 0 1-.084-.032a.11.11 0 0 1-.034-.12a.1.1 0 0 1 .023-.038a3.66 3.66 0 0 1 1.773-1.124a.11.11 0 0 1 .137.087m.622 2.21c.054.027.07.098.044.153c-.17.327-.508.535-.84.655a3 3 0 0 1-.901.196a.1.1 0 0 1-.08-.029a.1.1 0 0 1-.037-.077a.1.1 0 0 1 .029-.081a.1.1 0 0 1 .077-.037c.202-.01.524-.06.835-.18a1.32 1.32 0 0 0 .72-.55a.11.11 0 0 1 .153-.05"/><path fill="#000" d="M17.309 8.73a.1.1 0 0 1 .004.085a.1.1 0 0 1-.059.062c-.393.191-.824.246-1.2.24a3.4 3.4 0 0 1-.911-.142a.11.11 0 0 1-.08-.1a.115.115 0 0 1 .15-.118c.17.055.486.126.841.131c.36.011.753-.044 1.102-.218a.11.11 0 0 1 .127.017q.017.015.026.037z"/><path fill="#fff" d="M16.779 7.01a3.24 3.24 0 0 0-1.762 1.223c.6.523 1.751.37 2.253.223c.088-.043.251-.223.251-.59c0-.452-.496-.79-.742-.856"/><path fill="#000" d="M16.752 6.896a.1.1 0 0 1 .054 0c.148.043.35.158.513.316c.164.164.311.387.311.655c0 .398-.18.622-.305.693a1.92 1.92 0 0 1-2.38-.24a.11.11 0 0 1-.016-.153a3.6 3.6 0 0 1 .666-.693c.317-.246.71-.48 1.157-.578M15.175 8.21c.262.19.633.261 1.01.272a4 4 0 0 0 1.042-.13c.054-.033.18-.175.18-.486c0-.18-.099-.355-.246-.491a1.1 1.1 0 0 0-.387-.251c-.393.092-.748.3-1.037.529a4 4 0 0 0-.562.557m-1.266 1.893c-.42.164-.939.147-1.664-.142a.114.114 0 0 0-.148.066a.114.114 0 0 0 .066.147c.758.294 1.331.333 1.828.142c.49-.191.878-.6 1.277-1.135a.1.1 0 0 0 .023-.084a.1.1 0 0 0-.045-.074a.11.11 0 0 0-.164.021c-.387.53-.742.895-1.173 1.059"/><path fill="#000" fill-rule="evenodd" d="M14.16 9.455c.34 0 .612-.235.612-.518c0-.29-.273-.524-.611-.524c-.333 0-.606.234-.606.524c0 .283.273.518.606.518m-.245-.273a.13.13 0 0 0 .137-.136a.136.136 0 0 0-.273 0c0 .076.06.136.136.136m.224-.36c0 .05-.038.087-.087.087a.093.093 0 0 1-.093-.087a.1.1 0 0 1 .017-.08a.1.1 0 0 1 .073-.035a.092.092 0 0 1 .09.115m.049.317c.05 0 .087-.044.087-.093a.1.1 0 0 0-.017-.08a.092.092 0 0 0-.146 0a.1.1 0 0 0-.017.08a.09.09 0 0 0 .093.093m2.363-.633c.338 0 .61-.235.61-.524s-.272-.519-.61-.519c-.333 0-.606.23-.606.519s.273.524.606.524m-.246-.273a.14.14 0 0 0 .137-.137a.136.136 0 1 0-.137.137m.273-.41a.09.09 0 0 1-.093.093a.093.093 0 0 1 0-.18c.05 0 .088.038.088.088zm.044.317a.09.09 0 0 0 .07-.09a.09.09 0 0 0-.07-.09a.09.09 0 0 0-.093.093c0 .049.038.087.093.087" clip-rule="evenodd"/><path fill="#a24a43" d="M17.429 10.093c.884 0 1.059.311 1.037.47c0 .218-.18.365-.273.409c.125.076.365.284.365.524c0 .927-1.915.589-2.973.589c-1.059 0-2.527.906-2.838.906c-.316 0-.79-.164-.79-.617c0-1.402 4.37-2.286 5.472-2.286z"/><path fill="#000" d="M14.232 10.557a13 13 0 0 1 3.197-.627c.458 0 .758.082.944.207c.185.12.273.29.25.436a.58.58 0 0 1-.168.399l.087.098c.087.11.175.251.175.426a.66.66 0 0 1-.404.622c-.23.114-.53.163-.84.174a10 10 0 0 1-1.179-.021a12 12 0 0 0-.71-.028c-.496 0-1.101.213-1.636.437l-.437.19l-.278.12l-.273.11a.6.6 0 0 1-.218.05c-.18 0-.404-.045-.595-.165a.69.69 0 0 1-.35-.61c0-.437.34-.797.77-1.081a7 7 0 0 1 1.665-.737m-1.49 1.004c-.42.273-.628.551-.628.819c0 .158.077.261.197.338c.13.076.294.109.436.109a4 4 0 0 0 .366-.13l.256-.11l.453-.196a4.9 4.9 0 0 1 1.763-.47c.218 0 .469.017.73.033l.186.011c.328.016.66.027.96.01c.3-.01.546-.054.71-.141a.44.44 0 0 0 .17-.136a.34.34 0 0 0-.038-.42a1 1 0 0 0-.192-.17a.16.16 0 0 1-.065-.14a.16.16 0 0 1 .081-.133a.4.4 0 0 0 .115-.103a.25.25 0 0 0 .066-.191s.005-.066-.11-.142c-.109-.076-.343-.153-.764-.153c-.534 0-1.888.218-3.11.611c-.605.197-1.173.437-1.582.704"/><path fill="#000" d="M18.176 11.2c-2.608 0-4.501.732-5.107 1.092a.16.16 0 0 1-.218-.06a.164.164 0 0 1 .06-.218c.654-.382 2.608-1.13 5.265-1.13a.158.158 0 1 1 0 .317"/></g></svg>