<svg version="1.1" viewBox="0 0 160 160" xmlns="http://www.w3.org/2000/svg">
 <path d="m33.789 5.0352c-26.802-0.68719-29.894 8.9328-28.52 30.924 1.7181 21.991 7.9022 56.009 21.99 77.656 14.088 21.647 35.392 31.268 58.07 23.365 22.678-7.9037 46.73-32.987 60.131-53.947 13.057-20.96 15.12-38.14-9.2754-52.229-24.397-14.088-75.595-25.082-102.4-25.77z" fill="#0064fa" stroke-width="1.2026"/>
 <path d="m30 25-5 15h60c10 0 15 10 15 15s-5 15-15 15h-20v-20h-15l-0.11458 38.786v26.214h15.115v-30h20c15 0 30-10 30-30 0-15-15-30-30.682-30z" fill="#fff" stroke-width="1.2"/>
</svg>
