<svg xmlns="http://www.w3.org/2000/svg" viewBox="0 0 24 24"><g fill="none"><path fill="#4d4d4d" d="m16.67 9.295l.83 3.625l1.285-2.625l-.784-3.225zm-11.424 4.32l.755 3.8L7.266 14.5L6.5 11.07l-1.255 2.55zM9 18.43l.88-.075l.62-2.71V8.07L9 11.395zm4.5-2l.88-.65l.62-2.7V5.57l-1.5 3.25z"/><path fill="url(#SVGctr2vdST)" d="M9 18.43c1.15.285 2.34-.34 2.65-1.4L15 5.57c-1.15-.285-2.34.34-2.65 1.4zm-.615-2.39A1.95 1.95 0 0 1 6 17.43l2.115-7.97A1.95 1.95 0 0 1 10.5 8.07zm7.5-1a1.947 1.947 0 0 1-2.385 1.39l2.115-7.97A1.95 1.95 0 0 1 18 7.07zm4.1-3.45c-.285 1.015-1.4 1.615-2.485 1.345l1.01-3.525c.29-1.015 1.405-1.615 2.49-1.345l-1.01 3.525zM3 15.935c1.085.27 2.2-.33 2.49-1.345l1.01-3.525c-1.085-.27-2.2.33-2.49 1.345z"/><defs><linearGradient id="SVGctr2vdST" x1="2.99" x2="21" y1="8.19" y2="8.19" gradientUnits="userSpaceOnUse"><stop stop-color="#f8a8fd"/><stop offset="1" stop-color="#00e2b0"/></linearGradient></defs></g></svg>