<svg xmlns="http://www.w3.org/2000/svg" viewBox="0 0 24 24"><g fill="none"><path fill="#10a203" d="M10.907 8.438c-.938 1.144-4.337 3.87-5.92 5.089c-.937.676-2.438 2.617-.949 4.97s4.034 2.041 5.12 1.592c3.594-2.784 10.855-9.213 11.138-12.658c.352-4.306-3.387-4.127-4.398-3.965s-3.82 3.542-4.991 4.972"/><path fill="#127812" fill-rule="evenodd" d="M19.97 5.112c-1.161 1.724-3.041 4.404-4.788 6.557c-2.742 3.378-7.323 6.775-9.779 5.859c-1.04-.389-1.619-1.06-1.92-1.72c-.169.78-.071 1.698.556 2.689c1.489 2.352 4.033 2.041 5.119 1.592c3.595-2.784 10.855-9.213 11.138-12.658c.081-.993-.055-1.747-.325-2.319" clip-rule="evenodd"/><path fill="#000" fill-rule="evenodd" d="M17.444 4.222c-.618-.044-1.24.12-1.682.448c-1.051.78-2.374 2.18-4.514 4.446l-.25.263c-1.019 1.078-2.155 1.908-3.182 2.658q-.241.176-.473.348c-1.167.86-2.123 1.642-2.729 2.66c-.445.748-.49 1.536-.327 2.233c.166.713.54 1.291.87 1.583c.891.79 1.741.988 2.522.908c.81-.083 1.602-.472 2.326-.958c.354-.236.974-.772 1.758-1.518q1.33-1.275 2.59-2.614c1.834-1.943 3.66-4.057 4.519-5.362c.84-1.276.991-2.146.907-2.765c-.087-.634-.432-1.132-.869-1.662c-.314-.382-.847-.625-1.466-.668m.082-1.212c.853.059 1.73.402 2.306 1.102c.454.552 1 1.277 1.136 2.274c.137 1.01-.157 2.177-1.097 3.606c-.923 1.4-2.813 3.581-4.65 5.526a73 73 0 0 1-2.636 2.66c-.782.744-1.47 1.346-1.918 1.647c-.794.531-1.776 1.04-2.867 1.152c-1.12.116-2.298-.195-3.433-1.201c-.534-.474-1.03-1.283-1.248-2.218c-.222-.952-.167-2.075.468-3.14c.743-1.25 1.886-2.157 3.048-3.015q.243-.18.49-.359c1.03-.753 2.07-1.513 3.006-2.505l.335-.354c2.057-2.177 3.448-3.65 4.587-4.494c.704-.524 1.618-.74 2.473-.681" clip-rule="evenodd"/><path fill="#29b31c" fill-rule="evenodd" d="M16.61 5.803a.28.28 0 0 0-.114-.548a.91.91 0 0 0-.619.495c-.09.18-.141.377-.149.578a.28.28 0 0 0 .27.287a.28.28 0 0 0 .284-.273a.8.8 0 0 1 .085-.333c.058-.111.135-.183.243-.206m.303 1.809a.28.28 0 0 1-.213.332c-.108.023-.186.095-.243.206a.8.8 0 0 0-.086.333a.28.28 0 0 1-.284.273a.28.28 0 0 1-.269-.288a1.4 1.4 0 0 1 .149-.578a.91.91 0 0 1 .618-.494a.277.277 0 0 1 .328.216m-2.931.842a.28.28 0 0 0-.115-.548a.91.91 0 0 0-.619.494c-.09.18-.14.377-.148.578a.28.28 0 0 0 .163.263a.28.28 0 0 0 .213.005a.28.28 0 0 0 .177-.253a.8.8 0 0 1 .086-.333c.057-.111.135-.183.243-.206m-2.145 2.154a.28.28 0 0 0-.11-.55a1.06 1.06 0 0 0-.724.56c-.11.207-.17.436-.18.67a.28.28 0 0 0 .27.288a.28.28 0 0 0 .198-.077a.28.28 0 0 0 .085-.195a1 1 0 0 1 .113-.418a.5.5 0 0 1 .348-.278M9.03 12.882a.28.28 0 0 0 .09-.498a.28.28 0 0 0-.2-.05a1.06 1.06 0 0 0-.724.56c-.109.206-.17.435-.18.67a.28.28 0 0 0 .27.287a.28.28 0 0 0 .283-.273a1 1 0 0 1 .113-.417a.5.5 0 0 1 .348-.279m-.354 2.004a.28.28 0 0 1-.216.33a.5.5 0 0 0-.349.278q-.101.197-.112.418a.278.278 0 0 1-.39.248a.28.28 0 0 1-.163-.264c.004-.173.051-.432.18-.67c.131-.244.36-.484.724-.56a.275.275 0 0 1 .285.12q.03.045.041.1m-2.226.124a.28.28 0 0 1-.216.33a.5.5 0 0 0-.349.28a1 1 0 0 0-.112.417a.277.277 0 1 1-.553-.016c.004-.174.051-.432.18-.67c.13-.244.36-.484.723-.56a.275.275 0 0 1 .286.119q.03.045.041.1m5.1-2.309a.28.28 0 0 1-.215.33a.51.51 0 0 0-.349.279a1 1 0 0 0-.112.417a.28.28 0 0 1-.284.272a.28.28 0 0 1-.27-.288a1.6 1.6 0 0 1 .18-.67c.132-.243.36-.483.725-.558a.28.28 0 0 1 .285.118q.03.046.04.1m2.372-2.03a.28.28 0 0 1-.213.331c-.108.023-.186.095-.244.206a.8.8 0 0 0-.085.333a.278.278 0 0 1-.39.248a.28.28 0 0 1-.146-.155a.3.3 0 0 1-.018-.108c.005-.149.043-.372.15-.577a.9.9 0 0 1 .618-.495a.28.28 0 0 1 .286.116q.03.046.042.1" clip-rule="evenodd"/><path fill="#1f8424" fill-rule="evenodd" d="M17.385 9.548a.28.28 0 0 1 .234-.317c.11-.016.192-.082.256-.19a.8.8 0 0 0 .107-.327a.277.277 0 0 1 .3-.253c.153.014.265.15.251.304a1.4 1.4 0 0 1-.185.567a.9.9 0 0 1-.649.453a.28.28 0 0 1-.206-.053a.27.27 0 0 1-.108-.184m-1.544 2.301a.28.28 0 0 1 .234-.318c.11-.015.192-.082.256-.19a.8.8 0 0 0 .107-.326a.276.276 0 1 1 .55.051a1.4 1.4 0 0 1-.184.567a.91.91 0 0 1-.65.453a.28.28 0 0 1-.205-.053a.28.28 0 0 1-.108-.184m-2.347 2.544a.28.28 0 0 1 .234-.319c.11-.015.191-.082.256-.189a.8.8 0 0 0 .107-.326a.28.28 0 0 1 .192-.242a.276.276 0 0 1 .358.293a1.4 1.4 0 0 1-.184.566a.91.91 0 0 1-.65.454a.277.277 0 0 1-.313-.237m-2.997 2.986a.28.28 0 0 1 .234-.318c.11-.016.191-.082.256-.19a.8.8 0 0 0 .107-.326a.28.28 0 0 1 .3-.253c.153.013.264.15.25.304a1.4 1.4 0 0 1-.184.567a.91.91 0 0 1-.65.453a.276.276 0 0 1-.313-.237m-2.924 1.435a.28.28 0 0 1 .234-.318c.11-.016.192-.082.256-.19a.8.8 0 0 0 .107-.326a.28.28 0 0 1 .3-.254a.28.28 0 0 1 .25.304a1.4 1.4 0 0 1-.184.567a.9.9 0 0 1-.65.453a.28.28 0 0 1-.313-.236" clip-rule="evenodd"/></g></svg>