<svg xmlns="http://www.w3.org/2000/svg" viewBox="0 0 24 24"><g fill="none"><path fill="#ffdfe1" d="M19.984 13.74c.193.532.36 1.36.42 1.707l.198-.03a12 12 0 0 0-.429-1.741z"/><path fill="#f7c590" d="M9.578 16.011c-.64-.064-3.662-.085-5.133-.085l.125-3.088l3.215-2.572l2.5 4.249c.125.163.335.596.172 1.02c-.155.43-.652.498-.88.476"/><path fill="#ec7287" d="M3.048 15.457c.034.613.549.776.806.78h.017a.684.684 0 0 0 .665-.531c.171-.802.501-1.973.93-2.689c.485-.823 1.56-1.912 2.183-2.487a.74.74 0 0 0 .21-.407a.63.63 0 0 0-.077-.395l-.022-.043a.75.75 0 0 0-.3-.3l-.03-.008a.69.69 0 0 0-.613-.013c-.828.433-1.844 1.543-2.388 2.345c-.558.828-1.415 2.976-1.373 3.748z"/><path fill="#ec7287" d="M6.331 15.476a.924.924 0 0 0 .935-.913a.924.924 0 0 0-.935-.914a.924.924 0 0 0-.934.914c0 .504.418.913.934.913"/><path fill="#ea7389" d="M7.738 11.27a.8.8 0 0 1 .498-.21l.797 1.36a.64.64 0 0 1-.283.236c-.206.098-.75.206-1.102-.236a.83.83 0 0 1 .086-1.153z"/><path fill="#ffdfe1" d="M4.017 13.74a11.6 11.6 0 0 0-.42 1.707l-.198-.03c.056-.352.223-1.192.43-1.741z"/><path fill="#a24138" fill-rule="evenodd" d="M6.962 9.362a.63.63 0 0 1 .442.056l.025.013q.18.098.283.279l.022.042a.6.6 0 0 1 .021.532l-.017.009l.009.008a.8.8 0 0 1-.142.189c-.617.575-1.698 1.672-2.187 2.5c-.433.729-.763 1.903-.939 2.701a.63.63 0 0 1-.613.498H3.85a.8.8 0 0 1-.45-.155a.73.73 0 0 1-.3-.583a2.8 2.8 0 0 1 .115-.78c.086-.318.206-.686.343-1.05q.359-.99.91-1.888c.27-.394.655-.87 1.08-1.303c.429-.429.883-.81 1.286-1.02a.5.5 0 0 1 .129-.048m.845 1.042a1 1 0 0 1-.129.155c-.622.578-1.694 1.668-2.174 2.482c-.424.712-.746 1.874-.926 2.672a.7.7 0 0 1-.056.163c1.5 0 4.43.025 5.06.085c.107.013.283 0 .446-.064a.66.66 0 0 0 .386-.377a.96.96 0 0 0 .017-.58a1.2 1.2 0 0 0-.189-.394l-1.188-2.015a.8.8 0 0 1-.244.171c-.17.071-.353.1-.536.086a.92.92 0 0 1-.66-.334a.863.863 0 0 1 .098-1.222a.96.96 0 0 1 .455-.215zm-3.345 5.574a.73.73 0 0 1-.6.31h-.009a.9.9 0 0 1-.514-.172a.85.85 0 0 1-.339-.66q.003-.412.12-.807c.086-.326.206-.694.343-1.063c.242-.664.55-1.302.922-1.904c.274-.403.665-.883 1.093-1.32c.43-.43.892-.824 1.312-1.043a.73.73 0 0 1 .66.009l.03.017a.8.8 0 0 1 .327.317l.021.043a.7.7 0 0 1 .034.592l2.47 4.194c.064.085.15.24.202.428c.047.185.064.412-.022.635a.74.74 0 0 1-.442.433a1.2 1.2 0 0 1-.493.077c-.63-.064-3.627-.086-5.11-.086zm4.54-3.541l-.78-1.325a.8.8 0 0 0-.445.193a.77.77 0 0 0-.086 1.085a.82.82 0 0 0 .592.3c.201.017.385-.035.484-.078a.9.9 0 0 0 .236-.171zM7.16 14.563a.823.823 0 0 1-.827.815a.82.82 0 0 1-.832-.815c0-.45.373-.814.832-.814s.831.364.831.814zm.107 0c0 .502-.42.914-.934.914a.927.927 0 0 1-.935-.914c0-.506.42-.913.935-.913c.514 0 .934.407.934.913" clip-rule="evenodd"/><path fill="#ec7287" d="M9.093 15.779a.59.59 0 0 0 .596-.584a.59.59 0 0 0-.596-.583a.59.59 0 0 0-.596.583a.59.59 0 0 0 .596.583"/><path fill="#a24138" fill-rule="evenodd" d="M9.093 15.68a.49.49 0 0 0 .497-.485a.49.49 0 0 0-.497-.484a.486.486 0 0 0-.493.484a.49.49 0 0 0 .493.485m0 .098c.33 0 .6-.261.6-.583a.593.593 0 0 0-.6-.583a.59.59 0 0 0-.6.583c0 .322.27.583.6.583" clip-rule="evenodd"/><path fill="#f7c590" d="M14.423 16.011c.639-.064 3.662-.085 5.132-.085l-.124-3.088l-3.216-2.572l-2.5 4.249c-.124.163-.334.596-.171 1.02c.154.43.652.498.879.476"/><path fill="#ec7287" d="M20.954 15.457c-.034.613-.549.776-.802.78h-.017a.686.686 0 0 1-.665-.531c-.171-.802-.501-1.973-.93-2.689c-.485-.823-1.56-1.912-2.182-2.487a.67.67 0 0 1-.21-.407a.63.63 0 0 1 .077-.395l.021-.043a.75.75 0 0 1 .3-.3l.03-.008a.69.69 0 0 1 .613-.013c.828.433 1.844 1.543 2.389 2.345c.557.828 1.415 2.976 1.372 3.748z"/><path fill="#ec7287" d="M17.669 15.476a.924.924 0 0 1-.935-.913c0-.505.419-.914.935-.914s.935.41.935.914a.924.924 0 0 1-.935.913"/><path fill="#ea7389" d="M16.262 11.27a.8.8 0 0 0-.497-.21l-.798 1.36a.64.64 0 0 0 .284.236c.205.098.75.206 1.101-.236a.83.83 0 0 0-.085-1.153z"/><path fill="#a24138" fill-rule="evenodd" d="M17.038 9.362a.63.63 0 0 0-.441.056l-.026.013a.7.7 0 0 0-.283.279l-.021.042a.6.6 0 0 0-.022.532l.017.009l-.009.008a.8.8 0 0 0 .142.189c.617.575 1.698 1.672 2.187 2.5c.433.729.763 1.903.939 2.701a.63.63 0 0 0 .613.498h.017c.116 0 .3-.043.45-.155c.155-.107.283-.291.3-.583a2.8 2.8 0 0 0-.115-.78a12 12 0 0 0-.343-1.05a10.3 10.3 0 0 0-.91-1.888a9.7 9.7 0 0 0-1.08-1.303c-.429-.429-.883-.81-1.286-1.02a.5.5 0 0 0-.129-.048m-.844 1.042a1 1 0 0 0 .128.155c.622.578 1.694 1.668 2.174 2.482c.425.712.746 1.874.926 2.672q.018.084.056.163c-1.5 0-4.43.025-5.06.085a1 1 0 0 1-.445-.064a.65.65 0 0 1-.387-.377a.94.94 0 0 1-.017-.58c.048-.17.13-.317.19-.394l1.187-2.015c.051.056.133.12.244.171c.116.052.318.103.536.086a.92.92 0 0 0 .66-.334a.863.863 0 0 0-.098-1.222a.94.94 0 0 0-.455-.215zm3.344 5.574a.73.73 0 0 0 .6.31h.009a.9.9 0 0 0 .514-.172a.86.86 0 0 0 .34-.66a3 3 0 0 0-.121-.807a12 12 0 0 0-.343-1.063a10.4 10.4 0 0 0-.922-1.904a10 10 0 0 0-1.093-1.32c-.429-.43-.892-.824-1.312-1.043a.73.73 0 0 0-.66.009l-.03.017a.8.8 0 0 0-.326.317l-.022.043a.7.7 0 0 0-.034.592l-2.466 4.19c-.064.085-.15.24-.201.428c-.047.184-.065.412.021.635c.086.231.262.36.442.433c.184.073.373.085.493.077c.63-.064 3.628-.086 5.111-.086zm-4.54-3.541l.78-1.325a.84.84 0 0 1 .446.193c.235.201.428.669.085 1.085a.82.82 0 0 1-.592.3a1.05 1.05 0 0 1-.484-.078a.7.7 0 0 1-.236-.171zm1.843 2.126c0 .446.369.815.828.815a.826.826 0 0 0 .831-.815a.824.824 0 0 0-.831-.814a.824.824 0 0 0-.832.814zm-.107 0c0 .502.42.914.934.914a.927.927 0 0 0 .935-.914a.924.924 0 0 0-.934-.913a.924.924 0 0 0-.935.913" clip-rule="evenodd"/><path fill="#ec7287" d="M14.907 15.779a.59.59 0 0 1-.597-.584a.59.59 0 0 1 .596-.583a.59.59 0 0 1 .596.583a.59.59 0 0 1-.596.583"/><path fill="#a24138" fill-rule="evenodd" d="M14.907 15.68a.49.49 0 0 1-.497-.485a.49.49 0 0 1 .497-.484c.275 0 .493.214.493.484a.49.49 0 0 1-.493.485m0 .098c-.33 0-.6-.261-.6-.583s.27-.583.6-.583s.6.258.6.583c0 .322-.27.583-.6.583" clip-rule="evenodd"/><path fill="#f7c590" d="M11.151 14.596c-.274-.6-1.84-3.293-2.607-4.6l2.933-1.506l4.065 1.501l-2.633 4.446c-.086.198-.373.61-.857.69c-.472.086-.798-.32-.9-.531"/><path fill="#ec7287" d="M8.253 8.515a.82.82 0 0 0-.309 1.119l.009.013a.73.73 0 0 0 .845.313c.831-.262 2.088-.588 2.98-.583c1.016 0 2.594.386 3.451.63a.76.76 0 0 0 .489-.026a.7.7 0 0 0 .326-.27l.026-.043a.75.75 0 0 0 .116-.429v-.025a.68.68 0 0 0-.313-.553c-.832-.506-2.397-.828-3.43-.888c-1.056-.064-3.5.3-4.19.742"/><path fill="#ec7287" d="M11.289 11.787a.986.986 0 0 1-1.338-.348a.943.943 0 0 1 .356-1.308a.986.986 0 0 1 1.338.352a.944.944 0 0 1-.356 1.303"/><path fill="#ea7389" d="M14.59 10.477a.82.82 0 0 1 .455.339L14.2 12.23a.7.7 0 0 1-.369-.129c-.193-.128-.583-.557-.356-1.098a.913.913 0 0 1 1.115-.527"/><path fill="#ffdfe1" d="M10.346 8.475c-.596.108-1.45.39-1.8.523l-.078-.197c.356-.128 1.226-.42 1.844-.531z"/><path fill="#a24138" fill-rule="evenodd" d="M11.289 11.787a.986.986 0 0 1-1.338-.348a.943.943 0 0 1 .356-1.308a.986.986 0 0 1 1.338.352a.944.944 0 0 1-.356 1.303m-.056-.086a.885.885 0 0 1-1.188-.318a.84.84 0 0 1 .317-1.161a.883.883 0 0 1 1.193.313a.84.84 0 0 1-.322 1.162z" clip-rule="evenodd"/><path fill="#a24138" fill-rule="evenodd" d="M8.51 10.04a.76.76 0 0 1-.605-.364l-.008-.017a.87.87 0 0 1 .326-1.192c.18-.111.471-.219.814-.313c.343-.099.746-.184 1.162-.253c.832-.137 1.716-.214 2.247-.18c.519.03 1.17.129 1.801.279c.626.15 1.23.36 1.655.617l.129.103a.73.73 0 0 1 .206.489v.03a.76.76 0 0 1-.125.459l-.025.043a.75.75 0 0 1-.532.338l-2.598 4.387a1.3 1.3 0 0 1-.288.398a1.14 1.14 0 0 1-.604.318a.8.8 0 0 1-.635-.168a1.15 1.15 0 0 1-.326-.394a116 116 0 0 0-2.594-4.58m7.444-1.243a.63.63 0 0 1 .18.416v.03a.73.73 0 0 1-.112.399l-.025.043a.65.65 0 0 1-.485.296l-.017-.013l-.004.013a.6.6 0 0 1-.245-.026c-.857-.244-2.444-.63-3.473-.63c-.9 0-2.161.321-2.993.583a.674.674 0 0 1-.785-.288l-.004-.012a.77.77 0 0 1 .292-1.05c.245-.137.508-.24.78-.305c.343-.095.742-.18 1.158-.249c.827-.137 1.698-.214 2.22-.18c.515.03 1.159.129 1.78.274c.622.155 1.214.36 1.621.61a.4.4 0 0 1 .112.085zm-.528 1.287a1 1 0 0 1-.214-.026c-.858-.249-2.427-.63-3.435-.63c-.883 0-2.13.317-2.967.578a.6.6 0 0 1-.18.035c.78 1.329 2.298 3.944 2.573 4.536a1 1 0 0 0 .291.356c.146.111.33.184.553.146s.408-.155.545-.288a1.3 1.3 0 0 0 .27-.373l1.248-2.11a.9.9 0 0 1-.287-.128a1.2 1.2 0 0 1-.365-.428a.951.951 0 0 1 1.587-1.021l.386-.643zm-1.26 2.13l.823-1.384a.845.845 0 0 0-1.432.879c.09.184.231.321.326.386a.7.7 0 0 0 .283.12" clip-rule="evenodd"/><path fill="#ec7287" d="M11.97 14.27a.63.63 0 0 1-.853-.224a.6.6 0 0 1 .232-.836a.63.63 0 0 1 .853.223a.607.607 0 0 1-.231.836"/><path fill="#a24138" fill-rule="evenodd" d="M11.211 13.989a.525.525 0 0 0 .707.188a.504.504 0 0 0-.127-.93a.52.52 0 0 0-.542.18a.5.5 0 0 0-.038.562m-.094.055c.171.292.557.39.857.223a.61.61 0 0 0 .227-.836a.638.638 0 0 0-1.04-.068a.6.6 0 0 0-.044.681" clip-rule="evenodd"/></g></svg>