<svg xmlns="http://www.w3.org/2000/svg" viewBox="0 0 24 24"><g fill="none"><path fill="#87dd3a" fill-rule="evenodd" d="M11.837 6.857c-3.771 0-6.956 2.482-8.498 4.243a1.33 1.33 0 0 0-.103 1.642a10.63 10.63 0 0 0 8.601 4.401c4.457 0 7.556-2.674 8.945-4.513a1.085 1.085 0 0 0-.082-1.401c-1.645-1.77-5.006-4.372-8.863-4.372m.022.858c-3.849 0-6.999 2.79-8.002 4.191c.536 1.05 2.134 2.871 4.672 3.797c-1.535-1.38-1.608-3.536-1.44-4.47l.831-.557a5.6 5.6 0 0 0 .193 3.33c.373 1.029 1.448 1.757 2.396 2.186q.642.095 1.35.094c4.478 0 7.384-2.914 8.284-4.371c-.707-.857-2.207-2.233-4.144-3.176c1.187 1.371 1.234 3.253 1.084 4.106l-.831.557a5.6 5.6 0 0 0-.193-3.33c-.356-.982-1.355-1.689-2.272-2.13a8.5 8.5 0 0 0-1.928-.227" clip-rule="evenodd"/><path fill="#0447af" d="M17.332 11a8 8 0 0 1 1.097.944c-.703.99-2.992 2.978-6.515 2.978a8.5 8.5 0 0 1-3.115-.574c.308.411.647.771.943 1.054a9.5 9.5 0 0 0 2.155.24c3.592 0 6.086-1.885 7.213-3.184a.724.724 0 0 0-.06-1.007a12.4 12.4 0 0 0-1.937-1.475c.111.348.18.716.214 1.025zm-2.958-2.27a8.7 8.7 0 0 0-2.477-.374c-3.15 0-5.794 1.882-6.986 3.133a.694.694 0 0 0-.06.9a7.9 7.9 0 0 0 2.212 1.937a19 19 0 0 1-.369-1.212c-.514-.429-.874-.858-1.063-1.179c.79-.956 3.262-2.859 6.288-2.859c1.328 0 2.571.369 3.63.866a5.5 5.5 0 0 0-1.174-1.213"/><path fill="#0447af" d="M12.428 11.142a.4.4 0 0 0 .163-.034c.155.249.249.544.249.887a2.1 2.1 0 0 1-.103.656c-.356.18-.757.25-1.153.201a2.4 2.4 0 0 1-.523-.385a.43.43 0 0 0-.068-.579a2.12 2.12 0 0 1 1.045-.99a.43.43 0 0 0 .39.244m.639.858c0 .258-.043.515-.129.758a.42.42 0 0 1 .129.279c.379-.12.728-.319 1.024-.583a2.15 2.15 0 0 0-.505-1.899a6 6 0 0 0-.733.09a.43.43 0 0 1-.086.326c.184.283.3.626.3 1.029m.3-1.655a5 5 0 0 0-.587.086l-.026.004a.43.43 0 0 0-.566-.077a3.2 3.2 0 0 0-.784-.416a2.14 2.14 0 0 1 1.959.403zm-2.297-.278a2.2 2.2 0 0 0-.579.411c-.073.334-.085.832.12 1.32a.4.4 0 0 1 .18-.004A2.35 2.35 0 0 1 12 10.667a.4.4 0 0 1 .038-.137a3 3 0 0 0-.973-.463zm-.849.737c-.017.33.026.72.193 1.106a.428.428 0 0 0 .086.677a4.6 4.6 0 0 0-.112.822a2.134 2.134 0 0 1-.167-2.605m.386 2.828c.236.198.514.348.823.433a2.9 2.9 0 0 0 .9-.703l-.03-.038a2.2 2.2 0 0 1-.827-.274a2.7 2.7 0 0 1-.588-.442a.4.4 0 0 1-.167.034c-.085.36-.115.716-.111.986zm1.166.498a2.14 2.14 0 0 0 2.198-1.286a2.9 2.9 0 0 1-.955.441a.43.43 0 0 1-.493.197a3.1 3.1 0 0 1-.75.648"/></g></svg>