<svg xmlns="http://www.w3.org/2000/svg" viewBox="0 0 24 24"><path d="M21 12.048q0 .137-.004.274H16.62v-.2h-4.214l.002-.123l-.002-.124h4.214v-.198h4.373q.008.185.008.371m-8.669-.898l4.123-.507l.025.198l4.354-.536a9 9 0 0 0-.147-.632l-4.286.528l.024.198l-4.142.51q.027.12.05.244zm-.215-.798l3.94-.984l.049.193l4.182-1.044a10 10 0 0 0-.278-.596l-4.06 1.014l.05.193l-3.974.993q.048.115.091.233zm-.35-.747l3.685-1.39l.07.186l3.898-1.472a9 9 0 0 0-.4-.54l-3.726 1.407l.07.186l-3.728 1.408q.069.105.132.215m-.483-.69l3.254-1.697l.091.178l3.598-1.876a9 9 0 0 0-.515-.46L14.33 6.822l.09.177l-3.308 1.725q.087.094.17.19zm-.785-.746l2.946-1.874l.107.169l3.251-2.068a9 9 0 0 0-.628-.365l-2.97 1.889l.107.168l-3.031 1.927q.11.075.218.155zm-.696-.436l2.47-2.024l.126.154l2.78-2.282a9 9 0 0 0-.723-.24L11.99 5.363l.127.154l-2.56 2.099q.126.056.247.117m-.921-.358l1.95-1.941l.14.14l2.477-2.462a9 9 0 0 0-.817-.098L10.52 5.117l.14.14l-2.06 2.05q.142.03.283.068m-1.079-.163L9.36 5.327l.153.126L11.536 3a9 9 0 0 0-.91.089L9.013 5.043l.154.126l-1.684 2.042a5 5 0 0 1 .32 0m-.932.056l1.198-1.854l.167.108L9.684 3.28q-.498.129-.97.312L7.694 5.17l.167.109l-1.327 2.054q.166-.039.336-.066zm-1.035.288l.862-1.615l.175.094l1.14-2.137q-.55.268-1.054.605L6.303 5.73l.176.094l-1.014 1.9a5 5 0 0 1 .37-.168zm-.743.38l.367-1.04l.187.066l.712-2.021a9 9 0 0 0-1.014.937l-.306.87l.187.066l-.48 1.361q.169-.127.346-.238zm-.914.744l.162-.756l.194.041l.326-1.522a9 9 0 0 0-.906 1.397l.145.032l-.297 1.251a5 5 0 0 1 .376-.443m-.67.884V8.562C3.264 9.202 3.092 10 3 10.78a4.8 4.8 0 0 1 .507-1.216m-.501 3.68a9 9 0 0 0 .494 1.92v-.74a4.8 4.8 0 0 1-.494-1.18m.826 1.675l.26 1.21l-.145.03q.39.745.906 1.398l-.326-1.522l-.194.041l-.165-.765a5 5 0 0 1-.336-.394zm.903.9l.483 1.368l-.188.066l.306.87q.472.507 1.015.937l-.712-2.02l-.188.066l-.368-1.045a5 5 0 0 1-.346-.24zm.72.452l1.017 1.905l-.176.094l.655 1.228q.506.337 1.055.605l-1.14-2.136l-.177.093l-.864-1.619a5 5 0 0 1-.371-.17zm1.07.393l1.329 2.057l-.167.108l1.02 1.58q.473.181.969.31l-1.448-2.241l-.167.108l-1.2-1.857a5 5 0 0 1-.337-.066zm.95.125l1.683 2.042l-.153.126l1.612 1.954q.448.068.91.089l-2.024-2.455l-.154.127l-1.555-1.885q-.085.003-.171.002l-.15-.002zm1.116-.096l2.059 2.048l-.14.14l2.113 2.103q.416-.03.818-.097l-2.477-2.464l-.14.142l-1.95-1.94a5 5 0 0 1-.283.068m.96-.306l2.556 2.097l-.126.154l2.466 2.023q.369-.105.724-.241l-2.782-2.281l-.127.154l-2.466-2.024q-.12.063-.246.118m.725-.4l3.027 1.926l-.107.168l2.968 1.888q.323-.171.628-.365l-3.25-2.068l-.108.168l-2.942-1.87a5 5 0 0 1-.218.155zm.834-.709l3.305 1.723l-.092.177l3.382 1.762q.267-.22.515-.46l-3.598-1.876l-.091.178l-3.25-1.694q-.082.099-.17.19zm.523-.667l3.723 1.407l-.07.186l3.725 1.407q.21-.263.4-.54l-3.897-1.472l-.07.187l-3.68-1.39a5 5 0 0 1-.131.215m.39-.73l3.966.99l-.048.194L20 16.079q.15-.292.278-.596L16.1 14.44l-.049.193l-3.935-.983q-.044.117-.091.232m.258-.787l4.136.508l-.025.198l4.286.528q.085-.313.148-.632l-4.354-.536l-.025.198l-4.117-.507a5 5 0 0 1-.05.244z"/></svg>