<svg xmlns="http://www.w3.org/2000/svg" viewBox="0 0 24 24"><g fill="none"><path fill="url(#SVGayIbCeCK)" d="M21 12.003a9 9 0 1 1-2.728-6.458l-1.21 1.187a7.313 7.313 0 1 0 2.082 3.746l-4.275 4.22l-.225.213v.011A3.938 3.938 0 1 1 14.66 9.1l-1.21 1.187a2.251 2.251 0 1 0 .023 3.414l.197-.196l.095-.113l2.104-2.081v.022l2.66-2.615v-.006l1.25-1.237A8.96 8.96 0 0 1 21 12.003"/><defs><linearGradient id="SVGayIbCeCK" x1="12" x2="12" y1="3.003" y2="21.003" gradientUnits="userSpaceOnUse"><stop stop-color="#0440a8"/><stop offset=".59" stop-color="#00b4b0"/><stop offset="1" stop-color="#02bfa1"/></linearGradient></defs></g></svg>