<svg version="1.1" viewBox="0 0 128 128" xmlns="http://www.w3.org/2000/svg">
 <defs>
  <linearGradient id="svg-def-2-ps_plus_light_theme-a" x1="34.999" x2="97.401" y1="36.694" y2="83.757" gradientTransform="scale(1.0034 .99661)" gradientUnits="userSpaceOnUse">
   <stop stop-color="#FFE842" offset=".03"/>
   <stop stop-color="#FDC100" offset="1"/>
  </linearGradient>
  <linearGradient id="svg-def-2-ps_plus_light_theme-b" x1="27.447" x2="86.401" y1="41.704" y2="99.184" gradientTransform="scale(1.0128 .98741)" gradientUnits="userSpaceOnUse">
   <stop stop-color="#C58821" offset="0"/>
   <stop stop-color="#9B6C1B" offset="1"/>
  </linearGradient>
 </defs>
 <g transform="matrix(1.2466 0 0 1.25 -14.971 -16)">
  <path d="m110.68 65.204-3.0242-22.079c-0.10857-0.82417-0.54523-1.5696-1.211-2.0674-0.66867-0.50073-1.507-0.71932-2.335-0.60885l-25.378 3.4791-3.4524-25.224c-0.11386-0.82398-0.55227-1.5683-1.2177-2.0674-0.66597-0.50099-1.5024-0.7197-2.3283-0.60885l-22.26 3.0509c-0.41755 0.05767-0.81982 0.19631-1.1842 0.40813-0.34805 0.207-0.65255 0.47968-0.89654 0.80288-0.2489 0.3195-0.43093 0.68585-0.53525 1.0772-0.11105 0.40277-0.13837 0.82403-0.08029 1.2378l3.4457 25.204-25.378 3.4724c-0.41783 0.05648-0.82033 0.1952-1.1842 0.40813-0.35016 0.20671-0.6569 0.47937-0.90324 0.80288-0.50661 0.65824-0.72831 1.492-0.61554 2.315l3.0309 22.079c0.11004 0.82367 0.54638 1.5686 1.211 2.0674 0.66805 0.50169 1.5077 0.71821 2.335 0.60216l25.378-3.4724 3.4524 25.204c0.11277 0.82632 0.55052 1.5735 1.2162 2.0759s1.5043 0.71848 2.3298 0.60033l22.26-3.0442c0.82678-0.11166 1.5753-0.54729 2.0808-1.211 0.50768-0.66029 0.7294-1.4966 0.61554-2.3217l-3.4457-25.197 25.378-3.4724c0.41798-0.05991 0.82025-0.20081 1.1842-0.41482 0.34675-0.20858 0.65279-0.47835 0.90323-0.79619 0.24175-0.323 0.42102-0.68834 0.52856-1.0772 0.10801-0.39869 0.13543-0.81499 0.0803-1.2244z" fill="url(#svg-def-2-ps_plus_light_theme-a)"/>
  <path d="m93.157 46.37c-3.9635 0.54036-7.211 3.4153-8.228 7.284-1.017 3.8687 0.39689 7.969 3.5822 10.389 3.1853 2.4196 7.5147 2.6819 10.969 0.66453 3.4541-2.0174 5.3527-5.917 4.8102-9.8802-0.35389-2.5983-1.726-4.9494-3.8141-6.5356-2.0881-1.5862-4.7211-2.2774-7.3191-1.9214zm2.228 16.298c-2.6338 0.36567-5.2283-0.89225-6.5725-3.1866-1.3442-2.2943-1.1729-5.1726 0.43391-7.2913 1.6068-2.1187 4.3322-3.06 6.904-2.3846 2.5718 0.67546 4.483 2.8345 4.8413 5.4693 0.48417 3.5874-2.0217 6.8917-5.6068 7.3932zm-34.463-40.92-8.1024 20.306 21.825-2.984zm-2.897 16.252 3.8605-9.7014 6.5635 8.2696zm-30.268 18.219 2.4421 17.831 17.824-2.4421-2.4354-17.831zm5.2789 14.09-1.5455-11.254 11.294-1.5388 1.5388 11.254zm39.575 17.67 7.7344 5.8744-2.0072 2.6428-7.7344-5.8744-5.8677 7.7344-2.6763-2.0072 5.8677-7.7277-7.7277-5.8744 2.0072-2.6763 7.7344 5.8744 5.8744-7.7344 2.6763 2.0072z" fill="#c58821"/>
  <path d="m110.06 67.526-6.0952 7.9819c-0.50697 0.66204-1.2547 1.0972-2.0808 1.211l-18.292 2.509-0.95676-7.0185 25.378-3.4724c0.41797-0.05991 0.82024-0.20081 1.1842-0.41482 0.33437-0.20985 0.627-0.4798 0.86309-0.79619zm-25.531 33.005c-0.36151 0.21292-0.76182 0.35166-1.1776 0.40813l-22.26 3.0442c-0.82557 0.11815-1.6642-0.0979-2.3298-0.60033-0.66568-0.5024-1.1034-1.2496-1.2162-2.0759l-3.4524-25.204-25.364 3.4791c-0.82735 0.11605-1.667-0.10047-2.335-0.60216-0.66462-0.49881-1.101-1.2437-1.211-2.0674l-3.0309-22.079c-0.11277-0.82293 0.10893-1.6567 0.61554-2.315l-6.0818 7.9552c-0.52396 0.65356-0.76486 1.4895-0.66906 2.3217l3.0242 22.079c0.11386 0.82398 0.55227 1.5683 1.2177 2.0674 0.66805 0.50169 1.5077 0.71821 2.335 0.60216l25.378-3.4724 3.5059 25.224c0.10858 0.82417 0.54523 1.5696 1.211 2.0674 0.66866 0.50073 1.507 0.71932 2.335 0.60885l22.26-3.0509c0.82801-0.10807 1.5778-0.54446 2.0808-1.211l6.0952-7.9819c-0.25445 0.32593-0.57043 0.59871-0.93 0.80287zm-37.735-77.926c-0.05808-0.41374-0.03076-0.835 0.08029-1.2378 0.10432-0.39135 0.28635-0.75769 0.53525-1.0772l-6.1219 7.9819c-0.50631 0.65823-0.72581 1.4928-0.60885 2.315l2.4889 18.185 7.0519-0.96345z" fill="url(#svg-def-2-ps_plus_light_theme-b)"/>
 </g>
</svg>
