<svg xmlns="http://www.w3.org/2000/svg" viewBox="0 0 24 24"><g fill="none"><path fill="#d38054" d="m19.159 12.536l-2.031-2.983l-4.758-3.384l-8.341.72c-.391.447-1.06 1.851-.587 3.857c.587 2.51 4.588 2.438 5.76 2.685c.947.2 2.16 1.11 2.649 1.543l-.242 1.465l6.573-.22z"/><path fill="#fff" d="M11.753 8.852c-.257-.299-1.234-.489-1.692-.545c-.514-.088-1.718.174-1.764.966c-.051.798 1.841 1.27 2.551 1.394s1.322-.221 1.322-.493c0-.278-.098-.947-.412-1.322zM3.15 9.947c-.154-.936.324-2.047.586-2.489c.124.062.396.273.515.648c.118.38-.098 1.106-.221 1.42c-.227.53-.72 1.357-.88.421"/><path fill="#000" d="M9.696 10.396a.815.815 0 0 0 .808-.823a.815.815 0 0 0-.808-.823a.815.815 0 0 0-.807.823c0 .454.361.823.807.823"/><path fill="#3b1900" d="M3.417 7.14v.3c.236.374.735.086.956-.104c-.103.124-.278.376-.123.376c.195 0 .663-.55.859-.746c-.32.473-.54.992-.391.992c.118 0 .421-.38.565-.57c-.133.241-.319.72 0 .72c.391 0 1.003-.772 1.152-.947c-.2.448-.318 1.199.02 1.199c.279 0 .556-.684.67-1.024c-.021.412-.01 1.22.164 1.22c.18 0 .37-.346.442-.52c.026.128.119.396.299.396c.175 0 .411-.864.514-1.291c.005.38.098 1.141.39 1.141c.294 0 .546-.992.638-1.49c.026.39.124 1.166.32 1.166c.195 0 .344-.961.39-1.44c.016.479.093 1.44.273 1.44c.175 0 .401-.498.488-.745c.103.36.345 1.07.54 1.07c.247 0 .463-.772.54-.947c.026 1.471.222 1.718.443 1.718c.175 0 .411-.679.514-1.018c-.036.545-.026 1.64.267 1.64s.515-.53.592-.797c.02.39.128 1.167.365 1.167c.236 0 .293-.663.293-.992c.077.33.273.992.468.992c.196 0 .309-.308.345-.468c.066.196.277.597.612.597s.22-.597.123-.9c.206.216.648.648.782.648c.175 0 .2-.175.2-.35c0-.992-3.044-4.772-7.483-4.772c-4.438 0-6.227 2.088-6.227 2.34"/><path fill="#000" d="M5.397 10.705a.17.17 0 0 1 .216.108c.041.113.134.298.283.473c.144.175.34.324.576.386c.36.087.658.133.926.061c.262-.072.53-.267.797-.75a.177.177 0 0 1 .236-.067a.177.177 0 0 1 .067.236c-.298.54-.632.813-1.008.916c-.365.103-.74.025-1.095-.062a1.47 1.47 0 0 1-.761-.489a1.9 1.9 0 0 1-.345-.591a.175.175 0 0 1 .108-.221"/><path fill="#7e661c" d="M11.753 15.322c-.34.437-1.08 1.368-1.296 1.563c.129.54.591 1.749 1.394 2.289c5.554.139 8.347-4.433 9.051-6.737l-1.913-.797c-.051.072-.17.457-.267 1.388c-.669 2.392-3.312 2.89-4.958 2.89c-1.312 0-1.888-.4-2.006-.596z"/><path fill="#d38054" d="M11.85 19.2a4.6 4.6 0 0 0-1.249-2.366c-.386.494-1.183 1.569-1.322 1.97c1.25.344 2.402.396 2.572.396"/><path fill="#000" d="m21 11.887l-.123.55c-.412-.128-1.368-.375-1.836-.375c0 .226-.052 4.032-5.03 4.032c-.957 0-1.569-.052-2.16-.525c-.365.376-1.862 2.016-2.448 3.256l-.494-.15c.813-1.09 2.464-3.353 2.602-3.65c-.102-.176-.858-.947-2.406-1.245a15 15 0 0 0-.808-.119C6.374 13.42 3 12.998 3 9.598c0-1.316.247-1.964.417-2.139c.17-.17 1.008-.52 1.08 1.219c0 .679-.607 1.46-.91 1.769c.092.669.822 2.093 3.044 2.412c.257.026.504.051.746.067c.843.067 1.604.134 2.365.478c.982.448 2.31 1.368 2.31 1.62c0 .196-.067.278-.104.298c.155.155.705.468 1.744.468c1.301 0 4.757-.545 4.953-3.353c0-.298-1.224-2.211-1.837-3.137h.294l1.861 2.19c.412.042 1.389.18 2.037.397M3.807 7.66a4.76 4.76 0 0 0-.411 2.489c.21-.257.494-.623.612-.772c-.082-.04-.247-.22-.247-.596c0-.38.257-.556.391-.597a2.2 2.2 0 0 0-.345-.524"/><path fill="#000" d="M8.42 9.26c.134.452.607.781 1.173 1.003c.565.216 1.183.308 1.522.308c.34 0 .597-.072.756-.17c.165-.102.226-.22.226-.329c0-.36-.108-.771-.411-1.095c-.309-.324-.823-.566-1.672-.566c-.678 0-1.08.154-1.306.34c-.221.18-.288.38-.288.509m.134-.7c.283-.231.746-.4 1.46-.4c.895 0 1.482.256 1.842.642c.36.38.488.864.488 1.27c0 .222-.134.412-.344.54c-.211.129-.515.206-.885.206s-1.013-.092-1.61-.324c-.586-.226-1.162-.602-1.327-1.183v-.03c-.01-.206.093-.494.376-.72"/></g></svg>