<svg fill="none" version="1.1" viewBox="0 0 48 48" xmlns="http://www.w3.org/2000/svg">
 <g transform="matrix(1.2784 0 0 1.2784 2.0002 4.55)" clip-rule="evenodd" fill-rule="evenodd">
  <path d="m9.4546 29.727c-0.22474-0.0464-0.38813-0.2493-0.37779-0.4902l0.89277-21.283-5.2635-2.052c-0.25576-0.09969-0.42122 0.03946-0.36606 0.31015l4.6162 23.034c0.05446 0.2693 0.32263 0.4909 0.5977 0.4909-0.03516-0.0014-0.06825-0.0042-0.09927-0.0104z" fill="#ffa52e"/>
  <path d="m10.652 2.5103c-0.2441-0.12461-0.4543-0.00138-0.4661 0.27347l-1.1092 26.452c-0.01034 0.2416 0.15304 0.4444 0.37779 0.4908-0.21303-0.0457-0.33091-0.2409-0.26749-0.4728l6.6168-24.132z" fill="#87cc25"/>
  <path d="m8.9564 29.246-3.4125-17.022-5.2339-1.4864c-0.26473-0.0747-0.3833 0.0658-0.26335 0.3137l8.7905 18.235c0.11995 0.2472 0.4419 0.4501 0.71697 0.4501-0.27507 0-0.54324-0.2209-0.59771-0.4902z" fill="#f46060"/>
  <path d="m9.0765 29.236 0.6632-15.821-4.1956-1.1914 3.4125 17.022c0.05377 0.2686 0.32194 0.4902 0.59701 0.4902-0.03447-7e-4 -0.06756-0.0035-0.09927-0.0104-0.22474-0.0464-0.38813-0.2492-0.37779-0.4902z" fill="#f98526"/>
  <path d="m14.539 9.7352-4.57-1.7813-0.89277 21.282c-0.01034 0.2416 0.15305 0.4445 0.37848 0.4908-0.21371-0.0457-0.3316-0.2409-0.26749-0.4728z" fill="#74b502"/>
  <path d="m34.127 10.37-16.624-9.6175c-0.2372-0.13777-0.4915-0.033231-0.5646 0.23331l-7.7509 28.268c-0.06411 0.2326 0.05377 0.4278 0.26679 0.4728 0.03172 7e-3 0.06481 0.0097 0.09928 0.0104l17.436-0.0214c0.0351 0 0.0634 7e-4 0 0 0.273 0 0.5763-0.2119 0.6721-0.4687l6.7244-18.157c0.0951-0.2575-0.0207-0.5808-0.2586-0.7193z" fill="#1c7ef9"/>
  <path d="m15.724 17.312c-0.062-0.0166-0.1289 0.0291-0.1482 0.1018l-0.253 0.918c-0.0193 0.072 0.0145 0.1426 0.0758 0.1585l12.949 3.2698c0.0366 0.0104 0.0841-0.0263 0.1048-0.081l0.2634-0.6965c0.0206-0.0553 0.0069-0.1086-0.0304-0.119zm0.9693-3.5183c-0.0613-0.0207-0.1289 0.0243-0.1503 0.1011l-0.2654 0.9651c-0.0207 0.0754 0.0131 0.1523 0.0752 0.1717l12.985 4.1054c0.0372 0.011 0.0848-0.0243 0.1062-0.0817l0.2737-0.7235c0.022-0.0575 0.0096-0.1149-0.0276-0.1274zm1.021-3.6976c-0.0634-0.0256-0.1317 0.0187-0.1544 0.099l-0.2785 1.0149c-0.0214 0.0796 0.011 0.1634 0.0737 0.1876l13.012 5.0124c0.0372 0.0138 0.0861-0.0215 0.1082-0.081l0.2847-0.7526c0.0228-0.0595 0.0104-0.1204-0.0269-0.1357zm14.105 2.4688-13.032-6.3623c-0.0627-0.03046-0.1331 0.01315-0.1565 0.09831l-0.2937 1.0689c-0.0234 0.08308 0.0097 0.17446 0.0724 0.20354l13.028 6.0003c0.0372 0.0173 0.0855-0.0187 0.1089-0.0803l0.2964-0.783c0.0235-0.0623 0.0125-0.1274-0.0241-0.1454z" fill="#fff"/>
 </g>
</svg>
