<svg clip-rule="evenodd" fill-rule="evenodd" stroke-linejoin="round" stroke-miterlimit="1.4142" version="1.1" viewBox="0 0 128 128" xml:space="preserve" xmlns="http://www.w3.org/2000/svg" xmlns:xlink="http://www.w3.org/1999/xlink">
    
    <g transform="matrix(.11719 0 0 .11409 5 5.8307)">
        
        <g transform="matrix(18.602 0 0 18.602 -782.33 -515.22)">
            <path d="m96.179 33.584c-0.03463 0.0014-0.07104 0.0054-0.10751 0.01196h-0.0018c-0.0033 1e-3 -0.13904 0.04636-0.1774 0.05889 0.02129-0.0095 0.05121-0.02398 0.05107-0.02392l-0.0081 0.0018-3.9143 1.4457c-0.62786-0.12246-1.7609-0.33566-3.0489-0.24018-1.0149 0.07549-2.1005 0.60945-3.1815 1.1816-1.0021 0.53042-1.8765 1.0808-2.4352 1.4392-0.91796-0.09425-1.8026 0.05212-2.4808 0.58618-0.56732 0.4469-0.87983 1.0247-1.0545 1.5276-0.04125 0.10339-0.05063 0.20088-0.07795 0.30275-0.72534 0.31168-1.8682 0.80756-3.409 1.5423-1.5253 0.72768-4.2732 1.0901-7.2105 1.4401-3.8725 0.46-8.2985 0.96866-12.072 2.7846-3.7734 1.8159-6.8675 5.0435-7.8126 10.6-0.48171 2.8281 0.30502 5.5857 1.2695 7.9452-0.03962-8.21e-4 -0.07194-0.01564-0.11199-0.01564-1.4184 0-2.5548 0.53214-3.4099 1.2515s-1.4624 1.604-2.0015 2.3751h0.0018c-0.88019 1.2563-1.5161 2.1083-2.488 2.2914-0.71072 0.13387-1.2346 0.76525-1.2346 1.488 0 0.91859 0.84646 1.6609 1.7695 1.4944 2.2645-0.40733 3.4856-2.1829 4.4358-3.5392 0.5017-0.71578 0.94589-1.3335 1.3977-1.7309 0.45177-0.39747 0.86682-0.59906 1.5294-0.59906 0.59081 0 0.98061 0.16427 1.3851 0.47852 0.4045 0.31424 0.80059 0.80329 1.2265 1.3987 0.29251 0.43491 0.49371 0.70655 0.54652 0.77667 1e-3 0.0014 0.0089 0.01444 0.0099 0.01564 0.0091 0.0088 0.01831 0.0174 0.02777 0.02577 0.51664 0.72931 1.1023 1.5203 1.9155 2.1542 0.82884 0.64606 1.9096 1.107 3.2307 1.107 1.4184 0 2.5548-0.53214 3.4099-1.2515s1.4633-1.604 2.0024-2.3751h-0.0018c0.50149-0.71549 0.94762-1.3334 1.4003-1.7309s0.86856-0.59906 1.5329-0.59906c0.66194 0 1.0773 0.20156 1.5294 0.59906s0.89577 1.0154 1.3968 1.7309h0.0018c0.54042 0.77089 1.1477 1.6559 2.0033 2.3751s1.9924 1.2515 3.4108 1.2515 2.5553-0.53208 3.4099-1.2515c0.8398-0.70696 1.4337-1.5723 1.9657-2.3337-0.01096 0.01263-0.02231 0.0249-0.03405 0.03681l0.03673-0.04141c-9.26e-4 0.0013-0.0018 0.0033-0.0027 0.0046 0.01681-0.01946 0.03265-0.03973 0.04748-0.06073 0.49801-0.7108 0.94294-1.3234 1.3932-1.7171s0.86361-0.59354 1.5249-0.59354c0.66194 0 1.0773 0.20156 1.5294 0.59906 0.45202 0.39751 0.89577 1.0154 1.3968 1.7309h0.0018c0.95085 1.3558 2.1712 3.1318 4.4358 3.5392 0.92302 0.16648 1.7695-0.57585 1.7695-1.4944 0-0.72275-0.52389-1.3541-1.2346-1.488h-0.0018c-0.97154-0.1845-1.6072-1.0374-2.4862-2.295-0.53891-0.76937-1.1478-1.6527-2.0024-2.3714s-1.9903-1.2515-3.4081-1.2515c-0.19614 0-0.34135 0.08211-0.52681 0.10122 0.22743-0.64093 0.4541-1.2624 0.68539-1.9454 1.794-5.287 3.9572-11.687 10.817-18.941 2.3776-2.5138 3.1074-4.6914 3.1501-6.2934s-0.58466-2.5692-0.69704-2.7285c-5.96e-4 -6.14e-4 -0.0012-0.0012-0.0018-0.0018l-0.30104-0.42606-0.0063-0.0055c-0.0083-0.01034-0.07948-0.10034-0.09945-0.11963-0.02103-0.02031-0.03557-0.02956-0.05107-0.04233-0.01195-0.01018-0.0242-0.02-0.03673-0.02945-0.08303-0.06051-0.27547-0.16611-0.51785-0.15644zm-0.34314 0.0957h0.002687v0.001841c-0.0055 0.0058-0.03127 0.02079-0.03852 0.02393 0.0028-0.0026 0.01244-0.01052 0.03584-0.02577zm-0.03763 0.02577h8.96e-4v9.2e-4h-8.96e-4zm-3.5354 1.3905c0.0041-3.42e-4 0.02164 0.0011 0.02688 0.0018-0.0027 9e-5 -0.0071 5.8e-5 -0.01434 0-6e-3 -6.03e-4 -0.0098-6.03e-4 -0.01165-9.2e-4zm2.784 2.1798c-0.0019 0.89388-0.37254 2.0789-2.3557 4.1761-7.2551 7.6724-9.5959 14.552-11.435 19.973-0.8856 2.6109-1.6452 4.8252-2.738 6.5023l-8.96e-4 9.2e-4v9.21e-4l-0.08153 0.25858c0.01063-0.09056 0.03829-0.1783 0.08153-0.25858-3.29e-4 5.04e-4 -0.0015 4.15e-4 -0.0018 9.2e-4v9.2e-4l-8.96e-4 9.2e-4c-7.17e-4 0.0011-0.0011 0.0026-0.0018 0.0037-0.49852 0.71178-0.94503 1.3348-1.4245 1.7558-0.47226 0.41463-0.96212 0.6506-1.6655 0.6506-0.70708 0-1.1996-0.23739-1.6727-0.65336-0.48215-0.42397-0.92992-1.0519-1.4326-1.7705v-9.2e-4c-0.5398-0.77064-1.1365-1.6344-1.9639-2.33-0.82318-0.69208-1.9078-1.2018-3.2729-1.2018-1.3652 0-2.45 0.51026-3.2738 1.2027-0.82793 0.69597-1.4261 1.5605-1.9675 2.3328-0.50206 0.71701-0.94956 1.3439-1.4317 1.7677-0.47309 0.41586-0.96468 0.65336-1.6691 0.65336-0.66004 0-1.1314-0.20867-1.5768-0.57238-0.07738-0.06318-0.6394-0.65773-1.2489-1.4834-0.60954-0.82567-1.334-1.9279-1.9961-3.184-1.3242-2.5122-2.3693-5.6339-1.9012-8.3869 1e-6 -6.13e-4 1e-6 -0.0012 0-0.0018 0.78828-4.6314 3.1949-7.088 6.3934-8.5986 3.2032-1.5128 7.2232-2.0033 11.046-2.4579 3.193-0.37912 5.9827-0.68911 8.0903-1.6932l0.0018-9.2e-4c3.0286-1.548 4.0434-2.3056 4.0433-2.2831-0.01015-1.2468 1.0909-2.6257 3.1846-1.7956 0 0 1.4116-0.86317 2.3093-1.356 0.9477-0.50568 1.818-0.85654 2.0965-0.87697 0.61648-0.04526 1.3003 0.01296 1.8259 0.0865 0.263 0.0368 0.48555 0.07635 0.6406 0.10675 0.0779 0.01527 0.13909 0.02858 0.18098 0.03773 0.02155 0.0047 0.03455 7e-3 0.04032 0.0083h8.95e-4v9.2e-4h0.001792c0.0074 2e-3 0.0149 0.0038 0.0224 0.0055l0.09945 0.02393c0.18583 0.04463 0.38082 0.03058 0.55369-0.03313h8.96e-4l2.1084-0.97687c0.28918-0.04141 0.35719 0.14435 0.39072 0.36552zm-11.34 0.18328h0.003583v9.21e-4h-0.001792c-0.0016 3.35e-4 -0.0041 7.85e-4 -0.0072 9.2e-4 0.0017-4.19e-4 0.0036-0.0015 0.0054-0.0018z" fill="url(#_Linear3)"/>
        </g>
    </g>
    <defs>
        
        
        <linearGradient id="_Linear3" x2="1" gradientTransform="matrix(0 43.894 -43.894 0 69.578 30.15)" gradientUnits="userSpaceOnUse"><stop stop-color="#45c4dc" offset="0"/><stop stop-color="#f070ab" offset="1"/></linearGradient>
    
            
        
            
        
            
        </defs>
</svg>
