<svg xmlns="http://www.w3.org/2000/svg" viewBox="0 0 24 24"><g fill="none"><path fill="url(#SVGi0RHzbYw)" d="M12.969 12c1.038 0 2.207-.44 2.207-1.588c0-1.107-1.122-1.589-2.207-1.589H9.882V7.765h3.25c1.706 0 3.103.863 3.103 2.647s-1.466 2.647-3.102 2.647H10.94v3.706H9.882V12z"/><path fill="url(#SVG2U6Wsetx)" fill-rule="evenodd" d="M12 21a9 9 0 1 0 0-18a9 9 0 0 0 0 18m0-1.059a7.942 7.942 0 1 0 0-15.883a7.942 7.942 0 0 0 0 15.883" clip-rule="evenodd"/><defs><linearGradient id="SVGi0RHzbYw" x1="108.825" x2="108.773" y1="2.651" y2="37.348" gradientUnits="userSpaceOnUse"><stop stop-color="#ff2e72"/><stop offset=".93" stop-color="#4a125e"/></linearGradient><linearGradient id="SVG2U6Wsetx" x1="12" x2="12" y1="3" y2="21" gradientUnits="userSpaceOnUse"><stop stop-color="#ff2e72"/><stop offset="1" stop-color="#631661"/></linearGradient></defs></g></svg>