<svg xmlns="http://www.w3.org/2000/svg" viewBox="0 0 24 24"><g fill="none"><path fill="url(#SVGJi76VctD)" d="m16.364 15.217l4.27-2.435a.73.73 0 0 0 .366-.627V7.284a.72.72 0 0 0-.366-.627l-4.27-2.435a.74.74 0 0 0-.732 0l-4.27 2.435a.72.72 0 0 0-.366.627v8.704l-2.994 1.707l-2.994-1.707v-3.415l2.994-1.707l1.974 1.127V9.702l-1.608-.918a.75.75 0 0 0-.732 0l-4.27 2.435a.72.72 0 0 0-.366.627v4.87c0 .258.14.498.366.627l4.27 2.436a.75.75 0 0 0 .732 0l4.27-2.436a.72.72 0 0 0 .366-.626V8.012l.053-.03l2.94-1.677l2.994 1.707v3.415l-2.994 1.707l-1.972-1.124v2.291l1.606.916a.75.75 0 0 0 .732 0z"/><defs><linearGradient id="SVGJi76VctD" x1="2.942" x2="20.119" y1="17.194" y2="7.101" gradientUnits="userSpaceOnUse"><stop stop-color="#a726c1"/><stop offset=".88" stop-color="#803bdf"/><stop offset="1" stop-color="#7b3fe4"/></linearGradient></defs></g></svg>