<svg xmlns="http://www.w3.org/2000/svg" viewBox="0 0 24 24"><g fill="none"><path fill="#fbf9dc" d="m6.08 9.315l-.244 1.061l1.124-.272z"/><path fill="#fcf6bb" d="m5.813 11.811l.608 1.77l.632-1.697v-.39l-1.216-1.118z"/><path fill="#fcf9d3" d="m5.836 10.37l1.202 1.153l.034-.895z"/><path fill="#f8f7f0" d="m6.96 10.104l-1.12.267l1.227.263z"/><path fill="#f4f2e9" d="m6.955 10.103l-.875-.779l1.036.37z"/><path fill="#312e21" d="m7.067 10.638l-.108-.535l.146-.418l.506.413z"/><path fill="#38382d" d="m7.68 11.271l-.613-.632l.53-.55l.083 1.177z"/><path fill="#fae8cd" d="m7.676 11.266l-.647.243l.024-.875z"/><path fill="#313126" d="m7.588 10.104l.092 1.167l.808-.321z"/><path fill="#ae7f59" d="M7.573 10.118L7.1 9.69l.988-.22l-.511.648z"/><path fill="#fbf17e" d="m7.33 9.104l-.225.584l1.003-.209l.087-.17z"/><path fill="#fff6c0" d="m7.101 9.694l-1.021-.37l1.255-.228z"/><path fill="#fff2db" d="m6.76 8.507l-.325-.165l-.355.982l1.245-.204l-.51-.37z"/><path fill="#e7dca8" d="m6.434 8.35l.093-.437l.15.598l-.243-.165z"/><path fill="#fbe38e" d="m7.705 14.258l-1.3-.686l.638-1.688l.535.452z"/><path fill="#f9efc5" d="m5.676 15.648l.745-2.082l1.298.681z"/><path fill="#f9eec6" d="M5.676 17.108v-1.46l1.46.395v.647z"/><path fill="#fdf39f" d="m6.834 14.84l-1.158.807l1.333.453l.817-.049l-.992-1.216z"/><path fill="#f3e27b" d="m7.724 14.19l-.91.632l.852 1.042h.248z"/><path fill="#443f33" d="m7.66 11.26l-.082.486l-.545-.243z"/><path fill="#3a3416" d="m8.108 11.758l-.457-.52l-.097.496z"/><path fill="#2a2122" d="M7.573 11.727v.608l-.54-.462l.535-.146z"/><path fill="#3d371f" d="m8.483 12.34l-.93-.01l.497-.613z"/><path fill="#37321d" d="m9.344 12.262l-1.294-.535l.424.652z"/><path fill="#56421e" d="m9.912 12.156l-1.907-.448l1.338.554z"/><path fill="#563918" d="m10.146 12.453l-.817-.195l.574-.102l.243.292z"/><path fill="#3d371f" d="m10.881 12.028l-.983.127l.21.302l.778-.429z"/><path fill="#e4c568" d="m8.45 12.347l-.876-.02l.121 1.936l1.606.7z"/><path fill="#edbc69" d="M7.904 15.843L7.69 14.2l1.61.754l-.778.924l-.618-.03z"/><path fill="#ccad5b" d="m9.325 12.258l-.876.088l.852 2.607l.793-2.51l-.764-.185z"/><path fill="#bf9f5e" d="m10.827 15.25l-1.542-.296l.803-2.525z"/><path fill="#bb9c5f" d="m10.88 12.024l-.797.429l.73 2.772z"/><path fill="#c19e5c" d="m10.123 15.931l-.842-.992l-.774.939z"/><path fill="#97764b" d="m10.803 15.24l-1.528-.306l.847 1.002l.681.082z"/><path fill="#a67e40" d="m13.23 14.939l-2.432.292v.778l1.12.039z"/><path fill="#c6ac61" d="m10.867 12.02l-.063 3.21l2.451-.282z"/><path fill="#e1bd5f" d="m8.478 10.929l-.808.335l.375.458l.74.17l-.307-.968z"/><path fill="#fada7c" d="M10.263 10.361L8.779 11.89l-.311-.954l.35-.618l1.445.05z"/><path fill="#fbe88d" d="m10.235 10.365l-1.48-.468l.079.438z"/><path fill="#fbda50" d="m8.755 9.889l-.666-.414l.15-.272l2.302-1.426l.165.642l-.627.866l-1.314.604z"/><path fill="#ffd243" d="m10.25 10.37l-1.528-.477l1.362-.613l.457.472z"/><path fill="#faaa26" d="m10.628 9.567l-.409.793l.886-.345z"/><path fill="#fce273" d="m9.908 12.17l.326-1.8l-1.474 1.518z"/><path fill="#fbda66" d="M11.08 10.754L9.899 12.18l.331-1.82l.876-.35z"/><path fill="#f9dd80" d="m10.871 12.024l-.968.141l1.148-1.44l.948-.418l.477.044z"/><path fill="#fbe88d" d="m11.105 9.941l-.034.788l.939-.423l.073-.063z"/><path fill="#e8ce70" d="m12.924 9.825l-2.072 2.204l2.398 2.919z"/><path fill="#ffeda5" d="M6.722 18.197L5.676 17.06l1.09-.311z"/><path fill="#ab8e4d" d="M12.76 16.047h-.828l1.304-1.119z"/><path fill="#d3b053" d="m14.9 15.94l-1.698-.992l-.448 1.07l2.14-.078z"/><path fill="#e1b857" d="m15.464 13.898l-2.242 1.05l-.292-5.117z"/><path fill="#f69026" d="m15.065 16.066l-1.897-1.119l2.282-1.05l.243 2.17h-.633z"/><path fill="#e88429" d="m17.959 15.167l-2.554-1.318l.282 2.209l.997-.078z"/><path fill="#ae6328" d="m18.324 15.356l-2.92-1.508L17.595 12z"/><path fill="#f5871f" d="m16.081 11.255l-.676 2.593l2.189-1.849z"/><path fill="#efbf61" d="M16.106 11.265L12.83 9.737l2.574 4.111z"/><path fill="#e88429" d="m17.906 12.16l-1.834-.886l.647-2.466l1.187 3.356z"/><path fill="#fcdb69" d="m15.137 8.873l-2.14.978l3.118 1.44z"/><path fill="#f69026" d="m16.738 8.808l-1.62.097l.973 2.374z"/><path fill="#fcd756" d="m15.153 8.9l-2.301 1.017l.948-1.274z"/><path fill="#faae32" d="m15.464 7.008l-.321 1.926l-1.338-.301l-.17-.501l1.28-1.664l.549.535z"/><path fill="#f58a1f" d="m15.464 6.999l-.336 1.99l1.143-1.576z"/><path fill="#f5863c" d="m16.738 8.819l-1.586.117l1.09-1.533l.496 1.411z"/><path fill="#ce7637" d="m15.93 6.698l-.457.306l.788.419l-.331-.73z"/><path fill="#d96d27" d="m16.388 6.322l-.467.37l.326.73z"/><path fill="#494341" d="m15.93 6.697l-1.016-.218l.55.535z"/><path fill="#49352e" d="m15.697 5.638l-.778.841l1.026.224l-.243-1.07z"/><path fill="#ac6e32" d="m16.197 4.82l-.267 1.882l.457-.36z"/><path fill="#885c30" d="m15.698 5.642l.238 1.05l.277-1.829l-.91.394l.4.385z"/><path fill="#e07726" d="m15.303 6.075l-.87-.885l.87.044l.409.408z"/><path fill="#f89d1c" d="M14.433 6.26V5.19l.885.87l-.409.439z"/><path fill="#fbc244" d="m14.919 6.473l-.487-.214l-1.284.477l.574 1.289z"/><path fill="#e68025" d="m14.754 4.022l-.321 1.168l.89.073l.311-1.81l-.876.564z"/><path fill="#dc8226" d="m16.203 4.864l-.885.404l.306-1.815l.584 1.41z"/><path fill="#f9a943" d="m13.766 4.994l.987-.973l-.316 1.192z"/><path fill="#fbb544" d="m14.432 6.26l-.647-1.284l.647.214z"/><path fill="#f9df65" d="m13.8 4.976l-1.216-.088l1.863 1.396l-.652-1.313z"/><path fill="#fde54b" d="m11.543 5.193l-1.124-.17l.413 1.503l2.253.262l1.347-.53l-1.838-1.367z"/><path fill="#fdd94d" d="m9.665 6.036l.76-1.007l.461 1.63L9.66 8.03l-.355-1.06l.355-.934z"/><path fill="#ebe96e" d="m9.728 5.029l-1.046.53l.993.482l.749-1.012z"/><path fill="#49352e" d="m8.921 4.387l-.155 1.148l.574-.306z"/><path fill="#e68025" d="m9.072 3l-.146 1.386l.419.852l.063-1.761z"/><path fill="#ae6328" d="m9.802 5.043l-.4-1.567l-.063 1.751z"/><path fill="#b76f3f" d="M10.42 5.029L9.406 3.467l.38 1.576z"/><path fill="#8247e5" d="M7.569 5.37L6.372 6.566a.51.51 0 0 0-.131.506l.472 1.62a.51.51 0 0 0 .36.355l1.94.487l1.518-1.586l.161.428l-.671.686l.18.613a.51.51 0 0 0 .374.355l1.63.36a.52.52 0 0 0 .467-.131l1.187-1.183a.52.52 0 0 0 .136-.5l-.442-1.625a.52.52 0 0 0-.365-.36l-1.635-.424a.49.49 0 0 0-.486.137L9.695 7.7l-.312-.253l.827-.779l-.204-.661a.5.5 0 0 0-.355-.346l-1.596-.423a.49.49 0 0 0-.486.132"/><path fill="#000" d="m6.99 6.97l.987-.992l1.347.36l.36 1.357l-.987.992l-1.343-.365l-.36-1.352zm3.521.973l.983-.993l1.348.365l.36 1.353l-.983.992l-1.348-.36l-.36-1.362z"/><path fill="#c1c1c1" d="m7.267 6.696l-.278.282l.876.594l-.253.175l1.192.827l.292-.311l-.827-.516l.267-.2zm3.55.934l-.277.287l.876.594l-.253.175l1.192.822l.292-.306l-.827-.516l.268-.2z"/><path fill="#d92f85" d="M6.649 16.145a.486.486 0 0 1 .476-.496h9.75a.485.485 0 0 1 .476.496v4.359a.486.486 0 0 1-.477.496H7.125a.486.486 0 0 1-.476-.496z"/><path fill="#fff" fill-rule="evenodd" d="M12.973 15.649v3.405h.73V15.65zM9.811 18.08a.974.974 0 0 1-1.702.643v1.303h-.73v-2.919h.73v.331a.973.973 0 0 1 1.702.642m-1.702 0a.487.487 0 1 0 .973 0a.487.487 0 0 0-.973 0m3.162.973c.671 0 1.216-.437 1.216-.973c0-.535-.545-.973-1.216-.973c-.672 0-1.216.438-1.216.973s.544.973 1.216.973m0-.486a.486.486 0 1 0 0-.973a.486.486 0 0 0 0 .973m3.56.204l-.885-1.664h.75l.481.973l.453-.973h.749l-1.44 2.92h-.715zm-3.9 1.742c.32 0 .583-.22.583-.487s-.263-.486-.584-.486s-.584.219-.584.486c0 .268.263.487.584.487m0-.175c.16 0 .291-.142.291-.312s-.131-.311-.292-.311s-.292.141-.292.311s.132.311.292.311m-1.655-.633H9.08v-.165h.622c.297 0 .535.219.535.486c0 .268-.238.487-.535.487H9.08v-.175h.194zm.292.637h.049c.19 0 .34-.146.34-.32a.33.33 0 0 0-.34-.322h-.049zm3.284-.316a.3.3 0 0 1-.015.097v.054h-.014c-.078.195-.302.336-.565.336c-.326 0-.593-.22-.593-.487s.267-.486.593-.486a.6.6 0 0 1 .253.048v-.014h.258v.316h-.258v-.02a.29.29 0 0 0-.253-.155c-.16 0-.292.141-.292.311s.132.311.292.311a.29.29 0 0 0 .258-.16h-.19v-.15zm.185-.301h.146v.617h-.146v.17h.91v-.306h-.17v.136h-.317v-.248h.253v-.145h-.253v-.224h.316v.126h.17v-.311h-.91z" clip-rule="evenodd"/><path fill="#312f32" d="m8.473 10.944l-.885-.832L8.76 9.89l.088.457z"/><path fill="#715421" d="m8.088 9.47l-.52.643l1.211-.214z"/><path fill="#37321d" d="M8.045 11.727h-.487v.598z"/></g></svg>