<svg xmlns="http://www.w3.org/2000/svg" viewBox="0 0 24 24"><g fill="none"><path fill="#fff" d="M21 3H3v18h18z"/><path fill="#337243" d="M3 3h18v18H3z"/><path fill="#fac736" d="M9.695 11.711c1.038.861 2.797 1.492 3.543 1.7l.9-.72c-.052-.064-.155-.225-.155-.363c0-.537.714-1.369.714-1.832s-.38-.707-.38-1.006s.113-.408.113-.672c0-.205-.685-.88-1.025-1.19c.096-.134.28-.459.28-.693c0-.29-.335-.685-.64-.685c-.306 0-.585.241-.585.537c0 .234.192.517.289.63a3.7 3.7 0 0 0-.849-.077c-.466 0-1.044.192-1.273.289c.01-.051.033-.186.033-.347c0-.335-.386-.61-.675-.61c-.286 0-.624.205-.624.668s.412.707.547.851c-.483.691-.213 2.951-.213 3.52"/><path fill="#e39f2e" d="M11.512 12.777c-.644-.289-1.315-.652-1.817-1.067c0-.116-.012-.302-.025-.53c-.055-.894-.145-2.44.238-2.99c-.026-.028-.065-.06-.103-.096c-.177-.151-.444-.382-.444-.755a.7.7 0 0 1 .097-.373a1.1 1.1 0 0 0 .192.713q.158.207.267.335c.16.199.238.295.225.424c-.022.19-.042.99.17 1.395a1 1 0 0 1-.028.206c-.02.103-.045.225-.045.43c0 .344.15 1.17 1.272 2.308"/><path fill="#000" d="M13.045 6.289c-.29 0-.546.225-.546.498c0 .11.044.231.102.344c.061.112.132.209.18.263c.01.013.01.033 0 .045a.04.04 0 0 1-.038.013a3.6 3.6 0 0 0-.842-.074c-.457 0-1.029.187-1.26.283a.04.04 0 0 1-.039-.006a.04.04 0 0 1-.011-.016a.03.03 0 0 1-.002-.02c.01-.045.032-.18.032-.337c0-.151-.087-.296-.215-.405a.7.7 0 0 0-.418-.17a.6.6 0 0 0-.395.15a.63.63 0 0 0-.193.483c0 .218.096.389.212.52q.1.113.215.206l.11.1c.01.013.013.032 0 .045a1.8 1.8 0 0 0-.229.746a8 8 0 0 0-.051 1.038c.003.363.023.72.042 1.022c0 .055.006.11.01.16c.012.22.022.4.022.515c1.028.845 2.745 1.466 3.497 1.678l.858-.685a.7.7 0 0 1-.077-.128a.6.6 0 0 1-.064-.229c0-.141.048-.298.116-.462c.067-.161.16-.332.247-.499l.02-.035c.083-.154.16-.305.225-.444c.064-.15.105-.286.105-.392c0-.225-.09-.392-.183-.546l-.032-.048a2 2 0 0 1-.1-.177a.5.5 0 0 1-.064-.235c0-.154.032-.26.058-.36l.003-.01a1 1 0 0 0 .055-.302a.2.2 0 0 0-.029-.08a1 1 0 0 0-.077-.129a3 3 0 0 0-.27-.32q-.306-.331-.64-.634a.04.04 0 0 1-.013-.023a.04.04 0 0 1 .007-.025c.048-.065.116-.177.173-.303a.9.9 0 0 0 .1-.37c0-.134-.077-.295-.193-.427c-.119-.128-.27-.218-.408-.218m-.624.498c0-.318.3-.572.624-.572c.17 0 .338.106.463.244c.128.138.215.318.215.476a1 1 0 0 1-.11.398a2 2 0 0 1-.16.29c.17.154.418.392.62.614c.11.119.206.231.277.33c.032.052.064.097.084.139c.022.038.032.08.032.112c0 .132-.026.225-.052.322l-.003.01a1.1 1.1 0 0 0-.055.34q.001.101.055.203q.057.114.129.221c.096.155.193.338.193.58a1.1 1.1 0 0 1-.113.423c-.064.142-.145.293-.225.45l-.02.032c-.09.168-.18.335-.244.496s-.109.305-.109.434a.45.45 0 0 0 .055.192a1 1 0 0 0 .09.148a.036.036 0 0 1-.007.051l-.9.72l-.015.007h-.017c-.749-.209-2.51-.842-3.558-1.707a.04.04 0 0 1-.013-.029q-.018-.345-.032-.69c-.02-.303-.039-.663-.042-1.023c-.003-.363.007-.73.052-1.051c.038-.305.109-.572.225-.752l-.08-.07l-.04-.033a2 2 0 0 1-.186-.183a.85.85 0 0 1-.231-.57c0-.24.09-.417.218-.536a.67.67 0 0 1 .447-.17c.154 0 .331.074.466.193c.138.112.244.276.244.456c0 .116-.012.219-.022.286c.264-.103.79-.264 1.222-.264c.353 0 .613.033.761.055a2 2 0 0 1-.125-.193a.9.9 0 0 1-.113-.379"/><path fill="#49573e" d="M7.953 15.683a19 19 0 0 0-.453-.527a8 8 0 0 1 .88-1.826c-.739 2.015.02 2.286.27 2.46a3 3 0 0 0-.697-.107m3.729 1.771c-.965-.852-1.46-2.504-1.588-3.224a6.7 6.7 0 0 0-.328 2.015l-.434.046a.78.78 0 0 0 .193.552c1.253.601 2.041.65 2.157.611"/><path fill="#fac736" d="M9.377 16.083c.033.225.187.646.26.829a5.5 5.5 0 0 1-1.655-1.231c.463-.01 1.27.318 1.395.402"/><path fill="#49573e" d="M16.484 15.012c-.074-.952-.784-1.929-1.128-2.295c.138.82.392 2.144.501 2.706l.569-.087a1 1 0 0 0 .058-.321z"/><path fill="#fac736" d="M16.757 15.42c-.23.316-.513.589-.836.807c0-.456-.08-.71-.08-.807c.141-.051.572-.305.771-.424c.049.097.142.322.142.424z"/><path fill="#000" d="M10.633 7.587c.02.006.033.026.026.045a2 2 0 0 1-.119.334a.04.04 0 0 1-.021.02a.04.04 0 0 1-.043-.01l-.007-.013a.04.04 0 0 1 .004-.029c.054-.11.096-.257.115-.321c.004-.016.026-.033.045-.026m2.096-.164a.04.04 0 0 1 .045-.029l.27.061c.02.003.032.026.03.045a.04.04 0 0 1-.046.026l-.27-.061a.04.04 0 0 1-.029-.028zm1.784 4.683a.034.034 0 0 1 .048-.016q.316.149.588.363a5.1 5.1 0 0 1 1.672 2.36a.1.1 0 0 1-.01.035l-.022.032l-.07.068a2 2 0 0 1-.226.167a5 5 0 0 1-.617.337a.04.04 0 0 1-.032 0a.04.04 0 0 1-.015-.011a.03.03 0 0 1-.008-.018c-.221-1.408-.575-2.526-.726-2.918a3.2 3.2 0 0 0-.575-.358a.04.04 0 0 1-.01-.027q0-.008.003-.014m.694.492c.306.9.534 1.825.682 2.764q.413-.196.78-.469a.5.5 0 0 0 .075-.077a5.05 5.05 0 0 0-1.537-2.218"/><path fill="#000" d="M9.695 11.338c.01.02.007.042-.013.051a5 5 0 0 0-.273.18a.04.04 0 0 1-.051.003l-.01-.01a.04.04 0 0 1-.003-.028l.006-.013q.138-.11.293-.193q.013-.008.027-.005q.016.003.024.015m4.516.263l.013-.008a.04.04 0 0 1 .03 0l.012.008c.048.061.122.161.183.27c.065.11.113.235.113.35c0 .386-.267.708-.566.933a2.3 2.3 0 0 1-.45.263a1 1 0 0 1-.347.097a5.7 5.7 0 0 1-1.671-.444a15 15 0 0 1-1.363-.633c-.45-.241-.778-.218-.878-.183a.04.04 0 0 1-.048-.02a.035.035 0 0 1 .022-.048c.126-.045.476-.06.939.187q.66.35 1.35.63c.563.225 1.17.414 1.649.437c.064 0 .18-.032.315-.09a2 2 0 0 0 .437-.257c.29-.219.537-.52.537-.871a.74.74 0 0 0-.103-.319a1.4 1.4 0 0 0-.184-.262l-.002-.015a.04.04 0 0 1 .012-.025m2.469 2.97c.016.016.016.039 0 .052a.7.7 0 0 1-.164.125q-.348.19-.713.338a.04.04 0 0 1-.049-.02l-.003-.014a.04.04 0 0 1 .01-.026l.013-.008q.36-.148.7-.334a.6.6 0 0 0 .151-.11a.04.04 0 0 1 .028-.01l.015.002l.012.009zm-6.936 1.293a4 4 0 0 0-2.141-.566a.04.04 0 0 1-.042-.032c0-.023.016-.039.035-.042c.396-.023 1.383.064 2.186.578q.029.022.013.052a.04.04 0 0 1-.051.01"/><path fill="#49573e" d="M11.544 13.042c-.75-.148-2.244-.129-2.9-.103c.134-.297.352-.549.627-.723c-.042-.01-.129-.068-.129-.231c0-.206.248-.521.338-.44c.299.793 2.314 1.484 3.285 1.728a9 9 0 0 0-1.222-.231"/><path fill="#000" d="M8.638 12.868a.04.04 0 0 1 .048-.023a2.21 2.21 0 0 1 1.385 1.494q0 .008-.005.015a.04.04 0 0 1-.024.018q-.015.002-.027-.004a.04.04 0 0 1-.018-.021A2.14 2.14 0 0 0 8.65 12.91l-.01-.01l-.004-.014q0-.008.002-.015z"/><path fill="#000" d="M8.773 12.662a.04.04 0 0 1 .048-.022c.196.07.495.228.762.482c.301.274.498.645.556 1.048c0 .02-.013.038-.032.042a.04.04 0 0 1-.04-.018l-.005-.015a1.7 1.7 0 0 0-.534-1.006a2.2 2.2 0 0 0-.746-.47l-.009-.011a.04.04 0 0 1 0-.03m4.722-2.539c-.47 0-.662.257-.698.386c0 .27.421.508.627.508s.476-.457.476-.614c0-.161-.2-.28-.405-.28m-.309 1.69a.036.036 0 0 1 0 .052a.3.3 0 0 1-.167.084a.4.4 0 0 1-.165-.001a.04.04 0 0 1-.018-.023v-.015c0-.02.022-.032.042-.032a.3.3 0 0 0 .128 0a.23.23 0 0 0 .129-.064a.04.04 0 0 1 .051 0m-1.334-.723a.6.6 0 0 0-.096.132a.04.04 0 0 1-.048.02l-.013-.008a.04.04 0 0 1-.01-.027q0-.007.003-.014a.6.6 0 0 1 .11-.154c.051-.051.119-.096.202-.09c.02 0 .036.016.032.039c0 .019-.016.032-.035.032a.2.2 0 0 0-.145.07"/><path fill="#000" d="M13.035 9.881c0-.02.02-.035.042-.032c.225.01.479.035.675.119a.65.65 0 0 1 .254.18q.098.118.1.299a1.66 1.66 0 0 1-.187.778a.81.81 0 0 1-.74.44c-.292 0-.575-.106-.81-.234a2.4 2.4 0 0 1-.523-.386a.035.035 0 0 1 .025-.062a.04.04 0 0 1 .026.01c.097.097.283.251.511.373c.225.129.498.225.772.225a.74.74 0 0 0 .675-.402c.128-.231.176-.52.176-.742a.4.4 0 0 0-.083-.254a.6.6 0 0 0-.225-.157a2 2 0 0 0-.653-.116a.04.04 0 0 1-.032-.039z"/><path fill="#000" d="M13.424 10.939c.023-.003.042.013.042.032a.83.83 0 0 1-.299.678a.039.039 0 0 1-.063-.033l.005-.014l.01-.01a.75.75 0 0 0 .273-.615c0-.019.013-.038.032-.041zM11.96 9.833c0 .12-.065.216-.145.216s-.145-.097-.145-.216c0-.122.064-.218.145-.218s.145.096.145.218m2.021-.286c0 .122-.064.219-.144.219s-.145-.097-.145-.219c0-.119.064-.215.145-.215s.144.096.144.215m-2.057-.746c-.231.042-.495.296-.52.312c0-.16.334-.42.43-.424c.097-.007.09.09.09.112m1.803-.096c.167-.029.386.074.405.077c-.022-.096-.289-.193-.357-.17c-.07.019-.05.077-.048.093m-5.808 6.95c0-.02.02-.033.042-.033c.634.078 1.25.27 1.816.566c.016.01.022.032.013.051a.04.04 0 0 1-.023.017a.04.04 0 0 1-.029-.004a5.2 5.2 0 0 0-1.801-.56l-.011-.01a.04.04 0 0 1-.007-.028"/><path fill="#fac736" d="M14.7 15.375a.98.98 0 0 1-.996.97a.983.983 0 0 1-.99-.97a.984.984 0 0 1 .99-.97c.55 0 .996.433.996.97"/><path fill="#000" d="M11.428 12.733a.077.077 0 0 1 .103.032c.135.247.363.643.626 1.044c.239.38.524.73.849 1.039a.07.07 0 0 1 .006.102c-.025.033-.074.033-.106.007a5.5 5.5 0 0 1-.874-1.067a15 15 0 0 1-.633-1.06a.074.074 0 0 1 .032-.096zm.067.048a.04.04 0 0 0-.02-.017a.04.04 0 0 0-.028 0a.036.036 0 0 0-.016.049c.135.25.363.652.633 1.054q.368.585.868 1.061c.016.016.039.016.051 0l.009-.012a.04.04 0 0 0-.009-.04a5.4 5.4 0 0 1-.858-1.047q-.337-.51-.63-1.048m2.697 1.99a.07.07 0 0 1-.04-.072q0-.015.008-.028c.167-.315.225-.765.228-1.205c0-.44-.051-.862-.103-1.113a.08.08 0 0 1 .034-.076a.1.1 0 0 1 .027-.01c.039-.007.08.019.087.058c.052.26.106.69.106 1.14s-.06.926-.244 1.273a.08.08 0 0 1-.045.037a.08.08 0 0 1-.058-.005m.206-2.437a.04.04 0 0 0-.03-.032h-.015a.035.035 0 0 0-.033.03v.015c.052.254.107.675.107 1.119a2.8 2.8 0 0 1-.232 1.221c-.01.02-.003.039.016.048c.016.01.042.003.052-.016c.177-.337.234-.807.238-1.253c0-.447-.052-.875-.103-1.132"/><path fill="#000" fill-rule="evenodd" d="m12.961 15.378l.03.129a.3.3 0 0 0 .067-.032a.1.1 0 0 0 .029-.033v-.032c-.013-.029-.036-.038-.064-.038a.2.2 0 0 0-.065.006zm.045.203a.4.4 0 0 0 .097-.052a.16.16 0 0 0 .055-.064a.1.1 0 0 0-.004-.087a.14.14 0 0 0-.128-.08a.3.3 0 0 0-.126.026l-.026.012l.081.348l.07-.017zm.425-.094a.1.1 0 0 0 .071-.018a.087.087 0 0 0-.071-.152a.087.087 0 0 0-.087.084c0 .048.039.086.087.086m0 .071a.16.16 0 0 0 .16-.157a.161.161 0 0 0-.274-.114a.16.16 0 0 0 .114.274zm.466-.167c.051 0 .09-.039.09-.087a.086.086 0 0 0-.087-.083a.087.087 0 0 0-.087.083c0 .048.039.087.087.087zm0 .07a.16.16 0 1 0-.11-.27a.16.16 0 0 0 .113.274z" clip-rule="evenodd"/><path fill="#000" d="m14.418 15.15l-.03-.141l.075-.013l.035.174l.039.173l-.074.016l-.032-.135l-.174.052l.032.141l-.074.016l-.08-.35l.074-.016l.032.138l.177-.051z"/></g></svg>