<svg xmlns="http://www.w3.org/2000/svg" viewBox="0 0 24 24"><g fill="#181b1e"><path d="M5.081 16.528L15.307 3.31l.89.691l-10.222 13.22l-.888-.693z"/><path d="m20.466 10.11l-11.24 2.475l-5.889-2.498l.44-1.035l5.551 2.363l10.89-2.396l.242 1.096z"/><path d="M11.448 20.224L15.015 3.63l1.096.236l-3.56 16.594z"/><path fill-rule="evenodd" d="M8.524 4.125L4.215 9.733l1.547 6.846l6.244 3.161l6.322-3.161l1.463-6.83l-4.4-5.624zM15.937 3h-7.97L3 9.469l1.783 7.875L12 21l7.312-3.656L21 9.469z" clip-rule="evenodd"/><path d="M18.311 17.315L7.81 4.012l.883-.698l10.502 13.298l-.884.697z"/></g></svg>