<svg xmlns="http://www.w3.org/2000/svg" viewBox="0 0 24 24"><g fill="none"><path fill="#2ff6d3" fill-rule="evenodd" d="M5.406 17.85c.798 1.5 1.698 2.04 2.394 2.04s1.596-.54 2.394-2.04c.768-1.44 1.278-3.504 1.278-5.85c0-2.34-.51-4.41-1.278-5.85c-.798-1.5-1.698-2.04-2.394-2.04s-1.596.54-2.394 2.04C4.638 7.59 4.128 9.654 4.128 12c0 2.34.51 4.41 1.278 5.85M3 12c0 4.968 2.148 9 4.8 9s4.8-4.032 4.8-9s-2.148-9-4.8-9S3 7.032 3 12" clip-rule="evenodd"/><path fill="#2ff6d3" fill-rule="evenodd" d="M9.606 17.85c.798 1.5 1.698 2.04 2.394 2.04s1.596-.54 2.394-2.04c.768-1.44 1.278-3.504 1.278-5.85c0-2.34-.51-4.41-1.278-5.85c-.798-1.5-1.698-2.04-2.394-2.04s-1.596.54-2.394 2.04C8.838 7.59 8.328 9.654 8.328 12c0 2.34.51 4.41 1.278 5.85M7.2 12c0 4.968 2.148 9 4.8 9s4.8-4.032 4.8-9s-2.148-9-4.8-9s-4.8 4.032-4.8 9" clip-rule="evenodd"/><path fill="url(#SVGgnIPxdqd)" d="M12.6 16.2a4.2 4.2 0 1 1 0-8.401a4.2 4.2 0 0 1 0 8.4"/><path fill="#2ff6d3" fill-rule="evenodd" d="M13.806 17.85c.798 1.5 1.698 2.04 2.394 2.04s1.596-.54 2.394-2.04c.768-1.44 1.278-3.504 1.278-5.85c0-2.34-.51-4.41-1.278-5.85c-.798-1.5-1.698-2.04-2.394-2.04s-1.596.54-2.394 2.04c-.768 1.44-1.278 3.504-1.278 5.85c0 2.34.51 4.41 1.278 5.85M11.4 12c0 4.968 2.148 9 4.8 9s4.8-4.032 4.8-9s-2.148-9-4.8-9s-4.8 4.032-4.8 9" clip-rule="evenodd"/><defs><linearGradient id="SVGgnIPxdqd" x1="12.244" x2="3" y1="12" y2="12" gradientUnits="userSpaceOnUse"><stop stop-color="#fff"/><stop offset="1" stop-color="#fff" stop-opacity="0"/></linearGradient></defs></g></svg>