<svg xmlns="http://www.w3.org/2000/svg" viewBox="0 0 256 330"><g fill-opacity=".9"><path fill="#6ccb94" d="M18.752 0L0 91.459l53.782 50.743l-34.943 62.289L89.94 329.677h77.785l71.406-125.186l-35.245-62.29l51.96-50.742L238.738 0L165.6 97.41H92.372z"/><path fill="#5dbd85" d="m18.839 204.49l34.942-62.288l75.044 62.29z"/><path fill="#64c48c" d="m53.782 142.203l75.044 62.29L92.371 97.41z"/><path fill="#6ecc95" d="m239.13 204.49l-35.246-62.288l-75.056 62.29z"/><path fill="#5ebe86" d="M89.94 329.677h77.784l-38.897-125.186z"/><path fill="#76d29c" d="m203.884 142.203l-75.056 62.29L165.599 97.41z"/><path fill="#74d09b" d="m238.74 0l17.102 91.46l-51.958 50.743l-38.286-44.793z"/><path fill="#64c48c" d="m128.825 204.49l38.9 125.187l71.405-125.186z"/><path fill="#58b880" d="M128.825 204.49L89.928 329.678L18.84 204.491z"/><path fill="#5fbf87" d="M18.752 0L0 91.46l53.782 50.744L92.37 97.41z"/><path fill="#6ecc95" d="m128.825 204.49l36.773-107.079H92.371z"/></g></svg>