<svg xmlns="http://www.w3.org/2000/svg" viewBox="0 0 24 24"><g fill="#45dae2"><path d="m11.953 3l2.973 2.974l-2.973 2.98L8.972 5.98z" opacity=".9"/><path d="m7.469 4.245l4.086 1.002l-1.003 4.093l-4.086-1.003l1.003-4.1z" opacity=".85"/><path d="m16.395 4.21l-2.451.66l1.105 1.112l-1.998 1.998l.378 1.395l4.065-1.1z" opacity=".3"/><path d="m19.624 7.437l-1.003 4.086l-4.093-.996l1.002-4.092z" opacity=".35"/><path d="m20.928 11.926l-2.912 3.05l-3.042-2.905l2.912-3.05l3.042 2.912z" opacity=".4"/><path d="m19.691 16.576l-4.086 1.017l-1.017-4.086l4.086-1.017z" opacity=".45"/><path d="m16.45 19.757l-4.086-1.002l.996-4.08l4.093 1.003l-1.003 4.086z" opacity=".5"/><path d="m11.966 21l-2.974-2.974l2.974-2.98l2.98 2.98z" opacity=".55"/><path d="m7.529 19.86l-1.1-4.067l4.06-1.099l1.099 4.06l-4.06 1.098z" opacity=".6"/><path d="m4.24 16.461l.995-4.086l4.093 1.003l-1.003 4.086l-4.093-1.003z" opacity=".65"/><path d="m3.072 12.106l2.974-2.98l2.98 2.98l-2.973 2.974z" opacity=".7"/><path d="m4.172 7.444l4.072-1.01l1.016 4.087l-4.086 1.016l-1.016-4.086z" opacity=".75"/></g></svg>