<?xml version="1.0" encoding="UTF-8"?>
<svg id="Layer_1" xmlns="http://www.w3.org/2000/svg" version="1.1" xmlns:cc="http://creativecommons.org/ns#" xmlns:dc="http://purl.org/dc/elements/1.1/" xmlns:inkscape="http://www.inkscape.org/namespaces/inkscape" xmlns:rdf="http://www.w3.org/1999/02/22-rdf-syntax-ns#" xmlns:sodipodi="http://sodipodi.sourceforge.net/DTD/sodipodi-0.dtd" xmlns:svg="http://www.w3.org/2000/svg" viewBox="0 0 115.333 114">
  <!-- Generator: Adobe Illustrator 30.4.0, SVG Export Plug-In . SVG Version: 2.1.4 Build 226)  -->
  <defs>
    <style>
      .st0 {
        fill: #fff;
      }

      .st1 {
        fill: #336f9c;
      }

      .st2 {
        fill: #e6522c;
      }
    </style>
  </defs>
  <g id="prometheus_x5F_node_x5F_exporter">
    <path id="background" class="st0" d="M52.11636,4.35288L14.84783,25.86988c-3.43444,1.98288-5.55014,5.64738-5.55014,9.61313v43.03399c0,3.96575,2.1157,7.63025,5.55014,9.61313l37.26853,21.51699c3.43444,1.98288,7.66585,1.98288,11.10029,0l37.26853-21.51699c3.43444-1.98288,5.55014-5.64738,5.55014-9.61313v-43.03399c0-3.96575-2.1157-7.63025-5.55014-9.61313L63.21664,4.35288c-3.43444-1.98288-7.66585-1.98288-11.10029,0Z"/>
    <path id="prometheus" class="st2" d="M57.66673,31.08517c-14.31214,0-25.91552,11.602-25.91552,25.9146s11.60338,25.91506,25.91552,25.91506,25.91506-11.60292,25.91506-25.91506-11.60338-25.9146-25.91506-25.9146ZM57.66673,79.5873c-4.07207,0-7.37353-2.7202-7.37353-6.07471h14.74706c0,3.35406-3.30147,6.07471-7.37353,6.07471ZM69.84543,71.50079h-24.35877v-4.41689h24.35922v4.41689h-.00046ZM69.75808,64.81051h-24.2019c-.08049-.09284-.16281-.1843-.24056-.27851-2.49336-3.02753-3.08057-4.60806-3.65087-6.21877-.0096-.05305,3.02341.61968,5.17423,1.10354,0,0,1.10674.25611,2.72477.55108-1.55355-1.82109-2.47599-4.13609-2.47599-6.50232,0-5.19481,3.98426-9.73427,2.54687-13.40343,1.39897.11388,2.89536,2.95252,2.99643,7.39091,1.48724-2.05524,2.10966-5.80855,2.10966-8.10983,0-2.38269,1.57001-5.15045,3.14049-5.24512-1.39989,2.30723.36266,4.28518,1.92947,9.19188.58767,1.84304.51267,4.94465.96634,6.91163.15046-4.08533.85292-10.04617,3.44461-12.10415-1.14333,2.59169.16921,5.83462,1.06695,7.39365,1.44836,2.51532,2.32644,4.42101,2.32644,8.02523,0,2.41653-.89225,4.69175-2.39732,6.4703,1.71133-.32105,2.89307-.61054,2.89307-.61054l5.55747-1.08433c.00046-.00046-.80719,3.32067-3.91017,6.51878Z" inkscape:connector-curvature="0"/>
    <path id="line" class="st1" d="M57.6665,113.62817c-2.35156.00098-4.70264-.60449-6.7998-1.81543l-37.26904-21.51758c-4.19434-2.4209-6.7998-6.93457-6.7998-11.77832v-43.03369c0-4.84375,2.60547-9.35645,6.7998-11.77783L50.86621,2.18823c4.19385-2.42188,9.4043-2.42188,13.60059,0l37.26855,21.51709c4.19434,2.4209,6.7998,6.93408,6.7998,11.77783v43.03369c0,4.84375-2.60547,9.35742-6.7998,11.77832l-37.26855,21.51758c-2.09766,1.21094-4.44922,1.81543-6.80029,1.81543ZM53.36621,6.51831L16.09765,28.0354c-2.65234,1.53125-4.2998,4.38477-4.2998,7.44775v43.03369c0,3.06348,1.64746,5.91699,4.2998,7.44824l37.26855,21.51758c2.65234,1.53125,5.94824,1.53125,8.60059,0l37.26855-21.51758c2.65234-1.53125,4.2998-4.38477,4.2998-7.44824v-43.03369c0-3.06299-1.64746-5.91699-4.2998-7.44775L61.96679,6.51831c-2.65234-1.53125-5.94824-1.53125-8.60059,0Z"/>
  </g>
</svg>