<svg xmlns="http://www.w3.org/2000/svg" viewBox="0 0 24 24"><g fill="none"><path fill="#fff" d="M21 3H3v18h18z"/><path fill="#333" d="M3 3h18v18H3z"/><path fill="#5901f6" d="M21 3L3 21V3z"/><path fill="url(#SVG2QH2qc0z)" fill-rule="evenodd" d="m9.31 14.713l-.036-.034c-2.4-2.402-3.137-5.558-1.645-7.05s4.648-.756 7.049 1.645l.02.022l-.867.872l-.023-.024c-1.91-1.91-4.28-2.64-5.291-1.627c-1.012 1.012-.283 3.381 1.627 5.292l.033.033z" clip-rule="evenodd"/><path fill="url(#SVGHftjheTj)" fill-rule="evenodd" d="m14.69 9.286l.036.034c2.4 2.402 3.137 5.558 1.645 7.05s-4.648.755-7.049-1.646l-.02-.021l.867-.872l.023.024c1.91 1.91 4.28 2.639 5.29 1.627c1.013-1.012.284-3.381-1.626-5.292l-.033-.033z" clip-rule="evenodd"/><defs><linearGradient id="SVG2QH2qc0z" x1="16.175" x2="10.401" y1="10.109" y2="15.851" gradientUnits="userSpaceOnUse"><stop stop-color="#fbfcfa"/><stop offset=".817" stop-color="#9359fd" stop-opacity=".07"/></linearGradient><linearGradient id="SVGHftjheTj" x1="9.84" x2="14.306" y1="14.649" y2="10.948" gradientUnits="userSpaceOnUse"><stop stop-color="#01fdfe"/><stop offset="1" stop-color="#01fdfe" stop-opacity=".06"/></linearGradient></defs></g></svg>