<?xml version="1.0" encoding="UTF-8" standalone="no"?>
<svg
   fill="none"
   height="36"
   viewBox="0 0 36 36"
   width="36"
   version="1.1"
   id="svg338"
   sodipodi:docname="proton-meet.svg"
   inkscape:version="1.2.2 (b0a8486541, 2022-12-01)"
   xmlns:inkscape="http://www.inkscape.org/namespaces/inkscape"
   xmlns:sodipodi="http://sodipodi.sourceforge.net/DTD/sodipodi-0.dtd"
   xmlns="http://www.w3.org/2000/svg"
   xmlns:svg="http://www.w3.org/2000/svg"
   xmlns:rdf="http://www.w3.org/1999/02/22-rdf-syntax-ns#"
   xmlns:cc="http://creativecommons.org/ns#"
   xmlns:dc="http://purl.org/dc/elements/1.1/">
  <title
     id="title463">Proton Meet</title>
  <sodipodi:namedview
     id="namedview340"
     pagecolor="#ffffff"
     bordercolor="#666666"
     borderopacity="1.0"
     inkscape:showpageshadow="2"
     inkscape:pageopacity="0.0"
     inkscape:pagecheckerboard="0"
     inkscape:deskcolor="#d1d1d1"
     showgrid="false"
     inkscape:zoom="28.527778"
     inkscape:cx="18.035054"
     inkscape:cy="18.035054"
     inkscape:window-width="2560"
     inkscape:window-height="1371"
     inkscape:window-x="0"
     inkscape:window-y="0"
     inkscape:window-maximized="1"
     inkscape:current-layer="svg338" />
  <path
     d="M0 10C0 4.477 4.477 0 10 0h16c5.523 0 10 4.477 10 10v16c0 5.523-4.477 10-10 10H10C4.477 36 0 31.523 0 26V10Z"
     fill="#fff"
     id="path309" />
  <path
     d="M24.289 14.478a.374.374 0 0 0-.004-.05c0-.017-.002-.034-.003-.05l-.004-.05-.006-.049a2.112 2.112 0 0 0-.222-.71 2.266 2.266 0 0 0-.23-.347 2.211 2.211 0 0 0-.504-.45 2.282 2.282 0 0 0-2.468-.016c-.174.112-.347.22-.517.327l-.046.03-.044.03h-.005c-.049.032-.095.063-.142.092l-.005.004h-.002l-.015.01-.01.006-1.087.692a.898.898 0 0 1-.558.19.913.913 0 0 1-.82-.509l-.004-.006a.922.922 0 0 0-.025-.058l-.004-.007a2.476 2.476 0 0 0-.74-.91c-.014-.011-.027-.022-.04-.03a2.51 2.51 0 0 0-.267-.174l-.003-.003s-.003 0-.004-.002h-.004a2.065 2.065 0 0 0-.293-.137l-.031-.01-.032-.012a2.403 2.403 0 0 0-.479-.12 2.536 2.536 0 0 0-.367-.028H7v12.42C7 25.904 8.1 27 9.461 27h10.551a2.758 2.758 0 0 0 .367-.029c.006 0 .01-.002.016-.003.067-.01.136-.023.202-.04l.034-.006.01-.003.034-.01a2.406 2.406 0 0 0 .183-.058c.011-.003.02-.008.032-.012l.03-.01c.005 0 .01-.003.014-.004l.016-.008c.013-.005.028-.01.04-.016a1.76 1.76 0 0 0 .095-.042l.066-.033a.549.549 0 0 0 .063-.034h.004s.002 0 .003-.002l.004-.003.004-.003a2.445 2.445 0 0 0 .263-.17l.02-.014.02-.017a2.336 2.336 0 0 0 .478-.48.031.031 0 0 0 .008-.01l.044-.059a2.12 2.12 0 0 0 .188-.316c.018-.036.035-.072.051-.11l.003-.006a.913.913 0 0 1 1.365-.328c.209.132.415.265.623.396V14.58a1.55 1.55 0 0 0-.003-.102Zm-6.01-.128a.757.757 0 0 0 0 .002l-.032.007a.366.366 0 0 0 .032-.009Z"
     fill="url(#meet-badge__a)"
     id="path311" />
  <path
     d="M29 11.449V24.55c0 .07-.004.136-.009.203-.136 1.644-2.041 2.51-3.435 1.621l-.776-.492-.009-.007c-.16-.101-.32-.202-.479-.305V14.58a1.548 1.548 0 0 0-.006-.152c0-.017 0-.034-.003-.05 0-.017-.003-.033-.005-.05l-.006-.048a2.07 2.07 0 0 0-.59-1.211 2.282 2.282 0 0 0-2.834-.312c-.174.111-.347.218-.517.327l4.439-2.96h.001l.009-.005.015-.01h.002l.041-.028a2.784 2.784 0 0 0 .109-.069l.018-.012a25.038 25.038 0 0 1 .33-.21l.261-.165c.238-.152.492-.252.75-.306l.049-.01a2.334 2.334 0 0 1 1.114.07 2.377 2.377 0 0 1 .543.254c.022.014.044.03.066.043.033.024.066.049.099.071l.076.064a4.074 4.074 0 0 1 .146.136 2.1 2.1 0 0 1 .307.398l.053.093c.028.055.054.111.079.17l.013.032c.013.035.026.07.038.107l.032.103.01.038.015.063a1.984 1.984 0 0 1 .049.371l.002.025a.74.74 0 0 1 .003.102Z"
     fill="#fff"
     id="path313" />
  <path
     d="M29 11.449V24.55c0 .07-.004.136-.009.203-.136 1.644-2.041 2.51-3.435 1.621l-.776-.492-.009-.007c-.16-.101-.32-.202-.479-.305V14.58a1.548 1.548 0 0 0-.006-.152c0-.017 0-.034-.003-.05 0-.017-.003-.033-.005-.05l-.006-.048a2.07 2.07 0 0 0-.59-1.211 2.282 2.282 0 0 0-2.834-.312c-.174.111-.347.218-.517.327l4.439-2.96h.001l.009-.005.015-.01h.002l.041-.028a2.784 2.784 0 0 0 .109-.069l.018-.012a25.038 25.038 0 0 1 .33-.21l.261-.165c.238-.152.492-.252.75-.306l.049-.01a2.334 2.334 0 0 1 1.114.07 2.377 2.377 0 0 1 .543.254c.022.014.044.03.066.043.033.024.066.049.099.071l.076.064a4.074 4.074 0 0 1 .146.136 2.1 2.1 0 0 1 .307.398l.053.093c.028.055.054.111.079.17l.013.032c.013.035.026.07.038.107l.032.103.01.038.015.063a1.984 1.984 0 0 1 .049.371l.002.025a.74.74 0 0 1 .003.102Z"
     fill="url(#meet-badge__b)"
     fill-opacity=".65"
     id="path315" />
  <path
     d="M23.675 10.82a.76.76 0 0 1-.123.078c-.002.004-.006.005-.009.006a.913.913 0 0 1-1.239-.407l-.003-.007a1.558 1.558 0 0 0-.115-.229 2.416 2.416 0 0 0-.17-.257 2.6 2.6 0 0 0-.208-.244c-.018-.017-.034-.035-.053-.052l-.09-.083-.04-.034a2.006 2.006 0 0 0-.094-.076l-.03-.023a2.598 2.598 0 0 0-.277-.18l-.006-.003-.002-.003h-.002l-.03-.016a3.185 3.185 0 0 0-.223-.105c-.004 0-.008-.003-.01-.004h-.005l-.043-.016c-.004 0-.009-.003-.013-.004a6.433 6.433 0 0 0-.215-.07h-.003l-.075-.02a2.532 2.532 0 0 0-.202-.04.05.05 0 0 1-.017-.003A2.546 2.546 0 0 0 20.013 9H9.462A2.453 2.453 0 0 0 7 11.449v.681h8.305c.098 0 .195.007.29.018.026.002.05.007.076.01a2.484 2.484 0 0 1 .51.132l.032.011a2 2 0 0 1 .293.137h.004l.004.002.003.003s.004.004.006.004c.09.051.177.107.26.17.014.008.027.019.04.03.316.238.57.55.741.91l.004.007a.922.922 0 0 1 .025.058l.003.006a.913.913 0 0 0 1.379.319 262.413 262.413 0 0 0 1.097-.698l.015-.01h.002l.005-.004c.047-.03.093-.06.142-.094h.005l.044-.028.046-.03 4.439-2.96c-.366.234-.73.467-1.095.698Zm-.688.4a.128.128 0 0 1-.02.004c.007 0 .014-.003.02-.005a.634.634 0 0 0 0 .001Z"
     fill="#fff"
     id="path317" />
  <path
     d="M23.675 10.82a.76.76 0 0 1-.123.078c-.002.004-.006.005-.009.006a.913.913 0 0 1-1.239-.407l-.003-.007a1.558 1.558 0 0 0-.115-.229 2.416 2.416 0 0 0-.17-.257 2.6 2.6 0 0 0-.208-.244c-.018-.017-.034-.035-.053-.052l-.09-.083-.04-.034a2.006 2.006 0 0 0-.094-.076l-.03-.023a2.598 2.598 0 0 0-.277-.18l-.006-.003-.002-.003h-.002l-.03-.016a3.185 3.185 0 0 0-.223-.105c-.004 0-.008-.003-.01-.004h-.005l-.043-.016c-.004 0-.009-.003-.013-.004a6.433 6.433 0 0 0-.215-.07h-.003l-.075-.02a2.532 2.532 0 0 0-.202-.04.05.05 0 0 1-.017-.003A2.546 2.546 0 0 0 20.013 9H9.462A2.453 2.453 0 0 0 7 11.449v.681h8.305c.098 0 .195.007.29.018.026.002.05.007.076.01a2.484 2.484 0 0 1 .51.132l.032.011a2 2 0 0 1 .293.137h.004l.004.002.003.003s.004.004.006.004c.09.051.177.107.26.17.014.008.027.019.04.03.316.238.57.55.741.91l.004.007a.922.922 0 0 1 .025.058l.003.006a.913.913 0 0 0 1.379.319 262.413 262.413 0 0 0 1.097-.698l.015-.01h.002l.005-.004c.047-.03.093-.06.142-.094h.005l.044-.028.046-.03 4.439-2.96c-.366.234-.73.467-1.095.698Zm-.688.4a.128.128 0 0 1-.02.004c.007 0 .014-.003.02-.005a.634.634 0 0 0 0 .001Z"
     fill="url(#meet-badge__c)"
     fill-opacity=".65"
     id="path319" />
  <defs
     id="defs336">
    <linearGradient
       gradientUnits="userSpaceOnUse"
       id="meet-badge__b"
       x1="23.75"
       x2="32.852"
       y1="10.925"
       y2="13.489">
      <stop
         offset=".1"
         stop-color="#6E45E2"
         id="stop321" />
      <stop
         offset="1"
         stop-color="#45E1CC"
         stop-opacity=".9"
         id="stop323" />
    </linearGradient>
    <linearGradient
       gradientUnits="userSpaceOnUse"
       id="meet-badge__c"
       x1="8.694"
       x2="9.32"
       y1="6.658"
       y2="17.515">
      <stop
         offset=".1"
         stop-color="#6E45E2"
         id="stop326" />
      <stop
         offset=".9"
         stop-color="#45E1CC"
         id="stop328" />
    </linearGradient>
    <radialGradient
       cx="0"
       cy="0"
       gradientTransform="matrix(15.6957 -15.1944 17.5137 23.4329 5.617 28.726)"
       gradientUnits="userSpaceOnUse"
       id="meet-badge__a"
       r="1">
      <stop
         stop-color="#82F8E1"
         id="stop331" />
      <stop
         offset="1"
         stop-color="#6E45E2"
         id="stop333" />
    </radialGradient>
  </defs>
  <metadata
     id="metadata459">
    <rdf:RDF>
      <cc:Work
         rdf:about="">
        <dc:title>Proton Meet</dc:title>
        <dc:creator>
          <cc:Agent>
            <dc:title>Proton</dc:title>
          </cc:Agent>
        </dc:creator>
        <dc:contributor>
          <cc:Agent>
            <dc:title>slc66</dc:title>
          </cc:Agent>
        </dc:contributor>
      </cc:Work>
    </rdf:RDF>
  </metadata>
</svg>
