<svg xmlns="http://www.w3.org/2000/svg" viewBox="0 0 24 24"><g fill="none"><path fill="#d7a012" d="m10.096 5.861l-3.78 5.665L12 21l5.684-9.474l-3.78-5.665l1.118 5.665h1.331l-3.88 7.106v-7.106h1.218L12.02 3.024L12 3l-.019.024l-1.672 8.502h1.217v7.106l-3.884-7.106h1.336z"/><path fill="url(#SVGh77ljdPX)" fill-opacity=".3" d="m10.096 5.861l-3.78 5.665L12 21l5.684-9.474l-3.78-5.665l1.118 5.665h1.331l-3.88 7.106v-7.106h1.218L12.02 3.024L12 3l-.019.024l-1.672 8.502h1.217v7.106l-3.884-7.106h1.336z"/><defs><linearGradient id="SVGh77ljdPX" x1="12" x2="12" y1="7.026" y2="18.869" gradientUnits="userSpaceOnUse"><stop stop-color="#fff"/><stop offset=".68" stop-color="#fff" stop-opacity="0"/><stop offset="1" stop-color="#fff" stop-opacity=".5"/></linearGradient></defs></g></svg>