<svg fill="none" version="1.1" viewBox="0 0 200 200" xmlns="http://www.w3.org/2000/svg">
 <g filter="url(#filter0_d_565_246)">
  <g clip-rule="evenodd" fill-rule="evenodd">
   <g fill="#36B39E">
    <path d="m75.556 34.91c1.1838 0.034 2.2595 0.697 2.8219 1.7391l11.154 20.668c0.5625 1.0421 0.5262 2.3052-0.0952 3.3133-0.6213 1.0082-1.7333 1.6083-2.917 1.5743l-23.476-0.6745c-1.1838-0.0341-2.2594-0.697-2.8219-1.7392-0.5624-1.0421-0.5261-2.3052 0.0952-3.3133l12.322-19.994c0.6213-1.0081 1.7333-1.6082 2.917-1.5742z"/>
    <path d="m30.622 51.462c0.8566-0.6191 1.9785-0.7341 2.9429-0.3017l19.127 8.5743c0.9645 0.4324 1.625 1.3464 1.7328 2.3978 0.1079 1.0515-0.3535 2.0805-1.2101 2.6996l-16.989 12.278c-0.8567 0.6191-1.9785 0.7341-2.943 0.3017-0.9645-0.4323-1.625-1.3464-1.7328-2.3978l-2.138-20.852c-0.1078-1.0514 0.3535-2.0805 1.2102-2.6996z"/>
    <path d="m6.9768 86.753c0.32488-0.8856 1.0976-1.5306 2.027-1.6921l18.432-3.2017c0.9294-0.1614 1.8744 0.1852 2.4789 0.9094s0.7767 1.7158 0.4519 2.6014l-6.4432 17.563c-0.3249 0.886-1.0976 1.531-2.027 1.693-0.9293 0.161-1.8743-0.186-2.4788-0.91l-11.989-14.361c-0.60451-0.7242-0.77677-1.7158-0.45188-2.6014z"/>
    <path d="m6.1693 124.53c-0.16575-0.825 0.12146-1.677 0.75343-2.233l12.533-11.032c0.632-0.556 1.5127-0.733 2.3104-0.464 0.7977 0.27 1.3912 0.944 1.557 1.769l3.2872 16.37c0.1657 0.826-0.1215 1.677-0.7535 2.233-0.6319 0.556-1.5127 0.733-2.3104 0.464l-15.82-5.338c-0.79771-0.269-1.3912-0.944-1.557-1.769z"/>
    <path d="m23.62 151.08c-0.4006-0.497-0.5055-1.17-0.2751-1.766l4.5693-11.814c0.2304-0.595 0.7611-1.023 1.3922-1.121 0.6311-0.099 1.2667 0.147 1.6674 0.645l7.9462 9.864c0.4007 0.497 0.5056 1.17 0.2752 1.766s-0.7611 1.023-1.3922 1.122l-12.516 1.949c-0.6311 0.099-1.2667-0.147-1.6674-0.645z"/>
   </g>
   <path d="m73.237 154.12c23.817 0 43.125-19.307 43.125-43.125 0-23.817-19.307-43.125-43.125-43.125s-43.125 19.308-43.125 43.125c0 23.818 19.308 43.125 43.125 43.125zm22.927-42.718c0 12.621-10.231 22.853-22.852 22.853s-22.852-10.232-22.852-22.853c0-12.62 10.231-22.852 22.852-22.852s22.852 10.231 22.852 22.852z" fill="#4DFFE1"/>
  </g>
  <path d="m148.28 153.94c-7.072 0-13.251-1.01-18.535-3.031-5.207-2.098-10.025-5.401-14.455-9.908l14.571-14.572c3.031 2.876 6.217 5.091 9.559 6.645 3.342 1.476 6.917 2.215 10.725 2.215 3.186 0 5.595-0.467 7.227-1.399 1.632-1.01 2.448-2.37 2.448-4.08s-0.699-3.109-2.098-4.197c-1.399-1.165-3.264-2.176-5.596-3.031-2.253-0.932-4.779-1.865-7.577-2.797-2.72-0.933-5.44-2.06-8.16-3.381s-5.245-2.914-7.577-4.779c-2.254-1.943-4.08-4.313-5.479-7.111-1.399-2.876-2.098-6.3727-2.098-10.492 0-5.3623 1.282-9.9863 3.847-13.872 2.564-3.8858 6.178-6.8389 10.841-8.8595 4.663-2.0983 10.142-3.1474 16.437-3.1474 6.217 0 11.968 1.0103 17.252 3.0309 5.362 1.9428 9.792 4.7405 13.289 8.3931l-14.688 14.571c-2.564-2.4868-5.129-4.3131-7.693-5.4788-2.565-1.2435-5.363-1.8652-8.394-1.8652-2.409 0-4.352 0.3886-5.828 1.1657-1.399 0.7772-2.098 1.9429-2.098 3.4972 0 1.632 0.699 2.992 2.098 4.08 1.399 1.0103 3.225 1.9428 5.479 2.7977 2.331 0.8549 4.857 1.7484 7.577 2.6814 2.798 0.932 5.556 2.059 8.276 3.38 2.72 1.244 5.207 2.876 7.461 4.896 2.331 1.943 4.197 4.391 5.595 7.344 1.399 2.953 2.099 6.528 2.099 10.725 0 8.471-3.031 15.038-9.093 19.7-5.984 4.586-14.455 6.878-25.412 6.878z" fill="#4DFFE1"/>
 </g>
 <defs>
  <filter id="filter0_d_565_246" x="6.1232" y="34.908" width="176.78" height="121.96" color-interpolation-filters="sRGB" filterUnits="userSpaceOnUse">
   <feFlood flood-opacity="0" result="BackgroundImageFix"/>
   <feColorMatrix in="SourceAlpha" result="hardAlpha" values="0 0 0 0 0 0 0 0 0 0 0 0 0 0 0 0 0 0 127 0"/>
   <feOffset dy="2.74286"/>
   <feColorMatrix values="0 0 0 0 0.117 0 0 0 0 0.1485 0 0 0 0 0.18 0 0 0 0.25 0"/>
   <feBlend in2="BackgroundImageFix" result="effect1_dropShadow_565_246"/>
   <feBlend in="SourceGraphic" in2="effect1_dropShadow_565_246" result="shape"/>
  </filter>
 </defs>
</svg>
