<svg xmlns="http://www.w3.org/2000/svg" viewBox="0 0 24 24"><g fill="none"><path fill="#b805f7" d="M3.902 9.003h3a.6.6 0 0 1 .599.6v2.999h-3a.6.6 0 0 1-.6-.6zm16.196 0h-3a.6.6 0 0 0-.6.6v2.999h3a.6.6 0 0 0 .6-.6zm-11.997.6a.6.6 0 0 1 .6-.6h2.4a.6.6 0 0 1 .599.6v2.4a.6.6 0 0 1-.6.599H8.7a.6.6 0 0 1-.6-.6z"/><path fill="#f4d70d" d="M3.902 13.802a.6.6 0 0 1 .6-.6h2.4a.6.6 0 0 1 .599.6v2.4a.6.6 0 0 1-.6.6h-2.4a.6.6 0 0 1-.6-.6zm12.597 0a.6.6 0 0 1 .6-.6h2.399a.6.6 0 0 1 .6.6v2.4a.6.6 0 0 1-.6.6h-2.4a.6.6 0 0 1-.6-.6zm-4.2 4.199a.6.6 0 0 1 .6-.6h2.4a.6.6 0 0 1 .6.6v2.4a.6.6 0 0 1-.6.6h-2.4a.6.6 0 0 1-.6-.6zm-4.198 0a.6.6 0 0 1 .6-.6h2.4a.6.6 0 0 1 .599.6v2.4a.6.6 0 0 1-.6.6H8.7a.6.6 0 0 1-.6-.6z"/><path fill="#b805f7" d="M12.3 9.603a.6.6 0 0 1 .6-.6h2.4a.6.6 0 0 1 .6.6v2.4a.6.6 0 0 1-.6.599h-2.4a.6.6 0 0 1-.6-.6z"/><path fill="#f4d70d" d="M3.902 18a.6.6 0 0 1 .6-.6H7.5v3a.6.6 0 0 1-.6.599H4.5a.6.6 0 0 1-.6-.6z"/><path fill="#b805f7" d="M15.737 4.624c.216.21.216.54 0 .738L13.8 7.203l-1.938-1.841a.5.5 0 0 1-.116-.565a.5.5 0 0 1 .116-.167l1.548-1.476a.57.57 0 0 1 .78 0l1.547 1.476z"/><path fill="#f4d70d" d="m11.7 4.21l-.438.42a.5.5 0 0 0 0 .732l.438.42l-1.5 1.421l-1.937-1.841a.504.504 0 0 1 0-.732L9.81 3.154a.57.57 0 0 1 .78 0zM20.098 18a.6.6 0 0 0-.6-.6h-3v3a.6.6 0 0 0 .6.6h2.4a.6.6 0 0 0 .6-.6z"/></g></svg>