<svg xmlns="http://www.w3.org/2000/svg" viewBox="0 0 24 24"><g fill="none"><path fill="url(#SVGNAjzDbCj)" d="M12 21c.52 0 1.028-.143 1.464-.411c.432-.264.775-.645.989-1.098a.31.31 0 0 0-.025-.312a.34.34 0 0 0-.127-.11a.36.36 0 0 0-.167-.037H9.865a.36.36 0 0 0-.166.038a.34.34 0 0 0-.127.109a.31.31 0 0 0-.024.312c.213.452.557.834.989 1.098c.438.269.946.411 1.463.41"/><path fill="url(#SVGcWigodNe)" d="M18.553 16.597a1.3 1.3 0 0 1-.89-.347a1.16 1.16 0 0 1-.367-.839v-4.309a4.82 4.82 0 0 0-1.117-3.067a5.34 5.34 0 0 0-2.877-1.775a1.23 1.23 0 0 0-.443-.78a1.38 1.38 0 0 0-.877-.31c-.321 0-.632.112-.876.315c-.24.198-.396.477-.438.782a5.36 5.36 0 0 0-2.63 1.526a4.9 4.9 0 0 0-1.283 2.651c0 .03-.009.06-.012.09s-.01.08-.013.12l-.01.121c-.004.04-.004.067-.006.101c0 .07-.005.137-.006.207v4.327c0 .313-.131.614-.365.836a1.3 1.3 0 0 1-.883.35a.63.63 0 0 0-.422.16a.53.53 0 0 0-.178.394v.004c0 .149.062.29.173.395a.6.6 0 0 0 .419.164h13.1a.6.6 0 0 0 .404-.17a.54.54 0 0 0 .166-.388a.54.54 0 0 0-.166-.387a.6.6 0 0 0-.403-.17"/><path fill="url(#SVGrjkpHTgF)" d="M15.793 5.413c.718.148 1.37.51 1.87 1.037a3.23 3.23 0 0 1 .867 1.875a.27.27 0 0 0 .108.195a.316.316 0 0 0 .428-.037a.28.28 0 0 0 .07-.21a3.76 3.76 0 0 0-1.013-2.21a4.16 4.16 0 0 0-2.203-1.216a.32.32 0 0 0-.266.067a.275.275 0 0 0-.043.38a.3.3 0 0 0 .182.113z"/><path fill="url(#SVGY6kfyeJr)" d="M16.134 3.565c1.125.235 2.144.8 2.91 1.613a5.02 5.02 0 0 1 1.35 2.918a.28.28 0 0 0 .108.195a.3.3 0 0 0 .222.064a.32.32 0 0 0 .206-.102a.28.28 0 0 0 .069-.21a5.54 5.54 0 0 0-1.497-3.248a6.13 6.13 0 0 0-3.24-1.787a.32.32 0 0 0-.267.067a.277.277 0 0 0-.043.38a.3.3 0 0 0 .182.113z"/><path fill="url(#SVG1A9SHbTQ)" d="M8.207 5.414a.3.3 0 0 0 .182-.112a.274.274 0 0 0-.043-.381a.31.31 0 0 0-.266-.067a4.16 4.16 0 0 0-2.2 1.212a3.76 3.76 0 0 0-1.015 2.205a.27.27 0 0 0 .068.21a.3.3 0 0 0 .206.102c.08.007.16-.016.223-.065a.3.3 0 0 0 .107-.194c.076-.7.38-1.357.87-1.874a3.57 3.57 0 0 1 1.868-1.037"/><path fill="url(#SVGomYwkcby)" d="M7.866 3.566a.3.3 0 0 0 .181-.112a.274.274 0 0 0-.042-.38a.31.31 0 0 0-.266-.068a6.13 6.13 0 0 0-3.241 1.788A5.55 5.55 0 0 0 3 8.042a.27.27 0 0 0 .069.21a.3.3 0 0 0 .206.101c.08.007.16-.016.222-.064a.3.3 0 0 0 .108-.195A5.02 5.02 0 0 1 4.957 5.18a5.54 5.54 0 0 1 2.909-1.613"/><defs><linearGradient id="SVGNAjzDbCj" x1="14.869" x2="11.669" y1="14.774" y2="20.542" gradientUnits="userSpaceOnUse"><stop stop-color="#ff94a6"/><stop offset=".32" stop-color="#e03dc1"/><stop offset="1" stop-color="#8247e5"/></linearGradient><linearGradient id="SVGcWigodNe" x1="17.135" x2="7.767" y1="8.674" y2="19.942" gradientUnits="userSpaceOnUse"><stop stop-color="#ff94a6"/><stop offset=".277" stop-color="#e03dc1"/><stop offset="1" stop-color="#8247e5"/></linearGradient><linearGradient id="SVGrjkpHTgF" x1="22.48" x2="5.233" y1="3.495" y2="15.631" gradientUnits="userSpaceOnUse"><stop stop-color="#ff94a6"/><stop offset=".32" stop-color="#e03dc1"/><stop offset="1" stop-color="#8247e5"/></linearGradient><linearGradient id="SVGY6kfyeJr" x1="22.313" x2="5.065" y1="3.256" y2="15.392" gradientUnits="userSpaceOnUse"><stop stop-color="#ff94a6"/><stop offset=".32" stop-color="#e03dc1"/><stop offset="1" stop-color="#8247e5"/></linearGradient><linearGradient id="SVG1A9SHbTQ" x1="19.138" x2="1.892" y1="-1.255" y2="10.88" gradientUnits="userSpaceOnUse"><stop stop-color="#ff94a6"/><stop offset=".32" stop-color="#e03dc1"/><stop offset="1" stop-color="#8247e5"/></linearGradient><linearGradient id="SVGomYwkcby" x1="18.259" x2="1.019" y1="-2.504" y2="9.626" gradientUnits="userSpaceOnUse"><stop stop-color="#ff94a6"/><stop offset=".32" stop-color="#e03dc1"/><stop offset="1" stop-color="#8247e5"/></linearGradient></defs></g></svg>