<svg xmlns="http://www.w3.org/2000/svg" viewBox="0 0 24 24"><g fill="none"><path fill="url(#SVGfnxYytuN)" fill-rule="evenodd" d="M12 20.47a8.47 8.47 0 1 0 0-16.94a8.47 8.47 0 0 0 0 16.94m0 .53a9 9 0 1 0 0-18a9 9 0 0 0 0 18" clip-rule="evenodd"/><path fill="url(#SVGyM0TzdHn)" fill-rule="evenodd" d="M12 19.147a7.147 7.147 0 1 0 0-14.295a7.147 7.147 0 0 0 0 14.295m0 .264a7.412 7.412 0 1 0 0-14.823a7.412 7.412 0 0 0 0 14.823" clip-rule="evenodd"/><path fill="url(#SVGhJHMjbzb)" fill-rule="evenodd" d="M12 18.617a6.618 6.618 0 1 0 0-13.235a6.618 6.618 0 0 0 0 13.235m0 .265a6.883 6.883 0 1 0 0-13.766a6.883 6.883 0 0 0 0 13.766" clip-rule="evenodd"/><path fill="#ef9819" d="M7.542 7.288v.016l-.074.08h-.01v-.006h-.006v-.005h-.005v-.005h-.005l-.022-.01l-.53-.366h-.004c0 .196.02.37.068.545c.022.069.048.133.085.201a.4.4 0 0 0-.08.075l-.005.005H6.95v-.005h-.01a2 2 0 0 1-.17-.556a5 5 0 0 1-.058-.55c.265.2.545.396.831.581"/><path fill="#ffc47a" d="M7.42 7.357c.112.079.228.158.35.227c.413.228.836.445 1.255.662c.074.042.143.09.211.159a.1.1 0 0 0-.037.026h-.01v.01l-.006.006h-.01v.01l-.005.006l-.027.026h-.01v.016h-.016v.016l-.043.037h-.005l-.005.006v.01l-.043.043h-.01v.005l-.006.005l-.037.042h-.01l-.005.006c0 .005 0 .01-.011.016v.005a.6.6 0 0 0-.122-.111L8.696 8.5a1.2 1.2 0 0 1-.2-.212a4 4 0 0 0-.403-.27l-.127-.074c-.201-.122-.392-.238-.598-.344a1 1 0 0 0-.16-.069a.3.3 0 0 0-.09-.021l.096.132c.01.106.053.18.127.239l.185.132q.253.173.514.328a.53.53 0 0 1 .175.302l.015.116v.101a.3.3 0 0 1-.095.148c-.069.053-.053.212-.042.302c.01.053.053.095.095.127c0 .01 0 .016-.01.016l-.006.005l-.005.01h-.01v.017l-.027.02h-.005l-.006.012c0 .005 0 .01-.01.005l-.006.005c0 .01 0 .016-.01.01l-.005.006l-.006.01h-.016a.9.9 0 0 1-.285-.608l-.006-.106a.9.9 0 0 0-.153-.408a2.9 2.9 0 0 1-.583-.688a1 1 0 0 1-.084-.212a2 2 0 0 1-.07-.54l.53.37z"/><path fill="#e9852d" d="M7.543 7.288c.148.095.307.19.466.27q.514.258 1.021.53q.223.127.381.285h-.015v.006a.3.3 0 0 0-.085.09l-.074-.07a1 1 0 0 0-.212-.153c-.418-.217-.842-.434-1.255-.661a4 4 0 0 1-.35-.228s.011 0 .017.01h.01q0 .009 0 0v.006h.006l.005.01h.01l.075-.079z"/><path fill="#d4497e" d="m18.353 7.516l-.011.021l-.201.202a.14.14 0 0 0-.154-.027l-.317.132q-1.137.455-2.277.9a2 2 0 0 1-.354.085h-.011v-.01l.116-.117v-.01h.006V8.68h.01v-.005l.021-.016q.363-.108.71-.26q.836-.332 1.673-.661l.143-.064q.325-.15.64-.318v.16z"/><path fill="#090906" d="M8.495 8.293a3.3 3.3 0 0 1-.71-.301a5 5 0 0 1-.571-.35l-.095-.127V7.51c.031 0 .058.01.09.021a1 1 0 0 1 .158.069c.207.106.398.222.599.344l.127.074c.137.08.275.175.402.27z"/><path fill="#cf3a92" d="M18.353 7.516a2.1 2.1 0 0 1-.307.974l-.26.455a1.5 1.5 0 0 0-.148.381l-.005.111c0 .053 0 .09-.01.133a1.35 1.35 0 0 1-.297.64a5 5 0 0 0-.477.683c-.037.09-.037.17.038.244l.068.074c.043.048.07.106.037.159c-.053.084-.132.159-.227.08h-.006a1.3 1.3 0 0 0-.01.343l-.016.01l-.064.064l-.005.01v-.01h-.01a45 45 0 0 0-.09-.667a.2.2 0 0 0-.022-.058l-.053-.074v-.016c-.01-.01-.005-.016 0-.016c.053-.021.106-.026.143-.069c.064-.069.101-.158.143-.232l.096-.138c.137-.19.29-.387.44-.572a.4.4 0 0 0 .052-.074a1.1 1.1 0 0 0 .095-.37v-.107c.037-.233.114-.46.228-.667q.268-.455.477-.942a.12.12 0 0 0-.022-.127l.201-.196z"/><path fill="#ef9819" d="M7.214 7.643q.36.253.757.439q.256.128.53.212c.053.074.122.143.196.206l.121.085a.5.5 0 0 1 .117.111l.037.064a.3.3 0 0 1 .026.127c-.005.042-.01.08-.005.116v.037c-.01.027-.032.016-.053.01a3 3 0 0 1-.307-.121c-.053-.021-.074-.042-.09-.095s-.01-.106-.01-.16c0-.026-.016-.063-.048-.073c-.053-.016-.106.09-.122.127a.4.4 0 0 0-.032.106c-.01.063-.01.127-.01.185c0 .042.016.085.037.117l.069.121q.03.055.026.117a.21.21 0 0 1-.1.174a1.4 1.4 0 0 1-.16-.105c-.047-.037-.09-.08-.1-.133c-.016-.084-.026-.249.043-.302a.3.3 0 0 0 .09-.148a.3.3 0 0 0 0-.1l-.011-.117a.53.53 0 0 0-.175-.302a9 9 0 0 1-.699-.46a.34.34 0 0 1-.127-.238"/><path fill="#ff84b7" d="M18.141 7.738c.032.043.043.085.022.127a4 4 0 0 1-.212.45h-.016l-2.012 2.018h-.01c.026-.075.047-.16.02-.233c-.026-.08-.079-.165-.169-.165c-.058 0-.143-.005-.127-.09c.01-.068.037-.158-.005-.217v-.02l.333-.329l.011-.032l.513-.164c.08-.026.165-.063.233-.106q.27-.172.53-.354a.1.1 0 0 0 .021-.027a.5.5 0 0 0 .042-.143l.122-.069q.169-.094.28-.211a1 1 0 0 0 .122-.122a.1.1 0 0 0 .011-.027V8.02l-.005-.005c-.021-.01-.058.01-.08.02l-.2.128a5 5 0 0 1-.435.265l-.005-.006l-.01.006V8.42l.555-.566v-.01l.318-.133q.08-.03.153.026"/><path fill="#e9852d" d="M7.04 7.738q.207.331.497.593l.084.1a1 1 0 0 1 .154.403v.117a.9.9 0 0 0 .291.609l.106.105a.1.1 0 0 1-.026-.02H8.14l-.005-.002l-.005.001l-.085.085a.5.5 0 0 0-.18-.064a1 1 0 0 0-.159-.016v-.005c.053-.058.106-.148.106-.227a.19.19 0 0 0-.095-.143c-.085-.053-.201-.032-.291.01a.5.5 0 0 1-.212.043V9.32l.095-.063q.144-.106.265-.233a.33.33 0 0 0 .084-.201c0-.106-.068-.191-.132-.276c-.106-.148-.233-.28-.36-.423a2 2 0 0 1-.228-.318l.011.005v.006h.01v-.01c.027-.027.054-.054.08-.07"/><path fill="#ff8cab" d="m17.665 7.844l.005.005v.005l-.561.567v.005h.01v-.005h.011v.01l-.116.064l-.874.413v.005l.026.005a4 4 0 0 1-.667.302a1.6 1.6 0 0 0-.29.138a.8.8 0 0 0-.212.175a.4.4 0 0 0-.059.09a1 1 0 0 0-.069.158c-.031 0-.047.016-.052.038a.05.05 0 0 0 .01.053l.048.052c.016.021.016.053.01.08l-.016.063a.12.12 0 0 0 .011.074l.005.032v.005q-.156.162-.317.318q-.928.941-1.864 1.874q-.24.251-.492.493l-.757.767l-.376.376q-.045.04-.085.085l-.153.159a3 3 0 0 0-.36-.302a.5.5 0 0 0-.106-.053c-.1-.032-.18-.027-.302-.027a.13.13 0 0 1-.085-.031q.01.002.006-.006v-.01l1.339-1.345q.129.027.26.042l.216-.227l-.005-.005H11.8l-.106-.011v-.016h.005l.35-.36c.137 0 .275-.021.407-.053a.6.6 0 0 0 .202-.09q.216-.157.375-.307c.053-.053.117-.106.149-.17c.016-.036.01-.063-.016-.073a.3.3 0 0 0-.117-.032a5 5 0 0 0-.503.016h-.026l-.154.037v-.01l1.784-1.8h.011l.005-.011V9.4l.043-.037c.01 0 .01-.005.01-.01l.006-.006l.042-.042c.005 0 .01 0 .01-.01l.037-.043h.006c.005 0 .01 0 .01-.01v-.006l.038-.037h.01l.005-.01v-.011l.043-.032l.005-.005c.005 0 .01 0 .01-.01l.038-.043h.005l.01-.005v-.011h.011v-.005l.005-.01l.022-.022h.01l.005-.005v-.011h.016l.003-.003v-.004l-.002-.004v-.005l.026-.026h.01v-.01l.006-.006h.01v-.01l.043-.043h.016v-.016l.02-.021l-.01-.01a2.6 2.6 0 0 0 .704-.112l.625-.243z"/><path fill="#090906" d="M17.316 8.453a4 4 0 0 0-.334.175q-.3.146-.603.28a.34.34 0 0 1-.165.017h-.052l-.016-.011q-.016.001 0-.005l.984-.477c.149-.085.292-.18.434-.275c.075-.053.143-.09.202-.122c.02-.01.053-.032.079-.026l.004.004l.001.006v.006l-.01.026c-.037.048-.08.085-.122.127q-.127.12-.28.207z"/><path fill="#ff79c9" d="M17.972 8.29a8 8 0 0 1-.345.624a2 2 0 0 0-.169.662a1.1 1.1 0 0 1-.1.37a.4.4 0 0 1-.048.08c-.148.185-.302.38-.44.571l-.095.138c-.042.074-.08.164-.143.233c-.032.042-.09.053-.138.069q-.016 0-.01.015l.01.017l-.079.02a.08.08 0 0 0-.048.032c-.02.037-.01.106 0 .149l.016.063q-.854.846-1.704 1.694h-.006l-.005.027l-.026.026h-.006c-.005 0-.01 0-.016-.01c.027-.202.059-.408.106-.61c.005-.052.021-.105.037-.158h-.005a.8.8 0 0 0-.233.233l-.085.106c-.146.129-.32.223-.508.275l-.212.053a1.6 1.6 0 0 0-.349.143a.2.2 0 0 1-.058.01c-.048 0-.1 0-.159-.01a.5.5 0 0 0-.159 0c.01 0 .005 0 0-.005q.186-.183.36-.376l2.213-2.208v.01c-.032.043-.074.09-.016.133l.095.064c.037.026.08.063.085.106a.26.26 0 0 1-.021.143c.053-.027.138-.085.132-.143c0-.106-.015-.212 0-.318l.016-.053l.053-.132h.016l2.006-2.012l.006-.005h.01l.011-.016v-.006z"/><path fill="#df6953" d="M13.974 8.553h-.01v.01l-.09.09l-.323-.164a.5.5 0 0 0-.217-.042q-.168.002-.329.042q-.196.043-.397.059a3.4 3.4 0 0 1-.492-.027l-.413-.037a1 1 0 0 1 .08-.074l.02-.016V8.39h.043l.01-.005h.006l.01-.006l.371.01q.446.005.89-.047l.18-.026a.63.63 0 0 1 .354.074z"/><path fill="#e27147" d="M11.873 8.379h-.01v.005h-.059v.005l-.02.021a1 1 0 0 0-.08.074l-.63-.005h-.816l-.158.005V8.48l.127-.138h-.016q-.008 0 0 0l.005-.01l.207-.01a51 51 0 0 1 1.455.052z"/><path fill="#e57b3a" d="m10.216 8.33l-.01.005v.006h.02l-.127.132v.01a.75.75 0 0 0-.317.09a.5.5 0 0 0-.201.212h-.006a3 3 0 0 0-.264-.317a.6.6 0 0 1 .084-.09l.016-.006l.148.16h.006a1.7 1.7 0 0 1 .65-.202"/><path fill="#ffbe84" d="m9.237 8.4l.074.068q.146.148.265.318a.54.54 0 0 1 .212-.212a.7.7 0 0 1 .317-.09l.154-.005a3 3 0 0 0-.005.175a.23.23 0 0 1-.085.09a.8.8 0 0 1-.212.09c-.069.02-.238.052-.122.158l.1.117c.022.026.033.053 0 .085c-.5.298-.961.659-1.37 1.074a.4.4 0 0 0-.006.18a.37.37 0 0 1-.047.212c-.07.143-.17.27-.276.392q-.061.074-.116.153l-.037.1a.2.2 0 0 1-.053.086c-.053.053-.064.116-.021.185l-.117.111l-.02-.016a.3.3 0 0 0-.096 0l.01-.085a.16.16 0 0 1 .038-.09c.015-.02.052-.052.026-.079l-.037-.042a.08.08 0 0 1-.016-.08c.021-.074.069-.137.117-.206a1.4 1.4 0 0 0 .174-.366q.002-.204.032-.407a.8.8 0 0 1 .09-.196l.042-.063c.027-.048.027-.117.027-.165a.4.4 0 0 0-.106-.222l-.106-.111h.01c.011-.005.011-.01.011-.016q.015 0 .016-.016q.015 0 .016-.016h.01l.027-.026v-.01h.01l.006-.011v-.011c.016 0 .021 0 .016-.016c.053.042.106.074.164.106a.12.12 0 0 0 .021.127q.046.073.117.01a.65.65 0 0 0 .148-.243a.06.06 0 0 0-.01-.053a3 3 0 0 1-.085-.148c-.006-.032.037-.021.052-.016a.8.8 0 0 1 .212.138h.006a.6.6 0 0 1-.011-.16q.009-.086.106-.063c.053.01.1.01.153 0a.02.02 0 0 0 .01-.01a.2.2 0 0 0 0-.106A.3.3 0 0 0 9 8.886a.3.3 0 0 0-.027-.127a.4.4 0 0 0-.037-.063l.006-.005c.01 0 .01-.011.01-.016h.005l.011-.006l.037-.042v-.01h.016l.037-.043V8.57l.005-.005h.01l.038-.043v-.01h.016v-.016h.01l.006-.006l.026-.026v-.01h.016v-.017H9.2a.1.1 0 0 1 .037-.037"/><path fill="#ffa288" d="M13.552 8.49v.005l-.88.884q-.015.006 0 .005v.006a1.7 1.7 0 0 0-.396-.037c-.027 0-.058 0-.095-.011a.43.43 0 0 1-.255-.127h-.005c-.085.01-.164.016-.249.016h-.095l-.1-.01h-.048v-.006l.026-.01h.016a.05.05 0 0 0 .016-.032l.635-.646q.312.04.625.02l.265-.057c.106-.027.211-.043.328-.043a.5.5 0 0 1 .212.043"/><path fill="#f2518f" d="M17.316 8.453a.5.5 0 0 1-.043.143q-.27.197-.55.381c-.07.043-.16.08-.233.106q-.376.138-.763.233a1 1 0 0 0-.254.132c-.032.016-.159.106-.116.149h.196q.047 0 .079.031c.042.059.016.149.005.212c-.016.09.07.095.122.095c.09 0 .148.085.175.165c.026.079.005.159-.021.233l-.07.19c-.015.095 0 .212 0 .313c0 .058-.079.116-.126.142a.3.3 0 0 0 .015-.137c0-.048-.047-.085-.084-.106l-.095-.069c-.053-.042-.016-.09.016-.132l.063-.08a.3.3 0 0 0 .048-.026q.108-.09.196-.201c-.075-.01-.143 0-.212.01c-.053.01-.1.037-.148.059c-.022.01-.059.02-.075 0a.13.13 0 0 1-.02-.096a.4.4 0 0 1 .031-.121q.054-.155.122-.302c0-.032-.01-.053-.048-.059c-.053-.01-.106.053-.122.101l-.02.053q-.12.169-.287.291c-.037.016-.042-.026-.042-.053l.01-.106a.1.1 0 0 0-.015-.053a.4.4 0 0 0-.18-.164l.069-.159a.3.3 0 0 1 .058-.095a.8.8 0 0 1 .212-.175q.134-.08.29-.137q.348-.12.668-.302l.047.005a.35.35 0 0 0 .165-.016l.211-.095q.367-.171.726-.36"/><path fill="#ffae75" d="m11.074 8.479l.005.005v.005l-3.06 3.076v.005l-.005.01l-.005-.004c-.043-.07-.032-.133.02-.186a.3.3 0 0 0 .054-.084l.037-.101q.054-.082.116-.159c.106-.116.212-.243.275-.386a.37.37 0 0 0 .048-.212a.4.4 0 0 1 .01-.18q.291-.297.578-.598q.095-.086.201-.16q.276-.133.545-.28a.2.2 0 0 0 .048-.037c.026-.026.016-.058-.005-.084a1 1 0 0 0-.101-.117c-.116-.106.053-.138.122-.159a1 1 0 0 0 .211-.09a.23.23 0 0 0 .085-.09V8.48z"/><path fill="#ffa97e" d="m11.074 8.479l.63.005l.413.037l-.635.651a.05.05 0 0 1-.016.032h-.01l-.027.005v.005h.047v.006l.101.005h-.238a2 2 0 0 0-.524.064l-.408.121a1 1 0 0 0-.212.16q-.08.076-.026.18c.016.026.037.041.042.068a.24.24 0 0 1 .01.159c0 .01-.005.026-.015.031l-.037.038c-.021.031-.016.074.016.095a.45.45 0 0 1 .148.196q-.007-.014-.016-.005l-.921.931v.01a.075.075 0 0 0-.074-.052a1.4 1.4 0 0 0-.413-.19l-.117-.017a.1.1 0 0 0-.026-.031a.053.053 0 0 0-.069 0c0 .01-.01.016-.021.026a.1.1 0 0 0-.032.021c-.053.059-.085.16-.026.233l.17.18q.136.147.306.254v.006h-.01l-.244.248l-.095-.053c-.021-.01-.053-.02-.07.006q-.039.078.017.132l.032.032q-.18.195-.371.376a.4.4 0 0 1-.053-.19v-.07a.3.3 0 0 0-.032-.11c-.02-.043-.053-.085-.058-.128l-.016-.122c-.005-.074-.032-.137-.095-.174c-.032-.021-.058-.037-.085-.07v-.01h.005l3.06-3.08v-.011z"/><path fill="#ff9a94" d="m13.551 8.49l.08.032l.243.132l.053.032l-.815.815a1.6 1.6 0 0 1-.355-.084l-.085-.027c-.01 0-.01-.005 0-.005V9.38l.874-.884h.005z"/><path fill="#da5a67" d="M13.975 8.554c.127.063.254.127.397.17a.7.7 0 0 0 .211.026q.294-.005.578-.08v.005h-.011v.027l-.122.116v.006l.005.01a2.6 2.6 0 0 1-.73-.005a1 1 0 0 1-.265-.09l-.116-.053l-.053-.032z"/><path fill="#090906" d="M8.998 8.887q.057.055.08.132c.01.038 0 .07-.005.106a.02.02 0 0 1-.011.01a.3.3 0 0 1-.154 0c-.063-.015-.1 0-.105.064c0 .043 0 .096.01.16a1 1 0 0 0-.212-.138c-.02 0-.063-.016-.058.016q.04.075.085.148q.014.025.005.058a.65.65 0 0 1-.143.238q-.07.063-.116-.01a.12.12 0 0 1-.021-.122q.094-.055.1-.175a.2.2 0 0 0-.026-.116a2 2 0 0 0-.07-.122a.23.23 0 0 1-.036-.117c0-.058 0-.121.01-.18a.4.4 0 0 1 .032-.11c.016-.038.074-.144.122-.128c.032.01.042.048.048.074c0 .053 0 .106.01.16c.016.052.043.073.09.094c.1.048.201.085.307.122c.021 0 .043.016.053-.01v-.154z"/><path fill="#ff959d" d="m13.922 8.686l.116.052c.085.043.17.07.265.09q.194.04.392.038v.005l-.021.021v.01h-.01l-.006.006l-.037.037v.015l-.003.003h-.005l-.003-.002h-.005v.01l-.01.006h-.006l-.021.026v.005l-.005.006h-.011v.016h-.016l-.026.026v.01h-.011l-.005.006v.01h-.01v.006l-.043.037v.005c0 .006 0 .01-.01.01h-.006l-.037.038v.01l-.01.006h-.011l-.032.042v.005l-.016.011l-.043.037v.005c0 .006 0 .011-.01.011h-.005l-.037.042c0 .01-.006.01-.01.01h-.006l-.037.043q-.002.016-.01.016h-.011l-1.79 1.8l.005.01l-.02.006l-.16-.021c-.026 0-.02.053-.015.074a5 5 0 0 0-.509.185l-.047.027a.6.6 0 0 0-.16.116q-.077.071-.068.159a.2.2 0 0 0 .08.063l.116.032q.232.04.466.032c0 .01-.005.01-.016.016c0 .005 0 .01-.01.016l-.324.344a2 2 0 0 1-.365-.074c-.037-.016-.069-.037-.106-.048a2.2 2.2 0 0 0-.471-.09a.2.2 0 0 1-.09-.106l1.964-1.974l.005-.011v-.005a1.6 1.6 0 0 0 .329-.186a.5.5 0 0 0 .2-.264l-.004-.01l-.048-.006z"/><path fill="#ffaf9b" d="m12.18 9.342l.01.005v.005l.006.006v.005l-.021.021v.006l-.196.195l-.005.011q-.867.87-1.737 1.737c-.01-.043-.037-.075-.063-.106c-.016-.032 0-.053.026-.074a.2.2 0 0 0 .053-.053c.037-.064.016-.16-.053-.191c-.02-.016-.02-.043-.016-.069c.016-.037.043-.053.075-.074q.016-.007.026-.048l.026-.074q.19-.182.371-.37l1.011-1.038l-.02-.005q.127.002.253-.016a.4.4 0 0 0 .254.127"/><path fill="#ffb394" d="M11.577 9.226h.095c.005.01.016.01.021.01c.01 0 .016 0 .005.01l-.016.022a2 2 0 0 0-.116.116l-.106.106q-.574.578-1.149 1.154c0-.037.016-.1.032-.185a.23.23 0 0 0-.01-.122a.43.43 0 0 0-.149-.195a.07.07 0 0 1-.016-.096l.037-.037a.1.1 0 0 0 .016-.032a.24.24 0 0 0-.01-.158c-.006-.027-.027-.043-.043-.07q-.054-.1.027-.18a1 1 0 0 1 .212-.158a.3.3 0 0 1 .069-.027l.031-.005l.307-.09c.17-.053.35-.063.53-.063z"/><path fill="#ff8cab" d="M15.971 9.247c.005.01 0 .021-.005.032l-.334.35a.13.13 0 0 0-.085-.038a1 1 0 0 0-.169.01l-.021-.004c-.048-.043.085-.133.116-.149a1 1 0 0 1 .254-.132l.25-.069z"/><path fill="#ffaba2" d="m12.18 9.343l.095.01c.138 0 .265.01.397.037l.085.027q.181.062.355.085l.047.005v.01a.5.5 0 0 1-.196.265a1.6 1.6 0 0 1-.624.28q-.142.056-.26.128a.2.2 0 0 0-.053.053a.33.33 0 0 0-.015.174v.006l-.207.063a.3.3 0 0 0-.074.053c-.09.074-.164.175-.244.265a1 1 0 0 1-.143.138l-.164.137a.6.6 0 0 0-.122.133a.3.3 0 0 1-.116.116c-.069.043-.138.069-.148.159l-.005.106c-.006.074-.048.121-.09.18a.3.3 0 0 0-.043.069a.16.16 0 0 0 .01.116a.18.18 0 0 0 .09.106v.005l-.005.006l-.211.211v.032a10 10 0 0 1-.26-.116q-.23-.012-.46.02l-.238.027h-.239q.082-.09.16-.185l-.022-.01l.413-.032a.4.4 0 0 0 .159-.043l.143-.053q.023 0 .031-.016l.01-.01l-.004-.01c-.021-.033-.09-.054-.133-.064c-.053-.01-.1-.07-.053-.117q.106-.152.19-.317a.1.1 0 0 0 0-.053a1 1 0 0 0 .08-.08l.244-.243q.705-.71 1.413-1.42l.006-.01l.196-.2l.02-.022v-.01c-.01 0-.015 0-.015-.011"/><path fill="#e57b3a" d="M8.172 9.671c.053.064.1.138.106.222c0 .048 0 .117-.027.16l-.042.068a.6.6 0 0 0-.085.201l-.159.16H7.95a.32.32 0 0 0-.143-.154a.4.4 0 0 1-.138-.101c.111.01.233 0 .333-.042q.144-.063.143-.228c0-.074-.031-.18-.095-.228l.08-.084h.015z"/><path fill="#090906" d="M15.632 10.454c-.08.021-.165.016-.25.016h-.068c-.037.01-.106 0-.09-.053c.016-.048.053-.09.058-.148q.001-.066-.053-.059c-.031 0-.053.016-.074.032c-.026.016-.053.016-.085.01c-.068-.004-.153-.042-.19-.105a.13.13 0 0 1-.01-.08l.015-.063a.1.1 0 0 0-.01-.074l-.053-.058a.05.05 0 0 1-.006-.053q.007-.032.053-.032q.119.048.18.159a.1.1 0 0 1 .01.058v.106c-.004.026 0 .069.033.053q.166-.122.285-.291l.027-.053c.016-.053.063-.106.122-.1c.037.004.053.026.053.057a3 3 0 0 0-.16.424a.13.13 0 0 0 .022.095c.016.021.053.01.074 0c.053-.021.1-.047.154-.053a.45.45 0 0 1 .206-.016a1 1 0 0 1-.196.202a.3.3 0 0 1-.053.026z"/><path fill="#ff9a94" d="M12.635 9.968v.016l-1.97 1.974a.16.16 0 0 1-.01-.116a.2.2 0 0 1 .042-.069c.043-.053.085-.106.09-.18l.005-.106c.011-.09.08-.116.149-.159a.3.3 0 0 0 .116-.116a.6.6 0 0 1 .122-.133l.164-.137a1 1 0 0 0 .143-.138c.08-.09.159-.19.244-.265a.3.3 0 0 1 .074-.052a1 1 0 0 1 .211-.07c-.01-.052-.015-.126.011-.174a.2.2 0 0 1 .053-.053q.181-.11.386-.159l.175-.063z"/><path fill="#ff84b7" d="M14.88 10.146c.038.063.123.1.191.106a.15.15 0 0 0 .085-.01c.021-.017.042-.033.074-.033c.037-.005.058.016.053.053c0 .064-.042.106-.053.16c-.021.052.053.052.085.052l.069-.005c.084 0 .17.005.249-.016l-.064.08v-.016q0-.009 0 0h-.005q-.208.216-.424.423l-2.144 2.165c.005 0 .01.006 0 .01c-.106.027-.201.128-.286.229l-.159.19a1 1 0 0 1-.169.18a3.7 3.7 0 0 1-.741.519a2 2 0 0 1-.265.106a.7.7 0 0 1-.254.032l-.143-.011l-.132-.117q.115-.12.233-.238l.37-.376q1.72-1.73 3.442-3.457a.05.05 0 0 1-.011-.031z"/><path fill="#e27147" d="M8.125 10.321a1.1 1.1 0 0 0-.027.313c0 .031 0 .063-.01.09a1.4 1.4 0 0 1-.175.37a.6.6 0 0 0-.117.201q-.015.04.016.08l.037.042c.032.027-.01.053-.026.08a.16.16 0 0 0-.037.09l-.01.084l-.038.096a.4.4 0 0 0-.016.158c0 .016 0 .032.01.048c.033.069.054.148-.052.17c-.085.02-.175.042-.212.142a.3.3 0 0 0-.01.085c-.001.153.031.305.095.445h-.01l-.08.08H7.43q-.052-.208-.106-.414a.5.5 0 0 1 0-.212c.021-.116.106-.195.212-.238l.021-.01v-.011c0-.069 0-.132.01-.201a.3.3 0 0 1 .022-.058a.4.4 0 0 0 .037-.138l.005-.111c0-.159.032-.328.127-.46a.4.4 0 0 1 .07-.08c.094-.1.19-.26.158-.397a.5.5 0 0 0-.037-.085h.016z"/><path fill="#ffa288" d="M10.332 10.337a.25.25 0 0 1 .01.122l-.03.185l-.027.074q-.01.04-.027.048a.2.2 0 0 0-.074.074c-.005.027 0 .053.021.069c.064.032.085.127.048.19a.2.2 0 0 1-.053.054c-.021.015-.042.042-.026.068c.026.037.053.07.063.112v.053a3 3 0 0 1-.19.323c-.048.052 0 .105.052.116a.24.24 0 0 1 .133.064l.004.01l-.004.01a.1.1 0 0 1-.037.017l-.143.052a.5.5 0 0 1-.16.043a6 6 0 0 1-.799.021a.7.7 0 0 1-.254-.09l.244-.243h.005v-.006h.005v-.01l.106.047c.096.037.239.048.318-.042a.17.17 0 0 0 .026-.09a.56.56 0 0 0-.137-.307l-.005-.027v-.015q.46-.465.92-.927h.011z"/><path fill="#39423a" d="M8.792 11.015a.2.2 0 0 1 .026.11c-.005.054-.048.123-.111.096q-.04-.014-.048-.069v-.095a.2.2 0 0 1 .016-.048l.021-.02a.053.053 0 0 1 .07-.006z"/><path fill="#090906" d="M8.675 11.01a.4.4 0 0 0-.01.143c0 .037.015.053.042.069c.063.026.106-.037.106-.096a.2.2 0 0 0-.021-.11l.116.015c.027 0 .053.01.085.021l.137.058a.4.4 0 0 0-.189.003l-.012.008c-.031.048-.026.122-.02.175l.026.084a.33.33 0 0 0 .222.143c.063.01.127.016.19 0c.053-.005.09-.042.106-.1v-.027a.1.1 0 0 0-.042-.058v-.037a.6.6 0 0 1 .132.307c0 .037-.01.064-.031.09c-.075.09-.217.08-.318.042a1.6 1.6 0 0 1-.413-.296a4 4 0 0 1-.159-.18c-.063-.069-.037-.175.021-.233a.1.1 0 0 1 .032-.021"/><path fill="#ff8ecf" d="m16.495 11.068l.053.075l.016.052l.026.165l.064.508v.016c0-.011-.01-.006-.016.005l-.005.005q-.12.12-.244.238l-.005.016q.056-.352.026-.709l-.026-.106l-.016-.063c-.01-.043-.021-.106 0-.149a.08.08 0 0 1 .053-.032z"/><path fill="#002d1d" d="M9.13 11.11a.5.5 0 0 1 .096.054l.074.063c-.021.016-.037.027-.043.043a.3.3 0 0 0-.02.127c0 .063.073.084.126.068q.04-.002.048-.053v-.074q.03.022.042.059v.026q-.025.088-.106.106a.8.8 0 0 1-.19 0a.32.32 0 0 1-.223-.148a.2.2 0 0 1-.026-.085c0-.053-.01-.127.021-.175a.04.04 0 0 1 .027-.016a.5.5 0 0 1 .174.006"/><path fill="#39423a" d="M13.048 11.175a.66.66 0 0 1-.413.455c.01-.1.026-.201.016-.296a.1.1 0 0 0-.021-.053l-.085-.09q.25-.021.503-.016"/><path fill="#002d1d" d="M12.525 11.19c.005.085.01.165 0 .25c0 .036-.021.063-.048.084a.2.2 0 0 0-.074.08c-.032.084-.106.132-.196.158a.41.41 0 0 1-.434-.132a.7.7 0 0 1-.106-.159l.148-.063q.174-.073.355-.122l.021.11q.022.063.069.117q.055.057.132.043q.066-.013.074-.074a.44.44 0 0 0-.026-.191c-.01-.032-.063-.053-.095-.053l.02-.01z"/><path fill="#ddeee0" d="M12.345 11.232c.031.01.084.027.095.058a.5.5 0 0 1 .026.191c-.005.042-.031.063-.074.074a.14.14 0 0 1-.132-.042a.3.3 0 0 1-.07-.117l-.02-.11c0-.027-.01-.075.02-.075c.054 0 .107.01.155.021m-3.023-.01q.055.002.079.053l.005.026l.006.037v.074c-.006.032-.022.053-.053.053c-.048.016-.117 0-.122-.069c0-.048 0-.09.021-.127c.005-.016.021-.026.042-.042h.022z"/><path fill="#ff71d5" d="m16.384 11.333l.026.106l.01.254a3 3 0 0 1-.132.836h-.016q0-.008 0 0h-.01q-.316.333-.646.652l-.058.052l-.18.186a1 1 0 0 1-.085.085a1 1 0 0 1-.064.063a1 1 0 0 1-.127.127l-.053.053l-.116.116q-.304.298-.598.604q-.045.04-.085.085q-.095.087-.18.185h-.005a1 1 0 0 1-.085.085a1 1 0 0 1-.064.063l-.058.064a1 1 0 0 1-.069.069l-.053.053a1 1 0 0 1-.068.063l-.037.043q-.266.255-.52.524l-.063.063a1 1 0 0 1-.063.064l-.058.053l-.032.031a1.4 1.4 0 0 0-.122.122a1 1 0 0 0-.074.08l-.053.052q-.05.045-.096.096l-.063.063a.6.6 0 0 1-.17.17l-.015.016q-.105.102-.201.211l-.18.18l.015.006c-.105 0-.211 0-.317.01a5 5 0 0 0-.614.106a5 5 0 0 0-.286.117q.015-.008 0-.021l.413-.424h-.01a7 7 0 0 1 .55-.207l.074-.015q.078-.025.037-.106c-.021-.032-.053-.106.016-.117c.021-.005.047 0 .069-.016a.3.3 0 0 0 .127-.09l.159-.17a.6.6 0 0 1 .121-.105c.053-.021.122-.053.207-.074c.037-.016.11-.048.074-.1a.07.07 0 0 0-.069-.032a.08.08 0 0 1-.069-.032c-.026-.037.053-.08.08-.09a.2.2 0 0 1 .058-.01a.35.35 0 0 0 .185-.075l.085-.09c.058-.074.121-.138.19-.201a.3.3 0 0 1 .09-.064c.043-.02.07-.053.053-.106l-.01-.047a.19.19 0 0 1 .08-.223q.375-.255.73-.54a.5.5 0 0 0 .08-.084c.036-.053.052-.111.073-.17c.021-.069.043-.132.111-.164a.9.9 0 0 0 .281-.243l.053-.09l.021-.085l.043-.28l.015.015l.032-.032l.006-.02h.01q.846-.851 1.694-1.7z"/><path fill="#39423a" d="M11.62 11.497a.2.2 0 0 1 .058.09q.03.08-.027.154a.08.08 0 0 1-.053.037h-.053l-.159-.005q-.01-.088.07-.16a.6.6 0 0 1 .158-.116z"/><path fill="#ffb394" d="M8.009 11.576a.3.3 0 0 0 .09.074c.063.037.09.1.095.175l.016.122c.01.042.037.085.053.127a.2.2 0 0 1 .042.106v.074q0 .103.048.19l.058.117a1 1 0 0 0-.106.1l-.227.234a.6.6 0 0 0-.085-.18a1 1 0 0 1-.064-.117a.4.4 0 0 1-.031-.127a37 37 0 0 1 0-.784l.105-.11z"/><path fill="#ffa97e" d="m7.892 11.687l.005.138q-.003.322 0 .646c0 .042.016.09.032.127q.026.06.058.116l-.016.016l-.158.165h-.006q-.115.114-.233.227l.016-.153a.4.4 0 0 0-.031-.16a1.1 1.1 0 0 1-.106-.439a.2.2 0 0 1 .02-.084c.033-.101.123-.122.213-.143c.105-.022.079-.1.047-.17a.2.2 0 0 1-.01-.042a.4.4 0 0 1 .016-.164q.002-.024.037-.095a.3.3 0 0 1 .095 0l.021.02z"/><path fill="#cb2ea2" d="M16.75 11.793q.045.396.11.789c.027.217.053.44.07.662v.01h-.011v-.01l-.112.095l-.02-.334l-.133-1.122v-.016h.005v.005h.01l.054-.053l.01-.015z"/><path fill="#ff81e4" d="m16.653 11.884l.133 1.122l.02.334v.11v-.026h-.01l-.651.652q.032-.253.032-.45c0-.096-.01-.191 0-.281a4.5 4.5 0 0 1 .206-1.197v-.01l.006-.01v-.006h.005q0 .008 0 0h.01z"/><path fill="#ffaf9b" d="M8.84 11.952a.65.65 0 0 0 .254.09q.193.022.386.01l.022.005v.016a6 6 0 0 1-.16.17a2 2 0 0 1-.423-.075a.55.55 0 0 1-.227-.132c-.037-.037-.043-.085-.016-.132c.016-.027.053-.016.069 0a.4.4 0 0 1 .095.053z"/><path fill="#ffa6a9" d="m10.756 12.064l.053.015c.132.01.286.037.413.075c.042.01.074.031.111.047c.016 0 .032.01.043.016q.208.06.423.069l.01.005l.002.005l-.001.006l-.223.222a2.8 2.8 0 0 1-.582-.138a2 2 0 0 0-.291-.01a.5.5 0 0 1-.175-.058v-.032l.212-.212v-.005h.005z"/><path fill="#ffa288" d="M8.718 12.068c.063.048.127.08.201.106c.215.06.439.084.662.074c.074 0 .159-.016.238-.026l.01.005v.01l-.132.128v.005h.006q.016-.001.01.005a.7.7 0 0 0-.175.075a.4.4 0 0 0-.074.063a.1.1 0 0 0-.031.064a.3.3 0 0 0-.064.148v-.016q.001-.015-.005 0l-.73.725v.006h-.006l-.016.015a1 1 0 0 1-.117-.2a.35.35 0 0 1-.026-.16a6 6 0 0 0 0-.407a.3.3 0 0 0-.053-.127l-.063-.117h.005v-.016l.021-.01q.173-.173.344-.35z"/><path fill="#ff9a94" d="M10.54 12.317a.4.4 0 0 0 .174.053l.005.01h.005l.006.006l-.196.196h-.016c-.032-.053-.096-.064-.159-.07l-.159-.02a.2.2 0 0 0-.09-.075a1 1 0 0 0-.127-.042a.47.47 0 0 0-.265 0c0-.005 0-.01-.015 0v-.01l.127-.127v-.011l-.01-.005a2.4 2.4 0 0 1 .46-.022q.125.06.254.117z"/><path fill="#ff8ecf" d="m14.62 13.07l-.063.365a.5.5 0 0 1-.053.084a.9.9 0 0 1-.28.244c-.07.037-.09.1-.106.17c-.021.052-.043.121-.08.169a3 3 0 0 1-.275.248c-.17.128-.355.255-.53.376a.196.196 0 0 0-.084.223l.01.047c.016.053-.01.085-.052.106a.4.4 0 0 0-.09.064a2 2 0 0 0-.19.201c-.033.042-.065.069-.086.09a.35.35 0 0 1-.185.074a.2.2 0 0 0-.058.01c-.027.011-.106.054-.08.09a.1.1 0 0 0 .07.033c.026 0 .052.01.068.031c.037.053-.037.085-.074.1l-.207.075a.5.5 0 0 0-.121.106l-.16.17a.34.34 0 0 1-.126.09c-.021.01-.048.01-.07.015c-.062.01-.036.085-.015.117q.042.08-.037.106c-.027 0-.053.01-.074.015c-.18.059-.387.138-.55.201c-.059.022-.122.053-.18.07c-.075.02-.154.031-.234.042q-.172.009-.344-.006a5 5 0 0 1-.46-.211h-.006v-.01q.386-.397.779-.784a.4.4 0 0 0 .047-.053c.021 0 .053 0 .085-.011a.24.24 0 0 0 .132-.053l.561-.37l.085-.08l.265-.27c.08-.085.159-.164.212-.26c.016-.02.026-.042.02-.052c-.01-.085-.105-.053-.147-.027a.2.2 0 0 1-.043.016l-.016-.01c-.01 0-.015 0-.02-.011v-.005l1.455-1.467v-.016l.053-.01q.17-.096.36-.149l.212-.052l.164-.053a1 1 0 0 0 .339-.223a.6.6 0 0 0 .084-.106a1 1 0 0 1 .233-.227l-.037.159c-.042.2-.074.407-.106.608z"/><path fill="#ff959d" d="M10.714 12.37q.186 0 .37.032c.021 0 .042.01.074.021l.175.053l-1.34 1.345v.01h-.005a.8.8 0 0 1-.143-.164c-.026.1-.1.18-.201.19c-.122.017-.291-.02-.365.107a1.4 1.4 0 0 1-.376-.212v-.016l.01-.01v-.006l.032-.026l.614-.604l.01.021a.1.1 0 0 0 .027.053c.032.027.053.064.08.09l.084.053c.096.053.18.042.265-.021c.053-.037.064-.1.048-.159l-.016-.069c-.016-.095.032-.121.116-.116l.16.01l.11-.005a.15.15 0 0 0 .117-.132c0-.074 0-.159-.043-.228l.016-.005l.186-.201v-.006z"/><path fill="#c44950" d="m10.2 12.493l.158.021c.064.01.127.016.159.074c.038.078.05.165.037.25a1 1 0 0 1-.212.02c-.116 0-.233-.02-.344 0q-.022 0-.037.021c-.026.054-.069.138-.042.202a.11.11 0 0 1-.021.106c-.016.02-.043.026-.07.005l-.216-.133c-.021-.01-.032-.005-.037.006l-.122-.132a.28.28 0 0 1-.085-.207a.4.4 0 0 1 .064-.148a.3.3 0 0 1 .069-.048a.8.8 0 0 1 .211-.042l.133-.005c.116-.006.248 0 .36.01z"/><path fill="#ff64e9" d="M16.289 12.53c-.064.264-.106.54-.117.815v.28c0 .268-.035.536-.106.794l-.058.143l-.402.794c-.022.037-.043.08-.075.117a.8.8 0 0 0-.1.196a.6.6 0 0 0-.005.195c0 .075 0 .149-.038.212a.3.3 0 0 1-.095.09l-.17.138a.13.13 0 0 0-.031.09l.005.148q-.481.22-1 .323q-.654.134-1.313.233a.53.53 0 0 1-.424-.09a.6.6 0 0 0-.28-.09a2 2 0 0 0-.16-.016l.382-.392l.016-.016a1 1 0 0 0 .074-.074a1 1 0 0 0 .069-.068l.053-.053a1 1 0 0 0 .063-.064a1 1 0 0 0 .07-.069l.052-.053q.056-.05.106-.105a18.5 18.5 0 0 1 2.753-2.775l.058-.053q.061-.054.117-.116l.026-.032a22 22 0 0 0 .514-.503z"/><path fill="#ffaf9b" d="M8.41 12.562a.3.3 0 0 1 .054.127l.01.105l-.005.307a.4.4 0 0 0 .026.16q.047.101.117.195l.09.106l-.424.429l-.196-.291l-.063-.106a.4.4 0 0 1-.053-.18a.85.85 0 0 1 .1-.413a.2.2 0 0 0 .011-.106q.166-.167.334-.333"/><path fill="#ff9a94" d="M9.369 12.726c0 .079.037.148.085.206l.121.132a.1.1 0 0 0 0 .053c-.01-.005-.01-.016-.01-.02l-.005-.006h-.011l-.646.662a1 1 0 0 1-.201-.186l-.09-.11l.016-.017h.005l.73-.735c.006 0 0-.006 0 0z"/><path fill="#ffa288" d="M7.993 12.714a.6.6 0 0 1 .084.18q.008.065-.015.106a.9.9 0 0 0-.096.413c0 .063.021.121.053.18l.064.106l-.403.407c0-.01-.005-.01-.005-.005a.1.1 0 0 0-.01-.064a2 2 0 0 0-.112-.185a.24.24 0 0 1-.042-.095a1.2 1.2 0 0 1 .016-.397q.03-.116.053-.233v-.01h.01v-.006q.112-.105.223-.212h.005v-.016l.159-.153s0-.01.01-.016z"/><path fill="#df6953" d="M7.554 12.81a.35.35 0 0 1 .037.158l-.016.154q-.024.18-.069.355c-.01.1-.005.196.005.28a.2.2 0 0 0 .043.096c.042.063.08.121.106.185a.1.1 0 0 1 .01.069l-.016.047c-.047.096-.08.175-.1.276a1.7 1.7 0 0 0-.021.428c.005.043.02.075.042.122v.01H7.57l-.09.09v.011q-.009 0 0 0v.011a1.8 1.8 0 0 1-.085-.598c0-.059.01-.122.037-.18c.021-.053.048-.111.053-.17c.01-.053-.021-.074-.069-.09a1 1 0 0 0-.132-.042c.08-.053.164-.148.132-.254a1 1 0 0 0-.053-.127a.26.26 0 0 1-.01-.207l.052-.148a.56.56 0 0 0 .027-.392h.026l.085-.08h.016z"/><path fill="#090906" d="M10.555 12.836q-.025.088-.106.106a.4.4 0 0 1-.122.01l-.159-.01c-.08 0-.127.021-.111.116l.016.064c.016.063 0 .127-.053.164a.23.23 0 0 1-.26.021a.4.4 0 0 1-.084-.053l-.08-.09a.1.1 0 0 1-.026-.053v-.048c.01-.01.021-.015.042-.005l.064.037l.159.096c.02.02.047.015.063-.006a.11.11 0 0 0 .016-.106c-.021-.063.021-.148.053-.2c0-.017.016-.022.032-.027c.11-.016.227.01.344.005a1 1 0 0 0 .212-.021"/><path fill="#ff95c5" d="M13.313 13.122v.016l-1.456 1.467v.005l.016.01h.006l.016.011h-.016a.5.5 0 0 0-.233-.053a1.07 1.07 0 0 1-.668-.211h.144c.09.01.169 0 .254-.027a2 2 0 0 0 .264-.106a3.8 3.8 0 0 0 .911-.699l.159-.19c.084-.1.174-.201.291-.228a.5.5 0 0 1 .148-.005l.16.01z"/><path fill="#c51bbc" d="M16.93 13.244a4.6 4.6 0 0 1-.053 1.302a4.6 4.6 0 0 1-.477 1.075a1.6 1.6 0 0 1-.265.35c-.534.56-1.244.92-2.011 1.02q-.565.12-1.139.207v-.01l.006-.006l.016-.015v-.01h.015l.09-.096v-.006l-.01-.005q.501-.08.995-.185a4.5 4.5 0 0 0 1.006-.323q.255-.121.492-.28a2 2 0 0 0 .329-.276c.132-.132.248-.275.36-.429a2.6 2.6 0 0 0 .46-1.096q.08-.5.064-1.006v-.116l.106-.1h.005v.015h.005z"/><path fill="#ff75f6" d="M16.807 13.45a5.3 5.3 0 0 1-.063 1.011a2.6 2.6 0 0 1-.461 1.096a3.5 3.5 0 0 1-.36.43a1.8 1.8 0 0 1-.328.275a3.3 3.3 0 0 1-.498.28l-.005-.148q0-.05.032-.09q.085-.07.174-.138a.3.3 0 0 0 .09-.09a.4.4 0 0 0 .037-.212c0-.063-.01-.132.006-.196a.6.6 0 0 1 .1-.195c.032-.037.053-.08.074-.117c.143-.265.27-.53.403-.794l.063-.143c.037-.111.058-.233.074-.344l.652-.651h.005z"/><path fill="#ffa6a9" d="M8.702 13.566c.16.177.36.313.583.398a.3.3 0 0 0-.037.169q0 .045-.01.09c-.022.063-.086.09-.144.106a.65.65 0 0 1-.291.021a.3.3 0 0 0 .116.111c.085.043.202.01.286-.016a.2.2 0 0 0-.016.143c.011.032.032.053.07.053h.079q.078.009.1.09l-.164.159c-.005.01-.016.01-.032.01a.2.2 0 0 0-.068-.158h-.006a.6.6 0 0 1-.032.19a.4.4 0 0 0-.01.09l-.01-.015v.015H9.11l-.021.006l-.095.084l-.038-.09q-.104-.226-.243-.434l-.159-.206l-.275-.392z"/><path fill="#090906" d="M9.988 13.837a.13.13 0 0 0 .084.032c.122 0 .202-.005.297.027a.4.4 0 0 1 .111.052c.127.085.275.218.365.297l.133.117c.19.158.423.216.667.211c.079 0 .159.021.233.053l.005.01l-.122.027l-.307.027a1 1 0 0 1-.238-.032a29 29 0 0 0-1.101-.28a4.6 4.6 0 0 0-.72 0c-.064.015-.127.047-.19.068c-.086.027-.202.058-.287.016a.3.3 0 0 1-.116-.111c.106.01.196.005.29-.021c.064-.016.123-.043.144-.106a.3.3 0 0 0 .01-.09q0-.089.032-.17c.074-.127.244-.09.365-.105c.106-.011.175-.09.196-.191h.006c.042.058.084.122.143.17"/><path fill="#ff9a94" d="m8.082 13.7l.196.29l.275.392h-.01l-.847.852l-.122-.254c-.021-.053-.037-.08-.042-.121v-.053c-.011-.117 0-.244.02-.37a.9.9 0 0 1 .107-.281l.01-.053h.005v.005z"/><path fill="#a02c4d" d="M10.316 14.023a.9.9 0 0 1 .297.196l.19.222a2 2 0 0 0-.524-.132a4 4 0 0 0-.593-.021a5 5 0 0 1-.328.005c-.01-.064-.021-.212.042-.254a.3.3 0 0 1 .075-.043l.196-.053c.063-.01.137-.08.185-.127a.3.3 0 0 0 .212.127q.104.016.248.08"/><path fill="#f2518f" d="M11.884 14.635h.01a.2.2 0 0 0 .043-.02c.042-.027.137-.06.148.02c0 .016 0 .037-.016.059c-.064.095-.138.174-.212.259q-.173.176-.354.344c-.186.132-.371.249-.562.376a.3.3 0 0 1-.132.053a.8.8 0 0 1-.334-.01l-.45-.107a.2.2 0 0 1-.116-.074a.4.4 0 0 1-.058-.106l-.043-.1a.6.6 0 0 0-.2-.249c-.054-.042-.08-.085-.117-.138a.2.2 0 0 1-.037-.106c0-.037-.01-.068-.016-.106c-.01-.053-.048-.084-.106-.084l-.074-.006a.07.07 0 0 1-.044-.014a.07.07 0 0 1-.025-.038a.2.2 0 0 1 .016-.143c.063-.021.127-.053.19-.064l.096-.016q.313-.015.625.01l.264.06l.466.126c.122.037.249.069.37.095q.12.032.239.032q.216-.008.429-.053"/><path fill="#ff959d" d="M8.559 14.382q.078.104.159.206q.139.208.243.435l-.137.127h-.011l-.005.005v.01l-.09.085v.005a.1.1 0 0 1-.037.032a1 1 0 0 1-.064.064l-.048.047c-.01 0-.01 0-.01.01v.006l-.233.233H8.32l-.006.005v.011l-.227.222l-.223-.35l-.164-.3l.847-.848q0-.008 0 0h.006z"/><path fill="#ff8cab" d="m9.438 14.731l.016.106c0 .043.01.074.032.106c.042.053.074.096.121.138a.53.53 0 0 1 .201.249l.038.105l-.276.276h-.02c-.054-.053-.08-.111-.117-.19c-.022-.043-.053-.086-.106-.064q-.032.014-.016.053l.026.084c.01.027.016.053.016.096c0 .037.01.063.021.095c.016.032.037.053.064.053v.005h-.005l-.006.01l-.01.011l-.106.122l.053.106l-.053.053v.005h-.005v.01H9.3l-.243.244v.006l-.17.17l-.127-.022c-.174-.037-.307-.159-.423-.297c-.053-.063-.09-.132-.138-.195l-.111-.18l.222-.223v-.005l.006-.005h.01l.233-.239v-.005l.005-.01h.006l.053-.048l.037-.043a.1.1 0 0 1 .02-.02a.1.1 0 0 0 .033-.033h.005l.085-.09v-.01h.01l.01-.005l.133-.127l.037.09h.016l.106-.106c0 .005 0 .01.01.016c0 .026 0 .074.022.095c.058.058.106.127.153.201c.01.026.01.063.053.069v-.005a.26.26 0 0 0-.016-.202a.9.9 0 0 1-.095-.28l.032-.005l.159-.165z"/><path fill="#090906" d="M9.247 14.9q.016.137.09.281a.26.26 0 0 1 .016.201c-.043 0-.043-.037-.053-.063a1 1 0 0 0-.154-.201c-.021-.022-.021-.07-.021-.096c0-.031 0-.063.01-.095a.6.6 0 0 0 .032-.19c.053.042.07.105.074.163z"/><path fill="#da5a67" d="m7.574 14.98l.127.255q.17.34.387.65l.11.18v-.005h-.01l-.08.085a51 51 0 0 1-.634-1.043v-.01l.005-.01l.09-.086v-.016z"/><path fill="#ff95c5" d="M9.846 15.43a.4.4 0 0 0 .063.106a.2.2 0 0 0 .117.074q.284.05.56.127h.139q-.417.42-.826.847l-.032-.01q-.14-.078-.28-.149a.35.35 0 0 1-.107-.127a1.3 1.3 0 0 0-.11-.212l-.059-.1l-.001-.006l.001-.005l.127-.132q.14.017.28.01a1 1 0 0 1-.169-.148h.006v.005h.015z"/><path fill="#d4497e" d="M8.198 16.066c.048.063.09.132.143.196c.112.137.244.264.424.296l.122.021l.688.133a1 1 0 0 1-.117.116a10 10 0 0 0-.82-.159a.7.7 0 0 1-.387-.307l-.143-.217l.08-.084h.01z"/><path fill="#ff84b7" d="M9.369 16.093q.054.08.116.206a.25.25 0 0 0 .106.127a.5.5 0 0 0 .132.08l.143.069l-.063.053c-.006.01-.011.015-.006.02v.006h-.015l-.075.074v.01l-.127-.026l-.688-.132l.159-.17v-.005h.01l.239-.238v-.01h.01v-.006l.053-.058z"/><path fill="#ff79c9" d="m9.862 16.574l.037.016q.227.115.465.207l.064.01q.26.001.513-.053c.053-.01.122-.042.18-.063h.011v.01l-.413.424c.01 0 .01.01 0 .016a.185.185 0 0 1-.222-.037q-.166-.152-.36-.265a17 17 0 0 0-.434-.106l.005-.005l.069-.07h.016v-.004c0-.011 0-.016.01-.021z"/><path fill="#cf3a92" d="m9.58 16.712l.123.026q.22.05.439.106c.016 0 .042.021.085.053c.1.064.185.127.27.212q.095.087.222.032l.069-.027l.217-.09a5 5 0 0 1 .63-.095v.005c-.01 0-.016 0-.016.01v.006h-.01v.01l-.011.006h-.005a.03.03 0 0 0-.011.021h-.01l-.006.01c0 .006 0 .011-.01.011l.005.006q.008 0 0 0h-.005q-.011.014-.022.005h-.005v.005a2 2 0 0 0-.37.074l-.318.122a1 1 0 0 1-.233.043c-.085 0-.159-.011-.212-.08a.6.6 0 0 0-.206-.159l-.16-.053l-.571-.143c.042-.031.08-.074.122-.116"/><path fill="#cb2ea2" d="m11.936 16.907l.143.011c.1.01.201.032.286.09l.095.053a.5.5 0 0 0 .318.037q.167-.016.334-.037l-.096.095h-.005v.01l-.012.006l-.01.01h-.004v.017a15 15 0 0 1-.742.09c.027-.022.133-.143.064-.175l-.08-.027a2.3 2.3 0 0 0-.667-.074h-.005v-.005c.005 0 .01 0 .01-.01v-.006h.006l.01-.005c0-.01 0-.016.011-.021h.01v-.006l.006-.01h.01c0-.011 0-.016.011-.016h.006v-.005l-.011-.011q.16-.017.317-.01z"/><defs><linearGradient id="SVGfnxYytuN" x1="12" x2="12" y1="3" y2="21" gradientUnits="userSpaceOnUse"><stop stop-color="#12030f"/><stop offset=".15" stop-color="#9486d7"/><stop offset=".49" stop-color="#080106"/><stop offset=".76" stop-color="#6faee2"/><stop offset="1" stop-color="#000508"/></linearGradient><linearGradient id="SVGyM0TzdHn" x1="12.001" x2="12.001" y1="3" y2="21" gradientUnits="userSpaceOnUse"><stop stop-color="#864985"/><stop offset="1" stop-color="#202847"/></linearGradient><linearGradient id="SVGhJHMjbzb" x1="12" x2="12" y1="3" y2="21" gradientUnits="userSpaceOnUse"><stop stop-color="#73105f"/><stop offset="1" stop-color="#b8a3d4"/></linearGradient></defs></g></svg>