<svg version="1.1" viewBox="0 0 64 64" xmlns="http://www.w3.org/2000/svg">
 <g class="layer">
  <title>Layer 1</title>
  <g transform="rotate(90 24 24)" stroke-width="3">
   <rect transform="rotate(-90)" x="-46" y="2.0003" width="60" height="60" ry="10" fill="#00f"/>
   <path d="m9.5015 19.992c-0.018211 2.0623 1.0075 3.8838 2.5156 5.2383-0.25283 0.90573-0.51281 1.8145-0.51758 2.7578-0.06237 6.36 5.1416 11.563 11.5 11.508 6.3598 0.05534 11.565-5.1499 11.5-11.512v-0.48438h4.8789l2.5645 2.5645c-0.28375 0.58773-0.44336 1.2445-0.44336 1.9355 0 2.4675 2.0325 4.5 4.5 4.5s4.5-2.0325 4.5-4.5-2.0325-4.5-4.5-4.5c-0.69106 0-1.3478 0.15961-1.9355 0.44336l-3.4434-3.4434h-9.1211v3.5156c0.04797 4.7246-3.7598 8.5323-8.4844 8.4844h-0.03126c-4.7246 0.04798-8.5323-3.7597-8.4844-8.4844v-0.0078c0.0043-0.91302 0.17324-1.8193 0.5-2.6719l0.43946-1.1426-1.0332-0.6582c-1.202-0.76747-1.9201-2.0954-1.9062-3.5215v-0.0098c0.0028-1.1553 0.45821-2.244 1.2441-3.0508 1.6977 1.3446 3.7336 2.1954 5.8828 2.459 0.48504 2.5838 2.3394 4.7642 4.9023 5.6113l1.4238 0.4707 0.94141-2.8477-1.4238-0.4707c-1.796-0.59359-2.9916-2.2668-2.9707-4.1582v-0.03125l2e-3 -0.15234c0.03247-1.1921 0.56557-2.3163 1.4746-3.0957l1.1387-0.97656-1.9531-2.2773-1.1387 0.97656c-1.1995 1.0285-2.0168 2.414-2.3516 3.9297-1.8109-0.29003-3.4971-1.1427-4.8125-2.4531l-0.02344-0.02148c-1.5134-1.5916-2.3501-3.7085-2.336-5.9063v-0.02539c-0.04797-4.7246 3.7598-8.5323 8.4844-8.4844h1.5l0.33986-1.0293c0.59362-1.796 2.2668-2.9916 4.1582-2.9707h0.04492c2.5089-0.04731 4.52 1.9637 4.4727 4.4727l-0.02734 1.498 2.998 0.056641 0.0293-1.5c0.078495-4.163-3.3472-7.5903-7.5078-7.5234-2.8207-0.021121-5.3042 1.6317-6.5391 4.1055-6.0902 0.25317-11.007 5.2319-10.951 11.395-0.012904 2.4852 0.93704 4.7992 2.3984 6.7773l-0.22266 0.22266 0.05078 0.04883-2e-3 2e-3c-1.3116 1.3395-2.2188 3.0188-2.2246 4.9375zm21.998 1.5078h3v-4h11.26c0.62379 1.7401 2.2975 3 4.2402 3 2.4675 0 4.5-2.0325 4.5-4.5s-2.0325-4.5-4.5-4.5c-1.9427 0-3.6164 1.2599-4.2402 3h-14.26v5.5zm0-10h3v-4h6.1211l3.4434-3.4434c0.58773 0.28375 1.2445 0.44336 1.9355 0.44336 2.4675 0 4.5-2.0325 4.5-4.5 0-2.4675-2.0325-4.5-4.5-4.5s-4.5 2.0325-4.5 4.5c0 0.69106 0.15961 1.3478 0.44336 1.9355l-2.5645 2.5645h-7.8789v5.5zm13 20.5c0-0.35674 0.11663-0.67786 0.31445-0.93164l0.24805-0.24805c0.25461-0.20044 0.57819-0.32031 0.9375-0.32031 0.84619 0 1.5 0.65381 1.5 1.5s-0.65381 1.5-1.5 1.5-1.5-0.65381-1.5-1.5zm0-32c0-0.84619 0.65381-1.5 1.5-1.5s1.5 0.65381 1.5 1.5c0 0.84619-0.65381 1.5-1.5 1.5-0.36583 0-0.69454-0.12296-0.95117-0.33008l-0.23242-0.23438c-0.19927-0.25424-0.31641-0.57738-0.31641-0.93555zm4 16c0-0.84619 0.65381-1.5 1.5-1.5s1.5 0.65381 1.5 1.5-0.65381 1.5-1.5 1.5-1.5-0.65381-1.5-1.5z" fill="#fff" stop-color="#000000" stroke-linecap="square" stroke-miterlimit="10"/>
  </g>
 </g>
</svg>
