<svg width="40" height="40" viewBox="0 0 40 40" fill="none" xmlns="http://www.w3.org/2000/svg">
<path d="M11.2 40H28.8C34.9856 40 40 34.9856 40 28.8V11.2C40 5.01441 34.9856 0 28.8 0H11.2C5.01441 0 0 5.01441 0 11.2V28.8C0 34.9856 5.01441 40 11.2 40Z" fill="url(#paint0_linear_2663_7989)"/>
<mask id="mask0_2663_7989" style="mask-type:luminance" maskUnits="userSpaceOnUse" x="0" y="0" width="40" height="40">
<path d="M11.2 40H28.8C34.9856 40 40 34.9856 40 28.8V11.2C40 5.01441 34.9856 0 28.8 0H11.2C5.01441 0 0 5.01441 0 11.2V28.8C0 34.9856 5.01441 40 11.2 40Z" fill="white"/>
</mask>
<g mask="url(#mask0_2663_7989)">
<path d="M40.6721 30.08H-0.671941C-1.0961 30.08 -1.43994 30.4238 -1.43994 30.848V37.212C-1.43994 37.6361 -1.0961 37.98 -0.671941 37.98H40.6721C41.0962 37.98 41.4401 37.6361 41.4401 37.212V30.848C41.4401 30.4238 41.0962 30.08 40.6721 30.08Z" fill="#3C3C3C"/>
<path d="M3.1841 27.9C3.2921 27.848 3.4081 27.824 3.5281 27.824H35.9201C36.0281 27.824 36.1361 27.844 36.2321 27.888L41.1841 30.276H-1.1759L3.1841 27.9Z" fill="#9EA8B1"/>
<path d="M14.336 32.2839H5.788C5.47651 32.2839 5.224 32.5364 5.224 32.8479V34.9439C5.224 35.2554 5.47651 35.5079 5.788 35.5079H14.336C14.6475 35.5079 14.9 35.2554 14.9 34.9439V32.8479C14.9 32.5364 14.6475 32.2839 14.336 32.2839Z" fill="#9EA8B1"/>
<path d="M23.8041 35.7479H21.7881V34.4039H23.8041V35.7479ZM26.4881 35.7479H24.4761V34.4039H26.4881V35.7479ZM23.8041 33.7319H21.7881V32.3879H23.8041V33.7319ZM26.4881 33.7319H24.4721V32.3879H26.4881V33.7319Z" fill="#9EA8B1"/>
<path d="M31.192 35.7479H29.176V34.4039H31.192V35.7479ZM33.876 35.7479H31.86V34.4039H33.876V35.7479ZM36.56 35.7479H34.544V34.4039H36.56V35.7479ZM39.248 35.7479H37.232V34.4039H39.248V35.7479ZM31.192 33.7319H29.176V32.3879H31.192V33.7319ZM33.876 33.7319H31.86V32.3879H33.876V33.7319ZM36.56 33.7319H34.544V32.3879H36.56V33.7319ZM39.244 33.7319H37.228V32.3879H39.244V33.7319Z" fill="#9EA8B1"/>
<path d="M3.40802 32.9399C3.59359 32.9399 3.74402 32.7895 3.74402 32.6039C3.74402 32.4184 3.59359 32.2679 3.40802 32.2679C3.22245 32.2679 3.07202 32.4184 3.07202 32.6039C3.07202 32.7895 3.22245 32.9399 3.40802 32.9399Z" fill="#5FBF00"/>
<path d="M3.40802 34.2839C3.59359 34.2839 3.74402 34.1335 3.74402 33.9479C3.74402 33.7624 3.59359 33.6119 3.40802 33.6119C3.22245 33.6119 3.07202 33.7624 3.07202 33.9479C3.07202 34.1335 3.22245 34.2839 3.40802 34.2839Z" fill="#D3FF55"/>
<path d="M3.40802 35.6279C3.59359 35.6279 3.74402 35.4775 3.74402 35.2919C3.74402 35.1064 3.59359 34.9559 3.40802 34.9559C3.22245 34.9559 3.07202 35.1064 3.07202 35.2919C3.07202 35.4775 3.22245 35.6279 3.40802 35.6279Z" fill="#DEDEDE"/>
<path d="M19.8321 15.492L8.66406 7.77598C11.6281 5.73998 15.6521 4.59998 19.8321 4.59998C28.5161 4.59998 35.6641 9.51598 35.6641 15.492C35.6641 21.468 28.5161 26.384 19.8321 26.384C17.2641 26.384 14.7281 25.952 12.4561 25.132L19.8321 15.5V15.492Z" fill="url(#paint1_linear_2663_7989)"/>
<path d="M26.2441 8.57198C26.8321 8.57198 27.3081 8.24398 27.3081 7.83598C27.3081 7.42798 26.8321 7.09998 26.2441 7.09998C25.6561 7.09998 25.1801 7.42798 25.1801 7.83598C25.1801 8.24398 25.6561 8.57198 26.2441 8.57198Z" fill="#E10039"/>
<path d="M19.832 26.384C28.6442 26.384 35.788 21.5075 35.788 15.492C35.788 9.47649 28.6442 4.59998 19.832 4.59998C11.0197 4.59998 3.87598 9.47649 3.87598 15.492C3.87598 21.5075 11.0197 26.384 19.832 26.384Z" fill="url(#paint2_linear_2663_7989)"/>
<path d="M35.5881 15.4922C35.5881 12.5699 33.8529 9.90174 31.0018 7.95549C28.1517 6.00992 24.2031 4.80002 19.8319 4.80002C15.4608 4.80005 11.5124 6.00997 8.66235 7.95549C5.81123 9.90174 4.07603 12.5699 4.07603 15.4922C4.0761 18.4144 5.81129 21.0823 8.66235 23.0285C11.5124 24.9741 15.4608 26.184 19.8319 26.184C24.2031 26.184 28.1517 24.9741 31.0018 23.0285C33.8529 21.0823 35.5881 18.4144 35.5881 15.4922ZM35.9881 15.4922C35.9881 18.5854 34.151 21.3632 31.2272 23.359C28.3024 25.3555 24.2729 26.584 19.8319 26.584C15.3909 26.584 11.3614 25.3555 8.43657 23.359C5.51286 21.3632 3.6761 18.5853 3.67603 15.4922C3.67603 12.399 5.51279 9.6209 8.43657 7.62502C11.3614 5.62849 15.3909 4.40005 19.8319 4.40002C24.2729 4.40002 28.3024 5.62852 31.2272 7.62502C34.151 9.6209 35.9881 12.399 35.9881 15.4922Z" fill="url(#paint3_linear_2663_7989)"/>
<path d="M30.7479 15.716C30.7479 13.8254 29.5709 12.0687 27.574 10.7684C25.5804 9.47015 22.8059 8.65589 19.724 8.65588C16.6422 8.65588 13.8677 9.47016 11.874 10.7684C9.87721 12.0687 8.69983 13.8254 8.69983 15.716C8.69983 17.6067 9.87721 19.3634 11.874 20.6637C13.8677 21.9619 16.6422 22.7762 19.724 22.7762C22.8059 22.7762 25.5804 21.9619 27.574 20.6637C29.5709 19.3634 30.7479 17.6067 30.7479 15.716ZM31.428 15.716C31.428 17.9123 30.0613 19.8556 27.9451 21.2336C25.8259 22.6136 22.9183 23.4559 19.724 23.4559C16.5298 23.4559 13.6222 22.6136 11.503 21.2336C9.38683 19.8556 8.02014 17.9123 8.02014 15.716C8.02014 13.5198 9.38683 11.5764 11.503 10.1985C13.6222 8.81846 16.5298 7.9762 19.724 7.9762C22.9183 7.97621 25.8259 8.81844 27.9451 10.1985C30.0613 11.5764 31.428 13.5198 31.428 15.716Z" fill="url(#paint4_linear_2663_7989)"/>
<path d="M26.044 15.2719C26.044 14.2425 25.3953 13.2637 24.2491 12.5258C23.1065 11.7902 21.5077 11.3239 19.7241 11.3239C17.9405 11.3239 16.3413 11.7902 15.1987 12.5258C14.0526 13.2637 13.4039 14.2425 13.4038 15.2719C13.4038 16.3013 14.0525 17.2804 15.1987 18.0184C16.3413 18.754 17.9405 19.2199 19.7241 19.2199C21.5076 19.2199 23.1066 18.754 24.2491 18.0184C25.3953 17.2804 26.044 16.3013 26.044 15.2719ZM26.7241 15.2719C26.7241 16.6106 25.8817 17.7759 24.6175 18.5899C23.3497 19.4061 21.6186 19.9 19.7241 19.9C17.8296 19.9 16.0986 19.4061 14.8308 18.5899C13.5665 17.7759 12.7241 16.6107 12.7241 15.2719C12.7242 13.9332 13.5665 12.7679 14.8308 11.9539C16.0986 11.1377 17.8297 10.6442 19.7241 10.6442C21.6186 10.6442 23.3497 11.1377 24.6175 11.9539C25.8817 12.7679 26.7241 13.9332 26.7241 15.2719Z" fill="url(#paint5_linear_2663_7989)"/>
<path fill-rule="evenodd" clip-rule="evenodd" d="M8.46407 7.77596C8.60807 7.56796 8.89207 7.51196 9.10007 7.65596L20.0921 15.116C20.3001 15.26 20.3561 15.544 20.2121 15.752C20.0681 15.96 19.7841 16.016 19.5761 15.872L8.58407 8.41196C8.37607 8.26796 8.32007 7.98396 8.46407 7.77596Z" fill="white"/>
<path d="M19.832 16.8521C20.928 16.8521 21.816 16.2441 21.816 15.4921C21.816 14.7401 20.928 14.1321 19.832 14.1321C18.736 14.1321 17.848 14.7401 17.848 15.4921C17.848 16.2441 18.736 16.8521 19.832 16.8521Z" fill="#0ADFFF"/>
<path d="M17.08 9.276C18.064 9.276 18.864 8.728 18.864 8.052C18.864 7.376 18.064 6.828 17.08 6.828C16.096 6.828 15.296 7.376 15.296 8.052C15.296 8.728 16.096 9.276 17.08 9.276Z" fill="#E10039"/>
<path d="M30.064 19.472C30.652 19.472 31.128 19.144 31.128 18.736C31.128 18.328 30.652 18 30.064 18C29.476 18 29 18.328 29 18.736C29 19.144 29.476 19.472 30.064 19.472Z" fill="white"/>
</g>
<defs>
<linearGradient id="paint0_linear_2663_7989" x1="19.684" y1="18.952" x2="11.564" y2="-7.844" gradientUnits="userSpaceOnUse">
<stop stop-color="#06063D"/>
<stop offset="1" stop-color="#636379"/>
</linearGradient>
<linearGradient id="paint1_linear_2663_7989" x1="12.2801" y1="13.704" x2="24.0241" y2="16.492" gradientUnits="userSpaceOnUse">
<stop stop-color="#0ADFFF"/>
<stop offset="1" stop-color="#03FFE7" stop-opacity="0"/>
</linearGradient>
<linearGradient id="paint2_linear_2663_7989" x1="19.2955" y1="15.576" x2="10.2422" y2="27.5826" gradientUnits="userSpaceOnUse">
<stop stop-color="white" stop-opacity="0"/>
<stop offset="0.34" stop-color="white" stop-opacity="0.02"/>
<stop offset="1" stop-color="#835DED" stop-opacity="0.77"/>
</linearGradient>
<linearGradient id="paint3_linear_2663_7989" x1="18.4819" y1="15.968" x2="13.7692" y2="22.2289" gradientUnits="userSpaceOnUse">
<stop stop-color="#0ADFFF"/>
<stop offset="1" stop-color="white" stop-opacity="0"/>
</linearGradient>
<linearGradient id="paint4_linear_2663_7989" x1="11.274" y1="18.928" x2="19.1211" y2="12.6792" gradientUnits="userSpaceOnUse">
<stop stop-color="white" stop-opacity="0"/>
<stop offset="1" stop-color="#0BDFFF"/>
</linearGradient>
<linearGradient id="paint5_linear_2663_7989" x1="21.3376" y1="14.5288" x2="12.441" y2="23.588" gradientUnits="userSpaceOnUse">
<stop stop-color="#0ADEFF"/>
<stop offset="1" stop-color="white" stop-opacity="0"/>
</linearGradient>
</defs>
</svg>
