<?xml version="1.0" encoding="utf-8"?>
<!-- Generator: Adobe Illustrator 25.0.0, SVG Export Plug-In . SVG Version: 6.00 Build 0)  -->
<svg version="1.1" id="圖層_1" xmlns="http://www.w3.org/2000/svg" xmlns:xlink="http://www.w3.org/1999/xlink" x="0px" y="0px"
	 viewBox="0 0 100 100" style="enable-background:new 0 0 100 100;" xml:space="preserve">
<style type="text/css">
	.st0{fill-rule:evenodd;clip-rule:evenodd;fill:url(#Rectangle_1_);}
	.st1{fill-rule:evenodd;clip-rule:evenodd;fill:url(#Path-3_1_);}
	.st2{fill-rule:evenodd;clip-rule:evenodd;fill:url(#Path-2-Copy-8_1_);}
	.st3{fill-rule:evenodd;clip-rule:evenodd;fill:url(#Path-2-Copy-3_1_);}
	.st4{opacity:0.29;enable-background:new    ;}
	.st5{opacity:0.33;enable-background:new    ;}
	.st6{opacity:0.38;enable-background:new    ;}
	.st7{fill-rule:evenodd;clip-rule:evenodd;fill:url(#face_1_);}
	.st8{fill:url(#Path_7_);}
	.st9{fill-rule:evenodd;clip-rule:evenodd;fill:#BBE5C5;}
	.st10{fill-rule:evenodd;clip-rule:evenodd;fill:url(#Path_8_);}
	.st11{fill-rule:evenodd;clip-rule:evenodd;fill:url(#Path_9_);}
	.st12{fill-rule:evenodd;clip-rule:evenodd;fill:url(#Path_10_);}
	.st13{fill:#FFFFFF;}
	.st14{fill-rule:evenodd;clip-rule:evenodd;fill:url(#Path_11_);}
</style>
<g id="Qufirewall_100">
	<g id="app_icon_qts_1">
		
			<linearGradient id="Rectangle_1_" gradientUnits="userSpaceOnUse" x1="1.0028" y1="100.0205" x2="3.305169e-02" y2="99.0172" gradientTransform="matrix(100 0 0 -100 0 10000)">
			<stop  offset="3.167230e-04" style="stop-color:#A42525"/>
			<stop  offset="6.839056e-02" style="stop-color:#A32525"/>
			<stop  offset="1" style="stop-color:#3E0000"/>
		</linearGradient>
		<path id="Rectangle" class="st0" d="M18.4,0h63.1C91.7,0,100,8.3,100,18.4v63.1c0,10.2-8.3,18.4-18.4,18.4H18.4
			C8.3,100,0,91.7,0,81.6V18.4C0,8.3,8.3,0,18.4,0z"/>
		
			<linearGradient id="Path-3_1_" gradientUnits="userSpaceOnUse" x1="0.1324" y1="99.7735" x2="0.8399" y2="99.2502" gradientTransform="matrix(58.7633 0 0 -72.0802 13.1313 7226.7539)">
			<stop  offset="0" style="stop-color:#CD6161"/>
			<stop  offset="0.99" style="stop-color:#C44C4C"/>
		</linearGradient>
		<polygon id="Path-3" class="st1" points="13.1,18.7 13.1,56.7 71.9,90.8 71.9,52.6 		"/>
		
			<linearGradient id="Path-2-Copy-8_1_" gradientUnits="userSpaceOnUse" x1="0.199" y1="99.6538" x2="0.8589" y2="99.315" gradientTransform="matrix(73.7958 0 0 -43.3818 13.1313 4347.3525)">
			<stop  offset="0" style="stop-color:#FBB3B3"/>
			<stop  offset="1" style="stop-color:#F49A9A"/>
		</linearGradient>
		<polygon id="Path-2-Copy-8" class="st2" points="13.1,18.7 71.9,52.6 86.9,43 28.2,9.2 		"/>
		
			<linearGradient id="Path-2-Copy-3_1_" gradientUnits="userSpaceOnUse" x1="0.9193" y1="99.226" x2="1.705226e-02" y2="99.8146" gradientTransform="matrix(15.0325 0 0 -47.8306 71.8946 4826.0474)">
			<stop  offset="0" style="stop-color:#812323"/>
			<stop  offset="0.8125" style="stop-color:#430E0E"/>
		</linearGradient>
		<polygon id="Path-2-Copy-3" class="st3" points="71.9,90.8 71.9,52.6 86.9,43 86.9,81.3 		"/>
		<path class="st4" d="M68.8,89.1l-0.1-8.7l3.1,1.8v-1.3l-12.7-7.2v-8.4l9.2,5.2l0.5,0.3l3,1.7V71l-3-1.7v-8l3,1.7v-1.3l-12.6-7.2
			v-9.3l-1.1-0.6v9.3l-15.3-8.6v-9.5l-1.1-0.6v9.4l-15.2-8.7v-9.5l-1.1-0.6v9.4l-12.3-7.1v1.3l2.7,1.5v8.2l-2.7-1.6V39l2.7,1.5H16
			l9.3,5.3v8.3l-12.1-6.9v1.3l2.7,1.5v8.1l1.2,0.7v-8.1l15.3,8.8v8.2l1.1,0.6v-8.2l15.2,8.7v8.4l1.1,0.6v-8.4l17.9,10.4v8.5
			L68.8,89.1z M49.8,50.4l17.9,10.3v8L49.8,58.5V50.4z M33.4,41l15.2,8.7v8.1l-15.2-8.6V41z M17.1,39.9v-8.2l15.2,8.6v8.2L17.1,39.9
			z M41.6,63.5l-15.2-8.7v-8.3l5.9,3.3v0.1h0.2l9.1,5.2V63.5z M58.1,72.9l-15.3-8.7v-8.4l15.3,8.7V72.9z"/>
		<polygon class="st5" points="71.9,63 86.9,53 86.9,51.7 71.9,61.7 		"/>
		<polygon class="st5" points="71.9,72.4 86.9,62.4 86.9,61 71.9,71 		"/>
		<polygon class="st5" points="71.9,82.1 86.9,72.2 86.9,70.8 71.9,80.8 		"/>
		<g>
			<polygon class="st6" points="57.3,25.9 56.3,25.3 41.6,35.2 42.7,35.8 			"/>
			<polygon class="st6" points="73.9,35.5 72.8,34.8 58.2,44.7 59.2,45.3 			"/>
			<polygon class="st6" points="25.4,25.8 26.4,26.4 41.1,16.6 40,16 			"/>
		</g>
		
			<linearGradient id="face_1_" gradientUnits="userSpaceOnUse" x1="0.3561" y1="100.0242" x2="0.6953" y2="99.0549" gradientTransform="matrix(34.6991 0 0 -43.2748 19.108 4360.5107)">
			<stop  offset="0" style="stop-color:#61ED82"/>
			<stop  offset="0.5365" style="stop-color:#3EC257"/>
			<stop  offset="1" style="stop-color:#058D1A"/>
		</linearGradient>
		<path id="face" class="st7" d="M36.1,75.8C28,66.9,23.2,59.7,21.5,54.3C20,49,19.1,42,19.1,33.5v-0.4l17.3,3.4l17.3,16.9v0.9
			c-0.1,8.3-0.9,14.2-2.5,17.6c-1.7,3.5-6.6,5-14.9,4.5L36.1,75.8z"/>
		
			<linearGradient id="Path_7_" gradientUnits="userSpaceOnUse" x1="0.439" y1="99.7419" x2="0.8603" y2="98.8904" gradientTransform="matrix(42.9522 0 0 -50.2547 18.0935 5052.9243)">
			<stop  offset="0" style="stop-color:#6EB878"/>
			<stop  offset="0.3321" style="stop-color:#94EF9A"/>
			<stop  offset="0.6636" style="stop-color:#27522D"/>
			<stop  offset="1" style="stop-color:#101F13"/>
		</linearGradient>
		<path id="Path" class="st8" d="M42.2,30.8l-17.3-3.4c-0.3-0.1-2.3,1.2-6.1,3.8l0,0c-0.4,0.3-0.7,0.8-0.6,1.3
			c1.5,9.8,2.8,16.5,3.9,20.1c1.7,5.6,4.7,12.4,12.5,21.2c0.1,0.1,1.4,1.4,1.5,1.5l1.4,0.1c0.3,0.4-1.2,2-0.8,2
			c0.1,0,3.6,0.2,3.7,0.2c8.7,0.7,16.4-5.4,18.2-9.2C60.1,64.9,61,59,61,50.5v-0.9c0-0.5-0.3-1.1-0.7-1.5L43,31.3
			C42.7,31,42.4,30.9,42.2,30.8z M36.1,36.3l17.3,16.8c-0.1,8.2-0.1,12.7-1.7,16l-0.1,0.2c-1.6,3-6,4.4-13.4,4h-0.3l0.2,0.2
			C30.3,64.8,25.6,58,24.1,53L24,52.7c-1.4-4.9-2.2-11.3-2.3-19v-0.8L36.1,36.3z"/>
		<polygon id="Path-27" class="st9" points="37.1,75.3 39.8,68.5 53.5,69.8 48,75.3 		"/>
		
			<linearGradient id="Path_8_" gradientUnits="userSpaceOnUse" x1="0.3561" y1="100.0242" x2="0.6953" y2="99.0549" gradientTransform="matrix(34.6991 0 0 -43.2748 19.108 4360.5107)">
			<stop  offset="0" style="stop-color:#61ED82"/>
			<stop  offset="0.5365" style="stop-color:#3EC257"/>
			<stop  offset="1" style="stop-color:#058D1A"/>
		</linearGradient>
		<path id="Path_1_" class="st10" d="M36.1,75.8C28,66.9,23.2,59.7,21.5,54.3C20,49,19.1,42,19.1,33.5v-0.4l17.3,3.4l17.3,16.9v0.9
			c-0.1,8.3-0.9,14.2-2.5,17.6c-1.7,3.5-6.6,5-14.9,4.5L36.1,75.8z"/>
		<path id="Path_2_" class="st9" d="M51.5,69.6l2,0.2L48,75.3H35.6l2.2-2l0.1,0.1h0.3C45.5,73.8,49.9,72.5,51.5,69.6z"/>
		
			<linearGradient id="Path_9_" gradientUnits="userSpaceOnUse" x1="0.4167" y1="100.001" x2="0.5719" y2="98.9535" gradientTransform="matrix(18.6225 0 0 -42.2115 19.3429 4254.231)">
			<stop  offset="0" style="stop-color:#2D713C"/>
			<stop  offset="1" style="stop-color:#7DB385"/>
		</linearGradient>
		<path id="Path_3_" class="st11" d="M19.3,33.1l2.4,0.5v0.2c0.1,7.4,0.8,13.5,2.1,18.4l0.2,0.6l0.1,0.3c1.4,4.8,5.7,11.2,12.9,19.2
			l1,1.1l-2,1.9l-1.3-1.4c-0.1-0.1-0.1-0.1-0.1-0.1C26.7,65,23.7,58.2,22,52.6l-0.2-0.7c-0.7-2.6-1.6-6.6-2.5-11.9V33.1z"/>
		
			<linearGradient id="Path_10_" gradientUnits="userSpaceOnUse" x1="0.1528" y1="99.7756" x2="1.0722" y2="99.1997" gradientTransform="matrix(42.8598 0 0 -26.7288 18.1123 2700.3413)">
			<stop  offset="0" style="stop-color:#EEEEEE"/>
			<stop  offset="0.2947" style="stop-color:#BCF1C0"/>
			<stop  offset="0.4364" style="stop-color:#7CC281"/>
			<stop  offset="1" style="stop-color:#4A9E51"/>
			<stop  offset="1" style="stop-color:#4A9E51"/>
			<stop  offset="1" style="stop-color:#26D033"/>
		</linearGradient>
		<path id="Path_4_" class="st12" d="M24.8,27.5L24.8,27.5l17.4,3.4c0.2,0,0.4,0.2,0.7,0.3l0.2,0.1l17.3,16.9c0.3,0.3,0.5,0.7,0.7,1
			l-7.5,5v-1L36.3,36.6l-0.6-0.9l-17.6-3.5c0.1-0.3,0.2-0.6,0.4-0.8l0.1-0.1l2.1-1.4C23.2,28.3,24.5,27.5,24.8,27.5z"/>
		<path id="white-frame" class="st13" d="M36.1,35.1l-17.3-3.4c-0.4-0.1-0.7,0.2-0.7,0.6v0.4c0,8.7,0.9,15.8,2.5,21.3
			c1.7,5.7,6.6,13,14.7,21.9l0.8,0.8c0.3,0.4,0.7,0.6,1,0.6c8.5,0.6,13.6-1,15.4-4.8C54.2,69,55,63,55,54.6v-0.9
			c0-0.5-0.3-1.1-0.7-1.5L36.9,35.6C36.6,35.3,36.3,35.1,36.1,35.1z M36.5,37.6l16.2,15.8v0.1c-0.1,8.2-0.9,13.9-2.4,17.2l-0.1,0.2
			c-1.6,3-6,4.4-13.4,4h-0.3l0.2,0.2c-7.8-8.7-12.5-15.5-14-20.5l-0.1-0.3c-1.4-4.9-2.2-11.3-2.3-19v-0.8L36.5,37.6z"/>
		
			<linearGradient id="Path_11_" gradientUnits="userSpaceOnUse" x1="6.379113e-02" y1="99.5047" x2="0.8387" y2="99.4891" gradientTransform="matrix(19.4779 0 0 -11.1442 27.0284 1164.4987)">
			<stop  offset="0" style="stop-color:#43A458"/>
			<stop  offset="1" style="stop-color:#7DB385"/>
		</linearGradient>
		<polygon id="Path_5_" class="st14" points="44.4,52.7 46.5,56.1 35,61.2 27,51.6 28.5,51 30.6,50.1 35,56.9 		"/>
		<polygon id="Path_6_" class="st13" points="42.9,53.5 45,56.9 33.5,62 27,51.6 29.1,50.8 33.5,57.6 		"/>
	</g>
</g>
</svg>
