<svg xmlns="http://www.w3.org/2000/svg" xmlns:xlink="http://www.w3.org/1999/xlink" width="100" height="100" viewBox="0 0 100 100">
  <defs>
    <linearGradient id="qvr_face_lite_icon-b" x1="71.861%" x2="31.527%" y1="86.432%" y2="14.582%">
      <stop offset="0%" stop-color="#4994D1" stop-opacity="0"/>
      <stop offset="49.836%" stop-color="#4EF1FF"/>
      <stop offset="58.599%" stop-color="#0084EF"/>
      <stop offset="70.289%" stop-color="#0085F1"/>
      <stop offset="100%" stop-color="#0087F3"/>
    </linearGradient>
    <linearGradient id="qvr_face_lite_icon-c" x1="99.068%" x2="50%" y1="50%" y2="50%">
      <stop offset="0%" stop-color="#0079D8"/>
      <stop offset="87.186%" stop-color="#0079D8"/>
      <stop offset="100%" stop-color="#0079D8" stop-opacity="0"/>
    </linearGradient>
    <radialGradient id="qvr_face_lite_icon-d" cx="54.811%" cy="0%" r="50%" fx="54.811%" fy="0%" gradientTransform="matrix(0 1 -1.17293 0 .548 -.548)">
      <stop offset="0%" stop-color="#0079D8"/>
      <stop offset="69.848%" stop-color="#2EA4EB" stop-opacity=".44"/>
      <stop offset="100%" stop-color="#2EA4EB" stop-opacity="0"/>
    </radialGradient>
    <rect id="qvr_face_lite_icon-a" width="100" height="100" x="0" y="0" rx="20"/>
    <linearGradient id="qvr_face_lite_icon-e" x1="-54.103%" x2="121.331%" y1="0%" y2="100%">
      <stop offset="0%" stop-color="#FFF" stop-opacity=".104"/>
      <stop offset="100%" stop-color="#FFF"/>
    </linearGradient>
    <linearGradient id="qvr_face_lite_icon-f" x1="10.5%" x2="78.417%" y1="40.359%" y2="59.641%">
      <stop offset="0%" stop-color="#838383" stop-opacity=".913"/>
      <stop offset="100%" stop-color="#3C3C3C" stop-opacity=".9"/>
    </linearGradient>
    <linearGradient id="qvr_face_lite_icon-i" x1="66.818%" x2="40.492%" y1="51.995%" y2="48.005%">
      <stop offset="0%" stop-color="#ECECEC"/>
      <stop offset="100%" stop-color="#FFF"/>
    </linearGradient>
    <path id="qvr_face_lite_icon-h" d="M7.62344272,0.00347391779 L69.1864446,0.0346087762 C71.78397,0.186572087 74.2483294,0.834268259 76.4862854,1.88445987 L74.3182292,15.2108714 L2.89654734,15.2108714 L0.344937714,1.51732258 C2.59351514,0.584974422 5.04903147,0.0510102067 7.62344272,0.00347391779 Z"/>
    <filter id="qvr_face_lite_icon-g" width="103.9%" height="119.7%" x="-2%" y="-9.9%" filterUnits="objectBoundingBox">
      <feOffset in="SourceAlpha" result="shadowOffsetOuter1"/>
      <feGaussianBlur in="shadowOffsetOuter1" result="shadowBlurOuter1" stdDeviation=".5"/>
      <feColorMatrix in="shadowBlurOuter1" values="0 0 0 0 0.575600553   0 0 0 0 0.575600553   0 0 0 0 0.575600553  0 0 0 0.5 0"/>
    </filter>
    <linearGradient id="qvr_face_lite_icon-j" x1="100%" x2="7.248%" y1="61.418%" y2="61.418%">
      <stop offset="0%" stop-color="#979898"/>
      <stop offset="100%" stop-color="#8D8C8C"/>
    </linearGradient>
    <linearGradient id="qvr_face_lite_icon-k" x1="-58.167%" x2="67.755%" y1="-34.628%" y2="113.852%">
      <stop offset="0%" stop-color="#D3D3D3"/>
      <stop offset="100%" stop-color="#F2F2F2"/>
    </linearGradient>
    <linearGradient id="qvr_face_lite_icon-l" x1="107.994%" x2="50%" y1="27.993%" y2="100%">
      <stop offset="0%" stop-color="#FAFAFA" stop-opacity=".031"/>
      <stop offset="100%" stop-color="#F2F2F2"/>
    </linearGradient>
    <linearGradient id="qvr_face_lite_icon-m" x1="15.35%" x2="84.65%" y1="0%" y2="100%">
      <stop offset="0%" stop-color="#FFF"/>
      <stop offset="100%" stop-color="#FFF" stop-opacity="0"/>
    </linearGradient>
    <linearGradient id="qvr_face_lite_icon-n" x1="13.234%" x2="89.831%" y1="26.518%" y2="85.642%">
      <stop offset="0%" stop-color="#FFE1C8"/>
      <stop offset="100%" stop-color="#FFB681"/>
    </linearGradient>
    <filter id="qvr_face_lite_icon-o" width="157.6%" height="156.1%" x="-28.8%" y="-28%" filterUnits="objectBoundingBox">
      <feGaussianBlur in="SourceGraphic" stdDeviation="1.331"/>
    </filter>
    <filter id="qvr_face_lite_icon-p" width="157.6%" height="156.1%" x="-28.8%" y="-28%" filterUnits="objectBoundingBox">
      <feGaussianBlur in="SourceGraphic" stdDeviation="1.331"/>
    </filter>
    <filter id="qvr_face_lite_icon-q" width="112.6%" height="143.9%" x="-6.3%" y="-21.9%" filterUnits="objectBoundingBox">
      <feGaussianBlur in="SourceGraphic" stdDeviation=".566"/>
    </filter>
    <filter id="qvr_face_lite_icon-r" width="112.6%" height="149.1%" x="-6.3%" y="-24.6%" filterUnits="objectBoundingBox">
      <feGaussianBlur in="SourceGraphic" stdDeviation=".566"/>
    </filter>
    <filter id="qvr_face_lite_icon-s" width="135.8%" height="161.3%" x="-17.9%" y="-30.7%" filterUnits="objectBoundingBox">
      <feGaussianBlur in="SourceGraphic" stdDeviation="1.331"/>
    </filter>
    <filter id="qvr_face_lite_icon-t" width="122.9%" height="163.1%" x="-11.5%" y="-33%" filterUnits="objectBoundingBox">
      <feGaussianBlur in="SourceGraphic" stdDeviation=".566"/>
    </filter>
    <filter id="qvr_face_lite_icon-u" width="122.9%" height="181.6%" x="-11.5%" y="-42.2%" filterUnits="objectBoundingBox">
      <feGaussianBlur in="SourceGraphic" stdDeviation=".566"/>
    </filter>
  </defs>
  <g fill="none" fill-rule="evenodd">
    <use fill="#0086F3" xlink:href="#qvr_face_lite_icon-a"/>
    <use fill="url(#qvr_face_lite_icon-b)" xlink:href="#qvr_face_lite_icon-a"/>
    <use fill="url(#qvr_face_lite_icon-c)" xlink:href="#qvr_face_lite_icon-a"/>
    <use fill="url(#qvr_face_lite_icon-d)" xlink:href="#qvr_face_lite_icon-a"/>
    <path fill="#FFF" fill-rule="nonzero" d="M51.0538965,0.15551987 L51.053,11.0585199 L73.1427668,11.0589201 C81.772216,11.0589201 88.7677668,18.0544709 88.7677668,26.6839201 L88.767,49.5305199 L100,49.531007 L100,50.468507 L88.767,50.4675199 L88.7677668,73.3153502 C88.7677668,81.9447994 81.772216,88.9403502 73.1427668,88.9403502 L51.053,88.9395199 L51.0538965,99.8437504 L50.1163965,99.8437504 L50.116,88.9395199 L26.5454634,88.9403502 C17.9160142,88.9403502 10.9204634,81.9447994 10.9204634,73.3153502 L10.92,50.4675199 L0,50.468507 L0,49.531007 L10.92,49.5305199 L10.9204634,26.6839201 C10.9204634,18.0544709 17.9160142,11.0589201 26.5454634,11.0589201 L50.116,11.0585199 L50.1163965,0.15551987 L51.0538965,0.15551987 Z M23.244,50.4675199 L12.482,50.4675199 L12.4829634,73.3153502 C12.4829634,80.9769017 18.6099468,87.2074196 26.2314226,87.3744129 L26.5454634,87.3778502 L50.116,87.3775199 L50.116,76.9465199 L38.8699864,76.9466099 C30.2405372,76.9466099 23.2449864,69.9510592 23.2449864,61.3216099 L23.244,50.4675199 Z M87.205,50.4675199 L76.755,50.4675199 L76.7552571,61.3216099 C76.7552571,69.9510592 69.7597063,76.9466099 61.1302571,76.9466099 L51.053,76.9465199 L51.053,87.3775199 L73.1427668,87.3778502 C80.8043183,87.3778502 87.0348362,81.2508668 87.2018295,73.6293909 L87.2052668,73.3153502 L87.205,50.4675199 Z M36.817,50.4675199 L24.807,50.4675199 L24.8074864,61.3216099 C24.8074864,68.9831615 30.9344698,75.2136794 38.5559456,75.3806726 L38.8699864,75.3841099 L50.116,75.3835199 L50.116,63.0835199 L44.4738123,63.0837154 C40.2453822,63.0837154 36.8175623,59.6558955 36.8175623,55.4274654 L36.817,50.4675199 Z M75.192,50.4675199 L62.87,50.4675199 L62.8706679,55.4274654 C62.8706679,59.6558955 59.442848,63.0837154 55.2144179,63.0837154 L51.053,63.0835199 L51.053,75.3835199 L61.1302571,75.3841099 C68.7918086,75.3841099 75.0223265,69.2571265 75.1893197,61.6356507 L75.1927571,61.3216099 L75.192,50.4675199 Z M50.116,50.4675199 L38.38,50.4675199 L38.3800623,55.4274654 C38.3800623,58.718162 40.9884182,61.3996445 44.2504136,61.5171965 L44.4738123,61.5212154 L50.116,61.5205199 L50.116,50.4675199 Z M61.308,50.4675199 L51.053,50.4675199 L51.053,61.5205199 L55.2144179,61.5212154 C58.5051145,61.5212154 61.186597,58.9128595 61.3041489,55.6508641 L61.3081679,55.4274654 L61.308,50.4675199 Z M50.116,12.6205199 L26.5454634,12.6214201 C18.8839119,12.6214201 12.653394,18.7484035 12.4864007,26.3698793 L12.4829634,26.6839201 L12.482,49.5305199 L23.244,49.5305199 L23.2449864,38.989186 C23.2449864,30.3597368 30.2405372,23.364186 38.8699864,23.364186 L50.116,23.3635199 L50.116,12.6205199 Z M73.1427668,12.6214201 L51.053,12.6205199 L51.053,23.3635199 L61.1302571,23.364186 C69.7597063,23.364186 76.7552571,30.3597368 76.7552571,38.989186 L76.755,49.5305199 L87.205,49.5305199 L87.2052668,26.6839201 C87.2052668,19.0223686 81.0782834,12.7918507 73.4568076,12.6248574 L73.1427668,12.6214201 Z M50.116,24.9265199 L38.8699864,24.926686 C31.2084349,24.926686 24.977917,31.0536694 24.8109237,38.6751453 L24.8074864,38.989186 L24.807,49.5305199 L36.817,49.5305199 L36.8175623,44.5718049 C36.8175623,40.3433748 40.2453822,36.9155549 44.4738123,36.9155549 L50.116,36.9155199 L50.116,24.9265199 Z M61.1302571,24.926686 L51.053,24.9265199 L51.053,36.9155199 L55.2144179,36.9155549 C59.442848,36.9155549 62.8706679,40.3433748 62.8706679,44.5718049 L62.87,49.5305199 L75.192,49.5305199 L75.1927571,38.989186 C75.1927571,31.3276345 69.0657737,25.0971166 61.4442978,24.9301234 L61.1302571,24.926686 Z M50.116,38.4775199 L44.4738123,38.4780549 C41.1831157,38.4780549 38.5016332,41.0864108 38.3840813,44.3484062 L38.3800623,44.5718049 L38.38,49.5305199 L50.116,49.5305199 L50.116,38.4775199 Z M55.2144179,38.4780549 L51.053,38.4775199 L51.053,49.5305199 L61.308,49.5305199 L61.3081679,44.5718049 C61.3081679,41.2811082 58.699812,38.5996258 55.4378166,38.4820738 L55.2144179,38.4780549 Z" opacity=".201"/>
    <g opacity=".226">
      <path fill="#FFF" fill-rule="nonzero" d="M27.5,7.10542736e-15 L27.5,100 L27,100 L27,7.10542736e-15 L27.5,7.10542736e-15 Z M20.5,-7.10542736e-15 L20.5,100 L20,100 L20,-7.10542736e-15 L20.5,-7.10542736e-15 Z M14.5,7.10542736e-15 L14.5,100 L14,100 L14,7.10542736e-15 L14.5,7.10542736e-15 Z M7.5,7.10542736e-15 L7.5,100 L7,100 L7,7.10542736e-15 L7.5,7.10542736e-15 Z M34.5,7.10542736e-15 L34.5,100 L34,100 L34,7.10542736e-15 L34.5,7.10542736e-15 Z M40.5,-7.10542736e-15 L40.5,100 L40,100 L40,-7.10542736e-15 L40.5,-7.10542736e-15 Z M47.5,7.10542736e-15 L47.5,100 L47,100 L47,7.10542736e-15 L47.5,7.10542736e-15 Z M54.5,7.10542736e-15 L54.5,100 L54,100 L54,7.10542736e-15 L54.5,7.10542736e-15 Z M62.5,-7.10542736e-15 L62.5,100 L62,100 L62,-7.10542736e-15 L62.5,-7.10542736e-15 Z M0.5,7.10542736e-15 L0.5,100 L0,100 L6.66133815e-16,7.10542736e-15 L0.5,7.10542736e-15 Z" opacity=".251" transform="translate(18)"/>
    </g>
    <g opacity=".226">
      <path fill="#FFF" fill-rule="nonzero" d="M47.5,2 L47.5,99.5 L47,99.5 L47,2 L47.5,2 Z M27.5,2.13162821e-14 L27.5,97.5 L27,97.5 L27,2.13162821e-14 L27.5,2.13162821e-14 Z M20.5,2.13162821e-14 L20.5,97.5 L20,97.5 L20,2.13162821e-14 L20.5,2.13162821e-14 Z M14.5,1.42108547e-14 L14.5,97.5 L14,97.5 L14,1.42108547e-14 L14.5,1.42108547e-14 Z M7.5,2.13162821e-14 L7.5,97.5 L7,97.5 L7,2.13162821e-14 L7.5,2.13162821e-14 Z M0.5,1.42108547e-14 L0.5,97.5 L-4.20330437e-13,97.5 L-4.54747351e-13,1.42108547e-14 L0.5,1.42108547e-14 Z M33.5,2.84217094e-14 L33.5,97.5 L33,97.5 L33,2.84217094e-14 L33.5,2.84217094e-14 Z M40.5,0 L40.5,97.5 L40,97.5 L40,0 L40.5,0 Z" opacity=".247" transform="rotate(-90 37 37)"/>
    </g>
    <ellipse cx="17.815" cy="34.326" fill="#FFF" opacity=".613" rx="1.266" ry="1.266"/>
    <g transform="translate(22.196 83.684)">
      <ellipse cx="3.602" cy="3.602" fill="#FFF" opacity=".674" rx="1.46" ry="1.46"/>
      <ellipse cx="3.505" cy="3.505" stroke="url(#qvr_face_lite_icon-e)" stroke-width=".5" opacity=".613" rx="3.505" ry="3.505"/>
    </g>
    <ellipse cx="50.526" cy="50.681" fill="#FFF" opacity=".89" rx="2.239" ry="2.239"/>
    <ellipse cx="83.664" cy="34.287" fill="#FFF" opacity=".613" rx="1.266" ry="1.266"/>
    <g transform="translate(12)">
      <path fill="url(#qvr_face_lite_icon-f)" d="M67.3716518,18.3984375 C65.4322174,32.7860567 53.1752045,43.8827605 38.3492384,43.8827605 C23.5323848,43.8827605 11.2753719,32.7860567 9.3359375,18.3984375 L67.3716518,18.3984375 Z"/>
      <use fill="#000" filter="url(#qvr_face_lite_icon-g)" xlink:href="#qvr_face_lite_icon-h"/>
      <use fill="url(#qvr_face_lite_icon-i)" xlink:href="#qvr_face_lite_icon-h"/>
      <path fill="url(#qvr_face_lite_icon-j)" d="M71.7598868,15.1450376 C71.7598868,17.0839064 70.1902234,18.6480021 68.2687252,18.6480021 L8.22330446,18.6480021 C6.30180622,18.6480021 4.73214286,17.0839064 4.73214286,15.1450376 L71.7598868,15.1450376 Z"/>
      <polygon fill="url(#qvr_face_lite_icon-k)" points="17.527 15.16 8.86 15.16 6.113 .039 16.501 .039"/>
      <g transform="translate(54.453 22.305)">
        <path fill="url(#qvr_face_lite_icon-l)" d="M2.82694119,5.859375 C1.26076879,5.859375 0,4.54379018 0,2.92361183 C0,1.31315455 1.26076879,0 2.82694119,0 C4.39311359,0 5.6640625,1.31315455 5.6640625,2.92361183 C5.6640625,4.54379018 4.39311359,5.859375 2.82694119,5.859375 Z" opacity=".183"/>
        <path fill="#2FF043" d="M2.82863788,4.8828125 C1.78452294,4.8828125 0.944010417,4.00575595 0.944010417,2.92563705 C0.944010417,1.85199887 1.78452294,0.9765625 2.82863788,0.9765625 C3.87275281,0.9765625 4.72005208,1.85199887 4.72005208,2.92563705 C4.72005208,4.00575595 3.87275281,4.8828125 2.82863788,4.8828125 Z"/>
      </g>
      <path stroke="url(#qvr_face_lite_icon-m)" stroke-linecap="round" stroke-linejoin="round" stroke-width="1.764" d="M14.8046875,22.4602141 C17.0524885,28.6997865 20.7023177,33.0841393 25.7541753,35.6132725" opacity=".1"/>
    </g>
    <g opacity=".1" transform="translate(40.04 18.71)">
      <circle cx="10.84" cy="10.84" r="10.84" fill="#000"/>
      <circle cx="10.938" cy="10.938" r="7.813" stroke="#E7E7E7" stroke-width="1.25"/>
      <circle cx="10.923" cy="10.923" r="3.286" fill="#D8D8D8"/>
      <circle cx="6.235" cy="6.626" r="1.357" fill="#D8D8D8"/>
      <circle cx="14.937" cy="14.155" r="1" fill="#FFF"/>
    </g>
    <g transform="translate(37 53)">
      <path fill="url(#qvr_face_lite_icon-n)" d="M29.4562782,4.68265427 C33.8578534,3.23218334 38.2001323,4.19847601 41.891987,6.5860362 C42.89039,7.23160721 43.7940566,8.00647818 44.4925372,8.92086512 C45.065085,9.67035078 46.1452641,10.8839954 46.2388537,11.8258315 C46.5747896,11.8258315 46.8255086,14.4993375 46.8407628,14.807057 C46.8645043,15.2852501 46.6905149,20.8906557 46.7718323,20.8826067 C47.1096033,20.8490692 47.2208556,20.0137275 47.7773463,19.945827 C48.309522,19.880919 48.6925968,20.269438 48.8919333,20.6627039 C49.3519672,21.5695578 48.9648781,22.8340762 48.7822868,23.7785953 C48.599122,24.726623 47.1981463,29.9711651 45.3411511,28.3129681 C45.1535133,28.4818939 45.2202647,29.4990603 45.1989318,29.6658191 C45.1232343,30.259278 45.0218457,30.8630561 44.8761855,31.4452671 C44.5873884,32.5983378 44.2006434,33.4094293 43.8574818,34.6473241 C43.5310654,35.8248514 42.9399374,36.2984008 42.8934867,37.9296647 C42.8523119,39.3750792 45.1234637,40.3372442 46.450233,41.0164559 C48.6677395,42.151529 51.0220632,43.2342171 53.4429577,44.060612 C50.4040907,45.9247693 46.8276121,47 43,47 L0.844784239,46.9993167 C1.67150748,46.6778946 2.69353489,46.5073688 3.43494221,46.3137293 C4.98857429,45.9081835 6.57546735,45.6129504 8.13942181,45.2416645 C12.1089483,44.2990028 15.7580225,42.8681384 19.3599578,41.0925086 C21.0964106,40.2365285 24.4069165,39.4376137 24.4978681,37.5442414 C24.5723039,35.9930548 23.9171772,34.6114131 23.3613747,33.1569177 C23.0314028,32.2936109 22.7632504,31.4846865 22.6030242,30.5818571 C22.4747974,29.8598206 22.5273268,28.9717477 22.2071038,28.3067765 C20.8666861,30.2622706 19.08103,24.9323884 18.9253915,24.3042569 C18.6624004,23.2434401 17.7189353,21.0972467 18.8502676,20.3817113 C20.1160201,19.5812486 20.2307131,20.406787 20.7710321,20.8780662 C20.8319341,20.9311071 20.7811251,17.8488563 20.7622007,17.4741651 C20.702331,16.2932324 20.6087414,15.1292233 20.7829602,13.9497354 C20.9618814,12.7389801 21.3825755,11.5788923 21.9959539,10.4924838 C23.5376579,7.76149966 26.2923556,5.72541244 29.4562782,4.68265427 Z"/>
      <ellipse cx="28.636" cy="36.581" fill="#FFC2A2" filter="url(#qvr_face_lite_icon-o)" opacity=".65" rx="6.925" ry="7.121" transform="scale(-1 1) rotate(20 0 -125.82)"/>
      <ellipse cx="37.642" cy="36.581" fill="#FFC2A2" filter="url(#qvr_face_lite_icon-p)" opacity=".65" rx="6.925" ry="7.121" transform="scale(-1 1) rotate(20 0 -176.897)"/>
      <path fill="#FFB893" d="M43.2220309,22.3364663 C49.7602935,22.3396349 55.2584747,27.6530307 55.2579379,25.9815945 C55.2574011,24.3101583 46.0073493,18.5654654 39.4690866,18.5622968 C32.930824,18.5591282 28.2214257,19.6864583 28.2219625,21.3578946 C28.2224992,23.0293308 36.6837682,22.3332977 43.2220309,22.3364663 Z" filter="url(#qvr_face_lite_icon-q)" opacity=".15" transform="rotate(89 41.74 22.435)"/>
      <path fill="#FFB893" d="M26.4038854,20.8912903 C32.9421286,20.89435 38.4404484,25.6391531 38.4398629,24.1466401 C38.4392774,22.6541272 29.1890855,17.5240642 22.6508422,17.5210045 C16.1125989,17.5179448 11.4032475,18.524431 11.403833,20.0169439 C11.4044186,21.5094569 19.8656421,20.8882306 26.4038854,20.8912903 Z" filter="url(#qvr_face_lite_icon-r)" opacity=".15" transform="scale(-1 1) rotate(86 0 -5.746)"/>
      <path fill="#FFE3CD" d="M44.7735704,7.78643399 C44.7530327,4.94086618 37.3510264,3.80712711 34.563266,3.78666653 C31.7755055,3.76620594 22.4497245,10.1673939 22.4508943,15.3300196 C22.452064,20.4926454 44.7941082,10.6320018 44.7735704,7.78643399 Z" filter="url(#qvr_face_lite_icon-s)" opacity=".5" transform="scale(-1 1) rotate(22 0 -162.626)"/>
      <path fill="#FFB48E" d="M23.6652154,24.293478 C23.6652154,24.293478 31.1844663,28.5200813 30.8702573,25.8222083 C30.5560482,23.1243353 25.4860083,21.6962585 22.0344554,21.7274977 C18.5829026,21.758737 16.0889164,22.5241186 16.0775224,23.6233226 C16.0661283,24.7225266 23.6652154,24.293478 23.6652154,24.293478 Z" filter="url(#qvr_face_lite_icon-t)" opacity=".35" transform="matrix(0 1 1 0 -.82 .82)"/>
      <path fill="#FFB48E" d="M44.0093465,24.2949412 C44.0093465,24.2949412 51.5285974,27.596975 51.2143884,25.4892617 C50.9001793,23.3815484 45.8301394,22.2658634 42.3785865,22.2902691 C38.9270337,22.3146747 36.4330475,22.9126291 36.4216535,23.7713822 C36.4102594,24.6301353 44.0093465,24.2949412 44.0093465,24.2949412 Z" filter="url(#qvr_face_lite_icon-u)" opacity=".35" transform="rotate(90 43.824 24.3)"/>
      <path fill="#FFF" d="M53.6976626,34.0597714 L53.6978108,38.78275 L53.7148108,38.7821597 L53.7148108,40.4515685 L53.6978108,40.45175 L53.6976626,40.46875 L52.0304906,40.46875 L52.0308108,40.45175 L47.3133588,40.4515685 L47.3133588,38.7821597 L52.0308108,38.78275 L52.0304906,34.0597714 L53.6976626,34.0597714 Z M14.8086795,34.0291576 L14.8080892,38.7466095 L19.5310679,38.7462894 L19.5310679,40.4134614 L14.8080892,40.4136095 L14.8086795,40.4306095 L13.1392707,40.4306095 L13.1390892,40.4136095 L13.1220892,40.4134614 L13.1220892,38.7462894 L13.1390892,38.7466095 L13.1392707,34.0291576 L14.8086795,34.0291576 Z M53.7357293,1.60064045 L53.7359108,1.61764045 L53.7529108,1.61778865 L53.7529108,3.28496065 L53.7359108,3.28464045 L53.7357293,8.00209244 L52.0663205,8.00209244 L52.0669108,3.28464045 L47.3439321,3.28496065 L47.3439321,1.61778865 L52.0669108,1.61764045 L52.0663205,1.60064045 L53.7357293,1.60064045 Z M14.8445094,1.5625 L14.8441892,1.5795 L19.5616412,1.57968145 L19.5616412,3.24909028 L14.8441892,3.2485 L14.8445094,7.97147863 L13.1773374,7.97147863 L13.1771892,3.2485 L13.1601892,3.24909028 L13.1601892,1.57968145 L13.1771892,1.5795 L13.1773374,1.5625 L14.8445094,1.5625 Z"/>
    </g>
  </g>
</svg>
