<svg xmlns="http://www.w3.org/2000/svg" width="100" height="100" viewBox="0 0 100 100">
  <defs>
    <linearGradient id="qvr_center-a" x1="50%" x2="50%" y1="-26.514%" y2="100%">
      <stop offset="0%" stop-color="#B12418"/>
      <stop offset="100%" stop-color="#6B1A0E"/>
    </linearGradient>
    <linearGradient id="qvr_center-b" x1="0%" x2="100%" y1=".17%" y2="99.83%">
      <stop offset="0%" stop-color="#A72D22"/>
      <stop offset="100%" stop-color="#80281D"/>
    </linearGradient>
    <linearGradient id="qvr_center-c" x1="50%" x2="50%" y1="36.684%" y2="70.114%">
      <stop offset="17%" stop-color="#F7941E"/>
      <stop offset="32%" stop-color="#F89D1B"/>
      <stop offset="56%" stop-color="#FAB513"/>
      <stop offset="86%" stop-color="#FDDD07"/>
      <stop offset="100%" stop-color="#FFF200"/>
    </linearGradient>
    <linearGradient id="qvr_center-d" x1="50.003%" x2="50.003%" y1="30.208%" y2="67.035%">
      <stop offset="17%" stop-color="#BF3A00"/>
      <stop offset="44%" stop-color="#C84200"/>
      <stop offset="87%" stop-color="#E05900"/>
      <stop offset="100%" stop-color="#E96100"/>
    </linearGradient>
    <linearGradient id="qvr_center-e" x1="0%" x2="100%" y1="50.004%" y2="50.004%">
      <stop offset="17%" stop-color="#FFD055"/>
      <stop offset="100%" stop-color="#F15A29"/>
    </linearGradient>
    <linearGradient id="qvr_center-f" x1="63.315%" x2="29.885%" y1="50%" y2="50%">
      <stop offset="0%" stop-color="#F7941E"/>
      <stop offset="100%" stop-color="#FFD600"/>
    </linearGradient>
    <linearGradient id="qvr_center-g" x1="49.997%" x2="49.997%" y1="100%" y2="0%">
      <stop offset="17%" stop-color="#FFD055"/>
      <stop offset="100%" stop-color="#DB4700"/>
    </linearGradient>
    <linearGradient id="qvr_center-h" x1="69.793%" x2="32.965%" y1="50.002%" y2="50.002%">
      <stop offset="17%" stop-color="#E15816"/>
      <stop offset="35%" stop-color="#E56118"/>
      <stop offset="64%" stop-color="#EF791F"/>
      <stop offset="100%" stop-color="#FFA12A"/>
    </linearGradient>
  </defs>
  <g fill="none" fill-rule="evenodd">
    <rect width="100" height="100" fill="url(#qvr_center-a)" rx="20"/>
    <path fill="url(#qvr_center-b)" d="M80,0 C91.045695,-2.02906125e-15 100,8.954305 100,20 L100,80 C100,86.9087113 96.4970021,92.9992536 91.1702766,96.5923565 C41.8546684,47.5054909 12.5462767,18.3328789 3.24398457,9.07368241 C6.81472419,3.61091789 12.9856746,1.28851068e-15 20,0 L80,0 Z"/>
    <g fill-rule="nonzero" transform="translate(7.813 16.25)">
      <g transform="translate(0 .025)">
        <rect width="9.703" height="9.703" x="9.727" y="35.784" fill="#FFF799"/>
        <polygon fill="url(#qvr_center-c)" points=".021 26.165 9.727 35.78 9.727 55.153 .021 45.381"/>
        <polygon fill="url(#qvr_center-d)" points="29.017 26.153 41.151 38.238 41.151 67.345 29.015 55.14"/>
        <polygon fill="#FFDE17" points=".021 45.381 9.727 55.153 .021 64.87"/>
        <polygon fill="#EA7706" points="9.727 55.153 29.015 55.153 41.133 67.33 21.81 67.33"/>
        <polygon fill="url(#qvr_center-e)" points="29.017 35.8 9.767 35.8 .021 26.165 29.017 26.165"/>
        <g fill="#FFF" transform="translate(0 26.16)" style="mix-blend-mode:overlay">
          <polygon points="19.408 29.071 19.387 29.071 19.326 29.01 19.326 19.353 19.325 19.351 19.326 19.346 19.326 19.327 19.334 19.327 19.368 19.247 19.408 19.247 19.469 19.308 19.469 29.01"/>
          <polygon points="9.744 29.071 9.704 29.071 9.643 29.01 9.643 28.971 9.747 28.927 9.787 28.967"/>
          <path d="M9.70489907,19.3885093 L0.0610281749,19.3885093 L-4.4408921e-15,19.3274811 L-4.4408921e-15,0.0439970563 L0.104315601,0.000709629941 L9.74747687,9.60058347 L9.76592725,9.6438709 L9.76592725,19.3274811 L9.70489907,19.3885093 Z M0.12489487,19.2657433 L9.6438709,19.2657433 L9.6438709,9.66941758 L0.12205635,0.190890454 L0.12489487,19.2657433 Z"/>
          <path d="M19.3707685 19.3686396L9.70489907 19.3686396 9.6438709 19.3076114 9.6438709 9.6438709 9.7481865 9.60058347 19.4112174 19.264324 19.3707685 19.3686396zM9.76876577 19.2465833L19.220327 19.2465833 9.76592725 9.79147393 9.76876577 19.2465833zM19.3445122 38.6968303L9.74179983 29.0529594 9.78508726 28.9493534 19.3877996 28.9493534 19.4488278 29.0103816 19.4488278 38.6535429 19.3445122 38.6968303zM9.93269029 29.0714098L19.3274811 38.5059399 19.3274811 29.0714098 9.93269029 29.0714098z"/>
          <path d="M21.7678984 41.1187973L19.3913478 38.7429563 19.4346352 38.6386407 21.8111859 38.6386407 21.872214 38.6996688 21.872214 41.0762195 21.7678984 41.1187973zM19.5836575 38.760697L21.751577 40.9286165 21.751577 38.760697 19.5836575 38.760697zM41.0769291 41.1471825L38.7436659 41.1471825 38.6826377 41.0861543 38.6826377 38.7507622 38.7862437 38.7074748 41.1223455 41.0428669 41.0769291 41.1471825zM38.8061133 41.0251262L40.9350032 41.0251262 38.8061133 38.8962363 38.8061133 41.0251262z"/>
          <path d="M41.0329321 41.1606655L38.6975399 38.7841148 38.741537 38.6805088 41.0769291 38.6805088 41.1379573 38.741537 41.1379573 41.117378 41.0329321 41.1606655zM38.8855919 38.8054037L41.0144817 40.9711943 41.0144817 38.8054037 38.8855919 38.8054037zM41.0698328 12.1637668L38.7344407 12.1637668 38.6734125 12.1027386 38.6734125 9.76734651 38.7777281 9.72405908 41.1131203 12.0601608 41.0698328 12.1637668zM38.799017 12.0417105L40.9279069 12.0417105 38.799017 9.91282065 38.799017 12.0417105zM9.66161165 29.0125105L.0177407485 19.3686396.0610281749 19.264324 9.70489907 19.264324 9.76592725 19.3260618 9.76592725 28.9706423 9.66161165 29.0125105zM.210760093 19.3885093L9.64883831 28.8265875 9.64883831 19.3885093.210760093 19.3885093zM9.66161165 9.73044575L.0184503785.130571909.0610281749.0262563078 9.70489907.0262563078 9.76592725.0872844828 9.76592725 9.68715833 9.66161165 9.73044575zM.210760093.145474138L9.64883831 9.54026493 9.64883831.145474138.210760093.145474138z"/>
          <path d="M.104315601 38.6968303L0 38.6535429 0 19.2742588.104315601 19.2309714 9.79431245 28.9209683 9.79431245 29.0068335.104315601 38.6968303zM.12205635 19.4218619L.12205635 38.5059399 9.66445017 28.9642557.12205635 19.4218619zM29.0557979 9.69567389L9.76734651 9.69567389 9.73541316 9.68573907 9.6722561 9.64670942 9.6438709 9.59490643 9.6438709.0858652229 9.70489907.0248370479 29.0557979.0248370479 29.1168261.0858652229 29.1168261 9.63393608 29.0557979 9.69567389zM9.78508726 9.57290791L28.9947698 9.57290791 28.9947698.145474138 9.76379836.145474138 9.76379836 9.5608442 9.78508726 9.57290791zM41.0705425 38.8139193L38.747214 38.8139193 38.6861859 38.7528911 38.6861859 12.2219565 38.6954111 12.1353816 38.7564392 12.0814497 41.0698328 12.0814497 41.130861 12.1424779 41.130861 38.7536007 41.0705425 38.8139193zM38.8082422 38.6918629L41.008095 38.6918629 41.008095 12.2035061 38.8146289 12.2035061 38.8110807 12.2318913 38.8082422 38.6918629z"/>
          <path d="M38.7386985,29.0714098 L29.0877313,29.0714098 L29.0401861,29.047992 L29.0089624,29.0082527 L28.9954794,28.9706423 L28.9954794,19.3076114 L29.0565076,19.2465833 L38.7386985,19.2465833 L38.7997267,19.3076114 L38.7997267,29.0125105 L38.7386985,29.0714098 Z M29.1168261,28.9493534 L38.6776703,28.9493534 L38.6776703,19.3693492 L29.1168261,19.3693492 L29.1168261,28.9493534 Z"/>
          <path d="M29.0557979,19.3686396 L19.4048307,19.3686396 L19.3615433,19.3508989 L19.321804,19.3111596 L19.3040633,19.2678722 L19.3040633,9.63393608 L19.3650915,9.57290791 L29.0557979,9.57290791 L29.1168261,9.63393608 L29.1168261,19.3076114 L29.0557979,19.3686396 Z M19.4325063,19.2465833 L28.9947698,19.2465833 L28.9947698,9.69567389 L19.4289582,9.69567389 L19.4289582,19.2423255 L19.4325063,19.2465833 Z"/>
          <path d="M38.6592199 9.74889613L29.0926987 9.74889613 29.0494113 9.73115538 29.009672 9.69141611 28.9919312 9.64812868 28.9919312.130571909 29.0962468.0872844828 38.7025074 9.64458053 38.6592199 9.74889613zM29.1210839 9.62683978L38.5116169 9.62683978 29.1168261.272497897 29.1168261 9.62329163 29.1210839 9.62683978zM38.6954111 38.7713415L29.0643135 29.0586365 29.1076009 28.9543209 38.7507622 28.9543209 38.7507622 28.9734809 38.7819859 28.9607075 38.7940496 28.9720616 38.7812763 29.0032853 38.7997267 29.0032853 38.7997267 38.7252155 38.6954111 38.7713415zM29.2537847 29.0763772L38.6776703 38.5797414 38.6776703 29.0763772 29.2537847 29.0763772z"/>
          <path d="M28.9954794,38.6904437 L19.3643818,29.0586365 L19.4076693,28.9543209 L29.0508305,28.9543209 L29.0508305,28.9734809 L29.0820542,28.9599979 L29.094118,28.9720616 L29.0813446,29.0032853 L29.099795,29.0032853 L29.099795,38.6471562 L28.9954794,38.6904437 Z M19.5552723,29.0763772 L28.9777386,38.4995532 L28.9777386,29.0763772 L19.5552723,29.0763772 Z"/>
          <polygon points="35.001 7.122 35.123 7.122 35.123 24.141 35.001 24.141" transform="rotate(-45 35.062 15.631)"/>
          <path d="M38.7386985,41.1471825 L21.8331844,41.1372477 L21.7721562,41.0762195 L21.7721562,38.728054 L21.8331844,38.6670259 L38.7386985,38.6670259 L38.7997267,38.728054 L38.7997267,41.0861543 L38.7386985,41.1471825 Z M21.8942126,41.0151913 L38.6776703,41.0251262 L38.6776703,38.7912111 L21.8942126,38.7912111 L21.8942126,41.0151913 Z"/>
        </g>
        <polygon fill="#FFF799" points="58.319 29.222 71.383 29.222 71.383 42.286 58.319 42.286" transform="rotate(-90 64.851 35.754)"/>
        <polygon fill="url(#qvr_center-f)" points="84.333 55.355 71.387 42.286 45.303 42.286 58.461 55.355"/>
        <polygon fill="#FFDE17" points="58.461 55.355 45.303 42.286 32.221 55.355"/>
        <polygon fill="#EA7706" points="45.303 42.286 45.303 16.316 28.908 0 28.908 26.016"/>
        <polygon fill="url(#qvr_center-g)" points="71.36 16.314 71.36 42.231 84.333 55.355 84.333 16.314"/>
      </g>
      <polygon fill="url(#qvr_center-h)" points="84.349 16.339 68.078 0 28.888 0 45.321 16.341"/>
      <g fill="#FFF" transform="translate(28.882)" style="mix-blend-mode:overlay">
        <polygon points="29.418 29.373 29.41 29.364 16.398 29.364 16.337 29.303 16.337 29.276 16.398 29.215 29.462 29.215 29.523 29.276 29.523 29.33"/>
        <polygon points="16.451 42.402 16.398 42.402 16.337 42.341 16.337 42.287 16.441 42.244 16.495 42.297"/>
        <path d="M55.3986806,55.3851976 L29.43545,55.3851976 L29.3744218,55.3241695 L29.3744218,42.3379415 L29.43545,42.2769134 L42.4727712,42.2769134 L42.5160587,42.2953638 L55.441968,55.2815917 L55.3986806,55.3851976 Z M29.4971878,55.2631413 L55.2524968,55.2631413 L42.4472246,42.4010986 L29.4964781,42.4010986 L29.4971878,55.2631413 Z"/>
        <path d="M42.4727712 42.4010986L29.4624159 42.4010986 29.4006781 42.3400704 29.4006781 29.3297151 29.5049937 29.2864277 42.5160587 42.296783 42.4727712 42.4010986zM29.5234441 42.2825904L42.3251682 42.2825904 29.5234441 29.4808663 29.5234441 42.2825904zM16.3548413 42.2754941L3.36861333 29.3460366 3.41190076 29.241721 16.3981287 29.241721 16.4591569 29.3027492 16.4591569 42.2322067 16.3548413 42.2754941zM3.5623423 29.3673255L16.3356812 42.0888614 16.3356812 29.3673255 3.5623423 29.3673255zM3.30900442 29.2828795L.109283011 26.0831581.152570437 25.9795521 3.35158221 25.9795521 3.41332002 26.0405803 3.41332002 29.2395921 3.30900442 29.2828795zM.300173465 26.1030278L3.29055404 29.0934083 3.29055404 26.1030278.300173465 26.1030278zM3.28061922 3.3061659L.139797098 3.3061659.0787689235 3.24513772.0787689235.100767452.183084525.0574800252 3.32745479 3.20185029 3.28061922 3.3061659zM.197277124 3.18198066L3.13301619 3.18198066.197277124.24624159.197277124 3.18198066z"/>
        <path d="M3.25294365 3.28842515L.0539318755.144054878.096509672.0397392767 3.29623108.0397392767 3.35725925.100767452 3.35725925 3.24513772 3.25294365 3.28842515zM.24553196.161795627L3.23449327 3.09966358 3.23449327.161795627.24553196.161795627zM42.3067178 3.31468146L39.1623476 3.31468146 39.0984809 3.25294365 39.0984809.109283011 39.2027965.0659955845 42.3471667 3.21107548 42.3067178 3.31468146zM39.2233757 3.19262511L42.1591148 3.19262511 39.2233757.256886039 39.2233757 3.19262511zM29.3921625 55.3674569L16.4059346 42.381229 16.449222 42.2769134 29.43545 42.2769134 29.4964781 42.3379415 29.4964781 55.3241695 29.3921625 55.3674569zM16.598954 42.4010986L29.3722929 55.1744376 29.3722929 42.4010986 16.598954 42.4010986zM55.3007517 55.3674569L42.3712942 42.381229 42.4145816 42.2769134 55.3440391 42.2769134 55.4050673 42.3379415 55.4050673 55.3241695 55.3007517 55.3674569zM42.561475 42.4010986L55.2830109 55.1744376 55.2830109 42.4010986 42.561475 42.4010986z"/>
        <path d="M29.506413 55.3851976L3.41402965 55.3851976 3.37074222 55.280882 16.4172887 42.2350452 16.5038635 42.2350452 29.5497004 55.280882 29.506413 55.3851976zM3.56163267 55.2631413L29.3595196 55.2631413 16.4612857 42.3641979 3.56163267 55.2631413zM55.3440391 42.4010986L42.5387668 42.4010986 42.4869638 42.3727134 42.4344512 42.2875578 42.425226 42.2556245 42.425226 16.2831686 42.4862542 16.2221405 55.3440391 16.2221405 55.4050673 16.2831686 55.4050673 42.3400704 55.3440391 42.4010986zM42.5756676 42.2825904L55.2858495 42.2825904 55.2858495 16.3470353 42.5472824 16.3470353 42.5472824 42.2378837 42.5756676 42.2825904zM38.992746 3.29765034L3.28061922 3.29765034 3.21959104 3.23662216 3.21959104.108573381 3.28061922.0475452061 39.1091253.0475452061 39.1701535.108573381 39.1701535 3.22384882 39.1162216 3.28416737 38.992746 3.29765034zM3.34164739 3.17559399L38.9891979 3.17559399 39.0480971 3.16920732 39.0480971.170311186 3.34164739.170311186 3.34164739 3.17559399z"/>
        <path d="M29.4624159,16.3470353 L16.4513509,16.3470353 L16.4137405,16.3335524 L16.3598087,16.2909746 L16.3371005,16.2434294 L16.3371005,3.24797624 L16.3981287,3.18694807 L29.4624159,3.18694807 L29.5234441,3.24797624 L29.5234441,16.2852975 L29.4624159,16.3470353 Z M16.4726398,16.2242693 L29.4006781,16.2242693 L29.4006781,3.30900442 L16.4612857,3.30900442 L16.4612857,16.2136249 L16.4726398,16.2242693 Z"/>
        <path d="M42.4862542,29.3907433 L29.5184767,29.3907433 L29.4751892,29.3730025 L29.421967,29.3197803 L29.4035166,29.2764929 L29.4035166,16.2852975 L29.4652544,16.2242693 L42.4890927,16.2242693 L42.5501209,16.2852975 L42.5501209,29.3297151 L42.4862542,29.3907433 Z M29.5404752,29.2686869 L42.425226,29.2686869 L42.425226,16.3470353 L29.5234441,16.3470353 L29.5234441,29.2509462 L29.5404752,29.2686869 Z"/>
        <path d="M55.2865591 16.3470353L42.4670942 16.3470353 42.4238068 16.3285849 42.3705845 16.2753627 42.3528438 16.2320753 42.3528438 3.35513036 42.4571594 3.31255257 55.3298465 16.2427197 55.2865591 16.3470353zM42.4926409 16.2242693L55.1396657 16.2242693 42.4749001 3.50344302 42.4749001 16.205819 42.4926409 16.2242693zM16.347745 16.2597508L3.26997477 3.2919733 3.3132622 3.18694807 16.4073539 3.18694807 16.4073539 3.20043103 16.4343198 3.18907696 16.4499317 3.20539844 16.4392872 3.23236438 16.4520606 3.23236438 16.4520606 16.2185923 16.347745 16.2597508zM3.46157485 3.30971405L16.3300042 16.06957 16.3300042 3.30971405 3.46157485 3.30971405z"/>
        <path d="M16.347745,29.3197803 L3.37996741,16.3520027 L3.42325484,16.2476871 L16.4094828,16.2476871 L16.4094828,16.2604605 L16.4364487,16.2491064 L16.4520606,16.2654279 L16.4414161,16.2923938 L16.4541894,16.2923938 L16.4541894,29.2786217 L16.347745,29.3197803 Z M3.57440601,16.3697435 L16.3335524,29.1288898 L16.3335524,16.3697435 L3.57440601,16.3697435 Z"/>
        <polygon points="34.351 -3.237 34.473 -3.237 34.473 19.636 34.351 19.636" transform="rotate(-45 34.412 8.2)"/>
        <path d="M3.31113331,26.0710944 L0.149731918,26.0710944 L0.0887037426,26.0100662 L0.0752207738,3.24797624 L0.136248949,3.18694807 L3.31113331,3.18694807 L3.37216148,3.24797624 L3.37216148,26.0100662 L3.31113331,26.0710944 Z M0.210760093,25.9490381 L3.25010513,25.9490381 L3.25010513,3.31184294 L0.198696384,3.31184294 L0.210760093,25.9490381 Z"/>
      </g>
    </g>
  </g>
</svg>
