<svg xmlns="http://www.w3.org/2000/svg" width="100" height="100" viewBox="0 0 100 100">
  <defs>
    <linearGradient id="qvpn-a" x1="4.119%" x2="102%" y1="0%" y2="101%">
      <stop offset="0%" stop-color="#CCE2ED"/>
      <stop offset="51.506%" stop-color="#FFF"/>
      <stop offset="100%" stop-color="#ADC0CE"/>
    </linearGradient>
  </defs>
  <g fill="none" fill-rule="evenodd">
    <rect width="100" height="100" fill="url(#qvpn-a)" fill-rule="nonzero" rx="20"/>
    <g transform="translate(24.337 16.225)">
      <path fill="#2962FF" d="M5.8549142,27.0312012 L6.08112324,24.7145086 L19.7940718,25.8767551 L19.5678627,28.1950078 L5.8549142,27.0312012 Z M9.91731669,4.40873635 L11.9921997,3.11856474 L24.4586583,20.5725429 L22.3837754,21.8642746 L9.91731669,4.40873635 Z M34.8736349,11.2324493 L36.9017161,12.5850234 L30.6692668,20.7301092 L28.6396256,19.3775351 L34.8736349,11.2324493 Z M48.0920437,21.2433697 L48.6146646,23.5195008 L31.1622465,27.0109204 L30.6396256,24.7347894 L48.0920437,21.2433697 Z"/>
      <path fill="#40C4FF" d="M12.5663027,0.00155968972 C15.1655663,0.00371359 17.271182,2.11212211 17.2698907,4.71138634 C17.2685983,7.31065058 15.160888,9.4169651 12.5616235,9.41653505 C9.96235893,9.41610487 7.85534579,7.30909291 7.8549142,4.70982839 C7.85524513,3.46067882 8.35182799,2.26283177 9.23540268,1.37984223 C10.1189774,0.496852686 11.3171531,0.00106347042 12.5663027,0.00155968972 L12.5663027,0.00155968972 Z M3.91575663,21.9375563 C5.50833018,21.9303341 6.94814624,22.8840453 7.56271008,24.3532813 C8.17727392,25.8225174 7.8453092,27.5173433 6.72186666,28.6461569 C5.59842411,29.7749705 3.90520079,30.1150148 2.43305032,29.5074654 C0.960899858,28.899916 0.000332365539,27.464665 -1.10537758e-05,25.8720749 C-0.00508952309,23.7043256 1.74800769,21.942847 3.91575663,21.9375563 L3.91575663,21.9375563 Z M35.3104524,7.85023174 C37.4677365,7.85453997 39.2134742,9.60609374 39.2106085,11.7633802 C39.2077358,13.9206666 37.457345,15.6675705 35.3000572,15.6661389 C33.1427693,15.6647055 31.3946958,13.9154787 31.3946958,11.7581903 C31.3956469,10.7206759 31.8087531,9.72604237 32.543118,8.99314036 C33.2774829,8.26023835 34.2729381,7.84911632 35.3104524,7.85023174 Z M50.2028081,17.2449294 C52.8027061,17.2466527 54.9091043,19.3553786 54.9079563,21.9552768 C54.9068074,24.5551751 52.7985471,26.6620392 50.1986486,26.6614654 C47.5987502,26.6608914 45.4914197,24.5530966 45.4914197,21.9531981 C45.4917506,20.7040486 45.9883335,19.5062015 46.8719081,18.623212 C47.7554828,17.7402224 48.9536586,17.2444332 50.2028081,17.2449294 L50.2028081,17.2449294 Z"/>
      <path fill="#7FD7FF" d="M12.5600624,1.56942278 C13.4263997,1.56985368 14.1283556,2.27250812 14.1279249,3.13884542 C14.1274939,4.00518273 13.4248395,4.70713864 12.5585022,4.70670808 C11.6921649,4.70627712 10.9902089,4.0036228 10.9906394,3.13728549 C10.9915866,2.27116221 11.6939386,1.56950835 12.5600624,1.56942278 Z M3.92823713,25.0811135 C4.24699087,25.0795438 4.53522283,25.2703826 4.6582277,25.564451 C4.78123257,25.8585195 4.71471882,26.1977436 4.48977167,26.423587 C4.26482452,26.6494303 3.92586751,26.7172924 3.63131232,26.5954577 C3.33675714,26.4736231 3.1447738,26.1861522 3.14508318,25.8673947 C3.1445473,25.6592383 3.22678503,25.4594072 3.37368137,25.3119256 C3.52057771,25.164444 3.72008029,25.0814124 3.92823713,25.0811135 L3.92823713,25.0811135 Z M36.8705148,9.40873596 C37.3019716,9.40959754 37.6511192,9.75990829 37.650546,10.1913656 C37.6499715,10.6228229 37.2998933,10.9722036 36.8684358,10.9719173 C36.4369782,10.9716307 36.0873635,10.6217853 36.0873635,10.1903276 C36.0875703,9.98282981 36.1701968,9.78391273 36.3170662,9.63733592 C36.4639356,9.4907591 36.663017,9.40852937 36.8705148,9.40873596 Z M50.199688,20.380655 C50.8346021,20.380655 51.4069691,20.7632021 51.6497942,21.3498468 C51.8926194,21.9364914 51.75806,22.6116504 51.3088847,23.0603792 C50.8597094,23.509108 50.184417,23.6429958 49.5980141,23.3995873 C49.0116113,23.1561789 48.6296341,22.5834318 48.6302644,21.9485179 C48.630472,21.532488 48.7959377,21.1335797 49.0902615,20.8395484 C49.3845854,20.5455171 49.783658,20.3804483 50.199688,20.380655 Z"/>
      <path fill="#2962FF" d="M43.8827488,56.1589891 L48.3541342,64.2730109 L4.72074883,64.2730109 L8.94274883,56.1589891 L43.8827488,56.1589891 Z M38.0387488,45.5519891 L43.0257488,54.6029891 L9.75274883,54.6029891 L14.4617488,45.5519891 L38.0387488,45.5519891 Z M25.9141966,17.7269891 C30.0452418,17.7269891 33.3946958,20.8533541 33.3946958,24.7082683 C33.3946958,27.2226006 31.9697776,29.4276587 29.8324589,30.6572426 L37.1797488,43.9919891 L15.2737488,43.9919891 L22.1639509,30.751218 C19.9343004,29.5424491 18.4352574,27.2888145 18.4352574,24.7082683 C18.4352574,20.8517941 21.7831513,17.7269891 25.9141966,17.7269891 Z"/>
      <path fill="#5985FF" d="M25.8970359,19.9672387 C28.1357254,19.9672387 29.9516381,21.3619345 29.9516381,23.0826833 C29.9516381,24.8034321 28.1357254,22.4602184 25.8970359,22.4602184 C23.6583463,22.4602184 21.8424337,24.8034321 21.8424337,23.0826833 C21.8424337,21.3619345 23.6583463,19.9672387 25.8970359,19.9672387 Z"/>
    </g>
  </g>
</svg>
