<svg xmlns="http://www.w3.org/2000/svg" xmlns:xlink="http://www.w3.org/1999/xlink" width="100" height="100" viewBox="0 0 100 100">
  <defs>
    <linearGradient id="qvr_human-b" x1="71.861%" x2="31.527%" y1="86.432%" y2="14.582%">
      <stop offset="0%" stop-color="#0074D6"/>
      <stop offset="49.836%" stop-color="#4ECDFF"/>
      <stop offset="58.599%" stop-color="#4C73B7"/>
      <stop offset="70.289%" stop-color="#29307D"/>
      <stop offset="100%" stop-color="#29307D"/>
    </linearGradient>
    <linearGradient id="qvr_human-c" x1="99.068%" x2="50%" y1="50%" y2="50%">
      <stop offset="0%" stop-color="#0065E7"/>
      <stop offset="85.52%" stop-color="#0065E7"/>
      <stop offset="100%" stop-color="#0074D6" stop-opacity="0"/>
    </linearGradient>
    <radialGradient id="qvr_human-d" cx="54.811%" cy="0%" r="50%" fx="54.811%" fy="0%" gradientTransform="matrix(0 1 -1.17293 0 .548 -.548)">
      <stop offset="0%" stop-color="#29307D"/>
      <stop offset="69.848%" stop-color="#29317F" stop-opacity=".44"/>
      <stop offset="100%" stop-color="#29307D" stop-opacity="0"/>
    </radialGradient>
    <rect id="qvr_human-a" width="100" height="100" x="0" y="0" rx="20"/>
    <filter id="qvr_human-e" width="105%" height="105%" x="-2.5%" y="-2.5%" filterUnits="objectBoundingBox">
      <feOffset in="SourceAlpha" result="shadowOffsetOuter1"/>
      <feGaussianBlur in="shadowOffsetOuter1" result="shadowBlurOuter1" stdDeviation=".5"/>
      <feColorMatrix in="shadowBlurOuter1" result="shadowMatrixOuter1" values="0 0 0 0 0   0 0 0 0 0   0 0 0 0 0  0 0 0 0.5 0"/>
      <feMerge>
        <feMergeNode in="shadowMatrixOuter1"/>
        <feMergeNode in="SourceGraphic"/>
      </feMerge>
    </filter>
    <linearGradient id="qvr_human-f" x1="-54.103%" x2="121.331%" y1="0%" y2="100%">
      <stop offset="0%" stop-color="#FFF" stop-opacity=".104"/>
      <stop offset="100%" stop-color="#FFF"/>
    </linearGradient>
    <linearGradient id="qvr_human-g" x1="41.993%" x2="58.674%" y1="14.864%" y2="103.33%">
      <stop offset="0%" stop-color="#FEEDDF"/>
      <stop offset="100%" stop-color="#FCD3B5"/>
    </linearGradient>
    <linearGradient id="qvr_human-h" x1="10.5%" x2="78.417%" y1="40.359%" y2="59.641%">
      <stop offset="0%" stop-color="#838383" stop-opacity=".913"/>
      <stop offset="100%" stop-color="#3C3C3C" stop-opacity=".9"/>
    </linearGradient>
    <linearGradient id="qvr_human-k" x1="66.818%" x2="40.492%" y1="51.995%" y2="48.005%">
      <stop offset="0%" stop-color="#ECECEC"/>
      <stop offset="100%" stop-color="#FFF"/>
    </linearGradient>
    <path id="qvr_human-j" d="M8.59756551,0.0039681964 L70.1934481,0.0350197228 C72.4317743,0.166748725 74.5711373,0.666591029 76.5518609,1.47487045 L74.3182292,15.2108714 L2.89654734,15.2108714 L0.421129551,1.92819761 C2.90704289,0.746007685 5.67547797,0.0616414558 8.59756551,0.0039681964 Z"/>
    <filter id="qvr_human-i" width="103.9%" height="119.7%" x="-2%" y="-9.9%" filterUnits="objectBoundingBox">
      <feOffset in="SourceAlpha" result="shadowOffsetOuter1"/>
      <feGaussianBlur in="shadowOffsetOuter1" result="shadowBlurOuter1" stdDeviation=".5"/>
      <feColorMatrix in="shadowBlurOuter1" values="0 0 0 0 0.575600553   0 0 0 0 0.575600553   0 0 0 0 0.575600553  0 0 0 0.5 0"/>
    </filter>
    <linearGradient id="qvr_human-l" x1="100%" x2="7.248%" y1="61.418%" y2="61.418%">
      <stop offset="0%" stop-color="#979898"/>
      <stop offset="100%" stop-color="#8D8C8C"/>
    </linearGradient>
    <linearGradient id="qvr_human-m" x1="-58.167%" x2="67.755%" y1="-34.628%" y2="113.852%">
      <stop offset="0%" stop-color="#D3D3D3"/>
      <stop offset="100%" stop-color="#F2F2F2"/>
    </linearGradient>
    <linearGradient id="qvr_human-n" x1="107.994%" x2="50%" y1="27.993%" y2="100%">
      <stop offset="0%" stop-color="#FAFAFA" stop-opacity=".031"/>
      <stop offset="100%" stop-color="#F2F2F2"/>
    </linearGradient>
    <linearGradient id="qvr_human-o" x1="15.35%" x2="84.65%" y1="0%" y2="100%">
      <stop offset="0%" stop-color="#FFF"/>
      <stop offset="100%" stop-color="#FFF" stop-opacity="0"/>
    </linearGradient>
  </defs>
  <g fill="none" fill-rule="evenodd">
    <use fill="#0074D6" xlink:href="#qvr_human-a"/>
    <use fill="url(#qvr_human-b)" xlink:href="#qvr_human-a"/>
    <use fill="url(#qvr_human-c)" xlink:href="#qvr_human-a"/>
    <use fill="url(#qvr_human-d)" xlink:href="#qvr_human-a"/>
    <path fill="#FFF" fill-rule="nonzero" d="M49,1 L49,11.093 L73.59375,11.09375 C82.2231992,11.09375 89.21875,18.0893008 89.21875,26.71875 L89.218,50.062 L100,50.0625 L100,51 L89.218,51 L89.21875,73.59375 C89.21875,82.2231992 82.2231992,89.21875 73.59375,89.21875 L48.999,89.218 L49,100 L48.0625,100 L48.062,89.218 L26.71875,89.21875 C18.0893008,89.21875 11.09375,82.2231992 11.09375,73.59375 L11.093,50.999 L0,51 L0,50.0625 L11.093,50.062 L11.09375,26.71875 C11.09375,18.0893008 18.0893008,11.09375 26.71875,11.09375 L48.062,11.093 L48.0625,1 L49,1 Z M12.656,50.999 L12.65625,73.59375 C12.65625,81.2553015 18.7832334,87.4858194 26.4047092,87.6528127 L26.71875,87.65625 L48.062,87.656 L48.062,77.109 L39.0234375,77.109375 C30.3939883,77.109375 23.3984375,70.1138242 23.3984375,61.484375 L23.398,50.999 L12.656,50.999 Z M77.109,51 L77.109375,61.484375 C77.109375,70.1138242 70.1138242,77.109375 61.484375,77.109375 L48.999,77.109 L48.999,87.656 L73.59375,87.65625 C81.2553015,87.65625 87.4858194,81.5292666 87.6528127,73.9077908 L87.65625,73.59375 L87.656,51 L77.109,51 Z M24.96,50.999 L24.9609375,61.484375 C24.9609375,69.1459265 31.0879209,75.3764444 38.7093967,75.5434377 L39.0234375,75.546875 L48.062,75.546 L48.062,63.242 L44.7265625,63.2421875 C40.4981324,63.2421875 37.0703125,59.8143676 37.0703125,55.5859375 L37.07,50.999 L24.96,50.999 Z M63.242,51 L63.2421875,55.5859375 C63.2421875,59.8143676 59.8143676,63.2421875 55.5859375,63.2421875 L48.999,63.242 L48.999,75.546 L61.484375,75.546875 C69.1459265,75.546875 75.3764444,69.4198916 75.5434377,61.7984158 L75.546875,61.484375 L75.546,51 L63.242,51 Z M38.632,50.999 L38.6328125,55.5859375 C38.6328125,58.8766341 41.2411684,61.5581166 44.5031638,61.6756686 L44.7265625,61.6796875 L48.062,61.679 L48.062,50.999 L38.632,50.999 Z M48.999,50.999 L48.999,61.679 L55.5859375,61.6796875 C58.8766341,61.6796875 61.5581166,59.0713316 61.6756686,55.8093362 L61.6796875,55.5859375 L61.679,51 L48.999,50.999 Z M48.062,12.656 L26.71875,12.65625 C19.0571985,12.65625 12.8266806,18.7832334 12.6596873,26.4047092 L12.65625,26.71875 L12.656,50.062 L23.398,50.062 L23.3984375,39.0234375 C23.3984375,30.3939883 30.3939883,23.3984375 39.0234375,23.3984375 L48.062,23.398 L48.062,12.656 Z M48.062,24.96 L39.0234375,24.9609375 C31.361886,24.9609375 25.1313681,31.0879209 24.9643748,38.7093967 L24.9609375,39.0234375 L24.96,50.062 L37.07,50.062 L37.0703125,44.7265625 C37.0703125,40.4981324 40.4981324,37.0703125 44.7265625,37.0703125 L48.062,37.07 L48.062,24.96 Z M48.062,38.632 L44.7265625,38.6328125 C41.4358659,38.6328125 38.7543834,41.2411684 38.6368314,44.5031638 L38.6328125,44.7265625 L38.632,50.062 L48.062,50.062 L48.062,38.632 Z M55.5859375,38.6328125 L49,38.632 L49,50.062 L61.679,50.062 L61.6796875,44.7265625 C61.6796875,41.4358659 59.0713316,38.7543834 55.8093362,38.6368314 L55.5859375,38.6328125 Z M61.484375,24.9609375 L49,24.96 L49,37.07 L55.5859375,37.0703125 C59.8143676,37.0703125 63.2421875,40.4981324 63.2421875,44.7265625 L63.242,50.062 L75.546,50.062 L75.546875,39.0234375 C75.546875,31.361886 69.4198916,25.1313681 61.7984158,24.9643748 L61.484375,24.9609375 Z M73.59375,12.65625 L49,12.656 L49,23.398 L61.484375,23.3984375 C70.1138242,23.3984375 77.109375,30.3939883 77.109375,39.0234375 L77.109,50.062 L87.656,50.062 L87.65625,26.71875 C87.65625,19.0571985 81.5292666,12.8266806 73.9077908,12.6596873 L73.59375,12.65625 Z" opacity=".205"/>
    <g fill="#FFF" fill-rule="nonzero" filter="url(#qvr_human-e)" opacity=".229" transform="rotate(-180 50 50)">
      <g transform="rotate(90 49.5 50)">
        <path d="M46.5,8.95283847e-13 L46.5,98.5 L46,98.5 L46,8.95283847e-13 L46.5,8.95283847e-13 Z M39.5,8.8817842e-13 L39.5,98.5 L39,98.5 L39,8.8817842e-13 L39.5,8.8817842e-13 Z M32.5,8.95283847e-13 L32.5,98.5 L32,98.5 L32,8.95283847e-13 L32.5,8.95283847e-13 Z M26.5,1.42108547e-14 L26.5,98.5 L26,98.5 L26,1.42108547e-14 L26.5,1.42108547e-14 Z M52.5,8.95283847e-13 L52.5,98.5 L52,98.5 L52,8.95283847e-13 L52.5,8.95283847e-13 Z M59.5,8.95283847e-13 L59.5,98.5 L59,98.5 L59,8.95283847e-13 L59.5,8.95283847e-13 Z M66.5,9.09494702e-13 L66.5,98.5 L66,98.5 L66,9.09494702e-13 L66.5,9.09494702e-13 Z M73.5,9.09494702e-13 L73.5,98.5 L73,98.5 L73,9.09494702e-13 L73.5,9.09494702e-13 Z M80.5,8.95283847e-13 L80.5,98.5 L80,98.5 L80,8.95283847e-13 L80.5,8.95283847e-13 Z M19.5,1.42108547e-14 L19.5,98.5 L19,98.5 L19,1.42108547e-14 L19.5,1.42108547e-14 Z" opacity=".251"/>
        <path d="M53.5,-7.10542736e-15 L53.5,98.5 L53,98.5 L53,-7.10542736e-15 L53.5,-7.10542736e-15 Z M46.5,-7.10542736e-15 L46.5,98.5 L46,98.5 L46,-7.10542736e-15 L46.5,-7.10542736e-15 Z M40.5,-7.10542736e-15 L40.5,98.5 L40,98.5 L40,-7.10542736e-15 L40.5,-7.10542736e-15 Z M33.5,-7.10542736e-15 L33.5,98.5 L33,98.5 L33,-7.10542736e-15 L33.5,-7.10542736e-15 Z M26.5,-7.10542736e-15 L26.5,98.5 L26,98.5 L26,-7.10542736e-15 L26.5,-7.10542736e-15 Z M59.5,-7.10542736e-15 L59.5,98.5 L59,98.5 L59,-7.10542736e-15 L59.5,-7.10542736e-15 Z M66.5,0 L66.5,98.5 L66,98.5 L66,0 L66.5,0 Z M72.5,0 L72.5,98.5 L72,98.5 L72,0 L72.5,0 Z" opacity=".251" transform="rotate(-90 49.25 49.25)"/>
      </g>
    </g>
    <circle cx="18.027" cy="34.434" r="1.27" fill="#FFF" opacity=".613"/>
    <g transform="translate(22.422 83.945)">
      <circle cx="3.613" cy="3.613" r="1.465" fill="#FFF" opacity=".674"/>
      <circle cx="3.516" cy="3.516" r="3.516" stroke="url(#qvr_human-f)" stroke-width=".5" opacity=".613"/>
    </g>
    <circle cx="48.646" cy="50.246" r="2.246" fill="#FFF" opacity=".89"/>
    <circle cx="84.082" cy="34.395" r="1.27" fill="#FFF" opacity=".613"/>
    <g fill="url(#qvr_human-g)" transform="translate(30 27)">
      <path d="M13.8794011,11.0335282 C11.7521873,9.95228084 11.284325,7.96136402 10.9299973,5.23105139 C10.9162734,5.12381342 10.9050447,5.01714285 10.8819635,4.91160708 C10.5656886,3.47325659 10.2032513,2.01164285 11.7521873,0.927347871 C13.7770952,-0.490576332 15.9660668,-0.0258784835 18.0970235,0.632301619 C18.5536571,0.773583382 19.0638741,1.43675416 19.1350539,1.80567787 C19.5778312,4.10058329 19.5778312,6.34837113 18.6734298,8.71259717 C18.4681242,9.24929351 17.5555509,9.8888104 17.1007888,10.5526645 C16.9074057,10.8348497 16.930071,11.1100371 17.1687848,11.3782266 C18.360274,11.6273137 19.6459595,11.6919969 20.6933472,12.1810928 C21.5099228,12.5612486 22.3801467,13.3794345 22.6178207,14.1567679 C23.5192353,17.1004217 24.3445444,20.0264862 26.1966552,22.6535326 C28.1554385,25.4315066 29.9245817,28.3206902 31.7960308,31.1502973 C32.345613,31.9821008 33.1197691,32.7225534 33.497178,33.6076921 C33.8377818,34.4054518 34.0448888,35.4148504 33.7978575,36.196723 C33.6275557,36.7334802 32.5795442,37.0398744 31.9239132,37.4501022 C31.8128739,37.3241401 31.7012107,37.1981781 31.5901714,37.072216 C31.8390742,36.6392924 31.7897927,35.7776895 31.9239132,35.5433547 C28.8659654,32.6195598 26.2172411,30.2316821 23.0707114,27.2233451 C23.6346414,30.8978058 24.1823521,34.4621915 24.7612537,38.2319748 C23.7307091,38.1763699 22.7138884,38.1213324 21.4668795,38.0532448 C21.1705667,39.1931447 20.891097,40.3784362 20.5529885,41.5495429 C19.4750339,45.2813106 19.9117053,49.0783289 19.8674144,52.8634319 C19.8187567,56.9832989 20.7672239,60.1607877 21.706543,64.7993469 C21.9513573,66.0082928 22.1487108,67.7314935 23.7088755,68.6404629 C24.7387963,69.2396337 25.9377714,69.5965262 26.9801685,70.1809448 C27.6295613,70.5452134 28.6944159,71.1048889 28.6944159,71.617593 C28.6944159,72.1302972 27.233438,72.6338004 26.4923441,72.6468506 C24.0837891,72.6899727 21.6608864,72.5827347 19.2616887,72.3659892 C17.8025822,72.2343532 18.0502373,70.8782752 17.6079515,69.9971082 C15.6497919,66.0945542 15.6117391,61.7380828 13.8794011,57.331113 C12.992958,59.8242539 11.26062,61.0796391 10.9299973,63.8435364 C10.8336341,64.6491015 11.0722275,65.8528432 11.3267445,66.5847848 C11.7840019,67.8983081 12.7343678,67.968392 14.2121887,68.3042908 C14.785476,68.434792 16.3144402,69.3480065 16.0540249,69.8898703 C15.7936096,70.4317341 14.2877273,70.9078979 13.1396484,70.9078979 C10.5726631,70.9078979 8.39569092,70.4317341 5.85649887,69.7003598 C4.33257552,69.2614177 3.96009713,68.6614566 4.37431119,67.3785727 C5.5296191,63.8034065 6.59258006,60.5206099 7.7722168,56.9528198 C8.02236716,56.1953453 8.43597952,55.1176988 8.95624237,54.4912929 C10.8451583,52.2200041 11.26062,49.554628 11.3267445,46.8407699 C11.3741546,44.8945994 10.9013018,42.9356929 10.3386194,40.9810115 C10.3018143,40.8533472 10.0402756,39.6300143 9.91176946,39.6271773 C7.67289253,39.5817856 7.18086101,39.2876813 7.18086101,37.072216 C7.18086101,33.3111134 7.63562313,30.4353775 7.18086101,26.6843183 C4.21461421,31.2161153 4.51903659,36.4293556 3.34688565,41.7617493 C3.01813442,40.9980334 2.83161333,40.5651097 2.64509224,40.1321861 C2.51908133,40.1333209 2.39244661,40.1344557 2.26643571,40.1355905 C2.31072667,40.9010085 2.35501763,41.6664266 2.39743714,42.4012053 C-0.0903425071,41.8638806 -0.276386772,40.8008238 0.222666318,38.5057044 C0.68865714,36.3637821 0.373776866,34.2051608 0.847253485,32.0655081 C1.61392379,28.6072256 2.60142509,25.1909304 3.413634,21.740024 C3.85654361,19.8585368 4.14786585,17.9458427 4.473498,16.042227 C4.70056715,14.7179232 5.45039442,13.8912263 6.79970921,13.2534725 C8.39168856,12.5016719 9.20379055,11.7229249 10.8819635,11.3782266" opacity=".1" transform="matrix(-1 0 0 1 33.906 0)"/>
      <path d="M29.5044011,11.0335282 C27.3771873,9.95228084 26.909325,7.96136402 26.5549973,5.23105139 C26.5412734,5.12381342 26.5300447,5.01714285 26.5069635,4.91160708 C26.1906886,3.47325659 25.8282513,2.01164285 27.3771873,0.927347871 C29.4020952,-0.490576332 31.5910668,-0.0258784835 33.7220235,0.632301619 C34.1786571,0.773583382 34.6888741,1.43675416 34.7600539,1.80567787 C35.2028312,4.10058329 35.2028312,6.34837113 34.2984298,8.71259717 C34.0931242,9.24929351 33.1805509,9.8888104 32.7257888,10.5526645 C32.5324057,10.8348497 32.555071,11.1100371 32.7937848,11.3782266 C33.985274,11.6273137 35.2709595,11.6919969 36.3183472,12.1810928 C37.1349228,12.5612486 38.0051467,13.3794345 38.2428207,14.1567679 C39.1442353,17.1004217 39.9695444,20.0264862 41.8216552,22.6535326 C43.7804385,25.4315066 45.5495817,28.3206902 47.4210308,31.1502973 C47.970613,31.9821008 48.7447691,32.7225534 49.122178,33.6076921 C49.4627818,34.4054518 49.6698888,35.4148504 49.4228575,36.196723 C49.2525557,36.7334802 48.2045442,37.0398744 47.5489132,37.4501022 C47.4378739,37.3241401 47.3262107,37.1981781 47.2151714,37.072216 C47.4640742,36.6392924 47.4147927,35.7776895 47.5489132,35.5433547 C44.4909654,32.6195598 41.8422411,30.2316821 38.6957114,27.2233451 C39.2596414,30.8978058 39.8073521,34.4621915 40.3862537,38.2319748 C39.3557091,38.1763699 38.3388884,38.1213324 37.0918795,38.0532448 C36.7955667,39.1931447 36.516097,40.3784362 36.1779885,41.5495429 C35.1000339,45.2813106 35.5367053,49.0783289 35.4924144,52.8634319 C35.4437567,56.9832989 36.3922239,60.1607877 37.331543,64.7993469 C37.5763573,66.0082928 37.7737108,67.7314935 39.3338755,68.6404629 C40.3637963,69.2396337 41.5627714,69.5965262 42.6051685,70.1809448 C43.2545613,70.5452134 44.3194159,71.1048889 44.3194159,71.617593 C44.3194159,72.1302972 42.858438,72.6338004 42.1173441,72.6468506 C39.7087891,72.6899727 37.2858864,72.5827347 34.8866887,72.3659892 C33.4275822,72.2343532 33.6752373,70.8782752 33.2329515,69.9971082 C31.2747919,66.0945542 31.2367391,61.7380828 29.5044011,57.331113 C28.617958,59.8242539 26.88562,61.0796391 26.5549973,63.8435364 C26.4586341,64.6491015 26.6972275,65.8528432 26.9517445,66.5847848 C27.4090019,67.8983081 28.3593678,67.968392 29.8371887,68.3042908 C30.410476,68.434792 31.9394402,69.3480065 31.6790249,69.8898703 C31.4186096,70.4317341 29.9127273,70.9078979 28.7646484,70.9078979 C26.1976631,70.9078979 24.0206909,70.4317341 21.4814989,69.7003598 C19.9575755,69.2614177 19.5850971,68.6614566 19.9993112,67.3785727 C21.1546191,63.8034065 22.2175801,60.5206099 23.3972168,56.9528198 C23.6473672,56.1953453 24.0609795,55.1176988 24.5812424,54.4912929 C26.4701583,52.2200041 26.88562,49.554628 26.9517445,46.8407699 C26.9991546,44.8945994 26.5263018,42.9356929 25.9636194,40.9810115 C25.9268143,40.8533472 25.6652756,39.6300143 25.5367695,39.6271773 C23.2978925,39.5817856 22.805861,39.2876813 22.805861,37.072216 C22.805861,33.3111134 23.2606231,30.4353775 22.805861,26.6843183 C19.8396142,31.2161153 20.1440366,36.4293556 18.9718856,41.7617493 C18.6431344,40.9980334 18.4566133,40.5651097 18.2700922,40.1321861 C18.1440813,40.1333209 18.0174466,40.1344557 17.8914357,40.1355905 C17.9357267,40.9010085 17.9800176,41.6664266 18.0224371,42.4012053 C15.5346575,41.8638806 15.3486132,40.8008238 15.8476663,38.5057044 C16.3136571,36.3637821 15.9987769,34.2051608 16.4722535,32.0655081 C17.2389238,28.6072256 18.2264251,25.1909304 19.038634,21.740024 C19.4815436,19.8585368 19.7728659,17.9458427 20.098498,16.042227 C20.3255672,14.7179232 21.0753944,13.8912263 22.4247092,13.2534725 C24.0166886,12.5016719 24.8287906,11.7229249 26.5069635,11.3782266" opacity=".25" transform="matrix(-1 0 0 1 65.156 0)"/>
      <path d="M45.1294011,11.0335282 C43.0021873,9.95228084 42.534325,7.96136402 42.1799973,5.23105139 C42.1662734,5.12381342 42.1550447,5.01714285 42.1319635,4.91160708 C41.8156886,3.47325659 41.4532513,2.01164285 43.0021873,0.927347871 C45.0270952,-0.490576332 47.2160668,-0.0258784835 49.3470235,0.632301619 C49.8036571,0.773583382 50.3138741,1.43675416 50.3850539,1.80567787 C50.8278312,4.10058329 50.8278312,6.34837113 49.9234298,8.71259717 C49.7181242,9.24929351 48.8055509,9.8888104 48.3507888,10.5526645 C48.1574057,10.8348497 48.180071,11.1100371 48.4187848,11.3782266 C49.610274,11.6273137 50.8959595,11.6919969 51.9433472,12.1810928 C52.7599228,12.5612486 53.6301467,13.3794345 53.8678207,14.1567679 C54.7692353,17.1004217 55.5945444,20.0264862 57.4466552,22.6535326 C59.4054385,25.4315066 61.1745817,28.3206902 63.0460308,31.1502973 C63.595613,31.9821008 64.3697691,32.7225534 64.747178,33.6076921 C65.0877818,34.4054518 65.2948888,35.4148504 65.0478575,36.196723 C64.8775557,36.7334802 63.8295442,37.0398744 63.1739132,37.4501022 C63.0628739,37.3241401 62.9512107,37.1981781 62.8401714,37.072216 C63.0890742,36.6392924 63.0397927,35.7776895 63.1739132,35.5433547 C60.1159654,32.6195598 57.4672411,30.2316821 54.3207114,27.2233451 C54.8846414,30.8978058 55.4323521,34.4621915 56.0112537,38.2319748 C54.9807091,38.1763699 53.9638884,38.1213324 52.7168795,38.0532448 C52.4205667,39.1931447 52.141097,40.3784362 51.8029885,41.5495429 C50.7250339,45.2813106 51.1617053,49.0783289 51.1174144,52.8634319 C51.0687567,56.9832989 52.0172239,60.1607877 52.956543,64.7993469 C53.2013573,66.0082928 53.3987108,67.7314935 54.9588755,68.6404629 C55.9887963,69.2396337 57.1877714,69.5965262 58.2301685,70.1809448 C58.8795613,70.5452134 59.9444159,71.1048889 59.9444159,71.617593 C59.9444159,72.1302972 58.483438,72.6338004 57.7423441,72.6468506 C55.3337891,72.6899727 52.9108864,72.5827347 50.5116887,72.3659892 C49.0525822,72.2343532 49.3002373,70.8782752 48.8579515,69.9971082 C46.8997919,66.0945542 46.8617391,61.7380828 45.1294011,57.331113 C44.242958,59.8242539 42.51062,61.0796391 42.1799973,63.8435364 C42.0836341,64.6491015 42.3222275,65.8528432 42.5767445,66.5847848 C43.0340019,67.8983081 43.9843678,67.968392 45.4621887,68.3042908 C46.035476,68.434792 47.5644402,69.3480065 47.3040249,69.8898703 C47.0436096,70.4317341 45.5377273,70.9078979 44.3896484,70.9078979 C41.8226631,70.9078979 39.6456909,70.4317341 37.1064989,69.7003598 C35.5825755,69.2614177 35.2100971,68.6614566 35.6243112,67.3785727 C36.7796191,63.8034065 37.8425801,60.5206099 39.0222168,56.9528198 C39.2723672,56.1953453 39.6859795,55.1176988 40.2062424,54.4912929 C42.0951583,52.2200041 42.51062,49.554628 42.5767445,46.8407699 C42.6241546,44.8945994 42.1513018,42.9356929 41.5886194,40.9810115 C41.5518143,40.8533472 41.2902756,39.6300143 41.1617695,39.6271773 C38.9228925,39.5817856 38.430861,39.2876813 38.430861,37.072216 C38.430861,33.3111134 38.8856231,30.4353775 38.430861,26.6843183 C35.4646142,31.2161153 35.7690366,36.4293556 34.5968856,41.7617493 C34.2681344,40.9980334 34.0816133,40.5651097 33.8950922,40.1321861 C33.7690813,40.1333209 33.6424466,40.1344557 33.5164357,40.1355905 C33.5607267,40.9010085 33.6050176,41.6664266 33.6474371,42.4012053 C31.1596575,41.8638806 30.9736132,40.8008238 31.4726663,38.5057044 C31.9386571,36.3637821 31.6237769,34.2051608 32.0972535,32.0655081 C32.8639238,28.6072256 33.8514251,25.1909304 34.663634,21.740024 C35.1065436,19.8585368 35.3978659,17.9458427 35.723498,16.042227 C35.9505672,14.7179232 36.7003944,13.8912263 38.0497092,13.2534725 C39.6416886,12.5016719 40.4537906,11.7229249 42.1319635,11.3782266" transform="matrix(-1 0 0 1 96.406 0)"/>
    </g>
    <g transform="translate(11)">
      <path fill="url(#qvr_human-h)" d="M67.3716518,18.3984375 C65.4322174,32.7860567 53.1752045,43.8827605 38.3492384,43.8827605 C23.5323848,43.8827605 11.2753719,32.7860567 9.3359375,18.3984375 L67.3716518,18.3984375 Z"/>
      <use fill="#000" filter="url(#qvr_human-i)" xlink:href="#qvr_human-j"/>
      <use fill="url(#qvr_human-k)" xlink:href="#qvr_human-j"/>
      <path fill="url(#qvr_human-l)" d="M71.7598868,15.1450376 C71.7598868,17.0839064 70.1902234,18.6480021 68.2687252,18.6480021 L8.22330446,18.6480021 C6.30180622,18.6480021 4.73214286,17.0839064 4.73214286,15.1450376 L71.7598868,15.1450376 Z"/>
      <polygon fill="url(#qvr_human-m)" points="17.527 15.16 8.86 15.16 6.113 .039 16.501 .039"/>
      <g transform="translate(54.453 22.305)">
        <path fill="url(#qvr_human-n)" d="M2.82694119,5.859375 C1.26076879,5.859375 0,4.54379018 0,2.92361183 C0,1.31315455 1.26076879,0 2.82694119,0 C4.39311359,0 5.6640625,1.31315455 5.6640625,2.92361183 C5.6640625,4.54379018 4.39311359,5.859375 2.82694119,5.859375 Z" opacity=".183"/>
        <path fill="#2FF043" d="M2.82863788,4.8828125 C1.78452294,4.8828125 0.944010417,4.00575595 0.944010417,2.92563705 C0.944010417,1.85199887 1.78452294,0.9765625 2.82863788,0.9765625 C3.87275281,0.9765625 4.72005208,1.85199887 4.72005208,2.92563705 C4.72005208,4.00575595 3.87275281,4.8828125 2.82863788,4.8828125 Z"/>
      </g>
      <path stroke="url(#qvr_human-o)" stroke-linecap="round" stroke-linejoin="round" stroke-width="1.764" d="M14.8046875,22.4602141 C17.0524885,28.6997865 20.7023177,33.0841393 25.7541753,35.6132725" opacity=".1"/>
    </g>
    <g opacity=".1" transform="translate(40.195 18.71)">
      <circle cx="10.84" cy="10.84" r="10.84" fill="#000"/>
      <circle cx="10.938" cy="10.938" r="7.813" stroke="#E7E7E7" stroke-width="1.25"/>
      <circle cx="10.923" cy="10.923" r="3.286" fill="#D8D8D8"/>
      <circle cx="6.235" cy="6.626" r="1.357" fill="#D8D8D8"/>
      <circle cx="14.937" cy="14.155" r="1" fill="#FFF"/>
    </g>
  </g>
</svg>
