<svg xmlns="http://www.w3.org/2000/svg" viewBox="0 0 24 24"><g fill="none"><path fill="#4289c7" fill-rule="evenodd" d="M20.028 15.324c.005-2.184-1.003-5.489-5.152-6.546c1.348.33 3.856 1.057 4.844 1.752c-.757-1.035-3.038-3.107-6.106-3.107c.571-.475 1.624-1.547 1.976-2.56a8.54 8.54 0 0 1 4.88 7.73a8.6 8.6 0 0 1-.442 2.73M3.53 12.64v-.047C3.53 7.88 7.322 4.06 12 4.06a8.4 8.4 0 0 1 2.845.492c-.223.361-.821 1.036-2.046 1.822c-.014-.203-.102-.689-.334-1.007c-.046.22-.376.776-1.323 1.228q-.356.168-.688.31c-.88.385-1.558.682-1.495 1.262c.064.58.494.73.702.733c-.185.055-.594.113-.763-.106c-.257.297-.876.886-1.297.865c-.526-.027-.614-.582-.439-.865c-.71.45-1.961 1.779-1.288 3.488c.726-.441 2.598-1.25 4.275-.957c.485.085.869.137 1.18.18c1.034.14 1.272.172 1.819.937c.71.996.028 4.628-4.25 4.942c-3.064.225-4.747-2.753-5.368-4.744" clip-rule="evenodd"/><path fill="url(#SVGcec9pcWL)" d="M4.502 12.3c0-4.055 3.264-7.343 7.289-7.343c13.402.555-4.07 19.34-7.289 7.343"/><path fill="#191e44" fill-rule="evenodd" d="m6.407 11.861l-.053.072c1.647-.27 5.178-.56 6.097.492s.643 1.828.382 2.458c-.728 1.758-6.469 4.225-9.3-2.332c-.107 2.877 2.357 8.868 9.116 8.425c8.592-.562 5.942-11.726-1.404-11.213l-.062.013c.762.351 1.24.932 1.414 1.26c-2.93-.713-5.195.197-6.19.825" clip-rule="evenodd"/><path fill="#0c1d63" d="M12.222 12.19c1.56 1.037 1.35 2.663 1.05 3.346c.35-.38.902-.633 1.135-.712c.375.13.814.909-.429 2.99c-1.242 2.08-3.838 2.348-4.98 2.223l.75.507l5.57-1.35l1.156-5.007l-4.252-2.05z"/><path fill="#262f72" d="M8.48 13.067c-.539-.05-1.718-.346-2.121-1.136c.896-.587 3.406-1.461 6.287-.266c-.04-.167-.19-.544-.48-.728c.1.017.327.062.437.103c-.092-.153-.338-.508-.59-.701c1.895.263 5.682 1.749 5.682 5.591s-2.97 4.927-4.454 4.989c-1.226.205-4.203.142-6.49-1.694a1.3 1.3 0 0 1-.153-.127l.153.127c.474.34 1.64.844 3.575.844c2.742 0 6.095-2.752 4.777-5.763c-.018.285-.317.989-1.37 1.532c.37-1.277.205-3.867-3.429-4.004c-.959-.06-2.666.103-1.824 1.233"/><path fill="#161a3d" d="M17.413 9.903c-1.094-.718-2.093-1.042-2.658-1.159c1.851.222 2.742.62 2.957.79a4 4 0 0 0-.299-.519c.818.29 1.899 1.149 2.337 1.542c-.621-.35-1.817-.582-2.337-.654"/><path fill="#18214a" d="M12.716 7.294c-.117.498-.493.965-.666 1.136c3.503-1.534 3.987-4.26 3.79-5.43c-.259.995-.972 2.073-1.296 2.487l.586-.138c-.733 1.115-1.915 1.762-2.414 1.945"/><path fill="#253155" d="M10.437 7.802c-.524.25-.604.616-.58.768c1.492.06 1.985-.977 2.044-1.504c-.226.195-.81.422-1.464.736"/><path fill="#5d98ce" fill-rule="evenodd" d="M10.103 8.57c.264-.078.556-.224.749-.477c.166-.22.27-.444.33-.635l-.198.09c-.171.079-.357.163-.547.254c-.524.25-.604.616-.58.768q.128.005.245 0" clip-rule="evenodd"/><path fill="#54a2cc" d="M7.124 9.953c-.288-.01-.569.548-.673.83c.518-.52.727-.372.767-.232c.088-.195.192-.587-.095-.598"/><path fill="#3a415a" fill-rule="evenodd" d="M6.753 10.21c.126-.079.257-.13.345-.09c.08.036.146.114.196.2c.038-.177.024-.359-.17-.367c-.13-.005-.26.107-.371.257" clip-rule="evenodd"/><defs><linearGradient id="SVGcec9pcWL" x1="7.172" x2="11.918" y1="5.401" y2="10.5" gradientUnits="userSpaceOnUse"><stop stop-color="#fff" stop-opacity=".41"/><stop offset="1" stop-color="#fff" stop-opacity="0"/></linearGradient></defs></g></svg>