<svg xmlns="http://www.w3.org/2000/svg" viewBox="0 0 24 24"><g fill="none"><path fill="#12e3bc" d="M17.4 18v.6H21l-.528-.6z"/><path fill="#14f4c8" d="M13.2 17.4V15H5.4V5.4H15V21h6v-2.4h-3.6V3H3v14.4z"/><path fill="url(#SVGqniLze6F)" d="m6 14.4l-.6.6h7.8l-.6-.6z"/><path fill="url(#SVG8AHPRbHy)" d="m6 6l-.6-.6H15l-.6.6z"/><path fill="url(#SVGVt1jHeNs)" d="m15 5.4l-.6.6v14.4l.6.6z"/><path fill="url(#SVGVSWagddA)" d="M9 8.1L5.4 5.4V15L9 12.3z"/><defs><linearGradient id="SVGqniLze6F" x1="8.497" x2="6.322" y1="15.419" y2="7.557" gradientUnits="userSpaceOnUse"><stop stop-color="#068f82"/><stop offset="1" stop-color="#12e3bc"/></linearGradient><linearGradient id="SVG8AHPRbHy" x1="8.524" x2="8.524" y1="-1.501" y2="6.959" gradientUnits="userSpaceOnUse"><stop stop-color="#068f82"/><stop offset="1" stop-color="#12e3bc"/></linearGradient><linearGradient id="SVGVt1jHeNs" x1="23.88" x2="6.96" y1="8.669" y2="8.669" gradientUnits="userSpaceOnUse"><stop stop-color="#068f82"/><stop offset="1" stop-color="#12e3bc"/></linearGradient><linearGradient id="SVGVSWagddA" x1="4.967" x2="9.185" y1="9.75" y2="9.75" gradientUnits="userSpaceOnUse"><stop stop-color="#068f82"/><stop offset="1" stop-color="#12e3bc"/></linearGradient></defs></g></svg>