<?xml version="1.0" encoding="UTF-8" ?>
<svg version="1.1" width="32" height="32" xmlns="http://www.w3.org/2000/svg" shape-rendering="crispEdges">
<rect x="11" y="6" width="5" height="1" fill="#222034" />
<rect x="9" y="7" width="2" height="1" fill="#222034" />
<rect x="11" y="7" width="5" height="1" fill="#CBDBFC" />
<rect x="16" y="7" width="2" height="1" fill="#222034" />
<rect x="7" y="8" width="2" height="1" fill="#222034" />
<rect x="9" y="8" width="2" height="1" fill="#CBDBFC" />
<rect x="11" y="8" width="5" height="1" fill="#FFFFFF" />
<rect x="16" y="8" width="2" height="1" fill="#CBDBFC" />
<rect x="18" y="8" width="2" height="1" fill="#222034" />
<rect x="6" y="9" width="1" height="2" fill="#222034" />
<rect x="7" y="9" width="2" height="1" fill="#CBDBFC" />
<rect x="9" y="9" width="2" height="1" fill="#FFFFFF" />
<rect x="11" y="9" width="5" height="1" fill="#5B6EE1" />
<rect x="16" y="9" width="2" height="1" fill="#FFFFFF" />
<rect x="18" y="9" width="2" height="1" fill="#CBDBFC" />
<rect x="20" y="9" width="1" height="2" fill="#222034" />
<rect x="7" y="10" width="1" height="1" fill="#CBDBFC" />
<rect x="8" y="10" width="1" height="1" fill="#FFFFFF" />
<rect x="9" y="10" width="9" height="1" fill="#3F3F74" />
<rect x="18" y="10" width="1" height="1" fill="#FFFFFF" />
<rect x="19" y="10" width="1" height="1" fill="#CBDBFC" />
<rect x="5" y="11" width="1" height="2" fill="#222034" />
<rect x="6" y="11" width="1" height="2" fill="#CBDBFC" />
<rect x="7" y="11" width="1" height="2" fill="#FFFFFF" />
<rect x="8" y="11" width="11" height="1" fill="#222034" />
<rect x="19" y="11" width="1" height="2" fill="#FFFFFF" />
<rect x="20" y="11" width="1" height="2" fill="#CBDBFC" />
<rect x="21" y="11" width="1" height="2" fill="#222034" />
<rect x="8" y="12" width="1" height="2" fill="#222034" />
<rect x="9" y="12" width="1" height="1" fill="#6ABE30" />
<rect x="10" y="12" width="1" height="2" fill="#222034" />
<rect x="11" y="12" width="1" height="1" fill="#99E550" />
<rect x="12" y="12" width="1" height="2" fill="#222034" />
<rect x="13" y="12" width="1" height="1" fill="#6ABE30" />
<rect x="14" y="12" width="2" height="2" fill="#222034" />
<rect x="16" y="12" width="1" height="1" fill="#DF7126" />
<rect x="17" y="12" width="2" height="2" fill="#222034" />
<rect x="4" y="13" width="1" height="4" fill="#222034" />
<rect x="5" y="13" width="1" height="4" fill="#CBDBFC" />
<rect x="6" y="13" width="1" height="4" fill="#FFFFFF" />
<rect x="7" y="13" width="1" height="1" fill="#222034" />
<rect x="9" y="13" width="1" height="1" fill="#222034" />
<rect x="11" y="13" width="1" height="1" fill="#222034" />
<rect x="13" y="13" width="1" height="1" fill="#222034" />
<rect x="16" y="13" width="1" height="1" fill="#222034" />
<rect x="19" y="13" width="1" height="1" fill="#222034" />
<rect x="20" y="13" width="1" height="4" fill="#FFFFFF" />
<rect x="21" y="13" width="1" height="4" fill="#CBDBFC" />
<rect x="22" y="13" width="1" height="4" fill="#222034" />
<rect x="7" y="14" width="13" height="1" fill="#5B6EE1" />
<rect x="7" y="15" width="13" height="1" fill="#3F3F74" />
<rect x="7" y="16" width="13" height="1" fill="#222034" />
<rect x="5" y="17" width="1" height="2" fill="#222034" />
<rect x="6" y="17" width="1" height="2" fill="#CBDBFC" />
<rect x="7" y="17" width="1" height="2" fill="#FFFFFF" />
<rect x="8" y="17" width="1" height="2" fill="#222034" />
<rect x="9" y="17" width="1" height="1" fill="#99E550" />
<rect x="10" y="17" width="1" height="2" fill="#222034" />
<rect x="11" y="17" width="1" height="1" fill="#6ABE30" />
<rect x="12" y="17" width="1" height="2" fill="#222034" />
<rect x="13" y="17" width="1" height="1" fill="#99E550" />
<rect x="14" y="17" width="2" height="2" fill="#222034" />
<rect x="16" y="17" width="1" height="1" fill="#DF7126" />
<rect x="17" y="17" width="2" height="2" fill="#222034" />
<rect x="19" y="17" width="1" height="2" fill="#FFFFFF" />
<rect x="20" y="17" width="1" height="2" fill="#CBDBFC" />
<rect x="21" y="17" width="1" height="2" fill="#222034" />
<rect x="9" y="18" width="1" height="1" fill="#222034" />
<rect x="11" y="18" width="1" height="1" fill="#222034" />
<rect x="13" y="18" width="1" height="1" fill="#222034" />
<rect x="16" y="18" width="1" height="1" fill="#222034" />
<rect x="6" y="19" width="1" height="2" fill="#222034" />
<rect x="7" y="19" width="1" height="2" fill="#CBDBFC" />
<rect x="8" y="19" width="1" height="1" fill="#FFFFFF" />
<rect x="9" y="19" width="9" height="1" fill="#5B6EE1" />
<rect x="18" y="19" width="1" height="1" fill="#FFFFFF" />
<rect x="19" y="19" width="1" height="1" fill="#CBDBFC" />
<rect x="20" y="19" width="1" height="5" fill="#8F563B" />
<rect x="21" y="19" width="1" height="1" fill="#663931" />
<rect x="22" y="19" width="1" height="1" fill="#222034" />
<rect x="8" y="20" width="1" height="1" fill="#CBDBFC" />
<rect x="9" y="20" width="2" height="1" fill="#FFFFFF" />
<rect x="11" y="20" width="5" height="1" fill="#3F3F74" />
<rect x="16" y="20" width="2" height="1" fill="#FFFFFF" />
<rect x="18" y="20" width="1" height="1" fill="#CBDBFC" />
<rect x="19" y="20" width="1" height="3" fill="#8F563B" />
<rect x="21" y="20" width="1" height="5" fill="#8F563B" />
<rect x="22" y="20" width="1" height="1" fill="#663931" />
<rect x="23" y="20" width="1" height="1" fill="#222034" />
<rect x="7" y="21" width="2" height="1" fill="#222034" />
<rect x="9" y="21" width="2" height="1" fill="#CBDBFC" />
<rect x="11" y="21" width="5" height="1" fill="#FFFFFF" />
<rect x="16" y="21" width="2" height="1" fill="#CBDBFC" />
<rect x="18" y="21" width="1" height="1" fill="#8F563B" />
<rect x="22" y="21" width="1" height="5" fill="#8F563B" />
<rect x="23" y="21" width="1" height="1" fill="#663931" />
<rect x="24" y="21" width="1" height="1" fill="#222034" />
<rect x="9" y="22" width="2" height="1" fill="#222034" />
<rect x="11" y="22" width="5" height="1" fill="#CBDBFC" />
<rect x="16" y="22" width="2" height="1" fill="#222034" />
<rect x="18" y="22" width="1" height="1" fill="#663931" />
<rect x="23" y="22" width="1" height="4" fill="#8F563B" />
<rect x="24" y="22" width="1" height="1" fill="#663931" />
<rect x="25" y="22" width="1" height="1" fill="#222034" />
<rect x="11" y="23" width="5" height="1" fill="#222034" />
<rect x="18" y="23" width="1" height="1" fill="#222034" />
<rect x="19" y="23" width="1" height="1" fill="#663931" />
<rect x="24" y="23" width="1" height="3" fill="#8F563B" />
<rect x="25" y="23" width="1" height="3" fill="#663931" />
<rect x="26" y="23" width="1" height="3" fill="#222034" />
<rect x="19" y="24" width="1" height="1" fill="#222034" />
<rect x="20" y="24" width="1" height="1" fill="#663931" />
<rect x="20" y="25" width="1" height="1" fill="#222034" />
<rect x="21" y="25" width="1" height="1" fill="#663931" />
<rect x="21" y="26" width="1" height="1" fill="#222034" />
<rect x="22" y="26" width="3" height="1" fill="#663931" />
<rect x="25" y="26" width="1" height="1" fill="#222034" />
<rect x="22" y="27" width="3" height="1" fill="#222034" />
</svg>