<svg xmlns="http://www.w3.org/2000/svg" viewBox="0 0 24 24"><g fill="none"><path fill="url(#SVGjTX9KbxD)" d="M3 7.05h1.35c6.959 0 12.6 5.641 12.6 12.6V21h2.7A1.35 1.35 0 0 0 21 19.65C21 10.454 13.546 3 4.35 3A1.35 1.35 0 0 0 3 4.35z"/><path fill="url(#SVG83ch1d2Q)" d="M17.4 19.65H21A1.35 1.35 0 0 1 19.65 21H17.4z"/><path fill="url(#SVGAFS4FQlJ)" d="M4.35 3v3.6H3V4.35C3 3.604 3.604 3 4.35 3"/><path fill="url(#SVGPHylveUL)" d="M3 6.6h1.35c7.207 0 13.05 5.843 13.05 13.05V21h-4.05v-1.35a9 9 0 0 0-9-9H3z"/><path fill="url(#SVGcttgPcNU)" d="M13.8 19.65h3.6V21h-3.6z"/><path fill="url(#SVGXgRNhd7i)" d="M3 10.2V6.6h1.35v3.6z"/><path fill="url(#SVGiEoXzbTX)" d="M3 12.45c0 .745.604 1.35 1.35 1.35a5.85 5.85 0 0 1 5.85 5.85c0 .745.604 1.35 1.35 1.35h2.25v-1.35a9.45 9.45 0 0 0-9.45-9.45H3z"/><path fill="url(#SVGvYJcce6Q)" d="M10.2 19.65h3.6V21h-2.25a1.35 1.35 0 0 1-1.35-1.35"/><path fill="url(#SVGf6ziQdoX)" d="M4.35 13.8A1.35 1.35 0 0 1 3 12.45V10.2h1.35z"/><defs><radialGradient id="SVGjTX9KbxD" cx="0" cy="0" r="1" gradientTransform="rotate(-90 12 7.65)scale(16.6499)" gradientUnits="userSpaceOnUse"><stop offset=".77" stop-color="#ff4000"/><stop offset="1" stop-color="#8754c9"/></radialGradient><radialGradient id="SVGPHylveUL" cx="0" cy="0" r="1" gradientTransform="rotate(-90 12 7.65)scale(13.05)" gradientUnits="userSpaceOnUse"><stop offset=".724" stop-color="#fff700"/><stop offset="1" stop-color="#ff9901"/></radialGradient><radialGradient id="SVGiEoXzbTX" cx="0" cy="0" r="1" gradientTransform="rotate(-90 12 7.65)scale(9.44997)" gradientUnits="userSpaceOnUse"><stop offset=".595" stop-color="#0af"/><stop offset="1" stop-color="#01da40"/></radialGradient><radialGradient id="SVGvYJcce6Q" cx="0" cy="0" r="1" gradientTransform="matrix(3.82499 0 0 10.2 9.975 20.325)" gradientUnits="userSpaceOnUse"><stop stop-color="#0af"/><stop offset="1" stop-color="#01da40"/></radialGradient><radialGradient id="SVGf6ziQdoX" cx="0" cy="0" r="1" gradientTransform="matrix(0 -3.82499 72.5331 0 3.675 14.025)" gradientUnits="userSpaceOnUse"><stop stop-color="#0af"/><stop offset="1" stop-color="#01da40"/></radialGradient><linearGradient id="SVG83ch1d2Q" x1="17.175" x2="21" y1="20.325" y2="20.325" gradientUnits="userSpaceOnUse"><stop stop-color="#ff4000"/><stop offset="1" stop-color="#8754c9"/></linearGradient><linearGradient id="SVGAFS4FQlJ" x1="3.675" x2="3.675" y1="3" y2="6.825" gradientUnits="userSpaceOnUse"><stop stop-color="#8754c9"/><stop offset="1" stop-color="#ff4000"/></linearGradient><linearGradient id="SVGcttgPcNU" x1="13.8" x2="17.4" y1="20.325" y2="20.325" gradientUnits="userSpaceOnUse"><stop stop-color="#fff700"/><stop offset="1" stop-color="#ff9901"/></linearGradient><linearGradient id="SVGXgRNhd7i" x1="3.675" x2="3.675" y1="10.2" y2="6.6" gradientUnits="userSpaceOnUse"><stop stop-color="#fff700"/><stop offset="1" stop-color="#ff9901"/></linearGradient></defs></g></svg>