<svg xmlns="http://www.w3.org/2000/svg" viewBox="0 0 24 24"><g fill="none"><path fill="#4fa8ff" d="M20.177 9.001c-.452 0-.817.35-.817.785v4.443c.005.43.381.774.828.769a.8.8 0 0 0 .807-.769V9.786c0-.436-.365-.785-.818-.785"/><path fill="url(#SVGRa6Kob2L)" d="M17.451 6.822c-.452 0-.817.349-.817.774v8.787c-.011.43.349.785.801.796c.447.011.823-.327.834-.758V7.596c0-.425-.365-.774-.818-.774"/><path fill="url(#SVG2dR8CcDJ)" d="M14.726 3.005c-.453 0-.818.344-.818.774v16.447c0 .425.365.768.818.768s.817-.343.817-.768V3.779c0-.43-.365-.774-.817-.774"/><path fill="url(#SVGlhur7cMe)" d="M12 7.367c-.453 0-.818.332-.818.747v7.228c0 .409.365.747.818.747s.818-.333.818-.747V8.114c0-.415-.366-.747-.818-.747"/><path fill="url(#SVGJbBuHbVb)" d="M9.274 3.005c-.452 0-.817.344-.817.77V20.23c0 .426.365.769.817.769c.453 0 .818-.343.818-.769V3.77c0-.426-.365-.764-.818-.769z"/><path fill="url(#SVGTBKnJcsd)" d="M6.548 5.732c-.452 0-.817.338-.817.752v11.033c0 .415.365.753.817.753c.453 0 .818-.338.818-.753V6.484c0-.414-.365-.752-.818-.752"/><path fill="url(#SVG3iTVgc7v)" d="M3.823 9.001c-.453 0-.818.338-.818.753v4.497c0 .409.365.747.818.747s.817-.338.817-.747V9.754c0-.415-.365-.753-.817-.753"/><defs><linearGradient id="SVGRa6Kob2L" x1="-152.754" x2="34.365" y1="10.276" y2="10.276" gradientUnits="userSpaceOnUse"><stop stop-color="#14779a"/><stop offset="1" stop-color="#4fa8ff"/></linearGradient><linearGradient id="SVG2dR8CcDJ" x1="-122.798" x2="64.348" y1="11.024" y2="11.024" gradientUnits="userSpaceOnUse"><stop stop-color="#14779a"/><stop offset="1" stop-color="#4fa8ff"/></linearGradient><linearGradient id="SVGlhur7cMe" x1="-92.756" x2="94.27" y1="10.043" y2="10.043" gradientUnits="userSpaceOnUse"><stop stop-color="#14779a"/><stop offset="1" stop-color="#4fa8ff"/></linearGradient><linearGradient id="SVGJbBuHbVb" x1="-62.775" x2="124.252" y1="11.024" y2="11.024" gradientUnits="userSpaceOnUse"><stop stop-color="#14779a"/><stop offset="1" stop-color="#4fa8ff"/></linearGradient><linearGradient id="SVGTBKnJcsd" x1="-32.853" x2="154.294" y1="10.631" y2="10.631" gradientUnits="userSpaceOnUse"><stop stop-color="#14779a"/><stop offset="1" stop-color="#4fa8ff"/></linearGradient><linearGradient id="SVG3iTVgc7v" x1="2.471" x2="19.484" y1="11.051" y2="11.051" gradientUnits="userSpaceOnUse"><stop stop-color="#14779a"/><stop offset="1" stop-color="#4fa8ff"/></linearGradient></defs></g></svg>