<svg xmlns="http://www.w3.org/2000/svg" viewBox="0 0 24 24"><g fill="none"><path fill="url(#SVGs8ddTd5D)" d="M12.82 11.457c-.54.235-.9.7-.92.72v.095c.075.04.285.125.54.165c.315.05.85.08 1.285.06c.435-.025 1.07-.16 1.655-.32c.47-.13 1.095-.375 1.35-.48c.01-.01.02-.045-.055-.115a1.15 1.15 0 0 1-.255-.535a.8.8 0 0 1 .04-.325h-.275c-.35.05-1.19.17-1.74.235c-.685.08-1.08.265-1.625.5"/><path fill="url(#SVGFdziCc3A)" d="m14.69 10.927l-.34.04l-.08.34l-.195.1l-.11.165l-.05.185l.08.2l.22.065l.18.025l.07.115l.15.22l.465-.1l-.18-.215l-.06-.165c.09-.1.275-.335.265-.465c-.005-.13-.155-.18-.23-.19h-.23z"/><path fill="url(#SVGkg1zRd9w)" d="m12.905 20.616l-1.115.22l-1.265-1.18l-1.685-1.545l-1.16-1v-.07l-.05-1.92c-.735-.63-1.1-2.51-1.195-3.375l-.05-1.065a.67.67 0 0 1-.49-.584c0-.426.29-.606.43-.65v-.925l.05-1.03c.685.1 2.495.22 4.26-.085c1.77-.3 2.8-.86 3.09-1.1l.34.835l.215.875l-.325-.165l-.31-.035a1.09 1.09 0 0 0-1.15 1.1c0 .66.485.985.59 1.06c.1.07.145.07.64.07c.4 0 .6-.166.66-.25v1.15a4.3 4.3 0 0 0-1.955.774h-1.32c-.82-.015-1.85.175-2.255.275c.1.125.3.385.3.4c.985.465 2.91.265 3.75.11c.615.045 1.53-.085 1.905-.15c-.01.23-.13.87-.19 1.16a3.43 3.43 0 0 1-1.095 1.8l-.325.22l.045 2.485l-.16 1.635z"/><path fill="#4b594b" d="M4.3 18.542c1.2 1.07 4.38 3.03 7.5 2.3l-2.635-2.46l-.75-.635l-.74-.65l-.035-1.33l-.65.465l-.49.38a.32.32 0 0 0 0 .315l-.685.515l-1.51 1.1zm8.915-2.465v1.194l.035.8l-.175 1.75l-.165.8c.95-.25 3.14-1.054 4.275-2.254l-2.695-1.215l-.06-.14z"/><path fill="#2d352d" d="m4.81 18.951l1.64-1.525l.515 2.245c-.075.035-.225.12-.225.165c0 .05.15.11.225.14l1.83.815h.455l-2.325-1.025l.345-.16l1.42-.5v-.885l2.84 2.68l.27-.06l-2.08-1.94l-.765-.7l-.535-.45l-.745-.66l-.03-1.195l-.005-.125l-.65.46l-.41.316l.73.344h-.4l.67.285l.79.8l-.46.25c-.17.135-.515.435-.53.515c-.02.1.015.25.17.25l.685.025c.065-.02.2-.115.19-.315l.11.315l-.4.145c-.24-.015-.765-.08-.935-.23c.005-.12 0-.395-.065-.545s-.435-1.25-.61-1.774a.3.3 0 0 0-.065.15c0 .05.005.104.04.164l-.075.055a.4.4 0 0 1-.09.07l-.52.39l-1.51 1.1c.14.125.31.265.5.41zm8.3.515l.02-.14l.115-1.175v-.05l.005-.03v-1.205l-.035-.39v-.4l.025.02l.45.386l-.315.44l.255-.116l-.2.225l.025.58l.23-.245l-.25.53c.04-.015.175-.05.39-.05c.21 0 .51.045.63.07l-.53.7c-.005.04.01.125.105.12c.1-.005.47-.285.64-.425l-.37-1.4l.13.1l.06.14l.015.01l.365 1.25l-.12.12l.215.205l-.755.075h-.325l-.485-.57l-.025.55a1.6 1.6 0 0 0-.055.33c0 .11-.13 1.11-.2 1.445l-.18.05l.07-.475l.065-.32zm2.58.015c-.5.285-1.025.52-1.5.71l1.225-1.49l.18.02l-.18.215l.715.28c-.075.05-.15.1-.235.145l-.55-.28l-.2.225z"/><path fill="#393f3e" d="M7.965 7.602c-.96.025-1.5-.08-1.645-.14l-.07-.25l-.035-.14l-.48.05l-.335-.085l-.4-.15l-.415-.385v-.27l.21-.275l.41-.32l.56-.365l.72-.41l.55-.195l.215-.265l.42-.375l.395-.34l.525-.3l.64-.23l.45-.085l.55-.035h1.165l1.085-.03c.2 0 .65.03.91.13s.45.235.51.295l.22.325l.085.35l-.085.25l-.415.61v.71l.09.14l.06.265l-.095.205c-.2.13-.675.415-.975.515c-.38.12-1.01.31-1.58.47c-.575.16-2.035.295-3.24.325z"/><path fill="url(#SVGKjG9676h)" d="m13.88 18.451l-.34-.45v-.05l.055-.075l.075-.024l.715.06l.1.04l.02.074l-.025.09l-.25.24l-.16.15h-.1l-.09-.06z"/><path fill="url(#SVGLYOJKeSZ)" d="m8.115 18.032l-.62.635l-.035.135l.07.1l.655.005l.14-.005l.08-.135l-.065-.675l-.125-.09z"/><path fill="#9f0111" d="m8.13 18.231l-.435.46l-.015.04l.055.01h.315l.135-.06l.015-.09l-.015-.335z"/><path fill="url(#SVGjZBDLbAd)" d="M9.28 18.801a.06.06 0 0 0-.01-.045a.06.06 0 0 0-.04-.025a.06.06 0 0 0-.046.01a.06.06 0 0 0-.024.04l-.115.83l-.85.3a.06.06 0 0 0-.04.075c.015.03.05.05.08.035l.79-.275l-.095.68c0 .035.02.065.05.07c.035 0 .065-.02.07-.05l.1-.75l.67-.23c.03-.01.05-.045.035-.075a.06.06 0 0 0-.032-.034a.06.06 0 0 0-.048 0l-.6.21l.1-.77z"/><path fill="#000" d="M9.236 18.671c.065.01.114.07.1.135l-.085.67l.51-.18c.065-.02.135.01.154.075a.12.12 0 0 1-.07.15l-.63.225l-.1.705a.12.12 0 0 1-.134.1a.12.12 0 0 1-.1-.13l.075-.585l-.7.245a.12.12 0 0 1-.15-.075a.12.12 0 0 1 .075-.15l.814-.29l.11-.79a.12.12 0 0 1 .046-.08a.12.12 0 0 1 .09-.025zm-.19.94l-.85.3a.06.06 0 0 0-.04.075c.015.03.05.05.08.035l.79-.275l-.095.68c0 .035.02.065.05.07c.035 0 .065-.02.07-.05l.1-.75l.67-.23c.03-.01.05-.045.035-.075a.06.06 0 0 0-.08-.035l-.6.21l.1-.77a.06.06 0 0 0-.05-.065a.06.06 0 0 0-.065.05z"/><path fill="url(#SVGFAuYoceG)" d="M13.3 19.53a.05.05 0 0 0-.033.046q0 .01.003.02l.01.018a.05.05 0 0 0 .06.012l.655-.25l.58.515a.06.06 0 0 0 .075 0a.05.05 0 0 0-.005-.075l-.54-.48l.54-.21a.05.05 0 0 0 .03-.065l-.01-.019a.05.05 0 0 0-.039-.017l-.021.006l-.59.225l-.45-.4a.05.05 0 0 0-.037-.017l-.021.004l-.017.013a.05.05 0 0 0-.014.038q0 .011.005.02l.014.017l.415.365z"/><path fill="#000" d="M13.225 19.617a.1.1 0 0 1-.002-.08a.1.1 0 0 1 .057-.055l.53-.2l-.35-.315a.105.105 0 0 1 .023-.171a.1.1 0 0 1 .117.02l.425.38l.56-.214c.05-.02.115.01.135.06a.1.1 0 0 1-.055.135l-.465.175l.475.425c.045.04.05.1.015.15a.1.1 0 0 1-.15 0l-.55-.49l-.63.24a.105.105 0 0 1-.135-.06m.77-.24l.58.515a.06.06 0 0 0 .075 0a.05.05 0 0 0 .014-.039a.05.05 0 0 0-.02-.036l-.54-.48l.54-.21l.018-.01a.05.05 0 0 0 .013-.055l-.011-.019a.05.05 0 0 0-.038-.017l-.021.006l-.59.224l-.45-.4l-.017-.012a.05.05 0 0 0-.041 0l-.017.013a.05.05 0 0 0 .005.075l.415.365l-.61.235l-.017.01a.05.05 0 0 0-.016.035q0 .01.003.02a.05.05 0 0 0 .05.035l.02-.005z"/><path fill="#9f0111" d="m14.3 18.017l-.58-.045l.225.345z"/><path fill="#7b889a" d="M11.45 15.472c-3 0-4.465-2.415-4.825-3.625c.03.845.37 2.7 1.45 3.415c1.075.71 1.305.66 1.635.76c-.44-.05-1.42-.265-1.835-.69c-.025.26-.065.78 0 .78c.085 0 2 1.91 4.705 1.67l.63-.136v-.41c-.065.05-.2.06-.2-.35v-1.254c.34-.155 1.06-.65 1.245-1.385c-1.005 1.245-2.65 1.18-2.8 1.225z"/><path fill="#7b889a" d="m12.36 20.726l-3.775-2.935l.33.36l1.835 1.725l1.06.94c.45-.02.92-.16 1.1-.23c.2-.575.285-2.115.3-2.814l-.715 2.924z"/><path fill="#eaf9ff" d="M10.95 19.657c.52-.065 1.64-.24 2-.435c-.435.36-1.515.44-2 .435"/><path fill="#eaf8ff" d="M12.45 17.932c-1.18.635-3.03.22-3.805-.065l1.285 1.065l.135-.55c.55.09 1.805.12 2.385-.45"/><path fill="#7b899b" d="M6.815 11.322c-.265.07-.385-.01-.415-.055l-.045-.6l.37.05c.385-.02.53-.42.56-.615c.07.53-.15 1.135-.47 1.22"/><path fill="#afc0da" d="m6.17 9.646l.02-.015c.175-.115.53-.25.715.04c.19.3 0 .685-.125.835c.1-.15.25-.595 0-.86c-.185-.2-.46-.1-.59-.015zm.93.315l-.095-.25l.125-.025c.025.035.065.17.08.23z"/><path fill="#445369" d="m7.25 10.103l-.18.045c-.025.315-.315.5-.46.55c.575.03.665-.385.64-.6z"/><path fill="#ebfaff" d="M7.71 9.641a1.19 1.19 0 0 0-.68-.745c.74-.17.93 1.105.93 1.765h-.05c0-.14-.035-.54-.2-1.02"/><path fill="#919caf" d="m8.025 11.023l-1.3.75l1.3-.55z"/><path fill="#9aa6b7" d="m8.41 11.121l-.03-.31c.265-.13.735-.5.935-.665l.105.165z"/><path fill="#eefaff" d="m9.165 11.912l-.195-1.275l.435-.38l.155.22l.1 1.345l-.5.09zm-.015-1.96l-.225.15l-.035-.53l.255.38z"/><path fill="#8593a8" d="m8.14 9.532l-.29-.03l.085.315l.055.84l.345-.18l-.195-.95z"/><path fill="#6b7686" d="m8.03 11.247l-.025-.22l.35-.2l.065.3z"/><path fill="#566370" d="M8.57 8.252h-.325v.085l.305.05c.015 0 .02-.09.02-.135"/><path fill="#4d5868" d="M8.2 8.592a.7.7 0 0 1-.46.345c.026 0 .25.225.326.435a1.16 1.16 0 0 0 .57-.695l-.15-.025z"/><path fill="#515d6d" d="M8.25 7.903a.6.6 0 0 0-.115-.3h.55c.075.12.075.51.07.69l-.06.1h-.15l.035-.49z"/><path fill="#cddaef" d="M7.175 8.777c-.15-.1-.245-.36-.27-.48l.27.07c.05.11.2.325.35.335s.29-.105.335-.165l.34.065c-.12.24-.385.325-.5.34l-.245-.1H7.27l-.1-.065z"/><path fill="#ebf8ff" d="m9.29 7.577l-.615.05l.075.345v.34l.295-.1l.3-.05l-.05-.585z"/><path fill="#50584c" d="M10.315 6.256c-.4.09-1.25.37-1.52.79c.25 0 1.345-.135 1.86-.2c-.31.215-1.265.43-1.705.51c2.085.13 4.125-.8 4.885-1.28c.01-.08 0-.26-.075-.334c-.08-.07-.46.194-.645.334c.23-.19.14-.6.065-.774c-.25.15-.77.454-.82.44c-.05-.016-.04-.1-.03-.136l-.75.45a2.55 2.55 0 0 1 1.05-.964l-.16.29c.28-.225.86-.69.935-.765l.04-.04c.125-.115.4-.37.36-.56c-.03-.17-.55-.415-.8-.515c-.4-.185-1.505-.535-2.78-.425a2.15 2.15 0 0 0-1.92 1.65c.12.79 1.575 1.28 2.285 1.424l.45-.15a4 4 0 0 1-1.29.675l.56-.425zm-.58-2.82c.635-.074 2.015-.15 2.41.15c.32.255.586.569.785.926c-.69-.315-2.3-.965-3.2-1.075z"/><path fill="#626d53" d="M11.165 4.552a.7.7 0 0 1 .11.44l-.57-.825c.185.11.36.245.46.39zm-.95-.625c.11.045.25.105.39.18l.65.985a.67.67 0 0 1-.185.325l-.85-1.49zm-.065-.025l.865 1.57c-.07.06-.15.11-.25.15l-.735-1.75l.105.025zm.4 1.8l.16-.05a51 51 0 0 0-.735-1.79c-.395-.06-.97-.01-1.005.57c-.055.83.875 1.45 1.58 1.265zm.895-1.675h.07l.525.85l-.065.01c-.4.045-.66-.295-.735-.47c-.04-.125-.055-.38.205-.39m.765.755c-.02.03-.05.05-.1.07l-.345-.54l.45.47zm-.515-.715l.54.56a.7.7 0 0 0-.2-.31l-.05-.05a.85.85 0 0 0-.29-.2m-.42 2.635l.725-.18l-.285.435c-.225.06-.525.14-.775.19zm.885-.215l-.225.41l.15-.04c.025 0 .215-.285.31-.43zm-1 .245l-.38.445l-.165.02l.32-.41l.22-.055z"/><path fill="#a30000" d="m11.54 4.972l-.29.235l-.32-.02l.135.265l-.035.315l.23-.05l.22.185l.02-.04c.02-.06.065-.18.075-.185c.01 0 .13-.135.19-.2l-.16-.135z"/><path fill="#ff7878" d="m10.955 5.188l.305.01l.145.27zm.83.284l-.17-.17l-.21.135zm-.765.29c-.005-.01.04-.2.065-.285h.3zm.385-.28l.1.435l-.215-.2z"/><path fill="#000" fill-rule="evenodd" d="M11.57 4.942a.03.03 0 0 0-.02-.025c-.015 0-.025 0-.035.01l-.25.25l-.34-.02a.03.03 0 0 0-.03.01a.03.03 0 0 0 0 .035l.01.02l.135.25l-.085.32c0 .01 0 .025.01.03c.005.01.02.01.03.01l.01-.005h.005l.25-.08l.22.215c.01.005.02.01.03.005c.01 0 .02-.01.025-.02l.055-.265l.23-.175a.03.03 0 0 0 .013-.025l-.003-.014l-.01-.011l-.195-.17zm-.305.74l-.13.04l.25-.205l.08.34l-.17-.165a.03.03 0 0 0-.03-.01m.27-.02l-.025.115l-.065-.29l.275.02l-.175.135a.03.03 0 0 0-.01.02m.18-.215l-.14-.12a.03.03 0 0 1-.01-.02l-.03-.19l-.08.31zm-.68.28l.315-.26l-.345-.19l.1.175v.02l-.07.25zm.46-.695l-.2.195a.03.03 0 0 1-.025.01l-.24-.015l.365.2z" clip-rule="evenodd"/><path fill="#fffa44" d="m16.09 18.227l-.4-.07l.225.29l-.145.29l.37-.05l.335.26l.02-.345l.305-.12l-.4-.165l-.065-.3l-.25.21z"/><path fill="#fff" d="m16.11 18.322l-.41-.15l.2.25l.35.045l.07-.43l-.21.19z"/><path fill="#ec843b" d="m16.185 18.456l-.425.28l.15-.265l-.015-.055zm.08-.08l.065-.355l.08.295l-.15.06z"/><path fill="#ec843b" d="m16.14 18.691l.035-.23l.24.44zm.61-.23h-.38l.065.445l.035.03l.03-.33l.3-.125z"/><path fill="#fff447" d="m5.195 19.262l-.53-.39l.12-.11l.04-.385l.325.24l.515-.19l-.225.425l.21.34h-.455z"/><path fill="#fff" d="m4.995 18.787l-.175-.4l.335.23l-.015.12l.54-.315l-.23.41l-.31.06l.45.18l.05.1l-.55-.25l-.025.235l-.09-.05v-.2l-.145.09l-.11-.075z"/><path fill="#ea8436" d="m5.005 18.79l-.215-.024l.035-.375zm.45.04l-.33.05l.475.216c.01.005-.095-.155-.15-.24v-.025zm-.395.33l.035-.255l.115.28l-.015.076z"/><path fill="#35404e" d="m6.4 7.487l.66.07c-.05.09-.14.31-.125.45l-.575-.145l.035-.375zm-.05.69c.025.1.085.335.15.475c.075.15.165.265.2.305a.54.54 0 0 1 .5-.145a.93.93 0 0 1-.29-.5c-.025 0-.38-.09-.555-.135z"/><path fill="#707b88" d="M6.71 8.952a1.7 1.7 0 0 1-.364-.715l-.02.7l.02.49h.07l.11-.26z"/><path fill="#2e2e2e" d="M8.67 8.403c-.28-.035-1.66-.365-2.315-.52l-.025.265l.77.205l.995.22l.55.1l.15.435l.405.81l-.53.36l-1 .55l-1.25.7v.08l.04.27l1.32-.735l.605-.34l.665-.416l.205-.17l.065-.09l.46.6l.195.12a1 1 0 0 0 .15.075h.15l.3-.15l.325-.32l.3-.384l.425-.6l.24-.445l.125-.375l.02-.285v-.2l-.095-.18l.71-.79l.375-.47l-.525.22l-.77.895l-.05-.025h-.31l-.415.055l-1.735.305c-.375.07-.505.185-.525.235z"/><path fill="#494949" d="M7.275 8.393v-.29l.27.08v.265z"/><path fill="#484848" d="M9.485 8.831c0-.454.15-.67.23-.714l1.55-.25c.06-.025.25-.025.515.144c.26.166.15.695.06.935c-.18.265-.665.79-1.15.79l-.2-.015l-.415.32l.305-.34h-.01l.32-.37l-.42.35a1.5 1.5 0 0 1-.21-.08l-.175.3l.125-.32H10l.155-.33l-.215.29c-.27-.15-.455-.4-.455-.71m3.005-1.464l-.185-.235l.185-.19l.51-.215z"/><path fill="#000" d="m8.03 11.011l-.04-.36l.34-.165l.045.335l-.35.19z"/><path fill="#484848" d="M7.625 10.851c0 .12.02.355.03.37l.375-.215l-.05-.335zm.77-.035l-.065-.35l.325-.195l.035.365zm.29-2.165a.23.23 0 0 1 .065-.21c-.05.04-.01.155.015.21c.04.105.195.46.445 1.015c.315.69.76 1.075.99 1.11c.185.03.32-.01.365-.035c-.16.13-.31.15-.365.15c-.6-.15-.92-.95-1.065-1.19a6 6 0 0 1-.45-1.05"/><path fill="#c7c7c7" d="M11.755 8.148c-.01.03-.05.05-.08.035l-.26-.095a.06.06 0 0 1-.04-.075c.015-.03.05-.05.08-.035l.265.095c.03.01.05.045.035.075m-.65-.04c.035 0 .06-.03.055-.065a.06.06 0 0 0-.023-.038a.06.06 0 0 0-.042-.012l-.28.02a.06.06 0 0 0-.055.06c0 .035.03.06.065.055zm-.575.01a.06.06 0 0 1-.01.045a.06.06 0 0 1-.04.025l-.275.05a.06.06 0 0 1-.062-.028a.06.06 0 0 1 .042-.092l.275-.05c.035 0 .065.02.07.05m-.69.19a.061.061 0 1 0-.025-.12l-.275.05a.06.06 0 0 0-.05.07c.005.03.04.05.07.05zm-.585.1c.03-.01.045-.05.03-.075a.06.06 0 0 0-.032-.035a.06.06 0 0 0-.048 0l-.255.11c-.035.01-.05.05-.035.08s.05.045.08.03zm2.385.38c-.01.03.01.065.04.075s.065-.01.075-.04l.085-.265l.002-.024a.06.06 0 0 0-.021-.04a.06.06 0 0 0-.044-.014a.06.06 0 0 0-.052.043zm-.275.7a.06.06 0 0 1-.035-.033a.06.06 0 0 1 0-.047l.11-.255c.01-.035.05-.05.08-.035s.045.05.03.08l-.105.255a.06.06 0 0 1-.057.036l-.023-.006zm-.885.975l-.013.02a.06.06 0 0 0 0 .045l.013.02c.03.025.065.02.09 0l.19-.21a.06.06 0 0 0-.005-.085a.06.06 0 0 0-.043-.015l-.023.005l-.019.015zm-.545.08a.06.06 0 0 1-.085-.01l-.17-.22a.06.06 0 0 1-.013-.045q.002-.012.008-.022a.06.06 0 0 1 .036-.03a.06.06 0 0 1 .046.006q.01.006.018.016l.17.22a.06.06 0 0 1-.01.085m-.485-.45c.015.025.05.035.085.02c.03-.015.04-.05.025-.08l-.13-.25a.06.06 0 0 0-.085-.02a.06.06 0 0 0-.025.08zm-.165-.53a.06.06 0 0 1-.085-.025l-.13-.25a.06.06 0 0 1 .025-.08c.03-.015.07 0 .085.025l.13.25c.015.025 0 .065-.025.08m-.3-.55c.015.025.05.04.085.025c.03-.015.04-.05.025-.085l-.13-.245a.06.06 0 0 0-.037-.032a.06.06 0 0 0-.048.007a.06.06 0 0 0-.025.08zm1.095 1.695c0-.035.025-.06.06-.06h.155c.035 0 .065.025.065.06c0 .03-.03.06-.065.06h-.155a.06.06 0 0 1-.06-.06m.87-.75l-.01.021a.06.06 0 0 0 .008.047q.007.01.017.017c.025.02.065.01.085-.015l.16-.23a.06.06 0 0 0-.015-.08a.06.06 0 0 0-.046-.01a.06.06 0 0 0-.04.025z"/><path fill="#d43d25" d="m14.65 11.227l.054-.315l.17-.02v.17l.185.025l.215.14l.115.2l-.115.335l-.19.19l.05.085l.2.14l-.235.08l-.135-.08l-.125-.245a.4.4 0 0 0 .055-.065l.095-.105l.095-.115l.05-.165l-.09-.155l-.205-.1l-.19.035zm-.626.06l.06-.3l.23-.026l-.015.245l-.06.1l-.155.12l-.13.175l-.04.16l.04.146l.18.1h.26l.025.095l.175.21l.02.055l-.195.045l-.085-.13l-.095-.09l-.215-.06l-.28-.17l-.08-.226l.08-.274zm.44.04l.075.135h.21l-.12.155l.12.205l-.185-.065l-.16.165v-.205l-.185-.1l.2-.1l.05-.19z"/><path fill="url(#SVG4uJgid6D)" d="M15.915 11.271a.9.9 0 0 1 0-.5l.215-.025c-.03.08-.085.295-.035.465c.05.175.275.465.385.59l-.17.09c-.1-.115-.33-.4-.395-.62"/><path fill="url(#SVGPsReCbly)" d="m16.415 11.052l.02-.315l.15-.05v.315l.095.3l.25.295l-.19.08l-.08-.08l-.17-.25z"/><path fill="#fff" d="m17.045 10.726l-.185-.02c0 .03.01.1.05.15c.045.05.07.136.08.175l-.025.31c.025.035.085.1.1.1l.06-.065a.6.6 0 0 0 .05-.14l.08-.15l.1-.125l.115-.125l.23-.15c.08-.05.25-.14.255-.15l.125-.02h.125c.015 0 .1.06.135.09l.1.075l.115.075h.115l.085-.03l.145-.1l.19-.2l.185-.26l.18-.265l.13-.29l.095-.26l.07-.315l-.045-.254l-.07-.315l-.135-.235l-.18-.225l-.3-.18l-.2-.075l-.215-.03l-.33.075l-.225.13c-.095.11-.39.295-.655.2c-.335-.125-.305-.425-.275-.6a.74.74 0 0 1 .175-.35l.15-.1l.175-.02l.145.02l.11.055l.2.015l.29-.09l.24-.14l.115-.2l.045-.2v-.22l-.11-.25l-.145-.15l-.19-.09h-.225l-.175.035l-.17.11l-.06.09l-.015.1l.075.1l.125.04c.015 0 .105-.04.15-.065l.05-.1l.065.025l.07.14l-.07.15l-.155.065l-.185-.02l-.42-.18l-.2-.015l-.285.1l-.3.195l-.24.18l-.165.27l-.1.325l-.05.315v.3l-.025.18l.02.22l.135.31l.24.335c.075.08.275.254.47.36c.2.1.425.09.515.074l.045-.06l.055-.12c.025-.04.075-.17.09-.184c.02-.016.09-.04.125-.07l.14-.025l.135.025l.15.13l.05.124l.02.18l-.035.27l-.155.135l-.185.09l-.195.165l-.125.13l-.085.21l-.185.186l-.2.094z"/><path fill="#b3b3b3" d="M16.04 7.702c0-.185.065-.41.1-.5c0 .03.005.16.035.445c.03.28.2.735.285.93l-.285-.265c.01.375.39.865.8.91c.335.03.41-.21.405-.34c.03-.14.2-.42.625-.415c.535 0 .55.375.56.49c.005.09-.035.295-.05.385c-.06.135-.2.415-.3.47a.4.4 0 0 1-.21.06a.8.8 0 0 0 .15-.115c.015-.03.06-.315.06-.415s-.1-.3-.32-.355c-.17-.045-.275.085-.31.15l-.15.275l-.155.05c-.2.035-.45-.1-.555-.17c-.085-.06-.3-.25-.485-.525a1.1 1.1 0 0 1-.215-.57z"/><path fill="#c7c7c7" d="M17.885 6.277a.18.18 0 0 1-.185-.155c0-.05.025-.165.115-.225c.09-.065.24-.08.3-.085c.07.035.205.14.215.295a.35.35 0 0 1-.15.3l.04-.13l-.14-.155a.2.2 0 0 1-.2.155z"/><path fill="#afb1b3" d="M18.115 7.022c.21.025.45-.135.54-.22c-.17.33-.62.35-.82.31c-.06-.05-.23-.12-.48.03c-.25.155-.26.52-.23.68a1.8 1.8 0 0 1-.23-.485c-.025-.17-.03-.635.4-.635c.435 0 .555.29.82.32"/><path fill="#c7c7c7" d="M17.975 10.226c-.2.045-.43.45-.52.645c.13-.18.6-.365.675-.37c.07-.005.2.05.29.15c.07.085.19.1.24.1c.245-.02.635-.58.8-.86c.05-.1.19-.4.265-.81s-.15-.76-.27-.885l.09.185c.05.165 0 .93-.09 1.16c-.09.235-.605.905-.91.905c-.31 0-.32-.28-.57-.22"/><path fill="#fff" d="m9.205 12.442l-.35-.435c.66-.285 2.635-.33 3.545-.32l-.5.47l.035.15c.285.07.875.22.925.225c.06.01-.205.065-1.49.115c-1.03.045-1.87-.12-2.165-.205"/><path fill="url(#SVGT1PKPjfj)" d="M12.595 8.492a.975.975 0 0 1 1.04-.66c-.26.015-.84.315-.825 1.185c.015.7.595.985.88 1.04h-.41c-.135 0-.37-.175-.47-.265a1.39 1.39 0 0 1-.215-1.3"/><path fill="url(#SVGWId5qbSF)" d="M14.7 8.952c0 .62-.425 1.125-.945 1.125s-.945-.5-.945-1.125c0-.62.425-1.125.95-1.125c.515 0 .94.5.94 1.125"/><path fill="#6c8b4b" d="M13.75 8.077c-.445 0-.65.44-.69.665c-.045.17.075.95.685.95s.725-.71.7-.815c-.015-.11-.15-.8-.7-.8z"/><path fill="#b7fa00" d="m13.63 8.287l-.34.47l.12.495l.595.205l.25-.33l-.075-.68z"/><path fill="#000" d="M14.39 17.977a.1.1 0 0 1 .09.07a.1.1 0 0 1-.03.105l-.375.34a.11.11 0 0 1-.16-.015l-.325-.4a.09.09 0 0 1 .015-.13a.12.12 0 0 1 .09-.03zm.135.05a.16.16 0 0 0-.13-.1l-.695-.06a.18.18 0 0 0-.125.035v.005a.14.14 0 0 0-.025.2l.325.4q.046.052.115.06c.045 0 .09-.01.12-.04l.375-.335a.15.15 0 0 0 .04-.165m-6.285.065c-.05-.015-.1 0-.135.03l-.565.575a.14.14 0 0 0-.04.1a.114.114 0 0 0 .115.115h.62c.035 0 .07-.015.095-.04a.12.12 0 0 0 .035-.095l-.045-.58c0-.05-.035-.09-.08-.105m-.175-.01a.2.2 0 0 1 .195-.05c.065.03.115.09.12.16l.045.58c0 .05-.015.1-.05.14a.2.2 0 0 1-.14.06h-.62a.18.18 0 0 1-.15-.08a.17.17 0 0 1-.025-.09v-.01c0-.05.02-.1.06-.135zm.07.23l-.42.435v.005l.365-.015c.05 0 .09-.04.085-.09l-.01-.325v-.01zm-.045-.04a.075.075 0 0 1 .1 0c.015.01.025.03.025.05l.01.325a.15.15 0 0 1-.145.15l-.36.015a.064.064 0 0 1-.065-.045c-.01-.02 0-.05.015-.06zm5.585-.265a.03.03 0 0 1 .013-.012a.03.03 0 0 1 .017-.003l.625.04c.01 0 .02.01.025.02c0 .01 0 .025-.01.035l-.365.3l-.011.008l-.014.002a.03.03 0 0 1-.02-.015l-.255-.35l-.003-.012q0-.007.003-.013zm.09.05l.2.265l.285-.235l-.485-.035zm2.58-.03c.01 0 .02.01.02.02l.06.28l.415.17c.01 0 .02.015.015.025q.001.023-.02.03l-.315.1l-.02.35c0 .01-.01.02-.02.025l-.03-.005l-.33-.265l-.335.045c-.015 0-.025 0-.03-.01a.03.03 0 0 1 0-.03l.125-.275l-.235-.275a.03.03 0 0 1 0-.035a.03.03 0 0 1 .025-.01l.42.06l.225-.2a.03.03 0 0 1 .015-.005q.008.001.015.005m-.025.085l-.2.17l-.012.006h-.013l-.35-.05l.19.23c.01.004.01.02.005.03l-.11.24l.3-.04l.02.004l.295.235l.02-.305q-.001-.024.02-.025l.255-.085l-.35-.145l-.013-.007l-.007-.013l-.05-.25zm-11.51.27h.03l.32.225l.505-.185c.015 0 .025 0 .035.01q.015.015 0 .03l-.215.42l.22.315v.03l-.01.01a.03.03 0 0 1-.015.005h-.46v.055h-.065v-.085c0-.015.015-.03.03-.03h.435l-.2-.285a.03.03 0 0 1 0-.03l.195-.36l-.45.165l-.03-.005l-.285-.2l-.03.315c0 .01 0 .015-.01.02l-.13.125l-.04-.04l.12-.12l.035-.36q0-.016.015-.025"/><path fill="#000" fill-rule="evenodd" d="M11.735 3.067h-.125c.555.1 1.37.385 1.835.57a19 19 0 0 0-2.455-.57c-.66.015-1.26.05-1.59.08c-.45.03-.905.275-1.28.55a4.5 4.5 0 0 0-.78.735c-.065.08-.185.165-.335.25s-.33.175-.53.275l-.12.055c-.365.175-.765.37-1.09.585c-.29.19-.455.36-.55.49c-.09.135-.11.23-.1.275v.01c-.015.075.015.285.3.45c.18.11.335.2.525.24c.19.045.42.04.75-.04h.015l.01.01c.6-.17 1.88-.465 2.81-.44c-.55 0-1.865.28-2.62.46l1.015-.04l.39-.01c.675-.02 1.45-.05 2.15-.115c2.03-.185 3.025-.755 3.655-1.135a.4.4 0 0 1 .08-.06l-.05-.585a.4.4 0 0 1 .035-.19c.025-.07.065-.135.105-.2c.085-.12.19-.235.265-.3c.1-.15.21-.55-.25-.98a.9.9 0 0 0-.305-.165c-.135-.05-.3-.085-.485-.115a9.5 9.5 0 0 0-1.275-.095zm2.02 2.61l-.05-.575c0-.05.005-.105.03-.165s.06-.125.1-.185c.085-.12.19-.23.255-.295h.005c.125-.175.23-.615-.25-1.065a.9.9 0 0 0-.33-.18a3 3 0 0 0-.495-.115a9.5 9.5 0 0 0-1.285-.095a27 27 0 0 0-2.34.085a2.65 2.65 0 0 0-1.31.565a4.5 4.5 0 0 0-.795.74c-.055.075-.165.15-.315.24a10 10 0 0 1-.525.27l-.12.055c-.365.18-.77.375-1.1.59c-.29.19-.465.365-.565.51c-.095.135-.12.245-.11.31c-.02.105.03.33.325.505c.18.11.345.2.55.25c.195.045.43.04.75-.035q.042.05.07.11a.2.2 0 0 1 .02.085c0 .025 0 .045-.01.065v.015l-.01.045c0 .02 0 .045.01.065s.03.04.06.05v1.88a1 1 0 0 0-.26.22a.67.67 0 0 0-.165.43c0 .17.075.315.165.42c.085.1.19.17.265.205l.075 1.34c.035.315.12.835.27 1.36s.36 1.07.65 1.43c.08.11.175.21.27.305l.01.645c-.145.09-.36.235-.565.38c-.21.15-.41.31-.5.415a.27.27 0 0 0-.1.28l.025.1l-2.21 1.605l.035.05l2.195-1.59l.085.29l.02.07q.19.585.335 1.185a3.8 3.8 0 0 0-.68.424c-.25.185-.5.386-.65.51l.045.05c.15-.13.39-.33.64-.515c.18-.13.36-.25.51-.334q-.51.45-1.015.904v.01l.055.015v.005l.025-.025q.193-.186.4-.36l.69-.604l.085.32l.015.1v.004q0 .044.015.08q.022.039.075.055q.402.075.8.16l-.915.316q-.14.047-.27.114a.1.1 0 0 0-.02.025c-.01.025 0 .045.01.05l.03.03l.1.055c.075.04.17.08.235.105l1.6.71l.02-.055l-1.595-.71a3 3 0 0 1-.335-.165l.015-.01l.07-.035a1 1 0 0 1 .155-.055l1.02-.35h.01v-.005l.65-.225v-1.05l3.08 2.765l.04-.045l-1.21-1.09c.35-.035.9-.11 1.395-.22c.25-.05.5-.114.7-.184a1.6 1.6 0 0 0 .39-.18c-.05.55-.125 1.09-.235 1.47l.06.014c.13-.44.205-1.084.25-1.715l.045-.765l.62.686l1.5-.06l.2-.02c0 .01 0 .02-.01.03l-1.05 1.3l.045.034c.215-.265.57-.7.805-1l.005.005l.1.04l.1.046l.365.15l.025-.05l-.52-.22l-.035-.016l.07-.085l.63.26l.025-.055l-.615-.25l.1-.12c.035-.05.01-.1 0-.125l-.015-.01l-.23.026l-.955.04l.07-.046l.11-.065l.24-.15a.15.15 0 0 0 .05-.07a.1.1 0 0 0 .01-.07a.2.2 0 0 0-.05-.095l-.175-.47a3 3 0 0 1-.15-.604c.31.165.795.415 1.29.65c.52.25 1.055.475 1.42.575l.015-.06c-.355-.1-.89-.325-1.405-.57q-.677-.319-1.335-.67a1 1 0 0 0-.045-.13a.2.2 0 0 0-.025-.035v-.005l-1.165-.87v-.475c.403-.249.74-.59.985-.995a4.1 4.1 0 0 0 .595-2.24c.635-.165 1.1-.31 1.44-.425h.005q.278-.102.55-.22a1 1 0 0 0 .185-.1l.3-.495c.07-.095.19-.235.33-.35c.07-.06.14-.115.215-.15a.46.46 0 0 1 .395-.03c.045.015.075.04.11.065l.01.01c.03.025.06.05.1.07c.045.02.1.035.17.035a.4.4 0 0 0 .195-.065c.06-.04.125-.1.18-.155c.232-.263.422-.56.565-.88c.1-.215.18-.46.18-.67a1.5 1.5 0 0 0-.29-.84a1.024 1.024 0 0 0-1.21-.395c-.09.04-.15.1-.2.15l-.01.01c-.05.05-.09.09-.15.125a.7.7 0 0 1-.31.06a.5.5 0 0 1-.27-.065a.4.4 0 0 1-.145-.155a.63.63 0 0 1-.05-.375a.6.6 0 0 1 .135-.28c.08-.09.2-.165.375-.165c.03 0 .075 0 .12.015c.05.01.09.025.11.05c.025.025.05.04.085.05s.07.005.115 0c.09-.02.21-.07.375-.16c.35-.195.37-.57.37-.645c0-.04-.025-.19-.115-.33a.62.62 0 0 0-.55-.27c-.286 0-.425.09-.475.205a.23.23 0 0 0-.005.165c.015.05.05.085.085.105c.07.035.135.05.2.03a.23.23 0 0 0 .14-.11c.025 0 .05.015.075.03c.025.025.05.06.05.115c0 .075-.02.11-.05.13a.5.5 0 0 1-.2.03a.3.3 0 0 1-.125-.03l-.065-.025l-.005-.005a1.2 1.2 0 0 0-.58-.13c-.52 0-1.04.485-1.145 1.19c-.1.7.015 1.25.31 1.535c.145.145.38.3.59.4c.105.045.21.08.3.09c.08.01.16 0 .2-.055c.04-.05.06-.1.08-.15l.015-.04l.04-.1a.23.23 0 0 1 .08-.1a.3.3 0 0 1 .16-.035c.15 0 .24.07.3.17c.05.1.075.235.075.345c0 .1-.03.175-.07.225a.3.3 0 0 1-.17.09a.56.56 0 0 0-.26.17c-.1.095-.2.225-.3.405a.5.5 0 0 1-.505.275h-.005c-.985 0-1.8.085-2.46.215V9.772h-.01c.18-.215.295-.515.295-.84c0-.4-.165-.75-.415-.965a8 8 0 0 0-.515-1.715a.4.4 0 0 0 .08-.1a.22.22 0 0 0 .03-.16a2 2 0 0 0-.075-.275a.1.1 0 0 0-.025-.03a.1.1 0 0 0-.025-.015zM9.23 18.067l1.25 1.53L8.72 18v-.014h-.015l-.2-.18c.18.084.43.18.73.25zm1.38 1.59l-1.28-1.565c.991.233 2.03.17 2.985-.18c.235-.09.46-.2.645-.335l.205.504q-.017.486-.055.97c-.085.07-.23.14-.42.205c-.2.07-.435.13-.69.186c-.495.1-1.035.18-1.39.215m2.56-1.726l.01-.55a1.3 1.3 0 0 1-.17.16zm.07-.634v-1.17l1.12.84l.015.02l.025.065q.048.38.185.74c.06.184.13.364.175.475v.01h.005c.015.02.035.044.04.07v.04c-.01.01-.015.025-.035.04q-.17.116-.35.215l-.16.1h-.1l.41-.39l-.48.395l-.22.01l-.62-.69c.075-.11.31-.51.435-.73l-.45.64l.01-.68zm-.065-.015c-.17.25-.515.434-.88.57a5.1 5.1 0 0 1-3.625-.035h.035l-.04-2.01c.555.215 1.24.315 2.1.315c.87 0 1.56-.11 2.125-.355c.1-.05.195-.095.285-.15zm-4.53.53l-.04-2.03a3 3 0 0 1-.955-.61l.045 1.915l.105.1c.035-.046.12-.1.235-.1c.09 0 .185.065.26.175c.07.104.125.26.13.45zm-.61-.67a.25.25 0 0 0-.19.08l.52.47a.84.84 0 0 0-.12-.4c-.07-.1-.15-.15-.21-.15m7.33 1.935l-.025.03h.01c.01-.005.01-.02.015-.03M8.65 18.03l-1.03-.924l.01-.01v-.01l-.85-.535l.85.47v-.02l-.38-.45l.375.375l-.025-1.1c-.145.09-.345.225-.535.36c-.215.15-.41.31-.495.41l-.005.005c-.03.015-.1.09-.075.22c.02.09.07.255.13.45l.02.065c.05.175.11.355.15.51q.16.593.305 1.19c0 .035.005.05.01.065l.04.024l.13.03l.765.15l.61-.21zm5.15-7.92a.9.9 0 0 0 .55-.274v1.085c-.45.09-.82.2-1.135.32q-.412.152-.785.385c-1.8-.03-3.275.21-3.925.37l-.1-1.195q.276-.157.5-.3a3.5 3.5 0 0 0 .42-.295c.05.095.1.17.13.215l.02.03c.065.1.14.215.245.31c.115.11.265.2.465.2c.085 0 .175-.04.265-.095c.095-.05.19-.13.28-.215c.18-.165.35-.365.445-.5c.105-.14.27-.385.43-.655c.155-.275.305-.575.38-.83c.015-.07.03-.19.015-.32a.8.8 0 0 0-.095-.315q.544-.564 1.035-1.175c.11.02.275.03.445-.01a.75.75 0 0 0 .44-.285c.125.335.29.84.385 1.35a.85.85 0 0 0-.55-.15v-.005c-.485 0-.79.2-.975.45a1.3 1.3 0 0 0-.235.74c0 .21.1.5.265.735c.16.24.395.43.66.43h.435zm0-3.614l-.085-.195a1.6 1.6 0 0 1-.25.175a6 6 0 0 1-.405.21l-.08.12c.1.015.25.015.39-.02a.66.66 0 0 0 .425-.29zM6.38 7.892v-.355c.125.015.345.04.65.06a.9.9 0 0 0-.18.39l-.47-.1zm0 .29v-.23l2.275.465a.3.3 0 0 0-.045.13v.09zm.09.37a1.5 1.5 0 0 1-.065-.3l.46.09c.02.06.055.15.105.235c.045.075.1.15.165.2H7.06c-.15 0-.28.06-.385.15a1.1 1.1 0 0 1-.2-.375zm1.055.22H7.23a.6.6 0 0 1-.205-.225a1 1 0 0 1-.09-.19l.18.035c.03.06.09.145.165.215c.07.07.165.13.27.13c.185 0 .31-.115.35-.18l.5.1a.75.75 0 0 1-.535.345a.8.8 0 0 0-.335-.225zm.53.52a1 1 0 0 0-.145-.235c.15-.025.4-.135.55-.39l.1.02c-.015.135-.1.265-.21.375c-.1.1-.21.18-.295.23m.07.2c-.01-.05-.03-.1-.045-.14c.085-.05.205-.14.31-.25c.11-.11.205-.245.23-.39c.01.08.035.16.06.235l.09.2c-.04.1-.15.22-.28.32a2 2 0 0 1-.31.215l-.05-.195zm.23.94c-.025-.13-.08-.385-.16-.69c.09-.05.215-.135.335-.23c.11-.09.215-.19.275-.295v.005q.173.342.355.68a3.4 3.4 0 0 1-.415.29zm-.285-.93c.125.435.2.81.235.965l-.31.18c-.03-.3-.1-.895-.13-1.095c-.025-.13-.1-.325-.23-.485a.8.8 0 0 0-.3-.235h.19c.125.04.425.225.55.67zm-.265.06c.035.205.1.825.135 1.12q-.747.43-1.505.84l-.05-.82a.78.78 0 0 0 .51 0a.56.56 0 0 0 .275-.22a.75.75 0 0 0 .12-.445c0-.155-.04-.28-.1-.375a.53.53 0 0 0-.245-.2a1 1 0 0 0-.515-.065c.035-.1.105-.23.2-.34c.115-.125.26-.22.435-.22c.225 0 .4.115.52.27c.125.15.2.335.22.455m-1.35 2.27l-.02-.25q1.19-.644 2.35-1.34c.175-.11.32-.21.41-.285l.105.2c-.08.07-.23.17-.425.3l-.795.47c-.57.33-1.2.675-1.63.905zm.005.18l-.005-.115c.4-.21.99-.535 1.545-.85l.065 1.035h.31v.01l.02-.005c.55.375 2.175.965 4.5.47c.48.04 1.105 0 1.86-.195h.005c.025.39-.06 1.35-.59 2.195c-.306.509-.761.91-1.305 1.15c-.55.25-1.235.355-2.1.355c-1.715 0-2.7-.41-3.4-1.29a4.2 4.2 0 0 1-.635-1.41a9 9 0 0 1-.27-1.35m1.665.01l-.07-1.01l.3-.175l.095 1.175l-.05.01zm-.28-3.48l-.65-.135c.035.05.08.105.13.155c.07.07.15.115.23.115c.14 0 .245-.08.29-.135m-.93-.545a.8.8 0 0 1 .195-.395l.155.01a.77.77 0 0 0-.2.415zm.435-.375c.3.01.66.025 1.08.025c.03.065.075.17.105.3c.03.12.045.26.015.385l-1.425-.29a.64.64 0 0 1 .225-.42m1.25.31a1.4 1.4 0 0 0-.1-.28h.135c.05.1.14.37.095.68l-.035.03l-.085-.02a.94.94 0 0 0-.015-.41zm.2.35a.5.5 0 0 1 .175-.07l.15-.04c.05-.29-.02-.47-.06-.53l-.36.01c.05.115.12.35.09.63zm2.445-.45c-.65.01-1.545.2-2.055.325c.035-.25-.01-.43-.06-.52c1.18-.07 2.45-.39 2.985-.555l.235-.09l-.765.84h-.005c-.12-.015-.25-.01-.335 0m1.715-1.1c-.16.075-.33.15-.48.21l-.825.9l.09.025q.076.03.115.09l.02.025c.145-.15.37-.385.585-.63c.19-.22.38-.445.5-.62zm-.5.15q.498-.205.975-.455c.13-.075.23-.15.29-.21a.4.4 0 0 0 .07-.085a.17.17 0 0 0 .03-.125a2 2 0 0 0-.085-.27a.2.2 0 0 0-.045.025l-.035.035h-.005c-.64.385-1.64.965-3.69 1.15a36 36 0 0 1-2.15.115l-.39.01c-.48.015-.88.025-1.145.05l.025.05a.26.26 0 0 1 .015.19v.015l-.01.035v.03l.035.025c.25.04 1.06.125 2.335.125c1.28 0 2.81-.38 3.42-.57l.345-.13l.005-.01zm-1.21 1.005c.08-.005.205-.01.32 0c.06.01.11.02.15.04c.05.015.075.035.09.06c.085.115.125.25.135.37c.015.12 0 .23-.015.295c-.07.25-.22.545-.375.815a7 7 0 0 1-.425.65c-.1.13-.26.33-.44.495a2 2 0 0 1-.265.205a.5.5 0 0 1-.235.08a.6.6 0 0 1-.425-.175c-.1-.095-.17-.205-.235-.3l-.01-.015l-.01-.02q-.345-.604-.66-1.225a2 2 0 0 1-.105-.235a.76.76 0 0 1-.065-.375a.28.28 0 0 1 .12-.2a.4.4 0 0 1 .19-.08a11 11 0 0 1 2.255-.385zm-4.865 1.21v.25l.065-.135zm.1.055q.065-.1.15-.185a1.16 1.16 0 0 1-.25-.52v.53zm5.985 2.535h-.015c-.285.18-.45.355-.53.49l.01.08c.28.165 1.125.4 2.43.135l-.12-.16c-.12-.03-.25-.07-.36-.14a.53.53 0 0 1-.24-.35a.36.36 0 0 1 .115-.335a.8.8 0 0 1 .235-.15v-.19c-.28.07-.535.15-.755.23a4.3 4.3 0 0 0-.77.375zm-.95.005c.265-.01.545-.01.825-.01c-.23.16-.38.315-.46.445l-.39.025a.76.76 0 0 0 .03-.455zm-.115.6l.48.005q.096.06.26.12v.19c-.245.02-.475.04-.7.045zm1.27.245l-.47.06a2 2 0 0 1 0-.16q.194.061.47.1m3.72-.73l-.125.05a1 1 0 0 1-.175-.175a.8.8 0 0 1-.175-.325c-.055-.25 0-.48.04-.575l.135-.005c-.035.11-.075.32-.025.54a.9.9 0 0 0 .17.33c.05.07.11.125.15.16zm-.535-.435c-.05-.24-.005-.47.035-.585c-.35.02-.665.055-.96.1l-.035.135a.47.47 0 0 1 .465.33c.045.15 0 .28-.06.39a.8.8 0 0 1-.19.215l.2.19c.365-.1.65-.19.885-.27a1 1 0 0 1-.15-.155a.95.95 0 0 1-.19-.35m-1.035-.285l.045-.195l-.16.025l-.04.28a.65.65 0 0 1 .27.035a.34.34 0 0 1 .23.27c0 .09-.05.28-.29.43c.04.08.12.21.2.285l.17-.05l-.23-.215l.03-.02a.7.7 0 0 0 .2-.22c.06-.1.095-.22.05-.34a.4.4 0 0 0-.2-.24a.5.5 0 0 0-.235-.05zm.185 1.15l-.375.095l-.215-.33h-.045l.17-.19l.26.095l.01.03c.03.06.11.205.195.3m-.185-.34c.24-.14.285-.32.285-.385a.28.28 0 0 0-.195-.225a.6.6 0 0 0-.275-.025h-.04l.05-.33a10 10 0 0 0-.34.06v.38l-.025.01a.6.6 0 0 0-.225.12c-.075.06-.125.14-.12.24c.01.095.08.16.175.2c.085.035.175.05.25.06l-.03-.275l-.18-.1l.205-.14l.08-.26l.115.21h.28l-.145.19zm-.25.45l-.15.03l-.14-.2h-.015c-.125-.03-.25-.07-.35-.135a.45.45 0 0 1-.215-.315a.3.3 0 0 1 .1-.275a.55.55 0 0 1 .23-.14l.025-.005v-.255l.19-.05v.32a.8.8 0 0 0-.23.125c-.08.07-.15.165-.14.29c.01.13.105.21.21.255c.1.045.215.06.3.065l.185.285zm3.195-6.15a.13.13 0 0 1-.06-.075a.18.18 0 0 1 .01-.12c.03-.08.14-.17.415-.17c.265 0 .415.12.5.245c.085.13.1.265.1.3c0 .065-.015.41-.335.585c-.165.095-.275.14-.355.15a.2.2 0 0 1-.09.005a.1.1 0 0 1-.04-.02v-.01a.44.44 0 0 0-.285-.235c.05.025.15.1.185.18a.6.6 0 0 0-.195-.03a.54.54 0 0 0-.42.19a.7.7 0 0 0-.145.305a.7.7 0 0 0 .055.41c.04.07.09.135.17.18q.113.075.3.075a.7.7 0 0 0 .335-.07a.6.6 0 0 0 .165-.135l.015-.01c.05-.05.1-.1.18-.135a.965.965 0 0 1 1.135.37c.18.25.28.555.28.805c0 .2-.075.43-.17.645c-.1.215-.215.4-.29.515a2 2 0 0 1-.27.35a.8.8 0 0 1-.17.14a.3.3 0 0 1-.16.06a.32.32 0 0 1-.23-.09l-.015-.01a.5.5 0 0 0-.354-.112a.5.5 0 0 0-.221.067a2.3 2.3 0 0 0-.56.52l-.29.485a1 1 0 0 1-.195.105c-.345-.435-.33-.78-.285-.9l.4-.005c.12.02.4-.01.565-.305c.1-.175.2-.3.285-.395a.6.6 0 0 1 .185-.13l-.015.005c.725-.035.695-.835.59-1.235c.08.715-.155 1.02-.345 1.115a.4.4 0 0 0 .1-.285c0-.11-.015-.25-.08-.365a.38.38 0 0 0-.35-.205a.35.35 0 0 0-.2.05a.3.3 0 0 0-.1.12l-.04.11l-.01.035a.6.6 0 0 1-.07.135q-.03.045-.15.03a1 1 0 0 1-.28-.09a2.2 2.2 0 0 1-.57-.38a1.3 1.3 0 0 1-.325-.85c.06.115.185.28.405.435a1.43 1.43 0 0 1-.41-.63c0-.14.015-.285.035-.44c.1-.685.6-1.14 1.08-1.14a1.1 1.1 0 0 1 .555.125h.01l.065.035c.05.015.095.03.15.03c.1 0 .175-.005.23-.04c.055-.03.08-.09.08-.17c.09-.22-.06-.4-.15-.465c.05.065.14.22.135.37a.2.2 0 0 0-.06-.075a.25.25 0 0 0-.12-.05h-.01c-.04-.075-.135-.085-.18-.08c.05.01.135.05.15.115a.2.2 0 0 1-.105.08a.22.22 0 0 1-.155-.02zm-1.36 4.565c-.05.16-.03.505.295.925l-.245.1a1 1 0 0 1-.175-.175a.8.8 0 0 1-.155-.31c-.05-.22-.005-.43.03-.53zm-6.905 1.11l-.55.09c0 .08.05.225.23.3c.125-.015.31-.025.515-.03a.63.63 0 0 1-.195-.36m.06-.01a.56.56 0 0 0 .23.365q.212-.005.425 0l.37-.025l-.05-.45c-.36.03-.685.07-.975.11m1.035-.115l.05.45l.775-.045a.6.6 0 0 0 .06-.24a.8.8 0 0 0-.025-.215c-.3.01-.59.025-.86.05m.785.905l-.04-.36l-.685-.01l.01.36q.339.016.715.01m-.775-.015l-.015-.35l-.115-.005q-.293.006-.585 0l-.045.13a.4.4 0 0 0-.015.13c.235.04.495.075.775.095m-.835-.11c0-.04.005-.09.015-.13l.035-.11a14 14 0 0 0-.61.03l.035.08q.232.076.525.13M6.59 10.682l-.06-.005a.65.65 0 0 0 .385-.23c.11-.14.15-.3.16-.41c0-.305-.125-.475-.28-.56l-.01-.005q.075.015.135.045a.5.5 0 0 1 .22.18c.05.085.09.195.09.34c0 .185-.045.32-.11.415a.5.5 0 0 1-.245.19a.64.64 0 0 1-.285.04m-.25-1.22a.7.7 0 0 0-.23.2c-.09.1-.155.23-.155.39c0 .15.065.285.15.38c.09.1.19.165.26.2c.25 0 .4-.1.5-.225s.14-.275.15-.375c0-.285-.115-.43-.25-.5a.68.68 0 0 0-.42-.06v-.01zm8.115 1.92l-.04.14l-.15.1l.13.07l.015.18l.12-.135l.185.07l-.1-.19l.1-.12h-.2zm-1.715-3.14a1.24 1.24 0 0 0-.225.705c0 .195.095.475.25.7c.165.235.38.405.615.405h.03c-.385-.155-.665-.6-.665-1.115c0-.485.24-.9.585-1.08a1 1 0 0 0-.59.385m.065.695c0 .615.4 1.1.885 1.115h.06c.48-.02.88-.5.88-1.115c0-.63-.42-1.12-.915-1.12s-.915.49-.915 1.12zm.96.69q.165 0 .3-.09L14 9.497h-.005l-.52-.195l.08.28c.065.03.14.05.21.05zm.62-.655a.8.8 0 0 1-.265.525l-.085-.05l.24-.32v-.025zm.005-.115v.015l-.13.15l-.08-.62h-.005l-.025-.15c.15.14.24.355.24.605m-.28-.48l-.03-.185a.55.55 0 0 0-.315-.1a.53.53 0 0 0-.37.15h.16l.005-.02zm-.97.48c0-.225.08-.42.2-.56h.175l-.26.4l-.115.185zm.34.685a.76.76 0 0 1-.33-.555l.125-.21l.125.5zm.285.15c.38 0 .69-.375.69-.835c0-.455-.31-.83-.69-.83s-.685.375-.685.83c0 .46.305.83.685.83zm.36-1.25l.08.64l.005.025l-.235.32l-.525-.2l-.13-.52l.27-.415zm-8.93-2.1l.24-.205a.4.4 0 0 1-.1.165a.26.26 0 0 1-.14.04m1.71-.8a3.7 3.7 0 0 0-1.575.84L6 5.987l-.115.15c.12-.07.435-.235.75-.33s1.315-.485 1.775-.67l-1.7.525l.2-.125zm2.535-2.08c.72.085 2.415.415 3.455 1.065l-.3-.3h.115l-1.25-.55l.16.145c-.51-.14-1.66-.41-2.18-.36m2.94 2.275c.235-.17.765-.595.985-.915c-.234.393-.576.71-.985.915m-.85.3c.145-.1.47-.345.605-.53c-.125.25-.46.46-.61.53z" clip-rule="evenodd"/><path fill="#ff0" d="M16.985 11c-.025-.1-.11-.089-.15-.08v-.214c0-.04-.09-.115-.18-.11c-.07 0-.085.13-.085.195l.085.4c.01.01.16.28.175.29c.02.01.145.1.155.095c.015-.01-.065-.315-.05-.335a.3.3 0 0 0 .05-.24"/><path fill="#ff9417" fill-rule="evenodd" d="M16.655 10.807v-.13a.1.1 0 0 1 .035-.025q.031-.015.055 0c.015.01.02.02.02.075v.015l.005.07v.025a1 1 0 0 1-.115-.03m.144.535a1.4 1.4 0 0 1-.094-.25v-.005h.01l.05.005c.034 0 .07-.085.08-.15l.025.02h.005a.4.4 0 0 1 .05.05c.015.01.02.02.025.035c0 .015 0 .035-.01.065l-.015.07c-.01-.01-.025-.015-.035-.01c-.025.01-.03.035-.04.065a.24.24 0 0 1-.05.1zm.036.055q.046.082.125.135v-.005a.7.7 0 0 1-.04-.175l-.085.05zm-.03-.86a.16.16 0 0 0-.165-.005a.3.3 0 0 0-.095.08l-.01.015v.2q.039.335.19.635c.05.085.1.14.155.175q.082.051.165.05l.05-.005a.08.08 0 0 0 .045-.05c.01-.03 0-.05 0-.065l-.05-.065l-.01-.01l-.01-.015c-.015-.035-.055-.185-.015-.325a.22.22 0 0 0-.045-.24l-.065-.055l-.05-.04v-.025l-.005-.05v-.015c0-.05 0-.14-.085-.19" clip-rule="evenodd"/><defs><linearGradient id="SVGs8ddTd5D" x1="10.339" x2="17.19" y1="6.537" y2="16.639" gradientUnits="userSpaceOnUse"><stop offset=".1" stop-color="#6f4214"/><stop offset=".19" stop-color="#985c1b"/><stop offset=".25" stop-color="#7b4915"/><stop offset=".55" stop-color="#7b4915"/><stop offset=".71" stop-color="#683f13"/></linearGradient><linearGradient id="SVGFdziCc3A" x1="9.524" x2="11.702" y1="4.361" y2="21.03" gradientUnits="userSpaceOnUse"><stop stop-color="#d98c47"/><stop offset=".13" stop-color="#ffc365"/><stop offset=".27" stop-color="#fca351"/><stop offset=".58" stop-color="#fca351"/><stop offset=".74" stop-color="#d68b46"/></linearGradient><linearGradient id="SVGkg1zRd9w" x1="5.972" x2="18.411" y1="8.804" y2="8.804" gradientUnits="userSpaceOnUse"><stop offset=".53" stop-color="#b1bfd5"/><stop offset=".98" stop-color="#6b7686"/></linearGradient><linearGradient id="SVGKjG9676h" x1="12.04" x2="12.04" y1="3" y2="20.863" gradientUnits="userSpaceOnUse"><stop offset=".36" stop-color="#f8deab"/><stop offset="1" stop-color="#f7b647"/></linearGradient><linearGradient id="SVGLYOJKeSZ" x1="11.959" x2="11.959" y1="3" y2="21.001" gradientUnits="userSpaceOnUse"><stop offset=".12" stop-color="#ffdc3d"/><stop offset=".39" stop-color="#ffffc0"/><stop offset="1" stop-color="#cf992c"/></linearGradient><linearGradient id="SVGjZBDLbAd" x1="10.13" x2="12.412" y1="4.437" y2="20.936" gradientUnits="userSpaceOnUse"><stop stop-color="#ffc340"/><stop offset=".24" stop-color="#ffe8bc"/><stop offset=".57" stop-color="#f7b23d"/><stop offset=".76" stop-color="#f9dfad"/></linearGradient><linearGradient id="SVGFAuYoceG" x1="7.416" x2="22.697" y1="20.185" y2="12.896" gradientUnits="userSpaceOnUse"><stop stop-color="#ffc340"/><stop offset=".24" stop-color="#ffe8bc"/><stop offset=".57" stop-color="#f7b23d"/><stop offset=".76" stop-color="#f9dfad"/><stop offset="1" stop-color="#fdc33a"/></linearGradient><linearGradient id="SVG4uJgid6D" x1="5.026" x2="7.658" y1="4.257" y2="21.638" gradientUnits="userSpaceOnUse"><stop stop-color="#da8e48"/><stop offset=".18" stop-color="#f9bb60"/><stop offset="1" stop-color="#d68b46"/></linearGradient><linearGradient id="SVGPsReCbly" x1="4.25" x2="7.138" y1="5.363" y2="21.901" gradientUnits="userSpaceOnUse"><stop stop-color="#ada3a0"/><stop offset="1" stop-color="#706f6e"/></linearGradient><linearGradient id="SVGT1PKPjfj" x1="12" x2="12" y1="3.015" y2="21" gradientUnits="userSpaceOnUse"><stop offset=".22" stop-color="#4a576d"/><stop offset=".29" stop-color="#606d84"/><stop offset=".44" stop-color="#606d84"/><stop offset=".5" stop-color="#48566b"/></linearGradient><linearGradient id="SVGWId5qbSF" x1="12" x2="6.865" y1="3" y2="19.474" gradientUnits="userSpaceOnUse"><stop offset=".36" stop-color="#617381"/><stop offset=".4" stop-color="#86999f"/><stop offset=".57" stop-color="#889c9a"/><stop offset=".62" stop-color="#667a7b"/></linearGradient></defs></g></svg>