<svg xmlns="http://www.w3.org/2000/svg" viewBox="0 0 24 24"><g fill="none"><path fill="#5431a9" d="M5.687 11.601q.031.003.063 0h.067c.282 0 .55-.054.797-.18c.245-.116.47-.274.663-.465q.287-.283.447-.626a1.6 1.6 0 0 0 .162-.672a1.1 1.1 0 0 0-.09-.448a.9.9 0 0 0-.264-.362a1.3 1.3 0 0 0-.466-.247a3.1 3.1 0 0 0-1.441-.009a2.4 2.4 0 0 0-.556.21a1.7 1.7 0 0 0-.39.305a2.7 2.7 0 0 0-.474.699q-.095.172-.197.304a.8.8 0 0 1-.22.215a.53.53 0 0 1-.3.08c-.16 0-.286-.04-.366-.12A.48.48 0 0 1 3 9.935q0-.206.113-.455a2.2 2.2 0 0 1 .327-.484c.338-.37.75-.665 1.209-.868a4.3 4.3 0 0 1 2.749-.26c.304.09.573.21.806.38a1.81 1.81 0 0 1 .64 2.168c-.08.206-.193.403-.331.582a3 3 0 0 1-.493.492a4.1 4.1 0 0 1-1.25.703c-.223.08-.433.134-.64.175c.078.369.207.724.386 1.056q.142.254.317.435a.58.58 0 0 0 .448.197h.067c.238 0 .448-.036.632-.117c.329-.136.618-.353.841-.631q.154-.172.31-.17a.22.22 0 0 1 .165.067a.25.25 0 0 1 .067.184a.6.6 0 0 1-.071.264a1.1 1.1 0 0 1-.238.309a3.7 3.7 0 0 1-.985.69a2.2 2.2 0 0 1-.909.214q-.348 0-.644-.201a2.1 2.1 0 0 1-.542-.538a4.6 4.6 0 0 1-.448-.797q-.194-.457-.354-.962a7 7 0 0 0-.179.47q-.198.57-.425 1.128a3.5 3.5 0 0 1-.255.502a1.8 1.8 0 0 1-.305.358a.54.54 0 0 1-.349.134a.6.6 0 0 1-.255-.05a.4.4 0 0 1-.148-.12a.5.5 0 0 1-.08-.161a.76.76 0 0 1 .008-.399a1 1 0 0 1 .085-.214l1.433-2.633c.126-.224.251-.434.376-.64q.189-.31.363-.551q.18-.234.336-.38c.107-.095.206-.144.286-.144c.027 0 .054 0 .085.013a.24.24 0 0 1 .09.045q.034.029.067.09c.018.044.027.09.027.152a1 1 0 0 1-.054.26q-.259.703-.59 1.374m6.125.296a.2.2 0 0 0-.044 0h-.045a.9.9 0 0 0-.345.067q-.16.075-.296.197q-.134.114-.241.268a3.8 3.8 0 0 0-.408.815q.587-.335 1.146-.711c.144-.09.247-.18.3-.256a.4.4 0 0 0 .085-.21a.16.16 0 0 0-.049-.117a.2.2 0 0 0-.103-.053m.175-.672q.403.001.604.197c.135.13.198.309.198.537a1 1 0 0 1-.104.43a1.45 1.45 0 0 1-.371.457c-.18.156-.412.313-.708.474c-.29.162-.658.318-1.101.484q.026.136.152.224q.128.076.336.076q.223 0 .48-.063q.256-.068.505-.17a7.5 7.5 0 0 0 1.24-.636q.124-.072.255-.13l.068-.004q.059 0 .098.031a.2.2 0 0 1 .063.063a.2.2 0 0 1 .04.076l.009.067c0 .032 0 .068-.009.108a.3.3 0 0 1-.076.134q-.477.406-1.03.698q-.614.338-1.29.524c-.232.063-.46.09-.689.09c-.197 0-.367-.036-.524-.112a1.2 1.2 0 0 1-.622-.739a1.46 1.46 0 0 1 0-.98q.082-.25.237-.506a3.1 3.1 0 0 1 .896-.922a2.3 2.3 0 0 1 1.343-.408m3.255.672a.2.2 0 0 0-.045 0h-.045a.9.9 0 0 0-.344.067q-.162.075-.296.197a1.4 1.4 0 0 0-.242.268a3.8 3.8 0 0 0-.407.815q.586-.335 1.146-.711c.143-.09.246-.18.3-.256a.4.4 0 0 0 .085-.21a.16.16 0 0 0-.049-.117a.2.2 0 0 0-.103-.053m.175-.672q.403.001.604.197q.201.195.201.537a1 1 0 0 1-.107.43a1.5 1.5 0 0 1-.371.457c-.18.156-.412.313-.708.474a8.4 8.4 0 0 1-1.101.484q.026.136.152.224q.127.076.336.076q.222 0 .479-.063q.256-.068.506-.17a7.5 7.5 0 0 0 1.24-.636q.123-.072.255-.13l.067-.004q.06 0 .099.031a.2.2 0 0 1 .062.063a.2.2 0 0 1 .04.076l.01.067c0 .032 0 .068-.01.108a.3.3 0 0 1-.075.134q-.477.406-1.03.698q-.614.338-1.29.524c-.232.063-.46.09-.69.09c-.196 0-.366-.036-.518-.112a1.2 1.2 0 0 1-.627-.739a1.45 1.45 0 0 1 0-.98a3.1 3.1 0 0 1 1.128-1.428c.192-.121.398-.224.622-.296c.224-.076.47-.112.726-.112m4.643.712q-.461.018-.923.022h-.846l-.327.65l-.331.69l-1.16 2.44a1 1 0 0 1-.134.2a.7.7 0 0 1-.166.166a.7.7 0 0 1-.371.144a.4.4 0 0 1-.21-.059c-.064-.04-.09-.103-.09-.183q0-.066.026-.152q.026-.082.086-.197l1.755-3.712h-.255c-.565 0-.569-.622.017-.622h.574c.232-.466.42-.77.649-1.075q.3-.4.69-.716c.356-.296.803-.46 1.267-.466a.64.64 0 0 1 .474.215a.8.8 0 0 1 .157.268c.04.112.058.238.058.386q.001.203-.058.46a.25.25 0 0 1-.058.117a.5.5 0 0 1-.206.117q-.055.01-.09.008a.4.4 0 0 1-.179-.044a.16.16 0 0 1-.09-.144q0-.113.018-.223q0-.203-.076-.291a.25.25 0 0 0-.201-.09q-.15 0-.358.134c-.135.09-.27.202-.403.35a4 4 0 0 0-.403.501c-.126.184-.18.296-.265.493h1.138l.282.004c.09 0 .161.013.228.031c.296.067.26.43-.009.538a.8.8 0 0 1-.215.04z"/><path fill="#d24d99" d="M18.176 15.215a.658.658 0 1 0 0-1.317a.658.658 0 0 0 0 1.317"/></g></svg>