<svg xmlns="http://www.w3.org/2000/svg" viewBox="0 0 24 24"><path fill="#52b675" d="m3.784 11.047l5.479.762l-5.48.768L3 11.809l.784-.767zm3.52 1.906h2.35l-1.958 1.154l-.784-.381l.392-.768zm2.737.773l-1.959.762v.768h.79l1.17-1.536zm-.778 3.06v-.763l1.562-1.148l-.784 1.91zm1.562 3.833L12 15.256l-2.345 4.976l.386.768zm1.958-3.447l.392-1.916l.392 1.916l-.392.381zm1.562 0l-.386-1.916l1.17 1.535v.762zm5.48.381l-3.913-3.827L21 16.405v1.148zm-1.17-6.13l-2.35.386l2.35.382l.386-.382zm1.17-5.358l-3.913 3.828L21 7.595V6.446zm-4.696 1.15l-.392 1.534l1.175-1.154v-.767zm-1.562-.769l-.392 1.917l-.392-1.917l.392-.38zm-2.742-3.065L12 8.744L9.655 3.768L10.04 3zM9.263 7.595l1.17 1.917l-1.959-1.15v-.767z"/></svg>