<svg xmlns="http://www.w3.org/2000/svg" viewBox="0 0 24 24"><g fill="none"><path fill="#f7931a" d="M5 12a7 7 0 1 1 14 0a7 7 0 0 1-14 0"/><path fill="#fff" d="M15.14 11.173c.13-.875-.535-1.35-1.45-1.665l.295-1.185l-.725-.18l-.29 1.155l-.575-.135l.29-1.165l-.725-.18l-.3 1.19l-.455-.11v-.005l-1-.25l-.195.775s.535.125.53.13c.29.075.34.265.335.415l-.335 1.36l.075.025l-.08-.02l-.475 1.9c-.035.085-.125.22-.33.165c.01.015-.525-.125-.525-.125l-.36.825l.945.235l.515.135l-.3 1.2l.72.18l.295-1.19l.58.15l-.3 1.185l.73.18l.3-1.2c1.23.235 2.16.145 2.55-.975c.315-.9-.015-1.415-.665-1.76c.475-.1.83-.415.92-1.06zm-1.65 2.325c-.225.9-1.74.41-2.23.295l.4-1.6c.485.13 2.06.37 1.825 1.3v.005zm.22-2.33c-.2.815-1.47.4-1.875.3l.36-1.445c.41.1 1.725.295 1.515 1.145"/><path fill="#b3bdc7" d="m3 12l.006-.336l1.644-.925c-.06.34-.095.695-.1 1.05l-1.525.9Q3.001 12.344 3 12m.14 1.574c.05.285.11.565.19.845l1.38-.815c-.06-.28-.1-.57-.13-.86zm.8 2.425a9 9 0 0 1-.35-.775l1.35-.78q.142.398.315.78l-1.32.775zm.4.725c.15.25.32.49.495.72l1.315-.77a8 8 0 0 1-.495-.71zm1.67 1.99a8 8 0 0 1-.635-.625l1.335-.77q.315.315.66.6zm.69.56q.353.256.72.475l1.485-.87q-.405-.194-.78-.425zm2.82 1.38q-.63-.18-1.215-.45l1.625-.935q.699.216 1.45.29zm1.24.26a9 9 0 0 0 9.58-5.525l-2.16 1.25l-.34.38q-.249.279-.52.535c-.41.4-.9.835-1.355 1.1c-1.065.635-3.005.995-3.005.995zm8.35-5.9l1.66-.975c.085-.365.15-.745.185-1.125l-1.425.82a7 7 0 0 1-.425 1.285zM21 11.779l-1.29.755q.026-.382.015-.765l1.23-.71c.025.24.04.475.045.72m-1.38-1.055l1.165-.69a7 7 0 0 0-.19-.715l-1.14.66q.098.361.165.745m.63-2.33l-1.12.66c-.1-.23-.2-.45-.32-.67l1.12-.65c.115.22.22.435.32.66m-1.955-.825l1.125-.665c-.13-.19-.27-.38-.42-.56l-1.15.665c.155.18.3.365.445.56m.04-1.965l-1.19.7a7 7 0 0 0-.585-.465l1.245-.715c.18.15.36.315.53.48m-2.695-.33l1.325-.78a9 9 0 0 0-.62-.375l-1.445.82c.25.1.5.21.74.335m-.35-1.65l-1.64.95a7 7 0 0 0-1.36-.15l2.02-1.12c.335.09.665.195.98.32M3.1 10.654L4.936 9.6a7.6 7.6 0 0 1 .685-1.49L3.4 9.334a9 9 0 0 0-.3 1.32m9.735-7.615a9 9 0 0 0-8.95 5.055l2.7-1.52s.935-.915 1.66-1.32c.72-.405 1.98-.74 1.98-.74z"/></g></svg>