<svg xmlns="http://www.w3.org/2000/svg" viewBox="0 0 24 24"><g fill="none"><path fill="#04eef0" fill-rule="evenodd" d="M12 20.47A8.43 8.43 0 0 0 20.47 12A8.43 8.43 0 0 0 12 3.53A8.43 8.43 0 0 0 3.53 12A8.43 8.43 0 0 0 12 20.47m0 .53a9 9 0 1 0 0-18a9 9 0 0 0 0 18" clip-rule="evenodd"/><path fill="url(#SVGocJ6uclo)" fill-rule="evenodd" d="M12.006 19.417a7.416 7.416 0 1 0 0-14.833a7.416 7.416 0 0 0 0 14.833m0 .789a8.207 8.207 0 1 0 0-16.413a8.207 8.207 0 0 0 0 16.413" clip-rule="evenodd"/><path fill="#04eef0" fill-rule="evenodd" d="M12 18.722a6.724 6.724 0 1 0 0-13.448a6.724 6.724 0 0 0 0 13.448m0 .159a6.883 6.883 0 1 0 0-13.766a6.883 6.883 0 0 0 0 13.766" clip-rule="evenodd"/><path fill="#f3f7f9" fill-rule="evenodd" d="M11.963 18.554a6.59 6.59 0 0 0 6.591-6.591a6.59 6.59 0 1 0-6.591 6.591m0 .159a6.75 6.75 0 1 0 0-13.499a6.75 6.75 0 0 0 0 13.499" clip-rule="evenodd"/><path fill="url(#SVGhOMOW90P)" d="M12 18.353a6.353 6.353 0 1 0 0-12.705a6.353 6.353 0 0 0 0 12.705"/><path fill="#7c734d" fill-rule="evenodd" d="M11.576 6.409c-.095-.08-.455-.217-1.064-.159c-.762.08-2.065.858-1.985 2.25c.02.35.106.646.222.9a.5.5 0 0 1-.143.032l-.153.005c-.27.01-.673.032-.61-.159c.059-.185.175-.079.228 0c.075-.079.18-.28 0-.465c-.185-.186-.481.026-.608.158c-.106-.053-.34-.11-.461.074c-.122.186.106.387.228.466c-.074.18-.149.556.158.62c.302.063.376-.08.376-.16c-.1-.02-.29-.105-.227-.227c.074-.159.153-.233.307-.08l.143.176c.116.158.254.338.466.444c.243.127.815.16 1.069.16v-.16l.148.08l.08-.08a2.7 2.7 0 0 1-.805-.863c.355-.18.863-.428 1.186-.376c.37.064.561.128.609.16l.08-.318q-.303-.082-.615-.074c-.212 0-.62.195-.98.37l-.328.154a1.8 1.8 0 0 1-.211-.837c0-.106.026-.307.148-.307c.153 0 .307.074.227.159a1.3 1.3 0 0 1-.227.148c.074.106.26.297.381.233c.053-.026.159-.122.275-.233c.217-.206.493-.466.636-.466c.232 0 .232.318.079.318a.34.34 0 0 1-.228-.085c.027.08.106.233.228.233c.159 0 .307-.153.307-.386s-.228-.466-.53-.466c0-.027-.052-.074-.232-.074c-.186 0-.382.206-.46.307c-.017-.053-.123-.138-.382-.074c.106-.265.413-.794.842-.858c.211-.026.38 0 .503.026c.18.038.259.053.259-.18a2.9 2.9 0 0 1 1.07-.386zM8.802 9.495c-.085.043-.153.08-.196.09c-.185.064-.487.027-.614 0c.106.106.37.36.614.546c.212.159.604.137.831.095a2.06 2.06 0 0 1-.635-.73m3.695-3.15c.101-.074.456-.211 1.065-.158c.762.084 2.064.857 1.985 2.255c-.016.31-.091.614-.223.895q.072.027.149.031l.148.006c.27.016.672.031.614-.16c-.064-.184-.18-.079-.233 0c-.074-.079-.18-.28 0-.465c.185-.185.487.026.614.159c.1-.053.334-.111.455.074c.122.185-.105.386-.227.466c.074.18.153.556-.154.62s-.38-.075-.38-.16c.105-.02.29-.105.227-.227c-.074-.16-.154-.233-.302-.08a1.2 1.2 0 0 0-.143.175c-.116.159-.254.339-.471.445c-.244.127-.81.159-1.064.159v-.16l-.16.08l-.073-.08a2.65 2.65 0 0 0 .804-.857c-.354-.185-.862-.434-1.185-.381c-.366.063-.556.132-.61.159l-.073-.318a2.4 2.4 0 0 1 .608-.074c.212 0 .625.196.98.37c.116.054.233.106.328.16c.133-.255.217-.53.217-.837c0-.106-.032-.312-.153-.312c-.154 0-.302.079-.228.158c.064.059.18.127.228.154c-.075.106-.26.291-.382.233a2.3 2.3 0 0 1-.275-.238c-.217-.207-.492-.461-.635-.461c-.233 0-.233.307-.08.307a.37.37 0 0 0 .228-.074c-.026.074-.106.233-.228.233c-.153 0-.306-.159-.306-.392s.227-.46.534-.46c0-.027.048-.08.228-.08c.185 0 .381.207.46.307c.021-.053.122-.137.381-.074c-.105-.26-.412-.794-.841-.852c-.212-.032-.381 0-.503.02c-.18.038-.26.054-.26-.18a3 3 0 0 0-1.064-.386m2.78 3.092q.122.065.196.09c.18.058.476.027.608 0a8 8 0 0 1-.608.54c-.217.164-.604.143-.837.095c.212-.143.455-.386.636-.725zm-5.146 3.484c-.154.413-.609 1.228-1.218 1.164a.9.9 0 0 1-.46-.19v-.042H8.4a2.07 2.07 0 0 1-.556-.932c-.186.38-.37.953-.413 1.524a1.7 1.7 0 0 1-.588-.63l-.137.07c.105.211.338.508.72.74c-.011.731.248 1.451 1.1 1.785c1.589.619 2.441.052 2.674-.308c-.127.106-.413.276-.534.154c-.16-.159-.228-.312 0-.545l-.228-.387c-.18.053-.55.095-.614-.159c-.058-.243.08-.513.159-.614c-.233.075-.662.291-.54.54l.227.313c-.053.053-.121.2 0 .386a.35.35 0 0 0 .381.159c-.052.1-.058.339.307.46c-.052.053-.227.16-.529.16c-.307 0-.847-.625-1.07-.932c-.306 0-1.058-.228-1.143-.911c.387.185.9.297 1.535.212l.286-.037l-.27-.111a1.5 1.5 0 0 1-.45-.318a.97.97 0 0 1-.248-.466a.8.8 0 0 0 .439.159c.535 0 1.07-.318 1.218-1.244zm-1.837.958a2 2 0 0 1-.456-.572s-.264.598-.243 1.239c.323.17.746.286 1.276.265a1.5 1.5 0 0 1-.265-.233a1.06 1.06 0 0 1-.312-.7M13.868 13c.154.413.61 1.223 1.218 1.165a.9.9 0 0 0 .46-.196v-.037h.054c.302-.265.487-.688.556-.932c.185.381.37.948.413 1.525c.306-.212.502-.455.587-.63l.138.069c-.106.211-.344.508-.72.74c.01.731-.249 1.451-1.101 1.785c-1.589.62-2.441.053-2.674-.312c.127.105.413.28.535.159c.159-.16.228-.313 0-.546l.228-.386c.18.053.55.09.614-.16c.058-.243-.08-.513-.16-.618c.234.079.663.296.54.545l-.227.307c.053.053.122.206 0 .392a.34.34 0 0 1-.381.153c.053.106.058.339-.307.466c.053.053.227.159.53.159c.306 0 .846-.625 1.069-.937c.307 0 1.059-.228 1.143-.905c-.386.185-.9.29-1.535.211l-.286-.042l.27-.106c.116-.053.302-.159.45-.318a.97.97 0 0 0 .249-.466a.8.8 0 0 1-.44.16c-.534 0-1.069-.318-1.217-1.245zm1.832.953a2 2 0 0 0 .456-.566s.264.593.243 1.239a2.46 2.46 0 0 1-1.276.259c.09-.059.186-.138.265-.228a1.06 1.06 0 0 0 .318-.699z" clip-rule="evenodd"/><path fill="url(#SVGhRl9zoWt)" d="m10.147 9.353l-1.684 2.445l3.272-1.387z"/><path fill="url(#SVGNOTI7bch)" d="m11.734 10.676l-3.441 1.52l3.441 2.186z"/><path fill="url(#SVGhQiHlb2c)" d="M11.735 10.148V6.442L10.41 9.09z"/><path fill="url(#SVGf353Adbe)" d="m11.735 14.912l-3.272-1.679l3.272 4.59z"/><path fill="url(#SVGc8ptvcxy)" d="m13.853 9.353l1.678 2.488l-3.266-1.43z"/><path fill="url(#SVGTr4kccRH)" d="m12.265 10.676l3.44 1.562l-3.44 2.144z"/><path fill="url(#SVGiCdk1bmY)" d="M12.265 10.148V6.442l1.323 2.647z"/><path fill="url(#SVG8na8BcTI)" d="m12.265 14.912l3.266-1.636l-3.266 4.548z"/><path fill="url(#SVG7OMjXd2J)" d="M11.503 9.882h-2.15c.265 0 .265.296.265.408v3.033c0 .132-.1.212-.18.265h2.23l.333-.794c-.133.2-.424.238-.53.264h-.794V12h.63c.132 0 .164.09.164.143v-.672h-.794v-1.059h.498c.196 0 .301.143.328.228z"/><path fill="url(#SVGrbCZkc9p)" d="M15.918 9.882h-1.43c.127 0 .159.339.159.503v2.78c0 .206-.106.37-.159.423h1.43a.47.47 0 0 1-.212-.34V12h1.059v1.249c0 .206-.159.28-.212.339h1.43c-.16 0-.16-.223-.16-.34V10.39c0-.27.106-.45.16-.508H16.52c.17 0 .25.339.244.503v1.085h-1.059v-1.085c0-.133.159-.392.212-.503"/><path fill="url(#SVGTN9g7cNa)" d="M14.381 9.882h-2.573l-.164.847c.08-.064.424-.318.62-.318c.2 0 .264.18.264.318v2.356c0 .2-.212.423-.264.503h1.588c-.133-.133-.265-.418-.265-.53v-2.355c0-.027.069-.292.265-.292c.2 0 .307.254.365.318z"/><path fill="#21f0ee" d="m11.47 6.49l.53-.843v.842z"/><path fill="#e3f7f3" d="M12 6.49v-.843l.53.842z"/><path fill="#21f0ee" d="M12 6.49h-.53l.53.746zm.53 0H12v.746zm-1.06 11.117l.53-.842v.842z"/><path fill="#e3f7f3" d="M12 17.607v-.841l.53.841z"/><path fill="#21f0ee" d="M12 17.607h-.53l.53.747zm.529 0h-.53v.747zM10.676 9.09h-.53v.53h.53zm3.176 0h-.53v.53h.53zm-1.323 6.088l-.53-.53l-.529.53l.53.53z"/><path fill="url(#SVGYJZS760T)" d="M6.017 9.882h1.985c.397 0 .82.317.82 1.059c0 .74-.37.879-.582.879l1.112 1.768h-.91c-.096-.027-.345-.186-.599-.588a19 19 0 0 0-.386-.588l-.223-.338v1.175c.027.085.16.27.254.339H6.017c.053-.085.158-.265.158-.34v-3.027c0-.117-.031-.34-.158-.34m1.217.588v1.26c.212-.053.678-.265.678-.673c0-.503-.44-.582-.678-.582z"/><defs><linearGradient id="SVGocJ6uclo" x1="11.704" x2="11.704" y1="2.709" y2="20.71" gradientUnits="userSpaceOnUse"><stop stop-color="#b0a494"/><stop offset=".3" stop-color="#5e473c"/><stop offset=".7" stop-color="#492b21"/><stop offset="1" stop-color="#301d17"/></linearGradient><linearGradient id="SVGhOMOW90P" x1="7.283" x2="15.736" y1="4.538" y2="20.123" gradientUnits="userSpaceOnUse"><stop stop-color="#58453d"/><stop offset="1" stop-color="#3b2a23"/></linearGradient><linearGradient id="SVGhRl9zoWt" x1="15.99" x2="-.091" y1="5.805" y2="19.003" gradientUnits="userSpaceOnUse"><stop stop-color="#7e93cd"/><stop offset=".95" stop-color="#4f5665"/></linearGradient><linearGradient id="SVGNOTI7bch" x1="20.196" x2="12.006" y1="4.208" y2="14.961" gradientUnits="userSpaceOnUse"><stop stop-color="#666c76"/><stop offset=".95" stop-color="#5a5a70"/></linearGradient><linearGradient id="SVGhQiHlb2c" x1="7.463" x2="8.046" y1="12.053" y2="15.906" gradientUnits="userSpaceOnUse"><stop stop-color="#95a4c2"/><stop offset=".95" stop-color="#73788c"/></linearGradient><linearGradient id="SVGf353Adbe" x1="11.359" x2="19.942" y1="12.176" y2="7.652" gradientUnits="userSpaceOnUse"><stop stop-color="#95a4c2"/><stop offset=".4" stop-color="#453d51"/><stop offset=".64" stop-color="#9fc4ed"/><stop offset=".95" stop-color="#7087cb"/></linearGradient><linearGradient id="SVGc8ptvcxy" x1="7.726" x2="23.737" y1="5.91" y2="19.526" gradientUnits="userSpaceOnUse"><stop stop-color="#7e93cd"/><stop offset=".95" stop-color="#4f5665"/></linearGradient><linearGradient id="SVGTr4kccRH" x1="3.415" x2="11.649" y1="4.362" y2="15.297" gradientUnits="userSpaceOnUse"><stop stop-color="#666c76"/><stop offset=".95" stop-color="#5a5a70"/></linearGradient><linearGradient id="SVGiCdk1bmY" x1="15.816" x2="15.236" y1="12.104" y2="16.001" gradientUnits="userSpaceOnUse"><stop stop-color="#95a4c2"/><stop offset=".95" stop-color="#73788c"/></linearGradient><linearGradient id="SVG8na8BcTI" x1="12.452" x2="3.735" y1="12.346" y2="7.673" gradientUnits="userSpaceOnUse"><stop stop-color="#95a4c2"/><stop offset=".4" stop-color="#453d51"/><stop offset=".64" stop-color="#9fc4ed"/><stop offset=".95" stop-color="#7087cb"/></linearGradient><linearGradient id="SVG7OMjXd2J" x1="14.809" x2="9.759" y1="3.411" y2="22.069" gradientUnits="userSpaceOnUse"><stop stop-color="#f7f9f5"/><stop offset=".3" stop-color="#f4f4f3"/><stop offset=".66" stop-color="#bce9f5"/><stop offset="1" stop-color="#5283b8"/></linearGradient><linearGradient id="SVGrbCZkc9p" x1="14.564" x2="9.077" y1="3.411" y2="21.802" gradientUnits="userSpaceOnUse"><stop stop-color="#f7f9f5"/><stop offset=".3" stop-color="#f4f4f3"/><stop offset=".66" stop-color="#bce9f5"/><stop offset="1" stop-color="#5283b8"/></linearGradient><linearGradient id="SVGTN9g7cNa" x1="16.751" x2="11.555" y1="3.411" y2="21.982" gradientUnits="userSpaceOnUse"><stop stop-color="#f7f9f5"/><stop offset=".3" stop-color="#f4f4f3"/><stop offset=".66" stop-color="#bce9f5"/><stop offset="1" stop-color="#5283b8"/></linearGradient><linearGradient id="SVGYJZS760T" x1="8.177" x2="6.33" y1="10.051" y2="13.746" gradientUnits="userSpaceOnUse"><stop stop-color="#f0f2f6"/><stop offset=".48" stop-color="#b6f2fa"/><stop offset="1" stop-color="#4e89c9"/></linearGradient></defs></g></svg>