<svg xmlns="http://www.w3.org/2000/svg" viewBox="0 0 24 24"><g fill="none"><path fill="#d7c1c3" d="M15.144 9.987c-.63-.344-.635-1.016-.561-1.413c1.689-.768 4.357-1.8 4.611-1.419c.228.323-3.261 3.272-4.05 2.838z"/><path fill="#addfff" d="m18.358 5.775l-3.214.614l2.785-.868l2.054-.329c-.207.07-.683.397-.9.52q-.136.07-.244.18l.07.052l.174.01h.27l-.19.186c-.075.069-.191.08-.318.021a2 2 0 0 1-.255-.053a.4.4 0 0 1-.148-.08a.3.3 0 0 1-.084-.253m.296-.164l-.032.063a.4.4 0 0 0-.037.122c-.005.048 0 .069.016.08l.005.005v-.022a.3.3 0 0 1 .08-.132a1.2 1.2 0 0 1 .206-.159zm.826 2.101l-1.911 2.584l1.974-2.097l1.16-1.673c-.154.149-.657.435-.858.578q-.124.091-.27.142l-.026-.084l.063-.159l.117-.238l-.254.09c-.101.037-.16.132-.154.275q-.037.12-.058.244a.3.3 0 0 0 .01.158a.31.31 0 0 0 .207.18m.275-.19h-.074a.3.3 0 0 1-.127-.016c-.048-.016-.063-.032-.069-.048v-.005a.3.3 0 0 0 .18 0q.104-.042.233-.122z"/><path fill="url(#SVGTU0uTclW)" d="M11.1 5.08c-2.34.086-3.527 3.458-3.829 5.13l5.962-.216l1.8-1.747c-.34-1.09-1.6-3.256-3.934-3.166"/><path fill="#424d8d" d="m8.849 8.028l-.228-.55l-.328.656l.561-.106z"/><path fill="#776b8e" d="M8.734 10.212v-.657l.566.545l-.566.106z"/><path fill="url(#SVGoKrn3G8K)" d="M10.305 4.535A3.4 3.4 0 0 1 9.3 3.88c0-.217 1.123.106 1.462.328c.238.154.788.546 1.01.763a16 16 0 0 1-1.46-.435z"/><path fill="url(#SVGEJlfgetp)" d="M11.205 3.99q.462.478.9.979a9 9 0 0 1-1.122-.545c-.561-.329-.784-.763-.673-.874c.112-.106.673.217.9.44z"/><path fill="url(#SVGRL0N0cJz)" d="M12.672 5.187c.302-.254.943-.72 1.123-.545s-.673.44-1.123.545"/><path fill="url(#SVGp5LemcXm)" d="M13.8 5.082c-.455 0-.942.142-1.128.217c.186.037.651.105 1.011.105s.826-.142 1.012-.211a3.2 3.2 0 0 0-.9-.111z"/><path fill="#151b31" d="M8.171 10.21h-.9c.34-2.292 1.8-4.584 2.928-4.912c-.36.175-.9.947-1.128 1.307H9.3c-1.26 1.398-1.276 2.986-1.128 3.6z"/><path fill="#fa4b3d" d="M8.512 6.605c-.09.175-.037.292 0 .329c.222-.397.9-1.218 1.8-1.308s1.424.18 1.572.328c.636-.09 1.461.037 1.8.106c-.672-.873-1.233-1.196-2.133-1.308c-.9-.105-1.917.435-2.139.546c-.228.106-.111.217-.228.328c-.106.106-.333.434-.45.545c-.106.106-.106.217-.222.434"/><path fill="#6991f0" d="M10.438 6.055c.037.069.1.116.211.116c.265 0 .334-.217.334-.328a2.2 2.2 0 0 0-.561-.106c-.006.032-.016.07-.016.111a.11.11 0 0 1 .095.106a.105.105 0 0 1-.063.106z"/><path fill="url(#SVG2264rb7Q)" d="M10.762 6.06c-.18 0-.228-.212-.228-.328c.18 0 .376.074.45.111c0 .074-.042.217-.222.217"/><path fill="#d9d9d9" d="M10.703 5.896a.053.053 0 0 1-.053.053a.05.05 0 0 1-.054-.032l-.005-.021c0-.027.027-.053.053-.053c.032 0 .059.026.059.053"/><path fill="#110f15" d="m10.009 5.78l-.037-.048l.111-.043c.604 0 .921.133 1.032.218h.096v.09h-.085c-.132.232-.476.545-.942.434a.33.33 0 0 1-.265-.334c0-.111.042-.228.09-.318m.254 0c-.18.063-.254.211-.254.317c0 .127.069.217.201.249c.402.1.71-.18.831-.381c-.212-.148-.53-.186-.778-.186"/><path fill="#a1354e" d="M9.634 5.187c-.074 0-.243.021-.333.111c-.117.106-.037.249-.117.328c-.106.106-.45.329-.56.546c-.112.217 0 .217-.112.434c-.09.175-.037.291 0 .328c.672-.873 1.117-1.308 2.022-1.308c.678 0 1.202.18 1.35.329h.34c-.34-.329-.9-.546-1.69-.546c-.56 0-.9.323-.9.212c0-.085.53-.323.794-.434z"/><path fill="url(#SVGmzdISdFW)" d="M12.9 5.843c0-.106-.116-.762-.227-.873c-.09-.085-.789.037-1.128.106c-.222.11 1.017.767 1.128.767s.222.106.222 0z"/><path fill="url(#SVGXDiCsesT)" d="M9.861 6.716c-.09 0-.111-.074-.111-.106l-.117.212c0 .334.34.55.678.55c.339 0 .672-.216 1.239-.216c.56 0 1.233.323 1.572.323c.27 0 .561-.874.672-1.308c-.45-.328-1.164-.328-1.8-.328c-.444 0-2.022.873-2.133.873"/><path fill="#fdeadc" d="M10.2 7.045c-.18 0-.376-.149-.45-.217c.784 0 1.461-.546 1.906-.546c-.508.244-1.234.763-1.456.763"/><path fill="#934800" d="M11.476 6.373a9 9 0 0 1 1.646-.312c-.545 0-1.053.137-1.583.232c-.17.027-.36.112-.577.202c-.338.148-.725.317-1.149.328H9.75l.048.048c.09.074.254.174.402.174c.138 0 .46-.19.805-.397c.159-.095.317-.19.476-.275zm-1.276.63a.5.5 0 0 1-.244-.08a1 1 0 0 1-.09-.052c.389-.04.766-.153 1.112-.334l.318-.132l.085-.027l-.398.233q-.276.159-.556.312l-.137.053a.3.3 0 0 1-.09.027"/><path fill="#8a8b8d" d="m12.439 5.207l-.021-.074a.04.04 0 0 1 .002-.032a.04.04 0 0 1 .024-.02c.026-.011.053 0 .058.026l.032.106q.06.006.116.026c.022.01.032.037.022.058s-.037.032-.064.021l-.047-.015l.042.169a.04.04 0 0 1-.042.042a.05.05 0 0 1-.053-.042q-.015-.09-.043-.18a.6.6 0 0 0-.18.026c-.026.011-.053 0-.063-.02a.04.04 0 0 1-.002-.032a.03.03 0 0 1 .01-.013l.013-.009a.5.5 0 0 1 .196-.037"/><path fill="url(#SVGzMHiHbtw)" d="M7.61 7.918c.27.524.488 1.747.562 2.292v.98l-2.022-.106l.672-.657l-.106-.216l.106-.106c-.54-.09-.746-.477-.783-.657l.105-.222c0-.524.53-1.017.795-1.202l.333-.434l.339.545z"/><path fill="url(#SVGK5ng6dEe)" d="M15.373 7.479c-.635.265-.789 1.202-.789 1.641l.519-.44l.159-.216v.217l.222-.217l.789-.44l.333-.434v.217l.34-.217v.106c.36-.17 2.25-.942 3.149-1.308l.228-.545c-.36-.085-3.076 1.128-4.389 1.747c-.074.106-.291.328-.561.328s.111-.29.339-.439z"/><path fill="url(#SVG6VVmjbxu)" d="M14.021 6.282c-1.35.874-4.05 7.46-4.5 8.402l5.173-.328v-5.02c0-.698.45-1.53.677-1.852h.334l.106-.111h-.556l-.339.106a8 8 0 0 0-.9-1.197z"/><path fill="url(#SVGTIZxKeyA)" d="M3.45 17.744c0 .07.015.149.031.233c.233.699 1.567 1.88 2.663 1.837c2.922-.106 6.078-2.07 8.55-2.07c1.98 0 3.674-.185 4.272-.328c-.222.545-3.822.762-4.95.874c-1.122.105-5.733 2.18-8.1 1.852a2.764 2.764 0 0 1-2.467-2.398"/><path fill="url(#SVGrsZB5T2N)" fill-rule="evenodd" d="m3.679 15.891l-.45.545c0 1.128.54 3.384 2.7 3.384c1.455 0 3.176-.567 4.77-1.091c1.355-.445 2.615-.863 3.547-.874h.942c1.948.027 4.426.053 4.907-1.53c.562-1.852.562-3.494-5.06-3.6c-4.5-.09-9.445 2.07-11.356 3.166m2.244 3.16a1.11 1.11 0 0 0 1.128-1.09a1.11 1.11 0 0 0-1.128-1.09a1.11 1.11 0 0 0-1.122 1.09a1.11 1.11 0 0 0 1.122 1.09" clip-rule="evenodd"/><path fill="url(#SVGJGMErcTo)" d="m4.8 16.977l-.56-5.787l1.905-.545c.9 0 1.916.476 2.139.657l-.561 2.292l.9 2.181l-1.35.873l-.673-.211l-.45-.879l.112 1.53l-1.24.545l-1.46-.217z"/><path fill="url(#SVGL8yvceDQ)" d="m3 11.524l2.922-.879c.34-.068 1.06.022 1.24.985c.18.958-.371 1.853-.673 2.181l1.344 1.853l-1.233.768l-1.461-1.853l-.339.211v2.081l-1.239.546L3 11.519zm1.461.763l.111 1.307c.487-.106 1.44-.476 1.35-1.09c-.1-.689-.942-.397-1.35-.26l-.106.043z"/><path fill="#ffdbc6" fill-rule="evenodd" d="M6.489 13.81a2.76 2.76 0 0 0 .672-2.181c-.18-.964-.9-1.06-1.239-.985L3 11.523l.561 5.897l1.239-.545V14.8l.339-.217L6.6 16.436l1.233-.763L6.49 13.82zm1.217 1.831l-1.334-1.837l.048-.053c.143-.158.35-.45.498-.825c.153-.371.243-.821.158-1.282c-.09-.46-.301-.699-.518-.82a.92.92 0 0 0-.61-.095l-2.853.852l.546 5.701l1.069-.47v-2.065l.445-.291l1.466 1.858zm-3.213-1.943l-.127-1.477l.069-.02l.106-.038h.01c.201-.074.524-.185.81-.19c.148 0 .297.02.418.105a.57.57 0 0 1 .233.413c.053.355-.2.63-.497.816c-.297.19-.667.317-.921.37zm.08-.105l.09-.022c.508-.132 1.344-.492 1.26-1.07c-.101-.687-.943-.396-1.35-.258l-.107.042z" clip-rule="evenodd"/><path fill="url(#SVG4Cip5cus)" d="m10.2 9.777l-1.916.434l.339.762l.111 2.404l-.9 1.201h1.689l1.948-.439v-.868l-1.165-.217l-.444.217v-.657l1.35-.323l.105-.767l-1.233-.328l.9-.435v-.773l-.784-.222z"/><path fill="url(#SVGF1BOscSV)" d="m10.2 9.776l-2.7.54l.334 4.262l2.477-.656v-.874l-1.577.328v-.984l1.35-.329v-.873l-1.462.328v-.545l1.578-.328z"/><path fill="#ffdbc6" fill-rule="evenodd" d="m8.622 10.973l1.578-.328v-.869l-2.7.546l.334 4.261l2.477-.656v-.874l-1.577.329v-.985l1.35-.328v-.874l-1.462.328zM10 11.3l-1.467.328v-.725l1.578-.328v-.694l-2.515.508l.318 4.077l2.308-.614v-.7l-1.577.33v-1.16L9.994 12v-.7z" clip-rule="evenodd"/><path fill="url(#SVGRmVhpbMK)" d="m12.672 9.777l-1.239-.222l.789 4.15h1.689l1.233-4.256l-1.122-.222l-1.011 2.292l-.339-1.747z"/><path fill="url(#SVG1PkxeeZQ)" d="m11.434 9.555l-1.122.217l1.46 3.933h1.123l1.128-4.478l-1.011.105l-.79 2.626z"/><path fill="#ffdbc6" fill-rule="evenodd" d="m11.434 9.555l-1.122.217l1.46 3.933h1.123l1.128-4.478l-1.011.105l-.79 2.626zm1.641-.138l-.847 2.838l-.852-2.594l-.943.18l1.403 3.774h.99l1.08-4.288l-.825.09z" clip-rule="evenodd"/><path fill="url(#SVGoW5TdcuZ)" fill-rule="evenodd" d="M16.5 12.285c.196 0 .672-.26.672-.985s-.476-.984-.677-.984c-.196 0-.673.26-.673.984c0 .726.477.985.673.985zm0 1.09c.99 0 1.8-.93 1.8-2.075c0-1.143-.81-2.292-1.8-2.292c-.381 0-.794 0-1.127.106c-.477.376-.678 1.472-.678 2.186c0 .869.132 1.769.794 2.076z" clip-rule="evenodd"/><path fill="url(#SVGqmr6Mdpg)" fill-rule="evenodd" d="M15.99 12.052c.16-.185.282-.487.282-.863c0-.37-.127-.672-.281-.857c-.159-.19-.302-.233-.397-.233c-.09 0-.238.042-.392.233c-.159.185-.28.487-.28.857c0 .371.127.678.28.863c.154.186.302.233.392.233c.095 0 .243-.047.397-.233m-.396 1.324c.995 0 1.8-.98 1.8-2.187c0-1.201-.805-2.18-1.8-2.18c-.99 0-1.8.979-1.8 2.18c0 1.208.81 2.187 1.8 2.187" clip-rule="evenodd"/><path fill="#ffdbc6" fill-rule="evenodd" d="M16.362 11.19c0 .391-.133.714-.302.92c-.17.202-.34.265-.466.265c-.122 0-.296-.063-.46-.264a1.47 1.47 0 0 1-.302-.922c0-.386.132-.709.301-.915c.165-.201.34-.265.46-.265c.128 0 .297.063.467.264c.17.207.302.53.302.916m-.768 2.096c.926 0 1.71-.916 1.71-2.097c0-1.175-.784-2.09-1.71-2.09s-1.71.915-1.71 2.09c0 1.181.784 2.097 1.71 2.097m.678-2.097c0 .371-.127.678-.281.863c-.159.186-.302.233-.397.233c-.09 0-.238-.047-.392-.233c-.159-.185-.28-.487-.28-.863c0-.37.127-.672.28-.857c.154-.19.302-.233.392-.233c.095 0 .243.042.397.233c.159.185.28.487.28.857m1.122 0c0 1.208-.805 2.187-1.8 2.187c-.99 0-1.8-.98-1.8-2.187c0-1.201.81-2.18 1.8-2.18c.995 0 1.8.979 1.8 2.18" clip-rule="evenodd"/><path fill="url(#SVGi6LXzdpQ)" d="m12.223 18.177l-2.14.656l-.444-.217l1.461-.44z"/><path fill="#6dbedc" d="M7.722 14.25H6.494l1.572-.44l1.239.106l-1.578.334z"/><path fill="url(#SVGo8H8rbVK)" d="m10.088 18.829l-.794-4.908l-1.456.302l-.116.027l1.016 6.22l3.484-.985v-1.307l-2.134.656z"/><path fill="url(#SVGssVHP31a)" d="M7.5 20.365L6.49 14.25h1.233l1.016 6.22z"/><path fill="url(#SVG92CkjMJW)" d="m12.782 13.481l.562 4.04h1.127l.45-.329l.789.223v-.44l1.8.217h1.345V13.27H14.92l-.45.106v.439l-.111.44l-.117-.768h-1.46z"/><path fill="url(#SVGRWXgxbsR)" d="M19.423 14.578v-1.096c1.006.222 1.122.768 1.006 2.075a1.51 1.51 0 0 1-1.345 1.419v-.762c.185-.18.561-.636.561-.985c0-.35-.148-.582-.222-.651"/><path fill="url(#SVGpvdPUndE)" d="M19.2 17.188v.006h-.794l.45-3.817l.794.105l-.005.016c.582.074 1.43.44 1.35 1.514c-.106 1.456-1.032 2.118-1.8 2.182zm.09-.757c.397-.037.953-.286 1.033-1.09c.069-.779-.392-1.038-.773-1.086l-.265 2.176z"/><path fill="url(#SVGPx3JrevL)" d="M13.122 13.593h-1.128l-1.233 4.367H12l1.122-4.373z"/><path fill="url(#SVGJO2hod3A)" d="m13.122 13.593l1.123-.106l1.127 3.929l-.9.106l-.18-.705l-1.085.212l-.196.715l-1.011.212zm.36 2.446l.583-.106l-.265-1.032z"/><path fill="#ceebfe" d="m14.472 13.376l1.35.105l1.122-.211h-2.022z"/><path fill="url(#SVGrW9WEemy)" d="m15.6 17.416l.223-3.933l1.01-.212l.79 2.07l.222-2.075h.789l-.45 4.039h-.678L16.5 14.902l-.116 2.514z"/><defs><linearGradient id="SVGTU0uTclW" x1="14.479" x2="6.1" y1="3.539" y2="18.559" gradientUnits="userSpaceOnUse"><stop stop-color="#fdfcfe"/><stop offset="1" stop-color="#e6d4c6"/></linearGradient><linearGradient id="SVGoKrn3G8K" x1="3.809" x2="23.577" y1="2.957" y2="8.567" gradientUnits="userSpaceOnUse"><stop stop-color="#fafe78"/><stop offset="1" stop-color="#fffdce"/></linearGradient><linearGradient id="SVGEJlfgetp" x1="4.947" x2="45.386" y1="2.839" y2="24.093" gradientUnits="userSpaceOnUse"><stop stop-color="#fafe78"/><stop offset="1" stop-color="#fffdce"/></linearGradient><linearGradient id="SVGRL0N0cJz" x1="-31.397" x2="42.179" y1="-29.324" y2="-4.416" gradientUnits="userSpaceOnUse"><stop stop-color="#fafe78"/><stop offset="1" stop-color="#fffdce"/></linearGradient><linearGradient id="SVGp5LemcXm" x1="-16.508" x2="29.483" y1="-80.895" y2="-76.008" gradientUnits="userSpaceOnUse"><stop stop-color="#fafe78"/><stop offset="1" stop-color="#fffdce"/></linearGradient><linearGradient id="SVG2264rb7Q" x1="12.107" x2="12.107" y1="3.53" y2="20.471" gradientUnits="userSpaceOnUse"><stop stop-color="#5d5b70"/><stop offset="1" stop-color="#090f1f"/></linearGradient><linearGradient id="SVGmzdISdFW" x1="11.967" x2="23.222" y1="3.479" y2="18.805" gradientUnits="userSpaceOnUse"><stop stop-color="#fbffff"/><stop offset="1" stop-color="#fefff9"/></linearGradient><linearGradient id="SVGXDiCsesT" x1="19.557" x2="4.118" y1="6.929" y2="9.215" gradientUnits="userSpaceOnUse"><stop stop-color="#ffff75"/><stop offset=".37" stop-color="#e66a12"/><stop offset="1" stop-color="#ae4213"/></linearGradient><linearGradient id="SVGzMHiHbtw" x1="11.977" x2="11.977" y1="3.53" y2="20.47" gradientUnits="userSpaceOnUse"><stop stop-color="#619caa"/><stop offset=".29" stop-color="#183f78"/><stop offset=".53" stop-color="#374568"/><stop offset="1" stop-color="#637c90"/></linearGradient><linearGradient id="SVGK5ng6dEe" x1="21" x2=".784" y1="4.672" y2="10.023" gradientUnits="userSpaceOnUse"><stop stop-color="#b2c9e8"/><stop offset=".27" stop-color="#44608e"/><stop offset=".74" stop-color="#152549"/><stop offset="1" stop-color="#10162f"/></linearGradient><linearGradient id="SVG6VVmjbxu" x1="14.272" x2="15.889" y1="4.843" y2="10.782" gradientUnits="userSpaceOnUse"><stop stop-color="#4caace"/><stop offset=".34" stop-color="#229acc"/><stop offset=".52" stop-color="#0c5c9b"/><stop offset=".72" stop-color="#0b4d8a"/><stop offset="1" stop-color="#0e4f75"/></linearGradient><linearGradient id="SVGTIZxKeyA" x1="4.694" x2="20.531" y1="14.247" y2="13.912" gradientUnits="userSpaceOnUse"><stop stop-color="#6d444c"/><stop offset="1" stop-color="#254c6b"/></linearGradient><linearGradient id="SVGrsZB5T2N" x1="10.216" x2="16.067" y1="5.874" y2="16.646" gradientUnits="userSpaceOnUse"><stop stop-color="#6cbddb"/><stop offset=".49" stop-color="#cddde4"/><stop offset="1" stop-color="#d6c8c9"/></linearGradient><linearGradient id="SVGJGMErcTo" x1="12" x2="12" y1="3.8" y2="20.471" gradientUnits="userSpaceOnUse"><stop stop-color="#992f34"/><stop offset=".23" stop-color="#eb6234"/><stop offset=".49" stop-color="#902524"/><stop offset=".63" stop-color="#66211c"/><stop offset=".87" stop-color="#782424"/><stop offset="1" stop-color="#5e1b1c"/></linearGradient><linearGradient id="SVGL8yvceDQ" x1="7.18" x2="8.993" y1="4.672" y2="19.129" gradientUnits="userSpaceOnUse"><stop stop-color="#feb05b"/><stop offset=".23" stop-color="#fe9c51"/><stop offset=".42" stop-color="#ffea76"/><stop offset=".63" stop-color="#fd594f"/><stop offset=".81" stop-color="#fe4e4e"/><stop offset="1" stop-color="#fe4f4b"/></linearGradient><linearGradient id="SVG4Cip5cus" x1="12.197" x2="12.064" y1="3.549" y2="20.844" gradientUnits="userSpaceOnUse"><stop stop-color="#f67141"/><stop offset=".21" stop-color="#e74425"/><stop offset=".33" stop-color="#b24143"/><stop offset=".49" stop-color="#5b1d22"/><stop offset=".57" stop-color="#cc3f35"/><stop offset=".77" stop-color="#dd7f8f"/><stop offset=".89" stop-color="#9e3641"/><stop offset="1" stop-color="#722432"/></linearGradient><linearGradient id="SVGF1BOscSV" x1="4.424" x2="9.135" y1="5.827" y2="21.275" gradientUnits="userSpaceOnUse"><stop stop-color="#faee84"/><stop offset=".21" stop-color="#ffd871"/><stop offset=".33" stop-color="#b24143"/><stop offset=".49" stop-color="#fcd77f"/><stop offset=".57" stop-color="#f9976b"/><stop offset=".77" stop-color="#fe5953"/><stop offset=".89" stop-color="#fe5754"/><stop offset="1" stop-color="#fb5a52"/></linearGradient><linearGradient id="SVGRmVhpbMK" x1="9.008" x2="11.895" y1="4.372" y2="20.015" gradientUnits="userSpaceOnUse"><stop stop-color="#de5c64"/><stop offset=".19" stop-color="#be3427"/><stop offset=".37" stop-color="#982827"/><stop offset=".68" stop-color="#da4f3a"/><stop offset="1" stop-color="#a276ae"/></linearGradient><linearGradient id="SVG1PkxeeZQ" x1="9.009" x2="12.172" y1="4.412" y2="20.802" gradientUnits="userSpaceOnUse"><stop stop-color="#fff379"/><stop offset=".19" stop-color="#fec35f"/><stop offset=".37" stop-color="#fd7354"/><stop offset=".68" stop-color="#f25762"/><stop offset="1" stop-color="#f35c62"/></linearGradient><linearGradient id="SVGoW5TdcuZ" x1="11.987" x2="11.987" y1="4.371" y2="20.47" gradientUnits="userSpaceOnUse"><stop stop-color="#9a3441"/><stop offset=".44" stop-color="#e85e39"/><stop offset=".74" stop-color="#cb3445"/><stop offset="1" stop-color="#a45f8f"/></linearGradient><linearGradient id="SVGqmr6Mdpg" x1="8.082" x2="10.341" y1="4.802" y2="20.696" gradientUnits="userSpaceOnUse"><stop stop-color="#faf37e"/><stop offset=".3" stop-color="#fc674f"/><stop offset="1" stop-color="#f15b64"/></linearGradient><linearGradient id="SVGi6LXzdpQ" x1="15.504" x2="3.717" y1="3.529" y2="4.464" gradientUnits="userSpaceOnUse"><stop stop-color="#59bdfb"/><stop offset="1" stop-color="#75bdfe"/></linearGradient><linearGradient id="SVGo8H8rbVK" x1="11.999" x2="10.014" y1="3.53" y2="20.536" gradientUnits="userSpaceOnUse"><stop stop-color="#3b89c7"/><stop offset=".31" stop-color="#4ee9fe"/><stop offset=".65" stop-color="#166189"/><stop offset="1" stop-color="#1c6091"/></linearGradient><linearGradient id="SVGssVHP31a" x1="11.979" x2="11.979" y1="3.53" y2="20.471" gradientUnits="userSpaceOnUse"><stop stop-color="#3b99cd"/><stop offset=".28" stop-color="#34bfe8"/><stop offset=".57" stop-color="#2bbef2"/><stop offset="1" stop-color="#1b5d83"/></linearGradient><linearGradient id="SVG92CkjMJW" x1="12.007" x2="12.007" y1="3.508" y2="20.47" gradientUnits="userSpaceOnUse"><stop stop-color="#99f3fd"/><stop offset=".33" stop-color="#207baa"/><stop offset=".5" stop-color="#1481be"/><stop offset="1" stop-color="#12386a"/></linearGradient><linearGradient id="SVGRWXgxbsR" x1="12.037" x2="12.037" y1="3.529" y2="20.47" gradientUnits="userSpaceOnUse"><stop stop-color="#99f3fd"/><stop offset=".33" stop-color="#207baa"/><stop offset=".5" stop-color="#1481be"/><stop offset="1" stop-color="#12386a"/></linearGradient><linearGradient id="SVGpvdPUndE" x1="12.001" x2="12.001" y1="3.53" y2="20.471" gradientUnits="userSpaceOnUse"><stop stop-color="#71d1ff"/><stop offset=".25" stop-color="#3ab6f3"/><stop offset=".51" stop-color="#59edfb"/><stop offset=".74" stop-color="#41acff"/><stop offset="1" stop-color="#1d68a1"/></linearGradient><linearGradient id="SVGPx3JrevL" x1="15.834" x2="13.66" y1="3.55" y2="21.255" gradientUnits="userSpaceOnUse"><stop stop-color="#549ee9"/><stop offset=".39" stop-color="#25a3d5"/><stop offset="1" stop-color="#1f93cc"/></linearGradient><linearGradient id="SVGJO2hod3A" x1="11.986" x2="12.271" y1="3.51" y2="19.251" gradientUnits="userSpaceOnUse"><stop stop-color="#3697db"/><stop offset=".3" stop-color="#1f90cc"/><stop offset=".49" stop-color="#3be0ff"/><stop offset=".7" stop-color="#34a7e8"/><stop offset="1" stop-color="#2b7fbf"/></linearGradient><linearGradient id="SVGrW9WEemy" x1="17.114" x2="17.114" y1="13.266" y2="17.417" gradientUnits="userSpaceOnUse"><stop stop-color="#a3f6fb"/><stop offset=".19" stop-color="#35c3f3"/><stop offset=".6" stop-color="#3ddff6"/><stop offset=".8" stop-color="#2b9fda"/><stop offset="1" stop-color="#2179b8"/></linearGradient></defs></g></svg>