<svg xmlns="http://www.w3.org/2000/svg" viewBox="0 0 24 24"><g fill="none"><path fill="#070324" d="m13.03 3.583l-.379-.07l-.461-.096l.07-.365a.06.06 0 0 1 .027-.042a.06.06 0 0 1 .046-.009l.71.148a.06.06 0 0 1 .038.032q.013.02.013.046zm-.877-.162l-.092.448l-.074.443l-.018.009a.04.04 0 0 1-.047 0a.6.6 0 0 0-.258-.07q-.098-.007-.079-.105l.125-.693a.1.1 0 0 1 .037-.055a.1.1 0 0 1 .065-.018l.341.046z"/><path fill="#fff2ae" d="m12.153 3.421l.032-.004l.462.096a1.4 1.4 0 0 0-.111.365a.1.1 0 0 1-.037.065a.1.1 0 0 1-.074.013l-.36-.087z"/><path fill="#ffde39" d="m12.647 3.513l.383.07c.023.009.037.032.033.069l-.093.42a1.4 1.4 0 0 0-.401-.079a.04.04 0 0 0-.037.028a.77.77 0 0 0-.083.415l-.457-.092c-.014-.014-.019-.028-.005-.033l.079-.443l.36.084a.09.09 0 0 0 .11-.074c.014-.12.056-.24.116-.365z"/><path fill="#070324" d="M8.226 4.075L7.82 4c-.009 0-.018 0-.027.01a.04.04 0 0 0-.014.022l-.088.439l-.064.415a.046.046 0 0 0 .036.055l.407.079l-.259 1.356V6.4c.01.01.014.014.023.014l.43.092l-.185.91l-.097.54l-.074.354a.11.11 0 0 1-.115-.013a.14.14 0 0 0-.056-.019l-.175-.032a.07.07 0 0 1-.046-.032a.08.08 0 0 1-.014-.06l.23-1.219a.11.11 0 0 0-.045-.115a.1.1 0 0 0-.047-.014l-.313-.05a.05.05 0 0 1-.028-.019a.05.05 0 0 1-.014-.032c0-.051.01-.106.019-.157q.158-.729.295-1.463c.018-.106-.005-.189-.125-.212a4 4 0 0 1-.212-.046a.06.06 0 0 1-.032-.023a.06.06 0 0 1-.01-.037q.058-.393.144-.78a.1.1 0 0 1 .064-.037l.032.005a.64.64 0 0 0 .277.037q.029 0 .042-.014a.1.1 0 0 0 .018-.037l.074-.337a.07.07 0 0 1 .028-.037a.06.06 0 0 1 .041-.009l.277.05c.019 0 .032.015.046.028q.014.017.014.047l-.028.336l-.013.042zm2.732.54l-.406-.083a.023.023 0 0 1-.018-.023l.078-.43c0-.009 0-.013-.014-.018l-.434-.079h-.009v.01l-.083.424l-.014.019a.03.03 0 0 1-.018 0l-.406-.079a.03.03 0 0 0-.023.01a.03.03 0 0 0-.014.018l-.07.392a.6.6 0 0 1-.336-.064a.11.11 0 0 1-.06-.12l.041-.222c.01-.055.046-.074.097-.06a.6.6 0 0 0 .338.022l.017-.017c.047-.102.079-.203.093-.314c.009-.06.046-.088.101-.079c.074.014.148.028.217.051a.1.1 0 0 0 .125-.06a.8.8 0 0 0 .06-.253q.004-.103.106-.088l.221.032q.12.02.092.139a.65.65 0 0 0-.018.295c0 .014.01.023.018.032l.024.019c.092.027.193.046.295.046a.06.06 0 0 1 .055.037v.027zm1.942-.153l.074-.392l.093-.42l.313.042a.1.1 0 0 1 .06.037a.1.1 0 0 1 .019.069l-.139.72a.06.06 0 0 1-.032.037a.06.06 0 0 1-.046.009z"/><path fill="#ffde39" d="M10.958 4.617q.019.014.023.069l-.078.383q-.014.033-.033.032l-.433-.092l-.07-.023q.103-.083.13-.263c.032-.231-.185-.222-.328-.25a.1.1 0 0 0-.064.01a.1.1 0 0 0-.046.046a.5.5 0 0 0-.019.378a.15.15 0 0 1-.078 0l-.337-.06c-.079.005-.106-.018-.093-.069l.065-.392a.03.03 0 0 1 .023-.023h.014l.406.078l.019-.004a.03.03 0 0 0 .013-.019l.079-.424q0-.005.003-.006l.006-.004h.005l.433.079c.01 0 .014.009.014.018l-.078.43q0 .008.005.014a.02.02 0 0 0 .013.008z"/><path fill="#febd3d" d="m12.97 4.072l-.07.392q.017.034-.037.046l-.415-.074a.76.76 0 0 1 .083-.415a.04.04 0 0 1 .037-.028q.2.001.406.079z"/><path fill="#fff2ae" d="M8.226 4.076q.015.013.023.046l-.093.438a1.1 1.1 0 0 0-.46-.087l.082-.439q0-.014.014-.023a.04.04 0 0 1 .028-.009z"/><path fill="#070324" d="m8.25 4.118l.345.064c.014 0 .033.014.042.028q.015.02.01.046a10 10 0 0 1-.14.752a.05.05 0 0 1 0 .046q-.015.04-.064.033l-.369-.07l.083-.456zm3.741.226l.462.092l.415.078l-.139.623a.42.42 0 0 0 .06.323q.014.02.047.033l.244.069a.06.06 0 0 1 .042.046l-.005.028a.9.9 0 0 0-.046.346l-.406-.074q-.034-.001-.028-.037l.07-.383c0-.014 0-.028-.01-.037a.05.05 0 0 0-.032-.023l-.84-.161a.02.02 0 0 0-.018 0a.02.02 0 0 0-.01.018l-.078.415a.03.03 0 0 1-.014.014a.03.03 0 0 1-.023.005l-.434-.088l-.009-.014V5.6a.08.08 0 0 1 .042-.046a.05.05 0 0 0 .027-.028a.2.2 0 0 0 .019-.097a.1.1 0 0 1 .005-.055l.101-.203a.14.14 0 0 1 .152-.078l.231.032a.05.05 0 0 0 .037-.01a.05.05 0 0 0 .018-.032zm3.078 1.075l-.415-.083a.03.03 0 0 1-.019-.014l-.009-.01l.092-.424c0-.009 0-.014-.014-.018l-.433-.079c-.014 0-.019 0-.019.01l-.087.452l-.411-.093l.074-.401a.05.05 0 0 1 .023-.032a.05.05 0 0 1 .046-.01c.115.033.23.051.355.051c.019 0 .032-.004.032-.023l.074-.286q.034-.116.143-.088l.176.047c.074.013.106.064.087.143a1 1 0 0 0-.023.263a.07.07 0 0 0 .042.055q.138.064.295.065l.028.013l.01.024c0 .092-.01.175-.038.258a.1.1 0 0 0 0 .046c.005.05 0 .092-.01.138z"/><path fill="#febd3d" d="m8.157 4.56l-.078.46h-.01l-.405-.078a.046.046 0 0 1-.037-.055l.064-.415c.153-.005.31.023.462.092z"/><path fill="#fff2ae" d="m10.368 4.985l-.328-.079a.48.48 0 0 1 .023-.378a.1.1 0 0 1 .046-.046a.1.1 0 0 1 .06-.01c.143.028.36.02.323.25q-.02.18-.124.263"/><path fill="#070324" d="m10.903 5.069l.074-.383l.328.014a.1.1 0 0 1 .069.037a.1.1 0 0 1 .023.078l-.037.296a.03.03 0 0 1-.014.023a.03.03 0 0 1-.023.004z"/><path fill="#fff2ae" d="m14.626 5.313l-.461-.06l.087-.452q-.001-.016.019-.01l.434.079c.009 0 .014.009.014.018z"/><path fill="#070324" d="m9.625 4.846l.337.06l-.074.475l-.17.886c0 .019-.015.028-.029.023l-.84-.166c-.018-.004-.022-.014-.022-.032l.064-.36a.9.9 0 0 1 .35.032c.093.024.144-.013.162-.101l.139-.757c.01-.046.037-.069.083-.06"/><path fill="#febd3d" d="M9.962 4.907a.15.15 0 0 0 .078 0l.328.079l.069.027l-.083.443l-.466-.074z"/><path fill="#070324" d="m10.432 5.013l.438.087l-.064.217c-.028.083.005.139-.014.222l-.438-.083l.083-.443z"/><path fill="#ffde39" d="M8.07 5.023h.009l.37.065c.045 0 .073.027.068.087l-.06.37v.018l.019.009l.373.078q.034-.027.047.084l-.07.36q-.002.026.023.032l.84.166c.014 0 .023 0 .028-.023l.17-.886l.462.074l.443.083c.023 0 .032.014.018.023l-.078.434c0 .009 0 .013.01.018l.414.088c.014 0 .019 0 .019-.014l.07-.443c-.015 0-.015 0 .004-.014l.434.092a.03.03 0 0 0 .037-.027l.078-.411a.02.02 0 0 1 .01-.014l.008-.004h.01l.84.161q.018.002.032.023c.009.01.009.023.009.037l-.07.383c0 .023.005.037.028.037l.406.074c.01.009.014.027.01.046l-.079.401c0 .019 0 .033.023.033l.392.083a.03.03 0 0 0 .024-.01a.03.03 0 0 0 .013-.018l.065-.406q-.008-.027.018-.032l.452.087l.462.111l-.166.895c0 .014 0 .019.014.023l.867.17l-.07.453l-.17.9l-.009.023q-.01.02-.032.014a3 3 0 0 0-.296-.079q-.103-.027-.087-.138q.017-.14.046-.277a.1.1 0 0 0-.042-.065a.1.1 0 0 0-.032-.018l-.374-.065l.079-.424a.05.05 0 0 0-.023-.046l-.019-.01l-.415-.064l-.388-.074a.07.07 0 0 0-.05.014a.07.07 0 0 0-.032.046l-.056.37l-.092.438c-.01.032 0 .046.032.055l.9.152l.337.074a.1.1 0 0 1 .055.037q.02.034.014.07l-.046.29c-.01.055-.037.078-.093.069l-2.597-.508a.07.07 0 0 0-.056.01a.07.07 0 0 0-.027.046L11.567 9l-.013.024l-.024.013h-.018L8.36 8.42l-.424-.074q-.028.008-.028-.032l.074-.355q.05-.05.106-.028c.014.004.028.01.046 0a.4.4 0 0 1 .185.01q.228.068.47.11c.093.018.153-.023.167-.12l.115-.743a.08.08 0 0 0-.037-.078a.1.1 0 0 0-.028-.014a1 1 0 0 1-.36-.116l.074-.346a.06.06 0 0 0-.009-.046a.06.06 0 0 0-.037-.018l-.41-.06l-.43-.093a.03.03 0 0 1-.023-.037z"/><path fill="#070324" d="m13.7 5.216l-.08.387l-.34-.07a.1.1 0 0 1-.06-.04a.1.1 0 0 1-.01-.07l.046-.221q.028-.09.111-.083q.173.001.332.092zm-4.85.433l-.374-.078a.02.02 0 0 1-.014-.01a.03.03 0 0 1-.004-.018l.06-.369a.63.63 0 0 1 .369.046q.034.013.046.046c.01.014.014.037.01.056l-.093.323z"/><path fill="#ffde39" d="m13.754 5.161l.416.093l.457.06l.009.009l.018.014l.415.083l.01.023l-.079.415c-.009.028-.027.037-.055.037l-.41-.083a1.3 1.3 0 0 0-.458-.102l-.433-.078c-.01.014-.019 0-.023-.028l.078-.387q.015-.062.055-.056"/><path fill="#070324" d="M15.766 9.432a3 3 0 0 0-.092.23c-.047.12-.093.139-.217.125c-.125-.014-.208-.046-.245-.083l.166-.867l.185-.923l.42.083c.018.004.032 0 .032-.019l.258-1.356l.406.083c.033.005.047-.01.056-.042l.166-.858c0-.018-.005-.032-.023-.032l-.406-.074c-.019-.005-.033 0-.037.028l-.162.858q-.033.027-.101.014a4 4 0 0 0-.35-.065l.188-.849a.05.05 0 0 1 .056-.037l.29.046c.028 0 .051 0 .074-.018a.1.1 0 0 0 .046-.06l.083-.31q.015-.066.079-.05l.281.06q.07.014.051.083a1.5 1.5 0 0 0-.046.346c0 .023.014.042.032.046a.46.46 0 0 0 .25.065q.117 0 .096.12l-.124.738a.07.07 0 0 1-.037.056a.07.07 0 0 1-.06 0a.8.8 0 0 0-.277-.06q-.103 0-.115.096q-.071.527-.162.923a8 8 0 0 0-.138.77a.06.06 0 0 1-.042.024h-.023l-.337-.074a.07.07 0 0 0-.083.042l-.041.138a7 7 0 0 0-.093.803zm-.688-3.987l.337.079c.046.009.07.037.06.087l-.046.259q-.015.069-.079.055L15 5.851l.078-.41zm-3.834.199l-.07.443q0 .014-.013.014l-.42-.093c-.01 0-.014 0-.01-.014l.08-.433a.14.14 0 0 1 .091.027c.014.005.028.014.047.014z"/><path fill="#febd3d" d="m14.539 5.815l-.092.461l-.457-.11l.088-.458c.138 0 .295.037.46.102z"/><path fill="#ffde39" d="M16.273 6.624q.028-.009 0-.037l.162-.858c0-.024.018-.033.037-.028l.406.074c.018 0 .023.014.023.032l-.166.858q-.007.049-.056.042z"/><path fill="#070324" d="m14.538 5.816l.406.078l-.138.882q0 .033.028.046q.195.094.397.064c.018 0 .037-.013.05-.027a.32.32 0 0 0 .07-.277a.07.07 0 0 1 .023-.06a.07.07 0 0 1 .06-.019l.184.047h.065c.041 0 .078.009.11.036l-.06.37q-.005.04-.046.032l-.401-.083l-.018.004l-.01.008l-.004.01l-.093.44l-.862-.171q-.014-.002-.014-.024l.161-.895z"/><path fill="#fff2ae" d="M11.475 7.088q-.027.02-.028.033a4 4 0 0 0-.77-.139q-.125-.014-.11-.138l.022-.236q.008-.126.138-.106l.296.046c.046.01.078-.013.088-.06l.05-.313c.01-.046.042-.07.093-.06l.803.161c.023 0 .036-.004.041-.027l.041-.323c.01-.074.047-.102.116-.093l.286.06q.089.015.074.106l-.06.277a.1.1 0 0 1-.056.079a.1.1 0 0 1-.092 0a.56.56 0 0 0-.3-.06c-.023 0-.032.009-.037.032l-.055.346a.07.07 0 0 1-.046.05h-.028l-.323-.055a.09.09 0 0 0-.106.074z"/><path fill="#070324" d="m13.08 6.032l.397.046a.05.05 0 0 1 .033.019l.009.014l-.065.406q0 .006-.004.013l-.01.01a.03.03 0 0 1-.023 0l-.392-.074q-.028-.008-.023-.037z"/><path fill="#fb6439" d="m8.263 6.508l.411.06a.06.06 0 0 1 .037.023a.06.06 0 0 1 .01.046l-.075.342l-.092.494a.03.03 0 0 1-.037.027l-.438-.083z"/><path fill="#febd3d" d="M15.822 6.535q.179.022.35.064q.068.015.102-.014q.027.03 0 .037l-.259 1.357q-.002.026-.032.018l-.415-.078l-.47-.102l.068-.452l.093-.438c0-.01 0-.014.009-.019h.018l.406.079q.035.006.042-.028l.06-.369q0-.027.028-.055"/><path fill="#fdb199" d="m10.077 6.853l-.074.416c0 .009 0 .014-.009.018a.03.03 0 0 1-.018.005l-.434-.079a1 1 0 0 1 .032-.313q.028-.109.125-.107c.129 0 .258.024.378.06"/><path fill="#fb6439" d="m10.45 7.397l-.06.393a.08.08 0 0 1-.037.055a.08.08 0 0 1-.06.01l-.369-.075l-.429-.092c-.018-.004-.023-.018-.023-.037l.07-.438l.433.078h.018l.01-.023l.073-.415l.443.078c.019 0 .023.014.019.033l-.093.433z"/><path fill="#febd3d" d="M8.646 6.978a.9.9 0 0 0 .36.115a.074.074 0 0 1 .065.093l-.116.743q-.02.146-.166.12a4 4 0 0 1-.47-.111a.4.4 0 0 0-.185-.005h-.046q-.057-.027-.106.023l.092-.54l.443.083a.03.03 0 0 0 .037-.018v-.01z"/><path fill="#fdb199" d="M11.475 7.088q.188.091.41.106l-.06.425a.04.04 0 0 1-.014.028a.04.04 0 0 1-.031.009l-.415-.083l.082-.452q0-.014.028-.033"/><path fill="#fb6439" d="m11.886 7.196l.443.074c.023 0 .037.018.032.046l-.083.447l-.074.462l-.9-.171a.03.03 0 0 1-.015-.013a.03.03 0 0 1-.003-.02l.079-.447l.415.083q.016 0 .027-.009a.05.05 0 0 0 .019-.028z"/><path fill="#febd3d" d="m9.924 7.781l.37.074a.08.08 0 0 0 .083-.033q.01-.014.013-.032l.06-.392a.94.94 0 0 1 .402.06c.014.01.032.023.037.037q.014.028.009.056a8 8 0 0 0-.139.83a.07.07 0 0 1-.041.028h-.023l-.817-.152a.055.055 0 0 1-.046-.047c-.019-.175.06-.276.092-.429"/><path fill="#fdb199" d="m13.721 7.568l-.064.406a.05.05 0 0 1-.019.033a.05.05 0 0 1-.041.009l-.402-.092l.056-.37a.07.07 0 0 1 .055-.06h.028z"/><path fill="#fb6439" d="m13.722 7.569l.415.064q.015.004.024.013l.013.024v.019l-.074.424l-.065.457l-.9-.152q-.05-.007-.036-.056l.092-.438l.406.092a.046.046 0 0 0 .06-.046z"/><path fill="#febd3d" d="m12.278 7.762l.369.01c.069 0 .101.041.092.11l-.05.314c-.015.074-.056.101-.13.092l-.355-.06z"/><path fill="#fb6439" d="m15.097 7.818l.466.102l-.185.923a3 3 0 0 1-.415-.079c-.018 0-.027-.018-.037-.046z"/><path fill="#febd3d" d="m14.1 8.114l.37.064a.1.1 0 0 1 .064.047q.021.031.014.069l-.046.244q-.016.11.087.139c.107.023.208.046.296.078c.014 0 .027 0 .032-.014l.01-.023q.011.044.032.046q.164.048.42.074l-.167.868c.005.032 0 .055-.027.069l-.397-.079q-.034-.014-.046.028l-.074.392c0 .023-.019.033-.042.028L8.32 8.907a.05.05 0 0 1-.028-.018a.05.05 0 0 1-.01-.032l.08-.439l3.15.619a.05.05 0 0 0 .047-.019l.01-.018l.055-.342a.07.07 0 0 1 .027-.046a.07.07 0 0 1 .056-.01l2.597.508c.056.01.083-.013.093-.069l.046-.29c0-.024 0-.047-.014-.07a.1.1 0 0 0-.055-.037l-.337-.073z"/><path fill="#070324" d="m7.94 8.344l.42.074l-.078.438c0 .01 0 .023.009.032q.011.015.028.019l6.307 1.236c.023 0 .037-.004.046-.027l.074-.393c0-.023.018-.037.046-.027l.393.078a1.5 1.5 0 0 0-.093.508l-.064.332v.025l-.014.021a.05.05 0 0 1-.046.018l-.877-.184l-4.919-.96l-.904-.18l-.23-.037q-.029-.008-.028.019l.018 1.92a.58.58 0 0 0 .01.433l-.245.01c.023-.647.027-1.293.023-1.939c0-.152.027-.323 0-.48a.6.6 0 0 1-.005-.212c.037-.18.07-.35.092-.521a.35.35 0 0 0-.004-.152c-.005-.014-.005-.028 0-.033a.1.1 0 0 1 .037-.018z"/><path fill="#e35e74" d="M8.263 9.356c.05.083-.023.125-.018.203q.009.692 0 1.384l-.01.014a6 6 0 0 0-.004.277c.009.014.018.014.027.01l.01.008l-.24.005l-.019-1.92c0-.013.01-.023.028-.018l.23.037z"/><path fill="#e6704e" d="m8.264 9.354l.909.18c-.07.125-.093.296-.088.522q0 .043-.028.078a.12.12 0 0 1-.069.046q-.07.009-.078.079q-.045.366-.005.733q.007.07-.065.074c-.124 0-.258-.014-.378.014l-.161.042a.06.06 0 0 0-.042.028q-.021.038 0 .092q-.014.004-.028-.005l-.004-.023a6 6 0 0 1 .009-.258l.01-.014q.009-.693 0-1.384c0-.079.068-.12.022-.204z"/><path fill="#241618" d="M15.766 9.433c.018.138.046.267.046.406v1.121q.001.063.05.083q.266.104.365.402q.001.401.037.816q.023.278-.018.554q.064.344.027.692a15 15 0 0 0-.018 1.689c.004.42-.046.826-.166 1.209q-.057.194-.093.387a2 2 0 0 1-.129.462c-.07.166-.078.341-.161.507c-.074.152-.125.305-.217.457q-.084.123-.139.268a.14.14 0 0 1-.032.041l-.244.23l-.231.18q-.09.07-.166.153c-.019.023-.06.042-.125.046a.05.05 0 0 0-.037.028a.08.08 0 0 1-.055.046q-.044.01-.046-.037c0-.032.004-.064.023-.088l.046-.032a.08.08 0 0 0 .032-.055q.2-.194.393-.402q.15-.151.253-.346c.203-.383.397-.76.476-1.195q.062-.194.152-.369a.5.5 0 0 0 .055-.212c.037-.263.139-.512.152-.775c.019-.277.042-.554.028-.83v-.264a4 4 0 0 0-.014-.715a.4.4 0 0 0-.046-.152a.1.1 0 0 1-.01-.046l.02-.254l.027-.425q.056-.751.014-1.407a.3.3 0 0 0-.06-.157c0-.041 0-.064-.018-.074c-.18-.101-.305-.078-.379.079c-.037.078-.027.152-.07.226a.8.8 0 0 0-.054.235c-.024.277-.056.55-.047.822c.01.189.023.346.116.47c.023.032.023.065-.01.092c-.013.019-.027.019-.046.01c-.087-.06-.23-.074-.253.069l-.046.632a.07.07 0 0 1-.047.07a.06.06 0 0 1-.06-.005c-.106-.088-.23-.139-.304-.254a.4.4 0 0 0-.208-.157a.07.07 0 0 1-.037-.037c-.032-.06-.092-.092-.12-.138a1 1 0 0 1-.046-.102c-.032-.208-.074-.674.083-.812a.13.13 0 0 0 .037-.06l.014-.07a3 3 0 0 0 .037-.784l-.019-.318a.05.05 0 0 0-.028-.042l-.142-.055l-.046-.35a.05.05 0 0 0-.023-.037q-.069-.035-.144.013l-.004-.378l.876.185a.05.05 0 0 0 .046-.014a.05.05 0 0 0 .014-.046l.337-.005a.05.05 0 0 0 .046-.023a.05.05 0 0 0 .005-.046a.3.3 0 0 0-.046-.092a.05.05 0 0 0-.046-.028a.27.27 0 0 1-.23-.143q0-.257.091-.508q.036-.021.028-.069q.056.063.245.083c.12.01.166-.004.212-.13l.097-.23z"/><path fill="#fb8a4e" d="m9.172 9.534l4.919.96v.378l-.005.29c0 .019 0 .033.019.047a.35.35 0 0 0 .129.101c.046.023.06.065.074.11q.006.042.055.06q.119.04.138.185q.033.429-.055.85a.12.12 0 0 1-.037.06c-.157.138-.115.6-.088.812a.4.4 0 0 0 .005.165a.6.6 0 0 1 .023.158c0 .05.01.1.019.156c.014.065.046.143.083.231c.092.185.06.47.06.678c0 .111-.014.231-.033.356l-.064.364c-.005.042-.023.097-.046.175c-.019.046-.033.107-.051.18q-.147.596-.508 1.145l-.401.433q-.213.194-.406.416a.4.4 0 0 1-.11.078c-.093.046-.125.092-.185.162a.1.1 0 0 1-.046.032c-.13.046-.263.092-.397.152c-.056.028-.083.07-.148.092a.3.3 0 0 0-.134.074a.6.6 0 0 1-.124.088c-.13.07-.263.138-.393.226c-.023.01-.018.018 0 .023h.047a2.5 2.5 0 0 1-1.048 0a1.12 1.12 0 0 1-.72-.535c-.018-.13-.101-.402.014-.485c.083-.055.162-.12.236-.184a1 1 0 0 1 .166-.093a.4.4 0 0 0-.005.25c.023.092.074.152.138.17c.231.074.323-.133.48-.235a.3.3 0 0 0 .065-.078q.027-.07-.07-.107l.37-.087a.1.1 0 0 0 .06-.046l.01-.01a.02.02 0 0 0 0-.018h-.006l-.009-.005l-.881-.055q-.14-.008-.13-.148v-.138q.013-.137.144-.143a8 8 0 0 0 .784-.083a.3.3 0 0 0 .102-.042c.037-.018.074-.037.11-.046c.153-.046.305-.092.462-.12q.098-.027.092-.138a.055.055 0 0 0-.06-.046c-.157.009-.277.064-.35.161a.06.06 0 0 1-.037.023c-.13.023-.245.051-.379.046c-.161 0-.323-.013-.48-.027c-.064-.01-.129-.032-.194-.046a.13.13 0 0 1-.069-.042a.1.1 0 0 1-.009-.092a.04.04 0 0 1 .037-.023h.148c.295.023.6-.005.9-.093q.42-.12.807-.323q.243-.188.48-.41c.11-.097.129-.213.064-.337a1.58 1.58 0 0 0-.946-.807a3 3 0 0 1-.258-.259c-.055-.06-.064-.124-.101-.194a.12.12 0 0 0-.097-.069h-.062l-.021.014l-.008.022q-.002.012.003.024q.048.194.014.378a.1.1 0 0 1-.028.056l-.461.438a2.6 2.6 0 0 1-.71.005a.25.25 0 0 0-.153-.065a.1.1 0 0 1-.046-.014c-.033-.018-.046-.032-.083-.041a.7.7 0 0 1-.24-.097a.05.05 0 0 1-.023-.046l.037-.277q0-.036.036-.05c.144-.093.148-.14.185-.296c.014-.037.028-.079.05-.115c.098-.171.14-.351.14-.54a4 4 0 0 1 0-.43a.05.05 0 0 0-.024-.027H9.92a.3.3 0 0 0-.125.032a.6.6 0 0 1-.014-.258c.005-.019.019-.033.037-.033l.263-.018q.008 0 .014-.005l.005-.009v-.01l-.056-.617q0-.007.003-.013l.006-.01a.03.03 0 0 1 .019-.01l.61-.05q.032 0 .031.027l.056.605q0 .015.01.026l.022.015h.018q.127-.026.24-.018q.033.004.037.037a.2.2 0 0 1-.018.11q-.082.055-.157.033q-.055-.022-.07.046l-.004.028a.07.07 0 0 0 .033.077a.1.1 0 0 0 .027.01l.162.023h.364q.035 0 .042.042l.009.184a.05.05 0 0 0 .032.046q.807-.104 1.62-.152a.04.04 0 0 0 .009-.023l-.018-.267a.05.05 0 0 1 .011-.036l.016-.011l.019-.004l.235-.019a.055.055 0 0 0 .046-.06l-.018-.24c0-.009 0-.018.009-.023a.03.03 0 0 1 .018-.013l.259-.033a.04.04 0 0 0 .023-.012a.04.04 0 0 0 .009-.025l-.023-.267a.05.05 0 0 1 .023-.042h.019l.258-.01l.014-.004a.03.03 0 0 0 .014-.018v-.014l-.042-.581a.07.07 0 0 0-.023-.046a.07.07 0 0 0-.046-.019l-.508.046a1.1 1.1 0 0 0-.392.019v.004h.005l.184.005a21 21 0 0 1-1.92.046a.5.5 0 0 0-.17.028a1 1 0 0 1-.162.05c-.202.042-.415.093-.622.116l-1.01.083l-.065-.097a.1.1 0 0 1-.014-.065a.14.14 0 0 0 0-.055c-.01-.028-.023-.041-.051-.041h-.221l-.351-.028l-.388-.028l-.009-.01q-.021-.052 0-.091l.018-.02l.024-.008l.161-.042c.12-.032.254-.013.378-.013c.047 0 .07-.028.065-.074a3.2 3.2 0 0 1 .005-.734q.007-.07.078-.078a.12.12 0 0 0 .07-.046a.12.12 0 0 0 .027-.079c-.01-.226.018-.397.088-.521z"/><path fill="#743940" d="M15.092 10.28c.046.093.13.14.23.144q.035 0 .047.027a.3.3 0 0 1 .046.093a.06.06 0 0 1-.01.046a.05.05 0 0 1-.04.023h-.338l.06-.332z"/><path fill="#fca471" d="M12.079 11.283c-.378-.005-.77-.01-1.158.014a.08.08 0 0 1-.06-.023a.08.08 0 0 1-.028-.055c-.005-.102-.065-.167-.17-.194a.08.08 0 0 1-.047-.037a.08.08 0 0 1-.004-.07c.06-.138.397-.087.526-.073c.078.009.129.05.147.134a.065.065 0 0 0 .06.046l.692.023c.06 0 .102.032.116.097l.009.032q.027.111-.083.106"/><path fill="#cd5540" d="M14.309 11.245q-.015.113.055.231c-.033-.01-.046-.028-.056-.055c-.013-.046-.023-.088-.073-.111a.4.4 0 0 1-.13-.102a.07.07 0 0 1-.018-.046l.01-.29q.082-.049.138-.014a.05.05 0 0 1 .032.037z"/><path fill="#b39976" d="M15.23 11.049c.047.041.12.036.157-.01c.033-.046.019-.115-.037-.157c-.055-.046-.124-.037-.161.01c-.032.046-.018.115.037.157z"/><path fill="#010000" d="M11.069 12.816c-.028-.019-.042-.046-.033-.079l.047-.138a.2.2 0 0 0 .013-.11c0-.024-.013-.033-.037-.038a1 1 0 0 0-.24.019a.04.04 0 0 1-.019 0a.04.04 0 0 1-.031-.041l-.056-.6c0-.024-.009-.038-.032-.033l-.609.046a.03.03 0 0 0-.018.014l-.01.01v.013l.056.618a.023.023 0 0 1-.019.024l-.263.018c-.018 0-.032.014-.037.032a.6.6 0 0 0 .014.259c0 .046-.014.064-.05.069l-.25.014l-.012.002l-.01.007v.014l-.005.014l.023.249q.007.054-.046.06l-1.214.106l-.217.023a.4.4 0 0 1-.161-.028a.05.05 0 0 1-.024-.017a.05.05 0 0 1-.009-.029l-.009-.207a.055.055 0 0 0-.055-.051l-.24.014a.05.05 0 0 1-.032-.01l-.013-.014l-.006-.018l-.018-.19a.1.1 0 0 0-.037-.064a.1.1 0 0 0-.065-.023l-.184.014l-.042-.014a.06.06 0 0 1-.023-.046l-.018-.208a.05.05 0 0 0-.019-.032l-.017-.01l-.02-.004l-.207.005a.07.07 0 0 1-.047-.014a.07.07 0 0 1-.027-.046l-.046-.535c0-.014 0-.028.013-.033a.27.27 0 0 1 .139-.037l.946-.092l.244-.009l.406-.046l.822-.102l.092.023l1.006-.083c.212-.023.415-.073.623-.115q.057-.01.161-.046a.5.5 0 0 1 .17-.032q.962.021 1.916-.047l.212-.027l.498-.046q.014 0 .027.003a.07.07 0 0 1 .047.061l.046.582a.04.04 0 0 1-.009.023l-.01.009l-.013.004l-.258.01a.04.04 0 0 0-.033.013a.04.04 0 0 0-.009.028l.023.268a.04.04 0 0 1-.032.037l-.259.032a.03.03 0 0 0-.018.014a.03.03 0 0 0-.01.023l.024.24a.06.06 0 0 1-.028.05l-.023.01l-.235.018q-.015 0-.029.009a.05.05 0 0 0-.017.024v.018l.018.268a.04.04 0 0 1-.018.032h-.014q-.8.043-1.597.143a.05.05 0 0 1-.032-.046l-.01-.185c0-.027-.018-.041-.04-.041z"/><path fill="#cd5540" d="m13.445 11.215l-.212.027h-.18l-.005-.002l-.002-.005l.002-.004l.005-.002q.185-.042.392-.014"/><path fill="#743940" d="m14.308 11.246l.143.055q.013.005.021.02a.05.05 0 0 1 .007.027l.018.313a.2.2 0 0 0-.138-.184a.4.4 0 0 1-.051-.23"/><path fill="#4f0e4f" d="m8.033 11.26l.23-.008l.393.027c-.092-.014-.152 0-.194.032a.06.06 0 0 0-.023.046l.005.282l-.406.05a.56.56 0 0 1-.01-.433z"/><path fill="#241618" d="m8.655 11.279l.351.032q.048.013.083.046a.02.02 0 0 1 0 .014v.01l-.005.004l-.027.014a.04.04 0 0 1-.037 0a.2.2 0 0 0-.083-.033c-.023 0-.037.01-.032.033v.023a.05.05 0 0 0 .036.037l.323.083l-.82.097v-.282c0-.018 0-.032.018-.046q.062-.054.193-.032"/><path fill="#cd5540" d="M9.002 11.308h.221q.044-.001.046.046q.006.022.005.046c0 .028 0 .046.014.07l.064.096l-.088-.023l-.322-.083c-.019 0-.033-.019-.033-.037V11.4c-.009-.023 0-.037.028-.032c.023 0 .046.014.083.032h.037l.028-.014a.02.02 0 0 0 .009-.014a.02.02 0 0 0-.005-.018a.2.2 0 0 0-.083-.046zm6.953.138a.17.17 0 0 1-.092-.032l-.079-.06c-.055-.023-.106-.005-.138.046a.7.7 0 0 0-.102.355a.4.4 0 0 1-.055.157a.25.25 0 0 0-.028.11q-.002.163.01.324l.01.011l.012.007h.014q.077-.014.083-.092c0-.028.01-.046.024-.07c.027-.027.064-.018.115.038a.1.1 0 0 1 .023.046q.087.364.115.738a.05.05 0 0 0 .03.022a.05.05 0 0 0 .035-.003l.069-.028l-.028.424l-.055.13a.05.05 0 0 1-.028.027a.1.1 0 0 0-.034.03a.1.1 0 0 0-.012.044q.001.32-.184.508a1.08 1.08 0 0 0-.259.632l-.032.798a1.8 1.8 0 0 1-.092.512l-.194.586a1 1 0 0 1-.065.152c-.069.125-.101.254-.175.374a.73.73 0 0 0-.102.406q0 .015.007.026l.016.02a.06.06 0 0 0 .056.01c.13-.047.3-.36.332-.48c.05-.166.17-.254.208-.43a.36.36 0 0 1 .12-.198a.09.09 0 0 1 .078-.014a.09.09 0 0 1 .056.06q.05.202.022.425a4 4 0 0 1-.475 1.2q-.103.188-.253.34q-.194.21-.393.402c-.198.139-.313.277-.572.37c-.184.06-.346.17-.535.23c-.494.17-.969.355-1.476.305a.59.59 0 0 1-.43-.263c-.046-.07-.055-.19.056-.199l.258-.027a.09.09 0 0 0 .079-.06v-.033c0-.037-.024-.055-.06-.05c-.153 0-.259-.024-.328-.079a.107.107 0 0 1-.012-.153a.1.1 0 0 1 .049-.031c.124-.033.245-.056.35-.13c.125-.087.268-.115.388-.207c.12-.097.254-.231.346-.314l.332-.295a.15.15 0 0 0 .046-.107a.032.032 0 0 0-.046-.032a.5.5 0 0 0-.18.134a.7.7 0 0 1-.138.125a2 2 0 0 0-.244.18a1 1 0 0 1-.268.143l-.545.216c-.004 0-.009.01 0 .019l-.074.032h-.045c-.019-.004-.024-.014 0-.023q.195-.122.392-.23a.3.3 0 0 0 .124-.084a.3.3 0 0 1 .134-.073c.065-.024.092-.065.148-.093c.138-.06.267-.11.401-.152a.1.1 0 0 0 .042-.032c.06-.074.092-.116.184-.162a.4.4 0 0 0 .116-.083q.187-.215.4-.41c-.008.032-.008.046.005.06a.08.08 0 0 0 .056.009a.1.1 0 0 0 .055-.028l.286-.314l.047-.074c.013-.055 0-.083-.047-.092c.272-.398.46-.847.554-1.32q.043-.118.05-.175l.065-.364a3 3 0 0 0 .033-.356c0-.207.032-.493-.06-.678a1 1 0 0 1-.083-.23a.7.7 0 0 1-.019-.157a.6.6 0 0 0-.023-.157a.4.4 0 0 1 0-.166a.3.3 0 0 0 .046.097c.028.05.093.082.12.143a.05.05 0 0 0 .037.036a.38.38 0 0 1 .208.157c.078.111.198.166.304.254a.06.06 0 0 0 .06.005a.07.07 0 0 0 .047-.07c.018.162.156.204.41.134a.1.1 0 0 0 .042-.032a.4.4 0 0 1 .106-.11a.3.3 0 0 0 .092-.13a.8.8 0 0 0 .028-.401a.06.06 0 0 0-.046-.047h-.023a.26.26 0 0 0-.176.217q-.014.062-.069.074a.1.1 0 0 1-.074-.014a.1.1 0 0 1-.046-.064l-.055-.268q-.009-.027-.037-.032a.16.16 0 0 0-.106.046c.023-.148.166-.134.253-.074q.027.016.046-.005c.033-.032.033-.064.01-.096c-.093-.125-.106-.282-.116-.471c-.009-.277.023-.55.047-.821c0-.065.023-.18.055-.236c.046-.073.032-.147.07-.226q.109-.236.378-.078c.013.01.023.032.018.074z"/><path fill="#fb8a4e" d="M15.955 11.445a.33.33 0 0 1 .06.161c.027.439.023.905-.014 1.408l-.07.027a.06.06 0 0 1-.046 0a.05.05 0 0 1-.023-.046a5 5 0 0 0-.11-.71a.1.1 0 0 0-.024-.046c-.046-.056-.087-.065-.115-.037a.1.1 0 0 0-.023.064c0 .056-.032.092-.083.097q-.008 0-.015-.002l-.013-.007a.04.04 0 0 1-.013-.023a4 4 0 0 1 0-.31a.24.24 0 0 1 .023-.11a.4.4 0 0 0 .055-.157a.76.76 0 0 1 .101-.355c.033-.051.083-.07.139-.046l.078.06a.2.2 0 0 0 .092.037z"/><path fill="#fdfdfd" d="m12.103 12.013l.276-.028q.007 0 .013.003l.01.007l.008.01l.002.013l.023.272l.01.018c.008.01.018.01.022.01l.268-.019a.03.03 0 0 1 .023.01l.01.018l.027.277l-.001.014l-.007.012l-.011.008l-.014.003l-.272.023l-.012-.003l-.01-.007a.03.03 0 0 1-.01-.022l-.018-.273q0-.011-.014-.023a.03.03 0 0 0-.023-.005l-.277.014c-.01 0-.019 0-.023-.009a.03.03 0 0 1-.014-.023l-.019-.263a.03.03 0 0 0-.032-.028l-.268.019l-.023-.005l-.01-.01l-.004-.013l-.023-.286a.03.03 0 0 1 .005-.023a.03.03 0 0 1 .023-.01l.277-.009c.01 0 .018 0 .023.01c.01 0 .01.009.014.018l.014.268l.004.014q.007.01.019.014h.014z"/><path fill="#743940" d="M14.575 13.037c-.023-.046-.023-.166-.009-.346q.002-.03.023-.051c.065-.074.11-.088.12-.203q.031-.339.056-.678a.1.1 0 0 1 .023-.023q.048-.027.083.009c.023.018.032.046.041.069c.028.138.032.281.019.415a1.2 1.2 0 0 0 0 .31c.037.22.046.438.046.645a.13.13 0 0 1-.042.093c-.05.069-.138.064-.207.027a.2.2 0 0 1-.07-.092z"/><path fill="#fdfdfd" d="m11.35 11.735l-.281.023l-.012.003l-.01.007a.03.03 0 0 0-.006.023l.023.281c0 .019.019.028.032.028l.282-.028c.018 0 .028-.014.028-.032l-.024-.277l-.002-.012l-.007-.01l-.01-.005zm-2.588.91l-.291.022c-.018 0-.028.014-.028.033l.023.263a.04.04 0 0 1-.018.037l-.014.004l-.281.028q-.028 0-.028-.028l-.018-.277a.03.03 0 0 0-.01-.018l-.008-.004h-.01l-.268.018c-.009 0-.023 0-.027-.01a.04.04 0 0 1-.014-.027l-.028-.263c0-.023-.014-.037-.037-.033l-.263.019c-.018 0-.032-.01-.032-.028l-.023-.277c0-.023.009-.032.032-.037l.254-.009q.04.001.046.037l.018.268c0 .009.005.018.014.014l.31-.019c.009 0 .009-.004.009-.014l-.019-.309v-.014l.019-.004l.295-.023q.014 0 .014.014l.027.281q.001.033.037.032l.254-.014c.01 0 .023 0 .028.01c.009.004.014.018.014.027zm2.948-.6l-.277.027a.03.03 0 0 0-.027.037l.023.268c0 .018.018.032.037.032l.272-.023c.018 0 .032-.019.027-.037l-.023-.268a.03.03 0 0 0-.032-.032z"/><path fill="#010000" d="m8.384 12.331l-.277.019l-.012.002l-.01.007a.03.03 0 0 0-.006.023l.023.286c0 .018.014.027.033.027l.276-.023c.014 0 .028-.013.028-.027l-.023-.29a.03.03 0 0 0-.011-.02l-.01-.004z"/><path fill="#fdfdfd" d="m12.07 12.35l-.272.024a.03.03 0 0 0-.023.032l.018.286c0 .014.019.028.032.028l.268-.024c.019 0 .032-.013.028-.032l-.019-.286a.03.03 0 0 0-.01-.021l-.01-.006z"/><path fill="#cd5540" d="m11.079 12.6l-.042.138c-.01.037 0 .06.032.083l-.161-.028a.07.07 0 0 1-.046-.032a.07.07 0 0 1-.014-.055v-.033q.019-.06.074-.046c.05.023.101.01.156-.027"/><path fill="#fdfdfd" d="m8.762 12.645l.305-.027a.03.03 0 0 1 .027.009a.04.04 0 0 1 .014.027l.019.263q0 .037-.028.037l-.272.019c-.023 0-.032-.01-.037-.033z"/><path fill="#cd5540" d="M10.059 14.795a.87.87 0 0 1-.554-.185q-.096-.068-.296-.046c.028-.046.047-.092.07-.148a.3.3 0 0 0 .027-.106a.34.34 0 0 1 .153-.203a.1.1 0 0 0 .041-.064l.07-.462c0-.013.013-.027.022-.037l.107-.078l.012-.014l.006-.018l.028-.536q.054-.006.046-.069q.06-.03.129-.032q.019 0 .032.014q.014.013.014.032q-.012.206-.004.41c0 .19-.042.37-.139.54a.4.4 0 0 0-.046.116c-.046.161-.046.203-.19.295a.07.07 0 0 0-.036.051l-.037.277a.05.05 0 0 0 .023.046a.7.7 0 0 0 .24.097c.037.009.05.023.083.041q.021.014.046.014a.3.3 0 0 1 .152.065"/><path fill="#e6704e" d="m9.74 12.898l-.023.536a.05.05 0 0 1-.019.032l-.106.078a.06.06 0 0 0-.023.042l-.07.457a.1.1 0 0 1-.04.064c-.07.046-.14.116-.153.203a.3.3 0 0 1-.028.106l-.069.148q-.257.283-.3.406a.7.7 0 0 0-.032.37c.028.142.194.138.304.165c.102.023.162.134.24.203c.102.093.162.194.277.277q.097.125.199.166c.189.079.369.19.586.194l-.148.005a.04.04 0 0 0-.037.027c-.014.033-.01.06.01.093a.2.2 0 0 0 .069.037c.064.013.129.037.193.046q.237.021.48.027c.134.005.25-.023.379-.046l.037-.023a.46.46 0 0 1 .35-.161c.014 0 .028 0 .037.009q.017.016.018.037q.013.111-.092.138a6 6 0 0 0-.461.12l-.106.046a.3.3 0 0 1-.102.042c-.277.046-.535.07-.784.083q-.14 0-.139.138l-.009.143c0 .093.046.139.134.148l.881.055h.008l.006.005v.018l-.01.014a.1.1 0 0 1-.06.042l-.368.087h-.614a1 1 0 0 0-.166.093a3 3 0 0 1-.23.184c-.12.083-.038.356-.02.485l-.142-.203c-.093-.13-.139-.268-.203-.415a1 1 0 0 1-.07-.203a7 7 0 0 0-.161-.568a1 1 0 0 1-.046-.198c-.028-.236-.17-.36-.319-.531a.4.4 0 0 1-.092-.185a.8.8 0 0 0-.147-.295a.3.3 0 0 1-.056-.134a2.7 2.7 0 0 0-.203-.701a.1.1 0 0 1-.01-.05c.01-.111 0-.213-.018-.31a1 1 0 0 1-.027-.24c0-.13 0-.258-.014-.388c-.014-.152 0-.295-.005-.452l1.214-.106c.037 0 .05-.023.046-.06l-.023-.249a.03.03 0 0 1 .018-.032h.01z"/><path fill="#fca471" d="M11.88 13.287a4 4 0 0 1 .517-.01c.12.005.25.172.332.255a.13.13 0 0 1 .033.069q-.002.034-.023.069c-.11.134-.217.272-.416.268l-.369-.005c-.221-.01-.29-.12-.452-.254a.1.1 0 0 1-.031-.069a.1.1 0 0 1 .031-.07c.106-.096.23-.24.379-.253"/><path fill="#fb8a4e" d="m15.148 14.01l.046-.632c.037-.027.074-.046.106-.041c.018 0 .032.014.037.032l.06.268q.005.039.046.064a.1.1 0 0 0 .07.014q.055-.013.068-.074a.26.26 0 0 1 .176-.212l.023-.005l.023.005a.05.05 0 0 1 .023.041a.84.84 0 0 1-.028.402a.3.3 0 0 1-.092.13a.6.6 0 0 0-.106.11a.08.08 0 0 1-.046.032c-.25.07-.388.028-.406-.134"/><path fill="#241618" d="M8.23 13.364c0 .157-.008.3 0 .452q.028.195.02.388q0 .124.027.24c.019.097.028.198.019.31c0 .013 0 .031.009.045c.097.231.166.462.203.706a.26.26 0 0 0 .055.134a.8.8 0 0 1 .143.295q.027.104.097.185c.148.17.29.295.323.53a.7.7 0 0 0 .042.199q.091.277.161.567c.019.074.042.139.07.204c.064.147.11.286.202.415l.143.207c.18.282.416.462.72.531a2.5 2.5 0 0 0 1.047 0l.07-.032q.034.002.138-.037c.18-.074.356-.12.53-.148c.056-.01.06 0 .024.046a.6.6 0 0 1-.29.157a.4.4 0 0 0-.167.074a.03.03 0 0 0-.01.012a.03.03 0 0 0-.004.016c0 .018 0 .032-.013.046q-.013.026-.037.018a2.5 2.5 0 0 1-.799.07a3 3 0 0 0-.392-.024c-.138 0-.286-.018-.429-.014c-.014 0-.032 0-.046-.009l-.24-.157a.083.083 0 0 0-.11.028a.1.1 0 0 0-.015.037a.3.3 0 0 0 .019.143c.009.028 0 .037-.028.037h-.041a.06.06 0 0 1-.047-.018a.2.2 0 0 0-.06-.047a.1.1 0 0 1-.037-.032a.8.8 0 0 0-.161-.175a.1.1 0 0 1-.032-.051c-.023-.092-.083-.166-.12-.258a1.3 1.3 0 0 0-.171-.296l-.36-.766l-.023-.207c-.023-.185-.092-.37-.148-.54c-.06-.198-.064-.415-.106-.623a.6.6 0 0 0-.064-.175a2 2 0 0 1-.074-.171l-.046-.24a.62.62 0 0 0-.074-.378a9.4 9.4 0 0 1-.139-1.67z"/><path fill="#fca471" d="M10.035 13.42a.04.04 0 0 1 .012-.016a.04.04 0 0 1 .037-.005a.04.04 0 0 1 .016.012c.032.056.032.11.046.175c.037.18.092.748-.19.785l-.11.023a.1.1 0 0 1-.092-.023a.1.1 0 0 1-.032-.092l.032-.152a.35.35 0 0 1 .134-.218a.1.1 0 0 0 .027-.04a1.2 1.2 0 0 0 .07-.245l.046-.203z"/><path fill="#d8c5a9" d="m17.112 14.772l-.046.406a.05.05 0 0 1-.014.032l-.027.027a.1.1 0 0 0-.028.037a.34.34 0 0 1-.152.157a.09.09 0 0 1-.111-.023q-.126-.172-.37-.138q-.068.015-.11-.074a15 15 0 0 1 .019-1.693a.15.15 0 0 1 .046-.074q.02-.016.041.004c.046.056.079.111.116.167c.055.092.152.12.212.207q.104.152.207.332c.065.116.139.323.217.633"/><path fill="#743940" d="m15.969 13.439l-.014.249c0 .018 0 .037.01.05a.4.4 0 0 1 .046.153c.023.272.032.507.018.715a1.6 1.6 0 0 0-.005.268c.014.272-.009.553-.027.825c-.014.263-.116.513-.153.776a.5.5 0 0 1-.055.212a2 2 0 0 0-.152.369c.018-.152.009-.29-.023-.425a.09.09 0 0 0-.056-.06a.09.09 0 0 0-.079.014a.36.36 0 0 0-.119.199c-.037.175-.157.263-.208.429c-.032.12-.203.438-.332.48a.06.06 0 0 1-.055-.01a.06.06 0 0 1-.023-.046a.73.73 0 0 1 .101-.406c.074-.12.106-.249.176-.373c.027-.047.046-.102.064-.153l.194-.586c.06-.161.083-.346.092-.512l.033-.798c.004-.198.11-.475.258-.632q.185-.188.184-.508c0-.032.019-.06.046-.074a.05.05 0 0 0 .028-.028l.056-.129z"/><path fill="#fca471" d="m9.015 13.489l-.249-.014a.09.09 0 0 0-.092.092l-.014.277c0 .046.037.093.088.093l.244.013a.09.09 0 0 0 .093-.092l.018-.277a.09.09 0 0 0-.092-.092z"/><path fill="#cd5540" d="M11.788 14.38a.7.7 0 0 0-.3.018a.07.07 0 0 0-.041.028a.3.3 0 0 1-.18.138c-.139.037-.199.083-.3.152a.46.46 0 0 1-.199.074l.462-.438a.1.1 0 0 0 .027-.055a.85.85 0 0 0-.013-.374a.05.05 0 0 1 .03-.061q.012-.006.025-.004h.032a.11.11 0 0 1 .097.07c.037.069.046.138.102.193c.078.093.166.176.258.259"/><path fill="#241618" d="M11.789 14.38c.433.143.747.415.945.807c.065.125.047.24-.064.337a10 10 0 0 1-.48.415c-.07-.009-.092-.032-.083-.073a.2.2 0 0 1 .074-.097l.106-.056c.06-.027.083-.078.078-.147a.08.08 0 0 0-.074-.074a10 10 0 0 0-.913.014a.1.1 0 0 0-.046.018l-.208.152l-.734.046l-.249.014a1 1 0 0 0-.313-.004a.07.07 0 0 0-.042.018a.07.07 0 0 0-.018.046c0 .023.009.046.037.065c-.033.092-.07.138-.102.124c-.12-.083-.18-.184-.277-.276c-.083-.07-.138-.18-.244-.203c-.111-.033-.277-.024-.305-.171a.7.7 0 0 1 .032-.37q.044-.117.3-.4c.134-.014.231 0 .3.046q.264.195.55.184q.351.046.71-.005a.46.46 0 0 0 .198-.073c.102-.07.162-.116.3-.153a.33.33 0 0 0 .185-.138a.07.07 0 0 1 .037-.028a.65.65 0 0 1 .3-.018"/><path fill="#743940" d="M12.048 14.794c.143.028.24.093.29.185q.05.088 0 .217c0 .018-.018.027-.037.023c-.046 0-.092.027-.138.032q-.195.016-.263-.184a.1.1 0 0 0-.032-.046l-.323-.245a.14.14 0 0 1-.056-.074q-.029-.084.06-.106q.21-.061.342.078l.115.097q.02.018.046.023z"/><path fill="#b39976" d="M17.14 15.705a23 23 0 0 0-.189 1.028a3 3 0 0 0-.05.337c-.023.213-.116.457-.268.739l-.12.064q-.26.165-.466.388c-.166.18-.286.3-.443.434q-.261.222-.53.064l.244-.23a.14.14 0 0 0 .028-.047l.138-.263c.097-.152.148-.304.222-.461c.083-.162.092-.337.161-.503c.06-.148.106-.305.13-.461a4 4 0 0 1 .092-.388c.12-.383.17-.785.166-1.209q.04.089.115.074a.37.37 0 0 1 .37.138a.09.09 0 0 0 .105.023a.34.34 0 0 0 .152-.157a.1.1 0 0 1 .028-.037l.028-.027a.05.05 0 0 0 .018-.033l.042-.405v-.051h.01z"/><path fill="#e35e74" d="M8.148 15.056a.6.6 0 0 1 .07.379c-.028-.046-.07-.06-.116-.042c-.11.042-.083.17-.162.245l-.092.074a.1.1 0 0 0-.028.046c-.05.166-.009.346-.013.489l-.047-.47a.1.1 0 0 0-.023-.047a.074.074 0 0 1-.027-.083a.6.6 0 0 1 .097-.203c.046-.065.046-.139.046-.212q-.002-.028.018-.056c.074-.106.166-.143.277-.12"/><path fill="#cd5540" d="M10.321 15.137q.204.138.443.203a.05.05 0 0 1 .014.041l-.005.019a.1.1 0 0 1-.069.05a1.4 1.4 0 0 1-.665-.046a.05.05 0 0 1-.013-.046l.014-.023l.184-.194q.049-.042.097-.009z"/><path fill="#d8c5a9" d="m8.218 15.436l.05.24c0 .138.014.461-.184.48c-.07.009-.106.046-.11.12c0 .027-.015.046-.033.064q-.046.034-.106 0q.014-.006 0-.018c-.01-.01-.014-.01-.019.009l-.004.106l-.005-.19c.005-.137-.037-.322.014-.493a.1.1 0 0 1 .032-.046l.088-.07c.078-.073.05-.202.161-.244c.046-.018.088 0 .116.046z"/><path fill="#241618" d="M15.6 19.548c-.129.064-.226.166-.35.23c-.107.05-.213.115-.314.185c-.06.046-.13.05-.203.064a.2.2 0 0 0-.079.028a2 2 0 0 1-.424.221l-.23.116a.5.5 0 0 1-.195.06a.7.7 0 0 0-.184.055a7 7 0 0 1-.6.258c-.07.024-.13.02-.194.047a2.2 2.2 0 0 1-1.015.184a1.5 1.5 0 0 1-.42-.097a5 5 0 0 1-.433-.194l-.356-.202a1.8 1.8 0 0 1-.332-.236q-.485-.443-.761-.733a8 8 0 0 0-.439-.43a3.5 3.5 0 0 1-.489-.572a.7.7 0 0 0-.11-.12a.4.4 0 0 1-.097-.138a1 1 0 0 0-.074-.134l-.065-.12a.6.6 0 0 0-.12-.17a.07.07 0 0 1-.018-.042a.73.73 0 0 0-.166-.397v-.018h.018a.15.15 0 0 0 .06.06q.041.02.07.055q.029.043.036.092c0 .046.023.079.051.106c.065.056.115.13.12.208q-.001.062.06.097q.021.015.032.037c.06.124.139.235.25.337q.108.117.212.249c.083.097.152.184.216.244l.956.96q.31.311.516.43q.154.088.328.211c.134.093.258.12.401.176c.314.124.651.147.992.124a.7.7 0 0 0 .3-.078a1.5 1.5 0 0 1 .296-.106q.361-.084.563-.19a1.35 1.35 0 0 0 .558-.184a10 10 0 0 1 .673-.35q.483-.148.836-.42q.361-.277.715-.72c.134-.166.23-.365.323-.554c.027-.05.046-.115.069-.185l.046-.184q.237-.425.272-.738q.027-.274.093-.54c.046-.277.092-.554.147-.83a.5.5 0 0 1 .06-.277l.011-.009a.03.03 0 0 1 .026.003l.01.01q.062.189.041.383c-.019.23-.046.461-.07.687l-.032.139c-.018.055-.023.125-.046.17a.9.9 0 0 0-.069.264q-.027.262-.157.526a.5.5 0 0 0-.046.147a.7.7 0 0 1-.046.162l-.221.498c-.06.116-.134.23-.231.332c-.245.286-.448.54-.77.813"/><path fill="#572624" d="M12.186 15.935c-.245.13-.508.236-.803.323c-.305.088-.6.116-.9.093c-.217-.01-.397-.12-.586-.199a.46.46 0 0 1-.194-.166c.033.01.07-.032.102-.125a.65.65 0 0 0 .337.056a.05.05 0 0 0 .041-.028c.023-.046.01-.101-.041-.157l.249-.009c-.046.12-.014.185.106.198q.335.034.655-.023a.115.115 0 0 0 .092-.115q0-.111-.12-.106l.208-.152a.1.1 0 0 1 .046-.019c.29-.018.59-.023.914-.014q.029.002.05.023a.07.07 0 0 1 .024.051c.004.07-.019.12-.079.148l-.106.055a.2.2 0 0 0-.074.092q-.02.07.083.074z"/><path fill="#b39976" d="m8.268 15.676l.074.17a.6.6 0 0 1 .065.176c.041.212.046.424.106.623c.05.175.124.355.148.54l.023.207c.041.194.046.332.023.416c-.051.152-.263.166-.342.036c-.018-.032-.046-.06-.069-.092a2 2 0 0 1-.097-.12l-.092-.268c-.046-.11-.083-.198-.102-.262c-.069-.222-.138-.443-.193-.665l.004-.106c0-.018.01-.018.023-.01c.005.01 0 .015-.004.015v.004c.041.023.073.023.106 0a.08.08 0 0 0 .032-.064c0-.074.046-.111.115-.12c.194-.019.185-.342.18-.48"/><path fill="#743940" d="M11.124 15.676c.079 0 .12.032.12.106q-.001.043-.023.078a.12.12 0 0 1-.07.042a2.4 2.4 0 0 1-.654.018c-.12-.009-.157-.078-.106-.198l.738-.046z"/><path fill="#e6704e" d="M14.39 16.152c.115-.134.106-.305.208-.434a.06.06 0 0 1 .05-.019q.017.005.028.017a.05.05 0 0 1 .014.03q.061.29.019.636c-.024.176-.167.314-.287.416a.07.07 0 0 1-.074.014c-.064-.028-.092-.079-.073-.153q.034-.173.046-.341a.27.27 0 0 1 .07-.166"/><path fill="#d8c5a9" d="M10.142 15.736c.046.05.064.102.041.152a.05.05 0 0 1-.041.028a.6.6 0 0 1-.337-.055q-.043-.028-.037-.07c0-.013.01-.027.018-.041a.07.07 0 0 1 .042-.018a.9.9 0 0 1 .314 0z"/><path fill="#743940" d="M13.81 16.996q.068.001.045.092a.2.2 0 0 1-.046.07a6 6 0 0 0-.286.313a.1.1 0 0 1-.055.028a.08.08 0 0 1-.056-.01q-.018-.011-.004-.06z"/><path fill="#8a6e4c" d="m8.683 17.396l.36.761c.042.116.092.227.152.323q.127.209.217.434a.12.12 0 0 0 .074.083q.022.014.037.042a.3.3 0 0 0 .065.097l.3.29c.17.176.327.337.53.471c.092.06.185.13.272.194c.07.055.153.092.231.138c.13.083.282.11.425.162c.12.046.198.152.327.161h.466c.106-.009.176-.046.268-.092c.06-.023.129-.046.203-.06q.274-.06.535-.198q-.083.096-.014.18q.013.02.046.022h.231a2.4 2.4 0 0 1-.563.185c-.092.023-.184.06-.295.11a.8.8 0 0 1-.3.08c-.341.022-.678 0-.992-.125c-.138-.056-.268-.083-.402-.176c-.115-.083-.23-.152-.327-.212q-.207-.117-.517-.429l-.955-.96a3 3 0 0 1-.217-.244a4 4 0 0 0-.212-.25c-.07-.1-.148-.184-.199-.295l-.23-.457l.097.12l.069.093c.078.129.29.115.341-.042c.023-.078.019-.217-.023-.41z"/><path fill="#fca471" d="M10.769 17.476c.065.023.088.055.07.106a.17.17 0 0 1-.065.078c-.157.102-.245.31-.476.235c-.069-.018-.12-.078-.143-.17a.4.4 0 0 1 .005-.25z"/><path fill="#8a6e4c" d="M16.634 17.813c-.023.06-.037.124-.051.184a1 1 0 0 1-.07.185c-.091.184-.188.383-.322.549q-.316.401-.715.72a2.5 2.5 0 0 1-.836.42q.062-.16.254-.443c.065-.097.046-.185-.046-.273a.06.06 0 0 0-.046-.014a.4.4 0 0 0-.185.093c.093-.093.167-.185.226-.296l.231-.184q.27.166.53-.06c.158-.138.278-.254.444-.434q.256-.273.586-.452z"/><path fill="#743940" d="M14.516 18.999a.08.08 0 0 1-.033.055a.3.3 0 0 0-.046.032a.13.13 0 0 0-.023.093c0 .027.019.037.046.032c.023-.01.046-.023.056-.046a.05.05 0 0 1 .037-.028c.064-.004.106-.023.124-.046a1.3 1.3 0 0 1 .166-.152q-.088.165-.226.29q-.165.152-.332.323a.8.8 0 0 1-.138.12c-.139.093-.259.176-.416.24c-.133.056-.249.153-.392.208l-.194.083c-.175.092-.35.157-.535.198q-.105.023-.203.065c-.092.037-.161.078-.268.083a4 4 0 0 1-.46 0c-.135 0-.213-.11-.328-.157c-.148-.046-.3-.078-.434-.161c-.074-.046-.157-.083-.23-.139c-.089-.064-.176-.133-.269-.193a3.4 3.4 0 0 1-.53-.471l-.3-.29a.3.3 0 0 1-.065-.098a.08.08 0 0 0-.037-.041a.13.13 0 0 1-.073-.088l-.217-.429a2 2 0 0 1-.153-.323q.11.138.171.295c.037.093.097.162.12.254a.2.2 0 0 0 .032.056c.065.046.116.11.162.175a.1.1 0 0 0 .037.027l.064.051q.014.02.047.019h.037q.04.002.027-.037a.3.3 0 0 1-.018-.139a.08.08 0 0 1 .046-.073a.1.1 0 0 1 .078.004l.24.157c.014.01.032.014.046.01c.143-.005.286.013.43.013q.171-.001.392.019c.28.02.563-.008.835-.083a.1.1 0 0 0 .018-.047l.003-.012l.007-.01a.4.4 0 0 1 .166-.08a.55.55 0 0 0 .29-.16c.037-.037.033-.051-.023-.047c-.175.033-.35.079-.526.152a.4.4 0 0 1-.138.038c-.01-.01-.005-.014 0-.02l.544-.216c.111-.041.203-.092.268-.143a3 3 0 0 1 .245-.184a.7.7 0 0 0 .138-.12a.54.54 0 0 1 .192-.139l.014.001l.012.007l.008.01v.019a.14.14 0 0 1-.046.106l-.332.296c-.093.078-.227.216-.346.313c-.12.093-.263.12-.388.208c-.106.074-.226.092-.35.13a.11.11 0 0 0-.074.083a.11.11 0 0 0 .036.1c.07.056.176.084.328.079c.037 0 .055.014.065.046l-.005.037a.09.09 0 0 1-.078.06a3 3 0 0 1-.259.028c-.11.009-.106.129-.055.198c.11.157.258.245.429.263c.507.05.983-.138 1.476-.3c.19-.064.347-.175.536-.24c.258-.092.373-.23.572-.364"/><path fill="#743940" d="M13.412 18.436c-.06.069-.106.138-.17.203a1.9 1.9 0 0 1-.494.346a1 1 0 0 0-.198.12c-.097.078-.231.115-.393.12q-.06 0-.032-.056c.046-.083.157-.092.23-.12c.125-.037.231-.138.342-.207c.083-.046.125-.139.212-.185c.157-.092.291-.18.393-.277c.027-.018.055-.041.087-.055q.034-.013.046.023c0 .032 0 .065-.023.088m.665.313c-.079.079-.13.157-.111.176c.014.014.092-.037.166-.12c.079-.083.13-.162.11-.176c-.013-.018-.091.037-.165.12"/><path fill="#b39976" d="M14.64 19.87a10 10 0 0 0-.674.35q-.275.162-.558.185h-.23a.06.06 0 0 1-.047-.023q-.069-.082.014-.18l.194-.083c.138-.055.258-.152.397-.208a2.2 2.2 0 0 0 .41-.24a1 1 0 0 0 .139-.12q.165-.171.332-.323a.45.45 0 0 1 .185-.087c.014 0 .032 0 .046.014q.14.125.046.272a2.3 2.3 0 0 0-.254.443"/></g></svg>