<svg xmlns="http://www.w3.org/2000/svg" viewBox="0 0 24 24"><g fill="none"><path fill="url(#SVGqbXxadRk)" d="m16.74 16.083l-.281-.292a5.866 5.866 0 0 0-3.272-9.482a5.82 5.82 0 0 0-5.94 2.314a5.86 5.86 0 0 0 2.154 8.65a5.82 5.82 0 0 0 6.327-.751l.254.249l1.625 1.63l.726-.725l-1.594-1.599zm-1.356-.636a4.803 4.803 0 0 1-8.005-2.012a4.84 4.84 0 0 1 2.334-5.654a4.797 4.797 0 0 1 7.08 4.251c0 1.281-.504 2.51-1.41 3.415"/><path fill="url(#SVG9S7iTcci)" d="m18.37 17.639l-.73.73l-1.631-1.63l.762-.7z"/><path fill="#01fdfe" d="M16.85 4.408A9.05 9.05 0 0 0 5.625 5.626A9.054 9.054 0 0 0 4.79 17.4l.82-.62a8 8 0 0 1-.603-.932a8.02 8.02 0 0 1 7.01-11.817c1.456 0 2.912.392 4.182 1.186a1.96 1.96 0 0 0 2.584 2.578a8 8 0 0 0-.402-.582l.82-.62q.206.27.387.556a1.96 1.96 0 0 0-2.743-2.742zm1.816 2.245a.937.937 0 1 1-1.39-1.257a.937.937 0 0 1 1.39 1.257"/><path fill="#01fdfe" d="M18.385 7.214a7.98 7.98 0 0 1 1.552 5.549A8.047 8.047 0 0 1 12 19.947c-1.456 0-2.901-.349-4.204-1.164a1.959 1.959 0 1 0-.645.804A9.006 9.006 0 0 0 19.2 6.595l-.821.62zM6.658 18.666a.936.936 0 1 1-1.323-1.323a.936.936 0 0 1 1.323 1.323"/><path fill="#01fdfe" d="M9.353 9.559c0-.127.042-.254.116-.366a.8.8 0 0 1 .297-.264a.9.9 0 0 1 .815-.01l.556.29l4.161 2.16a.8.8 0 0 1 .297.265a.68.68 0 0 1 0 .741a.8.8 0 0 1-.297.265l-3.346 1.731l-.815.424l-.556.286a1 1 0 0 1-.265.085l-.143.015a.9.9 0 0 1-.582-.211a.74.74 0 0 1-.238-.525z"/><defs><linearGradient id="SVGqbXxadRk" x1="25.396" x2="3.379" y1="25.516" y2="3.303" gradientUnits="userSpaceOnUse"><stop stop-color="#8e40a3"/><stop offset=".65" stop-color="#30bee0"/><stop offset="1" stop-color="#01fdfe"/></linearGradient><linearGradient id="SVG9S7iTcci" x1="16.359" x2="6.147" y1="15.886" y2="6.78" gradientUnits="userSpaceOnUse"><stop stop-color="#2284c6"/><stop offset="1" stop-color="#2284c6" stop-opacity="0"/></linearGradient></defs></g></svg>