<svg xmlns="http://www.w3.org/2000/svg" viewBox="0 0 24 24"><g fill="none"><path fill="url(#SVGqTUoocfR)" fill-rule="evenodd" d="M12 3.562a8.437 8.437 0 1 1-6.806 3.454a1.682 1.682 0 0 0 2.869-1.204a1.687 1.687 0 1 0-3.212.72A9 9 0 1 0 12.001 3zM6.375 6.937a1.125 1.125 0 1 0 0-2.25a1.125 1.125 0 0 0 0 2.25m5.625 9a3.937 3.937 0 1 0 0-7.874a3.937 3.937 0 0 0 0 7.874" clip-rule="evenodd"/><defs><linearGradient id="SVGqTUoocfR" x1="12" x2="12" y1="3" y2="21" gradientUnits="userSpaceOnUse"><stop stop-color="#e92121"/><stop offset="1" stop-color="#9c0403"/></linearGradient></defs></g></svg>