<svg version="1.1" viewBox="0 0 128 128" xml:space="preserve" xmlns="http://www.w3.org/2000/svg">
<style type="text/css">
	.st0{fill:#F29111;}
	.st1{fill:#00758A;}
</style>

<g transform="matrix(.41237 0 0 .41237 -18.373 -18.373)" stroke-linecap="round" stroke-linejoin="round"><path d="m184.6 112.35c-44.398-1.8e-4 -80.39 29.794-80.389 66.545 2.6e-4 1.5169 0.0639 3.0335 0.18945 4.5468h-5.281c-23.511 0-42.437 17.699-42.437 39.681 0 21.982 18.926 39.676 42.437 39.676h117.61v-12.168h-117.61c-17.406 0-30.27-12.511-30.27-27.508-1e-6 -14.997 12.864-27.513 30.27-27.513h5.281c7.117 1e-3 12.716-6.0788 12.13-13.172-0.0982-1.1836-0.15136-2.3649-0.15156-3.5428 1e-3 -28.806 29.273-54.378 68.227-54.378 26.582 1e-4 50.369 12.638 61.402 30.772 2.7388 4.5008 8.0629 6.7279 13.191 5.5178 3.2522-0.76815 6.5838-1.1555 9.9273-1.1557 14.496 1.3e-4 27.659 7.1766 35.475 18.656l9.3684-7.8291c-10.134-14.183-26.727-22.995-44.843-22.995-4.2853 1.5e-4 -8.5529 0.49783-12.722 1.4825-13.658-22.45-41.436-36.616-71.802-36.616z" fill="#fff" stroke-width="5.0558"/><g fill="#e96645"><path d="m232.49 190.05c-2.0152 0-3.6375 1.6223-3.6375 3.6375v31.525c0 2.0152 1.6223 3.6375 3.6375 3.6375h113.97c2.0152 0 3.6375-1.6223 3.6375-3.6375v-31.525c0-2.0152-1.6223-3.6375-3.6375-3.6375zm6.0625 9.7h101.85v19.4h-101.85z" stroke-width="18.331"/><rect x="248.25" y="207.03" width="50.925" height="4.85" ry="1.2125" stroke-width="13.282"/><rect x="323.43" y="207.03" width="7.275" height="4.85" ry="1.2125" stroke-width="5.02"/><path d="m232.49 219.15c-2.0152 0-3.6375 1.6223-3.6375 3.6375v31.525c0 2.0152 1.6223 3.6375 3.6375 3.6375h113.97c2.0152 0 3.6375-1.6223 3.6375-3.6375v-31.525c0-2.0152-1.6223-3.6375-3.6375-3.6375zm6.0625 9.7h101.85v19.4h-101.85z" stroke-width="18.331"/><rect x="248.25" y="236.13" width="50.925" height="4.85" ry="1.2125" stroke-width="13.282"/><rect x="323.43" y="236.13" width="7.275" height="4.85" ry="1.2125" stroke-width="5.02"/><path d="m232.49 248.25c-2.0152 0-3.6375 1.6223-3.6375 3.6375v31.525c0 2.0152 1.6223 3.6375 3.6375 3.6375h113.97c2.0152 0 3.6375-1.6223 3.6375-3.6375v-31.525c0-2.0152-1.6223-3.6375-3.6375-3.6375zm6.0625 9.7h101.85v19.4h-101.85z" stroke-width="18.331"/><rect x="248.25" y="265.23" width="50.925" height="4.85" ry="1.2125" stroke-width="13.282"/><rect x="323.43" y="265.23" width="7.275" height="4.85" ry="1.2125" stroke-width="5.02"/></g></g></svg>
