<svg xmlns="http://www.w3.org/2000/svg" viewBox="0 0 24 24"><g fill="none"><path fill="url(#SVGqLZcVdGJ)" d="M8.528 4.3a.29.29 0 0 1-.01-.393a2.624 2.624 0 0 1 3.852-.127l1.99 1.975a4.164 4.164 0 0 1 .047 5.789l-2.539 2.638l2.643 2.733a2.91 2.91 0 0 1 .01 4.003a.26.26 0 0 1-.293.06a.3.3 0 0 1-.086-.06l-3.785-3.827a4.164 4.164 0 0 1 .01-5.808l2.52-2.534l-4.359-4.453z"/><path fill="url(#SVGsW3CXbUP)" d="m11.196 10.444l1.686-1.696a3.08 3.08 0 0 1 .422 3.941l-1.436 1.488c-.54-.545-1.535-1.848-.7-3.667z"/><defs><linearGradient id="SVGqLZcVdGJ" x1="15.961" x2="10.527" y1="10.284" y2="10.284" gradientUnits="userSpaceOnUse"><stop stop-color="#fe8664"/><stop offset="1" stop-color="#ff3b56"/></linearGradient><linearGradient id="SVGsW3CXbUP" x1="13.625" x2="11.171" y1="9.89" y2="13.447" gradientUnits="userSpaceOnUse"><stop stop-color="#ab3e55"/><stop offset=".51" stop-color="#bd4551"/><stop offset="1" stop-color="#ab3e55"/></linearGradient></defs></g></svg>