<svg version="1.1" viewBox="0 0 128 128" xmlns="http://www.w3.org/2000/svg">
 <title>Rygel Icon</title>
 <path d="m14 4c-5.5198 0-9.9676 4.4276-10 9.9395-1.188e-4 0.020204 0 0.040314 0 0.060547v29.73c0.7271 0.0676 1.459 0.09169 2.1855 0.08789 0.77676-0.004279 1.5454-0.051541 2.3105-0.13867 0.76487-0.08704 1.5182-0.20626 2.2598-0.375 0.74154-0.1689 1.4791-0.37913 2.1855-0.62891 0.70649-0.24978 1.3871-0.53763 2.0469-0.86719 0.65972-0.32973 1.2951-0.69482 1.8965-1.1035l-0.039063 0.074219c0.61095-0.43458 1.267-0.83136 1.9219-1.1934 0.65501-0.36214 1.3179-0.68117 2.0098-0.9668 0.69195-0.28554 1.3993-0.53519 2.1211-0.74024 0.7218-0.20508 1.4527-0.35594 2.1973-0.47656 0.74467-0.12066 1.513-0.20626 2.2734-0.23828 0.76039-0.03208 1.5161-0.02319 2.2852 0.03711 0.7691 0.06021 1.5398 0.1694 2.3105 0.32617 0.77076 0.15667 1.5334 0.35804 2.2988 0.61523 0.6332 0.2127 1.2617 0.45862 1.8574 0.72852 0.59551 0.26999 1.1648 0.56953 1.7207 0.89258 1.1119 0.6461 2.1488 1.3871 3.0898 2.2207 0.94108 0.83376 1.795 1.7635 2.5488 2.752 0.75403 0.98837 1.4083 2.0403 1.959 3.1504 0.55055 1.11 0.98739 2.2798 1.3184 3.4785 0.33092 1.1987 0.54558 2.4254 0.64063 3.6797 0.095087 1.2544 0.080809 2.5276-0.076172 3.8047-0.078628 0.63854-0.18138 1.284-0.32617 1.9219-0.14457 0.63814-0.33981 1.275-0.55274 1.9082-0.2127 0.63324-0.44491 1.25-0.71484 1.8457-0.26987 0.59571-0.58152 1.1646-0.9043 1.7207-0.64565 1.1124-1.3899 2.1458-2.2227 3.0879-0.83297 0.94193-1.7508 1.7957-2.7383 2.5508-0.9873 0.75506-2.0435 1.4072-3.1523 1.959-1.1089 0.5518-2.2673 0.99794-3.4648 1.3301-1.1976 0.33206-2.4381 0.55629-3.6914 0.65234-1.2534 0.096051-2.5166 0.068677-3.793-0.087891-0.63815-0.078249-1.2842-0.19351-1.9219-0.33789-0.63771-0.14449-1.2748-0.3284-1.9082-0.54102-0.76528-0.25713-1.4883-0.54995-2.1973-0.89062-0.70891-0.34064-1.3976-0.72565-2.0469-1.1426-0.64936-0.41671-1.2592-0.8583-1.8457-1.3438-0.58655-0.4854-1.1495-1.0099-1.6699-1.5566-0.52049-0.54669-1.0058-1.1201-1.457-1.7207-0.45121-0.60045-0.86551-1.2243-1.2441-1.8711-0.37869-0.64687-0.71282-1.3102-1.0156-1.9961-0.30307-0.6857-0.58084-1.392-0.80469-2.1094l-0.037109 0.099609c-0.23191-0.69077-0.50239-1.357-0.82812-2.0215-0.32577-0.6645-0.69451-1.3291-1.1055-1.959-0.41098-0.62987-0.86978-1.2469-1.3574-1.834-0.48762-0.58704-1.0125-1.1337-1.5684-1.6699-0.24592-0.23715-0.49726-0.47519-0.75391-0.70312v59.859c0 5.54 4.46 10 10 10h19.566l0.23242-0.68164-0.039062-0.01367 0.0625-0.1875c0.24242-0.74409 0.43482-1.5068 0.5918-2.2734 0.15683-0.76659 0.27955-1.545 0.35156-2.3223 0.07175-0.77741 0.099961-1.5594 0.087891-2.3359-0.011531-0.77669-0.069853-1.5464-0.16406-2.3106-0.09402-0.7641-0.22667-1.5082-0.40234-2.248-0.1756-0.73997-0.3844-1.4793-0.64062-2.1836-0.2562-0.70413-0.54319-1.3902-0.87891-2.0469-0.33576-0.65667-0.72829-1.2735-1.1426-1.8711l0.087891 0.02539c-0.4402-0.60696-0.84883-1.2449-1.2168-1.8965-0.36815-0.65154-0.68854-1.3205-0.98047-2.0098-0.29184-0.68925-0.55398-1.3895-0.76562-2.1094-0.21163-0.71991-0.37461-1.4537-0.50195-2.1973-0.12748-0.74352-0.21298-1.5133-0.25195-2.2734-0.03904-0.76006-0.02801-1.5156 0.02539-2.2852 0.053187-0.76962 0.15113-1.5501 0.30078-2.3223 0.14961-0.7721 0.3418-1.5313 0.5918-2.2988 0.20695-0.63519 0.45028-1.2613 0.71484-1.8594 0.26449-0.59795 0.54916-1.1736 0.86719-1.7324 0.63582-1.1177 1.3722-2.1528 2.1973-3.1016 0.82509-0.94864 1.743-1.8112 2.7246-2.5742 0.98131-0.76294 2.0337-1.4236 3.1387-1.9844 1.105-0.56069 2.2712-1.0135 3.4668-1.3555 1.1957-0.3419 2.4262-0.57112 3.6797-0.67773 1.2534-0.10662 2.5126-0.096553 3.791 0.048828 0.63923 0.072705 1.2827 0.17575 1.9219 0.31445 0.63936 0.13882 1.2866 0.32027 1.9219 0.52734 0.63514 0.20691 1.2593 0.42691 1.8574 0.69141 0.59818 0.2644 1.1733 0.57301 1.7324 0.89062 1.1182 0.63546 2.1519 1.373 3.1016 2.1973 0.94947 0.82427 1.8101 1.7325 2.5742 2.7129 0.76408 0.98037 1.4224 2.0234 1.9844 3.127 0.56192 1.1038 1.0144 2.2586 1.3574 3.4531 0.34305 1.1945 0.58204 2.4389 0.68945 3.6914 0.10765 1.2524 0.094218 2.5152-0.050782 3.793-0.072363 0.63887-0.1738 1.283-0.3125 1.9219-0.13864 0.63912-0.32038 1.2848-0.52734 1.9199-0.25006 0.76763-0.54477 1.4989-0.87891 2.2109-0.33416 0.71201-0.70834 1.3938-1.1191 2.0469-0.41084 0.65308-0.84993 1.2802-1.3301 1.8711-0.47998 0.591-0.98939 1.1444-1.5312 1.6699-0.54202 0.52543-1.1126 1.0258-1.709 1.4824-0.59637 0.45671-1.2278 0.87141-1.8711 1.2559-0.64338 0.38464-1.3014 0.73189-1.9844 1.041-0.683 0.30926-1.3942 0.58594-2.1094 0.81641l0.11328 0.03711c-0.68862 0.23821-1.36 0.50988-2.0215 0.8418-0.66149 0.33178-1.3075 0.71423-1.9336 1.1309-0.62607 0.41676-1.2376 0.87618-1.8203 1.3691-0.58254 0.49302-1.139 1.0332-1.6699 1.5938-0.53091 0.56055-1.0368 1.1384-1.5078 1.7578-0.47105 0.61951-0.90364 1.2776-1.3066 1.9473-0.403 0.66965-0.77668 1.3611-1.1035 2.0723-0.10541 0.22944-0.20595 0.46007-0.30078 0.69336h72.34c5.54 0 10-4.46 10-10v-24.213c-3.1701-0.022571-6.4945-0.15145-10.326-0.88867l-0.01172 0.039062-0.1875-0.0625c-0.74187-0.24922-1.5083-0.45332-2.2734-0.61719-0.76513-0.16374-1.5338-0.28411-2.3106-0.36328-0.77672-0.07916-1.5593-0.11758-2.3359-0.11328-0.77675 0.004273-1.5456 0.051502-2.3106 0.13867-0.76497 0.087014-1.5182 0.2082-2.2598 0.37695-0.74153 0.16891-1.479 0.39086-2.1856 0.64062-0.70648 0.24978-1.3872 0.52382-2.0469 0.85352-0.65972 0.32974-1.2814 0.70844-1.8828 1.1172l0.02539-0.087891c-0.61102 0.43461-1.2552 0.84308-1.9102 1.2051-0.65494 0.36214-1.3296 0.68119-2.0215 0.9668-0.69191 0.28554-1.3993 0.53716-2.1211 0.74219-0.72177 0.20505-1.4526 0.35594-2.1973 0.47656-0.74464 0.12063-1.5013 0.20627-2.2617 0.23828-0.76039 0.03211-1.5278 0.009589-2.2969-0.050781-0.76914-0.060275-1.5399-0.16939-2.3105-0.32617-0.77079-0.15668-1.5336-0.34444-2.2988-0.60156-0.63324-0.2127-1.25-0.45852-1.8457-0.72852-0.59551-0.27001-1.1765-0.56956-1.7324-0.89258-1.1119-0.64611-2.1351-1.389-3.0762-2.2227-0.9411-0.83375-1.7949-1.7616-2.5488-2.75-0.75399-0.98838-1.422-2.0403-1.9727-3.1504-0.55053-1.11-0.98729-2.2798-1.3184-3.4785-0.33093-1.1987-0.54558-2.439-0.64062-3.6934-0.095051-1.2544-0.069091-2.5139 0.087891-3.791 0.078559-0.63854 0.18158-1.2839 0.32617-1.9219 0.14459-0.63807 0.32823-1.2749 0.54102-1.9082 0.21272-0.63324 0.44484-1.25 0.71484-1.8457 0.26979-0.59572 0.58145-1.1782 0.9043-1.7344 0.64563-1.1124 1.3898-2.1342 2.2227-3.0762 0.83291-0.94194 1.751-1.7937 2.7383-2.5488 0.98734-0.75508 2.0436-1.4188 3.1523-1.9707 1.109-0.55173 2.2673-0.98625 3.4648-1.3184 1.1976-0.33207 2.438-0.55825 3.6914-0.6543 1.2534-0.096094 2.5283-0.08043 3.8047 0.076172 0.63814 0.078284 1.2725 0.19351 1.9102 0.33789 0.63779 0.14451 1.275 0.32826 1.9082 0.54102 0.76528 0.25709 1.5 0.56362 2.209 0.9043 0.70891 0.34064 1.3858 0.71212 2.0352 1.1289 0.64928 0.41677 1.271 0.87195 1.8574 1.3574 0.58656 0.48541 1.1377 0.99823 1.6582 1.5449 0.52049 0.54673 1.0176 1.1319 1.4688 1.7324 0.45122 0.60047 0.85179 1.2243 1.2305 1.8711 0.37869 0.64687 0.72843 1.3103 1.0312 1.9961 0.30298 0.68567 0.56704 1.3921 0.79101 2.1094l0.03711-0.09961c0.23182 0.69077 0.50243 1.357 0.82813 2.0215 0.32581 0.66452 0.7082 1.3153 1.1191 1.9453 0.411 0.62987 0.86786 1.2469 1.3555 1.834 0.48763 0.58706 1.0146 1.1475 1.5703 1.6836 0.55557 0.53595 1.129 1.0546 1.7441 1.5312 0.61509 0.47676 1.2676 0.90927 1.9336 1.3184 0.66597 0.40911 1.3524 0.78384 2.0606 1.1172 0.5353 0.25192 1.088 0.47252 1.6445 0.67773l0.01172-0.023437c2.8982 0.59438 5.5844 0.67818 8.6055 0.68945v-68.08c0-5.54-4.46-10-10-10h-33.641c-0.28462 0.95815-0.46288 1.4805-0.46289 1.4805l-0.95508 2.8008 0.03711 0.011719-0.0625 0.20117c-0.24244 0.74406-0.43307 1.5068-0.58984 2.2734-0.15676 0.76658-0.27943 1.5331-0.35156 2.3105-0.07208 0.77743-0.09925 1.5594-0.08789 2.3359 0.011498 0.7767 0.069982 1.5465 0.16406 2.3105 0.094064 0.76416 0.22478 1.5198 0.40039 2.2598 0.17568 0.73996 0.3981 1.4813 0.6543 2.1855 0.25621 0.70417 0.54319 1.3766 0.87891 2.0332 0.33577 0.6567 0.71466 1.2872 1.1289 1.8848l-0.08789-0.039063c0.44021 0.60692 0.85075 1.2586 1.2188 1.9102 0.36811 0.65152 0.68864 1.3186 0.98047 2.0078 0.29189 0.68928 0.55401 1.3895 0.76562 2.1094 0.21163 0.71991 0.37454 1.4557 0.50195 2.1992 0.12734 0.74351 0.21298 1.4997 0.25195 2.2598 0.0393 0.76002 0.039648 1.5273-0.013672 2.2969-0.053221 0.76963-0.16484 1.5384-0.31445 2.3105-0.1496 0.77216-0.33978 1.543-0.58984 2.3105-0.20694 0.6352-0.43856 1.2477-0.70312 1.8457-0.26449 0.59797-0.56095 1.1872-0.87891 1.7461-0.6359 1.1177-1.3722 2.1529-2.1973 3.1016-0.82508 0.94864-1.7431 1.7995-2.7246 2.5625-0.98143 0.76296-2.022 1.4354-3.127 1.9961-1.1049 0.56069-2.2692 1.0135-3.4648 1.3555-1.1956 0.3419-2.4263 0.57311-3.6797 0.67969-1.2534 0.10662-2.5263 0.094634-3.8047-0.050781-0.63924-0.072741-1.2826-0.17575-1.9219-0.31445-0.63931-0.13882-1.2729-0.32034-1.9082-0.52734-0.63515-0.20691-1.2612-0.43863-1.8594-0.70312-0.59815-0.26436-1.1733-0.56123-1.7324-0.87891-1.1182-0.63546-2.152-1.373-3.1016-2.1973-0.94953-0.82428-1.8101-1.7325-2.5742-2.7129-0.76408-0.98038-1.4341-2.035-1.9961-3.1387-0.56188-1.1038-1.0143-2.2587-1.3574-3.4531-0.343-1.1945-0.58205-2.4273-0.68945-3.6797-0.10765-1.2525-0.095966-2.527 0.048828-3.8047 0.072396-0.63887 0.1896-1.2693 0.32812-1.9082 0.13862-0.63912 0.30677-1.2867 0.51367-1.9219 0.2501-0.76762 0.54477-1.4989 0.87891-2.2109 0.33414-0.71202 0.70637-1.4054 1.1172-2.0586 0.4108-0.6531 0.85196-1.2685 1.332-1.8594 0.48005-0.59098 0.98935-1.1562 1.5312-1.6816 0.54192-0.52547 1.1243-1.0121 1.7207-1.4688 0.59635-0.45667 1.216-0.8713 1.8594-1.2559 0.6434-0.38462 1.2995-0.73386 1.9824-1.043 0.68296-0.30926 1.3961-0.59761 2.1113-0.82812l-0.11328-0.025391c0.68864-0.2382 1.36-0.52172 2.0215-0.85352 0.66147-0.33184 1.3075-0.7005 1.9336-1.1172 0.62609-0.41675 1.2377-0.88981 1.8203-1.3828 0.58254-0.49296 1.139-1.0215 1.6699-1.582 0.53085-0.56052 1.0485-1.1501 1.5195-1.7695 0.47107-0.61942 0.88998-1.264 1.293-1.9336 0.40296-0.66965 0.77867-1.3611 1.1055-2.0723 0.24864-0.54125 0.4648-1.096 0.66602-1.6582l-0.037109-0.011719 0.90234-2.6367h-58.311z" fill="#820404"/>
</svg>
