<svg xmlns="http://www.w3.org/2000/svg" viewBox="0 0 24 24"><g fill="none"><path fill="#f7f7f7" fill-rule="evenodd" d="M17.86 7.92a6.28 6.28 0 0 0-5.55-3.415h-.015c-3.6 0-5.69 2.275-6.25 3.44l-.065.14h-.155q-.225.001-.42.295c-.125.19-.2.42-.25.565l-.02.09L4.1 9.7v-2a.093.093 0 0 0-.185 0v2.03l-.415.54v2.77c0 .08.05.225.165.44c.115.2.275.435.46.67c.365.475.81.95 1.1 1.25l.075.07v.1c0 .735.495 1.35.74 1.565l.04.035l.025.05c.855 1.815 2.8 2.28 3.67 2.28h4.96c.8 0 1.51-.395 2.075-.915a5.5 5.5 0 0 0 1.17-1.56l.03-.06l.05-.035c.25-.19.43-.47.55-.765c.115-.29.165-.575.175-.735l.005-.115l.09-.07C19.72 14.6 20.3 13.5 20.5 13v-2.75c-.134-.202-.3-.38-.49-.53a4.4 4.4 0 0 0-.535-.385h-.425l-.05-.19a1.47 1.47 0 0 0-.975-1.095l-.11-.025l-.055-.1zm.39-.325A6.77 6.77 0 0 0 12.29 4c-3.7 0-5.92 2.265-6.63 3.595c-.31.06-.53.29-.67.5c-.14.215-.23.45-.285.615l-.105.07V7.7a.592.592 0 1 0-1.185 0v1.865L3 10.1v2.94c0 .215.1.46.23.685c.13.23.305.485.5.73c.35.46.77.915 1.075 1.225c.06.686.37 1.327.87 1.8c.975 2.02 3.14 2.52 4.1 2.52h4.96c.975 0 1.795-.48 2.415-1.05c.6-.55 1.03-1.2 1.255-1.655a2.27 2.27 0 0 0 .67-.945c.115-.285.175-.57.2-.78a6.46 6.46 0 0 0 1.71-2.44l.015-.045v-2.96l-.025-.05a2.6 2.6 0 0 0-.645-.745a4.5 4.5 0 0 0-.665-.465l-.055-.035h-.175a1.97 1.97 0 0 0-1.185-1.235" clip-rule="evenodd"/><path fill="url(#SVG2EDlMc9z)" d="m3.8 13.066l-.114-2.875l.2-.165v.725c.205.065.6.06.56-.485c-.04-.55-.09-.43-.11-.3c.025.155.035.48-.115.535a3 3 0 0 1-.2.065c.07-.03.17-.135.17-.405v-.44l.205-.14c.48-.345.535-.14.505 0c-.205.535-.62 1.725-.62 2.245v2.095l-.48-.85z"/><path fill="url(#SVGMlxkdeNp)" d="M13.8 7.185v.23c-3.09-.48-6.5.78-7.82 1.47c-.235.52-.7 1.85-.7 3.015c0 1.17.535 2.58.8 3.14c1.74 1.21 4.73 1.465 6.015 1.44c.15.175-.02.48-.12.615c-3.8 0-6-1.37-6.63-2.05c-.185-.38-.55-1.54-.55-3.145c0-1.6.575-2.935.865-3.4c2.035-.735 4.205-1.48 6.39-1.48c.97 0 1.57.11 1.75.165"/><path fill="url(#SVGEXc9ednK)" d="M12.865 17.336c-3.84 0-6.21-.84-6.91-1.265v.29c.72 2.125 6.295 1.83 6.875 1.83s.58-.225.58-.565c0-.275-.365-.305-.545-.29"/><path fill="url(#SVGfVCXQc8r)" d="M10.93 19.335c-.33 0-1.44.15-2.9-.39c-1.15-.425-1.58-1.24-1.66-1.61c.786.744 3.226 1 4.35 1.034h2.55c.24-.04.706-.014.706.425c0 .44-.31.55-.465.54z"/><path fill="#f5f5f5" d="M17.515 14.85c-1.755.916-4.64 1.28-5.86 1.346c2.645.215 5.2-.715 6.145-1.2c.26-.575.78-2.05.78-3.37c0-1.315-.61-2.47-.92-2.885a12.2 12.2 0 0 0-3.615-.96c1.355.265 2.92.97 3.53 1.29c.405.295.655 1.825.73 2.555c0 1.67-.525 2.85-.79 3.23z"/><path fill="#c8c8c8" d="m19.225 9.741l.235.94c.52-.43.62.1.69.43c.06.26.19.68.25.86v-1.735c-.07-.08-.3-.325-.655-.66c-.36-.33-.5-.25-.52-.165z"/><path fill="url(#SVGHxuTB6pF)" d="M6.87 7.785c-.2.06-.37.055-.43.05c-.075-.165-.03-.285 0-.325c.145-.23.74-.9 1.98-1.785s2.9-1.01 3.57-.96c.255.125.83.41 1.08.56c.316.2.685.48.685.9c0 .345-.55.485-.83.51h-.935c-2.685 0-4.865.975-5.12 1.05"/><path fill="#e44645" d="M15.27 7.051a4.4 4.4 0 0 0-1.45-1.945c1.53.26 2.29 1.605 2.48 2.25zm.094.725l.025-.39l.915.26v.41z"/><path fill="#f5f5f5" d="M7.39 10.065c-.7 1.815-.125 3.77.25 4.52c-.525-1.55-.22-3.606 0-4.446l1.77-.85c-1.14.15-1.825.58-2.02.776"/><path fill="#f5f5f5" d="M8.63 10.626c0 .534-.35.81-.53.88c.175.1.53.4.53.834c.05-.28.21-.835.51-.835c-.325-.135-.475-.64-.51-.88"/><path fill="#e44645" d="M6.275 12.04a4.6 4.6 0 0 0 .8 2.726a7.93 7.93 0 0 1 0-5.15c.65-.4 2.605-1.215 5.29-1.215s3.56 1.55 3.665 2.32v2.41c0 .87-.45 1.4-.67 1.55l-1.77.79l2.7-.785c.2-.45.61-1.525.61-2.19c0-.835-.2-1.89.1-1.89c.29 0 .325.585.325 1.62c0 .83-.285 2.04-.425 2.54c.61-.737.935-1.669.915-2.625c0-1.35-.45-2.455-.67-2.84c-.51-.41-2.15-1.235-4.665-1.235S7.71 8.89 6.895 9.3a5.65 5.65 0 0 0-.62 2.74"/><defs><linearGradient id="SVG2EDlMc9z" x1="11.988" x2="11.988" y1="3.999" y2="20.001" gradientUnits="userSpaceOnUse"><stop stop-color="#fefefe"/><stop offset="1" stop-color="#b6b6b6"/></linearGradient><linearGradient id="SVGMlxkdeNp" x1="5.389" x2="14.675" y1="5.953" y2="21.56" gradientUnits="userSpaceOnUse"><stop stop-color="#d7d7d7"/><stop offset=".61" stop-color="#bababa"/><stop offset="1" stop-color="#8a8a8a"/></linearGradient><linearGradient id="SVGEXc9ednK" x1="6.066" x2="10.553" y1="10.787" y2="11.34" gradientUnits="userSpaceOnUse"><stop offset=".69" stop-color="#c4c4c4"/><stop offset="1" stop-color="#959595"/></linearGradient><linearGradient id="SVGfVCXQc8r" x1="7.119" x2="13.128" y1="11.527" y2="12.421" gradientUnits="userSpaceOnUse"><stop stop-color="#d1d1d1"/><stop offset=".29" stop-color="#858585"/></linearGradient><linearGradient id="SVGHxuTB6pF" x1="5.352" x2="19.635" y1="18.091" y2="18.613" gradientUnits="userSpaceOnUse"><stop stop-color="#fcfcfc"/><stop offset="1" stop-color="#bababa"/></linearGradient></defs></g></svg>