<svg version="1.1" viewBox="0 0 48 48" xmlns="http://www.w3.org/2000/svg">
 <title>Sailfish OS</title>
 <path id="Shape" d="m43.987 12.498c-0.05112-0.12911-0.15176-0.23241-0.27949-0.28688-0.12773-0.05447-0.27194-0.0556-0.40051-0.0031l-3.9 1.36c-1.7077 0.57188-3.4516 1.0296-5.22 1.37-3.61 0.66-6.2-2.23-6.2-2.23-0.14376-0.1781-0.38418-0.24622-0.6-0.17-0.25805 0.08381-0.51171 0.1806-0.76 0.29 0.41657-2.8262 1.3813-5.5438 2.84-8 0.17033-0.17157 0.17033-0.44843 0-0.62-0.16326-0.2014-0.43599-0.27761-0.68-0.19-2.4602 1.2313-4.8032 2.6839-7 4.34-4.8 3.73-7.47 7.53-7.8 11.34-0.25 3.1 1.79 5.13 3.74 7l0.34 0.33c0.67938 1.9766 0.50548 4.1468-0.48 5.99-1.74 3.84-5.6 7.19-10.44 9-1.52 0.58-2.8 1-2.8 1-0.25803 0.08595-0.40624 0.35622-0.34 0.62 0.06946 0.22396 0.27553 0.3775 0.51 0.38h0.13c3.7912-0.9312 7.477-2.2481 11-3.93l1-0.5c6.2-3.22 9.51-7 9.89-11.16 0.26-2.65-1.31-4.43-3-6 2.16-3 9.16-5.38 9.21-5.38l6.91-2.4c2.21-0.7 3.91-1.37 4-1.41 0.14003-0.04334 0.25399-0.14595 0.31174-0.28068 0.05774-0.13473 0.05345-0.28802-0.01174-0.41932zm-18.37 0.87c-2.2633 1.0687-4.2639 2.6221-5.86 4.55-0.33046-0.81393-0.46077-1.6953-0.38-2.57 0.26-2.85 3.31-6.16 3.78-6.66 1.4983-1.0616 3.054-2.0398 4.66-2.93-1.2188 2.3739-1.9819 4.9551-2.25 7.61zm-12.87 26.89c2.5091-1.7338 4.5277-4.0865 5.86-6.83 0.71994-1.4926 1.0404-3.1465 0.93-4.8 0.98467 1.0016 1.5097 2.3667 1.45 3.77-0.38 3.64-4.88 6.24-4.92 6.28-1.08 0.57-2.19 1.09-3.32 1.58zm12.69-11.92c-0.25 2.86-2.08 5.3-4.58 7.32 0.63586-0.93441 1.0246-2.0147 1.13-3.14 0.26-2.73-1.65-4.63-3.52-6.45s-3.65-3.6-3.44-6.21c0.26-3.06 2.17-5.79 4.5-8.1-0.67657 1.0768-1.11 2.2884-1.27 3.55-0.34 3.35 1.91 5.42 3.86 7.24s3.52 3.27 3.31 5.79zm-2.76-6.7c-0.90381-0.77832-1.7157-1.6574-2.42-2.62 1.83-2.93 6-4.84 7.22-5.33 1.2988 1.2571 2.961 2.0724 4.75 2.33-1.02 0.37-7.24 2.56-9.55 5.62z" fill="#282828"/>
</svg>
