<svg xmlns="http://www.w3.org/2000/svg" viewBox="0 0 24 24"><path fill="#ea1d3a" d="m19.901 7.423l-7.791-4.4a.2.2 0 0 0-.06-.02h-.01a.2.2 0 0 0-.115.014h-.02L4.119 7.413l-.015.01a.2.2 0 0 0-.105.17v8.806a.2.2 0 0 0 .1.17l7.801 4.4q.046.03.1.031q.06 0 .105-.03l7.801-4.4a.2.2 0 0 0 .095-.14V7.597a.2.2 0 0 0-.1-.17zM11.75 20.45l-7.276-4.13l3.725-6.247l3.55 2.04zM4.499 7.923l3.35 1.95l-3.35 5.771zm7.751 4.19l3.82-2.185l3.431-1.98v8.321h-7.25v-4.155m3.79-2.63l-2.99-4.946l-.48-.785l6.816 3.84zm-4.115-6.01l3.756 6.21l-2.226 1.255l-1.455.825l-7.371-4.18zm.325 13.261h6.296L12.25 20.45z"/></svg>