<svg xmlns="http://www.w3.org/2000/svg" viewBox="0 0 24 24"><g fill="none"><path fill="url(#SVGSvLHPb3W)" fill-rule="evenodd" d="M6.96 3a9.95 9.95 0 0 0 0 6.87l.03.042l-1.676 1.44l2.263 1.476L4.8 15.302l3.76 2.262L9.35 21l2.572-2.294L14.597 21l.808-3.436l3.795-2.262l-2.772-2.453l2.258-1.497l-1.687-1.43l.046-.051c.463-1.085 1.111-3.986 0-6.871L13.61 7.068a3 3 0 0 0-1.625-.468c-.72 0-1.307.247-1.62.437zm-.417 12.08l1.898-1.691l1.132.735l.504 1.733h3.733l.545-1.635l1.338-.89l-.175.154l1.939 1.595l-2.952 1.8l-.468 2.242l-2.12-1.703l-1.969 1.698l-.597-2.243l-2.808-1.8zm7.859-2.144l2.556-1.697l-2.978-2.556l-.411 1.851zM13.11 7.999a2.4 2.4 0 0 0-1.126-.304c-.494 0-.91.175-1.194.35l.628 2.628l-.998 3.014l.432 1.142h.633v-1.543h1.028v1.543h.535l.407-1.142l-.973-3.014zm-3.173.74l-2.942 2.5l2.592 1.65l.782-2.36zm-.34-1.07L7.562 5.264c-.134.401-.206 1.131-.19 1.851c.015.751.18 1.528.462 2.068zm4.773.037l1.78 1.501a4.7 4.7 0 0 0 .478-2.124c0-.622-.088-1.177-.155-1.594l-.036-.226z" clip-rule="evenodd"/><defs><linearGradient id="SVGSvLHPb3W" x1="4.8" x2="18.364" y1="12" y2="12" gradientUnits="userSpaceOnUse"><stop offset=".27" stop-color="#2f239f"/><stop offset="1" stop-color="#81bbe3"/></linearGradient></defs></g></svg>