<svg xmlns="http://www.w3.org/2000/svg" viewBox="0 0 24 24"><g fill="none"><path fill="#348aa7" d="M8 9.75v-4.5L4 7.5z"/><path fill="#55cf98" d="M12 7.5L8 9.75v4.5l4 2.25z"/><path fill="#1a6882" d="m4 7.5l4 2.25v4.5L4 16.5z"/><path fill="#76e8b5" d="m8 5.25l4 2.25l-4 2.25z"/><path fill="#12556b" d="m4 16.5l4-2.25l4 2.25V21z"/><path fill="#bce784" d="M16 5.25L12 7.5L8 5.25L12 3z"/><path fill="#48b081" d="m12 7.5l4 2.25v4.5l-4 2.25z"/><path fill="#1a6882" d="m20 7.5l-4 2.25v4.5l4 2.25z"/><path fill="#57c795" d="M16 5.25L12 7.5l4 2.25z"/><path fill="#0d3e4f" d="m20 16.5l-4-2.25l-4 2.25V21z"/><path fill="#348aa7" d="M16 9.75v-4.5l4 2.25z"/></g></svg>