<svg xmlns="http://www.w3.org/2000/svg" viewBox="0 0 24 24"><g fill="none"><path fill="#eeeeec" d="M13.892 3.646c-.551 2.313-.477 2.16-2.43 1.99c-.64.16-1.112-.238-1.837.074c-.048.149-.09.239-.207.165c-.063-.212.01-.075.117-.265c.386-.625.17-.969-.302-1.784l-.429-.492c0-.085-.28-.043-.344-.043c-1.032.302-2.345 4.886-2.45 5.061l-.303-.148c-.106 1.016.35.868-.317 1.228c-.021.085.053.376.116.545c.106.302.297.741.106.995c-1.085 1.515-1.625 4.394-.64 6.073c.836 1.37 1.074 1.397 1.503 2.255c.212-.54 6.845.709 9.132-1.287c2.244-1.996 2.795-2.52 2.689-5.15c-.381-3.029-1.07-6.856-3.044-9.28c-.085-.107-.503-.371-.635-.414c-.286-.074-.545.292-.726.477"/><path fill="#dddad9" d="M10.82 18.58c-.772.128-.703 0-1.328-.105c-.519.085-1.72-.45-2.192-.815c-.174-.127-.344-.28-.518-.387c.063.17.106.318.195.493c-1.46-.424-2.07-3.076-2.329-3.399c-.28.836.106 2.202.456 2.806c.232.386.545.714.783 1.059q.159.255.318.55c.19.344.211.334.423.445v-.54c.09.084.095.132.18.259c1.821 2.673 6.326 1.45 8.311-.26c.302-.296.588-.703.927-.942c0 .059.08.16.106.212c.428-.127 1.503-1.28 1.805-1.73c.82-1.245.561-1.975.667-2.812c.26.127.212.318.519.424a5.26 5.26 0 0 0-1.207-2.933c-.281-.344-.255-.73-.043-1.18l.185-.398c-1.28.064-.158.466-.211-1.074l-.508-.117c-.09.09-.09-.063-.106.238c-.027.345.037.26-.16.667c.07.106.133.064.176.212c.084.508-.334 1.038-.689 1.329c.217.175.392.212.71.302c.196.127.73 1.545.82 2.059c.043.296.122.646-.106.879c-.047-.429-.132-.583-.391-.815c-.043.084-.043 0-.021.211c.238 1.27-.212 3.261-1.504 3.711c.064-.254.196-.275.26-.62c-1.769.88-2.711 2.367-4.945 2.595c.154-.212.238-.17.37-.28c.08-.064.017-.022.08-.107c-.17 0-1.032.19-1.032.064"/><path fill="#cbc5c5" d="M8.741 20.211a.5.5 0 0 0 .106.085l.106.042c.063.021.153.043.238.09l.408.148l-.858-.127c.106.19.471.254.667.318c.794.238 1.827.302 2.62.154c1.975-.371 2.34-.816 2.965-.99c.238.174.477.54.9.518c.133-1.545 1.615-1.715 2.668-3.494c.625-1.09 1.18-1.445.699-3.446c-.064-.26-.106-.513-.212-.752c-.084-.19-.28-.73-.429-.857c.149.582.255 1.006.318 1.715c-.212-.106-.064-.085-.318-.212c-.105.837.07 1.578-.725 2.8c-.301.45-1.318 1.573-1.747 1.7c-.026-.053-.106-.148-.106-.212c-.35.265-.635.699-.984.974a7.3 7.3 0 0 1-1.975 1.223c-1.075.519-3.308.667-4.34.323"/><path fill="#242323" d="m5.902 8.051l-.408-.19c-.02.598.085.878.106 1.37c-.26.022-.365.085-.54.149c.265.582.456.73.434 1.461c-.603 1.006-1.249 2.038-1.164 3.282l.153-.09c-.344 3.711 1.117 3.07 1.869 5.49c.26-.064.28-.127.476-.297c.794.747.922.773 1.87 1.202l.857.127c-.085-.021-.28-.106-.408-.148c-.063-.027-.153-.048-.238-.09l-.106-.042c-.064-.043-.064-.043-.106-.085c-.434 0-1.53-.815-1.874-1.329c-.063-.106-.106-.196-.212-.302l-.02.646c-.213-.106-.197-.174-.371-.519c-.106-.19-.233-.36-.34-.529c-.237-.35-.497-.625-.73-1.032c-.344-.604-.73-1.954-.455-2.79c.048-.408.175-.773.323-1.09c-.233.084-.021.063-.408.296c.022-.794.604-1.906 1.033-2.51c.323-.423-.26-1.434-.212-1.561c.233-.132.45.19.62.296c-.107-.47-.408-.942-.345-1.588l.302.154c.106-.175 1.397-4.765 2.45-5.061c.816-.238 1.695 1.567 1.96 2.144c-.28.021-.757.085-.863.386c.365-.105.582-.211 1.005-.153c.562.09.196.217.884.048c.498-.133 1.552 0 1.917.232c.19-.127-.265-.28-.434-.344c.153-.45 1.074-2.551 1.678-2.398c1.006.233 2.472 3.986 2.732 4.908l.211.344l.239-.17c.02.64-.302 1.048-.477 1.54c.302-.169.302-.423.757-.45l-.196.324c-.211.45-.238.836.043 1.18c.497.583 1.138 1.842 1.334 2.637c.105.45.238 1.27.063 1.694c-.17-.233-.302-.556-.476-.752c.069 1.673-.493 2.467-1.779 3.52l-.561.514c-.73.73-.62.857-.921 1.201c-.239-.386-.07-.56 0-.99c-.667.498-.54.794-1.588 1.223c-1.101.45-1.769.498-2.134.646c1.144.085 2.816-.492 3.357-1.111l.042.058c.212.45-.064.069.429.603c.148-.153.211-.492.344-.688c.513-.535.99-.9 1.546-1.392c.56-.514.56-.646.968-1.244c.43-.625.387-.773.535-1.27c.106-.34.106-.08.106-.059l.175.318c.105-.085.105-.085.195-.382c.731-2.509-1.916-4.446-1.46-5.51c.126-.302.211-.302.45-.477c-.281-.212-.281-.233-.647-.254c.154-.429.175-.815.127-1.308a6 6 0 0 1-.407.318c-.365-1.196-1.112-3.129-1.869-4.155c-1.006-1.398-1.46-1.292-2.297.063c-.196.318-.583 1.112-.689 1.482c-.428-.026-.603-.159-1.095-.069c-.794.128-.133.196-.948.043c-.26-.752-1.202-2.552-2.192-2.425c-1.117.106-2.297 3.817-2.62 4.955"/><path fill="#242323" d="M9.99 16.008c.058-.26.148-.408.254-.598l.921.47c-.042.387-.18.636-.18 1.06c0 .28.175.751.106.963c-.17.45-1.07.323-1.514.318c-.582-.069-.947-1.313-.318-2.488c.233-.456.255-.323.556-.604l.233.148c-.582.795-.365 1.673-.275 2.34c.063-.492 0-1.244.212-1.609zm-.498 2.467c.625.127.556.238 1.33.106c.132-.085.264-.127.37-.212c.45-.344.211-1.128.254-1.641c.429-.302 1.228-.397 1.763-1.556l.323-.837l-.043.514c.085-.17.212-.233.238-.53c.021-.243-.132-.413-.238-.54l-.815-.794c.106.344.318.662.598.858c-.063.62-.688 1.392-1.27 1.694c-.747.386-1.567-.344-2.039-.646v-.513c.302-.149.477-.149.71-.366c.752-.725.429-1.54-.71-1.604c-.344-.026-.688 0-.92.17c-.218.148-.345.386-.324.709c.043.513.583.921 1.006 1.048v.604c-.211.106-.45.296-.688.45c-.598.386-1.265-.927-1.07-1.996c.128-.625.583-.985 1.028-1.244c.646-.365 1.143-.302 1.895-.148c-.408-.477-1.657-.43-2.345.169c-.556.476-1.032 1.027-.773 2.17c.26 1.197.603.959.836 1.478c.09.169.265.317.265.513c0 .17-.09.407-.111.688c-.064.943.344 1.112.73 1.456"/><path fill="#ea888d" d="M9.567 18.226c.429.153 1.233-.053 1.255-.525c0-.169-.085-.555-.085-.772c0-.276.021-.556-.021-.816c-.228-.354-.577-.455-.8-.137c-.238.365-.09.73-.106 1.18c-.11-.667-.296-1.106.307-1.9l-.312-.138c-.302.275-.302.09-.535.54c-.667 1.18-.28 2.504.297 2.568"/><path fill="#ceb1ae" d="M15.882 7.966c.238-.323-.005-1.8-.328-2.403c-.196-.387-.73-1.63-1.334-1.435c-.26.815-.493 1.837.28 2.435c.239-.127.217-.185.37-.376c.213.276.292.53.334.9l.35-.158c-.048.402-.101.862.328 1.037"/><path fill="#cbc5c5" d="M14.219 4.15c.603-.195 1.138 1.049 1.334 1.435c.296.603.556 2.017.317 2.34l.09.085l.344.28c.17.106.345.233.583.19c.296-.598-.604-2.593-.863-3.107c-.26-.492-.519-.9-.773-1.286c-.429-.667-.71-.71-1.032.063"/><path fill="#ceb1ae" d="M7.427 7.882c.302-.212.238-.56.175-.9c.169.021.254.064.386.106c.021-.317.148-.62.344-.773c.106.196.148.238.408.302c.211-.429.45-.45.407-1.138c-.02-.424-.18-1.276-.407-1.482c-.667.084-1.583 2.535-1.45 3.885z"/><path fill="#cbc5c5" d="M7.429 7.882h-.106c-.132-1.35.857-3.647 1.524-3.732c-.428-.942-.926.148-1.138.556c-.45.836-1.418 2.98-1.291 3.796c.301.063.841-.424 1.01-.62"/><path fill="#46433c" d="M9.017 12.767c-.064.212-.106.476 0 .688c.153-.042.132-.064.174-.26h-.02c0 .048 0 .133-.064 0c-.043-.063-.022.133-.022-.063c-.02-.317.641-.19.149.625c.196.127.28.275.518.317c.276.07.472-.105.662-.169c-.042-.127.043.021-.127-.148c-.212-.196-.26-.493-.196-.773l.28-.021l.107.28c-.148-.069-.127-.09-.212-.132c.106.323.106.476.429.534c.71-1.196-.969-1.217-1.678-.878"/><path fill="#d67179" d="M10.694 16.091c.042.281.021.54.021.816c0 .211.085.624.085.773c-.021.476-.794.645-1.223.492c.318.386 1.419.238 1.61-.212c.09-.196-.022-.752-.022-1.053c0-.424.07-.689.106-1.07l-1.027-.476c-.582.926-.005.243.45.73"/><path fill="#242323" d="M13.018 10.777c-.323.423-.688.275-.413-.238c-1.673-.106-.492 1.524.323.963c.28-.19.174-.471.09-.725"/><path fill="#dddad9" d="M9.597 5.817c.021-.085-.106-.106.302-.254q.262-.09.54-.106c-.302-.715-1.011-1.975-1.641-2.123l.434.492c.476.794.688 1.138.302 1.779c-.127.196-.196.09-.127.302c0 .02.02.042.02.042c.17-.042.128 0 .17-.132m3.695.11c.07.043.021.043.154.064h.106c.063-.063.02-.746.106-1.244c.02-.148.09-.386.153-.555c.127-.387.254-.387.17-.535c-.366.254-.922 1.61-1.054 1.97c.106.047.154.047.28.132c.26.169.196.105.085.169"/><path fill="#242323" d="M8.222 10.624c.064.429 0 .492-.407.26c-.043.232-.064.45.174.582c.233.127.471.08.688-.069c.493-.365.128-.942-.455-.773"/></g></svg>