<svg version="1.1" viewBox="0 0 128 128" xmlns="http://www.w3.org/2000/svg">
 <path d="m110 35 7.2e-4 7.7413c7e-5 0.01322 4e-3 0.02538 4e-3 0.0386v40.498c0 3.8576-2.8449 6.6612-6.6711 6.717l-9e-3 0.0095h-0.0851c-3e-3 3e-6 -5e-3 7.22e-4 -8e-3 7.22e-4h-17.229v5.9064c0 2.4185-2.1112 4.0884-4.5185 4.0884h-32.849c-2.4073-1e-5 -4.6325-1.67-4.6325-4.0885v-5.9064h-24v6.7782c0 6.2139 4.9793 11.217 11.165 11.217h82.225c6.1853 0 10.611-5.0027 10.611-11.217v-49.852c0-6.214-4.4254-11.931-10.611-11.931z" fill="#ff4f1a" fill-rule="evenodd" stroke-width="0"/>
 <path d="m15.5 19c-6.1853 0-10.5 4.8745-10.5 11.12v48.608c0 6.2452 4.3149 11.273 10.5 11.273h4.4998v-47.763c0-3.9122 2.9004-7.0615 6.7751-7.0615h6.9418l0.0317-0.03918h76.251v-5.0166c-5e-5 -6.2452-4.9797-11.12-11.165-11.12z" fill="#00a1e5" fill-rule="evenodd" stroke-width="0"/>
</svg>
