<svg xmlns="http://www.w3.org/2000/svg" viewBox="0 0 24 24"><g fill="none"><path fill="#ff340e" d="m15.849 6.112l-.013-.005l-.008-.01c0-.01 0-.016.005-.006h.015v-.005c-.01 0-.01 0 0-.01v-.041h-.01l-.02.015h-.01l-.016-.02h-.015l-.021.015c0 .005-.005 0 0 0q0-.009-.015-.01h-.016a.13.13 0 0 1-.082-.031l-.016-.005h-.056a1 1 0 0 0-.093-.031h-.01a.03.03 0 0 1-.036.01h-.041c-.01 0-.01 0-.005.01c0 .01 0 .01-.01 0c-.006-.005-.021-.01-.031-.005a.1.1 0 0 1-.052 0l-.051-.015a.3.3 0 0 1-.108-.041h-.016c-.03 0-.077 0-.103-.016a.1.1 0 0 0-.036-.01l-.051-.005l-.072-.016l-.01-.005l-.006-.001l-.005.001H14.8l-.015-.01a.07.07 0 0 0-.057 0a.2.2 0 0 1-.051.015l-.016-.005c-.01-.015-.03-.015-.046-.01c-.036.01-.067 0-.082-.036a.03.03 0 0 0-.02-.015a.2.2 0 0 1-.052-.031h-.01c-.026.015-.052.01-.062-.016l.005-.01v-.015a.05.05 0 0 1-.02-.021a.03.03 0 0 0-.01-.016a.07.07 0 0 1-.037-.05s0-.011-.01-.011l-.077-.088a.03.03 0 0 1-.01-.02a.2.2 0 0 1 .015-.052a.05.05 0 0 0 0-.036l-.002-.01q0-.006.002-.01c.01-.016.015-.031.005-.036q.25-.361.422-.592a7.3 7.3 0 0 1 1.126-1.172c.478-.396 1.43-1.03 1.929-.278q.166.26.236.56l-.01.016a6 6 0 0 0-1.481 1.255a4.8 4.8 0 0 0-.623.926zm-5.936-.154q-.015.002-.015-.026c0-.02-.005-.02-.021-.01l-.036.03a.1.1 0 0 1-.051.021a.6.6 0 0 0-.175.077a.2.2 0 0 0-.036.031l-.016.01a.05.05 0 0 0-.03.016l-.016.01l-.067.03h-.02c-.01 0-.021 0-.031.016h-.01a.1.1 0 0 0-.073.031l-.015.005l-.129.016q-.015.001-.015.01a.08.08 0 0 1-.067.02s-.01 0-.01.01a.2.2 0 0 1-.041.042h-.005q-.002-.015-.01 0c0 .015-.011.02-.021.015l-.02.006a.13.13 0 0 1-.093.025h-.057l-.015-.005a.05.05 0 0 0-.052-.01l-.005.005q-.013.021-.036.005v-.005a.05.05 0 0 0-.036 0l-.02.01h-.021a.14.14 0 0 0-.057-.02h-.103a.33.33 0 0 1-.16-.072a.1.1 0 0 1-.045-.016l-.016-.005l-.036-.005c-.005 0-.01 0-.015-.01l-.02-.01a5 5 0 0 0-.958-1.343a5 5 0 0 0-.745-.628a17 17 0 0 0-.463-.329V3.88c.051-.18.123-.36.226-.515c.036-.051.082-.113.144-.17c.376-.37.952-.138 1.322.093c.427.268.823.617 1.162.998c.43.467.803.983 1.111 1.538c-.046.036-.087.067-.087.134z"/><path fill="#fbe7e6" d="M7.958 6.54A6.7 6.7 0 0 0 5.7 8.724c-.01.02-.015.016-.02 0a7 7 0 0 1-.047-.925c0-.201.01-.391.016-.582c.005-.241.025-.52.051-.833l.026-.478c.015-.237.051-.468.072-.705q.064-.528.175-1.05A5.37 5.37 0 0 1 8.06 6.479zm7.988-.073c.02-.066.051-.133.077-.195a5.1 5.1 0 0 1 1.029-1.368q.46-.421.992-.746c.052.324.113.638.144.957q.148 1.346.175 2.7c.005.309-.02.617-.046.91q0 .024-.015 0a6.7 6.7 0 0 0-2.356-2.247z"/><path fill="#ff532f" d="M14.25 5.392c.01.005.005.02-.006.036a.03.03 0 0 0 0 .02a.05.05 0 0 1 0 .032a.2.2 0 0 0-.015.056c0 .01 0 .016.01.02l.077.088l.01.01c0 .026.016.042.037.052l.01.015c0 .01.01.016.02.02v.027c.01.025.031.03.052.015h.015a.14.14 0 0 0 .052.03q.014 0 .02.016c.016.036.047.047.083.036c.015 0 .036 0 .051.01h.01c.02 0 .036 0 .052-.01a.07.07 0 0 1 .051 0l.02.005h.037l.006.001l.004.005h.026q.05.015.103.025l.04.01c.026.016.073.016.104.01h.015a.3.3 0 0 0 .108.047l.051.016a.1.1 0 0 0 .052 0c.01 0 .026 0 .03.01l.011-.005v-.005h.01l.016-.006l.01-.002l.01.002l.036-.005h.01a.3.3 0 0 1 .093.02l.036.006h.036q.038.03.082.03h.016q.016.009.01.016h.005q.015 0 .02-.015h.016l.016.015l.01.005l.02-.015h.01v.041c-.01.005-.01.01 0 .005v.01h-.014c-.006-.01-.01-.005-.006 0c0 .01.01.016.02.021a6 6 0 0 0-.184.391c-.031.077.026.124.082.154l.33.18a6.9 6.9 0 0 1 1.568 1.384c.247.293.448.602.591.926c.057.118.057.257.062.39c.016.397.026.762.047 1.101c.005.19.01.402.005.623l-.01-.335v-.015a.04.04 0 0 1-.006-.026v-.051q.001-.015-.005 0v.01h-.01v.01q.015.009 0 0v.006a.1.1 0 0 0-.005.04q.001.015-.005 0a.1.1 0 0 1-.006-.05l-.005-.021l-.01.005v.03l-.005.016a.04.04 0 0 0-.01.02l-.006.01c-.01 0-.02 0-.03-.01a.015.015 0 0 1 0-.02l.005-.02c0-.01 0-.016-.01-.01l-.016.015h-.01q-.047-.002-.062.051l-.01.01h-.016l-.015.005a.2.2 0 0 1-.052.042a.1.1 0 0 1-.03 0a.05.05 0 0 0-.037.015l-.003.003h-.009l-.003-.003c-.01 0-.026 0-.036.01l-.006.007l-.01.004h-.015l-.103.036l-.005.005h-.005a.5.5 0 0 1-.108.03q-.015.002-.015.01a.06.06 0 0 1-.047.032a.06.06 0 0 0-.036.015l-.015.01l-.206.067l-.015.005a.2.2 0 0 1-.052.031a.2.2 0 0 0-.036.02a.24.24 0 0 1-.092.037c-.021.005-.036.02-.052.03a.2.2 0 0 0-.046.027a.1.1 0 0 1-.052.03c-.03.01-.051.031-.082.047a4 4 0 0 0-.17.087l-.02-.005h-.052l-.056-.216a.04.04 0 0 0-.015-.015a2.86 2.86 0 0 0-1.718.313a2.8 2.8 0 0 0-1.39 2.125q-.051.384-.02.792q.014.163.052.303l-.144.093a.04.04 0 0 1-.026.009a.04.04 0 0 1-.026-.01l-.098-.082a1.9 1.9 0 0 0-1.265-.447a1.93 1.93 0 0 0-1.347.535h-.02l-.165-.103l.051-.252a3.3 3.3 0 0 0-.237-1.651a2.68 2.68 0 0 0-2.273-1.636a4 4 0 0 0-.627.005l-.01-.015v-.01a.1.1 0 0 1-.032-.031l-.025-.046a.1.1 0 0 0-.062-.042a.1.1 0 0 1-.046-.015a.4.4 0 0 0-.052-.03a.03.03 0 0 1-.015-.011c-.01-.02-.036-.016-.052-.031l-.051-.036a.2.2 0 0 0-.052-.026a.4.4 0 0 1-.066-.026a.1.1 0 0 1-.031-.03a.1.1 0 0 0-.047-.031h-.025l-.01-.01l-.13-.047a.1.1 0 0 0-.06-.015c-.006 0-.011 0-.016-.01a.1.1 0 0 0-.083-.026s-.01 0-.01-.01v-.057a1 1 0 0 0-.17-.057a.2.2 0 0 1-.051-.015l-.01-.005l-.041-.005a.2.2 0 0 0-.088-.005l-.01-.006a.06.06 0 0 0-.041-.015l-.016-.005a.14.14 0 0 0-.103-.031c-.01 0-.01.005-.01.01v.031c0 .005 0 .01-.01.005h-.005c-.005 0-.01-.005-.005-.01c0-.02-.006-.036-.026-.036l-.02-.005a.04.04 0 0 0-.027-.005a.14.14 0 0 1-.072 0h-.015c-.01 0-.02 0-.03-.01a.1.1 0 0 0-.052 0l-.016-.016l-.01-.041l.046-1.09a.94.94 0 0 1 .103-.392c.124-.226.257-.447.417-.648A6.4 6.4 0 0 1 7.8 6.915c.159-.103.324-.19.483-.278q.085-.045.046-.144l-.128-.288c.01 0 .015 0 .02.01l.016.01l.036.005l.061.021l.016.01a.4.4 0 0 0 .15.062h.092a.1.1 0 0 1 .061.02h.02l.021-.01a.05.05 0 0 1 .031 0q.008 0 0 0v.005c.02.01.031.01.042-.005l.005-.005a.05.05 0 0 1 .051.01l.016.006h.056c.036.005.067 0 .093-.026h.02q.016.001.026-.02q0-.016 0 0h.01a.2.2 0 0 0 .041-.042l.01-.01c.026 0 .047 0 .068-.02q0-.01.015-.011l.129-.015l.015-.006a.1.1 0 0 1 .072-.025l.01-.005a.03.03 0 0 1 .031-.016h.016l.066-.03l.016-.011a.05.05 0 0 1 .03-.015l.016-.01a.2.2 0 0 1 .036-.032a.6.6 0 0 1 .175-.077c.02 0 .036-.01.051-.02l.036-.031c.016-.01.021-.01.021.01q0 .032.015.026c.016.103.108.113.186.087q.371-.112.756-.164c.205-.02.396-.036.566-.036q.6-.012 1.203 0c.431 0 .86.065 1.27.195q.046.016.093.016c.103 0 .139-.15.046-.206a.2.2 0 0 1-.036-.02a.02.02 0 0 1-.007-.016l.002-.009l.005-.007l.258-.406z"/><path fill="#000" d="M9.327 11.384a1.46 1.46 0 0 1-.828-1.208a.74.74 0 0 1 .164-.54c.273-.345.792-.268 1.142-.103c.51.236.926.632 1.152 1.147a.96.96 0 0 1 .072.54c-.072.344-.437.437-.73.411a2.6 2.6 0 0 1-.967-.252zm6.105-1.594a1 1 0 0 1 .01.7a1.52 1.52 0 0 1-.602.797a2 2 0 0 1-.483.22a2.7 2.7 0 0 1-.602.12c-.278.025-.638-.027-.761-.33c-.036-.093-.052-.19-.036-.298q.03-.256.17-.489c.113-.19.236-.36.375-.499a2.14 2.14 0 0 1 1.075-.602a.9.9 0 0 1 .34-.005a.64.64 0 0 1 .514.386"/><path fill="#f4eae9" d="M9.825 9.696q.618.31.967.926c.175.309.221.787-.237.864c-.092.016-.2.026-.298.016c-.705-.067-1.41-.36-1.61-1.142a.9.9 0 0 1-.02-.36c.066-.412.426-.52.781-.453q.187.039.412.154zm5.107-.154a.52.52 0 0 1 .412.35c.092.277 0 .602-.154.848c-.195.314-.5.543-.854.643a2.6 2.6 0 0 1-.71.124q-.07 0-.211-.031c-.442-.093-.375-.556-.206-.859a2.2 2.2 0 0 1 1.106-.977c.206-.083.396-.134.617-.098"/><path fill="#f46f58" d="m5.664 10.511l.01.041c.006.01.011.01.016.01l.052.006c.01.01.02.005.03.005h.016q.04.015.072 0c.01 0 .015 0 .026.01l.02.005c.02 0 .026.016.026.036v.01h.02V10.6l.006-.01c.04 0 .077.005.108.03l.015.005c.015 0 .026.005.041.016h.01c.031 0 .057 0 .088.01h.041l.016.01l.046.016q.075.016.164.056l.01.016v.041l.006.01a.1.1 0 0 1 .082.026l.016.01l.061.016l.052.025l.113.031c.02.005.036.02.046.031l.031.031l.067.026l.051.025l.052.036c.015.016.04.01.051.031l.016.01l.051.031q.021.016.051.016q.033.008.057.041l.026.046l.03.031v.01l.01.016c0 .025-.015.062-.03.113q-.073.239-.118.483a2.33 2.33 0 0 0 .55 2.027c-.154.005-.278.02-.386.041a4.75 4.75 0 0 0-1.718.839q-.132.106-.267.21q.131-1.015.21-2.037c.027-.293.042-.59.037-.905q-.009-.77.02-1.548m12.684.751q.014.816.036 1.63q.084 1.051.221 2.094a.12.12 0 0 1-.072-.03a4.7 4.7 0 0 0-1.903-.999a5 5 0 0 0-.406-.051a2.35 2.35 0 0 0 .591-1.816a4 4 0 0 0-.123-.566h.051l.02.006l.011-.006l.016-.015c.051-.026.097-.051.144-.067c.03-.015.051-.036.087-.046c.015 0 .031-.016.052-.031a.2.2 0 0 1 .035-.026l.052-.03a.3.3 0 0 0 .098-.037a.2.2 0 0 1 .036-.02a.2.2 0 0 0 .051-.031l.01-.005l.211-.067c.005 0 .01 0 .016-.01a.06.06 0 0 1 .036-.016c.02 0 .036-.015.046-.03l.015-.01a.5.5 0 0 0 .114-.032h.01l.103-.04h.01c.005 0 .01 0 .015-.011c.01-.01.026-.01.036-.01h.01a.05.05 0 0 1 .042-.01l.03-.006a.2.2 0 0 0 .052-.041h.016l.015-.005l.01-.016c.01-.03.031-.04.062-.04l.01-.006l.016-.015c.01 0 .015 0 .01.01l-.01.02l.005.021l.03.01l.006-.01c0-.005 0-.015.01-.02v-.047h.016v.01c0 .021 0 .042.01.057q0 .015 0 0c0-.01 0-.026.01-.041q.015 0 0 0v-.016h.005v-.015h.01v.082l.006.016z"/><path fill="#000" d="m10.458 14.825l-.925-.134a5 5 0 0 1-.9-.216a2.26 2.26 0 0 1-1.25-1.152a2.34 2.34 0 0 1-.165-1.44a4.4 4.4 0 0 1 .154-.597q.31-.03.617 0a2.67 2.67 0 0 1 2.279 1.63c.247.603.312 1.265.185 1.903zm6.234-3.297c.057.205.103.396.123.56q.063.43-.061.87a2.35 2.35 0 0 1-.72 1.136q-.363.294-.818.432a5 5 0 0 1-.9.185l-.772.119a3.7 3.7 0 0 1-.04-1.096a2.8 2.8 0 0 1 1.403-2.124a2.86 2.86 0 0 1 1.729-.298l.051.22z"/><path fill="#6c615e" d="m10.366 14.563l-.01.062c-.011.02-.011.02-.011 0l-.005-.489c-.057-1.049-.597-2.037-1.548-2.453a2.9 2.9 0 0 0-1.333-.252v-.005q.195-.033.391-.026a2.6 2.6 0 0 1 1.831.823a2.4 2.4 0 0 1 .309.411a3.03 3.03 0 0 1 .376 1.93m3.302-.524a8 8 0 0 0-.021.617l-.005.005h-.005a5 5 0 0 1-.026-.453a3.3 3.3 0 0 1 .062-.71a2.65 2.65 0 0 1 1.208-1.738a2.55 2.55 0 0 1 .998-.334q.326-.035.653-.01l.006.01v.005h-.006a5 5 0 0 0-.57.03c-.772.119-1.451.515-1.862 1.204q-.37.626-.432 1.374"/><path fill="#1f1f1f" d="m7.306 12.145l.015-.123l.062-.386c.005-.036.025-.062.056-.067c.077-.015.165-.015.257-.01l.304.03c.487.057.947.255 1.322.572c.438.383.73.907.828 1.48l.04.222c.021.129.021.267.027.406v.37l-.01.006a22 22 0 0 1-.592-.082l-.304-.042a4 4 0 0 1-.519-.133a2 2 0 0 1-1.024-.68a2.4 2.4 0 0 1-.411-.853c-.036-.129-.041-.273-.057-.406a1.2 1.2 0 0 1 0-.304zm7.833 2.263l-.185.052q-.418.084-.767.138l-.375.052h-.01l-.01-.005l-.006-.01v-.34a3.1 3.1 0 0 1 .237-1.219a2.4 2.4 0 0 1 2.006-1.492l.36-.025h.144a.1.1 0 0 1 .077.072q.093.4.093.771q-.002.256-.072.535c-.026.093-.067.18-.103.268q-.106.277-.299.504a1 1 0 0 1-.144.164c-.123.103-.247.216-.38.293c-.185.114-.37.196-.566.242"/><path fill="#fbe7e6" d="m16.224 13.904l.411.051a4.7 4.7 0 0 1 1.903.998q.03.03.067.031l.072.638c.02.175.01.355-.026.53c-.05.267-.138.509-.246.73a8 8 0 0 1-.793 1.286c-.154.18-.293.35-.447.504q-.542.538-1.162.93c-.874.56-1.83.979-2.834 1.24a4.2 4.2 0 0 1-1.132.155a3.4 3.4 0 0 1-1.147-.145a9.2 9.2 0 0 1-3.019-1.337c-.314-.226-.617-.437-.895-.704a6.5 6.5 0 0 1-.771-.875a6.3 6.3 0 0 1-.685-1.224a2.3 2.3 0 0 1-.18-1.316l.052-.397l.278-.205a4.8 4.8 0 0 1 1.023-.617q.356-.155.69-.227q.153-.032.385-.041l.226.206c.196.154.412.277.638.36c.288.103.592.164.9.216l.926.134l.154.097h.026c.005 0 .016 0 .02-.01l.083-.077a1.94 1.94 0 0 1 1.445-.437c.436.032.846.213 1.163.514q.01.01.024.01q.016.002.027-.005l.15-.092l.766-.114a5 5 0 0 0 .9-.185c.383-.117.73-.33 1.008-.617z"/><path fill="#6c615e" d="M7.64 15.154c.041 0 .072-.036.072-.078a.072.072 0 0 0-.123-.05a.07.07 0 0 0-.021.05c0 .042.03.078.072.078m8.718 0c.041 0 .072-.036.072-.078a.072.072 0 0 0-.123-.05a.07.07 0 0 0-.021.05c0 .042.036.078.072.078m-6.712.293c.036 0 .067-.036.067-.072a.07.07 0 0 0-.067-.077a.07.07 0 0 0-.072.077c0 .036.03.072.072.072"/><path fill="#000" d="M11.919 17.9a2.66 2.66 0 0 1-1.46-.962a1.4 1.4 0 0 1-.227-.452a.64.64 0 0 1 .494-.798a3.5 3.5 0 0 1 .694-.072q.69-.018 1.379.01c.154.006.308.027.452.057c.175.036.34.129.432.293c.103.175.129.36.067.546a1.4 1.4 0 0 1-.216.411a2.75 2.75 0 0 1-1.466.972l-.005.01v.114l.015.015a2.74 2.74 0 0 0 2.238.55c.684-.128 1.43-.648 1.352-1.476l-.02-.226a.19.19 0 0 1 .077-.18c.108-.067.247-.093.36-.02q.03.029.015.066l-.015.026c-.01.026-.03.036-.056.02a.22.22 0 0 0-.247.031l-.006.01l-.005.016l.02.216a1.3 1.3 0 0 1-.22.89c-.216.309-.5.52-.854.648a2.75 2.75 0 0 1-2.706-.458q-.015-.015-.03 0a2.77 2.77 0 0 1-2.752.437c-.602-.236-1.09-.771-1.034-1.48q.005-.14.016-.279a.22.22 0 0 0-.242-.036c-.031.016-.088 0-.088-.051a.09.09 0 0 1 .052-.067a.32.32 0 0 1 .303.015q.117.061.103.19c0 .063 0 .12-.01.18c-.103.66.365 1.168.915 1.395a2.69 2.69 0 0 0 2.675-.422a.03.03 0 0 0 .005-.02v-.103c0-.006 0-.016-.01-.016z"/><path fill="#1f1f1f" d="M13.442 16.842c-.294.372-.68.66-1.122.833c-.066.026-.139.04-.205.056a.5.5 0 0 1-.242 0a2 2 0 0 1-.566-.231a2.26 2.26 0 0 1-.802-.72c-.103-.15-.19-.37-.154-.545a.48.48 0 0 1 .267-.37a.7.7 0 0 1 .206-.057c.16-.031.324-.052.483-.052l.288-.02q.726-.011 1.45.051l.237.041q.14.03.232.129a.6.6 0 0 1 .139.319c.02.195-.088.411-.206.566z"/><path fill="#6c615e" d="M15.256 16.496a.07.07 0 0 0 .072-.072a.073.073 0 0 0-.072-.077a.07.07 0 0 0-.072.077a.07.07 0 0 0 .072.072m-6.511.006c.036 0 .072-.037.072-.078a.07.07 0 0 0-.044-.07a.07.07 0 0 0-.057 0a.07.07 0 0 0-.04.041a.1.1 0 0 0-.003.03c0 .04.03.076.072.076"/></g></svg>