<svg xmlns="http://www.w3.org/2000/svg" width="86" height="85" fill="none" viewBox="0 0 86 85"><g fill="#000" clip-path="url(#clip0_4556_4141)"><path d="M85.417 36.82a31.866 31.866 0 0 0-5.064-6.753l-.028-.03-.536-.536a31.209 31.209 0 0 0-4.127-3.376l-.315-.215c-.036-.028-.078-.05-.114-.078V25.424c-.029-1.696-.2-3.391-.494-5.03l-.035-.2c-.036-.193-.072-.379-.108-.558v-.028a31.76 31.76 0 0 0-2.503-7.411 21.15 21.15 0 0 0-.45-.902l-.172-.329-.35-.129a16.74 16.74 0 0 0-.952-.336c-1.159-.4-2.353-.73-3.533-.987a31.334 31.334 0 0 0-3.67-.58 31.523 31.523 0 0 0-6.694.043c-.02-.028-.042-.057-.07-.078a31.975 31.975 0 0 0-4.342-4.2l-.015-.014a32.26 32.26 0 0 0-7.68-4.542L43.827 0l-.343.121c-.265.093-.615.215-.952.35a31.99 31.99 0 0 0-6.55 3.449l-.33.229a6.27 6.27 0 0 0-.322.236 32.033 32.033 0 0 0-4.427 3.863 31.68 31.68 0 0 0-5.321-.45c-.257-.001-.53 0-.801.013a31.834 31.834 0 0 0-8.833 1.46l-.343.114-.186.308c-.165.272-.33.565-.508.88a32.127 32.127 0 0 0-2.832 6.946c-.072.265-.136.522-.2.78a31.833 31.833 0 0 0-.887 5.708 32.37 32.37 0 0 0-4.406 3.112c-.207.172-.408.344-.615.522a32.02 32.02 0 0 0-5.214 5.902l-.021.029c-.2.286-.38.558-.544.822L0 34.703l.057.365c.057.358.122.687.179 1.009a32.108 32.108 0 0 0 2.332 7.218l.014.028c.114.244.229.48.343.716l.165.336a31.974 31.974 0 0 0 2.775 4.5 32.213 32.213 0 0 0-1.395 5.322v.014l-.129.78a31.727 31.727 0 0 0-.186 7.769c.036.336.072.68.115 1.002l.05.364.279.244c.264.228.522.443.78.65l.035.03a31.722 31.722 0 0 0 6.501 4.048l.086.043c.093.043.179.086.28.129l.371.164a31.893 31.893 0 0 0 5.285 1.782 31.58 31.58 0 0 0 2.403 5.064l.1.165.322.537a31.873 31.873 0 0 0 4.792 5.973c.258.25.508.486.737.694l.272.257h1.387a31.538 31.538 0 0 0 3.584-.272 31.5 31.5 0 0 0 3.576-.686l.472-.122c.257-.071.507-.136.765-.215a32.451 32.451 0 0 0 5.185-2.024c.036.022.072.043.107.057l.093.05a32.508 32.508 0 0 0 4.964 2.247c.129.043.25.085.379.136l.386.128c2.41.787 4.914 1.28 7.453 1.474l.508.036c.164.007.336.021.507.028l.372.015.286-.236a32.032 32.032 0 0 0 5.614-5.938l.28-.393v-.015c.157-.214.307-.429.45-.65a33.5 33.5 0 0 0 1.574-2.626l.178-.344c.286-.55.565-1.123.83-1.716l.064-.136c.022-.043.036-.086.058-.13.021 0 .035 0 .057-.006.021 0 .036 0 .057-.007.05-.008.107-.022.157-.029.13-.022.25-.05.372-.072a32.357 32.357 0 0 0 4.82-1.38l.373-.143.379-.15a31.982 31.982 0 0 0 6.666-3.663l.414-.3.694-.537.065-.35c.035-.165.064-.33.093-.502l.085-.5c.386-2.49.48-5.022.28-7.526a30.603 30.603 0 0 0-.508-3.656 36.272 36.272 0 0 0-.53-2.239l-.043-.143-.043-.143c-.021-.086-.05-.171-.071-.257l.214-.258.093-.114.093-.115a31.923 31.923 0 0 0 2.582-3.77l.186-.322a31.982 31.982 0 0 0 3.175-7.87l.122-.492c.036-.136.065-.272.093-.408l.1-.45-.178-.323-.015-.028Zm-12.952-9.53.236.123.021.021v.064l-.021.15-.086.759v.079a29.975 29.975 0 0 1-.915 5.25l-.122.444c-.086.307-.186.637-.308 1.009a26.37 26.37 0 0 1-.715 1.945 32.992 32.992 0 0 0-6.015-4.249h-.014a5.683 5.683 0 0 0-.336-.193l-.207-.107-.05-.029-.044-.021-.507-.258.05-.537c.028-.3.05-.543.064-.772a33.026 33.026 0 0 0-.207-7.09c.837.158 1.666.358 2.474.587l.15.043c.373.107.68.208.98.3a28.67 28.67 0 0 1 4.871 2.118l.565.286.136.072v.007ZM64.06 45.756l-1.738 1.767 1.173 2.968a30.06 30.06 0 0 1 1.702 6.417l.022.15c.014.108.028.222.05.344a29.989 29.989 0 0 1-6.845 1.517l-.179.014a5.922 5.922 0 0 1-.4.035l-2.76.194-.759 2.403-.221.666-.086.243a30.544 30.544 0 0 1-2.654 5.637l-.05.086c-.086.15-.186.307-.3.48l-.38-.151A29.88 29.88 0 0 1 44.7 65.37c-.1-.064-.185-.129-.278-.193l-.25-.172-2.125-1.545-2.131 1.395c-.158.107-.336.215-.565.358a30.263 30.263 0 0 1-5.9 2.747h-.022a9.527 9.527 0 0 1-.587.2c-.043-.072-.078-.143-.121-.215l-.093-.178a30.178 30.178 0 0 1-2.496-6.195l-.036-.122-.107-.4-.651-2.64-1.903-.236c-.314-.036-.629-.08-.944-.122-.121-.014-.243-.036-.364-.05-1.08-.165-2.16-.4-3.219-.687a30.237 30.237 0 0 1-2.982-.973l-.15-.057c-.172-.064-.344-.136-.523-.208a17.7 17.7 0 0 1 .108-.529l.093-.415a29.703 29.703 0 0 1 1.966-5.859c.043-.1.122-.257.186-.393l.015-.029c.171-.365.307-.73.429-1.051l.636-1.696-1.251-1.266-.322-.336a32.946 32.946 0 0 1-2.525-3.162 29.14 29.14 0 0 1-1.623-2.619l-.122-.228-.193-.365c0-.014-.014-.029-.021-.043l.071-.057.458-.365a29.595 29.595 0 0 1 5.128-3.22l.436-.207c.2-.1.38-.179.558-.257l2.21-.98V30.217a4.63 4.63 0 0 1-.021-.422v-.079a30.145 30.145 0 0 1 .536-6.324l.107-.53c.015-.085.036-.17.058-.257.221 0 .457.007.743.022l.408.014a30.58 30.58 0 0 1 5.929.916c.25.064.458.121.644.171l2.489.737 1.673-2.26s.057-.072.086-.115l.25-.3a30.524 30.524 0 0 1 4.456-4.457l.372-.293c.064-.058.136-.108.2-.158l.05.043c.143.122.286.25.45.4l.065.058a30.07 30.07 0 0 1 4.242 4.779l.135.186.015.014c.078.107.157.222.236.343l1.38 2.09 2.446-.509c.107-.021.215-.043.315-.071a30.26 30.26 0 0 1 7.26-.637h.056c.079 0 .158 0 .236.007.036.193.065.415.108.68.293 2.117.357 4.292.186 6.46v.114l-.008.022c-.007.157-.028.343-.05.58l-.25 2.531 2.224 1.117s.065.035.1.057l.544.293a30.129 30.129 0 0 1 5.128 3.563l.393.35c.093.079.18.157.265.236-.086.15-.186.308-.3.5-1.638 2.67-3.812 4.908-4.056 5.159-.207.214-.379.379-.486.486l-.021.022h-.022Zm-41.518-15.96v.021c0 .179 0 .38.015.608v.694l-.472.208c-.215.093-.437.2-.68.314l-.422.2a32.839 32.839 0 0 0-5.357 3.32c-.207-.637-.4-1.288-.565-1.939l-.028-.114a28.672 28.672 0 0 1-.83-6.302l-.043-1.066.951-.437h.015a28.94 28.94 0 0 1 5.414-1.953c.336-.086.68-.164 1.037-.236.515-.107 1.03-.207 1.545-.286a32.78 32.78 0 0 0-.587 6.953l.007.015ZM61.951 11.76c.25.022.48.036.701.065h.022c1.123.114 2.245.286 3.34.529a28.98 28.98 0 0 1 3.211.894h.022c.05.022.092.043.142.057.022.05.043.1.072.158a28.803 28.803 0 0 1 2.26 6.674l.014.086.13.665.106.644c.122.773.208 1.567.265 2.354a32.241 32.241 0 0 0-4.434-1.846 24.507 24.507 0 0 0-1.116-.343l-.114-.036h-.022a30.775 30.775 0 0 0-3.49-.787 29.796 29.796 0 0 0-1.001-2.912v-.021c-.143-.33-.286-.687-.465-1.087a32.488 32.488 0 0 0-2.875-5.151c1.08-.043 2.16-.021 3.232.057Zm-6.544.293.015.015h.02l.537.801.043.057a29.087 29.087 0 0 1 2.904 5.1v.022c.143.3.258.573.358.83l.057.136c.214.55.422 1.102.6 1.66a33.387 33.387 0 0 0-7.337.608l-.515.107c-.08.022-.165.036-.25.057l-.523.108-.293-.444c-.15-.222-.286-.422-.43-.615v-.014a33.244 33.244 0 0 0-4.555-5.144c.63-.343 1.273-.672 1.917-.966l.472-.207c.279-.122.586-.25.98-.408l.136-.05a29.089 29.089 0 0 1 4.856-1.416l1.023-.23-.015-.007ZM37.02 6.738l.014-.014c.086-.064.172-.129.265-.186l.322-.222a29.158 29.158 0 0 1 5.95-3.133h.022c.05-.029.093-.043.143-.064.05.021.107.05.157.071a29.38 29.38 0 0 1 6.08 3.713l.042.036c.2.164.401.322.573.472a29.615 29.615 0 0 1 2.346 2.203 30.955 30.955 0 0 0-4.606 1.43l-.029.015c-.415.165-.751.308-1.059.444l-.5.221-.079.036c-.958.444-1.917.944-2.832 1.488a32.898 32.898 0 0 0-2.596-1.566l-.072-.043c-.314-.165-.65-.344-1.051-.544l-.029-.014a32.423 32.423 0 0 0-5.743-2.154 29.182 29.182 0 0 1 2.682-2.196v.007Zm-5.364 5.501.651-.844.973.28.05.014a29.005 29.005 0 0 1 5.485 2.031l.15.072c.18.093.351.179.508.257l.3.165c.459.243.909.5 1.352.772l-.114.093a33.142 33.142 0 0 0-4.978 4.987l-.179.214-.157.2-.472.63-.53-.157a33.335 33.335 0 0 0-7.252-1.202h-.15c.294-.758.63-1.502.987-2.232.158-.322.322-.644.494-.959l.036-.064a29.18 29.18 0 0 1 2.839-4.256h.007Zm-16.957 6.754c.057-.215.114-.465.185-.709a29.076 29.076 0 0 1 2.575-6.316l.086-.15c.057-.015.114-.03.165-.05a28.75 28.75 0 0 1 7.13-1.06h.05c.23-.007.472-.014.687-.014 1.144 0 2.288.072 3.433.208a32.102 32.102 0 0 0-2.775 4.27v.015c-.193.343-.372.694-.537 1.03a29.736 29.736 0 0 0-1.487 3.527v.014c-.1.007-.2.021-.3.036-.973.114-1.939.272-2.897.48-.394.078-.78.17-1.152.264-1.988.5-3.94 1.195-5.8 2.067a27.8 27.8 0 0 1 .665-3.62l-.029.008ZM5.693 43.058l-.157-.322a9.898 9.898 0 0 1-.23-.48l-.078-.171a29.014 29.014 0 0 1-2.131-6.596c-.007-.05-.022-.107-.036-.164l.35-.508a28.906 28.906 0 0 1 4.478-4.994 28.985 28.985 0 0 1 3.426-2.604 32.245 32.245 0 0 0 .908 6.582v.014a33.69 33.69 0 0 0 1.03 3.355c.014.043.036.093.05.136.007.022.021.05.028.079-.028.028-.057.057-.085.093a30.468 30.468 0 0 0-2.153 2.51l-.35.466a32.493 32.493 0 0 0-3.319 5.559 28.469 28.469 0 0 1-1.73-2.955Zm8.118 23.7-.35-.157c-.08-.036-.151-.065-.23-.108l-.093-.043a29.192 29.192 0 0 1-5.936-3.705l-.129-.108-.021-.178a28.792 28.792 0 0 1 .164-7.061v-.022c.036-.25.08-.5.115-.715v-.057c.207-1.13.48-2.26.815-3.37a31.961 31.961 0 0 0 4.241 3.992l.472.358c.158.121.315.236.48.35.872.63 1.788 1.224 2.725 1.767.085.05.178.1.264.15v.094a31.32 31.32 0 0 0-.028 3.476c.014.372.043.766.071 1.166a32.57 32.57 0 0 0 .916 5.416 28.812 28.812 0 0 1-3.476-1.26v.015Zm4.963-18.678a33.084 33.084 0 0 0-2.16 6.438l-.021.114c-.53-.329-1.044-.68-1.545-1.044l-.422-.308-.45-.343a29.464 29.464 0 0 1-3.949-3.727l-.715-.787.437-.916.021-.043a28.91 28.91 0 0 1 2.79-4.828l.3-.422.343-.451c.365-.472.744-.93 1.137-1.374.5.895 1.059 1.789 1.66 2.647a33.618 33.618 0 0 0 2.267 2.898c.171.2.343.386.515.572l.25.264.079.08c-.1.271-.208.55-.322.793-.072.15-.158.33-.208.444l-.007-.007Zm1.724 20.688-.229-.887-.036-.143a29.582 29.582 0 0 1-.951-5.344v-.014c-.029-.372-.05-.737-.072-1.073a29.642 29.642 0 0 1-.014-2.11c.973.364 1.967.686 2.968.958 1.159.315 2.353.565 3.54.751.13.022.258.036.394.057.308.043.608.086.908.122l.15.615s0 .029.008.036l.014.057c.05.193.093.372.15.558a32.911 32.911 0 0 0 2.64 6.625 29.027 29.027 0 0 1-2.84.257 29.372 29.372 0 0 1-5.579-.315l-1.051-.136v-.014Zm15.005 11.038c-.222.065-.45.13-.665.186l-.458.122c-1.073.272-2.167.48-3.247.615a29.174 29.174 0 0 1-3.261.25H27.7c-.043-.035-.079-.078-.129-.121a29.204 29.204 0 0 1-4.355-5.423c-.1-.157-.193-.314-.286-.472l-.093-.157a29.389 29.389 0 0 1-1.53-2.99c1.966.286 3.969.393 5.935.314a31.783 31.783 0 0 0 4.549-.515 30.09 30.09 0 0 0 2.303 2.797 32.25 32.25 0 0 0 4.713 4.192c-1.08.466-2.188.866-3.318 1.195l.014.007Zm7.33-3.047c-.285.179-.564.365-.836.536l-.808-.586-.057-.043a28.781 28.781 0 0 1-4.156-3.477 18.817 18.817 0 0 1-.73-.765 29.118 29.118 0 0 1-1.544-1.817 32.757 32.757 0 0 0 6.809-3.313l.45-.3.458.336c.043.029.079.058.122.086h.007c.157.122.314.229.486.35a32.701 32.701 0 0 0 6.458 3.441c-.393.444-.8.873-1.215 1.288l-.48.465a29.19 29.19 0 0 1-4.92 3.756l-.058.036.015.007Zm19.254-3.563-.171.322c-.43.794-.909 1.596-1.43 2.382-.144.208-.287.415-.416.608l-.25.358a28.882 28.882 0 0 1-4.398 4.8c-.043.036-.08.072-.122.108l-.193-.015a29.27 29.27 0 0 1-6.745-1.33l-.379-.13a28.636 28.636 0 0 1-3.204-1.31 31.929 31.929 0 0 0 4.606-3.504c.143-.135.286-.264.43-.4l.428-.408a32.18 32.18 0 0 0 2.246-2.46c1.137.278 2.31.5 3.483.657l.572.072c.194.021.387.043.58.057 1.652.157 3.347.179 5.02.079l-.064.129.007-.015Zm3.626-11.202-.043.479a29.613 29.613 0 0 1-1.402 6.51l-.278.915-.022.08-.021.028-.4.028-.573.036h-.079a28.044 28.044 0 0 1-5.478 0h-.114c-.15-.021-.28-.036-.394-.05l-.558-.064a27.693 27.693 0 0 1-2.424-.43 32.967 32.967 0 0 0 2.953-6.36v-.02c.086-.237.165-.473.244-.716l.157-.508.565-.043h.129c.207-.021.407-.036.586-.057h.022a32.899 32.899 0 0 0 7.18-1.517c.015 0 .029-.007.043-.014a32.804 32.804 0 0 1-.085 1.695l-.008.008Zm.501-12.57-.48-1.209.38-.386c.107-.107.3-.293.536-.536.436-.444 2.697-2.797 4.463-5.673l.043-.065c.43.53.844 1.08 1.23 1.632l.25.364c.208.3.394.587.573.873l.214.343a30.075 30.075 0 0 1 2.253 4.564l.28.651.056.136.058.136.021.05-.021.022-.072.064-.107.1-.108.108-.4.379-.072.064A29.708 29.708 0 0 1 71 54.647c-.286.193-.58.393-.887.58-.658.414-1.345.815-2.046 1.172a33.155 33.155 0 0 0-1.86-6.996l.008.022Zm10.771 14.887-.05.33-.15.107a29.098 29.098 0 0 1-6.05 3.32h-.022c-.108.056-.2.092-.294.128l-.364.136c-.909.343-1.846.636-2.797.887a31.905 31.905 0 0 0 1.316-6.474l.043-.501c.079-.944.114-1.91.1-2.876a32.217 32.217 0 0 0 3.927-2.303 32.318 32.318 0 0 0 4.005-3.248c.036.157.064.315.1.472.172.873.308 1.745.393 2.604.022.172.043.393.058.6v.13a28.24 28.24 0 0 1-.222 6.681l.007.007Zm5.471-26.533a29.422 29.422 0 0 1-2.532 6.503c-.114.207-.207.386-.293.537l-.236.407c-.429.73-.887 1.438-1.38 2.132a32.704 32.704 0 0 0-2.332-4.471l-.035-.057c-.18-.286-.372-.58-.58-.894l-.021-.036A34.876 34.876 0 0 0 72.9 39.08c.43-.973.816-1.981 1.145-2.997.135-.408.243-.773.343-1.116l.129-.465a32.8 32.8 0 0 0 .922-4.936 30.134 30.134 0 0 1 2.339 2.031l.5.501.315.322a28.782 28.782 0 0 1 3.827 5.015c.028.05.064.1.093.15l-.043.186-.015.007Z"/><path fill-rule="evenodd" d="M45.751 45.321c-.92.92-1.907 1.73-2.946 2.431a19.941 19.941 0 0 1-2.946-2.431c-.92-.92-1.73-1.907-2.431-2.946a19.936 19.936 0 0 1 2.431-2.947c.92-.92 1.907-1.73 2.946-2.43a19.935 19.935 0 0 1 2.947 2.43c.92.92 1.73 1.907 2.43 2.947a19.941 19.941 0 0 1-2.43 2.946Z" clip-rule="evenodd"/></g><defs><clipPath id="clip0_4556_4141"><path fill="#fff" d="M0 0h85.61v84.75H0z"/></clipPath></defs></svg>