<svg xmlns="http://www.w3.org/2000/svg" width="202" height="32" fill="none" viewBox="0 0 202 32"><g fill="#000" clip-path="url(#clip0_576_7616)"><path d="m56.729 1.024-.112 4.665-.025.835-.412-.723c-1.006-1.784-2.395-3.168-4.132-4.137C50.348.7 48.426.21 46.335.21c-2.636 0-5.055.71-7.184 2.1-2.137 1.4-3.87 3.313-5.155 5.687-1.24 2.37-1.871 5.114-1.871 8.149 0 3.035.59 5.733 1.759 8.107 1.164 2.328 2.798 4.199 4.851 5.558 2.087 1.314 4.486 1.983 7.122 1.983 4.686 0 8.157-1.879 10.327-5.592l.408-.698.025.81.112 4.64h6.74V1.023h-6.74Zm-2.307 21.872c-1.626 1.788-3.763 2.69-6.353 2.69s-4.744-.902-6.41-2.686c-1.643-1.804-2.441-4.053-2.441-6.872s.823-5.138 2.44-6.872c1.663-1.784 3.82-2.69 6.41-2.69 2.591 0 4.728.906 6.354 2.69 1.617 1.738 2.436 4.05 2.436 6.872 0 2.823-.82 5.093-2.436 6.868ZM86.862 1.126l-.61 6.602A10.737 10.737 0 0 0 82.68 7.1c-2.424 0-4.32.903-5.638 2.67-1.305 1.708-1.962 4.174-1.962 7.33v13.848H68V1.035h6.785l.054 5.824.013 1.277.436-1.202c.74-2.02 1.838-3.6 3.28-4.685 1.43-1.119 3.114-1.692 5.01-1.692.624 0 1.256.062 1.875.174.578.104 1.048.237 1.414.395h-.005ZM119.693 1.047 107.956 30.95h-7.512L88.704 1.047h7.952l7.584 22.625.108.324.108-.324 7.766-22.625h7.471ZM143.905 1.02l-.133 4.669-.017.835-.412-.723c-1.01-1.784-2.398-3.168-4.132-4.137C137.51.7 135.59.21 133.499.21c-2.64 0-5.056.71-7.185 2.1-2.136 1.4-3.874 3.313-5.155 5.687-1.243 2.37-1.875 5.114-1.875 8.149 0 3.035.595 5.737 1.759 8.107 1.164 2.328 2.802 4.199 4.856 5.558 2.087 1.314 4.481 1.983 7.121 1.983 4.682 0 8.157-1.879 10.319-5.592l.412-.698.016.81.121 4.64h6.735l.013-29.925h-6.735l.004-.008Zm-2.333 21.872c-1.621 1.788-3.758 2.69-6.352 2.69-2.595 0-4.744-.902-6.411-2.686-1.642-1.804-2.436-4.053-2.436-6.872s.819-5.139 2.436-6.872c1.663-1.784 3.821-2.69 6.411-2.69 2.59 0 4.731.906 6.352 2.69 1.618 1.738 2.437 4.05 2.437 6.872 0 2.823-.819 5.093-2.437 6.868ZM201.773 12.858v18.09h-7.051V14.233c0-5.18-2.025-7.807-6.02-7.807-2.129 0-3.817.752-5.014 2.232-1.143 1.43-1.721 3.488-1.721 6.116V30.95h-6.997V14.176c0-5.143-2.004-7.75-5.958-7.75-2.133 0-3.821.753-5.014 2.233-1.185 1.426-1.779 3.484-1.779 6.116V30.95h-6.997V1.026h6.764l.054 4.382.012.973.424-.873a9.042 9.042 0 0 1 3.609-3.9c1.592-.931 3.455-1.401 5.55-1.401 4.49 0 7.588 1.979 9.213 5.883l.208.495.216-.487c.815-1.82 2.108-3.272 3.85-4.315C186.864.73 188.851.207 191.03.207c3.455 0 6.124 1.098 7.941 3.26 1.858 2.132 2.802 5.296 2.802 9.391ZM29.963 22.035c0 3.575-1.659 6.26-4.93 7.974C21.892 31.655 18.051 32 15.377 32c-5.18 0-9.117-.99-11.699-2.944C1.285 27.244.05 24.616.004 21.25v-.104L0 20.937h7.35l.009.2v.095c.158 3.538 3.076 5.488 8.227 5.488 2.112 0 7.018-.395 7.018-4.058 0-2.956-4.003-3.513-8.635-4.165C7.754 17.627.711 16.638.711 9.508.71 3.468 5.604 0 14.13 0c9.122 0 14.248 3.363 14.834 9.728l.008.113.021.228h-7.363l-.016-.19-.009-.092c-.2-2.179-2.19-4.507-7.184-4.507-4.257 0-6.598 1.339-6.598 3.77 0 2.707 3.87 3.181 8.357 3.734 3.064.374 6.535.803 9.184 2.054 3.093 1.463 4.598 3.82 4.598 7.197Z"/></g><defs><clipPath id="clip0_576_7616"><path fill="#fff" d="M0 0h201.773v32H0z"/></clipPath></defs></svg>