<svg version="1.1" viewBox="0 0 64 64" xmlns="http://www.w3.org/2000/svg">
 <g transform="matrix(.92138 0 0 .92138 9 33.134)">
  <g transform="translate(.13567 3.256)" fill="#1a1a1a">
   <path d="m-3.2559-26.193c-1.7184 0-3.273 0.86831-4.168 2.043-0.89498 1.1747-1.2598 2.5627-1.2598 3.9258 0 1.3631 0.36479 2.7531 1.2598 3.9277 0.89498 1.1747 2.4495 2.043 4.168 2.043h8.6816c0.45222 0 0.52645 0.0822 0.7168 0.33203 0.19035 0.24984 0.36914 0.75872 0.36914 1.2949 0 0.5362-0.17879 1.047-0.36914 1.2969-0.19035 0.24984-0.26458 0.33203-0.7168 0.33203h-13.023a2.1707 2.1707 0 0 0-2.1699 2.1699 2.1707 2.1707 0 0 0 2.1699 2.1719h13.023c1.7184 0 3.2749-0.86831 4.1699-2.043 0.89498-1.1747 1.2578-2.5646 1.2578-3.9277 0-1.3631-0.36284-2.7511-1.2578-3.9258-0.89498-1.1747-2.4515-2.043-4.1699-2.043h-8.6816c-0.45222 0-0.52449-0.0822-0.71484-0.33203-0.19035-0.24984-0.37109-0.76067-0.37109-1.2969 0-0.5362 0.18074-1.0451 0.37109-1.2949 0.19035-0.24984 0.26262-0.33203 0.71484-0.33203h13.023a2.1707 2.1707 0 0 0 2.1719-2.1699 2.1707 2.1707 0 0 0-2.1719-2.1719z" stop-color="#000000"/>
   <path d="m24.902-26.191a2.1709 2.1709 0 0 0-1.8809 1.1992l-7.5977 15.193a2.1707 2.1707 0 0 0 0.9707 2.9121 2.1707 2.1707 0 0 0 2.9121-0.9707l5.7832-11.566 6.6699 11.674a2.1707 2.1707 0 0 0 2.9629 0.80664 2.1707 2.1707 0 0 0 0.80664-2.9609l-8.6816-15.195a2.1709 2.1709 0 0 0-1.9453-1.0918z" stop-color="#000000"/>
   <path d="m34.73-26.193a2.1707 2.1707 0 0 0-2.1699 2.1719 2.1707 2.1707 0 0 0 2.1699 2.1699h19.535a2.1707 2.1707 0 0 0 2.1719-2.1699 2.1707 2.1707 0 0 0-2.1719-2.1719z" stop-color="#000000"/>
   <path d="m44.652-26.188a2.1707 2.1707 0 0 0-2.3184 2.0098l-1.0859 15.195a2.1707 2.1707 0 0 0 2.0098 2.3203 2.1707 2.1707 0 0 0 2.3203-2.0117l1.0859-15.193a2.1707 2.1707 0 0 0-2.0117-2.3203z" stop-color="#000000"/>
   <path d="m14.453-1.7793a2.1707 2.1707 0 0 0-3.0625 0.20508 2.1707 2.1707 0 0 0 0.20312 3.0625l6.7031 5.8652-7.6914 5.9824a2.1707 2.1707 0 0 0-0.38086 3.0469 2.1707 2.1707 0 0 0 3.0469 0.38086l9.7676-7.5977a2.1709 2.1709 0 0 0 0.09766-3.3477z" stop-color="#000000"/>
   <path d="m31.629-2.3105a2.1707 2.1707 0 0 0-2.3203 2.0117l-1.084 15.193a2.1707 2.1707 0 0 0 2.0098 2.3203 2.1707 2.1707 0 0 0 2.3203-2.0117l1.084-15.193a2.1707 2.1707 0 0 0-2.0098-2.3203z" stop-color="#000000"/>
   <path d="m40.156-2.3164a2.1707 2.1707 0 0 0-2.1699 2.1719 2.1707 2.1707 0 0 0 2.1699 2.1699h13.025c0.77782 0 1.0861 0.21779 1.3848 0.57617s0.51367 0.96064 0.51367 1.5938-0.21502 1.2373-0.51367 1.5957c-0.29865 0.35838-0.60695 0.57617-1.3848 0.57617h-13.025a2.1709 2.1709 0 0 0-2.1406 1.8125l-1.084 6.5137a2.1707 2.1707 0 0 0 1.7832 2.498 2.1707 2.1707 0 0 0 2.498-1.7852l0.7832-4.6973h11.186c1.9355 0 3.6607-0.86906 4.7188-2.1387s1.5215-2.8375 1.5215-4.375-0.46348-3.1034-1.5215-4.373c-1.058-1.2696-2.7832-2.1387-4.7188-2.1387z" stop-color="#000000"/>
  </g>
 </g>
</svg>
