<svg xmlns="http://www.w3.org/2000/svg" viewBox="0 0 24 24"><g fill="none"><path fill="url(#SVGHPxEUdcs)" d="M14.463 3.017a6 6 0 0 0-.748.146l-.332.068q-.523.117-1.052.202a3 3 0 0 1-.444.057a2.6 2.6 0 0 0-.788.185c-.327.119-.67.19-1.018.214a.4.4 0 0 0-.163.034a1 1 0 0 1-.19.062a4 4 0 0 0-.766.264a5.3 5.3 0 0 0-.838.422c-.214.14-.248.169-.456.36c-.067.056-.129.112-.202.157a8.4 8.4 0 0 0-1.04.777c-.113.112-.226.236-.27.27c-.068.067-.158.213-.293.478c-.04.078-.096.18-.13.225c-.061.084-.067.095-.033.157c.017.034.028.107.028.242c0 .36.028.697.056.765c.034.084.101.118.276.135c.208.022.298.073.298.163c0 .034.028.079.09.146c.112.124.118.13.157.118a.2.2 0 0 1 .09.017c.057.023.08.073.085.169c.005.13.005.13.062.152l.14.028c.13.017.197.04.248.09c.033.04.073.056.157.067c.118.023.18.045.326.147c.124.084.152.123.152.225c0 .073.012.095.056.152c.057.078.085.084.18.045c.074-.034.237-.04.287-.012c.023.012.062.068.09.13a.8.8 0 0 0 .107.163c.09.084.23.174.304.197l.191.056c.101.023.14.028.158.011c.022-.022.416-.022.523 0c.157.084.329.137.506.158a2.4 2.4 0 0 1 .4.1c.072.03.404.142.596.198c.05.017.14.028.208.028c.079 0 .135.011.197.045l.225.079l.202.056a.6.6 0 0 0 .152.04a.6.6 0 0 1 .146.039l.152.061l.18.074a1 1 0 0 0 .203.073q.263.069.517.168q.319.094.624.226c.265.129.495.23.507.23q.242.106.455.264c.242.186.332.293.4.45c.016.034.039.051.084.057c.112.022.124.028.208.157c.13.203.124.383-.017.619c-.157.264-.332.394-.967.714c-.085.045-.18.101-.203.124a.6.6 0 0 1-.112.079q-.26.128-.518.258l-.124.057l-.14.067l-.934.377l-.27.107c-.107.04-.23.084-.281.096a.5.5 0 0 0-.146.067a.7.7 0 0 1-.197.09l-.304.101l-.371.118q-.42.12-.833.253l-.9.282c-.348.112-.562.185-1.44.506c-.62.222-1.219.5-1.788.832c-.51.265-.96.628-1.328 1.07c-.157.145-.32.348-.32.393c0 .028-.045.101-.113.18a.3.3 0 0 0-.056.09q-.134.215-.23.45c-.012.039-.006.05.039.073c.056.034.056.056.028.13c-.011.027.073.067.157.067c.074 0 .102.039.096.152c0 .045 0 .095.011.1c.034.018.017.057-.039.096a.17.17 0 0 0-.073.102l-.023.073l.085-.012c.095-.01.135.017.135.113l.005.146v.085l.09.01q.129.017.383-.112a.4.4 0 0 1 .18-.033c.112 0 .124 0 .22-.079a.5.5 0 0 0 .1-.084c0-.023.124-.073.17-.073c.044 0 .044.016 0 .061l-.035.04l.057.028c.039.017.084.028.1.022h.063c.033.029.011.079-.101.225c-.135.18-.113.18.112.006c.096-.073.197-.124.197-.09a.14.14 0 0 1-.028.045c-.034.045-.034.062 0 .062c.017 0 .033-.017.045-.034c.022-.045.112-.084.185-.084c.045 0 .057 0 .045.034c-.017.039-.017.039.096-.012c.09-.04.27-.157.343-.225a.4.4 0 0 1 .101-.056q.168-.06.327-.14c.033 0 .005.056-.04.084c-.04.028-.045.045-.034.061c.017.023.034.017.113-.022c.152-.079.225-.084.146-.011c-.022.017-.034.04-.034.056a.5.5 0 0 1-.135.152l-.123.135c.01.011.157-.056.19-.084q.286-.2.603-.344c.18-.067.332-.14.393-.196c.034-.04.068-.051.147-.057q.099-.001.09-.028c0-.011 0-.028.017-.04c.056-.038.405-.14.506-.14c.034 0 .034 0 .022.028q-.033.059.034.057c.04 0 .04.022 0 .056c-.04.04-.27.146-.343.163c-.073.011-.242.096-.242.113c0 .022.113 0 .23-.046c.198-.073.49-.151.507-.14c.011.017-.023.045-.079.073c-.079.04-.079.068.011.068c.08 0 .08.022.012.073c-.045.033-.045.039-.023.039c.079 0 .248-.05.293-.084a.5.5 0 0 1 .146-.062c.112-.034.242-.102.242-.124c0-.011-.045-.017-.102-.022a.3.3 0 0 1-.112-.023a.3.3 0 0 0-.135 0c-.084 0-.113 0-.113-.011c0-.034.102-.073.214-.079c.068 0 .101-.011.096-.023c-.011-.028.169-.09.315-.112q.126-.01.169-.045c.039-.045.14-.073.242-.073q.066 0 .1-.034c.046-.05.147-.09.282-.112l.225-.057a1 1 0 0 1 .18-.056c.107-.028.09-.056-.028-.056c-.056.011-.096 0-.101-.011c-.006-.017.073-.051.264-.113a.5.5 0 0 0 .146-.056l.13-.056a.4.4 0 0 0 .106-.04c.133-.06.277-.095.422-.101a.8.8 0 0 0 .197-.023l.253-.028a1.3 1.3 0 0 0 .208-.033a.1.1 0 0 1 .057-.023q.035 0-.023-.017a.2.2 0 0 0-.079-.005c-.039 0-.073 0-.112-.011l-.14-.029c-.04 0-.068-.017-.068-.022c0-.023.197-.079.31-.096l.247-.067c.09-.034.185-.062.202-.062q.306-.146.641-.197c.113-.017.197-.045.225-.056c.056-.045.158-.079.507-.163q.39-.13.798-.17a.4.4 0 0 1 .14-.01c.057.01.08-.012.04-.04c-.04-.022.017-.067.203-.157c.23-.113.348-.146.489-.146a.7.7 0 0 0 .169-.017a5 5 0 0 0 .742-.315a.3.3 0 0 0 .107-.057q.216-.15.416-.32a.6.6 0 0 0 .124-.073c.079-.057.113-.085.118-.124c.023-.096.214-.203.383-.203c.084 0 .123-.005.157-.033l.04-.034h-.124c-.096.006-.13 0-.135-.017c-.011-.028.135-.169.208-.197c.04-.017.056-.04.056-.056c0-.022.023-.056.04-.067l.09-.09a.4.4 0 0 1 .095-.068c.04-.011.045-.04.011-.056c-.039-.011-.033-.05.006-.08a.15.15 0 0 0 .045-.072a.5.5 0 0 1 .045-.101c.034-.068.056-.197.028-.237c-.022-.039 0-.146.04-.18l.078-.056c.13-.079.18-.118.208-.18a.3.3 0 0 0 .034-.095q.045-.105.084-.209c.051-.095.175-.258.226-.28c.033-.018.045-.018.056 0c.017.022.005.129-.017.202q-.007.043.011.028c.011 0 .017-.028.017-.045c0-.023.022-.056.056-.085q.068-.066.068-.258c-.012-.282 0-.35.04-.428c.055-.101.055-.112 0-.169c-.035-.039-.04-.056-.023-.084c.028-.062 0-.112-.057-.107c-.078.017-.112-.017-.14-.14l-.034-.113l.045-.056c.05-.056.056-.068.045-.13c0-.022.022-.073.05-.112a.22.22 0 0 0 .046-.169a.3.3 0 0 0-.029-.123a.2.2 0 0 1-.033-.096a.3.3 0 0 0-.04-.118a.3.3 0 0 1-.045-.101a.6.6 0 0 0-.084-.186l-.034-.084a.5.5 0 0 0-.078-.124l-.203-.27a4.4 4.4 0 0 0-1.03-1.013c-.033-.056-.19-.174-.331-.253a3 3 0 0 1-.242-.168a4 4 0 0 0-.422-.282l-.225-.14l-.41-.242a23 23 0 0 0-2.34-1.204a7.6 7.6 0 0 0-1.271-.394q-.374-.074-.743-.168c-.242-.045-.377-.107-.377-.18c0-.017.023-.04.05-.057l.057-.033l-.056-.057c-.028-.028-.056-.067-.056-.078c0-.05.095-.113.32-.237q.35-.171.68-.376l.282-.17q.245-.154.506-.28c.085-.04.169-.08.242-.124a.7.7 0 0 1 .225-.096c.113 0 .203-.05.608-.32c.258-.17.309-.197.489-.26c.202-.072.247-.095.36-.168a3 3 0 0 1 .388-.225l.394-.225c.112-.095.225-.253.354-.517l.124-.191a.8.8 0 0 0 .107-.192c.022-.056.056-.146.09-.191c.061-.112.056-.169-.023-.388c-.079-.203-.124-.253-.242-.287c-.14-.04-.168-.056-.19-.112l-.04-.057c-.147.073-.214.085-.417.057a1.3 1.3 0 0 0-.247-.012a.47.47 0 0 1-.248-.039a4.5 4.5 0 0 0-1.063-.034zM8.973 9.92a.6.6 0 0 0 .135.062c.113.039.152.078.08.078a.3.3 0 0 1-.13-.056a.6.6 0 0 0-.163-.073c-.045-.011-.085-.028-.09-.04c-.006-.033.112-.01.168.029m1.305 1.051c-.056.012-.05.113.017.141c.09.045.383.073.563.062l.168-.011l-.112-.04a.6.6 0 0 1-.163-.084a.3.3 0 0 0-.09-.056a2.4 2.4 0 0 0-.383-.011m8.449.782c.056.028.084.073.146.253a.4.4 0 0 0 .056.124c.118.073.169.18.163.338c-.011.123-.05.135-.157.033a2 2 0 0 0-.13-.106a.2.2 0 0 1-.062-.068c-.033-.05-.078-.096-.118-.14a.7.7 0 0 1-.112-.141a.6.6 0 0 0-.034-.113c-.04-.1-.045-.18-.017-.208c.056-.04.163-.028.265.028m.337 1.047c0 .039-.056.056-.09.039c-.028-.023-.028-.096 0-.113c.028-.016.084.034.084.074zm.748.382c-.034.034-.022.079.017.073c.04-.011.056-.034.04-.067q-.017-.05-.057-.006m-.337.343c.022.023 0 .13-.034.158c-.04.033-.09 0-.113-.068c-.017-.067 0-.101.034-.112c.034-.012.09 0 .113.022m-.338.056c.05.057.045.057.017.135c-.023.073-.056.124-.084.113c-.023 0-.08-.169-.08-.22c0-.095.074-.112.142-.033zm-.191.45l-.011.113c0 .045-.017.067-.04.084c-.062.04-.078.017-.067-.084c.017-.107.056-.169.095-.169c.034 0 .034.006.023.056m-.186 2.2a.2.2 0 0 0-.067.073l-.068.112l-.033.062l.056-.034a.5.5 0 0 0 .112-.123c.079-.113.079-.13 0-.09m-3.29 1.31c0 .023-.056.034-.101.028q-.035-.01-.029-.028c.017-.017.13-.017.13 0m-.326.214c-.017.045-.192.09-.338.09c-.152 0-.197-.017-.112-.056c.118-.051.46-.073.45-.034m-.76.05c-.011.023-.112.04-.168.029l-.034-.006l.04-.017c.055-.028.18-.028.168-.005zm-1.192.09c-.006.029-.09.046-.135.034c-.034-.011-.034-.011 0-.034c.034-.028.146-.028.135 0m.573-.01c.034.005.062.022.062.033s.017.022.034.028l-.112.017a.4.4 0 0 1-.18 0a.2.2 0 0 0-.113-.011c-.09.011-.157-.023-.135-.056c.017-.023.332-.029.444-.012m.867.016c-.023.028-.118.034-.118.011c0-.022.039-.034.1-.039c.035 0 .035 0 .018.028m-.186.006c0 .045-.264.079-.405.056l-.084-.017l.101-.011l.169-.028c.079-.017.22-.017.22 0m-1.3.157c.136 0-.466.225-.702.27a2 2 0 0 1-.473 0c-.045-.011-.045-.011-.017-.034a.4.4 0 0 1 .118-.044l.282-.062c.495-.113.635-.147.686-.135zm.13.22l-.101.033c-.163.045-.338.023-.203-.022c.045-.023.321-.028.304-.012m-1.457.022c0 .011-.022.017-.033.017q-.026 0-.017-.017c.005-.011.022-.017.04-.017c.01 0 .016.006.01.017m-.495.191a.8.8 0 0 1-.27.085c-.073 0-.045-.023.073-.068c.102-.034.226-.045.197-.017m.248.034c-.056.045-.726.253-.76.236c-.033-.011.18-.095.35-.14c.095-.023.19-.056.224-.068a.6.6 0 0 1 .203-.056c.017 0 .011.006-.017.028m.99-.017c0 .028-.062.073-.146.096a.3.3 0 0 0-.113.062a1 1 0 0 1-.214.112c-.19.079-.208.079-.45.096c-.258.017-.337.005-.337-.045q.002-.027.045-.045a5.5 5.5 0 0 1 .922-.276c.135-.017.293-.022.293 0m-1.952.72a.16.16 0 0 1-.09.028c-.045 0-.05 0-.017-.028a.2.2 0 0 1 .085-.028c.056 0 .056 0 .022.028"/><defs><linearGradient id="SVGHPxEUdcs" x1="12" x2="12" y1="3" y2="21" gradientUnits="userSpaceOnUse"><stop stop-color="#4e4e4e"/><stop offset="1" stop-color="#0c0c0c"/></linearGradient></defs></g></svg>