<svg xmlns="http://www.w3.org/2000/svg" viewBox="0 0 448 512"><path fill="currentColor" d="m350.5 157.7l-54.2-46.1l73.4-39l78.3 44.2zM192 122.1l45.7-28.2l34.7 34.6l-55.4 29zm-65.1 6.6l31.9-22.1L176 135l-36.7 22.5zm-23.3 88.2l-8.8-34.8l29.6-18.3l13.1 35.3zm-21.2-83.7l23.9-18.1l8.9 24l-26.7 18.3zM59 206.5l-3.6-28.4l22.3-15.5l6.1 28.7zm-30.6 16.6l20.8-12.8l3.3 33.4l-22.9 12zM1.4 268l19.2-10.2l.4 38.2l-21 8.8zm59.1 59.3l-28.3 8.3l-1.6-46.8l25.1-10.7zM99 263.2l-31.1 13l-5.2-40.8L90.1 221zM123.2 377l-41.6 5.9l-8.1-63.5l35.2-10.8zm28.5-139.9l21.2 57.1l-46.2 13.6l-13.7-54.1zm85.7 230.5l-70.9-3.3l-24.3-95.8l55.2-8.6zm-84.9-279.7l42.2-22.4l28 45.9l-50.8 21.3zm41 94.9l61.3-18.7l52.8 86.6l-79.8 11.3zm51.4-85.6l67.3-28.8l65.5 65.4l-88.6 26.2z"/></svg>