<svg xmlns="http://www.w3.org/2000/svg" viewBox="0 0 24 24"><g fill="none"><path fill="url(#SVG7tWbg1DT)" d="M3 7.86v8.28a3.06 3.06 0 0 0 3.06 3.06h11.88A3.06 3.06 0 0 0 21 16.14V7.86a3.06 3.06 0 0 0-3.06-3.06H6.06A3.06 3.06 0 0 0 3 7.86"/><path fill="url(#SVGcWr2tbvE)" d="M7.5 8.4a.9.9 0 1 0-1.8 0a.9.9 0 0 0 1.8 0"/><path fill="url(#SVG1IMXMbRD)" d="M7.5 8.4a.9.9 0 1 0-1.8 0a.9.9 0 0 0 1.8 0"/><path fill="url(#SVGlXmcfbfs)" d="M7.5 8.4a.9.9 0 1 0-1.8 0a.9.9 0 0 0 1.8 0"/><path fill="url(#SVGhuc2he5r)" d="M7.5 15.594a.9.9 0 1 0-1.8 0a.9.9 0 0 0 1.8 0"/><path fill="url(#SVGgJnuxeNq)" d="M18.3 12a.9.9 0 1 0-1.8 0a.9.9 0 0 0 1.8 0"/><path fill="url(#SVGJvG7dbkG)" d="M18.3 12a.9.9 0 1 0-1.8 0a.9.9 0 0 0 1.8 0"/><path fill="url(#SVGp5BNQdDd)" d="M17.4 7.5h-7.2a.9.9 0 0 0 0 1.8h7.2a.9.9 0 1 0 0-1.8"/><path fill="url(#SVG5eWRbbhL)" d="M17.4 14.694h-7.2a.9.9 0 0 0 0 1.8h7.2a.9.9 0 1 0 0-1.8"/><path fill="url(#SVGi4jgzbJY)" d="M13.8 11.1H6.6a.9.9 0 1 0 0 1.8h7.2a.9.9 0 0 0 0-1.8"/><defs><linearGradient id="SVG7tWbg1DT" x1="12" x2="12" y1="4.8" y2="19.215" gradientUnits="userSpaceOnUse"><stop stop-color="#1d273d"/><stop offset="1" stop-color="#0d0f13"/></linearGradient><linearGradient id="SVGcWr2tbvE" x1="5.977" x2="7.2" y1="9.288" y2="7.653" gradientUnits="userSpaceOnUse"><stop stop-color="#4462fe"/><stop offset="1" stop-color="#7d69fa"/></linearGradient><linearGradient id="SVG1IMXMbRD" x1="5.858" x2="7.37" y1="9.301" y2="9.223" gradientUnits="userSpaceOnUse"><stop stop-color="#3757fd"/><stop offset="1" stop-color="#6980fa"/></linearGradient><linearGradient id="SVGlXmcfbfs" x1="5.858" x2="7.37" y1="9.301" y2="9.223" gradientUnits="userSpaceOnUse"><stop stop-color="#2447ff"/><stop offset="1" stop-color="#6980fa"/></linearGradient><linearGradient id="SVGhuc2he5r" x1="5.955" x2="7.156" y1="16.201" y2="14.928" gradientUnits="userSpaceOnUse"><stop stop-color="#bc3ee6"/><stop offset="1" stop-color="#d972f1"/></linearGradient><linearGradient id="SVGgJnuxeNq" x1="16.864" x2="17.974" y1="12.597" y2="11.415" gradientUnits="userSpaceOnUse"><stop stop-color="#29bdff"/><stop offset="1" stop-color="#96e7fb"/></linearGradient><linearGradient id="SVGJvG7dbkG" x1="16.645" x2="18.208" y1="12.888" y2="12.813" gradientUnits="userSpaceOnUse"><stop stop-color="#23bbff"/><stop offset="1" stop-color="#85e7ff"/></linearGradient><linearGradient id="SVGp5BNQdDd" x1="10.023" x2="17.43" y1="9.288" y2="7.511" gradientUnits="userSpaceOnUse"><stop stop-color="#23bbff"/><stop offset="1" stop-color="#85e7ff"/></linearGradient><linearGradient id="SVG5eWRbbhL" x1="10.091" x2="17.202" y1="16.495" y2="14.673" gradientUnits="userSpaceOnUse"><stop stop-color="#2447ff"/><stop offset="1" stop-color="#6980fa"/></linearGradient><linearGradient id="SVGi4jgzbJY" x1="6.909" x2="13.702" y1="12.914" y2="11.091" gradientUnits="userSpaceOnUse"><stop stop-color="#6634ff"/><stop offset="1" stop-color="#9c6dff"/></linearGradient></defs></g></svg>