<svg xmlns="http://www.w3.org/2000/svg" viewBox="0 0 24 24"><path d="M7.062 3L3 7.062l1.74 1.452C5.208 6.426 7.452 5.13 8.52 4.74L7.056 3zm9.582 0l-1.452 1.74c2.556 1.86 3.582 3.678 3.78 4.356L21 7.356zm0 17.712l-1.74-2.04c2.322-.462 3.48-2.898 3.774-4.062l2.034 2.04zM9.096 19.26L7.356 21l-4.068-4.062l1.452-1.452c.93 2.322 3.294 3.48 4.356 3.774"/><path fill-rule="evenodd" d="m12 7.2l3 1.32v6.36l-3 1.92l-3-1.92V8.52zM9.6 9.228v1.968l1.782-.984zm2.1 1.488l-1.824 1.008L11.7 12.93zm.6 2.22l1.824-1.212l-1.824-1.008zm2.1-.678l-2.4 1.59l-2.4-1.59v2.232L12 15.9l2.4-1.41zm0-1.062l-1.782-.984l1.782-.984zm-.372-2.448L12 9.87L9.972 8.748l2.028-.9z" clip-rule="evenodd"/></svg>