<svg width="1024" height="296" version="1.1" viewBox="-.72 -.72 88.074 25.44" xmlns="http://www.w3.org/2000/svg">
 <path d="m81.38 15.494 2.3413-6.6159h-4.5936l-2.3414 6.6159h-2.5838l2.3787-6.6159h-4.6185l-2.215 6.1207c-0.058 0.1679-0.0891 0.3315-0.1077 0.4952h-3.5763l4.747-13.308h-4.5046l-4.72 13.308h-3.9803l4.747-13.308h-4.5046l-4.72 13.308c-8e-3 0.0249-0.0124 0.0477-0.0186 0.0726h-7.1257c-1.0836 0-1.6244-0.3357-1.6244-1.0112 0-0.1409 0.029-0.2984 0.087-0.4745l1.0236-3.0085h2.7164l-1.6307 4.4942s3.2966-1.2598 4.3326-1.8089c0.951-0.5056 1.3281-1.3323 1.2867-2.2233-0.0497-0.8826-0.6071-1.5395-1.6721-1.9725-0.7998-0.3253-1.7281-0.48692-2.7848-0.48692h-1.8109c-1.6411 0-3.0542 0.38332-4.2456 1.1499-1.382 0.891-2.072 2.1197-2.072 3.684 0 0.6362 0.1389 1.1894 0.4144 1.6597h-4.2952l1.4193-4.057c0.1492-0.3999 0.3875-1.0608 0.3875-1.3675 0-0.8495-0.8268-1.0484-1.6597-1.0484-1.2494 0-2.3642 0.40404-3.3463 1.2121l-3.3939 2.791 3.7586-10.613h-4.4963l-5.3437 15.084h2.5735c0.6485 0 1.2639-0.2528 1.8482-0.7604l4.7324-3.8954-0.8992 2.6584c-0.1243 0.3833-0.1865 0.7086-0.1865 0.9738 0 0.6838 0.4704 1.0236 1.4111 1.0236h27.257c0.6113 0 1.1832-0.1616 1.7177-0.4165 0.0788-0.0373 0.1534-0.0767 0.2259-0.1181 0.2942 0.3315 0.8329 0.4994 1.6161 0.4994h4.8983c0.6112 0 1.1831-0.1264 1.7176-0.3813 0.0829-0.0394 0.1617-0.0808 0.2383-0.1243 0.3668 0.3377 0.8268 0.5076 1.382 0.5076h0.9677c-0.4745 0.3398-0.8578 0.8268-1.1521 1.4629-0.2921 0.6361-0.4372 1.2929-0.4372 1.9725 0 0.8557 0.2508 1.5561 0.7501 2.0989 0.5781 0.6196 1.3945 0.9283 2.4553 0.9283 1.6866 0 3.0998-0.6693 4.2373-2.0098 0.8143-0.9677 1.5892-2.4533 2.3289-4.4548h3.1059c1.3738 0 2.3124-0.6776 2.8117-2.0368h-5.2545zm-6.933 6.5662c-0.491-0.3398-0.7376-0.7894-0.7376-1.3489 0-0.6278 0.2383-1.2577 0.719-1.8896 0.4786-0.632 0.9987-0.9469 1.5581-0.9469zm-53.188-16.87 1.496-2.9775h-1.987s-0.7273 6e-3 -0.8268 6e-3c-1.2639 0-1.8979 0.52836-1.8979 1.5851 0 0.5408 0.3709 1.7529 1.1168 3.6322 0.7438 1.8814 1.1168 3.3546 1.1168 4.4196 0 2.2813-1.2598 3.9907-3.7835 5.1323-1.8813 0.8392-4.0839 1.2598-6.6055 1.2598-2.3062 0-4.3491-0.3211-6.1311-0.9614-2.503-0.8951-3.7565-2.2771-3.7565-4.1419 0-2.7143 2.3103-4.0715 6.9308-4.0715h6.042c-0.174 0.64232-0.5739 1.1437-1.1976 1.5126-0.5574 0.3253-1.1935 0.4869-1.9104 0.4869h-0.97385c-0.9324 0-1.7446 0.1616-2.4346 0.4869-0.89925 0.4248-1.3489 1.0526-1.3489 1.8855 0 0.9407 0.61953 1.6783 1.8607 2.2108 0.95726 0.4082 1.9808 0.6113 3.0707 0.6113 1.3821 0 2.5341-0.3046 3.4582-0.9117 1.0733-0.6983 1.61-1.7011 1.61-3.0085 0-0.8993-0.3419-2.1881-1.0236-3.8705-0.6817-1.6804-1.0236-2.9878-1.0236-3.9202 0-2.9381 2.4181-4.4569 7.2562-4.5522v-0.00393h2.0075c1.1728 0 2.2026 0.18026 3.0894 0.53872 1.1831 0.4807 1.8006 1.21 1.8565 2.188 0.0456 0.98835-0.4289 1.8109-1.4276 2.4657h-4.5853z" fill="#282828"/>
</svg>
