<svg xmlns="http://www.w3.org/2000/svg" viewBox="0 0 24 24"><g fill="none"><path fill="#ff8003" d="M15.49 3.706c.01.016 0 .031-.021.053a21 21 0 0 1-1.736 2.01c-.043.038-.095.043-.148.032a44 44 0 0 0-1.318-.143c-.535-.053-1.016-.053-1.614-.042c-.485.006-.966.08-1.429.222A4.36 4.36 0 0 0 7.43 4.245a9 9 0 0 1 8.06-.54"/><path fill="#ffa403" d="M17.305 4.823a6 6 0 0 1-.63 3.149c-.016.037-.042.106-.08.153c-.015.021-.041.027-.068.016a2.3 2.3 0 0 0-.751-.238l-.002.008l.002.008q.313.31.603.64q.181.206.323.429l.407.672a10.2 10.2 0 0 1 1.19 3.212c.095.404.069.827-.073 1.217a1.98 1.98 0 0 0-1.43-.778a.5.5 0 0 1 0-.153c.107-.593.144-1.19.123-1.784a14 14 0 0 0-.154-1.238a3.5 3.5 0 0 0-.132-.55c-.005 0-.01 0-.01-.01v-.022a.6.6 0 0 1-.085-.127v-.021a.16.16 0 0 0-.027-.08a.4.4 0 0 1-.042-.105a.1.1 0 0 0-.01-.027a.2.2 0 0 1-.054-.085a.3.3 0 0 0-.063-.105a.5.5 0 0 1-.058-.08a.3.3 0 0 0-.08-.084a.3.3 0 0 1-.079-.07l-.132-.158h-.027a.03.03 0 0 0-.01.021q.001.046-.037.085a.34.34 0 0 0-.022-.233a1.2 1.2 0 0 0-.264-.312a5 5 0 0 0-1.07-.699q-.27-.121-.57-.074a.61.61 0 0 0-.46.367a.5.5 0 0 0-.022.2c.026.216.2.412.376.534l.19.111l.196.106a1.7 1.7 0 0 0-.519.47a1.47 1.47 0 0 0-.28 1.027c.02.26.053.535.09.831q.048.397.185.683c.111.243.296.476.44.704q.054.093.142.026c.026-.021.032-.042.021-.074l-.085-.19a5 5 0 0 1-.238-.514c-.053-.127-.069-.27-.09-.402c0-.021 0-.026.021-.016l.096.074c.344.254.81.408 1.222.318a1.59 1.59 0 0 0 1.334-1.466a.3.3 0 0 1 .026.159q-.014.09-.031.18l-.022.063a.5.5 0 0 1-.042.095a.3.3 0 0 0-.021.064a2.4 2.4 0 0 1-.318.492q-.028.081-.106.09a.02.02 0 0 0-.013.004a.02.02 0 0 0-.008.012a.1.1 0 0 1-.026.032a.2.2 0 0 1-.042.026a.2.2 0 0 0-.053.037l-.011.005h-.005a.05.05 0 0 0-.032.011a.8.8 0 0 1-.28.148a.1.1 0 0 0-.043.027c-.032.037 0 .095.01.143c.054.444.038.91.038 1.354c0 .08-.021.17-.053.28c-.355.107-.704.26-1.048.445q-.24.13-.476.265l-.016-.01a7.2 7.2 0 0 0-1.275-2.139a4 4 0 0 0-.773-.703a2.8 2.8 0 0 0-.83-.387a1.5 1.5 0 0 0-.652-.042c-.5.072-.97.285-1.355.614a7.2 7.2 0 0 0-1.603 1.9q-.137.22-.27.444h-.009l-.007-.005a5 5 0 0 0-.28-.334l-.54-.582c.159-.159.307-.344.455-.518c.138-.164.254-.37.35-.604a10 10 0 0 0 .423-1.608a1.62 1.62 0 0 0-.265-1.027c.254-.053.508-.095.746-.17c.355-.105.725-.222.8-.64a.365.365 0 0 0-.191-.386c-.217-.127-.44-.116-.683-.042a1.4 1.4 0 0 0-.64.407l-.18.18a.3.3 0 0 1-.095.048q.502-.823 1.122-1.561a2.5 2.5 0 0 1 1.005-.73c.471-.175 1.053-.212 1.588-.196c1.01.027 2.016.169 2.995.423q.081-.094.143-.201l.264-.498q.205-.38.514-.783c.354-.46.677-.847.963-1.148l.386-.355c.143-.127.381-.307.582-.227c.228.09.323.296.392.518q.165.523.185 1.07zM7.134 4.611c.265.106.53.201.773.37c.375.274.69.622.926 1.022a.03.03 0 0 1-.016.027a4.7 4.7 0 0 0-.895.751l.038-.08a.2.2 0 0 1 .052-.068q.084-.087.16-.18c0-.032-.022-.053-.033-.08c-.01-.042-.042-.068-.058-.105a11 11 0 0 0-.333-.614a2 2 0 0 0-.265-.365a1.2 1.2 0 0 0-.38-.313c-.064-.026-.122-.052-.18-.058a5 5 0 0 0-.212-.037a.4.4 0 0 0-.17.016l-.074.132a.3.3 0 0 0-.01.085c0 .005 0 .01-.011.01h-.048c-.005 0-.01.006-.005.011l.016.058v.027c0 .026 0 .053.01.08c.016.036 0 .073.016.116l.037.153l.032.1a.35.35 0 0 1 .032.144c0 .01.005.015.016.026l.01.021v.027c.022.106.053.222.09.328a.3.3 0 0 1 .027.09c.016.053.032.1.037.148c.005.032.005.058.021.09v.053a7 7 0 0 0-.08-.244c-.026-.047-.01-.105-.036-.143l-.027-.047a.3.3 0 0 1-.032-.085a2 2 0 0 1-.031-.153a.02.02 0 0 1-.01-.01c-.011-.054-.006-.101-.017-.144l-.09-.317c-.005 0-.01 0-.016-.01a2 2 0 0 1-.053-.175a.4.4 0 0 1-.031-.138c0-.032 0-.058-.01-.085a7 7 0 0 1-.027-.238a.6.6 0 0 1-.021-.143a.3.3 0 0 0-.016-.09a.36.36 0 0 1-.022-.17c0-.01 0-.01.011-.01h.058L6.24 4.39h-.022q-.04.032-.026.08l.01.052c0 .053 0 .096.011.138l.01.08a.4.4 0 0 0 .054.185l.01.026v.08l.01.079q-.001.056.022.127q.082.253.127.513l.053.201a.4.4 0 0 1 .026.111l.032.111q.016.035.016.07c0 .02.005.047.016.068l.021.09c0 .026.01.053.021.09q.06.16.09.328q-.007.015-.016 0l-.01-.037v-.005l-.006-.053l-.063-.212l-.032-.037a.03.03 0 0 1-.01-.021v-.085c0-.005 0-.01-.011-.01h-.01v-.016a.07.07 0 0 0-.022-.053a.03.03 0 0 1-.005-.027l-.005-.074a.5.5 0 0 1-.027-.174l-.042-.085a.3.3 0 0 0-.032-.074a1.3 1.3 0 0 0-.063-.36a.1.1 0 0 0-.022-.042a.05.05 0 0 1-.01-.053L6.33 5.38a.06.06 0 0 1-.011-.053l-.005-.021l-.048-.075a14 14 0 0 1-.164-.941q.002-.018.042-.011c.355.069.635.185.99.333"/><path fill="#ff8003" d="M15.97 7.855a.3.3 0 0 1-.095-.053c-.275-.206-.566-.413-.81-.662c-.19-.206-.333-.386-.343-.672c-.01-.227.169-.47.333-.656q.342-.384.688-.767c.074-.069.143-.159.217-.228c.106-.106.217-.206.317-.317a1 1 0 0 1 .143-.122c.096-.063.138 0 .196.074q.141.184.196.392q.114.536.095 1.085l-.005.365a8 8 0 0 1-.048.444l.006.027c0 .01 0 .016.01.026a.1.1 0 0 1 .016.08l-.016.074c-.01.063-.005.121-.026.185q-.05.166-.106.328l-.01.005l-.017.08l-.01.02a.2.2 0 0 0-.053.075a7 7 0 0 0-.238.254c0 .01 0 .016-.01.021a.3.3 0 0 1-.16.037a.4.4 0 0 1-.18-.053a.4.4 0 0 0-.09-.042M7.923 6.78q-.492.536-.91 1.132a2 2 0 0 1-.107-.28A24 24 0 0 1 6.27 5.23l.043.074v.021c0 .022 0 .037.016.053c.005.01.01.016.005.027c0 .016 0 .031.01.047l.022.043q.058.175.063.36l.037.074l.01.031l.027.053a.5.5 0 0 0 .027.175c0 .021.005.053 0 .074c0 .01 0 .016.01.021c.016.021.021.037.016.058l.005.016h.011c.005 0 .01 0 .01.01v.086c0 .01 0 .015.011.02l.032.043q.035.133.074.265l.005.037q.009.015.016 0v-.022a2 2 0 0 0-.09-.306a.4.4 0 0 1-.02-.09a.5.5 0 0 0-.022-.09a.3.3 0 0 1-.016-.07a.2.2 0 0 0-.016-.068a.5.5 0 0 1-.032-.111a.3.3 0 0 0-.026-.111a1.4 1.4 0 0 1-.053-.201l-.026-.164a4 4 0 0 0-.1-.35a.4.4 0 0 1-.022-.127c0-.026 0-.053-.01-.079v-.08l-.006-.026a.4.4 0 0 1-.053-.185l-.016-.08c-.016-.042-.005-.09-.01-.132c0-.02 0-.042-.01-.058c-.012-.032 0-.058.026-.074l.02-.005h.054v.005h-.064c-.005 0-.01 0-.01.01a.3.3 0 0 0 .02.17a.3.3 0 0 1 .017.09a.7.7 0 0 0 .015.143l.016.08q.011.12.027.243q0 .065.032.137l.026.085l.026.09l.016.01h.01v.01l.08.308c.01.042 0 .095.016.143l.01.01h.006l.005.01l.021.144a.2.2 0 0 0 .032.084l.027.048c.026.042.01.095.037.143c.016.021.02.048.032.074l.052.17l-.005-.054c-.016-.031-.016-.058-.021-.09c0-.052-.021-.1-.032-.148a1 1 0 0 0-.032-.09a1.8 1.8 0 0 1-.105-.375a.03.03 0 0 1-.011-.027a.5.5 0 0 0-.032-.143a1 1 0 0 1-.031-.106l-.038-.148c-.01-.042 0-.08-.015-.116a.2.2 0 0 1-.011-.08v-.026l-.016-.053l.005-.016h.048c.005 0 .01 0 .01-.01c0-.048 0-.074.011-.085l.074-.132q.08-.024.17-.016l.211.037a1 1 0 0 1 .18.058q.205.104.387.318q.147.168.264.36q.192.342.328.613c.016.037.048.064.058.106c.011.027.032.048.032.08l-.005.02l-.159.16a.2.2 0 0 0-.047.068z"/><path fill="#ff8003" d="M5.752 5.537c.074.349.149.714.228 1.037c.17.661.35 1.254.582 1.841a.4.4 0 0 1 .026.106c0 .037-.01.053-.042.058c-.132.027-.254.027-.38.059a1.35 1.35 0 0 0-.546.29a1.75 1.75 0 0 0-.466 1.943c.022.053.011.095-.016.143q-.27.45-.545.9a2.8 2.8 0 0 0-.402 1.343q-.017.517.085.985q.158.715.56 1.423a7 7 0 0 0 1.821 2.16a4 4 0 0 0 1.715.814q.762.159 1.381.207c1.488.1 2.982-.073 4.408-.508a10 10 0 0 0 3.583-2.122q.462-.434.81-.964q.277-.404.444-.905a2.9 2.9 0 0 0 .09-1.524a9 9 0 0 0-.561-1.841a12.6 12.6 0 0 0-1.402-2.424c-.043-.063-.074-.09-.037-.174a6.9 6.9 0 0 0 .582-3.133l-.006-.212v-.01l.008-.003l.008.002q.664.524 1.201 1.175a8.9 8.9 0 0 1 1.974 4.234A8.982 8.982 0 0 1 9.224 20.555A9.03 9.03 0 0 1 3.249 9.886a9.04 9.04 0 0 1 2.18-4.043c.09-.105.196-.19.286-.296c.01-.016.027-.021.037-.01"/><path fill="#fff" d="m15.918 8.71l-.005.08a1.59 1.59 0 0 0-1.64-.069a4 4 0 0 0-.196-.111l-.19-.106c-.175-.127-.35-.317-.371-.545a.45.45 0 0 1 .122-.365c.1-.106.211-.17.354-.196c.201-.026.392-.005.572.074l.275.138q.424.241.794.56q.175.159.264.318a.33.33 0 0 1 .021.228zm-8.509.403a1.7 1.7 0 0 0-.397-.376v-.01l.154-.218a.2.2 0 0 0 .095-.047l.18-.18c.172-.194.396-.336.645-.408c.239-.074.46-.084.678.043c.137.079.222.222.19.386c-.074.418-.444.54-.793.64c-.244.074-.498.122-.752.17"/><path fill="#ff8003" d="M16.791 13.317c-.413-.069-.799-.006-1.217.095a.9.9 0 0 0 .058-.28c0-.445.01-.91-.037-1.355c-.005-.048-.042-.106-.01-.143a.1.1 0 0 1 .042-.027a.8.8 0 0 0 .28-.148a.05.05 0 0 1 .037-.01h.01a.2.2 0 0 1 .054-.043a.2.2 0 0 0 .042-.026a.1.1 0 0 0 .027-.032c0-.01.01-.016.02-.016c.054 0 .085-.031.107-.09c0-.005.005-.015.015-.015a.16.16 0 0 0 .075-.085c0-.005.005-.016.015-.016l.011-.016l.01-.021q.11-.161.191-.339a.3.3 0 0 1 .021-.063a.5.5 0 0 0 .043-.095l.02-.064q.02-.092.033-.185a.26.26 0 0 0-.027-.159a1.6 1.6 0 0 0-.36-1.064a2.2 2.2 0 0 0-.338-.328l.005-.074a.11.11 0 0 0 .037-.085v-.01l.01-.01h.027l.132.158a.3.3 0 0 0 .08.069c.02.01.053.042.079.085l.053.074a.25.25 0 0 1 .069.11c.016.033.031.064.053.085q.01.012.01.027c.01.037.021.069.043.106a.15.15 0 0 1 .02.08v.02l.085.133v.015l.016.011h.011q.102.319.143.65l.02.107c.07.529.107.868.112 1.032a8.4 8.4 0 0 1-.122 1.783a1 1 0 0 0-.005.159"/><path fill="#fff" d="M15.034 11.124a1.022 1.022 0 1 0 .147-2.038a1.022 1.022 0 0 0-.147 2.038M5.567 9.96c-.127.566.132 1.1.566 1.196c.44.095.89-.286 1.016-.847c.122-.566-.132-1.1-.571-1.196c-.434-.095-.89.286-1.011.847"/><path fill="#ffa403" d="M6.35 12.785a5.5 5.5 0 0 0-1.232-.921l.211-.37l.1-.16l.008-.006l.009-.004h.01l.01.005a1.17 1.17 0 0 0 1.53.09h.01l.006.006v.005c0 .042-.016.085-.026.127c-.081.296-.21.576-.381.83l-.254.387z"/><path fill="#fff" d="M16.792 13.316c-.413-.069-.8-.005-1.217.095c-.35.106-.699.26-1.043.445q-.24.129-.476.264a.02.02 0 0 1-.021-.016a7.2 7.2 0 0 0-1.276-2.137a4 4 0 0 0-.762-.704a2.8 2.8 0 0 0-.83-.386a1.5 1.5 0 0 0-.651-.043a2.67 2.67 0 0 0-1.355.614a7.1 7.1 0 0 0-1.604 1.9l-.27.444H7.28l-.007-.005a5 5 0 0 0-.28-.333l-.54-.583l-.096-.09a5.5 5.5 0 0 0-1.238-.91a2.62 2.62 0 0 0-.397 2.038q.142.707.556 1.376a7.2 7.2 0 0 0 1.873 2.032c.317.238.704.402 1.095.503q.684.182 1.44.206c.83.026 1.662-.032 2.476-.159a11.8 11.8 0 0 0 2.43-.656a10 10 0 0 0 1.65-.9a6.4 6.4 0 0 0 1.482-1.344c.212-.27.381-.566.503-.878a1.98 1.98 0 0 0-1.429-.778zm-6.144-.307a.32.32 0 0 0-.185.291c0 .106-.122.17-.201.201a.8.8 0 0 1-.265.048c-.09 0-.249-.053-.222-.175c.026-.106.053-.206-.021-.301a.6.6 0 0 0-.175-.143l-.318-.185c-.2-.122-.37-.34-.37-.583c0-.254.233-.344.444-.37q.5-.062.99-.069c.328 0 .662.027.963.17a.94.94 0 0 1 .53.777c.01.255-.212.466-.477.381a4 4 0 0 0-.264-.079a.6.6 0 0 0-.43.037m-1.932 1.874a.9.9 0 0 0 .344.121q.143.024.387 0c.407-.026.82-.069 1.206-.121c.764-.067 1.532-.05 2.291.052h.027c.106.016.18.027.243.111c.027.032.032.08.027.133c-.016.122-.138.185-.249.159a8 8 0 0 0-1.783-.228a9 9 0 0 0-1.18.09l-.148.021l-.297.021l-.92.01c-.096 0-.16-.041-.175-.126a.2.2 0 0 1 .016-.138c.037-.074.121-.148.211-.105"/></g></svg>