<svg xmlns="http://www.w3.org/2000/svg" viewBox="0 0 24 24"><g fill="none"><path fill="url(#SVG9vfrPbnV)" d="M14.27 5.25A2.26 2.26 0 0 1 12 7.5a2.26 2.26 0 0 1-2.271-2.25A2.26 2.26 0 0 1 11.999 3a2.26 2.26 0 0 1 2.272 2.25m-5.976 5.691v1.705l2.33 1.472l1.376-.9zm7.412 0v1.705l-2.33 1.472l-1.376-.9zm-2.404-3.51a2.53 2.53 0 0 0 1.191-2.726l5.448 3.033v2.933l-2.647 1.419V9.65l-3.992-2.224zm3.992 6.094l2.647-1.446v4.5L12 21l-7.941-4.42v-4.516l2.647 1.445v2.027L12 18.476l5.294-2.939zM4.059 7.738v2.912l2.647 1.424V9.65l3.991-2.223a2.525 2.525 0 0 1-1.19-2.721z"/><defs><linearGradient id="SVG9vfrPbnV" x1="19.941" x2="7.187" y1="8.241" y2="17.172" gradientUnits="userSpaceOnUse"><stop stop-color="#009cff"/><stop offset="1" stop-color="#0070ff"/></linearGradient></defs></g></svg>