<svg xmlns="http://www.w3.org/2000/svg" viewBox="0 0 24 24"><g fill="none"><path fill="#fb8016" d="M12 21a9 9 0 1 0 0-18a9 9 0 0 0 0 18"/><path fill="url(#SVG06NkueCv)" d="m7.22 10.024l-1.06 2.822c-.11.963-.306 2.922-.18 3.033c.16.138 8.959 1.536 9.356 1.499c.317-.027 1.932-2.69 2.7-4.019c-.265-.762-.81-2.33-.8-2.488c.01-.159.132-.582.19-.778a1.09 1.09 0 0 1-.714-.625c-.233-.53-1.35-1.461-2.187-1.641c-.83-.175-2.048-.424-3.557-.318a4.84 4.84 0 0 0-2.573 1.006z"/><path fill="#333" d="M13.06 7.574c2.948 1.27 4.446 5.654 3.536 7.94a4.5 4.5 0 0 1-1.578 1.838c.17.021.28.032.317.026c.318-.026 1.938-2.689 2.7-4.018a33 33 0 0 1-.794-2.42c-.264-.889-.645-1.64-1.096-2.165a4.5 4.5 0 0 0-1.254-.825a14 14 0 0 0-1.832-.371z"/><path fill="url(#SVGduIcgeNR)" d="M7.06 11.703c0 1.18 1.287 2.064 1.933 2.35l1.556.339c.25-.318.895-.953 1.467-.953c.577 0 1.138.577 1.345.863l1.19-.307c2.531-.598 2.383-2.033 2.383-2.213s-.058-1.8-1.646-1.8c-1.589 0-3.124 1.8-3.272 1.853c-1.075-1.18-2.181-1.853-2.944-1.853c-.757 0-2.011.244-2.011 1.72"/><path fill="#544933" d="M15.415 8.189c-.302-.127-.89-.334-1.143-.424v-.254a229 229 0 0 1 2.144-2.901c.042-.032.83-.784 1.344-.704c.509.074.551.492.625.794c.064.249.085 1 .09 1.34c-.217.688-.672 2.154-.752 2.525c-.08.37-.598.9-.847 1.122c-.365-.45-1.165-1.377-1.461-1.504z"/><path fill="#91775a" d="m14.223 7.78l-1-.211l1.482-1.694c.127-.17 1.302-1.186 1.726-1.435c.423-.254 1.244-.44 1.292-.302c.042.138-.17.397-.223.424A53 53 0 0 0 15.727 5.7c-.37.254-.826 1.138-.974 1.408c-.122.212-.403.54-.53.672"/><path fill="#5e5346" d="m13.44 7.596l-.54-.037l.805-.731l.91-1.032l.921-.895c.302-.222 1.006-.715 1.424-.9c.424-.196.72-.18.816-.148l-.043.333c-1.09.037-2.525 1.52-2.832 1.88c-.249.286-1.075 1.138-1.461 1.535z"/><path fill="#9d7b4e" d="M9.639 7.84L7.182 9.712c0 .053-.085.07-.423-.35c-.424-.518-.763-2.583-.837-3.266c-.074-.688.402-.714 1.16-.693c.603.01 1.958 1.366 2.557 2.038z"/><path fill="#312f33" d="M6.272 3.858a.59.59 0 0 0-.477.233l1.139 1.08q1.497.933 2.975 1.895c.021.037.122-.354.122-.391c0-.027-.392-.493-.583-.72l-1.09-1.07c-.265-.201-.847-.635-1.043-.725a3.2 3.2 0 0 0-1.043-.302"/><path fill="#82673c" d="M6.89 5.595c-.725.9-.095 3.017.308 3.965c-.048.26-.297.476-.927-.72c-.63-1.197-.45-3.457-.28-4.431c.053-.16.264-.45.757-.376c.492.069 3.007 2.382 4.203 3.526c-.577.058-1.26.264-1.53.354c-.46-.709-1.62-2.17-2.53-2.313z"/><path fill="#f5b657" d="M6.467 4.409c-.031-.053-.354-.201-.508-.265c-.111.72-.328 2.234-.318 2.488c.016.318.615 1.843.636 1.964c.01.101.196.16.286.175a55 55 0 0 1-.477-1.641c-.164-.614.053-1.636.175-2.065c.08-.201.233-.603.206-.656"/><path fill="#000" d="M11.957 7.358c-.662 0-1.567.243-1.937.36c.423-.069 1.413-.212 1.937-.212s1.678.175 2.187.26a9.6 9.6 0 0 0-2.187-.408"/><path fill="#f2e3d0" d="M7.198 14.489c.07-1.838-.714-2.065-1.111-1.954l-.53 1.191l-.302 1.175l.053.604l.466.847l1.027.831l1.87.89l2.55.863l.705.052c2.086-.074 4.182-1.249 5.384-1.964c.964-.571 1.324-1.35 1.387-1.662l.043-.688l-.906-2.293c-1.09.53-1.101 1.679-.969 2.182c0 0-.841-.779-2.197-.779c-1.085 0-1.63.7-1.768 1.048h-1.678a2.58 2.58 0 0 0-1.938-1.048c-.958 0-1.79.466-2.086.7z"/><path fill="#8f8f87" d="M11.698 18.972c1.36-.402 4.171-1.64 4.897-3.457q.176-.445.233-.98l.037.027l-.027-.11a5 5 0 0 0 .01-.816a1.75 1.75 0 0 1 .933-1.228q.175.389.328.672l.63 1.594l-.043.688v.005a2 2 0 0 1-.137.36a3.2 3.2 0 0 1-1.25 1.297a15.8 15.8 0 0 1-3.578 1.657a7.7 7.7 0 0 1-1.8.313h-.01z"/><path fill="#fffecf" d="M6.622 12.645c-.08.408-.233 1.387-.233 2.039c0 .81.815 2.414 1.614 3.123l-.143-.069c-.338-.148-1.212-.524-1.704-.99a3 3 0 0 1-.916-1.535c.03-.447.13-.886.296-1.302c.106-.302.424-1.064.567-1.409c.148 0 .466.027.519.143m1.042 2.52a.79.79 0 0 1 .81.307c.34.45 1.038 1.192 1.89 1.192c.853 0 1.483-.477 1.6-.768v.492c-.054.254-.477.768-1.774.768c-.25 0-.831-.085-1.202-.413c-.37-.318-.784-.921-.942-1.18c-.027-.08-.106-.25-.212-.297l-.201-.1z"/><path fill="#9ff6fe" d="m16.95 16.95l-1.005.858l1.366-.662l.482-.413l.497-.434c.122-.222.381-.757.424-1.09c.053-.424-.133-1.033-.276-1.372c-.105-.264-.476-1.117-.645-1.508l-.26.169c.19.54.566 1.758.566 2.34c.016.386-.07.77-.248 1.112l.312.381l-.196.212l-.254-.318l-.519.466l.212.291l-.265.159z"/><path fill="#8d6f56" d="M7.262 10.216c-.334.567-.556 1.81-.63 2.361c-.19-.106-.424-.09-.519-.074L6.632 11l.053-.461l-.307-.937l-.519-1.366A16 16 0 0 1 5.43 5.5c0-.873.35-1.403.424-1.413c.063-.011.264.058.35.095c-.054.021-.207.212-.345.852c-.175.805.016 2.224.28 2.949c.212.582.784 1.324 1.044 1.62c.037-.132.285-.53.974-1.075a4 4 0 0 1 1.996-.751c-1.006.211-2.473 1.736-2.891 2.44"/><path fill="#4495b4" d="m18.474 5.944l-.413-.021v-.535l.413-.032v-.159l-.344-.026l-.264-1.25c.105.053.354.212.444.413c.085.196.17.614.207.794zm-.937 6.58l-.54-1.773a7.6 7.6 0 0 0-.953-1.922c.143.08.514.355.837.82c.249-.317.778-1.116.932-1.746a8 8 0 0 0 .19-1.657l.487.042c-.058.386-.227 1.308-.402 1.88a38 38 0 0 1-.747 2.064l-.38-.36l.259 1.017l.593 1.482z"/><path fill="#4c4136" d="M15.705 10.031a8.3 8.3 0 0 1 1.022 2.637a1.6 1.6 0 0 0 .206-.858v-.026c0-.16-.053-1.499-1.228-1.753"/><path fill="#f89958" d="M9.179 13.058c-.794-.08-1.022-.985-1.038-1.424h.18l.339.29l.519 1.139zm4.521-1.043c-.397.307-.471.847-.455 1.085c.778-.45 2.25-1.377 1.869-1.461c-.477-.106-.916-.005-1.414.376"/><path fill="#322327" d="M11.132 17.543a1.6 1.6 0 0 1-.562-.386c.085.015.36-.006.778-.212c.424-.196.588-.46.62-.567c.122.165.424.52.667.625c.238.106.582.138.73.138a1.7 1.7 0 0 1-.423.35c-.27.169-.741.184-.932.184c-.19 0-.566-.026-.878-.132"/><path fill="#b5638d" d="M11.984 17.05a1.08 1.08 0 0 0-.857.456c.073.053.354.159.857.159s.805-.106.89-.16a1.18 1.18 0 0 0-.89-.455"/><path fill="#0f1212" d="M7.909 11.523a.08.08 0 1 0 0 .16c.142 0 .285 0 .418.01l.095.233c.042.106.09.233.148.36l.032.074c.127.291.318.741 1.112.879c.476.084.757.1.905.095c0 .08 0 .159-.016.222a.08.08 0 0 0 .066.093a.08.08 0 0 0 .093-.066a1.53 1.53 0 0 0-.434-1.303c-.418-.428-1.165-.762-2.42-.762z"/><path fill="#f9fafb" d="M10.026 12.53c.079-.085.063-.233-.038-.328c-.095-.1-.243-.117-.322-.037c-.08.085-.064.227.031.328c.1.095.244.111.329.032zm-1.022.238c.026-.026.02-.084-.016-.122s-.095-.047-.127-.015c-.027.031-.021.09.016.127s.095.042.127.01"/><path fill="#0f1212" d="M16.055 11.523a.08.08 0 0 1 .057.136a.08.08 0 0 1-.057.023c-.148 0-.285 0-.423.01l-.095.234a6 6 0 0 1-.18.434c-.127.291-.318.741-1.112.879c-.477.084-.757.1-.9.095a1 1 0 0 0 .01.222a.08.08 0 0 1-.126.079a.08.08 0 0 1-.032-.052c-.059-.35.016-.869.434-1.303c.418-.428 1.164-.762 2.424-.762z"/><path fill="#f9fafb" d="M13.939 12.53c-.085-.085-.07-.233.031-.328c.1-.1.244-.117.323-.037c.08.085.07.227-.032.328c-.1.095-.243.111-.322.032zm1.021.238c-.032-.026-.026-.084.01-.122c.038-.037.096-.047.128-.015c.032.031.026.09-.016.127c-.037.037-.09.042-.122.01"/><path fill="#000" fill-rule="evenodd" d="M10.803 14.63c0 .498.715.774 1.112.858v.72c0 .138-.08.36-.317.546c-.228.19-.625.344-1.271.344c-1.482 0-2.049-1.186-2.245-1.588l-.037-.07a.54.54 0 0 0-.487-.322v.106a.43.43 0 0 1 .392.264l.037.075c.19.397.794 1.64 2.345 1.64h.207c.143.207.577.514 1.43.514c.857 0 1.302-.307 1.455-.519l.175.006c1.55 0 2.15-1.244 2.345-1.641l.032-.075c.132-.264.36-.264.397-.264v-.106a.55.55 0 0 0-.493.317l-.037.08c-.19.397-.762 1.588-2.244 1.588c-.64 0-1.038-.159-1.27-.35c-.234-.185-.308-.407-.313-.545v-.725c.434-.095 1.175-.376 1.175-.847c0-.625-1.032-.746-1.202-.746s-1.186.105-1.186.74m2.489 2.563a1.87 1.87 0 0 1-1.033-.355a.96.96 0 0 1-.296-.38a.9.9 0 0 1-.297.38c-.211.17-.53.307-1 .35c.153.175.545.423 1.302.423s1.16-.248 1.324-.423z" clip-rule="evenodd"/><path fill="#f9fafb" d="M11.963 14.468c.254 0 .46-.069.46-.154s-.206-.153-.46-.153s-.46.069-.46.153c0 .085.206.154.46.154"/><path fill="#000" d="M11.333 17.973c0-.026.026-.053.052-.053h1.229q.021 0 .037.016a.05.05 0 0 1 0 .075a.05.05 0 0 1-.037.015h-1.229a.053.053 0 0 1-.053-.053"/><path fill="#ebe0d3" d="M12.864 11.344c-.202-.201-.144-.583.127-.847c.275-.275.656-.334.852-.138c.201.201.137.582-.133.852s-.65.329-.847.133m-1.727 0c.202-.201.143-.583-.132-.847c-.264-.275-.651-.334-.847-.138c-.201.201-.138.582.133.852c.27.27.65.329.846.133"/><path fill="#000" d="M18.406 5.584c0-.672-.095-1.096-.248-1.345a.65.65 0 0 0-.599-.338c-.121 0-.286.052-.487.137a5 5 0 0 0-.646.35a9 9 0 0 0-1.228.926c-.227.212-.508.53-.794.874l-.318.37q-.286.332-.603.635c-.19.175-.376.323-.545.398l-.064-.149c.143-.063.318-.19.503-.37c.185-.175.386-.392.582-.625l.318-.355q.384-.472.815-.9a9.4 9.4 0 0 1 1.25-.937c.233-.143.46-.27.667-.365c.206-.09.397-.148.55-.148c.291 0 .551.116.731.413c.18.29.275.746.275 1.429a9.6 9.6 0 0 1-.688 3.415c-.106.212-.222.561-.323.92c-.106.36-.196.726-.249.948l-.026-.005c.201.567.482 1.25.794 1.87c.392.74.644 1.548.741 2.382v.005a1.96 1.96 0 0 1-.604 1.313c-.36.386-.847.736-1.365 1.027c-.832.463-1.708.84-2.616 1.127c-.725.223-1.768.445-2.197.53h-.02c-.266-.01-1.065-.127-2.214-.53l-.037-.016c-.72-.248-1.842-.645-2.79-1.196a5 5 0 0 1-1.25-.98c-.322-.37-.529-.793-.529-1.27c-.016-.116.01-.365.106-.746c.106-.392.291-.937.609-1.642q.524-1.19.768-1.879l-.037.01c-.053-.222-.138-.582-.244-.947c-.106-.36-.222-.715-.328-.921a9.6 9.6 0 0 1-.688-3.415c0-.683.1-1.138.275-1.43a.81.81 0 0 1 .741-.412c.148 0 .339.058.545.148c.691.352 1.335.79 1.917 1.302c.238.223.524.556.82.9l.307.355c.202.233.403.45.588.625c.19.18.36.307.503.37l-.063.149a2 2 0 0 1-.551-.403a9 9 0 0 1-.593-.635l-.318-.37q-.375-.456-.8-.869a9 9 0 0 0-1.227-.926a6 6 0 0 0-.646-.35a1.3 1.3 0 0 0-.487-.137a.66.66 0 0 0-.598.338a2.67 2.67 0 0 0-.25 1.345a9.4 9.4 0 0 0 .668 3.34c.11.223.233.594.339.954c.079.27.148.545.2.762q.121-.365.154-.545l.16-.35a12 12 0 0 1-.27 1.06v.025H6.78a17 17 0 0 1-.731 1.97q-.361.786-.593 1.62c-.106.386-.116.609-.106.688v.01c0 .424.185.816.487 1.165c.35.381.76.703 1.213.953c.937.546 2.048.932 2.763 1.186l.037.01c1.122.398 1.906.514 2.16.52a24 24 0 0 0 2.17-.52c.445-.137 1.573-.529 2.584-1.11c.508-.292.98-.626 1.329-1.001a1.8 1.8 0 0 0 .561-1.197c-.01-.302-.175-1.191-.73-2.319a12.5 12.5 0 0 1-.757-1.97h-.016l.005-.03a9 9 0 0 1-.206-.816v-.18c.037.174.121.466.248.826c.053-.212.122-.487.201-.757c.106-.36.223-.731.34-.953a9.4 9.4 0 0 0 .666-3.346zM6.203 7.448c.113.77.434 1.494.927 2.096c-.201-.148-.688-.73-1.011-1.842c-.328-1.112.042-2.69.264-3.336c1.71.355 2.69 2.171 2.806 2.462c.085.228.44.741.61.964c-.33-.212-.562-.567-.922-1.112l-.307-.477c-.556-.825-1.89-1.508-2.044-1.44c-.158.075-.508 1.382-.317 2.685zm.932 2.207c.006-.026.688-.99 1.096-1.265c.402-.27.937-.471 1.34-.53c-.895.18-1.827 1.165-2.23 1.6c-.116.116-.185.195-.206.195m10.69-2.207a4.3 4.3 0 0 1-.922 2.096c.201-.148.688-.73 1.011-1.842c.328-1.112-.042-2.69-.265-3.336c-1.71.355-2.689 2.171-2.806 2.462c-.084.228-.444.741-.608.964c.328-.212.56-.567.92-1.112l.308-.477c.556-.825 1.89-1.508 2.043-1.44c.16.075.509 1.382.318 2.685m-.933 2.207c0-.026-.688-.99-1.09-1.265a3.6 3.6 0 0 0-1.34-.53c.895.18 1.827 1.165 2.23 1.6c.116.116.184.195.2.195"/><defs><linearGradient id="SVG06NkueCv" x1="4.165" x2="10.789" y1="14.198" y2="11.273" gradientUnits="userSpaceOnUse"><stop stop-color="#8a6f55"/><stop offset="1" stop-color="#5c5251"/></linearGradient><linearGradient id="SVGduIcgeNR" x1="3.347" x2="10.774" y1="10.173" y2="10.543" gradientUnits="userSpaceOnUse"><stop stop-color="#c58b5d"/><stop offset="1" stop-color="#a16f54"/></linearGradient></defs></g></svg>