<svg xmlns="http://www.w3.org/2000/svg" viewBox="0 0 24 24"><g fill="none"><path fill="url(#SVGRMslGbqj)" d="M4.627 14.042a5.12 5.12 0 0 1-.19-7.299l1.688-1.747a1.323 1.323 0 0 1 1.853-.053c.53.498.545 1.318.048 1.837L6.342 8.527a2.546 2.546 0 0 0 .096 3.636a2.62 2.62 0 0 0 3.673-.095l1.694-1.768a5.373 5.373 0 0 1 7.537-.19a5.22 5.22 0 0 1 1.302 5.712a5.2 5.2 0 0 1-1.111 1.735l-1.392 1.45a1.324 1.324 0 0 1-2.15-.364a1.29 1.29 0 0 1 .244-1.425l1.398-1.45a2.65 2.65 0 0 0-.1-3.774a2.725 2.725 0 0 0-3.823.095l-1.699 1.768a5.267 5.267 0 0 1-7.384.185m3.849 4.219a1.297 1.297 0 0 1 1.01-1.535a9.55 9.55 0 0 0 5.14-3.557a1.323 1.323 0 0 1 2.183.065a1.28 1.28 0 0 1-.044 1.444c-2.15 2.974-5.304 4.282-6.733 4.583a1.313 1.313 0 0 1-1.556-1.005zm5.102-10.285a1.3 1.3 0 1 0-.545-2.54c-1.397.296-3.901 1.122-6.066 4.118a1.285 1.285 0 0 0 .307 1.81a1.323 1.323 0 0 0 1.831-.302c1.673-2.323 3.515-2.885 4.473-3.086"/><defs><linearGradient id="SVGRMslGbqj" x1="1.891" x2="19.427" y1="11.666" y2="11.666" gradientUnits="userSpaceOnUse"><stop stop-color="#ff9050"/><stop offset="1" stop-color="#fb5e39"/></linearGradient></defs></g></svg>