<svg xmlns="http://www.w3.org/2000/svg" viewBox="0 0 24 24"><path fill="#5999e9" fill-rule="evenodd" d="M4.1 16.659c-.084-.168-.09-.62.551-1.09c.094-.07.225-.16.382-.269c1.185-.817 3.934-2.715 4.967-5.083c.87-1.995 1.126-4.875 1.21-5.816c.012-.132.02-.226.026-.274c.05-.387.335-1.074.67-1.124c.334-.05.735.553.768 1.124c.19 3.23.521 4.856 1.192 6.09c.525.967 3.628 4.048 5.427 5.351c.274.146.779.568.619 1.09c-.16.524-.959.33-1.338.169c-1.282-.72-4.41-2.135-6.669-2.04c-2.257.094-5.079 1.287-6.206 1.872c-.448.175-1.393.422-1.599 0m2.075-5.718a2.118 2.118 0 1 0 0-4.236a2.118 2.118 0 0 0 0 4.236m11.647 0a2.118 2.118 0 1 0 0-4.236a2.118 2.118 0 0 0 0 4.236m-3.705 7.941a2.117 2.117 0 1 1-4.235 0a2.117 2.117 0 0 1 4.235 0" clip-rule="evenodd"/></svg>