<?xml version="1.0" encoding="utf-8"?>
<!-- Generator: Adobe Illustrator 25.2.3, SVG Export Plug-In . SVG Version: 6.00 Build 0)  -->
<svg version="1.1" id="图层_1" xmlns="http://www.w3.org/2000/svg" xmlns:xlink="http://www.w3.org/1999/xlink" x="0px" y="0px"
	 viewBox="0 0 256 256" style="enable-background:new 0 0 256 256;" xml:space="preserve">
<style type="text/css">
	.st0{fill:#FFFFFF;}
</style>
<path d="M89.3,0h77.5c25.7,0,38.5,0,52.4,4.4c15.1,5.5,27,17.4,32.5,32.5c4.4,13.8,4.4,26.7,4.4,52.4v77.5c0,25.7,0,38.5-4.4,52.4
	c-5.5,15.1-17.4,27-32.5,32.5c-13.8,4.4-26.7,4.4-52.4,4.4H89.3c-25.7,0-38.5,0-52.4-4.4c-15.1-5.5-27-17.4-32.5-32.5
	C0,205.3,0,192.4,0,166.7V89.2c0-25.7,0-38.5,4.4-52.4c5.5-15.1,17.4-27,32.5-32.5C50.7,0,63.6,0,89.3,0L89.3,0"/>
<path class="st0" d="M173.4,40.2c-13.2-2.8-23.9-1.1-32.3,5.2c-8.4,6.3-14.1,16.7-17.2,31.4l-9.8,45.9l0,0l-8.7,41
	c-1.7,7.8-4.1,13.2-7.4,16.3c-3.3,3.1-7.9,4-13.7,2.8c-3.8-0.8-7.9-2.3-12.2-4.4l-4.7,22.2c4.2,2.2,9.3,4,15.4,5.3
	c13.2,2.8,23.9,1.1,32.3-5.2c8.4-6.3,14.1-16.7,17.2-31.4l9.8-45.9l0,0l8.7-41c1.7-7.8,4.1-13.2,7.4-16.3c3.3-3.1,7.9-4,13.7-2.8
	c3.8,0.8,7.9,2.3,12.2,4.4l4.7-22.2C184.6,43.2,179.4,41.5,173.4,40.2z"/>
</svg>
