<svg width="244" height="49" viewBox="0 0 244 49" fill="none" xmlns="http://www.w3.org/2000/svg">
<g clip-path="url(#clip0_934_57)">
<path d="M38.2165 11.4363C34.7243 11.4363 31.375 12.8363 28.9056 15.3284C26.4362 17.8204 25.049 21.2004 25.049 24.7247V37.778H30.3153V24.7247C30.3153 22.6099 31.1477 20.5817 32.6295 19.0864C34.1113 17.591 36.121 16.7509 38.2165 16.7509C40.3121 16.7509 42.3218 17.591 43.8036 19.0864C45.2853 20.5817 46.1178 22.6099 46.1178 24.7247V24.7247V37.778H51.3841V24.7247C51.3841 21.2004 49.9968 17.8204 47.5274 15.3284C45.058 12.8363 41.7088 11.4363 38.2165 11.4363Z" fill="black"/>
<path d="M74.7333 12.2677V14.0919C72.7769 12.6119 70.4507 11.7109 68.0155 11.4897C65.5802 11.2686 63.1321 11.7362 60.9453 12.84C58.7585 13.9438 56.9194 15.6402 55.6341 17.7393C54.3488 19.8384 53.668 22.2571 53.668 24.7247C53.668 27.1922 54.3488 29.6109 55.6341 31.71C56.9194 33.8091 58.7585 35.5056 60.9453 36.6094C63.1321 37.7131 65.5802 38.1807 68.0155 37.9596C70.4507 37.7385 72.7769 36.8374 74.7333 35.3575V37.778H80.0031V12.2677H74.7333ZM66.8321 32.7054C65.2694 32.7054 63.7417 32.2378 62.4424 31.3616C61.143 30.4854 60.1303 29.2401 59.5323 27.7831C58.9343 26.3261 58.7778 24.7228 59.0827 23.1761C59.3875 21.6293 60.14 20.2085 61.2451 19.0934C62.3501 17.9782 63.7579 17.2188 65.2906 16.9112C66.8233 16.6035 68.412 16.7614 69.8557 17.3649C71.2995 17.9684 72.5335 18.9904 73.4017 20.3017C74.2699 21.613 74.7333 23.1546 74.7333 24.7317C74.7333 25.7788 74.5289 26.8157 74.1319 27.7831C73.7348 28.7505 73.1528 29.6295 72.4191 30.3699C71.6854 31.1104 70.8144 31.6977 69.8557 32.0984C68.8971 32.4992 67.8697 32.7054 66.8321 32.7054V32.7054Z" fill="black"/>
<path d="M96.9632 11.4363C93.471 11.4363 90.1217 12.8363 87.6523 15.3284C85.1829 17.8204 83.7957 21.2004 83.7957 24.7247V49.0001H89.0655V35.3575C90.7348 36.6203 92.6776 37.4647 94.7338 37.8212C96.7899 38.1777 98.9006 38.036 100.892 37.4078C102.883 36.7796 104.698 35.683 106.187 34.2082C107.676 32.7333 108.796 30.9226 109.456 28.9251C110.115 26.9277 110.295 24.8007 109.98 22.7194C109.665 20.638 108.865 18.662 107.645 16.9541C106.425 15.2462 104.82 13.8552 102.963 12.8959C101.106 11.9366 99.0495 11.4363 96.9632 11.4363ZM96.9632 32.6984C95.4007 32.6977 93.8734 32.2294 92.5745 31.3529C91.2756 30.4763 90.2634 29.2307 89.6659 27.7736C89.0684 26.3166 88.9124 24.7134 89.2177 23.1669C89.523 21.6204 90.2758 20.1999 91.3809 19.0851C92.4861 17.9703 93.8939 17.2113 95.4265 16.9039C96.9591 16.5965 98.5476 16.7546 99.9912 17.3582C101.435 17.9618 102.669 18.9839 103.537 20.2951C104.405 21.6062 104.868 23.1477 104.868 24.7247C104.869 25.7727 104.665 26.8106 104.268 27.779C103.871 28.7475 103.289 29.6275 102.555 30.3687C101.821 31.1099 100.949 31.6978 99.9896 32.0988C99.0301 32.4997 98.0017 32.7059 96.9632 32.7054V32.6984Z" fill="black"/>
<path d="M177.731 12.2677V16.7509C176.073 14.5199 173.761 12.872 171.123 12.0405C168.485 11.2091 165.655 11.2363 163.033 12.1183C160.411 13.0004 158.131 14.6925 156.515 16.955C154.899 19.2175 154.03 21.9357 154.03 24.7247C154.03 27.5136 154.899 30.2318 156.515 32.4943C158.131 34.7568 160.411 36.449 163.033 37.331C165.655 38.213 168.485 38.2402 171.123 37.4088C173.761 36.5774 176.073 34.9294 177.731 32.6984V37.778H180.366V12.2677H177.731ZM167.198 35.3575C165.114 35.3582 163.077 34.7351 161.344 33.5672C159.611 32.3993 158.26 30.7389 157.462 28.7961C156.664 26.8533 156.455 24.7152 156.861 22.6525C157.267 20.5897 158.27 18.6947 159.743 17.2074C161.217 15.72 163.094 14.707 165.138 14.2964C167.182 13.8859 169.301 14.0962 171.226 14.9009C173.152 15.7056 174.797 17.0684 175.955 18.817C177.113 20.5657 177.731 22.6215 177.731 24.7247C177.731 27.544 176.621 30.248 174.646 32.2419C172.671 34.2359 169.992 35.3565 167.198 35.3575V35.3575Z" fill="black"/>
<path d="M152.216 21.904C152.181 19.5614 151.38 17.2962 149.938 15.4605C148.496 13.6247 146.493 12.3212 144.241 11.7527C141.989 11.1843 139.613 11.3826 137.485 12.3169C135.356 13.2511 133.592 14.8691 132.468 16.9191C131.345 14.8691 129.581 13.2511 127.452 12.3169C125.323 11.3826 122.948 11.1843 120.696 11.7527C118.444 12.3212 116.441 13.6247 114.999 15.4605C113.557 17.2962 112.756 19.5614 112.721 21.904V37.7778H115.352V22.0653C115.352 19.9506 116.184 17.9224 117.666 16.4271C119.148 14.9317 121.158 14.0916 123.253 14.0916C125.349 14.0916 127.358 14.9317 128.84 16.4271C130.322 17.9224 131.154 19.9506 131.154 22.0653V37.7778H133.789V22.0653C133.789 19.9506 134.622 17.9224 136.104 16.4271C137.585 14.9317 139.595 14.0916 141.691 14.0916C143.786 14.0916 145.796 14.9317 147.278 16.4271C148.759 17.9224 149.592 19.9506 149.592 22.0653V37.7778H152.227V21.904H152.216Z" fill="black"/>
<path d="M225.246 26.3592C224.931 28.4214 224.02 30.3441 222.628 31.8873C221.237 33.4305 219.425 34.5259 217.42 35.0367C215.416 35.5474 213.306 35.451 211.355 34.7593C209.404 34.0677 207.699 32.8116 206.451 31.1477L220.425 23.0055L224.551 20.6026L226.849 19.2625C226.668 18.8626 226.466 18.4697 226.247 18.0803C224.651 15.2868 222.103 13.1743 219.077 12.136C216.052 11.0977 212.756 11.2044 209.802 12.4364C206.849 13.6683 204.44 15.9415 203.025 18.8325C201.609 21.7236 201.282 25.0354 202.106 28.1512C202.93 31.267 204.848 33.9745 207.503 35.7693C210.158 37.5641 213.369 38.324 216.537 37.9074C219.706 37.4907 222.617 35.9261 224.727 33.5047C226.838 31.0833 228.005 27.9704 228.01 24.7455L225.246 26.3592ZM209.572 15.5159C211.795 14.2225 214.409 13.7918 216.924 14.3046C219.439 14.8173 221.683 16.2384 223.234 18.3013L205.133 28.8464C204.138 26.46 204.04 23.7891 204.857 21.3348C205.675 18.8805 207.351 16.8115 209.572 15.5159V15.5159Z" fill="black"/>
<path d="M203.666 11.4326H199.943L186.807 24.6894V0H184.172V37.7779H186.807V28.4465L188.691 26.5452L199.822 37.7779H203.545L190.554 24.6649L203.666 11.4326Z" fill="black"/>
<path d="M230.829 24.7247V37.778H233.464V24.7457V24.7247C233.464 21.9047 234.574 19.2002 236.55 17.2061C238.526 15.2121 241.206 14.0919 244 14.0919V11.4363C242.271 11.4358 240.558 11.7792 238.96 12.4468C237.362 13.1144 235.91 14.0931 234.687 15.3271C233.464 16.5611 232.494 18.0262 231.832 19.6386C231.17 21.2511 230.829 22.9793 230.829 24.7247Z" fill="black"/>
<path d="M9.50033 21.7006C7.19218 21.2972 5.72873 19.9466 5.94772 18.81C6.2571 17.1752 8.75644 16.7508 12.1352 16.6455C14.955 16.5829 17.7603 17.0689 20.398 18.0768L22.3133 13.5585C19.1268 12.1253 15.686 11.3569 12.1978 11.2993C5.30464 11.2993 0.010498 15.0038 0.010498 19.1608C0.010498 23.6791 5.31507 26.5873 10.4389 27.0784C14.6102 27.4783 17.1791 29.0394 17.0435 30.5233C16.9149 31.8317 14.7632 32.4807 12.389 32.593C8.92502 32.7587 5.46294 32.2281 2.20394 31.0319L0.292064 35.5923C4.44494 37.5182 9.02734 38.3059 13.5778 37.8761C20.1025 37.2586 24.0062 32.9438 23.5196 29.4568C22.5706 22.6302 13.5257 22.4127 9.50033 21.7006Z" fill="black"/>
</g>
<defs>
<clipPath id="clip0_934_57">
<rect width="244" height="49" fill="white"/>
</clipPath>
</defs>
</svg>
