<svg xmlns="http://www.w3.org/2000/svg" viewBox="0 0 256 425"><defs><radialGradient id="SVGHREXXgVz" cx="16.423%" cy="143%" r="295.571%" fx="16.423%" fy="143%"><stop offset="0%" stop-color="#00bc85"/><stop offset="100%" stop-color="#149d91"/></radialGradient><radialGradient id="SVG6UmI6bDY" cx="16.423%" cy="-43%" r="357.004%" fx="16.423%" fy="-43%"><stop offset="0%" stop-color="#00bc85"/><stop offset="100%" stop-color="#149d91"/></radialGradient><radialGradient id="SVGBZa6xpUb" cx="11.467%" cy="-40.458%" r="343.189%" fx="11.467%" fy="-40.458%"><stop offset="0%" stop-color="#004473"/><stop offset="100%" stop-color="#00345f"/></radialGradient><linearGradient id="SVGvlJZFd9v" x1="50%" x2="50%" y1="-352.926%" y2="96.718%"><stop offset="0%" stop-color="#002e3b"/><stop offset="100%" stop-color="#002639"/></linearGradient><linearGradient id="SVGZVLNw9hg" x1="50%" x2="50%" y1="-2.808%" y2="428.759%"><stop offset="0%" stop-color="#002e3b"/><stop offset="100%" stop-color="#002639"/></linearGradient></defs><path fill="url(#SVGvlJZFd9v)" d="M65.7 330.3L.107 362.385l127.292 62l127.64-62.194l-65.76-32.539l-61.928 30.754z"/><path fill="url(#SVGZVLNw9hg)" d="M57.602 98.175v-.02l69.93-34.107l69.934 34.106L255.004 62.2L127.484 0L0 62.18v.055l57.554 35.964z"/><path fill="url(#SVGHREXXgVz)" d="m.156 298.428l62.915-30.803l64.714 32.042L.156 362.462z"/><path fill="url(#SVG6UmI6bDY)" d="M196.678 99.41v100.768l-70.342 34.424l64.686 32.339l62.979-30.797V62.19l-57.323 35.976z"/><path fill="url(#SVGBZa6xpUb)" d="m255.004 298.216l-197.415-98.25V98.182L0 62.23v173.702l255.004 126.321z"/></svg>