<svg xmlns="http://www.w3.org/2000/svg" viewBox="0 0 24 24"><g fill="none"><path fill="#83d3e3" d="M5.53 6.923V4.072l-.252 1.765l-.59 1.564c-.214.55-.636 1.771-.642 2.266c-.011.619.428 1.35.596 1.67c.169.32.844.978.934 1.518c.09.534-.428.838-.59 1.012c-.17.17-.816.355-1.429.686c-.619.332-.58.743-.405 1.283c.135.433.827 1.299 1.159 1.68l1.017.057c-.073-.005-.298-.135-.59-.528c-.377-.495-.506-.698-.427-1.434c.056-.59.978-1.373 1.433-1.687c.282-.225.872-.692 1.013-.788c.18-.112.18-.376.14-.522c-.034-.113-.416-.411-.607-.546l-.905-.832a6.4 6.4 0 0 1-.45-.754a.9.9 0 0 1-.079-.601l.174-.439c.062-.191.225-.714.343-1.293a7 7 0 0 0 .158-1.226"/><path fill="#235863" d="M5.548 4.463c-.017.175 0-.28-.102.692a10 10 0 0 1-.714 2.289c-.157.416-.309.826-.427 1.203a3.7 3.7 0 0 0-.186 1.012c0 .563.242 1.091.54 1.575c.146.236.304.455.45.663h.006c.146.208.28.394.376.563c.203.354.141.697-.039.978s-.478.506-.748.635a4 4 0 0 1-.382.164l-.101.039q-.273.104-.529.242c-.337.19-.59.438-.585.82c0 .158.056.338.146.54c.09.198.208.405.349.613q.367.545.815 1.024l-.067.067a8 8 0 0 1-.827-1.04q-.202-.3-.354-.63a1.5 1.5 0 0 1-.152-.573c-.005-.433.281-.709.63-.9q.31-.168.641-.287l.377-.157c.258-.13.54-.343.708-.607c.169-.26.225-.563.04-.878c-.096-.168-.225-.348-.377-.562a11 11 0 0 1-.456-.675a3.16 3.16 0 0 1-.55-1.62c0-.292.078-.646.19-1.028c.113-.388.27-.799.428-1.215l.067-.169c.29-.671.506-1.373.641-2.092l.192-1.732V4.47zM5.21 8.821c.146-.511.287-1.664.338-2.176v.675c-.051.506-.102 1.007-.253 1.53c-.074.253-.163.45-.237.618l-.056.152c-.084.202-.135.365-.112.545c.022.186.112.41.253.636c.13.225.303.45.483.63q.348.33.731.618q.243.195.473.405l.078.101a.46.46 0 0 1 .04.388c-.056.146-.18.298-.416.461l-.034.023c-.247.174-.776.54-1.254.995a4 4 0 0 0-.647.765c-.168.27-.28.54-.275.799c.005.421.197.775.433 1.045c.242.27.528.456.714.546l-.034.078a2.3 2.3 0 0 1-.748-.562a1.7 1.7 0 0 1-.45-1.107c-.005-.282.107-.574.282-.844c.168-.281.41-.545.663-.787a10.4 10.4 0 0 1 1.265-1.001l.034-.023c.225-.163.337-.298.382-.421a.37.37 0 0 0-.095-.394a9 9 0 0 0-.551-.467a8 8 0 0 1-.652-.55a3.3 3.3 0 0 1-.507-.648a1.9 1.9 0 0 1-.258-.674c-.028-.203.028-.388.112-.59l.068-.153c.067-.168.151-.365.225-.613z"/><path fill="url(#SVGqdutuetg)" d="M13.223 6.749a11.3 11.3 0 0 0-2.845 1.833l2.058.118c.596-.112 1.867-.337 2.204-.337c.416 0 1.248.084 1.575.55c.258.366.28 1.373.253 1.828l4.526-2.676V3.16a1272 1272 0 0 1-7.76 3.588z"/><path fill="url(#SVGZrvNhcku)" d="M11.306 8.638a19 19 0 0 0-2.081-.242c-.422-.033-1.12.276-1.411.433l-.765.664l-.113.854l.191 1.62l1.097 1.367l.574.787c.331.27 1.124.86 1.664 1.012c.675.191 1.153-.028 2.446-.433a3.5 3.5 0 0 0 2.03-1.867c.113-.259.922-1.012 1.31-1.35c.085-.27.225-1.012.118-1.855c-.1-.832-.832-1.17-1.18-1.237l-1.333.168c-.512.085-1.743.225-2.547.079"/><path fill="#150e73" fill-rule="evenodd" d="m10.827 8.513l-.438-.315l.056-.073l.472.349v.14l.523.197l.242-.146l.05.073l-.258.157v.113l.534.242l.613-.377l-.495-.186l.028-.084l.563.214l.393-.242l.056.079l-.427.253v.1l.54.243v.039l.568-.343l-.512-.23v-.214h.09v.152l.518.236l.657-.394v-.034h.051l.14-.084l.046.079l-.146.084v.073l.444.203l.545-.338l.05.073l-.505.31v.168l.506.225l.337-.197l.045.08l-.315.19v.102l.607.253v.168h-.09v-.073l-.663.405v.101l.41.225l.203-.123l.045.078l-.157.101l.056.034v.124h-.09v-.068l-.056-.033l-.535.337v.09l.59.298v.18h-.09v-.045q-.22.146-.45.281c-.01 0-.01.006-.016.011l.056.057c.045.056.096.112.124.157l.022.034l-.702.596l-.394-.388l-.439.523l.462.337l-.878.518h.585l-.394.579l-.691-.118l-.282.618l-.545-.354l-.517.686l-.855-.433l-.472.439l-.675-.518l-.253.26l-.062-.063l.45-.467l.326-.207l.017-.152l-.41-.265l-.434.264l-.523.428l-.056-.068l.523-.438l.405-.242l-.067-.045l.005-.101l-.337-.242l-.36.214l-.045-.079l.32-.197l-.106-.073l.01-.118l-.308-.236l-.827.506l-.011.005l-.028-.084l.01-.011q.109-.062.215-.13c.14-.078.331-.196.562-.342l-.096-.074l.017-.134l-.315-.17q-.37.232-.736.467v-.005l.01-.023h-.09v-.022l.029-.028l.045-.028l.652-.41l-.18-.096l.012-.152l-.293-.169l-.692.422l-.045-.079l.647-.393l-.157-.09l.017-.18l-.26-.152l-.393.242l-.056-.08l.36-.219l-.169-.095l.023-.186l-.298-.146l-.062.034l-.045-.079h.011l-.112-.056l.039-.084l.169.078l.393-.225v-.01l-.438-.321l.056-.073l.472.348l.636-.365l-.49-.186v-.163L7.611 9.7l-.658.365l-.045-.084l.618-.338l-.32-.242l.056-.073l.354.265l.585-.326l-.427-.315l.056-.073l.461.337l.63-.349l-.41-.303l.056-.073l.444.331l.855-.478l.045.079l-.124.073l.405.293v.084l.562-.332l.045.079l-.562.332l.506.185v.101l.602-.365l-.518-.197zm-.73.41v-.09l-.394-.292l-.664.366v.078l.557.208v.029l.506-.299zm-.507.4l.546-.315l.517.197v.09l-.529.326l-.528-.242v-.056zm-.09-.05v-.018l-.55-.208v-.09l-.648.36v.056l.557.203v.073zm-.64.477l.64-.371v.056l.529.242l-.636.394v-.068l-.534-.242zm-.096-.05v-.057l-.552-.213v-.062l-.517.28l.04.029v.146l.5.186zm-.473.382l.473-.281v.017l.54.247v.056l-.518.32l-.495-.224zm-.09.056l-.703.4v.033l.557.208v.101l.635-.393l-.489-.22v-.134zm-.793.456l-.298.174l.298.152l-.017.185l.158.096l.41-.259v-.095l-.55-.203zm3.357-1.26l.619-.382v.112l.528.242l-.63.388V9.57zm.568.433l.585-.354v.073l.563.253v.028l-.619.377h-.011v-.152zm.636.422l.517-.315v.011l.557.225l-.585.36v-.079zm.607-.366l.562.225l.551-.337l-.506-.225v-.034zm-.079.731l.596-.365v.078l.506.304l-.624.383v-.113l-.478-.281zm.692-.337l.5.298l.642-.394l-.58-.236v-.112c-.185.123-.37.236-.562.354zm-.124.787l.54-.332v.017l.54.304l-.613.37v-.095zm.636-.365l.534.298l.619-.377l-.49-.293v-.056l-.663.405zm-.073.776l.54-.327v.017l.523.265l-.563.354v-.056zm.63-.366l.522.264l.568-.354l-.472-.27v-.034l-.619.377zm.506.506v-.118l-.625.394l.282.112l-.04.09l-.337-.146l-.461.287v.135l.556.275v.146l.5-.596l.006-.005q.39-.207.788-.394l.022-.005l.017-.012q.275-.141.523-.326l-.562-.281v-.096l-.58.366v.124l.287.123l-.034.085l-.348-.147zm-.732.225l-.54.338l-.522-.248v-.056l.568-.343l.494.247zm-1.152.146l.517.248l-.574.36l-.573-.276l.63-.388zm-.726.394l.58.27l-.563.354l-.506-.236v-.096l.49-.298zm.602.365l-.495.31h.017v.146l.557.27l.472-.298v-.096l-.55-.275zm-1.18.08l.5.235l-.642.405v-.095l-.5-.248l.641-.393zm.595.28l-.697.439l.568.27v.14l.011.006l.686-.427l-.55-.282v-.135l-.018-.005zm-.832.32v.096l-.815.506l.017-.14l-.422-.27l.725-.439zm.045.175l-.787.49l.483.297l-.05.08l-.518-.321l-.354.224l-.13.13l.608.461l.45-.416h.011l.017-.011l.073-.04q.396-.226.776-.478h-.011v-.146l-.562-.27zm.095.827l.58-.36l.472.23l.04-.078l-.422-.208l.118-.074l.478-.298v.04l.326.23l.056-.073l-.292-.208v-.045l.517-.332l.287.209l.056-.08l-.258-.18l.607-.393v.011h.067l-.011.012l.427.315l-1.057.613h.754l-.259.388l-.708-.119l-.265.585l-.528-.337l-.523.691l-.731-.376l.022-.017zm1.924-1.406v.09l.64-.405v.006v-.017l-.55-.281v-.13l-.647.405v.056zm-2.655.107l-.714.438l-.056-.039l.006-.101l-.355-.253l.659-.4l.46.26zm-.55-.41l-.647.399l-.096-.068l.011-.118l-.32-.242l.59-.36l.45.27v.113zm-.524-.462l-.607.377l-.084-.062L9 12.36l-.32-.168l.494-.298l.506.202v.101zm-.607-.348l-.478.292l-.174-.09l.011-.152l-.298-.168l.416-.26l.523.226zm-.568-.456l-.46.281l-.153-.084l.017-.18l-.264-.158l.343-.213l.517.236zm.09-.18l-.512-.23l.658-.405v.112l.529.236l-.675.41zm.236-.579v-.112l.478-.293v.011l.563.253v.062l-.506.315zm.568-.45v-.011l.647-.394v.079l.562.247l-.64.394v-.067l-.563-.248zm.737-.388v-.073l.54-.337l.523.241v.118l-.495.304l-.562-.253zm.562.36l.546-.332l.523.225v.152h.005l-.46.281v-.04l-.608-.247v-.039zm.619.433l.562-.337l.495.196v.085l-.562.348zm.506.394l.596-.372l.467.282v.112h.005l-.506.315l-.562-.315v-.028zm.568.438l.59-.36l.467.265v.095l-.478.293zm-.09.056l.58.293l-.636.393v-.056l-.529-.27zm-.152.68v.057l-.517.32l-.551-.28v-.023l.545-.337zm-1.158.158l.55.276l-.697.422v-.096l-.46-.259l.607-.37zm-.028-.118l-.67.41l-.005-.005v-.112l-.461-.276l.601-.371v.056zm-.574-.438l-.619.382v-.107l-.494-.202l.64-.394v.04zm-.478-.422l-.742.45h-.006v-.146l-.517-.225l.663-.405v.078zm-.506-.304v-.079l.495-.309l.585.242v.101l-.057.04l-.421.253l-.608-.248zm1.17-.208l-.58-.236l.619-.377v.04l.607.253v.033l-.646.394zm.056.18l.596-.36l.495.293c-.214.129-.428.258-.63.393v-.056zm.495.405l.607-.377v.028l.562.315l-.646.394v-.062zm.433.349v.073l-.507.31l-.528-.299v-.056l.512-.32zm-.563-.377l-.517.32l-.467-.28v-.04l.461-.281l.073-.045l.45.27zm4.983-.81l-.535.332l-.472-.264v-.04l.59-.36v.096zm-.49-.394l-.54.332l-.489-.292v-.062l.59-.366v.124zm-.534-.438l-.517.32l-.585-.236v-.101l.562-.349l.028.012v.146zm-.641-.41l-.523.32l-.506-.225v-.028l.59-.354v.09zm-.349-.254v-.09l.641-.388v.08l.44.196l-.636.394zm.546.237l.63-.394v.174l.506.225l-.59.366l-.524-.214v-.146zm.635.421l.563-.348v.112l.54.214l-.675.41l-.428-.258zm-2.564-.017l.613-.37v-.034l-.54-.248v-.101l-.64.393v.074l.567.247zm2.88 2.098l-.023.005l-.073.034l-.214.101l-.405.22l.326.32l.574-.489a1.4 1.4 0 0 0-.152-.174a.1.1 0 0 0-.034-.017" clip-rule="evenodd"/><path fill="#0032a7" d="M4.384 17.634c.747-.04 1.102.18 1.18.293c.248.112.22.376.17.5a9 9 0 0 0-.063.613c.006.05.085.09.326.135c.197.034.495-.214.619-.338c.45.04.76.653.86.956l-.146.394c-.41.319-.88.55-1.383.68c-.562.073-1.153.096-1.62-.208a3.1 3.1 0 0 1-.843-1.068a4 4 0 0 0-.18-.461c-.09-.186-.14-.45-.152-.551c.101-.298.484-.9 1.237-.945z"/><path fill="#002786" d="M5.362 20.519a4.4 4.4 0 0 1-1.648-.298c1.518 1.422 3.869.197 3.88-.298c.017-.4-.371-.782-.562-.922c.04.37-.276.657-.394.781c-.13.124-.264.737-1.276.737"/><path fill="#000" d="M9.32 11.437c-.252.253-.916.147-1.36-.298s-.506-1.057-.247-1.31c.253-.253.916-.185 1.36.259s.506 1.096.248 1.35"/><path fill="#2f028a" d="m9.163 10.93l-1.226-.787c.045-.113.225-.304.602-.113c.377.197.574.675.619.9z"/><path fill="#ab0d00" d="m9.169 11.213l-1.102-.607c-.012.067.033.264.331.522a.68.68 0 0 0 .77.085"/><path fill="#d39338" d="M8.55 11.185a.146.146 0 1 0 0-.293a.146.146 0 0 0 0 .293"/><path fill="#000" d="M13.82 11.155c.252.259.916.152 1.36-.292c.45-.45.506-1.057.253-1.31s-.917-.192-1.36.253c-.45.45-.507 1.102-.254 1.35"/><path fill="#2f028a" d="m13.982 10.65l1.226-.787c-.045-.112-.225-.298-.607-.107c-.377.192-.568.675-.619.894"/><path fill="#ab0d00" d="m13.97 10.931l1.103-.601c.017.067-.028.264-.326.517a.67.67 0 0 1-.776.084"/><path fill="#d39338" d="M14.595 10.908a.146.146 0 1 1 0-.292a.146.146 0 0 1 0 .292"/><path fill="#1c1c1c" d="m9.304 13.625l-.175-.427c-.37.343-1.209 1.096-1.602 1.338c-.484.31-.709 1.215-.619 2.334a4.2 4.2 0 0 1-.275 1.94l1 .984l.107-.09l.225-1.49c-.112-.394-.348-1.282-.337-1.642c.022-.45.152-1.069.337-1.541c.146-.377.956-1.09 1.339-1.406"/><path fill="url(#SVGtnzoO34L)" fill-rule="evenodd" d="M20.995 3.615h-.012l-.647-.056l.023-.034l-.068-.056l-.067.078l-.315-.028l-.011.096l.259.022l-.366.467c-.203-.011-.394-.022-.573-.022l.146-.186l-.068-.056l-.197.236h-.337v.09h.264l-.45.562l-.657-.005l.365-.467l-.073-.056l-.405.523h-.41v.095h.337l-.343.445q-.348-.011-.697-.012l.208-.27l-.068-.056l-.258.326c-.231 0-.422.017-.552.04l.017.09q.168-.025.462-.034l-.44.551l-.629-.022l.242-.321l-.073-.056l-.281.37l-.315-.01v.09l.247.01l-.371.49l-.613-.022l.135-.18l-.073-.057l-.169.237h-.337v.095l.264-.005l-.433.584l-.708-.01l.168-.226l-.067-.056l-.214.281h-.394v.09h.327l-.31.405h-.764v.096h.697l-.394.506l-.658-.023l.326-.506l-.078-.045l-.354.551l-.405-.011v.09l.348.011l-.191.287l.079.056l.219-.337l.652.011l-.28.365l.078.057l.315-.416l.714.016l-.304.405l.073.057l.338-.456l.613.017l-.169.225l.073.056l.208-.281l.54.017l.067.056l.045-.056l.209.005v-.09h-.135l.37-.472l.704.056l-.338.433l.073.057l.372-.484l.506.045l-.405.506l.067.056l.45-.55l.658.055l-.45.58a10 10 0 0 0-.394-.006v.09h.321l-.112.146l.073.056l.151-.19l.703.05q-.224.282-.45.562l-.236-.028l-.017.09l.186.023q-.06.07-.124.14l.056.073q.09-.096.175-.197c.213.034.461.068.708.113l-.86 1.17l.073.056l.889-1.215l.804.135l-.045.05l.045.085q.052-.054.101-.112l.236.039l.017-.09l-.191-.034q.222-.293.433-.596c.241.05.45.09.601.13l.023-.09l-.562-.119l.433-.618l.669.09l-.034.05q-.072.12-.14.242l.09.023l.005-.011l.028-.045q.075-.125.152-.248l.456.068l.016-.09l-.421-.057q.175-.273.354-.545l.455.073v-.09l-.404-.067l.365-.563l.04.006v-.225l-.085.13l-.619-.068l.428-.619q.141.026.281.056v-.1a4 4 0 0 0-.225-.034L21 5.898v-.157c-.107.14-.214.298-.326.46q-.37-.048-.742-.078l.444-.602l.618.05v-.095l-.556-.04l.37-.505l.186.028v-.096l-.123-.017l.123-.168v-.13l-.01-.005l-.215.292a8 8 0 0 0-.567-.056l.393-.512q.22.026.4.068v-.09a5 5 0 0 0-.338-.062l.337-.439zm-3.858 4.977a10 10 0 0 0-.703-.057l.45-.568l.686.068zm.5-.642l-.686-.067l.4-.517l.697.056zm.478-.612q-.348-.03-.697-.057l.405-.517l.686.062l-.298.393zm-.804-.068l.405-.517l-.562-.045l-.068-.006l-.427.529zm1.265-.529l-.686-.061l.45-.58l.698.045zm-.793-.073l.45-.573l-.624-.034l-.45.551l.619.056zm.788-.646l-.158-.006l.461-.596l.686.045l-.455.59l-.529-.033zm-.27-.017l.466-.59l-.607-.034l-.478.59zm1.327-.63l-.68-.045l.388-.495q.342.01.686.028zm-.793-.05l.388-.495l-.607-.012l-.383.473l.073.005zm.63-.58h-.056l.427-.545q.327.021.652.056l-.393.517zm-.169 0l.428-.556l-.58-.017l-.45.556l.597.012zm.686-.63l-.079-.005l.366-.467l.647.056l-.36.473a11 11 0 0 0-.574-.057m-2.137.698h.653l-.383.478q-.309-.016-.618-.028l.354-.45zm-.416.54l.619.022l-.484.59l-.585-.028zm-.517.674l.585.028l-.45.552l-.551-.045zm-.484.619l.551.045l-.432.528l-.54-.028zm-.489.63l.54.033l-.394.49l-.517-.045zm.9.596l-.647-.062l.394-.495l.658.045l-.4.506zm-1.012-.602l-.366.472l-.703-.056l.36-.45zm-.821-.034l-.355.45l-.55-.04l.325-.432zm-.692-.028l-.326.433l-.602-.028l.315-.422zm-.394.523l-.601-.034l-.383.512l.613.017zm-.337-.54l-.31.416l-.702-.022l.31-.405l.708.011zm-.377.506l-.703-.022l-.393.512l.72.017zm.827.04l-.371.489l.545.017l.371-.472zm.349-.619c-.214 0-.422-.011-.62-.017l.445-.584q.264.002.613.022zm.112.006l.433-.58l.596.034l-.45.563c-.197 0-.393-.012-.58-.017m.692.028l.45-.562l.686.045l-.428.55zm.517-.652l.686.056l.41-.534l-.691-.034zm1.614-1.153l-.45.585l-.692-.028l.444-.563q.349-.005.698.006M15.59 6.494l.404-.506l-.63-.028l-.37.495zm4.15-1.113l.393-.506q.288.016.574.045l-.377.506zm-.068.09l.596.039l-.444.602l-.613-.045zm-.529.68l.619.05l-.45.614l-.63-.057zm-.528.686l.63.062l-.377.512l-.647-.062l.056-.079zm.73.073l-.37.512c.264.028.528.056.787.095l.365-.528l-.776-.079zm-1.191.523l.652.062l-.394.545l-.675-.078zm.759.073l-.4.546l.805.095l.017-.022l.365-.523zm-1.237.54l.669.079l-.416.562l-.686-.084zm.776.09l-.422.568l.799.135l.427-.607zm-1.277.551c.236.023.467.056.692.084l-.439.597l-.708-.113l.337-.422zm.793.101l-.439.596l.805.135q.223-.293.432-.596a15 15 0 0 0-.798-.135m2.12-.54l-.669-.084l.382-.55l.636.089zm.405-.63l-.63-.09L20.23 7l.618.068zm-1.08-.792l.776.079l.428-.619a14 14 0 0 0-.748-.079l-.45.619z" clip-rule="evenodd"/><path fill="#000" fill-rule="evenodd" d="M15.49 5.42q2.72-1.279 5.504-2.417v.394a115 115 0 0 0-5.342 2.361a40 40 0 0 0-4.948 2.66l.101.028l.045.011c.371.09.703.17 1.125.17c.433 0 .984-.09 1.54-.186h.029c.54-.096 1.09-.186 1.524-.186c.466 0 .86.18 1.135.54c.336.498.48 1.102.405 1.698q.566-.344 1.136-.68l1.108-.658c.855-.518 1.687-1.001 2.142-1.215v.405c-.455.23-1.18.652-1.95 1.125l-1.103.652c-.529.315-1.035.613-1.395.838a2.54 2.54 0 0 1-1.237 1.659a1.1 1.1 0 0 0-.309.315c-.096.14-.185.303-.281.472l-.017.034c-.09.157-.174.32-.27.46a1.6 1.6 0 0 1-.365.4c-.265.186-.748.433-1.294.635c-.545.203-1.175.366-1.715.366c-.545 0-1.08-.197-1.49-.422a3.5 3.5 0 0 1-.692-.5a1 1 0 0 1-.084-.101a8 8 0 0 0-.394.416a2.5 2.5 0 0 0-.438.72c-.113.297-.186.674-.186 1.191c0 .254.017.428.045.552c.023.129.056.219.096.314c.04.102.084.209.112.355c.034.152.056.337.056.607c0 .54-.135 1.181-.54 1.687c-.416.517-1.102.877-2.164.877c-.86 0-1.406-.28-1.715-.663a1.63 1.63 0 0 1-.383-1.04a1 1 0 0 1-.14-.147A.55.55 0 0 1 3 18.81a1 1 0 0 1 .135-.506c.118-.191.32-.394.67-.585c.702-.382 1.337-.293 1.787.011c.203.13.287.315.315.49a.8.8 0 0 1-.04.421a1.2 1.2 0 0 0-.039.242c0 .096.006.169.023.197h.034a.6.6 0 0 0 .197-.05a1.3 1.3 0 0 0 .506-.394a.7.7 0 0 0 .135-.338c.028-.14.039-.31.039-.489l-.017-.551v-.034a8 8 0 0 1-.022-.5v-.18a3.4 3.4 0 0 1 .1-1.102c.158-.518.518-1.058 1.311-1.536h.006v-.005h.005l.023-.017q.1-.08.19-.169a4 4 0 0 1-.32-.472a1.4 1.4 0 0 0-.168-.208l-.276-.293l-.011-.017l-.27-.28a1.7 1.7 0 0 1-.197-.254a3.4 3.4 0 0 1-.152-.5l-.078-.506a4.4 4.4 0 0 1-.09-.878c0-.337.045-.708.219-.955c.394-.585 1.305-1.097 2.424-1.097c.292 0 .545.023.775.062c1.148-.844 3.195-1.912 5.275-2.89zm.826 5.253l-.062.04l.05.073a2.25 2.25 0 0 1-1.135 1.602a1.4 1.4 0 0 0-.394.394c-.113.146-.202.326-.298.489l-.017.034a6 6 0 0 1-.259.45c-.095.14-.19.253-.292.32c-.236.169-.697.405-1.237.602c-.529.197-1.12.348-1.614.348a3.25 3.25 0 0 1-1.985-.832a.4.4 0 0 1-.062-.079l-.112.057l.41-.394a2.46 2.46 0 0 0 1.873.86a4.2 4.2 0 0 0 2.446-.798a1 1 0 0 0 .18-.208l.191-.298c.13-.22.253-.456.337-.613v-.011l.006-.012q.063-.214.18-.404c.096-.152.214-.287.349-.36c.503-.26.895-.694 1.102-1.22c.101.01.191-.023.23-.096c.068-.113 0-.265-.14-.343c-.14-.085-.304-.056-.366.045c-.045.079-.028.174.034.253a2.05 2.05 0 0 1-.984 1.119a1.17 1.17 0 0 0-.461.46a2 2 0 0 0-.203.456q-.23.446-.5.866a.7.7 0 0 1-.124.152a3.95 3.95 0 0 1-2.277.742a2.15 2.15 0 0 1-1.738-.871l-.242-.326c-.168-.349-.348-.495-.73-.787a3.4 3.4 0 0 1-.546-.563c.073-.079.096-.185.045-.264c-.056-.107-.225-.13-.366-.045c-.14.079-.202.236-.14.337c.04.073.124.113.22.101c.134.18.365.45.618.647c.348.264.489.383.613.619l-.349.32a4 4 0 0 1-.292-.421a1.4 1.4 0 0 0-.197-.265l-.281-.298l-.017-.011l-.265-.281a1.4 1.4 0 0 1-.163-.203a3 3 0 0 1-.118-.416c-.033-.18-.056-.37-.073-.489v-.011a4.4 4.4 0 0 1-.095-.833c0-.331.056-.63.168-.804c.338-.494 1.159-.978 2.205-.978c.523 0 .916.09 1.299.186l.056.01c.365.09.73.18 1.18.18c.462 0 1.035-.095 1.586-.19h.012c.556-.096 1.085-.186 1.496-.186c.393 0 .702.152.916.439c.225.286.354.73.354 1.35q.002.192-.022.359m-7.17 2.88c-.258.241-.697.663-.956.96c-.18.22-.354.467-.483.805c-.13.332-.208.742-.208 1.287c0 .27.022.456.056.608c.028.152.067.258.107.36c.039.095.073.185.1.309c.023.13.046.298.046.551c0 .5-.124 1.069-.478 1.518c-.354.439-.956.77-1.951.77c-.799 0-1.254-.258-1.507-.561a1.35 1.35 0 0 1-.315-.89c.309.057.798.08 1.248-.1c.354-.146.602-.281.76-.388l-.006.084c-.006.113 0 .259.061.366a.23.23 0 0 0 .107.09a.67.67 0 0 0 .574.286c.517 0 .438-.314-.034-.36c.186-.095.382-.247.534-.438c.102-.13.158-.287.191-.45a3 3 0 0 0 .045-.551c0-.186-.01-.383-.022-.562v-.034l-.017-.49v-.202c-.011-.292-.022-.635.09-1a2.42 2.42 0 0 1 1.243-1.418l.084-.067q.339-.282.652-.59l.08.112zm-3.565 5.105l.023-.096v-.005l.005-.006a.64.64 0 0 0 .028-.292a.5.5 0 0 0-.056-.152a1.55 1.55 0 0 1-1.293.619a3.3 3.3 0 0 1-.838-.074a.7.7 0 0 1-.146-.056a.8.8 0 0 0-.028.214q-.002.067.073.169l.146.129l.067.045v.028c.293.056.776.079 1.21-.096q.429-.166.81-.427m-2.244-.152a.5.5 0 0 0 .135.056c.152.04.4.074.81.074c.686 0 1.08-.355 1.248-.608a.5.5 0 0 0-.09-.073c-.36-.242-.888-.332-1.507.006c-.248.12-.455.312-.596.55zm.462-.27c-.141.208.432.163.579.152h.033c.338-.017.748-.292.782-.371c.028-.073-.107-.169-.45-.169c-.337 0-.787.152-.945.388" clip-rule="evenodd"/><defs><linearGradient id="SVGqdutuetg" x1="11.485" x2="17.772" y1="10.119" y2="16.559" gradientUnits="userSpaceOnUse"><stop stop-color="#9d35b8"/><stop offset=".54" stop-color="#3b3299"/><stop offset="1" stop-color="#1a5994"/></linearGradient><linearGradient id="SVGZrvNhcku" x1="12.001" x2="12.001" y1="3.004" y2="20.991" gradientUnits="userSpaceOnUse"><stop offset=".04" stop-color="#6c34aa"/><stop offset=".17" stop-color="#46319d"/><stop offset=".72" stop-color="#129bd2"/></linearGradient><linearGradient id="SVGtnzoO34L" x1="11.488" x2="15.855" y1="8.308" y2="14.029" gradientUnits="userSpaceOnUse"><stop stop-color="#610c8b"/><stop offset="1" stop-color="#231c81"/></linearGradient></defs></g></svg>