<svg xmlns="http://www.w3.org/2000/svg" viewBox="0 0 24 24"><g fill="#ffc908"><path d="m12 21l-.034-.005c-2.131-.555-5.804-2.393-5.804-4.982V6.596c0-.38.321-.68.715-.676h10.246c.389 0 .71.302.715.676v9.419c0 2.612-3.649 4.446-5.804 4.981zM6.649 6.405v9.535c0 2.375 3.42 4.077 5.351 4.588c.438-.107 5.351-1.77 5.351-4.578V6.405zm4.135-2.476h.924L12 3l.292.93h.924l-.749.573l.282.93L12 4.857l-.75.574l.283-.929z"/><path d="m9.79 18.081l.156-.16l-.02-.034l-.023.029l-.015.014l-.015.01c-.005 0-.02-.01-.029-.03l-.01-.014l-.01-.014v-.638l-.019-.058a.13.13 0 0 0-.044-.044l-.024-.02l-.024-.014l-.146.146l.02.034l.048-.049l.015.01l.029.025l.014.072v.506a.14.14 0 0 1-.039.098zm.682-.263a.7.7 0 0 0 .068-.296a.4.4 0 0 0-.068-.244a.43.43 0 0 0-.21-.155a.7.7 0 0 0-.194.194a.36.36 0 0 0-.058.205c0 .112.053.2.16.253l.258-.214v.048a.55.55 0 0 1-.097.35l-.195-.121l-.097.112l.229.131a.9.9 0 0 0 .204-.263m-.131-.472a.34.34 0 0 1 .077.18l-.121.098c0 .01-.01.014-.02.014h-.014a.14.14 0 0 1-.107-.063a.25.25 0 0 1-.05-.155a.2.2 0 0 1 .079-.176q.089.028.155.098zm3.522.492a.7.7 0 0 0 .048-.268a.6.6 0 0 0-.048-.272a.6.6 0 0 0-.18-.19a.68.68 0 0 0-.224.511c0 .107.02.21.063.292a.33.33 0 0 0 .175.17a.8.8 0 0 0 .166-.243m-.088-.453a.46.46 0 0 1 .063.244a.7.7 0 0 1-.063.316a.28.28 0 0 1-.17-.156a.6.6 0 0 1-.068-.292a.42.42 0 0 1 .068-.253q.103.031.17.142m.603.438a.9.9 0 0 0 .049-.301a.46.46 0 0 0-.059-.253a.4.4 0 0 0-.175-.156a.7.7 0 0 0-.165.195a.4.4 0 0 0-.049.204c0 .117.049.204.137.258l.223-.214v.048a.6.6 0 0 1-.087.355l-.16-.121l-.084.112l.195.131a1 1 0 0 0 .175-.263zm-.117-.486a.5.5 0 0 1 .069.185l-.107.097c0 .01-.005.01-.01.015h-.02c-.039 0-.073-.03-.092-.064a.3.3 0 0 1-.039-.155a.24.24 0 0 1 .063-.175c.049.02.098.048.136.097m-1.045.258a1.216 1.216 0 1 1-2.433 0a1.216 1.216 0 0 1 2.433 0m-1.217-1.085a1.085 1.085 0 1 0 0 2.17a1.085 1.085 0 0 0 0-2.17"/><path d="M11.493 17.385v.156h-.117v-.477h.302a.24.24 0 0 1 .156.039a.15.15 0 0 1 .053.121a.17.17 0 0 1-.024.098a.15.15 0 0 1-.063.048l.107.17h-.146l-.083-.155zm.185-.219h-.185v.117h.175c.025 0 .049 0 .073-.015a.06.06 0 0 0 .025-.048q.001-.015-.004-.027l-.016-.022a.1.1 0 0 0-.068-.005m.487.375v-.482h.491v.107h-.365v.088h.331v.097h-.331v.19zm0 .724v-.471h.491v.097h-.365v.097h.331v.097h-.331v.18zm-.788-.476h.515v.102h-.39v.083h.341v.097h-.34v.097h.39v.097h-.517zm.841-2.248a.34.34 0 0 0-.185.107v-.02a.4.4 0 0 0-.014-.087c.107-.005.185-.073.185-.165a.16.16 0 0 0-.117-.156v-.03l.01-.023l-.03.01a.1.1 0 0 0-.034.019l-.01-.025a.1.1 0 0 0-.024-.024l-.029.02l-.02.029a.1.1 0 0 0-.029-.02h-.048l.024.025l.01.024c-.078.005-.112.083-.112.15c0 .088.082.161.185.166l.01.088v.01c-.03-.02-.146-.098-.195-.112c-.078-.015-.17 0-.204-.005c.019.02.048.034.063.058c.039.03.078.054.126.068c.068.02.146.015.214-.01l-.024.098l.058-.02l.005-.068h.034c.015-.01.098 0 .175 0c.049 0 .103-.02.146-.058l.054-.03a.5.5 0 0 0-.224-.019m-.272-.165a.2.2 0 0 1 .063-.146a.203.203 0 0 1 0 .292a.2.2 0 0 1-.063-.146m.214-2.374l-.02.029c.03 0 .059.02.078.048h.005v-.004a.13.13 0 0 1 .083-.044l-.025-.03zm-.492-.258c-.038 0-.073.034-.073.068c0 .015 0 .024.01.039l.024.044c.005-.02.025-.03.044-.03c.025 0 .049.015.049.04h.083a.06.06 0 0 1 .053-.04q.035 0 .049.03l.02-.049a.08.08 0 0 0 .005-.06a.06.06 0 0 0-.037-.038l-.027-.004a.07.07 0 0 0-.063.044a.3.3 0 0 0 .024-.122c0-.063-.063-.136-.063-.136s-.063.073-.063.136q.002.065.024.122c0-.025-.034-.044-.059-.044m.414.156q.013-.03.049-.03c.024 0 .043.015.048.04h.083a.06.06 0 0 1 .049-.04c.024 0 .043.01.048.03l.02-.05a.1.1 0 0 0 .014-.038a.06.06 0 0 0-.046-.062l-.027-.001q-.042 0-.063.039v.005a.3.3 0 0 0 .024-.122c0-.068-.063-.136-.063-.136s-.063.068-.063.136c0 .044.014.078.024.117v.005c-.01-.04-.053-.054-.087-.04a.07.07 0 0 0-.044.064c0 .014 0 .024.01.039zm-.127.335a.07.07 0 0 0-.087-.034a.07.07 0 0 0-.044.063c0 .01 0 .025.01.04l.02.043a.05.05 0 0 1 .048-.03c.024 0 .049.015.049.04h.082a.06.06 0 0 1 .054-.04c.02 0 .039.01.048.03l.02-.049a.1.1 0 0 0 .01-.034q.001-.015-.004-.028l-.016-.023a.06.06 0 0 0-.053-.016c-.025 0-.049.019-.064.043a.3.3 0 0 0 .03-.122c0-.068-.064-.136-.064-.136s-.063.068-.063.136q.002.06.024.117m-.019.214l-.02.03c.03.004.059.024.078.048H12v-.005a.13.13 0 0 1 .083-.043l-.024-.03zm-.083-.418l-.02-.03h-.12l-.02.03c.029 0 .058.02.078.048l.01-.004a.1.1 0 0 1 .072-.044m1.226-2.165a.6.6 0 0 1 .229.175c.039-.029.112-.049.16-.029h.005c.01-.005-.014-.039-.029-.039h-.005l-.02.015v-.02c-.004-.01-.019-.01-.028 0c0 0-.01.005-.01.015l.014.014h-.004c-.01 0-.03.005-.034-.005c-.005 0-.01-.01-.005-.019l-.015-.005c-.01-.01 0-.02.005-.029h.005v.015c.014.01.029 0 .034-.01v-.015h-.02v-.005l.02-.014h.005c0-.01 0-.024-.015-.024h-.014l-.015.024l-.005-.015c-.01-.01-.024 0-.03.01v.02h.02v.004c-.01.01-.02.02-.034.01c-.01 0-.01-.015-.01-.02h-.019c-.02-.019 0-.034 0-.043h.005l.01.01v.004c.014 0 .029 0 .029-.014v-.015h-.005l-.02-.005l.025-.02q.008-.021-.015-.028h-.014v.005l-.01.024l-.01-.015v-.005c-.014 0-.029 0-.029.02v.014h.024v.01c-.01.01-.024.024-.034.015c-.01-.005-.01-.015-.01-.02h-.019c-.014-.01-.01-.024 0-.034v-.005l.01.015c.014 0 .024 0 .029-.02l-.005-.014h-.02l.015-.015h.005c0-.01 0-.02-.01-.024h-.024v.03h-.01l-.004-.015v-.005h-.01l-.01.003a.03.03 0 0 0-.01.016v.01h.025v.01c-.005.01-.01.019-.025.014l-.005-.01h-.024c-.01-.004-.01-.024-.01-.034h.015c.014 0 .02-.014.02-.024l-.01-.01h-.005l-.015.005v-.02c0-.019-.043-.028-.048-.019c.034.03.029.107.014.156m-.131 1.07a.175.175 0 0 0-.22.112a.18.18 0 0 0 .006.117c0-.015 0-.03.01-.039a.1.1 0 0 1 .029-.034c-.005.02-.01.034-.005.049c0 .024.01.048.024.058l.005-.03l.01-.004l.01.005l.01.029v.034a.1.1 0 0 1-.05.059a.1.1 0 0 1-.077.004a.1.1 0 0 1-.025-.014c-.019-.015-.043-.02-.068-.03a.12.12 0 0 0-.082.005a.1.1 0 0 0-.026.02a.1.1 0 0 0-.013.029a.05.05 0 0 1 .058-.015c.01 0 .01.01.01.015c.005.02.029.034.048.034l.044-.015l.01.005c.005.01 0 .015-.005.015l-.039.01a.12.12 0 0 0-.058.063c-.005.02 0 .049.01.063c0-.02.01-.044.029-.049h.02a.05.05 0 0 0 .058-.01l.024-.048l.01-.005q.009 0 .01.015l-.01.03c0 .028.014.057.024.082c.015.02.039.024.063.024a.06.06 0 0 1-.034-.049l.01-.019c.024-.01.029-.034.024-.049l-.01-.014l-.004-.015l.004-.01h.01c.078.044.175.03.229-.039l-.04-.004c-.014 0-.023-.01-.038-.02a.12.12 0 0 0 .097-.058a.05.05 0 0 1-.037-.001l-.016-.012l-.01-.016a.05.05 0 0 1 .001-.038a.05.05 0 0 1 .028-.026a.05.05 0 0 1 .034 0c.005 0 .015 0 .02-.01a.17.17 0 0 0-.112-.204m-.316-.851c.01.014.029.024.048.03l.03.004h.194c-.058-.015-.126-.024-.18-.044a.1.1 0 0 1-.039-.024a.1.1 0 0 0-.126-.01h.029c.02.01.03.024.049.044z"/><path d="M12.792 11.05c0 .01.005.03.014.04c.01-.03.044-.049.073-.034a.06.06 0 0 1 .029.027a.058.058 0 0 1-.053.085a.034.034 0 0 1-.024-.039a.1.1 0 0 0-.015.024l-.02.078c-.004.02-.019.014-.029.029c.083-.024.098 0 .112-.005l.107-.039c.005 0 .015-.014.01-.02v-.038l.01-.02h.01v.015c-.01.014-.01.03 0 .039l.004.01l.015.024v.005l-.059.02c-.01.004-.014.009-.01.024c0 .01 0 .014-.009.024c-.005.005-.014.014-.024.014l-.146.015a.1.1 0 0 0-.068.093c.039-.01.073 0 .112.014l.024.015l-.024.02a.13.13 0 0 0-.044.096a.13.13 0 0 1 .107 0l.024.01l-.02.02a.08.08 0 0 0-.014.097a.13.13 0 0 1 .122-.03l.014.006v.014a.1.1 0 0 0 .03.073a.23.23 0 0 1 .107-.058c.038-.01.063-.049.073-.088c-.073.04-.069-.01-.05-.024c.04-.049.05-.097.069-.16v-.03a.1.1 0 0 1-.02-.029c.05.034.088-.02.083-.049c-.029.03-.039.015-.039 0s.015-.146-.02-.214c.035.01.064-.005.074-.039v-.01c-.02.01-.049 0-.063-.014l-.034-.034a.4.4 0 0 0-.166-.107a.08.08 0 0 1-.058.02h-.088c-.02-.01-.039 0-.048.014a.4.4 0 0 1-.078.039a.03.03 0 0 0-.015.024l.005.01a.05.05 0 0 1 .01.044m.136-.072l.078.02c-.02.029-.063.033-.098.014v-.015z"/><path d="M12.243 11.226c.015.02.04.024.059.01l.029-.015h.014v.01c-.01.039.01.078.044.088h.02q.015.036.043.058h-.01a.1.1 0 0 1-.03-.01a.1.1 0 0 1-.023-.024c0 .02 0 .048.02.058a.12.12 0 0 0 .077.03a.1.1 0 0 1-.072 0q.017.035.053.048l.146.02c.039.004.039.038.073.029q.038-.014.073-.034a.1.1 0 0 1 .024-.044a.12.12 0 0 0-.078.005l-.029.01v-.03c0-.024 0-.048.01-.073a.2.2 0 0 1-.078-.014l-.029-.01c-.024-.015-.049-.024-.068-.049l-.005-.005l-.005-.01v-.014l-.014-.02a.2.2 0 0 1-.025-.092l-.005-.039l.01-.058a.13.13 0 0 0-.024-.078a.06.06 0 0 0-.049-.024h-.01c.02.01.034.029.034.048q0 .015-.01.015q-.036.024-.028.053l.01.01l.004.025v.004q0 .016-.014.01h-.005l-.01-.014c-.015-.015-.01-.02-.03-.05a.14.14 0 0 0-.067-.048a.1.1 0 0 0-.059.02c.02 0 .044.005.059.024v.015a.05.05 0 0 0 .014.058h.01a.05.05 0 0 1 .03.024c.004 0 .009.005.004.015l-.01.005h-.039a.12.12 0 0 0-.073.044a.07.07 0 0 0-.014.053v.01a.06.06 0 0 1 .049-.044c0-.01 0-.005.004 0m1.153.063c-.073.16.054.326.112.467a.5.5 0 0 1 .039.253l-.005.03a.12.12 0 0 1-.122.078c-.004 0-.01 0-.01-.01a.15.15 0 0 0-.058-.117c-.082-.073-.111-.083-.155-.141a.12.12 0 0 1-.03-.122a.12.12 0 0 0-.097.054l-.01.014l-.014-.01a.12.12 0 0 1-.063-.097a.09.09 0 0 0-.088.034l-.014.015l-.01-.015a.1.1 0 0 1-.015-.024h-.039a.4.4 0 0 1-.053.078l.258.131a.23.23 0 0 1 .097.248a.6.6 0 0 0-.024.21c0 .038.024.077.053.106l-.005-.048c0-.01 0-.024.01-.034c0 .014 0 .034.015.048c.01.015.029.03.048.04a.1.1 0 0 1 .014-.078a.1.1 0 0 1 .025-.02a.14.14 0 0 0 .083-.088a.13.13 0 0 1-.015.103c.02.02.03.048.02.068a.1.1 0 0 1-.044.068s-.03.014-.102-.015a.12.12 0 0 0-.113.03a.1.1 0 0 0-.014.029a.054.054 0 0 1 .064-.015q.008 0 .01.015c0 .02.024.034.048.029h.014l.025-.015c.01 0 .014.01.014.015l-.01.01l-.038.01a.12.12 0 0 0-.054.063a.07.07 0 0 0 .005.063q-.001-.038.034-.054h.015a.05.05 0 0 0 .058-.005l.005-.014l.02-.034l.014-.005l.005.014a.2.2 0 0 1-.02.049a.14.14 0 0 0-.014.083q.008.032.044.049a.06.06 0 0 1-.005-.064c0-.005.01-.01.014-.005c.025 0 .05-.02.05-.039c0-.02-.02-.029-.016-.038c0-.01.005-.01.01-.01a.068.068 0 0 0 .073-.098c-.034-.072.098-.13.098-.18a.063.063 0 0 0-.04-.077h-.034c-.014 0-.029-.01-.034-.03a.24.24 0 0 0-.043-.092l.014-.02c.088.01.17-.048.195-.13a.2.2 0 0 0 .014-.064a.7.7 0 0 0-.048-.263c-.059-.146-.21-.32-.083-.472c.049-.063.122-.053.151-.029c.024.015.049.049.073.127a.14.14 0 0 0 .117.107a.14.14 0 0 1-.044-.073l.01-.02l.02.005a.12.12 0 0 0 .17.03a.1.1 0 0 0 .038-.05a.09.09 0 0 1-.088.005c-.048-.014-.048-.077-.082-.116a.25.25 0 0 0-.122-.098a.27.27 0 0 0-.32.151"/><path d="M12.471 11.952a.08.08 0 0 0 .054.024h.005c-.02-.014-.034-.029-.034-.053q.001-.015.01-.015c.019-.01.028-.034.019-.058l-.005-.01l-.01-.02v-.009l.015-.01c.034.02.078.005.092-.024l.005-.02q.03-.013.059-.034l.004.01c0 .02-.02.04-.043.049c.024 0 .048 0 .063-.015a.1.1 0 0 0 .039-.073q.016.036-.005.073a.1.1 0 0 0 .053-.078c0-.01.01-.014.015-.014l.005.005h.034a.12.12 0 0 1 .01-.098a.08.08 0 0 0-.073.02l-.02.014l-.005-.024a.1.1 0 0 1-.01-.068c-.097.078-.106.122-.199.15a.2.2 0 0 1-.097.015h-.039l-.049-.024a.12.12 0 0 0-.087.01a.07.07 0 0 0-.034.048v.005a.06.06 0 0 1 .058-.02l.015.015c.004.02.029.034.048.03h.015l.02-.005h.01c.009 0 .009.01.004.014v.005l-.068.034a.12.12 0 0 0-.059.063a.1.1 0 0 0 .005.054l.005.01c0-.025.01-.049.03-.059h.019c.014.01.039.005.053-.01a.1.1 0 0 1 .034-.033l.01-.005q.009 0 .01.014c0 .015 0 .025-.01.04q0 .042.03.077"/><path d="M9.567 14.48c0 .55.272.988.778 1.28c.428.243 1.012.374 1.654.374c1.178 0 2.433-.438 2.433-1.654v-4.184H9.567zm.973 1.168c-.024-.01-.083-.02-.102-.034a1.2 1.2 0 0 1-.205-.132V13.08h.307zm.18.078v-2.647h.306v2.642c-.048.01-.136.01-.184.01zm1.284.238a3.7 3.7 0 0 1-1.133-.166a1.12 1.12 0 0 0 .827-.418c.146-.17.243-.37.296-.589c.049.224.146.429.297.604c.214.243.526.394.856.403a4 4 0 0 1-1.143.166m-.798-.306v-2.579h.03c.01.214.13.418.277.584v1.834c-.083.063-.214.117-.307.16m.487-.38v-1.45a.7.7 0 0 0 .267.068v.584c0 .292-.092.564-.267.798m2.564-.803c0 .501-.234.886-.691 1.143a1 1 0 0 1-.18.088a1.1 1.1 0 0 1-1.041-.36a1.33 1.33 0 0 1-.312-.866v-.584a.8.8 0 0 0 .292-.087v.267a.18.18 0 0 0-.128.154a.17.17 0 0 0 .128.187v.185q0 .13.044.253a.176.176 0 0 0-.02.253a.18.18 0 0 0 .137.063c.024 0 .048 0 .068-.01a.8.8 0 0 0 .413.229a.18.18 0 0 0 .21.146a.175.175 0 0 0 .146-.146a.84.84 0 0 0 .413-.234c.097.034.2-.01.238-.102a.17.17 0 0 0-.048-.2a1 1 0 0 0 .039-.252v-.185a.18.18 0 0 0 .088-.275a.2.2 0 0 0-.088-.066v-.5a.184.184 0 0 0 .126-.225a.19.19 0 0 0-.228-.121a.18.18 0 0 0-.122.117h-.418a.18.18 0 0 0-.224-.117a.18.18 0 0 0-.127.117h-.267q.044-.132.053-.278h1.503v1.411zm-1.693.355a.2.2 0 0 0-.103-.014a.7.7 0 0 1-.034-.21v-.184a.18.18 0 0 0 .122-.122h.39l.033.073zm.024.166a.1.1 0 0 1-.17.07a.1.1 0 0 1-.03-.07c0-.054.044-.098.098-.098c.058-.004.097.044.097.098zm.054-.098l.413-.462c.01.01.024.01.044.015v.74a.17.17 0 0 0-.117.097a.73.73 0 0 1-.34-.195a.18.18 0 0 0 0-.194m.384-.646c0-.069.053-.117.121-.117a.12.12 0 0 1 .122.121a.122.122 0 0 1-.208.081a.12.12 0 0 1-.035-.085m.117 1.011a.1.1 0 0 1 .102.098a.1.1 0 0 1-.17.07a.1.1 0 0 1-.03-.07a.1.1 0 0 1 .098-.098m.053-.073v-.734l.044-.015l.409.457a.17.17 0 0 0 .01.195a.7.7 0 0 1-.341.195a.2.2 0 0 0-.122-.098m.122-.817a.2.2 0 0 0 .039-.073h.384a.19.19 0 0 0 .122.122v.185a.6.6 0 0 1-.034.209h-.02c-.03 0-.053.01-.078.02zm.486.52c.059 0 .102.044.102.098a.1.1 0 0 1-.17.07a.1.1 0 0 1-.03-.07c0-.049.05-.097.098-.097m.005-.642c0-.058.049-.097.102-.097a.098.098 0 1 1-.069.166a.1.1 0 0 1-.028-.069zm0-.846c0-.049.049-.097.102-.097a.1.1 0 0 1 .098.097a.095.095 0 0 1-.098.097a.097.097 0 0 1-.097-.097zm.03.16l.024.015v.496a.18.18 0 0 0-.122.122h-.384a.2.2 0 0 0-.03-.063zm-.59.502l-.048-.02v-.472a.19.19 0 0 0 .117-.121h.418q.002.02.024.048zm-.107-.56a.1.1 0 0 1-.097-.097c0-.059.044-.097.098-.097c.058 0 .102.038.102.097a.105.105 0 0 1-.098.097zm-.048.073v.467a.2.2 0 0 0-.049.024l-.452-.5l.063-.108h.316a.2.2 0 0 0 .122.117m-.127.555a.2.2 0 0 0-.029.063h-.389a.19.19 0 0 0-.117-.122v-.335c.034-.03.068-.059.098-.098zm-.486.117c0 .053-.049.097-.102.097a.097.097 0 0 1-.098-.098c0-.058.044-.097.098-.097c.053 0 .097.044.097.098zm-.448-3.785h2.224V13h-1.504c-.02-.438-.33-.793-.72-.817zm.584 2.573c0 .4-.277.725-.623.725c-.34 0-.622-.326-.622-.73c0-.399.277-.725.622-.725c.346 0 .628.326.628.73zm-.657-2.573v1.712a.66.66 0 0 0-.428.185h-.194v-.681h.087v-.292h-.082v-.195h.058v-.17h-.049v.068h-.058v-.068h-.097v.068h-.059v-.068h-.049v.17h.059v.195h-.18v-.423h.073v-.205h-.054v.069H10.9v-.069h-.097v.069h-.098v-.069h-.048v.205h.073v.423h-.19v-.195h.058v-.17h-.048v.068h-.054v-.068h-.107v.068h-.049v-.068h-.048v.17h.053v.195h-.078v.292h.078v.681H10.2v.365h.506v-.268c0-.078.064-.136.136-.136c.078 0 .18.063.18.136v.268h.268a.9.9 0 0 0-.058.267H9.737v-2.53zm-.822 1.303v.195h-.155v-.194c0-.04.038-.074.077-.074c.044 0 .078.035.078.074m-.428 0v.195h-.156v-.194c0-.04.04-.074.078-.074c.044 0 .078.035.078.074m-.973 1.304h.316v2.19a1.24 1.24 0 0 1-.311-.789v-1.4zm-.55-2.35a.05.05 0 0 0-.048-.048h-.594a.05.05 0 0 0-.049.049c0 .014.015.029.03.038c.029.02.048.054.048.088s-.019.073-.048.092a.05.05 0 0 0-.02.05c-.005.028.015.048.044.048h.598a.05.05 0 0 0 .05-.049a.05.05 0 0 0-.03-.049a.1.1 0 0 1-.044-.087c0-.034.01-.068.044-.088a.07.07 0 0 0 .02-.048zm.04 4.262H8.35v.248h.875zM8.773 11.8c.097-.015.204-.025.306-.025v-.652h-.486v.716zm.267 1.624c-.184.103-.287.195-.447.263v.915c0 .121-.054.2-.088.253c-.005.014-.005.029.01.039h.589c.02 0 .029-.02.014-.04c-.029-.048-.039-.126-.039-.252v-1.187zm.098-.827v.287c.078-.048.146-.107.214-.175l.034-.034a.54.54 0 0 0-.248-.078m.38 2.842a.56.56 0 0 1-.39-.034a.78.78 0 0 0-.584 0a.6.6 0 0 1-.375.039l-.063-.01v.087l.05.005q.12.025.242.015c.059-.015.122-.03.18-.054a.67.67 0 0 1 .516 0a.73.73 0 0 0 .472.034v-.087z"/><path d="M9.518 15.64a.7.7 0 0 1-.219.009a1 1 0 0 1-.17-.049a.78.78 0 0 0-.584 0a.57.57 0 0 1-.375.039l-.063-.01v.088l.05.01q.12.022.242.01c.059-.01.122-.03.18-.05a.67.67 0 0 1 .516 0c.063.02.122.04.19.05q.142.017.282-.02v-.088z"/><path d="M9.518 15.825a.6.6 0 0 1-.219.01a1 1 0 0 1-.17-.05a.78.78 0 0 0-.584 0a.5.5 0 0 1-.17.05a.6.6 0 0 1-.204-.006l-.064-.014v.087l.05.01a.8.8 0 0 0 .242.01c.059-.01.122-.03.18-.049a.67.67 0 0 1 .516 0c.063.02.122.04.19.049q.142.018.282-.02v-.087zm-.438-3.493a1.5 1.5 0 0 0-.486.087v.783c.146-.063.277-.146.409-.233l.077-.049zm-.797 1.303l-.015.069a4.5 4.5 0 0 0 1.182-.628l-.039-.307a3.3 3.3 0 0 1-1.055.58zm.073-1.556l-.02.005l.034.092l.02-.01c.024-.014.029-.039.019-.063a.04.04 0 0 0-.049-.024z"/><path d="M8.73 11.874c-.398.058-.695.214-.787.34a.1.1 0 0 0-.03.083l.146.326l.02-.034c.112-.146.423-.278.744-.321c.27-.036.546-.024.813.034v-.404a2.9 2.9 0 0 0-.905-.02zm-.242.253c-.01.029-.05.053-.108.073l.044.111l-.073.03l-.102-.258l.112-.044c.078-.03.112 0 .122.03c.01.019.01.043 0 .058zm.126.126l-.058-.263l.01-.005h.029l.024-.01l.014-.004l.05.229a.5.5 0 0 0 .101-.025l.015.04zm.467-.302q-.06.118-.097.244v.005l-.049.004l-.146-.257v-.01l.083-.005l.068.131c.015.015.02.03.03.049a1.4 1.4 0 0 0 .067-.195h.054zm.063.22a.3.3 0 0 0 .02-.05h.014c.01.03.03.05.059.05c.024 0 .048-.005.048-.035c0-.024-.02-.034-.048-.048c-.04-.02-.083-.04-.073-.098c0-.039.039-.082.116-.077c.03 0 .054.014.073.029h.005v.01l-.02.034h-.014a.05.05 0 0 0-.018-.026a.05.05 0 0 0-.03-.009q-.047-.005-.049.025c0 .024.024.034.049.048c.039.02.087.05.082.098c0 .048-.048.078-.116.078h-.025a.2.2 0 0 1-.078-.025z"/><path d="M8.448 12.866v-.355c-.049 0-.088 0-.131-.01a.5.5 0 0 0-.176.137l-.014.02l-.024.048c.014.092.145.146.34.16zM11.97 7.69h.058v-.092h.064v-.054h-.064v-.078h-.058v.078h-.063v.054h.063v.097zM9.917 9.276c.005.005 0 .01-.005.01a.2.2 0 0 0-.073.087c-.005.01 0 .015.005.02h.01c.078-.034.17 0 .204.078c.01.014.01.024.01.039l.014.01h.01a.097.097 0 0 1 .132.019a.1.1 0 0 1 .01.097v.015c.209.131.34.35.364.588c0 .01.005.01.015.01c.803-.238 1.956-.238 2.763 0c.005 0 .015 0 .02-.01a.78.78 0 0 1 .36-.584v-.019a.104.104 0 0 1 .048-.131a.1.1 0 0 1 .098.01h.019v-.01a.156.156 0 0 1 .175-.132l.039.015c.01 0 .015 0 .02-.01v-.01a.14.14 0 0 0-.073-.087c-.005 0-.01-.01-.005-.015a.9.9 0 0 0 .082-.282c.059-.486-.399-.734-1.07-.637c-.146-.248-.53-.336-1.017-.229c-.004-.048 0-.126-.077-.126c-.073 0-.079.078-.079.126c-.486-.107-.865-.02-1.011.229c-.672-.102-1.129.15-1.07.637q.022.16.082.292m.837.769a.068.068 0 1 1 .063-.068c0 .038-.024.068-.063.068m.57-.146l-.171.112h-.015l-.19-.073c-.004 0-.01-.01-.004-.015l.004-.01l.17-.107h.01l.195.068zm.238.063a.08.08 0 0 1-.078-.078c0-.044.034-.078.078-.078c.043 0 .077.034.077.078a.08.08 0 0 1-.077.078m.632-.088q-.1.047-.2.098l-.194-.098v-.02l.005-.004l.194-.097h.01c.063.029.127.058.19.097l.005.01zm.243.088a.08.08 0 0 1-.078-.078c0-.044.034-.078.078-.078s.078.034.078.078a.08.08 0 0 1-.078.078m.613-.024l-.19.073h-.014l-.17-.112v-.02l.194-.078l.01.005l.17.107c.005.005.01.015 0 .025m.195.107a.06.06 0 0 1-.06-.042l-.003-.026c0-.04.024-.064.063-.064s.068.025.068.064c0 .038-.03.068-.068.068m-.195-.866c0-.04.03-.068.068-.068c.01 0 .015 0 .015-.01l-.005-.005c-.015-.01-.03-.024-.044-.024c-.024-.01-.039-.03-.034-.049c.092-.185.156-.428.063-.632c.414-.04.72.048.827.296c.064.137.064.297.01.487v.014l.039.073v.015h-.005a.1.1 0 0 0-.058.024h-.02a.2.2 0 0 0-.048-.087c-.015-.015-.025.005-.034.01a.24.24 0 0 0-.069.165l-.01.01h-.014a.12.12 0 0 0-.131-.04l-.005.01v.059c.005.01 0 .014-.005.014h-.01a.093.093 0 0 0-.126.025v.01a.12.12 0 0 0 .078.068q.014 0 .014.014h-.005l-.019.04c0 .004 0 .014.01.014h.014a.1.1 0 0 1 .078-.01a.117.117 0 0 1-.083.146a.117.117 0 0 1-.146-.083l-.004-.024c.029-.015.048-.049.029-.083c-.02-.034-.054-.048-.088-.029c-.029.015-.039.049-.029.083c-.107.087-.326.058-.297-.098c0-.038.04-.073.088-.063h.005c.039.005.063.034.068.073c0 .005 0 .01.01.01h.005a.1.1 0 0 0 .034-.068l.004-.015h.015a.12.12 0 0 0 .107-.039l.005-.014a.13.13 0 0 0-.088-.068h-.014v-.02a.2.2 0 0 0-.005-.073l-.015-.005l-.005.005c-.019.044-.068.063-.112.044q-.071-.046-.063-.097zm-.02.117a.082.082 0 0 1-.146.078a.09.09 0 0 1 .046-.116a.08.08 0 0 1 .09.023s.01.005.01.014m-.914-.536c.015 0 .03-.01.034-.029v-.02a.8.8 0 0 1-.058-.3c0-.084 0-.161-.01-.249c.39-.078.69-.039.827.146c.136.165.073.413-.005.598v.02l.073.048c.02.025-.02.064-.048.069c-.02 0-.035 0-.05.01c-.009 0-.009.009-.009.014l.01.005c.039.02.058.068.039.112a.083.083 0 0 1-.107.039a.07.07 0 0 1-.049-.069c0-.004 0-.01-.01-.01h-.01a.1.1 0 0 0-.029.069c0 .005 0 .01-.01.014h-.01a.13.13 0 0 0-.11.034v.015a.13.13 0 0 0 .087.073h.01v.02c0 .024 0 .048.01.068c0 .01.004.01.014.01l.005-.01a.08.08 0 0 1 .045-.043a.08.08 0 0 1 .062.004a.08.08 0 0 1 .048.087c-.024.151-.258.122-.335-.01c.034-.014.048-.048.029-.082c-.015-.03-.049-.049-.083-.03s-.049.054-.03.088l.01.015c-.111.14-.428.107-.388-.078a.097.097 0 0 1 .111-.073a.1.1 0 0 1 .078.073l.01.01l.01-.01a.15.15 0 0 0 .024-.078c0-.014 0-.024.02-.024a.14.14 0 0 0 .111-.063v-.015a.14.14 0 0 0-.112-.063c-.024 0-.02-.01-.02-.025a.12.12 0 0 0-.023-.077h-.02l-.005.004c-.014.054-.068.088-.117.073c-.048-.014-.082-.068-.067-.116c.004-.034.034-.059.068-.069c.01 0 .01-.01.01-.014l-.006-.01a.2.2 0 0 0-.058-.02c-.024 0-.049-.028-.049-.058c0-.034.03-.058.064-.058c.01-.015.014-.015.019-.015m-.024.438a.1.1 0 0 1-.078.107a.097.097 0 0 1-.107-.082v-.03a.097.097 0 0 1 .107-.082c.044.014.073.043.078.087m-1.003-.89c.137-.18.438-.219.827-.146l-.01.253a1.2 1.2 0 0 1-.053.297l-.005.02c0 .019.015.028.034.033c.034-.005.069.015.074.049v.01c0 .029-.02.058-.05.063a.2.2 0 0 0-.053.02c-.01 0-.01.009-.005.019l.005.005c.054.014.088.068.073.116c-.014.049-.068.083-.117.069c-.034-.005-.058-.035-.068-.069c0-.01-.01-.01-.014-.01l-.01.006a.16.16 0 0 0-.024.077c0 .015.005.025-.015.025a.14.14 0 0 0-.117.063v.015a.14.14 0 0 0 .117.063c.02 0 .015.01.015.024q.002.046.024.078c.005.01.015.01.02.005l.004-.005a.1.1 0 0 1 .08-.074a.097.097 0 0 1 .11.074c.034.185-.287.219-.394.078a.062.062 0 0 0 0-.092a.063.063 0 0 0-.092 0a.063.063 0 0 0 0 .097l.02.005c-.074.136-.312.165-.337.01a.08.08 0 0 1 .063-.092h.005a.085.085 0 0 1 .088.047h.02a.1.1 0 0 0 .01-.073V9.35h.014a.12.12 0 0 0 .088-.073v-.015a.12.12 0 0 0-.112-.034h-.01c-.01 0-.005-.01-.01-.014a.1.1 0 0 0-.029-.063h-.015l-.005.004c0 .05-.043.078-.087.078c-.049 0-.078-.044-.078-.087c0-.034.024-.059.049-.073c.01 0 .01-.005.01-.01l-.01-.01a.1.1 0 0 0-.049-.01c-.03 0-.068-.048-.049-.068l.073-.048v-.02c-.077-.185-.14-.433-.005-.598m-.121.988a.083.083 0 0 1 .112-.035l.02.01c.033.03.033.078.004.117c-.03.034-.078.034-.112.005c-.039-.025-.044-.068-.024-.098m-.959-.044l.04-.073v-.015a.8.8 0 0 1 .004-.486c.112-.244.419-.331.832-.292c-.097.2-.029.447.063.632c.005.02-.01.04-.034.049a.1.1 0 0 0-.043.02V9.1l.01.005c.043 0 .072.044.072.087a.08.08 0 0 1-.087.073a.09.09 0 0 1-.073-.048l-.015-.005l-.005.005a.1.1 0 0 0-.005.068v.02h-.014a.11.11 0 0 0-.088.072v.015c.03.029.069.044.112.034h.015l.005.02c0 .024.014.048.034.063h.01l.004-.01c0-.044.044-.078.088-.073c.039 0 .073.034.073.068c.03.156-.195.185-.297.097l.005-.024a.064.064 0 0 0-.125-.015a.06.06 0 0 0 .005.044a.06.06 0 0 0 .032.03a.11.11 0 0 1-.042.081a.12.12 0 0 1-.089.025a.117.117 0 0 1-.107-.131v-.02a.1.1 0 0 1 .083.005h.02v-.014l-.02-.034v-.015l.01-.005a.11.11 0 0 0 .077-.068v-.01a.1.1 0 0 0-.126-.024h-.015v-.073l-.005-.01c-.048-.02-.102 0-.136.04h-.014v-.01a.26.26 0 0 0-.073-.16c-.01-.006-.025-.025-.034-.01a.3.3 0 0 0-.05.082c-.004.01-.014.01-.019.005a.3.3 0 0 0-.058-.024c-.02.014-.024.004-.02 0zm1.961-1.533c-.049.005-.088.049-.097.098h.097zm.058 0v.098h.098a.12.12 0 0 0-.098-.098M12 7.963a.12.12 0 0 0 .122-.098h-.243a.12.12 0 0 0 .121.098m3.552 2.763l-.004-.019l-.01-.016a.05.05 0 0 0-.035-.014h-.594a.05.05 0 0 0-.034.014a.05.05 0 0 0-.014.035c0 .014.01.034.03.039c.028.024.048.053.043.087a.1.1 0 0 1-.044.088a.1.1 0 0 0-.021.02a.05.05 0 0 0-.008.028c0 .03.02.054.048.054h.599a.05.05 0 0 0 .049-.049a.06.06 0 0 0-.03-.048a.1.1 0 0 1-.043-.098q-.002-.026.012-.05a.1.1 0 0 1 .036-.037c.01 0 .02-.02.02-.034m.078 4.261h-.871v.248h.87zm-.4-3.181l.176.034v-.715h-.487v.652q.16.001.312.024zm-.272 1.62l-.039-.01v1.187c0 .122-.005.2-.034.248c-.014.02-.005.049.01.049h.55c.014 0 .024-.02.024-.034v-.015a.5.5 0 0 1-.063-.253v-.92c-.166-.058-.268-.145-.448-.252m-.097-.822a.5.5 0 0 0-.243.073l.029.039q.098.097.214.175v-.292zm.764 2.85a1 1 0 0 1-.17-.048a.9.9 0 0 0-.293-.059a.8.8 0 0 0-.291.059l-.17.048a.8.8 0 0 1-.21-.014l-.058-.005v.088a.65.65 0 0 0 .282.019c.068-.015.126-.03.19-.053a.67.67 0 0 1 .515 0c.059.019.122.038.185.048q.123.02.244-.01l.043-.004v-.088c-.024 0-.043 0-.063.01a.6.6 0 0 1-.204.01"/><path d="M15.624 15.649a1 1 0 0 1-.17-.049a1 1 0 0 0-.293-.058a.9.9 0 0 0-.291.058a1 1 0 0 1-.17.049a1 1 0 0 1-.21-.01l-.058-.01v.088a.65.65 0 0 0 .282.02c.068-.01.126-.03.19-.049a.6.6 0 0 1 .253-.058a.7.7 0 0 1 .262.053c.059.02.122.039.185.049a.6.6 0 0 0 .243-.005l.044-.01v-.087l-.063.01a.5.5 0 0 1-.204.014z"/><path d="M15.624 15.838a1 1 0 0 1-.17-.048a.9.9 0 0 0-.293-.064a.9.9 0 0 0-.291.059a1 1 0 0 1-.17.048a.8.8 0 0 1-.21-.01l-.058-.01v.088a.65.65 0 0 0 .282.02c.068-.01.126-.03.19-.049a.6.6 0 0 1 .253-.058a.7.7 0 0 1 .262.053c.059.025.122.04.185.054q.123.02.243-.01l.044-.01v-.087a.13.13 0 0 0-.063.014a.7.7 0 0 1-.204.01m-.22-2.632v-.783a1 1 0 0 0-.277-.073a2 2 0 0 0-.209-.015v.584l.078.059q.197.124.409.228"/><path d="M14.554 13.07c.044.082.73.481 1.182.627c-.005-.02-.014-.043-.014-.068l-.068-.287a3.2 3.2 0 0 1-1.056-.579l-.049.312zm.925-1.002v-.02c0-.024-.025-.03-.05-.034l-.023.088c.014.01.034.01.048 0a.1.1 0 0 0 .025-.034"/><path d="M16.056 12.214c-.092-.127-.389-.277-.788-.335c-.3-.04-.606-.032-.905.024v.408a1.7 1.7 0 0 1 .497-.053c.107 0 .209.005.316.02c.32.033.632.175.744.32l.02.03l.145-.326a.14.14 0 0 0-.029-.088m-1.299-.267a2 2 0 0 0-.077.253h-.01l-.04.01h-.004c-.049-.079-.097-.157-.165-.249v-.01l.082-.01h.005c.02.05.049.088.073.127l.034.049l.054-.195h.005l.043-.01l.005-.004zm.268.243v.005h-.19l.01-.278h.073l-.005.244c.039 0 .068 0 .097-.01h.01v.01zm.253-.205l-.078-.014l-.024.238l-.073-.01l.02-.238h-.088l.005-.01v-.039l.257.025v.01l-.005.029v.01zm.253.302l-.078-.02l-.049-.121s0-.01-.01-.015l-.024.117h-.005l-.068-.02l.064-.267l.111.024c.025 0 .044.015.064.025q.036.023.029.068a.08.08 0 0 1-.083.058l.039.088l.01.03l.014.038h-.014zm.301.15h-.004l-.069-.038h-.004v-.005l.004-.083l-.087-.043l-.073.058l-.039-.024h-.01l.258-.19v.005l.015.01l.02.01z"/><path d="M15.857 12.637a.6.6 0 0 0-.18-.136l-.127.014v.355c.2-.014.326-.068.34-.155v-.005l-.024-.049c0-.01 0-.014-.01-.024m-.71-2.408v-.39l-.025-.01h-.029a.11.11 0 0 0-.097.06v.014l.131.326zm-.4-.234l.01.01l.185.292l.049-.024l-.122-.317l-.005-.01h-.029a.13.13 0 0 0-.087.05m.76.297l.184-.287l.005-.01a.11.11 0 0 0-.087-.048h-.025l-.005.01l-.126.31zm-.312-.696a.06.06 0 0 1 .049 0v-.092h.068v-.049h-.068v-.078h-.049v.078h-.063v.049h.063z"/><path d="m14.87 10.355l.024-.02l.014-.009l-.19-.297v-.005l-.004-.004c-.04-.068-.04-.137 0-.18a.11.11 0 0 1 .097-.04l.039.006v-.049c-.01-.01-.024-.01-.039-.01a.2.2 0 0 0-.136.063c-.054.064-.054.166 0 .253zm.014-.53v.015c0 .034.01.073.024.102l.127.32l.049-.014c-.04-.092-.098-.223-.127-.32l-.005-.006a.3.3 0 0 1-.024-.097v-.063l.005-.005a.097.097 0 0 1 .107-.078c.044 0 .082.02.117.044v-.068a.2.2 0 0 0-.117-.03a.17.17 0 0 0-.098.03a.17.17 0 0 0-.058.083v.019a.2.2 0 0 0-.005.068zm.754-.024a.12.12 0 0 1 .097.034c.04.048.04.117 0 .185l-.004.005l-.185.291l.01.01l.033.024l.185-.291c.059-.093.059-.195 0-.258a.18.18 0 0 0-.131-.059h-.044v.059zm-.185.097a.11.11 0 0 0-.097-.073l-.034.005l-.024.01v.389h.024l.126-.321v-.01z"/><path d="M15.288 9.714a.23.23 0 0 1 .117-.039a.096.096 0 0 1 .102.073l.005.01v.053a.2.2 0 0 1-.02.098l-.01.014q-.06.158-.126.312l.054.014l.126-.316v-.005a.3.3 0 0 0 .024-.102v-.102l-.005-.005a.16.16 0 0 0-.155-.112a.2.2 0 0 0-.117.03v.072h.005zm-.034-.068c-.01-.015-.034-.02-.049-.015a.03.03 0 0 0-.01.015v.589h.059zm.272.715l-.01-.005h-.01l-.004-.005v-.004l-.083-.034l-.004-.005h-.01a.4.4 0 0 0-.063-.02l-.015-.005c-.015 0-.03 0-.049-.01h-.117l-.038.01h-.02a.4.4 0 0 0-.063.02l-.015.01l-.078.034l-.019.014l-.015.005c-.005.01-.024.015-.029.02l.098.145h.01l.048-.024h.015a.4.4 0 0 1 .175-.039c.053 0 .112.01.16.034h.015l.048.024h.015l.097-.145a.07.07 0 0 1-.043-.02zm-6.591-.141h.014l.049-.141a.8.8 0 0 1 .175-.282h.01a.156.156 0 0 0-.151-.16a.15.15 0 0 0-.097.038zm.068.015l.063.019c.02-.068.039-.107.049-.131a.7.7 0 0 1 .17-.292h-.049l-.024.005a.7.7 0 0 0-.16.262q-.02.07-.05.137m.116.039c.04.014.073.039.107.063c.059-.098.122-.195.17-.292v-.01a.15.15 0 0 0-.053-.18l-.005.005a.6.6 0 0 0-.175.277a1 1 0 0 1-.048.137zm-.428-.195l.049.136h.015v-.54a.146.146 0 0 0-.21.024a.16.16 0 0 0-.034.098h.005a.7.7 0 0 1 .18.282zm-.389-.039q.074.153.17.292l.103-.058l-.05-.137a.6.6 0 0 0-.165-.277l-.01-.005a.15.15 0 0 0-.048.18zm.516-.462a.08.08 0 0 1 .058 0V9.51h.068v-.06h-.068v-.077h-.058v.077H8.75v.059h.068zm.063.073a.034.034 0 0 0-.034-.034c-.024 0-.034.014-.034.034v.564h.063v-.564zm-.39.734l.098.146c0 .01.01.01.02.01h.01a.5.5 0 0 1 .233-.063a.55.55 0 0 1 .233.058q.023.009.03-.005l.092-.155a.594.594 0 0 0-.715.01m.093-.267l.049.131l.053-.014l-.043-.137a.7.7 0 0 0-.16-.262l-.025-.005h-.049q.124.126.175.287"/></g></svg>