<svg xmlns="http://www.w3.org/2000/svg" width="1024" height="1024" viewBox="0 0 1024 1024" version="1.1"><path d="M 581.776 366.981 C 560.450 373.682, 546.001 392.941, 545.640 415.147 L 545.500 423.793 517.500 440.041 C 502.100 448.978, 487.475 457.513, 485 459.009 C 482.525 460.504, 473.750 465.676, 465.500 470.502 C 457.250 475.327, 446.904 481.428, 442.509 484.058 L 434.518 488.842 429.831 485.474 C 420.292 478.621, 407.566 473.977, 398.436 474.017 C 385.068 474.076, 370.604 480.215, 360.967 489.921 C 343.578 507.432, 340.538 534.595, 353.563 556.090 C 360.421 567.407, 371.666 575.205, 385.697 578.374 C 394.495 580.361, 398.506 580.388, 407.335 578.517 C 416.882 576.494, 423.586 573.177, 431.229 566.693 L 437.801 561.118 458.150 572.002 C 469.343 577.988, 493.575 590.909, 512 600.716 C 545.374 618.479, 545.499 618.558, 545.195 621.575 C 545.028 623.241, 545.554 627.783, 546.364 631.669 C 550.508 651.545, 566.713 668.100, 585.931 672.089 C 593.744 673.712, 609.139 672.751, 616.283 670.196 C 623.851 667.490, 634.059 660.131, 639.110 653.741 C 646.918 643.863, 649.953 635.810, 650.694 622.996 C 651.697 605.664, 647.491 594.372, 635.572 582.391 C 627.596 574.374, 621.244 570.748, 610.244 567.935 C 600.706 565.495, 596.262 565.503, 586.585 567.978 C 576.037 570.676, 569.713 574.276, 561.786 582.097 L 555.071 588.722 552.286 587.044 C 550.754 586.121, 543.650 582.297, 536.500 578.546 C 509.442 564.349, 504.335 561.647, 498.500 558.436 C 488.657 553.021, 470.131 543.236, 460.250 538.233 L 451 533.549 450.956 528.524 C 450.932 525.761, 450.549 521.621, 450.104 519.324 L 449.296 515.149 467.898 504.364 C 494.056 489.200, 540.031 462.218, 549.244 456.624 L 556.989 451.922 560.621 455.555 C 586.245 481.178, 631.101 473.024, 646.430 439.956 C 650.083 432.077, 651.318 424.783, 650.741 414.500 C 649.435 391.200, 633.988 372.399, 611.297 366.489 C 603.520 364.463, 589.019 364.705, 581.776 366.981" stroke="none" fill="#0b3a67" fill-rule="evenodd"/><path d="M 504.314 174.950 C 498.440 178.532, 498.543 177.703, 498 225.500 L 497.500 269.500 471.438 243.750 L 445.376 218 440.753 218 C 438.210 218, 435.020 218.422, 433.663 218.938 C 430.103 220.292, 426.107 224.947, 424.999 229.032 C 422.968 236.518, 423.478 237.159, 462.003 275.558 L 498 311.438 498.004 350.969 C 498.007 388.413, 498.111 390.669, 499.960 393.701 C 502.482 397.838, 507.270 400.268, 512.686 400.160 C 518.075 400.051, 520.187 398.932, 523.709 394.316 L 526.500 390.659 527 349.901 L 527.500 309.142 560.163 276.821 C 578.128 259.045, 594.215 242.751, 595.913 240.612 C 603.407 231.175, 596.773 217.833, 584.587 217.833 C 582.163 217.833, 579.127 218.375, 577.840 219.037 C 576.553 219.700, 564.475 231.200, 551 244.595 L 526.500 268.948 526.500 225.679 C 526.500 185.659, 526.365 182.204, 524.696 179.658 C 520.482 173.228, 510.804 170.993, 504.314 174.950 M 313.458 286.824 C 311.235 287.865, 308.636 289.907, 307.682 291.362 C 303.941 297.073, 303.538 294.530, 317.478 353.250 C 319.796 363.012, 321.577 371, 321.436 371 C 321.223 371, 275.366 343.772, 253.027 330.380 C 242.757 324.225, 236.202 325.289, 230.162 334.092 C 228.349 336.735, 227.926 338.436, 228.280 341.668 C 229.197 350.048, 230.335 350.961, 268.465 373.899 C 288.029 385.668, 303.915 395.399, 303.768 395.523 C 303.621 395.647, 290.675 399.435, 275 403.942 C 236.335 415.058, 237.531 414.631, 234.096 418.543 C 229.792 423.445, 229.224 427.862, 232.140 433.742 C 233.982 437.455, 235.556 439.024, 239.310 440.885 L 244.121 443.270 254.810 440.501 C 260.690 438.978, 282.150 432.783, 302.500 426.735 C 322.850 420.686, 339.978 415.721, 340.562 415.702 C 341.147 415.683, 357.347 425.254, 376.562 436.972 C 395.778 448.691, 412.990 459.169, 414.810 460.258 C 417.351 461.778, 419.326 462.130, 423.310 461.775 C 427.561 461.396, 430.455 460.089, 439.308 454.548 C 445.253 450.827, 449.931 447.598, 449.705 447.372 C 449.479 447.145, 435.615 438.724, 418.897 428.656 C 402.179 418.589, 381.268 405.984, 372.430 400.646 L 356.360 390.939 351.706 371.220 C 349.147 360.374, 344.321 339.350, 340.982 324.500 C 337.644 309.650, 334.472 296.112, 333.933 294.415 C 331.386 286.390, 321.899 282.873, 313.458 286.824 M 697.071 286.752 C 695.185 287.713, 692.834 289.625, 691.845 291 C 690.750 292.524, 686.503 309.115, 680.965 333.500 C 675.970 355.500, 670.845 377.899, 669.578 383.275 C 668.285 388.757, 667.670 393.296, 668.177 393.609 C 670.449 395.014, 674.286 402.787, 675.398 408.239 L 676.623 414.243 721.561 427.111 C 782.218 444.481, 778.664 443.685, 784.344 441.172 C 790.807 438.313, 793.218 434.176, 792.742 426.764 C 792.350 420.648, 790.103 417.107, 785 414.564 C 783.625 413.879, 768.438 409.346, 751.250 404.491 C 734.063 399.636, 720.005 395.402, 720.012 395.082 C 720.018 394.762, 722.831 392.976, 726.262 391.113 C 737.763 384.869, 789.472 353.735, 791.879 351.605 C 794.581 349.214, 797 344.133, 797 340.848 C 797 339.629, 796.073 336.716, 794.940 334.376 C 792.372 329.071, 785.815 325.444, 780.388 326.324 C 778.350 326.655, 761.636 336.043, 740.114 348.945 C 719.880 361.075, 703.079 371, 702.779 371 C 702.479 371, 703.299 366.613, 704.601 361.250 C 714.237 321.580, 719.041 299.187, 718.523 296.351 C 716.856 287.232, 705.817 282.292, 697.071 286.752 M 241 581.652 C 236.785 583.041, 234.605 584.818, 232.307 588.738 C 230.202 592.332, 229.892 593.795, 230.451 597.520 C 231.296 603.156, 234.832 607.418, 240.278 609.366 C 242.600 610.197, 258 614.771, 274.500 619.532 C 291 624.293, 304.626 628.309, 304.780 628.458 C 304.935 628.606, 290.310 637.423, 272.280 648.050 C 254.251 658.678, 237.780 668.496, 235.678 669.867 C 222.732 678.314, 227.814 696.984, 243.063 696.996 C 246.643 696.999, 249.121 696.103, 254.563 692.837 C 268.577 684.427, 302.751 663.598, 311.297 658.258 C 316.136 655.235, 320.294 652.961, 320.538 653.205 C 320.782 653.449, 320.367 656.090, 319.614 659.074 C 312.845 685.930, 305 720.985, 305 724.377 C 305 729.209, 308.658 735.610, 312.445 737.407 C 319.244 740.633, 329.070 738.474, 331.933 733.124 C 332.517 732.034, 336.644 715.698, 341.105 696.821 C 345.566 677.944, 350.854 656.005, 352.858 648.066 L 356.500 633.632 369.500 625.712 C 376.650 621.356, 385.425 615.970, 389 613.745 C 392.575 611.519, 397.525 608.529, 400 607.102 L 404.500 604.506 399 603.889 C 395.975 603.550, 388.550 601.793, 382.500 599.985 C 366.063 595.074, 366.897 595.032, 354.180 601.410 C 348.049 604.484, 342.296 607, 341.396 607 C 340.495 607, 333.625 605.221, 326.129 603.047 C 290.057 592.584, 247.332 581.008, 245.048 581.079 C 243.646 581.122, 241.825 581.380, 241 581.652 M 766 584.105 C 750.749 588.438, 687.413 606.801, 681.250 608.676 L 676 610.274 675.988 617.887 C 675.976 625.903, 674.464 633.021, 671.457 639.228 L 669.651 642.956 679.441 684.728 C 684.826 707.703, 690.015 728.300, 690.971 730.500 C 693.670 736.709, 696.154 738.351, 703.558 738.823 C 709.931 739.229, 710.045 739.190, 713.918 735.317 C 720.261 728.974, 720.244 728.719, 710.759 688.568 C 705.946 668.191, 702.829 653.104, 703.484 653.355 C 704.115 653.598, 720.351 663.242, 739.565 674.788 C 758.779 686.334, 776.286 696.270, 778.468 696.870 C 785.986 698.934, 792.172 695.619, 795.452 687.768 C 797.466 682.950, 797.406 681.470, 795 676.500 C 793.663 673.738, 791.590 671.578, 788.750 669.987 C 783.053 666.794, 720.613 629.874, 720.083 629.385 C 719.190 628.559, 721.336 627.802, 741.084 621.975 C 791.665 607.049, 788.738 608.180, 791.414 602.540 C 794.971 595.044, 792.260 586.701, 785.016 582.852 C 780.452 580.426, 778.491 580.556, 766 584.105 M 504.299 628.900 C 498.021 632.844, 498 632.994, 498 674.468 L 498 712.035 462.905 746.750 C 443.603 765.843, 427.150 782.744, 426.342 784.306 C 420.334 795.924, 432.458 809.791, 444.123 804.643 C 445.980 803.823, 458.750 792.104, 472.500 778.601 L 497.500 754.051 498 798.275 C 498.384 832.216, 498.806 843.036, 499.814 844.804 C 503.216 850.768, 513.392 852.887, 519.818 848.970 C 521.821 847.748, 523.910 845.197, 525.089 842.531 C 526.942 838.343, 527.029 835.936, 526.771 796.064 L 526.500 754.013 551 778.470 C 574.469 801.898, 579.483 806, 584.652 806 C 587.964 806, 595.214 801.696, 597.094 798.613 C 599.042 795.419, 599.669 787.602, 598.168 785.237 C 597.727 784.542, 581.533 768.036, 562.183 748.557 L 527 713.140 526.994 677.320 C 526.991 656.898, 526.566 639.976, 526.004 637.956 C 525.463 636.006, 523.455 632.894, 521.542 631.041 C 517.036 626.673, 509.360 625.720, 504.299 628.900" stroke="none" fill="#51bbf8" fill-rule="evenodd"/></svg>