<svg xmlns="http://www.w3.org/2000/svg" viewBox="0 0 24 24"><path fill="#ffef46" d="m12.063 12.715l1.245-1.199l2.32.757c1.518.505 2.278 1.43 2.278 2.734c0 .988-.38 1.64-1.14 2.481l-.231.253l.084-.59c.337-2.144-.295-3.07-2.383-3.742zM8.942 5.376l6.327 2.103l-1.37 1.304l-3.291-1.094c-1.139-.378-1.519-.988-1.666-2.27zm-.38 10.682l1.434-1.367l2.7.884c1.413.462 1.898 1.072 1.75 2.607zM6.748 9.96c0-.4.211-.778.57-1.093c.38.547 1.033 1.03 2.067 1.367l2.235.736l-1.244 1.198l-2.194-.715c-1.012-.336-1.434-.84-1.434-1.493M13.371 21c4.64-3.07 7.129-5.152 7.129-7.717c0-1.704-1.012-2.65-3.248-3.386l-1.687-.568l4.619-4.415l-.928-.989l-1.371 1.199L11.409 3c-2.003.652-4.534 2.565-4.534 4.479c0 .21.02.42.084.652c-1.666.946-2.341 1.83-2.341 2.923c0 1.03.548 2.06 2.299 2.628l1.392.463L3.5 18.75l.928.988l1.498-1.366z"/></svg>