<svg xmlns="http://www.w3.org/2000/svg" viewBox="0 0 24 24"><path fill="#8596a2" d="M11.56 8.352c.104-.28.384-.445.64-.296c.233.14.297.442.328.696c.095 1.015.113 2.062.133 3.086c.539.012 1.093.027 1.62.043c.587.038 1.198.021 1.775.15c.66.19.549.86-.099.966c-.868.127-1.599.116-2.503.148q-.399.012-.792.02c-.012.538-.027 1.09-.043 1.616c-.038.587-.021 1.198-.15 1.775c-.19.66-.86.549-.966-.099c-.127-.868-.116-1.599-.148-2.503l-.02-.788l-.149-.005c-.612-.016-1.195-.025-1.803-.053c-.506-.043-1.044-.01-1.53-.169c-.281-.103-.446-.383-.297-.64c.14-.232.442-.296.696-.327c1.014-.094 2.058-.113 3.081-.133l.006-.153c.016-.612.025-1.195.053-1.803c.043-.506.01-1.044.169-1.53M8.708 9.36c.521-.024 1.043-.045 1.043.448c0 .448-.51.523-.51.523c-1.047.15-2.77.45-3.664.823c-1.344.562-1.455 1.12-1.455 1.346s.11.784 1.455 1.346c.893.373 2.617.673 3.664.823c0 0 .51.074.51.523c0 .493-.523.472-1.043.448C5.575 15.49 3 14.2 3 12.48s2.575-2.97 5.707-3.12m5.543.448c0-.493.522-.472 1.043-.448c3.132.15 5.707 1.4 5.707 3.12v.001c0 1.72-2.575 3.01-5.707 3.159c-.52.024-1.043.045-1.043-.448c0-.449.51-.523.51-.523c1.047-.15 2.77-.45 3.664-.823c1.344-.562 1.455-1.12 1.455-1.346s-.11-.784-1.455-1.346c-.893-.373-2.617-.673-3.664-.823c0 0-.51-.075-.51-.523"/></svg>