<svg xmlns="http://www.w3.org/2000/svg" viewBox="0 0 24 24"><g fill="none"><path fill="url(#SVGkx6Ypejx)" d="M17.81 8.849H6.215c-1.762 0-3.19 1.412-3.19 3.154s1.428 3.153 3.19 3.153h11.593c1.762 0 3.19-1.412 3.19-3.153s-1.428-3.154-3.19-3.154"/><path fill="url(#SVGe8gR0cWr)" d="m9.746 3.933l-5.81 5.786a3.174 3.174 0 0 0 0 4.502a3.205 3.205 0 0 0 4.52 0l5.81-5.786a3.174 3.174 0 0 0 0-4.502a3.205 3.205 0 0 0-4.52 0"/><path fill="url(#SVGQNmOoeaZ)" d="m15.544 9.779l-5.81 5.787a3.174 3.174 0 0 0 0 4.501a3.205 3.205 0 0 0 4.52 0l5.81-5.786a3.175 3.175 0 0 0 0-4.502a3.205 3.205 0 0 0-4.52 0"/><defs><radialGradient id="SVGkx6Ypejx" cx="0" cy="0" r="1" gradientTransform="rotate(152.033 8.102 6.706)scale(11.246 9.68923)" gradientUnits="userSpaceOnUse"><stop stop-color="#ffd8b0"/><stop offset=".359" stop-color="#ffa3ac"/><stop offset="1" stop-color="#ff87cd"/></radialGradient><radialGradient id="SVGe8gR0cWr" cx="0" cy="0" r="1" gradientTransform="rotate(135.115 4.847 5.285)scale(9.52642 11.0623)" gradientUnits="userSpaceOnUse"><stop offset=".25" stop-color="#ff2e79"/><stop offset=".87" stop-color="#ff8bd1"/></radialGradient><radialGradient id="SVGQNmOoeaZ" cx="0" cy="0" r="1" gradientTransform="rotate(-47.685 26.373 -4.382)scale(12.0539 7.71216)" gradientUnits="userSpaceOnUse"><stop offset=".13" stop-color="#ff2b9d"/><stop offset=".724" stop-color="#ff9bbf"/><stop offset=".958" stop-color="#fac7bd"/></radialGradient></defs></g></svg>