<svg xmlns="http://www.w3.org/2000/svg" viewBox="0 0 24 24"><g fill="none"><path fill="#fff" fill-rule="evenodd" d="M14.314 18.103c1.492-.432 2.752-1.743 3.456-3.013a6.63 6.63 0 0 0 .761-3.754q-.03-.304-.128-.592c-.031-.103.231-.452.334-.591l.03-.041q.95-1.298 1.873-2.613q.162-.206.277-.442l.067-.062q.04-.047-.02-.04q-1.65.068-3.369.2q-.563.044-1.152.036a.5.5 0 0 1-.118-.016a.1.1 0 0 1-.057-.04c-.89-1.127-4.052-1.924-5.945-1.4a6.8 6.8 0 0 0-4.33 3.502a6.6 6.6 0 0 0-.535 4.007c.186 1.136-.822 2.16-1.681 3.034c-.288.293-.566.566-.767.823q-.029.054.026.046q.855-.05 1.708-.129c.9-.082 1.8-.159 2.705-.154c.108 0 .18.062.241.123l.088.078a7.57 7.57 0 0 0 6.536 1.038m-6.223-3.106c.216.02.37.057.53.221a4.73 4.73 0 0 0 6.81-.149a4.68 4.68 0 0 0 1.007-4.279c-.051-.138-.103-.293-.051-.39l.74-1.317a.04.04 0 0 0-.036-.026c-.576.052-1.064.036-1.476-.04c-.205-.042-.319-.165-.442-.294a4.9 4.9 0 0 0-4.577-1.1c-.113.03-.21.077-.314.123l-.18.082c-2.005.777-3.044 2.921-2.74 4.937c.01.088.035.18.06.273c.058.226.12.468.042.668a5.2 5.2 0 0 1-.674 1.224a.05.05 0 0 0 .031.052c.005.01.02.01.031.01a6.7 6.7 0 0 1 1.245 0z" clip-rule="evenodd"/><path fill="url(#SVG0G1UpctK)" d="M4.286 9.171a1.286 1.286 0 1 0 0-2.571a1.286 1.286 0 0 0 0 2.571"/><defs><linearGradient id="SVG0G1UpctK" x1="5.16" x2="3.2" y1="7.109" y2="8.528" gradientUnits="userSpaceOnUse"><stop stop-color="#3119ff"/><stop offset="1" stop-color="#21e8ff"/></linearGradient></defs></g></svg>