<svg version="1.0" viewBox="0 0 128 128" xml:space="preserve" xmlns="http://www.w3.org/2000/svg"><path d="m33.195 44.07c-2.1148 0-3.9631 0.23394-5.8281 1.0444-1.865 0.80209-3.6051 1.9551-4.9955 3.342-1.3821 1.3869-2.3312 3.1415-3.1222 5.0131-0.8076 1.8548-1.2489 3.7264-1.2489 5.8486l-1e-6 33.682h71v10h-71l1e-6 1.2262v4.3864c0 2.1306 0.44959 4.1859 1.2489 6.0574 0.79096 1.8715 1.7484 3.4089 3.1222 4.8042 1.3904 1.3786 3.1305 2.54 4.9955 3.342 1.865 0.81044 3.7133 1.2533 5.8281 1.2533h61.611c2.1148 0 3.9631-0.44248 5.8281-1.2533 1.8733-0.80209 3.6217-1.9635 4.9955-3.342 1.3904-1.3953 2.5227-2.9326 3.3303-4.8042 0.8076-1.8716 1.0407-3.9269 1.0407-6.0574v-33.613h-71v-10h71v-5.6824c0-2.1222-0.22446-3.9937-1.0407-5.8486-0.79928-1.8715-1.9399-3.6261-3.3303-5.0131-1.3738-1.3869-3.1222-2.5399-4.9955-3.342-1.865-0.81044-3.7133-1.0444-5.8281-1.0444z" fill="#e00"/><path d="m64 4c-2.0595 0-4.0622 0.43233-5.8784 1.2245-1.8243 0.77552-3.2919 1.7143-4.6622 3.0612-1.3459 1.3551-2.4568 3.0857-3.2432 4.898-0.77027 1.8286-1.2162 3.6408-1.2162 5.7143 0 2.0735 0.44627 4.0898 1.2162 5.9184 0.78649 1.8041 1.8973 3.3469 3.2432 4.6939 1.3703 1.3633 2.8378 2.4735 4.6622 3.2653 1.8162 0.77552 3.8189 1.2245 5.8784 1.2245 2.0757 0 4.0622-0.4493 5.8784-1.2245 1.8-0.79184 3.3243-1.902 4.6622-3.2653 1.3459-1.3469 2.4568-2.8898 3.2432-4.6939 0.77027-1.8286 1.2162-3.8449 1.2162-5.9184 0-2.0735-0.44628-3.8857-1.2162-5.7143-0.78649-1.8122-1.8973-3.5429-3.2432-4.898-1.3378-1.3469-2.8622-2.2857-4.6622-3.0612-1.8162-0.79184-3.8027-1.2245-5.8784-1.2245z" fill="#e00"/></svg>
