<svg xmlns="http://www.w3.org/2000/svg" viewBox="0 0 24 24"><g fill="none"><path fill="url(#SVGQ8mMrbJi)" d="m9.385 9.681l.868-.365q-.001-.691.482-1.366a6.9 6.9 0 0 1 3.753-2.722a1.6 1.6 0 0 0 .546-.254c.598-.503.127-1.43-.62-1.376q-.205.016-.498.153a18.4 18.4 0 0 0-5.638 4.193c-.425.471-.795.99-1.101 1.546a4.24 4.24 0 0 0-.387 3.521c.011-.44.032-.72.075-.847c.209-.662.62-1.24 1.175-1.657a7 7 0 0 1 1.345-.826"/><path fill="#15bde8" d="M6.091 8.213a1.9 1.9 0 0 0-.445-.407c-.423-.25-.963-.064-1.302.238q-.054.049-.085-.037a8.6 8.6 0 0 1 1.99-2.345a15 15 0 0 1 3.368-2.06c.508-.222 1.149.074 1.128.672c-.016.477-.302.689-.726.869a9.8 9.8 0 0 0-3.928 3.07"/><path fill="url(#SVGLu3yMela)" d="M15.52 7.543q1.293.063 2.467.889a3.97 3.97 0 0 1 1.641 2.594q.054.262.339.445c.339.212.805.053.963-.297a.95.95 0 0 0 .053-.53a5.4 5.4 0 0 0-1.816-3.234a5.6 5.6 0 0 0-2.446-1.371a6.7 6.7 0 0 0-1.921-.127c-.387.021-.726.164-.863.54c-.117.328-.053.609.18.847q.248.253.534.244q.495-.017.869 0m1.27-.731a.3.3 0 0 1-.598 0c0-.164.132-.302.302-.302a.3.3 0 0 1 .296.302"/><path fill="#ff0b46" d="M9.353 8.823a.53.53 0 1 0 0-1.06a.53.53 0 0 0 0 1.06m4.06-.461l.72.01q1.017.018 1.97.345c.058.02.122.074.175.106c-.387.418-.44.863-1.054.9q-.373.015-.804.063q-1.082.112-1.297 1.17a21 21 0 0 0-1.292-.032c-1.006 0-2.076.196-2.986.593c-.636.28-1.43.853-1.552 1.588c-.052.308.016.588.207.853l.254.36a2.74 2.74 0 0 1-.963-1.308c.01-.44.031-.72.074-.847c.209-.661.62-1.24 1.175-1.657a7 7 0 0 1 1.345-.826l.868-.365c.08.318.249.53.519.651c.37.159.778.074 1.006-.27a2.8 2.8 0 0 0 .317-.757q.968.359 1.324-.577z"/><path fill="#069ef5" d="M6.325 8.733q.406.951-.435 1.434c-.307.18-.608.143-.92-.105c-.059-.562.158-1.007.645-1.324c.286-.18.45-.027.71-.005"/><path fill="#15bde8" d="m19.078 11.824l-.01.069c-.011.053-.022.053-.043 0a1.5 1.5 0 0 0-.132-.275c-.318-.52-1.038-1.24-1.716-1.26a1.8 1.8 0 0 0-.487.037a1.2 1.2 0 0 0-.349.143a.5.5 0 0 0-.185.174a1.2 1.2 0 0 1-.175.228a.7.7 0 0 0-.117.17c-.068.127-.053.2.032.222l-.81.047a.8.8 0 0 1-.28-.01c-.662-.233-1.102-.302-1.684-.413q.216-1.058 1.297-1.17q.43-.048.805-.064c.614-.037.667-.481 1.053-.9h.043c.854.36 1.593.946 2.139 1.694q.412.572.619 1.308"/><path fill="url(#SVGwWBm5OKM)" d="m19.078 11.825l-.01.068c-.011.053-.022.053-.043 0a1.5 1.5 0 0 0-.132-.275c-.318-.519-1.038-1.239-1.716-1.26a1.8 1.8 0 0 0-.487.037a1.2 1.2 0 0 0-.35.143a.5.5 0 0 0-.184.175a1.2 1.2 0 0 1-.175.228a.7.7 0 0 0-.117.169c-.069.127-.053.201.032.222q1.564.19 1.938 1.604l.021.16c.021.137.037.264.01.417a2.6 2.6 0 0 1-1.672 2.012c-.075.032-.149.053-.228.08c-.217.074-.434.143-.604.296c-.423.387-.042 1.112.52 1a4.12 4.12 0 0 0 2.932-2.133a3.64 3.64 0 0 0 .265-2.943"/><path fill="url(#SVGhP5P1b3I)" d="m6.09 8.215l.234.519a1.3 1.3 0 0 1-.212-.043c-.159-.042-.296-.079-.498.053a1.31 1.31 0 0 0-.645 1.324q-.057-.01-.064.053c-.053.476-.053.969.01 1.482c.435 2.028 1.695 3.473 3.606 4.172c.318.117.476.424.36.741c-.143.382-.524.466-.884.355c-2.372-.715-4.468-3.123-4.468-5.665c-.022-.614-.016-1.133.09-1.694a4 4 0 0 1 .211-.635l.424-.868c.026.052.053.068.09.037c.339-.302.884-.487 1.302-.239c.138.085.286.217.445.408"/><path fill="#055fc9" d="M3.265 15.706a.265.265 0 1 0 0-.53a.265.265 0 0 0 0 .53"/><path fill="#091b4b" d="M20.735 15.175a.265.265 0 1 0 0-.53a.265.265 0 0 0 0 .53M4.322 18.352a.794.794 0 1 0 0-1.588a.794.794 0 0 0 0 1.588"/><path fill="#ffc302" d="M20.206 18.352a.794.794 0 1 0 0-1.589a.794.794 0 0 0 0 1.589"/><path fill="#0171e5" d="M17.558 17.824a.265.265 0 1 0 0-.529a.265.265 0 0 0 0 .53"/><path fill="#fea805" d="M6.441 17.824a.265.265 0 1 0 0-.53a.265.265 0 0 0 0 .53"/><path fill="#ff0b46" d="M16.235 18.883a.53.53 0 1 0 0-1.058a.53.53 0 0 0 0 1.058"/><path fill="#15bde8" d="M8.295 19.411a.529.529 0 1 0 0-1.058a.529.529 0 0 0 0 1.058"/><path fill="#ffa404" d="M10.412 19.412v-6.353h1.058v5.294a1.06 1.06 0 0 1-1.058 1.058"/><path fill="#ff0b46" d="M10.412 13.059V12h1.058v1.059z"/><path fill="#0171e5" d="M12.529 13.059V12h1.059v1.059z"/><path fill="#15bde8" d="M13.589 20.47H12c.434-1.01.497-1.927.529-3.705v-3.706h1.059z"/><path fill="#091b4b" d="M13.122 10.958c.582.11 1.022.18 1.683.412c.27.101 1.144.445 1.631.996c.381.434.477.9.286 1.382c-.344.9-1.408 1.175-2.25 1.445c-.042.01-.09.053-.09.1v5.178h-.794v-1.588a484 484 0 0 1 0-5.559c.45-.498 1.207-.37 1.498.254q.006.015.019.025a.074.074 0 0 0 .087.007a.1.1 0 0 0 .026-.026c.138-.25.122-.477-.053-.7a.94.94 0 0 0-.529-.343a3.6 3.6 0 0 0-1.149-.371l-.963-.106h-.948l-.89.1a4.5 4.5 0 0 0-1.265.382q-.341.12-.556.423a.48.48 0 0 0-.084.371q.014.136.084.238q.08.142.138-.01c.175-.424.35-.508.879-.508c.53 0 .53.846.53 1.588c0 .794-.011 2.234 0 4.764l-.795 1.06v-5.136c0-.08.053-.154-.021-.17a4.36 4.36 0 0 1-1.842-.847l-.255-.36a1.1 1.1 0 0 1-.211-.847c.132-.74.926-1.312 1.556-1.588a7.65 7.65 0 0 1 2.986-.598c.434 0 .868.01 1.292.032"/><path fill="#0e80db" d="M12.795 9.352a.794.794 0 1 0 0-1.588a.794.794 0 0 0 0 1.588"/><defs><linearGradient id="SVGQ8mMrbJi" x1="19.741" x2="5.312" y1="4.486" y2="20.484" gradientUnits="userSpaceOnUse"><stop stop-color="#ffca02"/><stop offset="1" stop-color="#ff9404"/></linearGradient><linearGradient id="SVGLu3yMela" x1="5.057" x2="20.13" y1="5.376" y2="14.651" gradientUnits="userSpaceOnUse"><stop stop-color="#ff0d47"/><stop offset="1" stop-color="#fe9a04"/></linearGradient><linearGradient id="SVGwWBm5OKM" x1="12.014" x2="12.014" y1="3.52" y2="20.468" gradientUnits="userSpaceOnUse"><stop stop-color="#0e8eef"/><stop offset="1" stop-color="#061b4a"/></linearGradient><linearGradient id="SVGhP5P1b3I" x1="11.943" x2="11.943" y1="3.529" y2="20.476" gradientUnits="userSpaceOnUse"><stop stop-color="#0175ea"/><stop offset="1" stop-color="#091d50"/></linearGradient></defs></g></svg>