<svg version="1.1" viewBox="0 0 192 192" xmlns="http://www.w3.org/2000/svg">
 <g stroke-linecap="round" stroke-linejoin="round">
  <path d="m88 33a65 55 0 0 0-64.979 53.562 50 30 0 0 0-15.021 21.438 50 30 0 0 0 27.994 26.938c-3.6403 7.7508-7.9008 15.458-12.994 23.062 12.924-5.567 24.984-12.689 36.928-20.021a50 30 0 0 0 0.87305-0.0254 65 55 0 0 0 27.199 5.0469 65 55 0 0 0 37.953-10.35 50 35 0 0 0 7.0469 0.34961 50 35 0 0 0 50-35 50 35 0 0 0-36.324-33.666 65 55 0 0 0-58.676-31.334z" fill="#335ccb" stroke-width="9.1966"/>
  <path d="m112.5 61.952-28.319 38.824-17.687-12.901-7.6609 10.503 28.19 20.562 35.98-49.327z" fill="#fff" stroke-width="7.6895"/>
 </g>
</svg>
