<svg fill="none" version="1.1" viewBox="0 0 128 128" xmlns="http://www.w3.org/2000/svg">
 <g transform="matrix(1.5385 0 0 1.5385 -2.9235 -3.6928)">
  <g stroke-linecap="round" stroke-linejoin="round" stroke-width="8.0028">
   <path d="m57.822 39.594c-2.7303 0.08714-5.4676 0.18648-8.2109 0.30664a11 11 0 0 0 0.0059-0.03125 11 11 0 0 1-10.617 8.1309 11 11 0 0 1-10.139-6.7344c-2.7198 0.2507-5.4413 0.5352-8.1582 0.85742a19 19 0 0 0 18.297 13.877 19 19 0 0 0 9.0605-2.3262 19 19 0 0 1-0.35742 0.2168l12.225 14.67a4 4 0 0 0 5.6328 0.51172 4 4 0 0 0 0.51172-5.6328l-12.189-14.627a19 19 0 0 1-0.55273 0.60156 19 19 0 0 0 4.4922-9.8203zm-5.6016 11.033a19 19 0 0 1-0.81055 0.70508 19 19 0 0 0 0.81055-0.70508zm-1.9785 1.666a19 19 0 0 1-0.9375 0.62305 19 19 0 0 0 0.9375-0.62305z" fill="#202c46"/>
   <path d="m20.129 38.885a19 19 0 0 0 0.07422 0.82812 19 19 0 0 1-0.07422-0.82812z" fill="#f6f5f4"/>
   <path d="m49.902 38.451a11 11 0 0 1-0.0957 0.48242 11 11 0 0 0 0.0957-0.48242z" fill="#f6f5f4"/>
  </g>
  <path d="m39 18a19 19 0 0 0-19 19 19 19 0 0 0 0.03711 0.53906c2.6377-0.28139 5.293-0.52604 7.9648-0.73242a11 11 0 0 1 10.998-10.807 11 11 0 0 1 10.943 9.8945c2.6615-0.02357 5.3383-0.01889 8.0254 0.01367a19 19 0 0 0-18.969-17.908z" fill="#6677fb"/>
  <g>
   <path d="m38 36 25 30" fill="#f6f5f4" stop-color="#000000" stroke-linecap="round" stroke-linejoin="round"/>
  </g>
  <path d="m49.943 35.895a11 11 0 0 1 0.056641 1.1055 11 11 0 0 1-0.38867 2.9004c2.7434-0.12016 5.4806-0.2195 8.2109-0.30664a19 19 0 0 0 0.17773-2.5938 19 19 0 0 0-0.03125-1.0918c-2.6874-0.03257-5.3635-0.03725-8.0254-0.01367zm-21.941 0.91211c-2.6817 0.20714-5.3468 0.45167-7.9941 0.73438a19 19 0 0 0 0.69531 4.582c2.7173-0.32227 5.438-0.6067 8.1582-0.85742a11 11 0 0 1-0.86133-4.2656 11 11 0 0 1 2e-3 -0.19336z" opacity="0" stroke-width="8"/>
 </g>
</svg>
