<svg xmlns="http://www.w3.org/2000/svg" viewBox="0 0 24 24"><g fill="none"><path fill="#08237a" d="M16.282 12.002a4.246 4.246 0 0 1-4.237 4.251a4.247 4.247 0 0 1-4.271-4.222A4.25 4.25 0 0 1 12.02 7.78a4.246 4.246 0 0 1 4.272 4.222z"/><path fill="#010200" fill-rule="evenodd" d="M12.04 15.743a3.73 3.73 0 0 0 3.44-5.169a3.73 3.73 0 0 0-3.465-2.284a3.73 3.73 0 0 0-3.73 3.736a3.73 3.73 0 0 0 3.755 3.717m0 .51a4.25 4.25 0 0 0 4.242-4.251A4.25 4.25 0 0 0 12.01 7.78a4.246 4.246 0 0 0-4.237 4.251a4.246 4.246 0 0 0 4.271 4.222z" clip-rule="evenodd"/><path fill="#fcf6ba" d="M12.82 4.355a.82.82 0 1 1-.26-.534a.82.82 0 0 1 .26.538z"/><path fill="#010200" d="M13.337 4.353a1.33 1.33 0 1 1-2.661 0a1.33 1.33 0 0 1 2.66 0m-1.33.82a.82.82 0 1 0 .126-1.636a.82.82 0 0 0-.127 1.636"/><path fill="#ffe8c5" d="M8.344 5.135a.51.51 0 0 1 .309-.892a.5.5 0 0 1 .373.126l1.488 1.242l2.98-.01l1.487-1.247a.515.515 0 0 1 .722.034a.51.51 0 0 1-.035.722l-1.266 1.13l.172.205l-.639.56l-.162-.196l-.633.564v.555a4.27 4.27 0 0 0-2.253.005v-.555z"/><path fill="#010200" d="M8.004 5.517a1.017 1.017 0 0 1 .618-1.78a1.03 1.03 0 0 1 .742.253l1.345 1.13l2.588-.01l1.34-1.14a1.03 1.03 0 0 1 1.448.079a1.02 1.02 0 0 1-.079 1.443l-1.37 1.228l-.343-.378l1.375-1.228a.516.516 0 1 0-.688-.76L13.493 5.6l-2.98.01L9.02 4.373a.515.515 0 0 0-.727.044a.5.5 0 0 0 .05.717l2.537 2.243v.555a5 5 0 0 0-.51.177v-.496L7.999 5.522z"/><path fill="#010200" d="M13.655 8.104v-.506l.59-.53l-.344-.378l-.761.682v.555c.176.05.348.103.515.172z"/><path fill="#fcf6ba" d="M11.225 19.64a.822.822 0 0 1 1.145-.814a.82.82 0 1 1-1.145.815"/><path fill="#010200" d="M10.71 19.646a1.33 1.33 0 1 1 2.66 0a1.33 1.33 0 0 1-2.66 0m1.33-.82a.818.818 0 0 0-.62 1.42a.82.82 0 1 0 .62-1.42"/><path fill="#ffe8c5" d="M15.702 18.866c.211.187.23.51.044.722a.513.513 0 0 1-.726.04l-1.527-1.263l-2.98.01l-1.448 1.276a.512.512 0 0 1-.683-.76l1.262-1.13l-.172-.2l.639-.565l.162.196l.633-.564v-.55a4.3 4.3 0 0 0 2.253-.01v.554z"/><path fill="#010200" d="M16.046 18.484c.422.373.457 1.021.084 1.443a1.03 1.03 0 0 1-1.449.084l-1.364-1.154l-2.588.01l-1.32 1.163a1.03 1.03 0 0 1-1.448-.078a1.014 1.014 0 0 1 .078-1.439l1.37-1.227l.343.373l-1.374 1.233a.513.513 0 0 0 .687.76l1.453-1.286h3.01l1.492 1.267a.514.514 0 0 0 .682-.766l-2.543-2.244v-.554c.177-.05.344-.108.511-.177v.5l2.371 2.092z"/><path fill="#010200" d="M10.39 15.9v.502l-.588.53l.343.378l.761-.682v-.55a5 5 0 0 1-.515-.177"/><path fill="#ec9b8d" d="m18.206 15.542l.835 1.34l.746-1.306l-1.576-.034z"/><path fill="#010200" d="m17.283 15.013l1.768 2.867l1.61-2.798zm.928.53l1.571.035l-.746 1.306z"/><path fill="#ffe8c5" d="M19.84 12.253a.515.515 0 0 1 .649.324a.515.515 0 0 1-.324.648l-1.89.629l-1.478 2.577l.417 1.944a.512.512 0 0 1-1.001.211l-.358-1.65l-.256.05l-.172-.835l.25-.044l-.176-.825l-.481-.275a4.25 4.25 0 0 0 1.12-1.949l.48.275z"/><path fill="#010200" d="M19.679 11.771a1.021 1.021 0 0 1 .653 1.934l-1.714.57l-1.276 2.238l.373 1.758a1.026 1.026 0 0 1-2.003.427l-.388-1.797l.501-.113l.388 1.802a.513.513 0 0 0 1.001-.216l-.417-1.944l1.473-2.577l1.895-.629a.51.51 0 0 0 .349-.45a.51.51 0 0 0-.673-.522l-3.22 1.08l-.482-.275q.068-.265.098-.53l.437.246l3-1.002z"/><path fill="#010200" d="m14.612 15.366l.437.245l.167.776l.501-.108l-.216-.997l-.481-.275a5 5 0 0 1-.408.359"/><path fill="#ec9b8d" d="m5.855 8.473l-.825-1.34l-.751 1.305l1.57.035z"/><path fill="#010200" d="M6.782 9.003L5.015 6.136l-1.61 2.798zm-.932-.53l-1.571-.034l.75-1.306l.825 1.34z"/><path fill="#ffe8c5" d="M4.225 11.757a.51.51 0 0 1-.567-.136a.51.51 0 0 1 .243-.83l1.89-.634l1.472-2.573l-.412-1.949a.512.512 0 1 1 1.001-.21l.354 1.654l.26-.05l.172.835l-.255.04l.176.83l.486.274a4.25 4.25 0 0 0-1.119 1.949l-.481-.275l-3.22 1.08z"/><path fill="#010200" d="M4.386 12.242a1.02 1.02 0 1 1-.653-1.934l1.709-.574l1.281-2.239l-.373-1.753a1.026 1.026 0 0 1 2.003-.427l.383 1.797l-.496.113l-.388-1.802a.512.512 0 1 0-1.001.211l.417 1.95l-1.473 2.572l-1.895.638a.51.51 0 0 0-.397.45a.511.511 0 0 0 .721.512l3.22-1.075l.482.275a3.4 3.4 0 0 0-.098.53l-.442-.245l-2.995 1.001z"/><path fill="#010200" d="m9.453 8.65l-.442-.246l-.162-.78l-.5.112l.21.997l.486.274q.193-.19.408-.358"/><path fill="#ffe8c5" d="M16.125 5.38a.513.513 0 1 1 1.006.205L16.73 7.53l1.497 2.567l1.9.614a.513.513 0 0 1 .228.82a.51.51 0 0 1-.547.152l-1.61-.526l-.094.246l-.81-.265l.098-.246l-.81-.26l-.48.28a4.23 4.23 0 0 0-1.135-1.94l.481-.279z"/><path fill="#010200" d="M15.624 5.277a1.027 1.027 0 1 1 2.013.412l-.364 1.758l1.301 2.223l1.709.555a1.025 1.025 0 0 1 .655 1.289a1.02 1.02 0 0 1-1.288.655l-1.753-.57l.157-.49l1.753.574c.27.089.56-.059.648-.329a.51.51 0 0 0-.33-.638l-1.894-.618l-1.503-2.563l.403-1.949a.516.516 0 0 0-.4-.606a.514.514 0 0 0-.606.4l-.678 3.314l-.48.28a5 5 0 0 0-.413-.354l.437-.25z"/><path fill="#010200" d="m16.203 11.443l.437-.25l.756.245l.157-.491l-.972-.31l-.48.276q.072.264.102.53"/><path fill="#b7def8" d="m18.461 7.305l1.178.295l-.294 1.168l-1.178-.294z"/><path fill="#010200" d="m18.089 6.687l2.17.54l-.54 2.16l-2.17-.54zm.373.618l-.295 1.173l1.179.29l.294-1.173z"/><path fill="#ffe8c5" d="M7.862 18.611a.511.511 0 1 1-1.001-.21l.407-1.95l-1.487-2.567l-1.895-.629a.511.511 0 1 1 .324-.967l1.61.53l.093-.245l.81.275l-.098.235l.81.27l.481-.28c.192.74.58 1.413 1.125 1.95l-.482.275l-.697 3.308z"/><path fill="#010200" d="M8.363 18.708a1.026 1.026 0 0 1-2.003-.412l.368-1.758l-1.29-2.234l-1.71-.564a1.02 1.02 0 1 1 .639-1.94l1.753.58l-.158.486l-1.752-.58a.51.51 0 0 0-.567.137a.51.51 0 0 0 .243.83l1.895.63l1.487 2.567l-.407 1.949a.512.512 0 0 0 1.001.211l.697-3.314l.482-.275q.192.191.407.353l-.437.25l-.648 3.089z"/><path fill="#010200" d="m7.813 12.544l-.437.25l-.756-.246l-.157.482l.972.324l.482-.28a3 3 0 0 1-.104-.53"/><path fill="#b7def8" d="m5.54 16.67l-1.178-.294l.295-1.168l1.178.295z"/><path fill="#010200" d="m5.908 17.29l-2.17-.54l.55-2.16l2.17.54zm-.373-.62l.295-1.168l-1.169-.294l-.294 1.168z"/><path fill="#644f90" d="m14.475 11.174l-1.1 1.242l.182 1.635l-1.527-.643l-1.521.682l.157-1.64l-1.115-1.207l1.62-.373l.83-1.43l.844 1.41z"/><path fill="#e9ab44" d="M14.647 11.118a.17.17 0 0 1-.04.172l-1.045 1.183l.171 1.556a.18.18 0 0 1-.07.161a.18.18 0 0 1-.175.02l-1.458-.608l-1.443.648a.18.18 0 0 1-.178-.017a.18.18 0 0 1-.078-.16l.148-1.56l-1.06-1.155a.177.177 0 0 1 .088-.294l1.55-.354l.786-1.364a.183.183 0 0 1 .244-.064q.041.023.066.064l.805 1.34l1.551.314a.17.17 0 0 1 .138.118m-.51.167l-1.327-.265a.18.18 0 0 1-.117-.084l-.688-1.149l-.677 1.169a.18.18 0 0 1-.118.088l-1.32.3l.908.982a.2.2 0 0 1 .049.142l-.128 1.33l1.237-.554a.15.15 0 0 1 .143 0l1.247.52l-.148-1.33a.18.18 0 0 1 .045-.138z"/><path fill="#643f85" d="M13.228 11.59a.19.19 0 0 1-.034.177l-.413.467l.064.613a.177.177 0 0 1-.245.182l-.58-.24l-.569.255a.183.183 0 0 1-.237-.087a.2.2 0 0 1-.018-.09l.059-.614l-.418-.456a.18.18 0 0 1-.04-.175a.18.18 0 0 1 .134-.12l.608-.137l.31-.54a.183.183 0 0 1 .243-.064a.2.2 0 0 1 .066.064l.319.525l.614.123a.19.19 0 0 1 .132.118z"/><path fill="#73d4ea" d="M13.228 11.59a.19.19 0 0 1-.034.177l-.413.467l.064.613a.177.177 0 0 1-.245.182l-.58-.24l-.569.255a.183.183 0 0 1-.237-.087a.2.2 0 0 1-.018-.09l.059-.614l-.418-.456a.18.18 0 0 1-.04-.175a.18.18 0 0 1 .134-.12l.608-.137l.31-.54a.183.183 0 0 1 .243-.064a.2.2 0 0 1 .066.064l.319.525l.614.123a.19.19 0 0 1 .132.118zm-.51.172l-.383-.073a.2.2 0 0 1-.118-.084l-.202-.338l-.196.343a.18.18 0 0 1-.118.084l-.387.088l.265.285a.2.2 0 0 1 .049.142l-.04.383l.359-.162q.073-.03.147 0l.364.152l-.045-.388a.18.18 0 0 1 .05-.137z"/><path fill="#e4a51a" d="M13.65 9.395a.183.183 0 0 1 .246-.07c.088.05.118.158.074.246l-.27.491a.18.18 0 0 1-.33-.037a.18.18 0 0 1 .016-.135l.265-.49zm1.356 3.338a.18.18 0 0 1 .107.085a.18.18 0 0 1 .015.136a.18.18 0 0 1-.22.123l-.54-.148a.178.178 0 0 1-.038-.328a.18.18 0 0 1 .136-.015zm-4.541-3.319a.18.18 0 0 0-.246-.064a.176.176 0 0 0-.059.246l.295.481a.175.175 0 0 0 .245.059c.084-.05.108-.157.06-.246zm-1.37 3.343a.18.18 0 0 0-.126.156a.18.18 0 0 0 .234.188l.54-.172a.18.18 0 0 0-.108-.343zm2.798 2.293a.18.18 0 1 0 .358 0v-.56a.177.177 0 0 0-.301-.125a.18.18 0 0 0-.052.125v.56z"/><path fill="#f3d1a3" d="m7.106 13.245l.33.108l.48-.28c.192.739.58 1.412 1.125 1.949l-.481.275l-.074.343a5 5 0 0 1-1.38-2.395m6.328 3.618a5.06 5.06 0 0 1-2.803.015l.275-.246v-.555a4.3 4.3 0 0 0 2.254-.01v.555zm3.476-3.628a5 5 0 0 1-1.34 2.361l-.069-.314l-.48-.275a4.25 4.25 0 0 0 1.118-1.949l.482.27l.294-.098zm-.03-2.499l-.299-.098l-.48.275a4.23 4.23 0 0 0-1.135-1.94l.481-.28l.06-.279a5 5 0 0 1 1.374 2.322m-3.534-3.55l-.206.187v.555a4.27 4.27 0 0 0-2.254.005v-.555l-.22-.191a5.07 5.07 0 0 1 2.68 0m-4.85 1.238l.064.31l.486.274a4.25 4.25 0 0 0-1.12 1.949l-.48-.275l-.33.113a5 5 0 0 1 1.38-2.371"/></g></svg>