<svg xmlns="http://www.w3.org/2000/svg" viewBox="0 0 32 32"><path fill="currentColor" d="M22.896 4.063h-.089q-.133.001-.266.01q-.078.001-.156.01c-.068.005-.13.016-.203.021l-.161.021c-.073.01-.141.026-.214.036c-.099.021-.203.042-.297.068c-.036.01-.078.016-.115.026l-.229.063l-.047.016a5.84 5.84 0 0 0-3.349 2.734c-.021.031-.036.063-.057.094c-.01.031-.031.057-.047.089l-.021.047a5.8 5.8 0 0 0-.625 2.635v1.068c-.276 0-.5.219-.5.495a.5.5 0 0 0 .5.495v3.828a8.45 8.45 0 0 0-3.766 1.307a8 8 0 0 0-.922.677l-.01.01c-.005.005-.016.016-.021.016a6.8 6.8 0 0 1-1.088.854q-.007.001-.016.01c-.344.214-.63.37-.901.495a6 6 0 0 1-.661.24l-.089.031c-.021.005-.047.016-.073.021a7 7 0 0 1-2.094.313a7.1 7.1 0 0 1-4.875-1.922a5.7 5.7 0 0 0 1.896.328a5.76 5.76 0 0 0 3.875-1.51a6 6 0 0 0 1.172 2.505c.26-.078.5-.161.734-.266q.115-.053.24-.115a5.05 5.05 0 0 1-1.281-3.286a.5.5 0 0 0-.349-.464a.49.49 0 0 0-.552.177A4.75 4.75 0 0 1 4.4 17.204a4.76 4.76 0 0 1-3.505-1.552a.49.49 0 0 0-.594-.109a.485.485 0 0 0-.26.536l.016.073v.005c1.177 5.094 4.979 9.313 9.927 11.016c1.12.385 2.292.641 3.484.76h.047c.125 0 .24-.047.333-.125a.5.5 0 0 0 .167-.37v-2.646c0-1.255.25-2.469.755-3.604a9 9 0 0 1 1.37-2.161l-.542-.323l.651.198l3.339.953q.264.117.536.219v-1.068a5.7 5.7 0 0 1-2.12-1.589V11.99h.203v1.349c0 .974.792 1.771 1.771 1.771h.708c.917 0 1.677-.708 1.766-1.604q.006-.038.005-.083a.431.431 0 1 1 .864 0a.4.4 0 0 0 .01.083a1.77 1.77 0 0 0 1.76 1.604h.714a1.77 1.77 0 0 0 1.771-1.771V11.99h.198v5.432a5.7 5.7 0 0 1-2.12 1.589v1.068c.182-.068.365-.146.536-.224l3.339-.953l.005.005l.672-.198l-.557.328a9 9 0 0 1 1.224 1.87a.5.5 0 0 0 .448.281h.031a.51.51 0 0 0 .438-.333c.135-.396.208-.818.208-1.245a3.81 3.81 0 0 0-3.234-3.786v-3.833a.492.492 0 1 0 0-.985V9.938q0-.532-.094-1.042V8.87l-.021-.099l-.005-.031a5.8 5.8 0 0 0-1.589-2.948a5.8 5.8 0 0 0-1.188-.922l-.135-.073l-.078-.047c-.073-.036-.141-.068-.208-.104l-.073-.031a4 4 0 0 0-.354-.151q-.07-.03-.141-.052a1 1 0 0 0-.167-.057a2 2 0 0 0-.177-.057c-.052-.016-.099-.026-.146-.042q-.154-.04-.318-.073l-.099-.016a4 4 0 0 0-.245-.042q-.07-.006-.141-.021l-.208-.021l-.146-.01q-.126-.006-.245-.005l-.099-.005zm4.182 2.416s-.099.104-.281.281a24 24 0 0 1-.792.698c-.125.089-.255.193-.391.292c.479.964 1.26 1.589 2.135 1.698q.025.24.026.49v1.063h-3.484a.5.5 0 0 0-.474-.354h-1.844a.5.5 0 0 0-.474.354h-3.484V9.938c0-.531.083-1.042.24-1.521c.156.151.323.281.505.401c.052.026.161.083.323.151c.229.104.573.219.995.281c.208.031.438.052.682.052q.096.001.182-.005l.193-.01c.135-.005.26-.031.391-.042c.125-.016.266-.047.396-.068c.135-.031.271-.068.406-.094l.401-.125q.204-.07.401-.146c.266-.099.531-.214.786-.333l.37-.188l.365-.193q.352-.202.667-.396c.104-.063.208-.135.307-.193q.149-.094.281-.188c.172-.125.344-.234.484-.339s.271-.188.37-.271c.198-.151.318-.234.318-.234zm-4.609 5.162h.849v.281h-.849zm-3.271.354h2.271v1.344a.78.78 0 0 1-.781.781h-.708a.78.78 0 0 1-.781-.781zm5.12 0h2.271v1.344a.78.78 0 0 1-.781.781H25.1a.78.78 0 0 1-.781-.781zm-3.985.213a.565.565 0 1 0 0 1.131a.57.57 0 0 0 .568-.568a.6.6 0 0 0-.057-.255a.3.3 0 0 1-.224.115a.284.284 0 0 1-.245-.421l-.036-.005zm5.12 0a.565.565 0 1 0 0 1.131a.57.57 0 0 0 .568-.568a.6.6 0 0 0-.063-.255a.29.29 0 0 1-.224.115a.284.284 0 0 1-.281-.286a.3.3 0 0 1 .031-.135c-.01 0-.026-.005-.036-.005zm-4.583 5.808a.5.5 0 0 0-.245.089a.5.5 0 0 0-.214.406v2.693a.503.503 0 0 0 .667.469l1.818-.651l1.818.651a.4.4 0 0 0 .167.026a.493.493 0 0 0 .5-.495v-2.693a.5.5 0 0 0-.208-.406a.53.53 0 0 0-.458-.063l-1.813.651l-1.818-.651c-.042-.01-.078-.021-.12-.026c-.026 0-.057-.005-.089 0zm.536 1.198l.99.354v.578l-.99.354zm2.974 0V20.5l-.99-.354v-.578z"/></svg>