<svg xmlns="http://www.w3.org/2000/svg" viewBox="0 0 24 24"><path fill="#21353e" d="M20.421 8.951a.84.84 0 1 0-.707-1.524l-5.739-3.31a.838.838 0 1 0-1.676 0L6.51 7.389a.838.838 0 0 0-.789 1.47v6.598l-1.11-.626l.212-.403H3l.99 1.573l.219-.424l8.944 5.144l6.474-3.756a.83.83 0 0 0 .506.18a.838.838 0 0 0 .294-1.634V8.957zm-13.888 6.99V8.924l.098-.055l6.169 3.577v7.061zm6.588-4.246L7.018 8.124v-.06l5.684-3.207a.83.83 0 0 0 .876 0l5.662 3.234l-6.114 3.61zm.833.49l5.65-3.365v6.708zm-.338.751l5.624 3.321l-5.624 3.25z"/></svg>