<?xml version="1.0" encoding="UTF-8" standalone="no"?>
<svg
   xmlns:dc="http://purl.org/dc/elements/1.1/"
   xmlns:cc="http://creativecommons.org/ns#"
   xmlns:rdf="http://www.w3.org/1999/02/22-rdf-syntax-ns#"
   xmlns:svg="http://www.w3.org/2000/svg"
   xmlns="http://www.w3.org/2000/svg"
   xmlns:sodipodi="http://sodipodi.sourceforge.net/DTD/sodipodi-0.dtd"
   xmlns:inkscape="http://www.inkscape.org/namespaces/inkscape"
   width="57.609417mm"
   height="13.860834mm"
   viewBox="0 0 57.609417 13.860834"
   version="1.1"
   id="svg856"
   inkscape:version="1.0rc1 (09960d6f05, 2020-04-09)"
   sodipodi:docname="hsp-logo-horizontal-full.svg">
  <defs
     id="defs850" />
  <sodipodi:namedview
     fit-margin-bottom="0"
     fit-margin-right="0"
     fit-margin-left="0"
     fit-margin-top="0"
     id="base"
     pagecolor="#ffffff"
     bordercolor="#666666"
     borderopacity="1.0"
     inkscape:pageopacity="0.0"
     inkscape:pageshadow="2"
     inkscape:zoom="1"
     inkscape:cx="393.37039"
     inkscape:cy="128.42928"
     inkscape:document-units="mm"
     inkscape:current-layer="layer1"
     inkscape:document-rotation="0"
     showgrid="false"
     inkscape:window-width="1920"
     inkscape:window-height="1027"
     inkscape:window-x="-8"
     inkscape:window-y="-8"
     inkscape:window-maximized="1" />
  <metadata
     id="metadata853">
    <rdf:RDF>
      <cc:Work
         rdf:about="">
        <dc:format>image/svg+xml</dc:format>
        <dc:type
           rdf:resource="http://purl.org/dc/dcmitype/StillImage" />
        <dc:title></dc:title>
      </cc:Work>
    </rdf:RDF>
  </metadata>
  <g
     transform="translate(-10.353042,-8.3530854)"
     inkscape:label="Layer 1"
     inkscape:groupmode="layer"
     id="layer1">
    <g
       transform="matrix(0.5481861,0,0,0.5481861,5.2274894,3.9063317)"
       id="g1045">
      <g
         inkscape:export-ydpi="96"
         inkscape:export-xdpi="96"
         transform="matrix(0.39245557,0,0,0.39245557,71.854334,-82.637974)"
         id="g1161">
        <path
           style="opacity:1;fill:#4caf50;fill-opacity:1;stroke-width:1.75549;stop-opacity:1"
           inkscape:connector-curvature="0"
           fill="#cfd8dc"
           d="m -98.777783,231.8506 h -52.664687 c -2.90884,0 -5.26646,2.35937 -5.26646,5.26646 v 57.93115 l 15.01996,-14.04391 h 42.911187 c 2.90709,0 5.266468,-2.35938 5.266468,-5.26647 v -38.62077 c 0,-2.90709 -2.359378,-5.26646 -5.266468,-5.26646 z"
           id="path258" />
        <path
           style="opacity:1;fill:#ffc107;fill-opacity:1;stroke-width:1.75549;stop-opacity:1"
           inkscape:connector-curvature="0"
           fill="#2196f3"
           d="m -132.13208,231.8506 h -19.31039 c -2.90884,0 -5.26646,2.35937 -5.26646,5.26646 v 57.93115 l 15.01996,-14.04391 h 21.84531 z"
           id="path260" />
        <text
           xml:space="preserve"
           style="font-style:normal;font-weight:normal;font-size:37.6049px;line-height:1.25;font-family:sans-serif;fill:#5d4037;fill-opacity:1;stroke:none;stroke-width:0.940126"
           x="-150.89995"
           y="272.16544"
           id="text1121"
           transform="scale(1.0038473,0.99616744)"><tspan
             sodipodi:role="line"
             id="tspan1119"
             x="-150.89995"
             y="272.16544"
             style="font-style:normal;font-variant:normal;font-weight:normal;font-stretch:normal;font-size:37.6049px;font-family:monospace;-inkscape-font-specification:'monospace Normal';font-variant-ligatures:normal;font-variant-caps:normal;font-variant-numeric:normal;font-variant-east-asian:normal;fill:#5d4037;fill-opacity:1;stroke-width:0.940126">!</tspan></text>
        <path
           id="path1125-0"
           d="m -111.40848,266.31373 -7.56626,-7.56728 2.88608,-2.88607 4.68018,4.67916 9.78285,-9.78184 2.886082,2.88608 z"
           fill="#ffffff"
           inkscape:connector-curvature="0"
           style="opacity:1;stroke-width:1.02054;stop-opacity:1" />
      </g>
      <g
         id="g1018">
        <g
           transform="translate(-2.3812513)"
           style="font-style:normal;font-weight:normal;font-size:13.016px;line-height:1.25;font-family:sans-serif;fill:#000000;fill-opacity:1;stroke:none;stroke-width:0.325;stroke-miterlimit:4;stroke-dasharray:none;stroke-opacity:1"
           id="text1437"
           aria-label="Status Page">
          <path
             inkscape:connector-curvature="0"
             id="path953"
             style="font-style:normal;font-variant:normal;font-weight:bold;font-stretch:normal;font-family:Quicksand;-inkscape-font-specification:'Quicksand Bold';fill:#000000;fill-opacity:1;stroke:none;stroke-width:0.325;stroke-miterlimit:4;stroke-dasharray:none;stroke-opacity:1"
             d="m 44.677646,24.203452 q -0.91112,0 -1.640016,-0.221272 -0.728896,-0.234288 -1.392712,-0.806992 -0.169208,-0.143176 -0.26032,-0.3254 -0.09111,-0.182224 -0.09111,-0.364448 0,-0.299368 0.208256,-0.52064 0.221272,-0.234288 0.546672,-0.234288 0.247304,0 0.442544,0.156192 0.494608,0.403496 0.9762,0.611752 0.494608,0.208256 1.210488,0.208256 0.481592,0 0.885088,-0.143176 0.403496,-0.156192 0.6508,-0.403496 0.247304,-0.26032 0.247304,-0.58572 0,-0.39048 -0.234288,-0.663816 -0.234288,-0.273336 -0.71588,-0.45556 -0.481592,-0.19524 -1.223504,-0.299368 -0.702864,-0.104128 -1.23652,-0.312384 Q 42.51699,19.62182 42.152542,19.29642 41.80111,18.958004 41.618886,18.51546 41.436662,18.0599 41.436662,17.500212 q 0,-0.84604 0.429528,-1.444776 0.442544,-0.598736 1.184456,-0.91112 0.741912,-0.312384 1.640016,-0.312384 0.84604,0 1.56192,0.26032 0.728896,0.247304 1.184456,0.637784 0.377464,0.299368 0.377464,0.689848 0,0.286352 -0.221272,0.52064 -0.221272,0.234288 -0.52064,0.234288 -0.19524,0 -0.351432,-0.117144 -0.208256,-0.182224 -0.559688,-0.338416 -0.351432,-0.169208 -0.741912,-0.273336 -0.39048,-0.117144 -0.728896,-0.117144 -0.559688,0 -0.950168,0.143176 -0.377464,0.143176 -0.572704,0.39048 -0.19524,0.247304 -0.19524,0.572704 0,0.39048 0.221272,0.6508 0.234288,0.247304 0.663816,0.403496 0.429528,0.143176 1.028264,0.26032 0.78096,0.143176 1.36668,0.338416 0.598736,0.19524 0.989216,0.507624 0.39048,0.299368 0.58572,0.767944 0.19524,0.45556 0.19524,1.119376 0,0.84604 -0.468576,1.457792 -0.468576,0.611752 -1.23652,0.937152 -0.754928,0.3254 -1.640016,0.3254 z" />
          <path
             inkscape:connector-curvature="0"
             id="path955"
             style="font-style:normal;font-variant:normal;font-weight:bold;font-stretch:normal;font-family:Quicksand;-inkscape-font-specification:'Quicksand Bold';fill:#000000;fill-opacity:1;stroke:none;stroke-width:0.325;stroke-miterlimit:4;stroke-dasharray:none;stroke-opacity:1"
             d="m 49.476076,17.239892 h 3.084792 q 0.312384,0 0.52064,0.208256 0.208256,0.208256 0.208256,0.52064 0,0.299368 -0.208256,0.507624 -0.208256,0.19524 -0.52064,0.19524 h -3.084792 q -0.312384,0 -0.52064,-0.208256 -0.208256,-0.208256 -0.208256,-0.52064 0,-0.299368 0.208256,-0.494608 0.208256,-0.208256 0.52064,-0.208256 z m 1.392712,-1.627 q 0.338416,0 0.546672,0.234288 0.221272,0.221272 0.221272,0.559688 v 5.79212 q 0,0.182224 0.06508,0.299368 0.0781,0.117144 0.19524,0.169208 0.13016,0.05206 0.273336,0.05206 0.156192,0 0.286352,-0.05206 0.13016,-0.06508 0.299368,-0.06508 0.182224,0 0.3254,0.169208 0.156192,0.169208 0.156192,0.468576 0,0.364448 -0.403496,0.598736 -0.39048,0.234288 -0.84604,0.234288 -0.273336,0 -0.611752,-0.03905 -0.3254,-0.05206 -0.624768,-0.221272 -0.286352,-0.182224 -0.481592,-0.546672 -0.19524,-0.364448 -0.19524,-1.002232 v -5.8572 q 0,-0.338416 0.221272,-0.559688 0.234288,-0.234288 0.572704,-0.234288 z" />
          <path
             inkscape:connector-curvature="0"
             id="path957"
             style="font-style:normal;font-variant:normal;font-weight:bold;font-stretch:normal;font-family:Quicksand;-inkscape-font-specification:'Quicksand Bold';fill:#000000;fill-opacity:1;stroke:none;stroke-width:0.325;stroke-miterlimit:4;stroke-dasharray:none;stroke-opacity:1"
             d="m 60.34708,16.979572 q 0.338416,0 0.559688,0.221272 0.221272,0.221272 0.221272,0.572704 v 5.505768 q 0,0.338416 -0.221272,0.572704 -0.221272,0.221272 -0.559688,0.221272 -0.338416,0 -0.559688,-0.221272 -0.221272,-0.234288 -0.221272,-0.572704 v -0.637784 l 0.286352,0.117144 q 0,0.169208 -0.182224,0.416512 -0.182224,0.234288 -0.494608,0.468576 -0.312384,0.234288 -0.741912,0.403496 -0.416512,0.156192 -0.91112,0.156192 -0.898104,0 -1.627,-0.45556 -0.728896,-0.468576 -1.158424,-1.275568 -0.416512,-0.820008 -0.416512,-1.874304 0,-1.067312 0.416512,-1.874304 0.429528,-0.820008 1.145408,-1.275568 0.71588,-0.468576 1.587952,-0.468576 0.559688,0 1.028264,0.169208 0.468576,0.169208 0.806992,0.429528 0.351432,0.26032 0.533656,0.533656 0.19524,0.26032 0.19524,0.442544 l -0.468576,0.169208 v -0.950168 q 0,-0.338416 0.221272,-0.559688 0.221272,-0.234288 0.559688,-0.234288 z m -2.629232,5.79212 q 0.572704,0 1.002232,-0.286352 0.429528,-0.286352 0.663816,-0.78096 0.247304,-0.494608 0.247304,-1.10636 0,-0.624768 -0.247304,-1.119376 -0.234288,-0.494608 -0.663816,-0.78096 -0.429528,-0.286352 -1.002232,-0.286352 -0.559688,0 -0.989216,0.286352 -0.429528,0.286352 -0.676832,0.78096 -0.234288,0.494608 -0.234288,1.119376 0,0.611752 0.234288,1.10636 0.247304,0.494608 0.676832,0.78096 0.429528,0.286352 0.989216,0.286352 z" />
          <path
             inkscape:connector-curvature="0"
             id="path959"
             style="font-style:normal;font-variant:normal;font-weight:bold;font-stretch:normal;font-family:Quicksand;-inkscape-font-specification:'Quicksand Bold';fill:#000000;fill-opacity:1;stroke:none;stroke-width:0.325;stroke-miterlimit:4;stroke-dasharray:none;stroke-opacity:1"
             d="m 62.898825,17.239892 h 3.084792 q 0.312384,0 0.52064,0.208256 0.208256,0.208256 0.208256,0.52064 0,0.299368 -0.208256,0.507624 -0.208256,0.19524 -0.52064,0.19524 h -3.084792 q -0.312384,0 -0.52064,-0.208256 -0.208256,-0.208256 -0.208256,-0.52064 0,-0.299368 0.208256,-0.494608 0.208256,-0.208256 0.52064,-0.208256 z m 1.392712,-1.627 q 0.338416,0 0.546672,0.234288 0.221272,0.221272 0.221272,0.559688 v 5.79212 q 0,0.182224 0.06508,0.299368 0.0781,0.117144 0.19524,0.169208 0.13016,0.05206 0.273336,0.05206 0.156192,0 0.286352,-0.05206 0.13016,-0.06508 0.299368,-0.06508 0.182224,0 0.3254,0.169208 0.156192,0.169208 0.156192,0.468576 0,0.364448 -0.403496,0.598736 -0.39048,0.234288 -0.84604,0.234288 -0.273336,0 -0.611752,-0.03905 -0.3254,-0.05206 -0.624768,-0.221272 -0.286352,-0.182224 -0.481592,-0.546672 -0.19524,-0.364448 -0.19524,-1.002232 v -5.8572 q 0,-0.338416 0.221272,-0.559688 0.234288,-0.234288 0.572704,-0.234288 z" />
          <path
             inkscape:connector-curvature="0"
             id="path961"
             style="font-style:normal;font-variant:normal;font-weight:bold;font-stretch:normal;font-family:Quicksand;-inkscape-font-specification:'Quicksand Bold';fill:#000000;fill-opacity:1;stroke:none;stroke-width:0.325;stroke-miterlimit:4;stroke-dasharray:none;stroke-opacity:1"
             d="m 73.301253,17.109732 q 0.338416,0 0.559688,0.234288 0.221272,0.221272 0.221272,0.559688 v 3.306064 q 0,1.379696 -0.767944,2.186688 -0.767944,0.806992 -2.21272,0.806992 -1.444776,0 -2.21272,-0.806992 -0.754928,-0.806992 -0.754928,-2.186688 v -3.306064 q 0,-0.338416 0.221272,-0.559688 0.221272,-0.234288 0.559688,-0.234288 0.338416,0 0.559688,0.234288 0.221272,0.221272 0.221272,0.559688 v 3.306064 q 0,0.793976 0.351432,1.184456 0.351432,0.377464 1.054296,0.377464 0.71588,0 1.067312,-0.377464 0.351432,-0.39048 0.351432,-1.184456 v -3.306064 q 0,-0.338416 0.221272,-0.559688 0.221272,-0.234288 0.559688,-0.234288 z" />
          <path
             inkscape:connector-curvature="0"
             id="path963"
             style="font-style:normal;font-variant:normal;font-weight:bold;font-stretch:normal;font-family:Quicksand;-inkscape-font-specification:'Quicksand Bold';fill:#000000;fill-opacity:1;stroke:none;stroke-width:0.325;stroke-miterlimit:4;stroke-dasharray:none;stroke-opacity:1"
             d="m 75.38239,22.992964 q -0.13016,-0.182224 -0.117144,-0.468576 0.01302,-0.286352 0.338416,-0.494608 0.208256,-0.13016 0.442544,-0.104128 0.234288,0.01302 0.45556,0.234288 0.377464,0.377464 0.793976,0.58572 0.416512,0.208256 1.04128,0.208256 0.19524,-0.01302 0.429528,-0.05206 0.234288,-0.05206 0.403496,-0.208256 0.182224,-0.169208 0.182224,-0.507624 0,-0.286352 -0.19524,-0.45556 Q 78.96179,21.561204 78.63639,21.44406 78.324006,21.326916 77.933526,21.222788 77.53003,21.105644 77.100502,20.962468 76.68399,20.819292 76.332558,20.59802 75.981126,20.363732 75.759854,19.986268 75.538582,19.608804 75.538582,19.0361 q 0,-0.6508 0.364448,-1.10636 0.364448,-0.45556 0.937152,-0.702864 0.58572,-0.247304 1.223504,-0.247304 0.403496,0 0.84604,0.104128 0.442544,0.09111 0.84604,0.312384 0.403496,0.208256 0.676832,0.559688 0.143176,0.19524 0.169208,0.468576 0.02603,0.273336 -0.247304,0.494608 -0.19524,0.156192 -0.45556,0.143176 -0.26032,-0.02603 -0.429528,-0.182224 -0.221272,-0.286352 -0.598736,-0.45556 -0.364448,-0.169208 -0.84604,-0.169208 -0.19524,0 -0.429528,0.05206 -0.221272,0.03905 -0.39048,0.19524 -0.169208,0.143176 -0.169208,0.468576 0,0.299368 0.19524,0.481592 0.19524,0.169208 0.52064,0.286352 0.338416,0.104128 0.71588,0.208256 0.39048,0.104128 0.793976,0.247304 0.403496,0.143176 0.741912,0.377464 0.338416,0.234288 0.546672,0.611752 0.208256,0.364448 0.208256,0.937152 0,0.663816 -0.39048,1.132392 -0.39048,0.468576 -0.9762,0.71588 -0.58572,0.234288 -1.197472,0.234288 -0.767944,0 -1.535888,-0.26032 -0.767944,-0.273336 -1.275568,-0.950168 z" />
          <path
             inkscape:connector-curvature="0"
             id="path965"
             style="font-style:normal;font-variant:normal;font-weight:bold;font-stretch:normal;font-family:Quicksand;-inkscape-font-specification:'Quicksand Bold';fill:#000000;fill-opacity:1;stroke:none;stroke-width:0.325;stroke-miterlimit:4;stroke-dasharray:none;stroke-opacity:1"
             d="m 89.592202,14.962092 q 0.676832,0 1.262552,0.39048 0.598736,0.39048 0.963184,1.054296 0.364448,0.663816 0.364448,1.483824 0,0.806992 -0.364448,1.470808 -0.364448,0.663816 -0.963184,1.067312 -0.58572,0.39048 -1.262552,0.39048 h -2.394944 l 0.13016,-0.234288 v 2.694312 q 0,0.338416 -0.208256,0.572704 -0.208256,0.221272 -0.546672,0.221272 -0.3254,0 -0.533656,-0.221272 -0.208256,-0.234288 -0.208256,-0.572704 v -7.523248 q 0,-0.338416 0.221272,-0.559688 0.234288,-0.234288 0.572704,-0.234288 z m 0,4.373376 q 0.247304,0 0.481592,-0.208256 0.234288,-0.208256 0.39048,-0.533656 0.156192,-0.338416 0.156192,-0.702864 0,-0.377464 -0.156192,-0.702864 -0.156192,-0.3254 -0.39048,-0.52064 -0.234288,-0.208256 -0.481592,-0.208256 h -2.420976 l 0.156192,-0.234288 v 3.31908 l -0.143176,-0.208256 z" />
          <path
             inkscape:connector-curvature="0"
             id="path967"
             style="font-style:normal;font-variant:normal;font-weight:bold;font-stretch:normal;font-family:Quicksand;-inkscape-font-specification:'Quicksand Bold';fill:#000000;fill-opacity:1;stroke:none;stroke-width:0.325;stroke-miterlimit:4;stroke-dasharray:none;stroke-opacity:1"
             d="m 99.11544,16.979572 q 0.338416,0 0.559688,0.221272 0.221272,0.221272 0.221272,0.572704 v 5.505768 q 0,0.338416 -0.221272,0.572704 -0.221272,0.221272 -0.559688,0.221272 -0.338416,0 -0.559688,-0.221272 -0.221272,-0.234288 -0.221272,-0.572704 v -0.637784 l 0.286352,0.117144 q 0,0.169208 -0.182224,0.416512 -0.182224,0.234288 -0.494608,0.468576 -0.312384,0.234288 -0.741912,0.403496 -0.416512,0.156192 -0.91112,0.156192 -0.898104,0 -1.627,-0.45556 -0.728896,-0.468576 -1.158424,-1.275568 -0.416512,-0.820008 -0.416512,-1.874304 0,-1.067312 0.416512,-1.874304 0.429528,-0.820008 1.145408,-1.275568 0.71588,-0.468576 1.587952,-0.468576 0.559688,0 1.028264,0.169208 0.468576,0.169208 0.806992,0.429528 0.351432,0.26032 0.533656,0.533656 0.19524,0.26032 0.19524,0.442544 l -0.468576,0.169208 v -0.950168 q 0,-0.338416 0.221272,-0.559688 0.221272,-0.234288 0.559688,-0.234288 z m -2.629232,5.79212 q 0.572704,0 1.002232,-0.286352 0.429528,-0.286352 0.663816,-0.78096 0.247304,-0.494608 0.247304,-1.10636 0,-0.624768 -0.247304,-1.119376 -0.234288,-0.494608 -0.663816,-0.78096 -0.429528,-0.286352 -1.002232,-0.286352 -0.559688,0 -0.989216,0.286352 -0.429528,0.286352 -0.676832,0.78096 -0.234288,0.494608 -0.234288,1.119376 0,0.611752 0.234288,1.10636 0.247304,0.494608 0.676832,0.78096 0.429528,0.286352 0.989216,0.286352 z" />
          <path
             inkscape:connector-curvature="0"
             id="path969"
             style="font-style:normal;font-variant:normal;font-weight:bold;font-stretch:normal;font-family:Quicksand;-inkscape-font-specification:'Quicksand Bold';fill:#000000;fill-opacity:1;stroke:none;stroke-width:0.325;stroke-miterlimit:4;stroke-dasharray:none;stroke-opacity:1"
             d="m 104.41356,16.979572 q 0.54667,0 1.00223,0.169208 0.45556,0.169208 0.78096,0.429528 0.33842,0.26032 0.52064,0.533656 0.19524,0.26032 0.19524,0.442544 l -0.33841,0.169208 v -0.950168 q 0,-0.338416 0.22127,-0.559688 0.22127,-0.234288 0.55969,-0.234288 0.33841,0 0.55969,0.221272 0.22127,0.221272 0.22127,0.572704 v 5.79212 q 0,1.132392 -0.49461,1.809224 -0.48159,0.689848 -1.27557,0.989216 -0.79397,0.312384 -1.70509,0.312384 -0.26032,0 -0.67684,-0.06508 -0.41651,-0.06508 -0.79397,-0.156192 -0.37747,-0.09111 -0.57271,-0.169208 -0.39048,-0.169208 -0.54667,-0.429528 -0.14317,-0.247304 -0.0521,-0.533656 0.11714,-0.377464 0.37746,-0.52064 0.26032,-0.13016 0.54667,-0.02603 0.13016,0.03905 0.42953,0.156192 0.29937,0.117144 0.6508,0.208256 0.36445,0.104128 0.63779,0.104128 0.9762,0 1.44477,-0.39048 0.46858,-0.39048 0.46858,-1.080328 v -1.132392 l 0.15619,0.117144 q 0,0.169208 -0.18222,0.416512 -0.16921,0.234288 -0.4816,0.468576 -0.29936,0.234288 -0.71588,0.403496 -0.41651,0.156192 -0.88508,0.156192 -0.92414,0 -1.66605,-0.45556 -0.74191,-0.468576 -1.17144,-1.275568 -0.42953,-0.820008 -0.42953,-1.874304 0,-1.067312 0.42953,-1.874304 0.42953,-0.820008 1.15842,-1.275568 0.7289,-0.468576 1.627,-0.468576 z m 0.24731,1.43176 q -0.58572,0 -1.02827,0.286352 -0.44254,0.286352 -0.68985,0.78096 -0.2473,0.494608 -0.2473,1.119376 0,0.611752 0.2473,1.10636 0.24731,0.494608 0.68985,0.78096 0.44255,0.286352 1.02827,0.286352 0.59873,0 1.04128,-0.286352 0.44254,-0.286352 0.68984,-0.78096 0.24731,-0.494608 0.24731,-1.10636 0,-0.624768 -0.24731,-1.119376 -0.2473,-0.494608 -0.68984,-0.78096 -0.44255,-0.286352 -1.04128,-0.286352 z" />
          <path
             inkscape:connector-curvature="0"
             id="path971"
             style="font-style:normal;font-variant:normal;font-weight:bold;font-stretch:normal;font-family:Quicksand;-inkscape-font-specification:'Quicksand Bold';fill:#000000;fill-opacity:1;stroke:none;stroke-width:0.325;stroke-miterlimit:4;stroke-dasharray:none;stroke-opacity:1"
             d="m 112.78651,24.203452 q -1.10636,0 -1.92636,-0.45556 -0.807,-0.468576 -1.24954,-1.262552 -0.42953,-0.793976 -0.42953,-1.796208 0,-1.17144 0.46858,-1.991448 0.48159,-0.833024 1.24953,-1.275568 0.76795,-0.442544 1.627,-0.442544 0.66382,0 1.24954,0.273336 0.59873,0.273336 1.05429,0.754928 0.45556,0.468576 0.71588,1.093344 0.27334,0.624768 0.27334,1.327632 -0.013,0.312384 -0.2473,0.507624 -0.23429,0.19524 -0.54668,0.19524 h -4.97211 l -0.39048,-1.3016 h 4.77687 l -0.28635,0.26032 v -0.351432 q -0.026,-0.377464 -0.27333,-0.676832 -0.23429,-0.299368 -0.59874,-0.468576 -0.35143,-0.182224 -0.75493,-0.182224 -0.39048,0 -0.72889,0.104128 -0.33842,0.104128 -0.58572,0.351432 -0.24731,0.247304 -0.39048,0.663816 -0.14318,0.416512 -0.14318,1.054296 0,0.702864 0.28635,1.197472 0.29937,0.481592 0.75493,0.741912 0.46858,0.247304 0.98922,0.247304 0.48159,0 0.76794,-0.0781 0.28635,-0.0781 0.45556,-0.182224 0.18223,-0.117144 0.3254,-0.19524 0.23429,-0.117144 0.44254,-0.117144 0.28636,0 0.46858,0.19524 0.19524,0.19524 0.19524,0.45556 0,0.351432 -0.36445,0.637784 -0.33841,0.286352 -0.95016,0.507624 -0.61176,0.208256 -1.26256,0.208256 z" />
        </g>
        <g
           style="font-size:5.29166px;line-height:1.25;font-family:Quicksand;-inkscape-font-specification:Quicksand;text-align:center;text-anchor:middle;fill:#000000;fill-opacity:1;stroke-width:0.141741"
           id="text27"
           aria-label="hosted">
          <path
             inkscape:connector-curvature="0"
             id="path987"
             style="fill:#000000;fill-opacity:1;stroke-width:0.141741"
             d="m 98.962987,10.965408 q 0.333375,0 0.53975,0.142875 0.206374,0.142875 0.301624,0.386291 0.100542,0.243416 0.100542,0.539749 v 1.49754 q 0,0.0635 -0.04763,0.111125 -0.04762,0.04763 -0.111125,0.04763 -0.07408,0 -0.116417,-0.04763 -0.04233,-0.04763 -0.04233,-0.111125 v -1.49754 q 0,-0.216958 -0.06879,-0.391583 -0.0635,-0.174624 -0.211666,-0.275166 -0.148166,-0.105833 -0.396874,-0.105833 -0.22225,0 -0.423333,0.105833 -0.195792,0.100542 -0.3175,0.275166 -0.121708,0.174625 -0.121708,0.391583 v 1.49754 q 0,0.0635 -0.04762,0.111125 -0.04762,0.04763 -0.111125,0.04763 -0.07408,0 -0.116416,-0.04763 -0.04233,-0.04763 -0.04233,-0.111125 V 9.9335343 q 0,-0.0635 0.04233,-0.1111248 0.04763,-0.047625 0.116416,-0.047625 0.06879,0 0.111125,0.047625 0.04762,0.047625 0.04762,0.1111248 v 1.7144977 l -0.121708,0.185208 q 0.01058,-0.164041 0.100541,-0.317499 0.09525,-0.15875 0.243417,-0.280458 0.148166,-0.127 0.328083,-0.195792 0.179916,-0.07408 0.365124,-0.07408 z" />
          <path
             inkscape:connector-curvature="0"
             id="path989"
             style="fill:#000000;fill-opacity:1;stroke-width:0.141741"
             d="m 103.23526,12.335948 q 0,0.402166 -0.17992,0.724957 -0.17462,0.3175 -0.47625,0.502708 -0.30162,0.179916 -0.68262,0.179916 -0.37571,0 -0.68263,-0.179916 -0.30162,-0.185208 -0.48154,-0.502708 -0.17462,-0.322791 -0.17462,-0.724957 0,-0.407458 0.17462,-0.724958 0.17992,-0.317499 0.48154,-0.502707 0.30692,-0.185208 0.68263,-0.185208 0.381,0 0.68262,0.185208 0.30163,0.185208 0.47625,0.502707 0.17992,0.3175 0.17992,0.724958 z m -0.3175,0 q 0,-0.322791 -0.13229,-0.571499 -0.13229,-0.254 -0.36513,-0.396875 -0.22754,-0.148166 -0.52387,-0.148166 -0.29104,0 -0.52388,0.148166 -0.22754,0.142875 -0.36512,0.396875 -0.13229,0.248708 -0.13229,0.571499 0,0.322791 0.13229,0.571499 0.13758,0.248708 0.36512,0.396875 0.23284,0.142874 0.52388,0.142874 0.29633,0 0.52387,-0.142874 0.23284,-0.148167 0.36513,-0.396875 0.13229,-0.248708 0.13229,-0.571499 z" />
          <path
             inkscape:connector-curvature="0"
             id="path991"
             style="fill:#000000;fill-opacity:1;stroke-width:0.141741"
             d="m 103.7364,13.261988 q -0.0423,-0.0635 -0.0423,-0.121708 0.005,-0.0635 0.0688,-0.100541 0.0423,-0.03704 0.0952,-0.03175 0.0582,0.0053 0.10584,0.05292 0.14287,0.185208 0.34395,0.301625 0.20638,0.111125 0.48684,0.111125 0.14816,0 0.29104,-0.04763 0.14817,-0.05292 0.24341,-0.153458 0.0953,-0.105834 0.0953,-0.264583 0,-0.164042 -0.0953,-0.264583 -0.0952,-0.100542 -0.2487,-0.15875 -0.14817,-0.05821 -0.3175,-0.100542 -0.17992,-0.04763 -0.34925,-0.105833 -0.16934,-0.0635 -0.30163,-0.153458 -0.127,-0.09525 -0.20637,-0.227541 -0.0794,-0.132292 -0.0794,-0.322792 0,-0.222249 0.12171,-0.391582 0.12171,-0.169334 0.32808,-0.264583 0.21167,-0.09525 0.47625,-0.09525 0.1323,0 0.28575,0.03704 0.15346,0.03175 0.30163,0.111125 0.14816,0.07937 0.26458,0.216958 0.0476,0.04763 0.0476,0.111125 0,0.05821 -0.0529,0.105833 -0.0423,0.03175 -0.10054,0.03175 -0.0529,0 -0.09,-0.04233 -0.127,-0.142875 -0.30162,-0.216958 -0.17463,-0.07408 -0.37571,-0.07408 -0.15346,0 -0.29104,0.05292 -0.1323,0.04763 -0.22225,0.148167 -0.09,0.100541 -0.09,0.264583 0.0106,0.153458 0.10583,0.248708 0.10054,0.09525 0.25929,0.15875 0.16404,0.0635 0.36513,0.116416 0.16933,0.04233 0.32279,0.100542 0.15875,0.05821 0.27516,0.148166 0.12171,0.08467 0.1905,0.216958 0.0741,0.132292 0.0741,0.333375 0,0.232833 -0.13229,0.402166 -0.127,0.169333 -0.34396,0.259291 -0.21696,0.08996 -0.48154,0.08996 -0.28575,0 -0.55563,-0.111124 -0.26458,-0.111125 -0.47095,-0.370417 z" />
          <path
             inkscape:connector-curvature="0"
             id="path993"
             style="fill:#000000;fill-opacity:1;stroke-width:0.141741"
             d="m 106.19569,10.997158 h 1.23296 q 0.0635,0 0.10583,0.04763 0.0423,0.04233 0.0423,0.105833 0,0.05821 -0.0423,0.100542 -0.0423,0.04233 -0.10583,0.04233 h -1.23296 q -0.0635,0 -0.11112,-0.04233 -0.0423,-0.04763 -0.0423,-0.105834 0,-0.0635 0.0423,-0.105833 0.0476,-0.04233 0.11112,-0.04233 z m 0.54505,-0.746124 q 0.0688,0 0.11112,0.04763 0.0476,0.04763 0.0476,0.111125 v 2.656413 q 0,0.148166 0.0371,0.22225 0.0423,0.07408 0.10583,0.100541 0.0635,0.02117 0.127,0.02117 0.0423,0 0.0741,-0.01058 0.037,-0.01587 0.0794,-0.01587 0.0476,0 0.0794,0.03704 0.037,0.03704 0.037,0.09525 0,0.07408 -0.0847,0.127 -0.0847,0.04763 -0.20109,0.04763 -0.0476,0 -0.14287,-0.0053 -0.0952,-0.01058 -0.19579,-0.05821 -0.10054,-0.05292 -0.16933,-0.179917 -0.0635,-0.126999 -0.0635,-0.365124 v -2.672288 q 0,-0.0635 0.0423,-0.111125 0.0476,-0.04763 0.11642,-0.04763 z" />
          <path
             inkscape:connector-curvature="0"
             id="path995"
             style="fill:#000000;fill-opacity:1;stroke-width:0.141741"
             d="m 109.33886,13.743529 q -0.40746,0 -0.71967,-0.174624 -0.31221,-0.174625 -0.48683,-0.486833 -0.17463,-0.312208 -0.17463,-0.730249 0,-0.449791 0.17463,-0.767291 0.17992,-0.317499 0.46037,-0.486833 0.28575,-0.174624 0.60325,-0.174624 0.23284,0 0.44979,0.08467 0.22225,0.07938 0.39159,0.243417 0.16933,0.158749 0.27516,0.391582 0.10584,0.232833 0.11113,0.53975 0,0.0635 -0.0476,0.111125 -0.0476,0.04233 -0.11112,0.04233 h -2.12196 l -0.0635,-0.28575 h 2.08492 l -0.0688,0.0635 v -0.105833 q -0.0265,-0.248708 -0.16405,-0.423333 -0.13758,-0.174625 -0.33337,-0.264583 -0.1905,-0.08996 -0.40217,-0.08996 -0.15875,0 -0.32808,0.0635 -0.16404,0.0635 -0.30162,0.201083 -0.1323,0.132291 -0.21696,0.343958 -0.0847,0.206375 -0.0847,0.492124 0,0.312208 0.127,0.566208 0.127,0.253999 0.36513,0.402166 0.23812,0.148166 0.57679,0.148166 0.17991,0 0.32808,-0.05292 0.14817,-0.05292 0.25929,-0.137583 0.11642,-0.08996 0.1905,-0.185208 0.0582,-0.04763 0.11112,-0.04763 0.0582,0 0.0952,0.04233 0.0423,0.04233 0.0423,0.09525 0,0.0635 -0.0529,0.111125 -0.15875,0.190499 -0.41275,0.333374 -0.254,0.137583 -0.55562,0.137583 z" />
          <path
             inkscape:connector-curvature="0"
             id="path997"
             style="fill:#000000;fill-opacity:1;stroke-width:0.141741"
             d="m 113.27924,9.7747845 q 0.0688,0 0.11113,0.047625 0.0476,0.042333 0.0476,0.1111248 v 3.5983287 q 0,0.0635 -0.0476,0.111125 -0.0476,0.04763 -0.11113,0.04763 -0.0741,0 -0.11641,-0.04763 -0.0423,-0.04763 -0.0423,-0.111125 v -0.629708 l 0.09,-0.07408 q 0,0.148167 -0.0794,0.312208 -0.0794,0.15875 -0.22755,0.296333 -0.14287,0.137583 -0.33866,0.22225 -0.1905,0.08467 -0.41804,0.08467 -0.34925,0 -0.635,-0.185208 -0.28046,-0.185208 -0.4445,-0.502707 -0.16404,-0.3175 -0.16404,-0.724958 0,-0.402166 0.16404,-0.719666 0.16404,-0.322791 0.4445,-0.502707 0.28046,-0.185208 0.62971,-0.185208 0.22225,0 0.41804,0.07937 0.19579,0.07937 0.34395,0.216958 0.15346,0.137583 0.23813,0.317499 0.09,0.174625 0.09,0.365125 l -0.11113,-0.07938 V 9.9335343 q 0,-0.0635 0.0423,-0.1111248 0.0423,-0.047625 0.11641,-0.047625 z m -1.10066,3.6724115 q 0.28046,0 0.49741,-0.142874 0.21696,-0.148167 0.33867,-0.396875 0.127,-0.254 0.127,-0.576791 0,-0.317499 -0.127,-0.566207 -0.12171,-0.254 -0.33867,-0.396875 -0.21695,-0.148166 -0.49741,-0.148166 -0.27517,0 -0.49742,0.148166 -0.21696,0.142875 -0.34396,0.396875 -0.1217,0.248708 -0.1217,0.566207 0,0.3175 0.1217,0.571499 0.127,0.254 0.34396,0.402167 0.22225,0.142874 0.49742,0.142874 z" />
        </g>
      </g>
    </g>
  </g>
</svg>
