<svg xmlns="http://www.w3.org/2000/svg" viewBox="0 0 24 24"><g fill="none"><path fill="#64c557" fill-rule="evenodd" d="M19.994 16.498v-8.99l-7.995-4.5v8.994L4.005 16.5l7.997 4.5l7.987-4.495l.005.003v-.005l.003-.002z" clip-rule="evenodd"/><path fill="#118ab2" d="m4 7.509l8.003-4.5v8.999L4 16.508z"/><path fill="#00f8b7" d="M12.004 3L20 7.499l-2.5 1.624l-8-4.706z"/><path fill="#09bd8e" d="M17.5 8.87v3.044l-8-4.537V4.411z"/><path fill="#ffe3a3" d="m9.498 7.378l8.001 4.524l-3 1.692l-7.997-4.528z"/><path fill="#ffbb1d" d="M14.498 13.593v3.027L6.5 11.95V9.06z"/><path fill="#ff965e" d="m6.5 11.949l8 4.63L12 18l-8-4.498z"/><path fill="#d94c00" d="M12 18v3l-8-4.503v-3z"/><path fill="#06d6a0" d="M17.502 8.885L20 7.518v8.998l-2.498 1.388z"/><path fill="#ffd166" d="m14.498 13.593l3.002-1.697v6.01l-3.003 1.676z"/><path fill="#f3722c" d="m12 17.997l2.497-1.422v3.023L12 20.997z"/></g></svg>