<svg xmlns="http://www.w3.org/2000/svg" viewBox="0 0 24 24"><g fill="none"><path fill="url(#SVGzlAJVIul)" d="m11.997 14.102l-5.126-3.01l-.145.22a6.34 6.34 0 0 0 .85 7.846a6.23 6.23 0 0 0 6.816 1.363a6.2 6.2 0 0 0 2.026-1.363a6.32 6.32 0 0 0 .85-7.846l-.145-.22z"/><path fill="url(#SVGju7VWdKa)" d="m17.123 11.103l-5.126 3.01l-5.131-3.015l5.146-2.69z"/><path fill="url(#SVGThnOcctX)" d="m11.997 3l4.426 6.901l-4.426 2.601z"/><path fill="url(#SVG9ypHebfn)" d="M11.998 3v9.502l-4.416-2.6z"/><defs><linearGradient id="SVGzlAJVIul" x1="11.997" x2="11.997" y1="3" y2="21.007" gradientUnits="userSpaceOnUse"><stop stop-color="#498be9"/><stop offset="1" stop-color="#56f2ff"/></linearGradient><linearGradient id="SVGju7VWdKa" x1="11.997" x2="11.997" y1="3.001" y2="20.938" gradientUnits="userSpaceOnUse"><stop stop-color="#4a8cea"/><stop offset=".7" stop-color="#5abef4"/></linearGradient><linearGradient id="SVGThnOcctX" x1="13.336" x2="10.857" y1="12.947" y2="21.729" gradientUnits="userSpaceOnUse"><stop stop-color="#fb8174"/><stop offset=".56" stop-color="#568fdd"/></linearGradient><linearGradient id="SVG9ypHebfn" x1="8.517" x2="9.318" y1="7.716" y2="11.582" gradientUnits="userSpaceOnUse"><stop stop-color="#ffe235"/><stop offset=".61" stop-color="#5dcba2"/></linearGradient></defs></g></svg>