<svg xmlns="http://www.w3.org/2000/svg" viewBox="0 0 24 24"><path d="M13.897 12.007h-.12l.437-.1c-.05.026-.293.1-.317.1m.487-.1h-.122l.122-.073c-.122 0-.22 0-.318-.05c-.534.099-1.093.124-1.603.223c-.025 0-.074.05-.074.05c0 .025 0 .025.025.049c.243 0 .487.05.754.05c.219 0 .462-.074.681-.099c-.195.149-.876.124-1.143.124c-.098 0-.17.025-.243.05c.047.15.218.2.267.348c.534.546 1.022 1.317 1.41 1.963c0 .075.024.2.074.249v.1c0 .05.072.124.121.148h.024c0 .025-.024.05-.024.075c0 .1.218.175.218.25c0 .023 0 .05-.024.05c-.218-.027-.267-.15-.365-.325c-.218-.149-.267-.472-.534-.597c-.05-.198-.171-.173-.243-.373l-.219-.496c.097.025.17.1.17.198c.145.348.39.573.559.895c.073.026.073.125.17.15c-.146-.422-.389-.97-.778-1.243c0-.075-.024-.175-.12-.175c-.051 0-.051.1-.025.125c-.098-.148-.147-.298-.293-.398l.024-.05c0-.123-.072-.223-.17-.248c-.048-.173-.242 0-.34-.198c-.073-.175-.292-.223-.438-.223c-.437.67-2.042 2.236-2.262 2.907c-.145.024-.243.124-.388.124c-.024 0-.122 0-.122-.05s.098-.1.122-.173c.243-.398 2.407-2.71 2.407-3.008c0-.075-.17-.124-.243-.124a.8.8 0 0 0-.244-.05c-.219 0-.413.05-.631.05c-.51 0-1.046.099-1.58.099c-.098 0-.05-.099-.123-.174c.17-.025.316-.15.487-.15a.5.5 0 0 1 .219.075c.146 0 .291.025.436.025c.536 0 1.29-.024 1.8-.15c.026-.023.05-.023.05-.05c0-.023-.122-.048-.098-.123c0-.1-.56-.596-.56-.746c.026 0 .026-.025.026-.025c0-.273-.853-1.292-1.071-1.54v-.025c0-.15-.122-.224-.122-.348c0-.05.073-.1.122-.1c.073 0 .122.1.17.15c-.023.024-.048.05-.048.074c0 .124.535.82.582.82c.026 0 .026-.075.05-.075c.56.348.706.996 1.07 1.492c.364 0 1.168-2.013 1.63-2.187h.048c-.414.622-.875 1.218-1.216 1.89l.048.05c.22-.1.17-.349.267-.424c.05-.075.293-.223.293-.298c0-.05.608-.821.73-1.094c.12-.124.194-.273.316-.422l-.17.049c.048-.199.462-.447.656-.422c-.218.397-.632.621-.802 1.043c-.22.473-.463.746-.779 1.144v.025c0 .075-.146.15-.146.223c-.145.248-.608.523-.608.87a.8.8 0 0 0 .243.026c.632 0 1.29-.15 1.92-.15c.22 0 .537-.025.73.075c-.242.099-.51.124-.752.149"/><path d="M15.805 15.875c.058-.188.108-.39.158-.595q.075-.098.147-.198c0 .308-.16.546-.305.793m-1.494 2.413c-.025.125-.121.15-.219.175c.094-.269.214-.521.332-.771c.236-.091.447-.298.673-.422a10 10 0 0 1-.786 1.018m1.305-2.55c-.149.32-.33.673-.552 1.11c-.187.079-.28.277-.408.418c.024-.073.048-.15.091-.195c.21-.494.538-.912.869-1.332m-2.716 3.62c-.171.322-.851.72-1.167.72c-.34 0-.633-.323-.973-.348c-.073-.248-.34-.124-.51-.248c-.414-.3-.974-.896-1.217-1.342c-.413-.796-.778-1.839-.996-2.685c-.098-.348-.098-2.362-.098-2.783c0-1.492-.049-2.66.56-4.027c0-.298.29-.472.29-.696v-.1c.172-.2.172-.523.39-.696c.219-.721.875-1.17 1.216-1.84c.267-.124.342-.497.585-.67c.533-.35 1.093-.846 1.774-.846c.072.05.146.1.243.1c.05 0 .072-.025.123-.025l.096-.075c.097.025.218.125.268-.05c.437.1 1.045-.123 1.314.373c.948.621.655 1.939 1.044 2.833c.074.796.147 1.59.17 2.412c.024 1.118.17 2.237.17 3.38c0 .922-.062 1.512-.213 2.056c-.096.19-.198.376-.298.58c-.265.148-.316.546-.607.644c-.186.362-.411.873-.67 1.388c-.004 0-.007.005-.011.005c-.03-.027-.038-.064-.056-.094c-.067.08-.13.161-.206.235c.037.053.073.108.118.151c-.387.73-.837 1.417-1.34 1.646m-1.775 1.117c-.753 0-1.605-.273-2.042-.92c-.34-.446-.803-.869-1.023-1.415c-.218-.248-.948-3.231-.948-3.68c0-.024 0-.124.074-.124c.29 0 .827 1.592.874 1.815c.22.746.632 1.54.973 2.237c.195.348.462.596.658.944c.243.075.363.348.63.398c.123.224.366.249.51.423c.099 0 .367.074.367.199c0 .05 0 .123-.073.123m5.788-7.555c-.122.1-.34.248-.316.448v.073c-.196.3-.22.647-.415.945c-.02.032-.032.066-.05.098c.301-1.677.392-3.601.392-4.695c0-1.02-.342-2.014-.437-3.033c-.05-.795-.075-1.665-.585-2.312c-.512-.596-1.216-1.043-2.018-1.043c-.122 0-.242 0-.364.024a.56.56 0 0 0-.341-.1c-.365 0-.658.275-.999.275a.9.9 0 0 1-.267-.05l-.12.125l.438.025c.024.048.071.098.071.148c0 .148-.412.1-.46.348c-.78.423-1.606 1.44-2.069 2.187c-.267.448-.51.994-.753 1.467c-.024.024-.195.397-.242.397c0 .175-.05.324-.074.473c-.194.198-.073.571-.267.77c-.293.944-.536 2.113-.536 3.082c0 .075-.049.1-.122.125c-.023-.225-.096-.473-.072-.721v-.15c.098-2.237.145-4.126 1.436-6.064c.97-1.468 2.211-1.69 2.576-2.137c-.072 0-.12-.025-.194-.025a.56.56 0 0 0-.486.273c-1.386.471-2.067 1.764-2.65 3.008c-.099.148-.22.248-.245.446c-.096.448-.17.871-.34 1.318c-.048.174-.146.448-.146.621c0 .15.073.298.073.448c0 .198-.024.373-.073.571c-.267 1.368-.34 2.858-.34 4.25c0 1.118.487 2.113.826 3.132c.366 1.094 1.144 1.988 1.97 2.735l.608.1a.76.76 0 0 0 .51.173c.268 0 .536-.1.803-.075h.098c.34-.223.924-.373 1.191-.671c.073-.049.122-.223.22-.223c.023 0 .047 0 .072.024c.511-.57 1.144-1.044 1.605-1.64c.243-.298.39-.671.608-.994c.073-.1.073-.249.195-.323c.292-.747 1.459-3.132 1.459-3.778v-.075z"/><path d="M11.852 20.25c-.024 0-.049.025-.049.05h.05c0-.025 0-.025.022-.025c0-.025 0-.025-.023-.025"/><path fill-rule="evenodd" d="M12.16 3.158c.153-.066.37-.158.619-.158c.123 0 .268.02.405.087c.106-.01.206-.01.29-.01h.01c.922 0 1.706.511 2.257 1.153l.004.005l.004.005c.547.693.601 1.603.645 2.338l.01.152c.038.409.117.813.2 1.235l.048.244c.098.505.19 1.036.19 1.58c0 .713-.039 1.773-.147 2.893l.02-.016l.087-.071h.598v.4c0 .226-.094.548-.205.868c-.118.336-.276.726-.441 1.113c-.157.367-.316.726-.457 1.042c-.163.367-.3.677-.378.875l-.04.102l-.074.045l-.005.012l-.014.037l-.021.053a.7.7 0 0 1-.078.143a5 5 0 0 0-.229.39l-.048.087c-.094.171-.203.36-.343.533a8 8 0 0 1-.815.864l-.124.117c-.24.226-.47.441-.678.674l-.224.25l-.057-.058l-.032.03c-.182.19-.44.32-.65.417l-.174.078c-.165.075-.3.136-.409.207l-.078.051h-.205l-.015-.001a1.3 1.3 0 0 0-.365.032a2.5 2.5 0 0 1-.41.044c-.22 0-.44-.052-.636-.19l-.622-.102l-.07-.062c-.84-.76-1.667-1.7-2.06-2.873a23 23 0 0 0-.244-.687l-.024-.067a19 19 0 0 1-.273-.78c-.17-.532-.302-1.096-.302-1.703c0-1.402.074-2.917.347-4.314l.001-.008l.002-.008c.044-.177.064-.325.064-.492a.7.7 0 0 0-.03-.155c-.016-.068-.043-.177-.043-.293c0-.135.036-.285.066-.398l.051-.173l.006-.02l.036-.12l.004-.014l.005-.014c.132-.347.2-.675.277-1.044l.045-.214a.9.9 0 0 1 .146-.367c.028-.042.058-.08.08-.111l.005-.006q.03-.038.05-.068c.564-1.2 1.275-2.573 2.726-3.117a.88.88 0 0 1 .687-.325a1 1 0 0 1 .156.018h.004l.024.005l.116-.12l.186.063a.6.6 0 0 0 .17.034c.095 0 .193-.038.368-.113zm-4.894 9.92q-.021.47-.027.936c.142.02.243.111.292.162q.057.06.108.133l-.005-.211a67 67 0 0 1-.012-1.159a.6.6 0 0 1-.14.066zm1.841-5.122a.7.7 0 0 1-.082.307a2 2 0 0 1-.106.17l-.013.02c-.074.11-.09.154-.09.192v.07l-.029.064c-.46 1.036-.523 1.943-.53 3.04l.561-.083c.033-.005.066-.02.155-.058l.01-.004a.9.9 0 0 1 .367-.091c.067 0 .136.015.193.033q.052.015.11.043q.086.005.157.012h.004c.075.006.134.011.191.011c.392 0 .88-.014 1.298-.066l-.06-.065a4 4 0 0 1-.21-.247a1 1 0 0 1-.09-.136a.5.5 0 0 1-.064-.23v-.062a2 2 0 0 0-.063-.113a6 6 0 0 0-.298-.431a14 14 0 0 0-.602-.742l-.081-.092V9.36l-.023-.04c-.026-.044-.1-.166-.1-.321c0-.18.12-.29.17-.33a.45.45 0 0 1 .27-.095c.183 0 .295.123.331.164c.021.024.04.049.05.063l.004.004l.013.018l.211.222l-.111.121a4 4 0 0 0 .273.377h.072l.077.047c.346.216.555.52.717.805c.06.105.11.201.158.292l.1.187l.014-.02c.124-.178.266-.421.42-.688l.007-.011a12 12 0 0 1 .46-.753c.076-.113.158-.221.24-.31a.85.85 0 0 1 .308-.224l.053-.02h.063l.001-.004a.7.7 0 0 1 .178-.301a1.3 1.3 0 0 1 .51-.322c.085-.03.2-.056.316-.041l.47.06l-.232.422c-.122.22-.292.396-.427.536l-.043.044c-.152.159-.257.28-.315.427l-.004.008l-.003.008c-.21.45-.444.742-.704 1.066l-.06.074a.5.5 0 0 1-.07.14a1 1 0 0 1-.074.084l-.032.055a1.4 1.4 0 0 1-.203.254l-.092.093l-.046.047c.202-.013.41-.037.63-.063h.008c.317-.038.654-.077.987-.077h.092c.088-.002.198-.004.297 0c.072.004.156.011.241.028l.762-.174l-.01-.143l-.011-.166a32 32 0 0 1-.083-1.53a36 36 0 0 0-.164-2.338a3.6 3.6 0 0 1-.196-.76c-.02-.13-.037-.245-.052-.356a10 10 0 0 0-.065-.425c-.09-.495-.231-.864-.591-1.1l-.068-.044l-.039-.072c-.058-.107-.143-.153-.34-.169a3 3 0 0 0-.246-.006h-.1q-.099 0-.212-.008a.4.4 0 0 1-.347.065l-.049.037h-.08a.5.5 0 0 1-.149.025a.65.65 0 0 1-.33-.096c-.233.018-.461.11-.7.246a7 7 0 0 0-.498.327c-.099.07-.2.14-.312.214c-.055.041-.098.11-.19.255l-.005.007a1.2 1.2 0 0 1-.332.375c-.16.287-.367.537-.55.758l-.095.115c-.233.284-.414.533-.502.826l-.03.098l-.08.063c-.033.027-.062.073-.11.2l-.015.038a1.7 1.7 0 0 1-.14.307m6.71 3.518l-.269.133l.285.147zm.02.351l-.583.237c-.278.112-.575.142-.804.166l-.034.003l-.016.002h-.126a3 3 0 0 1-.212.068l-.023.018a.9.9 0 0 1-.354.14a3 3 0 0 1-.364.04a6 6 0 0 1-.219.008c.505.559.955 1.277 1.308 1.865l.047.079v.091l.002.02l.004.021l.069.067v.064h.145v.305q.028.021.056.048c.02.018.05.05.077.091a.4.4 0 0 1 .061.206l-.001.04a.4.4 0 0 1-.04.148l.114.173l.02-.007c.027-.01.06-.034.147-.172l.019-.03c.058-.095.151-.246.296-.358a19 19 0 0 1 .246-.476c.133-.495.192-1.047.192-1.937q0-.46-.027-.92m-1.502 4.983l.135-.287l.006-.012c.11-.23.212-.45.307-.634l.06-.116l.072-.025l-.124-.12a.34.34 0 0 1-.262.125h-.019l-.018-.003a.66.66 0 0 1-.421-.206a1.2 1.2 0 0 1-.152-.224a1.3 1.3 0 0 1-.27-.347c-.071-.112-.108-.15-.151-.17l-.139-.065l-.037-.152l-.003-.009l-.019-.019l-.005-.005c-.02-.019-.06-.056-.096-.103a.7.7 0 0 1-.106-.192l-.218-.497l-.015-.024l-.057-.098l-.009-.015l-.046-.079a.3.3 0 0 0-.073-.085l-.234-.16l.062-.126l-.052-.013l-.013-.046a.5.5 0 0 1-.357-.276l-.004-.009v-.002l-.009-.005c-.2.269-.502.613-.808.962l-.308.353c-.24.28-.47.552-.65.794c-.188.251-.3.437-.336.549l-.061.187l-.19.03a.5.5 0 0 0-.112.046h-.002a.8.8 0 0 1-.324.082h-.002c-.014 0-.074 0-.137-.014a.4.4 0 0 1-.153-.068a.36.36 0 0 1-.148-.293c0-.12.058-.203.08-.235a1 1 0 0 1 .064-.071l.002-.003l.006-.005l.019-.032c.078-.127.28-.37.509-.637l.428-.497q.194-.223.388-.45c.286-.332.56-.656.761-.915q.078-.1.137-.18l-.034-.004c-.088 0-.173.01-.278.022l-.007.001c-.1.012-.218.027-.346.027c-.238 0-.484.022-.751.047h-.001a9 9 0 0 1-.829.05a.38.38 0 0 1-.273-.11a.4.4 0 0 1-.102-.184v-.002l-.002-.002l-.352-.36v.775c0 .21 0 .816.013 1.412c.006.299.015.591.028.83q.024.383.045.451l.002.007c.214.828.57 1.844.968 2.613c.215.394.735.95 1.117 1.229l.02.005l.056.008l.01.001l.075.01c.061.01.16.03.256.094q.066.045.116.105c.158.043.298.117.401.172l.03.016c.168.09.26.128.34.128a.6.6 0 0 0 .18-.046c.091-.035.194-.086.296-.148c.22-.133.369-.276.412-.357l.05-.097l.1-.045q.274-.124.592-.539c.171-.223.337-.49.496-.778l-.159-.224l.203-.196a2 2 0 0 0 .154-.175l.026-.032zm-4.52 3.003l-.027-.024c-.112-.1-.148-.13-.19-.142l-.017-.006q.107.095.234.172m-.511-.491a6 6 0 0 0-.192-.256l-.005-.007a4 4 0 0 1-.35-.506l-.005-.008l-.004-.008l-.125-.254c-.232-.47-.49-.993-.69-1.514c.065.241.13.467.188.66a7 7 0 0 0 .13.384a1 1 0 0 0 .054.123l.027.031l.02.052c.092.228.24.44.418.662q.112.138.232.277l.047.054q.129.15.255.31m-1.5-10.051l.007-.007c.008-.008.022-.03.044-.199l.003-.022c.013-.106.036-.296.148-.46l.019-.091l.012-.06a1 1 0 0 0 .022-.182v-.244a9 9 0 0 0-.254 1.265m.278-1.346h.135l.057-.108l.025-.047l.05-.088c.07-.138.144-.289.22-.443c.167-.344.347-.711.532-1.023l.003-.004c.241-.389.575-.846.95-1.261q.15-.166.31-.323a4.4 4.4 0 0 0-1.36 1.32a7.1 7.1 0 0 0-.922 1.977m-.654 6.534v.003Zm3.914-3.543h-.062z" clip-rule="evenodd"/></svg>