<svg fill="none" version="1.1" viewBox="0 0 32 32" xmlns="http://www.w3.org/2000/svg">
 <g stroke-width=".94388">
  <path d="m22.379 1.0026c-0.03455-8.755e-4 -0.06919-0.00175-0.10383-0.00264h-6.9325c-4.5381 0.24482-6.4457 2.8813-6.9575 4.2854-1.9887 5.961-3.2262 13.682-4.1194 19.255-0.017424 0.10874-0.034716 0.21662-0.051876 0.32366l-0.29022 2.649c-0.017216 0.41823 0.021859 0.87111 0.13455 1.3109 0.55741 1.6161 2.2381 2.9776 5.9408 1.6212l3.964e-4 0.0023c3.4977-1.5254 7.6293-3.4209 11.902-5.5474 2.4325-1.4067 5.9957-4.6405 6.1784-8.7252-0.03294-3.0297-0.13441-6.206-0.34017-9.2972l-0.0012 0.00234-9.5e-5 -0.021369c-0.016922-0.25394-0.034573-0.54774-0.052884-0.85358-0.035301-0.58736-0.073245-1.2192-0.11402-1.6982-0.060408-0.33208-0.13771-0.6323-0.23314-0.90354-0.59351-1.3242-1.7562-1.9628-2.9827-2.2682-0.55934-0.096989-1.2465-0.11442-1.9767-0.13295z" clip-rule="evenodd" fill="#1ebfbf" fill-rule="evenodd"/>
  <path d="m21.494 6.5474c0.34263 0 0.62041 0.27776 0.62041 0.6204v1.9521c0 0.35299-0.28618 0.63916-0.6392 0.63916-2.118 0-3.8349 1.717-3.8349 3.8349v2.534c0 3.9404-3.1943 7.1347-7.1347 7.1347-0.34264 0-0.6204-0.27778-0.6204-0.62041v-1.9521c0-0.35301 0.28616-0.6391 0.63916-0.6391 2.118 0 3.8349-1.717 3.8349-3.835v-2.534c0-3.9404 3.1943-7.1347 7.1347-7.1347z" fill="#fff"/>
  <path d="m22.115 7.1679c0-0.34264-0.27778-0.6204-0.62041-0.6204-3.9404 0-7.1347 3.1943-7.1347 7.1347v2.388c0 2.118-1.717 3.835-3.8349 3.835-0.353 0-0.63916 0.28618-0.63916 0.6391v1.9521c0 0.34263 0.27777 0.62041 0.6204 0.62041 3.9403 0 7.1347-3.1943 7.1347-7.1347v-2.388c0-2.118 1.7169-3.835 3.8349-3.835 0.35301 0 0.6392-0.28617 0.6392-0.63916z"/>
  <path d="m22.379 1.0026c-0.03455-8.755e-4 -0.06919-0.00175-0.10383-0.00264h-6.9325c-4.5381 0.24482-6.4457 2.8813-6.9575 4.2854-1.9887 5.961-3.2262 13.682-4.1194 19.255-0.017424 0.10874-0.034716 0.21662-0.051876 0.32366l-0.29022 2.649c-0.017216 0.41823 0.021859 0.87111 0.13455 1.3109 0.55741 1.6161 2.2381 2.9776 5.9408 1.6212l3.964e-4 0.0023c3.4977-1.5254 7.6293-3.4209 11.902-5.5474 2.4325-1.4067 5.9957-4.6405 6.1784-8.7252-0.03294-3.0297-0.13441-6.206-0.34017-9.2972l-0.0012 0.00234-9.5e-5 -0.021369c-0.016922-0.25394-0.034573-0.54774-0.052884-0.85358-0.035301-0.58736-0.073245-1.2192-0.11402-1.6982-0.060408-0.33208-0.13771-0.6323-0.23314-0.90354-0.59351-1.3242-1.7562-1.9628-2.9827-2.2682-0.55934-0.096989-1.2465-0.11442-1.9767-0.13295z"/>
 </g>
</svg>
