<svg xmlns="http://www.w3.org/2000/svg" viewBox="0 0 24 24"><g fill="none"><path fill="#0e0f23" d="M6.895 4.494c.511-.729 1.5-1.05 2.778-.946c1.764.148 4.1 1.11 6.35 2.741c2.241 1.64 3.886 3.59 4.585 5.238c.511 1.197.528 2.256.017 2.984l-3.511 4.995c-.512.729-1.51 1.05-2.779.946c-1.764-.156-4.108-1.11-6.35-2.75c-2.25-1.63-3.886-3.582-4.593-5.23c-.511-1.196-.528-2.254-.017-2.982zm13.244 9.652c.41-.571.324-1.422-.076-2.376c-.674-1.57-2.25-3.417-4.398-4.978c-2.14-1.561-4.364-2.49-6.043-2.628c-1.022-.087-1.832.104-2.241.685l-.018.035c-.383.58-.298 1.405.103 2.342c.673 1.578 2.25 3.425 4.389 4.987c2.14 1.56 4.364 2.488 6.043 2.627c1.006.079 1.798-.104 2.215-.65zm-5.471-5.94c1.074.78 1.866 1.708 2.198 2.498c.196.442.248.832.052 1.1c-.188.27-.571.348-1.04.305c-.844-.07-1.952-.538-3.026-1.319s-1.866-1.7-2.199-2.489c-.187-.442-.238-.832-.05-1.101c.187-.27.57-.347 1.047-.313c.836.079 1.953.539 3.018 1.32"/><path fill="#fff" d="M20.063 11.769c.4.954.486 1.803.077 2.376l-.026.043c-.418.547-1.21.73-2.216.651c-1.679-.139-3.903-1.067-6.042-2.628c-2.14-1.56-3.717-3.409-4.39-4.987c-.4-.936-.486-1.76-.102-2.341l.017-.035c.41-.581 1.219-.772 2.242-.685c1.678.138 3.903 1.066 6.042 2.628c2.148 1.56 3.725 3.408 4.398 4.978"/><path fill="url(#SVGXyGVCboy)" d="M20.768 11.945a6 6 0 0 0-.16-.418c-.699-1.647-2.344-3.599-4.585-5.238c-2.25-1.63-4.586-2.593-6.35-2.74c-1.278-.104-2.267.216-2.778.945L3.375 9.49c-.511.728-.494 1.786.017 2.983c.468 1.088 1.34 2.31 2.528 3.483q.158-.015.315-.05c.632-.144 1.238-.715 1.843-1.284c.78-.734 1.554-1.464 2.375-1.267c.575.13 1.032.747 1.502 1.382c.198.268.4.54.612.778c.682.802 1.432 1.152 2.19.987c.867-.173 1.528-.948 2.141-1.822c-1.512-.35-3.306-1.2-5.043-2.467c-2.139-1.562-3.716-3.41-4.389-4.987c-.4-.937-.486-1.761-.103-2.342l.018-.035c.41-.58 1.219-.772 2.241-.685c1.679.139 3.904 1.067 6.043 2.628c2.144 1.559 3.72 3.403 4.394 4.972l.102.007c.241.026.44.087.607.174"/><path fill="url(#SVGXO4vneJv)" d="M16.866 10.703c-.332-.789-1.125-1.717-2.198-2.498c-1.066-.78-2.182-1.24-3.018-1.318c-.477-.034-.86.043-1.048.312c-.187.27-.136.66.05 1.102c.333.789 1.126 1.708 2.2 2.489s2.182 1.249 3.026 1.318c.468.044.852-.035 1.04-.303c.195-.27.144-.66-.052-1.102"/><path fill="#fff" d="M6.46 6.307a.13.13 0 0 1 .134.124q.002.066.008.132a.13.13 0 0 1-.117.14a.13.13 0 0 1-.138-.12l-.008-.14a.13.13 0 0 1 .122-.136m.026.409a.13.13 0 0 1 .146.11c.152 1.025.72 2.03 1.457 2.959a.13.13 0 0 1-.019.183a.13.13 0 0 1-.142.013a.1.1 0 0 1-.038-.033c-.749-.944-1.349-1.993-1.511-3.084a.13.13 0 0 1 .107-.148m3.78 5.48a.127.127 0 0 1 .18-.015l.1.089l.127.108a.131.131 0 0 1-.069.23a.13.13 0 0 1-.094-.03l-.13-.11l-.102-.09a.13.13 0 0 1-.013-.183m.487.417a.13.13 0 0 1 .085-.05a.13.13 0 0 1 .095.027c1.053.836 2.336 1.569 3.61 2.093a.13.13 0 0 1 .072.17a.12.12 0 0 1-.069.07a.13.13 0 0 1-.098.001c-1.294-.532-2.598-1.277-3.672-2.129a.13.13 0 0 1-.023-.182m8.121 2.97a.13.13 0 0 1-.106.15l-.172.023a.1.1 0 0 1-.05-.005a.13.13 0 0 1-.091-.11a.13.13 0 0 1 .113-.143q.08-.01.16-.023a.13.13 0 0 1 .13.061q.012.022.016.047"/><defs><linearGradient id="SVGXyGVCboy" x1="7.787" x2="15.092" y1="4.429" y2="14.126" gradientUnits="userSpaceOnUse"><stop stop-color="#27b0e6"/><stop offset=".52" stop-color="#c26bb3"/><stop offset="1" stop-color="#fa52a0"/></linearGradient><linearGradient id="SVGXO4vneJv" x1="7.787" x2="15.092" y1="4.429" y2="14.125" gradientUnits="userSpaceOnUse"><stop stop-color="#27b0e6"/><stop offset=".52" stop-color="#c26bb3"/><stop offset="1" stop-color="#fa52a0"/></linearGradient></defs></g></svg>