<svg xmlns="http://www.w3.org/2000/svg" viewBox="0 0 24 24"><g fill="none"><path fill="url(#SVGrIxS3rVY)" d="M7.5 9.616v1.034l3.15-2.25L7.5 6.375v.92a4.95 4.95 0 0 0 .45 9.88c1.134 0 2.7-.399 3.6-1.35c1.125-1.299 2.466-4.57 2.466-4.57L9.999 13.86a2.59 2.59 0 0 1-4.165-.403A2.59 2.59 0 0 1 7.5 9.616"/><path fill="url(#SVGzMAGdbvj)" d="M16.5 14.384V13.35l-3.15 2.25l3.15 2.025v-.92a4.95 4.95 0 0 0-.45-9.88c-1.134 0-2.7.399-3.6 1.35c-1.125 1.299-2.466 4.57-2.466 4.57L14 10.14a2.587 2.587 0 1 1 2.499 4.243"/><defs><linearGradient id="SVGrIxS3rVY" x1="5.206" x2="10.404" y1="8.25" y2="19.899" gradientUnits="userSpaceOnUse"><stop stop-color="#0076ef"/><stop offset=".13" stop-color="#007ff6"/><stop offset=".258" stop-color="#0084f6"/><stop offset=".376" stop-color="#008bf9"/><stop offset=".492" stop-color="#009df9"/><stop offset=".612" stop-color="#00aef9"/><stop offset=".731" stop-color="#00b9fa"/><stop offset=".829" stop-color="#00c5fb"/><stop offset="1" stop-color="#00ccfc"/></linearGradient><linearGradient id="SVGzMAGdbvj" x1="19.866" x2="13.566" y1="15.825" y2="6.825" gradientUnits="userSpaceOnUse"><stop stop-color="#0076ef"/><stop offset=".13" stop-color="#007ff6"/><stop offset=".258" stop-color="#0084f6"/><stop offset=".376" stop-color="#008bf9"/><stop offset=".492" stop-color="#009df9"/><stop offset=".612" stop-color="#00aef9"/><stop offset=".731" stop-color="#00b9fa"/><stop offset=".829" stop-color="#00c5fb"/><stop offset="1" stop-color="#00ccfc"/></linearGradient></defs></g></svg>