<svg xmlns="http://www.w3.org/2000/svg" viewBox="0 0 24 24"><g fill="#3ce35f"><path fill-rule="evenodd" d="M16.062 5.23a.558.558 0 1 0 0 1.115a.558.558 0 0 0 0-1.115m-2.788.558a2.788 2.788 0 1 1 5.576 0a2.788 2.788 0 0 1-5.576 0M12 11.443a.557.557 0 1 0 0 1.114a.557.557 0 0 0 0-1.114m-1.972-1.414a2.788 2.788 0 1 1 3.943 3.942a2.788 2.788 0 0 1-3.943-3.942m-2.09 7.626a.557.557 0 1 0 0 1.115a.557.557 0 0 0 0-1.115m-1.972-1.414a2.788 2.788 0 1 1 3.943 3.943a2.788 2.788 0 0 1-3.943-3.943" clip-rule="evenodd"/><path d="M5.789 8.894A3.584 3.584 0 0 1 9.373 5.31h5.017v.956H9.373a2.628 2.628 0 0 0 0 5.257h.956v.955h-.956a3.584 3.584 0 0 1-3.584-3.584m12.424 6.213a3.584 3.584 0 0 1-3.584 3.584H9.612v-.956h5.017a2.628 2.628 0 1 0 0-5.257h-.955v-.955h.955a3.584 3.584 0 0 1 3.584 3.584"/></g></svg>