<svg xmlns="http://www.w3.org/2000/svg" viewBox="0 0 24 24"><g fill="none"><path fill="url(#SVGXlQDUd6A)" d="m4.5 17.2l7.504 3.8v-7.455L4.5 17.195z"/><path fill="url(#SVGujhGPbDM)" d="m12.005 21l7.495-3.785l-7.495-3.67z"/><path fill="url(#SVGqb5FP7eO)" d="m12.005 13.545l7.494 3.67l-3.06-5.82L12 13.55z"/><path fill="url(#SVGy4Iojb0C)" d="m4.5 17.2l7.504-3.655l-4.425-2.16z"/><path fill="url(#SVGh3pAEe3P)" d="m7.58 11.385l4.42 2.16V3l-4.424 8.385z"/><path fill="url(#SVGHrL4meGZ)" d="m12.005 13.545l4.434-2.15L12 3v10.55z"/><defs><linearGradient id="SVGXlQDUd6A" x1="7.667" x2="24" y1="4.847" y2="11.709" gradientUnits="userSpaceOnUse"><stop stop-color="#8277a6"/><stop offset="1" stop-color="#655880"/></linearGradient><linearGradient id="SVGujhGPbDM" x1="3.33" x2="17.394" y1="22.666" y2="5.453" gradientUnits="userSpaceOnUse"><stop stop-color="#665a82"/><stop offset=".24" stop-color="#73638d"/><stop offset="1" stop-color="#b4a6d1"/></linearGradient><linearGradient id="SVGqb5FP7eO" x1="11.65" x2="28.774" y1="15.928" y2="3.625" gradientUnits="userSpaceOnUse"><stop stop-color="#b0a0ce"/><stop offset="1" stop-color="#cec6e2"/></linearGradient><linearGradient id="SVGy4Iojb0C" x1="12.224" x2="15.658" y1="14.298" y2="7.592" gradientUnits="userSpaceOnUse"><stop stop-color="#887cae"/><stop offset="1" stop-color="#7a6e9b"/></linearGradient><linearGradient id="SVGh3pAEe3P" x1="22.958" x2="9.772" y1="12.004" y2="12.004" gradientUnits="userSpaceOnUse"><stop stop-color="#b0a0ce"/><stop offset="1" stop-color="#887cae"/></linearGradient><linearGradient id="SVGHrL4meGZ" x1="13.33" x2="16.06" y1="9.52" y2="12.125" gradientUnits="userSpaceOnUse"><stop stop-color="#b0a0ce"/><stop offset="1" stop-color="#cec6e2"/></linearGradient></defs></g></svg>