<svg xmlns="http://www.w3.org/2000/svg" viewBox="0 0 24 24"><g fill="none"><path fill="#0d4947" fill-opacity=".53" d="M5.245 13.688H3.557c.9 1.125 2.065 1.592 2.532 1.688z"/><path fill="url(#SVGs5is5dMx)" d="M5.864 15.433a5.3 5.3 0 0 0 2.758.506c3.376-.281 5.626-3.095 5.626-3.939c1.013.17 3.292.17 5.053-.973A7.316 7.316 0 1 0 5.87 15.433z"/><path fill="url(#SVGeT1Mvbxj)" d="M19.266 10.508c-1.778.732-4.513.929-5.852.929a11.1 11.1 0 0 1-4.828 4.501h.045c3.377-.281 5.627-3.095 5.627-3.939c1.013.17 3.292.17 5.053-.973a7 7 0 0 0-.045-.518"/><path fill="url(#SVGpMmEYdXD)" d="M11.811 19.876c5.076 0 9.189-3.922 9.189-8.755v-.248c-1.632 1.436-3.472 2.206-5.908 1.97c-.377 1.463-1.97 4.22-5.34 4.22c-2.886 0-5.402-1.924-6.752-3.46c1.12 3.629 4.636 6.273 8.806 6.273z"/><defs><linearGradient id="SVGs5is5dMx" x1="17.203" x2="3.51" y1="5.621" y2="16.918" gradientUnits="userSpaceOnUse"><stop stop-color="#d1fafe"/><stop offset=".12" stop-color="#e9fdfe"/><stop offset=".28" stop-color="#a6eaed"/><stop offset=".43" stop-color="#77d4d7"/><stop offset=".65" stop-color="#5dc8c8"/><stop offset=".84" stop-color="#439cba"/><stop offset="1" stop-color="#3b7db2"/></linearGradient><linearGradient id="SVGeT1Mvbxj" x1="20.527" x2="-.171" y1="4.367" y2="10.354" gradientUnits="userSpaceOnUse"><stop stop-color="#55a6ad"/><stop offset=".16" stop-color="#9cb6ba"/><stop offset=".57" stop-color="#4092a0"/><stop offset="1" stop-color="#35729f"/></linearGradient><linearGradient id="SVGpMmEYdXD" x1="20.522" x2="6.1" y1="11.42" y2="17.952" gradientUnits="userSpaceOnUse"><stop stop-color="#8cf2fc"/><stop offset=".39" stop-color="#a6f3fb"/><stop offset=".86" stop-color="#46a7ba"/><stop offset="1" stop-color="#3b7cb2"/></linearGradient></defs></g></svg>