<svg xmlns="http://www.w3.org/2000/svg" viewBox="0 0 24 24"><g fill="#75fb6e"><path d="M9.649 4.262V4.23l.145-.129h2.236V3H9.794l-.334.328v.457l-.157.129h-.024c.13.11.244.234.37.348"/><path d="M9.339 3.899h-.442l-.3.329v.44l.3.327h.442l.317-.328v-.439zm1.465 6.486h-.442l-.301.33v1.145l.3.327h.443l.316-.327v-1.146zM9.329 12.21h-.442l-.301.328v.44l.3.328h.443l.316-.328v-.44zm5.767 0h-.442l-.3.328v.44l.3.328h.442l.318-.328v-.44z"/><path d="m8.94 4.604l-.316.038l-.094.123l-.439.052l-1.065 1.394l.052.454l-.123.156l.03.284l.344-.042l.095-.115l.44-.053l1.052-1.393l-.051-.448l.111-.134zm-1.968 5.471l.319.039l.093.122l.438.052l1.064 1.395l-.052.454l.126.155l-.032.284l-.344-.041l-.096-.116l-.439-.052l-1.051-1.393l.05-.449l-.111-.133z"/><path d="m7.204 6.587l-.229.23l-.003.155l-.316.318l-.026 2.602l.31.327l-.009.204l.193.204l.248-.248l.008-.153l.316-.318l.016-2.593l-.303-.323l.01-.177zm7.158-2.325V4.23l-.145-.129h-2.24V3h2.236l.334.328v.457l.157.129h.024c-.126.11-.24.234-.366.348"/><path d="M14.671 3.899h.442l.3.329v.44l-.3.327h-.442l-.316-.328v-.439zm-1.463 6.493h.442l.3.33v1.138l-.3.328h-.442l-.317-.328v-1.139z"/><path d="m15.07 4.604l.317.038l.094.123l.438.052l1.065 1.394l-.052.454l.125.156l-.032.284l-.343-.042l-.096-.115l-.44-.053l-1.05-1.393l.05-.448l-.112-.134zm1.968 5.471l-.317.039l-.093.122l-.44.052l-1.063 1.395l.05.454l-.124.155l.032.284l.343-.041l.096-.116l.44-.052l1.052-1.393l-.05-.449l.11-.133z"/><path d="m16.806 6.587l.23.23l.002.155l.317.318l.025 2.602l-.309.327l.008.204l-.192.204l-.247-.248l-.01-.153l-.316-.318l-.016-2.593l.303-.323l-.009-.177zM5.815 11.29h-.442l-.3.33v.438l.3.328h.442l.317-.328v-.439z"/><path d="m5.634 12.084l-.23.231l-.002.154l-.317.32l-.023 2.04l.307.327l-.007.202l.193.165l.247-.207l.008-.153l.316-.318l.018-2.033l-.305-.324l.01-.176zM3 9.954l.055.454l1.56 1.248l.44-.058l.152.128l.273-.036l-.043-.353l-.112-.098l-.054-.454l-1.56-1.236l-.433.056z"/><path d="m9.346 13.468l-.008-.17l-.22-.223l-.225.236l.002.156l-.253.266l-.056.057v2.28l-.136.135H6.246l-.13-.135v-.457l-.313-.322H5.36l-.3.322v.457l.3.31h.442l.142.147v.457l.301.31H8.45l.312-.31v-.457l.14-.146h.444l.3-.311v-2.28zm8.839-2.178h.442l.3.33v.438l-.3.328h-.442l-.317-.328v-.439z"/><path d="m18.365 12.084l.23.231l.003.154l.317.32l.024 2.04l-.308.327l.007.202l-.193.165l-.247-.207l-.008-.153l-.318-.318l-.016-2.033l.305-.324l-.01-.176zM21 9.954l-.056.454l-1.56 1.248l-.439-.058l-.152.128l-.274-.036l.044-.353l.112-.098l.054-.454l1.56-1.236l.433.056z"/><path d="m14.654 13.468l.008-.17l.22-.223l.225.236l-.003.156l.254.266l.056.057v2.28l.136.135h2.204l.13-.135v-.457l.312-.322h.442l.3.322v.457l-.3.31h-.442l-.141.147v.457l-.301.31H15.55l-.312-.31v-.457l-.142-.146h-.442l-.3-.311v-2.28zm-3.261 3.6l-.004-.003l.006-.446l-.31-.326l-.441-.004l-.316.319l-.004.444l-.131.146l-.437-.004l-2.1 2.123l-.004.457l.309.313l.442.006l2.1-2.124l.004-.446l.126-.144l.42.004z"/><path d="m7.652 19.774l-.14.136H5.308l-.129-.135v-.457l-.313-.322h-.442l-.299.322v.457l.3.31h.441l.143.147v.457l.3.311h2.205l.311-.311v-.457l.141-.147h.006zm4.99-2.706l.002-.003l-.004-.446l.309-.326l.442-.004l.314.319l.004.444l.132.146l.436-.004l2.1 2.123l.006.457l-.309.313l-.442.006l-2.1-2.124l-.005-.446l-.126-.144l-.421.004z"/><path d="m16.383 19.774l.138.136h2.204l.13-.135v-.457l.312-.322h.442l.3.322v.457l-.3.31h-.442l-.141.147v.457l-.301.311H16.52l-.312-.311v-.457l-.142-.147h-.004z"/></g></svg>