<svg xmlns="http://www.w3.org/2000/svg" viewBox="0 0 24 24"><path fill="#e81899" d="m20.622 16.86l-3.085-4.107a1.97 1.97 0 0 0-1.36-.773a.38.38 0 0 1-.287-.185a.37.37 0 0 1-.02-.338a1.88 1.88 0 0 0-.003-1.54l-2.086-4.67A1.94 1.94 0 0 0 12 4.104c-.772 0-1.471.449-1.78 1.141L8.132 9.917a1.9 1.9 0 0 0-.004 1.54a.37.37 0 0 1-.019.338a.38.38 0 0 1-.288.185a1.97 1.97 0 0 0-1.36.773L3.379 16.86a1.875 1.875 0 0 0-.118 2.082a1.96 1.96 0 0 0 1.899.94l5.171-.563a1.96 1.96 0 0 0 1.362-.768a.386.386 0 0 1 .616 0c.316.42.8.707 1.362.768l5.171.564a1.96 1.96 0 0 0 1.899-.941a1.875 1.875 0 0 0-.118-2.082m-11.14-6.356l2.09-4.677a.47.47 0 0 1 .859 0l2.09 4.677a.47.47 0 0 1-.039.452a.49.49 0 0 1-.408.216H9.927a.49.49 0 0 1-.408-.216a.47.47 0 0 1-.039-.452zm1.072 7.12a.49.49 0 0 1-.38.258l-5.177.564a.47.47 0 0 1-.459-.226a.45.45 0 0 1 .03-.502l3.087-4.111a.49.49 0 0 1 .419-.194a.49.49 0 0 1 .395.238l.003.005l2.067 3.51l.004.005c.082.14.087.31.013.453zm1.871-1.588a.494.494 0 0 1-.85 0l-1.589-2.695a.47.47 0 0 1 0-.48a.5.5 0 0 1 .426-.242h3.175a.49.49 0 0 1 .425.24a.47.47 0 0 1 0 .481zm7.038 2.184a.47.47 0 0 1-.459.227l-5.176-.564a.49.49 0 0 1-.381-.259a.47.47 0 0 1 .013-.453l.003-.006l2.067-3.509l.003-.005a.492.492 0 0 1 .814-.044l3.088 4.11c.11.148.121.345.029.503z"/></svg>