<svg xmlns="http://www.w3.org/2000/svg" viewBox="0 0 24 24"><g fill="none"><path fill="url(#SVGH8vlHban)" d="M15.333 8.537H18L16.666 3H7.334l1.334 5.537h2.664l1.333 5.54H11l.667 2.768h1.665l.667 2.77H18z"/><path fill="url(#SVG2sTBObHU)" d="M16.666 9.923h-1.002l-.332-1.385H18z"/><path fill="url(#SVGsD21ITlr)" d="M15.333 5.77H9.335l-.17-.692h6.669z"/><path fill="url(#SVG5mxwAdJX)" d="M7.334 9.922L6 4.385L7.334 3l1.333 5.537z"/><path fill="url(#SVGgx71ebSN)" d="M13.332 16.844h-1.665l-1.334 1.386h1.665z"/><path fill="url(#SVGuBZXWZAi)" d="M10.001 9.923H7.334l1.334-1.385h2.664z"/><path fill="url(#SVGh53XPbzZ)" d="M12.666 14.078H11l-.998-4.155l1.33-1.385z"/><path fill="url(#SVGQk0T0c6E)" d="M11.667 16.845L11 14.078l-1.334 1.385l.667 2.767z"/><path fill="url(#SVGB5AVzxem)" d="m13.999 19.615l-.667-2.77l-1.334 1.385l.667 2.77z"/><path fill="url(#SVGdS5YOExB)" d="m16.667 19.615l-3-12.46l-.534.552L16 19.615l-.535.555h.667z"/><path fill="url(#SVGee0sxd1e)" d="M16.331 7.155h-.667l-.332-1.385l.502-.692z"/><path fill="url(#SVGxan2JU7f)" d="m16.667 19.615l-.535.555h-.667l.535-.555h-2L12.664 21h4.002L18 19.615z"/><defs><linearGradient id="SVGH8vlHban" x1="7.333" x2="17.999" y1="11.308" y2="11.308" gradientUnits="userSpaceOnUse"><stop offset=".002" stop-color="#fcc33c"/><stop offset="1" stop-color="#ffee50"/></linearGradient><linearGradient id="SVG2sTBObHU" x1="17.999" x2="15.332" y1="9.231" y2="9.231" gradientUnits="userSpaceOnUse"><stop stop-color="#fb9828"/><stop offset="1" stop-color="#f96c13"/></linearGradient><linearGradient id="SVGsD21ITlr" x1="15.833" x2="9.167" y1="5.423" y2="5.423" gradientUnits="userSpaceOnUse"><stop stop-color="#f84200"/><stop offset="1" stop-color="#f96c13"/></linearGradient><linearGradient id="SVG5mxwAdJX" x1="6.551" x2="8.231" y1="3.203" y2="9.691" gradientUnits="userSpaceOnUse"><stop stop-color="#f96c13"/><stop offset="1" stop-color="#fb9828"/></linearGradient><linearGradient id="SVGgx71ebSN" x1="10.333" x2="13.333" y1="17.538" y2="17.538" gradientUnits="userSpaceOnUse"><stop stop-color="#f84200"/><stop offset="1" stop-color="#f96c13"/></linearGradient><linearGradient id="SVGuBZXWZAi" x1="7.333" x2="11.333" y1="9.231" y2="9.231" gradientUnits="userSpaceOnUse"><stop stop-color="#f84200"/><stop offset="1" stop-color="#f96c13"/></linearGradient><linearGradient id="SVGh53XPbzZ" x1="11.88" x2="10.453" y1="14.281" y2="8.767" gradientUnits="userSpaceOnUse"><stop stop-color="#f96c13"/><stop offset="1" stop-color="#fb9828"/></linearGradient><linearGradient id="SVGQk0T0c6E" x1="11.116" x2="10.15" y1="18.028" y2="14.297" gradientUnits="userSpaceOnUse"><stop stop-color="#fb9828"/><stop offset="1" stop-color="#f96c13"/></linearGradient><linearGradient id="SVGB5AVzxem" x1="13.449" x2="12.483" y1="20.797" y2="17.066" gradientUnits="userSpaceOnUse"><stop stop-color="#f96c13"/><stop offset="1" stop-color="#fb9828"/></linearGradient><linearGradient id="SVGdS5YOExB" x1="16.133" x2="12.819" y1="20.169" y2="7.373" gradientUnits="userSpaceOnUse"><stop stop-color="#f96c13"/><stop offset="1" stop-color="#f84200"/></linearGradient><linearGradient id="SVGee0sxd1e" x1="16.069" x2="15.533" y1="7.446" y2="5.379" gradientUnits="userSpaceOnUse"><stop stop-color="#f84200"/><stop offset="1" stop-color="#f96c13"/></linearGradient><linearGradient id="SVGxan2JU7f" x1="13.226" x2="17.209" y1="20.308" y2="20.308" gradientUnits="userSpaceOnUse"><stop stop-color="#f84200"/><stop offset="1" stop-color="#f96c13"/></linearGradient></defs></g></svg>