<?xml version="1.0" encoding="UTF-8"?>
<svg version="1.1" xmlns="http://www.w3.org/2000/svg" width="244" height="200">
<path d="M0 0 C3.97804102 0.43895625 6.48377195 1.75316797 9.75 4 C31.1863102 17.98518634 54.19593919 26.65876646 79.82470703 28.54541016 C80.98438995 28.63166656 82.14407288 28.71792297 83.33889771 28.80679321 C84.21706146 28.87055145 85.09522522 28.93430969 86 29 C86.09307541 41.01422085 86.16395451 53.02835456 86.20724869 65.04286385 C86.22803783 70.62294463 86.25619557 76.20277699 86.30175781 81.78271484 C86.34552667 87.17737105 86.36920216 92.57178975 86.37950897 97.96660995 C86.386845 100.01489877 86.40116897 102.063176 86.42292023 104.11136246 C86.6993339 131.24237127 77.83025087 150.8436147 58.98974609 170.46166992 C47.23344944 182.43640757 30.04858315 198.96362911 12.1875 200.28125 C9 200 9 200 7 198.375 C5.56999997 194.97874993 5.63803597 193.44075123 7 190 C9.6876977 188.37723912 12.12350374 187.19589766 15 186 C25.48290397 181.40305248 34.09540621 175.07362695 43 168 C43.86882812 167.33097656 44.73765625 166.66195312 45.6328125 165.97265625 C55.14431868 158.18276678 62.06480746 147.4423064 67.5625 136.5625 C67.88484619 135.92505859 68.20719238 135.28761719 68.53930664 134.63085938 C71.97136217 127.48995466 73.29525495 120.60392418 73.31884766 112.74804688 C73.32889328 111.96659302 73.3389389 111.18513916 73.34928894 110.38000488 C73.37989911 107.82625997 73.39709368 105.27261879 73.4140625 102.71875 C73.43279204 100.93655519 73.45236676 99.15436907 73.4727478 97.37219238 C73.52388646 92.70342153 73.56360948 88.03462198 73.60089111 83.36572266 C73.6410458 78.59270232 73.69208563 73.81979945 73.7421875 69.046875 C73.83873026 59.69799941 73.92320376 50.3490572 74 41 C72.83467239 40.86944717 71.66934479 40.73889435 70.46870422 40.60438538 C68.92353636 40.42789425 67.37838654 40.25124508 65.83325195 40.07446289 C64.68403637 39.94635098 64.68403637 39.94635098 63.51160431 39.81565094 C57.89719533 39.16874449 52.57896539 38.16300578 47.1875 36.4375 C46.36693115 36.18210449 45.5463623 35.92670898 44.70092773 35.66357422 C31.19245961 31.28959928 18.2989999 25.44750726 6.62890625 17.3359375 C4.14498092 15.82391897 4.14498092 15.82391897 1.66796875 16 C-2.22341891 17.45855818 -5.6736835 19.52410592 -9.25 21.625 C-20.71181613 28.14746351 -32.39161755 33.14294865 -45.0625 36.8125 C-46.05056641 37.1050769 -46.05056641 37.1050769 -47.05859375 37.40356445 C-52.09046824 38.76937617 -57.1411956 39.44531966 -62.30639648 40.06518555 C-63.04740349 40.15587059 -63.78841049 40.24655563 -64.55187225 40.33998871 C-66.36767927 40.5619283 -68.18380836 40.78123019 -70 41 C-69.96176985 51.07601991 -69.90215888 61.15167323 -69.81609726 71.22740459 C-69.77677836 75.90723147 -69.7445141 80.58687456 -69.72900391 85.2668457 C-69.71373377 89.79288041 -69.6791077 94.31840932 -69.63169098 98.8442173 C-69.61698306 100.56111031 -69.60896515 102.27807556 -69.60811615 103.99503136 C-69.58635729 125.95714626 -62.2012103 144.09437729 -47.0234375 160.08203125 C-45.68239036 161.38812218 -44.34121434 162.69408077 -43 164 C-43 164.66 -43 165.32 -43 166 C-42.45730469 166.23589844 -41.91460937 166.47179687 -41.35546875 166.71484375 C-38.3687791 168.34439747 -35.94622814 170.40763152 -33.3125 172.5625 C-26.9059714 177.66174541 -20.0422884 181.41238929 -12.75 185.08984375 C-4.21161331 189.41495144 -4.21161331 189.41495144 -2.9375 192.9375 C-3 196 -3 196 -4.4375 198.4375 C-8.05330853 200.6422613 -11.04908567 199.93840231 -15 199 C-17.8842288 197.89253032 -20.55051264 196.49722087 -23.25 195 C-23.99523926 194.59120605 -24.74047852 194.18241211 -25.50830078 193.76123047 C-36.35776457 187.6828178 -44.99258984 180.26091915 -53.8125 171.5625 C-55.01398682 170.38228271 -55.01398682 170.38228271 -56.23974609 169.17822266 C-63.51443951 161.84286888 -69.2598704 153.81277444 -74.1875 144.75 C-75.13689453 143.04070312 -75.13689453 143.04070312 -76.10546875 141.296875 C-82.3459761 127.99530563 -82.54340404 115.45660871 -82.390625 101.0703125 C-82.38314858 98.98282416 -82.37746229 96.89532873 -82.37347412 94.80783081 C-82.35832802 89.35963978 -82.31914329 83.91188709 -82.2746582 78.46386719 C-82.23346548 72.88612799 -82.21541223 67.30831677 -82.1953125 61.73046875 C-82.1526367 50.82012174 -82.08452166 39.91009757 -82 29 C-81.26573288 28.92221313 -80.53146576 28.84442627 -79.77494812 28.76428223 C-76.39473053 28.40207393 -73.01576409 28.02922967 -69.63671875 27.65625 C-67.90464172 27.47304199 -67.90464172 27.47304199 -66.13757324 27.28613281 C-44.23868757 24.84131816 -15.99480405 15.99480405 0 0 Z " fill="#FEFEFE" transform="translate(113,0)"/>
<path d="M0 0 C7 6 7 6 9 10 C-7.5 26.5 -24 43 -41 60 C-45.37716368 56.24814542 -49.46312247 52.65839751 -53.49609375 48.6015625 C-53.97450211 48.1217392 -54.45291046 47.64191589 -54.94581604 47.14755249 C-56.44544879 45.64240542 -57.94153128 44.13378786 -59.4375 42.625 C-60.46525983 41.59221405 -61.49325285 40.55966009 -62.52148438 39.52734375 C-65.01701598 37.02089713 -67.50938082 34.5113292 -70 32 C-68.27845212 28.23511958 -66.00765886 25.84936103 -63 23 C-54.55672523 27.22163739 -48.6749948 35.3250052 -42 42 C-28.14 28.14 -14.28 14.28 0 0 Z " fill="#FEFEFE" transform="translate(147,68)"/>
</svg>
