<svg xmlns="http://www.w3.org/2000/svg" viewBox="0 0 24 24"><g fill="none"><path fill="url(#SVGMHYekeZK)" d="M6.76 11.453a.4.4 0 0 0 .338.612h4.56a.191.191 0 0 1 .162.293l-4.474 7.164a.16.16 0 0 1-.225.05a9.01 9.01 0 0 1 4.592-16.571a.159.159 0 0 1 .137.242zm10.282-6.912a.16.16 0 0 0-.225.048l-4.406 7.059a.192.192 0 0 0 .162.292h4.56a.4.4 0 0 1 .337.612l-5.155 8.255a.125.125 0 0 0 .113.192A9.008 9.008 0 0 0 17.04 4.541z"/><defs><linearGradient id="SVGMHYekeZK" x1="10.772" x2="13.936" y1="6.715" y2="20.311" gradientUnits="userSpaceOnUse"><stop offset=".18" stop-color="#00ffd5"/><stop offset=".23" stop-color="#00f8d5"/><stop offset=".31" stop-color="#00e4d5"/><stop offset=".4" stop-color="#00c3d5"/><stop offset=".51" stop-color="#0096d5"/><stop offset=".62" stop-color="#005cd5"/><stop offset=".74" stop-color="#0016d5"/><stop offset=".78" stop-color="#0000d5"/></linearGradient></defs></g></svg>