<svg xmlns="http://www.w3.org/2000/svg" viewBox="0 0 24 24"><g fill="#f7c91e"><path d="M8.618 8.378c-.71 0-.884-.632-.884-.949c.197-.736.928-2.52 2.368-2.52c2.072 0 4.26.23 5.443.546c-2.661.632-6.038 2.923-6.927 2.923"/><path fill-rule="evenodd" d="M7.735 8.062c0 .316.403.665.992.665c.366 0 1.418-.545 2.618-1.162c1.697-.872 3.682-1.898 4.375-1.712c.196.316.655 1.636.89 3.152l.18.077C18.163 9.638 21 10.794 21 12c0 1.576-4.39 7.09-10.898 7.09C3.589 19.09 3 14.679 3 13.735c0-.949 1.184-3.152 4.44-4.418c.196-.098.295-.753.295-1.254m-.917 3.392c.197.524 1.07 1.637 2.727 1.637c2.073 0 6.502-2.64 7.091-3.273v2.455c0 .709-4.472 3.272-6.545 3.272s-3.546-1.494-3.546-2.127c0-.502.175-1.544.273-1.964" clip-rule="evenodd"/></g></svg>