<svg xmlns="http://www.w3.org/2000/svg" viewBox="0 0 24 24"><g fill="none"><path fill="url(#SVGpbeK1dxm)" d="m3.53 17.225l2.647-4.923l5.876 2.583l5.77-2.583l2.647 4.923L12.053 21z"/><path fill="url(#SVGJFw7XbFq)" fill-rule="evenodd" d="M11.99 15.234A960 960 0 0 0 6.176 12.3l5.812-2.89l5.834 2.89zm0-.916c-1.308-.662-3.94-1.996-3.987-2.012l3.986-1.98l4.008 1.985l-4.008 2.012zm-1.843-1.525l1.853.794l1.853-.8L12 12l-1.853.789z" clip-rule="evenodd"/><path fill="url(#SVGXM832bEl)" d="M11.999 11.47L7.764 9.607L11.999 3z"/><path fill="url(#SVGLigZycBG)" d="m12 11.47l4.235-1.863L12 3z"/><defs><linearGradient id="SVGpbeK1dxm" x1="11.831" x2="11.831" y1="20.285" y2="13.715" gradientUnits="userSpaceOnUse"><stop offset=".59" stop-color="#a9cfd8"/><stop offset="1" stop-color="#cfe6ee"/></linearGradient><linearGradient id="SVGJFw7XbFq" x1="12" x2="12" y1="9.41" y2="15.233" gradientUnits="userSpaceOnUse"><stop offset=".57" stop-color="#d7fdff"/><stop offset="1" stop-color="#dafbff"/></linearGradient><linearGradient id="SVGXM832bEl" x1="8.595" x2="11.623" y1="9.993" y2="4.419" gradientUnits="userSpaceOnUse"><stop offset=".46" stop-color="#70b8c7"/><stop offset="1" stop-color="#d8f3fc"/></linearGradient><linearGradient id="SVGLigZycBG" x1="15.403" x2="12.375" y1="9.993" y2="4.419" gradientUnits="userSpaceOnUse"><stop offset=".26" stop-color="#96cedf"/><stop offset="1" stop-color="#d8f3fc"/></linearGradient></defs></g></svg>