<svg xmlns="http://www.w3.org/2000/svg" viewBox="0 0 24 24"><g fill="#ff8e3a"><path d="M11.23 7.181a2.4 2.4 0 0 1-.11.5c-.03.076-.05.076-.076-.01l-.09-.36a.5.5 0 0 1 0-.25c.075-.315.215-.535.285-.865c.005-.04.035-.05.055-.025c.185.275.2.685.14 1.065q-.023.158-.18.51c-.005.02-.03-.02-.025-.045c.065-.18.08-.35.05-.525c-.02-.125-.04-.125-.05.005m2.2-.15l.1.27l.001.024a.05.05 0 0 1-.028.037l-.023.004a.46.46 0 0 1-.31-.18a.6.6 0 0 1-.075-.225a1 1 0 0 0-.125-.32a.05.05 0 0 1 .025-.065a.22.22 0 0 1 .17-.005q.449.15.47.6c0 .035-.005.04-.03.01l-.135-.175c-.015-.02-.05 0-.04.025m-1.09.32c-.086.125-.095.27-.19.395c-.01.01-.016.005-.02 0c-.326-.49.05-.615.15-1.02c.01-.035.05-.05.07-.03q.119.089.155.26a.84.84 0 0 1-.165.75q-.022.022-.02-.015l.034-.33c0-.025 0-.025-.014-.005zm-2.166.47c-.05.15-.134.287-.245.4c-.005.006-.02 0-.025-.014a.8.8 0 0 1 .015-.48c.075-.206.275-.286.375-.49c.01-.02.04-.02.05 0q.089.2.05.444c-.05.3-.15.39-.285.576c-.035.04-.04.035-.025-.025l.12-.39c.005-.02-.02-.05-.03-.02m3.906.25c-.14.05-.295.09-.46.11c-.02 0-.03 0-.025-.014q.031-.194.265-.29c.2-.09.47-.03.7-.12c.035-.016.085 0 .09.025c.05.17-.165.325-.38.405c-.14.055-.33.065-.5.1c-.015 0-.065-.02-.05-.025c.22-.065.35-.125.38-.18c.01-.015 0-.02-.02-.01m-1.165.116c.095.165-.03.275-.01.43c.005.045-.01.05-.05.03c-.17-.11-.35-.34-.275-.55q.099-.264.07-.566c0-.02.02-.035.035-.025c.375.165.615.646.39 1.04q-.023.031-.03-.004c-.03-.115.005-.315-.11-.375c-.03-.02-.04-.01-.02.02m-2.171.24q-.031-.106-.04.005c-.01.125-.09.215-.125.34a.035.035 0 0 1-.06.02c-.11-.115-.14-.355-.09-.5q.014-.051.125-.2c.07-.1.12-.205.15-.325q.008-.024.03-.01c.2.165.22.355.195.61c-.015.155-.1.26-.185.4a.1.1 0 0 1-.04.045c-.02.005-.02 0-.015-.015a.52.52 0 0 0 .05-.37zm-1.555-.375l.13.18c.01.015 0 .045-.015.05c-.125.01-.27 0-.325-.165a1 1 0 0 0-.16-.3c-.015-.01-.005-.04.01-.046c.235-.07.405.036.51.306c.01.02-.005.035-.02.025a.4.4 0 0 0-.115-.085q-.06-.023-.015.03zm3.15.585l-.02.145c0 .025-.06.04-.1.025c-.425-.15-.095-.305-.14-.5c-.005-.015.035-.03.07-.02q.465.135.36.435c0 .015-.05.015-.07 0l-.01-.01c0-.02-.085-.115-.09-.075m2.056.005a.5.5 0 0 0-.155.115a.07.07 0 0 1-.095 0c-.05-.06.01-.185.065-.24c.08-.085.245-.15.35-.225q.021-.015.035 0c.175.17-.06.415-.235.515a.06.06 0 0 1-.04.005c-.015 0-.02-.01-.01-.02l.11-.13c.01-.015-.01-.03-.025-.02m-5.931-.095l.25.15c.05.025.035.085-.025.1a.67.67 0 0 1-.49-.065c-.14-.085-.246-.25-.436-.36c-.025-.02-.015-.05.02-.06c.385-.085.84.02 1.016.28q.038.051-.03.02l-.25-.11c-.035-.02-.095.025-.055.045m5.106.48c.015-.07 0-.075-.035-.01c-.075.125-.18.2-.285.32q-.051.06-.08-.015c-.185-.58.37-.615.58-.935c.03-.05.1-.035.115.02c.09.385 0 .72-.34.945q-.195.12-.06-.06a.6.6 0 0 0 .1-.265zm1.38.145c0-.01-.015-.025-.025-.015l-.21.15c-.015.015-.04.01-.045-.005a.25.25 0 0 1 .075-.28a.5.5 0 0 1 .15-.075a1 1 0 0 0 .21-.125c.01-.01.03-.01.035 0c.15.21-.085.44-.32.525c0 0-.01-.005-.005-.01l.13-.165zm-5.271-.14q-.021.024.01.01c.27-.075.25-.025.47.01a.3.3 0 0 0 .105.01q.226-.021.085.1c-.4.35-.97.1-1.49.09c-.03 0-.05-.025-.05-.045c.185-.425.94-.445 1.46-.34c.035.005.05.065.005.06c-.2-.02-.47-.015-.6.1zm2.16.065l.01.01q.076.045.13.135c.02.03.01.085-.02.09c-.24.07-.32-.155-.48-.365c-.015-.015-.015-.035 0-.05c.1-.205.4-.055.5.07q.051.076-.025.07a.2.2 0 0 1-.095-.045c-.02-.01-.025.06-.02.085m-3.766.835h-.005v.005a1 1 0 0 1 .015.46l-.01.01h-.03c-.14-.09-.315-.245-.295-.455c.025-.2.07-.365.025-.565v-.015q.001-.015.01-.015l.01-.01h.015c.3.09.475.355.47.71l-.005.25c-.005.01-.01.01-.015.01h-.015l-.005.002l-.005-.002v-.01a.7.7 0 0 0-.06-.24c-.02-.05-.065-.075-.09-.125c0-.005 0-.01-.01-.01m2.966-.58c-.05.03-.045.05.005.06c.06.015.115.045.16.08a.07.07 0 0 1 .018.081a.1.1 0 0 1-.018.024a.1.1 0 0 1-.03.015c-.24.04-.31-.075-.46-.22a.14.14 0 0 0-.045-.03l-.075-.03c-.025-.01-.025-.025-.01-.04c.145-.155.41-.1.575 0c.01 0 .015.01.02.015l.01.03v.02q0 .036-.03.02c-.05-.03-.09-.04-.12-.02zm1.756.725a.14.14 0 0 0-.045.055a.05.05 0 0 1-.03.03a.45.45 0 0 0-.175.105c-.02.02-.055.005-.06-.02c-.055-.53.315-.39.5-.735c.01-.015.015-.015.025 0c.12.22.1.415-.055.6c-.07.08-.22.145-.25.27c-.025.15-.03.31-.066.46a2.3 2.3 0 0 0-.054.5c0 .345-.426.886-.646 1.166a.52.52 0 0 0-.095.4c.015.095.065.14.16.13c.476-.03.69-.34.89-.7c.12-.215.65-.41.9-.465c.026-.005.04-.04.02-.06l-.054-.06c-.1-.11.02-.386.005-.52c0-.02.02-.03.04-.026q.352.158.315.525c0 .03-.035.036-.065.036q-.059 0-.05-.05a.13.13 0 0 0-.02-.076q-.021-.038-.02 0l.02.15q0 .016.03.026c.36.05.68-.025.95-.24q.128-.105.075.045c-.07.195-.355.355-.55.415l-.41.064c-.45.07-.8.29-1.05.67c-.115.18-.22.36-.395.496c-.2.16-.466.32-.71.4a2.77 2.77 0 0 0 .604 2.336H16.5a3.5 3.5 0 0 1-1.055 1H7.313c-.31-.225-.595-.7-.815-1h3.871a2.98 2.98 0 0 0 .43-2.606c-.065-.24-.15-.42-.37-.565a3 3 0 0 0-.76-.375a.4.4 0 0 1-.185-.115a2.5 2.5 0 0 0-.835-.6v-.03h.01c.463.122.907.313 1.315.565c.245.14.43.265.635.325q.07.021.14.05c.18-.125.2-.41.185-.58c-.005-.116-.125-.23-.175-.346a.5.5 0 0 1-.035-.18c-.02-.31-.225-.835-.615-.885c-.24-.03-.45-.125-.665-.045c-.02.01-.045 0-.05-.02c-.03-.075 0-.125.09-.13c.205 0 .425-.02.61.04a1.42 1.42 0 0 1 .925.925c.04.15-.005.38.065.53c.08.16.235.29.47.38h.045c.235-.064.25-.25.365-.415c.15-.204.265-.425.345-.65c.026-.07.04-.17.05-.3c.026-.25.16-.685.415-.82a.09.09 0 0 0 .05-.065c0-.03-.004-.035-.03-.015"/><path d="M14.18 10.007c-.075.15-.245.24-.35.375c-.025.035-.1.035-.12 0c-.385-.49.29-.71.685-1.025c.02-.02.07-.015.085.01c.095.13.19.26.175.41c-.025.245-.18.435-.465.56q-.151.074-.085-.04l.16-.25c.015-.03-.07-.07-.085-.04m-4.967-.395q.037.096.106.11c.04.01.015.1-.01.115q-.163.099-.276-.05c-.055-.075-.1-.26-.2-.25c-.02 0-.03-.045-.015-.065c.12-.23.376-.105.495.04c.016.02.026.05.026.075v.035q.007.044-.015.02c-.025-.02-.07-.085-.1-.08c-.01.005-.02.03-.01.05m.746.355c-.01.09.065.315-.1.23q-.129-.06-.145-.225c-.01-.135.06-.34.06-.51c0-.015.02-.025.035-.02c.285.125.35.4.31.68c0 .015-.04.02-.04 0a.24.24 0 0 0-.085-.17q-.029-.023-.035.015m2.05-.345c-.015.01-.02.03-.01.04q.083.084.195.115c.03.015.03.07 0 .08c-.39.085-.355-.09-.61-.25c-.04-.025-.03-.09.015-.1c.15-.03.445-.055.54.095q.036.054-.025.04c-.03-.005-.08-.03-.105-.02m3.176.39c0-.03-.06-.01-.065.015l-.025.15c-.005.05-.06.065-.1.04c-.05-.04-.19-.17-.14-.25l.23-.4a.04.04 0 0 1 .06-.02c.205.14.225.355.1.56q-.053.105-.06-.015zm.865.16c.06.105.09.22.1.34c0 .02-.01.03-.035.02c-.17-.065-.36-.065-.45-.25c-.075-.15 0-.355-.07-.54a.073.073 0 0 1 .075-.1c.355.03.69.265.615.65q-.008.039-.03.01l-.15-.17c-.025-.025-.065.01-.05.04zm-9.082.02a.4.4 0 0 1-.08.195c-.02.025-.075.03-.1.01c-.25-.2.025-.315.125-.5c.015-.02.055-.025.09-.015c.205.085.265.21.17.37a.15.15 0 0 1-.075.06c-.025.01-.035.005-.04-.01l-.005-.1c0-.025-.08-.035-.085-.01m4.03.175l.066.225q.024.09-.065.06c-.235-.08-.46-.08-.44-.41q.009-.209-.05-.38a.08.08 0 0 1 .018-.075a.08.08 0 0 1 .072-.025c.35.07.705.28.6.695q-.014.037-.035 0a1 1 0 0 0-.085-.13c-.09-.12-.115-.11-.075.04zm-1.88.025l.136.46a.1.1 0 0 1-.01.065q-.045.046-.09-.005a3 3 0 0 0-.186-.2a.2.2 0 0 1-.055-.12l-.1-.615v-.04a.1.1 0 0 1 .01-.035a.1.1 0 0 1 .025-.02h.025c.26.05.41.27.46.65c.026.215 0 .22-.06.025l-.05-.12c-.02-.05-.05-.075-.08-.085q-.039-.006-.025.04m-1.22.62c-.04 0-.065.02-.05.04c.09.125.13.25.125.39c0 .025-.025.035-.065.025c-.335-.08-.67-.25-.69-.485c-.015-.195.17-.26.01-.49c-.025-.035.015-.075.075-.08q.195-.016.39.065q.691.285.565.81c-.005.035-.025.035-.05 0a1.4 1.4 0 0 0-.235-.24a.14.14 0 0 0-.08-.035zm5.452.11l-.1.315a.05.05 0 0 1-.04.03a.05.05 0 0 1-.046-.02a.7.7 0 0 1-.1-.445c.03-.21.2-.335.25-.56c.006-.03.046-.045.07-.025c.276.245.266.695.05.95c-.04.06-.054.05-.04-.02c.01-.06.036-.185-.01-.23c-.014-.02-.03-.015-.034.005m3.17-.07a1 1 0 0 1-.25.32c-.005 0-.015 0-.015-.015q-.03-.405.135-.615a.6.6 0 0 1 .155-.115a.6.6 0 0 0 .19-.21c.01-.015.025-.01.03.015c.08.495-.12.92-.375 1.035q-.031.014-.01-.025c.065-.11.1-.24.155-.36c.01-.015-.005-.045-.015-.03m-2.1-.285c-.08.05-.15.1-.215.16c-.015.015-.05.01-.055-.01c-.08-.185.04-.305.25-.395a.4.4 0 0 0 .15-.1c.02-.025.075-.015.085.015c.05.16.015.29-.095.39a.5.5 0 0 1-.16.105c-.05.015-.055.005-.035-.025l.09-.13c.02-.025.01-.03-.015-.01m1.03.355c-.005.035-.01.075-.025.1l-.1.185q-.037.074-.09.005c-.085-.125-.05-.475.05-.58c.105-.11.225-.22.27-.39c.01-.04.05-.045.065-.015c.18.3.095.715-.09.96c-.03.04-.045.075-.09.085c-.015 0 .08-.29.04-.36c-.015-.02-.025-.02-.03.01m-3.356-.18l-.055.2a.06.06 0 0 1-.04.035a.06.06 0 0 1-.055-.01c-.19-.18.01-.38.085-.555a.1.1 0 0 1 .085-.06a.1.1 0 0 1 .09.05c.06.095.135.44-.01.495q-.024.009-.025-.02l-.01-.115q0-.031-.03-.04l-.01-.002l-.01.002l-.01.008zm-5.246.235l.015.005a1 1 0 0 1 .35.175v.02c-.19.1-.47.15-.65.005c-.125-.1-.22-.18-.385-.23c-.025-.005-.03-.035-.015-.05c.3-.24.805-.21 1.045.08q.014.022-.01.015c-.025-.005-.405-.1-.35-.02m4.511.05a.4.4 0 0 1-.07.18a.05.05 0 0 1-.04.02a.05.05 0 0 1-.04-.02c-.12-.18-.065-.3.07-.465c.025-.035.035-.085.05-.125c0-.02.02-.03.04-.02c.125.05.195.135.19.275c0 .09 0 .225-.085.285c-.04.025-.04-.115-.045-.13c-.005-.04-.06-.04-.07 0"/><path d="m9.098 11.242l.135-.3a.055.055 0 0 1 .1 0q.098.15.135.3c.035.165-.23.32-.245.48c0 .04-.025.16-.1.1c-.26-.25-.3-.525-.11-.83q.119-.195.08.03q-.02.107-.02.215c0 .035.01.04.025 0zm5.881.105c.025-.035-.09-.015-.11.01c-.01.015-.14.15-.17.1c-.13-.21.04-.3.27-.425a.1.1 0 0 0 .035-.03l.03-.05c.005-.015.03-.015.04-.005c.19.15.12.34-.055.48c-.075.055-.1.05-.07-.025zm-5.001.186c0-.03-.05-.026-.05 0q-.029.11-.02.23q.008.05-.045.054c-.02 0-.05-.01-.07-.04a.65.65 0 0 1-.145-.27a.1.1 0 0 1 0-.05a.8.8 0 0 0 .075-.35c0-.06.08-.1.13-.05q.322.299.195.65q-.054.151-.07-.005a1 1 0 0 1 0-.17m6.421.25c-.21.05-.425.065-.65.034c-.025 0-.04-.024-.025-.04c.13-.15.44-.34.73-.3c.27.035.546.05.82.04c.02 0 .036.01.04.02c0 .09-.05.165-.134.23c-.35.25-.766.266-1.25.21c-.026 0-.026-.02-.006-.02c.13-.03.43-.07.5-.155c.015-.02.01-.024-.025-.02m-4.74.275a.3.3 0 0 0-.11.12a.058.058 0 0 1-.106-.015c-.1-.31.15-.42.315-.62q.016-.024.04 0c.195.17.075.485-.09.63q-.081.068-.05-.036l.02-.065c0-.02 0-.024-.02-.014m1.26-.046l-.013-.005h-.015l-.013.005l-.01.01l-.06.16c-.014.036-.05.05-.085.036c-.1-.046-.1-.18-.085-.27c.02-.116.13-.166.155-.3c.01-.036.05-.05.08-.04c.18.08.17.3.136.45q-.023.113-.06 0a.1.1 0 0 0-.03-.046m-4.787.105l.165-.43l.009-.01l.012-.005h.013q.006.001.011.005c.22.216.28.52.085.776a1.1 1.1 0 0 0-.195.42c0 .01-.015.02-.025.01c-.435-.23-.435-.835-.135-1.16q.044-.045.035.014c-.025.126-.02.25 0 .38c.01.026.015.026.025 0m-.92-.22c.15-.12.32-.204.5-.255c.025-.005.035 0 .035.026q-.001.284-.16.485c-.225.285-.575.2-.855.38c-.01.005-.025 0-.03-.015a.87.87 0 0 1 .785-1.05c.05 0 .06.02.02.055c-.12.11-.25.19-.31.364c-.01.02 0 .025.015.01m7.802.44c.015-.014-.035-.03-.05-.014l-.19.175a.1.1 0 0 1-.025.015c-.03.01-.065-.005-.07-.03c-.015-.05-.05-.2.02-.25l.35-.22a.06.06 0 0 1 .07 0l.015.01c.1.19.055.35-.15.47c-.09.065-.115.05-.06-.025c.025-.045.055-.085.09-.13m-4.496.016l.135.315c0 .015-.01.035-.025.035a.5.5 0 0 1-.36-.175a.4.4 0 0 1-.07-.195a.9.9 0 0 0-.125-.366a.057.057 0 0 1 .06-.084c.23.05.4.15.5.3c.07.105.085.265.13.395c.01.015-.04.03-.045.01a.4.4 0 0 0-.18-.25q-.044-.024-.02.02zm-1.706.15c.01.015.04.01.04-.01l.05-.235c.006-.045.026-.05.05-.015c.3.32 0 .435-.064.75c-.005.025 0 .09.005.195c.025.29-.29.4-.41.635a.05.05 0 0 1-.075.005c-.22-.275-.07-.675.16-.885c.054-.05.05.085.024.115a.25.25 0 0 0-.065.185c0 .05.055.035.065 0c.03-.12.1-.165.15-.26a.05.05 0 0 0 0-.05a.7.7 0 0 1-.065-.46c.01-.08.055-.135.1-.205c0-.01.01-.01.016 0l.014.03v.005q-.082.104 0 .2zm6.832.36l-.42-.015c-.03 0-.05-.04-.03-.07c.195-.255.445-.305.735-.17c.1.045.165.035.265.035a.05.05 0 0 1 .053.022a.05.05 0 0 1-.003.058c-.165.325-.57.4-.89.305l-.002-.004l-.001-.004v-.004l.003-.003a.37.37 0 0 1 .275-.1c.03 0 .035-.05.015-.05m-1.795.105c-.04.02-.065.05-.07.08c0 .015-.035.025-.05.01c-.3-.21-.035-.33.155-.5c.035-.03.11-.03.14 0c.15.16.13.31-.04.45c-.02.015-.06.01-.06-.01a.05.05 0 0 0-.015-.025c-.015-.015-.035-.02-.055-.005zm-4.296.03c-.03-.15-.04-.3-.02-.45c0-.01.015-.02.025-.01c.185.135.335.27.315.54c-.015.15-.135.285-.045.48c.01.015 0 .03-.015.035a.17.17 0 0 1-.115-.02c-.335-.18-.385-.515-.345-.88c.01-.06.02-.065.04-.005l.1.3c.01.015.07.05.06.01m4.876.34c0-.085-.025-.09-.055-.02l-.12.25c-.025.05-.085.035-.095-.02c-.13-.57.125-.585.315-.975c.02-.04.065-.05.095-.02c.095.1.085.27.085.45q0 .391-.24.565c-.05.035-.055.025-.03-.035a.45.45 0 0 0 .05-.195zm.415.15a1.3 1.3 0 0 1-.07-.39q0-.037.03-.03c.45.11.29.64.38 1.03c.005.015-.005.035-.02.03c-.35-.09-.5-.4-.51-.84q-.001-.091.035-.01l.105.23c.01.025.055.005.05-.02m-4.856 4.901a7.4 7.4 0 0 1-1.99-.885h7.001c-.67.37-1.3.72-2.036.89c-.65.15-1.4.105-2.085.095a4.3 4.3 0 0 1-.89-.1"/><path d="M18.64 16.618c.236-.36.07-.835-.32-1.015a.82.82 0 0 0-1.01.31a6.998 6.998 0 0 1-12.813-3.91a7.001 7.001 0 1 1 13.964.75c-.115-.216-.405-.306-.656-.216c-.255.1-.375.35-.265.57l.83 1.636c.06.115.176.2.31.24c.14.04.296.02.42-.045l1.656-.86c.24-.125.315-.39.17-.6c-.145-.2-.45-.266-.695-.14l-.365.19a8.502 8.502 0 1 0-1.225 3.09"/></g></svg>