<svg xmlns="http://www.w3.org/2000/svg" viewBox="0 0 24 24"><g fill="none"><path fill="url(#SVGJbtIqbMA)" d="M15.658 7.4c.36.212.577.588.577 1v7.2c0 .647-.402 1.165-1.059 1.165s-1.058-.518-1.058-1.164v-4.484c0-.355-.636-.577-.953-.413L8.982 12.91a1.197 1.197 0 0 1-1.604-.476a1.15 1.15 0 0 1 .482-1.572l6.633-3.49c.366-.19.81-.18 1.165.027"/><path fill="url(#SVGLw7SJcwS)" d="M8.823 10.333c.953-.281 1.641-.308 2.41-.308c1.127 0 1.958.286 2.26.636c.2.053.624.228.624.455V15.6c0 .646.403 1.165 1.06 1.165c.656 0 1.058-.519 1.058-1.165V8.4c0-.413-.222-.794-.582-1a1.22 1.22 0 0 0-1.17-.027z"/><path fill="url(#SVGd7qZteah)" d="M12.577 8.368c.598.16 1.54.578 1.54 1.515v1.201c0 .01 0-.01 0 0v4.49c0 .635.403 1.19 1.06 1.19c.656 0 1.058-.518 1.058-1.164V8.4c0-.413-.222-.794-.582-1a1.22 1.22 0 0 0-1.17-.027z"/><path fill="url(#SVGKua8pdLY)" d="m10.782 14.356l-1.324.773c-.19.111-.28.339-.164.53c.154.254.413.577.784.815c.38.249.788.302 1.085.291c.201-.016.307-.19.307-.392v-1.62a.45.45 0 0 0-.688-.391z"/><path fill="url(#SVGulIGacCS)" fill-rule="evenodd" d="M12 19.941a7.942 7.942 0 1 0 0-15.883a7.942 7.942 0 0 0 0 15.883M12 21a9 9 0 1 0 0-18a9 9 0 0 0 0 18" clip-rule="evenodd"/><defs><linearGradient id="SVGJbtIqbMA" x1="19.581" x2="6.296" y1="2.998" y2="15.414" gradientUnits="userSpaceOnUse"><stop offset=".45" stop-color="#266e84"/><stop offset="1" stop-color="#56dbae"/></linearGradient><linearGradient id="SVGLw7SJcwS" x1="13.581" x2="12.434" y1="3.439" y2="21.059" gradientUnits="userSpaceOnUse"><stop offset=".18" stop-color="#2f778d"/><stop offset=".27" stop-color="#43b39c"/></linearGradient><linearGradient id="SVGd7qZteah" x1="11.778" x2="11.778" y1="2.999" y2="21" gradientUnits="userSpaceOnUse"><stop stop-color="#4cfb8f"/><stop offset="1" stop-color="#1fc3f1"/></linearGradient><linearGradient id="SVGKua8pdLY" x1="11.675" x2="17.867" y1="7.124" y2="21.196" gradientUnits="userSpaceOnUse"><stop stop-color="#34d6c1"/><stop offset="1" stop-color="#38bfd2"/></linearGradient><linearGradient id="SVGulIGacCS" x1="7.235" x2="17.294" y1="5.118" y2="19.677" gradientUnits="userSpaceOnUse"><stop stop-color="#4cfb8f"/><stop offset="1" stop-color="#28cedd"/></linearGradient></defs></g></svg>