<svg xmlns="http://www.w3.org/2000/svg" viewBox="0 0 24 24"><g fill="#4055a6"><path d="M17.633 5.912c.153.233.164.699-.074 1.043c-.244.344-.9.566-1.43.053c-1.382-1.334-3.5-1.594-4.49-1.594A6.61 6.61 0 0 0 4.838 12c.053 2.732 1.9 6.586 6.803 6.586c1.376 0 3.685-.593 4.85-1.81c.2-.212.92-.08 1.174.237c.26.318.186 1.06-.105 1.308a9.32 9.32 0 0 1-5.924 2.15C6.87 20.47 3 16.68 3 12s3.865-8.47 8.64-8.47c3.97 0 5.892 2.228 5.993 2.382"/><path d="M19.412 10.942a1.588 1.588 0 1 0 0-3.176a1.588 1.588 0 0 0 0 3.176"/><path d="M19.411 9.883a.53.53 0 1 0 0-1.059a.53.53 0 0 0 0 1.059"/></g></svg>