<svg xmlns="http://www.w3.org/2000/svg" viewBox="0 0 24 24"><g fill="none"><path fill="#3d4fc5" d="M11.274 17.6L6.551 21L9.554 7.192zm.102-.024l2.868.033L9.663 7.234zm3.146-.236l2.201-8.166l-.835-1.012zM13.46 4.535L9.832 6.981l5.297-1.712zm-.455 0l-2.252.085l-.338.927z"/><path fill="#df5d44" d="m9.723 7.141l4.656 10.417l1.417-9.564zm.692-1.484l2.868-1.122l-3.56 2.395zm.371-1.181l.725-.785l1.654.726zm.835-.877l1.139-.523l1.45 1.661zM12.835 3h1.215l.675.734zm1.637 1.847l.287-.869l.295 1.147z"/><path fill="#e99749" d="m9.925 7.05l5.804.792l-.574-2.446zm5.289-1.873l-.371-1.358l2.606.767zm-.54-1.274l-.32.87l-1.35-1.595z"/></g></svg>