<svg xmlns="http://www.w3.org/2000/svg" viewBox="0 0 24 24"><g fill="none"><path fill="url(#SVGHMN7Jcyh)" fill-rule="evenodd" d="M7.401 7.845c.679.72 2.052 2.176 2.073 2.212l-.247.309L6.501 9.13l-2.51-.134a.581.581 0 0 1-.427-.93l1.847-2.454a.572.572 0 0 1 .977.103zm-1.121.638a47 47 0 0 1-1.672-.206a.2.2 0 0 1-.133-.082a.25.25 0 0 1 .005-.293l.88-1.152a.427.427 0 0 1 .73.067l.56 1.105a.4.4 0 0 1 0 .345a.375.375 0 0 1-.375.216zM5.01 7.97l.966.113a.215.215 0 0 0 .216-.124a.23.23 0 0 0 0-.205l-.329-.638a.247.247 0 0 0-.416-.036l-.515.669a.14.14 0 0 0 0 .17c.016.025.047.04.077.05" clip-rule="evenodd"/><path fill="#00a69c" d="M4.603 14.47c.087-.103.345-.427.525-.669a.19.19 0 0 0-.134-.309l-.617-.05a.216.216 0 0 0-.216.297l.252.68c.02.05.066.082.118.082c.03 0 .051-.016.072-.036z"/><path fill="url(#SVGmpsNcbYF)" fill-rule="evenodd" d="M5.607 12.64c.838-.175 3.394-.977 3.435-.977l.108.324l-3.019 1.903l-1.24 1.8a.495.495 0 0 1-.874-.102l-.936-2.49a.5.5 0 0 1 .52-.679zm-.052 1.122c-.308.416-.756.972-.905 1.147a.17.17 0 0 1-.124.061a.21.21 0 0 1-.205-.139l-.437-1.182a.376.376 0 0 1 .38-.505l1.06.088a.33.33 0 0 1 .236.53z" clip-rule="evenodd"/><path fill="#00a69c" d="M18.809 11.836a19 19 0 0 0-.674.247a.165.165 0 0 0-.088.215q.016.04.052.068l.416.308a.182.182 0 0 0 .293-.108l.119-.607a.1.1 0 0 0-.052-.113a.08.08 0 0 0-.067-.01"/><path fill="url(#SVGeFmbYcQI)" fill-rule="evenodd" d="M17.277 12.705c-.68-.247-4.974-1.188-5-1.209l.062-.283l5.112.35l1.688-.74a.422.422 0 0 1 .58.472l-.41 2.217a.422.422 0 0 1-.68.257zm.53-.787l1.162-.422a.14.14 0 0 1 .113.015a.19.19 0 0 1 .092.196l-.205 1.044a.315.315 0 0 1-.353.256a.3.3 0 0 1-.146-.06l-.725-.54a.283.283 0 0 1 .061-.49" clip-rule="evenodd"/><path fill="#1259a2" fill-rule="evenodd" d="M12.493 8.705a1 1 0 0 0 .216-.385a.6.6 0 0 0 .015-.134V6.617c0-.2.072-.39.216-.53l.54-.39c.123-.119.278-.114.447-.114h1.183c.14-.005.273-.01.38.083l.592.509a.72.72 0 0 1 .247.54V8.17c0 .102-.02.205-.061.293c-.072.17-.232.277-.391.375l-.15.103a1.1 1.1 0 0 1-.323.19a.8.8 0 0 1-.294.041h-1.085a.7.7 0 0 0-.36.067l-1.81 1.132l-.35-.391zm.745-2a.62.62 0 0 1 .617-.618h1.338c.34 0 .617.278.617.618v1.337c0 .34-.278.617-.617.617h-1.338a.617.617 0 0 1-.617-.617zm2.058.668a.772.772 0 1 1-1.544 0a.772.772 0 0 1 1.543 0" clip-rule="evenodd"/><path fill="url(#SVG6zBkEbaK)" fill-rule="evenodd" d="M8.353 15.283c-.088.144-.175.299-.165.463l.005.036l.186 1.24c.02.16-.02.319-.119.447l-.277.36a.58.58 0 0 1-.37.216l-1.04.154a.57.57 0 0 1-.38-.077l-.53-.334a.57.57 0 0 1-.257-.401l-.17-1.152a.58.58 0 0 1 .113-.437l.32-.427a.57.57 0 0 1 .39-.227l.874-.103c.02 0 .042 0 .067-.01c.144-.036.252-.144.355-.252l2.438-2.505l.221.175l-1.666 2.834zm-.514 1.697a.463.463 0 0 1-.391.525l-.978.15a.463.463 0 0 1-.519-.397l-.15-.992a.463.463 0 0 1 .392-.53l.977-.144a.463.463 0 0 1 .52.39l.149.993zm-1.595-.272a.587.587 0 0 1 .489-.669a.592.592 0 0 1 .557.937a.6.6 0 0 1-.388.23a.584.584 0 0 1-.658-.498" clip-rule="evenodd"/><path fill="url(#SVGEjSCScGx)" fill-rule="evenodd" d="M10.127 7.388a1.287 1.287 0 1 0-.772.242l.751 2.006l.402-.051zm-.746-.272a.772.772 0 1 0 0-1.544a.772.772 0 0 0 0 1.544m.514-.772a.514.514 0 1 1-1.028 0a.514.514 0 0 1 1.028 0" clip-rule="evenodd"/><path fill="url(#SVGhkvUoGrG)" fill-rule="evenodd" d="M10.296 13.885a1.4 1.4 0 0 0-.926 1.332a1.425 1.425 0 0 0 1.965 1.306a1.405 1.405 0 0 0 .864-1.306c0-.684-.489-1.255-1.131-1.389l-.134-1.29l-.401-.058zm.489.432c-.5 0-.9.406-.895.9c0 .499.411.9.905.9a.89.89 0 0 0 .895-.9c0-.494-.412-.9-.905-.9m-.535.895a.515.515 0 1 1 1.029 0a.515.515 0 0 1-1.03 0" clip-rule="evenodd"/><path fill="#2f9ad5" d="M12.21 4.286a.504.504 0 0 1-.505.514a.52.52 0 0 1-.519-.514a.512.512 0 1 1 1.024 0"/><path fill="url(#SVGm54v6bUT)" fill-rule="evenodd" d="M12.096 5.515a1.275 1.275 0 0 0 .895-1.23a1.297 1.297 0 0 0-1.787-1.187a1.27 1.27 0 0 0-.785 1.188c0 .55.355 1.018.844 1.203l-.597 4.326l.391.108l1.05-4.408zm-.39-.458a.77.77 0 0 0 .77-.771a.786.786 0 0 0-.78-.772a.763.763 0 0 0-.767.772c0 .427.354.771.776.771" clip-rule="evenodd"/><path fill="#1082b5" d="M19.41 16.367a.516.516 0 0 1 0-1.034c.282.01.514.242.514.524a.51.51 0 0 1-.515.51"/><path fill="url(#SVG7l7QIeMn)" fill-rule="evenodd" d="M17.868 15.822a1.564 1.564 0 0 0 1.543 1.563a1.52 1.52 0 0 0 1.543-1.528A1.564 1.564 0 0 0 19.41 14.3a1.52 1.52 0 0 0-1.049.396l-6.249-3.158l-.247.412l6.018 3.693l-.015.185zm.514.015c0 .566.463 1.029 1.028 1.039a1.02 1.02 0 0 0 1.03-1.019c0-.565-.464-1.033-1.03-1.038a1.016 1.016 0 0 0-1.028 1.018" clip-rule="evenodd"/><path fill="url(#SVGIfo45bNT)" d="M14.375 17.277a26 26 0 0 1-.52 1.132a1.03 1.03 0 0 0 .14 1.106l.946 1.131c.22.257.565.391.905.345l1.131-.154c.335-.047.618-.253.772-.55L18.387 19a1.03 1.03 0 0 0-.103-1.085l-.875-1.116a1 1 0 0 0-.905-.386l-.91.108l-3.935-4.449l-.154.257zm3.204 1.389a1.453 1.453 0 0 1-1.445 1.466a1.456 1.456 0 0 1-1.45-1.46a1.453 1.453 0 0 1 2.006-1.352a1.46 1.46 0 0 1 .89 1.351zm-.72 0a.73.73 0 0 1-.725.735a.73.73 0 0 1-.725-.73c0-.411.324-.735.72-.735a.73.73 0 0 1 .725.735z"/><path fill="url(#SVGbxrdLdNw)" d="M17.219 10.083c.061.056.139.128.247.246c.154.17.4.227.617.15l.813-.294a.6.6 0 0 0 .375-.421l.15-.664a.61.61 0 0 0-.14-.535l-.56-.617a.58.58 0 0 0-.612-.17l-.782.247a.61.61 0 0 0-.396.427l-.129.525l-4.721 1.712l.102.14l4.86-.926c.052.066.104.113.176.18m.905-1.677a.775.775 0 0 1 0 1.548a.79.79 0 0 1-.771-.782c0-.427.344-.771.771-.766m.103.319a.428.428 0 0 1-.14.824a.42.42 0 0 1-.4-.251a.426.426 0 0 1 .535-.573z"/><path fill="#1159a2" d="m5.493 11.162l.669.792a.577.577 0 0 0 .807.072l.725-.617l1.492-.165l.051-.411l-1.476-.273l-.668-.756a.57.57 0 0 0-.782-.067l-.74.592a.58.58 0 0 0-.078.833m.499-.072a.293.293 0 0 1 0-.412l.463-.462a.29.29 0 0 1 .401 0l.463.463a.3.3 0 0 1 0 .411l-.463.463a.29.29 0 0 1-.406 0zm.272-.082a.175.175 0 0 1 0-.247l.268-.273a.17.17 0 0 1 .12-.05a.17.17 0 0 1 .122.05l.272.273a.177.177 0 0 1 0 .247l-.272.272a.17.17 0 0 1-.187.038a.2.2 0 0 1-.055-.038z"/><path fill="#1259a2" fill-rule="evenodd" d="M10.667 13.287a2.057 2.057 0 1 0 0-4.115a2.057 2.057 0 0 0 0 4.115m0-1.03a1.029 1.029 0 1 0 0-2.056a1.029 1.029 0 0 0 0 2.057" clip-rule="evenodd"/><defs><linearGradient id="SVGHMN7Jcyh" x1="5.979" x2="26.931" y1="10.296" y2="21.209" gradientUnits="userSpaceOnUse"><stop offset=".27" stop-color="#00a69c"/><stop offset="1" stop-color="#006771"/></linearGradient><linearGradient id="SVGmpsNcbYF" x1="4.642" x2="23.406" y1="11.895" y2="7.576" gradientUnits="userSpaceOnUse"><stop offset=".32" stop-color="#00a69c"/><stop offset="1" stop-color="#186472"/></linearGradient><linearGradient id="SVGeFmbYcQI" x1="9.091" x2="1.443" y1="7.089" y2="6.756" gradientUnits="userSpaceOnUse"><stop stop-color="#00a69c"/><stop offset="1" stop-color="#13626f"/></linearGradient><linearGradient id="SVG6zBkEbaK" x1="15.563" x2="19.753" y1="12.179" y2="3.173" gradientUnits="userSpaceOnUse"><stop stop-color="#1159a2"/><stop offset="1" stop-color="#035c72"/></linearGradient><linearGradient id="SVGEjSCScGx" x1="10.566" x2="12.933" y1="14.064" y2="24.024" gradientUnits="userSpaceOnUse"><stop stop-color="#1182b5"/><stop offset="1" stop-color="#086b88"/></linearGradient><linearGradient id="SVGhkvUoGrG" x1="9.134" x2="9.516" y1="20.823" y2="5.11" gradientUnits="userSpaceOnUse"><stop offset=".66" stop-color="#1081b4"/><stop offset="1" stop-color="#0a5e7b"/></linearGradient><linearGradient id="SVGm54v6bUT" x1="16.619" x2="15.257" y1="3.12" y2="20.637" gradientUnits="userSpaceOnUse"><stop offset=".53" stop-color="#2f9ad5"/><stop offset="1" stop-color="#125e7d"/></linearGradient><linearGradient id="SVG7l7QIeMn" x1="19.636" x2="-3.855" y1="20.144" y2="11.294" gradientUnits="userSpaceOnUse"><stop offset=".49" stop-color="#1082b5"/><stop offset="1" stop-color="#015e6d"/></linearGradient><linearGradient id="SVGIfo45bNT" x1="10.476" x2="5.092" y1="10.508" y2="1.167" gradientUnits="userSpaceOnUse"><stop stop-color="#2d99d5"/><stop offset="1" stop-color="#176273"/></linearGradient><linearGradient id="SVGbxrdLdNw" x1="10.373" x2="1.163" y1="17.058" y2="17.805" gradientUnits="userSpaceOnUse"><stop stop-color="#2e99d5"/><stop offset="1" stop-color="#136371"/></linearGradient></defs></g></svg>