<svg xmlns="http://www.w3.org/2000/svg" viewBox="0 0 24 24"><g fill="none"><path fill="url(#SVGBRCJseAc)" d="M12 18.75a6.85 6.85 0 0 1-6.71-5.625H3C3.613 17.569 7.506 21 12 21s8.387-3.431 9-7.875h-2.29A6.85 6.85 0 0 1 12 18.75m0-13.5a6.86 6.86 0 0 1 6.412 4.5h-2.486a4.51 4.51 0 0 0-3.954-2.233C9.592 7.562 7.506 9.598 7.5 12a4.607 4.607 0 0 0 4.472 4.5a4.52 4.52 0 0 0 4.421-3.375h-4.112a2.22 2.22 0 0 1 0-2.25H21C20.387 6.431 16.494 3 12 3s-8.387 3.431-9 7.875h2.29C5.851 7.657 8.731 5.233 12 5.25"/><defs><linearGradient id="SVGBRCJseAc" x1="4.103" x2="19.948" y1="12" y2="12" gradientUnits="userSpaceOnUse"><stop stop-color="#13efcf"/><stop offset=".48" stop-color="#a472ff"/><stop offset="1" stop-color="#543fff"/></linearGradient></defs></g></svg>