<svg xmlns="http://www.w3.org/2000/svg" viewBox="0 0 24 24"><g fill="none"><path fill="url(#SVGSoPjTdkC)" d="M18.018 8.535c-.056.163-2.627-1.473-4.973-.354a4.11 4.11 0 0 0-2.407 3.718c0 1.057.36 1.856.76 2.374c.64.843 1.237 1.164 1.76 1.45c.832.45 2.25.468 2.677.45a7.1 7.1 0 0 0 2.531-.657c.31-.14.8-.45 1.232-.799c.732-.596 1.412-1.339 1.4-1.283c-.016.09-.01.17-.376.816a7.2 7.2 0 0 1-2.908 2.785a6.56 6.56 0 0 1-5.26.489a6.36 6.36 0 0 1-3.177-2.599c-.383-.725-1.069-3.397-.146-5.518a5.2 5.2 0 0 1 2.44-2.418c2.83-1.199 6.509 1.4 6.452 1.546z"/><path fill="url(#SVGbVMWEedY)" d="M18.103 8.4c-.113.113-.94-.9-2.261-1.62a7.5 7.5 0 0 0-3.59-.91c-2.923.06-4.864 2.231-5.212 2.636c-1.733 2.014-2.548 5.113-1.575 7.52c1.265 3.134 5.506 4.94 5.18 4.973l-.371-.118c-.45-.18-5.934-2.683-6.131-7.672c-.113-2.813.787-5.085 1.322-5.704a8.1 8.1 0 0 1 2.34-1.957c1.282-.692 3.695-1.283 5.484-1.013c2.008.304 3.268 1.727 3.881 2.419c.557.619 1.03 1.356.934 1.446"/><path fill="url(#SVGqgnGodNR)" d="M18.092 8.535c.135-.062-.045-1.93-1.243-3.347a6.2 6.2 0 0 0-1.67-1.462c-2.695-1.48-6.008-.287-6.728 0c-.731.298-2.306 1.108-3.617 2.767a8.8 8.8 0 0 0-1.788 4.77c-.36 3.758 1.569 6.705 1.704 6.66c.084-.023-.793-1.901-.607-4.714c.073-1.068.219-3.026 1.558-4.91a8.3 8.3 0 0 1 2.98-2.644c.71-.354 3.246-1.496 5.789-.585c.77.282 1.485.709 2.098 1.266c1.108 1.024 1.406 2.25 1.518 2.194z"/><path fill="url(#SVGhQ7hcdgi)" d="M14.188 19.06c-.068.112-4.461-1.16-6.115-4.292c-.247-.467-1.395-2.982-.64-4.933a8.3 8.3 0 0 1 1.18-2.014a5.6 5.6 0 0 1 1.969-1.249c.388-.163 1.102-.337 1.519-.394a8 8 0 0 1 1.479 0c.81.085 1.912 1.041 1.879 1.041c-.011 0-.872-.281-1.767-.337a5.3 5.3 0 0 0-1.822.225A4.8 4.8 0 0 0 9.885 8.44a4.8 4.8 0 0 0-1.013 2.671c-.067.86.023 2.115.394 3.094c.174.473.478 1.069 1.069 1.856c1.237 1.676 3.897 2.92 3.852 2.998"/><path fill="url(#SVGoPF41dIo)" d="M11.802 5.79a6.1 6.1 0 0 1 2.172 0c.866.175 1.35.355 1.94.664c1.013.523 2.29 1.862 2.194 2.065c-.18.36-2.869-2.526-6.565-1.53c-1.046.36-1.687.697-2.362 1.21a6.05 6.05 0 0 0-2.3 4.634c0 1.159.213 1.834.478 2.57c.365 1.052 1.057 2.25.945 2.172c-1.266-.89-2.059-3.634-2.143-4.202c-.09-.568-.462-3.037 1.147-5.085c1.463-1.873 3.926-2.419 4.494-2.497"/><defs><linearGradient id="SVGSoPjTdkC" x1="16.415" x2="16.415" y1="6.735" y2="17.906" gradientUnits="userSpaceOnUse"><stop stop-color="#fab961"/><stop offset="1" stop-color="#20180d"/></linearGradient><linearGradient id="SVGbVMWEedY" x1="11.122" x2="11.122" y1="4.469" y2="21.028" gradientUnits="userSpaceOnUse"><stop stop-color="#fab961"/><stop offset="1" stop-color="#20180d"/></linearGradient><linearGradient id="SVGqgnGodNR" x1="10.566" x2="10.566" y1="3.09" y2="17.929" gradientUnits="userSpaceOnUse"><stop/><stop offset=".41" stop-color="#fab961"/></linearGradient><linearGradient id="SVGhQ7hcdgi" x1="10.745" x2="10.745" y1="6.69" y2="18.755" gradientUnits="userSpaceOnUse"><stop/><stop offset="1" stop-color="#fab961"/></linearGradient><linearGradient id="SVGoPF41dIo" x1="12.084" x2="12.084" y1="5.982" y2="17.58" gradientUnits="userSpaceOnUse"><stop stop-color="#20180d"/><stop offset="1" stop-color="#fab961"/></linearGradient></defs></g></svg>