<svg xmlns="http://www.w3.org/2000/svg" viewBox="0 0 24 24"><g fill="none"><path fill="url(#SVGIKNA9XLm)" d="M8.35 3L3.31 20.385a.476.476 0 0 0 .447.615h16.49c.308 0 .529-.302.447-.61L15.776 3h-1.51l.245 1.161h-1.347V3H10.84v1.161H9.645L9.819 3H8.344z"/><path fill="url(#SVG0rfgJg3s)" d="m20.236 18.712l-8.222-4.366V3h1.15v1.161h1.353L14.273 3h1.51z"/><path fill="url(#SVGWUJJ2cIJ)" d="m3.78 18.712l8.222-4.366V3h-.825v1.161H9.493L9.743 3h-1.51z"/><defs><linearGradient id="SVGIKNA9XLm" x1="12.002" x2="12.002" y1="3" y2="21.581" gradientUnits="userSpaceOnUse"><stop offset=".64" stop-color="#054dc9"/><stop offset="1" stop-color="#0b3299"/></linearGradient><linearGradient id="SVG0rfgJg3s" x1="3.289" x2="5.97" y1="4.596" y2="22.565" gradientUnits="userSpaceOnUse"><stop stop-color="#0556d9"/><stop offset=".77" stop-color="#0a2993"/></linearGradient><linearGradient id="SVGWUJJ2cIJ" x1="3.141" x2="12.309" y1="4.057" y2="13.875" gradientUnits="userSpaceOnUse"><stop stop-color="#025ee3"/><stop offset="1" stop-color="#0e2fa2"/></linearGradient></defs></g></svg>