<svg xmlns="http://www.w3.org/2000/svg" viewBox="0 0 24 24"><g fill="none"><path fill="url(#SVGEoDrfQFe)" d="M12.69 18.131C12.286 19.816 10.805 21 9.103 21C6.837 21 5 19.128 5 16.82v-.3c0-1.697 1.284-2.815 2.968-3.073l6.087-.985z"/><path fill="url(#SVG3aEHNceO)" d="M19 8.088c0 2.06-1.47 3.813-3.465 4.136l-7.567 1.223C6.284 13.705 5 14.823 5 16.52V7.09l.002-.032L5 7.181v1.936S6.426 5.3 13.091 3h1.273a4.6 4.6 0 0 1 3.278 1.384A4.77 4.77 0 0 1 19 7.725z"/><path fill="#81a1ee" fill-rule="evenodd" d="M13.092 3C6.426 5.299 5 9.117 5 9.117V7.18C5 4.872 6.836 3 9.102 3z" clip-rule="evenodd"/><defs><linearGradient id="SVGEoDrfQFe" x1="12" x2="7.45" y1="21" y2="11.698" gradientUnits="userSpaceOnUse"><stop stop-color="#81a1ee"/><stop offset=".6" stop-color="#6f90e5"/><stop offset=".81" stop-color="#4568d0"/><stop offset="1" stop-color="#1a3fba"/></linearGradient><linearGradient id="SVG3aEHNceO" x1="16.511" x2="8.939" y1="12" y2="6.199" gradientUnits="userSpaceOnUse"><stop stop-color="#a4bdfa"/><stop offset=".5" stop-color="#afc5fb"/><stop offset="1" stop-color="#cfddff"/></linearGradient></defs></g></svg>