<svg xmlns="http://www.w3.org/2000/svg" viewBox="0 0 24 24"><g fill="none"><path fill="#03a2e5" fill-rule="evenodd" d="M12.282 5.174a.56.56 0 1 0-.637-.92a.562.562 0 0 0 .066.932L3.816 18.803a.56.56 0 1 0 .306.5h15.729a.56.56 0 0 0 .562.56a.56.56 0 1 0-.017-1.12zm7.84 13.65L11.986 5.26L4.029 18.993l.017.028h15.881a.56.56 0 0 1 .194-.198" clip-rule="evenodd"/><path fill="#545873" d="m8.055 16.496l3.93-2.028l3.934 2.028z"/><path fill="#00a8eb" d="m11.987 9.753l-3.932 6.74l3.932-1.988z"/><path fill="#b4c0f2" d="m11.987 9.753l3.932 6.74l-3.932-1.988z"/></g></svg>