<svg xmlns="http://www.w3.org/2000/svg" viewBox="0 0 24 24"><path fill="#1fc0dc" d="M15.858 15c-2.034-.013-1.89-.265-2.982-1.32a83 83 0 0 0-3.198-2.995c-.636-.546-2.382-.486-2.382-.486H4.284v9.6H7.89c.804 0 1.902-.96 1.902-.96l2.796-2.958l.954 1.008s-2.088 2.232-2.934 3.06c-1.152 1.134-2.718 1.05-2.718 1.05H3v-12h4.296c2.526 0 3.258.739 3.258.739s3.24 3.09 3.798 3.575c.761.612 1.758.486 1.758.486h3.605V4.2h-3.012c-.096 0-.93-.041-1.77.439c-.611.246-3.383 3.264-3.383 3.264l-1.002-.924S12.78 4.632 13.23 4.2S14.49 3 16.703 3H21v12z"/></svg>