<svg xmlns="http://www.w3.org/2000/svg" viewBox="0 0 24 24"><g fill="none"><path fill="url(#tokenBrandedBai0)" d="M12 22c5.522 0 9.998-4.476 9.998-9.998S17.522 2.004 12 2.004S2.002 6.48 2.002 12.002S6.478 22 12 22"/><path fill="url(#tokenBrandedBai1)" d="m18.788 9.467l-.43.159c-1.246.47-2.352.57-3.075.635c-.8.07-1.153.106-.777.535l.224.259c.53.635.741.882 1.876.882h.212c1.176 0 2.182 0 3.564.4a7 7 0 0 0 1.6.259a10 10 0 0 1-.342 2.076q-.544.117-1.1.141c-2.34.13-2.899.235-3.117.347c-.094.047-.935-.165-1.887-.4c-1.118-.282-2.4-.6-2.812-.588c-.317.012-.87.118-1.511.247c-.923.176-2.011.394-2.8.394c-1.329 0-2.205-.482-3.405-1.176c-.453-.259-.976-.43-1.476-.588c-.594-.194-1.158-.377-1.523-.688a10.2 10.2 0 0 1 .606-3.811c.188.235.264-.16.335-.8a10.1 10.1 0 0 1 3.505-4.07c.059.259.177.6.441 1.106c.37.711.177.882.2 1.005c.024.106.212.177 1.076.536c.63.258 1.024.47 1.33.64c.605.324.882.477 2 .477c.57 0 1.158.088 1.681.165c1 .147 1.765.264 1.694-.353c-.03-.259.07-.488.165-.7c.235-.53.394-.9-1.924-1.188a27 27 0 0 0-2.952-.194c-.882-.018-1.211-.024-1.3-.388c-.058-.236-.323-.418-.535-.57c-.37-.265-.606-.43.53-.6c.935-.136 1.975.129 2.775.329c.753.188 1.289.323 1.294.017c.03-.64-.182-1.329-1.987-1.411a26 26 0 0 0-2.277.023a9.98 9.98 0 0 1 8.381.794c-.147.189-.294.33-.423.447c-.294.277-.453.424-.018.73c.323.235.37.458.406.646c.053.277.088.471 1.082.471c.747 0 1.058-.135 1.258-.224a1 1 0 0 1 .142-.058a10 10 0 0 1 1.834 3.017c-.47.294-.887.447-2.54 1.07"/><path fill="#AE8F60" d="m3.732 11.908l.624-.306c.053.024.205.106.435.182c.282.106 1.194.518 1.47.747c.27.236.33.853.33.947s-.412-.147-.836-.394z"/><path fill="url(#tokenBrandedBai2)" d="M15.376 12.837c-.117-.235-.888-1.294-1.264-1.788c-.835.588-2.706 1.847-3.482 2.082c-.97.294-.876.935-1.1 1.418c-.223.488 1.03.6 1.1.823c.076.223 1.253 1.382 1.853 1.511c.594.13 4.175.394 3.975-1.064c-.205-1.459-.94-2.694-1.082-2.982"/><path fill="#D7B87F" d="M11.747 13.913a5.8 5.8 0 0 1-2.07.471c-.134.407-.21.83-.23 1.258c.036.418 1.06.706 2.165.647c1.111-.058 1.064-.664 1.188-1.07c.117-.406.27-1.17.27-1.44c0-.271-.347-.283-1.323.134"/><path fill="url(#tokenBrandedBai3)" d="M13.136 9.708c-.206-.194-.611-.459-.753-.588c-.74.541-2.358 1.653-3.175 1.953c-1.012.382-1.094.482-1.741 1.04c-.647.56.064 1.177.306 1.647c.24.47 1.14.412 1.94.53c.8.129 2.076-.877 2.459-1.083c.4-.24.76-.54 1.07-.888c.176-.217.812-1.164.812-1.246c0-.077-.647-1.13-.918-1.365"/><path fill="#99512B" d="M12.513 9.238c-.06-.247-.706-.659-.735-.741c-.57.247-1.794.8-2.13 1.023c-.411.282-.029.335.295.682c.317.353.911.959 1.352 1.006c.447.059.16-.153.594-.776c.436-.624.677-.941.624-1.188z"/><path fill="#753710" d="M11.413 7.891a4.9 4.9 0 0 0-1.359-.93c-.188.136-.653.46-.982.63c-.418.218-.159.8.07 1.388c.23.588.118.418.447.635c.33.218.465-.03.794-.382c.336-.353.765-.012 1.03-.106c.27-.094.382-.235.411-.365c.036-.117-.07-.435-.411-.87"/><path fill="#A3864B" d="M10.37 7.426c-.123-.382-.846-.676-.993-.717c-.153.294-.488.9-.594 1.053c-.135.188.13.529.676.729c.541.206.659.176.912 0c.253-.177.13-.677 0-1.059z"/><path fill="url(#tokenBrandedBai4)" d="M5.731 11.96c.235.1.547-.035.67-.164c.454-.294 2.147-.97 2.618-1.282c.588-.382-.382-1.27-.93-1.57c-.546-.294-1 .358-1.481.558c-.483.194-.806.882-1.177 1.424c-.37.547.06.94.294 1.035z"/><path fill="#D8C49F" d="M4.62 12.12c.005-.136.846.059.952 0c.182 0 .647-.041 1.017-.183c.465-.176.612-.405.765-.658c.153-.26-.106-.541.318-.8c.417-.253.688-.165 1.093-.194c.406-.03.647.135 1 .194c.365.059.383.588.577.906c.194.311-.424.252-.753.252c-.265 0-.23.2-.177.3c-.1.112-.388.353-.735.418c-.435.094-.376.312-.723.559c-.347.24.288.223 1.158.647c.87.423.524 1.152.66 1.482c.134.329-.648.617-1.248.705c-.6.094-1.305 0-1.646-.405c-.353-.406-.494-1.188-.53-1.782c-.04-.594-.176-.665-.37-.894c-.194-.224-.506-.036-.812-.13s-.553-.294-.547-.423z"/><path fill="#7E592C" d="M6.59 10.038c.394-.424-.059-.218-.135-.27a11 11 0 0 0-.959.61c-.341.265-.53.665-.647.895c-.117.235.059.258.118.564c.07.3.564.353.835.324c.276-.024.341.264.441.294s.106 0 .453-.03c.34-.035.694-.558 1.011-1c.324-.452-.176-.47-.435-.617c-.259-.141-.347.006-.682.235c-.341.224-.359.377-.541.647c-.188.277-.353.118-.394-.1c-.035-.217.123-.564.247-.894c.13-.335.288-.235.688-.658"/><path fill="#A56C37" d="M7.924 7.062c-.03 0-.923.376-1.364.564c-.082.324-.188 1.006 0 1.106c.23.13.806.217 1.364.364c.447.118.418.018.353-.047c-.006-.411-.017-1.252-.04-1.329a4 4 0 0 0-.313-.653z"/><path fill="#945D25" d="M5.102 9.661c-.041.147.012.37.041.459c.077.03.241.076.341.059c.118-.018.336-.277.518-.618c.188-.34.159-.235.53-.7c.37-.47.181-.411.217-.54c.03-.13.082-.677 0-.76c-.088-.076-.765-.435-.865-.47c-.1-.041-.37.059-.435.17s-.018.236.112.383c.106.118.088.412.064.553l-.429.888c-.088.212-.053.394-.094.576"/><path fill="#A08260" d="M4.943 9.403c-.047-.077-.053-.306-.047-.412c.041-.012.135-.024.165 0c.04.03.188.37.211.447c.018.07-.03.176-.1.217c-.064.042-.164-.152-.223-.252z"/><path fill="#ECD9CB" d="M6.885 9.967c-.271.077.04.194.264.459c0 .194.918.223 1.206.223c.23 0 .317-.211.335-.317l-.412-.894c-.029-.035-.194-.012-.635.388c-.547.5-.494.065-.764.141z"/><path fill="#7D350D" d="M7.46 9.097c.353-.012.706-.177.788-.165c0 .147-.382.294-.647.394c-.264.1-.723.141-1.04.412c-.318.27-.1.27-.3.406c-.207.129-.536.276-.748.411c-.205.141-.57.253-.623.106c-.059-.147.17-.541.17-.647c0-.118.118-.035.171 0c.041.024.224.036.441-.106c.218-.14.512-.253.688-.388c.177-.13.741-.412 1.1-.423"/><path fill="#433312" d="M5.044 10.396c-.16.06-.494.7-.647 1.018c.264.047.811.147.882.147c.1 0 .206-.23.223-.353c.012-.118-.217-.194-.14-.518c.076-.323-.118-.364-.318-.294"/><path fill="#301600" d="M6.955 9.226c.159-.059.57-.059.759-.053a3.5 3.5 0 0 1-.5.394a2.4 2.4 0 0 1-.9.088c.147-.117.488-.37.647-.429zm-2.14.406c-.013.147.187.306.293.365c.036-.065.118-.23.153-.365c.041-.135-.135-.247-.223-.282c-.206.047-.212.094-.224.27zm-.165 1.476c-.106.088-.324.294-.336.418c-.011.158.147.417.336.47c.07.012.117.047.158.082c.07.06.147.118.353.106c.188 0 .365-.03.506-.058l.241-.024h.018c.153 0 .57 0 .764-.2c.077-.094.224-.206.365-.312c.182-.14.353-.276.353-.335c-.012-.1-.094-.47-.294-.282c-.094.082-.141.2-.188.312c-.06.14-.106.282-.236.352a4.1 4.1 0 0 1-1.252.353c-.277 0-.206-.247-.06-.353c.16-.111.148-.47-.217-.529c-.294-.047-.464-.018-.511 0"/><path fill="#D8B98B" d="M5.002 8.632c.04-.1.523-.453.588-.459l-.47.565c.058.059.187.2.223.353c.047.2.088.482.088.611c0 .118-.165.206-.135 0c.035-.211-.212-.529-.36-.647c-.152-.117.03-.323.066-.423"/><path fill="#D19B5D" d="M5.12 8.685c.04-.106.452-.482.54-.506c.065 0 0 .759 0 .877s-.058.4-.064.494c-.018.094-.118.24-.176.217c-.06-.03-.118-.482-.224-.64c-.094-.16-.118-.336-.076-.442"/><path fill="#C48750" d="M5.92 9.826c.105.006.388-.259.411-.276c.177-.112.582-.336.741-.383c.2-.059.653-.053.912-.147c.253-.1-.06-.082-.153-.2c-.088-.117-.535-.159-.677-.2a.84.84 0 0 0-.617.106c-.188.13-.618.824-.718.941c-.094.118-.005.141.1.153z"/><path fill="#683700" d="m8.413 6.832l-.512.265c.1.235.306.706.377.73c.064.023.117-.648.129-.995z"/><path fill="#511F00" d="M10.666 7.591c-.177-.635-.889-.9-1.224-.953c.024.06.16.247.5.488c.424.312.465.818.37 1.247c-.076.353-.482.235-.67.141c.118.077.412.23.67.218c.312-.018.571-.353.354-1.147z"/><path fill="#6E440A" d="M9.59 7.309c-.118-.059-.365.147-.47.253c.14.176.452.553.588.617c.176.077.052-.188.147-.47c.094-.288-.106-.33-.26-.4z"/><path fill="#B2834F" d="M9.825 8.19c-.023-.146.141-.61.212-.675c.123 0 .194.435.176.77c-.029.341-.1.2-.217.2c-.118 0-.135-.141-.165-.294z"/><path fill="#77360C" d="M14.258 11.35c.06-.295-.129-.313-.235-.283c-.223.335-.73 1.058-.94 1.252c-.26.241-.513.883-.236.836c.282-.047 1.335-1.447 1.411-1.806"/><path fill="#6A1F0C" d="m14.948 12.19l-.247-.365c-.142.306-.418 1.018-.447 1.412c-.041.482.235 1.064.306.811c.07-.252-.036-.6 0-.923c.035-.259.276-.73.388-.935"/><path fill="#CBB375" d="m2.46 9.008l.218-.058l.118.058c-.07.053-.224.177-.253.277c-.024.106.082.24.135.294l.635-.241c-.011.123-.03.435 0 .664c.041.294.9 1.306.994 1.588c.088.282-.494.47-.806.23c-.311-.247-.723-1.106-.882-1.4a4 4 0 0 0-.376-.524c.059-.458.165-.782.218-.888"/><path fill="#A0825E" d="M4.532 12.555c-.541-.3-.859-.588-.924-.759c.294.189 1 .588 1.435.76c.553.199 1.07.54 1.23.646c.129.088.117.306.1.406l-1.847-1.059z"/><path fill="url(#tokenBrandedBai5)" d="M13.941 2.198L2.697 9.108c-.277.165-.118.412 0 .506l14.173-6.31c-.735-.506-2.258-.947-2.929-1.106"/><path fill="url(#tokenBrandedBai6)" d="M9.572 6.103c.094 0 .04.206 0 .306c-.118.465-.336 1.47-.33 1.811c0 .43.365 1.188 1 1.818c.63.623 1.04.87 1.353 1.164c.305.294.129.459 0 .694c-.136.235-1.63.059-1.812-.235c-.182-.288-.676-1.235-.764-1.37c-.083-.142-.67-.953-.73-1.07c-.058-.118-.105-.46-.105-.86s.205-1.352.235-1.493c.023-.141.406-.412.553-.53c.147-.117.358-.235.6-.235"/><path fill="#846522" d="M8.566 6.75c-.012.147.177.177.282.17c.083-.064 0-.387-.035-.446c-.035-.06-.235.094-.247.276m.941-.664c-.035-.06-.206.047-.247.058c0 .13.177.236.247.142c.07-.095.036-.142 0-.2"/><path fill="#0C0200" d="M4.943 18.295v-3.758c0-.094.07-.177.153-.177h1.159c.294-.011.905.189.94 1.106c.083-.17.406-.523.971-.523s.87.353.959.523c.058-.17.347-.523.97-.523s.9.353.959.523a1.175 1.175 0 0 1 1.952 0c.07-.17.306-.506.659-.506c.112 0 .27.065.335.1v-.553c0-.058.047-.152.106-.152h.982c.059 0 .106.088.106.152v3.747c0 .1-.07.217-.159.217h-.882v-.147c-.047.047-.212.147-.488.147c-.347 0-.618-.317-.676-.464c-.042.159-.295.464-.953.464c-.665 0-.935-.305-.982-.464c-.07.159-.365.464-.959.464s-.806-.235-.841-.353v.142c0 .1-.065.211-.153.211H7.807c-.2 0-.57-.076-.682-.411c-.047.111-.235.411-.606.411H5.096c-.082 0-.153-.076-.153-.176m10.892.176h.941l.094-.14l.077.14h1.852c.147 0 .259-.129.259-.294V14.65c0-.165-.118-.294-.259-.294h-.706c-.147 0-.258.129-.258.293v1.518l-.194-1.559c-.018-.147-.124-.252-.253-.252H16.27c-.117 0-.235.105-.247.252l-.44 3.53c-.024.175.093.334.252.334"/><path fill="#fff" fill-rule="evenodd" d="M18.034 14.59h.824v3.622h-.824zm-2.223 3.622h.853l.047-.676h.312l.058.676h.812l-.476-3.61h-1.188l-.412 3.61zm1.159-1.311l-.118-1.43l-.1 1.43zM5.237 14.649v3.528H6.43c.423 0 .553-.353.558-.53v-.781c0-.353-.276-.553-.411-.606c.311-.059.37-.5.364-.712c0-.735-.458-.905-.682-.9zm.811.6h-.07v.823h.07c.1 0 .189-.1.189-.23v-.364c0-.13-.089-.235-.189-.235zm0 1.334h-.07v1.03h.07c.1 0 .189-.1.189-.23v-.57c0-.124-.089-.23-.189-.23m1.947-.211H7.26v-.4c0-.406.294-.735.665-.735h.435c.364 0 .664.329.664.735v2.205h-.711v-.33a.59.59 0 0 1-.547.33c-.388 0-.5-.335-.506-.5v-.511c0-.27.118-.46.347-.547c.182-.077.506-.235.647-.306v-.47c0-.077-.059-.142-.13-.142c-.07 0-.129.065-.129.141zm.276 1.176v-.753l-.152.135a.36.36 0 0 0-.118.271v.347c0 .082.059.147.135.147s.136-.065.136-.147m1.677-.412H9.26v.365c0 .37.276.676.611.676h.465c.335 0 .611-.305.611-.676v-.294a.7.7 0 0 0-.282-.582l-.653-.412a.17.17 0 0 1-.076-.141v-.212c0-.082.059-.153.135-.153c.082 0 .141.07.141.153v.335h.682v-.335c0-.347-.252-.623-.564-.623h-.506c-.312 0-.564.276-.564.623v.382c0 .247.129.394.194.436l.705.482a.18.18 0 0 1 .077.153v.194c0 .088-.065.159-.147.159c-.077 0-.141-.071-.141-.16zm3-.43h-1.03v.83c0 .088.065.165.147.165c.076 0 .141-.077.141-.165v-.588h.735v.43c0 .44-.323.8-.717.8h-.365c-.394 0-.718-.36-.718-.8v-1.289c0-.47.348-.852.771-.852h.259c.429 0 .77.382.77.852v.618zm-1.036-.87c0-.076.059-.14.13-.14c.07 0 .129.058.129.14v.46h-.259zm3.029-1.187H14.2v.811c-.077-.106-.236-.223-.518-.223h-.041c-.253 0-.459.229-.459.505v1.93c0 .276.206.505.459.505h.041c.124 0 .382-.058.518-.253v.253h.74zm-.741 2.94v-1.776a.14.14 0 0 0-.118-.094c-.076 0-.135.059-.135.141v1.676c0 .077.059.141.13.141a.125.125 0 0 0 .123-.094z" clip-rule="evenodd"/><defs><linearGradient id="tokenBrandedBai0" x1="7.23" x2="12.6" y1="20.036" y2="3.792" gradientUnits="userSpaceOnUse"><stop stop-color="#863E3F"/><stop offset=".48" stop-color="#4C4F70"/><stop offset="1" stop-color="#668AAA"/></linearGradient><linearGradient id="tokenBrandedBai1" x1="3.12" x2="16.365" y1="10.849" y2="5.927" gradientUnits="userSpaceOnUse"><stop stop-color="#B3B2B8"/><stop offset="1" stop-color="#C8BFB8"/></linearGradient><linearGradient id="tokenBrandedBai2" x1="10.912" x2="13.541" y1="14.019" y2="12.125" gradientUnits="userSpaceOnUse"><stop stop-color="#CBA45F"/><stop offset="1" stop-color="#964F2F"/></linearGradient><linearGradient id="tokenBrandedBai3" x1="10.743" x2="10.443" y1="9.361" y2="12.319" gradientUnits="userSpaceOnUse"><stop stop-color="#9B5B2B"/><stop offset="1" stop-color="#D2A770"/></linearGradient><linearGradient id="tokenBrandedBai4" x1="5.943" x2="7.878" y1="11.478" y2="10.026" gradientUnits="userSpaceOnUse"><stop stop-color="#A58963"/><stop offset="1" stop-color="#E1B884"/></linearGradient><linearGradient id="tokenBrandedBai5" x1="8.207" x2="8.966" y1="5.397" y2="6.95" gradientUnits="userSpaceOnUse"><stop stop-color="#A5773C"/><stop offset=".5" stop-color="#FDDEA0"/><stop offset="1" stop-color="#CFAD7C"/></linearGradient><linearGradient id="tokenBrandedBai6" x1="9.824" x2="9.971" y1="6.597" y2="12.002" gradientUnits="userSpaceOnUse"><stop stop-color="#C5AF73"/><stop offset=".41" stop-color="#D7A66C"/><stop offset="1" stop-color="#C8A667"/></linearGradient></defs></g></svg>