<svg xmlns="http://www.w3.org/2000/svg" viewBox="0 0 24 24"><path fill="#0a3adb" d="M14.052 15.258c.528.637 1.076 1.297.479 2.038c-.193.238-.412.39-.606.524c-.418.292-.696.483-.573 1.43l-.508.065c-.164-1.252.32-1.587.788-1.912c.181-.125.352-.244.498-.425c.31-.384.126-.672-.475-1.397q-.18-.214-.35-.434c-.206-.267-.281-.564-.217-.857c.068-.305.272-.556.476-.742a2.12 2.12 0 0 1-.962-1.644h.257l.257-.001c0 .047.024.875.904 1.317l.064.03c.296.137.687.23 1.196.24c2.12-.044 2.164-1.523 2.164-1.587l.513.001c0 .005-.002.144-.05.349c.244-.01.701-.091.867-.183c-.094-.336-.7-1.444-1.258-2.36l.154-.378l.059-.016a38 38 0 0 1-.349-1.715c-1.96-.296-3.372-.07-4.2.672c-.8.718-.751 1.668-.75 1.71l-.284.017l-.227.02a.41.41 0 0 0-.215-.32q-.153-.071-.348.065a.504.504 0 0 0-.223.56c.081.425.509.89.838 1.09q.077-.046.101-.058l.074.14c.01.004.023.042.023.042l.023.043l.12.225a2 2 0 0 0-.246.16s-.026.03-.034.027c-.183.144-.38.347-.427.564c-.032.146.009.288.123.438q.17.218.34.419c.528.638 1.075 1.298.478 2.04c-.191.238-.411.39-.605.524c-.42.29-.697.482-.572 1.428l-.509.066c-.164-1.253.32-1.588.788-1.912c.18-.126.352-.245.498-.425c.308-.384.126-.672-.475-1.398q-.171-.204-.35-.434c-.207-.267-.281-.564-.217-.856c.063-.287.248-.527.44-.709c-.416-.308-.82-.826-.915-1.317a1.01 1.01 0 0 1 .432-1.073c.282-.198.588-.237.86-.112q.042.021.081.045a2.75 2.75 0 0 1 .825-1.38c.943-.852 2.493-1.123 4.606-.809c.472-.596.677-1.481-.135-2.23c-.746-.687-2.05-.89-2.946-.038l-.428-.132c-.15-.71-.992-1.062-1.729-1.155c-1.114-.141-2.568.217-3.128 1.336c-.744 1.484.213 2.235.254 2.266l-.168.457c-1.102-.06-1.842.12-2.201.534c-.465.534-.276 1.45-.124 2.186c.127.617.227 1.104-.021 1.393a1.2 1.2 0 0 1-.933.447a1.3 1.3 0 0 1-.562-.131c-.438-.219-.68-.643-.59-1.033l.5.115c-.037.154.102.353.321.462a.694.694 0 0 0 .874-.19c.085-.1-.021-.619-.092-.96c-.174-.846-.391-1.898.239-2.623c.4-.46 1.07-.697 2.04-.72c-.3-.471-.567-1.291.004-2.43c.672-1.34 2.364-1.777 3.653-1.615c.976.124 1.717.563 2.032 1.181c1.088-.77 2.512-.5 3.354.276c.668.615 1.11 1.731.218 2.885c.091.642.417 2.055.42 2.07l-.166.273c1.328 2.218 1.205 2.456 1.145 2.573c-.125.241-.585.38-.994.435c.483.319.952.87.92 1.706c-.027.655-.529 1.185-1.013 1.697c-.65.686-1.03 1.134-.673 1.674l-.428.28c-.599-.903.106-1.647.727-2.303c.42-.444.855-.903.874-1.368c.036-.931-.763-1.333-1.075-1.455c-.333.499-.979.995-2.228 1.04v.005L15.28 14l-.093.002v-.004a3.7 3.7 0 0 1-1.118-.2c-.197.145-.428.365-.48.603q-.047.216.124.438q.171.22.339.42m-3.692-8.96l.395.325a.48.48 0 0 0-.032.634c.115.154.332.266.522.184c.325-.137.373-.21.647-.606q.321-.476.677-.929c.334-.43.718-.655 1.141-.672c.677-.025 1.177.51 1.197.533l-.38.343c-.003-.004-.364-.385-.8-.367c-.262.012-.516.17-.753.474a18 18 0 0 0-.658.904c-.287.418-.406.591-.867.788a.9.9 0 0 1-.34.07c-.296 0-.596-.15-.798-.418c-.29-.384-.271-.88.049-1.263m5.591 10.644c.528.637 1.075 1.299.478 2.039c-.19.238-.41.39-.604.524c-.42.291-.697.483-.573 1.43l-.51.065c-.164-1.253.32-1.588.788-1.912c.181-.126.353-.245.498-.426c.31-.383.127-.67-.473-1.397q-.18-.214-.35-.434c-.208-.268-.283-.564-.218-.856c.141-.64.883-1.046.968-1.091l.24.45c-.17.09-.631.402-.707.75c-.032.146.009.289.124.438q.17.22.34.42m-5.29-8.093c-1.515-.056-2.305.268-2.353.961c-.02.278.004.604.03.95c.061.843.131 1.8-.444 2.369c-.315.312-.772.465-1.393.465a4 4 0 0 1-.315-.012l.037-.508c.627.046 1.054-.053 1.308-.305c.41-.405.35-1.202.294-1.972c-.026-.364-.051-.708-.03-1.022c.05-.701.589-1.52 2.883-1.435zm6.242.866c-.008-.011-.194-.29-.706-.29c-.48 0-1.154.464-1.374.642l-.306-.37c.038-.032.932-.751 1.68-.751c.8 0 1.108.5 1.12.522l-.209.122zm-.846.467c0-.165.153-.299.342-.299c.188 0 .342.134.342.3s-.154.299-.342.299s-.342-.135-.342-.3"/></svg>