<svg xmlns="http://www.w3.org/2000/svg" viewBox="0 0 24 24"><path fill="#58be92" d="M16.645 7.085c-.693-1.774-2.448-1.936-4.495-1.532L11.427 3l-1.553.45l.713 2.462l-1.233.375l-.713-2.493l-1.538.45l.724 2.528l-.986.303V7.07l-2.13.607l.471 1.648s1.138-.354 1.128-.323c.622-.182.93.126 1.082.424l.829 2.888l.167-.026l-.167.046l1.163 4.055c.03.202 0 .546-.43.672c.02.01-1.127.329-1.127.329l.222 1.931l2.007-.576l1.113-.308l.738 2.563l1.532-.445l-.718-2.533l1.234-.344l.723 2.528l1.552-.445l-.738-2.563c2.553-.895 4.186-2.073 3.716-4.576c-.384-2.012-1.562-2.63-3.135-2.553c.758-.723 1.087-1.68.582-2.984zm-.577 6.118c.541 1.922-2.801 2.64-3.843 2.948l-.976-3.403c1.047-.303 4.243-1.542 4.82.455m-2.093-4.606c.495 1.755-2.306 2.331-3.18 2.584L9.91 8.097c.874-.248 3.54-1.315 4.065.51z"/></svg>