<svg xmlns="http://www.w3.org/2000/svg" viewBox="0 0 24 24"><g fill="none"><path fill="url(#SVGcoPSUcqx)" d="M12 3.194a8.787 8.787 0 1 0 0 17.568a8.79 8.79 0 0 0 8.31-5.372A8.787 8.787 0 0 0 12 3.194m0 13.47c-2.59 0-4.663-2.03-4.663-4.663c0-2.59 2.02-4.662 4.663-4.662c2.59 0 4.663 2.03 4.663 4.662A4.643 4.643 0 0 1 12 16.664"/><path fill="url(#SVGh4ZACcqg)" d="M20.808 11.98v-.135a8.72 8.72 0 0 0-2.057-5.486a8.6 8.6 0 0 0-2.057 5.621a8.6 8.6 0 0 0 2.057 5.616a8.82 8.82 0 0 0 2.057-5.481z"/><path fill="url(#SVGlwEoDe8k)" d="M5.25 6.359a8.73 8.73 0 0 0-2.058 5.486v.27a8.73 8.73 0 0 0 2.057 5.481a8.6 8.6 0 0 0 2.057-5.616c0-2.14-.803-4.103-2.057-5.621"/><path fill="url(#SVGoipuFlsS)" d="M17.633 5.246a8.78 8.78 0 0 0-5.497-2.051h-.27A8.78 8.78 0 0 0 6.37 5.246A8.65 8.65 0 0 0 12 7.298a9.15 9.15 0 0 0 5.632-2.052"/><path fill="url(#SVGxZmemDCD)" d="M6.37 18.757A8.9 8.9 0 0 0 12 20.81a8.63 8.63 0 0 0 5.632-2.052A8.9 8.9 0 0 0 12 16.705a8.63 8.63 0 0 0-5.631 2.052"/><path fill="url(#SVGUkJk6VRk)" d="M12.002 14.074a2.072 2.072 0 1 0 0-4.145a2.072 2.072 0 0 0 0 4.145"/><defs><linearGradient id="SVGcoPSUcqx" x1="8" x2="15.751" y1="-2.282" y2="25.497" gradientUnits="userSpaceOnUse"><stop offset=".14" stop-color="#ff78f1"/><stop offset=".3" stop-color="#c199f2"/><stop offset=".49" stop-color="#7dbdf4"/><stop offset=".66" stop-color="#47d9f5"/><stop offset=".81" stop-color="#20eef6"/></linearGradient><linearGradient id="SVGh4ZACcqg" x1="18.767" x2="18.767" y1="6.323" y2="17.617" gradientUnits="userSpaceOnUse"><stop stop-color="#8172e8"/><stop offset="1" stop-color="#00c4ef"/></linearGradient><linearGradient id="SVGlwEoDe8k" x1="5.239" x2="5.239" y1="6.38" y2="17.13" gradientUnits="userSpaceOnUse"><stop stop-color="#8172e8"/><stop offset="1" stop-color="#00c4ef"/></linearGradient><linearGradient id="SVGoipuFlsS" x1="17.415" x2="8.742" y1="5.236" y2="5.236" gradientUnits="userSpaceOnUse"><stop stop-color="#008deb"/><stop offset="1" stop-color="#956de7"/></linearGradient><linearGradient id="SVGxZmemDCD" x1="6.37" x2="17.633" y1="18.736" y2="18.736" gradientUnits="userSpaceOnUse"><stop stop-color="#009bec"/><stop offset="1" stop-color="#00caef"/></linearGradient><linearGradient id="SVGUkJk6VRk" x1="12.002" x2="12.002" y1="16.602" y2="10.701" gradientUnits="userSpaceOnUse"><stop stop-color="#ff78f1"/><stop offset="1" stop-color="#00fff7"/></linearGradient></defs></g></svg>