<svg xmlns="http://www.w3.org/2000/svg" viewBox="0 0 24 24"><g fill="none"><path fill="#37bec1" d="M3.45 9.86a1.794 1.794 0 0 1 .822-2.369l8.9-4.32a1.72 1.72 0 0 1 2.317.844a1.794 1.794 0 0 1-.821 2.362l-8.9 4.327a1.723 1.723 0 0 1-2.317-.844"/><path fill="#fab244" d="M4.019 15.98a1.93 1.93 0 0 1 .855-2.514l5.963-2.97c.9-.45 1.969-.05 2.396.894a1.93 1.93 0 0 1-.855 2.515l-5.963 2.97c-.9.45-1.969.05-2.396-.894"/><path fill="#e5615d" d="M8.513 19.985a1.794 1.794 0 0 1 .821-2.368l8.9-4.32a1.72 1.72 0 0 1 2.317.843a1.795 1.795 0 0 1-.82 2.363l-8.9 4.326a1.72 1.72 0 0 1-2.318-.844"/></g></svg>