<svg xmlns="http://www.w3.org/2000/svg" viewBox="0 0 24 24"><path fill="#fff" fill-rule="evenodd" d="M4.37 3.142A.19.19 0 0 1 4.56 3h4.953l10.025 5.826c.077.043.11.136.093.218h.005l-.01.016a.2.2 0 0 1-.044.066L12.016 21H6.83L4.38 3.273a.2.2 0 0 1-.01-.11l-.006-.021zm2.88.245l.146 1.075l2.188 1.287l-.328-2.362zm1.908 14.051L7.462 4.948l2.193 1.287l1.2 8.563l-1.691 2.64zm.082.59l.327 2.388l1.702-2.672l-.333-2.357l-1.69 2.64zm2.018-3.142l.328 2.35l5.072-7.985h-1.783zm3.628-6.022l-.028-.017l-4.854-2.852l-.344-2.46l9.174 5.329zm-.371.229l-3.344 5.209l-1.09-7.816z" clip-rule="evenodd"/></svg>