<svg xmlns="http://www.w3.org/2000/svg" viewBox="0 0 24 24"><g fill="none"><path fill="#000" d="M6 11.6c.06.36.51.795.73.97c-.536 1.315-.15 2.715-.15 2.93c0 .22-.186.34-.186.685c0 .34.41.585.535.715c.1.11.125.2.125.23c.26 1.36 1.255 1.835 1.72 1.9c.23.06.42.185.57.315c.215.185.38.4.64.53c.725.375 2.08.62 3.065 1.125c.025-.304.086-.605.18-.895c.105-.325.44-.15.54.175c.475-.955 3.35-2.725 4.13-4.125a3.95 3.95 0 0 0 .325-2.09a6.7 6.7 0 0 0-.325-1.215a2.6 2.6 0 0 1-.13-.935a7.26 7.26 0 0 0-2.1-5.155c-.26-.26-.6-.33-.635-.6c-.05-.445-.72-3.204-3.32-3.16c-2.075.04-3.23 2.075-3.55 3.085c-.135.45-.24.685-.585.975c-1.12.95-1.08 1.9-1.08 1.97c0 .075.01.245-.14.445c-.12.16-.16.31-.16.37v.395c0 .105-.04.125-.115.175c-.145.1-.33.27-.335.45c-.005.22.13.455.2.55c.05.065.04.15.05.19z"/><path fill="#ffb133" fill-rule="evenodd" d="M7.72 12.03c-.05.385.28.52.45.54c.05.01.04.04.024.055c-.265.255-.61.055-.73-.055c-.14-.13-.19-.056-.275.075c-.58.91-.4 2.435-.2 2.47l1.33-.606c-.15-1.13.08-1.764.22-1.94v.15c-.015.46-.035 1.586.36 1.56l.34-.014c1.8-.066 2.515.25 2.65.43c-1.2-.16-2.8-.075-3.76.325s-1.524 1.07-1.325 1.305c.16.19.525.02.685-.085c-.32 1.58.73 2.33 1.3 2.43a7 7 0 0 0-.135-.62a3 3 0 0 1-.125-.91l.825.54v-.636c.735.47 1.99.54 2.73-.045a1.82 1.82 0 0 0 .6-1.8c-.1.296-.625.346-.875.33c.15-.124.45-.434.46-.67c.005-.234-.375-.624-.565-.784c.39-.065.75.145.875.25a2.3 2.3 0 0 0-.425-.905c.324.078.621.238.865.464c-.29-.9-.93-1.32-1.26-1.54c-.125-.08-.205-.134-.205-.174s.12-.06.25-.075c.175-.025.375-.05.33-.15c-.055-.13-.37-.13-.555-.13h-.13c-.06-.02-.025-.06 0-.08a2.54 2.54 0 0 0 1.055-2.215c-.16-.005-.485.35-.485.465c0 .32-.135 1.005-.57 1.25c-.315.175-.62.21-.85.235c-.165.02-.29.035-.36.095s-.13.17-.195.285c-.085.15-.18.32-.315.415c-.195.135-.315.125-.35.1c-.05-.045.045-.14.12-.195s.45-.45.075-.89c-.27-.25-.785-.03-.855.315c-.015.08-.02.16-.02.23c0 .085 0 .15-.03.155c-.05.015-.115-.065-.16-.14c-.19-.315-.75-.165-.79.19m1.294-.18a.35.35 0 0 1 .17.035c.03.015.05.034.07.055q.029.039.05.04c.175-.01.245-.465-.065-.46c-.265 0-.295.335-.225.33m-1 .405c-.115-.215.02-.33.17-.34c.135-.01.25 0 .17.16a.7.7 0 0 1-.13.195c-.065.065-.15.1-.21-.015" clip-rule="evenodd"/><path fill="#f41b46" d="M10.29 5.74a3.04 3.04 0 0 0-1.396 1.57c-.015.04.03.065.06.035a3.9 3.9 0 0 1 2.15-.95c.08 0 .1-.1.025-.13c-.39-.12-.8-.05-1.06.04c-.05.02-.1-.03-.065-.075l.325-.44a.04.04 0 0 0 .004-.02a.035.035 0 0 0-.044-.03"/><path fill="#fa1243" d="M14.06 6.52c.019-.2-.026-.44-.066-.6c-.01-.035.03-.065.055-.04c.12.1.215.225.28.315c.025.04.08.035.085-.01a3 3 0 0 0 .01-.43c0-.074.08-.1.105-.03c.085.215.135.49.15.66c0 .05.03.1.065.13c.16.13.29.265.38.37c.035.05-.01.095-.06.065l-.305-.155a.04.04 0 0 0-.041.006a.04.04 0 0 0-.014.04l.07.35c.015.05-.06.08-.1.034a2.7 2.7 0 0 0-.505-.44c-.085-.055-.12-.165-.11-.265m2.589 5.97c.055-.165.09-.39.11-.565c.01-.055.08-.07.105-.02c.085.195.15.4.18.495c.06-.12.125-.32.175-.485c.02-.06.09-.05.095.01c.01.235 0 .515-.015.69c0 .05.015.11.05.15c.16.185.225.375.245.515c0 .04-.05.05-.08.02a2 2 0 0 0-.335-.33c-.015-.01-.035 0-.03.015c.05.24.03.385 0 .47c-.02.05-.07.03-.085-.02a2.8 2.8 0 0 0-.385-.695a.28.28 0 0 1-.03-.25m-2.175-2.515l-1.98-.785c.05-.12.185-.12.25-.1l1.795.73a.085.085 0 0 1 .074.08a.085.085 0 0 1-.139.07z"/><path fill="#ffb133" d="M15.21 10.02c-.336.02-.51.376-.55.55c.54-.16.959.1.959.16c0 .04-.02.07-.175.176c-.15.1-.05.425-.02.725c.025.245-.04.3-.075.295c-.05 0-.11-.155-.15-.295c-.035-.1-.065-.26-.2-.275c-.1-.015-.18.085-.18.18c0 .17.255.315.285.45a.67.67 0 0 1-.06.47c-.045.075-.075.11-.02.195c.075.12.25.09.365 0c.475-.375.455-1.355.44-1.75a1.14 1.14 0 0 0-.17-.62c-.1-.15-.25-.265-.45-.26"/><path fill="#f9b13c" d="M10.999 8.026a5.5 5.5 0 0 0-1.27.095c-.215.05-.475.135-.68.275c-.185.13-.34.335-.34.565c0 .125.06.225.22.23c.21.01.95-.27 1.37-.39c1.02-.28 1.305-.25 1.445-.25c.135 0 .36.165.455.25c.19.145.15-.08.12-.16c-.225-.66-1.2-1.135-1.23-1.05c-.04.095.17.125.275.295c.085.135-.205.15-.36.14zm-2.635 1.26a.63.63 0 0 1-.055-.435c-.735.35-.18.85-.105.925c.06.06.025.1 0 .105c-.13.065-.07.15.04.13c.06-.01.15-.025.21-.025c.28-.05.2-.285.08-.45zm-1.475.14c-.285.205-.345.375-.315.495c.05.2.175.15.315.09c.24-.1.5-.17.67-.215c.115-.03.13-.025.08-.14c-.06-.15-.12-.235-.185-.28c-.18-.135-.39-.05-.565.05"/><path fill="#f41b46" d="M7.33 11.9h-.05c-.07 0-.11 0-.13-.015c-.04-.025.02-.07.08-.13q.335-.377.564-.825c.02.18 0 .53.11.2c.125-.4.005-.8-.225-.8c-.52.065-.92.245-1.165.41c-.225.155-.275.26-.225.515c.17.89.69.935.945.83c.175-.075.15-.19.095-.19z"/><path fill="#f4f5f9" d="M6.95 10.821c-.06-.01-.42.1-.455.45c-.015.215.03.335.085.395c.08.085.14.035.2-.045c.19-.25.29-.8.17-.8"/><path fill="#f9b13c" d="M8.3 11.13c-.006.22.09.235.144.215c.065-.025.125-.2.2-.3c.1-.14.265-.25.265-.33c0-.05-.19-.41-.335-.35c-.235.095-.265.49-.275.765"/><path fill="#f41b46" d="M9.73 10.825c.064.03.284.275.444.275c.475-.01 1.12-.085 1.35-.575c.115-.255.1-.575.05-.85c-.05-.265-.15-.5-.345-.535c-.22-.045-.46.025-.675.085c-.4.11-.835.275-1.065.345c-.305.085-.35.385-.3.65c.06.385.375.565.54.605"/><path fill="#f4f5f9" d="M9.52 10.239c.005.235.12.295.18.295c.38 0 .55-.88.2-.85c-.25.015-.39.26-.38.555"/></g></svg>