<svg xmlns="http://www.w3.org/2000/svg" viewBox="0 0 24 24"><path fill="#a25cf8" d="M20.273 7.028a10 10 0 0 0-.7-1.388c-.233-.376-.503-.734-.798-.98a.11.11 0 0 0-.11-.015l-1.065.461a.11.11 0 0 0-.063.076a.11.11 0 0 0 .024.096c.21.247.706.836.873 1.104c.207.335.414.746.599 1.19c1.327 3.193.766 10.596-3.789 10.404c-1.052-.044-1.93-.572-2.633-1.403c-.71-.839-1.217-1.964-1.489-3.11c-.274-1.15-.292-2.248-.096-3.019c.098-.383.237-.642.382-.794a.61.61 0 0 1 .475-.208c.463 0 .75.175.953.443c.225.297.381.763.43 1.375c.097 1.203-.312 2.948-.893 4.014a.11.11 0 0 0 .008.119l.714.967a.107.107 0 0 0 .182-.012c.704-1.32 1.452-3.737 1.334-5.203c-.062-.763-.267-1.523-.709-2.108c-.464-.614-1.149-.98-2.019-.98c-.58 0-1.071.234-1.443.628c-.358.379-.585.88-.72 1.41c-.269 1.055-.218 2.396.091 3.697c.312 1.308.901 2.648 1.781 3.689c.888 1.049 2.092 1.815 3.596 1.878c5.68.24 6.779-8.26 5.085-12.33M4.905 17.206c-1.219-1.745-1.742-3.774-1.904-5.408a.11.11 0 0 1 .067-.11l1.127-.46a.11.11 0 0 1 .151.09c.162 1.548.652 3.665 1.659 5.108c.511.731 1.126 1.248 1.861 1.468c.713.213 1.716.07 2.913-.473a.11.11 0 0 1 .132.03l.816 1.029a.108.108 0 0 1-.04.165c-1.322.718-3.119.872-4.203.549c-1.109-.332-1.95-1.088-2.579-1.988"/></svg>