<svg xmlns="http://www.w3.org/2000/svg" viewBox="0 0 24 24"><g fill="none"><path fill="url(#SVGqijtqblU)" d="m11.997 14.129l-5.106-3l-.144.22a6.32 6.32 0 0 0 .846 7.816a6.2 6.2 0 0 0 8.808 0a6.296 6.296 0 0 0 .847-7.816l-.145-.22z"/><path fill="url(#SVGdfv5pK0T)" d="m17.078 11.14l-5.066 2.978L6.91 11.14l5.1-2.69z"/><path fill="url(#SVGU6lmWc1A)" d="m12.002 3l4.404 6.95l-4.404 2.585z"/><path fill="url(#SVGPB9jNmhD)" d="M12.002 3v9.535L7.6 9.945z"/><defs><linearGradient id="SVGqijtqblU" x1="11.997" x2="11.997" y1="3" y2="21.006" gradientUnits="userSpaceOnUse"><stop stop-color="#498be9"/><stop offset="1" stop-color="#56f2ff"/></linearGradient><linearGradient id="SVGdfv5pK0T" x1="11.996" x2="11.996" y1="3.015" y2="20.999" gradientUnits="userSpaceOnUse"><stop stop-color="#4a8cea"/><stop offset=".7" stop-color="#5abef4"/></linearGradient><linearGradient id="SVGU6lmWc1A" x1="13.325" x2="10.874" y1="13.006" y2="21.729" gradientUnits="userSpaceOnUse"><stop stop-color="#fb8174"/><stop offset=".56" stop-color="#568fdd"/></linearGradient><linearGradient id="SVGPB9jNmhD" x1="8.531" x2="9.328" y1="7.767" y2="11.618" gradientUnits="userSpaceOnUse"><stop stop-color="#ffe235"/><stop offset=".61" stop-color="#5dcba2"/></linearGradient></defs></g></svg>