<svg xmlns="http://www.w3.org/2000/svg" viewBox="0 0 24 24"><g fill="none"><path fill="#fcc265" d="M16.296 11.18a.614.614 0 1 0 0-1.228a.614.614 0 0 0 0 1.228M12 12.816l.888 1.227h.748l-.887-1.227z"/><path fill="#fcc265" d="M12.197 11.59h-1.023v-1.403h1.023c.344 0 .622.307.622.684c0 .38-.278.72-.622.72m1.44-.72c0-.728-.532-1.325-1.203-1.325h-2.07v4.5h.818v-1.812h1.26c.655 0 1.195-.63 1.195-1.363"/><path fill="#ffe2b3" d="M15.802 14.11a4.12 4.12 0 0 1-3.441 1.776a4.01 4.01 0 0 1-4.042-4.09c0-2.283 1.739-4.14 4.034-4.14l-2.614.228l-1.694 1.69l-.687 2.68l.617 1.918l.618 1.227l1.387.925l2.459.458l1.309-.388l1.771-1.228z"/><path fill="#fcc265" d="M20.972 12.898c-.086-.437-.585-.744-.953-.94a2.76 2.76 0 0 0-1.445-.369c-.294 0-.409.09-.437.176c-.058.02 1.116.491 1.783 1.043c.041.029.266.213.262.295c0 .09-.27.143-.327.164c-.655.184-1.367.204-2.041.204c-.537 0-1.085-.04-1.207-.04c-.712-.058-1.49-.083-2.201-.124c-.328-.016-.36.013-.36.013c-.009.094.204.27.654.462c.23.098.532.196.937.274c.033 0-.45.663-.68.88A4.25 4.25 0 0 1 12 16.089a4.13 4.13 0 0 1-4.09-4.246a4.185 4.185 0 0 1 4.082-4.116c1.035-.012 2.013.418 2.855.998a.06.06 0 0 0 .017-.045c0-.057-.057-.139-.078-.175c-.552-.917-1.775-1.334-2.794-1.412h-.196c-2.647-.033-4.574 2.042-4.77 4.451c-.819-.213-3.052-.781-3.208-1.677c.107-.18.86-.401 2.974-.323c.082-.246.287-.544.43-.761c-2.647-.143-4.054.176-4.206.949q-.014.079-.016.151c0 1.297 3.044 2.148 4.026 2.443A4.95 4.95 0 0 0 12 16.907a4.78 4.78 0 0 0 3.617-1.681q.397-.491.654-1.064c.614.082 1.228.095 1.841.095c.712 0 1.502-.046 2.168-.307c.32-.119.716-.385.716-.765c.013-.115-.008-.209-.024-.287"/></g></svg>