<svg xmlns="http://www.w3.org/2000/svg" viewBox="0 0 24 24"><g fill="none"><path fill="url(#SVGVnU9FkVw)" d="m8.574 7.48l-.107.119l-3.181 3.547c-.553.553-.918.181-.912-.303V8.26a2.48 2.48 0 0 1 .643-1.604A2 2 0 0 1 6.478 6h2.096l-.611.692l-.708.79z"/><path fill="url(#SVGCloCWoFQ)" d="M19.627 9.112a5.9 5.9 0 0 1-1.55 3.83l-7.482 7.482c-.414.37-.95.576-1.507.576a3 3 0 0 1-.45-.042l-.44-.136a11 11 0 0 1-1.37-.586l-.094-.053a.31.31 0 0 1-.126-.261a.33.33 0 0 1 .063-.2l8.393-8.403a.7.7 0 0 0 .104-.146q.08-.151.126-.314a1.4 1.4 0 0 0 .032-.21a.5.5 0 0 0 .01-.136a1.4 1.4 0 0 0-.41-.99c-.264-.264-.62-.524-.992-.524h-3.066l2.06-1.95a.538.538 0 0 0-.293-.984H8.253s.428-.46.595-.627c.377-.408.837-.931 1.34-1.298A5.87 5.87 0 0 1 13.682 3c.745 0 1.483.139 2.177.408l.283.115c.502.231.97.53 1.392.89l.084.073h.01a5.95 5.95 0 0 1 1.999 4.447z"/><path fill="#e35cc7" d="M13.438 5.999h-5.11L5.672 8.422a.338.338 0 0 0 .06.521a.35.35 0 0 0 .192.056h5.738l2.217-2.186a.46.46 0 0 0 .095-.288a.52.52 0 0 0-.157-.372a.54.54 0 0 0-.379-.154m-2.207 1.505a.35.35 0 0 1-.241-.096a.34.34 0 0 1-.105-.234a.33.33 0 0 1 .157-.278a.33.33 0 0 1 .179-.052a.34.34 0 0 1 .313.199a.325.325 0 0 1-.067.36a.34.34 0 0 1-.236.101"/><path fill="#8961d0" d="M8.253 6.066L5.693 8.37a.366.366 0 0 0 .261.63h1.12l3.176-2.934zm3.107 1.528a.334.334 0 1 0 0-.669a.334.334 0 0 0 0 .669"/><path fill="url(#SVGPIIrjeua)" d="M11.36 7.593a.335.335 0 1 0 0-.67a.335.335 0 0 0 0 .67"/><path fill="#480061" d="M11.684 7.258a.335.335 0 0 0-.325-.335a.36.36 0 0 0-.293.168a.34.34 0 0 1 .354-.06a.32.32 0 0 1 .201.3v.01a.3.3 0 0 1-.042.158a.33.33 0 0 0 .105-.24"/><path fill="url(#SVGT7ss5b4J)" d="M13.439 5.999h-5.12L5.673 8.422c-.203.205-.051.57.243.577h5.745l2.22-2.186a.46.46 0 0 0 .095-.288a.52.52 0 0 0-.157-.372a.54.54 0 0 0-.38-.154m-2.221 1.505a.34.34 0 0 1-.31-.204a.3.3 0 0 1-.027-.126a.33.33 0 0 1 .158-.279a.33.33 0 0 1 .179-.05a.34.34 0 0 1 .231.1c.06.061.095.143.095.23a.34.34 0 0 1-.097.227a.35.35 0 0 1-.23.102"/><path fill="url(#SVGtktyMbFb)" d="M8.316 5.999L5.691 8.38c-.258.235-.21.619.183.619h1.338l3.162-3z"/><path fill="url(#SVGrsb4ccbO)" d="m12.474 9l1.38-2.166L11.659 9z"/><defs><linearGradient id="SVGVnU9FkVw" x1="4.374" x2="19.627" y1="11.961" y2="11.961" gradientUnits="userSpaceOnUse"><stop stop-color="#4750d9"/><stop offset=".41" stop-color="#5c45dc"/><stop offset="1" stop-color="#8131e1"/></linearGradient><linearGradient id="SVGCloCWoFQ" x1="4.373" x2="19.627" y1="11.999" y2="11.999" gradientUnits="userSpaceOnUse"><stop stop-color="#e96161"/><stop offset=".2" stop-color="#e65b76"/><stop offset=".61" stop-color="#df4aac"/><stop offset="1" stop-color="#d739e6"/></linearGradient><linearGradient id="SVGPIIrjeua" x1="4.346" x2="19.436" y1="11.999" y2="11.999" gradientUnits="userSpaceOnUse"><stop stop-color="#b100d3"/><stop offset=".23" stop-color="#9c00c0"/><stop offset=".69" stop-color="#67008e"/><stop offset="1" stop-color="#40006a"/></linearGradient><linearGradient id="SVGT7ss5b4J" x1="4.367" x2="19.628" y1="11.999" y2="11.999" gradientUnits="userSpaceOnUse"><stop stop-color="#d0d7d3"/><stop offset=".52" stop-color="#d9c5e8"/><stop offset="1" stop-color="#e3b1ff"/></linearGradient><linearGradient id="SVGtktyMbFb" x1="4.533" x2="19.624" y1="11.999" y2="11.999" gradientUnits="userSpaceOnUse"><stop stop-color="#b277ec"/><stop offset=".77" stop-color="#9336e7"/><stop offset="1" stop-color="#8921e6"/></linearGradient><linearGradient id="SVGrsb4ccbO" x1="11.796" x2="13.967" y1="8.028" y2="8.028" gradientUnits="userSpaceOnUse"><stop stop-opacity=".5"/><stop offset=".1" stop-color="#201322" stop-opacity=".59"/><stop offset=".25" stop-color="#4a2c4e" stop-opacity=".72"/><stop offset=".4" stop-color="#6d4173" stop-opacity=".82"/><stop offset=".55" stop-color="#885190" stop-opacity=".9"/><stop offset=".85" stop-color="#a664b0"/></linearGradient></defs></g></svg>