<svg xmlns="http://www.w3.org/2000/svg" viewBox="0 0 24 24"><g fill="none"><path fill="url(#SVG3hDnJcpR)" d="M10.3 6.584A1.58 1.58 0 0 0 9.35 6h3.654c.585 0 .97.55 1.09.82L18 13.95v3.126c-.085.615-.47.93-.905.93c-.35 0-.875-.575-1-.86L11.049 7.51l-.745-.925z"/><path fill="url(#SVGKxQyKb6C)" d="M12.215 15.5h-5.5c-.166.08-.52.25-.566.285c-.04.035-.335 1.49-.475 2.215h7.49c.186 0 .3-.205.21-.37z"/><path fill="url(#SVGZaEsicMN)" d="M6.784 15.58c-.95 1.83.84 2.41.885 2.42H4.314C2.8 18 2.9 16.78 3.14 16.17c1.585-2.996 4.78-9.05 4.89-9.306C8.164 6.544 8.55 6 9.2 6c.52 0 .88.285.99.425l.85 1.075c-1.1 2.085-3.5 6.616-4.255 8.08"/><path fill="url(#SVG4l1JpbtZ)" d="M21 17.261c0 .41-.325.74-.725.74H17.03c.665 0 .91-.6.97-.9V6.571c0-.316.29-.576.6-.576h1.835A.57.57 0 0 1 21 6.57z"/><defs><linearGradient id="SVG3hDnJcpR" x1="5.185" x2="13.942" y1="6.649" y2="20.893" gradientUnits="userSpaceOnUse"><stop stop-color="#06a9ee"/><stop offset="1" stop-color="#00529b"/></linearGradient><linearGradient id="SVGKxQyKb6C" x1="4.176" x2="20.637" y1="11.519" y2="11.519" gradientUnits="userSpaceOnUse"><stop stop-color="#134491"/><stop offset="1" stop-color="#00adf0"/></linearGradient><linearGradient id="SVGZaEsicMN" x1="11.999" x2="11.999" y1="5.994" y2="18.005" gradientUnits="userSpaceOnUse"><stop stop-color="#0458a0"/><stop offset="1" stop-color="#00ace8"/></linearGradient><linearGradient id="SVG4l1JpbtZ" x1="19.005" x2="19.005" y1="6" y2="18.001" gradientUnits="userSpaceOnUse"><stop stop-color="#05599f"/><stop offset="1" stop-color="#00adf0"/></linearGradient></defs></g></svg>