<svg xmlns="http://www.w3.org/2000/svg" viewBox="0 0 24 24"><g fill="none"><path fill="url(#SVGtoFwTdDp)" d="M12 21a9 9 0 1 0 0-18a9 9 0 0 0 0 18"/><path fill="#f6f7f3" fill-rule="evenodd" d="M7.378 16.659c.789.99 2.552 3.002 7.264 1.906c-.832-.715-2.5-2.594-2.558-4.379c-.82-.116-2.393-.704-2.096-2.133c.063.508.561 1.588 2.012 1.826c.217.016.757.016 1.18-.1c.286-.08.456-.037.667.01c.175.043.376.09.71.09c.736 0 1.673-.937 2.012-1.297l-1.176-1.122a2.06 2.06 0 0 0 .651-1.7l2.838-2.435l-3.494 1.239a3.83 3.83 0 0 0-2.208-.72c-1.323 0-5.273 1.228-5.802 5.585zm6.819-7.09c-.254.472-.694 1.467-.387 1.69c.313.222.9-.366 1.165-.689c-.265-.169-.778-.619-.778-1" clip-rule="evenodd"/><path fill="url(#SVGdUCOXdyC)" d="M9.803 8.464c-3.018 2.012-3.288 6.21-3.044 8.058c-.614-.863-1.641-2.568-1.641-4.384c0-1.456.582-2.806.868-3.298l.678-.37h2.17l-1.466-.895h-.53c1.133-1.483 3.283-2.256 4.22-2.457l1.34 1.7V5.425l-.117-.307c2.837.106 4.304 1.588 4.685 2.308l-2.001.44c-1.89-1.07-4.23-.048-5.162.598"/><path fill="url(#SVGBnjQQQ5A)" d="M19.942 12a7.941 7.941 0 1 1-1.626-4.818l-.54.17a7.411 7.411 0 1 0 .53.74l.423-.301A7.9 7.9 0 0 1 19.942 12"/><defs><linearGradient id="SVGtoFwTdDp" x1="22.408" x2="12" y1="7.511" y2="21" gradientUnits="userSpaceOnUse"><stop stop-color="#0d183a"/><stop offset=".22" stop-color="#112a73"/><stop offset=".29" stop-color="#13224e"/><stop offset=".46" stop-color="#18417b"/><stop offset=".73" stop-color="#0f2771"/><stop offset="1" stop-color="#0d1839"/></linearGradient><linearGradient id="SVGdUCOXdyC" x1="19.239" x2="7.592" y1="6.845" y2="22.374" gradientUnits="userSpaceOnUse"><stop stop-color="#8ef6ee"/><stop offset=".3" stop-color="#5c71d9"/><stop offset=".67" stop-color="#d73960"/><stop offset="1" stop-color="#f8cf44"/></linearGradient><linearGradient id="SVGBnjQQQ5A" x1="3.816" x2="20.773" y1="11.1" y2="15.986" gradientUnits="userSpaceOnUse"><stop stop-color="#1774c8"/><stop offset="1" stop-color="#17458a"/></linearGradient></defs></g></svg>