<svg xmlns="http://www.w3.org/2000/svg" viewBox="0 0 24 24"><g fill="#00019e"><path fill-rule="evenodd" d="M12.768 17.801c1.985-.301 5.585-1.863 5.585-5.685c0-1.8-1.043-3.23-1.043-4.929c0-.47.667-1.122 1.175-1.62a8 8 0 0 1 .397-.37l-.392-.365A153 153 0 0 0 16.452 3c-.27.196-1.064.53-2.075.53S12.371 3.195 12 3c-.37.196-1.366.53-2.377.53A3.97 3.97 0 0 1 7.548 3q-1.227 1.088-2.43 2.202c.122.106.26.228.397.365c.508.498 1.191 1.15 1.191 1.62c0 1.694-1.058 3.124-1.058 4.924c0 3.827 3.605 5.389 5.585 5.69l.767.551zM12 17.696l.556-.398l.127-.02c2.716-.414 5.124-2.24 5.124-5.162c0-1.81-1.043-3.213-1.043-4.929c0-.804.805-1.471 1.335-1.99a135 135 0 0 0-1.726-1.546a5 5 0 0 1-1.996.408A6.6 6.6 0 0 1 12 3.582a6.6 6.6 0 0 1-2.377.477c-.82 0-1.535-.201-1.996-.408a135 135 0 0 0-1.725 1.546c.566.556 1.334 1.096 1.334 1.99c0 1.716-1.043 3.124-1.043 4.924c0 2.927 2.403 4.753 5.124 5.166l.127.021z" clip-rule="evenodd"/><path fill-rule="evenodd" d="M12.53 20.47c2.006-.068 6.431-1.365 8.369-5.981l.084-.212l.016-.037l-1.662-.651c-.688 1.694-3.176 5.029-7.369 5.029c-4.219 0-6.601-3.335-7.295-5.03L3 14.24l.101.248c1.953 4.617 6.406 5.914 8.417 5.983l.508.529l.508-.53zm-.504.149l.387-.408l.106-.005c1.942-.064 6.246-1.329 8.136-5.818l-1.175-.46c-.836 1.805-3.361 4.954-7.517 4.954c-4.177 0-6.601-3.155-7.433-4.955l-1.185.466c1.905 4.484 6.236 5.75 8.184 5.813h.106z" clip-rule="evenodd"/><path d="M7.982 4.859c.07-.069.085-.212.085-.27c-.196 0-.286.265-.312.397a.5.5 0 0 0 .227-.127m-.148.355c.085-.022.159-.133.185-.186c-.158-.09-.349.085-.423.186a.5.5 0 0 0 .238 0m-.053.317c.064-.063.085-.2.085-.26c-.18-.004-.275.244-.297.371a.5.5 0 0 0 .212-.11m.058.381c.006-.095-.063-.206-.106-.254c-.132.127-.042.376.022.487a.6.6 0 0 0 .084-.233m-.28.011a.38.38 0 0 0-.254-.053c.016.185.264.254.386.265a.6.6 0 0 0-.132-.212m.116.323c-.063-.058-.196-.064-.249-.058c.016.185.265.254.387.264a.6.6 0 0 0-.138-.211zm.334.069c-.021-.09-.122-.175-.175-.207c-.09.164.069.37.159.46a.6.6 0 0 0 .016-.253m-.212.148c-.08-.026-.201.016-.254.042c.08.17.333.143.455.106a.54.54 0 0 0-.201-.148m.524.116c-.053-.068-.18-.095-.238-.105c-.016.19.212.307.333.338a.6.6 0 0 0-.095-.233m-.291.106c-.085-.01-.196.053-.238.09c.106.154.354.07.46.01a.5.5 0 0 0-.222-.105zm.275.122c-.084 0-.185.085-.227.122c.127.137.36.026.46-.053a.5.5 0 0 0-.233-.069"/><path d="M8.458 7.093a.6.6 0 0 0 .095-.249c-.122.027-.228.27-.265.392a.6.6 0 0 0 .17-.143M7.53 5.69c-.037-.08-.159-.138-.211-.159c-.053.186.153.35.264.408a.6.6 0 0 0-.053-.249m0-.344c-.02-.09-.116-.175-.164-.212c-.1.16.058.376.148.46a.5.5 0 0 0 .016-.248m.265-.508c.026-.085-.026-.201-.058-.249c-.201.085-.159.333-.106.45a.5.5 0 0 0 .159-.201z"/><path d="M7.632 5.081c-.016-.08-.116-.148-.164-.17c-.116.18.037.36.132.424c.016-.053.053-.169.032-.254m1.504-.222c-.07-.069-.085-.212-.085-.27c.196 0 .286.265.312.397a.6.6 0 0 1-.227-.127m.148.355c-.085-.022-.159-.133-.185-.186c.158-.09.349.085.423.186a.5.5 0 0 1-.238 0m.053.317c-.064-.063-.085-.2-.085-.26c.18-.004.275.244.297.371a.5.5 0 0 1-.212-.11m-.058.381c-.006-.095.063-.206.105-.254c.133.127.043.376-.02.487a.6.6 0 0 1-.085-.233m.28.011a.38.38 0 0 1 .254-.053c-.016.185-.264.254-.386.265a.5.5 0 0 1 .132-.212m-.116.323c.063-.058.196-.064.249-.058c-.016.185-.265.254-.387.264c.021-.042.069-.153.138-.211zm-.334.069c.021-.09.122-.175.175-.207c.09.164-.069.37-.159.46a.6.6 0 0 1-.016-.253m.212.148c.08-.026.201.016.254.042c-.08.17-.333.143-.455.106a.6.6 0 0 1 .201-.148m-.524.116c.053-.068.18-.095.238-.105c.016.19-.212.307-.333.338a.6.6 0 0 1 .095-.233m.291.106c.085-.01.196.053.238.09c-.106.154-.354.07-.46.01a.5.5 0 0 1 .222-.105zm-.275.122c.084 0 .185.085.227.122c-.127.137-.36.026-.46-.053a.5.5 0 0 1 .233-.069"/><path d="M8.66 7.093a.7.7 0 0 1-.096-.249c.122.027.228.27.265.392a.6.6 0 0 1-.17-.143m.926-1.403c.037-.08.159-.138.211-.159c.053.186-.153.35-.264.408c0-.053.01-.17.053-.249m0-.344c.02-.09.116-.175.164-.212c.1.16-.058.376-.148.46a.6.6 0 0 1-.016-.248m-.265-.508c-.026-.085.026-.201.058-.249c.201.085.159.333.106.45a.6.6 0 0 1-.159-.201z"/><path d="M9.485 5.081c.016-.08.117-.148.164-.17c.117.18-.037.36-.132.424a.6.6 0 0 1-.032-.254m5.379-.222c.068-.069.084-.212.084-.27c-.195 0-.286.265-.312.397a.5.5 0 0 0 .228-.127m-.149.355c.085-.022.16-.133.186-.186c-.159-.09-.35.085-.424.186c.043.01.159.026.239 0m-.053.317c.064-.063.085-.2.085-.26c-.18-.004-.275.244-.296.371a.5.5 0 0 0 .211-.11m.059.381c.005-.095-.064-.206-.106-.254c-.133.127-.043.376.021.487a.6.6 0 0 0 .085-.233m-.28.011a.4.4 0 0 0-.255-.053c.016.185.265.254.386.265a.6.6 0 0 0-.132-.212m.116.323c-.064-.058-.196-.064-.25-.058c.017.185.265.254.387.264a.6.6 0 0 0-.137-.211zm.333.069c-.021-.09-.122-.175-.175-.207c-.09.164.07.37.16.46a.6.6 0 0 0 .015-.253m-.212.148c-.079-.026-.2.016-.254.042c.08.17.334.143.456.106a.54.54 0 0 0-.202-.148m.524.116c-.053-.068-.18-.095-.238-.105c-.016.19.212.307.334.338a.6.6 0 0 0-.096-.233m-.29.106c-.085-.01-.197.053-.239.09c.106.154.355.07.46.01a.5.5 0 0 0-.222-.105zm.275.122c-.085 0-.186.085-.228.122c.127.137.36.026.46-.053a.5.5 0 0 0-.232-.069"/><path d="M15.34 7.093a.6.6 0 0 0 .095-.249c-.122.027-.227.27-.264.392a.6.6 0 0 0 .17-.143m-.926-1.403c-.037-.08-.16-.138-.212-.159c-.053.186.153.35.265.408a.6.6 0 0 0-.053-.249m0-.344c-.022-.09-.117-.175-.165-.212c-.1.16.059.376.149.46a.5.5 0 0 0 .016-.248m.264-.508c.027-.085-.026-.201-.058-.249c-.201.085-.159.333-.106.45a.5.5 0 0 0 .16-.201z"/><path d="M14.514 5.081c-.016-.08-.116-.148-.164-.17c-.116.18.037.36.132.424c.016-.053.053-.169.032-.254m1.503-.222c-.068-.069-.084-.212-.084-.27c.196 0 .286.265.312.397a.6.6 0 0 1-.228-.127m.149.355c-.085-.022-.159-.133-.186-.186c.16-.09.35.085.424.186a.5.5 0 0 1-.238 0m.053.317c-.064-.063-.085-.2-.085-.26c.18-.004.275.244.296.371a.5.5 0 0 1-.211-.11m-.059.381c-.005-.095.064-.206.106-.254c.133.127.043.376-.02.487a.6.6 0 0 1-.085-.233m.281.011a.4.4 0 0 1 .254-.053c-.016.185-.265.254-.386.265a.5.5 0 0 1 .132-.212m-.116.323c.063-.058.195-.064.248-.058c-.015.185-.264.254-.386.264c.021-.042.069-.153.138-.211zm-.334.069c.021-.09.122-.175.175-.207c.09.164-.07.37-.159.46a.6.6 0 0 1-.016-.253m.212.148c.08-.026.201.016.254.042c-.08.17-.334.143-.455.106a.6.6 0 0 1 .2-.148m-.524.116c.053-.068.18-.095.238-.105c.016.19-.212.307-.334.338a.5.5 0 0 1 .096-.233m.29.106c.086-.01.197.053.239.09c-.106.154-.354.07-.46.01a.5.5 0 0 1 .222-.105zm-.274.122c.084 0 .185.085.227.122c-.127.137-.36.026-.46-.053a.5.5 0 0 1 .233-.069"/><path d="M15.542 7.093a.7.7 0 0 1-.096-.249c.122.027.228.27.265.392a.6.6 0 0 1-.17-.143m.926-1.403c.037-.08.159-.138.212-.159c.053.186-.154.35-.265.408a.6.6 0 0 1 .053-.249m0-.344c.021-.09.116-.175.164-.212c.1.16-.058.376-.148.46a.6.6 0 0 1-.016-.248m-.265-.508c-.026-.085.027-.201.059-.249c.2.085.158.333.105.45a.56.56 0 0 1-.159-.201z"/><path d="M16.367 5.08c.016-.08.117-.148.165-.17c.116.18-.038.36-.133.424a.6.6 0 0 1-.032-.254m-4.446.111c0-.042.037-.074.09-.074h.338c.053 0 .09.032.09.074c0 .043-.037.08-.09.08h-.338c-.053 0-.09-.037-.09-.08m.19.212c0-.037.043-.074.09-.074h.318c.042 0 .085.037.085.08c0 .042-.043.073-.09.073H12.2c-.053 0-.09-.031-.09-.074zm-.116.275c0-.042.047-.074.095-.069l.582.037c.048 0 .085.043.08.08c0 .042-.048.074-.096.074l-.582-.042c-.048 0-.085-.037-.08-.08m.19.276c.006-.043.053-.07.1-.07l.626.054c.047 0 .084.042.079.079c-.005.042-.053.074-.1.069l-.62-.053c-.053 0-.085-.037-.085-.08m.08.296c.005-.037.053-.069.1-.058l.725.1c.053 0 .085.043.075.085c-.006.042-.053.069-.106.064l-.72-.106c-.053 0-.085-.043-.074-.085m-.08.397c.006-.042.053-.074.1-.069l.954.09c.047 0 .08.043.074.085c0 .042-.048.069-.095.063l-.953-.084c-.048-.006-.085-.043-.08-.085m.302.333c.01-.042.058-.068.106-.058l.847.16c.048.015.08.052.063.094c-.01.043-.053.064-.105.053l-.847-.159c-.048-.01-.075-.052-.064-.09m-1.313 1.684c-.18.021-.354.053-.466.069a.09.09 0 0 1-.106-.058c0-.043.027-.085.075-.096c.105-.016.29-.047.476-.069c.175-.02.365-.042.482-.037c.053 0 .084.043.084.085s-.042.074-.09.074c-.105 0-.275.01-.455.032"/><path d="M11.47 7.765h1.059l-.09 1.059h-.9zm.233.175l.047.71h.477l.063-.71z"/><path d="M12.164 7.929c0-.042.042-.08.09-.08q.566.012 1.127.096c.16.032.307.069.418.127a.074.074 0 0 1 .032.106a.084.084 0 0 1-.116.026a1.5 1.5 0 0 0-.37-.106a9 9 0 0 0-1.091-.09c-.053 0-.09-.037-.09-.079m.566.318c0-.043.048-.074.095-.07q.374.033.736.128a.8.8 0 0 1 .207.095c.037.032.042.08.01.111a.095.095 0 0 1-.122.016a.6.6 0 0 0-.158-.074q-.34-.09-.688-.122c-.053 0-.085-.042-.08-.084m-.519.317c0-.042.043-.074.09-.074q.588.036 1.165.159a.9.9 0 0 1 .296.116c.043.027.053.075.022.106a.095.095 0 0 1-.122.021a1 1 0 0 0-.244-.095c-.11-.032-.243-.053-.38-.08a8 8 0 0 0-.742-.073c-.053 0-.09-.037-.085-.08m.445.37c.005-.042.053-.068.095-.068q.431.046.853.148a.7.7 0 0 1 .211.095c.032.032.037.08 0 .106a.095.095 0 0 1-.116.011a.5.5 0 0 0-.148-.064a6 6 0 0 0-.816-.137c-.053-.005-.084-.043-.079-.085zm-.106.424a15 15 0 0 0-1.419 0c-.053.006-.09-.026-.095-.068c0-.043.037-.08.085-.085c.36-.016.926-.032 1.44 0c.264.01.508.032.72.069c.2.037.38.09.487.174c.037.027.042.074.01.106a.095.095 0 0 1-.122.01c-.068-.052-.211-.1-.412-.137a7 7 0 0 0-.689-.069zm-.471.26c0-.037.042-.074.09-.074c.19.005.498.02.8.058c.301.037.608.095.799.185c.042.021.058.069.037.106a.086.086 0 0 1-.117.032c-.159-.074-.444-.127-.74-.164a9 9 0 0 0-.784-.059c-.053 0-.085-.037-.085-.079zm1.233.577a3 3 0 0 0-.391-.027c-.053 0-.09-.031-.09-.074s.037-.08.084-.08c.1 0 .265 0 .424.022s.328.064.44.138c.036.026.047.074.015.105a.095.095 0 0 1-.122.022c-.074-.053-.206-.085-.36-.106m-.847.264c0-.047.043-.079.09-.079q.504.01 1.001.09l.127.042c.037.016.08.032.106.059a.077.077 0 0 1 0 .11a.095.095 0 0 1-.122 0a.2.2 0 0 0-.053-.026a3 3 0 0 0-.413-.079a8 8 0 0 0-.646-.042c-.053 0-.084-.032-.084-.08zm.37.371c.006-.037.054-.069.102-.058h.079l.042.005q.273.018.54.069a.8.8 0 0 1 .254.111a.072.072 0 0 1 .016.106a.096.096 0 0 1-.121.016a.6.6 0 0 0-.196-.085a4 4 0 0 0-.503-.063h-.037l-.106-.006c-.053-.01-.08-.053-.074-.09z"/><path d="M10.243 7.695c.09 0 .159.063.159.143v2.647c0 .074-.07.143-.16.143c-.084 0-.158-.07-.158-.143V7.838c0-.08.074-.143.159-.143m3.525 0c.09 0 .16.063.16.143v3.584c0 .08-.07.143-.16.143c-.084 0-.159-.064-.159-.143V7.838c0-.08.075-.143.16-.143"/><path d="M11.963 4.058c.09 0 .159.064.159.143v.148l1.588 2.922c.111.048.196.09.264.138c.032.027.07.053.09.09a.2.2 0 0 1 .053.127a.32.32 0 0 1-.084.233a.36.36 0 0 1-.265.095a4 4 0 0 1-.228-.042h-.005l-.334-.085a6 6 0 0 0-1.196-.121a5.2 5.2 0 0 0-1.667.243a.5.5 0 0 1-.254-.01a.3.3 0 0 1-.143-.096a.28.28 0 0 1-.059-.175c0-.074.032-.142.064-.195q.155-.181.36-.302l1.498-2.822v-.148c0-.08.074-.143.159-.143m0 .657L10.719 7.07l.09-.01c.254-.027.635-.043 1.196-.043c.54 0 .964.053 1.281.122zm-1.445 2.678a1.4 1.4 0 0 0-.212.143a.4.4 0 0 0-.08.085c-.02.026-.02.037-.02.042l.026.005h.032c.248-.09.9-.254 1.747-.254a6 6 0 0 1 1.614.212h.01l.107.032h.058v-.01a4.5 4.5 0 0 0-1.79-.35q-.713-.002-1.424.08z"/><path fill-rule="evenodd" d="M9.882 11.152v-.683c0-.048.318-.058.514-.058c.122.254 2.647.847 2.964.91c.254.053.609.186.757.244v.757c0 .137-.275.196-.407.206v-.264zm.503-.477l.392.112v.513l-.392-.106zm.969.281l-.392-.106v.508l.392.111zm.185.037l.392.111v.514l-.392-.111zm1.032.28l-.396-.105v.508l.396.106zm.18.064l.392.106v.514l-.392-.106zm1.006.254l-.397-.106v.509l.392.106v-.509zm-8.221 2.631c.027.09.053.175.09.265H5.52l-.212.159l-.402-1.006l-.752.333l-.127-.296l.9-.582l-.031-.08c-.07-.2-.098-.413-.08-.624l.027-.106a.4.4 0 0 1 .079-.133l.01-.01a.2.2 0 0 1 .038-.032a.5.5 0 0 1 .206-.074q.009.133.021.264c.032.705.154 1.34.339 1.922m-1.7-.646l.885-.571l-.021-.08a1.6 1.6 0 0 1-.048-.54v-.016a.67.67 0 0 1 .159-.354l.005-.01l.005-.006h-.01l-.005.005l-1.716.921c-.211.487 0 .837.133.953zm-.529-.037l.397-.19l.715-.46a2 2 0 0 1-.037-.355l-1.08.582a.57.57 0 0 0 .005.423m15.178.948h-.106l.09-.265a7.6 7.6 0 0 0 .354-2.186a.5.5 0 0 1 .165.053a.35.35 0 0 1 .127.106v.01c.02.021.031.053.042.08a.6.6 0 0 1 .026.116a1.4 1.4 0 0 1-.08.614l-.03.08l.9.582l-.128.296l-.752-.333l-.397 1.006zm2.292-.609c.132-.116.344-.466.132-.953l-1.688-.905l-.027-.016h-.005l-.01-.005l.03.032a.67.67 0 0 1 .139.349v.005c.019.21-.005.42-.07.62l.885.571zm-.482-.53l.397.191a.55.55 0 0 0 0-.423l-1.07-.588c0 .122-.015.244-.036.355l.714.46z" clip-rule="evenodd"/><path d="M10.952 14.646a.6.6 0 0 1-.228-.037a.5.5 0 0 1-.17-.106a.5.5 0 0 1-.105-.164a.6.6 0 0 1-.037-.223q-.002-.12.037-.217a.46.46 0 0 1 .275-.275a.6.6 0 0 1 .227-.037q.128-.002.223.037a.44.44 0 0 1 .265.27a.6.6 0 0 1 .031.196v.08h-.804v.036a.26.26 0 0 0 .08.191c.052.053.131.074.227.074a.4.4 0 0 0 .185-.042a.4.4 0 0 0 .127-.106l.143.116a.46.46 0 0 1-.19.154a.7.7 0 0 1-.287.053m0-.895a.3.3 0 0 0-.117.021a.3.3 0 0 0-.09.053a.3.3 0 0 0-.058.085a.3.3 0 0 0-.021.106v.016h.545v-.021a.25.25 0 0 0-.069-.186a.26.26 0 0 0-.19-.074m3.695.895a.6.6 0 0 1-.217-.037a.5.5 0 0 1-.17-.106a.5.5 0 0 1-.106-.164a.6.6 0 0 1-.037-.223q-.002-.12.037-.217a.46.46 0 0 1 .276-.275a.6.6 0 0 1 .217-.037q.12-.002.217.037a.45.45 0 0 1 .275.275a.6.6 0 0 1 .037.217q.002.12-.037.223a.5.5 0 0 1-.106.164a.5.5 0 0 1-.17.106a.6.6 0 0 1-.216.037m0-.175a.28.28 0 0 0 .2-.069c.054-.042.075-.106.075-.2v-.17c0-.09-.027-.16-.074-.201a.3.3 0 0 0-.201-.07a.28.28 0 0 0-.202.07c-.053.042-.074.105-.074.2v.17q.002.136.074.201a.28.28 0 0 0 .202.07m1.058.175v-1.033h.265v.17h.016a.3.3 0 0 1 .127-.138a.4.4 0 0 1 .233-.058a.43.43 0 0 1 .307.106q.111.105.111.297v.656H16.5v-.63c0-.159-.084-.244-.248-.244a.5.5 0 0 0-.19.048a.2.2 0 0 0-.065.053a.14.14 0 0 0-.02.08v.693zm-2.297 0c-.069 0-.17-.016-.201-.048a.18.18 0 0 1-.053-.132v-.508h-.095v-.143c.037 0 .053.01.074-.021c.016-.011.02-.032.02-.064v-.143h.244v.228h.19v.143h-.19v.545h.175v.143zm-1.408 0v-1.059h.264v.201h.006a.3.3 0 0 1 .084-.137c.048-.043.043-.064.122-.064h.053v.212h-.08c-.079 0-.079.016-.126.042a.14.14 0 0 0-.059.127v.678zm-4.765 0v-1.588h1.06v.227H7.5v.44h.72v.227h-.715v.466h.79v.228zm1.975 0l-.387-1.059h.239l.17.482l.116.37h.015l.117-.37l.175-.482h.227l-.392 1.059zm3.446 1.81q-.002.082.037.133a.12.12 0 0 0 .1.047a.12.12 0 0 0 .101-.053a.2.2 0 0 0 .037-.127a.22.22 0 0 0-.037-.132a.12.12 0 0 0-.105-.048a.12.12 0 0 0-.096.053a.2.2 0 0 0-.037.127m.016-.465q0 .076.032.121c.021.032.053.043.09.043a.1.1 0 0 0 .09-.043a.2.2 0 0 0 .032-.121a.2.2 0 0 0-.032-.122a.1.1 0 0 0-.09-.042a.1.1 0 0 0-.09.042a.2.2 0 0 0-.032.122m-.016.216a.3.3 0 0 1-.08-.095a.3.3 0 0 1-.026-.127a.3.3 0 0 1 .07-.201a.23.23 0 0 1 .174-.08q.103 0 .175.08a.3.3 0 0 1 .068.201a.26.26 0 0 1-.106.223q.062.04.096.105c.04.083.045.178.016.265a.3.3 0 0 1-.064.106a.245.245 0 0 1-.287.063a.3.3 0 0 1-.084-.063a.32.32 0 0 1-.079-.222c0-.053.01-.106.032-.149a.26.26 0 0 1 .095-.105m-1.059.25c0 .052.01.1.037.132a.12.12 0 0 0 .101.047a.12.12 0 0 0 .1-.053a.2.2 0 0 0 .038-.127a.2.2 0 0 0-.037-.132a.12.12 0 0 0-.106-.048a.12.12 0 0 0-.096.053a.2.2 0 0 0-.037.127m.016-.466q0 .076.032.121c.021.032.053.043.09.043a.1.1 0 0 0 .09-.043a.2.2 0 0 0 .032-.121c0-.053-.01-.09-.032-.122a.1.1 0 0 0-.09-.043a.1.1 0 0 0-.09.043a.2.2 0 0 0-.032.122m-.016.216a.3.3 0 0 1-.079-.095a.3.3 0 0 1-.026-.127a.3.3 0 0 1 .068-.201a.23.23 0 0 1 .175-.08q.103 0 .175.08a.3.3 0 0 1 .069.201a.26.26 0 0 1-.106.223a.26.26 0 0 1 .095.105a.35.35 0 0 1 .016.265a.3.3 0 0 1-.064.106a.245.245 0 0 1-.287.063a.3.3 0 0 1-.083-.063a.32.32 0 0 1-.08-.222a.34.34 0 0 1 .032-.149a.26.26 0 0 1 .095-.105"/><path d="M11.29 16.764v-.937h-.212v-.122h.392v1.059zm.746 0l.318-.932h-.355v-.127h.53l-.37 1.059z"/><path d="M19.284 14.645a8.167 8.167 0 0 1-14.463.233l-.762.318a8.99 8.99 0 0 0 7.93 4.743a9 9 0 0 0 7.951-4.775z"/></g></svg>