<svg xmlns="http://www.w3.org/2000/svg" viewBox="0 0 24 24"><g fill="none"><path fill="#fff100" d="M11.439 3.012c-.777.096-1.688.287-2.222.467c-.63.208-1.632.675-1.7.788c-.056.079.17.157.546.186c.248.022.31.01.282-.051c-.012-.04 0-.079.033-.079c.04 0 .057.056.034.124c-.017.073 0 .135.05.152c.124.045.484-.09.659-.248c.18-.168.315-.112.315.13c0 .168-.14.242-.264.14c-.068-.056-.136-.056-.276-.01c-.225.078-.478.083-.557.016a1.5 1.5 0 0 0-.461-.09c-.394-.034-.405-.028-.31.073a.34.34 0 0 1 .096.191a.6.6 0 0 0 .095.225c.08.113.085.141.017.186c-.067.04-.056.079.045.214c.068.09.152.157.186.157l.338-.017c.219-.005.253-.022.225-.106c-.034-.08-.017-.09.073-.057c.23.102.32.113.32.04q-.001-.076.209-.05c.112.016.202 0 .208-.04c0-.034.033-.107.078-.17c.08-.095.096-.095.304.052c.293.196.36.303.372.596c.01.242.01.247-.226.281c-.264.045-.354.13-.208.186c.074.028.08.05.023.084c-.056.04-.056.068 0 .135c.04.045.062.118.056.163c-.011.045.04.085.113.096q.118.025.219.253c.112.298.112.315-.028.169c-.135-.135-.326-.152-.371-.028c-.04.095.067.169.337.23c.169.045.355-.05.293-.151c-.017-.029 0-.051.045-.04c.045.006.264-.045.483-.112a2.83 2.83 0 0 1 2.83.686c.338.329.579.743.698 1.198c.056.237.056.321-.028.54c-.096.237-.44.62-.63.692c-.068.023-.057.051.033.124c.096.073.102.09.029.09a.25.25 0 0 1-.158-.062c-.073-.067-.394-.022-.349.056a4.2 4.2 0 0 1-2.132-.365c-.281-.158-.338-.101-.107.107c.102.09.197.123.293.112c.197-.045.658.248.748.467c.04.096.135.208.208.259c.079.05.124.112.107.14c-.056.09-.253.057-.338-.05c-.078-.112-.23-.214-.427-.304a.6.6 0 0 1-.197-.14c-.068-.08-.292-.17-.405-.152c-.079.005-.011.197.146.405c.101.13.13.208.085.225c-.04.011-.068.056-.068.107c0 .129-.084.09-.208-.113a.9.9 0 0 0-.281-.264c-.22-.107-.563-.45-.636-.636a1 1 0 0 1-.056-.298c0-.101-.113-.265-.366-.523c-.371-.383-.563-.462-.534-.214c.01.073-.006.13-.04.13c-.04 0-.067-.04-.067-.09c0-.057-.08-.125-.175-.164c-.112-.04-.169-.096-.152-.146c.023-.045-.033-.158-.112-.253a.7.7 0 0 1-.152-.237c0-.028-.023-.039-.056-.022c-.023.017-.034-.017-.017-.085c.022-.078 0-.112-.068-.112c-.084 0-.124-.073-.095-.203c0-.028-.029-.039-.08-.016a.14.14 0 0 1-.145-.04c-.051-.045-.085-.045-.13 0s-.022.073.085.101c.084.023.151.062.151.096c0 .073-.112.073-.225 0c-.129-.073-.309.056-.241.174c.039.08.022.09-.124.074c-.203-.034-.208-.006-.079.19c.056.09.068.147.028.147a.067.067 0 0 1-.062-.067c0-.04-.056 0-.118.073c-.405.484-.557.641-.63.641c-.107 0-.101-.084.006-.174a.27.27 0 0 0 .09-.186c0-.056.056-.135.118-.169c.067-.033.118-.101.118-.152c0-.045.034-.135.073-.202c.056-.09.056-.13 0-.186s-.096-.04-.174.05a.6.6 0 0 1-.27.158c-.096.023-.158.08-.158.141q-.001.102-.062.034c-.034-.034-.13-.045-.214-.034l-.146.028l.191.158c.113.095.17.191.147.225c-.057.101-.152.09-.152-.017c0-.101-.101-.113-.135-.011c-.017.056-.05.056-.13-.012c-.09-.073-.112-.073-.151 0a.4.4 0 0 0-.057.13c0 .028-.045.045-.101.033c-.056-.01-.09-.045-.084-.067c.01-.028-.057-.124-.141-.22c-.169-.174-.444-.264-.444-.14c0 .04-.057.084-.124.101c-.248.068-.557-.472-.327-.562c.045-.017.113-.006.141.022c.034.034.113.011.208-.062c.225-.18.383-.152.343.073c-.016.113.287.152.563.073c.377-.1 1.035-.438.996-.506c-.017-.022-.068-.034-.113-.017s-.095 0-.118-.033c-.022-.034-.107-.057-.186-.057c-.084 0-.14-.04-.14-.095c0-.045.022-.085.056-.085s.056-.135.056-.292c0-.17.028-.298.062-.298s.056.045.056.095s.029.073.062.056c.096-.061.068-.168-.084-.337c-.079-.085-.13-.169-.113-.186c.023-.022-.045-.067-.146-.101c-.225-.079-.32-.225-.242-.349c.05-.073.068-.073.14.023c.046.056.091.084.108.056c.04-.073-.073-.428-.135-.428c-.028 0-.04.034-.023.08c.017.039-.011.112-.056.145c-.09.074-.276.034-.276-.056c0-.034-.028-.045-.062-.022q-.06.042.04.152c.067.073.09.163.056.292c-.022.124 0 .208.056.27c.09.084.09.101 0 .186c-.078.073-.112.079-.129.022c-.017-.04-.073-.073-.124-.073c-.073 0-.079-.017-.022-.067a.3.3 0 0 0 .062-.192c0-.067-.017-.09-.034-.05s-.118.073-.23.073c-.164 0-.215.034-.26.146c-.061.169-.118.186-.225.079c-.056-.056-.084-.023-.146.118c-.045.107-.101.169-.118.146c-.023-.017-.045.034-.045.118c0 .096-.028.158-.084.158c-.152 0-.13.135.056.315c.112.113.152.18.101.197c-.084.034-.096.135-.011.135c.034 0 .09-.068.13-.146c.033-.085.09-.147.117-.147c.029 0 .034.034.006.074a.5.5 0 0 0-.056.112a.3.3 0 0 1-.023.079a.4.4 0 0 0-.022.101c-.012.124-.22.118-.31-.011c-.045-.068-.123-.124-.168-.124c-.051 0-.09-.028-.09-.073c0-.225-.45.782-.676 1.519c-.19.63-.444 2.104-.444 2.588c0 .348.22 1.732.36 2.273c.405 1.575 1.271 3.02 2.52 4.219a8.9 8.9 0 0 0 4.501 2.307c.31.044.686.112.844.146c.366.073 1.249.073 1.614 0l.844-.152a8.962 8.962 0 0 0 5.784-13.823a10.6 10.6 0 0 0-2.447-2.424a9.05 9.05 0 0 0-3.5-1.396a9.7 9.7 0 0 0-2.081-.135m1.89.552a.06.06 0 0 1-.056.056c-.04 0-.051-.028-.028-.056c.016-.034.045-.057.056-.057c.017 0 .028.023.028.057m-3.342.264c-.13.096-.259.113-.259.028c0-.073.321-.225.35-.163c.01.028-.029.09-.09.135m-1.969.281c0 .017-.04.057-.09.096c-.073.062-.09.056-.09-.022c0-.051.045-.09.09-.09c.05 0 .09.005.09.022zm.827.186a.15.15 0 0 1-.095.13c-.113.039-.225-.062-.17-.152c.057-.096.265-.08.265.022m5.4.208c-.021.028-.09.056-.15.056c-.068 0-.108-.028-.085-.056c.022-.034.09-.056.157-.056c.062 0 .101.022.079.056m-3.83.276c-.056.056-.113-.028-.056-.113c.033-.056.045-.056.067 0c.011.045.011.096-.011.113m.31.484c.01.039-.012.062-.057.05a.18.18 0 0 1-.101-.101c-.011-.045.005-.067.056-.056a.2.2 0 0 1 .101.107m2.818.146c-.057.05-.135.073-.163.056c-.085-.056.01-.14.146-.14c.124 0 .124 0 .017.084m-7.578.186c-.101.045-.09.14.017.14c.05 0 .09-.04.09-.09c0-.045-.012-.084-.017-.084zm-.597.393a.2.2 0 0 0-.028.186c.034.084.017.101-.078.079a.16.16 0 0 0-.18.067c-.085.13-.023.197.084.107c.067-.056.096-.056.135.006c.09.146.174 0 .169-.259a2 2 0 0 0-.028-.264zm5.12.175c.011.124 0 .152-.073.124c-.062-.023-.096 0-.096.056s-.04.095-.09.095c-.045 0-.084-.033-.084-.073c0-.118.101-.236.169-.197c.033.023.039-.01.022-.09c-.022-.09-.011-.112.05-.095c.046.011.09.095.102.18m-3.415.04c0 .1.107.117.18.027c.056-.073.05-.084-.056-.084c-.068 0-.124.022-.124.056m1.772 0c0 .022.04.061.09.084c.135.05.146.045.146-.057c0-.045-.056-.084-.118-.084c-.067 0-.118.022-.118.056m3.235.01c-.04.113-.169.13-.169.023c0-.05.045-.09.096-.09c.056 0 .084.028.073.067m-1.3.214c.012.04-.022.068-.073.068a.096.096 0 0 1-.09-.09c0-.102.124-.085.163.022m-2.053.062c0 .101.146.18.236.124c.08-.05.08-.062 0-.113c-.112-.073-.236-.078-.236-.01m-1.766.062c-.074.045-.074.073-.012.146c.152.18.287.107.208-.107c-.045-.107-.078-.112-.196-.039m4.134.034c0 .033-.028.067-.061.078c-.034.012-.062-.022-.062-.078c0-.057.028-.09.056-.079c.04.017.067.05.067.079m-1.912.04c.056.055.107.055.208 0c.124-.057.118-.057-.073-.063c-.152 0-.186.011-.135.062m1.226-.012c.04.067-.067.135-.146.09c-.068-.04-.023-.146.056-.146c.028 0 .068.022.085.056zm-.4.04c-.022.016-.072.016-.112 0c-.05-.018-.034-.029.034-.035c.062 0 .096.012.079.034m1.908.022c0 .033-.045.056-.096.056c-.05 0-.073-.023-.056-.056a.12.12 0 0 1 .096-.057c.028 0 .056.023.056.057m-2.571.04a.8.8 0 0 0-.236.134a1 1 0 0 1-.209.135q-.102.033.023.04c.101 0 .686-.17.743-.214c.033-.028-.124-.14-.17-.13zm1.856.162c0 .057-.112.085-.146.034c-.017-.034.006-.056.056-.056c.057 0 .096.005.096.022zM5.11 7.04a.65.65 0 0 1 .09.254c.033.168.028.18-.135.157c-.113-.017-.175 0-.175.04c0 .039.057.056.13.056c.168-.028.208.09.04.112c-.142.023-.243-.09-.198-.214c.017-.045-.022-.09-.09-.112c-.135-.028-.157-.186-.05-.298c.095-.09.315-.09.388.005m.9-.016c0 .078-.107.135-.175.09c-.033-.023-.045-.062-.028-.09c.045-.074.203-.074.203 0m-.293.236c.068.045.057.056-.045.056c-.073 0-.135-.022-.135-.056q.001-.11.18 0m8.855.056c0 .034-.04.062-.09.062s-.09-.028-.09-.056c0-.034.04-.057.09-.057s.09.023.09.057zm-8.568.056c.045.028.062.08.04.113c-.029.056-.068.045-.124-.017c-.14-.14-.085-.203.084-.096m-1.294.062c0 .034-.056.056-.13.056c-.112 0-.112-.005-.044-.056c.112-.073.174-.073.174 0m.912 0c.022.028.01.113-.023.186c-.056.118-.056.124-.056.022c.017-.208 0-.225-.09-.112c-.073.095-.09.101-.09.017c0-.135.197-.225.259-.113m2.362.068c-.067.112.034.135.135.033c.096-.09.096-.1 0-.1c-.05 0-.112.027-.135.067m.563.056a.059.059 0 1 0 .118 0a.056.056 0 1 0-.112 0zm-3.882.124c-.045.045-.073.05-.073.011c0-.079.073-.146.113-.113c.016.023 0 .068-.04.102m3.59-.096c0 .034.028.09.067.13c.056.056.05.09-.006.157c-.078.09 0 .135.08.05c.027-.027.1-.044.168-.044c.067 0 .135-.04.152-.08c.017-.055-.011-.072-.101-.038c-.096.028-.158 0-.242-.102c-.062-.073-.113-.107-.113-.073zm-2.842.461c0 .04-.01.04-.033-.01c-.045-.113-.135-.085-.102.033c.012.056-.01.022-.056-.073c-.045-.101-.073-.203-.056-.23c.045-.063.259.18.247.28m.242-.196a.056.056 0 1 1-.112 0a.056.056 0 0 1 .112 0m4.085.05c-.057.034-.057.056-.017.09c.073.045.185-.005.185-.09c0-.067-.067-.067-.168 0m-3.87.09c.112.113.1.208-.035.208c-.09 0-.118-.039-.118-.146c0-.169.034-.18.152-.062m-.215.034a.056.056 0 0 1-.056.056c-.04 0-.056-.022-.034-.056c.023-.034.057-.056.068-.056s.022.022.022.056m3.398 0c-.039.056.057.13.113.073c.056-.056.04-.135-.023-.135c-.028 0-.073.028-.09.056zm5.694.056c0 .034-.011.056-.023.056c-.017 0-.045-.022-.067-.056c-.017-.028-.006-.056.028-.056s.062.028.062.056m-6.02.09c0 .05.023.09.056.09c.034 0 .04-.04.023-.09s-.045-.09-.056-.09s-.023.04-.023.09m-.18.146c0 .062.028.113.056.113c.04 0 .062-.05.062-.113c0-.061-.022-.112-.056-.112s-.056.05-.056.112zm.731 0c0 .08.04.113.096.102a.11.11 0 0 0 .09-.102a.11.11 0 0 0-.09-.1c-.056-.012-.09.022-.09.1zm.214.17c0 .039-.045.067-.101.067c-.068 0-.079.017-.034.062a.23.23 0 0 0 .175.045c.123-.023.151-.17.033-.214c-.04-.011-.073.005-.073.04m.298.151c0 .05.023.09.057.09c.033 0 .056-.022.056-.056c0-.028-.023-.068-.056-.09c-.034-.023-.057 0-.057.056m-2.126.214c0 .034-.028.045-.056.022a.12.12 0 0 1-.062-.095c0-.028.028-.04.056-.023c.034.023.062.062.062.096m2.216.056c.017.028.045.056.057.056c.016 0 .028-.028.028-.056c0-.034-.028-.062-.057-.062c-.039 0-.056.028-.028.057zm-5.58.113c0 .033-.04.056-.09.056c-.09 0-.113-.068-.051-.13c.045-.05.14 0 .14.08zm3.718.033c0 .051-.028.074-.056.057c-.034-.023-.062-.062-.062-.09c0-.034.028-.057.056-.057c.034 0 .062.04.062.09m-2.953.119c0 .05-.023.073-.057.056c-.033-.023-.056-.062-.056-.09c0-.034.023-.056.056-.056c.034 0 .057.039.057.09m2.543-.068c0 .011-.045.04-.096.056c-.056.023-.073.012-.056-.022c.039-.056.152-.085.152-.034m1.271.197c-.017.017-.034 0-.034-.028c0-.034-.056-.05-.118-.034c-.067.017-.118 0-.118-.028c0-.096.202-.113.253-.028c.028.045.034.095.017.112zm-2.442.028c-.045.04-.073.045-.073.006c0-.079.073-.147.113-.107c.017.017 0 .056-.04.101m-1.727.017c0 .045-.022.084-.056.084c-.073 0-.124-.09-.079-.135c.068-.067.135-.039.135.051m5.435-.056c0 .101.112.225.152.185c.028-.028 0-.09-.057-.146c-.056-.056-.095-.073-.095-.04m-3.19.14a.056.056 0 1 1-.113 0a.056.056 0 0 1 .096-.04q.017.017.017.04m-.473.09c0 .051-.039.09-.09.09c-.09 0-.112-.073-.045-.14c.068-.068.135-.04.135.05m-.776.141c.028.186-.079.281-.197.186c-.112-.09-.112-.282-.017-.315c.124-.057.192-.012.214.129m2.138-.113a.059.059 0 1 1-.118 0a.056.056 0 0 1 .096-.04q.015.018.016.04zm-3.685.164c-.056.056-.113-.034-.062-.113c.04-.056.056-.056.073 0c.011.04.006.09-.011.113m4.686.017c0 .067-.028.106-.056.084c-.034-.017-.062-.073-.062-.118c0-.05.028-.085.056-.085c.034 0 .057.057.057.119zm-2.475 0a.057.057 0 0 1-.056.056a.13.13 0 0 1-.096-.056c-.023-.034 0-.057.056-.057c.05 0 .09.023.09.057zm-.062.258a.09.09 0 1 1-.18 0a.09.09 0 0 1 .18 0m-1.3.034a.059.059 0 0 1-.1.042a.06.06 0 0 1-.018-.042a.056.056 0 0 1 .096-.04q.016.016.017.04zm3.393 0c.022.028.011.056-.023.056c-.033 0-.073-.028-.095-.056c-.017-.034-.012-.056.022-.056s.079.022.096.056m-3.274.315c0 .073-.113.214-.18.214c-.029 0-.034-.293-.006-.338c.022-.04.186.068.186.124m10.97.034c.011.04-.012.062-.056.05a.2.2 0 0 1-.102-.1c-.016-.046.006-.068.057-.057c.04.017.084.062.1.107m-10.745.067c-.124.08-.18.057-.096-.028c.04-.045.101-.073.124-.056c.028.017.017.056-.028.084m.54-.039c0 .045-.028.101-.057.118c-.033.023-.056.14-.056.265c0 .129-.034.247-.062.264c-.033.023-.056.017-.056-.011s-.056-.113-.124-.18c-.152-.164-.112-.332.113-.45c.208-.107.242-.107.242-.006m.32.056c-.033.085-.14.135-.14.057c0-.034.14-.192.163-.17c.005.006 0 .057-.023.113m11.387.057c.146.112.124.168-.056.146c-.102-.011-.175-.062-.186-.124c-.022-.124.096-.13.242-.022m1.924.112c.484.32.816.979.878 1.727c.118 1.575-1.142 2.205-2.245 1.125a2.5 2.5 0 0 1-.461-.619c-.152-.337-.209-1.012-.119-1.35c.102-.377.411-.787.715-.945a1.28 1.28 0 0 1 1.232.062m-10.824.101q-.042.068-.101.012a.11.11 0 0 1-.017-.13c.028-.045.056-.05.101-.011a.11.11 0 0 1 .017.13m-3.516.057c0 .073-.152.185-.197.14c-.079-.084-.034-.197.079-.197c.067 0 .118.023.118.057m4.191.067c0 .034-.022.045-.056.023a.13.13 0 0 1-.056-.096c0-.034.022-.04.056-.022a.12.12 0 0 1 .056.095m3.657.056c0 .029-.034.057-.079.057c-.096 0-.225-.147-.169-.197c.045-.045.253.067.253.14zm-8.259-.062a.059.059 0 1 1-.118 0q0-.022.016-.04a.056.056 0 0 1 .096.04zm4.101.237c-.033.056-.208.005-.208-.056c0-.023.023-.057.04-.085c.056-.05.208.079.168.14m3.657-.118c.023.028.011.056-.022.056c-.034 0-.062-.028-.062-.056c0-.034.011-.057.028-.057c.011 0 .04.023.056.057m-7.122.264c0 .079-.017.146-.04.146c-.022 0-.045-.067-.056-.146c0-.084.017-.146.045-.146s.05.062.05.146m.332.056c.079.124.084.146.011.146a.13.13 0 0 0-.113.074c-.056.146-.174-.057-.135-.214c.045-.191.113-.191.237 0zm.506-.028c0 .124-.084.158-.146.056c-.045-.067.011-.174.09-.174c.034 0 .056.056.056.113zm1.069-.028a.08.08 0 0 1-.056.073c-.04.011-.068-.022-.068-.073c0-.056.028-.09.062-.079c.04.011.068.045.068.08zm2.025.04l.124.658a5.34 5.34 0 0 0 2.954 3.938c1.541.748 3.808.872 5.114.281c.483-.225.736-.439.9-.777c.095-.207.157-.27.287-.28c.219-.029.258.1.134.421c-.315.822-1.473 1.356-3.088 1.424c-2.295.1-4.276-.687-5.485-2.183c-.428-.529-.957-1.525-1.114-2.116c-.085-.309-.124-.382-.225-.388c-.113-.005-.113-.011-.017-.033c.09-.023.101-.062.073-.214c-.073-.343-.079-.715-.022-.788c.107-.13.337-.09.365.056m3.843-.012c.022.034.01.056-.023.056c-.04 0-.067-.022-.067-.056s.01-.056.028-.056c.017 0 .045.022.062.056m-4.366.056c.017.034.006.057-.028.057s-.062-.023-.062-.057c0-.028.011-.056.028-.056c.011 0 .04.028.056.056zm-1.918.057c0 .033-.028.061-.068.061c-.034 0-.045-.028-.022-.056c.017-.033.045-.056.062-.056c.016 0 .028.023.028.056zm-1.559.146c.04.112-.078.326-.185.326c-.102 0-.113-.135-.028-.298c.073-.13.168-.146.213-.028m2.734.157a.056.056 0 0 1-.056.057c-.034 0-.056-.045-.056-.096c0-.05.022-.073.056-.056a.12.12 0 0 1 .056.095m4.872-.005c.023.034.012.056-.022.056a.12.12 0 0 1-.096-.056c-.017-.034-.011-.056.023-.056s.079.022.095.056m-4.573.112a.06.06 0 0 1-.118 0q0-.023.016-.04a.056.056 0 0 1 .08 0q.015.017.016.04zm6.633.254c.033.056.044.118.016.14c-.062.068-.242-.056-.264-.18c-.028-.13.158-.101.248.04m-2.178.213c-.045.045-.208-.123-.202-.225c0-.067.028-.056.112.056c.062.08.101.158.09.17m-4.118-.017c-.056.057-.225-.095-.18-.168c.017-.028.073-.017.124.039c.056.05.079.113.056.13m-3.505-.056c.045.107-.01.371-.078.371c-.102 0-.192-.18-.152-.32c.039-.169.18-.197.23-.056zm-.377.338c0 .095-.107.185-.157.135s.028-.214.095-.214c.034 0 .062.034.062.084zm10.313.157c0 .113-.023.169-.08.169c-.1 0-.18-.186-.09-.22c.04-.01.074-.061.074-.112c0-.169.084-.017.095.169zm-1.75.056c0 .034-.011.057-.028.057c-.011 0-.04-.023-.057-.056c-.022-.034-.01-.057.023-.057c.034 0 .056.023.056.056zm.945.029c.04.056.045.09.011.09s-.045.056-.028.123c.04.152-.09.13-.186-.033c-.05-.08-.045-.113.012-.135c.04-.012.056-.051.04-.08c-.057-.09.072-.055.151.035m-9.153.056c0 .045-.023.101-.056.118c-.034.022-.057-.017-.057-.084c0-.068.023-.118.057-.118c.033 0 .056.039.056.084m2.188-.028a.059.059 0 1 1-.118 0a.056.056 0 1 1 .113 0zm.467.18c0 .062-.022.112-.056.112s-.056-.05-.056-.112c0-.068.022-.118.056-.118s.056.05.056.112zm.77.377c0 .05-.01.09-.022.09c-.01 0-.039-.04-.056-.09c-.022-.045-.011-.085.023-.085c.028 0 .056.04.056.085m7.585.208c.022.034.01.056-.023.056c-.034 0-.062-.022-.062-.056s.011-.056.023-.056c.017 0 .045.022.062.056m-.53.354c.018.028.006.056-.027.056a.056.056 0 0 1-.057-.056c0-.034.006-.056.023-.056c.011 0 .04.022.056.056zm-3.425.056c.022.034.01.057-.023.057c-.034 0-.062-.023-.062-.056c0-.034.011-.057.023-.057c.017 0 .045.023.062.056m.675.299c0 .034-.023.045-.057.022a.12.12 0 0 1-.056-.095c0-.029.028-.04.056-.023a.13.13 0 0 1 .057.096m-.912.056c.023.028.011.056-.022.056c-.034 0-.062-.028-.062-.056c0-.034.011-.056.022-.056c.017 0 .045.022.062.056m-4.197.495c.017.045.006.101-.022.118c-.034.023-.056-.017-.056-.084c0-.141.028-.158.078-.034m10.988.028c.022.034.005.056-.029.056c-.033 0-.056-.022-.056-.056c0-.028.006-.056.023-.056c.011 0 .04.028.062.056m-5.936.236c0 .034-.01.057-.022.057c-.017 0-.045-.023-.062-.056c-.023-.029-.011-.057.022-.057c.034 0 .062.028.062.056m4.484.074c.056.146.023.28-.056.28s-.186-.236-.152-.325c.05-.13.152-.102.208.045m-1.856.225c.022.028.011.056-.023.056s-.062-.028-.062-.056c0-.034.012-.062.023-.062c.017 0 .045.028.062.056zm-8.765.28c0 .074-.068.13-.13.09c-.056-.033-.005-.14.073-.14c.034 0 .057.023.057.05m2.182.395c0 .05-.022.073-.056.056c-.034-.023-.056-.062-.056-.09c0-.034.022-.056.056-.056s.056.04.056.09m2.982.967c.023.029.011.057-.022.057c-.034 0-.062-.028-.062-.057c0-.033.011-.056.022-.056c.017 0 .045.023.062.056"/><path fill="#ec1c24" d="M13.238 3.557c-.017.034 0 .062.028.062c.034 0 .062-.028.062-.056c0-.034-.011-.057-.022-.057c-.017 0-.045.023-.062.057zm-3.347.169c-.169.079-.22.191-.09.185c.107 0 .298-.157.275-.219c-.01-.028-.095-.011-.185.028zm-2.048.455c0 .08.011.085.084.023c.051-.04.09-.079.09-.09c0-.017-.039-.023-.09-.023c-.045 0-.084.04-.084.09m.731.09c-.056.09.068.192.175.152c.056-.022.095-.078.095-.129c0-.101-.208-.118-.27-.023m.546.08c-.169.157-.534.292-.658.247c-.05-.017-.068-.079-.05-.152c.016-.068 0-.124-.029-.124c-.04 0-.056.04-.034.079c.034.101-.523.067-.76-.045c-.145-.073-.185-.056-.646.253c-.264.18-.715.546-.99.81c-.495.467-.5.478-.49.743c.012.27-.073.416-.168.27c-.034-.057-.062-.057-.124-.006c-.05.04-.107.05-.13.028c-.022-.022-.1.04-.18.135c-.1.124-.123.192-.078.242c.095.113.163.09.225-.073c.045-.112.095-.146.258-.146c.113 0 .214-.034.231-.073c.017-.04.034-.017.034.05c0 .062-.023.152-.062.192c-.056.056-.056.067.022.067c.057 0 .113.034.124.073c.023.056.056.05.13-.022c.09-.085.09-.102 0-.186c-.057-.056-.08-.146-.051-.27c.028-.13.006-.22-.062-.293q-.1-.11-.04-.151c.034-.023.063-.012.063.016c0 .096.185.135.28.057c.04-.034.068-.102.052-.14c-.017-.046-.006-.08.022-.08c.062 0 .174.355.135.428c-.017.028-.062 0-.112-.056c-.068-.096-.085-.096-.135-.023c-.08.124.022.27.241.349c.102.034.17.079.152.101c-.022.017.028.101.113.191c.146.164.174.27.079.332c-.034.017-.057-.005-.057-.056c0-.056-.028-.096-.056-.096c-.04 0-.062.135-.062.299c0 .157-.028.292-.056.292c-.04 0-.062.04-.062.085c0 .056.056.09.14.09c.08 0 .164.028.186.061c.023.034.073.051.119.034c.044-.017.095-.005.112.023c.04.062-.619.4-.99.506c-.281.073-.585.028-.563-.079c.034-.225-.118-.253-.349-.073c-.095.073-.168.096-.208.062a.16.16 0 0 0-.14-.022c-.225.09.078.63.326.562c.067-.017.124-.062.124-.101c0-.124.275-.034.45.14c.084.096.146.192.135.22c-.006.022.028.056.084.067s.101 0 .101-.033c0-.023.023-.085.057-.13c.045-.073.067-.073.152 0c.078.062.112.068.129.011c.034-.1.135-.09.135.012c0 .112.09.118.152.022c.028-.04-.034-.135-.146-.225l-.192-.163l.147-.028c.084-.011.18 0 .213.034q.059.067.057-.034c0-.056.067-.113.168-.14a.6.6 0 0 0 .265-.158c.079-.09.118-.101.174-.05c.057.055.057.095 0 .185a.5.5 0 0 0-.073.202c0 .051-.056.113-.112.152c-.068.034-.124.113-.124.169a.3.3 0 0 1-.09.186c-.113.09-.113.168 0 .168c.067 0 .225-.151.619-.635c.067-.08.123-.113.123-.073c0 .039.029.067.062.067c.04 0 .028-.056-.028-.146c-.13-.197-.124-.225.079-.191c.146.016.169.005.124-.074c-.068-.118.112-.247.236-.168c.113.067.23.067.23-.006c0-.034-.067-.073-.151-.096c-.107-.028-.13-.056-.085-.1c.045-.046.08-.046.13 0c.034.038.101.055.146.038c.05-.022.084-.01.079.017c-.028.13.011.197.095.197q.101 0 .068.118c-.017.068-.006.102.022.085c.029-.017.057-.006.057.022c0 .034.062.14.146.237c.079.095.135.208.113.253c-.017.056.039.107.151.146c.096.04.175.113.175.163s.028.09.067.09c.034 0 .057-.056.04-.13c-.034-.247.169-.168.534.215c.248.258.366.421.366.523c0 .084.022.213.056.298c.068.18.416.529.63.636c.09.039.225.163.282.264c.129.203.213.242.213.112c0-.05.028-.095.068-.112c.045-.011.017-.09-.085-.225c-.163-.208-.225-.371-.146-.394c.09-.028.338.062.405.146a.6.6 0 0 0 .197.141c.197.09.349.197.433.304c.085.112.282.14.332.056c.017-.034-.028-.096-.107-.146a.7.7 0 0 1-.208-.259c-.09-.22-.551-.506-.742-.472c-.102.016-.197-.017-.299-.113c-.185-.169-.19-.287-.01-.169c.168.113.309.034.252-.135a.37.37 0 0 0-.152-.185c-.09-.051-.129-.04-.185.056c-.073.112-.079.112-.208-.011c-.08-.068-.135-.17-.135-.225c0-.124-.152-.254-.237-.203c-.034.023-.056.073-.056.124c0 .112-.101.107-.146-.011c-.057-.147-.04-.197.056-.197c.045 0 .084-.028.084-.057c0-.084-.168-.19-.236-.152c-.09.057-.236-.078-.197-.18c.017-.045 0-.084-.034-.084c-.033 0-.061-.034-.061-.079c0-.112.219-.292.315-.253a.09.09 0 0 0 .118-.056c.034-.084-.298-.355-.417-.326a.11.11 0 0 1-.106-.045c-.04-.062.01-.08.264-.085c.112-.005.146-.034.13-.112a.4.4 0 0 1 .05-.214c.056-.101.04-.124-.101-.158c-.265-.061-.372-.135-.338-.225c.05-.129.242-.112.377.028c.146.141.146.124.028-.168c-.062-.158-.14-.242-.225-.26c-.067-.01-.118-.055-.112-.095c.01-.045-.012-.112-.057-.168c-.056-.062-.056-.09.006-.13c.056-.034.056-.056-.022-.084c-.147-.057-.057-.14.208-.18c.236-.04.236-.045.225-.282c-.011-.298-.079-.405-.372-.602c-.208-.146-.225-.146-.303-.045a.4.4 0 0 0-.08.17c0 .033-.09.05-.207.033q-.209-.025-.208.05c0 .068-.09.057-.321-.033c-.09-.04-.107-.028-.073.05c.028.085-.006.102-.225.113l-.338.011c-.034 0-.118-.067-.185-.163c-.102-.13-.113-.169-.045-.208c.067-.045.061-.073-.017-.191a.5.5 0 0 1-.096-.225a.4.4 0 0 0-.096-.186c-.09-.101-.078-.107.31-.073c.225.022.433.056.461.09c.079.067.338.062.563-.017c.135-.045.202-.045.27.011c.124.102.264.028.264-.14c0-.237-.135-.293-.315-.13m4.895.151c-.023.028.01.056.078.056c.062 0 .13-.028.152-.056c.023-.034-.017-.056-.079-.056c-.067 0-.135.022-.157.056zm-3.657.169c-.028.04-.034.09-.017.107c.056.056.112-.023.084-.113c-.022-.056-.033-.056-.073 0zm.208.54c.017.04.062.084.107.101c.04.011.062-.011.05-.056a.2.2 0 0 0-.106-.101c-.04-.012-.062.011-.051.056m2.796.169c-.056.095.068.112.18.028c.113-.079.113-.085-.017-.085c-.073 0-.146.023-.163.057m-7.291.264c0 .05-.04.09-.09.09c-.152 0-.101-.112.073-.169c.011-.005.017.034.017.08m4.264.433c.023.08.011.113-.028.09c-.062-.039-.163.08-.169.197c0 .04.045.073.096.073c.045 0 .084-.045.084-.095c0-.057.034-.079.096-.057c.068.029.084 0 .073-.123c-.011-.085-.056-.169-.101-.18c-.056-.023-.073.005-.056.095zm-5.114.051c-.067.062-.039.135.057.135c.045 0 .084-.028.084-.056c0-.073-.096-.13-.14-.079m2.026.101c-.068.09-.17.073-.17-.028c0-.034.057-.056.12-.056c.106 0 .112.011.055.084zm1.834 0c0 .101-.012.107-.14.056c-.136-.056-.12-.14.022-.14c.067 0 .112.04.112.09zm2.835.006c0 .107.124.09.163-.023c.012-.039-.022-.067-.073-.067s-.09.04-.09.09m-1.3.169c0 .05.04.09.09.09c.107 0 .09-.124-.022-.158c-.04-.017-.067.017-.067.068m-1.653.095c.078.05.078.062 0 .113c-.057.034-.113.034-.164-.011c-.163-.135-.022-.226.164-.102m-1.806.09c.078.214-.057.282-.208.113c-.057-.079-.057-.107.01-.152c.119-.073.153-.068.198.04m3.814 0c0 .05.028.085.056.073c.04-.01.068-.045.068-.078c0-.028-.028-.062-.062-.08c-.034-.01-.062.029-.062.08zm-1.58.04c-.102.045-.158.045-.209 0c-.05-.057-.017-.073.135-.068c.191 0 .197.006.073.068m.843-.017c-.045.067.068.135.146.09c.068-.04.023-.146-.056-.146a.11.11 0 0 0-.09.056m-.337.04c.039.016.09.016.112 0c.017-.023-.017-.035-.079-.035c-.067 0-.084.017-.033.034m1.867.022c-.017.033.006.056.056.056c.057 0 .096-.023.096-.056a.056.056 0 0 0-.056-.057a.13.13 0 0 0-.096.057M9.61 6.73c.112.067.095.079-.276.197c-.281.09-.658.14-.433.056a.7.7 0 0 0 .208-.135c.101-.09.197-.13.382-.169c.017 0 .074.017.119.05m1.451.18c.017.034.056.045.09.022c.079-.05.068-.084-.04-.084c-.05 0-.072.028-.056.056zm-6.34.124c-.107.112-.079.27.05.304c.068.016.107.061.09.112c-.045.118.057.23.197.214c.17-.028.135-.146-.04-.124c-.072.011-.128-.011-.128-.05s.067-.057.168-.04c.17.023.175.017.14-.157a.65.65 0 0 0-.09-.254c-.072-.095-.292-.095-.387 0zm1.085-.012c-.016.029-.005.068.029.09c.067.045.174-.01.174-.09c0-.073-.157-.073-.203 0M4.4 7.287c-.022.05-.011.09.017.09c.034 0 .056-.04.056-.09c0-.045-.005-.085-.022-.085c-.012 0-.04.04-.057.085zm1.136-.028c0 .034.057.056.135.056c.107 0 .113-.011.045-.056c-.112-.073-.18-.073-.18 0m4.81 0c.023.034.057.056.068.056s.023-.022.023-.056a.056.056 0 0 0-.057-.057c-.04 0-.056.023-.034.057m4.051.056c0 .034.034.062.084.062s.09-.028.09-.056c0-.034-.039-.057-.09-.057s-.09.023-.09.057zm-8.562.04c0 .016.039.067.084.112q.083.091.124.022c.022-.039 0-.09-.04-.118c-.095-.056-.168-.067-.168-.017m-1.3.078c-.073.05-.062.056.045.056c.073 0 .13-.022.13-.056q.001-.11-.175 0m.9-.017c-.04.017-.073.073-.073.13c0 .084.017.078.09-.017c.09-.113.107-.096.096.112c-.006.102 0 .096.05-.022c.085-.197.023-.281-.168-.203zm2.684.118c-.057.057-.113.085-.135.062c-.057-.056.028-.163.14-.163c.09 0 .09.011 0 .101zm.545.017a.056.056 0 1 1-.112 0a.056.056 0 0 1 .112 0m3.556.006c.011.034.04.062.062.056h.135c.056 0 .079-.028.056-.056c-.045-.084-.281-.079-.253 0m-8.05.13c-.102.146-.08.28.039.28c.045 0 .124.057.169.119c.09.13.298.135.309.011a.4.4 0 0 1 .022-.101a.3.3 0 0 0 .023-.073a.5.5 0 0 1 .056-.119c.028-.039.023-.073 0-.073c-.034 0-.09.062-.124.147c-.039.078-.095.146-.129.146c-.084 0-.073-.101.011-.13c.04-.016.017-.084-.073-.185c-.169-.191-.197-.191-.304-.023m.46-.096a.16.16 0 0 0-.039.101c0 .04.028.034.073-.011c.04-.034.057-.08.04-.096c-.017-.017-.05-.017-.073.006m3.984.168c.09-.033.118-.022.101.04c-.017.04-.084.079-.152.079s-.14.016-.169.045c-.084.084-.157.039-.078-.051c.056-.068.056-.107.005-.158c-.04-.039-.067-.095-.067-.129s.056 0 .118.073c.084.101.146.13.242.101m-3.443 0c-.017.034 0 .135.05.237c.045.095.068.13.057.073c-.034-.118.056-.146.101-.034q.034.077.034.011c.01-.1-.203-.343-.242-.28zm7.274.029c0 .033.04.056.09.056c.056 0 .079-.023.056-.056a.11.11 0 0 0-.09-.057a.056.056 0 0 0-.056.057m-6.909.056a.06.06 0 1 0 .119 0a.056.056 0 0 0-.113 0zm.18.208c0 .113.029.146.113.146c.14 0 .158-.09.04-.208c-.119-.118-.153-.107-.153.062m-.146-.028c-.022.034-.011.056.023.056c.033 0 .062-.022.062-.056s-.012-.056-.023-.056c-.017 0-.045.022-.062.056m3.63-.009c0 .078-.073.129-.13.09c-.056-.034-.005-.141.074-.141c.028 0 .056.022.056.056zm1.001.01c0 .035.028.057.062.057s.05-.022.028-.056s-.05-.056-.062-.056c-.016 0-.028.022-.028.056m1.036.057c.022.034.061.045.09.028c.084-.05.067-.084-.034-.084c-.056 0-.08.028-.056.056m3.426 0c.016.034.044.056.056.056c.017 0 .028-.022.028-.056a.06.06 0 0 0-.056-.056c-.04 0-.051.028-.028.056m-5.851.09c.017.05 0 .09-.028.09c-.029 0-.057-.04-.057-.09s.012-.09.023-.09s.04.04.056.09zm-.147.146c0 .062-.022.113-.056.113s-.056-.05-.056-.113c0-.061.022-.112.056-.112s.056.05.056.112m.8 0a.11.11 0 0 1-.09.102c-.057.01-.09-.023-.09-.102s.033-.112.09-.1c.05.005.09.055.09.1m.18.237c0 .107-.203.146-.282.062c-.056-.045-.04-.062.028-.062c.056 0 .101-.028.101-.068c0-.034.034-.05.074-.04a.12.12 0 0 1 .078.113zm.703-.057c.022.029.056.057.067.057s.023-.028.023-.057c0-.033-.028-.061-.057-.061c-.04 0-.056.028-.034.056zm-2.802.282c0 .033.028.078.056.095c.034.023.062.012.062-.022s-.028-.073-.056-.096c-.034-.017-.056-.005-.056.023zm3.162.112c-.017.04-.006.085.028.101c.09.057.152-.016.073-.095q-.06-.06-.101 0zm-6.549.056c-.067.062-.04.136.056.136c.045 0 .085-.029.085-.057c0-.073-.09-.13-.14-.079m8.962.023c-.045.068.073.169.197.169c.113 0 .09-.079-.045-.158c-.079-.056-.124-.056-.152-.011m-5.22.05c0 .029.027.068.056.09c.033.018.061-.005.061-.056c0-.05-.028-.09-.056-.09c-.034 0-.062.023-.062.057m-2.954.113c0 .034.028.073.056.096c.04.017.062-.006.062-.056s-.023-.09-.056-.09c-.034 0-.057.022-.057.056zm2.509.006c-.017.034 0 .045.056.022c.101-.04.124-.078.04-.078a.12.12 0 0 0-.096.056m1.254-.011c-.056.01-.1.05-.1.084s.055.045.112.028c.067-.017.123 0 .123.034s.017.045.034.028c.068-.068-.062-.197-.169-.174m5.48.073c.017.028.045.056.056.056c.017 0 .028-.028.028-.056a.056.056 0 0 0-.056-.057c-.04 0-.05.023-.028.057m-7.786.039a.16.16 0 0 0-.04.096c0 .04.029.033.074-.006c.033-.04.056-.084.039-.101s-.05-.011-.073.011m-1.829.056c-.045.045.006.135.08.135c.033 0 .055-.04.055-.084c0-.09-.067-.118-.135-.056zm2.262.135a.059.059 0 1 0 .118 0a.056.056 0 0 0-.096-.04a.06.06 0 0 0-.016.04zm-.49.04c-.067.067-.044.14.046.14c.056 0 .09-.039.09-.09c0-.09-.068-.112-.135-.05m5.12.022c.023.028.056.056.068.056c.016 0 .028-.028.028-.056c0-.034-.028-.056-.062-.056c-.04 0-.05.022-.028.056zm1.182 0c.022.028.067.056.1.056c.029 0 .04-.028.023-.056a.12.12 0 0 0-.095-.056c-.034 0-.045.022-.023.056zm-7.157.04c-.1.039-.09.225.017.315c.118.095.225 0 .197-.186c-.022-.14-.09-.18-.214-.13m2.234.016a.056.056 0 0 0 .056.057a.056.056 0 0 0 .056-.057a.056.056 0 0 0-.096-.04a.06.06 0 0 0-.016.04m-3.629.057c-.022.04-.028.084-.011.107c.056.05.113-.028.084-.113c-.022-.056-.033-.056-.073 0zm9.62 0c-.022.034 0 .062.057.062c.056 0 .078-.028.056-.057c-.017-.033-.045-.056-.056-.056s-.04.023-.057.056zm-4.99.09c0 .045.028.101.057.118c.033.022.056-.017.056-.084c0-.068-.023-.119-.056-.119c-.029 0-.057.034-.057.085m-2.509.028c.023.034.056.056.09.056a.056.056 0 0 0 .056-.056c0-.028-.039-.056-.09-.056c-.056 0-.078.028-.056.056m-.09.264a.09.09 0 1 0 .18 0a.09.09 0 0 0-.18 0m-1.237.034a.056.056 0 0 0 .096.04a.056.056 0 0 0-.04-.096a.056.056 0 0 0-.056.056m3.392 0c.022.028.062.056.095.056c.034 0 .046-.028.023-.056c-.017-.034-.062-.056-.096-.056c-.033 0-.039.022-.022.056m-3.342.191c-.028.045-.022.338.006.338c.062 0 .18-.14.18-.214c0-.056-.163-.169-.186-.124m8.686.102c0 .067.17.146.214.1c.017-.016-.022-.061-.09-.1q-.125-.068-.124 0m2.313-.006a.2.2 0 0 0 .1.107c.046.011.068-.011.057-.056a.18.18 0 0 0-.107-.102c-.045-.011-.067.012-.05.057zm-10.684.095c-.084.09-.028.107.096.029c.045-.029.056-.068.034-.085c-.029-.011-.09.012-.13.056m.394 0c-.225.113-.264.282-.113.445c.068.067.119.152.119.18s.028.034.056.011c.04-.017.062-.135.062-.264c0-.124.028-.242.056-.264c.073-.04.084-.209.017-.197c-.023 0-.113.045-.203.09zm.495 0c-.09.09-.096.141-.022.141c.05 0 .146-.18.112-.208c-.011-.011-.05.017-.09.062zm7.066.023c0 .028.028.056.068.056c.033 0 .045-.028.022-.056c-.017-.034-.045-.056-.056-.056c-.023 0-.034.022-.034.056m4.146.101c.012.062.085.113.18.124c.186.017.208-.034.056-.146c-.14-.113-.258-.102-.236.022M8.58 10.6a.11.11 0 0 0 .017.13q.06.058.101-.011a.11.11 0 0 0-.017-.13q-.06-.058-.101.011m-3.634.197c0 .118.073.163.157.09c.113-.095.102-.168-.04-.168c-.061 0-.112.033-.112.078zm4.31-.028c0 .034.027.073.055.096c.04.022.062.011.062-.023a.12.12 0 0 0-.056-.095c-.034-.017-.056-.011-.056.022zm3.52-.011c-.05.056.08.197.175.197c.045 0 .085-.028.085-.056c0-.073-.208-.186-.26-.141m-8.123.079a.056.056 0 0 0 .056.056a.056.056 0 0 0 .04-.096a.057.057 0 0 0-.08 0a.06.06 0 0 0-.016.04m4.05.095a.14.14 0 0 0-.039.085c0 .062.17.112.209.056s-.113-.191-.17-.14m3.742.023c0 .028.028.056.062.056s.045-.028.028-.056c-.023-.034-.05-.056-.062-.056c-.017 0-.028.022-.028.056m-7.128.264c0 .08.028.147.05.147s.04-.068.04-.147c0-.084-.022-.146-.056-.146c-.023 0-.04.062-.034.146m.186.056c-.04.17.084.366.135.226a.13.13 0 0 1 .112-.079c.073 0 .068-.023-.011-.147c-.124-.185-.191-.185-.236 0m.596-.09c-.045.074.011.18.09.18c.034 0 .056-.056.056-.118c0-.123-.084-.157-.146-.056zm1.091.034c0 .056.029.085.062.073c.04-.01.068-.045.068-.073c0-.033-.028-.067-.068-.078c-.033-.012-.056.022-.056.078zm5.908.028c0 .034.022.057.056.057c.04 0 .05-.023.028-.057c-.017-.033-.045-.056-.056-.056c-.017 0-.034.023-.034.056zm-4.372.057c0 .034.028.056.062.056s.045-.022.028-.056c-.022-.029-.05-.057-.062-.057c-.016 0-.028.028-.028.057m-1.918.056c-.023.034-.011.062.028.062a.057.057 0 0 0 .056-.056c0-.034-.005-.057-.022-.057s-.045.023-.062.057zm-1.682.175c-.085.168-.073.297.028.297c.107 0 .225-.213.186-.326c-.045-.112-.141-.101-.214.028m2.835.09c0 .05.023.09.056.09a.054.054 0 0 0 .057-.057c0-.028-.023-.067-.057-.09c-.033-.017-.056.006-.056.056m.94.056c0 .056.028.095.056.095c.04 0 .062-.028.062-.056a.12.12 0 0 0-.056-.09c-.034-.023-.057 0-.057.056zm3.927-.023a.12.12 0 0 0 .095.056c.034 0 .045-.022.023-.056a.12.12 0 0 0-.096-.056c-.034 0-.04.022-.022.056m-4.574.113a.06.06 0 0 0 .059.059a.06.06 0 0 0 .042-.1a.06.06 0 0 0-.084-.001a.06.06 0 0 0-.017.042m.81.157c-.023.023-.045.09-.045.146c0 .057-.045.113-.101.136c-.057.01-.012.022.1.01c.17-.01.203-.039.192-.129c-.028-.135-.096-.213-.146-.163m5.693.056c.023.124.203.248.264.18c.062-.056-.056-.236-.18-.264c-.073-.011-.1.011-.084.084m-2.138.034c0 .096.164.265.209.22c.01-.012-.029-.09-.09-.17c-.085-.112-.113-.123-.113-.055zm-4.09.04c-.045.067.124.225.18.168c.023-.028 0-.084-.056-.135c-.056-.056-.107-.067-.124-.034m-3.555.157c-.04.14.05.32.152.32c.067 0 .124-.264.079-.376c-.057-.14-.192-.113-.231.056m-.304.298c-.017.051-.017.101 0 .124c.056.05.158-.04.158-.13c0-.112-.113-.112-.158 0zm10.374-.017c0 .051-.034.102-.073.113c-.09.034-.011.225.09.225q.085 0 .079-.169c-.011-.185-.096-.337-.096-.169m-1.744.22c.023.034.05.056.062.056c.017 0 .028-.023.028-.056c0-.034-.028-.056-.062-.056s-.045.022-.028.056m.883-.006c.017.028 0 .068-.039.079c-.056.022-.056.056-.011.135c.095.163.225.186.185.034c-.016-.068 0-.124.029-.124c.033 0 .033-.04-.012-.09c-.079-.096-.208-.124-.152-.034m-9.113.124c0 .068.022.107.056.084c.034-.016.056-.073.056-.118s-.022-.084-.056-.084s-.056.056-.056.118m2.182-.056q0 .023.017.04a.056.056 0 1 0-.017-.04m.473.168c0 .068.022.119.056.119s.056-.051.056-.113c0-.068-.022-.118-.056-.118s-.056.05-.056.113m.804.383c.017.05.045.09.057.09c.01 0 .022-.04.022-.09c0-.045-.028-.085-.056-.085c-.034 0-.045.04-.023.085m7.578.208c0 .034.029.056.056.056c.04 0 .051-.022.029-.056c-.017-.034-.045-.056-.056-.056c-.017 0-.029.023-.029.056m-.534.355c0 .028.028.056.062.056s.045-.028.028-.056c-.023-.034-.05-.057-.062-.057c-.017 0-.028.023-.028.057m-3.42.056c0 .034.028.056.056.056c.04 0 .05-.022.028-.056c-.017-.034-.045-.056-.056-.056c-.017 0-.029.022-.029.056m.646.225a.13.13 0 0 0 .057.095c.033.023.062.012.062-.022c0-.028-.029-.073-.057-.096c-.034-.016-.062-.005-.062.023m-.883.13c0 .027.028.056.056.056c.04 0 .051-.029.029-.057c-.017-.034-.045-.056-.057-.056c-.017 0-.028.022-.028.056m-4.191.528c0 .068.022.107.056.085c.028-.017.04-.074.023-.119q-.078-.185-.08.034m10.976 0c0 .028.028.056.062.056c.04 0 .05-.028.028-.056c-.023-.034-.05-.056-.062-.056c-.017 0-.028.022-.028.056m-5.93.23c.017.034.045.057.056.057c.017 0 .029-.023.029-.056c0-.028-.028-.056-.057-.056c-.039 0-.05.028-.028.056m4.36.029c-.033.09.073.326.152.326s.113-.135.056-.281c-.056-.146-.157-.169-.208-.045m-1.732.264c0 .034.028.057.056.057c.04 0 .05-.023.028-.057c-.017-.028-.045-.056-.056-.056c-.017 0-.028.028-.028.056m-8.827.293c-.04.062.056.135.112.079s.045-.135-.022-.135c-.029 0-.068.028-.09.056m4.838.18c.022.034.05.056.062.056c.017 0 .028-.022.028-.056s-.028-.056-.062-.056s-.045.022-.028.056m-2.627.169c0 .033.028.073.056.095c.04.017.062-.005.062-.056c0-.05-.023-.09-.057-.09c-.033 0-.056.022-.056.056zm3.015 1.007a.06.06 0 0 0 .056.056c.04 0 .05-.028.028-.056c-.016-.034-.045-.057-.056-.057c-.017 0-.028.023-.028.057"/><path fill="#333" d="M10.865 7.09c-.434.136-.743.389-.754.62c-.006.112-.04.168-.107.157c-.158-.011-.113.135.079.27c.18.13.185.304.005.259c-.174-.045-.242.101-.169.383c.045.185.085.241.152.213c.09-.033.248.062.248.152c0 .028-.04.056-.096.056c-.079 0-.084.012-.022.085c.056.067.095.073.157.022c.101-.078.259.028.259.18c0 .057.056.158.135.225c.13.13.135.13.208.012c.056-.096.096-.107.186-.057c.14.073.213.293.112.355c-.095.062.068.14.602.287c1.187.332 2.29-.045 2.537-.867c.08-.264-.022-.697-.27-1.136a3.3 3.3 0 0 0-1.09-1.03a3.15 3.15 0 0 0-2.173-.185m1.608.462c.023.034 0 .056-.056.056l-.135.012c-.022 0-.05-.029-.062-.057c-.028-.084.203-.09.253-.01m.119.236c.022.034 0 .057-.057.057c-.05 0-.09-.023-.09-.057c0-.033.023-.056.057-.056c.028 0 .073.023.09.056m-2.307.237c.028.033.011.056-.023.056a.054.054 0 0 1-.056-.056c0-.034.006-.057.023-.057c.011 0 .04.023.056.057m1.097.022c0 .062-.112.09-.146.034c-.023-.028 0-.056.056-.056c.05 0 .09.01.09.022m-.945.45c0 .028-.011.056-.023.056c-.016 0-.044-.028-.067-.056c-.017-.034-.006-.062.028-.062s.062.028.062.057zm.4.5c-.057.057-.17-.033-.13-.1c.028-.04.056-.04.101 0c.034.033.05.078.028.1m2.553.097c0 .056-.129.056-.225-.006c-.05-.028-.067-.084-.044-.113c.039-.073.27.034.27.119m.884.106c0 .029-.011.057-.023.057c-.017 0-.045-.028-.062-.057c-.022-.033-.01-.056.023-.056c.034 0 .062.023.062.056m-2.712.293c0 .028-.017.056-.028.056c-.017 0-.045-.028-.062-.056c-.022-.034-.011-.056.023-.056c.039 0 .067.022.067.056m1.21 0c.017.028.005.056-.023.056a.13.13 0 0 1-.095-.056c-.023-.034-.012-.056.022-.056c.028 0 .073.022.096.056m1.063.113c.017.033-.011.061-.056.061c-.057 0-.085-.028-.062-.056c.017-.034.045-.056.056-.056s.04.022.056.056zm4.456.956a1.67 1.67 0 0 0-.715.945c-.09.338-.034 1.013.113 1.35c.073.158.281.433.467.619c.523.506 1.069.658 1.592.422c.984-.444.838-2.577-.225-3.274a1.27 1.27 0 0 0-1.238-.062zm-9.328.658a.24.24 0 0 0-.028.22c.022.067.045.208.056.309c0 .112.034.18.085.18c.044 0 .1.056.123.112c.05.141.017.226-.062.18c-.095-.056-.061.136.096.608a6.8 6.8 0 0 0 1.024 1.89c.349.44 1.03 1.052 1.159 1.052c.04 0 .084.04.101.085c.056.14 1.226.67 1.812.821c1.653.422 3.409.343 4.528-.202c.43-.204.78-.544.996-.968c.124-.32.085-.45-.135-.428c-.13.017-.191.08-.292.287c-.158.338-.411.552-.9.777c-1.638.742-4.467.354-6.02-.827c-.41-.304-1.181-1.103-1.181-1.216c0-.016-.085-.152-.18-.309a6.6 6.6 0 0 1-.681-1.868l-.124-.658c-.028-.152-.264-.18-.377-.045"/></g></svg>