<svg xmlns="http://www.w3.org/2000/svg" viewBox="0 0 24 24"><path fill="#6f4cff" fill-rule="evenodd" d="M12 21a9 9 0 1 0 0-18a9 9 0 0 0 0 18M8.063 10.875a3.38 3.38 0 0 0 3.374 3.375a3.38 3.38 0 0 0 3.376-3.375A3.38 3.38 0 0 0 11.437 7.5a3.38 3.38 0 0 0-3.374 3.375m1.124 0a2.25 2.25 0 0 1 2.25-2.25a2.25 2.25 0 0 1 2.25 2.25a2.25 2.25 0 0 1-2.25 2.25a2.25 2.25 0 0 1-2.25-2.25m5.46 4.335l-2.25 2.25a.56.56 0 0 1-.795 0a.563.563 0 0 1 0-.795l2.25-2.25a.563.563 0 0 1 .796.795m.053-7.148c0-.37.304-.675.675-.675s.675.304.675.675a.677.677 0 0 1-.675.675a.677.677 0 0 1-.675-.675" clip-rule="evenodd"/></svg>