<svg xmlns="http://www.w3.org/2000/svg" viewBox="0 0 24 24"><g fill="none"><path fill="url(#SVGmFCxIDFC)" d="m7.215 19.622l4.626-7.33c.07-.112-.01-.292-.143-.292H7.65c-.328 0-.529-.323-.354-.603l4.98-8.39l-.28-.005a8.998 8.998 0 0 0-4.78 16.62m4.515 1.376h.265a8.998 8.998 0 0 0 4.79-16.62l-4.441 7.363a.17.17 0 0 0 .143.26h4.35c.329 0 .572.401.398.682l-5.51 8.31z"/><defs><linearGradient id="SVGmFCxIDFC" x1="11.995" x2="11.995" y1="3.532" y2="20.468" gradientUnits="userSpaceOnUse"><stop stop-color="#06fcd7"/><stop offset="1" stop-color="#0502da"/></linearGradient></defs></g></svg>