<svg xmlns="http://www.w3.org/2000/svg" viewBox="0 0 24 24"><path fill="#e83c41" fill-rule="evenodd" d="M10.553 3.785a.707.707 0 0 1 1.4-.198l.116.816a7.55 7.55 0 0 1 4.807 1.585a.455.455 0 0 1 .102.597l-.542.894l-.007-.006l-1.022 1.664l.002.002l-.274.445a1 1 0 0 0-.066.074c-.35.435-.716.36-.926.223a2.846 2.846 0 1 0 .803 2.964a1 1 0 0 0 .055-.08c.27-.452.617-.455.846-.365l.138.074l.02.015v-.004l.424.226l2.678 1.413a.454.454 0 0 1 .22.56a7.6 7.6 0 0 1-3.321 3.89l.124.886a.71.71 0 0 1-1.125.666a.7.7 0 0 1-.275-.466l-.068-.48a7.5 7.5 0 0 1-1.613.353l.134.604a.71.71 0 0 1-.537.846a.706.706 0 0 1-.843-.536l-.199-.895A7.589 7.589 0 0 1 8.002 5.688l-.014-.053l-.225-1.016a.71.71 0 0 1 .537-.845a.706.706 0 0 1 .843.536l.151.68a7.5 7.5 0 0 1 1.37-.426zm4.713 2.836L14.3 8.254a4.267 4.267 0 1 0 1.616 5.894l1.652.934a6.16 6.16 0 0 1-5.335 3.072a6.165 6.165 0 1 1 3.034-11.533" clip-rule="evenodd"/></svg>