<svg xmlns="http://www.w3.org/2000/svg" viewBox="0 0 24 24"><g fill="none"><path fill="url(#SVGiBEQRd8j)" fill-rule="evenodd" d="m12 3l8 4.5v9L12 21l-8-4.5v-9zm7.25 4.64l-7-3.936v7.874zm.25.423L12.5 12l7 3.937zm-.25 8.296l-7-3.937v7.875zm-7.5 3.938l-7-3.938l7-3.937zm0-8.72l-7-3.936l7-3.937zM4.5 8.064l7 3.937l-7 3.937z" clip-rule="evenodd"/><path fill="url(#SVGY1fZkeZc)" d="m12 7.152l4.216 7.115L12 16.639l-4.216-2.371zm0 .975l-3.533 5.962L12 16.077l3.533-1.988z"/><defs><linearGradient id="SVGiBEQRd8j" x1="4.001" x2="19.999" y1="12" y2="12" gradientUnits="userSpaceOnUse"><stop stop-color="#06efa0"/><stop offset="1" stop-color="#01fafc"/></linearGradient><linearGradient id="SVGY1fZkeZc" x1="4" x2="19.999" y1="11.999" y2="11.999" gradientUnits="userSpaceOnUse"><stop stop-color="#06efa0"/><stop offset="1" stop-color="#01fafc"/></linearGradient></defs></g></svg>