<svg xmlns="http://www.w3.org/2000/svg" viewBox="0 0 24 24"><g fill="#03a7e4" fill-rule="evenodd" clip-rule="evenodd"><path d="m13.997 18.036l-.148.047a6.356 6.356 0 1 1 .147-.047m-3.41-9.741H8.295v.524h.244l.285.31v5.519s0 .529-.529.529v.53h1.588v-.53s-.53-.027-.53-.53V9.704l5.539 6.003h.285V9.353s0-.53.53-.53v-.528h-1.588v.529s.529 0 .529.53v3.404z"/><path d="M18.364 5.636A9 9 0 1 0 5.636 18.364A9 9 0 0 0 18.364 5.636m-3.73.007a6.885 6.885 0 1 0-5.274 12.72a6.885 6.885 0 0 0 5.275-12.72"/></g></svg>