<svg xmlns="http://www.w3.org/2000/svg" viewBox="0 0 24 24"><g fill="none"><path fill="#46b5e0" d="m3.29 9.284l.506 5.335l2.75 4.712l1.707-2.11l-2.198-6.868z"/><path fill="#0196da" d="m20.689 9.284l-.502 5.335l-2.749 4.712l-1.729-2.127l2.22-6.85z"/><path fill="#87c9eb" d="M15.633 17.291H8.44l-1.697 2.122L12.093 21l5.182-1.587z"/><path fill="#e3f4fc" d="m6.038 10.14l-2.765-.998L6.96 5.105L11.924 3v3l-5.891 4.14z"/><path fill="#82cef0" d="m17.961 10.14l2.766-.998l-3.688-4.037L12.076 3v3l5.89 4.14z"/><path fill="#b9e2fe" fill-rule="evenodd" d="m17.814 10.44l-5.803-4.167l-5.804 4.168l2.215 6.741H15.6l2.22-6.741zM7.582 13.72l4.429 3.25l4.429-3.25l-1.691-5.264H9.272z" clip-rule="evenodd"/></g></svg>