<svg xmlns="http://www.w3.org/2000/svg" viewBox="0 0 24 24"><g fill="none"><path fill="#ffa042" d="m14.95 7.41l.035-.12q.742-2.664-.69-2.95c.11.36.175.735.19 1.114a6.3 6.3 0 0 1-.42 2.535l.105.08zm1.345 10.678l-.68-1.8l-1.775 1.47l-1.625 2.75q2.439-.668 3.1-2.43a3.53 3.53 0 0 1-.125 2.22a2.26 2.26 0 0 0 1.1-2.21zM9.945 7.99a6.4 6.4 0 0 1-.424-2.535c.01-.38.08-.754.185-1.11c-.95.186-1.185 1.17-.685 2.945l.035.12l.775.66l.11-.08zm-1.56 8.3l-.68 1.8a2.27 2.27 0 0 0 1.11 2.21l-.08-.196a3.53 3.53 0 0 1-.05-2.025c.446 1.175 1.476 1.985 3.1 2.43l-1.624-2.75l-1.775-1.474z"/><path fill="#000" d="M13.54 3c.25.32.46.655.615 1.01q.314.676.365 1.45a6.3 6.3 0 0 1-.35 2.61l-.12-.08a3 3 0 0 0-.85-.4a1.15 1.15 0 0 0-.5-.675a1.44 1.44 0 0 0-.7-.185c-.26 0-.5.065-.7.185c-.25.16-.415.38-.5.67c-.305.095-.595.23-.86.405l-.11.08c-.3-.87-.42-1.74-.35-2.615A4.4 4.4 0 0 1 10.455 3a6.37 6.37 0 0 0-2.78 2.8c-.015.015-.02.04-.03.06a2.9 2.9 0 0 0-.095 2.46q-.526.366-.52 1.11a1.9 1.9 0 0 0 .65 1.374v.01c-.115.265-.22.54-.315.815c-1.074.05-1.82.52-2.224 1.43l-.64 1.61l.34.22c.275-.215.57-.4.88-.565c.605-.315 1.03-.44 1.274-.36l-1.06 1.55l.176.11l-.825 1.03l.165.165l-.69 1.285c-.035.285.025.59.19.93a3.69 3.69 0 0 0 3.37 1.964h.02c.19-.035.36-.09.5-.16c.074-.035.15-.08.204-.125a.1.1 0 0 1-.02-.035a1 1 0 0 1-.065-.11l-.14-.27c-.375-.784-.425-1.71-.16-2.774a3.6 3.6 0 0 0 1.15 1.94c.57.496 1.245.855 1.975 1.05l.19.05l.02-.01H12l.02.01l.19-.05a4.9 4.9 0 0 0 1.98-1.05a3.57 3.57 0 0 0 1.15-1.94c.305 1.244.19 2.294-.365 3.15l-.025.04c.17.124.405.224.705.284h.025a3.69 3.69 0 0 0 3.37-1.964q.245-.51.184-.93l-.685-1.285l.16-.165l-.825-1.03l.175-.11l-1.06-1.55c.25-.08.675.045 1.28.36c.32.17.615.36.875.565l.345-.22l-.65-1.61c-.405-.91-1.15-1.385-2.224-1.43c-.095-.275-.2-.55-.315-.815v-.01a1.88 1.88 0 0 0 .65-1.375c.01-.5-.165-.865-.515-1.11q.501-1.125-.1-2.46l-.025-.054a6.3 6.3 0 0 0-1.415-1.855l-.19-.165A6 6 0 0 0 13.54 3"/><path fill="#ff0a1c" d="M12.845 7.96a4 4 0 0 0-.34-.05q.751.973.625 2.15l-.005.064a4 4 0 0 1-.07.38l-.02.055l-.015.06l-.215-.065a3.2 3.2 0 0 0-1.59 0L11 10.62l-.015-.055v-.005l-.015-.055c-.03-.125-.05-.25-.07-.38l-.01-.07c-.085-.78.13-1.5.625-2.15l-.335.05c-.32.075-.625.195-.905.35l-.05.04l-.07.035a4 4 0 0 0-.55.425l-.025.025a4 4 0 0 0-.32.325a7.7 7.7 0 0 0-1.4 2.51q.523.261 1.075.45a9.1 9.1 0 0 0 3.16.555a9.1 9.1 0 0 0 3.675-.825c.13-.05.26-.115.39-.18a7.7 7.7 0 0 0-1.4-2.51a5 5 0 0 0-.32-.325l-.025-.025a4 4 0 0 0-.55-.425l-.06-.035l-.05-.035a3.3 3.3 0 0 0-.91-.35"/><path fill="#ff0a1c" d="m12.316 8.05l-.11-.15h-.385l-.115.15zm.49 2.209a2.95 2.95 0 0 0-.49-2.21h-.61a2.94 2.94 0 0 0-.49 2.21c.26-.065.53-.1.8-.105c.265 0 .53.04.79.105m-.795-3.095c-.42.07-.68.265-.795.585c.115-.3.375-.45.8-.435c.415-.01.68.13.79.435q-.165-.48-.795-.585"/><path fill="#ff0a1c" d="M12.01 7.315c-.42-.01-.68.13-.795.435c.265-.05.53-.06.8-.04q.398-.03.79.04c-.11-.3-.375-.45-.795-.435m-2.3 6.804q.336.391.935.205a1.9 1.9 0 0 0-.93-.205z"/><path fill="#ff0a1c" d="M10.64 15.1a1.13 1.13 0 0 1-.77-.15q.338.036.676-.07c.215-.07.44-.185.66-.34c-.815.27-1.515.155-2.09-.355l-.065-.06v.095c-.05.65.115 1.07.48 1.25c.385.18.75.055 1.11-.375zm.775-.205q.002.12.1.24c.135.175.2.35.19.535c-.12-.275-.3-.44-.55-.51a.56.56 0 0 0-.29-.005a.37.37 0 0 0-.24.24a.4.4 0 0 0 .05.425c.106.135.266.2.49.205a.5.5 0 0 1-.014-.35v-.01l.02-.035q.044-.045.14.03c.075.05.114.14.134.27c.035.35.216.55.555.57c.345-.02.54-.22.58-.57c.015-.13.055-.22.13-.27c.065-.05.115-.06.14-.03q.012.015.015.035l.005.01c.03.125.03.245-.015.35c.225 0 .385-.07.49-.205a.4.4 0 0 0 .05-.425q-.075-.195-.24-.24a.56.56 0 0 0-.285.005c-.25.07-.435.235-.55.51q-.016-.271.185-.535q.097-.12.105-.24a.26.26 0 0 0-.075-.18q-.203-.194-.525.085c-.214-.19-.39-.215-.52-.085a.23.23 0 0 0-.075.18"/><path fill="#e9a043" d="M9.46 13.665c1.67.448 3.43.448 5.1 0c.79-.2 1.2-.605 1.25-1.24c.01-.02.01-.055.01-.1l-.005-.105c-1.214.49-2.507.754-3.815.78c-1.2 0-2.45-.275-3.795-.78v.1a.3.3 0 0 0 .005.105c.05.635.465 1.04 1.25 1.24"/><path fill="#ff0a1c" d="M6.201 12.724a.33.33 0 0 1 .185-.035c.055.01.08.035.08.085s-.025.1-.08.16c-.05.06-.12.1-.19.14a.3.3 0 0 1-.19.035c-.05-.015-.08-.035-.08-.085s.025-.1.08-.16c.05-.06.12-.105.19-.14zm1.665-.435c0-.07-.01-.14 0-.21c-.87-.02-1.5.175-1.915.59q-.245.241-.384.595l-.35.885a2.55 2.55 0 0 1 1.61-.67c.544-.005.89.27 1.05.815q.232.825-.066 2.49q-.449 2.476.4 3.759l-.05-.515c-.285-.54-.285-1.495-.015-2.865l.015-.075l.05-.23l.005-.015l-.01-.015l.015.005c.37-1.344.4-2.34.075-2.98l.7.04a1.7 1.7 0 0 1-.44-.21a1.43 1.43 0 0 1-.525-.624q-.15-.329-.165-.77"/><path fill="#ff0a1c" d="m8.216 16.848l.005-.015h-.015l.01.01zm-.645-2.525l-.03-.07a.6.6 0 0 0-.075-.14l-.91 1.365c.185.09.34.2.48.32c.1.07.185.155.26.245c.04.04.075.09.115.14c.045.06.09.125.125.195c.165-.945.18-1.63.035-2.05zm-.235 2.15l-.11-.15a2.3 2.3 0 0 0-.665-.54l-.66.865q.418.72.94 1.365l.275.32q.083.099.18.19c-.015-.54.04-1.14.175-1.81l.01-.025l-.145-.22zm3.61-.155l-.185-.04c-.8-.13-1.23.075-1.3.62c-.1.79.07 1.39.49 1.785l.01-.01h.015q-.151-.278-.025-.885l.17-.82c.13-.36.4-.58.825-.65"/><path fill="#ff0a1c" d="M10 18.715a.1.1 0 0 0-.04-.04l-.01.01c.01.01.026.03.04.035zm.42-1.04v-.025l-.1.505l.01.015h-.01c-.03.75.525 1.41 1.68 1.83c1.15-.42 1.73-1.08 1.7-1.83h-.005l.01-.015l-.1-.505v.025c-.01.025-.01.045-.01.065a.7.7 0 0 1-.105.27q-.209.299-.785.334h-.025l-.375.006v.435c0 .14-.02.25-.07.32a.05.05 0 0 1-.02.024c-.02.035-.05.05-.09.07l-.114.036a.6.6 0 0 1-.11-.035a.2.2 0 0 1-.09-.07a.1.1 0 0 1-.025-.026c-.05-.075-.07-.18-.07-.32v-.434l-.375-.006h-.025q-.576-.036-.785-.334a.8.8 0 0 1-.1-.27c0-.02 0-.04-.01-.065"/><path fill="#ff0a1c" d="m10.33 18.168l-.01-.015v.015zm3.364 0h.01v-.015zm-1.684-.56h-.81l.22.39h1.2l.21-.39zm-1.01-.86l-.27.5h2.57l-.27-.5zm6.634-4.06c.06-.01.12 0 .19.036q.112.051.195.14c.05.06.08.11.08.16s-.03.07-.08.085q-.075.016-.195-.035a.7.7 0 0 1-.19-.14c-.05-.06-.08-.11-.08-.16s.025-.075.08-.085m.82.576a1.7 1.7 0 0 0-.385-.595q-.614-.621-1.91-.59v.21q-.021.441-.17.77a1.4 1.4 0 0 1-.52.625q-.194.127-.44.21l.7-.04c-.33.64-.3 1.635.075 2.98h.01l-.01.01l.005.014l.05.23l.02.075c.265 1.37.265 2.325-.015 2.865l-.05.515c.565-.85.7-2.11.4-3.76c-.2-1.11-.225-1.945-.07-2.49c.16-.544.51-.82 1.05-.814c.545 0 1.08.22 1.615.67z"/><path fill="#ff0a1c" d="M15.8 16.833v.01l.014-.015l-.01.005zm1.814.61c.18-.255.35-.525.51-.795l-.665-.865a3 3 0 0 0-.385.265c-.1.085-.195.175-.275.275l-.11.15c-.055.065-.105.14-.15.215l.01.025c.135.67.19 1.27.18 1.81l.175-.19l.275-.32c.15-.185.3-.375.435-.57m-2.64-3.225v-.1c-.024.025-.044.05-.07.065c-.574.51-1.274.625-2.09.35c.22.16.446.275.66.35c.23.065.45.09.676.06q-.284.203-.77.15q.54.646 1.11.37c.364-.175.53-.595.485-1.25zm1.5.035l-.025.07q-.211.639.035 2.05q.054-.099.13-.19q.156-.222.37-.385q.21-.186.48-.32l-.91-1.365l-.075.14z"/><path fill="#ff0a1c" d="M14.31 14.12a1.9 1.9 0 0 0-.934.204c.4.125.71.05.934-.205m-1.05 2.16l-.184.04c.42.07.695.29.824.65l.176.819c.08.405.075.7-.025.88l.014.005l.01-.02l.01.015c.416-.4.57-.985.475-1.77c-.065-.55-.5-.75-1.3-.62m.76 2.434l.046-.04h-.015z"/><path fill="#ffa042" d="m12.315 8.05l-.11-.15h-.385l-.115.15zm1.49.296l-.05-.035a3.3 3.3 0 0 0-1.25-.4q.751.974.625 2.15a2.65 2.65 0 0 0-.195-1.91c.29-.005.57.06.87.195m1.965 3.5c.13-.05.26-.116.39-.18a7.7 7.7 0 0 0-1.4-2.51a5.03 5.03 0 0 1 1.01 2.69m3.05 6.449l-.68-1.255a7.2 7.2 0 0 1-1.276 1.785a4.5 4.5 0 0 1-.37 1.644a3.7 3.7 0 0 0 1.85-1.14c.265-.32.425-.67.475-1.04z"/><path fill="#fffcab" d="M16.495 20.469c.225-.52.35-1.078.37-1.645a2 2 0 0 1-.17.165a3.35 3.35 0 0 1-.55 1.55z"/><path fill="#ffa042" d="m16.48 14.253l-.03.07q-.211.639.034 2.05q.054-.099.13-.19c-.15-.65-.2-1.295-.135-1.93m-1.45-.36l.7-.04c-.326.64-.3 1.64.075 2.99l.01-.015c-.27-1.605-.18-2.735.26-3.385c-.176.13-.385.215-.605.24q-.195.127-.44.21m-2.215.645c.22.155.445.27.66.34c.685.03 1.165-.205 1.43-.7c-.575.515-1.275.63-2.09.36"/><path fill="#ffa042" d="M14.31 14.12a1.9 1.9 0 0 0-.935.204c.4.125.715.05.935-.205m.02 2.624l.005.015c.115.34.15.695.09 1.065c-.05.335-.165.62-.35.83l-.01.02a.2.2 0 0 0-.045.04l.015.005c.45-.4.625-1 .525-1.82c-.065-.55-.5-.75-1.3-.62c.595-.025.95.115 1.06.445z"/><path fill="#ffa042" d="M14.02 18.713a.2.2 0 0 1 .045-.04h-.015zm-1.715-.365v.435c0 .14-.02.25-.07.32c.11-.09.17-.285.19-.585v-.01h.37l.05-.015c.465-.07.715-.325.75-.755c-.02.1-.05.19-.105.27q-.209.299-.785.335h-.025zm1.4-.18v-.015l-.01.015zm2.984-1.7q-.082.106-.15.22l.01.025c.136.67.19 1.27.18 1.81l.175-.19a9.5 9.5 0 0 0-.2-1.82zM10.276 8.31l-.05.035q.434-.202.86-.195a2.65 2.65 0 0 0-.195 1.905c-.085-.78.13-1.5.625-2.15l-.335.05a3.5 3.5 0 0 0-.905.35zm1.735-1.145c-.42.07-.68.265-.795.585c.115-.3.375-.45.8-.435c.415-.01.68.13.79.435q-.165-.48-.795-.585m-3.75 4.68c.085-1.05.42-1.95 1-2.69a7.7 7.7 0 0 0-1.4 2.51c.135.065.265.125.4.18m2.285 3.035c.215-.07.44-.185.66-.34c-.815.27-1.51.155-2.09-.355c.265.49.75.725 1.43.7z"/><path fill="#ffa042" d="M10.65 14.323a1.9 1.9 0 0 0-.934-.205q.33.391.93.205zm-2.354-.47l.7.04a1.6 1.6 0 0 1-.44-.21a1.25 1.25 0 0 1-.605-.24q.66.976.255 3.385l.01.015c.375-1.35.4-2.35.08-2.99m-.725.47l-.03-.07c.07.635.02 1.28-.13 1.93c.045.06.09.125.125.195c.165-.945.18-1.63.035-2.05zm-.1 2.39l.01-.025l-.145-.22l-.015.045c-.125.605-.2 1.21-.2 1.82q.076.099.175.19c-.015-.54.04-1.14.175-1.81m2.22.03l.01-.02c.12-.33.47-.47 1.06-.445c-.8-.13-1.23.075-1.3.62c-.1.82.075 1.42.53 1.82l.01-.005a.1.1 0 0 0-.04-.04l-.01-.02c-.19-.21-.3-.495-.35-.83a2.2 2.2 0 0 1 .09-1.08"/><path fill="#ffa042" d="M9.96 18.673c.015.01.03.02.04.04l-.025-.046zm.57-.665a.7.7 0 0 1-.1-.27q.046.647.745.755l.055.01l.05.005h.32v.01c.015.3.08.494.185.584c-.05-.075-.07-.18-.07-.32v-.434l-.375-.005h-.025q-.576-.036-.785-.335m-.2.16l-.01-.015v.015z"/><path fill="#fffcab" d="M8.205 12.22c.785.56 2.05.88 3.805.95c1.755-.07 3.025-.39 3.805-.95c-1.21.483-2.498.74-3.8.76c-1.2.005-2.465-.25-3.81-.76"/><path fill="#ffa042" d="m5.881 17.04l-.675 1.25c.05.37.21.72.475 1.04a3.74 3.74 0 0 0 1.85 1.14a4.6 4.6 0 0 1-.37-1.646a7 7 0 0 1-.37-.42c-.355-.42-.66-.88-.91-1.37z"/><path fill="#fffcab" d="M7.326 18.989c-.06-.05-.11-.105-.165-.165c.05.705.175 1.25.37 1.645l.345.07a3.34 3.34 0 0 1-.55-1.55"/><path fill="#000" d="M14.23 3.506c.309.577.483 1.216.51 1.87a7.8 7.8 0 0 1-1.02 4.25a5.1 5.1 0 0 1-1.36 1.54a3 3 0 0 0-.35-.37a2.7 2.7 0 0 0-.35.37a5.2 5.2 0 0 1-1.355-1.545a7.8 7.8 0 0 1-1.02-4.25c.05-.725.215-1.345.51-1.865c-1 .875-1.68 1.75-2.04 2.64c-.34.855-.34 1.6.01 2.22c-.764.52-.724 1.39.126 2.63c.13-.6.3-.94.505-1.03c.225-.1.5.15.834.75q.997 2.002 2.055 2.924c.22.125.455.185.725.175q.404.014.725-.175c.7-.615 1.39-1.59 2.06-2.925q.494-.9.83-.75c.21.09.375.43.51 1.03c.85-1.24.885-2.11.13-2.63c.345-.62.345-1.364 0-2.22Q15.73 4.82 14.23 3.507"/><path fill="#ffa042" d="M14.87 4.575c.07.32.126.635.15.95c.04.715-.08 1.55-.344 2.485q-.615 2.167-2.1 3.3c.224.304.389.649.485 1.015c.045.15.07.3.08.46a18 18 0 0 0 1.42-2.265c.61-1.025 1.11-1.21 1.51-.55c.05.09.1.18.14.28c.48-.83.375-1.435-.325-1.825c.62-1.135.34-2.38-.835-3.725l-.215-.245l.025.095zm-5.869.95q.045-.471.15-.95l.01-.025l.03-.095l-.22.25c-1.17 1.34-1.45 2.585-.835 3.72q-1.049.586-.32 1.825c.04-.1.085-.19.14-.28q.599-.989 1.505.55q.714 1.32 1.42 2.265a3.15 3.15 0 0 1 .56-1.475c-.98-.755-1.68-1.85-2.095-3.3a7.7 7.7 0 0 1-.345-2.49zm3.01 6.23c.155.17.27.35.36.535v.025c.045.085.07.165.075.225q.045.279-.075.46a.37.37 0 0 1-.15.125a.7.7 0 0 1-.195.034h-.035a.7.7 0 0 1-.2-.034a.4.4 0 0 1-.14-.125a.62.62 0 0 1-.08-.46c.01-.06.035-.14.07-.225l.01-.025q.136-.301.355-.535zm-.77.75q-.051.315.025.54c.02.07.05.135.1.195q.15.209.42.245q.114.02.22.024c.07-.005.15-.01.23-.024a.6.6 0 0 0 .42-.25a.6.6 0 0 0 .1-.19q.076-.226.025-.535a2 2 0 0 0-.12-.395a3.1 3.1 0 0 0-.65-.92a3.1 3.1 0 0 0-.65.92q-.081.192-.12.395z"/><path fill="#fffcab" d="M15.885 8.47c-.09.084-.26.13-.53.12c.93.23 1.21.794.85 1.7c.484-.826.38-1.43-.32-1.82m-.865-2.9c.04.715-.08 1.545-.345 2.484c-.415 1.445-1.11 2.545-2.1 3.3c.085.11.14.2.17.25a3.5 3.5 0 0 0 1.075-1.11a7 7 0 0 0 .805-1.63q.571-1.605.4-3.3zM8.665 8.59c-.265.01-.44-.036-.53-.12c-.7.39-.8.994-.315 1.82c-.365-.906-.08-1.47.845-1.7m.34-3.025a7.46 7.46 0 0 0 1.195 4.934c.272.447.64.826 1.08 1.11c.025-.05.085-.14.165-.25q-1.479-1.133-2.095-3.3A7.7 7.7 0 0 1 9 5.57zm2.235 6.989q-.051.301.025.535c-.085-.55.165-1.075.75-1.6c.58.525.83 1.05.74 1.6a1.1 1.1 0 0 0 .03-.535a2 2 0 0 0-.125-.4a3.1 3.1 0 0 0-.65-.92a3.1 3.1 0 0 0-.65.925q-.081.191-.12.395"/><path fill="#fffcab" d="M11.65 13.044a.63.63 0 0 1-.075-.46q.016-.098.07-.225c-.22.435-.195.73.07.9c.09.054.185.09.3.09c.11 0 .205-.036.295-.09c.265-.17.29-.465.07-.9q.054.128.07.225c.03.184.005.34-.08.46a.4.4 0 0 1-.14.12a.7.7 0 0 1-.2.04h-.035a.6.6 0 0 1-.2-.04a.4.4 0 0 1-.14-.12z"/></g></svg>