<svg xmlns="http://www.w3.org/2000/svg" viewBox="0 0 24 24"><g fill="none"><path fill="url(#SVG0oDY5cmt)" d="M16.5 5.261c-.04 3.589-3.004 4.5-4.5 4.489l.006 3.864H21V5.25z"/><path fill="url(#SVGfGhGidjv)" d="M16.793 18.75H12v-4.5h4.5v-9h.4A4.09 4.09 0 0 1 21 9.283v5.215a4.29 4.29 0 0 1-4.207 4.252"/><path fill="url(#SVGpQwOfxGE)" d="M7.5 14.25h9c-3.645 0-4.494 2.852-4.5 4.387c-.056-3.453-2.818-4.353-4.331-4.387z"/><path fill="url(#SVGfxOcCeYH)" d="M12.022 9.536v.506H7.376V5.283h.393a4.253 4.253 0 0 1 4.253 4.253"/><path fill="url(#SVGE77WJbRt)" d="M3.107 18.75H3V9.3a4.05 4.05 0 0 1 4.05-4.05h.45c0 3.488 2.728 4.483 4.05 4.5h.793a4.085 4.085 0 0 1 4.157 4.073v.427h-9v.011a4.416 4.416 0 0 1-4.393 4.49"/><defs><linearGradient id="SVG0oDY5cmt" x1="21" x2="12.01" y1="5.949" y2="16.33" gradientUnits="userSpaceOnUse"><stop stop-color="#2f1e58"/><stop offset="1" stop-color="#4c318d"/></linearGradient><linearGradient id="SVGfGhGidjv" x1="12.045" x2="9.691" y1="5.25" y2="20.777" gradientUnits="userSpaceOnUse"><stop stop-color="#7b42a1"/><stop offset=".54" stop-color="#c75693"/><stop offset="1" stop-color="#a1467a"/></linearGradient><linearGradient id="SVGpQwOfxGE" x1="5.745" x2="14.779" y1="5.821" y2="8.958" gradientUnits="userSpaceOnUse"><stop stop-color="#84354c"/><stop offset="1" stop-color="#b64a69"/></linearGradient><linearGradient id="SVGfxOcCeYH" x1="5.244" x2="10.083" y1="6.207" y2="19.947" gradientUnits="userSpaceOnUse"><stop stop-color="#8454f4"/><stop offset="1" stop-color="#5d3bac"/></linearGradient><linearGradient id="SVGE77WJbRt" x1="5.756" x2="7.534" y1="5.779" y2="19.127" gradientUnits="userSpaceOnUse"><stop stop-color="#8453ee"/><stop offset=".68" stop-color="#b456b2"/><stop offset=".98" stop-color="#201128"/></linearGradient></defs></g></svg>