<svg xmlns="http://www.w3.org/2000/svg" viewBox="0 0 24 24"><g fill="#1c430d"><path d="M20.41 16.782c.392 0 .526-.475.462-.738c-.43-.642-1.224-.813-1.884-.813a4.3 4.3 0 0 0-.83.088c.327.461 1.855 1.463 2.252 1.463"/><path fill-rule="evenodd" d="m14.271 8.976l.092.766a.7.7 0 0 0 .286-.092a.37.37 0 0 0 .18-.355a.32.32 0 0 0-.069-.194c-.12-.143-.332-.143-.489-.125m.12.96a.8.8 0 0 0 .341-.115a.58.58 0 0 0 .268-.54a.55.55 0 0 0-.115-.323c-.185-.208-.494-.213-.73-.162l-.078.019l.226 1.8l.166-.028l-.078-.646z" clip-rule="evenodd"/><path d="M12.895 8.77c.166.295.305.6.438.913l.282.674l-.185.074l-.244-.586l-.591.184c-.07.226-.134.439-.17.587l-.195-.051l.185-.646c.13-.397.263-.785.48-1.15m-.23 1.029l.442-.139l-.217-.47c-.069.16-.147.382-.221.609zm-1.26-.444l-.02-.092l.222-.032l.074.41l-.208.056a.5.5 0 0 0-.12-.134a.3.3 0 0 0-.189-.074c-.023 0-.07.019-.138.074a1.18 1.18 0 0 0-.416.859c0 .244.185.461.48.461a.5.5 0 0 0 .226-.092c.093-.06.194-.139.277-.23l.176.12a1.6 1.6 0 0 1-.323.271a.7.7 0 0 1-.356.125c-.415 0-.706-.305-.706-.655s.19-.762.49-1.002a.47.47 0 0 1 .29-.125a.5.5 0 0 1 .24.06m-2.442.624l-.047-.259l.203-.028l.047.245c.152-.018.314-.014.429 0l-.028.185a1.7 1.7 0 0 0-.369 0l.074.434c.277.036.65.124.65.433c0 .263-.221.453-.47.55l.078.433l-.203.028l-.074-.406l-.115.01c-.17 0-.342-.093-.462-.195l.139-.134a.53.53 0 0 0 .323.144c.018 0 .046 0 .083-.01l-.125-.692q-.15-.015-.3-.046c-.124-.032-.258-.097-.258-.231c0-.23.185-.392.425-.461m.032.184c-.139.046-.254.139-.254.277c0 .032.092.046.11.05q.09.023.208.038L9 10.154zm.314.582l.106.604c.161-.069.305-.189.305-.36c0-.175-.264-.217-.416-.244zm7.634 1.486c.203.101.554.355.969.683q1.363 1.081 2.548 2.354c.161.175.29.341.387.484c.093.139.153.259.153.37c0 .369-.152.743-.577.743c-.185 0-.48-.102-.863-.323c-.374-.213-.845-.554-1.385-1.048l-.286.148c-.803.443-1.592.923-2.39 1.375a35 35 0 0 1-1.856.992c-.379.185-.845.453-1.274.453c-.29 0-.61-.185-.863-.31a20.1 20.1 0 0 1-4.893-3.433q2.998-.812 6.01-1.56q1.842-.473 3.706-.854a5 5 0 0 1 .614-.074m-9.997 2.566a22.2 22.2 0 0 0 4.629 3.208c.23.11.53.29.794.29c.401 0 .849-.267 1.2-.433a33 33 0 0 0 1.846-.988c.803-.452 1.588-.932 2.395-1.375c.162-.093.287-.157.351-.176l.046-.018l.037.032q.643.604 1.399 1.062c.235.159.503.261.784.3c.323 0 .407-.3.407-.573c0-.046-.037-.152-.125-.286a4 4 0 0 0-.37-.466a23 23 0 0 0-2.533-2.33c-.397-.315-.73-.555-.919-.656a4 4 0 0 0-.53.078a76 76 0 0 0-3.693.854c-1.984.49-4.214 1.076-5.723 1.477z"/><path d="M5.05 7.154c1.305-1.108 3.549-1.616 5.843-1.616c1.144 0 1.938.097 2.506.291c.577.199.923.49 1.19.863l.005.005c1.62 2.76 2.248 4.874 2.363 5.594l-.166.027c-.106-.692-.724-2.787-2.335-5.533a2.08 2.08 0 0 0-1.108-.799c-.55-.185-1.32-.282-2.456-.282c-2.28 0-4.477.508-5.737 1.574a5.54 5.54 0 0 0-1.467 2.276a8.1 8.1 0 0 0-.522 2.75c0 .845.194 1.464.563 1.87c.37.406.923.618 1.671.618c1.339 0 2.566-.396 3.028-.549l.138-.046l.046.162l-.133.046c-.457.143-1.708.554-3.079.554c-.78 0-1.385-.222-1.79-.674c-.412-.448-.61-1.113-.61-1.98c0-.868.185-1.879.535-2.807a5.7 5.7 0 0 1 1.514-2.344"/><path d="M6.924 9.867c0-1.684.175-3.193.286-3.738c-3.965 1.2-4.126 5.137-4.126 6.6c0 1.468 1.283 2.16 2.413 2.16c.91 0 2.179-.327 2.696-.494c-.439-.807-1.27-2.843-1.27-4.523z"/></g></svg>