<svg xmlns="http://www.w3.org/2000/svg" viewBox="0 0 24 24"><g fill="none"><path fill="url(#tokenBrandedAlu0)" fill-rule="evenodd" d="M12.002 2a2.68 2.68 0 0 1 2.143 1.2l3.675 6.3l1.807-3.087c.35-.6 1.125-.813 1.737-.47c.606.338.813 1.107.462 1.707l-2.543 4.356l2.543 4.35c.35.606.144 1.375-.462 1.713a1.29 1.29 0 0 1-1.737-.475l-1.807-3.088l-3.675 6.3l-.093.144A2.69 2.69 0 0 1 11.989 22a2.53 2.53 0 0 1-1.919-.913a1.3 1.3 0 0 1-.218-.28l-.05-.088a4 4 0 0 1-.144-.244l-.938-1.6l-.587-1L6.177 14.5l-1.8 3.087a1.29 1.29 0 0 1-1.738.476a1.24 1.24 0 0 1-.462-1.713L4.72 12L2.177 7.644a1.237 1.237 0 0 1 .462-1.707a1.287 1.287 0 0 1 1.738.47L6.17 9.5l2.813-4.812l.668-1.15q.077-.148.182-.307l.019-.031a1.2 1.2 0 0 1 .187-.244A2.54 2.54 0 0 1 12.002 2m3.393 8.356l.963 1.65l-4.363 7.469l-4.362-7.469l1.044-1.787l3.375 6.081l3.343-5.937zm-1.431-2.45l-1.969-3.375L10.14 7.72l1.913 3.437z" clip-rule="evenodd"/><path fill="url(#tokenBrandedAlu1)" d="M16.358 9.437c-.462 0-.819.644-.956.92L16.389 12l1.088-1.05c-.144-.812-.538-1.531-1.119-1.525z"/><path fill="url(#tokenBrandedAlu2)" d="M7.646 9.425c.462.006.893.531 1.03.8l-1.043 1.781l-1.106-1.062c.144-.813.537-1.525 1.119-1.519"/><path fill="url(#tokenBrandedAlu3)" d="M11.057 3.888c.469.018.813.443.938.643l-.925 1.575l-1.569-.9c.488-.875.963-1.337 1.55-1.312z"/><path fill="url(#tokenBrandedAlu4)" d="M11.033 20.113c.475-.02.838-.438.963-.638l-1.388-2.363l-1.55.876c.088.168.606 1.125.7 1.262c.394.581.8.881 1.275.863"/><defs><linearGradient id="tokenBrandedAlu0" x1="11.995" x2="11.995" y1="2" y2="22" gradientUnits="userSpaceOnUse"><stop stop-color="#00D1FF"/><stop offset="1" stop-color="#EC1EFF"/></linearGradient><linearGradient id="tokenBrandedAlu1" x1="4.894" x2="12.778" y1="4.961" y2="20.254" gradientUnits="userSpaceOnUse"><stop stop-color="#4B7DDF"/><stop offset="1" stop-color="#717BFF"/></linearGradient><linearGradient id="tokenBrandedAlu2" x1="18.51" x2="9.003" y1="4.906" y2="18.962" gradientUnits="userSpaceOnUse"><stop stop-color="#4B7DDF"/><stop offset="1" stop-color="#6F7CFF"/></linearGradient><linearGradient id="tokenBrandedAlu3" x1="17.687" x2="6.974" y1="2" y2="16.973" gradientUnits="userSpaceOnUse"><stop stop-color="#08A9D8"/><stop offset="1" stop-color="#2BB0FF"/></linearGradient><linearGradient id="tokenBrandedAlu4" x1="11.365" x2="9.94" y1="19.994" y2="17.444" gradientUnits="userSpaceOnUse"><stop stop-color="#A526CA"/><stop offset="1" stop-color="#B746FF"/></linearGradient></defs></g></svg>