<svg xmlns="http://www.w3.org/2000/svg" viewBox="0 0 24 24"><g fill="none"><path fill="#a2c3e6" fill-rule="evenodd" d="M12 20.47c4.659 0 8.47-3.811 8.47-8.47S16.66 3.53 12 3.53S3.53 7.34 3.53 12s3.81 8.47 8.47 8.47m0 .53a9 9 0 1 0 0-18a9 9 0 0 0 0 18" clip-rule="evenodd"/><path fill="#fff" d="M16.765 6.176h-9.53v9.61q.001 1.123 1.456 1.773q.483.22 1.292.45l1.202.344l.17.074c.245.097.463.253.634.455c.217-.236.49-.413.795-.513q.216-.081 1.185-.36q.841-.239 1.308-.445q1.486-.643 1.488-1.779z"/><path fill="#a3c4e9" d="M11.666 18.088q.157.105.322.264l.244-.206q.168-.127.455-.222c.133-.053.487-.148 1.06-.302c.497-.138.889-.265 1.164-.376q1.324-.549 1.323-1.503V6.705h-8.47v9.037c0 .635.434 1.132 1.291 1.498c.292.122.673.249 1.155.376l1.069.29z"/><path fill="#fff" d="m9.881 9.427l-.545-.085l-.249-.518l-.243.518l-.551.085l.397.408l-.095.577l.492-.275l.492.275l-.095-.582z"/><path fill="#ffe500" d="M10.412 11.048c-.005.085.006.143.053.19c-.069.043-.053.112-.026.175a.53.53 0 0 0 .27.223c.026-.037-.037-.127-.016-.19c.08.052.159.094.212.089c-.038-.063-.043-.106-.027-.122c.143-.106.313-.238.413-.264c.08-.027.164.026.18.116c.016.106-.032.19-.106.265c-.138.127-.323.19-.466.333c-.227.223-.275.466-.55.477a.74.74 0 0 0 .323-.313c-.54.075-.874-.185-1.207-.338c-.149-.064-.297-.08-.376-.096a.64.64 0 0 1-.233-.38c-.037-.186.016-.35-.175-.371c-.106-.133-.249-.223-.455-.106c.106.015.19.042.243.185c-.016.021-.053.053-.053.085c-.068.005-.09.01-.137.053c-.18-.07-.355-.043-.44.116c.127-.026.223-.026.313.053c.01.053.016.085.047.127a.24.24 0 0 0-.121.175c-.149.032-.239.106-.244.233c.106-.064.212-.075.265-.059c.037.032.063.09.137.106c.08.021.233-.005.323.016c.037.053.048.085.043.117c-.011.137-.265.047-.239.254c-.09.021-.143-.005-.211-.053c.047.201.18.291.36.196c.148.032.243-.106.376-.175c.132-.063.322.021.428.085c.17.106.344.238.435.545a.33.33 0 0 0 .105-.212l.434.355l-.926.635c-.064.043-.132.085-.201.059c-.053-.016-.09-.075-.138-.117c-.074-.058-.17-.1-.275-.053c-.164 0-.318.032-.35.254c.053-.042.106-.084.207-.053q-.001.079.053.143c-.053.027-.085.069-.085.1c-.159.006-.265.08-.28.244c.084-.08.158-.11.264-.074c.027.159.111.186.212.17c-.026.074-.037.121 0 .18c-.053.105.005.238.08.286c-.006-.064 0-.143.047-.175c.085.016.148-.016.238-.117a.16.16 0 0 0 .17.127c.01.09.053.16.116.207a.5.5 0 0 1-.01-.228c.158-.106.127-.227.153-.365c.027-.154.117-.223.254-.302c.265-.159.588-.275 1.09-.312c.16.17.318.35.514.503c-.301.217-.508.127-.757.153c-.11.01-.259.053-.338.133c-.07.063-.106.143-.186.18c-.058.026-.137.031-.233-.037c-.005.196.085.264.313.248c-.08.085-.165.117-.34.064c.075.153.191.212.377.196c.047.264.434.413.365.624c-.095.286-.81.366-1.07.217c-.185-.105-.264-.275-.476-.222c-.122-.095-.339-.127-.429.106c.16-.08.228-.037.19.053c-.28 0-.386.127-.343.296c.053-.09.106-.105.18-.1a.4.4 0 0 0-.037.212c-.138.069-.143.206-.08.317c.037-.09.053-.174.143-.18a.46.46 0 0 0 .212.133a.63.63 0 0 0 .026.386a.5.5 0 0 1 .106-.206c.143.09.297.09.445.053c.302-.07.492-.281.725-.281c.133 0 .196.09.106.196a.9.9 0 0 0 .381-.096c.143-.073.233-.163.371-.195c.233-.053.556.185.715-.074c-.186.026-.292-.048-.318-.122c.228.032.37.026.498-.143a.424.424 0 0 1-.503-.35c-.021-.132.026-.38.339-.46c.105-.185.158-.28.264-.434l.037-.149a.36.36 0 0 1 .016.212c-.037.106-.122.223-.175.35a.8.8 0 0 0-.052.301c.01.106.053.207.127.286c.132.138.317.244.185.514c.143-.01.222-.069.36-.212c.106.069.19.17.148.297c.18-.048.291-.17.355-.35c.254.01.392.053.423.138c.037.143-.37.678-.879.699c-.084-.021-.148-.096-.211-.122c-.053-.027-.138-.021-.207.069c-.159-.043-.344 0-.397.159c-.095.031-.18.158-.164.264a.8.8 0 0 1 .185-.095c.011.037.075.069.112.08c-.212.163-.223.301-.207.37c.095-.132.201-.159.254-.153c.037.084.106.116.212.127l.01.227l.18-.18a.66.66 0 0 0 .625-.074c.307-.201.434-.598.662-.572c.053 0 .095.048.069.106a.17.17 0 0 0 .153-.053c.09-.09.143-.28.313-.503c.106-.137.36-.291.434-.434c-.117.074-.26.053-.275-.01c.211-.101.397-.212.476-.477a.7.7 0 0 1-.333.069c.095-.18.127-.366.037-.487c-.292.381-.64.317-.784.228c-.111-.07-.212-.17-.222-.413a1 1 0 0 1 .042-.255c.032-.095.069-.169.069-.254c.309.175.656.27 1.011.276c.455-.016.752-.34.741-.742a.95.95 0 0 0-.275-.587c-.196-.217-.466-.424-.646-.64a.9.9 0 0 1-.18-.36c-.042-.186-.01-.398.212-.583c.243.127.471.175.688.159c.223-.01.397-.127.566-.255c.08-.052.16-.116.318-.1a.4.4 0 0 0-.296-.106c.35-.37.492-.847.296-1.165c-.032.186-.106.228-.17.265c-.084.053-.153.064-.275.122c.064-.106.059-.19.016-.318c-.148.35-.344.265-.619.519a.42.42 0 0 0-.016-.318a.35.35 0 0 1-.159.233c-.249.16-.556.196-.497.726c-.318.222-.434.487-.413.751c.016.223.116.424.28.614c.17.202.408.387.583.567c.18.201.354.55.153.794c-.132.164-.513.26-1.307-.18c-.043-.381-.371-.768-.44-1.112a.8.8 0 0 1 .01-.36c.027-.105.064-.211.059-.344a.44.44 0 0 0 .413.085a.26.26 0 0 1-.17-.26c0-.2.133-.402.011-.63c.1.064.212.106.339.053c-.286-.164-.021-.38-.159-.661c.1.042.244.042.35-.01c-.34-.07-.16-.45-.456-.705a.35.35 0 0 0 .291-.127c-.307.042-.46-.318-.72-.519a1.12 1.12 0 0 0-.9-.19c0-.043.085-.112.186-.16c-.318-.116-.646-.031-.927.191a.34.34 0 0 0-.085-.28c-.037.2-.375.317-.497.481a.38.38 0 0 0-.085.25c-.302.19-.386.174-.476.407c-.154.106-.34.227-.45.339c0 .032.02.074.031.11l.085-.073a.2.2 0 0 0 .016.201c.069.106.212.17.297.212c-.053-.133-.038-.17.026-.207c.132-.074.44-.053.466-.01c.037.053-.01.286-.175.349c-.122.048-.201.01-.291-.069zm.53-.916c-.07.064-.064.159-.143.196c-.053.032-.117.021-.143 0c-.037-.042-.053-.095 0-.148c.053-.059.185-.053.29-.053z"/><path fill="#7b003a" d="M9.496 8.293c.02 0 .031.016.037.037l.079.202c.08.174.08.185-.122.211a.05.05 0 0 0-.016.037c0 .022.006.032.022.043h.894a.05.05 0 0 0 .021-.043c0-.02-.01-.031-.02-.042c-.122-.01-.218-.021-.27-.132l-.054-.085l-.423-.921l-.138-.318c-.005-.032-.032-.047-.069-.047l-.08.058a.6.6 0 0 1-.19.084c0 .053-.037.16-.121.297l-.276.566l-.19.376c-.059.106-.154.117-.276.122a.05.05 0 0 0-.01.042c0 .022.01.032.021.043h.683c.01-.005.021-.021.021-.043a.06.06 0 0 0-.016-.042c-.127-.016-.238 0-.185-.132l.116-.27a.06.06 0 0 1 .032-.043zm-.472-.143c-.01-.01-.01-.026.011-.053l.074-.18c.053-.116.09-.2.127-.259q.048.081.111.249l.08.19c.021.027.021.048.01.053zm2.489-.333c.1-.185.18-.318.243-.387c.053-.074.148-.079.233-.095c.01-.01.016-.021.016-.042c0-.016-.01-.053-.021-.058h-.625c-.021.005-.026.037-.026.052c0 .022 0 .038.01.048c.037.005.164.01.164.053l-.026.085a6 6 0 0 1-.233.482l-.106.217l-.09.174l-.35-.699l-.084-.174c-.053-.111 0-.117.132-.138a.07.07 0 0 0 .01-.042c0-.016 0-.053-.015-.058h-.831c-.01.005-.016.037-.021.052c-.006.022 0 .032.01.053c.212.037.254.085.334.265l.471.937l.122.265q.023.015.08.016a.2.2 0 0 0 .1-.021l.29-.583zm1.207-.37c0-.043 0-.075.016-.085l.084-.011h.27c.08 0 .138.005.185.021c.053.01.085.032.107.053a.45.45 0 0 1 .09.19c.02.011.042.011.068.011q.032.001.048-.02l-.005-.371h-1.52c-.016.005-.02.02-.02.037c0 .02 0 .037.015.047l.063.006c.07.005.106.02.127.052c.016.032.016.101.016.212v.884c0 .202-.026.239-.248.265c-.01.01-.016.021-.016.042s.005.032.015.043h.975a.06.06 0 0 0 .016-.043a.06.06 0 0 0-.016-.042c-.223-.021-.27-.063-.265-.265v-.317c0-.037 0-.059.016-.07c.005-.004.026-.01.069-.01h.264a.4.4 0 0 1 .16.027c.031.016.047.053.057.106l.016.058q.025.016.059.016c.026 0 .047-.006.053-.016v-.503c-.006-.01-.027-.021-.053-.021a.1.1 0 0 0-.053.021l-.022.053c-.01.053-.031.095-.053.111a.4.4 0 0 1-.169.027h-.265q-.054 0-.068-.016q-.016-.013-.016-.059zm2.191-.212c-.571 0-1.058.232-1.058.815c0 .582.497.773 1.053.773q.198 0 .37-.032l.303-.053c.053-.063.095-.18.127-.36q-.017-.025-.059-.026c-.031 0-.053 0-.069.01a.67.67 0 0 1-.412.318a.8.8 0 0 1-.265.037c-.233.021-.424-.28-.429-.667c0-.376.127-.71.413-.71c.328 0 .535.106.625.329c.02.01.042.01.069.01c.031-.005.053-.016.053-.026a2 2 0 0 1-.038-.36c-.053 0-.132-.016-.248-.032a3 3 0 0 0-.435-.026"/></g></svg>