<svg xmlns="http://www.w3.org/2000/svg" viewBox="0 0 24 24"><g fill="none"><path fill="#8d6521" d="M21 12a9 9 0 1 1-18 0a9 9 0 0 1 18 0m-9 8.471a8.471 8.471 0 1 0 0-16.943a8.471 8.471 0 0 0 0 16.943"/><path fill="#d8b343" d="M20.044 12a8.043 8.043 0 1 1-16.087 0a8.043 8.043 0 0 1 16.087 0"/><path fill="#ffec62" d="M20.606 12a8.606 8.606 0 1 1-17.213 0a8.606 8.606 0 0 1 17.213 0M12 20.043a8.044 8.044 0 1 0 0-16.088a8.044 8.044 0 0 0 0 16.088"/><path fill="#fcdb5f" d="m7.663 18.778l8.246-13.81c.58.321 1.12.715 1.597 1.17L9.451 19.634a8.3 8.3 0 0 1-1.788-.855M19.21 8.422l-2.003 3.41l-1.175-.687l2.362-4.022c.315.405.585.844.816 1.3"/><path fill="#bb8b25" d="M20.044 12.276a8.4 8.4 0 0 1-.231 1.654c-.675.556-1.485 1.457-2.194 2.25c-.366.41-.703.793-.99 1.085c1.018-1.912 2.492-3.87 3.415-4.99"/><path fill="#ecce46" d="M10.392 4.114c-.816.968-1.626 2.531-1.733 4.776L6.96 12.287c-.55-1.069-1.108-3.712.27-6.767a8 8 0 0 1 3.162-1.406"/><path fill="#fada5e" d="M12.73 3.984a8 8 0 0 1 1.885.405l-1.783 4.118l-.815-1.423l.714-3.094z"/><path fill="#8d6521" fill-rule="evenodd" d="M12 18.481a6.48 6.48 0 1 0 0-12.962a6.48 6.48 0 0 0 0 12.962m0 .169a6.649 6.649 0 1 0 0-13.298a6.649 6.649 0 0 0 0 13.298" clip-rule="evenodd"/><path fill="#8d6521" fill-rule="evenodd" d="M12 17.48a5.478 5.478 0 1 0 0-10.956a5.478 5.478 0 0 0 0 10.956m0 .17a5.647 5.647 0 1 0 0-11.294a5.647 5.647 0 0 0 0 11.293" clip-rule="evenodd"/><path fill="#b88829" d="M17.068 12.001a5.07 5.07 0 0 1-3.087 4.835A5.07 5.07 0 0 1 6.938 12a5.068 5.068 0 0 1 10.125 0z"/><path fill="#8d6521" fill-rule="evenodd" d="M12 16.9a4.9 4.9 0 1 0 0-9.8a4.9 4.9 0 0 0 0 9.8m0 .169a5.068 5.068 0 1 0 0-10.13a5.068 5.068 0 0 0 0 10.124z" clip-rule="evenodd"/><path fill="#fcdb5f" d="m14.363 19.695l.984-1.946a6.7 6.7 0 0 0 1.856-1.615l-1.535 3.026a8 8 0 0 1-1.31.535z"/><path fill="url(#SVG1HolgeHC)" d="m10.043 13.654l2.002 3.145c.371-.394 1.148-1.232 1.305-1.412c.158-.186.22-.36.225-.428c1.125-2.25.658-4.275-.709-8.634l-.82-1.609l-.878 1.502c-.743 2.25-1.058 5.895-1.125 7.436"/><path fill="#341902" d="m12.05 4.536l.895 1.755v.006c1.361 4.342 1.85 6.412.714 8.69c-.017.09-.084.27-.242.45c-.163.186-.94 1.024-1.31 1.418l-.074.078l-2.08-3.256v-.023c.072-1.547.387-5.203 1.13-7.464v-.006zm-.81 1.716c-.73 2.221-1.046 5.827-1.113 7.38l1.929 3.026a82 82 0 0 0 1.232-1.328a.9.9 0 0 0 .208-.382v-.011l.006-.012c1.108-2.21.652-4.213-.715-8.572L12.04 4.89z"/><path fill="#ffffe6" d="m11.865 6.735l.315-1.474l.551 1.181l-.41 2.081z"/><path fill="#fff894" d="m11.865 6.735l.315-1.474l.551 1.181z"/><path fill="#e7c233" d="m11.545 9.998l.776-1.502l-.444-1.744l-.563-.309l-.573 2.813z"/><path fill="url(#SVGkyQ7ueyj)" d="m11.516 10.392l-.748-.9l-.439 2.689s.135.247.366.185a.77.77 0 0 0 .41-.258z"/><path fill="url(#SVGpMsE4bvW)" d="m11.634 10.33l.715-1.716l1.012 1.412l-.816 1.732z"/><path fill="url(#SVGizy0Lcyy)" d="m13.592 10.134l-.94 1.946a.163.163 0 0 0 .08.225c.393.095 1.034.45 1.304.607c.146-1.12-.236-2.317-.444-2.779"/><path fill="url(#SVGp5Df7cZq)" d="m12.41 11.956l-.821-1.18l-.439 1.405l.776 1.052c.113-.18.36-.58.484-.76c.118-.185.05-.421 0-.517"/><path fill="url(#SVG4dkIhdrZ)" d="m12.518 12.581l-.642.968c-.044.292.434 1.102.687 1.445l.635.011l-.68.08c-.135.28-.355.787-.445.956a.6.6 0 0 0 0 .483c.36-.388 1.12-1.215 1.26-1.406c.248-.332.608-1.873.507-1.963c-.113-.09-.417-.338-.748-.574c-.327-.247-.518-.101-.574 0"/><path fill="url(#SVG2UysCbGF)" d="M10.408 12.741c-.27.225-.264.692-.225.9l1.665 2.621l.546-1.333l-1.407-2.492c-.084.011-.315.085-.579.304"/><path fill="url(#SVGYPj13bHX)" d="m12.428 8.552l1.153 1.4c0-1.141-.495-2.508-.804-3.386z"/><path fill="#ffda55" d="m11.82 6.612l-.473-.225l.742-1.34z"/><path fill="url(#SVGwetYwb8a)" d="m14.346 11.724l.303 1.66l.788-.372a.5.5 0 0 0 .169-.135c.855-.748 1-1.682 1.175-3.74l-.067-.81l-.625.477a15 15 0 0 0-1.743 2.925z"/><path fill="#341902" d="m16.781 8.165l.085.973v.011c-.169 2.042-.32 3.01-1.198 3.786a.54.54 0 0 1-.192.157l-.787.366l-.101.05l-.326-1.794l.01-.022a15.2 15.2 0 0 1 1.75-2.942l.006-.006l.76-.58zm-.635.703a15 15 0 0 0-1.71 2.869l.281 1.524l.68-.32a.4.4 0 0 0 .136-.107l.005-.012l.012-.011c.82-.72.973-1.614 1.147-3.673l-.056-.653z"/><path fill="#ffffe6" d="m16.291 9.137l.383-.563l.028.591l-.529.799z"/><path fill="#fff894" d="m16.292 9.137l.382-.563l.028.591z"/><path fill="#e7c233" d="m15.6 10.452l.58-.5l.111-.805l-.18-.225l-.72 1.08z"/><path fill="url(#SVGJU5FAdKB)" d="m15.521 10.61l-.157-.506l-.647 1.052s.017.123.123.14a.34.34 0 0 0 .214-.04z"/><path fill="url(#SVGUmia3dyq)" d="m15.583 10.607l.59-.596l.186.765l-.64.585z"/><path fill="url(#SVGWbEXedtB)" d="m16.438 10.86l-.731.652c-.045.04-.023.09 0 .112c.146.107.354.36.439.473c.253-.444.298-1.012.292-1.237"/><path fill="url(#SVG7IlAY4ZQ)" d="m15.628 11.42l-.14-.635l-.428.512l.146.573l.337-.236c.08-.056.09-.169.085-.214"/><path fill="url(#SVGLHW2MdfO)" d="m15.566 11.696l-.433.298c-.068.113-.006.534.04.72l.264.113l-.298-.08l-.35.321a.27.27 0 0 0-.083.203c.219-.101.674-.315.77-.371a2.2 2.2 0 0 0 .546-.732l-.214-.37c-.096-.158-.203-.136-.242-.102"/><path fill="url(#SVGdYuKRbbT)" d="M14.655 11.404c-.152.05-.225.248-.248.338l.248 1.383l.461-.46l-.169-1.289a.6.6 0 0 0-.292.028"/><path fill="url(#SVG6rK9diig)" d="m16.219 9.999l.242.782c.197-.478.225-1.136.242-1.553l-.49.771z"/><path fill="#ffda55" d="m16.292 9.075l-.158-.168l.54-.434l-.382.608z"/><path fill="url(#SVGEGGeDfNi)" d="m15.448 13.913l-.08 2.374l1.165-.343c.14-.05.236-.13.265-.163c1.355-.861 1.828-2.127 2.649-4.95l.146-1.154l-.973.535c-1.164.99-2.599 2.88-3.172 3.707z"/><path fill="#341902" d="m19.694 9.525l-.163 1.316v.006c-.821 2.818-1.3 4.117-2.683 5a.7.7 0 0 1-.292.17c-.147.055-.838.258-1.16.354l-.112.028l.08-2.51l.01-.022c.574-.82 2.02-2.722 3.19-3.718l.005-.005zm-1.029.76c-1.142.972-2.554 2.829-3.133 3.655l-.073 2.234c.354-.102.917-.27 1.046-.315a.56.56 0 0 0 .225-.13l.011-.011l.012-.006c1.321-.843 1.788-2.075 2.615-4.905l.118-.973z"/><path fill="#ffffe6" d="m18.795 10.723l.675-.703l-.135.827l-.934 1.007z"/><path fill="#fff894" d="m18.795 10.723l.675-.703l-.135.827z"/><path fill="#e7c233" d="m17.49 12.404l.923-.568l.382-1.102l-.18-.349l-1.271 1.35z"/><path fill="url(#SVGIHY8bc9X)" d="m17.338 12.614l-.068-.731l-1.164 1.321s-.017.175.124.22c.097.032.202.03.298-.006z"/><path fill="url(#SVGS7xnxb5T)" d="m17.422 12.619l.962-.71l.028 1.103l-1.023.681z"/><path fill="url(#SVGp7O8wb0z)" d="m18.49 13.148l-1.158.754a.113.113 0 0 0-.045.152c.169.185.377.58.455.76c.375-.49.631-1.06.749-1.666"/><path fill="url(#SVGceyDseIY)" d="m17.248 12.844l-.72.63l.028.821l.512-.253c.124-.062.169-.214.18-.281z"/><path fill="url(#SVGfazeseZw)" d="m17.085 14.137l-.664.32c-.124.141-.17.743-.158 1.013l.32.214l-.376-.18l-.557.377a.4.4 0 0 0-.169.264c.321-.096.996-.298 1.137-.36c.37-.237.689-.545.939-.905l-.174-.563c-.085-.236-.231-.225-.299-.186z"/><path fill="url(#SVGje4jLpFa)" d="M15.948 13.535c-.208.034-.371.292-.428.416l-.061 1.98l.742-.551l.152-1.823a.8.8 0 0 0-.405-.022"/><path fill="url(#SVGc1IjfcJt)" d="m18.446 11.904l.101 1.136c.394-.618.619-1.53.77-2.109z"/><path fill="#ffda55" d="m18.812 10.646l-.158-.282l.844-.489z"/><path fill="url(#SVGfuBZ0cnu)" d="m8.534 13.913l.073 2.374l-1.158-.343a.65.65 0 0 1-.265-.163c-1.355-.861-1.828-2.127-2.65-4.95L4.39 9.677l.973.535c1.164.99 2.599 2.88 3.172 3.707z"/><path fill="#341902" d="m4.289 9.525l.163 1.316v.006c.82 2.818 1.293 4.117 2.683 5a.7.7 0 0 0 .292.17c.147.055.833.258 1.16.354l.112.028l-.08-2.51l-.016-.022c-.568-.82-2.014-2.722-3.184-3.718l-.005-.005zm1.029.76c1.142.972 2.554 2.829 3.133 3.655l.073 2.234c-.354-.102-.917-.27-1.046-.315a.56.56 0 0 1-.225-.13l-.011-.011l-.012-.006c-1.321-.843-1.788-2.075-2.615-4.905l-.118-.973z"/><path fill="#ffffe6" d="m5.188 10.723l-.675-.703l.135.827l.933 1.007z"/><path fill="#fff894" d="m5.188 10.723l-.675-.703l.135.827z"/><path fill="#e7c233" d="m6.487 12.404l-.917-.568l-.383-1.102l.18-.349l1.272 1.35l-.147.67z"/><path fill="url(#SVGR9057frw)" d="m6.645 12.614l.067-.731l1.165 1.321s.01.175-.124.22a.45.45 0 0 1-.298-.006z"/><path fill="url(#SVGRahowtzG)" d="m6.56 12.619l-.961-.71l-.028 1.103l1.024.681z"/><path fill="url(#SVGf2J0gb5z)" d="m5.492 13.148l1.158.754c.08.05.057.124.04.152a3.6 3.6 0 0 0-.45.76a4 4 0 0 1-.748-1.666"/><path fill="url(#SVGPAzIVdeg)" d="m6.734 12.844l.72.63l-.028.821l-.512-.253c-.129-.062-.168-.214-.18-.281z"/><path fill="url(#SVGFbv1PeAU)" d="m6.898 14.137l.663.32c.124.141.169.743.152 1.013l-.315.214l.371-.18l.563.377a.43.43 0 0 1 .169.264c-.321-.096-.996-.298-1.137-.36a3.3 3.3 0 0 1-.939-.905l.174-.563c.085-.236.231-.225.299-.186z"/><path fill="url(#SVGRVpWQdMq)" d="M8.034 13.537c.208.034.371.292.428.416l.062 1.98l-.743-.551l-.152-1.823c.045-.022.191-.056.405-.022"/><path fill="url(#SVGDH7Wyb2j)" d="m5.536 11.904l-.1 1.136c-.395-.618-.62-1.53-.771-2.109z"/><path fill="#ffda55" d="m5.17 10.646l.158-.282l-.844-.489z"/><path fill="url(#SVGtPKBMbIH)" d="m9.654 11.724l-.303 1.66l-.788-.372a.44.44 0 0 1-.169-.135c-.849-.748-1-1.682-1.175-3.74l.067-.81l.63.477A15 15 0 0 1 9.66 11.73z"/><path fill="#341902" d="m7.218 8.165l-.084.973v.011c.168 2.042.32 3.01 1.198 3.786a.54.54 0 0 0 .197.157c.095.05.562.265.787.366l.101.05l.326-1.794l-.01-.022A15.2 15.2 0 0 0 7.976 8.75l-.005-.006zm.636.703c.674.89 1.248 1.852 1.71 2.869l-.276 1.524l-.686-.32a.4.4 0 0 1-.135-.107v-.012l-.017-.011c-.821-.72-.973-1.614-1.148-3.673l.057-.653z"/><path fill="#ffffe6" d="m7.708 9.137l-.382-.563l-.028.591l.529.799l-.113-.827z"/><path fill="#fff894" d="m7.708 9.137l-.382-.563l-.028.591z"/><path fill="#e7c233" d="m8.4 10.452l-.58-.5l-.112-.805l.18-.225l.72 1.08z"/><path fill="url(#SVG6sVlV2Md)" d="m8.478 10.61l.163-.506l.642 1.052s-.017.123-.124.14a.34.34 0 0 1-.214-.04z"/><path fill="url(#SVG6xfBBeUU)" d="m8.417 10.607l-.59-.596l-.186.765l.64.585z"/><path fill="url(#SVGdxhh6bQd)" d="m7.567 10.86l.726.652c.045.04.022.09.006.112c-.152.107-.36.36-.445.473a2.6 2.6 0 0 1-.287-1.237"/><path fill="url(#SVGVMdrwcxD)" d="m8.371 11.42l.141-.635l.427.512l-.146.573l-.337-.236c-.079-.056-.09-.169-.085-.214"/><path fill="url(#SVGgHIrdb5i)" d="m8.434 11.696l.433.298c.067.113.011.534-.04.72l-.264.113l.298-.08c.113.096.281.265.349.321a.3.3 0 0 1 .084.203q-.39-.177-.77-.371a2.2 2.2 0 0 1-.546-.732l.214-.37c.095-.158.202-.136.242-.102"/><path fill="url(#SVGtsERncnI)" d="M9.345 11.404c.152.05.225.248.248.338l-.248 1.383l-.455-.46l.168-1.289a.65.65 0 0 1 .287.028"/><path fill="url(#SVGAa2DScif)" d="m7.782 9.999l-.242.782c-.192-.478-.22-1.136-.242-1.553l.49.771z"/><path fill="#ffda55" d="m7.708 9.075l.157-.168l-.54-.434l.383.608z"/><path fill="url(#SVGP1mZCbwt)" d="M10.892 18.194a2.45 2.45 0 0 0 1.153 2.002c.348-.304 1.26-1.333 1.26-1.896c0-.365-.9-.91-1.26-1.012c-.453.201-.848.51-1.153.9z"/><path fill="#341902" d="m12.045 17.192l.022.011c.438.156.835.41 1.16.743c.09.112.168.23.168.354c0 .158-.068.343-.163.529a6.1 6.1 0 0 1-1.13 1.434l-.046.04l-.056-.034a2.53 2.53 0 0 1-1.193-2.081v-.023l.017-.017c.118-.18.326-.382.546-.556c.225-.17.461-.321.647-.389zm0 .18c-.158.056-.366.191-.568.355c-.203.157-.394.337-.5.494c0 .945.674 1.62 1.057 1.874c.408-.398.76-.851 1.046-1.345c.09-.168.14-.332.14-.45c0-.056-.039-.14-.123-.242a3 3 0 0 0-1.046-.686z"/><path fill="url(#SVGXdc4ocJo)" d="M12.028 17.416c-.45.23-.844.647-.984.822c0 .658.467 1.265.697 1.49l.439-.456l-.77-.849c.292-.27.81-.641 1.029-.787z"/><path fill="url(#SVG5QTkSd1z)" d="m12.214 18.374l-.44.32l-.28-.259l.371-.303z"/><path fill="url(#SVGvUvZldhB)" d="m12.455 17.681l-.506.45c.343.208.754.602.917.776c.596-.63-.028-1.085-.41-1.232z"/><path fill="url(#SVGWTByxj2P)" d="m12.304 18.525l-.394.259l.393.455l-.483.546l.225.214c.327-.289.587-.646.76-1.047z"/><defs><linearGradient id="SVG1HolgeHC" x1="11.998" x2="11.998" y1="3" y2="21" gradientUnits="userSpaceOnUse"><stop stop-color="#fee481"/><stop offset=".4" stop-color="#ffffbd"/><stop offset=".68" stop-color="#fff88a"/><stop offset="1" stop-color="#f1e675"/></linearGradient><linearGradient id="SVGkyQ7ueyj" x1="11.957" x2="10.387" y1="3.036" y2="21.565" gradientUnits="userSpaceOnUse"><stop stop-color="#c18b00"/><stop offset="1" stop-color="#936200"/></linearGradient><linearGradient id="SVGpMsE4bvW" x1="12.029" x2="12.029" y1="3" y2="21" gradientUnits="userSpaceOnUse"><stop stop-color="#fff5d0"/><stop offset=".45" stop-color="#ffe373"/><stop offset="1" stop-color="#ffe78a"/></linearGradient><linearGradient id="SVGizy0Lcyy" x1="8.596" x2="11.705" y1="9.195" y2="22.647" gradientUnits="userSpaceOnUse"><stop stop-color="#daa400"/><stop offset="1" stop-color="#bc8600"/></linearGradient><linearGradient id="SVGp5Df7cZq" x1="14.533" x2="11.944" y1="7.862" y2="17.461" gradientUnits="userSpaceOnUse"><stop stop-color="#d49b00"/><stop offset="1" stop-color="#fbc928"/></linearGradient><linearGradient id="SVG4dkIhdrZ" x1="12.011" x2="12.011" y1="3.007" y2="21.002" gradientUnits="userSpaceOnUse"><stop stop-color="#9d6900"/><stop offset="1" stop-color="#7f4f00"/></linearGradient><linearGradient id="SVG2UysCbGF" x1="12.012" x2="12.012" y1="2.998" y2="20.998" gradientUnits="userSpaceOnUse"><stop stop-color="#905e00"/><stop offset="1" stop-color="#bc9021"/></linearGradient><linearGradient id="SVGYPj13bHX" x1="7.918" x2="9.153" y1="4.196" y2="20.081" gradientUnits="userSpaceOnUse"><stop stop-color="#ffdb5b"/><stop offset="1" stop-color="#ffdf6a"/></linearGradient><linearGradient id="SVGwetYwb8a" x1="20.751" x2="16.775" y1="3.039" y2="23.257" gradientUnits="userSpaceOnUse"><stop offset=".4" stop-color="#ffffbd"/><stop offset=".68" stop-color="#fff88a"/></linearGradient><linearGradient id="SVGJU5FAdKB" x1="18.86" x2="9.884" y1="3.423" y2="23.392" gradientUnits="userSpaceOnUse"><stop stop-color="#c18b00"/><stop offset="1" stop-color="#936200"/></linearGradient><linearGradient id="SVGUmia3dyq" x1="18.131" x2="13.605" y1="3.377" y2="22.763" gradientUnits="userSpaceOnUse"><stop stop-color="#fff5d0"/><stop offset=".45" stop-color="#ffe373"/><stop offset="1" stop-color="#ffe78a"/></linearGradient><linearGradient id="SVGWbEXedtB" x1="11.902" x2="12.203" y1="7.501" y2="20.686" gradientUnits="userSpaceOnUse"><stop stop-color="#daa400"/><stop offset="1" stop-color="#bc8600"/></linearGradient><linearGradient id="SVG7IlAY4ZQ" x1="18.293" x2="11.957" y1="8.782" y2="19.273" gradientUnits="userSpaceOnUse"><stop stop-color="#d49b00"/><stop offset="1" stop-color="#fbc928"/></linearGradient><linearGradient id="SVGLHW2MdfO" x1="17.077" x2="10.302" y1="3.337" y2="23.45" gradientUnits="userSpaceOnUse"><stop stop-color="#9d6900"/><stop offset="1" stop-color="#7f4f00"/></linearGradient><linearGradient id="SVGdYuKRbbT" x1="19.857" x2="16.793" y1="3.588" y2="22.239" gradientUnits="userSpaceOnUse"><stop stop-color="#905e00"/><stop offset="1" stop-color="#bc9021"/></linearGradient><linearGradient id="SVG6rK9diig" x1="19.138" x2="18.338" y1="4.045" y2="19.54" gradientUnits="userSpaceOnUse"><stop stop-color="#ffdb5b"/><stop offset="1" stop-color="#ffdf6a"/></linearGradient><linearGradient id="SVGEGGeDfNi" x1="21.167" x2="12.307" y1="3.077" y2="24.796" gradientUnits="userSpaceOnUse"><stop stop-color="#fee481"/><stop offset=".4" stop-color="#ffffbd"/><stop offset=".68" stop-color="#fff88a"/></linearGradient><linearGradient id="SVGIHY8bc9X" x1="21.164" x2="6.183" y1="3.519" y2="22.529" gradientUnits="userSpaceOnUse"><stop stop-color="#c18b00"/><stop offset="1" stop-color="#936200"/></linearGradient><linearGradient id="SVGS7xnxb5T" x1="21.89" x2="14.007" y1="3.511" y2="25.058" gradientUnits="userSpaceOnUse"><stop stop-color="#fff5d0"/><stop offset=".45" stop-color="#ffe373"/><stop offset="1" stop-color="#ffe78a"/></linearGradient><linearGradient id="SVGp7O8wb0z" x1="12.182" x2="10.973" y1="6.832" y2="20.666" gradientUnits="userSpaceOnUse"><stop stop-color="#daa400"/><stop offset="1" stop-color="#bc8600"/></linearGradient><linearGradient id="SVGceyDseIY" x1="20.297" x2="10.049" y1="9.209" y2="20.612" gradientUnits="userSpaceOnUse"><stop stop-color="#d49b00"/><stop offset="1" stop-color="#fbc928"/></linearGradient><linearGradient id="SVGfazeseZw" x1="18.853" x2="6.168" y1="3.542" y2="23.064" gradientUnits="userSpaceOnUse"><stop stop-color="#9d6900"/><stop offset="1" stop-color="#7f4f00"/></linearGradient><linearGradient id="SVGje4jLpFa" x1="23.943" x2="19.033" y1="4.003" y2="24.791" gradientUnits="userSpaceOnUse"><stop stop-color="#905e00"/><stop offset="1" stop-color="#bc9021"/></linearGradient><linearGradient id="SVGc1IjfcJt" x1="19.025" x2="16.683" y1="3.96" y2="20.699" gradientUnits="userSpaceOnUse"><stop stop-color="#ffdb5b"/><stop offset="1" stop-color="#ffdf6a"/></linearGradient><linearGradient id="SVGfuBZ0cnu" x1="2.831" x2="11.683" y1="3.077" y2="24.804" gradientUnits="userSpaceOnUse"><stop stop-color="#fee481"/><stop offset=".4" stop-color="#ffffbd"/><stop offset=".68" stop-color="#fff88a"/></linearGradient><linearGradient id="SVGR9057frw" x1="2.835" x2="17.816" y1="3.519" y2="22.533" gradientUnits="userSpaceOnUse"><stop stop-color="#c18b00"/><stop offset="1" stop-color="#936200"/></linearGradient><linearGradient id="SVGRahowtzG" x1="2.11" x2="9.993" y1="3.511" y2="25.058" gradientUnits="userSpaceOnUse"><stop stop-color="#fff5d0"/><stop offset=".45" stop-color="#ffe373"/><stop offset="1" stop-color="#ffe78a"/></linearGradient><linearGradient id="SVGf2J0gb5z" x1="11.836" x2="13.042" y1="6.832" y2="20.666" gradientUnits="userSpaceOnUse"><stop stop-color="#daa400"/><stop offset="1" stop-color="#bc8600"/></linearGradient><linearGradient id="SVGPAzIVdeg" x1="3.703" x2="13.816" y1="9.209" y2="20.553" gradientUnits="userSpaceOnUse"><stop stop-color="#d49b00"/><stop offset="1" stop-color="#fbc928"/></linearGradient><linearGradient id="SVGFbv1PeAU" x1="5.146" x2="17.831" y1="3.542" y2="23.064" gradientUnits="userSpaceOnUse"><stop stop-color="#9d6900"/><stop offset="1" stop-color="#7f4f00"/></linearGradient><linearGradient id="SVGRVpWQdMq" x1=".056" x2="4.974" y1="3.99" y2="24.795" gradientUnits="userSpaceOnUse"><stop stop-color="#905e00"/><stop offset="1" stop-color="#bc9021"/></linearGradient><linearGradient id="SVGDH7Wyb2j" x1="4.974" x2="7.316" y1="3.96" y2="20.699" gradientUnits="userSpaceOnUse"><stop stop-color="#ffdb5b"/><stop offset="1" stop-color="#ffdf6a"/></linearGradient><linearGradient id="SVGtPKBMbIH" x1="3.249" x2="7.246" y1="3.039" y2="23.265" gradientUnits="userSpaceOnUse"><stop offset=".4" stop-color="#ffffbd"/><stop offset=".68" stop-color="#fff88a"/></linearGradient><linearGradient id="SVG6sVlV2Md" x1="5.139" x2="14.115" y1="3.423" y2="23.392" gradientUnits="userSpaceOnUse"><stop stop-color="#c18b00"/><stop offset="1" stop-color="#936200"/></linearGradient><linearGradient id="SVG6xfBBeUU" x1="5.87" x2="10.395" y1="3.377" y2="22.763" gradientUnits="userSpaceOnUse"><stop stop-color="#fff5d0"/><stop offset=".45" stop-color="#ffe373"/><stop offset="1" stop-color="#ffe78a"/></linearGradient><linearGradient id="SVGdxhh6bQd" x1="12.025" x2="11.776" y1="7.501" y2="20.682" gradientUnits="userSpaceOnUse"><stop stop-color="#daa400"/><stop offset="1" stop-color="#bc8600"/></linearGradient><linearGradient id="SVGVMdrwcxD" x1="5.706" x2="12.042" y1="8.782" y2="19.273" gradientUnits="userSpaceOnUse"><stop stop-color="#d49b00"/><stop offset="1" stop-color="#fbc928"/></linearGradient><linearGradient id="SVGgHIrdb5i" x1="6.923" x2="13.697" y1="3.337" y2="23.45" gradientUnits="userSpaceOnUse"><stop stop-color="#9d6900"/><stop offset="1" stop-color="#7f4f00"/></linearGradient><linearGradient id="SVGtsERncnI" x1="4.008" x2="7.053" y1="3.576" y2="22.247" gradientUnits="userSpaceOnUse"><stop stop-color="#905e00"/><stop offset="1" stop-color="#bc9021"/></linearGradient><linearGradient id="SVGAa2DScif" x1="5.069" x2="5.869" y1="4.045" y2="19.54" gradientUnits="userSpaceOnUse"><stop stop-color="#ffdb5b"/><stop offset="1" stop-color="#ffdf6a"/></linearGradient><linearGradient id="SVGP1mZCbwt" x1="12.021" x2="12.021" y1="2.966" y2="21" gradientUnits="userSpaceOnUse"><stop stop-color="#f2de68"/><stop offset="1" stop-color="#ffffd2"/></linearGradient><linearGradient id="SVGXdc4ocJo" x1="12" x2="12" y1="2.999" y2="20.999" gradientUnits="userSpaceOnUse"><stop stop-color="#a66f00"/><stop offset=".46" stop-color="#581f00"/><stop offset="1" stop-color="#d19900"/></linearGradient><linearGradient id="SVG5QTkSd1z" x1="21" x2="2.437" y1="11.82" y2="11.82" gradientUnits="userSpaceOnUse"><stop stop-color="#c68200"/><stop offset="1" stop-color="#edb400"/></linearGradient><linearGradient id="SVGvUvZldhB" x1="5.872" x2="13.696" y1="5.712" y2="13.474" gradientUnits="userSpaceOnUse"><stop offset=".51" stop-color="#865300"/><stop offset="1" stop-color="#ca9000"/></linearGradient><linearGradient id="SVGWTByxj2P" x1="12.309" x2="12.309" y1="18.525" y2="19.999" gradientUnits="userSpaceOnUse"><stop stop-color="#f7c116"/><stop offset="1" stop-color="#ffd53c"/></linearGradient></defs></g></svg>