<svg xmlns="http://www.w3.org/2000/svg" viewBox="0 0 24 24"><g fill="none"><path fill="#2ab643" d="M4.721 6.91L8.096 3l5.108 1.074l1.57 4.54l4.656.984L21 14.464l-3.29 3.91l-4.866-.929L9.734 21l-5.013-.956L3 15.06l3.206-3.701l-1.485-4.444z"/><path fill="#068210" d="M9.874 8.14L8.36 3.725l4.32.849l1.367 4.286l-2.852 3.145l-4.303-.732zm6.216 5.535l-1.52-4.421l4.326.855l1.362 4.286l-2.852 3.145l-4.298-.732zm-7.937 2.74L6.64 11.999l4.32.855l1.366 4.286l-2.852 3.139l-4.303-.731z"/><path fill="#fff" d="M8.384 12.636L6.466 6.842l2.784-1.84l1.648 4.715l1.373-1.654l.523 1.378l-1.44 1.744l.917 2.486l4.702-2.942l.754 2.025l-7.65 4.759l-1.238-3.375l-1.322 1.558l-.506-1.446z"/></g></svg>