<svg xmlns="http://www.w3.org/2000/svg" viewBox="0 0 24 24"><g fill="none"><path fill="url(#SVGPmCkdbYV)" d="M9.015 3.017c-.154.016-.23.055-.266.133c-.053.113-.01.21.896 2.039c.237.476.444.92.46.983a.9.9 0 0 1-.002.467c-.016.066-.208.482-.425.923c-.545 1.107-.805 1.643-2.992 6.16l-2.618 5.403c-.433.892-.71 1.483-.724 1.55c-.029.136 0 .21.107.272c.07.04.106.043 1.222.049c1.353.007 1.602-.007 1.78-.09c.242-.111.29-.185.679-.984l.905-1.858c.306-.627 1.088-2.24 1.738-3.583c1.337-2.761 2.129-4.385 2.153-4.41c.063-.062.605 1.039 4.64 9.404c.306.634.591 1.198.632 1.254a.7.7 0 0 0 .155.156c.165.115.167.115 1.547.115c1.131 0 1.298-.004 1.515-.04q.125-.015.25-.044a3 3 0 0 0-.112-.308c-.13-.327-.235-.544-3.322-6.897q-2.13-4.37-4.244-8.746c-.806-1.674-.788-1.636-.936-1.774C11.84 2.994 11.886 3 10.415 3c-.692 0-1.323.008-1.4.017"/><defs><linearGradient id="SVGPmCkdbYV" x1="6.429" x2="19.136" y1="3.964" y2="22.163" gradientUnits="userSpaceOnUse"><stop stop-color="#5e9ff9"/><stop offset="1" stop-color="#0050f9"/></linearGradient></defs></g></svg>