<svg xmlns="http://www.w3.org/2000/svg" viewBox="0 0 24 24"><g fill="none"><path fill="#efefef" d="M13.141 5.098c.282-.888-.48-1.429-.895-1.59c-.84-.181-1.26.455-1.399.78c-.468 1.489-1.5 4.599-1.717 5.331c-.258.913.259 1.531 1.075 1.645a1.17 1.17 0 0 0 1.213-.672z"/><path fill="#ed1650" d="M13.178 4.276c-.295-.901-1.231-.889-1.663-.769a1.3 1.3 0 0 0-.757 1.465c.505 1.513 1.567 4.713 1.831 5.446c.325.912 1.255 1.014 1.982.618c.6-.324.534-.925.45-1.189z"/><path fill="#e5e5e5" d="M10.073 11.263c.96.012 1.261-.78 1.285-1.23a1.3 1.3 0 0 0-1.183-1.172a573 573 0 0 0-5.601 0c-.985.018-1.621.787-1.465 1.603c.12.673.684.793.96.799c1.591.006 5.038-.012 6.004 0"/><path fill="#cecece" d="M8.284 14.704c.78.588 1.537.03 1.814-.324c.432-.763 0-1.441-.27-1.681a523 523 0 0 0-4.774-3.495c-.81-.576-1.597-.156-1.951.6c-.288.625.096 1.13.324 1.304L8.29 14.71z"/><path fill="#bfbfbf" d="M6.022 18.86c-.319.924.438 1.476.858 1.632c.859.18 1.37-.438 1.513-.768a511 511 0 0 0 1.874-5.62c.3-.948-.337-1.573-1.165-1.68c-.679-.085-1.045.437-1.141.708z"/><path fill="#a8a8a8" d="M6.471 18.295c-.786.582-.474 1.464-.216 1.83c.6.637 1.37.421 1.681.229c1.31-.985 4.095-3.074 4.72-3.566c.78-.613.612-1.49-.013-2.042c-.51-.462-1.098-.24-1.333-.072z"/><path fill="#888" d="M16.078 20.264c.786.583 1.537.018 1.813-.336c.42-.768-.012-1.44-.282-1.681c-1.327-.96-4.143-3.002-4.798-3.458c-.816-.57-1.603-.144-1.945.612c-.288.624.102 1.129.33 1.303c1.303.942 4.095 2.978 4.882 3.56"/><path fill="#7c7c7c" d="M15.626 19.693c.313.93 1.243.9 1.675.769a1.36 1.36 0 0 0 .727-1.532c-.528-1.56-1.663-4.85-1.94-5.595c-.342-.937-1.224-1.045-1.945-.619c-.588.349-.558.98-.474 1.255z"/><path fill="#6d6d6d" d="M20.346 11.222c.793-.57.492-1.459.24-1.831a1.35 1.35 0 0 0-1.68-.24c-1.322.96-4.132 3.02-4.762 3.506c-.793.6-.63 1.483-.012 2.041c.504.463 1.099.252 1.333.084c1.297-.948 4.089-2.99 4.881-3.56"/><path fill="#0a66ea" d="M19.71 11.263c.978.012 1.272-.744 1.29-1.195a1.36 1.36 0 0 0-1.2-1.206a480 480 0 0 0-5.914 0c-.991.012-1.381.792-1.225 1.614c.126.673.744.781 1.032.787c1.61.012 5.044-.012 6.022 0z"/></g></svg>