<svg xmlns="http://www.w3.org/2000/svg" viewBox="0 0 24 24"><g fill="#644786"><path d="M9.687 2.288c1.5-.388 3.088-.375 4.594-.013l.038.05a19.5 19.5 0 0 1 1.762 3.1c.619-.037 1.244-.069 1.863-.031c.475.012.95.075 1.425.125h.056A11 11 0 0 1 20.9 7.794c-.169.531-.35 1.062-.556 1.575a10.2 10.2 0 0 0-1.463-2.725a14 14 0 0 0-2.344-.069c.35.994.619 2.019.8 3.063c.088.606.169 1.212.2 1.825c-.062.312.238.437.325.7a1.25 1.25 0 0 1-.3 1.393l-.018.25c-.02.263-.038.532-.07.794a22 22 0 0 1-.15 1.087a19 19 0 0 1-.812 3.107a15 15 0 0 0 2.294-.063a9.7 9.7 0 0 0 1.975-4.594c.263.538.513 1.076.738 1.625l.025.063a10.6 10.6 0 0 1-2.294 4.125c-1.063.012-2.125.081-3.188-.012c-.262.5-.5 1.024-.78 1.518c-.495.2-1 .363-1.52.475l-.119.031c.463-.687.875-1.412 1.238-2.162a15.5 15.5 0 0 1-4.75-1.613a1.06 1.06 0 0 1-.975-.012a1.19 1.19 0 0 1-.6-.956l-.162-.125a15.9 15.9 0 0 1-3.52-3.42q-.68 1.113-1.193 2.314a9.6 9.6 0 0 0 1.563 2.825c.825.075 1.65.1 2.468.037l.025.075c.138.356.288.719.438 1.063a16.6 16.6 0 0 1-3.344-.038l-.125-.012a10.96 10.96 0 0 1-2.537-5.344a11.4 11.4 0 0 1 .068-4.275a10.9 10.9 0 0 1 2.25-4.7a9.9 9.9 0 0 1 5.194-3.331zm.888 1.012c-.55.1-1.094.238-1.606.444a8.96 8.96 0 0 0-3.782 2.818A9.2 9.2 0 0 0 3.675 9.35q.506 1.22 1.2 2.338A19 19 0 0 1 6.919 9.45c.462-.387.912-.8 1.418-1.125v-.013l.225-.168c0-.25.063-.488.188-.688a1.07 1.07 0 0 1 1.512-.344l.25-.125c.5-.256 1.025-.456 1.544-.674a17.5 17.5 0 0 1 2.856-.75a17 17 0 0 0-1.269-2.225a8.6 8.6 0 0 0-3.068-.038m3.181 3.713c-.55.137-1.1.312-1.625.53l.019.007c-.475.138-.919.394-1.375.6a1.3 1.3 0 0 1-.419.862c-.331.3-.825.344-1.206.125c-.45.332-.9.663-1.313 1.044a16.2 16.2 0 0 0-2.293 2.5c.337.457.687.9 1.075 1.313v.012c.73.796 1.54 1.515 2.418 2.144a1.06 1.06 0 0 1 1.17-.037c.361.218.562.656.555 1.093a14.7 14.7 0 0 0 4.6 1.475c.213-.55.4-1.118.55-1.687v-.006c.273-1.066.45-2.154.531-3.25a1.213 1.213 0 0 1 0-2.182a16.4 16.4 0 0 0-.53-3.262a21 21 0 0 0-.52-1.613c-.55.082-1.1.188-1.637.332M3.231 11.056a10.7 10.7 0 0 0 0 3.25c.288-.562.606-1.093.938-1.625a22 22 0 0 1-.938-1.625"/><g opacity=".3"><path d="M14.313 2.331c.106-.043.206.013.313.038c.825.25 1.643.587 2.374 1.075c-.262.312-.63.5-.918.787c-.244-.112-.475-.293-.75-.3a21 21 0 0 0-1.013-1.6zM8.97 3.75a8 8 0 0 1 1.606-.45A17 17 0 0 0 9.32 5.525c.825.144 1.643.35 2.437.631c.113.038.207.088.3.157c-.518.218-1.05.418-1.55.68a12 12 0 0 0-1.675-.35a13 13 0 0 0-.506 1.563l.012.107v.012c-.5.325-.956.738-1.418 1.125c.125-1.006.456-1.975.75-2.937a15 15 0 0 0-2.482.05a9 9 0 0 1 1.213-1.275c.581.03 1.162.024 1.744.075c.262-.544.531-1.088.825-1.62z"/><path d="m17 3.444l.013-.013a10 10 0 0 1 2.2 1.85c.063.069.131.138.157.231c-.476-.043-.95-.106-1.425-.118c-.257 0-.457-.188-.644-.35c-.381-.313-.8-.563-1.219-.813c.287-.293.656-.475.919-.787m-4.875 4.1a13 13 0 0 1 1.631-.531c.488.275.981.543 1.45.868c-.281.294-.644.482-.937.769a15 15 0 0 0-2.125-1.1zM6.52 11.48q.615-.695 1.318-1.3c.063.207.019.42-.006.625a18 18 0 0 0 .075 4.444c-.456-.375-.875-.812-1.287-1.25c.05-.144.03-.3.025-.444q-.056-1.05.006-2.1zm13.824-2.111c.206-.519.388-1.044.556-1.575c.498 1.024.829 2.121.982 3.25c-.032.131 0 .325-.138.4c-.287.193-.55.437-.862.587c-.032-.281-.044-.569-.125-.844c-.22.3-.363.65-.563.963c-.1.181-.275.35-.25.575c-.175.281-.456.431-.719.588c-.45.374-.943.7-1.387 1.093c-.113.088-.238.138-.363.194c.032-.262.05-.531.063-.8c.398-.328.733-.726.987-1.175c-.206-.312-.462-.569-.675-.875c.257-.281.65-.406.813-.769c.2.2.362.425.537.65c.457-.706.813-1.481 1.15-2.256zM8.657 18.18c.075.175.118.375.237.52a8 8 0 0 0 1.563-.35a16 16 0 0 0 1.568.687a.8.8 0 0 1-.206.118c-.794.294-1.606.5-2.425.663c-.012.262.219.469.288.719c-.294.218-.625.387-.87.668c-.25-.375-.424-.812-.63-1.212a17 17 0 0 1-.438-1.07c.281-.28.663-.424.913-.749z"/><path d="M15.208 7.875c.25.125.437.381.706.419c.15.6.287 1.206.375 1.825a21 21 0 0 0-2.013-1.469c.288-.287.65-.475.932-.769zm2.13 1.763c.12.062.232.125.325.225c.344.362.688.712 1 1.112c-.168.363-.562.488-.812.763a1.8 1.8 0 0 0-.313-.275a20 20 0 0 0-.2-1.825m4.537 1.406c.157.75.132 1.525.107 2.287c-.094.825-.182 1.663-.463 2.438a23 23 0 0 0-.737-1.625a10 10 0 0 1-.4 1.662c-.275-.4-.438-.875-.67-1.312a8 8 0 0 1 .9-.613l.163.125c.132-.643.1-1.312.107-1.975c.312-.144.575-.394.862-.593c.138-.07.106-.263.131-.394"/><path d="M19.937 12.731q.409.531.682 1.144a8 8 0 0 0-.9.619c-.157-.269-.294-.563-.488-.8c-.325.231-.506.625-.8.9c-.369.362-.669.806-1.1 1.087q.095-.543.15-1.087c.125-.063.25-.106.362-.188c.438-.4.938-.719 1.388-1.1c.263-.156.544-.306.719-.581zM9.681 20.538c.163.212.263.468.413.693c.143.25.325.481.437.75c-.612.019-1.225 0-1.844.013c-.306 0-.618.025-.918-.025a1 1 0 0 0 .268-.213c.138-.162.375-.181.463-.387c.125.05.256.093.394.119l-.082-.282c.25-.281.575-.45.87-.668m3.624-3.313c1.075-.544 2.062-1.275 2.987-2.069a20 20 0 0 1-.375 1.832h-.006c-.388.175-.7.48-1.062.687c-.357.25-.763.406-1.094.688a16 16 0 0 1-1.656-.544c.4-.207.818-.363 1.206-.594M6.962 15.95c.463.406.932.8 1.432 1.144a.35.35 0 0 0-.013.231q.123.432.275.856c-.25.319-.625.463-.919.744l-.025-.075q-.449-1.243-.725-2.538c-.025-.118-.025-.243-.025-.362"/><path d="M4.832 19.95q.843.094 1.687.112c.275.307.625.507.95.732c.325.218.675.406 1.031.575c-.081.206-.325.225-.456.387a1 1 0 0 1-.275.213c-.256.018-.537.062-.762-.1A9.4 9.4 0 0 1 4.863 20.1z"/></g></g></svg>