<svg xmlns="http://www.w3.org/2000/svg" viewBox="0 0 24 24"><g fill="none"><path fill="url(#SVGH2Guxe2g)" fill-rule="evenodd" d="M12 19.941a7.942 7.942 0 1 0 0-15.883a7.942 7.942 0 0 0 0 15.883M12 21a9 9 0 1 0 0-18a9 9 0 0 0 0 18" clip-rule="evenodd"/><path fill="#44b4ac" d="M13.588 12.264v.794H6.706l3.97-6.352l2.118 3.44h-1.059l-1.059-1.852l-2.382 3.97z"/><path fill="#44b4ac" d="M10.94 11.736v-.794h6.883l-3.97 6.353l-2.118-3.441h1.059l1.059 1.853l2.382-3.971z"/><defs><linearGradient id="SVGH2Guxe2g" x1="15.971" x2="8.029" y1="4.059" y2="19.677" gradientUnits="userSpaceOnUse"><stop stop-color="#837dba"/><stop offset=".5" stop-color="#0f67a3"/><stop offset="1" stop-color="#56bcaf"/></linearGradient></defs></g></svg>