<svg xmlns="http://www.w3.org/2000/svg" viewBox="0 0 24 24"><g fill="none"><path fill="#1c834c" d="M3 17.06c.01.47.616.309.848.152h.1v.701l.208.247l.55-.578v-.408c.132-.076.402-.25.402-.331c.38-1.123 1.166-1.422 1.507-1.431l.507-.569h.62c.28-.142.887-.095 1.157-.09l.791-.687l.095-.303c.606 0 1.298-.341 1.824-.341h1.19c.255 0 .648.023.833-.072c0 .636.266.759.266 1.062c0 .246-.157.365-.266.431h.332c-.1.057-.341.237-.521.237c-.247.071-.285.872-.27 1.185h.379c.388-.365 1.156-1.308 1.156-1.512c0-.256-.337-.474-.337-1.16c0-.55.308-.944.479-1.119l.175.11c.1-.257.346-.759.554-.759c.204 0 .531.597.687.895l-.217.228h.217c-.061.137-.284.402-.388.402c-.26 0-.308.617-.299 1.02c.474-.323 1.436-.82 1.436-1.02c0-.194-.199-.502-.275-.63v-.696c0-.701-.147-.914-.246-.971h-.512c.303-.057.659-1.422 1.118-1.422c.37 0 .531 1.033.583 1.488c.08.142.341.407.626.407c.284 0 .663-.317.796-.473v-.45s.137-.304.227-.446v-.431l.237-.45V8.93a.57.57 0 0 0 .332.137c.165 0 .36-.175.426-.322a1.2 1.2 0 0 1-.995-.559c.166.095.597.294.995.294c.497 0 .673-.398.673-.744c-.114.256-.389.474-.597.474c-.204 0-.308-.152-.573-.446c-.27-.293-.711-.284-.948-.284c-1.327-1.582-2.473-1.64-2.758-1.64c-.284 0-.265.039-.691.096c-.427.052-.74-.185-1.014-.057c-.967.55-1.668.597-2.142.758c-.379.133-.677.616-.782.843c-.265.389-.91 1.26-1.355 1.63c-.568.474-1.052.521-1.45.521c-.317 0-.852-.289-1.085-.474c-.1 0-.53 0-.696-.047c-.213-.052-.834-.483-.834-1.142c0-.53.218-.947.365-1.09c.104.038.379.11.677.11c.417 0 .616-.237.626-.484a1.4 1.4 0 0 0-.057-.431a.43.43 0 0 1-.299.403a.96.96 0 0 0-.526-.161c-.213 0-.407.25-.478.388a2 2 0 0 0-.54 1.26c0 .673.35 1.086.592 1.251c.246.166 1.061.436 1.061.768c0 .535-.687 1.028-.706 1.28c-.019.198.048 1.34.114 1.861c-.17.161-.55.488-.71.488c-.256.014-.531.2-.598.374c-.274.887-1.303 1.365-1.639 1.498c-.341.132-.341.36-.426.52c-.086.167-.531.588-.531 1.062z"/><path fill="url(#SVGkScZCdmj)" d="M17.835 6.486c-.19.478-.474 1.099-.607 1.099c-.104 0-.16-.057-.218-.119c-.052-.056-.109-.113-.203-.113s-.128.057-.161.118c-.034.057-.067.114-.161.114c-.09 0-.195-.133-.308-.275c-.138-.17-.285-.355-.427-.355c-.208 0-.332.218-.37.322c-.203.602-.644 1.805-.777 1.805c-.08 0-.108-.038-.142-.08c-.037-.048-.075-.095-.184-.081c-.086.01-.166.199-.26.412c-.12.275-.257.592-.446.592c-.119 0-.19-.085-.252-.175c-.075-.1-.151-.204-.307-.204c-.233 0-.36.256-.394.38l-.469 1.18l-.35-.124c-.133.332-.465.995-.735.995c-.331 0-.535-.393-.71-.749c-.147-.284-.275-.53-.446-.53c-.303 0-.417.44-.44.663h-.323l-.616 1.346h-.26l-.71 2.136h.189c.237-.123.73-.104 1.033-.094l.118.004l.791-.687l.095-.303c.317 0 .654-.095.976-.18c.303-.08.592-.161.848-.161h1.317c.247 0 .55.01.711-.071c0 .38.09.568.166.734c.047.11.095.204.095.332c0 .237-.157.36-.266.426h.332l-.066.043c-.119.076-.304.2-.45.2c-.252.065-.285.866-.275 1.179h.379c.388-.365 1.156-1.308 1.156-1.512c0-.094-.048-.19-.11-.303c-.094-.19-.227-.43-.227-.857c0-.55.308-.943.479-1.118l.175.109c.1-.256.346-.759.555-.759c.203 0 .53.597.687.896l-.218.227h.218c-.062.138-.285.403-.389.403c-.26 0-.308.616-.298 1.019c.142-.095.322-.204.511-.318c.45-.27.924-.559.924-.701c0-.17-.147-.422-.237-.569l-.038-.061v-.697c0-.7-.146-.914-.246-.971h-.512c.133-.024.27-.294.427-.597c.204-.388.43-.824.692-.824c.369 0 .53 1.033.582 1.487c.08.143.341.408.626.408c.284 0 .663-.318.796-.474v-.45s.137-.303.227-.445v-.432l.237-.45V8.93a.57.57 0 0 0 .332.138c.166 0 .36-.175.426-.322a1.2 1.2 0 0 1-.995-.56c.166.095.597.294.995.294c.498 0 .673-.398.673-.744c-.114.256-.389.474-.597.474c-.175 0-.284-.118-.483-.34l-.095-.105c-.256-.284-.682-.284-.92-.284h-.018a6 6 0 0 0-1.057-.995z"/><path fill="#4dffa9" d="M17.688 6.385c-.076.19-.17.408-.261.602a3 3 0 0 1-.237.407a.4.4 0 0 1-.047-.052l-.01-.01a.44.44 0 0 0-.327-.165c-.08 0-.159.03-.218.085c-.047.043-.075.095-.094.119v.004l-.01.015a2 2 0 0 1-.17-.2l-.034-.037a2 2 0 0 0-.213-.237c-.076-.066-.185-.142-.312-.142a.5.5 0 0 0-.38.175a.7.7 0 0 0-.16.27c-.1.299-.261.744-.413 1.114q-.106.266-.237.52a.4.4 0 0 0-.095-.08a.36.36 0 0 0-.213-.033a.3.3 0 0 0-.19.114a1 1 0 0 0-.094.147a4 4 0 0 0-.119.26l-.042.095q-.066.162-.161.308a.3.3 0 0 1-.062.071l-.019.01c-.023 0-.038-.005-.123-.119c-.071-.095-.194-.26-.436-.26a.51.51 0 0 0-.402.203a.8.8 0 0 0-.157.294l-.403 1.014l-.35-.123l-.067.16c-.061.157-.17.394-.298.593a1.2 1.2 0 0 1-.18.228c-.057.056-.085.061-.09.061c-.08 0-.161-.042-.251-.142q-.15-.187-.251-.403l-.053-.1a4 4 0 0 0-.199-.36a1 1 0 0 0-.156-.184a.38.38 0 0 0-.246-.095c-.251 0-.403.19-.484.35c-.047.1-.085.214-.104.313h-.284l-.616 1.346h-.28l-.772 2.322h.374l.65-1.957h.25l.617-1.346h.37l.013-.166a1 1 0 0 1 .095-.345c.057-.114.119-.152.17-.152c0 0 .01 0 .024.014a.5.5 0 0 1 .09.11q.091.149.166.307l.062.114c.085.16.185.34.308.478c.123.143.289.26.507.26c.137 0 .25-.08.332-.155c.085-.081.165-.19.236-.299c.1-.161.19-.346.261-.497l.355.118l.536-1.34v-.015a.6.6 0 0 1 .094-.166c.038-.052.086-.076.133-.076c.057 0 .086.024.157.119l.014.019c.061.08.18.237.388.237c.17 0 .294-.124.365-.223c.08-.109.142-.251.2-.374l.046-.11q.066-.144.143-.284c.01.015.042.057.08.086a.3.3 0 0 0 .2.066a.24.24 0 0 0 .141-.057c.024-.024.048-.047.062-.07l.1-.167a10 10 0 0 0 .222-.497c.152-.38.318-.834.417-1.137a.4.4 0 0 1 .08-.138q.064-.062.129-.061l.018.004l.062.048q.077.071.175.194l.029.038a2 2 0 0 0 .16.19a.6.6 0 0 0 .115.099a.31.31 0 0 0 .393-.024a.5.5 0 0 0 .09-.123V7.56l.019-.028c.01 0 .019.01.07.061v.005c.063.062.162.17.342.17a.28.28 0 0 0 .19-.094a.7.7 0 0 0 .113-.137a4 4 0 0 0 .213-.389l.237-.55a5 5 0 0 0-.294-.213"/><defs><linearGradient id="SVGkScZCdmj" x1="12.003" x2="12.003" y1="5.841" y2="18.16" gradientUnits="userSpaceOnUse"><stop stop-color="#33c07a"/><stop offset=".77" stop-color="#1d8a4f"/></linearGradient></defs></g></svg>