<svg xmlns="http://www.w3.org/2000/svg" viewBox="0 0 24 24"><g fill="none"><path fill="#f7cb44" d="M12 18.116c4.308 0 7.802-3.384 7.802-7.558S16.308 3 12 3c-4.31 0-7.802 3.384-7.802 7.558S7.691 18.116 12 18.116"/><path fill="#f3b03f" d="M11.999 17.142a6.339 6.339 0 1 0 0-12.677a6.339 6.339 0 0 0 0 12.677"/><path fill="#fbe84e" d="M12 16.165a5.364 5.364 0 1 0 .001-10.728a5.364 5.364 0 0 0 0 10.728"/><path fill="#000" fill-rule="evenodd" d="M8.856 4.185c-.057.128-.036.318.064.544c.168.376.236.814.249.988l.002.023l-.017.016c-.058.055-.087.144-.097.242a1 1 0 0 0 .007.215c2.111.07 4.636.803 5.663 1.17a.3.3 0 0 0 .124-.208a.6.6 0 0 0-.009-.235l-.01-.037l.033-.018c.028-.016.094-.067.188-.164a4 4 0 0 0 .354-.43c.264-.37.14-.648.056-.74c-1.051-.752-2.458-1.142-3.673-1.345a17 17 0 0 0-2.477-.222h-.017c-.254-.005-.386.08-.44.201m-.089-.04c.076-.172.256-.264.53-.259h.018c.29.006 1.295.024 2.491.224c1.221.204 2.647.598 3.717 1.365l.004.002l.003.003c.117.122.25.456-.045.867a4 4 0 0 1-.363.443a1.4 1.4 0 0 1-.178.16a.7.7 0 0 1 .003.242a.4.4 0 0 1-.19.288l-.02.01l-.02-.007C13.7 7.118 11.14 6.371 9.021 6.31l-.039-.001l-.007-.038a1 1 0 0 1-.015-.281c.01-.1.039-.209.11-.287a3.3 3.3 0 0 0-.239-.933c-.104-.235-.138-.457-.065-.623" clip-rule="evenodd"/><path fill="#f2a83e" d="M9.299 3.966c-.553.02-.525.393-.442.577c1.745-.464 5.455.472 6.646 1.492c.116-.173.048-.37 0-.448c-1.807-1.529-5.513-1.646-6.204-1.621"/><path fill="#000" fill-rule="evenodd" d="M11.974 4.241c-1.235-.216-2.331-.24-2.673-.227c-.266.01-.376.103-.417.198a.38.38 0 0 0 .003.272c.885-.22 2.236-.099 3.512.2c.65.153 1.282.352 1.827.577c.518.214.96.452 1.263.699a.4.4 0 0 0-.023-.341c-.894-.753-2.258-1.161-3.492-1.378m.017-.096c1.24.218 2.63.631 3.543 1.404l.006.005l.004.007c.053.085.13.305 0 .501l-.031.045l-.041-.035c-.292-.25-.742-.498-1.283-.721a12 12 0 0 0-1.812-.572c-1.293-.303-2.647-.419-3.507-.19l-.04.01l-.016-.037a.5.5 0 0 1-.019-.39c.062-.141.215-.245.502-.255c.349-.013 1.452.01 2.694.228" clip-rule="evenodd"/><path fill="url(#SVGilkk5bgT)" d="M9.12 4.505c-.258.031-.317.03-.205.265l.146.419c1.9-.008 3.23.294 3.654.441c1.056.04 2.316.279 2.815.41c-2.724-1.73-5.734-1.618-6.41-1.535"/><path fill="#4a4b4d" d="M15.539 6.083v-.002c-.424-.328-2.078-.44-2.848-.481l2.523.996c.155-.13.28-.412.325-.513"/><path fill="url(#SVGCoxyZdKt)" d="M9.059 5.182c.056.105.085.401.09.53c2.233-.164 4.739.729 5.705 1.198c.11-.02.291-.221.367-.32l-2.465-.966c-1.254-.406-2.987-.464-3.697-.442"/><path fill="#f2a83e" d="M9.19 5.748c-.098.058-.123.177-.123.229c.463 0 1.692.069 2.906.344s2.433.72 2.89.91a.27.27 0 0 0 0-.296c-.4-.183-1.488-.644-2.735-.917c-1.232-.27-2.476-.33-2.938-.27"/><path fill="#000" fill-rule="evenodd" d="M9.207 5.794a.2.2 0 0 0-.07.09l-.015.044c.502.005 1.688.079 2.862.345c1.183.268 2.368.697 2.856.895a.22.22 0 0 0-.01-.194a14.4 14.4 0 0 0-2.712-.909c-1.22-.268-2.448-.328-2.911-.27M9.184 5.7c.47-.061 1.72 0 2.955.27c1.252.275 2.342.738 2.744.921l.011.006l.007.01a.32.32 0 0 1 .003.349l-.021.036l-.039-.016a20.4 20.4 0 0 0-2.881-.907a15 15 0 0 0-2.896-.343H9.02v-.049a.4.4 0 0 1 .028-.13a.3.3 0 0 1 .118-.14l.009-.006z" clip-rule="evenodd"/><path fill="#37383c" d="M11.633 6.588c-2.418-.567-4.315-.334-4.96-.147c.633 1.101 4.668 1.823 7.325 2.214c2.126.313 2.812.13 2.889 0c-.67-.77-2.23-1.357-5.254-2.067"/><path fill="#000" fill-rule="evenodd" d="M6.748 6.47c.167.241.51.47.982.682c.505.227 1.15.432 1.858.615c1.418.366 3.089.644 4.417.84c1.06.156 1.76.188 2.203.166a2.3 2.3 0 0 0 .48-.066a.6.6 0 0 0 .132-.054c-.33-.363-.872-.688-1.696-1.01c-.848-.33-1.991-.653-3.502-1.008c-2.337-.548-4.182-.346-4.874-.164m-.09-.076c.656-.19 2.56-.423 4.986.146c1.512.355 2.66.68 3.515 1.013s1.421.676 1.764 1.07l.023.026l-.018.03a.2.2 0 0 1-.077.069a.7.7 0 0 1-.136.053a2.4 2.4 0 0 1-.502.069c-.452.023-1.158-.01-2.222-.167c-1.33-.196-3.004-.474-4.427-.842c-.711-.184-1.36-.39-1.873-.62c-.51-.23-.894-.486-1.06-.776l-.032-.054z" clip-rule="evenodd"/><path fill="#6c6d6d" d="M10.303 6.74c-1.02-.156-2.797-.233-3.558-.253c.129.222.605.5.827.61l-.586-.494zm5.432 1.422l-.026-.015zc.178.091 1.016.372 1.145.491c-.142.135-.854.323-2.57 0h2.26z"/><path fill="#6e6e70" d="M12.564 7.14c-.253-.104-1.065-.24-1.44-.294c.337.122.609 1.72.703 2.503c.665-.686.768-1.759.737-2.21"/><path fill="#000" fill-rule="evenodd" d="m11.108 6.893l.023-.094c.188.027.486.075.768.129c.28.053.552.113.684.167l.028.012l.002.03a3.5 3.5 0 0 1-.11 1.032c-.106.415-.301.864-.642 1.215l-.07.073l-.012-.101a14 14 0 0 0-.26-1.494a4.6 4.6 0 0 0-.2-.664a1 1 0 0 0-.111-.213q-.057-.078-.1-.092m.172.027l.007.01c.043.06.083.14.121.23c.076.183.145.422.206.679c.112.471.198 1.011.248 1.4c.283-.322.452-.72.548-1.094c.1-.387.12-.747.108-.97a5 5 0 0 0-.637-.152c-.209-.04-.426-.076-.6-.103" clip-rule="evenodd"/><path fill="#f2a83e" d="M11.84 6.614c-2.424-.562-4.208-.357-4.797-.184c.68 0 2.566.1 4.66.495c2.093.397 4.093 1.14 4.832 1.463c-.218-.3-1.664-1.071-4.694-1.774"/><path fill="#000" fill-rule="evenodd" d="M7.461 6.39c.877.03 2.49.154 4.251.487c1.868.353 3.662.983 4.555 1.345a3 3 0 0 0-.156-.097a7 7 0 0 0-.887-.428c-.764-.317-1.881-.685-3.394-1.036c-2-.463-3.561-.403-4.369-.272m-.431-.007c.598-.176 2.391-.38 4.822.183c1.517.352 2.638.721 3.409 1.04c.385.16.683.308.9.435c.213.125.352.234.413.318l.106.145l-.164-.072c-.736-.321-2.733-1.064-4.822-1.46s-3.972-.494-4.65-.494z" clip-rule="evenodd"/><path fill="url(#SVGkRPB1dSU)" d="M10.808 6.894a2.57 2.57 0 0 1 1.396.635c-.273.933-.973 2.278-1.337 2.938c-.296.537-1.406.551-1.923.492c-1.587-.403-3.776.287-4.672.683l.562-.863l.788-.84L7.87 8.586l.908-.588l.31-.815c.287-.128 1.032-.364 1.72-.288"/><path fill="#cb9239" d="M8.528 8.155c0-.465.238-.636.365-.681l-.169.564z"/><path fill="#c09b78" d="M10.88 10.432c.124-.134.577-1.08.788-1.535l-.932 1.307c-1.902-.355-3.42.004-3.943.228c1.797-.508 3.473-.212 4.086 0"/><path fill="#ad845e" d="M11.524 7.375c-.162-.087-.665-.14-.896-.156c.251.132.49.491.478 1.067c-.012.575-.478 1.019-1.266 1.019c-.63 0-.98-.584-1.075-.875c-.41.251-1.4.832-2.08 1.138c-.678.307-1.23.92-1.42 1.187c.608-.311 1.708-.707 2.759-.875c.841-.134 2.087.008 2.604.096l.598-.9c-.24-.507.155-.698.382-.73l.167-.48z"/><path fill="#c09b78" d="M7.525 10.261c1.204.011 2.36.35 2.787.517l-.225.106c-.507-.275-1.92-.53-2.562-.623m-.793.479c1.025-.223 1.994.021 2.35.172c-1.68-.329-3.376.136-4.014.41c.128-.101.64-.36 1.664-.583"/><path fill="#bf987a" d="M9.956 9.114a.93.93 0 0 0 .928-.932a.93.93 0 0 0-.928-.932a.93.93 0 0 0-.93.932a.93.93 0 0 0 .93.932"/><path fill="#d1a44c" d="M10.71 8.183a.756.756 0 0 1-.754.757a.756.756 0 0 1-.754-.757a.755.755 0 1 1 1.509 0"/><path fill="#000" fill-rule="evenodd" d="M9.956 8.843a.659.659 0 1 0-.002-1.317a.659.659 0 0 0 .002 1.317m0 .097a.756.756 0 0 0 .755-.757a.756.756 0 0 0-.755-.757a.756.756 0 0 0-.754.757c0 .418.337.757.754.757" clip-rule="evenodd"/><path fill="#c7c687" d="M10.484 8.167a.53.53 0 1 1-1.06.002a.53.53 0 0 1 1.06-.002"/><path fill="#000" fill-rule="evenodd" d="M9.955 8.6a.432.432 0 1 0 0-.864a.432.432 0 0 0 0 .865m0 .098a.53.53 0 1 0-.002-1.06a.53.53 0 0 0 .002 1.06" clip-rule="evenodd"/><path fill="#181817" d="M9.956 8.553a.38.38 0 1 0-.001-.762a.38.38 0 0 0 .001.762"/><path fill="#fff" d="M10.253 8.36a23 23 0 0 1-.227-.537H9.94l.25.605zm-.146.13l-.267-.642l-.089.036l.218.634zm-.191.028l-.214-.593l-.073.086l.17.479z"/><path fill="url(#SVGmw5NbcxB)" d="M11.258 9.852c-.569 1.293-1.912 1.269-2.512 1.095c.121.326.626.518.862.573c.122.071.11.284.09.382c.418.204 1.28.267 2.207-.65c.74-.733 1.214-2.928 1.357-3.934l-.71-.19c.076.241-.038.967-.292 1.527c-.203.448-.753.985-1.002 1.197"/><path fill="#000" fill-rule="evenodd" d="m12.48 7.057l.837.225l-.007.043a15 15 0 0 1-.456 2.076a8 8 0 0 1-.4 1.09c-.152.326-.324.607-.515.796c-.94.93-1.824.872-2.263.658l-.034-.016l.008-.038a.6.6 0 0 0 .009-.184q-.012-.101-.07-.142a2 2 0 0 1-.479-.188c-.173-.097-.342-.234-.41-.413l-.034-.091l.093.027c.293.085.77.133 1.242.002c.47-.13.935-.438 1.213-1.07l.004-.01l.009-.008a6 6 0 0 0 .514-.505c.193-.216.377-.457.475-.674c.125-.276.216-.594.266-.872c.025-.14.04-.268.044-.376a.8.8 0 0 0-.02-.245zm.136.138q.011.085.007.196a3 3 0 0 1-.045.39a4 4 0 0 1-.274.894c-.104.231-.296.482-.492.7a6 6 0 0 1-.514.507c-.292.655-.78.978-1.271 1.114a2.5 2.5 0 0 1-1.189.025a.9.9 0 0 0 .32.271c.166.093.347.153.461.18l.008.002l.006.003c.08.047.111.138.122.217a.7.7 0 0 1-.003.179c.41.182 1.23.224 2.12-.655c.178-.178.344-.447.494-.77c.15-.32.281-.693.395-1.075a15 15 0 0 0 .448-2.02z" clip-rule="evenodd"/><path fill="#3f2c1f" d="M11.944 8.257c.082.337.068 1.114-.644 1.528c0-.075.43-1.05.644-1.528"/><path fill="#000" fill-rule="evenodd" d="m11.969 8.12l.022.126c.085.347.072 1.152-.667 1.581l-.072.042v-.084q0-.02.006-.038l.015-.046l.052-.138c.044-.11.105-.254.172-.41c.134-.313.364-.794.472-1.033m-.581 1.55c.492-.351.57-.902.535-1.247a60 60 0 0 0-.337.768a18 18 0 0 0-.198.48" clip-rule="evenodd"/><path fill="#6d7170" d="M11.416 10.61c-.911.812-1.73.877-1.795.886l.138.194c.943-.125 1.498-.773 1.657-1.08m-.087.887c-.172.141-.83.342-1.138.425c0 .123.293.077.346.077c.314-.093.659-.373.792-.502"/><path fill="#6c6d6f" d="M12.287 10.538c.302-.604.591-2.417.699-3.261c.093.004.28.01.282 0c-.082 1.246-.679 2.674-.981 3.26"/><path fill="#898a8c" d="M11.887 11.343c.838-.53 1.587-2.796 1.856-3.862l-.483-.141c-.154 2.002-.98 3.503-1.373 4.003"/><path fill="#000" fill-rule="evenodd" d="m13.216 7.277l.585.17l-.011.046c-.136.535-.39 1.37-.718 2.139a7.5 7.5 0 0 1-.54 1.06c-.193.306-.402.554-.62.692l-.064-.071c.388-.493 1.21-1.985 1.364-3.977zm.087.126c-.14 1.658-.734 2.968-1.155 3.646q.154-.173.303-.41c.19-.3.37-.664.532-1.045c.316-.742.564-1.547.701-2.08z" clip-rule="evenodd"/><path fill="#6c6d6f" d="m13.22 8.84l.264-1.42h.264a9 9 0 0 1-.417 1.42z"/><path fill="#000" fill-rule="evenodd" d="M10.658 11.162c-.403.213-.8.336-1.046.383l-.018-.096a4 4 0 0 0 1.019-.374c.393-.209.787-.506 1.039-.907l.082.052c-.264.42-.674.728-1.076.942m1.213-.21c-.626.914-1.683 1.041-2.135.99l.01-.096c.432.048 1.447-.076 2.045-.95z" clip-rule="evenodd"/><path fill="#6c6e6d" d="m14.41 7.606l-.618-.166c-.338 1.42-1.074 2.852-1.399 3.39c1.443-.82 1.945-2.49 2.016-3.224"/><path fill="#000" fill-rule="evenodd" d="m13.757 7.382l.704.19l-.004.041c-.036.373-.181.98-.498 1.597c-.318.618-.81 1.249-1.543 1.665l-.161.092l.096-.16c.324-.536 1.057-1.964 1.394-3.376zm.07.12c-.314 1.282-.942 2.566-1.296 3.19c.623-.402 1.054-.968 1.342-1.527a4.7 4.7 0 0 0 .483-1.52z" clip-rule="evenodd"/><path fill="url(#SVGjtSFabhN)" d="M12.476 10.73c.986-.783 1.528-2.407 1.675-3.122l-.346-.12c-.206.983-.826 2.381-1.33 3.243"/><path fill="#6e7377" d="M14.096 9.03c.184.416.117 1.35-1.62 1.75c.288-.167 1.014-.75 1.62-1.75"/><path fill="#000" fill-rule="evenodd" d="m14.097 8.903l.042.108a1 1 0 0 1-.093.927c-.22.35-.685.689-1.56.89l-.035-.09c.28-.162 1-.74 1.603-1.733zm-1.364 1.76c.686-.2 1.052-.492 1.23-.777a.92.92 0 0 0 .12-.745a5.9 5.9 0 0 1-1.35 1.522" clip-rule="evenodd"/><path fill="#a58659" d="M14.078 9.113c-.031.315-.212 1.006-.69 1.257c.343-.145.962-.599.69-1.257"/><path fill="#727274" d="M13.036 11.423c1.002-.399 1.031-1.103.92-1.404c-.485.495-1.19.717-1.481.767c-.759.901-1.58 1.2-1.897 1.237a9.7 9.7 0 0 0 2.458-.6"/><path fill="#000" fill-rule="evenodd" d="m13.977 9.93l.026.073c.06.162.08.427-.044.702c-.125.277-.394.56-.904.764a9.7 9.7 0 0 1-2.472.604l-.01-.097c.303-.035 1.114-.328 1.866-1.221l.011-.014l.018-.003c.285-.048.979-.267 1.455-.753zm-1.476.901c-.475.561-.975.89-1.364 1.068a10 10 0 0 0 1.882-.52c.492-.196.739-.464.851-.714a.9.9 0 0 0 .064-.554c-.482.456-1.138.667-1.433.72" clip-rule="evenodd"/><path fill="#4a484d" d="M13.253 10.566c-.395.553-1.26.914-1.642 1.025l-.47.242c1.946-.175 2.678-1.255 2.8-1.774c-.11.138-.505.396-.689.507"/><path fill="#4a4b4d" d="M14.572 11.683c.239-.59-.291-1.106-.585-1.29c.131.119-.197.628-1.182 1.106c-1.235.599-2.547.526-3.065.414c1.802 1.037 4.533.507 4.832-.23"/><path fill="#000" fill-rule="evenodd" d="m13.955 10.429l.058-.078c.152.095.364.275.508.509s.224.527.097.84a.7.7 0 0 1-.235.285a2 2 0 0 1-.419.235a4.4 4.4 0 0 1-1.239.291c-.951.096-2.096-.031-3.008-.556l.034-.09c.51.11 1.811.182 3.034-.411c.489-.237.812-.48.995-.677a.8.8 0 0 0 .172-.246c.026-.068.012-.094.003-.102m.105.073a.3.3 0 0 1-.018.064a.9.9 0 0 1-.19.278c-.195.207-.529.457-1.025.698c-1.055.512-2.164.538-2.8.466c.842.396 1.84.491 2.689.406c.469-.047.89-.15 1.21-.284q.242-.102.398-.222a.6.6 0 0 0 .204-.244c.112-.276.045-.536-.089-.753a1.6 1.6 0 0 0-.379-.41" clip-rule="evenodd"/><path fill="#6d6f6e" d="M14.104 11.987c-.722.229-2.505.565-3.856.082c.057.02 1.841.96 3.856-.082"/><path fill="#e8b03e" d="M14.054 10.463c-.326 1.038-2.327 1.454-3.287 1.532c2.109.115 3.11-.796 3.348-1.266c.163.123.373.487.458.654c.071-.48-.468-.92-.519-.92"/><path fill="url(#SVGFPqJhbmO)" d="M15.305 12.365a1.15 1.15 0 0 0-.666-.877c-1.045 1.486-3.748.877-4.969.387c-.376-.038-.695.26-.808.415c.42.25 1.653.774 3.231.857s2.8-.487 3.212-.782"/><path fill="#000" fill-rule="evenodd" d="m14.621 11.43l.035.014c.2.076.611.365.698.914l.004.03l-.024.018c-.422.3-1.653.874-3.243.79c-1.586-.082-2.827-.608-3.253-.864l-.046-.027l.032-.043c.06-.082.172-.2.318-.292a.85.85 0 0 1 .533-.143h.007l.006.004c.607.243 1.582.516 2.534.544c.954.027 1.87-.191 2.377-.914zm.034.12c-.54.737-1.485.95-2.435.922c-.963-.028-1.946-.302-2.561-.548a.75.75 0 0 0-.465.129c-.111.07-.2.155-.258.223c.454.257 1.647.744 3.16.823c1.535.081 2.729-.461 3.157-.755a1.11 1.11 0 0 0-.598-.795" clip-rule="evenodd"/><path fill="#e8b03e" d="M14.64 11.536c-.136.588-1.303.86-1.87.923c1.24.06 1.838-.42 1.982-.669l.366.34c-.103-.434-.423-.547-.479-.594"/><path fill="#6d6d70" d="M9.154 12.374c.07.035 2.1.61 3.398.588c-.394.165-1.626.278-3.398-.588"/><path fill="#6a6c6d" d="M13.043 12.969c.676-.27 2.038-.811 2.075-.811l.15.188c-.743.536-1.793.638-2.226.623"/><path fill="#ca8926" d="M12.615 16.249c-.223-1.03-.041-2.176.077-2.62c-.198-.336-.68-.409-.896-.404c-.186.26-.757.657-1.02.822v1.752l.355.652l1.128.17z"/><path fill="#000" fill-rule="evenodd" d="M11.82 13.273c-.101.133-.287.292-.476.437c-.19.145-.387.279-.52.364v1.712l.338.62l1.08.163l.32-.336c-.213-1.018-.04-2.139.078-2.597a.76.76 0 0 0-.405-.291a1.4 1.4 0 0 0-.415-.072m.447-.02c.178.061.36.169.467.35l.01.018l-.005.02c-.118.44-.297 1.578-.077 2.597l.005.026l-.39.409l-1.176-.178l-.374-.684V14.02l.023-.015c.13-.082.338-.221.536-.373c.199-.152.383-.312.47-.436l.014-.02h.025c.113-.003.293.015.472.077" clip-rule="evenodd"/><path fill="#66482a" d="M12.289 16.652c-.359-.893-.15-2.543 0-3.256l-.464-.155l-.494.496c-.198.608-.134 2.104-.077 2.776z"/><path fill="#000" fill-rule="evenodd" d="m11.812 13.184l.533.179l-.009.042a10.4 10.4 0 0 0-.19 1.553c-.025.612.013 1.239.188 1.675l.031.078l-1.156-.156l-.003-.039a17 17 0 0 1-.057-1.416c.001-.533.034-1.066.136-1.379l.004-.01zm.027.112l-.466.467c-.093.297-.126.81-.128 1.337a17 17 0 0 0 .054 1.369l.916.124c-.158-.451-.19-1.059-.165-1.639c.025-.593.11-1.164.183-1.526z" clip-rule="evenodd"/><path fill="#f2f04c" d="M11.734 14.238a.234.234 0 1 0-.001-.469a.234.234 0 0 0 0 .469m-.09 1.016a.234.234 0 1 0-.002-.469a.234.234 0 0 0 .002.469m.101 1.128a.234.234 0 1 0-.001-.469a.234.234 0 0 0 0 .47"/><path fill="#191919" d="M15.26 12.38c-.696.668-2.397.835-3.16.835c2.18 1.17 4.316 1.007 5.11.779c-.575-1.2-1.539-1.577-1.95-1.615"/><path fill="#000" fill-rule="evenodd" d="m15.243 12.33l.022.002c.426.04 1.406.425 1.989 1.642l.025.053l-.055.015c-.806.231-2.954.394-5.147-.782l.023-.092c.379 0 .991-.042 1.595-.166c.607-.125 1.194-.332 1.532-.657zm.035.102c-.361.335-.963.541-1.563.665a9 9 0 0 1-1.423.165c2.06 1.041 4.045.912 4.85.702c-.561-1.122-1.464-1.486-1.864-1.532" clip-rule="evenodd"/><path fill="#e8b03e" d="M15.375 12.646c-.773.41-1.912.55-2.385.57c1.408-.182 2.094-.6 2.264-.82c.727.09 1.358.712 1.578 1.048c-.318-.426-1.104-.71-1.457-.798"/><path fill="#69686c" d="M12.33 13.312c1.701.584 3.694.28 4.417.037c-.35-.446-1.303-.74-1.383-.74c-.722.465-2.299.625-3.034.703"/><path fill="#6c6b71" d="M13.797 13.826c1.465.26 2.818.108 3.312 0l.108.19c-1.594.27-2.944-.014-3.42-.19"/><path fill="#6b6d6f" d="M17.701 15.015c.022-.627-.305-.892-.47-.946c-1.843.324-3.873-.261-4.659-.594c1.573 1.383 4.075 1.603 5.13 1.54"/><path fill="#000" fill-rule="evenodd" d="m12.54 13.51l.051-.081c.781.331 2.802.913 4.63.591l.013-.002l.011.004c.189.061.527.347.505.993l-.002.045l-.044.002c-.531.032-1.425-.007-2.384-.228s-1.985-.625-2.78-1.323m.3.12c.74.568 1.646.911 2.502 1.108a9 9 0 0 0 2.312.23c.004-.56-.284-.796-.428-.85c-1.657.288-3.461-.152-4.386-.488" clip-rule="evenodd"/><path fill="#e8b03e" d="M17.216 14.258c-1.67.226-2.93-.095-3.352-.284c1.443.324 2.836.216 3.352.121c.388.173.429.585.393.76c-.054-.237-.29-.503-.393-.598"/><path fill="#101012" d="M14.578 14.352c.679.367 2.23.45 2.922.446c0-.173-.153-.37-.23-.446c-.344.108-1.938.045-2.692 0"/><path fill="url(#SVGNtA8Be2O)" d="M17.977 16.333c.439-.564-.023-1.129-.308-1.34c-2.164.26-4.247-.843-5.017-1.427l-.062.641c1.794 1.567 4.314 2.068 5.387 2.126"/><path fill="#000" fill-rule="evenodd" d="m12.61 13.475l.07.052c.765.58 2.835 1.676 4.982 1.417l.02-.003l.015.012c.147.11.34.31.441.559a.82.82 0 0 1-.124.85l-.015.02l-.025-.001c-1.08-.058-3.611-.56-5.417-2.137l-.019-.017zm.08.18l-.05.532c1.767 1.532 4.236 2.032 5.313 2.095a.72.72 0 0 0 .096-.733a1.3 1.3 0 0 0-.395-.506c-2.113.247-4.14-.79-4.963-1.387" clip-rule="evenodd"/><path fill="#e8b03e" d="M17.583 15.27c-1.849.082-3.384-.63-3.92-.997c2.482.979 3.92.756 4.04.756c.576.398.457.933.326 1.15a.99.99 0 0 0-.446-.91"/><path fill="#6d6c72" d="M14.442 14.696c1.558.928 3.26.933 3.466.899c-.12-.155-.245-.34-.331-.34c-1.274.07-2.627-.353-3.135-.559"/><path fill="#e8b03e" d="M18.08 17.037c.164-.234 0-.579-.103-.722c-2.753-.206-4.705-1.442-5.39-2.072l-.022.592c.986.976 4.06 1.852 5.515 2.202"/><path fill="url(#SVGLH6M8NWx)" d="M8.798 12.348c.672.48 2.312.784 3.048.876c-1.726 1.086-4.075.957-5.034.756c.53-1.598 1.884-1.632 1.986-1.632"/><path fill="#000" fill-rule="evenodd" d="M6.767 13.963c.54-1.63 1.923-1.666 2.032-1.666h.016l.012.009c.328.235.897.429 1.483.577c.584.146 1.176.245 1.543.29l.136.017l-.116.073c-.872.549-1.9.79-2.827.868c-.927.079-1.76-.004-2.243-.105l-.053-.011zm.11-.022a8.3 8.3 0 0 0 2.161.093c.877-.075 1.837-.295 2.666-.782c-.37-.051-.897-.144-1.417-.275c-.579-.146-1.158-.34-1.503-.582c-.173.004-1.395.086-1.908 1.546" clip-rule="evenodd"/><path fill="#7d7e81" d="M7.707 12.966c.958.533 3.147.412 3.37.395c-.891-.138-2.362-.87-2.362-.87c-.397.027-.871.32-1.008.475"/><path fill="#e8b03e" d="M8.79 12.383c-.758-.034-1.408.575-1.688 1.063c.837-.748 1.466-.955 1.593-.955c1.28.57 2.292.687 2.637.675c-1.135-.204-2.178-.589-2.542-.784"/><path fill="url(#SVG7gWoVdLt)" d="M6.793 13.973c-.49.07-.545.693-.51.996c2.718.14 4.642-.957 5.265-1.523c-1.646.832-3.856.698-4.755.527"/><path fill="#000" fill-rule="evenodd" d="M6.792 14.024c-.216.034-.34.188-.405.377a1.4 1.4 0 0 0-.06.522c2.326.11 4.06-.69 4.878-1.266c-.742.302-1.563.436-2.312.479a9.3 9.3 0 0 1-2.101-.112m2.096.014c.867-.049 1.823-.222 2.638-.634l.054.08c-.631.574-2.568 1.676-5.3 1.535l-.041-.002l-.005-.041a1.5 1.5 0 0 1 .061-.607c.074-.212.222-.404.49-.443h.017c.446.085 1.22.161 2.086.112" clip-rule="evenodd"/><path fill="#e8b03e" d="M6.793 14.209c-.304.035-.409.424-.423.614c-.152-.468.149-.725.353-.798c2.021.24 3.06.027 3.76-.11c-1.237.575-2.975.435-3.69.294"/><path fill="url(#SVGag3sVcsl)" d="M6.035 16.316c-.374-.633-.01-1.161.219-1.347c1.937.187 3.84-.556 4.55-.951c-1.05 1.37-3.617 2.102-4.77 2.298"/><path fill="#000" fill-rule="evenodd" d="M6.258 14.92c1.924.187 3.818-.553 4.523-.945l.062.073c-.533.695-1.447 1.225-2.367 1.605s-1.854.613-2.433.711l-.033.006l-.017-.029c-.194-.329-.197-.634-.12-.88c.075-.245.23-.432.35-.53l.016-.012zm.011.1c-.106.09-.238.256-.304.47a.96.96 0 0 0 .095.772c.575-.1 1.484-.33 2.38-.7c.829-.342 1.642-.803 2.172-1.389c-.834.409-2.572 1.012-4.343.847" clip-rule="evenodd"/><path fill="#e8b03e" d="M6.34 15.218c-.277.146-.291.775-.291.863c-.315-.304 0-.898.208-1.075c1.178.146 2.884-.252 3.584-.49c-.782.538-2.66.692-3.5.702"/><path fill="#e8b03e" d="M6.056 16.29c2.077-.182 3.983-1.508 4.677-2.148v.503c-.814 1.207-3.558 2.006-4.828 2.255c-.122-.232.05-.503.151-.61"/><path fill="#33751c" d="M6.095 17.53c-.813-.13-1.48.15-1.71.307c.529.998 1.79 1.463 2.356 1.571l1.016-.696z"/><path fill="#e8e95b" d="m6.207 18.243l-1.759-.437l1.76.647z"/><path fill="#000" fill-rule="evenodd" d="m4.431 17.851l.028-.093l1.796.447v.318zm.87.217l.857.316v-.103z" clip-rule="evenodd"/><path fill="#33751c" d="M5.756 19.068c-.594.427-1.152 1.258-1.356 1.62c1.317.53 2.593-.157 3.066-.568l-.42-.745z"/><path fill="#e8e95b" d="M4.884 20.477c.613-.329 1.856-.988 1.92-.988l.307.179z"/><path fill="#000" fill-rule="evenodd" d="m6.782 19.444l.023-.004h.013l.408.237l-2.325.846l-.04-.089c.307-.165.771-.412 1.167-.618c.198-.103.379-.195.514-.263a6 6 0 0 1 .22-.102zm-1.267.752l1.482-.539l-.199-.115h-.002l-.047.02l-.164.079a29 29 0 0 0-.513.262z" clip-rule="evenodd"/><path fill="#33751c" d="M7.37 20.769c.878-1.348 2.087-1.76 2.582-1.798l.694 1.441c-.955.83-2.582.583-3.276.357"/><path fill="#e8e95b" d="m7.757 20.54l2.308-.906l.306.259z"/><path fill="#000" fill-rule="evenodd" d="m10.074 19.58l.402.339l-2.708.67l-.029-.092zm-1.61.737l1.803-.447l-.211-.179z" clip-rule="evenodd"/><path fill="#33751c" d="M16.81 20.783c-.813-1.282-2.243-1.754-2.856-1.83l-.598 1.345c.891.945 2.674.718 3.454.485"/><path fill="#e8e95b" d="m16.198 20.573l-2.162-.94l-.21.292z"/><path fill="#000" fill-rule="evenodd" d="m14.018 19.574l2.199.955l-.032.091l-2.44-.666zm.033.12l-.146.203l1.65.45z" clip-rule="evenodd"/><path fill="#33751c" d="M9.58 15.166c1.469.437 2.018 1.247 2.13 1.328l-1.226.907c-.172-.135-.594-.558-.904-1.167s-.129-.966 0-1.069"/><path fill="#000" fill-rule="evenodd" d="m9.57 15.11l.024.008c.74.22 1.25.535 1.59.806c.17.136.296.26.387.355l.087.091l.024.027q.043.047.057.056l.054.04l-1.31.968l-.029-.023c-.177-.139-.603-.566-.917-1.182c-.317-.623-.14-1.008.013-1.13zm.022.11c-.106.104-.255.43.031.992c.29.57.68.974.862 1.126l1.15-.85l-.023-.024l-.026-.028l-.084-.09a4 4 0 0 0-.378-.345a4.5 4.5 0 0 0-1.532-.782" clip-rule="evenodd"/><path fill="#e8e95b" d="M11.195 16.994L9.79 15.666l1.08 1.458z"/><path fill="#000" fill-rule="evenodd" d="m9.751 15.696l.072-.065l1.46 1.38l-.428.173zm.408.387l.729.982l.217-.087z" clip-rule="evenodd"/><path fill="#33751c" d="M14.68 15.23c-1.2.182-2.157 1.026-2.485 1.426l.872.745c.37-.162 1.178-.606 1.436-1.085c.258-.48.226-.924.178-1.085"/><path fill="#000" fill-rule="evenodd" d="m14.715 15.174l.012.04c.052.175.083.632-.181 1.123c-.135.25-.41.487-.692.679c-.283.193-.58.346-.768.428l-.028.012l-.93-.796l.03-.037c.333-.405 1.299-1.259 2.516-1.443zm-2.451 1.474l.811.694a5 5 0 0 0 .725-.407c.28-.19.537-.416.66-.644c.232-.43.223-.83.185-1.007c-1.13.186-2.036.962-2.381 1.364" clip-rule="evenodd"/><path fill="#e8e95b" d="m14.346 15.547l-1.42 1.441l.097.227z"/><path fill="#000" fill-rule="evenodd" d="m12.984 17l.052.122l.71-.896zm1.328-1.486l.072.064l-1.374 1.732l-.141-.332z" clip-rule="evenodd"/><path fill="#33751c" d="M19.764 17.789c-.594-.22-1.57-.243-1.985-.227l-.662 1.846c1.51-.13 2.394-1.133 2.647-1.62"/><path fill="#e8e95b" d="M17.763 18.258c.425-.103 1.343-.311 1.614-.324l-1.614.551z"/><path fill="#000" fill-rule="evenodd" d="M18.618 18.014c.315-.066.617-.122.757-.13l.018.096l-1.678.573v-.334l.037-.009c.213-.051.549-.129.866-.196m-.806.282v.12l1.008-.344a24 24 0 0 0-1.008.224" clip-rule="evenodd"/><path fill="#33751c" d="M19.732 20.703c-.274-.745-1.452-1.587-1.549-1.684l-.968.259c-.205.178-.65.553-.791.631c1.033 1.345 3.195.794 3.308.794"/><path fill="#000" fill-rule="evenodd" d="m18.197 18.966l.02.02q.015.014.08.066l.04.032l.12.098c.13.104.295.243.467.401c.34.316.712.72.854 1.104l.024.066h-.07l-.01.001l-.077.013l-.037.006q-.11.021-.289.045c-.236.03-.553.058-.898.042c-.69-.03-1.506-.23-2.036-.92l-.034-.045l.05-.027c.066-.036.209-.146.364-.273c.154-.126.316-.264.418-.353l.008-.007zm-.96.357c-.102.09-.26.225-.41.348a5 5 0 0 1-.331.253c.504.62 1.266.81 1.929.839c.338.015.648-.012.881-.042q.177-.023.286-.044l.036-.006l.036-.006c-.147-.345-.483-.71-.806-1.01a10 10 0 0 0-.461-.398l-.12-.096l-.041-.033l-.066-.054z" clip-rule="evenodd"/><path fill="#e8e95b" d="M19.247 20.461c-.645-.324-1.946-.985-1.985-1.037l-.258.26z"/><path fill="#000" fill-rule="evenodd" d="m17.299 19.39l-.031-.041l-.353.354l2.317.803l.037-.09a146 146 0 0 1-1.22-.62a36 36 0 0 1-.692-.369zm-.206.271l1.486.515a97 97 0 0 1-1.104-.572a7 7 0 0 1-.208-.117zM5.702 17.586l.141.482l-.093.027l-.14-.482zm-.467.004l.07.352l-.095.02l-.07-.353zm-.112.53l-.316.236l-.058-.079l.316-.235zm.034.547l.468-.388l.062.075l-.469.388zm.398.281l.598-.482l.06.077l-.597.481zm.458.164l.586-.446l.058.077l-.585.447zm.271.522l-.037.09l-.042-.024l-.06-.043a33 33 0 0 1-.553-.421l.06-.077a33 33 0 0 0 .549.419zm-.62.385l.006.025h-.097c0 .01.004.018.004.018l.001.002l-.005-.005l-.035-.031a3 3 0 0 0-.125-.097c-.1-.073-.22-.157-.299-.211l.054-.081c.08.055.201.14.302.214a3 3 0 0 1 .171.137zm1.162.471v-.705h.097v.705zm-.608.285l.152-.857l.095.017l-.152.858zm-1.367-.714l.316.2l-.052.082l-.316-.2zm.886.793v-.681h.097v.681zm-.515 0v-.481h.096v.481zm4.572-1.139l-.574-.47l.061-.075l.574.47zm-.479.225l-.609-.459l.058-.078l.61.459zm-.61.221l-.422-.352l.062-.075l.421.352zm1.189.635l.164-.822l.095.019l-.164.822zm-1.602-.429l-.398-.2l.043-.087l.398.2zm1.006.577l.258-.834l.092.029l-.258.834zm-.504 0l.188-.634l.092.028l-.187.634zm-.526-.001l.176-.518l.091.032l-.175.517zm6.754-1.591l-.678.436l-.052-.082l.678-.436zm.518.266l-.646.394l-.05-.084l.646-.393zm.423.31l-.551.318l-.048-.085l.55-.319zm-1.693.908l-.085-.765l.096-.01l.085.765zm2.054-.59l-.36.222l-.05-.083l.36-.223zm-1.44.754l-.158-.787l.095-.019l.159.787zm.456 0l-.116-.628l.095-.018l.116.627zm.551-.076l-.063-.372l.095-.016l.063.372z" clip-rule="evenodd"/><path fill="#000" fill-rule="evenodd" d="m18.587 19.406l-.678.35l-.044-.086l.678-.351zm.31.286l-.573.33l-.048-.085l.572-.33zm-1.651.882v-.755h.096v.755zm1.974-.55l-.392.17l-.038-.09l.392-.17zm-1.487.699v-.744h.097v.744zm.413.053v-.627h.097v.627zm.466 0v-.457h.097v.457zm.131-2.813l.137-.34l.09.037l-.138.34zm-.531.131l.148-.468l.092.03l-.148.468zm.942.398l-.265-.297l.072-.065l.265.297zm-.317.245l-.371-.404l.071-.066l.37.404zm-.468.296l-.445-.542l.074-.062l.445.542zm-4.376-3.198v-.383h.097v.383zm-.285.294l-.085-.531l.096-.016l.084.532zm-.306.378l-.18-.66l.093-.025l.18.659zm-.338.312l-.244-.68l.091-.034l.244.68zm-2.715-1.299l-.16.468l-.09-.031l.158-.468zm.309.121l-.117.637l-.095-.016c.008-.052.081-.448.116-.639zm.38.247l-.17.723l-.093-.023l.17-.722z" clip-rule="evenodd"/><path fill="#573a22" d="M8.889 18.77c-.76.604-1.268-.043-1.428-.441l.808-.488l.737-.81c.277.327.642 1.134-.117 1.739"/><path fill="url(#SVGDCuMRbeD)" d="M6.952 19.718c-.575-.454-.488-.869-.373-1.02l2.462.202l-.201.606l-.891.49c-.598.362-.914-.035-.997-.278"/><path fill="#000" fill-rule="evenodd" d="m6.556 18.65l2.55.208l-.226.683l-.907.5c-.31.186-.556.182-.737.088a.7.7 0 0 1-.325-.38c-.286-.23-.413-.452-.452-.643a.55.55 0 0 1 .081-.436zm.046.101a.46.46 0 0 0-.048.335c.033.165.147.373.428.595l.011.009l.005.014a.6.6 0 0 0 .282.338c.146.075.356.088.644-.086h.002l.874-.482l.176-.528z" clip-rule="evenodd"/><path fill="url(#SVGr1b4vcUj)" d="M10.181 16.486c-.398-.67-.926-.567-1.14-.433l.144.856l.096 1.952l.479-.25l.421-1.077l.374-.432c.054-.239-.227-.51-.374-.616"/><path fill="#000" fill-rule="evenodd" d="m9.094 16.08l.139.828l.092 1.877l.396-.207l.418-1.068l.37-.43c.017-.094-.029-.202-.105-.305a1.2 1.2 0 0 0-.251-.248l-.009-.006l-.005-.008c-.193-.325-.414-.457-.607-.495a.67.67 0 0 0-.438.062m1.123.374c-.204-.339-.444-.488-.666-.532a.76.76 0 0 0-.536.091l-.028.018l.149.885l.1 2.025l.562-.293l.425-1.087l.376-.435l.003-.012c.031-.141-.036-.284-.12-.398a1.3 1.3 0 0 0-.265-.262" clip-rule="evenodd"/><path fill="url(#SVG1vW0HbBX)" d="M6.876 18.886c.247.478.801.354 1.047.233l-1.146-2.235c-.591-.08-.695.224-.673.387c-.004.133-.02.438-.055.597c-.044.2-.11.686.32.775s.452.243.507.243"/><path fill="#000" fill-rule="evenodd" d="M6.243 17.022a.28.28 0 0 0-.091.242v.008a4 4 0 0 1-.056.607a1.1 1.1 0 0 0-.018.408q.021.111.09.193a.37.37 0 0 0 .21.114c.22.046.34.11.414.164q.045.036.068.06l.007.007l.014.012h.024l.014.026a.56.56 0 0 0 .484.315a1 1 0 0 0 .454-.083l-1.112-2.167c-.272-.032-.422.023-.502.094m-.065-.073c.112-.1.302-.155.605-.114l.025.003L7.99 19.14l-.044.022a1.1 1.1 0 0 1-.548.113a.65.65 0 0 1-.554-.348l-.013-.007l-.03-.025l-.008-.008l-.058-.05c-.06-.045-.165-.104-.375-.147a.46.46 0 0 1-.264-.146a.5.5 0 0 1-.111-.238a1.1 1.1 0 0 1 .018-.449c.034-.152.05-.45.054-.584a.37.37 0 0 1 .122-.324" clip-rule="evenodd"/><path fill="#de8f54" d="M6.288 17.353a.43.43 0 0 1 .285-.409c-.177 0-.433 0-.45.294c-.018.293-.071.177-.08.768s.31.616.593.705c.226.071.426.316.497.429c.448.147.648.007.692-.082c-.399.123-.628-.017-.692-.102c-.027-.099-.177-.316-.56-.398c-.382-.082-.397-.402-.356-.552c.02-.108.063-.392.071-.653"/><path fill="url(#SVG9H6R4deG)" d="M6.837 16.747c-.276.615.256 1.109.556 1.279l1.13.096l.777-.529c-.016-.07-.008-.304.153-.673a.54.54 0 0 0-.2-.702l-.95-.461c-.555-.27-.862.125-.91.269c-.038.115-.386.529-.556.721"/><path fill="#000" fill-rule="evenodd" d="M7.68 15.779a.54.54 0 0 0-.242.262a.7.7 0 0 1-.085.147a4 4 0 0 1-.152.2c-.111.14-.238.288-.323.385a.78.78 0 0 0 .061.755c.128.208.324.366.468.45l1.103.093l.737-.502a.8.8 0 0 1 .015-.21c.02-.117.064-.271.146-.459a.5.5 0 0 0 .01-.42a.5.5 0 0 0-.19-.22l-.946-.46c-.265-.128-.464-.097-.602-.022m-.046-.086c.166-.091.398-.122.69.02l.948.46l.004.003a.6.6 0 0 1 .23.264a.6.6 0 0 1-.01.5c-.078.18-.12.328-.139.437a.6.6 0 0 0-.01.205l.007.032l-.818.558l-1.158-.099l-.01-.005a1.5 1.5 0 0 1-.511-.49a.88.88 0 0 1-.065-.852l.003-.006l.005-.006c.084-.096.213-.246.326-.387c.056-.071.108-.139.147-.196a.6.6 0 0 0 .073-.121a.63.63 0 0 1 .288-.317" clip-rule="evenodd"/><path fill="#adad33" d="M7.49 17.096c.11-.095.349-.29.411-.306c.08.052.241.165.241.199c0 .043.043.377 0 .477s-.454 0-.49 0c-.027 0-.12-.247-.162-.37"/><path fill="#de8f54" d="M7.249 16.467a1.6 1.6 0 0 0-.345.808c-.222-.138-.093-.487 0-.644l.412-.433c.042-.154.2-.471.498-.51c.374-.048.633.193.834.25c.698.2.763.481.71.597c-.078-.2-.282-.308-.375-.337l-.9-.317c-.441-.154-.518.192-.834.586m2.731-.047a.83.83 0 0 0-.585-.375c.406-.13.693.279.786.5c.302.26.343.474.326.548l-.211.058c.032-.07.077-.239 0-.346a6 6 0 0 0-.317-.385m-3.094 2.971c-.253-.307-.246-.538-.21-.615c-.315.238.009.689.21.885l.393.413c.36.123.578-.051.642-.154a.71.71 0 0 1-.642 0a4.4 4.4 0 0 0-.393-.529"/><path fill="#adad33" d="M6.294 18.255c.826-.403 1.737-.104 2.09.096c-.15 0-.585.01-1.119.052s-.87-.081-.97-.148"/><path fill="#000" fill-rule="evenodd" d="M7.523 18.03c.381.05.703.176.885.28l.16.09h-.184c-.15 0-.582.011-1.115.053c-.54.042-.888-.082-1-.156l-.072-.047l.077-.037a2.2 2.2 0 0 1 1.249-.183m-1.116.229c.148.06.438.13.855.097c.377-.03.704-.044.917-.05a2.6 2.6 0 0 0-.669-.18a2.1 2.1 0 0 0-1.103.133" clip-rule="evenodd"/><path fill="#adad33" d="M7.05 17.37c-.056-.405.265-.552.433-.575c-.292.501.034 1.061.234 1.279c-.2-.067-.612-.301-.668-.705"/><path fill="#000" fill-rule="evenodd" d="m7.575 16.733l-.05.087a.87.87 0 0 0-.063.707c.068.222.195.41.29.514l-.05.08a1.3 1.3 0 0 1-.404-.236a.83.83 0 0 1-.297-.509a.52.52 0 0 1 .148-.472a.6.6 0 0 1 .327-.157zm-.36.242c-.082.08-.143.202-.118.388a.73.73 0 0 0 .264.448c.064.056.133.102.198.138a1.5 1.5 0 0 1-.19-.394a1 1 0 0 1 .023-.686a.5.5 0 0 0-.176.106" clip-rule="evenodd"/><path fill="#adad33" d="M8.965 16.682c-.284-.355-.812-.182-1.04-.052c.26-.052.615.052.659.322a.45.45 0 0 1-.122.409c-.023.235-.073.715-.086.756c-.014.042.104.018.164 0c.007-.354.17-.611.252-.695c.277-.244.23-.595.173-.74"/><path fill="#000" fill-rule="evenodd" d="M8.17 16.575a.7.7 0 0 1 .184.05c.136.057.252.162.277.319a.51.51 0 0 1-.122.44a41 41 0 0 1-.07.636l-.009.07l.063-.011c.017-.35.178-.603.264-.692l.003-.003c.25-.22.215-.538.163-.677c-.129-.156-.311-.199-.495-.185q-.137.012-.258.053m.25-.15c.206-.016.427.032.583.226l.004.006l.003.007c.061.154.113.53-.185.792c-.074.078-.23.323-.236.662l-.001.036l-.034.01a1 1 0 0 1-.12.024a.2.2 0 0 1-.062-.005a.07.07 0 0 1-.037-.028a.06.06 0 0 1-.005-.053l.001-.007l.013-.087l.023-.202c.017-.155.036-.333.047-.45l.002-.02l.015-.013a.4.4 0 0 0 .105-.364c-.018-.112-.102-.195-.22-.244a.7.7 0 0 0-.382-.038l-.033-.09c.119-.068.314-.146.52-.162" clip-rule="evenodd"/><path fill="#906d47" d="M8.288 16.812c.09.202-.078.357-.173.409c-.083 0-.133-.273-.148-.409c-.23.16-.58.557-.13.87c.451.313.61.594.633.696l-.693-.296a1.65 1.65 0 0 1-.399-.705c-.121-.443.243-.643.355-.704c.113-.061.442-.113.555.139"/><path fill="#000" fill-rule="evenodd" d="M8.016 16.576a.37.37 0 0 1 .316.216a.32.32 0 0 1-.02.305a.5.5 0 0 1-.174.166l-.01.006h-.013c-.049 0-.08-.038-.098-.068a.5.5 0 0 1-.048-.12a2 2 0 0 1-.039-.18a.8.8 0 0 0-.238.305a.32.32 0 0 0-.01.215a.44.44 0 0 0 .183.22c.229.16.385.31.487.437a.8.8 0 0 1 .165.288l.022.093l-.789-.336l-.006-.006a1.7 1.7 0 0 1-.413-.727a.58.58 0 0 1 .1-.54a.9.9 0 0 1 .28-.22a.6.6 0 0 1 .305-.054m-.01.097a.5.5 0 0 0-.25.042a.8.8 0 0 0-.25.197a.48.48 0 0 0-.081.452c.092.337.289.589.379.676l.574.245a1 1 0 0 0-.101-.145a2.3 2.3 0 0 0-.467-.418a.54.54 0 0 1-.22-.271a.42.42 0 0 1 .012-.28a.94.94 0 0 1 .338-.4l.067-.046l.009.081c.007.067.022.166.046.247a.4.4 0 0 0 .05.113a.4.4 0 0 0 .118-.12a.22.22 0 0 0 .014-.214c-.047-.106-.138-.15-.238-.159" clip-rule="evenodd"/><path fill="#906d47" d="M8.591 16.934c-.062-.341-.372-.345-.52-.304c.078.06.269.095.19.47c-.062.299-.453.306-.623.271c-.09.14.494.578.78.78l.052-.738c.066-.018.184-.138.121-.479"/><path fill="#000" fill-rule="evenodd" d="M8.208 16.66q.029.023.056.057c.059.079.086.197.045.392c-.036.174-.17.26-.306.298a.9.9 0 0 1-.321.02q.01.027.038.067c.044.06.114.131.199.207c.143.127.32.26.457.36l.048-.687l.034-.01c.028-.006.147-.088.086-.422c-.028-.153-.11-.225-.198-.258a.4.4 0 0 0-.138-.024m.172-.067c.12.044.225.144.259.332c.057.31-.029.47-.123.52l-.056.796l-.07-.05a7 7 0 0 1-.535-.417a1.6 1.6 0 0 1-.213-.222a.4.4 0 0 1-.054-.101a.12.12 0 0 1 .01-.107l.017-.027l.032.006c.08.016.213.023.33-.01c.118-.032.211-.1.238-.224c.037-.18.008-.265-.028-.313a.3.3 0 0 0-.068-.06l-.028-.016l-.01-.007l-.04-.025l-.076-.06l.093-.026a.55.55 0 0 1 .322.01" clip-rule="evenodd"/><path fill="#f5fa4d" d="m7.454 18.416l.008.01c.739.877 1.02.509 1.529.242c.407-.214.358-.944.282-1.282c.25.422.517 1.348-.424 1.676c-1.125.391-1.317-.52-1.387-.635z"/><path fill="#adad33" d="M10.026 17.18c-.047.023-1.631.96-1.953 2.424c.468-.412 1.514-1.474 1.953-2.424"/><path fill="#000" fill-rule="evenodd" d="m10.128 17.074l-.058.127c-.223.481-.597.988-.973 1.425s-.756.807-.992 1.015l-.11.097l.031-.145c.164-.745.648-1.354 1.093-1.776c.445-.424.857-.666.885-.68zM8.16 19.461c.23-.214.548-.532.864-.899c.333-.388.662-.827.883-1.25l-.133.09c-.159.114-.37.277-.588.485c-.408.387-.84.925-1.026 1.574" clip-rule="evenodd"/><path fill="#573a22" d="M14.968 18.745c.76.604 1.268-.042 1.427-.44l-.807-.489l-.737-.81c-.277.328-.642 1.134.117 1.739"/><path fill="url(#SVGWHUXndrU)" d="M16.904 19.691c.575-.453.49-.868.374-1.019l-2.463.202l.202.606l.89.49c.599.362.914-.035.997-.279"/><path fill="#000" fill-rule="evenodd" d="m17.3 18.623l-2.55.21l.226.682l.907.5c.31.186.556.181.738.088a.7.7 0 0 0 .324-.38c.286-.23.414-.453.452-.644a.55.55 0 0 0-.081-.435zm-.046.102a.47.47 0 0 1 .048.335c-.033.165-.147.373-.428.595l-.011.008l-.005.014a.6.6 0 0 1-.281.34c-.146.074-.357.087-.645-.087l-.002-.001l-.874-.481l-.175-.529z" clip-rule="evenodd"/><path fill="url(#SVGAWbtLdgd)" d="M13.674 16.462c.4-.67.927-.568 1.14-.433l-.143.856l-.096 1.952l-.479-.25l-.422-1.077l-.373-.433c-.054-.238.226-.51.373-.615"/><path fill="#000" fill-rule="evenodd" d="m14.761 16.054l-.139.828l-.091 1.876l-.397-.206l-.418-1.068l-.37-.43c-.016-.095.029-.202.105-.306c.079-.106.181-.197.252-.247l.008-.006l.005-.009c.193-.325.414-.456.607-.495a.67.67 0 0 1 .438.063m-1.123.373c.204-.338.444-.487.667-.531a.76.76 0 0 1 .536.091l.027.017l-.149.886l-.1 2.025l-.561-.294l-.425-1.086l-.377-.436l-.002-.012c-.032-.14.035-.283.12-.397a1.3 1.3 0 0 1 .264-.263" clip-rule="evenodd"/><path fill="url(#SVGNVod8cQf)" d="M16.98 18.86c-.246.478-.8.354-1.047.232l1.147-2.235c.59-.08.694.225.673.387c.003.133.02.439.055.598c.044.2.11.686-.32.774c-.43.089-.452.244-.507.244"/><path fill="#000" fill-rule="evenodd" d="M17.614 16.996c.082.074.1.173.09.241v.008c.003.133.02.442.056.607c.022.098.047.261.018.409a.4.4 0 0 1-.09.192a.37.37 0 0 1-.21.115c-.22.046-.34.109-.414.164q-.045.035-.068.06l-.007.007l-.014.012h-.024l-.014.026a.56.56 0 0 1-.484.315a1 1 0 0 1-.454-.083l1.112-2.167c.272-.033.423.023.503.094m.064-.073c-.112-.1-.302-.155-.605-.115l-.025.004l-1.18 2.302l.044.022c.128.063.337.128.547.113a.65.65 0 0 0 .554-.348l.014-.008l.029-.024l.008-.008q.022-.023.058-.051c.06-.045.166-.103.375-.146a.46.46 0 0 0 .264-.146a.5.5 0 0 0 .112-.238a1.1 1.1 0 0 0-.018-.45a4 4 0 0 1-.054-.584a.37.37 0 0 0-.123-.323" clip-rule="evenodd"/><path fill="#de8f54" d="M17.568 17.326a.43.43 0 0 0-.285-.408c.178 0 .433 0 .451.293c.018.294.07.178.08.769c.008.591-.31.616-.593.705c-.226.07-.426.315-.497.428c-.448.148-.648.007-.692-.081c.399.122.627-.017.692-.102c.027-.099.177-.317.56-.398c.382-.082.396-.402.356-.552a5 5 0 0 1-.072-.654"/><path fill="url(#SVGCrbGfJic)" d="M17.019 16.72c.276.616-.256 1.11-.556 1.28l-1.13.096l-.777-.53c.016-.07.008-.303-.153-.672a.54.54 0 0 1 .201-.702c.131-.064.504-.247.949-.462c.556-.27.862.125.91.27c.039.115.387.528.556.72"/><path fill="#000" fill-rule="evenodd" d="M16.176 15.754a.54.54 0 0 1 .241.262c.013.037.046.09.086.147c.041.06.095.129.151.2c.112.14.239.289.324.386a.78.78 0 0 1-.062.754a1.4 1.4 0 0 1-.467.45l-1.103.094l-.737-.502a.8.8 0 0 0-.015-.21a2 2 0 0 0-.146-.46a.5.5 0 0 1-.01-.42a.5.5 0 0 1 .19-.22l.946-.46c.265-.128.464-.096.602-.021m.046-.086c-.167-.09-.399-.122-.69.02c-.445.215-.818.397-.949.461l-.003.002a.6.6 0 0 0-.231.264a.6.6 0 0 0 .01.5c.079.181.12.328.14.437c.02.11.016.18.01.205l-.007.033l.818.557l1.158-.098l.01-.006c.154-.088.37-.259.51-.489a.88.88 0 0 0 .065-.852l-.003-.007l-.005-.006a11 11 0 0 1-.325-.387a4 4 0 0 1-.148-.195a.6.6 0 0 1-.073-.122a.63.63 0 0 0-.287-.317" clip-rule="evenodd"/><path fill="#adad33" d="M16.367 17.07c-.11-.096-.349-.29-.411-.307c-.08.052-.241.165-.241.2c0 .042-.043.377 0 .477s.454 0 .49 0c.028 0 .12-.247.162-.37"/><path fill="#de8f54" d="M16.607 16.441c.253.315.335.67.345.808c.222-.139.092-.487 0-.644l-.412-.433c-.042-.154-.2-.471-.499-.51c-.373-.048-.632.192-.833.25c-.698.2-.764.481-.71.596c.077-.2.282-.307.374-.336c.154-.055.549-.195.901-.318c.44-.153.518.193.834.587m-2.731-.047a.83.83 0 0 1 .585-.375c-.407-.131-.694.278-.786.5c-.302.26-.343.473-.326.548l.21.057c-.031-.07-.076-.238 0-.346a7 7 0 0 1 .317-.384m3.094 2.971c.254-.308.247-.538.212-.615c.314.238-.01.689-.211.884l-.393.414c-.36.123-.578-.052-.642-.154a.71.71 0 0 0 .642 0c.026-.048.14-.221.393-.53"/><path fill="#adad33" d="M17.56 18.23c-.825-.403-1.736-.104-2.088.096c.15 0 .584.01 1.118.052s.87-.08.97-.147"/><path fill="#000" fill-rule="evenodd" d="M16.333 18.003c-.381.05-.703.177-.885.28l-.16.091h.184c.149 0 .581.01 1.114.052c.541.043.889-.08 1.001-.155l.072-.047l-.077-.038a2.2 2.2 0 0 0-1.25-.183m1.115.23c-.147.06-.437.129-.854.096c-.377-.03-.704-.043-.918-.049c.174-.073.407-.146.67-.18c.34-.045.728-.026 1.102.132" clip-rule="evenodd"/><path fill="#adad33" d="M16.807 17.343c.056-.404-.266-.551-.433-.574c.291.5-.035 1.06-.234 1.278c.199-.067.612-.3.667-.704"/><path fill="#000" fill-rule="evenodd" d="m16.282 16.707l.05.087c.137.235.13.485.063.706c-.068.222-.195.41-.29.515l.05.079c.105-.035.264-.113.404-.235a.83.83 0 0 0 .296-.51a.52.52 0 0 0-.147-.471a.6.6 0 0 0-.327-.157zm.36.242c.082.08.143.201.118.387a.73.73 0 0 1-.264.449a1.2 1.2 0 0 1-.198.138c.072-.108.143-.243.19-.394a1 1 0 0 0-.023-.687a.5.5 0 0 1 .176.107" clip-rule="evenodd"/><path fill="#adad33" d="M14.892 16.656c.284-.355.812-.183 1.04-.052c-.26-.052-.616.052-.66.322a.46.46 0 0 0 .122.408c.023.235.073.715.087.757s-.104.017-.165 0a1.1 1.1 0 0 0-.251-.696c-.277-.243-.231-.594-.173-.74"/><path fill="#000" fill-rule="evenodd" d="M15.686 16.549a.7.7 0 0 0-.184.05c-.136.057-.252.161-.277.318a.51.51 0 0 0 .123.44a39 39 0 0 0 .078.706l-.063-.01a1.14 1.14 0 0 0-.263-.692l-.003-.003c-.251-.22-.216-.538-.163-.678c.128-.156.31-.198.495-.184q.137.012.257.053m-.25-.15c-.205-.016-.427.032-.582.226l-.005.006l-.002.006c-.062.155-.113.53.184.793c.074.078.23.322.237.662v.036l.035.01c.032.009.08.02.12.023a.2.2 0 0 0 .062-.004a.07.07 0 0 0 .037-.028a.06.06 0 0 0 .005-.054l-.001-.006l-.004-.02l-.01-.067l-.023-.203l-.046-.45l-.002-.02l-.016-.012a.4.4 0 0 1-.104-.364c.018-.113.101-.195.219-.244a.7.7 0 0 1 .382-.038l.034-.09a1.3 1.3 0 0 0-.52-.162" clip-rule="evenodd"/><path fill="#906d47" d="M15.568 16.786c-.09.201.078.356.173.409c.083 0 .133-.273.148-.41c.23.16.58.558.13.87c-.451.314-.61.595-.633.697l.693-.296c.093-.087.302-.35.399-.705c.121-.444-.243-.644-.356-.704c-.112-.061-.441-.114-.554.139"/><path fill="#000" fill-rule="evenodd" d="M15.84 16.551a.37.37 0 0 0-.317.216a.32.32 0 0 0 .02.306c.048.08.12.136.174.166l.011.005h.012c.049 0 .08-.038.098-.068a.5.5 0 0 0 .048-.12a2 2 0 0 0 .039-.18a.8.8 0 0 1 .238.306a.32.32 0 0 1 .011.214a.44.44 0 0 1-.184.22c-.229.16-.384.311-.487.437a.8.8 0 0 0-.165.289l-.022.093l.79-.336l.005-.006a1.7 1.7 0 0 0 .413-.728a.58.58 0 0 0-.1-.539a.9.9 0 0 0-.28-.221a.6.6 0 0 0-.304-.054m.009.097a.5.5 0 0 1 .25.043c.056.03.167.091.25.196a.48.48 0 0 1 .081.452a1.6 1.6 0 0 1-.379.677l-.574.244q.034-.061.101-.145c.096-.118.245-.264.467-.418a.54.54 0 0 0 .221-.27a.42.42 0 0 0-.012-.28a.94.94 0 0 0-.34-.4l-.066-.046l-.009.08a2 2 0 0 1-.046.248a.4.4 0 0 1-.049.112a.4.4 0 0 1-.119-.119a.22.22 0 0 1-.014-.215c.047-.105.139-.149.238-.159" clip-rule="evenodd"/><path fill="#906d47" d="M15.264 16.908c.062-.341.373-.345.52-.305c-.078.061-.269.096-.19.47c.062.3.453.307.623.272c.09.14-.494.578-.78.78l-.052-.739c-.066-.017-.184-.137-.121-.478"/><path fill="#000" fill-rule="evenodd" d="M15.647 16.634a.3.3 0 0 0-.056.057c-.059.078-.086.197-.045.392c.036.174.17.26.306.298c.111.03.231.031.321.02a.3.3 0 0 1-.038.067c-.044.06-.114.131-.199.206c-.143.128-.32.262-.457.361l-.048-.688l-.034-.009c-.027-.007-.147-.088-.086-.422c.028-.153.11-.226.197-.258a.4.4 0 0 1 .14-.024m-.172-.068c-.12.044-.225.145-.259.332c-.057.311.029.471.123.521l.056.796l.07-.05c.143-.102.363-.263.535-.418a1.6 1.6 0 0 0 .213-.221a.4.4 0 0 0 .054-.102a.12.12 0 0 0-.01-.106l-.017-.028l-.032.007a.8.8 0 0 1-.33-.01c-.118-.032-.212-.1-.238-.225c-.037-.179-.008-.265.028-.312a.3.3 0 0 1 .068-.06l.028-.017l.01-.006l.04-.026l.076-.06l-.094-.025a.55.55 0 0 0-.32.01" clip-rule="evenodd"/><path fill="#f5fa4d" d="m16.403 18.39l-.009.01c-.738.876-1.02.508-1.528.242c-.408-.214-.358-.944-.282-1.283c-.25.422-.518 1.349.423 1.676c1.126.392 1.318-.52 1.387-.635z"/><path fill="#adad33" d="M13.83 17.155c.047.024 1.631.96 1.953 2.424c-.468-.412-1.514-1.473-1.953-2.424"/><path fill="#000" fill-rule="evenodd" d="m13.729 17.048l.058.127c.223.48.597.988.973 1.425s.756.807.992 1.014l.11.098l-.03-.145c-.165-.746-.649-1.354-1.094-1.777a5 5 0 0 0-.885-.68zm1.969 2.386a11 11 0 0 1-.865-.898c-.333-.388-.662-.827-.883-1.251l.133.091c.159.113.37.277.588.485c.408.387.84.924 1.027 1.573" clip-rule="evenodd"/><path fill="#573a22" d="M12.243 19.69c-.888.388-1.214-.368-1.266-.794l.906-.263l.92-.594c.183.389.329 1.262-.56 1.65"/><path fill="url(#SVGj1t6IeZh)" d="M10.13 20.109c-.44-.587-.25-.966-.1-1.082l2.328.83l-.35.534l-.987.244c-.67.195-.873-.27-.891-.526"/><path fill="#000" fill-rule="evenodd" d="m10.02 18.97l2.412.86l-.394.602l-1.004.249c-.347.1-.584.033-.735-.105a.7.7 0 0 1-.216-.45c-.218-.296-.284-.545-.273-.74a.55.55 0 0 1 .19-.399zm.02.111a.46.46 0 0 0-.133.312c-.01.168.047.398.261.685l.01.011v.015a.6.6 0 0 0 .185.4c.122.11.322.177.645.083h.002l.968-.24l.305-.466z" clip-rule="evenodd"/><path fill="url(#SVGPbj8dbUC)" d="M13.615 19.854c.44-.587.25-.966.1-1.082l-2.328.83l.35.534l.986.244c.67.196.874-.27.892-.526"/><path fill="#000" fill-rule="evenodd" d="m13.723 18.716l.021.016a.55.55 0 0 1 .19.4c.012.194-.054.443-.272.738a.7.7 0 0 1-.216.451c-.152.138-.389.206-.736.105l-1.004-.249l-.394-.601zm-2.262.91l.305.466l.97.24c.323.094.523.027.645-.083a.6.6 0 0 0 .185-.4l.001-.015l.009-.011c.215-.287.271-.517.261-.685a.46.46 0 0 0-.132-.312z" clip-rule="evenodd"/><path fill="url(#SVGZz0Oobyw)" d="M14.077 17.817c-.213-.75-.75-.787-.99-.712l-.081.864l-.407 1.911l.527-.118l.683-.932l.472-.322c.113-.217-.089-.551-.204-.691"/><path fill="#000" fill-rule="evenodd" d="m13.132 17.144l-.078.836l-.392 1.837l.436-.097l.677-.924l.469-.32c.04-.087.024-.203-.024-.323a1.2 1.2 0 0 0-.18-.304l-.006-.008l-.003-.01c-.103-.363-.283-.547-.46-.634a.67.67 0 0 0-.44-.053m.99.651c-.11-.38-.305-.586-.508-.686a.76.76 0 0 0-.542-.05l-.03.01l-.083.894l-.423 1.982l.619-.138l.689-.94l.475-.324l.005-.011c.067-.128.038-.283-.014-.415a1.3 1.3 0 0 0-.188-.322" clip-rule="evenodd"/><path fill="url(#SVGlNZX5duM)" d="M10.27 19.284c.116.526.683.55.952.495l-.536-2.456c-.55-.23-.729.039-.749.201a4 4 0 0 1-.206.563c-.094.182-.282.635.11.831c.393.197.375.352.428.366"/><path fill="#000" fill-rule="evenodd" d="M10.135 17.32a.28.28 0 0 0-.15.21v.004l-.001.003a4 4 0 0 1-.21.572c-.046.09-.113.24-.122.39a.4.4 0 0 0 .037.21a.36.36 0 0 0 .174.165c.202.1.301.193.358.265a1 1 0 0 1 .05.075l.006.009l.01.015l.023.006l.007.03c.053.242.21.368.387.428c.159.054.333.055.46.037l-.52-2.38c-.255-.102-.414-.088-.51-.04m-.044-.087c.134-.068.332-.073.614.045l.023.01l.552 2.529l-.048.01c-.14.028-.359.036-.56-.032a.65.65 0 0 1-.445-.48l-.011-.01a.2.2 0 0 1-.028-.041q-.015-.027-.043-.064c-.046-.059-.134-.143-.325-.238a.47.47 0 0 1-.218-.21a.5.5 0 0 1-.047-.258a1.1 1.1 0 0 1 .133-.43c.072-.138.163-.42.202-.55a.37.37 0 0 1 .201-.281" clip-rule="evenodd"/><path fill="#de8f54" d="M10.094 17.65a.43.43 0 0 1 .38-.322c-.172-.045-.419-.111-.511.168s-.114.153-.274.722s.142.675.393.834c.2.127.33.415.37.543c.395.257.625.173.69.099c-.417.016-.602-.178-.643-.277c0-.103-.09-.352-.439-.53c-.348-.177-.28-.49-.203-.624c.048-.1.162-.363.237-.613"/><path fill="url(#SVG690zEbwE)" d="M10.78 17.208c-.425.523-.037 1.137.21 1.379l1.067.385l.886-.312c.003-.072.07-.295.32-.61a.543.543 0 0 0-.014-.73c-.11-.096-.424-.369-.799-.692c-.468-.403-.865-.1-.949.026c-.066.102-.508.412-.721.554"/><path fill="#000" fill-rule="evenodd" d="M11.843 16.488a.54.54 0 0 0-.301.19a.7.7 0 0 1-.12.12a4 4 0 0 1-.198.155c-.144.106-.305.217-.412.289a.78.78 0 0 0-.133.745c.07.234.219.438.337.555l1.041.375l.841-.295a.8.8 0 0 1 .069-.199a2 2 0 0 1 .258-.406a.5.5 0 0 0 .118-.403a.5.5 0 0 0-.128-.261l-.796-.69c-.223-.192-.424-.213-.576-.175m-.023-.095c.184-.045.416-.015.662.196l.798.691l.004.003a.6.6 0 0 1 .018.795a2 2 0 0 0-.248.387a.6.6 0 0 0-.063.195l-.001.033l-.933.328l-1.094-.394l-.008-.007a1.5 1.5 0 0 1-.369-.605a.88.88 0 0 1 .156-.84l.005-.006l.006-.004c.106-.071.269-.184.414-.29a4 4 0 0 0 .192-.151a.6.6 0 0 0 .102-.099a.63.63 0 0 1 .359-.232" clip-rule="evenodd"/><path fill="#adad33" d="M11.32 17.71c.133-.062.412-.189.477-.19c.064.072.19.223.182.256c-.011.041-.056.375-.122.46c-.067.086-.439-.116-.473-.126c-.028-.007-.054-.27-.063-.4"/><path fill="#de8f54" d="M11.248 17.042c-.325.24-.495.561-.54.692c-.18-.191.035-.495.165-.623l.51-.312c.079-.138.312-.404.611-.364c.374.05.562.35.742.457c.623.373.614.661.532.759c-.022-.213-.192-.37-.275-.422l-.789-.539c-.386-.262-.55.053-.956.352m2.652.658a.83.83 0 0 0-.469-.512c.426-.022.599.448.632.686c.225.329.21.546.174.613l-.219.002c.05-.06.136-.211.09-.335a6 6 0 0 0-.208-.453m-3.751 2.074c-.166-.363-.1-.584-.046-.65c-.365.15-.168.67-.023.91l.274.5c.316.213.572.1.66.018a.71.71 0 0 1-.62-.166a4.4 4.4 0 0 0-.245-.612m3.447-.255c.166-.363.1-.584.046-.65c.365.15.167.67.023.91l-.274.501c-.316.212-.572.1-.66.017a.71.71 0 0 0 .62-.166a4.4 4.4 0 0 1 .245-.612"/><path fill="#adad33" d="M9.869 18.525c.9-.177 1.704.347 1.994.631c-.145-.039-.567-.14-1.094-.238s-.82-.302-.9-.393"/><path fill="#000" fill-rule="evenodd" d="M11.113 18.622c.356.147.634.352.783.499l.132.13l-.178-.048a16 16 0 0 0-1.09-.238c-.534-.098-.838-.307-.928-.408l-.057-.064l.084-.016a2.2 2.2 0 0 1 1.254.145m-1.137-.066c.127.095.39.238.801.314c.372.068.692.14.9.189a2.6 2.6 0 0 0-.601-.347a2.1 2.1 0 0 0-1.1-.156" clip-rule="evenodd"/><path fill="#adad33" d="M10.825 17.862c.05-.404.398-.464.566-.443c-.41.41-.239 1.034-.102 1.296c-.175-.116-.514-.448-.464-.853"/><path fill="#000" fill-rule="evenodd" d="m11.496 17.382l-.071.071a.87.87 0 0 0-.242.667c.009.232.084.446.15.572l-.07.063a1.3 1.3 0 0 1-.33-.331a.83.83 0 0 1-.156-.568a.52.52 0 0 1 .263-.418a.6.6 0 0 1 .357-.068zm-.41.141c-.1.056-.19.158-.213.344a.74.74 0 0 0 .14.502q.074.106.155.184a1.5 1.5 0 0 1-.081-.43a1 1 0 0 1 .197-.657a.5.5 0 0 0-.197.057" clip-rule="evenodd"/><path fill="#adad33" d="M12.852 17.691c-.184-.416-.738-.386-.992-.318c.265.016.582.209.555.48a.45.45 0 0 1-.222.364c-.083.221-.254.673-.278.71s.096.043.16.042a1.1 1.1 0 0 1 .42-.608c.33-.164.376-.515.357-.67"/><path fill="#000" fill-rule="evenodd" d="M12.111 17.383q.09.038.165.095c.117.09.203.221.187.38a.51.51 0 0 1-.231.393a39 39 0 0 1-.257.662l.064.006c.106-.333.326-.536.432-.6l.003-.002c.3-.149.346-.465.331-.613c-.084-.184-.25-.272-.431-.306a1 1 0 0 0-.263-.015m.28-.08c.203.037.405.14.505.368l.003.007l.001.007c.02.165-.026.541-.381.719a1.06 1.06 0 0 0-.398.578l-.01.035h-.036c-.033 0-.082 0-.121-.008a.2.2 0 0 1-.06-.02a.07.07 0 0 1-.028-.037a.06.06 0 0 1 .009-.053l.003-.006l.008-.019l.026-.062l.075-.189c.056-.145.12-.313.16-.423l.007-.019l.018-.008a.4.4 0 0 0 .194-.325c.012-.113-.048-.214-.149-.293a.7.7 0 0 0-.36-.134l-.009-.096c.132-.035.342-.06.544-.023" clip-rule="evenodd"/><path fill="#906d47" d="M12.165 17.644c.036.218-.167.324-.272.35c-.08-.021-.059-.298-.038-.433c-.264.095-.704.388-.348.807c.355.419.437.732.433.836l-.594-.465a1.66 1.66 0 0 1-.205-.784c-.004-.46.4-.56.524-.589c.124-.03.456.005.5.278"/><path fill="#000" fill-rule="evenodd" d="M11.962 17.345a.37.37 0 0 1 .251.29a.32.32 0 0 1-.098.29a.5.5 0 0 1-.21.116l-.013.003l-.012-.003c-.046-.013-.067-.058-.076-.091a.5.5 0 0 1-.016-.129a2 2 0 0 1 .009-.184a.8.8 0 0 0-.31.234a.32.32 0 0 0-.065.205a.45.45 0 0 0 .122.26c.18.213.292.4.358.548a.8.8 0 0 1 .087.321l-.004.095l-.676-.528l-.004-.007a1.7 1.7 0 0 1-.213-.81a.58.58 0 0 1 .234-.495a.9.9 0 0 1 .328-.142a.6.6 0 0 1 .308.027m-.034.092a.5.5 0 0 0-.252-.024a.8.8 0 0 0-.293.125a.48.48 0 0 0-.194.417c.003.35.129.643.194.75l.492.385a1 1 0 0 0-.061-.166a2.2 2.2 0 0 0-.344-.524a.54.54 0 0 1-.144-.32a.42.42 0 0 1 .083-.266a.94.94 0 0 1 .43-.3l.077-.027l-.013.081c-.01.066-.02.166-.018.25a.4.4 0 0 0 .018.122a.4.4 0 0 0 .146-.085a.22.22 0 0 0 .068-.204c-.018-.114-.096-.18-.189-.214" clip-rule="evenodd"/><path fill="#906d47" d="M12.427 17.84c.027-.345-.272-.43-.425-.428c.06.079.235.162.064.503c-.137.273-.517.18-.673.102c-.122.111.33.686.554.956l.24-.702c.069 0 .213-.085.24-.43"/><path fill="#000" fill-rule="evenodd" d="M12.126 17.477q.023.03.04.069c.037.091.033.213-.056.39c-.08.16-.231.209-.373.21a.9.9 0 0 1-.316-.063a.3.3 0 0 0 .02.074c.027.069.077.156.14.25c.105.16.241.335.349.467l.223-.652h.034c.029 0 .165-.048.192-.386c.012-.155-.048-.246-.125-.3a.4.4 0 0 0-.128-.06m.184-.021c.104.073.18.197.165.387c-.024.316-.148.448-.252.472l-.258.755l-.055-.067a7 7 0 0 1-.41-.541a1.6 1.6 0 0 1-.149-.27a.4.4 0 0 1-.027-.111a.12.12 0 0 1 .037-.1l.024-.023l.03.015c.073.036.2.076.322.075c.121 0 .229-.041.286-.155c.082-.164.076-.254.053-.31a.3.3 0 0 0-.05-.074l-.023-.024l-.008-.01l-.031-.034l-.06-.078h.098a.55.55 0 0 1 .308.093" clip-rule="evenodd"/><path fill="#f5fa4d" d="m10.947 18.978l.006.012c.49 1.037.856.754 1.415.628c.449-.102.588-.82.601-1.167c.135.473.155 1.437-.838 1.51c-1.188.089-1.14-.842-1.178-.97z"/><path fill="#adad33" d="M13.75 18.447c-.052.01-1.823.507-2.508 1.839c.557-.277 1.84-1.033 2.507-1.839"/><path fill="#000" fill-rule="evenodd" d="m13.875 18.372l-.089.106c-.338.408-.83.802-1.305 1.127s-.937.585-1.218.725l-.132.065l.068-.131c.349-.678.973-1.141 1.511-1.435a5 5 0 0 1 1.03-.43zm-2.513 1.798a12 12 0 0 0 1.065-.645c.422-.29.852-.63 1.174-.982l-.152.055a5.4 5.4 0 0 0-.693.316c-.492.269-1.048.677-1.394 1.256" clip-rule="evenodd"/><path fill="#ba9670" d="M7.756 8.58c.603-.353 1.061-.508 1.215-.542c-.675.421-2.2 1.26-2.812 1.648c-.593.375-1.403 1.28-1.71 1.727c.495-1.056 1.158-1.592 1.428-1.727a387 387 0 0 1 1.88-1.106"/><path fill="#000" fill-rule="evenodd" d="M10.734 8.554c.108-.247.079-.535.016-.726l.092-.031c.067.205.102.52-.02.796c-.122.282-.401.511-.938.55l-.007-.098c.508-.036.752-.25.857-.491" clip-rule="evenodd"/><path fill="#000" fill-rule="evenodd" d="m9.512 7.056l-.103.024a.7.7 0 0 0-.286.14a3.7 3.7 0 0 0-.314.826l.187-.081l.039.089l-.349.153l.012-.086c.027-.192.105-.42.185-.613a.46.46 0 0 0-.285.283a.7.7 0 0 0-.04.33l.004.033l-.029.016c-.457.252-1.588.878-2.452 1.366c-.423.239-.809.66-1.116 1.083a6.5 6.5 0 0 0-.554.919c.332-.224 1.11-.677 2.373-1.12c1.515-.53 3.319-.232 4.063-.01c.075-.084.173-.242.284-.45c.12-.225.253-.502.386-.797c.26-.574.518-1.209.682-1.63c-.954-.882-2.204-.588-2.687-.475m1.271 3.436c-.754-.219-2.503-.495-3.967.018c-.95.333-1.622.671-2.033.91c1.001-.395 2.764-.914 4.421-.462c.21.013.541.002.857-.073c.296-.07.568-.192.722-.393m.116.003c.089-.09.199-.268.317-.49c.122-.228.256-.508.39-.803c.266-.59.532-1.245.695-1.667l.012-.03l-.024-.023c-.997-.947-2.318-.635-2.8-.52l-.1.023a.8.8 0 0 0-.335.167a.9.9 0 0 0-.22.27a.56.56 0 0 0-.326.334a.8.8 0 0 0-.05.344c-.474.262-1.577.873-2.424 1.35c-.441.25-.837.683-1.147 1.112s-.537.858-.64 1.102l-.049.116l.113-.052c.787-.361 2.91-1.212 4.872-.675l.005.001h.005c.217.015.56.004.89-.074c.326-.077.65-.222.816-.485" clip-rule="evenodd"/><defs><linearGradient id="SVGilkk5bgT" x1="4.273" x2="17.465" y1="7.687" y2="8.082" gradientUnits="userSpaceOnUse"><stop stop-color="#a2a1aa"/><stop offset="1" stop-color="#11110f"/></linearGradient><linearGradient id="SVGCoxyZdKt" x1="5.222" x2="18.795" y1="5.407" y2="6.186" gradientUnits="userSpaceOnUse"><stop stop-color="#6e6e6e"/><stop offset="1" stop-color="#6f7273"/></linearGradient><linearGradient id="SVGkRPB1dSU" x1="16.969" x2="1.707" y1="6.1" y2="10.818" gradientUnits="userSpaceOnUse"><stop stop-color="#a4784c"/><stop offset="1" stop-color="#4b2b1c"/></linearGradient><linearGradient id="SVGmw5NbcxB" x1="16.369" x2="5.579" y1="9.32" y2="19.34" gradientUnits="userSpaceOnUse"><stop stop-color="#999998"/><stop offset="1" stop-color="#1b191a"/></linearGradient><linearGradient id="SVGjtSFabhN" x1="12.001" x2="12.001" y1="3.005" y2="21" gradientUnits="userSpaceOnUse"><stop stop-color="#97989d"/><stop offset="1" stop-color="#1f1f21"/></linearGradient><linearGradient id="SVGFPqJhbmO" x1="18.665" x2="5.553" y1="9.543" y2="9.666" gradientUnits="userSpaceOnUse"><stop stop-color="#999b9d"/><stop offset="1" stop-color="#171718"/></linearGradient><linearGradient id="SVGNtA8Be2O" x1="19.165" x2="2.692" y1="17.809" y2="15.509" gradientUnits="userSpaceOnUse"><stop stop-color="#101010"/><stop offset="1" stop-color="#69686c"/></linearGradient><linearGradient id="SVGLH6M8NWx" x1="5.776" x2="18.568" y1="12.001" y2="12.001" gradientUnits="userSpaceOnUse"><stop stop-color="#6d6c70"/><stop offset="1" stop-color="#292a24"/></linearGradient><linearGradient id="SVG7gWoVdLt" x1="4.862" x2="17.896" y1="16.142" y2="15.614" gradientUnits="userSpaceOnUse"><stop stop-color="#72727c"/><stop offset="1" stop-color="#262720"/></linearGradient><linearGradient id="SVGag3sVcsl" x1="17.961" x2="3.094" y1="7.305" y2="9.172" gradientUnits="userSpaceOnUse"><stop stop-color="#24251e"/><stop offset="1" stop-color="#939496"/></linearGradient><linearGradient id="SVGDCuMRbeD" x1="10.47" x2="3.287" y1="4.322" y2="8.884" gradientUnits="userSpaceOnUse"><stop stop-color="#2d1007"/><stop offset="1" stop-color="#e73125"/></linearGradient><linearGradient id="SVGr1b4vcUj" x1="17.615" x2="5.605" y1="8.666" y2="14.017" gradientUnits="userSpaceOnUse"><stop stop-color="#e73125"/><stop offset="1" stop-color="#420f08"/></linearGradient><linearGradient id="SVG1vW0HbBX" x1="5.025" x2="15.131" y1="14.703" y2="9.514" gradientUnits="userSpaceOnUse"><stop stop-color="#e73125"/><stop offset="1" stop-color="#3a0d10"/></linearGradient><linearGradient id="SVG9H6R4deG" x1="10.41" x2="15.43" y1="3.893" y2="19.402" gradientUnits="userSpaceOnUse"><stop stop-color="#e73125"/><stop offset=".564" stop-color="#320c09"/></linearGradient><linearGradient id="SVGWHUXndrU" x1="13.53" x2="20.713" y1="4.321" y2="8.884" gradientUnits="userSpaceOnUse"><stop stop-color="#2d1007"/><stop offset="1" stop-color="#e73125"/></linearGradient><linearGradient id="SVGAWbtLdgd" x1="6.385" x2="18.395" y1="8.668" y2="14.018" gradientUnits="userSpaceOnUse"><stop stop-color="#e73125"/><stop offset="1" stop-color="#420f08"/></linearGradient><linearGradient id="SVGNVod8cQf" x1="18.975" x2="8.869" y1="14.703" y2="9.514" gradientUnits="userSpaceOnUse"><stop stop-color="#e73125"/><stop offset="1" stop-color="#3a0d10"/></linearGradient><linearGradient id="SVGCrbGfJic" x1="13.591" x2="8.57" y1="3.892" y2="19.402" gradientUnits="userSpaceOnUse"><stop stop-color="#e73125"/><stop offset=".564" stop-color="#320c09"/></linearGradient><linearGradient id="SVGj1t6IeZh" x1="10.77" x2="4.144" y1="6.751" y2="9.656" gradientUnits="userSpaceOnUse"><stop stop-color="#2d1007"/><stop offset="1" stop-color="#e73125"/></linearGradient><linearGradient id="SVGPbj8dbUC" x1="13.23" x2="19.857" y1="6.752" y2="9.656" gradientUnits="userSpaceOnUse"><stop stop-color="#2d1007"/><stop offset="1" stop-color="#e73125"/></linearGradient><linearGradient id="SVGZz0Oobyw" x1="18.225" x2="5.906" y1="10.405" y2="10.469" gradientUnits="userSpaceOnUse"><stop stop-color="#e73125"/><stop offset="1" stop-color="#420f08"/></linearGradient><linearGradient id="SVGlNZX5duM" x1="4.753" x2="17.672" y1="12.746" y2="9.383" gradientUnits="userSpaceOnUse"><stop stop-color="#e73125"/><stop offset="1" stop-color="#3a0d10"/></linearGradient><linearGradient id="SVG690zEbwE" x1="12.08" x2="11.775" y1="3.821" y2="19.863" gradientUnits="userSpaceOnUse"><stop stop-color="#e73125"/><stop offset=".564" stop-color="#320c09"/></linearGradient></defs></g></svg>