<svg xmlns="http://www.w3.org/2000/svg" viewBox="0 0 24 24"><g fill="none"><path fill="#6d47ec" d="M11.91 10.773L7.33 3l4.579 4.804L16.742 3z"/><path fill="#193fe0" d="M12.017 10.61L16.742 3l-1.716 1.71zM9.13 4.884L7.331 3l4.5 7.633z"/><path fill="#3052f1" d="M11.91 13.227L7.33 21l4.579-4.804L16.742 21z"/><path fill="#193fe0" d="M12.017 13.39L16.742 21l-1.716-1.71l-3.01-5.906zM9.13 19.116L7.331 21l4.5-7.633z"/><path fill="url(#SVG8p3QJcHN)" d="M7.742 12.05L3 7.248l4.09-4.145l4.87 7.683l4.95-7.683L21 7.247l-4.742 4.804L21 16.854L16.91 21l-4.95-7.706L7.09 21L3 16.854z"/><defs><linearGradient id="SVG8p3QJcHN" x1="12" x2="12" y1="3.102" y2="21" gradientUnits="userSpaceOnUse"><stop stop-color="#dd76f9"/><stop offset="1" stop-color="#00c1e3"/></linearGradient></defs></g></svg>