<svg xmlns="http://www.w3.org/2000/svg" viewBox="0 0 24 24"><g fill="none"><path fill="#31aaa7" d="M12 21a9 9 0 1 0 0-18a9 9 0 0 0 0 18"/><path fill="#333" d="M11.804 3v5.612h-4.04v7.28h3.537V21A9.01 9.01 0 0 1 3 12.016C3 7.103 6.923 3.106 11.804 3"/><path fill="#eef1f8" d="M10.942 3.016v4.749H8.295c-.254 0-.53.196-.53.45v1.138h7.571c.482 0 .9-.244.9-.725c0-.482-.418-.863-.9-.863H12.53v-4.75zM7.765 11.47v4.658c0 .25.212.636.477.636h2.7V21h1.588v-4.235h2.822c.487 0 .884-.318.884-.773c0-.46-.397-.816-.884-.816H9.687c-.227 0-.333-.211-.333-.423v-1.297c0-.212.106-.397.328-.397h5.643c.503 0 .91-.25.91-.725c0-.477-.407-.863-.91-.863z"/></g></svg>