<svg xmlns="http://www.w3.org/2000/svg" viewBox="0 0 24 24"><g fill="none"><path fill="url(#SVGJmHFebtq)" d="M3 13.394v-2.798c0-.197.215-.396.45-.396s.45.216.45.396v2.798c0 .176-.148.405-.45.405c-.314 0-.45-.184-.45-.405m8.55-.01V10.58c0-.197.214-.38.45-.38c.235 0 .45.2.45.38v2.802a.43.43 0 0 1-.45.416c-.303 0-.45-.195-.45-.416m8.55.01V10.57c0-.197.214-.369.45-.369c.234 0 .45.19.45.37v2.825c0 .176-.149.404-.45.404c-.303 0-.45-.183-.45-.404M3.813 7.954c-.675.038-.824.474-.814.687c0 .65.612.688.919.625c1.29.038 2.475 1.443 2.906 2.141c.133-.288.507-.797.678-1.016c-1.37-1.968-2.846-2.484-3.69-2.437m16.372 8.094c.675-.038.823-.479.813-.694c0-.656-.612-.694-.918-.631c-1.29-.038-2.476-1.457-2.907-2.161c-.132.29-.507.804-.677 1.025c1.37 1.988 2.846 2.508 3.689 2.461"/><path fill="url(#SVGzA4Jq1Xq)" d="M3.564 14.75c-.352.082-.555.381-.555.626c0 .665.676.698.938.665c1.772 0 3.318-2.096 4.499-3.915c.998-1.538 1.765-2.88 3.584-2.88c1.707 0 2.726 1.398 3.179 2.218l.709-1.13c-.55-.812-2.096-2.384-3.888-2.384c-1.793 0-2.945 1.123-3.506 1.97c-1.568 2.373-2.523 3.884-3.408 4.448c-.824.524-1.112.282-1.552.383"/><path fill="url(#SVGzA4Jq1Xq)" d="M20.445 9.25c.352-.082.555-.382.555-.626c0-.665-.677-.699-.939-.665c-1.772 0-3.318 2.096-4.499 3.915c-.998 1.538-1.764 2.88-3.583 2.88c-1.707 0-2.726-1.399-3.18-2.219l-.708 1.13c.549.812 2.095 2.385 3.888 2.385s2.944-1.123 3.505-1.971c1.569-2.373 2.524-3.884 3.41-4.447c.823-.524 1.11-.282 1.55-.383"/><defs><linearGradient id="SVGJmHFebtq" x1="5.888" x2="9.251" y1="9.177" y2="18.145" gradientUnits="userSpaceOnUse"><stop stop-color="#746ef3"/><stop offset="1" stop-color="#c346d5"/></linearGradient><linearGradient id="SVGzA4Jq1Xq" x1="5.889" x2="9.252" y1="9.176" y2="18.145" gradientUnits="userSpaceOnUse"><stop stop-color="#746ef3"/><stop offset="1" stop-color="#c346d5"/></linearGradient></defs></g></svg>