<svg xmlns="http://www.w3.org/2000/svg" viewBox="0 0 24 24"><g fill="none"><path fill="#db4440" d="M12 21a9 9 0 1 0 0-18a9 9 0 0 0 0 18"/><path fill="#f0f3fa" d="M20.545 12A8.54 8.54 0 0 1 12 20.545v-3.198c.429-.265 1.26-.831 2.393-1.8c1.403-1.186 1.673-3.309 1.636-4.024v-4.59H12V3.46a8.54 8.54 0 0 1 8.545 8.545z"/><path fill="#f0f3fa" d="M15.175 13.942c-.37.784-1.164 1.51-1.858 2.028a15 15 0 0 1-1.36.895a32 32 0 0 1-1.525-1.112c-.37-.291-.805-.725-1.128-1.07c-.794-.857-.9-2.032-.99-3.155l-.016-.312l-.005-.021v-3.96h7.412v2.53c0 .832-.006 1.663-.106 2.489a5.5 5.5 0 0 1-.424 1.688"/><path fill="#db4440" d="M9.3 14.17a6.9 6.9 0 0 1-.678-2.568l-.005-.052v-.064H8.61V7.674h6.787l.006.006v2.472c0 .783-.037 1.588-.149 2.361c-.068.46-.164.89-.354 1.27c-.381.779-1.175 1.457-1.853 1.944a14 14 0 0 1-1.08.688c-.021.01-.032 0-.053-.01c-.937-.636-1.964-1.356-2.61-2.24z"/><path fill="#f0f3fa" d="M15.045 9.353h-6.22V8.045h6.215v1.308z"/><path fill="#db4440" d="M9.232 8.918c.015-.043-.016-.085-.048-.112l-.09-.084a.23.23 0 0 1-.064-.138c-.01-.132.053-.244.191-.254a.27.27 0 0 1 .143.037v.138h-.01c-.048-.016-.107-.053-.149-.011c-.026.021-.026.064-.01.095q.088.09.169.186l.021.053c.027.142-.037.28-.206.285q-.08.002-.138-.037v-.158a.3.3 0 0 0 .1.047c.038 0 .075 0 .085-.047zm1.816-.398c-.022.043.01.09.042.117l.095.09c.032.042.053.069.053.116l.01.032l-.005.053a.196.196 0 0 1-.196.185a.25.25 0 0 1-.148-.031l-.005-.006v-.158h.005c.027.02.053.042.096.047c.031 0 .074 0 .084-.042a.09.09 0 0 0-.026-.095l-.09-.09a.26.26 0 0 1-.074-.26q.04-.134.185-.148q.074 0 .138.037v.138h-.006c-.053-.027-.132-.059-.159.015m1.852.408c.022-.058-.02-.095-.058-.132l-.074-.07a.25.25 0 0 1-.063-.237q.04-.16.2-.16h.033q.045.011.084.038l.005.005v.133a.3.3 0 0 0-.084-.027c-.08-.021-.106.074-.064.127l.048.053l.085.08a.2.2 0 0 1 .047.095v.069c0 .1-.047.174-.143.206a.3.3 0 0 1-.1 0a.2.2 0 0 1-.106-.032v-.153q.001-.015.01 0a.15.15 0 0 0 .133.037c.02 0 .037-.016.047-.032m1.393-.148c0 .148-.074.318-.249.333c-.18.011-.265-.137-.28-.301V8.69c0-.042 0-.085.01-.122c.026-.106.09-.212.201-.233c.186-.037.291.117.318.28zm-4.479.19H9.67v.006l-.021.122l-.006.005H9.49v-.005l.175-.758h.164l.17.758l-.006.005h-.148l-.027-.127h-.005zm.757-.391c.01-.064.005-.064 0 0l-.09.524h-.111l-.085-.567q0-.015 0 0q-.017.284-.042.567h-.149v-.005l.07-.752l.005-.006h.19l.005.006q.034.248.064.497l.021-.217l.053-.286h.19v.011l.07.747l-.006.005h-.148c-.005 0-.01 0-.005-.005v-.064c-.01-.037-.005-.069-.01-.106v-.111l-.006-.09l-.005-.106l-.006-.042zm1.117.53c-.106.01-.228 0-.27-.107l-.016-.074V8.34h.148l.006.546c.005.032.005.069.042.084q.04.016.08 0c.037-.015.037-.047.042-.079V8.34h.153v.583c0 .111-.08.18-.185.185m.519-.488v.482h-.138V8.34h.143c.01 0 .01 0 .016.011l.185.492v-.01l-.005-.01a2 2 0 0 0-.01-.133v-.35h.142v.763h-.137l-.006-.001l-.005-.004l-.159-.413l-.02-.064c0-.021-.006-.016-.006 0m1.17.17v.307h-.005v.005h-.149V8.34h.16q.087.002.137.027q.105.048.106.159a.3.3 0 0 1-.027.174c-.053.075-.132.096-.217.09zm1.239.031v.28h-.143l-.006-.004V8.34h.212c.095.011.175.053.19.16c.011.095 0 .216-.105.253c-.005 0-.01.006-.005.011l.137.334v.005h-.164l-.106-.28c-.01-.017-.01-.017-.01 0"/><path fill="#f0f3fa" d="M13.376 8.468h.016q.039-.001.063.022a.1.1 0 0 1 .027.063v.032a.09.09 0 0 1-.053.08a.1.1 0 0 1-.032.005h-.021zm1.27 0a.08.08 0 0 1 .059.022a.1.1 0 0 1 .026.063v.032q-.001.033-.026.058a.08.08 0 0 1-.053.027h-.043v-.202zm-.72.397a.65.65 0 0 1 0-.27c.006-.042.032-.095.07-.105c.084-.027.121.052.137.116q.015.111 0 .222c-.005.048-.021.106-.064.127c-.047.022-.09.006-.116-.037a.2.2 0 0 1-.027-.053M9.707 8.77q.023-.1.042-.201a3 3 0 0 0 .037.28h-.084zm5.135 4.018q-.071.365-.211.71c-.12.294-.3.56-.53.778l-.291.318c-.053.069-.117.127-.18.19q-.256.24-.535.455q-.548.41-1.138.752c-.37-.254-.725-.513-1.08-.783c-.37-.286-.699-.55-.98-.805a2.9 2.9 0 0 1-.598-.921a7 7 0 0 1-.434-2.186V9.68h6.173v.852l-.005.032v.18q.005.133-.01.264v.048l-.006.053l-.005.095v.096c-.01.026 0 .053-.01.08v.073c-.006.027 0 .053-.011.074v.037q-.042.616-.149 1.223"/><path fill="#1d1d1b" d="M10.813 10.956c-.026.011-.053.022-.074.011l-.005-.005a.1.1 0 0 1-.01-.032q0-.008 0 0c-.027.005-.043.005-.064-.005c-.01-.011-.01-.027-.032-.032c-.111-.037-.106-.138-.069-.228l.074-.159a.2.2 0 0 0 .006-.074l-.006-.005c-.031-.01-.08-.027-.053-.069a.07.07 0 0 1 .032-.032l.064-.042v-.005c-.021-.016-.043-.032-.048-.053l-.005-.043v-.01l.005-.005a.14.14 0 0 1 .106 0c.032.005.063.02.09.031l.037.006l.005.001l.006-.001c.01-.006.026 0 .037 0a2 2 0 0 1 .158-.016a.54.54 0 0 1 .292.127a.7.7 0 0 1 .121.122a.5.5 0 0 1 .085.143h.005v-.027a.17.17 0 0 1 .08-.08a.5.5 0 0 1 .2-.068l.096-.016l.053-.016a.2.2 0 0 1 .106-.021a.04.04 0 0 1 0-.043l.002-.007q0-.005-.002-.008c-.016-.027-.032-.106 0-.127v-.006c-.021-.016-.042-.026-.048-.047c0-.027.006-.048.032-.059l.048-.02V9.96c0-.026.016-.042.037-.053c.037-.01.122.043.159.064q.127.069.249.148l.01.016c.01.016.01.026-.005.042c-.021.016-.043.027-.053.048c-.021.032-.027.069-.048.1v.006q.081.09.143.195a.28.28 0 0 1 .021.196a.5.5 0 0 1-.047.112l-.08.132l-.068.132c-.011.032-.053.048-.085.048h-.005a.4.4 0 0 1 .01.159a.3.3 0 0 1-.074.159v.016l.08.026c.18.042.328.148.439.291q.065.08.116.17l.09-.011h.106q.064 0 .143.032q.156.056.302.137a.15.15 0 0 1 .063.154l-.01.095l-.006.069a.14.14 0 0 1-.02.08a.08.08 0 0 1-.048.042a.02.02 0 0 0-.01.01a.5.5 0 0 0-.038.117l-.063.28a.6.6 0 0 1-.143.276l-.053.053l-.064.084a.53.53 0 0 1-.37.244v.005c.037.021.063.069.079.106v.005l-.005.006h-2.282l-.005-.006q-.015-.09-.037-.18v-.063c.037-.138.174-.148.29-.132l.197.026c.02 0 .042 0 .053-.021a.2.2 0 0 1 .095-.095l.127-.053l.312-.112c.037-.015.08-.037.122-.042c.042-.01.074-.032.085-.074a.5.5 0 0 0 .02-.111l.011-.159l.075-.35v-.005a1.1 1.1 0 0 1-.403-.106h-.005l-.074.085h-.016l-.148-.032v-.042l-.01-.005a.46.46 0 0 1-.207-.106c-.022-.016-.053-.048-.043-.074a.1.1 0 0 1 .032-.053l.005-.006l.075.006c.015 0 .031.01.042.02h.01v-.03l-.005-.006a.34.34 0 0 1-.185-.117a.3.3 0 0 0-.133-.084h-.01c-.021.005-.037.016-.053.01a.2.2 0 0 1-.042-.01a1.2 1.2 0 0 0-.36-.096a.3.3 0 0 0-.149.022q-.117.045-.211.1a.2.2 0 0 0-.059.053v.005l.006.048v.005l.005.016v.01l-.005.022l-.006.005c-.031.01-.068.01-.09.043a.1.1 0 0 0-.016.053l-.005.052q-.006.032-.053.032a.4.4 0 0 1-.17-.021a.13.13 0 0 1-.073-.063v-.01a.33.33 0 0 1 .063-.159a.4.4 0 0 0 .074-.122a.5.5 0 0 1 .08-.159a.5.5 0 0 0 .08-.105c.068-.111.131-.212.232-.276q.08-.054.17-.037l.052.006q.123.021.244.047h.048l.063-.095l.043-.037a.46.46 0 0 0 .074-.201h-.006z"/><path fill="#f0f3fa" d="M11.413 10.792a1 1 0 0 0-.053-.117a.3.3 0 0 1-.026-.09v-.032l-.027-.063l-.032-.053v-.005c.021.01.037.015.053.031l.053.064a.5.5 0 0 1 .058.127q.033.114.043.233a.3.3 0 0 0-.064-.005c-.021 0-.042-.011-.063-.006l-.043-.005l-.063-.005v-.006l.021-.053a.06.06 0 0 0 0-.042v-.01a.1.1 0 0 0-.042-.022q-.034-.006-.043.027a.4.4 0 0 1-.042.08l-.032.015h-.005c-.032-.016-.053-.026-.037-.064a1 1 0 0 0 .053-.195c0-.032 0-.053-.01-.085a.1.1 0 0 1 0-.037c0-.021-.017-.053-.043-.058h-.006v.084l-.105-.159c.02-.01.053-.015.074 0a.12.12 0 0 1 .063.07q.044.109.053.227l.01-.005v-.005l.027-.085h.006a.7.7 0 0 0 .105.18l.048.058c.01.016.032.032.053.042c.005.006.01 0 .016-.005zm1.038-.25l-.037.006a.4.4 0 0 0-.053.069l-.022.01l-.002.001h-.003v-.011c0-.021.01-.037 0-.053c-.026-.042-.063-.053-.106-.053a.03.03 0 0 0-.015.005l-.012.011a.03.03 0 0 0-.004.016q0 .007.005.016c0 .005 0 .01-.01.01h-.006c-.01 0-.016 0-.021-.01l-.032-.08v-.005h.005c.069.01.133.021.201.016l.043-.01a.06.06 0 0 0 .032-.033h.01c.016.032.053.064.08.09c.031.032.047.064.031.106h-.005a.1.1 0 0 1-.064-.005a.03.03 0 0 1-.01-.032a.2.2 0 0 0 0-.058zm-.43.424q.018.015.027.037c.005.01 0 .021 0 .037l-.026.043l-.01.026H12l-.027-.026v-.01l.005-.033a.13.13 0 0 0 .011-.063a.05.05 0 0 0-.032-.043l-.005-.005v-.005q.048-.033 0-.074v-.01c.026-.027.016-.07-.016-.08v-.005c.01-.043-.026-.08-.053-.106c-.032-.037.032-.085.069-.037h.005c.053.02.08.074.074.132v.069a1 1 0 0 1-.016.153zm-.418-.28a.3.3 0 0 0 .106.058a.36.36 0 0 1 .143.111l.011.027v.01a.4.4 0 0 1-.127.037c-.037.005-.074 0-.08-.042c-.005-.069-.031-.133-.053-.201m-.534.45l.031-.006h.011v.043h.005l.011.005h.026l.038-.021c.042-.027.09-.058.137-.048c.021.005.048.027.027.053c-.027.032-.075.042-.117.053l-.1.005c-.027 0-.048-.01-.053-.037l-.01-.02l-.012-.006h-.084c-.021-.01-.043-.01-.058-.032a.02.02 0 0 1 0-.026c.015-.016.042-.032.063-.027l.021.006c.032.01.117-.011.095-.059c-.015-.042-.079-.063-.116-.074v-.01h.005l.074.02c.027.011.053-.005.07-.026h.01l.053.037v.01c-.032.011-.032.027-.01.054h-.006a.15.15 0 0 0-.106.063a.05.05 0 0 0-.01.032v.005zm.201-.212l.28.053c0 .021.011.032.022.042l.01.027v.01l-.01.006h-.01l-.07-.011a.36.36 0 0 1-.222-.127m.44.402a.16.16 0 0 1-.085.006c-.016 0-.032-.016-.037-.038v-.053l.005-.01c.042.01.08.021.111.048c.111.074.106.243.1.36v.106l-.005.01h-.005l-.042-.159a.4.4 0 0 0-.053-.121c-.021-.037.005-.085.026-.117c0-.01 0-.021-.01-.032zm-.61.143c-.037-.01-.084-.016-.116-.037l-.01-.032l-.011-.005a.1.1 0 0 0-.053-.021l.01-.006h.059c.095.016.18.016.254-.042l.1-.053c-.015.037-.026.08-.058.111a.2.2 0 0 0-.063.117c0 .01-.011.016-.016.021q-.023.015-.037 0a.2.2 0 0 1-.053-.053zm-.672.01h-.016q-.008 0 0 0q.09-.023.18-.052q.048.002.064.042c0 .016.016.027.032.021c.015 0 .031 0 .047-.015h.006c.015.01.015.026.01.042c0 .01-.01.01-.021.01a.8.8 0 0 0-.222-.042a.3.3 0 0 1-.08 0zm-.408.17l.043-.074a.1.1 0 0 1 .021-.026l.069-.043l.111-.026l-.09.069l-.053.042l-.1.053zm2.309-.01l.196.444h.005l.042-.031c.01-.006.027-.011.037 0v.016a1 1 0 0 1-.09.084h-.005l-.243-.587c0-.006 0-.011.005-.006c.074.032.148.064.212.1q.157.087.275.223a.64.64 0 0 1 .127.254a.3.3 0 0 0-.08.01a.06.06 0 0 1-.042 0v-.01a.36.36 0 0 0 .027-.17l-.006-.02c-.01-.021-.015-.021-.026 0a.1.1 0 0 1-.032.047h-.01l-.053-.031l-.011-.006l-.005-.037l-.016-.085l-.005-.015l-.006-.006c-.01 0-.016 0-.02.01a.3.3 0 0 0-.022.054h-.005a1 1 0 0 0-.064-.111a.35.35 0 0 0-.18-.133q-.014-.002-.005.006m-.434.127h-.043l-.016-.006v-.148h.006l.106-.021a2 2 0 0 0-.022.201c0 .01-.01.01-.015 0l-.011-.021zm-.143.233c0 .026.005.053-.027.053a.2.2 0 0 1-.095 0v-.006l.069-.016c.016-.053-.043-.095-.085-.1h-.005a.3.3 0 0 1-.032-.043a.1.1 0 0 0-.08-.047c-.02 0-.031.01-.052 0a.4.4 0 0 0-.106-.037v-.006h.069c.09.016.19.037.254.106l.005.006l.063.005c.027.01.053 0 .07-.016h.005c0 .032.016.117-.048.1zm.62.132v-.095l.068.17l-.005.01a.19.19 0 0 0-.17.069a.5.5 0 0 0-.053.084h-.005a.3.3 0 0 1-.064-.148a.14.14 0 0 1 .011-.08c.021-.037.053-.052.106-.052c.037.01.058.031.095.053l.006.001q.003 0 .005-.002l.004-.004zm1.047.159h-.016l-.005.01v.01q.015.064.01.128v.005l-.012-.005l-.008-.01a1 1 0 0 0-.037-.09c-.011-.006-.022 0-.022.01l-.005.032h-.005a2 2 0 0 1-.138-.138a1 1 0 0 0-.153-.143c0-.005-.006 0 0 0l.121.016q.023 0 .043-.01h.005l.005-.006l.002-.008q0-.004-.002-.007l-.005-.006l-.021-.021a.2.2 0 0 1 .095.01a.4.4 0 0 1 .106.064l.037.021a.14.14 0 0 1 .095.117v.079l-.069-.053zm-1.111 1.16a2 2 0 0 1 .444-.308a.13.13 0 0 0 .064-.111c-.006-.064-.058-.106-.085-.159a3 3 0 0 1-.095-.217a.56.56 0 0 0 .212-.201l.105-.159c.09.053.175.122.207.233l.026.153v.011a1.2 1.2 0 0 0-.164.424a.26.26 0 0 1-.2.2a.4.4 0 0 1-.064.017l-.07.01q-.023 0-.031.027c-.005.037-.005.074-.053.085a.2.2 0 0 1-.053 0a.15.15 0 0 0-.069.02a.22.22 0 0 1-.132.043l-.064-.005a1 1 0 0 0-.185-.027c0-.026 0-.053.032-.063h.048c.02 0 .037 0 .058.01h.016c.02-.01.037-.01.047.01z"/><path fill="#f0f3fa" d="M12.47 12.635c-.015 0-.026.015-.026.031l-.01.106l-.075-.143a.1.1 0 0 1-.01-.047v-.006l.003-.002l.005-.001h.004l.003.003l.054.022a.4.4 0 0 0 .105.031v.006c.01.053.027.095.053.137l.037.053h-.015l-.011.005a.08.08 0 0 1-.053-.048l-.053-.137l-.01-.005zm-1.037.757l.042-.006h.106l.053-.026a2 2 0 0 1 .434-.185a.1.1 0 0 0 .058-.043a.1.1 0 0 0 .016-.053c0-.053.01-.095.016-.132q.016-.078.064-.143c.042-.063.095-.037.132.01q.065.08.106.16a.2.2 0 0 1 .032.073c.01.064-.074.117-.117.143l-.175.106a.4.4 0 0 0-.121-.01c-.048 0-.085.037-.106.074q-.034.046-.064.095l-.127-.01q-.09.004-.18.015h-.053l-.069.006h-.11c-.011-.053.02-.07.068-.074z"/><path fill="#db4440" d="M11.662 14.753a.2.2 0 0 1-.106.031q-.111-.002-.159-.105a.4.4 0 0 1-.031-.154v-.074q0-.072.031-.143c.037-.09.117-.159.217-.148h.07q.076.016.12.063a.34.34 0 0 1 .07.138l.01.09v.116a1.4 1.4 0 0 1-.106.323l-.11.228h-.18v-.01q.077-.144.148-.302l.031-.053zm-.778-.424v-.159h.27v.948h-.18v-.789zm1.302.212a.2.2 0 0 1 .09-.032h.043c.09.016.137.1.148.18a.6.6 0 0 1 0 .223c-.021.105-.085.195-.196.217a.3.3 0 0 1-.106 0a.22.22 0 0 1-.159-.096a.34.34 0 0 1-.053-.159c0-.052 0-.105.01-.158a1 1 0 0 1 .054-.19l.09-.202l.074-.154h.19l.001.003v.003a12 12 0 0 0-.18.365zm.572-.037c.037 0 .074 0 .106.016c.095.026.153.106.17.2a.4.4 0 0 1-.006.176a.28.28 0 0 1-.217.227c-.043.01-.09.006-.132.006a.4.4 0 0 1-.138-.032v-.005l.021-.16q0-.016.016-.01a.23.23 0 0 0 .148.037c.053-.005.095-.026.111-.08c.027-.079.005-.18-.074-.21a.34.34 0 0 0-.19-.027v-.027q.032-.225.069-.45h.365v.17h-.228l-.005.005l-.027.159h.006z"/><path fill="#f0f3fa" d="M11.67 14.583c-.02.053-.084.043-.105-.005a.35.35 0 0 1 0-.19a.06.06 0 0 1 .053-.059c.031 0 .053.021.058.053q.01.03.01.064v.068zm.594.339c-.022.053-.08.053-.106 0a.34.34 0 0 1 0-.19c.016-.053.074-.09.106-.027c.026.042.02.117.016.164a.2.2 0 0 1-.016.053"/></g></svg>