<svg xmlns="http://www.w3.org/2000/svg" viewBox="0 0 24 24"><path fill="#ff5757" d="M15.06 20.47c2.377 0 4.95-2.26 5.94-3.388c-1.08.318-3.504.969-4.802.969c-1.62 0-5.58-1.816-7.2-1.816c-1.619 0-2.847.847-3.657.604c-.81-.239 5.458-10.89 6.061-10.89c.599 0 2.848 5.082 4.198 7.02s1.35 2.419 1.08 2.419s-1.35-.243-1.89-.725c-.54-.487-2.7-4.6-3.51-4.6c-.65 0-2.435 3.71-3.24 5.569c.9-1.213 2.806-3.632 3.24-3.632c.54 0 1.62 2.663 2.16 3.87c.54 1.212 3.51 1.212 4.86.969c1.35-.239.54-1.694 0-2.42c-.54-.725-4.32-7.501-4.86-8.47s-.688-2.42-2.038-2.42s-4.711 4.84-5.791 7.259c-1.08 2.424-3.24 7.745-2.435 8.47c.815.73 1.837-.604 3.727-.604s5.188 1.816 8.152 1.816z"/></svg>