<svg xmlns="http://www.w3.org/2000/svg" viewBox="0 0 24 24"><g fill="none"><path fill="url(#SVGaRnpUbua)" d="M7.798 8.57c-1.594-2.397.535-4.711 1.8-5.57c-4.16.684-4.397 3.713-3.996 5.143C4.8 7.973 4.6 6.358 4.6 5.57c-1.758 3.256-.066 5.36 1.003 6.002A4.16 4.16 0 0 1 3 9.429c0 2.915 2.67 4.355 4.001 4.716c-.962 0-2.134-.288-2.602-.432c.483 2.057 3.806 3.291 5.4 3.646c-.273-.15-.952-.926-1.389-1.46c.453.467 1.337 1.002 1.79 1.244c-.144 0-.293.17-.478.39c-.324.381-.761.895-1.523.895c-.961 0-1.866-.714-2.2-1.07c.4 1.497.802 2.14 1.8 2.356c.802.17 1.666-.643 2.005-1.07c-.483 1.369-1.8 1.425-2.402 1.286c.129.211.638.643 1.595.643c.961 0 1.604-1.43 1.8-2.145A3.15 3.15 0 0 1 9.397 21h1.204c1.594-.345 1.466-2.145 1.198-2.998c.803 1.198.463 2.211.201 2.571c1.44-.689 1.131-2.006.802-2.571c.32.17.53.925.597 1.285c.319-1.028 0-1.717-.2-1.928c.642-.175 1.732-1.214 2.2-1.718a5.4 5.4 0 0 1-1.599 1.718c3.682 0 5.266-2.433 5.6-3.647c-1.44.515-2.334.505-2.602.433A5.22 5.22 0 0 0 21 9.429a3.17 3.17 0 0 1-2.602 2.144c2.725-1.887 1.676-4.783.802-6.002c.16 1.713-.602 2.572-.998 2.788c.638-3.945-2.402-5.215-4-5.359c3.517 2.571 2.663 4.927 1.8 5.786c1.28 3.6-.67 4.927-1.8 5.143c1.593-1.029 1.593-2.284 1.398-2.788c-.16 1.373-1.399 1.718-2 1.718c.642-1.543-.402-3.214-.998-3.857c.154-.175.596-.072.797 0c0-.175-.53-.216-.797-.216a1.96 1.96 0 0 1 1.198 0a2.32 2.32 0 0 0-1.8-.427c.638-.175 1.065-.072 1.198 0A1.73 1.73 0 0 0 12 7.927c-.638 0-1.466.57-1.8.859L10 8.57c.066.144.118.514-.201.859c-.319.344-.401.997-.401 1.285c0-.344.4-.427.601-.427l-.2.211c1.121-.514 1.532.504 1.6 1.075c0 1.029-.67 1.425-.998 1.497c-1.281-.17-2.001-1.358-2.202-1.93c-.257 1.404.438 2.232 1.029 2.602c-2.314-1.285-1.934-3.95-1.43-5.173M10.2 9.645c0-.144.16-.474.797-.643v.21z"/><path fill="url(#SVGvrWh1KBw)" d="m14.464 13.862l-.062.067c.396.216 1.476.642 2.597.642a4.1 4.1 0 0 0 2.402-.853c-1.44.514-2.335.499-2.602.427a5.14 5.14 0 0 0 3.646-2.757l.499-1.466l.04-.277c-1.46 3.162-4.062 3.8-5.574 3.692a2.8 2.8 0 0 1-.946.525"/><path fill="url(#SVGQInQkcWd)" d="M15.512 13.246c2.088 0 4.13-.946 5.339-2.926q.12-.437.149-.89a3.17 3.17 0 0 1-2.603 2.145c2.469-1.708 1.836-4.248 1.05-5.611c.293 1.846-.078 4.448-3.035 5.297a2.94 2.94 0 0 1-.9 1.985"/><path fill="url(#SVGwdVFKbxK)" d="M7.526 11.5c-3.091-.842-3.415-3.702-3.101-5.58c-1.466 3.056.149 5.03 1.172 5.653A4.14 4.14 0 0 1 3.144 9.7c.797 2.798 3.708 3.425 5.21 3.374c-.413-.44-.7-.984-.828-1.574"/><path fill="url(#SVG06ucBdLn)" d="M8.374 13.095c-3.24.102-4.705-1.862-5.194-3.343A3 3 0 0 1 3 9.428c0 2.916 2.67 4.356 4.001 4.716c-.962 0-2.134-.288-2.602-.432l.02.072a3.9 3.9 0 0 0 2.181.787c1.44 0 2.602-.427 2.998-.643c0 0-1.491-.89-.365-.185a3.6 3.6 0 0 1-.859-.648"/><path fill="url(#SVGB5YTvb5c)" d="M9.552 3.036C8.333 3.571 6.6 4.713 6.199 6.43a3.44 3.44 0 0 0 1.255 3.487a4.6 4.6 0 0 0 .066 1.579c-3.384-.988-3.476-3.95-2.962-5.842L4.6 5.57c0 .787.2 2.402.998 2.572c-.397-1.429-.155-4.458 4-5.142l-.051.036z"/><defs><linearGradient id="SVGaRnpUbua" x1="12" x2="12" y1="3" y2="21" gradientUnits="userSpaceOnUse"><stop stop-color="#ff680b"/><stop offset=".37" stop-color="#df0b1b"/><stop offset=".5" stop-color="#f9580e"/><stop offset=".71" stop-color="#e51e18"/><stop offset="1" stop-color="#db001d"/></linearGradient><linearGradient id="SVGvrWh1KBw" x1="10.65" x2="12.742" y1="15.514" y2="20.598" gradientUnits="userSpaceOnUse"><stop stop-color="#f34711"/><stop offset="1" stop-color="#fb5c0d"/></linearGradient><linearGradient id="SVGQInQkcWd" x1="11.823" x2="11.823" y1="13.158" y2="19.514" gradientUnits="userSpaceOnUse"><stop stop-color="#ed3414"/><stop offset="1" stop-color="#f9560e"/></linearGradient><linearGradient id="SVGwdVFKbxK" x1="12.862" x2="11.004" y1="15.599" y2="19.767" gradientUnits="userSpaceOnUse"><stop stop-color="#ef3913"/><stop offset="1" stop-color="#fa580e"/></linearGradient><linearGradient id="SVG06ucBdLn" x1="13.368" x2="10.983" y1="15.005" y2="20.566" gradientUnits="userSpaceOnUse"><stop stop-color="#f24311"/><stop offset="1" stop-color="#fb5c0d"/></linearGradient><linearGradient id="SVGB5YTvb5c" x1="6.966" x2="6.966" y1="3" y2="11.496" gradientUnits="userSpaceOnUse"><stop stop-color="#e21519"/><stop offset="1" stop-color="#f54a10"/></linearGradient></defs></g></svg>