<svg xmlns="http://www.w3.org/2000/svg" viewBox="0 0 24 24"><g fill="#460063" fill-rule="evenodd" clip-rule="evenodd"><path d="M14.648 8.166v5.68l-.043.011H14.6L9.793 7.451a.1.1 0 0 1-.016-.063A1.626 1.626 0 0 0 7.14 5.816a1.615 1.615 0 0 0-.174 2.276a.14.14 0 0 1 .031.09v7.645l-.015.047l-.106.149a1.61 1.61 0 0 0 1 2.52a1.6 1.6 0 0 0 1.742-.821a1.6 1.6 0 0 0-.222-1.842l-.016-.016c-.01-.01-.027-.027-.027-.037V10.93c0-.043.037-.043.059-.01l4.759 6.32c.058.08.09.17.122.265l.08.185a1.61 1.61 0 0 0 1.757.847a1.607 1.607 0 0 0 1.276-1.887a1.6 1.6 0 0 0-.365-.75a.13.13 0 0 1-.032-.084V8.182a.13.13 0 0 1 .032-.085a1.6 1.6 0 0 0 .386-1.207a1.619 1.619 0 0 0-2.873-.877a1.62 1.62 0 0 0 .067 2.116l.01.01c.011.006.022.017.022.027zm-5.38-1.128a1.08 1.08 0 1 1-2.16 0a1.08 1.08 0 0 1 2.16 0m6.544 1.08a1.08 1.08 0 1 0 .151-2.154a1.08 1.08 0 0 0-.15 2.154M9.27 16.96a1.08 1.08 0 1 1-2.161 0a1.08 1.08 0 0 1 2.16 0m6.543 1.074a1.078 1.078 0 0 0 .812-1.867a1.079 1.079 0 0 0-1.526 1.526c.186.2.442.322.714.341"/><path d="M11.72 3h.566A9.027 9.027 0 0 1 21 11.725v.56a9.016 9.016 0 0 1-8.677 8.71l-.048.005h-.556A9.027 9.027 0 0 1 3 12.291v-.582A8.984 8.984 0 0 1 11.72 3m8.56 9a8.28 8.28 0 1 1-16.561 0a8.28 8.28 0 0 1 16.56 0"/></g></svg>