<svg xmlns="http://www.w3.org/2000/svg" viewBox="0 0 24 24"><g fill="none"><path fill="#722d14" fill-rule="evenodd" d="m14.349 8.21l.51 1.095l-.46.385c-.28.285-.06.215-.3.445l-.56-.07c-.18-.365.18-.205-.35-.35c-.79-.025-1.24-.35-1.99-.115c-.18.06-.63.305-.76.35c-.37.115-.41-.035-.78.015l-.17.525c.22-.17.18-.13.32-.315l.41.11l-.01.085h.48c.34.16-.08.35.775-.2c.675.33 2.19-.075 2.235 1.09c.38 1.425.44-.385.41.95c.59 1.125.65-.96 0 .535c.12 0 .51.02.62-.02c.54-.2.27-.465.68-.475c-.04-.5 1.08-1.335 1.03-1.965c0-.13-.28-1.535-.44-1.99c-.89-.15-.08-.085-.77-.285c-.47-.13-.49-.19-.96-.11c.08.2.03.12.08.31" clip-rule="evenodd"/><path fill="#b99548" d="m14.71 17.465l-1.25-.276l-.24-.11l-.15-.06c.18-.47.44-.164.44-.74l-.69-.06c-.14.615-.06.485.19.87c-.14-.05-.17-.06-.32-.125l-.29-.18c.26-.11.05.13.23-.235c.14-.29.09-.375.09-.415c-.7-.27-.71.165-.51.68c-.39.15-.71.01-1.02-.01c.15-.434.17-.334.06-.78c-.63.185-.47.386-.28.86h-.31c-.03.225-.15.12.06.325c.84-.08 1.27-.25 2.11 0l.79.226c.37.31-.02.605-.15.75l-.22.4c.6.154 1.12.5 1.35 1.124l.14.12l.37.01l-.17.485c-.47.375-.73.255-1.03.4c-.25.13-.05-.005-.23.18c.4 0 .81.07 1.19-.09c.12-.05.62-.375.73-.48c.72-.7-.04-.89.04-1.85c.09-1.1.23-2.015.98-2.48c.27-.17.494-.304.484-.624c-.385-.175-.145-.155-.485.01c-.21.11-.13.19-.37.25c.03-.566.28-1.305.08-1.66c-.5-.01-.41.1-.46.56c-.17 1.365-.26.92-.28 2.74c-.32.15-.69.6-.88.184"/><path fill="#8f332c" d="M10.919 3.95c-.64-.375-1.49.105-2.33.135c-.24.45-.2.31-.5.565c-.17.15-.31.465-.46.3l-.14-.045c.06.37.13.605.15 1.05c.46-.15.15 0 .49-.265c.8-.635 1.52-.84 2.44-.415l.46.155l.07.03c-.11.14-.17.23-.28.405c.34.23.4.14.16.6c.11.14.05-.075.07.19c.01.19 0 0-.02.2c-.02.205-.04.165-.02.465l.2-.555c.12-.305.11-.13.19-.445l.16-.83c.35.1.73-.205.99.325c.76-.05.64-.435.85-.125c.51-.18 1.91-.3 2.14-.795c-1.42-1.225-1.79-.84-3.11-1.055l-.44-.04c-.24-.185-.08-.315-.56-.12c-.34.15-.23.18-.51.27"/><path fill="#573928" d="M10.91 20.85c0-.33-.05-.29-.23-.55c-.18-.266-.19-.05-.1-.43c-1.68-.28-1.44-1.576-.07-1.286l.16-.12c.44-.215.62-.18.71-.75c-.23-.12-1.79-.13-1.69-.315l-1.08.415c-.37-.465-.7-1.79-.81-2.5c-.12-.735-.04-.695-.38-.89l-.03.385c-.42.11-.04-.15-.38.225c.81.365.91 3.195.68 4.2c-.48 2.075 3.05 1.57 3.22 1.61z"/><path fill="#271914" d="M15.989 8.326c-.17.31.22.35-.21.25l.21 1.235l-.16.104c-.01.01-.04.03-.04.04l-.07.08l-.03.04l-.15.17l-.06.04l-.23.135c-.04-.8.07-.374-.24-.424l.01.585c.15 1.67.28 1.8.38 1.69s.17-.466.99-.23l.795.15c.57.04.08.04.16-.01l-.25-1.58c.04-.02.07-.06.08-.04l.48-.19c-.08-.375-.2-.346-.19-.65c.25-.05.04.05.13-.17c-.41-.366-.06-.185-.3-.84l-.585-.395l-.23.415v.05c0-.01 0 .03.01.04c0-.495.01-.475-.5-.495M7.639 7.7c-.01.34-.22.32-.43.55c-.49-.15-.37-.17-1.01-.3l.17.355c.07.24-.01 1.225-.26 1.185c-.06.25-.06.31-.19.505c.65.94.3 1.264.32 1.66c.14.13 1.31.22 1.58.22c.15-.96.26-.65.92-1.3c-.01-2.3.1-1.825-.44-2.75c.5.015.06.025.24-.08l-.3-.08c-.39.175-.09.14-.6.04z"/><path fill="#573928" d="M9.719 7.484c.29.25.21-.02.26.25c-.35.04-.82 1.05-1.19 1.39c.14-.325.22-.256-.28-.59c-.52.5-.35.425-.27.77c-.14.11-.08.06-.19-.06c.01.03.06.18.06.2l.01.064c.09.646-.16-.084.06.38c.32.69.15-.474.42.4l-.25.25c-.07.08-1 .525-1.11.86c-.05.16-.02.175-.05.355c-.27 0-.44.01-.58-.12c-.25.35-.29.365-.27.79c.15-.02.75-.284.95-.364l.22-.085c.34.214.76.57 1 .71c.1-.16.49-1.05.7-1.4c.22-.37.2-.18.23-.636c-.84.116-.3-.615-.22-.745l.16-.234c.37-.476-.12-.405.53-.68c-.41-.16-.01-.77.4-1.74c-.27.255-.31.235-.42.215c-.02 0-.07.04-.08.01s-.06 0-.09.01"/><path fill="#786757" d="m11.409 17.614l-.89.98l.36.7c-.16.315-.18.19-.3.585c-.09.385-.08.155.1.435c.17.255.23.225.23.54l.3-.03c.36-.345.26-.335.26-.64c.04-.6.14-.04.29-.75l.15.25c.17.28.24.3.23.56c.15.06.98.125 1.1.125c.38.01.35.12.75.07c.51-.06.64-.235.75-.6l-.14-.12c0 .01-.88-.11-1.26-.475l-.09-.65l.22-.4c-.57-.235.1-.135-1.24.14c.55-1.165-.28-.985-.82-.72"/><path fill="#372718" d="M9.69 17.409c-.2.375-.12.115-.47.415c.02 0 .78-.34 1.32.155c-.03-.255-.13-.25.06-.275c0 0 0 .02.12.09c.07.04.17.085.26.125l.29.14c.28-.06.17.12.24-.16l.12.07c.36-.03-.18-.04.32-.155c-.07.62.06-.01.11.325c.02.135 0 .175-.01.2c0 .005-.13.2-.15.265c1.34-.28.99-.645 1.57-.4c.14-.145.52-.44.15-.75l-.846-.345c-3.16-.415-1.19-.095-3.085.3"/><path fill="#ae2917" d="M13.179 7.535c.17.4.22.24.16.79c-.87.31-.72.325-1.23-.175c-.11.295-.01.1-.17.265c-.34.365-.87.415-1.13.16c-.2-.32-.01-.65.07-.94l-.44-.04c-.2.72-.26.76-.42 1.375c.64-.02.45-.19.71-.02c.58.375 1.49.73 2.29.315c.37-.3.64-.315 1.09-.435c.11-.475-.18-.87-.36-1.285l-.03-.165c-.63.015-.2-.14-.54.155"/><path fill="#eb8e73" d="M10.309 7.249c-.3.7-.66.985-.92 1.59l.52.15c-.65.275-.16.2-.53.68l-.16.235c-.08.14-.63.86.22.745l.05-.16l.17-.525c.38-.04.42.1.78-.02c.13-.04.58-.285.76-.345c.75-.235 1.2.08 1.99.12l-.4-.18l.22-.275c-.33.17-1.91-.07-2.29-.315c-.26-.17-.07 0-.71.02c.21-.79.33-.325.55-.545c-.28-.11-.42.2-.13-.83l.44.05l.13-.35c-.03-.295-.01-.25.02-.46c.02-.19.03-.01.02-.2c-.02-.265.04-.04-.07-.185l-.37.8z"/><path fill="#370b07" d="M11.408 6.3c1.22-.01.98.264 1.77 1.234c.34-.285-.08-.14.53-.155c-.09-.815-.81-.715.14-1.3c1.1-.67.62-.05 1.65.14l-.38-.475c-.31-.325-.75-.4-1.19-.295c-.28.07-.38.24-.27.365l-.24-.15c-.11-.815.06-.155-.72-.105c-.05-.11-.08-.5-.09-.535c-.14 0-.39.01-.61-.01c-.48-.06-.18-.02-.45-.135c-.33.365-.02.025-.19.44z"/><path fill="#b99548" d="M6.339 12.426c-.02-.435.02-.44.27-.79c.04-.335.12-.425 0-.72l-.31-.5l-.12-.18c-.09-.13-.1-.12-.17-.24c.13-.2.14-.155.2-.4c.26.035.09.035.43.125c-.03-.285-.16-.84-.08-1.06l.22-.235l-.41-.11c0 .675-.11.595-.4.99c-.47.64-.73 2.34-.08 2.915c.13.09.28.25.45.205"/><path fill="#463619" d="m12.129 20.235l-.66-.07l-.37.205c.17.1.13.18.12.435c.14.16-.34.12.39.1c.46-.01.12-.175.63.02c.44.17.5 0 1.43-.01c.19-.185-.02-.05.23-.175c.3-.16.56-.03 1.03-.405l.17-.485l-.37-.01c-.11.365-.26.285-.78.345c-.41.05-.34.04-.72.03c-.12 0-.95.09-1.1.02"/><path fill="#90150d" d="m13.419 5.659l.24.15c-.11-.13-.01-.3.27-.37a1.22 1.22 0 0 1 1.19.3l.38.47c.42.03.36.02.66.15c.23.1.26.11.415.415c.26-.19.065.05.15-.335a4 4 0 0 0-.595-1.395c-.16-.25-.15-.225-.4-.3l-.21.065c-.18.385-.37.175-.56.175c-.17 0-.33.01-.51.02c-.78.05-.54-.165-.63-.155c-.12.5.24.58-.4.81"/><path fill="#c79949" d="M17.348 12.18c.765.355 1.215-.255 1.145-1.1c-.03-.37-.54-1.125-.64-1.22c-.19-.19-.08-.17-.37-.14c-.01.305.11.265.19.65l-.48.19c-.01-.02-.04.02-.08.04l.24 1.58z"/><path fill="#b0b0ab" d="M10.62 3.19c-.25.78.14.3.27.82c.27-.09.2-.19.53-.33c.48-.205.32-.065.56.12l.45.04c.51.09 1.14.375 1.4.235c.13-.065-.03-.4.04-.61c-.23-.1-.18-.1-.39-.17c-.12-.04-.4-.1-.4-.1c-.33-.105-.05-.115-.63-.175L10.91 3c-.46.09-.21-.09-.29.19"/><path fill="#f1ce90" d="m13.009 9.255l-.22.275l.4.18c.53.14.18-.02.35.35l.56.065c.23-.225.02-.15.3-.445l.46-.385l-.51-1.1c-.19-.225-.25-.51-.61-.67c.18.415.47.81.36 1.285c-.46.14-.72.15-1.09.445"/><path fill="#b78837" d="M10.48 19.89c-.23-.03-.63 0-.84-.06l-.5-.25c-.49-.25.16.31-.17-.1l.66-.72c.39-.176.31-.166.28-.4l.31-.016c-.27-.66-.84-.125-1.08-.04c-.14.05-.92.1-.68.86c.13.425.47.75.88.89c.64.22 1.02.25 1.14-.165"/><path fill="#d8c688" d="M7.419 14.435c.34.205.16.175.28.905c.12.715.54 2.02.91 2.485l1.08-.415l.86-.18c-.08-.08-.04-.06-.17-.17a.7.7 0 0 0-.17-.085l-.34.2c-.3-.125-1.02.27-1.26.46c-.08-.45-.25-.4-.36-.84c-.07-.3-.08-.75-.1-1.065c-.03-.405-.14-.735-.15-1.09c-.01-.475.11-.62-.19-1.005c-.7.085-.35.365-.39.8"/><path fill="#e6c779" d="m10.48 19.89l.1-.02c.12-.4.14-.27.3-.585l-.36-.7l-.3-.25l-.31.01c.03.24.11.23-.28.405l-.66.735c.33.415-.32-.15.17.1l.5.245c.22.07.61.03.84.06"/><path fill="#e8d898" d="M14.589 19.72c-.23-.62-.74-.97-1.35-1.125l-.49.59l.18.385c.25.475.28.565 1.07.435c.52-.075.53-.115.59-.285"/><path fill="#d0534a" d="M10.109 3.546c-.25.235-.29.375-.65.4l-.47.075c-.22.03-.15 0-.4.065c.22.19.27-.295.14.36c-.03.02-.16.065-.17.085c-.24.21-.04-.115-.18.24l1.63-.04l-.06-.305c-.05-.45-.11-.08.06-.385l.28.15l.01-.045c.61-.485.21-.295.4.3c0-.12-.06-.12.19-.06l.03-.415c-.18-.675-.32-.14-.3-.76c.13-.23.1-.03-.11-.16c-.23.16-.05-.04-.26.225c-.1.11-.09.12-.14.27"/><path fill="#caa659" d="M6.608 6.664c-.24.16-.08.02-.25.24c-.01.01-.17.335-.18.335c-.13.375-.1.4.02.71c.64.14.51.325 1 .475l.25-.255l.13-.19c.01-.03.06-.11.06-.275c-.18-.15-.38-.22-.52-.29c.12-.44.35-.365.28-.76c-.06-.295.03-.05-.13-.225c-.12.175-.06.155-.16.305c-.12.17-.04.07-.19.2l-.41.365c.27-.385.16-.22.1-.635"/><path fill="#90746c" d="M8.549 7.749c-.18.12.26.1-.24.08c.04.28.12.29.09.555c0 .02-.05.09-.07.12c.1-.535.07-.415-.43-.315c.12.35.05.105.18.245l.18.19c-.06.365-.08.265-.21.63c.11.12.05.17.19.06c-.08-.35-.25-.265.27-.77c.5.325.42.265.28.59c.37-.35.84-1.36 1.19-1.4c.01-.425-.06-.2-.26-.25c-.87.475-.6.09-1.17.27z"/><path fill="#d8b976" d="m16.733 8.316l.58.4c.23.65-.11.47.3.835c.07-.225.03-1.115-.01-1.43c-.07-.465-.46-.78-.49-1.15c-.34.18-.08-.105-.14.19c-.11.495.23.465-.295.86l.05.3z"/><path fill="#b5ac93" d="m13.74 3.75l.1.386c.43.35 1.22.28 1.32.685h.35l.21-.06l-.03-.27a1.9 1.9 0 0 1-.86-.54c-.32-.31.31-.09-.6-.365l-.18-.06l-.22-.07l-.09.3z"/><path fill="#494329" d="M14.709 17.465c0-.2.07-.285.1-.64c-.45-.03-.25.13-.4-.3c-.46.15-.16-.1-.42.24l-.49-.485c0 .575-.26.27-.44.74l.15.06l.24.11z"/><path fill="#eceee8" d="M7.629 4.95c.15.165.29-.15.46-.3c.29-.255.26-.11.5-.565c.25-.075.19-.035.4-.065l.47-.07c.35-.04.39-.17.65-.405c.17-.23.08-.03.14-.385c-.68.185-.54.165-.78.7c-.02-.17.03-.25.09-.425a3.05 3.05 0 0 0-1.93 1.51z"/><path fill="#e6c779" d="m11.229 11l.57.024c.04-.475.01-.76-.34-.93c-.53.35-.45.425-.51.7c.03.02.06.02.07.07c0-.01.21.14.21.14zm-.855 5.28l-.57-.02c-.04.474-.01.76.34.93c.535-.35.45-.426.515-.7c-.03-.02-.06-.02-.07-.07c0 .01-.215-.14-.215-.14m-.965.41l-.57-.02c-.04.474-.01.76.34.924c.53-.345.45-.425.51-.7c-.03-.02-.06-.02-.07-.07c0 .01-.21-.135-.21-.135m3.275-.64l-.57-.016c-.04.475-.01.76.34.93c.53-.35.45-.425.51-.7c-.03-.025-.06-.025-.07-.075c0 .01-.21-.135-.21-.135zm1.845.59l-.57-.021c-.04.475-.01.765.34.93c.53-.345.45-.425.51-.7c-.03-.02-.06-.02-.07-.07c0 .01-.21-.14-.21-.14"/><path fill="#e8d589" d="M10.61 10.95c.16-.23.2-.355.08-.645h-.48l-.04.665zm3.44.35c.16-.225.2-.35.08-.64h-.48l-.04.665l.44-.02zm.61.885c.16-.225.2-.355.08-.64h-.48l-.04.66z"/><path fill="#8f332c" d="m11.32 16.726l.58-.12c.03-.56-.02-.49-.59-.57z"/><path fill="#eceee8" d="m11.47 20.175l.66.07c.01-.26-.06-.28-.23-.565l-.15-.25c-.15.705-.25.13-.28.745"/><path fill="#d8c688" d="M12.28 10.056c-.19.25-.18.305-.23.72l.54-.05c.06-.395.1-.66-.31-.67m-2.85.305c-.19.25-.18.31-.23.725l.54-.05c.06-.4.1-.665-.31-.675m3.645-.16c-.19.25-.18.305-.23.72l.54-.05c.06-.395.1-.66-.31-.67"/></g></svg>