<svg xmlns="http://www.w3.org/2000/svg" viewBox="0 0 24 24"><g fill="none"><path fill="#7e4778" d="m10.751 9.89l-2.5-6.03l4 2.03z"/><path fill="#9b1b2e" d="M10.75 9.89v-3.5l1.5-.5z"/><path fill="#d3302d" d="m10.751 6.39l-2.5-2.53l4 2.03z"/><path fill="#9b2026" d="M21 8.89h-4.25l2 3.5z"/><path fill="#bd282e" d="M16.75 8.89L13 10.39l5.75 2z"/><path fill="#dd2a2d" d="m14.707 5.39l-1.707 5l3.75-1.5z"/><path fill="#bc2328" d="m19 4.64l-2.25 4.25H21z"/><path fill="#ee4642" d="m14.707 5.39l2.044 3.5L19 4.64z"/><path fill="#d5302d" d="m13.251 19.64l-2.75-7.75l6.75 2.5z"/><path fill="#9d1c21" d="M13.249 19.64v-5.25h4z"/><path fill="#bd2c33" d="m13.251 14.39l-2.75-2.5l6.75 2.5z"/><path fill="#797cb3" d="M6 4.39L3 8.14l3 7l5.25 5z"/><path fill="#9a1c31" d="M8.5 11.89L6 15.14l5.25 5z"/><path fill="#7f4778" d="m6 10.14l-3-2l3 7l2.5-3.25z"/></g></svg>