<svg xmlns="http://www.w3.org/2000/svg" viewBox="0 0 24 24"><g fill="none"><path fill="url(#SVGi27jWpfb)" d="M8.848 16.455V12.99l-2.8-2.809L8.57 7.602a.135.135 0 0 1 .185-.004l.994.743v9.05a.13.13 0 0 0 .045.1l1.53 1.674c.082.081.226.018.226-.095V6.846c-.054-1.642-1.018-2.048-1.562-2.048H8.196c-.487-.018-.964.347-1.144.532L3.348 9.052a1.75 1.75 0 0 0 0 2.093l5.221 5.4c.081.086.28.032.28-.09"/><path fill="#27b4fb" d="M15.194 16.455v-3.466l2.755-2.808l-2.52-2.58a.135.135 0 0 0-.185-.004l-.995.743v9.002a.14.14 0 0 1-.045.099l-1.53 1.723c-.09.081-.23.023-.23-.094V5.986l.878-1.188h3.052l4.275 4.253c.635.869.266 1.755 0 2.093l-5.22 5.4c-.082.086-.23.028-.23-.09z"/><path fill="url(#SVGdGriCbzn)" d="m3.028 9.768l3.272.666l-.252-.252l1.337-1.368L5.54 6.852L3.348 9.057c-.18.239-.275.477-.32.711"/><path fill="url(#SVGnn7fjeGA)" d="m5.536 6.85l1.85 1.963l1.183-1.21a.135.135 0 0 1 .185-.005l.994.743v2.799l1.8.329V6.846c-.053-1.642-1.017-2.048-1.561-2.048H8.196c-.486-.018-.964.347-1.144.532z"/><path fill="#40b7f9" d="m11.549 11.468l-1.8-.333v.405l1.8 1.773z"/><path fill="url(#SVGeZQVdbdN)" d="m11.549 13.314l-1.8-1.778v5.874c0 .036.018.072.045.094l1.52 1.66c.086.082.235.019.235-.094v-5.765z"/><path fill="#2fadf7" d="M12.448 14.024v-2.35l1.8.45v3.745z"/><path fill="url(#SVGeU44cdOc)" d="m14.248 12.125l-1.8-.45v-5.68l.873-1.197h3.052l4.276 4.253c.634.869.265 1.755 0 2.093l-1.922 1.99l-3.047-.685l2.268-2.273l-2.52-2.579a.135.135 0 0 0-.185-.004l-.995.747z"/><path fill="#2eaef7" d="M15.15 16.454c0 .117.197.176.278.09l3.304-3.416l-3.047-.675l-.536.527z"/><path fill="#369bf3" d="M7.317 8.88L5.472 6.912l.14-.144l1.845 1.966l-.135.144zm-.886 1.7l-3.42-.71l.035-.198l3.155.661zm5.117 1.014l-1.8-.379V11l1.8.392zm0 2.002l-1.8-2.048v-.274l1.8 2.061v.266zm2.7-1.337l-1.8-.517v-.207l1.8.522zm4.38.973l-2.993-.689l.166-.18l2.989.698zm-4.38 2.907l-1.8-2.115v-.27l1.8 2.106z"/><defs><linearGradient id="SVGi27jWpfb" x1="6.794" x2="8.387" y1="10.272" y2="17.183" gradientUnits="userSpaceOnUse"><stop stop-color="#5dd8fa"/><stop offset=".39" stop-color="#39b3f6"/><stop offset="1" stop-color="#29b6fe"/></linearGradient><linearGradient id="SVGdGriCbzn" x1="17.485" x2="9.91" y1="9.214" y2="17.924" gradientUnits="userSpaceOnUse"><stop offset=".04" stop-color="#85aeec"/><stop offset=".48" stop-color="#7c98ec"/><stop offset="1" stop-color="#569aed"/></linearGradient><linearGradient id="SVGnn7fjeGA" x1="12" x2="12.421" y1="4.799" y2="17.582" gradientUnits="userSpaceOnUse"><stop stop-color="#b86bf1"/><stop offset=".42" stop-color="#9b73ed"/><stop offset="1" stop-color="#459ff7"/></linearGradient><linearGradient id="SVGeZQVdbdN" x1="12" x2="12" y1="4.798" y2="19.201" gradientUnits="userSpaceOnUse"><stop stop-color="#3dbef8"/><stop offset="1" stop-color="#1eadfb"/></linearGradient><linearGradient id="SVGeU44cdOc" x1="12" x2="9.646" y1="4.797" y2="17.666" gradientUnits="userSpaceOnUse"><stop stop-color="#b56ded"/><stop offset=".67" stop-color="#5396f1"/><stop offset="1" stop-color="#3da3f2"/></linearGradient></defs></g></svg>