<svg xmlns="http://www.w3.org/2000/svg" viewBox="0 0 24 24"><path d="M11.91 3.011a.52.52 0 0 0-.4.37a.7.7 0 0 0 0 .25a.45.45 0 0 0 .135.225c.114.115.215.15.38.145a.5.5 0 0 0 .135-.02a.51.51 0 0 0 .284-.71a.51.51 0 0 0-.38-.26c-.08-.015-.08-.015-.154 0m-7.54 4a.54.54 0 0 0-.22.135c-.1.09-.14.195-.15.33c0 .095.01.155.05.25c.06.12.2.235.335.265c.06.015.185.015.24 0a.53.53 0 0 0 .355-.35a.51.51 0 0 0-.36-.63a.7.7 0 0 0-.25 0m15.004 0a.5.5 0 0 0-.23.845c.1.1.215.145.35.145a.45.45 0 0 0 .23-.05a.504.504 0 0 0-.095-.935a.8.8 0 0 0-.25-.005zM9.5 10.25V11h1.015l.065-.75h2.835l.07.75h1.014V9.5h-5zm1 1.75v.5h3v-1h-3zm-1 1.749v.75h5V13h-1l-.085.75h-2.83l-.07-.75H9.5zm-5.085 2.255A.514.514 0 0 0 4 16.54a.48.48 0 0 0 .15.32c.07.065.165.115.25.135c.07.01.2 0 .25-.015a.51.51 0 0 0 .335-.35c.02-.07.02-.2 0-.275a.505.505 0 0 0-.57-.35M19.434 16a.51.51 0 0 0-.435.5a.5.5 0 1 0 .99-.1a.52.52 0 0 0-.555-.4m-7.54 4.01a.52.52 0 0 0-.37.32a.7.7 0 0 0-.02.274a.505.505 0 0 0 .985.005c.02-.07.01-.2-.014-.275a.514.514 0 0 0-.58-.325M6 9l-1-.75v3.25l1-.75zm2.25-3L5.5 7.75l1 .75l1.75-1.25l2 1.25l1.75-1l1.5.75V7L12 6.25l-1.75 1z"/><path d="M11.75 4.25L9 5.75l1.25.5l1.5-.75zm.5 1.25V4.25L15 5.75v2l2 1.249v2l-1 .5v-1.75l-2-1.25v-2z"/><path d="M15.999 7.75v-1.5l2.5 1.75l-1.25.5zm3 .75l-1 .5v2l-2 1v2.25l-1.5.75l1 .75l1.5-1v-2l2-1z"/><path d="M18.999 15.5v-3l-1 .5v2zm-.5.5l-1-.5l-1.75 1l-2-1l-1.75 1l-1.5-1v1.25l1.5.999l1.75-1l2 1z"/><path d="m15 18.249l-2.75 1.25l.25-1.5l1.25-.5zm-3.5 0v1.25l-2.5-1.5v-2l-2-1.25v-1.5l1-.75V14l2 1.25v2z"/><path d="M8 16.25v1.25L5.5 16l1-.5zM6 15l-1 .5v-3.25L7 11V9l1.5-.75l1 .75l-1.5.75v1.75l-2 1.25z"/></svg>