<svg xmlns="http://www.w3.org/2000/svg" viewBox="0 0 24 24"><path fill="#496ddb" fill-rule="evenodd" d="M19.898 10.875h-2.025c0-1.153-.292-2.396-.832-3.375h2.638c.338 0 .889.011 1.069-.264c.894-1.446-1.35-1.857-2.217-1.88l-.292-.005c-1.94-.045-4.404-.101-6.283-.101c-1.665 0-5.057.045-6.857.135c-.726.04-2.059.45-2.014 1.35c.028.562.326.765.855.765h2.998c-.427.956-.9 2.34-.9 3.375H4.03c-.484 0-.917.028-.945.613v1.013c.028.579.461.624.945.624h2.014c0 1.097.14 2.363.551 3.375H3.94c-.315 0-.619.096-.816.394c-.298.478-.039 1.412.552 1.513c.545.197 1.125.225 1.715.242c2.003.045 4.596.101 6.565.101c1.67 0 4.348-.04 6.756-.084l.224-.012c.518-.017 1.154-.045 1.553-.337c.495-.32.67-1.17.349-1.67c-.158-.226-.36-.198-.59-.17c-.08.012-.158.023-.243.023h-2.683c.405-.894.551-2.408.551-3.375h2.025c.462 0 .906-.028.934-.613v-1.013c-.022-.46-.506-.624-.934-.624M11.967 7.5c-1.755.045-3.24.726-3.324 2.891c-.034.383-.034.484.208.484h6.131c.422 0 .422-.034.371-.484c-.095-2.222-1.63-2.79-3.386-2.891m3.167 5.625H9.019c-.421 0-.421.034-.37.484c.09 2.295 1.63 2.79 3.357 2.891c1.75-.045 3.263-.726 3.353-2.891c.034-.383.034-.467-.225-.484" clip-rule="evenodd"/></svg>