<svg xmlns="http://www.w3.org/2000/svg" viewBox="0 0 24 24"><g fill="none"><path fill="#98f7d2" d="M20.356 10.318a5.7 5.7 0 0 0-.626-1.679c-.607-1.037-1.931-2.547-3.588-3.735c0 0-1.251-.83-1.84-1.113c-2.152-1.02-4.563-1.227-6.624.64c-3.46 3.152-5.189 7.547-3.46 11.924c.038.095.995 2.773 6.736 4.566c2.52.075 3.992-.076 5.612-1.038c2.116-1.245 3.349-3.509 3.79-5.81c.129-.699.147-3.057 0-3.755"/><path fill="#aff3f9" d="M13.54 4.145v4.148l-4.43.282l-1.748 2.083l-.688 3.176l1.87 2.965l2.366 1.042h3.212l2.63-.512V5.376s-1.859-1.49-3.073-1.849"/><path fill="#2f3d86" d="M19.215 14.544c-.662-.037-.294-1.113-.588-2.34c-.35-1.357.165-2.3.846-2.263c.32.052.624.182.883.377a5.7 5.7 0 0 0-.626-1.679c-.607-1.037-1.844-2.547-3.5-3.735v11.241c0 .495-.5 1.016-.963 1.122a1.124 1.124 0 0 1-1.259-.631a4.3 4.3 0 0 1-2.182.663c-2.38.066-4.589-1.682-4.585-4.268s2.078-4.537 4.456-4.543c.773-.002 1.22.118 1.889.515V4.636c-.004-.169.048-.337.119-.491s.173-.288.303-.395c-2.153-1.019-4.269-1.185-6.33.682c-3.46 3.151-5.189 7.547-3.46 11.923c.038.095.074.19.111.264a1 1 0 0 1 .202-.283c.902-.943 1.895.982 4.012 2.094c1.343.698 2.116 1.624 2.41 2.49c1.97.247 3.993-.075 5.613-1.037c2.116-1.245 3.349-3.508 3.79-5.81c-.315.283-.718.45-1.141.47m-7.21-8.941c.496-.02.956.584.974.867s-.423.17-.901.34c-.534.189-.92.019-.939-.265c-.018-.282.348-.924.865-.942"/><path fill="#2f3d86" d="M10.93 14.466c1.071.578 2.364.35 2.604-.944c.13-.753.055-1.925-.646-2.293c-2.327-1.26-4.284 1.978-1.957 3.237"/></g></svg>