<svg xmlns="http://www.w3.org/2000/svg" viewBox="0 0 24 24"><g fill="none"><path fill="#0e134d" d="M12 21a9 9 0 1 0 0-18a9 9 0 0 0 0 18"/><path fill="#0e376b" d="M12 19.875a7.875 7.875 0 1 0 0-15.75a7.875 7.875 0 0 0 0 15.75"/><path fill="#0e608c" d="M12 18.187a6.187 6.187 0 1 0 0-12.375a6.187 6.187 0 0 0 0 12.375"/><path fill="#fff" d="m9.188 11.42l-.574-1.828l-.512.562l.59 1.845z"/><path fill="#a5bcca" d="m6.87 9.188l-.495.596l1.727.371l.506-.563l-1.744-.405z"/><path fill="#fff" d="m12 10.86l-.573-1.829l-.512.563l.59 1.845z"/><path fill="#a5bcca" d="m9.682 8.625l-.495.596l1.727.371l.507-.562l-1.744-.405z"/><path fill="#fff" d="m15.375 10.314l-.573-1.845l-.512.568l.59 1.856z"/><path fill="#a5bcca" d="m13.057 8.063l-.495.601l1.727.372l.507-.563l-1.744-.41z"/><path fill="#fff" d="m14.812 13.672l-.58-1.828l-.511.562l.596 1.845z"/><path fill="#a5bcca" d="m12.478 11.438l-.5.596l1.743.371l.506-.562z"/><path fill="#fff" d="m14.813 17.045l-.574-1.828l-.512.562l.59 1.845z"/><path fill="#a5bcca" d="m12.495 14.813l-.495.596l1.727.37l.506-.562l-1.744-.405z"/></g></svg>