<svg xmlns="http://www.w3.org/2000/svg" viewBox="0 0 24 24"><g fill="none"><path fill="url(#SVGniHVhbXi)" d="M11.998 8.63a1.687 1.687 0 1 0 0-3.373a1.687 1.687 0 0 0 0 3.374"/><path fill="url(#SVGtv4erdZq)" d="M11.997 8.069a1.125 1.125 0 1 0 0-2.25a1.125 1.125 0 0 0 0 2.25"/><path fill="url(#SVG70WDt6Ih)" d="m3.474 7.835l-.033.045a2.075 2.075 0 0 0 .517 3.014l4.346 2.946a2.41 2.41 0 0 0 3.222-.483l.033-.045a2.073 2.073 0 0 0-.517-3.014L6.696 7.352a2.41 2.41 0 0 0-3.222.483"/><path fill="url(#SVGMmBbCu9a)" d="M15.27 21c-.253 0-.495-.067-.703-.185a1.3 1.3 0 0 1-.49-.506l-2.023-3.88a1.95 1.95 0 0 1 .017-1.844l4.604-8.422c-2.294 4.194-2.474 6.325-.9 9.339l1.39 2.653c.691 1.31-.338 2.845-1.895 2.845"/><path fill="url(#SVGbHotY8Xr)" d="M20.993 8.393a.23.23 0 0 1-.123.202a.26.26 0 0 1-.253-.005l-.776-.523l-4.06 7.427c-1.574-3.013-1.405-5.144.894-9.339l.079-.135l-.664-.438a.22.22 0 0 1 .026-.254a.2.2 0 0 1 .07-.055l4.352-2.244a.25.25 0 0 1 .236 0c.079.045.22.113.22.197z"/><defs><linearGradient id="SVGniHVhbXi" x1="12" x2="12" y1="3.002" y2="21" gradientUnits="userSpaceOnUse"><stop stop-color="#eb508f"/><stop offset="1" stop-color="#fbab1f"/></linearGradient><linearGradient id="SVGtv4erdZq" x1="11.999" x2="11.999" y1="3.002" y2="21" gradientUnits="userSpaceOnUse"><stop stop-color="#ce427f"/><stop offset="1" stop-color="#642f1e"/></linearGradient><linearGradient id="SVG70WDt6Ih" x1="4.685" x2="20.898" y1="5.077" y2="15.621" gradientUnits="userSpaceOnUse"><stop stop-color="#e1479a"/><stop offset="1" stop-color="#54459c"/></linearGradient><linearGradient id="SVGMmBbCu9a" x1="7.191" x2="9.043" y1="11.111" y2="20.995" gradientUnits="userSpaceOnUse"><stop stop-color="#fcb415"/><stop offset="1" stop-color="#f3785f"/></linearGradient><linearGradient id="SVGbHotY8Xr" x1="20.15" x2="14.809" y1="3.85" y2="15.376" gradientUnits="userSpaceOnUse"><stop stop-color="#e0479a"/><stop offset="1" stop-color="#5a459c"/></linearGradient></defs></g></svg>