<svg xmlns="http://www.w3.org/2000/svg" viewBox="0 0 24 24"><g fill="none"><path fill="url(#tokenBrandedB2m0)" d="M6.292 3.813a9.97 9.97 0 0 1 8.802-1.317a9.965 9.965 0 0 1 6.41 12.595c-.386 1.191-.99 2.3-1.782 3.27l-.94 2.745c-.036.118-.136.135-.212.053l-.918-.923a9.92 9.92 0 0 1-9.102 1.129A9.947 9.947 0 0 1 3.764 6.359a1.811 1.811 0 0 1 2.522-2.546zm12.977 13.73a9.3 9.3 0 0 0 1.423-2.728a9.1 9.1 0 0 0-5.727-11.46l-.13-.042a9.14 9.14 0 0 0-7.978 1.153a1.823 1.823 0 0 1-2.44 2.452a9.097 9.097 0 0 0 4.762 13.759a9.05 9.05 0 0 0 7.862-1.058l-.835-.841c-.077-.083-.059-.177.053-.212zm-4.41-6.068a9 9 0 0 1-1.417 1.67l-1.764 1.799h3.858v1.764H8.479v-1.529l3.035-2.763c.588-.547.987-.988 1.234-1.318q.378-.493.377-.952c0-.306-.112-.559-.324-.765a1.15 1.15 0 0 0-.823-.317q-.933 0-1.752 1.235l-1.747-.965q.68-1.007 1.5-1.51c.547-.354 1.235-.518 2.081-.518c.841 0 1.588.253 2.223.758a2.47 2.47 0 0 1 .959 2.058c0 .47-.124.924-.383 1.359z"/><defs><linearGradient id="tokenBrandedB2m0" x1="5.393" x2="16.809" y1="4.328" y2="20.93" gradientUnits="userSpaceOnUse"><stop stop-color="#0B569F"/><stop offset="1" stop-color="#4596F2"/></linearGradient></defs></g></svg>