<svg xmlns="http://www.w3.org/2000/svg" viewBox="0 0 24 24"><g fill="none"><path fill="#000" fill-rule="evenodd" d="M3 14.414v-.743c0-.407.434-.72.786-.72c.282 0 .49.094.556.14l.125-.093a.45.45 0 0 1 .29-.411c-.493-.454-.536-1.237-.493-1.57c0-1.631 1.299-1.76 1.557-1.76c.204 0 .442.086.536.129c.024-.035.302-.05.556.18c.25.235.352.509.352.963c0 .364-.235.516-.352.547c.32.086.395.313.391.415l.118-1.209a1.3 1.3 0 0 1-.118-.422c-.336-.533-1.037-1.64-1.115-1.804c-.078-.169-.031-.259 0-.282a.27.27 0 0 1-.031-.196c.02-.078.129-.082.184-.078l2.864 1.307l.579.912c.528-.016.697.309.712.47l.078.093l.255-.54l-.028-.117c-.02-.067.032-.352.43-.352c.318 0 .517.176.576.266l.407.669c.063-.392.462-.517.657-.532l.446-.806c.841-.403 2.54-1.221 2.602-1.256c.079-.047.2-.06.263 0c.05.046.02.195 0 .258c.05.015.039.129.027.188l-.826 1.616c.094.101.157.297.172.383v.407c0 .176-.148.32-.222.368c.109.063.344.372.344.822c0 .36-.114.66-.169.763c.071-.004.263.043.353.066c-.028-.059-.024-.274-.02-.372v-1.968c-.094-.172-.062-.309-.035-.352l-.027-.172c0-.211.226-.282.34-.29c.536 0 .712.485.736.728v.626l.633-.129v-.43c-.16-.118-.14-.313-.11-.392c-.117-.324.157-.458.314-.481c.665 0 .9.536.927.806v.908c0 .556.055 1.002.082 1.154c0 .329-.054.458-.078.485c.11.024.415.047.732-.039c.313-.086.665-.133.798-.145c.783 0 .88.548.837.822c0 .458-.477.49-.715.45v1.15c0 .54-.317.607-.478.572c-.5 0-.587-.47-.571-.705v-.958c-.391 0-.567-.121-.607-.18v.876c0 .838-.743.994-1.115.967c-1.08 0-1.264-.861-1.217-1.295c-.43.547-.99.524-1.217.442v.227l.783.657v.462l-.223.297a.8.8 0 0 1-.262.274c-.118.055-.25-.012-.298-.05l-1.181-1.057c-.008.023-.083.078-.353.078c-.266 0-.414-.223-.457-.333c-.216.33-.372.282-.529.235c-.054-.011-.11-.027-.16-.027c-.094 0-.18.015-.282.031a2.7 2.7 0 0 1-.52.051a.6.6 0 0 1-.536-.29c0 .051-.102.25-.305.25a.4.4 0 0 1-.141-.015c-.04-.011-.082-.027-.282-.027c-.184 0-.297.023-.403.043c-.094.02-.184.039-.313.039c-.227 0-.356-.078-.391-.117l-1.096 1.052h-.145c-.297 0-.407-.156-.422-.23c-.24-.142-.184-.353-.13-.435c-.093-.098-.039-.247 0-.31a1.2 1.2 0 0 0-.665-.003a1.3 1.3 0 0 1-.36.04c-.36-.013-.653-.26-.653-.815c0-.446.031-.935.047-1.123c-.04.125-.2.2-.274.223v.157c0 .101-.102.156-.149.172v.125a.15.15 0 0 1 .149.11v.626a.21.21 0 0 1-.149.203h-.99l-.058-.078c-.133.11-.364.137-.462.14a.84.84 0 0 1-.861-.73m3.584-3.353a.4.4 0 0 1-.235-.176v-.008c-.078-.137-.215-.4-.453-.4c-.243 0-.403.243-.403.588c0 .336.14.61.418.61c.223 0 .329-.129.352-.192c0-.14.06-.422.321-.422m.728.872a1.4 1.4 0 0 1-.696.783c.05.04.148.243.148.7v.736c.078-.027.298-.09.575-.09c.274 0 .439.176.486.266l.09-1.068c-.07-.078-.188-.262-.09-.38c-.173-.074-.513-.368-.513-.947m1.201-.939l.141.079c.051.219.168.316.22.34l-.36.094zm3.878 3.088l-.423-.42l.024.603c.02-.07.129-.203.399-.184m.657-1.135l-.281-.235c.133-.11.14-.4.129-.528l.223.317c-.184.078-.125.328-.07.446m3.85-1.057v.638c.13.086.384.34.384.689v1.048c0 .04.024.126.133.126a.21.21 0 0 0 .196-.126v-.958l-.133-.266v-.325l.062-.188a1.7 1.7 0 0 1-.125-.634H16.9zm-6.381 2.191l.422-.418l-.023.602c-.024-.07-.13-.203-.4-.184" clip-rule="evenodd"/><path fill="#40160e" d="M3.845 14.724c.396 0 .716-.334.716-.747s-.32-.748-.716-.748s-.716.335-.716.748s.32.747.716.747"/><path fill="#fff" d="m8.418 9.822l-2.12-2.133l2.829 1.28z"/><path fill="url(#SVGGuS8beAF)" d="m9.507 10.647l-1.088-.833l.677-.845l.876 1.244z"/><path fill="url(#SVGSrL800Yc)" d="M7.868 10.206L6.31 7.682l2.102 2.132l1.084.834l-.321.235z"/><path fill="url(#SVGG52IqdSI)" d="m13.47 8.98l-.563.977l.156.153l.634-.372l.478-.39z"/><path fill="#454646" d="m14.175 9.32l-.063.117l.896.376l1.026-2.066l-1.644.986z"/><path fill="#594f46" d="m14.48 10.38l-.344.176a1 1 0 0 1-.18-.195c.22-.196.442-.07.524.02"/><path fill="url(#SVG6a0m1yhT)" d="m14.179 9.348l-.713-.36l2.571-1.245l-1.404 1.221l-.165-.23l.078.293z"/><path fill="url(#SVGOE7didUV)" d="M7.566 15.48v.168l.184.239l.309.058l4.958-4.844a1.5 1.5 0 0 0-.556-.418l-4.895 4.8z"/><path fill="url(#SVG55HjUbmn)" d="m15.138 15.98l.168-.012l.223-.207l.039-.313l-5.408-4.918c-.17.163-.298.364-.375.587l5.349 4.867z"/><path fill="url(#SVGJeDC9bAI)" d="M8.885 10.627c-.14.078-.055.274-.05.294c.023.043.117.129.34.11c.274-.056.696-.384.872-.545a1.96 1.96 0 0 1-.849.61c-.016.142.11.232.172.259l.325-.117a1.2 1.2 0 0 1-.278.117c.04 0 .13.008.196 0c.07-.012.125-.098.14-.137c.228-.18.69-.567.725-.673c.031-.11-.082-.215-.145-.254a1 1 0 0 0-.059-.227c-.113-.18-.415-.192-.555-.173l.172.22c-.11.093-.376.313-.564.395c-.235.105-.297.043-.442.117z"/><path fill="url(#SVGz7DyIdqq)" d="M12.336 10.283c.04-.102.145-.313.262-.368c.145-.062.258-.062.634-.031l.086.955l-.184-.157c-.129-.152-.442-.454-.638-.462l-.156.063zm-.082.415c-.016-.086-.024-.274.05-.353c.087-.097.18-.113.267-.082c.066.024.41.321.575.466l.297.454l-.297.145l-.305-.051l.133-.094l.129.094a1.8 1.8 0 0 0-.638-.58c-.04-.034-.117-.09-.114-.058l.028.09z"/><path fill="#000" d="M13.35 15.273c.281.133.715-.263.895-.58v-1.428l-.262-.145l-.775-.277h-.21v1.592c0 .403-.04.38-.087.419c.027.082.157.286.438.419"/><path fill="#42120c" d="M4.47 13.645v-.208l.353-.504h.853c.016.332-.203.367-.313.344v.368h-.172v.61l.168.235v.156h-.888v-.156l.145-.223v-.626H4.47z"/><path fill="#b15a2a" d="M4.48 13.183v.27h.136v.814l-.137.05v.18h.885v-.18l-.16-.05v-.814h.16v-.274h-.16v-.121c0 .02.05.066.222.066a.26.26 0 0 0 .258-.203c0-.274-.27-.337-.403-.333c-.57 0-.68.395-.665.595z"/><path fill="url(#SVGLu8JSbnL)" d="M4.577 13.217v.145h.149v.95l-.149.024v.059h.697v-.059l-.176-.023v-.951h.176v-.145h-.176v-.383c0-.09.078-.106.117-.102v-.067c-.485.04-.528.384-.49.552z"/><path fill="url(#SVGa4HRIetW)" d="M5.277 12.79v-.125c.235 0 .302.126.302.184c0 .055-.07.137-.165.137c-.094 0-.16-.039-.16-.082c0-.04.016-.09.023-.117z"/><path fill="#b15a2a" fill-rule="evenodd" d="M3.845 14.572c.395 0 .716-.337.716-.751c0-.411-.32-.748-.716-.748c-.391 0-.716.337-.716.748c0 .414.321.75.716.75m0-.34c.07 0 .13-.184.13-.411c0-.223-.06-.407-.13-.407s-.125.184-.125.407c0 .227.055.41.125.41" clip-rule="evenodd"/><path fill="url(#SVGEQqbXdpe)" fill-rule="evenodd" d="M3.845 14.482c.348 0 .63-.298.63-.662s-.282-.657-.626-.657a.644.644 0 0 0-.634.657c0 .364.282.662.63.662m0-.122c.117 0 .215-.242.215-.54c0-.293-.098-.536-.215-.536c-.118 0-.215.243-.215.536c0 .298.097.54.215.54" clip-rule="evenodd"/><path fill="url(#SVG2zaEepso)" d="M14.066 9.46c.27 0 .516.075.606.11c.165-.078.231-.07.384.044c.156.117.297.356.297.528c0 .168-.078.278-.23.278a.45.45 0 0 1-.282-.126l-.282-.223c-.548-.3-.693.004-.693.145v.004c0 .14 0 .34.665.477c.673.137.932.533.932.861c0 .333-.122.935-1.135.935c-1.01 0-1.24-.602-1.24-.806c0-.207.082-.41.418-.41c.266 0 .274.258.25.39c.228.463.838.396.838 0c0-.324-.215-.43-.32-.437l-.482-.141a.81.81 0 0 1-.622-.822c0-.693.555-.806.896-.806M5.72 9.47c.363 0 .524.09.555.137a.5.5 0 0 1 .196-.04c.246 0 .595.384.595.69c0 .304-.184.398-.36.398c-.141 0-.235-.187-.263-.281a.58.58 0 0 0-.528-.352c-.63 0-.653.606-.638.84l.004.055c.016.282.055.983.58.983c.45 0 .598-.31.614-.462c0-.133.156-.176.23-.184c.302 0 .4.196.411.29c0 .508-.84.927-1.252.927c-.418 0-1.389-.145-1.389-1.358c0-1.217.783-1.643 1.245-1.643m1.815 2.18c0-.322.07-1.151.106-1.527a.73.73 0 0 0-.106-.352c-.082-.207.04-.282.106-.293c.532 0 .657.43.653.645c-.015.43-.05 1.319-.05 1.468c0 .156.058.215.09.23c.035 0 .078-.023.132-.054a1.33 1.33 0 0 1 .697-.176c.54 0 .642.332.642.547s-.122.333-.364.255c-.196-.063-.544-.016-.967.043l-.262.039c-.548.07-.677-.419-.677-.822zm2.477.34c.09-.349.712-1.542 1.013-2.098c.036-.062.016-.172 0-.219c-.023-.062-.011-.192.196-.192c.215 0 .333.087.364.126c.336.36.912 1.831 1.017 2.152c.114.325.118.724-.352.724c-.376 0-.473-.458-.477-.689a2.3 2.3 0 0 0-.43.04a3 3 0 0 1-.345.03a.39.39 0 0 1-.317-.156a3 3 0 0 0-.055.41c-.03.314-.246.384-.352.384c-.34 0-.313-.34-.262-.512m1.589-.72a3.3 3.3 0 0 0-.278-.838a7 7 0 0 0-.454.904c-.027.067.055.098.242 0c.153-.078.392-.078.49-.066m4.41-1.515a1 1 0 0 1 .058.407l-.004.075c-.02.32-.055 1.064-.055 1.6c0 .575.247.646.411.646c.169 0 .262-.126.262-.333c0-.168-.015-.587-.023-.779c0 .016.047.044.203.04l.783-.04l.027.61c-.011.17.055.502.4.502c.399 0 .38-.372.367-.56v-.039c-.008-.133-.027-1.291-.035-1.85c-.043-.193-.242-.568-.68-.568c-.079.012-.212.07-.13.23c.04.024.11.122.11.337v.693l-.994.207c-.031 0-.09-.011-.09-.11v-.75c-.012-.173-.13-.521-.493-.521c-.176 0-.157.137-.117.203"/><path fill="url(#SVGn2oqJcdx)" fill-rule="evenodd" d="M9.198 13.12a20 20 0 0 0-.078 1.201c0 .317.098.704.509.646l.203-.027a2 2 0 0 1 .736-.032c.18.059.274-.031.274-.203c0-.168-.079-.43-.486-.43a1 1 0 0 0-.532.14a.2.2 0 0 1-.098.04c-.023-.008-.07-.06-.07-.18c0-.118.027-.822.04-1.155c0-.172-.09-.513-.498-.509c-.055.008-.14.067-.078.231c.023.04.078.157.078.274zm-3.208 0a19 19 0 0 0-.083 1.201c0 .317.106.704.56.646l.22-.027c.351-.047.637-.083.805-.032c.196.059.301-.031.301-.203c0-.168-.086-.43-.532-.43c-.313 0-.477.085-.583.14c-.047.024-.078.04-.11.04c-.023-.008-.078-.06-.078-.18c0-.118.032-.822.047-1.155c0-.172-.101-.513-.547-.509c-.055.008-.153.067-.083.231c.028.04.086.157.086.274zm5.145 1.201c0-.254.055-.907.078-1.201a.6.6 0 0 0-.078-.278c-.063-.164.027-.223.078-.235c.411 0 .509.34.501.51c-.012.34-.039 1.04-.039 1.157c0 .118.047.173.07.18q.04-.002.102-.039a.97.97 0 0 1 .532-.14c.411 0 .49.261.49.43c0 .172-.095.262-.274.203a2 2 0 0 0-.744.032l-.2.027c-.414.058-.516-.329-.516-.646m-3.099-1.588c.008-.051.078-.141.27-.098c.243.055.376.258.376.528v1.526c.011.09-.028.274-.259.274c-.29 0-.39-.247-.39-.548c0-.125.023-.375.046-.634c.031-.36.063-.731.04-.798l-.044-.106a.3.3 0 0 1-.039-.144m5.439-.098c-.196-.04-.258.047-.27.098c0 .058.02.097.04.144a.6.6 0 0 1 .046.106c.023.067-.008.438-.039.798a9 9 0 0 0-.047.634c0 .301.102.548.391.548c.227 0 .266-.184.258-.274v-1.526c0-.274-.133-.473-.375-.528zm.814.195c-.04-.07 0-.133.027-.156c.141-.078.227 0 .294.059c.031.027.062.054.09.054c.039 0 .121-.02.227-.047c.156-.043.352-.097.497-.097c.242 0 .727.117.727.692c0 .58-.313.806-.727.806c-.333 0-.497-.066-.536-.098v.56c0 .274-.16.356-.243.364c-.297 0-.344-.243-.329-.364l.02-1.46c0-.078-.008-.242-.047-.313m.56.924v-.587q.122-.025.242-.063c.133-.043.466-.152.466.247c0 .336-.196.407-.298.403zm1.659-.599a.5.5 0 0 0-.04-.223c-.066-.11-.082-.27.094-.27c.18 0 .364.118.458.38c.078.215.031.77.008.994c0 .05-.008.082-.008.094c0 .07 0 .489.403.489c.325 0 .403-.274.4-.407v-1.17c0-.118-.048-.157-.087-.196c-.031-.027-.059-.05-.059-.102c0-.094.098-.117.145-.117c.391 0 .544.274.568.415v1.174c0 .219 0 .72-.967.72c-.77 0-.931-.58-.915-.869zm2.113-.18a.15.15 0 0 1 .078-.14c.058-.024.062-.024.086-.016c.023.004.058.015.148.015c.079 0 .196-.027.345-.062c.235-.051.548-.122.868-.122c.529 0 .634.184.634.364c0 .141-.3.196-.45.2l-.309.015v1.46c.012.09-.027.274-.258.274c-.286 0-.391-.247-.391-.548c0-.129.027-.364.05-.602c.02-.208.04-.42.044-.556l-.357.008c-.379 0-.493-.18-.493-.29z" clip-rule="evenodd"/><path fill="#2959a7" d="m14.684 9.575l.129.117a.5.5 0 0 0-.086-.133l-.043.012zm-3.076.211c0 .079-.043.137-.098.137c-.059 0-.101-.062-.101-.137c0-.074.042-.133.101-.133c.055 0 .098.059.098.133m-.274.059c0 .074-.039.133-.098.133c-.054 0-.097-.059-.097-.133c0-.078.043-.137.097-.137s.102.063.102.137zm.274.207q0-.009-.003-.018a.047.047 0 0 0-.06-.028l-.016.01a.05.05 0 0 0-.015.032a.1.1 0 0 1-.023.06a.1.1 0 0 1-.079.034a.4.4 0 0 1-.125-.023a.05.05 0 0 0-.032-.016q-.01 0-.019.003l-.015.009a.05.05 0 0 0-.016.03a.05.05 0 0 0 .008.033q.013.017.031.023a.4.4 0 0 0 .168.031a.18.18 0 0 0 .15-.066a.2.2 0 0 0 .042-.114zm-4.735.067c.055 0 .102-.059.102-.133c0-.078-.047-.137-.102-.137s-.097.062-.097.137c0 .074.043.133.097.133m-.273.059c.058 0 .105-.06.105-.137c0-.075-.047-.133-.102-.133s-.101.058-.101.133c0 .078.047.137.101.137zm.328.023c.024 0 .043.024.04.05a.18.18 0 0 1-.192.18a.5.5 0 0 1-.13-.015a.2.2 0 0 1-.039-.015a.1.1 0 0 1-.027-.024a.05.05 0 0 1-.01-.035a.05.05 0 0 1 .018-.031a.05.05 0 0 1 .062.007l.024.008q.03.012.106.012a.1.1 0 0 0 .078-.031a.1.1 0 0 0 .02-.063c0-.023.023-.043.05-.04zm11.273-.113l.192.133v-.09a.7.7 0 0 0-.192-.04zm.196.38l-.188-.134a.7.7 0 0 1 .192.04v.093zm-1.675 2.899c.032-.067.118-.188.196-.169c.05.012.094.07.117.122c-.02-.016-.055-.024-.117-.02c-.133.012-.188.047-.196.066m.337 0c0-.012 0-.032-.02-.047q.011.022.02.046m-.403-1.487l-.09-.079h.09zm-.067-1.894c0 .074-.043.133-.098.133c-.058 0-.101-.059-.101-.133c0-.078.043-.137.101-.137c.055 0 .098.062.098.137m-.274.055c0 .078-.039.137-.098.137c-.054 0-.097-.06-.097-.137c0-.075.043-.133.098-.133c.054 0 .101.058.101.133zm-11.042.911a1 1 0 0 1-.301-.101c.004.035.039.105.129.129c.09.027.153-.008.172-.028m-.301.165a.8.8 0 0 0 .301.101c-.02.02-.078.055-.172.028a.18.18 0 0 1-.13-.13m1.768.254a.8.8 0 0 1-.101.301a.17.17 0 0 0 .129-.133c.027-.09-.008-.148-.028-.168m2.387.548a1.1 1.1 0 0 0-.066-.313a.2.2 0 0 1 .11.137a.18.18 0 0 1-.048.18zm-2.923 1.185c.04.079.047.18.051.22a.12.12 0 0 0 .035-.126c-.02-.066-.066-.09-.086-.094m5.412-1.533a.8.8 0 0 0-.067-.313c.028.003.09.039.114.133a.2.2 0 0 1-.047.18m2.011-1.46a.9.9 0 0 1 .02-.32a.18.18 0 0 0-.09.16c0 .093.047.144.07.156zm.094-.333c0 .055.016.188.063.29c-.028-.004-.083-.04-.106-.125a.17.17 0 0 1 .043-.165m1.28.638a1 1 0 0 1 .093-.282a.17.17 0 0 0-.117.122c-.023.086.008.145.024.16m-2.947 1.44a1 1 0 0 0-.313-.027c.012-.024.063-.07.157-.067c.094 0 .144.063.156.094m1.323-.094c-.04-.082-.04-.187-.04-.227c-.027.012-.078.051-.058.118c.015.07.07.101.098.11m.86.713c.016-.04.055-.134.052-.227a.16.16 0 0 1 .05.14a.11.11 0 0 1-.105.087zm.353-.251a.46.46 0 0 1-.051.227c.027 0 .09-.02.102-.086a.16.16 0 0 0-.047-.141zm.767-.18a.5.5 0 0 0-.157-.172a.15.15 0 0 1 .14.039c.052.047.032.11.017.133m-.192-.383c.117.07.223.184.258.23c.016-.027.024-.094-.055-.156a.3.3 0 0 0-.203-.074m-4.324-.7c-.07 0-.246.019-.38.07c.008-.028.051-.087.161-.114c.11-.023.192.02.22.043m-.462.187c.098.031.196.11.235.145a.14.14 0 0 0-.078-.141a.16.16 0 0 0-.157-.004m-1.072.775a1 1 0 0 0-.062-.313c.023.008.086.039.11.133a.19.19 0 0 1-.048.18M6.35 13.104c.04.079.051.18.051.22a.12.12 0 0 0 .04-.126c-.02-.066-.067-.09-.09-.094m.458-1.385a1 1 0 0 0 .102-.301c.02.02.05.078.027.172a.18.18 0 0 1-.13.13m.763-.849c.07-.094.188-.18.235-.211a.18.18 0 0 0-.176.05c-.067.063-.067.134-.059.161m.235.04a1 1 0 0 0-.235.207c-.008-.024-.008-.094.059-.16a.18.18 0 0 1 .18-.052zm-.165 1.322a.8.8 0 0 1 .2-.168a.16.16 0 0 0-.149.039c-.055.055-.058.11-.05.129m-1.404 2.394a.9.9 0 0 0-.063.259c-.02-.016-.05-.063-.035-.137a.16.16 0 0 1 .098-.118zm1.154.06c.066.07.117.18.137.226a.16.16 0 0 0-.016-.156c-.043-.063-.098-.075-.121-.07m-.063.195a.6.6 0 0 0-.058-.149c.007 0 .039 0 .054.043a.13.13 0 0 1 0 .11zm-.677-.133a.7.7 0 0 1-.093-.247a.16.16 0 0 0-.012.157a.14.14 0 0 0 .105.09m-.254.027a.7.7 0 0 0-.113.172a.14.14 0 0 1 .015-.117c.032-.055.079-.059.098-.055m1.76-2.37A1 1 0 0 1 8 12.121c-.02.028-.043.102.004.184c.051.078.122.098.153.098m6.77-2.231l-.117.129l-.016-.04a.4.4 0 0 1 .133-.09m.274.234l-.05-.172a.4.4 0 0 0 .007.157l.04.012zM13.498 11.7c-.106-.106-.094-.188-.078-.215c.082.164.258.273.332.313c-.039.015-.148.015-.254-.094zm1.201-.619a.14.14 0 0 1 .153 0a.14.14 0 0 1 .063.126c-.044-.04-.15-.126-.216-.126m-6.495 2.415a.6.6 0 0 0-.114.188a.8.8 0 0 0 .157-.137a1.3 1.3 0 0 0 .094-.196a1.4 1.4 0 0 1-.133.145zm-.145.422c.024-.023.078-.062.125-.039c.047.024.079.137.082.188c-.023-.047-.101-.149-.207-.149m.43-.125l.18-.137v.078l-.176.06zm.69-.313c0-.074.019-.227.09-.243c.077-.015-.028.157-.09.243m.297 1.084a.47.47 0 0 1 .215-.485a1.5 1.5 0 0 0-.215.485m.21-.317l-.042.305a.6.6 0 0 0 .066-.164a.34.34 0 0 0-.023-.141m.62.548c.023-.266-.2-.384-.318-.407c.016-.02.078-.051.168-.012c.22.137.192.34.15.423zm-.04-.482c.086.087.235.313.133.525c.02.004.067-.027.082-.184c.02-.16-.137-.294-.215-.34m.959-.978a.17.17 0 0 1 .086-.098c.047-.023-.04.055-.086.098m-.016.09c.04-.011.117-.008.168.086c-.094-.039-.149-.074-.168-.086m.32 1.342c-.01-.082.017-.242.251-.234c-.062 0-.144.105-.195.172q-.043.06-.055.062m1.918-1.725v.325a.4.4 0 0 0 .07-.196c0-.086-.046-.121-.07-.13m.212.195a.32.32 0 0 0-.071-.203v.203a.5.5 0 0 1-.043.196a.24.24 0 0 0 .114-.196m-1.566-2.778l-.14.216c.042-.02.14-.067.152-.11a.16.16 0 0 0-.016-.106zm2.563 2.325c.047.042.141.203.165.489c.097-.345-.07-.47-.165-.49m.192.95l.05.24a.37.37 0 0 1-.05-.236zm-2.44 1.157l-.011-.133l.074.133zm.176-.114l.028.137l.09.02zm1.08.031v.157l.051-.031zm.7.028c.024-.055.09-.172.173-.204c0 .012-.094.176-.137.255l-.04-.051zm.263.129c-.008-.117.043-.188.07-.211l-.031.211zm1.592-3.248l-.2.176l-.023-.054a.22.22 0 0 1 .223-.126zm-.066.18c-.11.036-.133.114-.133.15l.023.1zm.509-.461l-.126-.223l.188.176zm.14-.032l.09-.234v.234zm.259-.148v.137h.09zm.622-.118c.043-.133.02-.34 0-.43l-.078.043l.078.391zm-.149.239c.012-.035.067-.106.196-.137l-.118.145zm.466.29c-.133 0-.231.11-.262.168c.156-.13.41-.126.516-.11a.5.5 0 0 0-.254-.059m-.157.356c.02-.055.086-.169.176-.169c.094 0 .157.04.18.063c-.078-.02-.25-.02-.36.106zm-.79 1.565c-.09-.141-.2-.102-.247-.067c.137 0 .22.114.247.168zm.943-.18a.23.23 0 0 1 .215-.07a.3.3 0 0 1 .168.117l.016.418c-.027-.086-.13-.262-.301-.254c.043-.04.156-.086.215 0v-.133c-.02-.05-.114-.14-.313-.078m-.716 1.357l-.106.145h.07l.04-.145zM19 12.885a.196.196 0 0 0-.07.247zm.156.079c-.035.027-.074.101.047.156zm.294.29c.117-.052.399-.107.567.09v.257l-.298-.235c.067.005.22.04.278.106v-.11c-.066-.062-.266-.156-.516-.062zm.117 1.658c-.04-.262.04-.348.086-.352c-.031.078-.07.274.016.395a1 1 0 0 1-.102-.043m.219-.215c-.031.031-.05.11.14.16c-.05-.02-.116-.117-.14-.156z"/><path fill="#000" d="M8.724 15.476c-.281.133-.712-.47-.892-.783h.118c.039.117.195.36.481.36c.29 0 .364-.239.364-.36v-.994h.211v.736c0 .403.106.579.157.618c-.028.086-.157.29-.439.422"/><defs><linearGradient id="SVGGuS8beAF" x1="12.022" x2="12.022" y1="7.5" y2="16.502" gradientUnits="userSpaceOnUse"><stop stop-color="#5f635c"/><stop offset=".21" stop-color="#515558"/><stop offset=".39" stop-color="#646863"/><stop offset=".5" stop-color="#65635a"/><stop offset=".59" stop-color="#616158"/><stop offset=".72" stop-color="#686c65"/><stop offset=".81" stop-color="#586164"/><stop offset="1" stop-color="#6f756d"/></linearGradient><linearGradient id="SVGSrL800Yc" x1="5.278" x2="7.239" y1="9.504" y2="17.653" gradientUnits="userSpaceOnUse"><stop stop-color="#6e6b63"/><stop offset=".45" stop-color="#5e554b"/><stop offset="1" stop-color="#5f533e"/></linearGradient><linearGradient id="SVGG52IqdSI" x1="13.333" x2="9.568" y1="8.994" y2="17.052" gradientUnits="userSpaceOnUse"><stop stop-color="#6f8cab"/><stop offset="1" stop-color="#bad7ff"/></linearGradient><linearGradient id="SVG6a0m1yhT" x1="18.314" x2="7.535" y1="9.168" y2="17.763" gradientUnits="userSpaceOnUse"><stop stop-color="#a1c1ee"/><stop offset="1" stop-color="#e4ffff"/></linearGradient><linearGradient id="SVGOE7didUV" x1="9.112" x2="10.282" y1="12.219" y2="14.335" gradientUnits="userSpaceOnUse"><stop stop-color="#d87557"/><stop offset=".21" stop-color="#c06548"/><stop offset=".37" stop-color="#863f23"/><stop offset=".59" stop-color="#b45430"/><stop offset=".77" stop-color="#4a1d08"/><stop offset="1" stop-color="#63290f"/></linearGradient><linearGradient id="SVG55HjUbmn" x1="12.95" x2="13.81" y1="13.673" y2="11.687" gradientUnits="userSpaceOnUse"><stop stop-color="#d87557"/><stop offset=".21" stop-color="#c06548"/><stop offset=".37" stop-color="#863f23"/><stop offset=".59" stop-color="#b45430"/><stop offset=".77" stop-color="#4a1d08"/><stop offset="1" stop-color="#63290f"/></linearGradient><linearGradient id="SVGJeDC9bAI" x1="18.257" x2="13.093" y1="10.338" y2="18.071" gradientUnits="userSpaceOnUse"><stop stop-color="#3d68fc"/><stop offset="1" stop-color="#152b71"/></linearGradient><linearGradient id="SVGz7DyIdqq" x1="12.019" x2="12.019" y1="7.506" y2="16.502" gradientUnits="userSpaceOnUse"><stop offset=".38" stop-color="#3a61e4"/><stop offset="1" stop-color="#061444"/></linearGradient><linearGradient id="SVGLu8JSbnL" x1="3" x2="17.321" y1="16.094" y2="7.486" gradientUnits="userSpaceOnUse"><stop offset=".35" stop-color="#cb7a4b"/><stop offset=".43" stop-color="#da946b"/><stop offset=".51" stop-color="#d08150"/><stop offset=".58" stop-color="#dc956b"/><stop offset=".69" stop-color="#c9794c"/><stop offset=".8" stop-color="#dd8f5e"/><stop offset="1" stop-color="#ebaa7b"/></linearGradient><linearGradient id="SVGa4HRIetW" x1="4.518" x2="18.186" y1="13.537" y2="6.076" gradientUnits="userSpaceOnUse"><stop stop-color="#e39d6d"/><stop offset=".43" stop-color="#ce7f4f"/><stop offset="1" stop-color="#e39a6b"/></linearGradient><linearGradient id="SVGEQqbXdpe" x1="3.782" x2="21.274" y1="13.029" y2="8.775" gradientUnits="userSpaceOnUse"><stop stop-color="#d48f64"/><stop offset=".11" stop-color="#bc7448"/><stop offset=".18" stop-color="#d58e64"/><stop offset=".31" stop-color="#d88f61"/><stop offset=".48" stop-color="#d99062"/><stop offset=".58" stop-color="#ce7b49"/><stop offset=".71" stop-color="#de9769"/><stop offset=".81" stop-color="#de9562"/><stop offset="1" stop-color="#cc7b49"/></linearGradient><linearGradient id="SVG2zaEepso" x1="12" x2="12" y1="7.5" y2="16.502" gradientUnits="userSpaceOnUse"><stop stop-color="#9fe2ec"/><stop offset="1" stop-color="#e7f8fa"/></linearGradient><linearGradient id="SVGn2oqJcdx" x1="11.998" x2="11.998" y1="7.515" y2="16.509" gradientUnits="userSpaceOnUse"><stop stop-color="#9ee2eb"/><stop offset="1" stop-color="#d2f2f6"/></linearGradient></defs></g></svg>