<svg xmlns="http://www.w3.org/2000/svg" viewBox="0 0 24 24"><g fill="none"><path fill="url(#SVG3fo0abJU)" fill-rule="evenodd" d="M12 17.294a5.294 5.294 0 1 0 0-10.588a5.294 5.294 0 0 0 0 10.588m0-.53a4.765 4.765 0 1 0 0-9.53a4.765 4.765 0 0 0 0 9.53" clip-rule="evenodd"/><path fill="url(#SVGTFzSPcdz)" fill-rule="evenodd" d="M8.56 17.962a6.882 6.882 0 1 0 6.883-11.92a6.882 6.882 0 0 0-6.883 11.92m3.44.391a6.353 6.353 0 1 0 0-12.706a6.353 6.353 0 0 0 0 12.706" clip-rule="evenodd"/><path fill="url(#SVGTRqMzbVX)" fill-rule="evenodd" d="M12 21a9 9 0 1 0 0-18a9 9 0 0 0 0 18m0-.53A8.47 8.47 0 0 0 20.47 12A8.47 8.47 0 0 0 12 3.53A8.47 8.47 0 0 0 3.53 12A8.47 8.47 0 0 0 12 20.47" clip-rule="evenodd"/><defs><linearGradient id="SVG3fo0abJU" x1="2.91" x2="21.09" y1="12.235" y2="12" gradientUnits="userSpaceOnUse"><stop stop-color="#f9f9f9"/><stop offset="1" stop-color="#f9f9f9" stop-opacity="0"/></linearGradient><linearGradient id="SVGTFzSPcdz" x1="21.251" x2="2.747" y1="11.999" y2="11.999" gradientUnits="userSpaceOnUse"><stop stop-color="#f0f0f0"/><stop offset="1" stop-color="#f0f0f0" stop-opacity="0"/></linearGradient><linearGradient id="SVGTRqMzbVX" x1="3" x2="21" y1="12" y2="12" gradientUnits="userSpaceOnUse"><stop stop-color="#f0f0f0"/><stop offset="1" stop-color="#f0f0f0" stop-opacity="0"/></linearGradient></defs></g></svg>