<svg xmlns="http://www.w3.org/2000/svg" viewBox="0 0 24 24"><g fill="none"><path fill="url(#SVGTLVUNcXw)" fill-rule="evenodd" d="M10.618 3.106V7.13h.53V3.04a9 9 0 0 1 .397-.029V7.13h.53V3q.345.003.688.032v4.097h.529V3.093q.21.03.418.07v2.579l.498.127l1.182-2.206q.115.046.23.097l-.75 2.485l.439.264l1.872-1.868q.184.13.363.269l-2.796 2.796l.005.005l.37.37l2.83-2.832q.15.133.295.273l-2.844 2.84l.376.37L18.617 5.9q.237.257.451.529l-2.8 2.797l.375.37l2.743-2.738q.138.198.265.403l-1.743 1.743l.265.44L20.4 8.77l.01.027l-2.057 1.1l.127.498h2.376q.058.324.093.651h-3.692v.53h3.733q.01.21.01.423h-3.706v.53h3.69q-.016.266-.046.53h-3.644v.529h3.565a9 9 0 0 1-.112.53h-2.06l-.122.497l1.713.918a9 9 0 0 1-.136.301l-1.852-.557l-.265.439l1.389 1.386q-.168.243-.35.475l-2.4-2.396l-.37.37l2.429 2.433q-.133.15-.273.293l-2.442-2.44l-.376.371l2.439 2.436a9 9 0 0 1-.531.449L15.145 16.7l-.37.37l2.338 2.336q-.211.145-.43.278l-1.316-1.317l-.44.26l.51 1.69a9 9 0 0 1-.288.113l-.825-1.539l-.497.127v1.793q-.12.025-.239.046V17.69h-.529v3.247q-.263.032-.53.047v-3.278H12V21q-.266 0-.53-.016v-3.288h-.529v3.241q-.255-.03-.508-.075v-1.795l-.498-.127l-.846 1.576a9 9 0 0 1-.389-.143l.51-1.682l-.44-.264l-1.331 1.331a9 9 0 0 1-.556-.354l2.311-2.312l-.37-.37l-2.371 2.365a9 9 0 0 1-.307-.252l2.392-2.389l-.005-.005l-.371-.37l-2.407 2.41a9 9 0 0 1-.484-.504l2.399-2.399v-.005l-.371-.37l-2.367 2.369a9 9 0 0 1-.338-.458l1.403-1.398l-.265-.44l-1.871.565a9 9 0 0 1-.14-.31l1.677-.9l-.121-.498h-2.02a9 9 0 0 1-.116-.545h3.607v-.53H3.062a9 9 0 0 1-.046-.53h3.16V12H3q0-.194.008-.386H6.69v-.53H3.047q.014-.135.031-.27H5.69l.127-.497l-2.326-1.25l.032-.091l2.495.759l.265-.445l-1.971-1.97q.125-.205.26-.404l2.706 2.705l.376-.376l-2.767-2.76q.123-.159.254-.313l2.793 2.793l.37-.37l-2.81-2.815a9 9 0 0 1 .5-.484l2.803 2.806l.37-.37l-2.771-2.776q.164-.129.332-.252L8.713 6.69l.439-.264l-.8-2.653l.112-.049l1.212 2.262l.498-.121V3.187q.22-.045.444-.08m-.974.207a9 9 0 0 0-.687.217l.687 1.28zm-1.777.692a9 9 0 0 0-.694.399l1.169 1.168zm-3.825 3.79a9 9 0 0 0-.326.686l1.45.437zm-.711 1.788q-.097.347-.166.701h1.476zm.072 5.08q.058.188.125.373l.695-.374zm.7 1.655q.096.174.198.342l.573-.574zm3.818 3.704q.144.074.291.142l.188-.62zm1.685.654q.148.04.298.076v-.631zm4.75.01a9 9 0 0 0 .282-.082l-.282-.526zm1.567-.586q.143-.07.285-.145l-.47-.47zm3.784-3.453q.099-.165.192-.334l-.752-.227zm.765-1.61q.07-.195.13-.39h-.857zm.271-5.171a9 9 0 0 0-.157-.565l-1.052.565zm-.55-1.59a9 9 0 0 0-.268-.541l-.894.892zM16.73 4.342a9 9 0 0 0-.626-.352l-.424 1.402zm-1.84-.866a9 9 0 0 0-.65-.193v1.405z" clip-rule="evenodd"/><path fill="#f8ba3a" d="M12 18.088a6.086 6.086 0 0 0 6.089-6.089a6.089 6.089 0 1 0-6.088 6.089"/><path fill="#f0f3fa" d="M12.001 6.177a5.824 5.824 0 1 0 0 11.647a5.824 5.824 0 0 0 0-11.647M5.648 12a6.353 6.353 0 1 1 12.707 0a6.353 6.353 0 0 1-12.707 0"/><path fill="#f0f3fa" d="M11.967 18.11a6.144 6.144 0 1 0 0-12.288a6.144 6.144 0 0 0 0 12.288"/><path fill="#f0f3fa" d="m12.252 5.554l-.81 6.527h.81l-.317 6.03l5.93-1.059l1.069-8.274l-2.61-2.298z"/><path fill="#01c1ae" d="M17.219 8.946c.354.164.656.43.71.837c.052.444-.022 1.112-.218 1.683a2.6 2.6 0 0 1-.423.794c-.191.233-.445.419-.768.46c-1.482.181-2.716.065-3.632-.428a3 3 0 0 1-1.043-.926a3 3 0 0 1-.138.402c-.402.921-1.36 1.71-3.367 1.959a1.84 1.84 0 0 1-1.678-.736a3.47 3.47 0 0 1-.704-1.736c-.058-.466.1-.858.424-1.155c.301-.285.74-.487 1.244-.646c1-.307 2.42-.476 4.002-.672l.032-.005c1.615-.201 3.086-.265 4.182-.159c.546.058 1.022.159 1.377.328m-4.95.646c1.562-.185 2.499-.418 3.504-.318c.514.053.906.149 1.165.265c.265.127.328.244.339.323c.037.334-.016.9-.185 1.393a1.9 1.9 0 0 1-.313.592c-.116.143-.233.207-.338.218q-2.13.259-3.24-.355c-.72-.387-.869-.874-1.001-1.927c-.005-.069.106-.143.069-.19m-1.25.19c-1.418.175-2.35.043-3.203.303c-.47.142-.794.307-.99.492a.64.64 0 0 0-.217.593c.064.524.265 1.043.561 1.408c.297.355.662.545 1.091.492c1.853-.227 2.563-.92 2.843-1.561c.254-.583.201-1.181.159-1.626c-.005-.084-.095-.08-.1-.148c0-.063-.17.1-.144.048"/><path fill="#f0f3fa" d="M12.063 15.94c1.35-.111 2.356-1.197 2.26-2.43l-4.88.397c.105 1.233 1.275 2.144 2.62 2.033"/><path fill="#fe9d51" d="M14.434 13.392a.11.11 0 0 1 .053.1c.111 1.324-.974 2.472-2.388 2.589c-1.419.116-2.673-.842-2.785-2.17c0-.08.053-.154.138-.16l4.876-.396q.065-.002.106.037m-4.802.645c.17 1.06 1.218 1.843 2.44 1.747c1.218-.105 2.129-1.043 2.129-2.117z"/><path fill="#fe9a54" d="M12.576 14.616a.12.12 0 0 1 .122-.122h1.334a.122.122 0 0 1 0 .238h-1.334a.12.12 0 0 1-.122-.116"/><path fill="#000" d="M13.423 11.857a2.6 2.6 0 0 1-1.536-1.917c0-.64.72-.725 2.489-.725c1.773 0 2.848.143 2.938.609c.084.81-.207 2.033-.614 2.234c-.403.2-1.97.291-3.283-.201zm-3.076.54a2.35 2.35 0 0 0 1.016-2.515c-.148-.514-.963-.387-2.493-.148c-1.366.217-2.41.815-2.293 1.34c.053.851.715 1.757 1.101 1.91c.387.16 1.626.106 2.674-.582z"/><path fill="#f0f3fa" d="m17.599 7.184l.514 1.376l1.376.508l-1.376.509l-.514 1.376l-.508-1.376l-1.377-.509l1.377-.508z"/><defs><linearGradient id="SVGTLVUNcXw" x1="12" x2="12" y1="2.999" y2="20.999" gradientUnits="userSpaceOnUse"><stop stop-color="#f5b745"/><stop offset="1" stop-color="#fc8b47"/></linearGradient></defs></g></svg>