<svg xmlns="http://www.w3.org/2000/svg" viewBox="0 0 24 24"><g fill="none"><path fill="#388ce0" d="M10.086 3.107a9.28 9.28 0 0 0-5.598 3.898a8.7 8.7 0 0 0-1.3 3.106a10.8 10.8 0 0 0-.134 3.076A8.97 8.97 0 0 0 6.238 19c.94.793 1.997 1.383 1.997 1.108c0-.04-.113-.175-.248-.315c-.922-.9-1.406-2.492-1.215-3.966c.259-1.969 1.052-3.28 2.6-4.298c.292-.197.562-.354.59-.354c.112 0 .045-.225-.236-.777a5.3 5.3 0 0 1-.732-2.7a5.85 5.85 0 0 1 1.53-3.938c.27-.264.304-.32.304-.534S10.817 3 10.682 3c-.09 0-.354.05-.596.107"/><path fill="#094b89" d="M15.576 3.681c0 .045.084.197.186.338c.476.675.744 1.475.77 2.3c.051 1.035-.225 1.936-.731 2.391c-.377.338-.697.349-1.164.05c-.327-.213-.366-.37-.147-.652c.409-.584.62-1.284.602-1.997c0-.793-.152-1.237-.562-1.62a1.48 1.48 0 0 0-1.49-.394c-.609.141-1.182.805-1.492 1.733c-.157.478-.292 1.3-.292 1.778c.005.9.27 1.957.658 2.604a5.3 5.3 0 0 0 1.069 1.21c.112.09.22.18.22.196c0 .023-.113.08-.254.135c-1.035.389-2.081 1.559-2.543 2.847a5.5 5.5 0 0 0-.365 2.261c.04.945.208 1.39.737 1.97c.416.46 1.204.674 2.149.579c1.09-.113 1.929-.507 2.643-1.26c.315-.338.377-.377.44-.304c.055.067.044.118-.068.315c-.715 1.232-2.042 2.284-3.274 2.593c-.27.068-.383.124-.383.18c0 .197 1.676-.073 2.695-.439a9.28 9.28 0 0 0 5.597-5.726c.354-1.08.416-1.508.422-2.852c0-1.047-.011-1.294-.118-1.823a9.2 9.2 0 0 0-4.664-6.261q-.64-.363-.641-.152"/></g></svg>