<svg xmlns="http://www.w3.org/2000/svg" viewBox="0 0 24 24"><path fill="#00cedb" d="M10.007 12.805L8.52 14.302c-.267.268-.529.54-.797.807c-.045.046-.109.072-.164.108c-.117-.018-.207-.089-.222-.191a14 14 0 0 1-.067-.469c-.027-.206-.092-.263-.31-.29q-.67-.078-1.34-.164l-1.02-.128c-.203-.025-.277-.166-.17-.334q.367-.57.736-1.137L6.67 10.19c.06-.094.126-.158.254-.155a1 1 0 0 0 .246-.037a.25.25 0 0 1 .236.066q.179.16.355.32l1.357 1.242l.88.8c.152.137.152.236.01.38m9.98 2.013c.085.068.176.132.194.248c.023.147-.038.254-.168.334l-2.295 1.436l-1.478.924a1 1 0 0 0-.133.095a.29.29 0 0 0-.113.244c.008.178.018.356.02.533c.004.204-.152.331-.365.308a.3.3 0 0 1-.193-.107l-.533-.594l-.667-.746a.4.4 0 0 1-.121-.342l.03-1.037c.004-.121.079-.2.18-.262l1.222-.753q1.027-.629 2.052-1.265c.144-.09.278-.116.436-.039a.5.5 0 0 0 .376.03c.19-.058.336-.007.482.118c.352.299.716.583 1.075.875zm-6.567.86a.4.4 0 0 1 .114.192c.033.162-.034.272-.192.346c-.527.245-.995.489-1.526.725c-.096.042-.286.145-.395.15H9.18c-.04.001-.079-.015-.116-.029a.3.3 0 0 1-.1-.063c-.055-.05-.113-.096-.168-.147c-.31-.284-.614-.573-.93-.85c-.176-.155-.179-.362-.01-.528q.566-.566 1.13-1.137l1.216-1.232a.35.35 0 0 1 .386-.097q.067.024.12.072l1.62 1.553c.363.349.73.694 1.092 1.046m2.23-6.984c-.174-.26.022-.617.311-.663c.772-.123 1.542-.266 2.313-.395c.17-.03.305.046.399.182l.481.704q.509.742 1.012 1.486c.046.067.068.148.102.222l-.02.008a.56.56 0 0 1-.14.346c-.47.61-.948 1.219-1.419 1.83a.44.44 0 0 1-.375.162a.43.43 0 0 1-.35-.208q-1.037-1.653-2.078-3.301c-.078-.125-.154-.252-.237-.373m-1.355 3.065l-.135 1.158l-.116.962l-.133 1.128c-.01.08-.01.16-.027.236c-.01.037-.038.085-.07.097s-.09-.005-.119-.029c-.128-.106-.25-.219-.372-.33q-.66-.606-1.32-1.208q-.575-.524-1.153-1.044c-.128-.115-.128-.151-.006-.275l1.763-1.78l1.203-1.218l.59-.598c.017-.018.031-.042.053-.048c.042-.015.094-.035.13-.024c.032.01.046.064.055.078zm3.425.885c.058.09.067.175.004.267a.52.52 0 0 0-.083.351c.011.109-.036.176-.132.234c-.753.46-1.503.926-2.254 1.388q-.353.22-.708.436c-.094.057-.19.052-.242-.021c-.028-.04-.032-.095-.04-.123l.1-.7l.7-4.895l.09-.616c.001-.016.002-.035.011-.048c.024-.028.05-.07.08-.076c.032-.005.082.02.103.046c.054.071.099.15.148.227l1.759 2.79q.231.371.464.74M14.072 8.39c.027.018.082.036.11.073c.044.057.006.111-.04.157l-.612.62l-1.784 1.8q-.557.568-1.116 1.134c-.135.135-.243.135-.383.007q-.652-.598-1.305-1.193q-.635-.578-1.273-1.155c-.056-.052-.102-.108-.095-.188q.012-.161.202-.19q.352-.063.707-.12zm-6.065.549q.629-.416 1.259-.828l4.059-2.665c.135-.09.22-.07.288.07q.42.867.837 1.735l.107.226c.03.06.01.11-.028.165q-.073.101-.124.214a.19.19 0 0 1-.156.125l-1.791.31l-4.431.77c-.033.004-.066 0-.1 0l-.02-.037c.034-.028.064-.062.1-.085m-4.22 1.321c-.265-.005-.422-.253-.295-.482c.107-.193.225-.378.34-.567q.5-.818.994-1.635a.6.6 0 0 1 .225-.213L7.684 5.9a.6.6 0 0 1 .181-.07a.3.3 0 0 1 .18.017a.3.3 0 0 1 .139.108a.31.31 0 0 1 .03.338c-.132.273-.27.542-.404.813q-.378.744-.754 1.49a.38.38 0 0 1-.27.221a.63.63 0 0 0-.295.16a.6.6 0 0 0-.166.283a.3.3 0 0 1-.08.142a.3.3 0 0 1-.144.083q-1.082.37-2.163.742c-.049.017-.1.022-.151.034m3.737-1.585a.3.3 0 0 1 .031-.104l.943-1.993q.296-.622.589-1.245a.23.23 0 0 1 .222-.147l.883-.035l1.737-.064c.203-.008.408-.021.612-.03c.146-.007.245.078.247.216c.006.084-.05.139-.122.187L7.723 8.705a.5.5 0 0 1-.079.047c-.063.025-.123-.01-.12-.076m-1.226 1.432l-.443.682l-1.656 2.551a.4.4 0 0 1-.09.107c-.096.066-.222.02-.268-.095q-.107-.28-.209-.56L3.03 11.16c-.015-.041-.024-.082-.03-.103c.001-.11.039-.157.146-.19q.48-.15.96-.296l1.815-.556l.238-.07c.056-.018.113-.042.16.019c.042.055.007.1-.021.144m14.688 3.267l.014.108c-.009.043-.019.096-.033.146l-.24.83c-.067.238-.263.294-.461.133q-.61-.496-1.222-.987c-.092-.075-.13-.161-.11-.279a.53.53 0 0 0-.04-.35c-.057-.106-.038-.2.034-.294l.996-1.293l.202-.264c.068-.09.157-.133.27-.108c.119.026.18.104.2.216zm-6.99-7.896l-.018-.036c-.024-.053-.034-.113.02-.143a.23.23 0 0 1 .154-.009c.079.024.15.067.225.103l3.026 1.457l.537.26c.06.029.108.063.096.135c-.013.072-.07.088-.136.1l-2.18.377l-.07.014c-.021-.013-.06-.028-.086-.056a.72.72 0 0 0-.537-.263c-.081-.003-.123-.05-.153-.114l-.387-.8z"/></svg>