<svg xmlns="http://www.w3.org/2000/svg" viewBox="0 0 24 24"><g fill="none"><path fill="url(#SVGTH1mtZ2Z)" d="m12 3l2.117 1.26v1.694l4.765 2.817v3.885l-1.059.689V9.353l-5.776-3.468l-.301-.222l.963-.545l.572.338v-.709L12 3.995l-1.281.757v1.525l1.28.757l.483-.286l.836.498l-.789.471v1.08l3.177 1.885v3.811l.98.578l1.63-.953l2.155 1.26v2.51l-2.155 1.26l-1.604-.938L12 21l-3.177-1.88v-1.19L12 19.835l5.707-3.425l.508-.27v1.175l-.662.392l.763.44l1.302-.758v-1.524l-1.302-.757l-1.308.757v.56l-.847.498V15.76l-.805-.466l-3.356 2l-3.335-1.98l-.9.53v2.048l-2.118 1.255l-2.118-1.26v-2.51l1.589-.947V8.77L8.4 6.829l1.006.582l-3.23 1.943v7.438l-1.058-.646v-.72l-.752.445v1.525l1.28.757l1.282-.757v-1.53l-.402-.239v-.979l.783.46l.985-.576v-3.854l3.176-1.885v-1.08l-1.588-.948V4.25zm1.826 8.455L12 10.365l-1.816 1.084l1.848 1.043l1.8-1.037zm-3.95 2.694l1.854 1.102v-2.192l-1.853-1.096zm2.42 1.08l1.822-1.08V12l-1.816 1.059v2.165z"/><defs><linearGradient id="SVGTH1mtZ2Z" x1="12" x2="12" y1="3" y2="21" gradientUnits="userSpaceOnUse"><stop stop-color="#2de7f4"/><stop offset="1" stop-color="#082e9a"/></linearGradient></defs></g></svg>