<svg xmlns="http://www.w3.org/2000/svg" viewBox="0 0 24 24"><path fill="#ff00af" d="M14.253 18.709V5.29c2.89.863 4.501 3.544 4.501 6.709s-1.612 5.847-4.5 6.709M11.998 3v7.585l-1.143-1.142l-.147-2.851l1.193-3.587a9 9 0 0 0-2.21.304l-.576 1.734l-1.635-.82a9 9 0 0 0-1.776 1.348L8.73 7.088l.089 1.735l-1.736-.089l-1.517-3.026a9 9 0 0 0-1.348 1.776l.82 1.634l-1.735.576A9 9 0 0 0 3 11.904l3.588-1.193l2.852.146L10.583 12L9.44 13.143l-2.852.146L3 12.097a9 9 0 0 0 .304 2.209l1.735.576l-.82 1.634a9 9 0 0 0 1.348 1.776l1.517-3.026l1.736-.09l-.089 1.736l-3.027 1.517c.534.52 1.131.973 1.776 1.348l1.635-.82l.577 1.734a9 9 0 0 0 2.208.304l-1.192-3.587l.147-2.852l1.143-1.141V21a9.001 9.001 0 1 0 0-18"/></svg>