<svg xmlns="http://www.w3.org/2000/svg" viewBox="0 0 24 24"><g fill="none"><path fill="url(#SVG4RlXLcRt)" d="M11.998 20.996a8.997 8.997 0 1 0 0-17.993a8.997 8.997 0 0 0 0 17.993"/><path fill="url(#SVGm4f1lbqN)" d="M20.117 15.88a8.97 8.97 0 0 0-1.861-10.335c-.332.5-.63 1.209-.073 1.394c.225.08.416.113.562.141c.394.073.483.09.281.703c-.281.843-.281.843-.843.562c-.563-.281-1.125-.281-.844.562c.073.214.14.355.191.45c.045.09.073.146.057.18c-.017.045-.102.056-.293.101a8 8 0 0 0-.517.113c-1.125.281-1.406.562-1.406.843c0 .096-.034.124-.062.158c-.061.056-.123.123.062.686c.146.433.512.646.76.787c.235.13.354.202.084.337c-.338.169-.467.135-.703.085a2.6 2.6 0 0 0-.703-.085c-.337 0-.585-.135-.815-.264c-.343-.186-.647-.354-1.153-.017a9 9 0 0 1-.562.349c-.394.236-.484.292-.281.494c.095.096.061.158.033.22c-.067.123-.129.247.81.624q.42.17.843.337c.906.349 1.468.568 1.687.788c.096.095.158.219.22.342c.123.254.247.501.624.501c.562 0 1.124 0 1.405.281c.282.281.563.562 1.125.281c.169-.084.281-.191.394-.298c.224-.208.433-.393.978-.326zm-.9 1.49a1.15 1.15 0 0 0-.753-.31c-.456 0-.585 0-.692-.044a4 4 0 0 0-.433-.237c-.562-.28-1.124-.28-1.124.282c0 .258.123.46.224.63c.113.19.209.342.057.494c-.107.107-.332.09-.551.079c-.377-.023-.748-.045-.574.483l.107.349c.113.405.225.77.517.967a9.04 9.04 0 0 0 3.222-2.693M3.001 12.349v-.35a8.98 8.98 0 0 1 3.16-6.848c.377.326.76.776 1.057 1.226c.343.512.27.613.225.675c-.034.034-.056.056.056.169c.18.18.585.129 1.08.073c.281-.034.585-.073.888-.073c.844 0 0 .562-.843.843c-.495.169-.41.619-.31 1.141c.068.366.147.76.029 1.108c-.085.253-.169.405-.225.512c-.146.264-.169.303.225.894c.326.483.275.691.225.888c-.029.14-.062.281.056.518c.191.382.124.376-.214.331a4.5 4.5 0 0 0-.63-.05c-.466 0-.843-.169-1.18-.327c-.282-.123-.535-.236-.788-.236c-.213 0-.382-.118-.579-.253c-.315-.225-.691-.483-1.389-.309c-.32.079-.601.09-.837.068z"/><path fill="#dcdef2" d="M20.122 15.875a10 10 0 0 1-.438.81l-.124.067c-.146.095-.32.202-.534.309c-.405.202-.81.112-1.108.05a1.4 1.4 0 0 0-.298-.05c-.14 0-.214-.14-.281-.281c-.073-.14-.14-.281-.281-.281c-.281 0-.844.562-.844.843s0 .844-.28.281a3 3 0 0 0-.214-.348c-.158-.236-.197-.293.213-.495c.563-.281 0-.281-.562-.281c-.45 0-.748-.562-.844-.844c.197-.393.535-.236 1.013-.005c.202.095.427.202.674.287c.422.14.636.14.81.14s.315 0 .596.14c.349.17.264.242.152.332c-.068.057-.152.124-.152.23c0 .282.844 0 1.406-.561a1.34 1.34 0 0 1 1.096-.344M14.81 4.41c0 .185.112.562.562.562c.214 0 .472.084.692.152c.348.112.607.196.433-.152a2 2 0 0 1-.13-.281c-.168-.377-.253-.563-.714-.563c-.197 0-.354-.067-.483-.118c-.242-.1-.36-.151-.36.4m-7.029 0c.186.28.619.843.844.843c.28 0 .843 0 1.405.281s.844 0 1.125-.281c.112-.112.253-.169.382-.23c.208-.09.354-.158.18-.332a.5.5 0 0 1-.152-.31c-.04-.146-.062-.253-.41-.253c-.248 0-.383.113-.506.208c-.169.124-.304.231-.619.074c-.185-.096-.281-.158-.343-.197c-.04-.028-.062-.045-.095-.056c-.062-.029-.14-.029-.405-.029c-.146 0-.293-.016-.433-.039c-.4-.05-.765-.096-.973.32m.281 4.779c0 .225-.748.096-1.124 0c-.281-.281.28-.562.562-.562c.281 0 .562.28.562.562M4.97 8.064c.095.096.337.225.562 0c.135-.135.523-.202.888-.27c.41-.073.799-.146.799-.292c0-.169-.214-.135-.512-.079c-.185.04-.393.08-.613.08c-.562 0-1.124.28-1.124.561m-.563 1.687c-.45.225-.562-.095-.562-.28c.349 0 .371-.113.41-.254a.53.53 0 0 1 .152-.31c.282-.28.282.282.282.563c0 .14.073.14.073.14s-.073 0-.355.141m1.968 1.687c.282-.377.9-1.068 1.125-.843c.281.28-.843 1.405-1.125.843m-1.686 1.406c.45.225 0 .466-.282.562c-.163.068-.28 0-.28-.281s0-.562.562-.281"/><path fill="url(#SVGNTdk0dwP)" d="M6.69 4.736c.168.134.432.236.81.236h1.686c-.281 0-1.968-.563-.843-.844c.584-.146.635-.067.714.045c.067.107.152.236.691.236c.478 0 .799-.1 1.04-.168c.321-.107.484-.158.647.168c.169.338.135.371.017.467c-.079.068-.185.158-.298.377c-.186.377-.624.5-1.063.624c-.219.062-.438.124-.618.22c-.169.084-.36.14-.517.19c-.377.113-.563.17.23.372c.416.1.635.247.81.354c.298.185.45.28 1.158-.073c.562-.281.776-.495.95-.67c.175-.174.315-.314.737-.455c.461-.152.416-.31.377-.461c-.034-.13-.068-.253.185-.382c.298-.152.517-.057.703.01c.158.068.292.119.422-.01c.14-.14.14-.214.14-.315c0-.107 0-.248.14-.529c.108-.213.26-.393.411-.528a8.97 8.97 0 0 0-8.53 1.136m9.457 15.249a9 9 0 0 1-12.381-4.347c.416-.607 1.029-1.237 1.765-1.389c.94-.095 2.868-.28 3.093-.28c.095 0 .185.033.315.072c.247.085.618.208 1.372.208c.393 0 .764-.073 1.102-.135c.618-.123 1.164-.224 1.71.135c.387.26 1.067.456 1.635.619c.675.202 1.198.354.9.506c-.281.14-.427.14-.562.14c-.147 0-.281 0-.563.141c-.264.13-.168.315-.067.506c.112.23.236.467-.22.619c-.376.123-.64-.028-.871-.17c-.281-.162-.506-.297-.815.17c-.14.213-.304.41-.45.584c-.41.506-.675.822.169.822c.32 0 .573.022.787.044c.545.045.86.073 1.462-.326c.393-.259.596-.579.736-.787c.17-.253.237-.36.394-.056c.281.562.562.843.843 1.125c.135.14.068.14-.18.14c-.247 0-.669 0-1.23.14c-.333.085-.659.141-.934.192c-.658.112-.984.168-.192.37c.625.158.816.316 1.012.467c.147.13.299.253.675.377c.169.056.338.09.495.113"/><defs><linearGradient id="SVG4RlXLcRt" x1="5.251" x2="16.501" y1="6.374" y2="19.029" gradientUnits="userSpaceOnUse"><stop stop-color="#51307f"/><stop offset=".43" stop-color="#221b3a"/><stop offset="1" stop-color="#855b9a"/></linearGradient><linearGradient id="SVGm4f1lbqN" x1="11.998" x2="20.907" y1="3" y2="16.642" gradientUnits="userSpaceOnUse"><stop stop-color="#51307f"/><stop offset=".15" stop-color="#56285d"/><stop offset=".48" stop-color="#47193d"/><stop offset=".71" stop-color="#8d1872"/><stop offset=".91" stop-color="#c56cdc"/><stop offset="1" stop-color="#da25d7"/></linearGradient><linearGradient id="SVGNTdk0dwP" x1="13.122" x2="10.165" y1="3.285" y2="20.997" gradientUnits="userSpaceOnUse"><stop stop-color="#5277c5"/><stop offset=".13" stop-color="#1545a0"/><stop offset=".17" stop-color="#393381"/><stop offset=".56" stop-color="#1545a0"/><stop offset=".72" stop-color="#4afafb"/><stop offset=".87" stop-color="#136ac4"/><stop offset=".94" stop-color="#25a3e3"/><stop offset="1" stop-color="#4afafb"/></linearGradient></defs></g></svg>