<svg xmlns="http://www.w3.org/2000/svg" viewBox="0 0 24 24"><path fill="#00fe01" d="M9.48 4.36h-.402l-.254.308v.407l-.09.085l-.413.053l-1.006 1.286l.053.424l-.117.143l.016.143l-.561.29v2.41l.53.307l-.006.185l.106.111l-.042.402l.99 1.287l.412.053l.128.106v.408l.248.307h.01h-.004v.148l-.254.296v2.113l-.165.074H6.277l-.1-.074v-.424l-.318-.296l.005-.122l.312-.291v-1.885l-.28-.296l.005-.128l.275-.275v-.407l-.307-.302h-.402l-.053-.053l-.053-.418L3.672 9.59l-.407.053L3 9.967l.053.423l1.694 1.154l.37-.037v.408l.34.307h.026v.074l-.365.297v1.89l.333.302v.127h-.005l-.328.296v.424l.328.286h.413l.132.137v.424l.286.286H8.66l.165-.286v-.424l.142-.137h.535l.381-.286v-2.113l-.38-.296l-.006-.159l.386-.296v-.408L9.485 12h-.407l-.053-.08l.047-.349l-1.006-1.292l-.412-.053v-.005l.11-.296V7.526l-.084-.301v-.027l.016-.016l.413-.047l.99-1.292l-.053-.413l.053-.053h.397l.386-.307v-.402l.043-.08h4.16l.033.08v.402l.397.307h.402l.042.053l-.047.413l.99 1.292l.413.053l.016.01v.027l-.096.301v2.399l.122.296v.01l-.413.048l-1.006 1.292l.053.418l-.08.01H14.5l-.381.36v.409l.38.307h.006l-.005.148l-.381.296v2.113l.38.286h.414l.264.137v.424l.292.286h2.276l.28-.286v-.424l.133-.137h.413l.312-.286v-.424l-.312-.296v-.127l.312-.302v-1.89l-.349-.297v-.074h.026l.323-.307v-.407l.392.037l1.678-1.16l.048-.418l-.254-.318l-.408-.053l-1.678 1.139l-.053.423l-.053.048h-.407l-.323.302v.407l.29.275l.011.128l-.302.296V14.5l.329.29l.005.123l-.334.296v.424l-.084.074h-2.4l-.164-.074V13.52l-.255-.296v-.148l-.005-.006l.297-.302v-.407h.01l.09-.106l.413-.053l.99-1.287l-.042-.402l.106-.106l-.006-.19l.52-.307V7.5l-.552-.29l.016-.143l-.116-.143l.053-.424l-1.006-1.286l-.413-.053l-.1-.085v-.407l-.25-.308h-.396l-.133-.105V3.83l-.317-.302H9.925l-.318.302v.424zm1.673 6.052h-.44l-.301.29v1.007l.301.29h.44l.317-.29v-1.006zm2.133 0h-.439l-.317.29v1.007l.317.29h.44l.301-.29v-1.006zm-1.815 6.522v-.402l-.292-.291l-.423-.006l-.344.302v.397l-.106.116h-.387l-1.99 1.906v.334l-.133.122H5.7l-.058-.122v-.334l-.36-.286h-.418l-.281.286v.413l.28.28h.424l.132.133v.408l.281.28h2.091l.291-.28v-.408l.133-.132l.418.005l1.985-1.906l.005-.402l.122-.133h.397l.318-.28zm1.059 0l.317.286h.402l.122.127v.397l1.99 1.911h.414l.132.127v.408l.296.28h2.086l.286-.28v-.408l.133-.132h.423l.28-.28v-.414l-.285-.286h-.418l-.355.286v.334l-.064.122h-2.086l-.132-.122v-.408l-1.99-1.832h-.413l-.08-.116v-.413l-.35-.286h-.417l-.291.297z"/></svg>