<svg xmlns="http://www.w3.org/2000/svg" viewBox="0 0 24 24"><g fill="none"><path fill="url(#SVG0tWcMdbB)" d="M7.49 15.532c-.098-1.07-.18-3.42-.21-4.456c.059-.238.39-.409.54-.467c2.238-.015 6.913-.049 7.75-.049c.832 0 1.119.472 1.158.715c-.059.36-.175 1.547-.175 3.425c0 2.345-2.248 6.3-4.52 6.3s-4.417-4.13-4.544-5.468"/><path fill="url(#SVGLf9Rbcul)" d="M10.214 11.84q-1.15-.06-2.287-.244c.419.238 1.849.705 4.233.705c2.982 0 4.208-.574 4.208-.924c0-.287-.278-.452-.419-.506l-.384.083c.03.042.045.094.044.146c-.4.812-2.306.924-3.454.924c-.91 0-1.674-.122-1.946-.185z"/><path fill="#26203a" d="M12.142 11.888c-2.462 0-3.007-.594-2.973-.896h5.935v.112c.04.258-.5.784-2.962.784"/><path fill="#4470d1" d="M12.14 11.582c-1.615 0-1.975-.39-1.946-.584h3.887v.068c.025.17-.33.516-1.945.516z"/><path fill="#335ca7" d="M7.295 11.173c0-.17.257-.394.389-.486l.38.146l-.161.749a4 4 0 0 1-.589-.18a.8.8 0 0 1-.02-.224z"/><path fill="#496bac" d="M7.68 11.237c0 .184.189.33.281.379c.487.083 1.625.248 2.287.238c-1.265-.18-1.606-.69-1.61-.924l-.628-.097c-.107.053-.33.219-.33.403"/><path fill="#9ea3b6" d="m9.227 11.046l-.623-.117c.015.365.584 1.066 2.71.94c-1.591-.074-2.053-.58-2.092-.828z"/><path fill="url(#SVGl7XvwcGz)" d="M11.232 11.868h-.837c3.298.481 5.492-.302 5.167-.925l-.56.098c.005.778-2.51.875-3.77.827"/><path fill="url(#SVGLNNkrdbe)" d="M14.646 11.09H9.601c-.53 0-1.8-.156-2.627-.768c-1.046-.774-.72-2.788-.603-3.221C6.488 6.673 7.568 3 11.985 3c4.422 0 5.79 3.99 5.838 4.592v.02a4 4 0 0 1-.37 2.233c-.37.827-2 1.182-2.807 1.245"/><path fill="#ffffba" d="M13.746 4.99h-3.352c-.837 0-2.72.195-2.72 2.01s1.538 3.648 4.257 3.648c2.72 0 4.301-1.62 4.301-3.649c0-1.625-1.654-2.019-2.486-2.009"/><path fill="url(#SVGdSqHWdPc)" d="M13.687 5.083h-3.245c-.812 0-2.632.185-2.632 1.946c0 1.751 1.489 3.522 4.116 3.522c2.632 0 4.164-1.557 4.164-3.527c0-1.572-1.605-1.946-2.408-1.946z"/><path fill="#c9d3e8" d="M6.678 6.474c-.102.014-.273.52-.346.768a7.5 7.5 0 0 0-.116 1.294c.01.438.082.574.116.584c.195 0 .346-.584.39-1.012c.048-.423.087-1.654-.044-1.634"/><path fill="#251f38" d="M6.692 6.697c-.093.014-.243.438-.307.642c-.034.204-.107.71-.097 1.07s.068.477.097.487c.175 0 .307-.487.34-.842c.045-.35.079-1.372-.033-1.357"/><path fill="url(#SVGNQtuRbgc)" d="M5.188 6.386c0 1.814.56 2.383.842 2.437c.56 0 .443-.959.37-2.773s-.307-2.802-.462-2.802s-.745.87-.745 3.138z"/><path fill="#ffffba" d="M6.158 4.728c-.496.082-.851 0-.89 0c-.059.014-.034.078-.02.112c.049.014.185.039.414.039c.287 0 .467-.02.496-.04c.02-.019.01-.082 0-.111"/><path fill="url(#SVG0dPb5drq)" d="M5.446 8.128c.063-.175.126-.423.126-.73c0-.433-.228-.74-.38-.876c.01.73.118 1.25.254 1.606"/><path fill="#c9d3e8" d="M17.321 6.474c.107.014.277.52.35.768c.049.253.127.861.117 1.294c-.015.438-.083.574-.117.584c-.194 0-.35-.584-.389-1.012c-.049-.423-.087-1.654.039-1.634"/><path fill="#251f38" d="M17.312 6.697c.092.014.243.438.301.642c.04.204.112.71.098 1.07c-.005.36-.068.477-.098.487c-.17 0-.301-.487-.34-.842c-.039-.35-.073-1.372.039-1.357"/><path fill="url(#SVGFfz89bdU)" d="M18.81 6.386c0 1.814-.56 2.383-.837 2.437c-.56 0-.448-.959-.37-2.773c.073-1.815.306-2.802.462-2.802s.744.87.744 3.138"/><path fill="#ffffba" d="M17.847 4.728c.496.082.851 0 .89 0c.059.014.034.078.015.112q-.202.046-.409.039c-.287 0-.467-.02-.496-.04c-.024-.019-.01-.082 0-.111"/><path fill="url(#SVG7G9DydXk)" d="M18.553 8.128a2.1 2.1 0 0 1-.122-.73c0-.433.229-.74.38-.876a4.7 4.7 0 0 1-.258 1.606"/><path fill="url(#SVGkUwNQOve)" d="M13.595 5.185h-3.07c-.768 0-2.495.18-2.495 1.868c0 1.693 1.41 3.395 3.906 3.395c2.49 0 3.946-1.503 3.946-3.395c0-1.508-1.523-1.873-2.287-1.868"/><path fill="#483d6f" d="M15.498 8.63a8 8 0 0 1-3.415.671c-1.606 0-2.788-.257-3.513-.481c.628.939 1.776 1.63 3.367 1.63c1.741 0 2.972-.73 3.56-1.82"/><path fill="url(#SVGVWasHkGY)" d="M9.558 6.614h-.827a1.05 1.05 0 0 1 1.046-.837zm1.216-.832h-.91l-.19.818h1.1zm-2.072.925h.837l-.078.34h-.847z"/><path fill="url(#SVGAVuEQe8H)" d="M10.347 8.472c.583 0 1.055-.497 1.055-1.11c0-.612-.472-1.108-1.055-1.108S9.29 6.75 9.29 7.363c0 .612.473 1.109 1.056 1.109"/><path fill="url(#SVGb6bZDd2p)" d="M13.863 8.472c.583 0 1.056-.497 1.056-1.11c0-.612-.473-1.108-1.056-1.108s-1.055.496-1.055 1.109c0 .612.472 1.109 1.055 1.109"/><path fill="#ffffba" d="M8.891 5.35c-.243-.291-.535-.836-.662-1.109l.18-.14c.02.184.41.865.609 1.181c-.03.025-.093.069-.127.069m6.115-.019a5.4 5.4 0 0 0 .764-1.036l-.195-.146c-.034.18-.462.803-.7 1.104a.4.4 0 0 0 .131.078"/><path fill="#28233e" d="M7.281 11.68v.112c-.048.564-.156 1.722-.156 1.814s.22.691.331.983c.068-.19.205-.745.205-1.44c0-.696-.253-1.265-.38-1.47"/><path fill="url(#SVGe1X90bgy)" d="M5.257 16.038c0 2.029.652 2.666.973 2.734c.929 0 1.265-2.282 1.313-3.42c.112-1.221.166-3.658-.496-3.658c-.827 0-1.79 1.814-1.79 4.344"/><path fill="#829fd1" d="M5.441 16.413c0 .71.195.895.297.9c.243 0 .239-.633.204-.949c.005-.467-.029-1.4-.204-1.4c-.214 0-.297.563-.297 1.449"/><path fill="#ffffba" d="M6.337 16.635c-.643 0-.993.049-1.12.073l-.029-.146c.137-.024.497-.073 1.149-.073c.564 0 .875.078 1.06.122l.088.024l-.04.146l-.087-.024a3.7 3.7 0 0 0-1.021-.122"/><path fill="url(#SVGQt5ZRdVG)" d="M18.635 16.038c0 2.029-.647 2.666-.973 2.734c-.924 0-1.265-2.282-1.314-3.42c-.107-1.221-.16-3.658.501-3.658c.828 0 1.786 1.814 1.786 4.344"/><path fill="#829fd1" d="M18.456 16.413c0 .71-.2.895-.302.9c-.238 0-.233-.633-.204-.949c0-.467.034-1.4.204-1.4c.22 0 .302.563.302 1.449"/><path fill="#ffffba" d="M17.554 16.635c.648 0 .998.049 1.12.073l.033-.146c-.136-.024-.5-.073-1.153-.073c-.564 0-.87.078-1.06.122l-.083.024l.034.146l.088-.024c.194-.049.476-.122 1.021-.122"/><path fill="url(#SVG74JepdIB)" d="M10.277 13.445L9.61 15.09H10l.661-1.57a.1.1 0 0 1 .088-.054a.1.1 0 0 1 .087.053l.623 1.571h.399l-.647-1.639a.5.5 0 0 0-.467-.311a.5.5 0 0 0-.467.306m1.844-.306h.399v1.95h-.4v-1.95m.807 1.96v-.365h1.168c.136 0 .248-.107.248-.233a.24.24 0 0 0-.243-.229h-.633c-.321 0-.584-.248-.584-.554s.263-.555.584-.555h1.066v.345h-1.046c-.132 0-.244.103-.244.23c0 .12.112.223.244.223h.598c.336 0 .603.258.603.57a.583.583 0 0 1-.603.568z"/><defs><linearGradient id="SVG0tWcMdbB" x1="16.728" x2="8.638" y1="11.864" y2="18.144" gradientUnits="userSpaceOnUse"><stop stop-color="#89b9ed"/><stop offset=".89" stop-color="#1b5ccf"/><stop offset="1" stop-color="#6095d0"/></linearGradient><linearGradient id="SVGLf9Rbcul" x1="9.202" x2="15.959" y1="11.98" y2="11.98" gradientUnits="userSpaceOnUse"><stop stop-color="#6192e0"/><stop offset="1" stop-color="#97c1ef"/></linearGradient><linearGradient id="SVGl7XvwcGz" x1="10.867" x2="15.425" y1="12.082" y2="11.615" gradientUnits="userSpaceOnUse"><stop stop-color="#b9c5de"/><stop offset="1" stop-color="#667ab0"/></linearGradient><linearGradient id="SVGLNNkrdbe" x1="12.038" x2="12.038" y1="3" y2="11.09" gradientUnits="userSpaceOnUse"><stop stop-color="#72cdff"/><stop offset=".84" stop-color="#3856dc"/><stop offset=".98" stop-color="#4a6dd8"/></linearGradient><linearGradient id="SVGdSqHWdPc" x1="11.955" x2="11.955" y1="5.078" y2="10.551" gradientUnits="userSpaceOnUse"><stop stop-color="#8091bf"/><stop offset="1" stop-color="#d2dbed"/></linearGradient><linearGradient id="SVGNQtuRbgc" x1="5.826" x2="5.826" y1="3.248" y2="8.823" gradientUnits="userSpaceOnUse"><stop stop-color="#72cdff"/><stop offset="1" stop-color="#252b8c"/></linearGradient><linearGradient id="SVG0dPb5drq" x1="5.383" x2="5.383" y1="6.522" y2="8.128" gradientUnits="userSpaceOnUse"><stop stop-color="#32469f"/><stop offset="1" stop-color="#5ea3e0"/></linearGradient><linearGradient id="SVGFfz89bdU" x1="18.172" x2="18.172" y1="3.248" y2="8.823" gradientUnits="userSpaceOnUse"><stop stop-color="#72cdff"/><stop offset="1" stop-color="#252b8c"/></linearGradient><linearGradient id="SVG7G9DydXk" x1="18.621" x2="18.621" y1="6.522" y2="8.128" gradientUnits="userSpaceOnUse"><stop stop-color="#32469f"/><stop offset="1" stop-color="#5ea3e0"/></linearGradient><linearGradient id="SVGkUwNQOve" x1="8.03" x2="15.741" y1="6.892" y2="6.892" gradientUnits="userSpaceOnUse"><stop stop-color="#27213b"/><stop offset=".61" stop-color="#4a3f73"/><stop offset="1" stop-color="#28223c"/></linearGradient><linearGradient id="SVGVWasHkGY" x1="9.694" x2="9.543" y1="5.777" y2="7.329" gradientUnits="userSpaceOnUse"><stop stop-color="#9490a1"/><stop offset="1" stop-color="#9490a1" stop-opacity="0"/></linearGradient><linearGradient id="SVGAVuEQe8H" x1="10.347" x2="10.347" y1="6.254" y2="8.472" gradientUnits="userSpaceOnUse"><stop stop-color="#fff962"/><stop offset="1" stop-color="#fcbe43"/></linearGradient><linearGradient id="SVGb6bZDd2p" x1="13.863" x2="13.863" y1="6.254" y2="8.472" gradientUnits="userSpaceOnUse"><stop stop-color="#fff962"/><stop offset="1" stop-color="#fcbe43"/></linearGradient><linearGradient id="SVGe1X90bgy" x1="6.434" x2="6.434" y1="11.694" y2="18.772" gradientUnits="userSpaceOnUse"><stop stop-color="#87b7fd"/><stop offset="1" stop-color="#325ca9"/></linearGradient><linearGradient id="SVGQt5ZRdVG" x1="17.458" x2="17.458" y1="11.694" y2="18.772" gradientUnits="userSpaceOnUse"><stop stop-color="#87b7fd"/><stop offset="1" stop-color="#325ca9"/></linearGradient><linearGradient id="SVG74JepdIB" x1="9.917" x2="14.315" y1="14.783" y2="14.783" gradientUnits="userSpaceOnUse"><stop stop-color="#c6ad40"/><stop offset="1" stop-color="#ffe45b"/></linearGradient></defs></g></svg>