<svg xmlns="http://www.w3.org/2000/svg" viewBox="0 0 24 24"><g fill="none"><path fill="url(#SVG1Y9yXddx)" d="M12 3.006v9.033l-3.538-3.6c-1.142.979-1.49 2.83-1.541 3.6c0 3.066 3.06 5.204 5.079 4.984V21c-7.099-.337-8.96-6.114-9-8.96c0-6.323 5.45-9.18 9-9.034"/><path fill="url(#SVGeAAN0dIw)" d="M12 20.995V11.96l3.538 3.6c1.142-.979 1.49-2.83 1.541-3.6c0-3.066-3.06-5.203-5.079-4.984V3c7.099.338 8.96 6.115 9 8.96c0 6.323-5.45 9.18-9 9.035"/><defs><linearGradient id="SVG1Y9yXddx" x1="12" x2="12" y1="3" y2="21" gradientUnits="userSpaceOnUse"><stop offset=".32" stop-color="#00e8f2"/><stop offset="1" stop-color="#3f28f7"/></linearGradient><linearGradient id="SVGeAAN0dIw" x1="16.5" x2="16.5" y1="21" y2="3" gradientUnits="userSpaceOnUse"><stop offset=".46" stop-color="#ea00d1"/><stop offset="1" stop-color="#6401f2"/></linearGradient></defs></g></svg>