<svg xmlns="http://www.w3.org/2000/svg" viewBox="0 0 24 24"><g fill="none"><path fill="#039607" d="M15.235 3.828a.414.414 0 1 0 0-.829a.414.414 0 0 0 0 .829M9.567 6.472a2.736 2.736 0 0 0-3.44-.237a1.3 1.3 0 0 0-.345.375q-.01.015-.026 0c-.01 0-.016-.015-.005-.025a2.8 2.8 0 0 1 .555-.659a6.67 6.67 0 0 1 4.037-1.687c.072 0 .114.026.114.098c.02 1.265 0 2.469 0 3.61c0 .119.015.242-.006.381c-.025.144-.04.14-.05 0a2.66 2.66 0 0 0-.834-1.851zm9 4.202c.119-.252.206-.448.494-.566c.206-.088.458.108.566.267c.195.273.04.669-.257.787c-.206.077-.412.031-.602-.129a.16.16 0 0 0-.15-.025q-1 .31-1.995.643a2 2 0 0 0-.375.18a.15.15 0 0 0-.062.072c-.113.288-.257.514-.612.463c-.535-.093-.494-.654-.278-1.029a.14.14 0 0 0 .016-.113l-.592-2.047a.18.18 0 0 0-.123-.129c-.453-.123-.756-.545-.365-.956c.128-.144.108-.34.077-.515l-.34-2.005a.43.43 0 0 0-.288-.355a.17.17 0 0 1-.077-.062c-.437-.643.376-1.296.895-.597c.026.031.051.052.087.052c.288.072 1.26.293 1.497.03c.5-.54 1.286.18.787.72c-.34.36-.72.145-.936-.22a.15.15 0 0 0-.118-.072c-.386-.036-.9-.196-1.245-.062c-.267.103-.36.35-.293.74q.162.927.293 1.806c.052.344.196.36.412.565c.421.37-.103.628.01 1.024l.535 1.887a.4.4 0 0 0 .205.258c.237.113.386.241.659.154q1.012-.325 2.093-.69a.13.13 0 0 0 .082-.076m-.113-4.485a.443.443 0 1 0 .135-.875a.443.443 0 0 0-.135.875"/><path fill="#039607" d="m16.047 7.15l.062.165q.469.925.915 1.774c.18.34.514.082.72.494a.45.45 0 0 1 0 .411c-.154.324-.545.453-.843.237c-.278-.206-.16-.57-.093-.859a.2.2 0 0 0-.01-.118a31 31 0 0 0-1.08-2.047a.11.11 0 0 0-.103-.057c-.612-.01-.792-.818-.154-1.039c.385-.133.725.206.668.576a.104.104 0 0 0 .052.119l.941.576q.054.03.108.015c.072-.01.139-.03.206-.051c.288-.114.576.005.678.288c.258.74-.946 1.116-1.028.133a.12.12 0 0 0-.041-.082a5 5 0 0 0-.947-.576c-.05-.026-.061-.01-.05.041m3.142 1.79a.314.314 0 1 0 0-.628a.314.314 0 0 0 0 .628m-9.684 9.602l.077-.036a7.6 7.6 0 0 0 1.744-1.28l.617-.607c.051-.052.082-.042.103.03c.103.561.236 1.132.205 1.698q-.045 1.233-.617 2.335c-.04.087-.097.17-.154.247q-.131.16-.093-.041a4.5 4.5 0 0 0-.205-2.47q-.076-.177-.237-.071a11.7 11.7 0 0 1-2.453 1.327c-.53.19-1.214.236-1.456-.407a2 2 0 0 1-.133-.71a.37.37 0 0 0-.15-.298l-.334-.247a.29.29 0 0 1-.102-.301a.3.3 0 0 1 .05-.1l.098-.118q.046-.06-.03-.052a.9.9 0 0 1-.571-.133a.1.1 0 0 1-.052-.062a.57.57 0 0 1 .072-.468c.047-.077.036-.165-.025-.257a.2.2 0 0 0-.155-.082c-.488-.01-.94.077-1.172-.468c-.052-.114-.134-.206-.072-.34l.58-1.209c.104-.216.207-.468.073-.689q-.62-1.071-.766-2.18a10.2 10.2 0 0 1 0-2.222h.025l.01.02c.062.643.114 1.322.391 1.872a.06.06 0 0 0 .036.031a.06.06 0 0 0 .052-.01a3 3 0 0 1 1.183-.437c.447-.067 1.466-.016 1.661.483a.08.08 0 0 1-.04.096a.1.1 0 0 1-.037.007c-.772-.072-2.14.098-2.484.916c-.062.139-.02.175.113.103a2.59 2.59 0 0 1 2.484-.14c.036.021.041.042.015.078a3.2 3.2 0 0 0-.365 3.564q.254.493.695.715c.036.015.072.02.108 0a1.1 1.1 0 0 0 .416-.257a4.12 4.12 0 0 0 1.234-2.387a.05.05 0 0 1 .036-.023l.023.002l.019.011q.525.4 1.08.602q.047.022.056.067c.026.133 0 .246.057.38a.87.87 0 0 0 .38.401a.124.124 0 0 1 .057.16a8.2 8.2 0 0 1-2.078 2.885c-.072.062-.056.088.031.072M5.74 15.765a.12.12 0 0 1-.025-.067l-.026-1.543q.001-.147-.052-.015a5 5 0 0 0-.236.72c-.072.283-.077.58-.17.859a.077.077 0 0 0 .052.102l.442.093a.05.05 0 0 0 .062-.062a.2.2 0 0 0-.052-.082z"/><path fill="#f6003e" d="M12.025 15.205c.546.113.9-.113.895-.679q-.001-.062.052-.092a.8.8 0 0 1 .216-.083c.056-.015.113-.026.17-.051a2.72 2.72 0 0 0 1.723-2.366c.03-.411-.067-.864-.299-1.368c-.103-.242-.298-.463-.483-.684a7 7 0 0 1-.304-.365a2.3 2.3 0 0 1-.463-1.332c.01-1.363.01-4.382.01-4.382c0-.252-.462-.309-.668-.32c-.499-.03-1.286-.071-1.774.114a.2.2 0 0 0-.083.062l-.005.015c-.02.026-.04.052-.04.082v3.997c0 .499-.021.987-.258 1.465c-.108.232-.283.422-.447.618a3 3 0 0 0-.36.452a2.6 2.6 0 0 0 .138 3.189c.379.46.891.79 1.466.946c.041.01.067.041.077.082q.022.078.02.155c0 .262.124.483.412.545zm1.065-7.324q.048 0 .088.031q.1.1-.016.19a.1.1 0 0 1-.062.02h-1.409a.09.09 0 0 0-.077.042a1.3 1.3 0 0 0-.118.309a1.66 1.66 0 0 1-.38.745c-.062.072-.083.067-.052-.025c.144-.38.22-.787.241-1.23c0-.025.016-.046.031-.061a.1.1 0 0 1 .067-.026h1.692zm.525 2.546a1.824 1.824 0 0 1 0 2.623a1.95 1.95 0 0 1-2.566.131a1.95 1.95 0 0 1-.572-.728a1.8 1.8 0 0 1 .422-2.026a1.93 1.93 0 0 1 1.358-.54c.514 0 .998.195 1.358.54m-1.471 4.423q-.025.079-.072.088c-.016.005-.036 0-.052-.006a.2.2 0 0 1-.051-.046a.3.3 0 0 1-.052-.072a.5.5 0 0 1-.025-.087a.4.4 0 0 1-.005-.18c.01-.052.04-.083.072-.088l.051.005q.03.015.051.047c.021.02.036.04.052.072l.026.087a.35.35 0 0 1 0 .18zm1.733-3.106c0 .859-.725 1.558-1.62 1.558a1.59 1.59 0 0 1-1.615-1.558c0-.864.72-1.564 1.615-1.564a1.59 1.59 0 0 1 1.62 1.564"/><path fill="#039607" d="M17.446 13.405a8 8 0 0 0-.309.992c-.04.155.052.268.124.396c.103.17.077.402-.02.576c-.14.247-.515.237-.731.119c-.129-.067-.268-.041-.39.02l-2.223 1.152c-.118.062-.133.237-.144.36c-.03.283-.411.479-.674.38c-.4-.153-.56-.647-.22-.95c.205-.18.534-.13.76-.047a.28.28 0 0 0 .227-.015l2.196-1.152c.164-.088.236-.304.298-.474a.24.24 0 0 1 .062-.097c.17-.16.375-.077.478-.36a6 6 0 0 0 .262-.993a.16.16 0 0 0-.058-.154a.17.17 0 0 0-.163-.026q-.672.263-1.368.566c-.144.067-.288.139-.365.293c-.22.427-.586.437-.818.01a.2.2 0 0 1 0-.175a.56.56 0 0 1 .35-.324a.13.13 0 0 1 .093 0a.68.68 0 0 0 .514 0c.412-.164.849-.354 1.327-.565c.165-.072.21-.257.257-.412a.49.49 0 0 1 .494-.36c.319.01.524.17.612.489c.082.308-.232.55-.484.658a.15.15 0 0 0-.087.093m.998.781a.272.272 0 1 0 0-.544a.272.272 0 0 0 0 .544m-2.885 3.498a.488.488 0 1 0 0-.976a.488.488 0 0 0 0 .976"/></g></svg>