<svg xmlns="http://www.w3.org/2000/svg" viewBox="0 0 24 24"><g fill="none"><path fill="#2891f9" d="M15.375 15.015v-1.89L17.625 12l.056 4.185z"/><path fill="#2b6def" d="m10.712 12.022l5.26-3.06l.309-3.122l-8.258 3.657v2.525zM17.642 21l2.233-1.407l-11.272-6.502L6.1 14.385z"/><path fill="#2891f9" d="M4.125 4.052L6.375 3v15.547L4.125 19.6zm11.25.326L17.625 3v5.946l-2.25 1.085z"/><path fill="#2bbdf7" d="M19.875 4.322L17.625 3v5.906l2.25 1.125zm-11.25-.27L6.375 3v15.547l2.25 1.052z"/><path fill="#2b6def" d="m6.375 18.187l-2.25 1.407L6.369 21l2.256-1.406zm11.25-9.562l-2.25 1.406l2.25 1.406l2.25-1.406z"/><path fill="#2891f9" d="M6.375 9.446L17.625 3v2.773L6.375 12z"/><path fill="url(#SVGdtDFddMb)" d="m6.375 11.999l13.5 7.594v-6.469l-2.25-1.125v3.937l-9.017-5.191z"/><defs><linearGradient id="SVGdtDFddMb" x1="7.775" x2="20.049" y1="13.585" y2="13.585" gradientUnits="userSpaceOnUse"><stop offset=".35" stop-color="#2b6def"/><stop offset=".76" stop-color="#2bbcf7"/></linearGradient></defs></g></svg>