<svg xmlns="http://www.w3.org/2000/svg" viewBox="0 0 24 24"><g fill="none"><path fill="url(#SVG91tjtcAu)" d="m3 7.5l9 9V21l-9-9z"/><path fill="url(#SVGypet4ERW)" d="m3 12l4.5-4.5V3L3 7.5z"/><path fill="#c58f3c" d="M5.25 9.75L3 12V7.5z"/><path fill="#ffaa27" d="M12 12L7.5 7.5V3L12 7.579z"/><path fill="url(#SVGBpCIAcJj)" d="m21 7.5l-9 9V21l9-9z"/><path fill="url(#SVG6gd0Tbyg)" d="m21 12l-4.5-4.5V3L21 7.5z"/><path fill="#d79b3f" d="M18.75 9.75L21 12V7.5z"/><path fill="#d28a1c" d="m12 12l4.5-4.5V3L12 7.579z"/><defs><linearGradient id="SVG91tjtcAu" x1="3" x2="12.98" y1="4.898" y2="24.985" gradientUnits="userSpaceOnUse"><stop stop-color="#955a00"/><stop offset=".79" stop-color="#f29f20"/></linearGradient><linearGradient id="SVGypet4ERW" x1="6.532" x2="13.466" y1="14.205" y2="-.138" gradientUnits="userSpaceOnUse"><stop stop-color="#9e877a"/><stop offset="1" stop-color="#fff"/></linearGradient><linearGradient id="SVGBpCIAcJj" x1="9.154" x2="12.601" y1="10.582" y2="15.596" gradientUnits="userSpaceOnUse"><stop stop-color="#b06e07"/><stop offset="1" stop-color="#c77e0c"/></linearGradient><linearGradient id="SVG6gd0Tbyg" x1="17.467" x2="10.534" y1="14.205" y2="-.138" gradientUnits="userSpaceOnUse"><stop stop-color="#9e877a"/><stop offset="1" stop-color="#fff"/></linearGradient></defs></g></svg>