<svg xmlns="http://www.w3.org/2000/svg" viewBox="0 0 24 24"><g fill="none"><path fill="url(#SVGenNGYcKF)" d="M17.133 7.682q2.566 2.551 3.594 3.599a.98.98 0 0 1 .27.656a1.1 1.1 0 0 1-.346.882a451 451 0 0 0-3.257 3.27c-.432.437-.936.545-1.485.226a4 4 0 0 1-.234-.207l-2.866-2.88c-.445-.45-.913-.503-1.408-.17c-.198.135-.396.369-.585.549q-1.245 1.238-2.474 2.492q-.323.33-.652.378c-.621.09-.886-.194-1.291-.603a325 325 0 0 0-3.042-3.06a1.1 1.1 0 0 1-.35-.688c-.045-.463.144-.733.467-1.057L6.75 7.79c.063-.062.148-.107.225-.161c.598-.284 1.02-.063 1.462.382q1.403 1.428 2.825 2.839a1.08 1.08 0 0 0 1.52-.04l2.93-2.947c.409-.405.881-.468 1.416-.18z"/><defs><linearGradient id="SVGenNGYcKF" x1="3" x2="21" y1="12" y2="12" gradientUnits="userSpaceOnUse"><stop stop-color="#3b00ca"/><stop offset="1" stop-color="#9a00e6"/></linearGradient></defs></g></svg>