<svg xmlns="http://www.w3.org/2000/svg" viewBox="0 0 24 24"><path fill="#5081f4" d="m20.362 9.763l-.055-.049l-.261-.24l-.682-.61l-.579-.524l-.098-.093l-.376.066l-3.59.37l-2.056-2.836a.4.4 0 0 0-.218-.136l-7.309-1.2l-.927-.147l.502.66l.36.474H3l.955.895l5.727 5.394l-1.642 7.85l.076-.12l3.05-4.823l5.274-2.59a.9.9 0 0 0 .447-.388l.993-1.352H21zm-15.687-3.6h.9l1.898 2.624zm1.047-.878l6.213 1.01l-1.964 4.772l-4.255-5.782zm3.649 11.09l.747-3.475l.507 1.45l-1.254 2.019zm1.784-2.406l-.655-1.964h4.636zm-.617-2.515l1.931-4.75l3.382 4.75zm5.956-.327l-1.336-1.833l2.75-.256l-1.419 2.095zm1.8-1.309l.35-.725l.845.725h-1.2z"/></svg>