<svg xmlns="http://www.w3.org/2000/svg" viewBox="0 0 24 24"><g fill="none"><path fill="#0eebff" d="m6.937 13.884l-.81-1.322L3 17.896L10.313 21l-1.126-1.687l-4.291-1.868zm10.125 0l.81-1.322L21 17.896L13.687 21l1.126-1.687l4.291-1.868z"/><path fill="url(#SVGLunRaduB)" d="M10.313 10.875L12 8.063l1.687 2.812l-.624 1.39l.624 1.422L12 16.5l-1.687-2.812l.624-1.424zm1.687 4.5l.996-1.687l-.282-.766l-.152.203v-1.226l.36-1.024L12 9.187l-.922 1.688l.36 1.024v1.226l-.152-.203l-.282.765z"/><path fill="url(#SVGPpkRxdPF)" d="M8.063 9.564L12 3l3.937 6.564l-.742 1.31L12 5.52l-3.195 5.355z"/><path fill="url(#SVGZonP4jXz)" d="M3 5.813L12 21l9-15.187L13.868 3l.944 1.688l4.281 1.569L12 18.379L4.907 6.262l4.28-1.574L10.133 3z"/><defs><linearGradient id="SVGLunRaduB" x1="12" x2="12" y1="3" y2="21" gradientUnits="userSpaceOnUse"><stop stop-color="#19f1fe"/><stop offset=".5" stop-color="#7f6efb"/><stop offset="1" stop-color="#8450fd"/></linearGradient><linearGradient id="SVGPpkRxdPF" x1="12" x2="12" y1="3" y2="21" gradientUnits="userSpaceOnUse"><stop offset=".18" stop-color="#3636e5"/><stop offset="1" stop-color="#1ca4fd"/></linearGradient><linearGradient id="SVGZonP4jXz" x1="12" x2="12" y1="3" y2="21" gradientUnits="userSpaceOnUse"><stop stop-color="#c63fff"/><stop offset=".49" stop-color="#6d5ffe"/><stop offset="1" stop-color="#268ef5"/></linearGradient></defs></g></svg>