<svg xmlns="http://www.w3.org/2000/svg" viewBox="0 0 24 24"><path fill="#0245b2" d="M20.855 13.614a9 9 0 0 0-.013-3.298l-3.217-.568v4.49zm-.16.717l-2.94.565v.005l1.148 2.874a9 9 0 0 0 1.792-3.444m-2.304 4.005l-.025.025l-3.087-1.234l1.883-1.884zm-.576.533a9 9 0 0 1-3.392 1.8l.519-2.954zm-4.109 1.968l.572-3.212H9.795l.626 3.236c1.087.193 2.2.184 3.285-.024m-4.002-.134l-.573-2.982l-2.925 1.165a9 9 0 0 0 3.499 1.819zm-4.56-2.874l1.167-2.923l-2.992-.525a9 9 0 0 0 1.825 3.448m-1.99-4.163a9 9 0 0 1-.01-3.277l3.231-.63v4.484zm.15-3.993l3.002-.577l-1.16-2.928a9 9 0 0 0-1.842 3.505m2.35-4.054L8.778 6.87L6.9 8.753zm.554-.507A9 9 0 0 1 9.64 3.313l-.52 2.963zm4.143-1.96l-.568 3.252h4.49l-.628-3.254a9 9 0 0 0-3.293.001m4.01.162l.57 2.957l2.881-1.142a9 9 0 0 0-3.45-1.815m3.999 2.318l.034.035l-1.232 3.086L15.28 6.87zm.536.585a9 9 0 0 1 1.78 3.382l-2.93-.514zm-6.865 5.03l2.102-4.31h-4.2zM6.938 9.898v4.2l4.344-2.102zm9.78-.642L14.77 7.314l-1.98 3.922zm.344 4.842v-4.2l-4.288 2.098zm-8.274 3.034l-.003-.004l.004-.001zm-.003-.004l-3.132 1.245l1.252-3.124zm7.933-2.388l-.003-.002l.003-.003zm-3.922-1.98l3.919 1.979l-1.94 1.943zm-.765-.02l-2.097 4.322h4.2zM7.35 9.255l3.921 1.98l-1.98-3.922zm0 5.479l.003.004l-.003.001zm.003.004l1.939 1.943l1.98-3.921z"/></svg>