<svg xmlns="http://www.w3.org/2000/svg" viewBox="0 0 24 24"><path fill-rule="evenodd" d="m18.676 8.871l-1.103-1.987l2.137.001c.057 0 .124.038.155.09l.416.696l.719 1.2zm-3.954 12.035c-.052.094-.119.094-.14.094h-2.187l3.397-6.182a.34.34 0 0 0-.004-.33a.33.33 0 0 0-.28-.163l-5.79.007l-1.15-2.02h8.435l.014-.002a.3.3 0 0 0 .118-.03a.32.32 0 0 0 .155-.141l1.39-2.605h2.294zm-2.892-.235l-.275-.458c-.35-.587-.8-1.34-.851-1.422c-.018-.028-.026-.096.01-.16l1.993-3.64l2.245-.003zm-3.828-3.869l-1.116-2.01l1.125-2.136l1.127 1.98zm-1.498.313H5.29a.2.2 0 0 1-.154-.09l-.363-.607L4 15.128h2.324l1.103 1.988zm3.774-14.02C10.33 3 10.396 3 10.418 3h2.196L9.208 9.182l-.007.016a.4.4 0 0 0-.03.093l-.003.037l-.001.016l.001.013a.3.3 0 0 0 .009.065l.01.031l.01.03l.016.028l.016.027l.02.025l.022.023l.024.02l.028.02l.01.007l.012.005a.3.3 0 0 0 .053.022l.02.006q.036.008.074.009h.147l5.644-.007l.665 1.18l.452.801H8.002l-.01.002a.32.32 0 0 0-.283.173l-1.39 2.642H4.026zm2.897.242l.204.34c.358.599.864 1.444.918 1.532c.017.028.024.095-.011.16l-1.994 3.64l-2.243.003zm3.822 3.858l1.117 2.01l-1.138 2.133l-.463-.82l-.668-1.184z" clip-rule="evenodd"/></svg>