<svg xmlns="http://www.w3.org/2000/svg" viewBox="0 0 24 24"><g fill="none"><path fill="#091b26" d="M5.743 17.367A8.224 8.224 0 0 1 16.48 5.097l.735-.377A8.958 8.958 0 0 0 5.239 17.9zm1.54-4.087l1.484 1.126l-2.45 2.59A7.537 7.537 0 0 1 15.92 5.56L8.858 9.199l-1.092.56l1.015.7l.72.504l-2.106 1.07l-1.05.54zm8.105-3.157l2.638-2.785A7.539 7.539 0 0 1 8.6 18.774l6.698-3.45l1.091-.56l-1.007-.7l-.728-.504l2.106-1.078l1.05-.532zm2.981-3.345a8.223 8.223 0 0 1-10.582 12.29l-.756.384A8.958 8.958 0 0 0 18.881 6.24z"/><path fill="#23bee2" d="m7.779 12.734l2.142 1.617l-4.836 5.102l9.616-4.97l-1.736-1.196l3.206-1.638l-2.142-1.624l4.837-5.095L9.249 9.9l1.736 1.196z"/></g></svg>