<svg xmlns="http://www.w3.org/2000/svg" viewBox="0 0 24 24"><g fill="none"><path fill="url(#SVGzqw9adBZ)" d="M4.594 17.108a8.95 8.95 0 0 1-1.577-5.491a4.8 4.8 0 0 0 1.577.65z"/><path fill="url(#SVGj8eufbAA)" d="M9.354 20.601a9 9 0 0 1-2.46-1.19h1.931v.529h.53z"/><path fill="url(#SVGNeiblbwY)" d="M10.413 20.86v-.921h.264v-.53h.265v-7.406h-.265v-.529h-.264v-1.058h3.174v1.058h-.265v.53h-.264v7.406h.264v.529h.265v.92a9 9 0 0 1-3.174 0"/><path fill="url(#SVGhugEycGo)" d="M17.105 19.41a9 9 0 0 1-2.46 1.191v-.661h.529v-.53z"/><path fill="url(#SVG8fUYmcfE)" d="M17.819 12.533h-3.174v1.058h.264v.529h.264v4.761h2.117V14.12h.264v-.53h.265z"/><path fill="url(#SVGGhcBmBgN)" d="M9.354 12.533H6.18v1.058h.265v.529h.264v4.761h2.116V14.12h.265v-.53h.264z"/><path fill="url(#SVGuODrBeCU)" d="M18.877 17.797a8.96 8.96 0 0 0 2.09-6.455h-.01a.27.27 0 0 1-.27.127c-.53.244-1.228.535-1.81.535z"/><path fill="url(#SVGoHgK2yvy)" d="M20.94 11.051a.264.264 0 0 0-.476.122c-1.47-.148-2.486-.704-2.814-1.302a.264.264 0 0 0 .077-.453a.26.26 0 0 0-.173-.06c-.264 0-.264.265-.264.265v.264h-2.645v-.793c1.27 0 2.29-.53 2.645-.794c-1.513.053-2.222-.54-2.497-1.08a.529.529 0 1 0-.677-.507H9.883a.53.53 0 1 0-.677.508a1.6 1.6 0 0 1-.413.545L4.333 7.3q.184-.301.392-.587h3.042l-2.693-.45a8.978 8.978 0 0 1 14.03.228l-3.401.487l3.915.243q.166.271.317.55h-3.174l3.418.487c.406.885.665 1.83.767 2.799z"/><path fill="url(#SVGH35Ifdhe)" d="M3.27 10.945a.27.27 0 0 0-.21.106c.105-1.08.412-2.1.877-3.037l4.857-.249c-.608.519-1.545.593-2.084.534c.211.635 1.497.794 2.116.794v.794H6.71v-.265a.265.265 0 1 0-.265.265c-.614 1.074-1.862 1.285-2.91 1.322a.265.265 0 0 0-.264-.264"/><defs><linearGradient id="SVGzqw9adBZ" x1="12" x2="12" y1="3.009" y2="20.997" gradientUnits="userSpaceOnUse"><stop offset=".71" stop-color="#c9af67"/><stop offset="1" stop-color="#a58c51"/></linearGradient><linearGradient id="SVGj8eufbAA" x1="40.276" x2="40.276" y1="-245" y2="27.001" gradientUnits="userSpaceOnUse"><stop offset=".71" stop-color="#c9af67"/><stop offset="1" stop-color="#a58c51"/></linearGradient><linearGradient id="SVGNeiblbwY" x1="12.026" x2="12.026" y1="-9.597" y2="20.995" gradientUnits="userSpaceOnUse"><stop offset=".71" stop-color="#c9af67"/><stop offset="1" stop-color="#a58c51"/></linearGradient><linearGradient id="SVGhugEycGo" x1="-16.225" x2="-16.225" y1="-245" y2="27.001" gradientUnits="userSpaceOnUse"><stop offset=".71" stop-color="#c9af67"/><stop offset="1" stop-color="#a58c51"/></linearGradient><linearGradient id="SVG8fUYmcfE" x1="-11.886" x2="-11.886" y1="-24" y2="27" gradientUnits="userSpaceOnUse"><stop offset=".71" stop-color="#c9af67"/><stop offset="1" stop-color="#a58c51"/></linearGradient><linearGradient id="SVGGhcBmBgN" x1="35.937" x2="35.937" y1="-24" y2="27" gradientUnits="userSpaceOnUse"><stop offset=".71" stop-color="#c9af67"/><stop offset="1" stop-color="#a58c51"/></linearGradient><linearGradient id="SVGuODrBeCU" x1="-55.255" x2="-55.255" y1="-20.238" y2="29.927" gradientUnits="userSpaceOnUse"><stop offset=".71" stop-color="#c9af67"/><stop offset="1" stop-color="#a58c51"/></linearGradient><linearGradient id="SVGoHgK2yvy" x1="11.334" x2="11.334" y1="3.021" y2="42.638" gradientUnits="userSpaceOnUse"><stop stop-color="#927a47"/><stop offset=".4" stop-color="#cab067"/><stop offset=".71" stop-color="#c9af67"/></linearGradient><linearGradient id="SVGH35Ifdhe" x1="12" x2="12" y1="3.009" y2="20.997" gradientUnits="userSpaceOnUse"><stop stop-color="#927a47"/><stop offset=".4" stop-color="#cab067"/><stop offset=".71" stop-color="#c9af67"/></linearGradient></defs></g></svg>