<svg xmlns="http://www.w3.org/2000/svg" viewBox="0 0 24 24"><g fill="none"><path fill="url(#SVGsD5NmQpN)" d="M11.93 3L4.06 7.5L12 12l7.942-4.5z"/><path fill="url(#SVGgLt2Xc7I)" d="M4.059 16.648V7.5l7.94 4.5v9z"/><path fill="url(#SVGuxMJ5bnn)" d="M19.941 16.648V7.5L12 12v9z"/><path fill="url(#SVGDDgFOcsz)" d="m12 7.727l3.706 2.118v4.235L12 16.198L8.294 14.08V9.845z"/><path fill="url(#SVGxMZ4ybBb)" d="M8.294 9.898L12 12v4.198L8.294 14.08z"/><path fill="url(#SVGfNy9lbdn)" d="M15.706 9.898v-.053L12 7.727L8.294 9.845v.053L12 11.999z"/><defs><linearGradient id="SVGsD5NmQpN" x1="14.853" x2="6.249" y1="6.653" y2="11.246" gradientUnits="userSpaceOnUse"><stop stop-color="#006aca"/><stop offset=".66" stop-color="#00dffa"/></linearGradient><linearGradient id="SVGgLt2Xc7I" x1="4.63" x2="11.563" y1="4.729" y2="23.314" gradientUnits="userSpaceOnUse"><stop stop-color="#0059cb"/><stop offset=".4" stop-color="#00c3e4"/></linearGradient><linearGradient id="SVGuxMJ5bnn" x1="18.882" x2="10.126" y1="5.012" y2="13.371" gradientUnits="userSpaceOnUse"><stop stop-color="#0062c8"/><stop offset="1" stop-color="#00e7ef"/></linearGradient><linearGradient id="SVGDDgFOcsz" x1="15.256" x2="12.158" y1="13.698" y2="21.063" gradientUnits="userSpaceOnUse"><stop stop-color="#00e0ff"/><stop offset="1" stop-color="#00c9ff"/></linearGradient><linearGradient id="SVGxMZ4ybBb" x1="6.895" x2="11.289" y1="6.176" y2="13.723" gradientUnits="userSpaceOnUse"><stop stop-color="#00c3ff"/><stop offset="1" stop-color="#00f1ff"/></linearGradient><linearGradient id="SVGfNy9lbdn" x1="10.301" x2="11.27" y1="8.871" y2="10.041" gradientUnits="userSpaceOnUse"><stop stop-color="#00c9ff"/><stop offset="1" stop-color="#00e8ff"/></linearGradient></defs></g></svg>