<svg xmlns="http://www.w3.org/2000/svg" viewBox="0 0 24 24"><g fill="none"><path fill="#dff8da" d="m12 3.895l7.205 4.05v8.11l-7.2 4.05l-7.21-4.05v-8.11L12 3.9z"/><path fill="#3b896a" d="m6.49 12.745l-2.15-2.46l3.816-.72z"/><path fill="#4ed9ab" d="M8 17.8v-5.665l4.185-7.455l3.55 6.95z"/><path fill="#3b896a" d="m16.795 17.916l-4.69-2.63l3.79-2.89z"/><path fill="#4cdac7" d="M16.045 11.345L14.6 8.52l4.28.915z"/><path fill="#4ed9ab" d="M7.35 11.71L5.2 9.25l3.816-.72z"/><path fill="#4edbc8" fill-rule="evenodd" d="M20 7.5L12 3L4 7.5v9l8 4.5l8-4.5zm-1 .545l-7-3.96l-7 3.96v7.905l7 3.96l7-3.96z" clip-rule="evenodd"/></g></svg>