<svg xmlns="http://www.w3.org/2000/svg" viewBox="0 0 24 24"><path d="M12 3c-4.974 0-9 4.026-9 9s4.026 9 9 9s9-4.026 9-9s-4.026-9-9-9m-.386 3.64a.76.76 0 0 1 .755.025q1.259.72 2.516 1.452c.269.159.403.41.403.72c.008 1.091 0 2.173 0 3.264c0 .042-.025.1-.059.117c-.318.193-.654.378-1.006.587V9.282c0-.218-.076-.352-.26-.46a522 522 0 0 1-2.92-1.678c-.041-.026-.083-.05-.15-.093c.26-.16.478-.293.721-.41m-.184 11.122c-.06-.025-.093-.05-.135-.067c-1.283-.738-2.575-1.493-3.866-2.222c-.361-.21-.529-.504-.52-.915q.012-1.32 0-2.642c0-.394.159-.688.511-.88c.906-.52 1.812-1.04 2.71-1.56c.075-.043.134-.051.218 0q.465.276.956.553a2 2 0 0 1-.16.092c-.973.562-1.954 1.132-2.927 1.686c-.16.092-.235.21-.235.394c.009.697.009 1.384 0 2.08c0 .193.076.31.235.403c1.032.587 2.063 1.191 3.095 1.778c.084.05.126.1.126.21c-.008.36-.008.713-.008 1.09m0-1.98a4 4 0 0 1-.218-.125c-.822-.47-1.636-.948-2.458-1.417c-.092-.05-.126-.101-.117-.21c.008-.528 0-1.065 0-1.594c0-.075.008-.126.083-.16c.302-.167.604-.343.898-.52a.4.4 0 0 1 .084-.041v.595c0 .327.008.646 0 .973c0 .185.067.31.226.403c.461.26.923.537 1.384.797c.093.05.118.109.118.21zm-.94-6.994a.44.44 0 0 0-.495 0c-.973.57-1.946 1.132-2.927 1.694c-.042.025-.084.042-.16.084c.026-.37-.05-.722.076-1.057a.8.8 0 0 1 .37-.42l2.44-1.409a.85.85 0 0 1 .897.009c.923.537 1.854 1.065 2.777 1.602c.042.025.092.075.092.109c.008.377 0 .763 0 1.174c-.335-.193-.646-.377-.956-.554c-.705-.41-1.41-.813-2.114-1.232M17 14.776c-.026.302-.202.512-.462.663c-.99.57-1.988 1.14-2.978 1.72c-.31.176-.62.36-.93.536a2 2 0 0 1-.127.067c0-.05-.008-.092-.008-.125v-.99c0-.076.017-.118.084-.16c1.442-.83 2.894-1.669 4.336-2.5a.4.4 0 0 1 .084-.041c.009.294.025.562 0 .83m.008-2.063c0 .344-.185.579-.479.746c-1.132.655-2.264 1.3-3.388 1.955c-.21.117-.411.235-.638.36c0-.058-.008-.092-.008-.134v-.973c0-.092.025-.142.109-.184c1.023-.587 2.055-1.183 3.078-1.77c.185-.1.26-.235.26-.445c-.008-1.115 0-2.24 0-3.355V8.72c.269.16.52.294.747.462c.21.15.319.377.319.629q.012 1.444 0 2.902"/></svg>