<svg xmlns="http://www.w3.org/2000/svg" viewBox="0 0 24 24"><g fill="#0a3957"><path fill-rule="evenodd" d="m12 3.001l9 8.997l-9 9l-9-9zm.054.744l8.206 8.253l-8.206 8.158l-8.31-8.158z" clip-rule="evenodd"/><path d="m9.96 17.403l1.219 1.193l.42-.46l-.773-.77l1.177-1.183l1.161 1.22l-.749.732l.466.46l1.137-1.192l-2.015-2.087zm2.57-3.815l-.538.53l-.52-.53zm.273-6.433L11.577 8.36l.414.444l.811-.852l.408.408l-.755.8l.413.373l.742-.808l1.673 1.647l.785-.76l1.223 1.175l.428-.415l-1.65-1.647l-.786.808zm-6.905 3.706l-.398.41l1.146 1.208l1.699-1.68l-.417-.437l-1.282 1.244zm9.33.344l-.4-.406l-1.212 1.141l1.646 1.733l.437-.415l-1.218-1.307z"/><path d="m18.035 10.88l.37.433l-1.219 1.133l-1.61-1.744l.453-.427l1.237 1.315z"/><path d="m18.048 12.556l.37.433l-1.219 1.133l-1.938-2.057l.475-.43l1.518 1.616zm-9.22-1.267l.415-.39l1.168 1.188l-1.713 1.667l-.42-.432l1.268-1.259z"/><path d="m5.898 12.498l-.397.409l1.145 1.209l2.085-2.038l-.417-.437l-1.667 1.602zm5.672-7.425l.446-.426l.446.426l-.446.426zM4.629 12l.446-.426l.446.426l-.446.425zm13.835 0l.446-.426l.446.425l-.446.426zm-6.894 7l.446-.425l.445.425l-.445.426zm0-1.62l.446-.426l.445.426l-.445.425zM11.156 5.5L8.295 8.318l.386.432l2.475-2.478l.428.41l-2.771 2.863l-.901-.795l-1.606 1.635l.372.4l1.233-1.24l.902.84l1.554-1.635l.789.795l.428-.455l-.743-.772l1.96-2.046l2.456 2.478l.382-.432L12.801 5.5l-.834.773zM9.58 16.96l-.816-.812l.39-.417l.425.417l1.207-1.228l-.416-.414l.416-.43l.837.844zm4.803 0l.816-.812l-.391-.417l-.425.417l-1.206-1.228l.415-.414l-.415-.43l-.838.844z"/><path d="M10.942 9.88h-.673l-.386.53h1.06zm2.118 0h.673l.385.53H13.06z"/><path fill-rule="evenodd" d="M11.694 9.88v.776l-.895.97l.38.347l-2.835 2.894l-.343-.382l.386-.411l-.419-.419l-.833.83l1.21 1.28l2.758-2.709h1.825l2.733 2.709l1.281-1.28l-.822-.836l-.429.41l.374.426l-.403.383l-2.847-2.895l.415-.348l-.901-.969V9.88zm.315 2.118l-.538.529h1.059zm-.01-.851l-.446.425l.446.426l.446-.426z" clip-rule="evenodd"/></g></svg>