<svg xmlns="http://www.w3.org/2000/svg" viewBox="0 0 24 24"><g fill="none"><path fill="#f3a91d" d="M8.837 3.22c-2.303.474-4.649 1.45-5.534 1.879c-.223 3.218.866 6.338 1.438 7.496c1.799-2.26 5.095-4.745 5.938-5.322c.572-.391.36-.916.207-1.197c-.57-1.042-1.603-2.338-2.05-2.856"/><path fill="#ef6622" d="M20.18 4.837c-3.655-1.753-7.828-1.933-9.458-1.804c1.46.855 2.305 1.97 2.701 2.256c.318.23.758.164.939.102c1.936-.81 4.685-.707 5.818-.554"/><path fill="#79b6e2" d="M20.72 5.73c.134 4.019-1.826 8.073-2.823 9.598c0-.28-1.578-5.154-2.098-6.236c-.417-.867-.265-1.328 0-1.513c2.11-1.479 4.16-1.849 4.922-1.849"/><path fill="#1fb4ac" d="M11.912 9.502c-2.574 1.012-5.609 3.176-6.804 4.131c1.75 3.798 5.358 6.494 6.944 7.367c2.407-1.519 4.337-3.634 5.002-4.5c-1.014-2.656-3.393-6.242-3.883-6.823c-.391-.464-.954-.296-1.259-.175"/></g></svg>