<svg xmlns="http://www.w3.org/2000/svg" viewBox="0 0 24 24"><g fill="none"><path fill="#f2db5a" d="M11.666 3h.651a9.1 9.1 0 0 1 5.03 1.747c-.58.235-1.08.632-1.44 1.143a.03.03 0 0 1-.022-.005a3.1 3.1 0 0 0-.789-.53a6.2 6.2 0 0 0-1.905-.529a7 7 0 0 0-1.08-.063c-.255.016-.546.042-.88.09a3.3 3.3 0 0 0-.661.153l-.55.18c-.08.027-.133.08-.212.085c-.223.016-.44.016-.657.053q-.983.15-1.895.651c-.138.074-.291.1-.44.143a.75.75 0 0 1-.306.016a.94.94 0 0 1-.747-.609c.18-.185.387-.37.625-.566a8.96 8.96 0 0 1 4.59-1.89c.227-.027.455-.053.688-.069"/><path fill="#010101" d="M5.763 5.525c.143.35.392.55.741.61q.159.023.318-.017c.143-.042.297-.069.434-.143a5.8 5.8 0 0 1 1.895-.65c.217-.038.434-.038.652-.054c.084 0 .137-.058.211-.085c.19-.052.37-.116.556-.18q.323-.111.662-.158q.499-.064.879-.085c.27-.01.63.01 1.08.069q1.056.128 1.905.524c.297.132.57.31.81.53a.03.03 0 0 0 .022-.006a3.25 3.25 0 0 1 1.418-1.133c.175-.048.376-.069.44.132l.08.297c.026.265.03.508.004.752c-.02.248-.132 1.254-.476 1.27a.7.7 0 0 1-.222-.016c-.085-.02-.165-.02-.244-.053a.2.2 0 0 0-.09-.01q-.093.024-.005.063c.879.403 1.43 1.324 1.768 2.192c.402 1.032.63 2.165.73 3.266q.112 1.191.096 2.335c-.005.222-.032.434-.037.651c-.016.36-.053.72-.08 1.085c-.01.096-.047.19-.031.291c0 .011.01.027.02.032l.107.074c.227.037.434-.031.624-.19q.271-.23.408-.524a.14.14 0 0 1 .042-.053c.027-.016.053-.016.075.01a.08.08 0 0 1 .026.07a3.93 3.93 0 0 1-.884 2.027a1.7 1.7 0 0 1-.71.497c-.37.133-.794.053-1.09-.206a2.1 2.1 0 0 1-.604-.82a4.4 4.4 0 0 1-.317-2.171q.04-.502.159-.99q.008-.042-.016-.01c-.053.052-.08.132-.133.19a5.9 5.9 0 0 1-2.626 1.847q-.326.116-.666.18l-.011.021v.106q.001.031.026.037c.418.165.62.26.636.747c.026.656.153 1.323.344 1.932c.037.117.127.35.28.688l-.211.07l-.175-.414a.037.037 0 0 0-.048-.021a.04.04 0 0 0-.016.01l-.635.647a2 2 0 0 1-.455.1c-.064 0-.069-.01-.016-.042a3.4 3.4 0 0 0 1.022-.953a.13.13 0 0 0 .01-.111a3 3 0 0 1-.09-.328c-.005-.043-.02-.048-.053-.016a5.1 5.1 0 0 1-1.561 1.35a3 3 0 0 1-.397.211h-.53a5.3 5.3 0 0 0 2.303-1.657c.106-.137.17-.275.132-.434a5.2 5.2 0 0 1-.122-1.059c0-.248-.126-.402-.37-.46c-.016 0-.026 0-.021.021c.021.117.185.291.053.392q-.138.107-.265.227c-.995.953-2.001 1.901-3.007 2.849l-.196-.027q.057-.157-.02-.228a.54.54 0 0 0-.408-.143q-.2.001-.44.154l-.222-.069c.143-.132.301-.217.476-.265a.74.74 0 0 1 .794.223q.011.015.022 0l.804-1.747a.4.4 0 0 0 .037-.265q-.001-.03-.026 0c-.164.313-.376.636-.662.847q-.406.302-.768.657l-.006-.002l-.005-.003l-.003-.005l-.001-.006v-.005c.09-.133.19-.255.275-.392l.222-.36c.188-.317.331-.66.424-1.017a5.1 5.1 0 0 1-2.796.667a3.2 3.2 0 0 1-1.953-.73a1.6 1.6 0 0 1-.27-.291a1.74 1.74 0 0 1-.408-1.186a2.5 2.5 0 0 1 .54-1.678c.16-.212.34-.424.53-.636a.1.1 0 0 0 .026-.063c.016-.312 0-.62-.037-.921a.06.06 0 0 0-.021-.037a1.8 1.8 0 0 1-.466-.72q-.01-.033-.026 0q-.144.254-.16.524a.8.8 0 0 1-.079.27q-.03.065-.095.026a2.06 2.06 0 0 1-.73-.984v.005a.2.2 0 0 0-.027.122c.027.28.043.582.117.857c.026.106.01.106-.053.021c-.085-.127-.196-.238-.276-.37a7 7 0 0 1-.38-.73a2.2 2.2 0 0 1-.175-.556a5.7 5.7 0 0 1-.016-1.695a6 6 0 0 0-.36 1.15c-.106.507-.16 1.28.264 1.63q.08.063.048.158l-.01.027q-.026.086-.106.037a.85.85 0 0 1-.318-.376a1.95 1.95 0 0 1-.164-.879a5.56 5.56 0 0 1 .857-2.583c.085-.138.16-.286.239-.445A6.35 6.35 0 0 1 6.62 6.367q.056-.04-.016-.032c-.445.037-.81-.275-1.011-.661a1.5 1.5 0 0 1-.138-.593c0-.498.17-.916.498-1.26c.26-.27.593-.424.995-.445c.058 0 .1.026.117.085l.02.047c.027.064 0 .096-.068.09a1.23 1.23 0 0 0-1.112.63a1.7 1.7 0 0 0-.249.773c0 .159.032.328.106.524"/><path fill="#a31b1f" d="M16.499 6.79c-.037-.286-.159-.566-.424-.71a.02.02 0 0 1-.015-.01a.02.02 0 0 1 0-.021a3.07 3.07 0 0 1 1.307-1.085a.6.6 0 0 1 .154-.043c.052-.01.08.016.09.064a3.7 3.7 0 0 1-.106 1.768a.7.7 0 0 1-.117.217a.06.06 0 0 1-.063.026l-.768-.148a.07.07 0 0 1-.053-.053z"/><path fill="#f2ebd8" d="M14.71 10.766a.1.1 0 0 1-.069-.032c-.01-.016-.027-.016-.042 0c-.037.032-.08.058-.085.117a1 1 0 0 1-.053.254l-.212.55l-.55 1.06c-.1.169-.223.338-.382.497c-.127.132-.296.212-.444.323a.01.01 0 0 1-.007.006a.01.01 0 0 1-.01-.001l-.005-.007v-.009q.14-.838.16-1.689v-1.35l-.016-.317l-.032-.328c-.027-.382-.1-.869-.222-1.451c-.038-.19-.106-.381-.17-.566a2.2 2.2 0 0 0-.35-.652q-.04-.056-.105-.026l-.016.016q-.073.08-.01.175c.195.29.322.614.412.963c.166.68.261 1.376.286 2.075c.01.302.032.598.032.89c0 .932-.088 1.863-.265 2.779c-.063.328-.159.62-.243.926q-.05.145-.043-.005c0-.381.053-.762.027-1.143l-.032-.593c0-.196-.032-.392-.053-.583a14.3 14.3 0 0 0-2.107-6.315q-.04-.064-.106-.032l-.026.01q-.078.08-.021.16a13.8 13.8 0 0 1 1.921 5.193c.08.497.133.926.16 1.297c.015.227.047.46.047.688v.932l-.016.296l-.027.307q-.118 1.247-.418 2.16q-.253.78-.688 1.44a.2.2 0 0 1-.069.058c-.016.01-.021 0-.016-.016a8 8 0 0 0 .381-1.291c.147-.685.236-1.381.265-2.08c.037-.35 0-.7.032-1.049c.01-.085.005-.17 0-.265c-.037-.339.005-.678-.032-1.021a3 3 0 0 1-.021-.36c0-.106-.032-.207-.037-.313v-.127q-.102-1.051-.334-2.08c-.159-.726-.397-1.477-.762-2.129c-.032-.052-.08-.074-.138-.047l-.015.005a.08.08 0 0 0-.054.083a.1.1 0 0 0 .011.034c.328.617.57 1.276.72 1.958c.159.651.265 1.324.344 2.012c.01.1.005.196.027.291l.01.122q.007.239.037.492q.015.119 0 .244q0 .03-.031.016a1.6 1.6 0 0 1-.408-.323a3 3 0 0 1-.667-1.149q-.015-.049-.064-.027l-.09.043q-.032.023-.026.053c.063.333.249.662.455.92c.01.017.01.022-.01.011a.4.4 0 0 1-.106-.063c-.508-.44-.868-1.191-1.101-1.826a11 11 0 0 1-.546-2.102c-.053-.318-.09-.635-.121-.932c-.022-.222-.011-.423-.027-.635c-.016-.185 0-.365.016-.55V6.72l-.01-.015a.03.03 0 0 0-.032 0a5.7 5.7 0 0 0-1.049 1.63a9.6 9.6 0 0 0-.698 2.605a7.3 7.3 0 0 0-.027 1.297l.037.317c0 .027-.005.032-.026.021a2.05 2.05 0 0 1-1.239-1.471c-.265-1.117.222-2.33.921-3.214c.027-.031.027-.058.005-.095a.1.1 0 0 0-.053-.042a.116.116 0 0 0-.142.037c-.317.4-.569.846-.747 1.323a4 4 0 0 1-.201.45a5.9 5.9 0 0 0-.635 2.616c-.006.105.01.211.026.317c.021.133 0 .138-.063.027a3.1 3.1 0 0 1-.403-1.536c0-.38.032-.751.133-1.122a6.15 6.15 0 0 1 4.674-4.304l.635-.085c.096-.01.26.043.329.006c.439-.239.9-.381 1.381-.44c.17-.02.34-.047.509-.053a7.5 7.5 0 0 1 1.942.16q.772.167 1.424.518c.17.095.34.222.498.376q.024.026 0 .042a2.5 2.5 0 0 0-.402.381q-.014.024-.037 0a1.1 1.1 0 0 0-.55-.227a2.3 2.3 0 0 0-1.653.317a.1.1 0 0 0-.053.085a1 1 0 0 0 .059.424c.19.476.508.878.926 1.164q.143.096.318.106a.05.05 0 0 0 .037-.021a2 2 0 0 1 .233-.228l.688-.598l.021.005a.03.03 0 0 1 .01.022c-.031.19-.09.37-.169.529a5.04 5.04 0 0 1-1.429 1.726c-.127.095-.265.164-.408.238q-.04.024-.01.064l.08.09a.07.07 0 0 0 .073.015a2 2 0 0 0 .291-.174a5.6 5.6 0 0 0 1.483-1.668q.057-.095.042.016a11 11 0 0 0-.095.847a4 4 0 0 1-.037.376c-.021.17-.01.333-.021.503q-.055.713-.022 1.323q.043.774.106 1.546q.075.728.28 1.43c.054.164.123.322.223.47c.005.011.021.016.037.016a1 1 0 0 1 .35 0q.158.031.317.022q.087.001.08-.085a4 4 0 0 0-.09-.482q-.032-.094.063-.1c.209-.024.42-.012.625.037q.024 0 .016.031a2.9 2.9 0 0 1-.604.874a5.9 5.9 0 0 1-2.398 1.482a.105.105 0 0 1-.116-.032l-.318-.37a.07.07 0 0 1 .021-.106a.1.1 0 0 1 .037-.01c.228.005.545-.191.688-.318a2.17 2.17 0 0 0 .736-1.61q.002-.239-.084-.502c-.228-.646-.848-.848-1.414-.509c-.026.01-.032.006-.026-.02c.01-.054.063-.09.1-.133a.54.54 0 0 0 .111-.201a.1.1 0 0 1 .027-.037a.1.1 0 0 0 .026-.07a.06.06 0 0 1 .016-.042c.053-.058.08-.106.095-.127c.154-.29.329-.582.44-.878l.238-.583c.043-.095.032-.19.048-.286q.002-.04-.037-.042"/><path fill="#f2db5a" d="M17.866 5.175A9.03 9.03 0 0 1 21 11.708v.608a9.2 9.2 0 0 1-1.445 4.574l-.143.212l-.106-.069a.05.05 0 0 1-.027-.032c-.015-.1.022-.196.032-.29c.027-.366.064-.726.08-1.086c.005-.212.031-.429.037-.651c.01-.763-.021-1.535-.096-2.33c-.1-1.111-.328-2.239-.73-3.271c-.344-.868-.89-1.79-1.768-2.192c-.053-.026-.053-.042 0-.058a.2.2 0 0 1 .095.01c.08.027.159.027.243.053q.097.016.218.016c.349-.02.46-1.027.486-1.275q.037-.377-.01-.752"/><path fill="#fff" d="M10.815 5.514a1.8 1.8 0 0 1 .963 1.07c.005.031 0 .053-.032.069l-.105.042c-.032.016-.053 0-.064-.027a1.74 1.74 0 0 0-.598-.815c-.143-.106-.318-.17-.477-.26a.06.06 0 0 1-.026-.026c-.01-.042-.006-.063.021-.069a.54.54 0 0 1 .318.016"/><path fill="#f2db5a" d="M5.594 5.674c.201.387.566.699 1.011.662c.053-.005.053.005.016.032A6.35 6.35 0 0 0 4.503 8.84a3.5 3.5 0 0 1-.232.445a5.56 5.56 0 0 0-.858 2.583q-.016.476.159.879a.9.9 0 0 0 .328.37c.053.038.085.027.106-.031v-.027a.13.13 0 0 0-.043-.159c-.423-.349-.37-1.122-.264-1.63q.127-.59.37-1.144l-.031.239a5.5 5.5 0 0 0 .032 1.45q.053.285.18.556q.182.406.38.73c.08.133.191.244.276.371c.063.09.08.08.053-.021c-.074-.275-.085-.577-.117-.858a.2.2 0 0 1 .027-.127h.005v.006c.154.37.386.773.725.979q.064.038.096-.027a.8.8 0 0 0 .079-.27c.01-.18.069-.354.159-.529q.017-.025.026.005q.143.412.466.72l.021.037c.037.302.053.61.037.922a.08.08 0 0 1-.02.058a8 8 0 0 0-.535.64a2.5 2.5 0 0 0-.535 1.679c-.018.43.126.854.402 1.185c.08.112.17.212.275.292c.55.453 1.236.71 1.949.73a5.1 5.1 0 0 0 2.806-.656a4 4 0 0 1-.435 1.005l-.222.36c-.085.138-.185.26-.275.392a.02.02 0 0 0 0 .016h.015c.016 0 .027 0 .038-.016c.232-.233.476-.44.73-.635c.286-.212.498-.535.662-.847c.016-.021.021-.021.026 0a.45.45 0 0 1-.037.265l-.804 1.747q-.01.015-.027 0a.74.74 0 0 0-.794-.223c-.17.048-.328.133-.471.265a9 9 0 0 1-6.178-7.613L3 12.44v-.837l.064-.64a9.05 9.05 0 0 1 2.53-5.294z"/><path fill="#a31b1f" d="M15.986 6.266a.68.68 0 0 1 .302.546c0 .016-.005.026-.016.042a.6.6 0 0 1-.423.222c-.143.011-.265-.18-.308-.29q-.079-.192.08-.302q.166-.115.333-.228q.018 0 .032.01m-.593.874l-1.07.932a.1.1 0 0 1-.12.01a2.3 2.3 0 0 1-.922-1.154a.3.3 0 0 1 0-.159q0-.022.016-.037a.9.9 0 0 1 .254-.159c.508-.195.995-.211 1.466-.037a.36.36 0 0 1 .223.223c.042.116.106.233.196.339q.021.023-.011.031h-.016z"/><path fill="#f2ebd8" d="M16.066 7.405c.375 1.15.58 2.348.609 3.557q.03.65-.027 1.45a7 7 0 0 1-.248 1.41c-.016.052-.032.052-.038 0c-.063-.44-.105-.848-.137-1.208a13 13 0 0 0-.085-.895q-.074-.554-.09-1.111q0-.254-.027-.498c-.031-.312-.042-.625-.073-.932c-.027-.212 0-.423-.032-.646a6 6 0 0 1-.043-1.17q0-.038.032-.052c.053-.043.09-.038.116.005c.022.026.032.058.043.09"/><path fill="#f2ebd8" d="M18.12 11.661c0 .043.026.058.068.053l.085-.016c.053-.01.074-.037.064-.09a9.2 9.2 0 0 0-.884-3.038a4 4 0 0 0-.773-1.18c-.053-.054-.048-.06.02-.033c.509.212.885.604 1.181 1.07c.419.687.723 1.438.9 2.223c.267 1.094.407 2.215.419 3.34v1.298c0 .243-.048.47-.043.704c0 .105-.069.159-.069.254c0 .116 0 .233-.016.344a2 2 0 0 0-.026.339q0 .137.08.233a.48.48 0 0 0 .396.174c.25 0 .445-.1.636-.248q.08-.064.047.031c-.227.636-.608 1.345-1.228 1.599c-.508.212-.974-.064-1.26-.482a2.8 2.8 0 0 1-.423-.995a4.9 4.9 0 0 1 .026-2.319a1 1 0 0 0 .032-.254c0-.106.01-.212.026-.307q.142-1.036.106-2.08c-.016-.202 0-.403-.016-.61c-.09-1.164-.275-2.291-.667-3.377a7 7 0 0 0-.317-.73c-.07-.122-.053-.133.042-.032q.293.3.498.672a9.6 9.6 0 0 1 1.032 2.885c.037.186.053.376.063.572"/><path fill="#fbe6d5" d="m8.4 9.548l.09-.095a.06.06 0 0 0 .01-.07a.8.8 0 0 0-.286-.274c-.275-.16-.53-.154-.778.02c-.053.032-.064.022-.042-.036l.27-.689c.127-.296.312-.582.555-.868c.011-.01.022-.01.022.01l.095.435c.032.127.053.265.074.423c.102.876.302 1.738.598 2.568c.226.72.613 1.38 1.133 1.927q.255.24.598.312c.016 0 .032.01.043.021q.2.2.455.318a.1.1 0 0 1 .064.09l.026.334c0 .301 0 .603-.016.92l-.032.567c0 .164-.037.524-.1 1.07a9.5 9.5 0 0 1-.244 1.328a.14.14 0 0 1-.063.09a4.8 4.8 0 0 1-3.07.71a3 3 0 0 1-1.16-.36a1.93 1.93 0 0 1-1.017-1.371a2 2 0 0 1-.01-.434a2.66 2.66 0 0 1 .678-1.525l.36-.424c.063-.074.074-.195.074-.285q-.016-.348-.016-.705c0-.248-.032-.487-.037-.74q-.002-.035.037-.022l.19.058a.096.096 0 0 0 .122-.064a11 11 0 0 1-.058-.412c-.048-.275-.027-.556-.032-.842q0-.213.027-.466a9.5 9.5 0 0 1 .365-1.736c0-.027.016-.032.037-.021l.042.02a.12.12 0 0 0 .117-.015c.29-.222.672-.085.826.222c.015.032.031.032.052.01"/><path fill="#a31b1f" d="M15.494 8.426c.026-.264.069-.497.116-.682c.032-.112.053-.106.064 0l-.01.063v.064c.01.344.047.677.052 1.021c.01.318.048.636.069.953c.026.37.063.715.074 1.117c.01.307.042.667.106 1.08c.053.408.058.837.106 1.26c.053.46.11.9.174 1.334c0 .021-.005.027-.026.027c-.095 0-.19 0-.291-.011q-.094-.001-.133-.106a5 5 0 0 1-.29-1.08a22 22 0 0 1-.122-1.027c-.016-.19-.016-.38-.037-.572l-.016-.238v-1.328q-.001-.19.02-.387c.022-.18.011-.36.033-.55q.055-.469.105-.938z"/><path fill="#fff" d="M6.668 8.305c-.127.317-.137.62-.021.667c.116.042.318-.18.445-.498s.132-.62.016-.667c-.117-.048-.313.18-.44.498m4.897-.196c.042-.095.196-.127.254-.016c.132.238.212.466.249.672c.016.085.037.276-.048.34c-.127.1-.317-.017-.36-.154a4 4 0 0 1-.127-.503a.57.57 0 0 1 .032-.34m1.652.715a.08.08 0 0 1-.106-.053l-.027-.085a1.7 1.7 0 0 1-.079-.392c-.01-.111.01-.18.048-.19l.047-.016c.037-.01.09.031.149.127c.058.09.116.222.164.365l.026.09a.08.08 0 0 1-.005.061a.08.08 0 0 1-.048.04z"/><path fill="#a31b1f" d="M16.574 8.293q.286.77.445 1.578a13 13 0 0 1 .265 2.345q.03.901-.074 1.795a.05.05 0 0 1-.027.02h-.02a2.6 2.6 0 0 0-.583-.03v-.027c.047-.217.116-.434.159-.657q.1-.54.132-1.111l.016-.482q.018-1.133-.127-2.255a27 27 0 0 0-.212-1.218q-.001-.014.005-.005z"/><path fill="#fff" d="M9.22 9.05a1.4 1.4 0 0 1-.027-.704a.05.05 0 0 1 .043-.052l.106-.016a.05.05 0 0 1 .058.026q.183.389.222.815c.01.138.043.233-.037.36a.074.074 0 0 1-.095.024a.1.1 0 0 1-.027-.024c-.095-.137-.195-.264-.243-.428m.588-.068a.01.01 0 0 1 .01-.01l.021-.006a.2.2 0 0 1 .07 0a.1.1 0 0 1 .068.026a.2.2 0 0 1 .053.053a.2.2 0 0 1 .037.08l.01.026a.23.23 0 0 1-.01.159a.17.17 0 0 1-.106.095l-.026.006l-.006.001l-.006-.002l-.003-.004l-.001-.006l-.111-.413zm5.15.143a.04.04 0 0 1 .038.042a1 1 0 0 1-.043.265q-.157.524-.53 1.016c-.2.254-.47.519-.788.604a.3.3 0 0 1-.18-.016c-.1-.043-.09-.148-.032-.217a.05.05 0 0 1 .025-.016h.028c.223.074.44-.132.582-.28c.365-.361.621-.816.742-1.314c.016-.068.1-.095.159-.084"/><path fill="#010101" d="M7.6 10.375c.032-.064.085-.085.16-.075c.015 0 .026.01.031.021c.021.053.027.096 0 .133a.64.64 0 0 0-.032.519q.018.04-.005.08l-.074.105l-.012.008l-.014.003q-.008 0-.015-.003l-.012-.008c-.159-.249-.159-.519-.026-.784m1.16 2.763a3 3 0 0 1-.027-.413c0-.175-.02-.339-.042-.514q-.044-.435-.212-.841c-.042-.1-.185-.318-.323-.276a.42.42 0 0 0-.238.186l-.238.344q-.126-.002-.148-.074q-.009-.015 0-.037c.11-.265.275-.508.545-.61a.3.3 0 0 1 .201-.004c.37.121.471.571.55.9q.098.353.117.72c.09.095.244.031.286-.08a.05.05 0 0 1 .053-.032h.127q.057-.001.042.053q-.11.35-.476.302a.03.03 0 0 0-.036.022l-.001.015l.026.233a.03.03 0 0 1-.005.02a.03.03 0 0 1-.016.012z"/><path fill="#fff" d="M14.758 11.073c0-.058.027-.09.08-.106h.026c.058-.016.09.011.09.07a2 2 0 0 1-.106.767a2.9 2.9 0 0 1-.492.926a.4.4 0 0 1-.117.09a.07.07 0 0 1-.084-.01a.1.1 0 0 1-.016-.027c-.053-.106.137-.28.196-.365c.052-.074.095-.159.137-.243q.177-.412.265-.768c.021-.106.026-.212.021-.334M8.76 13.138l-.053.339a2.7 2.7 0 0 1-.434 1.212a.3.3 0 0 1-.058.058a1.5 1.5 0 0 1-.36.19a.7.7 0 0 0 .17-.264q.14-.475.211-1.085c.021-.244.01-.476.026-.72a.56.56 0 0 0-.063-.286a.11.11 0 0 0-.111-.053a.13.13 0 0 1-.106-.021c-.064-.053-.085-.106-.058-.18c.042-.133.137-.26.09-.413a.04.04 0 0 0-.01-.017a.03.03 0 0 0-.017-.01c-.074-.015-.132.022-.17.122c-.095.26-.158.466-.185.636a2.1 2.1 0 0 1-.01-.604a5 5 0 0 0 .058-.423l.238-.34a.42.42 0 0 1 .239-.185c.137-.042.28.175.317.276q.176.427.217.847c.016.17.043.333.043.508c0 .138.005.275.026.413"/><path fill="#010101" d="M7.854 14.939q-.175-.025-.217-.138a1.7 1.7 0 0 1-.09-.508c-.021-.561 0-1.112.085-1.647c.032-.17.09-.376.185-.635c.037-.1.095-.138.17-.122c.015.006.02.016.026.027c.053.159-.048.28-.09.413c-.026.074 0 .132.064.18a.14.14 0 0 0 .1.02q.032-.003.061.011q.03.015.045.043a.5.5 0 0 1 .069.285c-.016.239 0 .477-.032.72q-.053.552-.201 1.086a.8.8 0 0 1-.175.264"/><path fill="#fff" d="M17.998 15.817c.021.317.095.65.196.947c.058.18.154.35.275.509q.184.238.424.238c.08 0 .127.037.154.106l.005.026q.037.105-.07.106c-.592 0-.878-.524-1.015-1.022a5 5 0 0 1-.175-.794a10.1 10.1 0 0 1 .212-3.203c.02-.105.058-.307.211-.264a.084.084 0 0 1 .053.095a10.6 10.6 0 0 0-.275 3.261z"/><path fill="#a31b1f" d="M7.991 13.831a5 5 0 0 1-.148.731q-.015.063-.048 0a.4.4 0 0 1-.026-.106a6 6 0 0 1-.01-.985c.015-.2.095-.333.222-.476c.053-.053.074-.042.074.032l-.016.196c-.021.137-.005.28-.026.423z"/><path fill="#fbe6d5" d="m12.82 16.712l-1.005.74c.143-.497.26-.979.334-1.45c.026-.138.058-.26.105-.36l.17-.402c.148-.323.233-.694.317-1.038a.4.4 0 0 0 .011-.116q0-.08.063-.048a.7.7 0 0 0 .228.058a.06.06 0 0 0 .048-.015l.095-.128c.286-.492.98-1.005 1.493-.53c.217.197.318.615.28.9a2.1 2.1 0 0 1-.492 1.155c-.233.265-.55.46-.91.46a.2.2 0 0 1-.106-.031a.03.03 0 0 0-.021 0a.03.03 0 0 0-.022.005z"/><path fill="#010101" d="M13.815 13.895a.6.6 0 0 0-.154.143c-.058.09-.132.212-.122.328q.016.278.286.365q.065.024.122-.015a.04.04 0 0 1 .042 0l.053.047c.064.08.08.175.053.297c-.042.196-.18.354-.402.47h-.016l-.01-.004l-.122-.17q-.014-.014.01-.021c.19-.027.318-.159.36-.408c.006-.026 0-.037-.026-.042c-.577-.053-.747-.63-.318-1.006c.074-.053.186-.095.244.016"/><path fill="#edb8a0" d="m14.043 14.764l-.053-.042a.04.04 0 0 0-.021-.007a.04.04 0 0 0-.021.007a.14.14 0 0 1-.122.01a.39.39 0 0 1-.286-.37c-.01-.106.064-.233.122-.323a.6.6 0 0 1 .153-.143a.9.9 0 0 1 .318-.016q.213.024.228.222c.016.297-.09.514-.318.662"/><path fill="#ffbdad" d="M10.639 14.965q.159.317-.016.571c-.148.228-.407.445-.688.482c-.132.021-.254.053-.387.053c-.354 0-.571-.249-.592-.593c-.011-.17-.043-.312.047-.466a.6.6 0 0 1 .138-.159c.328-.275.715-.37 1.149-.29c.148.026.285.28.349.407z"/><path fill="#f2db5a" d="M17.897 18.739q.002.054-.037.085a8.9 8.9 0 0 1-2.89 1.672a7 7 0 0 1-.281-.688a7.5 7.5 0 0 1-.344-1.932c-.016-.487-.217-.582-.635-.741a.04.04 0 0 1-.02-.014a.04.04 0 0 1-.007-.023v-.124l.005-.011a.03.03 0 0 1 .022-.013a4.4 4.4 0 0 0 .65-.164c1.033-.371 1.949-.996 2.627-1.848c.053-.058.079-.132.132-.19c.016-.022.021-.016.021.01l-.064.275q-.134.707-.105 1.424c.037.53.121.98.323 1.462c.137.317.333.598.603.82"/><path fill="#edb8a0" d="m11.808 17.453l1.006-.741l.625-.493q.025-.022.026.01v.774c.006.159.053.38.133.656c0 .016 0 .027-.016.043l-1.975 1.863l-.005.001l-.005-.001l-.006-.005c-.016-.34-.01-.704-.037-1.06a1.5 1.5 0 0 1 0-.37c.027-.121.106-.344.254-.677"/><path fill="#010101" d="m6.96 17.256l.01-.095c0-.021.016-.027.037-.027a.78.78 0 0 0 .667-.317c.053-.053.053-.127.096-.19a.08.08 0 0 1 .058-.038a.24.24 0 0 0 .09-.037q.024-.015.032.016c.09.424-.556.847-.932.768a.074.074 0 0 1-.058-.08"/><path fill="#28407e" d="M11.815 21h-.265l-1.032-.122l3.012-2.848c.08-.074.164-.153.264-.227c.128-.106-.037-.276-.052-.392c-.011-.016 0-.021.015-.021c.244.058.371.212.371.455q.01.557.122 1.059c.037.164-.032.301-.133.44A5.3 5.3 0 0 1 11.815 21m2.938-.434q-.396.143-.863.222l.635-.646a.04.04 0 0 1 .032-.009l.015.007l.011.013z"/><path fill="#a31b1f" d="m10.321 20.852l-.868-.218a.9.9 0 0 1 .44-.158q.239-.002.407.148q.078.07.021.228"/></g></svg>