<svg xmlns="http://www.w3.org/2000/svg" viewBox="0 0 24 24"><g fill="none"><path fill="url(#SVGvXWZOeXV)" d="M14.613 5.903c0-2.48 1.405-2.903 2.903-2.903v11.654c0 1.3.058 2.438-.58 3.443c1.16 0 2.322 1.335 2.322 2.903h-8.42c-3.35 0-6.096-2.845-6.096-6.346c0-3.508 2.961-6.428 6.311-6.428c1.243 0 2.602.493 3.56 1.161zm-3.56 12.194c1.858 0 3.56-1.51 3.56-3.443a3.594 3.594 0 0 0-3.525-3.525a3.483 3.483 0 0 0-3.443 3.484c0 1.94 1.556 3.484 3.408 3.484"/><defs><linearGradient id="SVGvXWZOeXV" x1="6.556" x2="19.942" y1="17.464" y2="10.189" gradientUnits="userSpaceOnUse"><stop stop-color="#c41859"/><stop offset="1" stop-color="#4d0e75"/></linearGradient></defs></g></svg>