<svg xmlns="http://www.w3.org/2000/svg" viewBox="0 0 24 24"><g fill="none"><path fill="url(#SVG1yMwudzi)" d="M9.547 8.113h-.818v2.332a3.273 3.273 0 1 0 .082 4.23l-.438-.79a2.456 2.456 0 1 1 .323-1.68h.85z"/><path fill="url(#SVGGukR9bPb)" d="M17.729 15.887a3.273 3.273 0 1 0-2.516-5.367l.462.749a2.456 2.456 0 1 1-.401 1.264l-.655-.941c-.108.33-.163.675-.163 1.023v3.272h.818v-1.104a3.26 3.26 0 0 0 2.455 1.104"/><path fill="#14b4fe" d="M3.026 12.204A3.272 3.272 0 0 0 8.81 14.68l-.437-.793a2.455 2.455 0 0 1-4.521-1.682z"/><path fill="#1ebcff" fill-rule="evenodd" d="M12.001 15.887a3.273 3.273 0 1 0 0-6.545a3.273 3.273 0 0 0 0 6.545m0-.818a2.454 2.454 0 1 0 0-4.908a2.454 2.454 0 0 0 0 4.908" clip-rule="evenodd"/><defs><linearGradient id="SVG1yMwudzi" x1="15.939" x2="16.587" y1="9.955" y2="13.261" gradientUnits="userSpaceOnUse"><stop stop-color="#14b4fe"/><stop offset=".66" stop-color="#1a2c58"/></linearGradient><linearGradient id="SVGGukR9bPb" x1=".186" x2="3.687" y1="14.916" y2="8.834" gradientUnits="userSpaceOnUse"><stop stop-color="#122543"/><stop offset=".45" stop-color="#173c66"/><stop offset="1" stop-color="#5fc0f0"/></linearGradient></defs></g></svg>