<svg xmlns="http://www.w3.org/2000/svg" viewBox="0 0 24 24"><path fill="#007f88" d="M3.467 5.495s-.485.016-.466.044c.101.279.773 1.812.782 1.822c2.423.193 4.094 1.206 4.953 3.55H7.365l-.828 2.182s1.977-.003 2.2 0c-.688 2.196-2.604 3.48-4.871 3.48c-.097.228-.798 1.856-.764 1.867c3.926.455 7.632-2.443 7.991-5.347h1.75c0 .371.288 1.052.497 1.5c1.271 2.559 4.02 4.026 6.832 3.95c.46-.01.81-.066.79-.112l-.781-1.813c-2.213-.175-4.677-1.06-5.166-3.525h1.375c.019 0 .758-2.182.758-2.182h-2.15c.764-2.319 2.846-3.507 5.238-3.54c0 0 .529-1.195.764-1.804c-3.547-.665-7.562 1.68-8.166 5.344H11.12c-.433-3.827-4.585-5.574-7.654-5.416"/></svg>