<svg xmlns="http://www.w3.org/2000/svg" viewBox="0 0 24 24"><path fill="#181b1e" fill-rule="evenodd" d="M21 12a8.998 8.998 0 0 1-15.364 6.364A9.001 9.001 0 1 1 21 12m-1 0a8 8 0 0 1-4.01 6.935c-.26.04-.54.065-.835.065c-3 0-4.595-4.08-5.045-5.225c-.05-.14-.09-.235-.11-.275c-.635 2.19-.125 3.675 0 4c-.735-.65-1.5-2.095-1.5-3.935a5.3 5.3 0 0 1 1-3.065c-.03.115-.02.3-.01.485l.01.265c0 1.62 1.545 2.25 2.28 2.25c.37 0 .805-.05 1.245-.1c.435-.055.87-.11 1.24-.11c.715 0 .83.025 1.51.165l.06.01c-1.315.075-2.025.3-2.635.5c1.875.67 2.885 1.81 3.16 2.12l.06.065l.075.08c.105.125.235.27.485.27c.3 0 .66-.05.86-.32c.165-.22.355-.31.43-.325c.045-.185.15-.675.23-1.195c-.7-1.645-3.125-3.82-3.485-4.15L15 10.5c.25 0 .785 0 1.47.975c.55.775.87 1.01 1.03 1.025c-.26-.275-.7-1.02-.925-1.8A5.1 5.1 0 0 0 15 8.5c0-.87.9-1.55 1.36-1.895l.14-.105c-1.25 0-2.86.6-3.5 1c-.465-.15-1.74-.5-2.92-.5c-2.815 0-4.8 1.56-5.74 2.69a8 8 0 0 1 .92-2c1.7-.815 3.45-1.19 4.255-1.19c.565 0 1.155.16 1.71.31c.27.07.53.14.775.19c.45-.319.96-.54 1.5-.65c-.545-.39-2.15-.85-3.735-.85c-1.255 0-2.71.45-3.25.675A8 8 0 0 1 20 12M4.5 14.89c.54 1.45 1.3 2.695 2.5 3.61c-.45-.68-1-2.245-1-3.865c0-2.15.64-3.585 1.5-4.635c-.265.1-2.655 1.295-2.99 4.78z" clip-rule="evenodd"/></svg>