<svg xmlns="http://www.w3.org/2000/svg" viewBox="0 0 24 24"><g fill="none"><path fill="url(#SVGks2D8dBv)" fill-rule="evenodd" d="M12 19.941a7.942 7.942 0 1 0 0-15.883a7.942 7.942 0 0 0 0 15.883M12 21a9 9 0 1 0 0-18a9 9 0 0 0 0 18" clip-rule="evenodd"/><path fill="#fff" d="m10.942 8.295l-1.06 1.059v2.117l1.854-2.117h1.588l-1.059 1.058h-.53l-1.058 1.06h3.97l-1.058 1.587h-2.647l-1.06 1.06h4.766l2.382-3.707h-2.912l2.118-2.117z"/><path fill="url(#SVGUEZnhcZr)" d="m7.924 8.342l.9.9v.752l-.688-.688l-1.393 3.954l2.78 3.007l.407-1.09h.567l-.784 2.086l-3.573-3.876l1.778-5.045zm2.63 6.835l-.82 2.192l5.374-.9l.429-1.292h-.556l-.275.826l-4.156.688l.577-1.514z"/><defs><linearGradient id="SVGks2D8dBv" x1="3.265" x2="20.735" y1="12.529" y2="12.529" gradientUnits="userSpaceOnUse"><stop stop-color="#0387fa"/><stop offset="1" stop-color="#01feff"/></linearGradient><linearGradient id="SVGUEZnhcZr" x1="7.5" x2="15.177" y1="9.618" y2="16.235" gradientUnits="userSpaceOnUse"><stop stop-color="#11f6fc"/><stop offset="1" stop-color="#017ef2"/></linearGradient></defs></g></svg>