<svg xmlns="http://www.w3.org/2000/svg" viewBox="0 0 24 24"><g fill="none"><path fill="url(#SVGHzwfUcxo)" d="M13.815 4.15L12.1 5.9l.35.36a.495.495 0 0 0 .7 0l1.715-1.75l-.35-.36a.5.5 0 0 0-.35-.15a.5.5 0 0 0-.35.15m-4.335 0l-.35.355l1.715 1.755a.5.5 0 0 0 .71 0l.345-.355l-1.715-1.75A.5.5 0 0 0 9.835 4a.5.5 0 0 0-.35.15zm5.95 2.295L12.19 9.76l.655.67a.933.933 0 0 0 1.335 0l3.235-3.315l-.65-.67a.94.94 0 0 0-1.034-.212a.9.9 0 0 0-.306.212zm-8.19 0l-.655.67L9.82 10.43a.935.935 0 0 0 1.335 0l.655-.67l-3.235-3.315a.94.94 0 0 0-.67-.285a.92.92 0 0 0-.665.285m4.405.205L11.3 7l.7.5l.7-.5l-.35-.35A.5.5 0 0 0 12 6.5a.5.5 0 0 0-.35.15zm6.05 3.02l-5.38 5.51l1.09 1.115a1.55 1.55 0 0 0 2.215 0l5.38-5.51l-1.09-1.115a1.56 1.56 0 0 0-1.105-.47a1.53 1.53 0 0 0-1.11.47m-13.605 0L3 10.785l5.38 5.505a1.55 1.55 0 0 0 2.215 0l1.09-1.115l-5.38-5.5a1.56 1.56 0 0 0-1.11-.475a1.54 1.54 0 0 0-1.105.47m7.24 1.115l-.65.67L12 12.5l1.325-1.04l-.655-.675A.94.94 0 0 0 12 10.5a.94.94 0 0 0-.67.285m-.44 6.185l-1.085 1.115L12 20l2.2-1.915l-1.09-1.115c-.29-.3-.7-.47-1.11-.47s-.82.17-1.11.47"/><defs><linearGradient id="SVGHzwfUcxo" x1="3" x2="21" y1="11.523" y2="11.624" gradientUnits="userSpaceOnUse"><stop stop-color="#7cb7ff"/><stop offset="1" stop-color="#ba6df6"/></linearGradient></defs></g></svg>