<svg xmlns="http://www.w3.org/2000/svg" viewBox="0 0 24 24"><g fill="none"><path fill="#4747f3" d="M12 21a9 9 0 1 0 0-18a9 9 0 0 0 0 18"/><path fill="#7c7cf4" d="M12 20.66a8.661 8.661 0 1 0 0-17.322a8.661 8.661 0 0 0 0 17.322"/><path fill="#a2a2f8" d="M12 20.284a8.285 8.285 0 1 0 0-16.57a8.285 8.285 0 0 0 0 16.57"/><path fill="#c4c5fb" d="M12 19.845a7.846 7.846 0 1 0 0-15.692a7.846 7.846 0 0 0 0 15.692"/><path fill="#e0e0fc" d="M12 19.333a7.332 7.332 0 1 0 0-14.665a7.332 7.332 0 0 0 0 14.665"/><path fill="#f0f3fa" d="M12 18.507a6.507 6.507 0 1 0 0-13.013a6.507 6.507 0 0 0 0 13.013"/><path fill="#2a28f5" d="M9.353 12.122v3.584h5.294v-1.588H11.47v-1.403a10 10 0 0 1-2.117-.593m0-1.446a21 21 0 0 0 2.117.678v-3.59H9.353z"/></g></svg>