<svg xmlns="http://www.w3.org/2000/svg" viewBox="0 0 24 24"><g fill="none"><path fill="#fff" d="m10.756 11.524l-.12-.165l.05-.03l.114.165zm2.515-.385l-.22-.08l.02-.05l.215.08zm.304.34l-.33-.11l.02-.05l.326.105l-.016.05zM12 10.984l-.095-.08l.036-.04l.1.08l-.036.04zm-.395.16h-.23v-.055h.23zm1.606-.265l-.486-.215l.026-.05l.48.215zm-2.51.08l-.2.11l-.03-.045l.2-.11l.03.05zm.685.94h-.425v-.055h.425zm-1.15.005l-.17-.185l.04-.035l.17.185zm2.86-1.635a2.2 2.2 0 0 0-.696-.29l.015-.05c.13.025.46.125.71.3zm-1.86-.045c-.236.07-.44.195-.51.245l-.035-.045c.074-.05.284-.175.53-.25z"/><path fill="#fff" d="M11.59 10.15c.57-.05 1.836.125 2.3 1.26c-.184-.215-.57-1.05-2.3-1.26m.75 2.37a1.55 1.55 0 0 1-.75-.15c.13.015.45.04.75.04s.786-.206.986-.306c-.275.241-.62.387-.985.416"/><path fill="#76928c" fill-rule="evenodd" d="M20 7.495L12 3L4 7.495v8.985L12 21l8-4.52zM18 8l-5.5-3v4.75c-.25-.09-.315-.03-.6-.03c-.21 0-.2-.27-.4-.22V5L6 8l4.25 2.25c-.37.3-.615.54-.75 1L5.5 9v6l4-2.25c.1.47.155.68.5 1L6 16l5.5 3v-4.5c.2.05.19 0 .4 0c.285 0 .35.09.6 0V19l5.5-3l-4.35-2.285a2.33 2.33 0 0 0 .64-1.24L18.5 15V9l-4 2.25c-.115-.465-.4-.69-.75-1z" clip-rule="evenodd"/><path fill="#fff" d="M13.6 12.25a3.05 3.05 0 0 1-1.67.485c-.745 0-1.42-.25-1.92-.665l-.01.16c.39.215 1.13.575 1.505.575c.305 0 .546-.02.73-.04c.126-.01.23-.02.32-.02c-.835.445-2.014-.05-2.55-.375c.07.91.94 1.63 1.995 1.63c1.1 0 2-.785 2-1.75q.001-.129-.02-.25c-.264.66-1.17.9-1.6.935q.114-.059.266-.11c.185-.075.415-.16.665-.335a2.5 2.5 0 0 0 .29-.24"/><path fill="#fff" d="M11.23 9.5c-.095-.185-.1-.75.6-1.75c.375-.574.45-1.205.45-1.75l.07.17c.15.355.25.606.25.95c0 .365-.1.776-.19 1.16c-.02.1-.305 1.196-.085 1.22c.01-.1.075-.36.28-.57c.12-.124.275-.235.445-.35c.185-.124.38-.255.545-.43c.25-.264.335-.395.325-.425c.04.056.085.17.08.325c-.005.165-.114.38-.3.625c-.444.6-.534.835-.5 1.04c.066-.2.48-.65 1.67-.88a3.14 3.14 0 0 0 1.53-.96l-.064.175a2.35 2.35 0 0 1-.475.85c-.25.27-.6.5-.93.72l-.02.01c-.33.22-.64.425-.87.75c.095-.065.31-.17.58-.17c.175 0 .36.045.56.085c.215.05.45.1.685.1c.364 0 .485-.06.5-.09c-.02.15-.215.46-.806.53c-.74.09-.97.185-1.09.35c.18-.09.795-.1 1.786.61c.575.375 1.2.45 1.744.45l-.17.07c-.354.15-.6.25-.944.25c-.366 0-.776-.1-1.16-.184c-.44-.106-.8-.21-1.06-.14a.35.35 0 0 0-.165.14c.12.03.3.104.47.264c.124.12.235.28.35.45c.124.18.255.375.43.54c.264.25.395.29.425.28c-.115.09-.47.186-.95-.17c-.06-.05-.91-.695-1.026-.49c.2.075.64.495.876 1.665c.15.605.472 1.153.924 1.58l-.17-.064a2.3 2.3 0 0 1-.82-.52c-.264-.25-.5-.6-.714-.93c-.25-.37-.47-.71-.7-.85c.054.115.104.28.104.475c0 .175-.04.36-.08.56c-.05.215-.09.44-.09.68c0 .364.05.495.08.51c-.15-.026-.46-.216-.53-.81c-.084-.72-.18-.956-.335-1.08h-.01c.085.2.075.804-.61 1.78a3.16 3.16 0 0 0-.45 1.75l-.07-.17c-.145-.355-.25-.605-.25-.95c0-.366.1-.776.19-1.16c.119-.366.162-.753.126-1.136c0-.025-.005-.044-.04-.05c-.015.115-.09.34-.275.536c-.12.124-.28.235-.45.35a3.2 3.2 0 0 0-.54.43c-.25.265-.296.394-.28.425c-.09-.116-.186-.475.17-.95c.45-.6.535-.835.5-1.04c-.06.2-.48.65-1.67.88A3.2 3.2 0 0 0 7.5 16l.07-.17c.135-.36.29-.485.525-.735c.25-.265.6-.5.935-.715a3.8 3.8 0 0 0 .915-.8c-.1.066-.305.16-.565.16c-.175 0-.36-.04-.56-.085a3 3 0 0 0-.685-.1c-.365 0-.485.06-.5.09c.02-.15.215-.46.805-.53c.74-.09.94-.184 1.06-.35c-.18.09-.765.1-1.75-.61a3.13 3.13 0 0 0-1.75-.45l.17-.07c.355-.15.6-.25.945-.25c.365 0 .775.1 1.16.19c.44.1.85.2 1.1.13c.066 0 .06-.05.085-.07a2.7 2.7 0 0 1-.475-.28a2.7 2.7 0 0 1-.35-.45a2.8 2.8 0 0 0-.43-.54c-.265-.25-.395-.29-.425-.28c.115-.09.47-.185.95.17c.6.44.83.53 1.035.49c-.195-.054-.65-.47-.885-1.664A3.2 3.2 0 0 0 8 7.5c.06.024.115.05.17.064c.36.14.53.285.775.52c.265.25.5.6.72.93c.24.37.466.71.695.85a1.2 1.2 0 0 1-.104-.475c0-.175.04-.36.085-.56c.05-.215.1-.45.1-.69c0-.365-.065-.485-.096-.5c.15.026.46.216.53.81c.09.74.185.93.35 1.05zm.715 4.935a2.374 2.374 0 1 0 0-4.75a2.4 2.4 0 0 0-2.415 2.37c0 1.31 1.106 2.38 2.415 2.38"/></g></svg>