<svg xmlns="http://www.w3.org/2000/svg" viewBox="0 0 24 24"><g fill="none"><path fill="url(#SVGnvlSzbar)" d="M5.182 6H3v7.636a4.363 4.363 0 0 0 4.363 4.363h.546a4.363 4.363 0 0 0 4.363-4.363V6h-2.181v7.363a2.454 2.454 0 0 1-4.91 0zm8.181 3.273h2.182v8.18h-2.182z"/><path fill="url(#SVGDYP1FeVH)" d="M18 8.998a3 3 0 0 0-3 3v5.454h.546v-4.909a1.636 1.636 0 1 1 3.272 0v4.91H21v-5.455a3 3 0 0 0-3-3"/><defs><linearGradient id="SVGnvlSzbar" x1="9.272" x2="9.272" y1="6" y2="17.999" gradientUnits="userSpaceOnUse"><stop stop-color="#5079dd"/><stop offset="1" stop-color="#3e3bac"/></linearGradient><linearGradient id="SVGDYP1FeVH" x1="18" x2="18" y1="8.998" y2="17.452" gradientUnits="userSpaceOnUse"><stop stop-color="#5079dd"/><stop offset="1" stop-color="#3e3bac"/></linearGradient></defs></g></svg>