<svg xmlns="http://www.w3.org/2000/svg" viewBox="0 0 24 24"><g fill="none"><path fill="url(#SVGuNZ8N5dZ)" d="M11.5 16.5a1 1 0 1 0 0-2a1 1 0 0 0 0 2"/><path fill="url(#SVGZKSZSFJh)" fill-rule="evenodd" d="M12 3L4 7.485v8.99L12 21l8-4.525v-8.99zm2.045 3.5H11.54c-.19.005-.53.14-.54.615v6.448a2 2 0 1 0 1 0V9.5h1.58c.15 0 .42-.17.42-.5c0-.325-.265-.5-.42-.5H12v-1h2.05c.175 0 .45-.195.45-.5a.48.48 0 0 0-.455-.5" clip-rule="evenodd"/><defs><linearGradient id="SVGuNZ8N5dZ" x1="12.001" x2="12.001" y1="3" y2="21" gradientUnits="userSpaceOnUse"><stop stop-color="#4ab0e1"/><stop offset="1" stop-color="#58b9cf"/></linearGradient><linearGradient id="SVGZKSZSFJh" x1="12" x2="12" y1="3" y2="21" gradientUnits="userSpaceOnUse"><stop stop-color="#4ab0e1"/><stop offset="1" stop-color="#58b9cf"/></linearGradient></defs></g></svg>