<svg xmlns="http://www.w3.org/2000/svg" viewBox="0 0 24 24"><g fill="none"><path fill="url(#SVGeuDfoeYL)" d="m7.522 5.582l3.884 3.799a.36.36 0 0 1 0 .513L7.518 13.7a.38.38 0 0 1-.527 0L3.107 9.898a.36.36 0 0 1 0-.513l3.889-3.803a.38.38 0 0 1 .526 0m4.743 4.717L16.15 14.1a.36.36 0 0 1 0 .513l-3.888 3.803a.38.38 0 0 1-.526 0L7.85 14.62a.36.36 0 0 1 0-.513l3.888-3.807a.38.38 0 0 1 .526 0m4.744-4.717l3.883 3.799a.36.36 0 0 1 0 .513L17.005 13.7a.38.38 0 0 1-.526 0l-3.884-3.803a.36.36 0 0 1 0-.513l3.888-3.803a.38.38 0 0 1 .527 0"/><defs><linearGradient id="SVGeuDfoeYL" x1="19.619" x2="9.3" y1="7.171" y2="16.838" gradientUnits="userSpaceOnUse"><stop stop-color="#5c84f9"/><stop offset=".28" stop-color="#5d70f8"/><stop offset=".57" stop-color="#5f5bf6"/><stop offset="1" stop-color="#6349f4"/></linearGradient></defs></g></svg>