<svg xmlns="http://www.w3.org/2000/svg" viewBox="0 0 24 24"><g fill="none"><path fill="#c9eeff" d="m8.999 3l-3 1.8l3 1.8l3-1.8zm6 0l-3 1.8l3 1.8l3-1.8z"/><path fill="#c9eeff" d="M12 4.8L9 6.6l3 1.8l3-1.8z"/><path fill="#c9eeff" d="M9 6.6L6 8.4l3 1.8l3-1.8zm6 0l-3 1.8l3 1.8l3-1.8zM12 12l-3 1.8l3 1.8l3-1.8zm-9-1.8l3-1.8V12zm18 0l-3-1.8V12z"/><path fill="#59a8fe" d="m8.999 6.6l-3-1.8v3.6z"/><path fill="#5176e5" d="m12 19.2l-3-1.8V21zm3-12.6l3-1.8v3.6z"/><path fill="#59a8fe" d="m11.999 19.2l3-1.8V21zm-3-9l-3-1.8V12l3 1.8zm6 0l-3-1.8V12l3 1.8z"/><path fill="#5178e5" d="m15 10.2l3-1.8V12l-3 1.8zm-6 0l3-1.8V12l-3 1.8z"/><path fill="#5178e5" d="m15 13.8l3-1.8v3.6l-3 1.8zm-3 1.8l3-1.8v3.6l-3 1.8z"/><path fill="#5178e5" d="m15 17.4l3-1.8v3.6L15 21zm3-5.4l3-1.8v3.6l-3 1.8z"/><path fill="#59a8fe" d="m6 12l-3-1.8v3.6l3 1.8zm3 1.8L6 12v3.6l3 1.8z"/><path fill="#59a8fe" d="m8.999 17.4l-3-1.8v3.6l3 1.8zm3-1.8l-3-1.8v3.6l3 1.8z"/><path fill="#d5e9ff" d="M8.85 13.8v-3.697L9 10.2l.15-.096V13.8zm6.3-3.697V13.8h-.3v-3.696l.15.096zm-.3 10.596v-3.6h.3v3.6zm-6 0v-3.3h.3v3.3z"/><path fill="#000" d="m15 3l2.976 1.8l-.276.168l-2.7-1.62l-2.718 1.62L15 6.6l-3 1.842l-3-1.5l-5.7 3.42v3.396l5.55 3.318v-3.15l-2.826-1.71L6 11.922l3 1.746l3-1.74l3 1.74l2.976-1.74v.288l-2.826 1.71v3.15l5.556-3.318v-3.396L18 8.7l-.024-.318l3.023 1.818v3.72l-8.711 5.16L15 20.658l2.976-1.74v.282L15 21l-3-1.746L9 21l-2.976-1.794v-.294L9 20.658l2.712-1.578L3 13.92V10.2l6-3.6l3 1.5l2.424-1.5L9 3.342l-2.778 1.62L6 4.8L9 3l3 1.8zm-3 15.912l2.85-1.656V13.92L12 12.264l-2.85 1.662v3.33z"/></g></svg>