<svg xmlns="http://www.w3.org/2000/svg" viewBox="0 0 24 24"><g fill="none"><path fill="#02828b" d="m6.33 10.594l-1.4-6.188l3.729 6.188z"/><path fill="#00514f" d="m6.33 10.594l-3.33 9l5.659-9z"/><path fill="#001e1e" d="M4.912 4.424L3 19.594l3.375-9z"/><path fill="#02828b" d="m17.67 10.594l1.4-6.188l-3.73 6.188z"/><path fill="#00514f" d="m17.67 10.594l3.33 9l-5.66-9z"/><path fill="#001e1e" d="M19.088 4.424L21 19.594l-3.375-9z"/><path fill="#00504f" d="M12 9.356s-2.138.765-3.212 1.136l3.211 5.18z"/><path fill="#001e1e" d="M12 9.349s2.15.77 3.218 1.142l-3.212 5.18V9.355z"/><path fill="#01a0a6" d="m12 9.373l-3.212 1.136l3.211-5.175z"/><path fill="#028188" d="m12 9.373l3.218 1.125L12 5.334z"/></g></svg>