<svg xmlns="http://www.w3.org/2000/svg" viewBox="0 0 24 24"><g fill="#222326"><path d="M12 4.414a7.586 7.586 0 1 0 0 15.173a7.586 7.586 0 0 0 0-15.173M3 12a9 9 0 1 1 18 0a9 9 0 0 1-18 0"/><path d="M13.268 14.71a1.5 1.5 0 0 1-.102-.28q-.045-.164-.073-.331a2.2 2.2 0 0 1-.725.52a2.4 2.4 0 0 1-.483.15a2.6 2.6 0 0 1-.574.06a2.8 2.8 0 0 1-.925-.144a2.2 2.2 0 0 1-.718-.405c-.199-.17-.36-.38-.471-.616a1.8 1.8 0 0 1-.17-.785q0-1.033.768-1.595c.515-.379 1.282-.59 2.301-.59h.737v-.365c0-.566-.43-1.02-.997-1.02c-.342 0-.592.118-.749.267q-.235.216-.235.586h-1.68q0-.417.182-.792c.125-.25.304-.513.537-.702a2.7 2.7 0 0 1 .864-.447q.513-.17 1.172-.17q.591.001 1.1.146q.513.145.888.429q.374.284.585.718q.212.43.212.998v2.802q0 .525.067.87q.066.345.193.593v.102zm-.94-1.397c.237-.13.407-.304.502-.47v-1.085h-.655c-.5 0-1.155.053-1.384.577c-.144.32-.111.723.152.972c.392.363.971.235 1.386.006"/></g></svg>