<svg xmlns="http://www.w3.org/2000/svg" viewBox="0 0 24 24"><g fill="none"><path fill="#fff" d="M7.321 18.136a.676.676 0 0 0-.912.091a.626.626 0 0 0 0 .83c2.088 1.664 4.497 1.93 5.714 1.943c2.273.025 4.825-1.18 5.816-1.785c.211-.13.467-.492.186-.904c-.28-.411-.765-.288-.97-.175c-.814.507-2.958 1.52-5.031 1.52c-2.585 0-4.335-1.2-4.799-1.517zM7.25 6a1.5 1.5 0 1 0 0-3a1.5 1.5 0 0 0 0 3m10.2-2.924c.294-.14.603-.07.694.085c.167.285.012.466-.086.524l-1.626.797c.445.22 1.383.684 1.58.78c.247.12.313.348.145.59c-.114.165-.441.184-.594.097l-2.017-1a.52.52 0 0 1-.296-.448a.57.57 0 0 1 .296-.495c.513-.252 1.611-.79 1.905-.93"/><path fill="#d1aa11" d="m11.241 16.06l1.15-3.6l1.422 3.68a1.347 1.347 0 0 0 1.723.777a1.3 1.3 0 0 0 .847-1.093l1.818-6.636a1.31 1.31 0 0 0-.934-1.62a1.345 1.345 0 0 0-1.634.943l-.798 2.912l-1.183-3.062a1.35 1.35 0 0 0-1.413-.85a1.35 1.35 0 0 0-1.351.932L9.87 11.626L8.853 8.443a1.346 1.346 0 0 0-1.674-.874a1.31 1.31 0 0 0-.865 1.654L8.5 16.059a1.35 1.35 0 0 0 1.37.93a1.35 1.35 0 0 0 1.371-.93"/></g></svg>