<svg xmlns="http://www.w3.org/2000/svg" viewBox="0 0 24 24"><g fill="none"><path fill="url(#SVGaJXIEbFY)" d="M11.912 3L6.7 5.842v5.684l.867.474l-.867.474v5.684L11.85 21l5.272-2.842v-3.316h-2.506l-2.704 1.44l-2.369-1.26v1.056l2.369 1.284l3.017-1.601h1.246v1.923l-4.264 2.369l-4.263-2.369v-4.737l.82-.454l3.444 1.875l3.102-1.69l-.871-.498l-2.232 1.241L9.355 12l-.881-.493l-.825-.454V6.316l4.264-2.369l4.263 2.369V7.5h.947V5.842zm5.21 4.95h-.947v3.103l-.82.454l-3.443-1.875l-3.042 1.657l.891.484l2.15-1.194l1.838 1.018l1.777.98l-.01.006l.659.364v1.421h.947v-1.894L16.255 12l.867-.474z"/><path fill="#14161a" d="M15.919 6.027c-.057-.005-.066.08-.062.118c0 .09.166 0 .185-.019c.014-.019-.047-.095-.123-.1m.777-.029c-.062-.014-.123.062-.147.104c0 .119.095.048.147 0c.028-.028.066-.094 0-.104m-.606-.379c-.057-.01-.048-.07-.038-.094c.033-.071.142 0 .142.042q.001.073-.104.052m.568 1.16a.12.12 0 0 1 .076-.141c.113.047.047.199.033.26c-.014.057-.08-.01-.109-.118m.398.57c-.123.023-.251.17-.299.236l.299.033c.047-.1.123-.298 0-.27m-.91.042c-.066-.029-.123.118-.142.19h.29c-.02-.048-.081-.157-.143-.19zm.346-.043c-.047.029-.09-.061-.104-.109c.028-.085.104-.057.147-.023c.047.028.014.094-.043.132m.152-.232c-.038.02-.156-.085-.213-.142c0-.066.094-.043.137-.028c.033.014.123.142.076.17m-.303.005c.023-.062-.062-.071-.105-.071l-.08.142c.047 0 .16-.014.19-.071zm-4.557 3.42c-.024-.005-.033-.066-.033-.095c.066-.07.09 0 .104.024c.01.019-.038.08-.071.07m-.479-.152c-.01-.056-.042-.075-.056-.08h.227c-.019.033-.057.104-.043.118c.024.02-.01.104-.07.09c-.062-.019-.048-.061-.058-.128m5.708-1.52c-.033 0-.128-.133-.175-.2c.066.077.393 0 .403.02c.014.023-.185.18-.228.18m.119-.517c-.029-.047-.166-.037-.228-.028a.4.4 0 0 0 .11.1c.047.018.15-.005.118-.072m-.772.133c-.048-.01-.09.033-.105.057c.015.062.072.052.119.062c.047.009.118-.029.114-.086c-.005-.047-.072-.019-.128-.033m.36-.052a.127.127 0 0 0-.138-.114c0 .038-.019.138-.023.237c-.01.128.08.17.132.17s.043-.175.024-.293z"/><path fill="#14161a" d="M17.184 9.006c.033-.076-.275-.237-.142-.204c.17.038.156.29.142.204m-.389.137c-.047.024-.028-.1-.014-.165a.4.4 0 0 1 .17 0c.048.023-.094.142-.155.165m-.208.27c-.028-.052.014-.123.038-.151c.095 0 .085.222.071.246c-.014.02-.071-.028-.109-.095m-.284-.18l-.024-.407a.5.5 0 0 1 .166-.047c.07.004.033.047.033.104c0 .047-.066.047-.1.043v.265a.3.3 0 0 0 .1-.024c.062-.028-.01-.085-.033-.151c-.02-.067.028-.024.161 0c.137.023.057.18 0 .175c-.052 0-.047.023-.062.08c-.014.052-.175.114-.236.095c-.067-.019 0-.057 0-.133zm-.147-.933c-.047-.014-.071-.085-.076-.118l.299-.033c.056.023.165.085.146.132c-.018.057-.317.033-.37.02m-.052.896c-.057 0-.057-.076-.047-.119c.056-.047.123.01.132.033c.014.02-.014.086-.085.086m.085.194c-.019.028-.08-.062-.109-.114a.3.3 0 0 1 .11-.019c.032.01.027.095 0 .133m.696.383a.07.07 0 0 1-.023-.08c.142-.014.16.137.16.16c0 .025-.099-.046-.141-.08zm-.199.218c-.042.014-.08-.118-.094-.184a.13.13 0 0 1 .095 0c.047.023.056.17 0 .19zm-.35.076c-.047-.033.019-.128.057-.17a.08.08 0 0 1 .066.047c.02.038-.066.16-.123.123m-.218-.246c-.076 0-.071-.071-.057-.104c.033-.015.105-.038.128-.02c.033.02.024.124-.07.124m1.18.412c-.024-.038-.318-.043-.261-.029c0 .024.014.076.01.095c0 .029.274-.024.25-.066m-.161-.27c.014.085-.313.227-.114.199c.246-.033.208-.26.114-.194z"/><path fill="#14161a" d="M16.79 10.295c-.033.043-.014.104 0 .133c.053 0 .166-.01.209-.043c.052-.038.033-.18 0-.213s-.161.076-.204.128zm-.71.119c.024-.024.085-.223.114-.318c0 .095.156.194.232.237v.08c-.123.015-.36.03-.341 0zm.63 1.08c-.047-.01-.114.019-.142.033c0 .033.113.07.142.062c.028-.015.052-.081 0-.095m.199-.147c-.038-.071.204.033.208.038l-.033.104a.5.5 0 0 1-.175-.142m-.076-.156c-.028-.072.052-.114.1-.128v.213c0 .019-.062 0-.1-.085m-.331-.252c-.062-.052.023-.17.075-.222c.052-.005.166 0 .18.047c.02.062-.18.237-.255.175m-.924 1.663c-.024-.01-.01-.071 0-.104c.08.019.237.066.237.104c0 .047-.209.005-.237 0m-.09-.175c-.057-.02.024-.142.066-.2c.029.01.085.039.095.077c.01.047-.095.142-.161.123M15.89 12c-.075 0-.085-.237-.08-.35c.147-.082.204.165.227.245c.029.076-.061.11-.151.104zm-.554-.28a.25.25 0 0 0 .095.223c.104-.048.033-.143.019-.209c-.005-.047.17-.213.256-.289c.061 0 .204-.005.265-.014s.024-.07 0-.104c-.123-.005-.37-.005-.384.038c-.018.052-.227.223-.25.355m-.89.748c-.048 0-.005.081.019.124c.047 0 .151-.01.142-.053c-.01-.051-.11-.066-.161-.07m-.251.048c-.048-.048-.11.076-.138.142c.218 0 .119.161.152.151a1 1 0 0 1 .18.024c0 .08.01.237.047.256c.034.019.228-.161.322-.256c-.047-.033-.151-.113-.217-.142c-.086-.033-.218 0-.299-.033c-.076-.029.01-.085-.047-.142m-.384-.01c.005-.075.047-.227.18-.203s-.061.142-.18.203m-.327.26c-.047-.037-.194.039-.26.077l.033.052c.08.01.265.019.308 0c.057-.024-.014-.08-.076-.128zm-.137-.217c-.057-.024-.1.076-.119.128c.072 0 .214-.01.218-.048c.01-.047-.033-.047-.1-.08m1.009-1.307a5 5 0 0 1-.365.156c.194.118.602.346.659.322c.07-.028 0-.223 0-.265c0-.038-.247-.242-.294-.213m2.292 1.624c-.038-.019-.07.029-.085.052a4 4 0 0 0-.047.394c.014.09.16 0 .199-.02c.038-.018-.038-.175-.067-.203q-.042-.05.029-.095c.047-.019.019-.104-.029-.128m-.378.417c-.048 0-.114-.156-.143-.237c.143-.023.143.086.2.119c.047.028.004.128-.053.118zm.033-.568c-.024-.08.066-.175.113-.209c.09.029.048.237.034.266c-.015.037-.034.18-.081.151s-.043-.104-.066-.208m.312-.265c.048-.038.128-.143.157-.185c.042.019.109.07.056.137c-.061.076.095.275.11.36c.014.08-.038.085-.11.057c-.066-.029-.014-.218-.07-.275c-.057-.056-.086.057-.11.161c-.028.11-.033-.047-.056-.104c-.029-.052-.034-.104.023-.152m-.497 1.42c-.047.029 0 .095.033.128l.119.015l.037.128h.308l-.308-.17c0-.03 0-.096-.023-.129c-.034-.038-.114-.01-.166.029m.398 2.194c0-.076.019-.071.028-.062c.014 0 .048.005.066.024c.015.023-.033.241-.094.222c-.062-.018-.005-.094 0-.189zm-2.113 2.832c-.095.005 0 .128.066.185c.029 0 .081-.014.081-.07c0-.072-.033-.124-.147-.115m-.91.413c-.066.028-.004.109.034.142c.038-.005.109-.043.104-.095c-.01-.076-.047-.085-.137-.047m3.298-1.91c-.11-.094-.228.043-.275.124c.042 0 .137.005.18.033c.047.024-.043.09-.086.118c-.018.033-.023.095.086.086c.137-.01.237-.237.095-.36m-.351-.165l.142-.194l.156.194zm-2.956 2.515c-.109.038.01.166.085.223c.029-.02.095-.067.11-.128c.018-.076-.062-.142-.195-.095m2.89-4.254c0 .08.019.237.142.228c.156-.015-.062-.251-.142-.228m-.161-.07c-.02-.02-.01-.062 0-.081c.047-.08.113 0 .104.047c-.01.052-.085.052-.104.033m.568-.366c-.066-.014-.028-.109 0-.156c.028 0 .08.01.09.047c.01.048 0 .124-.09.11m-.89.304c-.048 0-.048-.071-.034-.11c.034-.08.11-.06.133 0c.024.058-.028.095-.095.105zm.199-.37c-.086 0-.057-.208-.034-.312h.08c.048 0 .058.312-.046.312m-1.564.119c-.056-.034-.113.085-.142.142c0 .085.095.033.142 0c.048-.029.071-.105 0-.142m.53.09c-.06-.034-.122.094-.15.156c0 .095.103.033.15 0c.048-.033.077-.118 0-.156m-1.26.45c.006-.048-.032-.057-.056-.057a.4.4 0 0 1-.133.057c-.047 0 0 .056.072.075c.07.02.108-.014.118-.075m-2.765.691c.014-.061-.029-.08-.048-.08c-.024 0-.07.01-.09.056c-.014.048.038.076.062.086c.019.005.056 0 .076-.062m.772.389c-.1-.062-.119.07-.114.142h.142c.071 0 .095-.067-.028-.142m-.304.075c-.014-.066-.004-.189.124-.151c.166.052-.076.275-.123.151m-1.098-.27c0-.085.033-.236.132-.165c.128.094-.047.255-.132.165m.255-.592c-.033 0-.033.062-.028.095c0 .033.019.114.062.114c.047 0 .056-.071.056-.128s-.047-.085-.094-.08zm-.18.048c-.042 0-.047.056-.047.085c.01.028.038.085.062.095c.028 0 .075-.071.075-.095c0-.029-.033-.09-.09-.085m-.232-.185c-.042-.01-.038-.057-.033-.08c.005-.024.024-.067.057-.067c.038 0 .057.038.052.076c0 .038-.019.076-.076.07m.412.076c.005-.048-.047-.08-.075-.095c-.072.038-.062.142-.029.156c.033.02.095-.014.104-.066zM9.8 15.6c-.066.004-.095-.076-.1-.114c.01-.043.043-.119.1-.11c.062.01.08.077.085.11c0 .033-.014.1-.085.109zm.17-.034c-.042.01-.056-.047-.061-.07c0-.024.024-.076.066-.072c.038.01.048.048.052.071c0 .024-.01.067-.052.071zm2.17 4.946c-.043 0-.062.047-.066.07c0 .024.014.081.066.081a.1.1 0 0 0 .095-.07c0-.03-.048-.081-.095-.081m-.45.042c.01-.061.043-.184.109-.166c.09.02.052.176-.11.166m-.275.237c-.076.033-.104-.085-.109-.152h.142c.105 0 .057.114-.033.152m-.35-.692c-.029-.009-.033-.052-.033-.075a.07.07 0 0 1 .033-.052c.033-.02.066.052.066.094c0 .048-.024.048-.066.034m-.791-.601c-.048.043.004.095.037.118c.029-.023.081-.085.081-.118c0-.038-.052-.047-.118 0m-.839-.488c-.047 0-.142-.17-.185-.256a.193.193 0 0 1 .237.119c.02.047.01.147-.047.142zm-.388-.298v-.218a.6.6 0 0 1 .19.123c.042.052-.11.085-.19.095m-.867-.389c.01.071.043.204.085.17c.057-.047.043-.17-.085-.17m-.876-.526c-.034.119-.052.365.113.408c.166.038-.01-.256-.113-.407m-.251-.705c-.034-.015.01-.086.033-.123c.094-.043.128 0 .142.047c.005.038-.142.09-.175.076m.028-.517c-.066-.005-.028.104 0 .161c.033 0 .104-.014.142-.061c.038-.057-.061-.085-.142-.095zm.26-1.06c-.056-.024-.056.08-.047.141c.029.01.09.029.123 0c.038-.042-.01-.109-.075-.142m.024-.797c-.07-.042-.151.147-.19.247c-.023.066.124.033.162 0c.042-.033.113-.194.028-.247m2.984-1.582c-.019-.038-.104.01-.142.043c.076 0 .119.18.17.185c.053 0 .143-.067.143-.104c0-.043-.104-.024-.142-.034c-.033-.01 0-.047-.029-.094zm.228-.473c-.02-.02-.142.004-.204.023c-.047.048.137.104.204.104s.024-.104 0-.127m.293.298c-.056-.076-.151.029-.189.095c.01.01.038.038.08.038c.048 0 .171-.043.105-.133zm-.023.488c-.066-.038-.029-.147 0-.199c.066 0 .18.128.165.175c-.018.048-.085.076-.165.024M10.51 13c-.056-.024-.075.095-.075.152c.028.009.104.023.156-.02c.057-.056-.014-.094-.08-.132m-.459-.242c-.047-.009-.09.067-.104.11c.123.037.033.189 0 .213s-.038.108.014.127c.047.024.18-.047.199-.085c.024-.042-.08-.061-.062-.109c.024-.047.057-.033.062-.147c.01-.113-.048-.104-.109-.113zM9.68 11.3c-.009-.037.029-.075.053-.094c.1.057.047.18 0 .194c-.048.014-.038-.047-.052-.095zm.882-.34a.3.3 0 0 1-.128-.133a.7.7 0 0 1 .203-.024c.076.005.157.152.124.175c-.034.029-.128 0-.2-.023zm-1.114 1.373c.071.028.214.095.19.161c-.029.08-.223-.005-.19-.16m-2.444.763c-.019-.048-.07-.02-.095 0a.7.7 0 0 1 .057.142c0 .019.038.218.076.256c.043.033.218.08.218.047s-.199-.237-.166-.26c.029-.029.076-.11.048-.11c-.029 0-.114-.018-.138-.075m.223-.29c-.048.02-.08-.032-.095-.06c.043-.048.133-.048.161 0c.024.046-.01.046-.066.066zm.327-.549c-.048-.014-.005-.07.019-.095c.019 0 .07.024.094.043c.038.02.048-.014.095.033c.038.048.024.209 0 .237c-.033.024-.095-.014-.095-.123c.01-.109-.066-.076-.118-.095zm.71-.46c-.038-.046.033-.094.071-.113a1 1 0 0 1 .152.071c.019.02.019.066-.038.095a.15.15 0 0 1-.185-.047zm.73.418c-.02-.071-.285-.285-.412-.38c-.076.048.18.38.236.427c.048.043 0 .185 0 .237c-.009.052.015.114.057.1c.038-.01.142-.304.119-.384m-1.649-.905c0-.047.029-.071.048-.08c.061 0 .094.09.1.123c0 .033-.048.047-.077.047s-.061-.038-.07-.095zm.967.81c-.029-.019-.124.005-.166.024c-.014.047-.038.142 0 .175c.047.047.151 0 .19-.047c.037-.048.018-.128-.02-.152zm-.427-.308c-.028-.104-.237-.204-.331-.237c.061.147.199.45.237.46c.047.01.118-.095.094-.228zm-.625-1.099c-.043-.019-.019-.142 0-.194c.109-.062.123 0 .161.057c.043.061-.104.166-.161.142zm.27-1.33c-.033-.048.071-.134.128-.167c.085.02.038.104 0 .152c-.033.047-.085.076-.128.014m-.403.15c.057.166.18.474.218.351c.052-.142 0-.412-.218-.35m-.023-.696c-.067-.019-.142.119-.17.19c0 .005.013.014.07 0c.071-.02.175-.166.095-.19zm.075-.128c.048-.019.465-.379.242.19c.01-.085-.033-.237-.237-.19zm.261-.582c-.043.014-.123-.095-.161-.147c.019-.066.104-.014.161.019c.057.028.057.118 0 .128m-.507.256c-.028.004-.047.061-.047.094c.01.015.038.048.085.038c.052-.005.237-.109.232-.156c-.01-.047-.237.014-.27.024m.09-.488C6.995 7.87 7 7.818 7.01 7.799c.161.01.137.128.118.142c-.023.019-.07-.014-.104-.047m-.199.151c0-.057.048-.109.071-.128c.095-.019.08.11.08.128c0 .024-.042.128-.08.123c-.047 0-.07-.047-.07-.123m.265-.402c0-.052-.094-.095-.142-.105c.015.048.038.133.071.152c.048.019.076.019.071-.047m.408-.834c-.033-.028-.029-.057-.024-.066a.09.09 0 0 1 .11 0c.046.038.013.052 0 .104c-.02.057-.048 0-.086-.038m-.18.166c-.066-.02-.029-.071 0-.095c.085-.076.118 0 .18.095c.061.094-.095.023-.18 0m-.256.023c.01-.142-.166-.25-.251-.293c-.066.042-.175.113-.052.104c.151-.019.294.36.303.19m.17-.506c-.009-.024.034-.086.057-.114c.048-.057.095.024.095.057c0 .038-.066.109-.095.109c-.028.004-.037-.024-.056-.052m-.104-.029c-.033 0-.047-.047-.052-.07l.048-.048s.08.028.085.047c.005.02-.043.066-.08.071m.569-.241c-.062 0-.076-.067-.076-.095a.2.2 0 0 1 .076-.09c.038-.014.07.085.08.118s-.004.071-.08.071zm-.474.862a.1.1 0 0 1-.047-.086l.113.029c.02-.024.119-.029.1.057c-.014.08-.104.033-.161 0zm.63-1.464c-.028.024-.07-.038-.085-.071c0-.071.052-.076.085-.047s.038.09 0 .118m.654-.142c-.014-.01-.005-.08 0-.114c.047 0 .123.085.113.114c-.014.028-.094.01-.113 0m-.157-.1c-.061-.009-.028-.07 0-.104c.034-.057.095 0 .119.062c.024.057-.043.057-.119.047zm.938-.336c-.061.01-.047-.09-.033-.142a.12.12 0 0 1 .119 0c.056.038-.005.128-.086.142m-1.108.65c-.057.027.01.122.047.17c.038-.034.119-.11.123-.143s-.094-.066-.17-.028m5.485-1.176c-.033 0-.033.067-.028.1c.114.042.047.113 0 .142c.01.066.033.199.066.194c.038 0 .142-.208.142-.241c-.005-.038-.07-.038-.095-.095c-.033-.052-.047-.09-.085-.095zm-.345.204c-.034 0-.076-.071-.095-.104c.033-.043.142 0 .19.047c.046.038-.053.062-.095.057m-.337-.17c-.061.028-.085-.038-.09-.076c.014-.024.048-.076.09-.067c.047.01.071.11 0 .142m1.63.776c0-.023-.133-.094-.2-.123c-.047 0-.018.123 0 .142c.02.02.19.014.2-.019m.71.375c-.047.047.014.27.048.374c.042-.142.208-.247.288-.284c-.042-.015-.123-.057-.127-.09c-.005-.034.27-.034.265-.053c0-.019-.156-.146-.237-.208c.014.024.043.09.024.123c-.024.048-.213.08-.266.142z"/><path fill="#14161a" d="M14.782 4.98c-.048-.019-.076 0-.086.014h-.019c-.033.038.095.128.161.17a3 3 0 0 0-.218.205c-.127.142.076.317.128.331c.053.02.27-.27.237-.303c-.028-.033-.075.1-.203.137c-.128.034-.086-.113-.062-.165s.284-.119.265-.161a.7.7 0 0 0-.203-.228m.385-.085c-.067-.019-.176.047-.218.08l-.029.048c-.076.095.27 0 .322.095c.052.094.152.184.223.085c.071-.1-.218-.284-.299-.308m-.356 0a1.5 1.5 0 0 1 0-.426c.138.09.393.265.332.255c-.071-.009-.294.204-.332.171m-.27-.204c-.042-.023.02-.19.052-.274l.133.047c.033.01-.133.251-.185.227m-.227-.033c-.057-.043-.047-.308-.033-.43l.237.146c-.043.114-.143.322-.204.284m-1.16-.696c-.029-.067-.223 0-.214.023c.014.02.048.072.08.138c.048.08.1.104.133.123c.038.019.034-.218 0-.284m-.73.042c.014-.023-.161-.018-.246-.018c.023.047.085.132.104.132c.028 0 .128-.08.142-.114m.767-.127c-.01-.048.062-.133.1-.176c.038.029.109.095.109.114c0 .024-.204.114-.213.062zm-1.137.004c-.033-.023-.047-.237-.052-.34c.048-.039.133.16.176.174c.037.02.236-.014.213.048c-.029.07-.284.151-.332.118zm-.156-.786l-.118.076c.104 0 .019.17 0 .218c-.024.047.056.056.09.052c.033 0 .156-.161.184-.19c.029-.033.157.11.18.142c.024.024.162.015.185-.019c.014-.028-.34-.194-.52-.274zm3.268 2.383c-.042 0-.061.047-.066.08c.029.104.119.047.123.02c.005-.03-.004-.096-.057-.096zm-4.57-1.057c-.067-.052-.095.138-.095.237c.052-.076.18-.047.237-.024a.7.7 0 0 0-.143-.213m4.244 11.231c-.048-.047 0-.128.033-.165c.118 0 .076.09.061.165c-.014.08-.037.062-.094 0m-2.71 4.619c-.047-.038-.019-.076 0-.09c.119-.043.128.028.11.07c-.02.039-.048.072-.11.02m.2.066c-.053-.043-.025-.076 0-.095c.113-.038.127.034.108.076c-.019.038-.047.071-.109.02"/><defs><linearGradient id="SVGaJXIEbFY" x1="17.222" x2="6.86" y1="12" y2="12" gradientUnits="userSpaceOnUse"><stop stop-color="#818284"/><stop offset="1" stop-color="#fbfbfb"/></linearGradient></defs></g></svg>