<svg xmlns="http://www.w3.org/2000/svg" viewBox="0 0 24 24"><g fill="none"><path fill="#8c20c7" d="M11.037 6.284L6.993 8.58V4.526a8.95 8.95 0 0 1 4.044-1.471z"/><path fill="url(#SVGdbnlZd9T)" d="m6.993 8.58l-3.917 2.224a9 9 0 0 1 3.917-6.278z"/><path fill="#2c4ce8" d="m4.045 16.212l8.204 4.78l-.248.005a9 9 0 0 1-7.956-4.785"/><path fill="#9a28c5" d="m15.25 3.884l-4.213 2.398v-3.23a9.1 9.1 0 0 1 4.213.551z"/><path fill="#9a38dd" d="M18.988 6.331a9 9 0 0 0-3.452-2.61l-.285.16v4.657z"/><path fill="url(#SVGL8XihdGY)" d="m15.25 3.885l-4.213 2.398v4.737l4.213-2.488z"/><path fill="url(#SVGJNJnzd1x)" d="M6.993 13.409V8.58l4.044-2.297v4.738l-4.044 2.381z"/><path fill="url(#SVGyiCxrHOa)" d="M6.993 13.41V8.581l-3.917 2.223a9.1 9.1 0 0 0 .582 4.568z"/><path fill="url(#SVGH3mhVbGa)" d="M19.194 10.913V6.59l-.212-.265l-3.731 2.207v4.722z"/><path fill="url(#SVGxJ8PTZ9I)" d="m15.25 8.532l-4.213 2.488v4.732l4.213-2.498z"/><path fill="url(#SVG1NVE2baT)" d="M6.993 18.157v-4.748l4.044-2.388v4.733z"/><path fill="#4f1ae0" d="m6.993 18.157l-.974.566a9 9 0 0 1-2.366-3.356l3.335-1.964v4.748z"/><path fill="#3756ea" d="M10.566 20.883a8.95 8.95 0 0 1-3.573-1.408v-1.323l4.044-2.398v4.849l-.476.28z"/><path fill="url(#SVGgfEKedPL)" d="m15.25 13.254l-4.213 2.498v4.849l4.213-2.54z"/><path fill="url(#SVGoJZSLdow)" d="M15.25 18.067v-4.812l3.944-2.339v4.775z"/><path fill="#812bd5" d="m20.771 9.984l-1.704 1.006V6.427a9 9 0 0 1 1.704 3.557"/><path fill="#4f3fe2" d="m19.146 15.722l1.376-.83a9 9 0 0 0 .25-4.908l-1.626.958z"/><path fill="#4026e5" d="M19.067 17.575a9 9 0 0 0 1.482-2.753l-1.482.9z"/><path fill="#2f2ae6" d="m15.25 18.036l-4.213 2.557v.355a9.1 9.1 0 0 0 4.213-.551z"/><path fill="#472ce6" d="M15.25 20.397v-2.361l3.944-2.388v1.763a9.03 9.03 0 0 1-3.943 2.985"/><path fill="#fff" d="m7.765 14.117l4.203-7.411l4.266 7.41h-2.207l-2.06-3.583l-2.026 3.584zm2.24 0h3.964l-2.001 3.175z"/><defs><linearGradient id="SVGdbnlZd9T" x1="16.038" x2="15.549" y1="12.001" y2="13.517" gradientUnits="userSpaceOnUse"><stop stop-color="#851db9"/><stop offset="1" stop-color="#8724cc"/></linearGradient><linearGradient id="SVGL8XihdGY" x1="11.186" x2="10.923" y1="11.226" y2="12.116" gradientUnits="userSpaceOnUse"><stop stop-color="#a441e3"/><stop offset="1" stop-color="#8824de"/></linearGradient><linearGradient id="SVGJNJnzd1x" x1="13.32" x2="13.03" y1="11.748" y2="12.658" gradientUnits="userSpaceOnUse"><stop stop-color="#8e29dd"/><stop offset="1" stop-color="#7f2de4"/></linearGradient><linearGradient id="SVGyiCxrHOa" x1="13.961" x2="13.662" y1="12.43" y2="13.278" gradientUnits="userSpaceOnUse"><stop stop-color="#8631e7"/><stop offset="1" stop-color="#631cde"/></linearGradient><linearGradient id="SVGH3mhVbGa" x1="13.027" x2="12.616" y1="11.663" y2="12.855" gradientUnits="userSpaceOnUse"><stop stop-color="#7e24d6"/><stop offset="1" stop-color="#782edd"/></linearGradient><linearGradient id="SVGxJ8PTZ9I" x1="12.565" x2="11.983" y1="11.195" y2="12.748" gradientUnits="userSpaceOnUse"><stop stop-color="#7021de"/><stop offset="1" stop-color="#682fe5"/></linearGradient><linearGradient id="SVG1NVE2baT" x1="12.683" x2="12.473" y1="11.561" y2="12.118" gradientUnits="userSpaceOnUse"><stop stop-color="#672ae6"/><stop offset="1" stop-color="#4d1ee0"/></linearGradient><linearGradient id="SVGgfEKedPL" x1="14.08" x2="13.762" y1="11.521" y2="12.629" gradientUnits="userSpaceOnUse"><stop stop-color="#5130d3"/><stop offset="1" stop-color="#3d37e6"/></linearGradient><linearGradient id="SVGoJZSLdow" x1="13.873" x2="13.501" y1="12.009" y2="13.196" gradientUnits="userSpaceOnUse"><stop stop-color="#5130d3"/><stop offset="1" stop-color="#603cd1"/></linearGradient></defs></g></svg>