<svg xmlns="http://www.w3.org/2000/svg" viewBox="0 0 24 24"><g fill="none"><path fill="url(#SVG3Ka5pcVx)" d="M20.437 13.958V3c-3.859 0-4.82 3.133-4.82 4.697v5.867c0 4.697-5.896 5.872-8.843 5.872C9.024 20.685 11.465 21 12.399 21c6.43 0 8.038-4.697 8.038-7.042"/><path fill="url(#SVGoijG1chE)" d="M20.438 3c-1.086.652-2.413 1.946-2.413 3.915v6.26c0 2.217-1.125 6.65-5.625 6.65c-2.571 0-4.388-.17-5.575-.366A12.9 12.9 0 0 0 12.394 21c6.435 0 8.044-4.697 8.044-7.042z"/><path fill="url(#SVGijRHTcXR)" d="M3.563 13.176V3l2.413.788v9c0 3.751 2.677 4.95 4.016 5.079c-.641.315-1.873.394-2.413.394c-3.212 0-4.016-3.392-4.016-5.085"/><path fill="url(#SVGJLf9Cb4s)" d="M8.383 6.915c0-2.193-1.609-3.003-2.407-3.133v9.394c0 3.91 2.407 4.691 3.61 4.691c1.447 0 2.684-.782 3.218-1.17c-3.538.625-4.42-2.087-4.42-3.52z"/><defs><linearGradient id="SVG3Ka5pcVx" x1="12.003" x2="12.003" y1="3" y2="21" gradientUnits="userSpaceOnUse"><stop stop-color="#a41351"/><stop offset="1" stop-color="#e0196c"/></linearGradient><linearGradient id="SVGoijG1chE" x1="18.444" x2="16.269" y1="3.782" y2="20.774" gradientUnits="userSpaceOnUse"><stop stop-color="#aa1654"/><stop offset="1" stop-color="#e51970"/></linearGradient><linearGradient id="SVGijRHTcXR" x1="11.992" x2="11.992" y1="3" y2="21" gradientUnits="userSpaceOnUse"><stop stop-color="#1631b6"/><stop offset="1" stop-color="#025de1"/></linearGradient><linearGradient id="SVGJLf9Cb4s" x1="9.39" x2="9.39" y1="3.782" y2="17.867" gradientUnits="userSpaceOnUse"><stop stop-color="#133bc1"/><stop offset="1" stop-color="#0264eb"/></linearGradient></defs></g></svg>