<svg xmlns="http://www.w3.org/2000/svg" viewBox="0 0 24 24"><g fill="none"><path fill="url(#SVGn1ouBIPn)" fill-rule="evenodd" d="M12.053 3.001q-.485 0-.966.053C6.541 3.534 3 7.357 3 12.002C3 16.972 7.052 21 12.053 21h.02a9.05 9.05 0 0 0 4.14-1.006c.366-.189.208-.738-.203-.726h-.017c-3.62.091-6.997-1.47-8.321-4.29c-.68-1.444-.93-2.618-.354-4.476c.19-.762.639-1.47 1.163-2.016q.06-.072.129-.136q.045-.047.094-.086l.04-.037l.032-.027a.5.5 0 0 1 .076-.062c.893-.722 2-1.204 3.15-1.2c2.7 0 5.06 2.205 5.06 4.795c0 .89-.408 1.825-.903 2.567c2.159-.74 3.689-2.804 3.688-5.13a5.2 5.2 0 0 0-1.335-3.47a9 9 0 0 0-1.132-.977l-.003-.003a9.04 9.04 0 0 0-5.308-1.719z" clip-rule="evenodd"/><path fill="url(#SVGC27BUdZr)" fill-rule="evenodd" d="M19.802 9.194a5.36 5.36 0 0 1-3.53 5.047a5.324 5.324 0 0 1-6.436-2.38c-.225-.394-.402-1.062-.522-1.63a.627.627 0 0 0-1.13-.225c-.469.678-.467 1.695-.385 2.474q0 .012.003.024q.042.424.152.837q.132.543.363 1.052c1.126 2.515 3.663 4.116 6.986 3.847c.328-.027.64-.127.963-.193c2.741-.576 4.717-3.052 4.734-5.968c0-2.34-.87-4.64-2.478-6.35a5.34 5.34 0 0 1 1.28 3.465" clip-rule="evenodd"/><defs><linearGradient id="SVGn1ouBIPn" x1="3.005" x2="21.004" y1="21.074" y2="21.074" gradientUnits="userSpaceOnUse"><stop stop-color="#2d2d4b"/><stop offset="1" stop-color="#1d1d3a"/></linearGradient><linearGradient id="SVGC27BUdZr" x1="7.77" x2="21" y1="18.216" y2="18.216" gradientUnits="userSpaceOnUse"><stop stop-color="#858eb7"/><stop offset="1" stop-color="#705e94"/></linearGradient></defs></g></svg>