<svg xmlns="http://www.w3.org/2000/svg" viewBox="0 0 24 24"><g fill="#ff0a6f"><path fill-rule="evenodd" d="m8.04 7.781l.002.002q.26.218.385.332l.05.05l.035.04c.173.227.108.43-.188.59a1.9 1.9 0 0 1-.673.179c-.191 0-.257-.07-.257-.07l-.04-.034c-.094-.077-.203-.166-.705-1.01L5.58 6.291a26 26 0 0 0-.405-.585c-.042-.037-.042-.036 1.393 2.4c.184.404.104.604.064.706a.2.2 0 0 0-.018.06c0 .147-.042.225-.234.427c-.318.338-.46.717-.564 1.502c-.115.88-.439 1.5-1.337 2.564c-.526.623-.612.737-.745.988c-.167.315-.213.493-.232.891c-.02.422.019.695.155 1.098c.118.353.243.586.56 1.052c.273.403.43.702.43.82c0 .092.02.093.444.002c1.015-.218 1.84-.6 2.304-1.07c.287-.29.354-.45.356-.848c.001-.26-.008-.315-.082-.465c-.12-.243-.34-.446-.824-.76c-.635-.412-.906-.742-.98-1.198c-.062-.374.01-.638.36-1.335c.363-.723.453-1.03.514-1.759c.04-.47.094-.656.237-.804c.148-.156.281-.208.65-.256c.599-.078.98-.225 1.294-.499c.272-.238.386-.467.403-.813l.013-.261l-.151-.169C8.633 7.371 3.315 3 3.28 3c-.006 0 .175.215.403.479C5.722 5.827 7.288 7.147 8.04 7.78m-3.083 7.942a.45.45 0 0 0-.15-.61c-.196-.124-.502-.066-.502.096a.1.1 0 0 0 .011.047l.007.013q.012.015.028.028l.025.018l.023.01c.109.055.117.114.03.237c-.087.124-.08.233.02.307c.161.12.388.054.508-.146" clip-rule="evenodd"/><path d="M8.508 4.28c-.031-.01-.006-.015.058-.024c.221-.033.745.011 1.105.093c.842.19 1.608.676 2.425 1.54l.217.23l.31-.048c1.31-.2 2.641-.04 3.755.447c.306.135.79.402.85.47c.02.023.054.164.079.314c.082.52.04.92-.127 1.217a1 1 0 0 0-.057.116l-.011.032c-.017.066-.006.118.033.204c.049.111.186.193.32.193c.277 0 .575-.425.713-1.016l.055-.235l.11.117c.594.641 1.062 1.515 1.143 2.136l.02.162l-.1-.147a1.9 1.9 0 0 0-.567-.566c-.399-.25-.822-.336-1.941-.392c-1.011-.05-1.583-.132-2.15-.308c-.966-.299-1.452-.696-2.6-2.124c-.508-.634-.823-.985-1.136-1.267c-.712-.643-1.41-.979-2.306-1.11a2 2 0 0 1-.198-.034"/><path d="M17.456 5.728c.026-.425.086-.706.208-.962a1 1 0 0 1 .101-.184a.6.6 0 0 1-.047.167c-.088.248-.104.587-.042.983c.078.502.122.574.68 1.115c.262.254.567.575.678.713l.2.25l-.2-.179c-.246-.219-.811-.645-.936-.706a.3.3 0 0 0-.074-.028h-.02c-.017.004-.031.015-.053.037c-.048.045-.058.112-.065.431c-.01.498-.082.817-.254 1.136c-.093.173-.108.136-.024-.059c.064-.146.07-.21.07-.69c-.002-.968-.123-1.201-.833-1.6a7 7 0 0 0-.658-.323a3 3 0 0 1-.322-.149c.02-.02.713.173.992.275c.413.15.482.17.532.152c.034-.012.05-.105.067-.38m-9.013-.743c-.067.747.242 1.746.741 2.398c.386.505.985.897 1.428.935c.29.025.377-.062.246-.243c-.182-.252-.406-.64-.465-.806a9 9 0 0 1-.178-.679c-.208-.92-.412-1.278-.885-1.55a3 3 0 0 0-.753-.267l-.113-.02zm8.408 7.247c-2.331-.89-3.152-1.663-3.152-2.968c0-.191.007-.348.015-.348c.01 0 .1.063.201.14c.473.36 1.002.513 2.467.716c.862.12 1.348.216 1.795.357c1.423.448 2.303 1.356 2.513 2.594c.06.36.025 1.034-.074 1.39c-.078.28-.316.786-.38.806q-.012.002-.022-.034a.5.5 0 0 1-.017-.111c-.023-.465-.27-.917-.686-1.256c-.473-.386-1.108-.693-2.66-1.286m-1.749-.098c.033.092.083.303.113.468c.186 1.054-.397 1.907-1.532 2.237q-.125.032-.253.056l-.319.059l-.209.035l-.27.045c-.927.146-1.34.25-1.756.44c-.296.135-.653.337-.631.357q.005.005.04-.003q.044-.01.109-.03c.524-.176 1.108-.266 1.995-.31c.127-.006.261-.013.387-.022l.168-.011l.17-.013l.076-.006l.088-.01c.79-.094 1.338-.321 1.763-.732c.237-.23.378-.442.492-.743c.072-.191.082-.261.083-.6c0-.344-.009-.407-.087-.618a1.9 1.9 0 0 0-.376-.65l-.11-.117z"/><path d="M16.282 14.402c-.31-.631-.38-1.241-.212-1.81c.019-.061.048-.11.066-.11a.2.2 0 0 1 .07.03q.044.022.092.053c.143.09.429.244 1.191.639c.952.492 1.494.873 1.863 1.31c.323.38.523.815.62 1.345c.054.3.022 1.022-.059 1.324c-.256.953-.85 1.7-1.699 2.137q-.12.067-.247.117q-.006 0 .003-.023l.01-.03c.017-.044.049-.113.087-.189c.286-.567.318-1.117.102-1.73c-.132-.375-.401-.832-.945-1.606c-.632-.9-.787-1.14-.942-1.457m-5.834 2.073c-.98.151-2.056.643-2.92 1.336l-.258.207l.226.033c1.18.175 1.5.33 2.318 1.131c.472.461.63.564 1.022.658c.574.14 1.14-.116 1.334-.603c.087-.217.075-.576-.024-.757c-.237-.43-.927-.57-1.26-.254c-.278.262-.197.658.148.725c.08.016.077.013-.02-.029c-.151-.065-.216-.155-.217-.298c-.002-.335.402-.524.78-.363c.275.118.384.273.384.543c0 .416-.373.73-.808.679a1.2 1.2 0 0 1-.67-.332c-.382-.411-.233-1.06.303-1.31c.407-.19.949-.142 1.369.119c.482.3.688.573 1.103 1.473c.136.293.31.623.388.733c.393.56.865.834 1.433.834c.313 0 .55-.055.846-.195c.22-.104.532-.303.51-.324a1 1 0 0 0-.203.06c-.62.23-1.251.214-1.618-.041c-.23-.16-.416-.48-.512-.878c-.017-.07-.071-.374-.122-.678c-.127-.77-.249-1.117-.534-1.514c-.292-.406-.853-.748-1.48-.9c-.391-.095-1.095-.12-1.518-.055"/><path fill-rule="evenodd" d="M9.076 10.522c.085-.297.359-.58.64-.662c.178-.052.548-.02.722.065c.338.163.582.533.529.8c-.065.327-.622.587-1.263.59c-.327.004-.448-.039-.573-.197c-.077-.098-.106-.416-.055-.596m1.276-.48c.168.097.211.241.113.374c-.069.092-.28.179-.434.179c-.23 0-.483-.156-.483-.298c0-.287.484-.441.804-.256" clip-rule="evenodd"/></g></svg>