<svg xmlns="http://www.w3.org/2000/svg" viewBox="0 0 24 24"><mask id="SVGCjyi9aiB" width="18" height="18" x="3" y="3" maskUnits="userSpaceOnUse" style="mask-type:alpha"><path fill="#0054fa" d="M21 12a9 9 0 1 0-18 0a9 9 0 0 0 18 0"/></mask><g fill="none"><g mask="url(#SVGCjyi9aiB)"><mask id="SVGPzpbgbyu" fill="#fff"><path d="M17.194 22.136h-.278l-.172-.002A6 6 0 0 1 15.657 22a6.3 6.3 0 0 1-1.134.12h-.479l-.35-.001h-.124l-3.285.012v-.024h-.4c-.404 0-.809-.042-1.204-.124a6 6 0 0 1-1.197.123H6.075a6.12 6.12 0 0 1-4.913-2.442l-.01-.013a6.18 6.18 0 0 1-.922-5.666l.493-1.481a9.7 9.7 0 0 1 .843-1.856a6.2 6.2 0 0 1 .05-2.19A5.9 5.9 0 0 1 2.59 5.32a6.7 6.7 0 0 1 1.05-1.859A6.83 6.83 0 0 1 8.943.908c2.048 0 .856.041 1.275.122c.345.067.618.147 1.205.326h.002c.089.028.139.042.166.05a7.4 7.4 0 0 1 3.395 2.036c.69.315 1.332.72 1.912 1.21a7.6 7.6 0 0 1 1.801.588c.743.35 1.424.812 2.023 1.376a7.76 7.76 0 0 1 2.08 3.289c.274.359.504.735.705 1.144c.208.421.328.784.388.964l.024.067l.033.105l.052.152l.002.008c.207.601.35 1.034.448 1.556v.007a7.3 7.3 0 0 1-.345 3.917l-.015.041l-.017.044l-.055.15a6.2 6.2 0 0 1-2.072 2.8a6.2 6.2 0 0 1-3.337 1.259l-.08.005l-.238.01h-1.104z"/></mask><g filter="url(#SVGsew6neIN)"><path fill="#0054fa" d="M17.194 22.136h-.278l-.172-.002A6 6 0 0 1 15.657 22a6.3 6.3 0 0 1-1.134.12h-.479l-.35-.001h-.124l-3.285.012v-.024h-.4c-.404 0-.809-.042-1.204-.124a6 6 0 0 1-1.197.123H6.075a6.12 6.12 0 0 1-4.913-2.442l-.01-.013a6.18 6.18 0 0 1-.922-5.666l.493-1.481a9.7 9.7 0 0 1 .843-1.856a6.2 6.2 0 0 1 .05-2.19A5.9 5.9 0 0 1 2.59 5.32a6.7 6.7 0 0 1 1.05-1.859A6.83 6.83 0 0 1 8.943.908c2.048 0 .856.041 1.275.122c.345.067.618.147 1.205.326h.002c.089.028.139.042.166.05a7.4 7.4 0 0 1 3.395 2.036c.69.315 1.332.72 1.912 1.21a7.6 7.6 0 0 1 1.801.588c.743.35 1.424.812 2.023 1.376a7.76 7.76 0 0 1 2.08 3.289c.274.359.504.735.705 1.144c.208.421.328.784.388.964l.024.067l.033.105l.052.152l.002.008c.207.601.35 1.034.448 1.556v.007a7.3 7.3 0 0 1-.345 3.917l-.015.041l-.017.044l-.055.15a6.2 6.2 0 0 1-2.072 2.8a6.2 6.2 0 0 1-3.337 1.259l-.08.005l-.238.01h-1.104z"/></g><path fill="url(#SVG7fZ7ieqJ)" d="M17.194 22.136v.073h.241l-.2-.134zm-.45-.002l.003-.073h-.001zM15.657 22l.016-.072l-.015-.003l-.015.003zm-1.134.12v.074zm-.471 0v-.073zm-.482-.001v-.073zm-3.285.012h-.073v.073h.074zm0-.024h.073v-.073h-.073zm-1.604-.124l.015-.071l-.015-.003l-.015.003zm-7.52-2.319l-.058.044zm-.01-.013l.06-.044H1.21zM.23 13.986l-.07-.023zm.493-1.481l.07.023zm.843-1.856l.063.037l.013-.022l-.004-.026zm.05-2.19l.072.014V8.46zm.033-.533l-.073-.008zm.94-2.607l.06.04l.006-.006l.002-.008zm1.05-1.858l.058.046zm6.58-2.43l-.015.071zm1.204.325l-.022.07l.01.003h.012zm.002 0l.021-.07l-.01-.003h-.011zm.166.05l-.021.07l.001.001zm2.004.89l-.039.062zm1.391 1.146l-.053.05l.01.01l.013.007zm1.912 1.21l-.047.055l.015.012l.018.004zm1.801.588l-.031.066zm2.023 1.376l-.05.053zm1.49 1.921l-.063.036zm.59 1.368l-.07.022l.004.012l.008.01zm.705 1.144l-.065.032zm.388.964l-.07.023v.002zm.024.067l.07-.022l-.001-.003zm.033.105l-.07.022v.002zm.052.152l-.07.024l.001.002zm.002.008l.07-.024l-.001-.002zm.448 1.556h.074l-.002-.014zm0 .007h-.075l.003.014zm-.345 3.917l-.068-.026zm-.015.041l-.069-.026zm-.017.044l-.068-.026v.001zm-.055.15l-.068-.027v.002zm-2.072 2.8l.044.058zm-3.337 1.259l.005.073zm-.08.005l.004.074h.002zm-.238.01v.074h.003zm-1.104 0v-.073h-.242l.201.134zm.003-.07h-.234v.145h.233zm-.235 0h-.042v.145h.042zm-.043 0q-.086 0-.169-.003l-.007.146l.176.002zm-.17-.003q-.542-.016-1.073-.132l-.031.143q.543.118 1.1.135zm-1.103-.132a6 6 0 0 1-1.121.12l.002.146a6.4 6.4 0 0 0 1.148-.122zm-1.12.12h-.107v.146h.107zm-.108 0h-.045v.146h.044zm-.045 0h-.014v.146h.014zm-.014 0l-.304-.001v.146h.304zm-.304-.001h-.008v.146h.008zm-.008 0h-.173l-.177-.001v.146h.35zm-.35-.001h-.124v.146h.125zm-.124 0l-3.285.012v.146l3.285-.012zm-3.212.085v-.024h-.146v.024zm-.073-.097h-.318v.146h.318zm-.318 0h-.08v.146h.081zm-.082 0q-.602 0-1.19-.122l-.029.143c.4.083.81.125 1.22.125zm-1.22-.122c-.388.08-.785.121-1.181.121v.146c.406 0 .813-.041 1.212-.124zm-1.181.121H6.075v.146h1.409zm-1.409 0a6.04 6.04 0 0 1-4.855-2.413l-.117.088a6.19 6.19 0 0 0 4.972 2.471zm-4.854-2.412l-.01-.014l-.118.087l.01.014zm-.011-.014a6.11 6.11 0 0 1-.91-5.599l-.14-.046a6.26 6.26 0 0 0 .933 5.733zM.3 14.009l.493-1.481l-.139-.046l-.494 1.481zm.493-1.481a9.6 9.6 0 0 1 .836-1.842l-.126-.074a9.8 9.8 0 0 0-.849 1.87zm.845-1.89a6 6 0 0 1-.074-.948h-.146q0 .489.076.97zm-.074-.948q0-.615.123-1.217l-.143-.03c-.084.41-.126.829-.126 1.247zm.124-1.23a6 6 0 0 1 .034-.527l-.146-.015q-.029.267-.034.539zm.034-.526c.1-.918.42-1.806.928-2.574l-.122-.081a6 6 0 0 0-.952 2.639zm.935-2.59c.25-.671.6-1.289 1.04-1.837l-.114-.092A6.8 6.8 0 0 0 2.52 5.294zm1.04-1.837A6.76 6.76 0 0 1 8.943.982V.835c-2.07 0-4.074.965-5.36 2.58zM8.943.982c.512 0 .82.002 1.002.007a3 3 0 0 1 .214.014L10.154 1c-.002-.002-.018-.01-.028-.029a.07.07 0 0 1 .002-.066c.007-.011.015-.017.015-.018L10.14.89a.3.3 0 0 0-.052.028a.085.085 0 0 0-.005.142q.026.018.053.025l.07.017l.027-.144l-.052-.012q-.017-.007-.008-.002a.06.06 0 0 1 .02.06a.1.1 0 0 1-.013.026l-.006.006l.008-.004l.02-.01l.03-.016a.1.1 0 0 0 .023-.026a.08.08 0 0 0 .002-.074a.1.1 0 0 0-.037-.036l-.025-.01l-.05-.007a3 3 0 0 0-.195-.01A42 42 0 0 0 8.943.835zm1.261.12c.34.066.61.144 1.197.324l.043-.14c-.586-.18-.863-.26-1.212-.328zm1.219.327h.002v-.146h-.002zm-.02-.004l.167.052l.042-.14l-.165-.051zm.168.052a7.3 7.3 0 0 1 1.985.881l.079-.123a7.5 7.5 0 0 0-2.025-.899zm1.985.881c.507.323.97.703 1.377 1.134l.106-.1a7.4 7.4 0 0 0-1.404-1.157zm1.4 1.15a8.3 8.3 0 0 1 1.895 1.199l.094-.112a8.4 8.4 0 0 0-1.928-1.22zm1.928 1.215c.614.12 1.213.315 1.784.583l.062-.132a7.8 7.8 0 0 0-1.818-.595zm1.784.583c.736.346 1.41.804 2.004 1.363l.1-.107a7.9 7.9 0 0 0-2.042-1.388zm2.004 1.363a7.7 7.7 0 0 1 1.477 1.904l.128-.07a7.8 7.8 0 0 0-1.505-1.94zm1.477 1.904c.237.432.433.887.583 1.354l.14-.045a8 8 0 0 0-.595-1.38zm.595 1.376c.27.355.499.727.698 1.132l.13-.064a7 7 0 0 0-.712-1.157zm.698 1.133c.206.416.324.774.383.954l.139-.046a7 7 0 0 0-.391-.973zm.384.956l.024.067l.138-.05l-.025-.067zm.023.064l.033.105l.14-.043l-.033-.106zm.034.107l.052.152l.138-.048l-.052-.15zm.052.154l.003.007l.137-.051l-.003-.007zm.002.005c.207.602.348 1.03.445 1.547l.143-.028c-.099-.527-.243-.964-.45-1.566zm.444 1.533v.007h.146v-.007zm0 .02a7.24 7.24 0 0 1-.34 3.878l.137.051a7.4 7.4 0 0 0 .348-3.955zm-.34 3.878l-.015.04l.136.054l.016-.044zm-.016.042l-.016.043l.137.052l.016-.044zm-.016.044l-.055.148l.136.054q.024-.062.056-.152zm-.056.15a6.15 6.15 0 0 1-2.047 2.767l.088.116a6.3 6.3 0 0 0 2.096-2.833zm-2.047 2.767c-.96.73-2.1 1.16-3.298 1.244l.01.146a6.3 6.3 0 0 0 3.376-1.274zm-3.298 1.244l-.08.006l.01.145l.08-.005zm-.077.005l-.239.01l.006.146l.239-.01zm-.236.01h-.423v.146h.423zm-.423 0h-.121v.146h.12zm-.121 0h-.249v.146h.248zm-.25 0h-.013v.146h.014zm-.013 0h-.297v.146h.297zm-.338.134l.003.002l.081-.122l-.003-.001z" mask="url(#SVGPzpbgbyu)"/><mask id="SVGm5rgnbJa" fill="#fff"><path d="M17.194 21.318h-.277l-.148-.002a5 5 0 0 1-1.103-.153c-.38.088-.768.135-1.155.14h-.463l-.353-.001h-.127l-2.463-.011H9.887a5 5 0 0 1-1.204-.144a5 5 0 0 1-1.198.144H6.077a5.3 5.3 0 0 1-4.262-2.118l-.008-.011a5.36 5.36 0 0 1-.8-4.917l.494-1.481a9 9 0 0 1 .928-1.955a5.3 5.3 0 0 1 .005-2.259q0-.27.03-.534a5.1 5.1 0 0 1 .86-2.322c.225-.632.546-1.21.955-1.721a6 6 0 0 1 4.664-2.246c1.802 0 2.396.459 2.422.466A6.6 6.6 0 0 1 14.5 4.12l.044.02a7.5 7.5 0 0 1 1.988 1.276a7 7 0 0 1 1.819.564a6.97 6.97 0 0 1 3.713 4.307c.279.351.512.72.709 1.122c.186.377.294.708.347.867v.002l.024.063l.03.095l.056.166l.003.007c.195.568.329.975.417 1.44v.006a6.5 6.5 0 0 1-.307 3.481l-.017.047l-.016.044l-.053.146a5.4 5.4 0 0 1-1.8 2.433a5.4 5.4 0 0 1-2.899 1.095l-.068.004l-.209.01h-1.086z"/></mask><g filter="url(#SVGOqFgbcNC)"><path fill="#0054fa" d="M17.194 21.318h-.277l-.148-.002a5 5 0 0 1-1.103-.153c-.38.088-.768.135-1.155.14h-.463l-.353-.001h-.127l-2.463-.011H9.887a5 5 0 0 1-1.204-.144a5 5 0 0 1-1.198.144H6.077a5.3 5.3 0 0 1-4.262-2.118l-.008-.011a5.36 5.36 0 0 1-.8-4.917l.494-1.481a9 9 0 0 1 .928-1.955a5.3 5.3 0 0 1 .005-2.259q0-.27.03-.534a5.1 5.1 0 0 1 .86-2.322c.225-.632.546-1.21.955-1.721a6 6 0 0 1 4.664-2.246c1.802 0 2.396.459 2.422.466A6.6 6.6 0 0 1 14.5 4.12l.044.02a7.5 7.5 0 0 1 1.988 1.276a7 7 0 0 1 1.819.564a6.97 6.97 0 0 1 3.713 4.307c.279.351.512.72.709 1.122c.186.377.294.708.347.867v.002l.024.063l.03.095l.056.166l.003.007c.195.568.329.975.417 1.44v.006a6.5 6.5 0 0 1-.307 3.481l-.017.047l-.016.044l-.053.146a5.4 5.4 0 0 1-1.8 2.433a5.4 5.4 0 0 1-2.899 1.095l-.068.004l-.209.01h-1.086z"/></g><path fill="url(#SVGRzmgGeoQ)" d="M17.194 21.318v.073h.052l.017-.05zm-.425-.002l.003-.073zm-1.103-.153l.018-.071l-.017-.005l-.017.004zm-1.155.14v.074h.001zm-.455 0v-.073zm-.488-.001v.073zm-2.463-.011v-.073zm-2.422-.144l.017-.07l-.017-.005l-.018.004zm-6.868-1.974l-.058.044zm-.008-.011l.059-.044zm-.8-4.917l-.07-.024zm.494-1.481l.07.023zm.778-1.71l.063.038zm.15-.245l.062.04l.016-.026l-.007-.03zm.005-2.259l.071.016l.002-.008V8.55zm.03-.534l-.073-.008zm.86-2.322l.06.041l.006-.008l.003-.009zm.955-1.721l.057.046zm7.086-1.78l-.02.07zm1.791.794l-.039.062zM14.5 4.121l-.054.049l.01.012l.016.007zm.044.02l-.031.065l.001.001zm1.988 1.276l-.049.055l.016.014l.021.004zm1.819.564l.031-.066zm1.81 1.23l-.05.054zm1.335 1.72l.064-.034zm.568 1.357l-.07.021l.004.014l.008.01zm.709 1.122l-.066.032zm.347.867h.073v-.011l-.004-.012zm0 .002h-.073v.013l.005.013zm.024.063l.07-.022l-.002-.004zm.03.095l.07-.02v-.002zm.056.166l-.069.024v.001zm.003.007l.069-.024v-.002zm.417 1.44h.075l-.003-.013zm0 .006h-.074l.002.014zm-.307 3.481l-.069-.025v.002zm-.017.047l.069.025zm-.016.044l.069.025zm-.053.146l-.069-.026v.001zm-1.8 2.433l.044.058zm-2.899 1.095l.005.073zm-.068.004l.003.073h.002zm-.209.01v.073h.003zm-1.086 0v-.074h-.053l-.017.05zm-.001-.071h-.232v.146h.231zm-.232 0h-.005v.146h.005zm-.005 0h-.039v.146h.039zm-.04 0q-.074 0-.145-.002l-.005.146l.15.002zm-.146-.002a5 5 0 0 1-1.087-.151l-.036.142a5 5 0 0 0 1.119.155zm-1.121-.152a5.4 5.4 0 0 1-1.14.14l.002.146a5.5 5.5 0 0 0 1.171-.143zm-1.139.14h-.094v.146h.094zm-.095 0h-.041v.146h.041zm-.041 0h-.015v.146h.015zm-.015 0l-.304-.002l-.001.147h.305zm-.304-.002h-.008v.147h.008zm-.008 0h-.353v.146h.353zm-.353 0h-.126v.146h.126zm-.127 0l-2.463-.011v.146l2.463.01zm-2.463-.011H9.963v.146h1.142zm-1.142 0h-.075v.146h.074zm-.076 0q-.602 0-1.187-.142l-.034.142c.4.097.81.146 1.221.146zm-1.222-.142a5 5 0 0 1-1.18.142v.146c.41 0 .818-.049 1.215-.146zm-1.18.142H6.077v.146h1.408zm-1.408 0a5.23 5.23 0 0 1-4.203-2.09l-.117.089a5.38 5.38 0 0 0 4.32 2.147zm-4.203-2.09l-.008-.01l-.117.088l.008.01zm-.008-.01a5.29 5.29 0 0 1-.79-4.85l-.138-.046a5.44 5.44 0 0 0 .81 4.984zm-.79-4.85l.494-1.481l-.139-.046l-.493 1.48zm.494-1.481a9 9 0 0 1 .772-1.695l-.126-.075a9 9 0 0 0-.785 1.724zm.772-1.695q.072-.122.149-.244l-.124-.078a9 9 0 0 0-.151.248zm.158-.298a5.2 5.2 0 0 1-.117-1.103h-.146q0 .575.12 1.134zM2.383 9.69c0-.378.041-.757.122-1.125l-.143-.032a5.4 5.4 0 0 0-.125 1.157zm.124-1.14q0-.266.03-.528l-.146-.015q-.03.268-.03.542zm.03-.528c.089-.821.382-1.61.848-2.288l-.12-.083a5.15 5.15 0 0 0-.874 2.356zm.856-2.305a5.8 5.8 0 0 1 .943-1.7l-.114-.09a6 6 0 0 0-.966 1.741zm.943-1.7A5.93 5.93 0 0 1 8.943 1.8v-.147a6.08 6.08 0 0 0-4.721 2.274zM8.943 1.8c.894 0 1.486.114 1.855.227a2.5 2.5 0 0 1 .492.207l.025.015l.01.006l.02.008l.04-.14l.011.004l-.005-.003l-.027-.016l-.102-.056a3 3 0 0 0-.42-.165c-.386-.118-.992-.234-1.9-.234zm2.402.463a6.5 6.5 0 0 1 1.772.786l.079-.123a6.7 6.7 0 0 0-1.812-.804zm1.772.786c.496.315.942.691 1.329 1.12l.108-.097a6.6 6.6 0 0 0-1.358-1.146zm1.355 1.14l.04.017l.063-.132l-.047-.02zm.042.018a7.4 7.4 0 0 1 1.97 1.265l.097-.11a7.6 7.6 0 0 0-2.008-1.289zM16.52 5.49c.62.1 1.224.287 1.8.557l.062-.132a7 7 0 0 0-1.838-.57zm1.8.557c.657.31 1.26.719 1.79 1.218l.101-.106a7 7 0 0 0-1.829-1.244zm1.79 1.218a6.9 6.9 0 0 1 1.322 1.702l.128-.07a7 7 0 0 0-1.349-1.738zm1.322 1.702c.234.427.423.878.562 1.342l.14-.042a7 7 0 0 0-.574-1.37zm.575 1.367a6 6 0 0 1 .7 1.108l.131-.064c-.2-.408-.435-.78-.717-1.135zm.7 1.108c.184.373.291.7.344.858l.139-.046c-.053-.16-.163-.494-.352-.876zm.34.835v.002h.146v-.002zm.005.028l.023.063l.137-.052l-.023-.063zm.022.059l.03.095l.14-.044l-.03-.095zm.03.094l.057.168l.138-.047l-.055-.163zm.058.17l.002.008l.137-.052l-.002-.007zm.002.006c.195.568.327.97.414 1.43l.144-.027c-.09-.472-.225-.883-.42-1.45zm.413 1.417v.005h.146v-.005zm.001.019a6.4 6.4 0 0 1-.304 3.442l.137.05a6.57 6.57 0 0 0 .311-3.52zm-.305 3.444l-.006.018l-.01.028l.138.049l.009-.025l.008-.024zm-.016.046l-.016.044l.138.049l.015-.044zm-.015.043l-.054.145l.137.052l.054-.147zm-.054.146a5.3 5.3 0 0 1-1.776 2.4l.089.116a5.47 5.47 0 0 0 1.824-2.465zm-1.776 2.4a5.33 5.33 0 0 1-2.859 1.08l.01.146a5.47 5.47 0 0 0 2.938-1.11zm-2.859 1.08l-.068.004l.01.146l.068-.004zm-.066.004l-.21.01l.007.145l.21-.009zm-.206.01h-.403v.145h.403zm-.403 0h-.124v.145h.124zm-.124 0h-.251v.145h.25zm-.251 0h-.013v.145h.013zm-.013 0h-.295v.145h.295zm-.365.05v.002l.138.046l.001-.003z" mask="url(#SVGm5rgnbJa)"/><mask id="SVGxJVIIeBI" fill="#fff"><path d="M17.194 20.5h-.278l-.124-.002a4.3 4.3 0 0 1-1.117-.183q-.58.162-1.179.17h-.446l-.356-.002h-.13l-1.643-.032l-.026.002l-.053.005l-.053.004q-.155.01-.342.01H9.886q-.615 0-1.204-.172q-.586.172-1.197.172H6.076a4.5 4.5 0 0 1-3.609-1.794l-.007-.009a4.55 4.55 0 0 1-.677-4.167l.493-1.48a8 8 0 0 1 1.033-2.062a4.5 4.5 0 0 1-.058-2.319q-.005-.271.025-.536a4.24 4.24 0 0 1 .783-2.035a5.1 5.1 0 0 1 .858-1.586a5.18 5.18 0 0 1 4.025-1.938c1.555 0 1.884.289 2.196.434s2.132.95 2.87 1.823q.12.048.206.086a6.7 6.7 0 0 1 1.892 1.247l.007.007l.05.048A6.1 6.1 0 0 1 19.6 7.808a6.14 6.14 0 0 1 1.722 2.867c.287.341.522.7.716 1.097c.161.325.258.62.305.762l.005.013l.02.057l.027.084q.008.028.062.182l.002.007c.183.533.31.913.387 1.326v.005a5.67 5.67 0 0 1-.27 3.045l-.024.065l-.01.031l-.053.142a4.6 4.6 0 0 1-1.528 2.066a4.6 4.6 0 0 1-2.46.93l-.056.003l-.181.007h-1.069z"/></mask><g filter="url(#SVG3g5eyeBn)"><path fill="#0054fa" d="M17.194 20.5h-.278l-.124-.002a4.3 4.3 0 0 1-1.117-.183q-.58.162-1.179.17h-.446l-.356-.002h-.13l-1.643-.032l-.026.002l-.053.005l-.053.004q-.155.01-.342.01H9.886q-.615 0-1.204-.172q-.586.172-1.197.172H6.076a4.5 4.5 0 0 1-3.609-1.794l-.007-.009a4.55 4.55 0 0 1-.677-4.167l.493-1.48a8 8 0 0 1 1.033-2.062a4.5 4.5 0 0 1-.058-2.319q-.005-.271.025-.536a4.24 4.24 0 0 1 .783-2.035a5.1 5.1 0 0 1 .858-1.586a5.18 5.18 0 0 1 4.025-1.938c1.555 0 1.884.289 2.196.434s2.132.95 2.87 1.823q.12.048.206.086a6.7 6.7 0 0 1 1.892 1.247l.007.007l.05.048A6.1 6.1 0 0 1 19.6 7.808a6.14 6.14 0 0 1 1.722 2.867c.287.341.522.7.716 1.097c.161.325.258.62.305.762l.005.013l.02.057l.027.084q.008.028.062.182l.002.007c.183.533.31.913.387 1.326v.005a5.67 5.67 0 0 1-.27 3.045l-.024.065l-.01.031l-.053.142a4.6 4.6 0 0 1-1.528 2.066a4.6 4.6 0 0 1-2.46.93l-.056.003l-.181.007h-1.069z"/></g><path fill="url(#SVGk9gwvb4F)" d="M17.194 20.5v.073h.053l.016-.05zm-.402-.002l.003-.073zm-1.117-.183l.021-.07l-.02-.006l-.02.006zm-1.179.17v.073h.002zm-.44 0l.001-.074zm-.492-.002l-.002.074h.002zm-1.643-.032l.002-.073h-.002zm-.026.002l.006.073h.002zm-.053.005l.005.073h.001zm-.053.004l-.005-.073zM8.682 20.3l.02-.07l-.02-.006l-.02.006zm-6.215-1.622l.059-.044l-.002-.002zm-.007-.009l-.058.044l.001.002zm-.677-4.167l-.07-.023zm.493-1.48l.069.023zm.706-1.552l-.063-.037zm.327-.51l.06.042l.02-.029l-.01-.034zm-.058-2.319l.071.017l.002-.009v-.01zm.025-.536l-.073-.008zm.783-2.035l.06.043l.006-.01l.003-.01zm.858-1.586l.057.045zm9.091.319l-.055.047l.011.014l.017.006zm.206.086l-.03.067zm1.892 1.247l-.05.054l.002.001zm.007.007l.05-.053l-.002-.002zm.05.048l-.05.053l.018.017l.024.003zM19.6 7.808l-.05.053zm1.178 1.518l-.064.036zm.544 1.35l-.07.018l.004.016l.01.013zm.716 1.096l-.065.032zm.305.762l-.07.023zm.005.013l-.07.023v.002zm.02.057l.07-.021v-.004zm.027.084l.07-.02v-.002zm.062.182l-.07.024l.001.002zm.002.007l.07-.024l-.001-.001zm.387 1.326h.074l-.003-.014zm0 .005h-.075l.003.014zm-.27 3.045l-.069-.026zm-.024.065l-.069-.025zm-.01.031l.068.025zm-.053.142l.069.025zm-1.528 2.066l-.044-.058zm-2.46.93l.005.072zm-.056.003l.003.073h.001zm-.181.007v.073h.003zm-1.07 0v-.073h-.052l-.017.05zm0-.07h-.23v.146h.229zm-.23 0h-.01v.146h.01zm-.01 0h-.037v.146h.036zm-.038 0q-.063 0-.12-.002l-.007.146q.065.003.127.002zm-.122-.002q-.56-.015-1.098-.18l-.043.14q.557.17 1.137.186zm-1.139-.18q-.572.158-1.16.167l.003.146a4.7 4.7 0 0 0 1.196-.172zm-1.158.167h-.082v.146h.081zm-.082 0h-.041v.146h.041zm-.042 0h-.012v.146h.012zm-.012 0h-.304l-.001.146h.305zm-.305 0h-.006v.146h.006zm-.006 0l-.175-.001h-.181v.146h.356zm-.356-.002h-.13v.147h.129zm-.129 0l-1.642-.032l-.003.146l1.642.033zm-1.644-.032l-.023.001l-.011.002l.016.145h.008l.006-.002h.004zm-.033.003l-.052.004l.012.146l.053-.005zm-.051.004l-.053.004l.01.146l.053-.004zm-.053.004q-.151.01-.338.01v.147q.19 0 .348-.011zm-.338.01h-.066v.147h.017V20.4h-.001v.146h.001V20.4h-.017v.146h.068zm-.051 0h-1.44v.147h1.44zm-1.44 0h-.068v.147h.068zm-.069 0a4.2 4.2 0 0 1-1.184-.17l-.04.141q.598.175 1.224.176zm-1.225-.17a4.2 4.2 0 0 1-1.176.17v.146c.413 0 .822-.059 1.218-.175zm-1.176.17H6.076v.146h1.409zm-1.409 0a4.42 4.42 0 0 1-3.55-1.765l-.117.088a4.57 4.57 0 0 0 3.667 1.823zm-3.552-1.767l-.007-.009l-.114.092l.007.009zm-.006-.007a4.47 4.47 0 0 1-.666-4.1l-.139-.046a4.62 4.62 0 0 0 .689 4.234zm-.666-4.1l.493-1.48l-.139-.046l-.493 1.48zm.493-1.48a8 8 0 0 1 .7-1.538l-.126-.074a8 8 0 0 0-.713 1.566zm.7-1.538q.153-.258.324-.505l-.12-.084q-.174.252-.33.515zm.334-.568a4.4 4.4 0 0 1-.18-1.248h-.146q0 .66.186 1.29zM3.2 9.691q0-.526.123-1.033l-.142-.034a4.6 4.6 0 0 0-.127 1.067zm.125-1.051a4 4 0 0 1 .024-.528l-.145-.015q-.03.271-.025.545zm.024-.527a4.2 4.2 0 0 1 .77-2L4 6.027a4.33 4.33 0 0 0-.797 2.07zm.78-2.02a5 5 0 0 1 .846-1.564l-.114-.091a5.2 5.2 0 0 0-.87 1.609zm.847-1.564a5.1 5.1 0 0 1 3.967-1.91v-.147A5.26 5.26 0 0 0 4.86 4.439zm3.967-1.91c.773 0 1.237.072 1.544.16c.309.088.457.19.621.267l.062-.132c-.147-.069-.32-.183-.642-.276c-.325-.093-.803-.165-1.585-.165zm2.165.427c.157.074.687.31 1.27.636c.586.328 1.216.742 1.576 1.168l.111-.094c-.378-.448-1.028-.873-1.615-1.201c-.589-.33-1.125-.569-1.28-.641zm2.874 1.825q.119.048.204.085l.058-.134l-.207-.087zm.204.085c.69.302 1.32.718 1.87 1.234l.1-.107a6.8 6.8 0 0 0-1.912-1.26zm1.873 1.235l.007.007l.096-.11l-.007-.007zm.005.005l.025.024l.025.024l.101-.106l-.025-.024l-.026-.024zm.092.068A6.03 6.03 0 0 1 19.55 7.86l.1-.106a6.17 6.17 0 0 0-3.477-1.637zm3.395 1.598c.465.437.858.942 1.164 1.5l.129-.07a6.2 6.2 0 0 0-1.193-1.537zm1.164 1.5c.233.423.414.87.537 1.332l.142-.037a6 6 0 0 0-.55-1.366zm.552 1.36c.284.337.515.691.707 1.082l.131-.064a5.4 5.4 0 0 0-.726-1.112zm.707 1.082c.158.32.253.611.3.753l.14-.046c-.048-.142-.146-.441-.31-.772zm.3.753l.005.013l.139-.046l-.005-.013zm.006.015l.02.058l.138-.05l-.02-.058zm.02.055l.026.083l.14-.044l-.027-.083zm.026.082q.009.031.063.185l.138-.048l-.061-.179zm.063.187l.003.007l.137-.051l-.003-.008zm.002.005c.183.533.308.908.384 1.315l.143-.027c-.078-.418-.206-.803-.389-1.335zm.383 1.302v.005h.146v-.005zm0 .019a5.6 5.6 0 0 1-.266 3.005l.137.052a5.74 5.74 0 0 0 .274-3.084zm-.266 3.005l-.024.066l.138.05l.023-.065zm-.024.067l-.01.03l.137.05l.011-.032zm-.01.03l-.052.142l.137.05l.052-.142zm-.052.142a4.5 4.5 0 0 1-1.504 2.033l.088.116a4.66 4.66 0 0 0 1.553-2.099zm-1.504 2.033a4.5 4.5 0 0 1-2.421.914l.01.146a4.65 4.65 0 0 0 2.5-.944zm-2.42.914l-.057.004l.01.146l.056-.004zm-.055.004l-.181.007l.006.146l.18-.007zm-.178.007h-.382v.146h.382zm-.382 0h-.128v.146h.128zm-.128 0h-.252v.146h.251zm-.253 0h-.014v.146h.014zm-.014 0h-.292v.146h.293zm-.362.05v.003l.138.046l.001-.003z" mask="url(#SVGxJVIIeBI)"/><mask id="SVGqnuEIrPw" fill="#fff"><path d="M17.194 19.682h-.277l-.102-.002a3.5 3.5 0 0 1-1.128-.225a3.9 3.9 0 0 1-1.202.212h-.43l-.36-.002h-.132l-.821-.032a4 4 0 0 1-.408-.083q-.253.064-.514.088l-.042.004l-.042.002a5 5 0 0 1-.287.01H9.888c-.41 0-.82-.074-1.204-.216c-.382.142-.79.216-1.198.216H6.078a3.68 3.68 0 0 1-2.957-1.47l-.006-.008a3.73 3.73 0 0 1-.554-3.417l.493-1.48a7.3 7.3 0 0 1 1.172-2.18a3.68 3.68 0 0 1-.152-2.368q-.012-.27.017-.537c.07-.641.313-1.24.707-1.743a4.3 4.3 0 0 1 .76-1.456C6.37 3.974 7.64 3.466 8.943 3.364s1.952.398 1.972.403a4.9 4.9 0 0 1 2.59 1.716c.183.072.294.119.38.156a5.8 5.8 0 0 1 1.66 1.096l.006.005q.105.1.209.203l.037.036c1.2.081 2.347.585 3.242 1.426a5.3 5.3 0 0 1 1.536 2.654l.084.1a4.5 4.5 0 0 1 .914 1.656l.019.052l.022.068l.069.205l.002.004c.171.499.289.852.356 1.21v.004a4.86 4.86 0 0 1-.232 2.607l-.029.08l-.009.025l-.05.139a3.78 3.78 0 0 1-3.278 2.463l-.046.002l-.152.007h-1.053z"/></mask><g filter="url(#SVGGTzExJAV)"><path fill="#0054fa" d="M17.194 19.682h-.277l-.102-.002a3.5 3.5 0 0 1-1.128-.225a3.9 3.9 0 0 1-1.202.212h-.43l-.36-.002h-.132l-.821-.032a4 4 0 0 1-.408-.083q-.253.064-.514.088l-.042.004l-.042.002a5 5 0 0 1-.287.01H9.888c-.41 0-.82-.074-1.204-.216c-.382.142-.79.216-1.198.216H6.078a3.68 3.68 0 0 1-2.957-1.47l-.006-.008a3.73 3.73 0 0 1-.554-3.417l.493-1.48a7.3 7.3 0 0 1 1.172-2.18a3.68 3.68 0 0 1-.152-2.368q-.012-.27.017-.537c.07-.641.313-1.24.707-1.743a4.3 4.3 0 0 1 .76-1.456C6.37 3.974 7.64 3.466 8.943 3.364s1.952.398 1.972.403a4.9 4.9 0 0 1 2.59 1.716c.183.072.294.119.38.156a5.8 5.8 0 0 1 1.66 1.096l.006.005q.105.1.209.203l.037.036c1.2.081 2.347.585 3.242 1.426a5.3 5.3 0 0 1 1.536 2.654l.084.1a4.5 4.5 0 0 1 .914 1.656l.019.052l.022.068l.069.205l.002.004c.171.499.289.852.356 1.21v.004a4.86 4.86 0 0 1-.232 2.607l-.029.08l-.009.025l-.05.139a3.78 3.78 0 0 1-3.278 2.463l-.046.002l-.152.007h-1.053z"/></g><path fill="url(#SVGBANM6sTe)" d="M17.194 19.682v.073h.31l-.278-.139zm-.378-.002l.003-.073h-.002zm-1.129-.225l.026-.068l-.024-.01l-.026.01zm-1.202.212v.073zm-.425 0v-.074zm-.497-.002l-.003.073h.003zm-.821-.032l-.01.072h.007zm-.408-.083l.02-.07l-.02-.006l-.017.005zm-.514.088l.006.073zm-.042.004l.005.073h.002zm-.042.002l.005.073zm-3.052-.206l.025-.069l-.025-.009l-.026.01zM3.12 18.183l-.059.044zm-.006-.007l.059-.044zm-.554-3.417l-.07-.023zm.493-1.48l.069.024zm.634-1.394l-.063-.037zm.538-.787l.058.045l.026-.033l-.016-.04zm-.152-2.367l.071.019l.003-.011v-.011zm.017-.537l-.073-.008zm.707-1.743l.058.045l.008-.01l.004-.014zm.76-1.456l.057.045zm5.357-1.228l-.02.07zm2.58 1.701l-.058.045zm.01.015l-.06.04l.012.02l.021.008zm.38.156l.029-.067zm1.66 1.096l.052-.052l-.002-.002zm.006.005l-.052.052l.002.001zm.209.203l-.051.052zm.037.036l-.051.052l.019.02l.027.001zm3.242 1.426l.05-.054zm1.022 1.316l.064-.035zm.514 1.338l-.072.017l.004.016l.011.014zm.084.1l-.055.048zm.645.975l-.066.032zm.26.655l-.069.023v.001zm.009.026l-.073.014l.004.01zm.019.052l.07-.022l-.001-.003zm.022.068l-.07.023zm.069.205l-.07.024l.004.009zm.002.004l.07-.024l-.005-.01zm.356 1.21h.074l-.002-.014zm0 .004h-.074l.002.013zm-.232 2.607l-.068-.026v.002zm-.029.08l.069.026zm-.009.025l.069.025zm-.05.139l-.07-.026zm-1.257 1.699l.044.058zm-2.021.764l.004.073zm-.046.002l.003.073h.002zm-.152.007v.073h.003zm-1.053 0v-.073h-.31l.277.138zm.002-.073h-.226v.147h.225zm-.227 0h-.016v.147h.016zm-.016 0h-.033v.147h.032zm-.034 0l-.098-.001l-.008.146l.106.002zm-.1-.001a3.4 3.4 0 0 1-1.104-.22l-.052.137c.368.14.76.218 1.152.229zm-1.154-.22c-.38.13-.782.202-1.18.207l.002.146a4 4 0 0 0 1.226-.216zm-1.178.207h-.068v.146h.068zm-.07 0h-.036v.146h.037zm-.038 0h-.013v.146h.013zm-.013 0h-.303l-.002.145l.306.001zm-.304 0h-.005v.145h.005zm-.005 0l-.36-.002v.146l.36.001zm-.36-.002h-.132v.146h.132zm-.13 0l-.82-.032l-.006.146l.82.032zm-.813-.032a3 3 0 0 1-.399-.08l-.037.14q.205.055.416.085zm-.435-.081q-.249.063-.504.086l.014.146a3.5 3.5 0 0 0 .525-.09zm-.503.086l-.042.004l.012.146l.042-.004zm-.04.004l-.042.002l.01.146l.04-.002zm-.042.002a4 4 0 0 1-.283.01v.146q.162 0 .292-.01zm-.283.01h-.058v.146h.012v-.147h-.001v.147h.001v-.147h-.012v.147h.058zm-.047 0H9.95v.146h1.45zm-1.451 0h-.061v.146h.061zm-.063 0c-.402 0-.804-.073-1.18-.212l-.05.138c.392.144.81.22 1.23.22zm-1.23-.212c-.374.14-.772.211-1.172.211v.147a3.5 3.5 0 0 0 1.223-.22zm-1.172.211H6.078v.147h1.408zm-1.408 0a3.6 3.6 0 0 1-2.899-1.44l-.116.088a3.75 3.75 0 0 0 3.015 1.499zM3.18 18.14l-.005-.008l-.117.088l.005.007zm-.005-.008a3.66 3.66 0 0 1-.544-3.35l-.139-.046a3.8 3.8 0 0 0 .566 3.484zm-.544-3.35l.493-1.479l-.139-.046l-.493 1.479zm.493-1.479c.16-.48.37-.944.628-1.38l-.126-.075a7.3 7.3 0 0 0-.64 1.409zm.628-1.38q.24-.407.533-.78l-.115-.09q-.298.38-.544.795zm.543-.853a3.6 3.6 0 0 1-.274-1.38h-.146c0 .494.096.977.285 1.436zM4.02 9.69q0-.48.125-.94l-.141-.038q-.13.478-.13.979zm.127-.962a3.5 3.5 0 0 1 .016-.527l-.145-.015q-.03.273-.017.548zm.016-.526a3.35 3.35 0 0 1 .693-1.706l-.116-.09a3.5 3.5 0 0 0-.722 1.78zm.705-1.73a4.2 4.2 0 0 1 .747-1.432l-.114-.091c-.346.431-.606.93-.773 1.48zm.747-1.432c.795-1 2.043-1.502 3.333-1.603l-.011-.146c-1.317.104-2.609.617-3.436 1.658zm3.333-1.603c.642-.05 1.12.047 1.438.157a2.3 2.3 0 0 1 .453.212l.025.016l.01.006l.005.003l.015.007l.04-.141l.014.005l-.005-.003a2 2 0 0 0-.126-.076a2.5 2.5 0 0 0-.383-.167c-.336-.116-.835-.217-1.497-.165zm1.947.4a4.84 4.84 0 0 1 2.542 1.676l.115-.09a5 5 0 0 0-2.618-1.726zm2.542 1.677l.008.01l.121-.082l-.014-.02zm.041.037c.183.072.293.118.377.155l.059-.134a13 13 0 0 0-.381-.157zm.377.155a5.8 5.8 0 0 1 1.64 1.082l.1-.107a5.9 5.9 0 0 0-1.681-1.109zm1.639 1.08l.005.006l.104-.104l-.006-.005zm.007.007q.105.1.208.202l.102-.105c-.067-.065-.139-.136-.21-.203zm.259.15l-.05.052v.001l.003.003l.01.01l.023.022l.103-.104l-.034-.033l-.003-.003h-.001zm.032.109a5.2 5.2 0 0 1 3.197 1.406l.1-.107a5.34 5.34 0 0 0-3.287-1.445zm3.197 1.406c.404.38.742.816 1.008 1.298l.128-.07a5.4 5.4 0 0 0-1.036-1.335zm1.008 1.298q.346.628.506 1.32l.143-.034a5.3 5.3 0 0 0-.521-1.356zm.521 1.35l.086.1l.11-.095l-.083-.099zm.086.1c.257.299.464.613.634.96l.131-.065a4.6 4.6 0 0 0-.654-.99zm.634.96c.133.268.213.511.257.646l.139-.046c-.045-.135-.127-.387-.265-.665zm.327.623l-.07.024l.002.003l.002.007l.002.007v-.001l.143-.029l-.01-.034v-.001zm-.06.05l.018.053l.138-.05l-.02-.052zm.017.05l.022.069l.14-.045l-.023-.068zm.022.069l.07.205l.138-.046l-.069-.204zm.073.215l.002.003l.131-.065l-.002-.004zm-.002-.006c.173.5.288.849.354 1.2l.144-.027c-.069-.363-.188-.722-.36-1.22zm.353 1.187v.004h.146v-.005zm.001.018c.16.858.082 1.746-.228 2.567l.137.052c.319-.846.4-1.761.235-2.646zm-.229 2.569l-.029.08l.138.05c.01-.03.023-.066.03-.081zm-.028.079l-.01.024l.137.051l.01-.024zm-.01.024l-.05.14l.136.05l.052-.139zm-.05.14a3.7 3.7 0 0 1-1.233 1.666l.089.116a3.85 3.85 0 0 0 1.28-1.732zm-1.233 1.666a3.7 3.7 0 0 1-1.981.749l.01.146a3.84 3.84 0 0 0 2.06-.779zm-1.98.749l-.046.002l.009.146l.045-.002zm-.045.002l-.152.007l.006.146l.152-.007zm-.15.007h-.36v.146h.36zm-.36 0h-.132v.146h.131zm-.132 0h-.255v.146h.254zm-.256 0h-.013v.146h.013zm-.013 0h-.291v.146h.29zm-.324.138l.002.001l.065-.13l-.002-.002z" mask="url(#SVGqnuEIrPw)"/><mask id="SVGaz8ENcWW" fill="#fff"><path d="M17.194 18.864h-.277l-.077-.001a2.6 2.6 0 0 1-1.135-.295a3.05 3.05 0 0 1-1.232.281h-.414l-.362-.002h-.137l-.34.001c-.3 0-.598-.052-.879-.153q-.29.1-.597.129l-.031.002l-.032.002a4 4 0 0 1-.232.007H9.888c-.423 0-.835-.1-1.205-.289c-.367.189-.777.29-1.197.29H6.078a2.87 2.87 0 0 1-2.305-1.146l-.005-.006a2.91 2.91 0 0 1-.432-2.667l.493-1.478a6.4 6.4 0 0 1 1.373-2.325a2.9 2.9 0 0 1-.437-1.523q0-.448.136-.87q-.026-.268.004-.537c.059-.54.281-1.043.636-1.446l.015-.064l.016-.052c.133-.456.344-.866.626-1.216a3.53 3.53 0 0 1 2.746-1.323c1.061 0 1.712.362 1.75.373a4.1 4.1 0 0 1 2.298 1.603c.306.123.465.187.565.23c.529.231 1.01.548 1.431.943l.005.004l.195.19l.003.002l.085.084l.01.009l.168.164q.097 0 .176.004h.016a4.44 4.44 0 0 1 2.836 1.212a4.47 4.47 0 0 1 1.337 2.427c.093.111.19.225.223.266a3.7 3.7 0 0 1 .748 1.351v.003l.013.037l.016.045l.017.05l.076.227v.003c.16.464.27.792.326 1.095v.004a4.04 4.04 0 0 1-.193 2.17l-.038.102l-.003.01l-.05.134a2.93 2.93 0 0 1-.985 1.332a2.94 2.94 0 0 1-1.582.598l-.034.003l-.124.006z"/></mask><g filter="url(#SVGFhUb4rvd)"><path fill="#0054fa" d="M17.194 18.864h-.277l-.077-.001a2.6 2.6 0 0 1-1.135-.295a3.05 3.05 0 0 1-1.232.281h-.414l-.362-.002h-.137l-.34.001c-.3 0-.598-.052-.879-.153q-.29.1-.597.129l-.031.002l-.032.002a4 4 0 0 1-.232.007H9.888c-.423 0-.835-.1-1.205-.289c-.367.189-.777.29-1.197.29H6.078a2.87 2.87 0 0 1-2.305-1.146l-.005-.006a2.91 2.91 0 0 1-.432-2.667l.493-1.478a6.4 6.4 0 0 1 1.373-2.325a2.9 2.9 0 0 1-.437-1.523q0-.448.136-.87q-.026-.268.004-.537c.059-.54.281-1.043.636-1.446l.015-.064l.016-.052c.133-.456.344-.866.626-1.216a3.53 3.53 0 0 1 2.746-1.323c1.061 0 1.712.362 1.75.373a4.1 4.1 0 0 1 2.298 1.603c.306.123.465.187.565.23c.529.231 1.01.548 1.431.943l.005.004l.195.19l.003.002l.085.084l.01.009l.168.164q.097 0 .176.004h.016a4.44 4.44 0 0 1 2.836 1.212a4.47 4.47 0 0 1 1.337 2.427c.093.111.19.225.223.266a3.7 3.7 0 0 1 .748 1.351v.003l.013.037l.016.045l.017.05l.076.227v.003c.16.464.27.792.326 1.095v.004a4.04 4.04 0 0 1-.193 2.17l-.038.102l-.003.01l-.05.134a2.93 2.93 0 0 1-.985 1.332a2.94 2.94 0 0 1-1.582.598l-.034.003l-.124.006z"/></g><path fill="url(#SVGbOGHFcSv)" d="m16.84 18.863l.003-.073zm-1.135-.295l.033-.065l-.031-.016l-.033.015zm-1.232.281v.073zm-.41 0v-.074zm-1.722-.154l.025-.068l-.024-.01l-.025.01zm-.597.129l.006.072zm-.031.002l.004.073h.002zm-.032.002l-.004-.073zm-2.998-.282l.033-.065l-.033-.017l-.034.017zm-4.91-.856l.058-.044l-.002-.003zm-.005-.006l-.058.044l.002.003zm-.432-2.667l-.069-.023zm.493-1.478l.07.023zm1.373-2.325l.054.05l.037-.042l-.03-.047zm-.217-.421l-.068.028zM4.9 8.822l.07.022l.004-.014l-.001-.015zm.004-.538l.072.008zm.636-1.446l.055.049l.012-.014l.004-.017zm.015-.064l-.07-.021v.004zm.016-.052l.07.02zm.626-1.216l.057.045zm4.496-.95l-.02.07zm2.157 1.417l.058-.045zm.14.186l-.058.044l.012.016l.02.008zm.566.23l.03-.067zm1.431.943l-.05.053l.005.004zm.005.004l.05-.054l-.004-.004zm.195.19l.052-.052zm.003.002l-.052.052h.001zm.085.084l-.05.053l.001.001zm.01.009l.052-.052l-.002-.002zm.168.164l-.051.052l.02.02h.03zm.176.004l-.002.073h.002zm.016 0l.003-.073h-.003zm2.836 1.212l.05-.053zm1.337 2.427l-.072.014l.004.018l.012.015zm.223.266l-.057.046l.002.001zm.53.801l-.065.033zm.218.55h.073v-.011l-.003-.011zm0 .003h-.073v.015l.006.013zm.013.037l.069-.025zm.016.045l.07-.022v-.003zm.017.05l.07-.021zm.076.227h.073v-.012l-.004-.011zm0 .003h-.073v.012l.004.012zm.326 1.095h.075l-.003-.013zm0 .004h-.074l.002.014zm-.193 2.17l.068.026zm-.038.102l.07.025zm-.003.01l.069.025zm-.05.134l-.068-.025zm-.985 1.332l-.044-.058zm-1.582.598l-.006-.073zm-.034.003l.003.073h.003zm-.124.006v.073h.004zm-1.035-.073h-.223v.146h.222zm-.224 0h-.023v.146h.023zm-.023 0h-.028v.146h.028zm-.03 0l-.074-.001l-.006.146h.08zm-.075-.001a2.56 2.56 0 0 1-1.104-.287l-.067.13c.359.187.762.291 1.167.303zm-1.168-.288a3 3 0 0 1-1.202.274l.002.146a3.1 3.1 0 0 0 1.261-.288zm-1.201.274h-.056v.146h.055zm-.057 0h-.036v.146h.036zm-.037 0h-.01v.146h.01zm-.01 0l-.306-.001v.146l.305.001zm-.306-.001h-.004v.146h.004zm-.004 0h-.362v.145l.362.001zm-.362 0h-.136v.145h.136zm-.137 0h-.34v.146h.34zm-.34 0c-.292 0-.581-.05-.854-.148l-.05.137c.29.104.596.157.903.157zm-.903-.149a2.5 2.5 0 0 1-.58.125l.014.145q.315-.03.614-.131zm-.58.125l-.03.002l.012.146l.031-.003zm-.028.002l-.032.002l.008.146l.032-.002zm-.033.002a3 3 0 0 1-.227.007v.146q.133 0 .237-.007zm-.227.007H11.4v.146h.007v-.146h-.001v.146h.001v-.146H11.4v.146h.048zm-.043 0H9.944v.146h1.463zm-1.463 0h-.054v.146h.053zm-.055 0c-.412 0-.812-.098-1.172-.28l-.066.13c.38.193.803.297 1.238.297zm-1.239-.28a2.55 2.55 0 0 1-1.163.28v.146a2.7 2.7 0 0 0 1.23-.297zm-1.163.28H6.078v.146h1.408zm-1.408 0c-.89 0-1.709-.406-2.247-1.116l-.117.088a2.94 2.94 0 0 0 2.364 1.174zm-2.25-1.119l-.004-.005l-.112.093l.005.006zm-.001-.003a2.84 2.84 0 0 1-.421-2.6l-.139-.046a2.99 2.99 0 0 0 .443 2.734zm-.421-2.6l.492-1.478l-.138-.046l-.493 1.478zm.492-1.478a6.3 6.3 0 0 1 1.358-2.299l-.108-.099a6.5 6.5 0 0 0-1.388 2.352zm1.366-2.387a3 3 0 0 1-.212-.41l-.135.056q.094.225.223.431zm-.212-.41a2.8 2.8 0 0 1-.214-1.074H4.69q0 .585.226 1.13zM4.838 9.69q0-.436.132-.847L4.831 8.8q-.14.433-.14.892zm.136-.876a2.5 2.5 0 0 1 .003-.523l-.145-.016a2.7 2.7 0 0 0-.004.553zm.003-.523a2.54 2.54 0 0 1 .619-1.405l-.11-.097a2.7 2.7 0 0 0-.654 1.486zm.635-1.436l.013-.056l.002-.007V6.79l-.07-.017l-.072-.017v.002l-.002.007l-.005.022l-.005.022l-.002.007v.003H5.47zm.014-.061l.016-.052l-.14-.042l-.016.052zm.016-.053c.131-.447.338-.848.613-1.19l-.114-.092a3.6 3.6 0 0 0-.64 1.241zm.613-1.191a3.46 3.46 0 0 1 2.689-1.295V4.11A3.6 3.6 0 0 0 6.14 5.46zm2.689-1.295c.522 0 .943.089 1.237.179a3.4 3.4 0 0 1 .468.181l.024.01l.041-.14q.008.002-.004-.003l-.028-.013a3 3 0 0 0-.458-.175a4.4 4.4 0 0 0-1.28-.185zm1.73.37a4.02 4.02 0 0 1 2.12 1.392l.115-.09a4.16 4.16 0 0 0-2.196-1.443zm2.12 1.391l.14.186l.117-.087l-.142-.188zm.17.21c.308.123.466.186.564.23l.059-.135a27 27 0 0 0-.568-.23zm.564.23c.52.227.995.54 1.41.928l.1-.106a5.1 5.1 0 0 0-1.451-.957zm1.415.932l.004.004l.092-.115l-.005-.003zm0 0q.096.091.194.189l.103-.105c-.065-.063-.133-.13-.197-.19zm.194.188l.002.003l.104-.103l-.003-.003zm.003.004l.086.084l.101-.106l-.085-.083zm.087.085l.01.01l.099-.11l-.01-.008zm.008.007l.168.164l.102-.105l-.167-.163zm.218.185q.096 0 .175.004l.005-.146l-.178-.004zm.177.004h.016v-.146h-.016zm.012 0c1.03.046 2.02.47 2.79 1.192l.1-.106a4.5 4.5 0 0 0-2.883-1.232zm2.79 1.192a4.4 4.4 0 0 1 1.315 2.388l.144-.027a4.54 4.54 0 0 0-1.359-2.467zm1.331 2.421c.094.112.19.224.222.265l.114-.093l-.224-.266zm.224.266c.211.246.381.502.52.787l.132-.065a3.8 3.8 0 0 0-.542-.817zm.52.787c.108.217.174.418.214.54l.139-.045a4 4 0 0 0-.222-.56zm.21.518v.002h.146v-.002zm.006.03l.011.034l.138-.05l-.014-.04zm.011.033l.016.046l.138-.05l-.016-.045zm.016.043l.016.051l.14-.044l-.017-.051zm.016.051l.077.228l.138-.047l-.076-.225zm.073.204v.003h.146v-.003zm.004.027c.161.466.268.788.323 1.085l.144-.027c-.057-.31-.168-.642-.329-1.106zm.322 1.071v.004h.146v-.004zm.002.018a3.97 3.97 0 0 1-.19 2.13l.136.052c.267-.706.335-1.47.197-2.21zm-.19 2.13l-.038.103l.137.05l.037-.1zm-.038.103l-.004.01l.138.05l.003-.01zm-.004.01l-.049.134l.137.05l.05-.134zm-.049.134a2.87 2.87 0 0 1-.961 1.299l.088.116a3 3 0 0 0 1.01-1.364zm-.961 1.299c-.45.342-.983.544-1.544.583l.01.146a3 3 0 0 0 1.623-.613zm-1.544.583l-.034.003l.012.146l.033-.003zm-.031.003l-.124.006l.007.146l.123-.006zm-.12.006h-.34v.146h.34zm-.34 0h-.136v.146h.135zm-.136 0h-.257v.146h.256zm-.258 0h-.012v.146h.012zm-.012 0h-.29v.146h.289z" mask="url(#SVGaz8ENcWW)"/><mask id="SVG2a7qBcfq" fill="#fff"><path d="M17.194 18.046h-.33a1.8 1.8 0 0 1-1.13-.44a2.2 2.2 0 0 1-1.274.426h-.09l-.306-.001h-.002l-.366-.001h-.477c-.305 0-.605-.077-.872-.226a1.8 1.8 0 0 1-.68.206l-.02.002l-.021.002q-.075.005-.177.005H9.888c-.447 0-.877-.163-1.206-.454a1.8 1.8 0 0 1-1.196.453H6.078a2.06 2.06 0 0 1-1.653-.822l-.002-.003a2.09 2.09 0 0 1-.309-1.918l.492-1.477a5.6 5.6 0 0 1 1.618-2.439l.1-.088a2.05 2.05 0 0 1-.582-.792A2.03 2.03 0 0 1 5.74 8.91a1.81 1.81 0 0 1 .554-1.673q.02-.115.045-.216l.008-.035l.01-.035q.158-.533.48-.935A2.7 2.7 0 0 1 8.945 5c.815 0 1.498.334 1.531.344c.69.183 1.304.585 1.731 1.132a13 13 0 0 1 .232.31l.004.005q.014.021.032.042l.186.074c.29.116.474.19.568.231c.443.194.847.46 1.2.791l.003.003l.183.177l.094.093l.005.005l.404.396h.095c.169 0 .288.002.387.005h.01a3.62 3.62 0 0 1 2.312.99a3.63 3.63 0 0 1 1.124 2.183l.06.07l.316.376a2.9 2.9 0 0 1 .592 1.074l.018.056l.013.035l.01.034l.085.25c.148.431.248.732.296.98v.003c.108.58.054 1.178-.156 1.733l-.04.112l-.003.007l-.049.13a2.13 2.13 0 0 1-.713.965c-.334.255-.73.404-1.144.433l-.023.002l-.095.003h-1.017z"/></mask><g filter="url(#SVGDolJjcvZ)"><path fill="#0054fa" d="M17.194 18.046h-.33a1.8 1.8 0 0 1-1.13-.44a2.2 2.2 0 0 1-1.274.426h-.09l-.306-.001h-.002l-.366-.001h-.477c-.305 0-.605-.077-.872-.226a1.8 1.8 0 0 1-.68.206l-.02.002l-.021.002q-.075.005-.177.005H9.888c-.447 0-.877-.163-1.206-.454a1.8 1.8 0 0 1-1.196.453H6.078a2.06 2.06 0 0 1-1.653-.822l-.002-.003a2.09 2.09 0 0 1-.309-1.918l.492-1.477a5.6 5.6 0 0 1 1.618-2.439l.1-.088a2.05 2.05 0 0 1-.582-.792A2.03 2.03 0 0 1 5.74 8.91a1.81 1.81 0 0 1 .554-1.673q.02-.115.045-.216l.008-.035l.01-.035q.158-.533.48-.935A2.7 2.7 0 0 1 8.945 5c.815 0 1.498.334 1.531.344c.69.183 1.304.585 1.731 1.132a13 13 0 0 1 .232.31l.004.005q.014.021.032.042l.186.074c.29.116.474.19.568.231c.443.194.847.46 1.2.791l.003.003l.183.177l.094.093l.005.005l.404.396h.095c.169 0 .288.002.387.005h.01a3.62 3.62 0 0 1 2.312.99a3.63 3.63 0 0 1 1.124 2.183l.06.07l.316.376a2.9 2.9 0 0 1 .592 1.074l.018.056l.013.035l.01.034l.085.25c.148.431.248.732.296.98v.003c.108.58.054 1.178-.156 1.733l-.04.112l-.003.007l-.049.13a2.13 2.13 0 0 1-.713.965c-.334.255-.73.404-1.144.433l-.023.002l-.095.003h-1.017z"/></g><path fill="url(#SVGlhNdRczP)" d="M17.194 18.046v.073h.012l.01-.004zm-.33 0l-.002.073h.002zm-.787-.205l-.034.065zm-.343-.235l.048-.055l-.044-.038l-.048.034zm-1.274.426v.073h.001zm-.396-.001v-.073zm-.507-.001v-.073zm-1.21-.226l.036-.064l-.035-.02l-.035.02zm-.68.206l.007.073zm-.02.002l-.007-.073zm-.021.002l.005.073zm-2.944-.45l.048-.054l-.048-.043l-.049.043zm-4.257-.368l-.058.044zm-.002-.003l.058-.044zm-.309-1.918l-.069-.023zm.492-1.477l.07.023zm1.618-2.439l.048.055zm.1-.088l.048.055l.064-.057l-.066-.054zm-.582-.792l.067-.028zM5.74 8.91l.067.028l.009-.02l-.004-.022zm-.022-.538l.073.008zm.575-1.135l.05.054l.018-.016l.004-.025zm.046-.216l.071.017zm.008-.035l-.07-.02l-.001.003zm.01-.035l-.07-.02zm.48-.935l.057.045zm3.638-.672l-.02.07h.002zm1.731 1.132l.058-.045zm.159.21l-.06.044zm.073.1l.061-.041l-.002-.003zm.004.005l-.061.04l.002.003zm.032.042l-.057.046l.012.015l.018.007zm.186.074l-.027.068zm.568.231l-.03.067zm1.2.791l.052-.051l-.002-.002zm.003.003l-.052.052h.002zm.183.177l-.052.052zm.094.093l.052-.052h-.001zm.005.005l-.052.051zm.404.396l-.05.052l.02.021h.03zm.482.005l-.003.073h.003zm.01 0l.003-.073h-.003zm2.312.99l-.05.054zm1.124 2.183l-.072.01l.003.02l.013.017zm.06.07l.057-.046zm.316.376l-.056.048zm.417.63l-.066.032zm.175.444l.07-.022zm.018.056l-.07.021l.001.005zm.013.035l.07-.022l-.002-.003zm.01.034l-.07.022zm.085.25l.07-.024zm.296.98h.074l-.003-.013zm0 .003h-.075l.003.014zm-.156 1.733l-.068-.026zm-.04.112l.068.025zm-.003.007l-.069-.026zm-.049.13l-.068-.027v.002zm-.713.965l-.045-.058zm-1.144.433l-.005-.073zm-.023.002l.003.073h.003zm-.095.003v.074h.003zm-1.017 0v-.073h-.012l-.01.004zm-.002-.072h-.221v.147h.22zm-.221 0h-.031v.147h.03zm-.031 0h-.024v.147h.023zm-.025 0h-.053v.147h.053zm-.051 0a1.74 1.74 0 0 1-.755-.196l-.067.13c.251.131.534.205.818.213zm-.755-.196a1.7 1.7 0 0 1-.33-.225l-.095.11q.165.143.357.245zm-.42-.229c-.354.26-.79.406-1.232.412l.002.146a2.3 2.3 0 0 0 1.316-.44zm-1.231.412h-.043v.146h.043zm-.044 0h-.036v.146h.036zm-.036 0h-.01v.146h.01zm-.01 0l-.306-.001l-.001.146h.307zm-.306-.001h-.002v.146h.002zm-.002 0l-.366-.001v.146l.366.001zm-.366-.001h-.137v.146h.138zm-.139.073v-.073h-.337v.147h.337zm-.338-.072a1.7 1.7 0 0 1-.836-.218l-.071.127c.277.156.59.237.907.237zm-.906-.219a1.7 1.7 0 0 1-.653.198l.014.146c.25-.024.49-.098.708-.215zm-.652.198l-.021.002l.013.146l.02-.002zm-.021.002l-.02.002l.012.146l.02-.002zm-.02.002a2 2 0 0 1-.17.005v.146q.104 0 .18-.005zm-.17.005h-.04v.146h.004v-.146h-.002v.146h.002v-.146h-.004v.146h.039zm-.038 0H9.934v.146h1.478zm-1.478 0h-.045v.146h.044zm-.046 0a1.75 1.75 0 0 1-1.158-.436l-.097.11c.343.302.79.472 1.255.472zm-1.255-.436a1.73 1.73 0 0 1-1.147.435v.146c.461 0 .9-.167 1.244-.472zm-1.147.435H6.078v.146h1.408zm-1.408 0a1.98 1.98 0 0 1-1.594-.793l-.117.088a2.13 2.13 0 0 0 1.711.851zm-1.594-.793l-.003-.003l-.117.088l.003.003zm-.003-.003a2.02 2.02 0 0 1-.297-1.85l-.139-.046a2.16 2.16 0 0 0 .32 1.984zm-.297-1.85l.492-1.478l-.14-.046l-.49 1.477zm.492-1.478a5.5 5.5 0 0 1 1.596-2.407l-.097-.11a5.67 5.67 0 0 0-1.638 2.471zm1.596-2.407l.1-.088l-.097-.11l-.1.088zm.098-.2a2 2 0 0 1-.56-.763l-.136.056c.134.323.342.604.603.82zm-.56-.763a1.96 1.96 0 0 1-.002-1.513l-.135-.056a2.1 2.1 0 0 0 .001 1.625zm.003-1.555a1.7 1.7 0 0 1-.021-.516l-.146-.016a2 2 0 0 0 .023.56zm-.021-.516c.045-.418.245-.808.552-1.089l-.099-.108c-.333.305-.55.728-.599 1.181zm.574-1.13q.021-.113.045-.212l-.142-.034a4 4 0 0 0-.046.22zm.045-.212l.008-.036l-.142-.033l-.008.036zm.007-.032l.01-.035l-.14-.04l-.01.034zm.01-.034a2.6 2.6 0 0 1 .467-.91L6.78 5.97c-.22.275-.387.598-.493.96zm.467-.911a2.63 2.63 0 0 1 2.05-.988v-.146A2.78 2.78 0 0 0 6.78 5.97zm2.05-.988c.8 0 1.462.326 1.51.34l.042-.14l-.006-.002l-.028-.012a4 4 0 0 0-.438-.16a3.8 3.8 0 0 0-1.08-.172zm1.513.341a3.2 3.2 0 0 1 1.692 1.107l.115-.09a3.34 3.34 0 0 0-1.77-1.158zm1.691 1.106l.158.21l.117-.087l-.159-.212zm.158.21l.073.1l.118-.088l-.074-.1zm.071.096l.004.006l.122-.081l-.004-.006zm.006.008l.034.045l.114-.092l-.03-.04zm.064.067l.186.074l.054-.135l-.187-.075zm.186.074c.29.116.473.19.566.23l.059-.134a22 22 0 0 0-.571-.231zm.566.23c.435.19.832.451 1.18.778l.1-.107a4.3 4.3 0 0 0-1.222-.805zm1.177.776l.003.003l.103-.104l-.002-.002zm.005.004l.181.176l.103-.104l-.184-.178zm.182.177l.094.093l.102-.106l-.094-.092zm.093.092l.005.004l.103-.103l-.004-.005zm.005.005l.405.396l.102-.104l-.404-.397zm.456.417h.094V8.53h-.093zm.095 0c.168 0 .287.002.384.005l.006-.146c-.1-.003-.22-.005-.39-.005zm.387.005h.01v-.146h-.01zm.007 0a3.55 3.55 0 0 1 2.265.97l.1-.106a3.7 3.7 0 0 0-2.359-1.01zm2.265.97c.61.574 1 1.333 1.102 2.14l.145-.02a3.7 3.7 0 0 0-1.147-2.226zm1.118 2.177l.038.044l.016.02l.005.005l.001.002l.056-.047l.056-.047v-.001l-.002-.002l-.021-.025l-.036-.043zm.06.07l.316.377l.111-.095l-.314-.375zm.317.377c.165.192.298.393.406.614l.132-.064a3 3 0 0 0-.428-.645zm.407.615c.082.165.135.325.17.434l.14-.046a3 3 0 0 0-.18-.453zm.17.433l.018.055l.14-.042l-.019-.057zm.02.06l.012.034l.137-.05l-.012-.035zm.01.03l.012.035l.14-.044l-.012-.034zm.012.036c.016.049.05.151.085.25l.138-.047c-.034-.1-.069-.2-.084-.248zm.085.25c.149.434.247.73.293.971l.143-.027c-.048-.255-.15-.56-.298-.991zm.291.957v.003h.147v-.003zm.002.017a3.15 3.15 0 0 1-.152 1.693l.136.052c.215-.567.27-1.18.16-1.772zm-.153 1.694l-.04.111l.137.051c.014-.04.034-.092.04-.112zm-.04.111l-.003.007l.137.052l.003-.008zm-.003.008c-.019.05-.035.097-.048.128l.136.054l.05-.132zm-.048.13a2.06 2.06 0 0 1-.69.932l.089.117c.338-.258.593-.603.738-.999zm-.69.932a2.05 2.05 0 0 1-1.104.418l.01.146a2.2 2.2 0 0 0 1.183-.447zm-1.105.418l-.023.002l.012.146l.023-.002zm-.02.002l-.095.003l.006.147l.095-.004zm-.092.003h-.318v.147h.318zm-.318 0h-.139v.147h.138zm-.14 0h-.261v.147h.261zm-.261 0h-.01v.147h.01zm-.01 0h-.287v.147h.287zm-.31.004l-.003.001l.046.139l.003-.001z" mask="url(#SVG2a7qBcfq)"/><mask id="SVGEiv9SHDi" fill="#fff"><path d="M17.194 17.227h-.307c-.307-.008-.705-.147-.847-.418c-.142-.27-.17-.879-.17-.879s-.302.784-.614 1.012c-.23.172-.518.269-.81.273h-.075l-.306-.001l-.37-.001h-.477a.98.98 0 0 1-.862-.52a.99.99 0 0 1-.767.503h-.01l-.01.002c-.04.003-.093.003-.12.003H9.885a.99.99 0 0 1-.996-1.058v-.269a1 1 0 0 1-.42.409a.99.99 0 0 1-.985.918H6.076c-.396 0-.76-.182-1-.497l-.002-.002a1.27 1.27 0 0 1-.186-1.168l.492-1.477a4.8 4.8 0 0 1 1.38-2.082l.837-.736a1.1 1.1 0 0 1-.383-.387a1.2 1.2 0 0 1-.72-.686a1.22 1.22 0 0 1 .036-1.02c.02-.043.052-.104.083-.167a.99.99 0 0 1 .285-1.185l.027-.021l.004-.003l.035-.025a.3.3 0 0 0 .104-.182a3 3 0 0 1 .062-.347l.005-.017l.005-.017q.111-.378.335-.656a1.88 1.88 0 0 1 1.466-.708c.569 0 1.282.306 1.318.315c.52.137.981.437 1.3.846c.04.051.094.124.147.195c.03.042.06.082.079.106l.001.003l.049.064c.03.042.077.105.098.126l.005.004a.3.3 0 0 0 .087.057l.008.002l.322.13c.275.11.461.185.543.22c.357.157.684.371.97.639h.001l.17.165l.1.098l.531.521l.04.04c.02.02.05.05.073.07h.427c.158 0 .268.002.356.005h.006c.656.029 1.29.302 1.787.769a2.8 2.8 0 0 1 .895 1.917l.223.266l.323.384a2.1 2.1 0 0 1 .435.796l.027.08l.006.018l.006.017c.018.058.053.162.09.27c.133.385.229.673.265.866c.08.434.04.881-.117 1.296l-.045.121l-.049.133a1.33 1.33 0 0 1-1.146.866h-.011l-.067.003h-.999z"/></mask><g filter="url(#SVGFME1fd4p)"><path fill="#0054fa" d="M17.194 17.227h-.307c-.307-.008-.705-.147-.847-.418c-.142-.27-.17-.879-.17-.879s-.302.784-.614 1.012c-.23.172-.518.269-.81.273h-.075l-.306-.001l-.37-.001h-.477a.98.98 0 0 1-.862-.52a.99.99 0 0 1-.767.503h-.01l-.01.002c-.04.003-.093.003-.12.003H9.885a.99.99 0 0 1-.996-1.058v-.269a1 1 0 0 1-.42.409a.99.99 0 0 1-.985.918H6.076c-.396 0-.76-.182-1-.497l-.002-.002a1.27 1.27 0 0 1-.186-1.168l.492-1.477a4.8 4.8 0 0 1 1.38-2.082l.837-.736a1.1 1.1 0 0 1-.383-.387a1.2 1.2 0 0 1-.72-.686a1.22 1.22 0 0 1 .036-1.02c.02-.043.052-.104.083-.167a.99.99 0 0 1 .285-1.185l.027-.021l.004-.003l.035-.025a.3.3 0 0 0 .104-.182a3 3 0 0 1 .062-.347l.005-.017l.005-.017q.111-.378.335-.656a1.88 1.88 0 0 1 1.466-.708c.569 0 1.282.306 1.318.315c.52.137.981.437 1.3.846c.04.051.094.124.147.195c.03.042.06.082.079.106l.001.003l.049.064c.03.042.077.105.098.126l.005.004a.3.3 0 0 0 .087.057l.008.002l.322.13c.275.11.461.185.543.22c.357.157.684.371.97.639h.001l.17.165l.1.098l.531.521l.04.04c.02.02.05.05.073.07h.427c.158 0 .268.002.356.005h.006c.656.029 1.29.302 1.787.769a2.8 2.8 0 0 1 .895 1.917l.223.266l.323.384a2.1 2.1 0 0 1 .435.796l.027.08l.006.018l.006.017c.018.058.053.162.09.27c.133.385.229.673.265.866c.08.434.04.881-.117 1.296l-.045.121l-.049.133a1.33 1.33 0 0 1-1.146.866h-.011l-.067.003h-.999z"/></g><path stroke="url(#SVGaNYERdCD)" stroke-miterlimit="10" stroke-width=".146" d="M17.194 17.227h-.307c-.307-.008-.705-.147-.847-.418c-.142-.27-.17-.879-.17-.879s-.302.784-.614 1.012c-.23.172-.518.269-.81.273h-.075l-.306-.001l-.37-.001h-.477a.98.98 0 0 1-.862-.52a.99.99 0 0 1-.767.503h-.01l-.01.002c-.04.003-.093.003-.12.003H9.885a.99.99 0 0 1-.996-1.058v-.269a1 1 0 0 1-.42.409a.99.99 0 0 1-.985.918H6.076c-.396 0-.76-.182-1-.497l-.002-.002a1.27 1.27 0 0 1-.186-1.168l.492-1.477a4.8 4.8 0 0 1 1.38-2.082l.837-.736a1.1 1.1 0 0 1-.383-.387a1.2 1.2 0 0 1-.72-.686a1.22 1.22 0 0 1 .036-1.02c.02-.043.052-.104.083-.167a.99.99 0 0 1 .285-1.185l.027-.021l.004-.003l.035-.025a.3.3 0 0 0 .104-.182a3 3 0 0 1 .062-.347l.005-.017l.005-.017q.111-.378.335-.656a1.88 1.88 0 0 1 1.466-.708c.569 0 1.282.306 1.318.315c.52.137.981.437 1.3.846c.04.051.094.124.147.195c.03.042.06.082.079.106l.001.003l.049.064c.03.042.077.105.098.126l.005.004a.3.3 0 0 0 .087.057l.008.002l.322.13c.275.11.461.185.543.22c.357.157.684.371.97.639h.001l.17.165l.1.098l.531.521l.04.04c.02.02.05.05.073.07h.427c.158 0 .268.002.356.005h.006c.656.029 1.29.302 1.787.769a2.8 2.8 0 0 1 .895 1.917l.223.266l.323.384a2.1 2.1 0 0 1 .435.796l.027.08l.006.018l.006.017c.018.058.053.162.09.27c.133.385.229.673.265.866c.08.434.04.881-.117 1.296l-.045.121l-.049.133a1.33 1.33 0 0 1-1.146.866h-.011l-.067.003h-.999z" mask="url(#SVGEiv9SHDi)"/><g filter="url(#SVGx7O0bdcU)"><path fill="#fff" d="m16.715 16.15l.023.089l.012.044c.02.07.088.125.162.125h.067c.266.002.655 0 .921 0h.276l.039-.002a.51.51 0 0 0 .436-.331l.095-.26a1.6 1.6 0 0 0 .079-.857c-.041-.216-.262-.818-.333-1.042c-.038-.102-.075-.24-.123-.335a1.3 1.3 0 0 0-.19-.287c-.099-.114-.508-.605-.594-.706l-.06-.07c-.123-.139-.07-.333-.1-.499c-.103-.95-.938-1.734-1.89-1.777c-.2-.007-.522-.003-.73-.004a.8.8 0 0 1-.402-.09c-.11-.052-.219-.169-.305-.253l-.527-.517c-.075-.072-.19-.187-.263-.256a2.6 2.6 0 0 0-.739-.487c-.12-.053-.72-.289-.853-.344a1.1 1.1 0 0 1-.338-.217c-.09-.084-.17-.202-.244-.298c-.053-.07-.163-.221-.22-.293a1.62 1.62 0 0 0-.865-.56c-.13-.034-.79-.244-.92-.268a1.055 1.055 0 0 0-1.204.758c-.02.08-.035.177-.045.26a1.12 1.12 0 0 1-.422.725l-.04.03l-.008.007l-.006.004a.167.167 0 0 0-.026.235l.014.016l.118.142l-.006-.007a.14.14 0 0 1 .028.145l-.08.162l-.191.384a.412.412 0 0 0 .233.568l.201.067a.23.23 0 0 1 .137.113l.049.099l.024.048c.054.115.18.184.305.175h.92c.024 0 .044.02.044.045s-.015.04-.036.044l-.33.066a.1.1 0 0 0-.082.099v.084a.92.92 0 0 1-.31.687L7.3 12.59a3.95 3.95 0 0 0-1.144 1.726l-.492 1.476a.46.46 0 0 0 .063.418c.084.11.21.174.35.174h1.407a.17.17 0 0 0 .169-.17v-.158a.17.17 0 0 0-.05-.12l-.07-.07a.18.18 0 0 1-.048-.173a.17.17 0 0 1 .162-.121h.377a.17.17 0 0 0 .168-.17v-.27a.64.64 0 0 1 .256-.513l.032-.024c.48-.362.774-.929.768-1.531a.95.95 0 0 1 .363-.763l.29-.23a.1.1 0 0 0 .037-.091a2 2 0 0 0-.087-.377l-.123-.362a1.83 1.83 0 0 1 .156-1.557c.18-.293.447-.529.754-.663c.022-.01.047 0 .058.022c.011.02.003.046-.017.059c-.685.426-1.027 1.305-.748 2.07c.028.089.092.28.118.364c.126.382.143.8.046 1.189l-.534 1.97l-.017.062a.94.94 0 0 0 .081.73l.036.071c.056.104.045.231.045.343v.254c-.002.057-.002.128.042.171a.18.18 0 0 0 .152.058h1.524l.085-.001a.173.173 0 0 0 .15-.187v-.127a.2.2 0 0 0-.014-.082a.2.2 0 0 0-.055-.07l-.091-.092a.24.24 0 0 1-.022-.305c.023-.033.16-.223.185-.26c.132-.191.384-.534.512-.725c.287-.439.379-.997.254-1.505c-.028-.14-.113-.333-.159-.47c-.06-.17-.21-.558-.258-.73c-.075-.255-.075-.523-.057-.785q.011-.232.031-.468a.046.046 0 0 1 .047-.041c.024 0 .043.018.046.041c.022.24.032.483.044.721c.016.247.073.48.167.71c.063.161.214.558.273.714q.072.19.106.393c.017.1.085.186.18.225q.21.087.443.154a.34.34 0 0 0 .399-.181l.038-.077c.103-.2.242-.379.38-.555q.188-.244.393-.478a.046.046 0 0 1 .062-.008a.05.05 0 0 1 .013.061a17 17 0 0 1-.511.796c-.201.31-.342.662-.402 1.027l-.18 1.14c-.02.11-.03.258-.09.356c-.052.103-.174.186-.26.259l-.064.051l-.008.007l-.005.004c-.047.041-.066.11-.047.17c.018.063.044.169.062.228c.022.06.084.103.15.101h.329c.272-.002.55 0 .822 0h.062c.12 0 .24-.039.336-.111c.122-.089.18-.212.229-.357l.285-.773a3 3 0 0 1 .13-.315c.15-.31.36-.59.621-.814a2.5 2.5 0 0 0 .712-.983a.05.05 0 0 1 .057-.028a.05.05 0 0 1 .034.052a1.8 1.8 0 0 1-.423.873a.54.54 0 0 0-.135.355v.109c0 .052 0 .114.01.167c.02.13.092.252.19.339l.068.063l.272.25l.135.125a.25.25 0 0 1 .08.122a.24.24 0 0 1-.1.263l-.143.116c-.017.015-.047.036-.061.052a.18.18 0 0 0-.042.163l.024.089z"/></g></g><defs><filter id="SVGsew6neIN" width="24.664" height="21.553" x="-.086" y=".908" color-interpolation-filters="sRGB" filterUnits="userSpaceOnUse"><feFlood flood-opacity="0" result="BackgroundImageFix"/><feBlend in="SourceGraphic" in2="BackgroundImageFix" result="shape"/><feColorMatrix in="SourceAlpha" result="hardAlpha" values="0 0 0 0 0 0 0 0 0 0 0 0 0 0 0 0 0 0 127 0"/><feOffset dy=".325"/><feGaussianBlur stdDeviation=".162"/><feComposite in2="hardAlpha" k2="-1" k3="1" operator="arithmetic"/><feColorMatrix values="0 0 0 0 0 0 0 0 0 0 0 0 0 0 0 0 0 0 0.25 0"/><feBlend in2="shape" result="effect1_innerShadow_453_126"/></filter><filter id="SVGOqFgbcNC" width="23.028" height="19.916" x=".732" y="1.727" color-interpolation-filters="sRGB" filterUnits="userSpaceOnUse"><feFlood flood-opacity="0" result="BackgroundImageFix"/><feBlend in="SourceGraphic" in2="BackgroundImageFix" result="shape"/><feColorMatrix in="SourceAlpha" result="hardAlpha" values="0 0 0 0 0 0 0 0 0 0 0 0 0 0 0 0 0 0 127 0"/><feOffset dy=".325"/><feGaussianBlur stdDeviation=".162"/><feComposite in2="hardAlpha" k2="-1" k3="1" operator="arithmetic"/><feColorMatrix values="0 0 0 0 0 0 0 0 0 0 0 0 0 0 0 0 0 0 0.25 0"/><feBlend in2="shape" result="effect1_innerShadow_453_126"/></filter><filter id="SVG3g5eyeBn" width="21.392" height="18.279" x="1.55" y="2.546" color-interpolation-filters="sRGB" filterUnits="userSpaceOnUse"><feFlood flood-opacity="0" result="BackgroundImageFix"/><feBlend in="SourceGraphic" in2="BackgroundImageFix" result="shape"/><feColorMatrix in="SourceAlpha" result="hardAlpha" values="0 0 0 0 0 0 0 0 0 0 0 0 0 0 0 0 0 0 127 0"/><feOffset dy=".325"/><feGaussianBlur stdDeviation=".162"/><feComposite in2="hardAlpha" k2="-1" k3="1" operator="arithmetic"/><feColorMatrix values="0 0 0 0 0 0 0 0 0 0 0 0 0 0 0 0 0 0 0.25 0"/><feBlend in2="shape" result="effect1_innerShadow_453_126"/></filter><filter id="SVGGTzExJAV" width="19.753" height="16.657" x="2.37" y="3.35" color-interpolation-filters="sRGB" filterUnits="userSpaceOnUse"><feFlood flood-opacity="0" result="BackgroundImageFix"/><feBlend in="SourceGraphic" in2="BackgroundImageFix" result="shape"/><feColorMatrix in="SourceAlpha" result="hardAlpha" values="0 0 0 0 0 0 0 0 0 0 0 0 0 0 0 0 0 0 127 0"/><feOffset dy=".325"/><feGaussianBlur stdDeviation=".162"/><feComposite in2="hardAlpha" k2="-1" k3="1" operator="arithmetic"/><feColorMatrix values="0 0 0 0 0 0 0 0 0 0 0 0 0 0 0 0 0 0 0.25 0"/><feBlend in2="shape" result="effect1_innerShadow_453_126"/></filter><filter id="SVGFhUb4rvd" width="18.119" height="15.006" x="3.187" y="4.183" color-interpolation-filters="sRGB" filterUnits="userSpaceOnUse"><feFlood flood-opacity="0" result="BackgroundImageFix"/><feBlend in="SourceGraphic" in2="BackgroundImageFix" result="shape"/><feColorMatrix in="SourceAlpha" result="hardAlpha" values="0 0 0 0 0 0 0 0 0 0 0 0 0 0 0 0 0 0 127 0"/><feOffset dy=".325"/><feGaussianBlur stdDeviation=".162"/><feComposite in2="hardAlpha" k2="-1" k3="1" operator="arithmetic"/><feColorMatrix values="0 0 0 0 0 0 0 0 0 0 0 0 0 0 0 0 0 0 0.25 0"/><feBlend in2="shape" result="effect1_innerShadow_453_126"/></filter><filter id="SVGDolJjcvZ" width="16.483" height="13.37" x="4.006" y="5" color-interpolation-filters="sRGB" filterUnits="userSpaceOnUse"><feFlood flood-opacity="0" result="BackgroundImageFix"/><feBlend in="SourceGraphic" in2="BackgroundImageFix" result="shape"/><feColorMatrix in="SourceAlpha" result="hardAlpha" values="0 0 0 0 0 0 0 0 0 0 0 0 0 0 0 0 0 0 127 0"/><feOffset dy=".325"/><feGaussianBlur stdDeviation=".162"/><feComposite in2="hardAlpha" k2="-1" k3="1" operator="arithmetic"/><feColorMatrix values="0 0 0 0 0 0 0 0 0 0 0 0 0 0 0 0 0 0 0.25 0"/><feBlend in2="shape" result="effect1_innerShadow_453_126"/></filter><filter id="SVGFME1fd4p" width="14.847" height="11.734" x="4.822" y="5.818" color-interpolation-filters="sRGB" filterUnits="userSpaceOnUse"><feFlood flood-opacity="0" result="BackgroundImageFix"/><feBlend in="SourceGraphic" in2="BackgroundImageFix" result="shape"/><feColorMatrix in="SourceAlpha" result="hardAlpha" values="0 0 0 0 0 0 0 0 0 0 0 0 0 0 0 0 0 0 127 0"/><feOffset dy=".325"/><feGaussianBlur stdDeviation=".162"/><feComposite in2="hardAlpha" k2="-1" k3="1" operator="arithmetic"/><feColorMatrix values="0 0 0 0 0 0 0 0 0 0 0 0 0 0 0 0 0 0 0.25 0"/><feBlend in2="shape" result="effect1_innerShadow_453_126"/></filter><filter id="SVGx7O0bdcU" width="21.334" height="17.895" x="1.578" y="2.575" color-interpolation-filters="sRGB" filterUnits="userSpaceOnUse"><feFlood flood-opacity="0" result="BackgroundImageFix"/><feColorMatrix in="SourceAlpha" result="hardAlpha" values="0 0 0 0 0 0 0 0 0 0 0 0 0 0 0 0 0 0 127 0"/><feOffset/><feGaussianBlur stdDeviation="2.031"/><feComposite in2="hardAlpha" operator="out"/><feColorMatrix values="0 0 0 0 0 0 0 0 0 0 0 0 0 0 0 0 0 0 0.6 0"/><feBlend in2="BackgroundImageFix" result="effect1_dropShadow_453_126"/><feBlend in="SourceGraphic" in2="effect1_dropShadow_453_126" result="shape"/></filter><linearGradient id="SVG7fZ7ieqJ" x1="3.613" x2="18.649" y1="5.74" y2="19.756" gradientUnits="userSpaceOnUse"><stop offset=".125" stop-color="#89d0ff"/><stop offset=".4" stop-color="#ebbf9a"/><stop offset=".635" stop-color="#eb8280"/><stop offset=".88" stop-color="#a281ff"/></linearGradient><linearGradient id="SVGRzmgGeoQ" x1="4.825" x2="17.97" y1="6.031" y2="19.217" gradientUnits="userSpaceOnUse"><stop offset=".125" stop-color="#89d0ff"/><stop offset=".4" stop-color="#ebbf9a"/><stop offset=".635" stop-color="#eb8280"/><stop offset=".88" stop-color="#a281ff"/></linearGradient><linearGradient id="SVGk9gwvb4F" x1="4.486" x2="18.32" y1="6.904" y2="18.843" gradientUnits="userSpaceOnUse"><stop offset=".125" stop-color="#89d0ff"/><stop offset=".4" stop-color="#ebbf9a"/><stop offset=".635" stop-color="#eb8280"/><stop offset=".88" stop-color="#a281ff"/></linearGradient><linearGradient id="SVGBANM6sTe" x1="4.971" x2="18.252" y1="6.08" y2="19.119" gradientUnits="userSpaceOnUse"><stop offset=".125" stop-color="#89d0ff"/><stop offset=".4" stop-color="#ebbf9a"/><stop offset=".635" stop-color="#eb8280"/><stop offset=".88" stop-color="#a281ff"/></linearGradient><linearGradient id="SVGbOGHFcSv" x1="4.728" x2="18.035" y1="6.322" y2="18.784" gradientUnits="userSpaceOnUse"><stop offset=".125" stop-color="#89d0ff"/><stop offset=".4" stop-color="#ebbf9a"/><stop offset=".635" stop-color="#eb8280"/><stop offset=".88" stop-color="#a281ff"/></linearGradient><linearGradient id="SVGlhNdRczP" x1="5.31" x2="17.749" y1="5.789" y2="18.619" gradientUnits="userSpaceOnUse"><stop offset=".125" stop-color="#89d0ff"/><stop offset=".4" stop-color="#ebbf9a"/><stop offset=".635" stop-color="#eb8280"/><stop offset=".88" stop-color="#a281ff"/></linearGradient><linearGradient id="SVGaNYERdCD" x1="5.31" x2="17.861" y1="6.08" y2="18.521" gradientUnits="userSpaceOnUse"><stop offset=".125" stop-color="#89d0ff"/><stop offset=".4" stop-color="#ebbf9a"/><stop offset=".635" stop-color="#eb8280"/><stop offset=".88" stop-color="#a281ff"/></linearGradient></defs></g></svg>