<svg xmlns="http://www.w3.org/2000/svg" viewBox="0 0 24 24"><g fill="none"><path fill="#ffed00" d="M12 21a9 9 0 1 0 0-18a9 9 0 0 0 0 18"/><path fill="#e42313" fill-rule="evenodd" d="M12 19.94a7.941 7.941 0 1 0 0-15.882a7.941 7.941 0 0 0 0 15.883m0 .53a8.47 8.47 0 1 0 0-16.94a8.47 8.47 0 0 0 0 16.94" clip-rule="evenodd"/><path fill="#e42313" fill-rule="evenodd" d="M17.098 8.692c.431.03.85.155 1.229.365l.026.021v2.266l-.1-.069a2.9 2.9 0 0 0-1.34-.354c-.09 0-.153-.053-.159-.138v-.561a3.1 3.1 0 0 0-1.059-.228v3.087c0 2.366-2.297 3.975-3.663 4.727l-.032.016l-.032-.016c-1.365-.752-3.663-2.361-3.663-4.727V9.994c-.323.016-.794.095-1.059.228v.56c-.005.085-.069.144-.159.144c-.519 0-1.138.206-1.34.35l-.1.068V9.078l.027-.021a3 3 0 0 1 1.228-.37v-.382c.08-.386.953-.53 1.403-.54h7.39c.45.01 1.324.154 1.403.535zm-.127-.371c-.053-.249-.767-.418-1.276-.429v1.98c.334.01 1.006.106 1.276.339zm-11.197 2.79v-1.97c.35-.182.734-.292 1.128-.322v1.614c0 .138.069.202.127.255l.021.02a.3.3 0 0 1 .058.085h-.031c-.45.006-1.006.16-1.303.318m2.53-3.219v1.98c-.333.01-1 .106-1.275.339v-1.89c.053-.249.773-.418 1.276-.429m8.794.927c.493.042.953.211 1.133.323v1.97a3.2 3.2 0 0 0-1.34-.319a.3.3 0 0 1 .06-.084l.026-.021c.053-.053.121-.117.121-.255zm-9.99 1.773c-.053-.048-.084-.08-.079-.159c0-.031.021-.08.085-.132v.297v-.006zm9.858-.19l.01.031c0 .08-.036.111-.084.16l-.005.005V10.3a.3.3 0 0 1 .08.1" clip-rule="evenodd"/><path fill="#ffed00" d="M15.568 13.08c0 2.282-2.223 3.854-3.568 4.6c-1.345-.74-3.568-2.318-3.568-4.605V7.887h7.136z"/><path fill="#e42313" d="M6.314 10.49v-.994H6.15v-.16h.339v1.155zm1.472-1.365a.33.33 0 0 1-.381-.074a.38.38 0 0 1-.106-.265a.39.39 0 0 1 .408-.402q.165.001.27.106a.4.4 0 0 1 .105.28a.7.7 0 0 1-.143.387l-.323.476l-.143-.069zm.116-.355a.24.24 0 0 0-.053-.17a.2.2 0 0 0-.148-.063a.21.21 0 0 0-.159.064a.24.24 0 0 0-.058.17q-.001.11.053.174a.23.23 0 0 0 .159.058a.2.2 0 0 0 .153-.063a.25.25 0 0 0 .053-.17m8.783.64v.154h-.767l.418-.524a.8.8 0 0 0 .111-.17a.3.3 0 0 0 .037-.137c0-.053-.016-.106-.053-.137a.18.18 0 0 0-.132-.048a.16.16 0 0 0-.127.053a.2.2 0 0 0-.053.127h-.175q-.001-.16.1-.249a.38.38 0 0 1 .27-.095a.36.36 0 0 1 .255.084a.3.3 0 0 1 .095.239a.44.44 0 0 1-.053.211c-.095.18-.233.34-.36.493zm.662.795c.053.095.132.148.238.148c.148 0 .244-.106.244-.265c0-.158-.106-.254-.255-.254a.27.27 0 0 0-.216.106l-.07-.02l.144-.594h.53v.159h-.393l-.063.243a.34.34 0 0 1 .143-.026q.159.001.254.106a.37.37 0 0 1 .106.275a.42.42 0 0 1-.122.318a.43.43 0 0 1-.312.116a.45.45 0 0 1-.202-.042a.4.4 0 0 1-.143-.132zm-5.284 2.875v4.426l.096-.053c2.16-1.292 3.229-2.7 3.282-4.31l.005-.063zm-3.504 0h3.378v4.426l-.096-.059c-2.16-1.286-3.23-2.694-3.282-4.304zm3.256 4.203v-4.076H8.69c.069 1.508 1.096 2.848 3.124 4.076m-3.256-7.83v-1.44h6.882v1.44z"/><path fill="#ffed00" d="M9.665 8.872h-.397v.153h.17v.164l-.08.01h-.085q-.128.002-.17-.052c-.02-.021-.052-.08-.052-.223c0-.153.026-.211.048-.232c.026-.032.079-.053.158-.053a.22.22 0 0 1 .133.037q.038.024.037.074v.031h.233v-.037a.21.21 0 0 0-.111-.185a.56.56 0 0 0-.286-.063q-.12.001-.207.026a.3.3 0 0 0-.143.074a.3.3 0 0 0-.069.122a.6.6 0 0 0-.02.19q.001.16.026.239a.26.26 0 0 0 .1.132a.4.4 0 0 0 .133.053a.7.7 0 0 0 .19.021l.16-.01l.232-.027zm.916-.302a.4.4 0 0 0-.132-.053a.8.8 0 0 0-.387.005a.3.3 0 0 0-.143.085a.25.25 0 0 0-.053.116a1 1 0 0 0-.016.201a.7.7 0 0 0 .027.233c.016.053.042.09.09.122c.032.021.08.043.132.053a.8.8 0 0 0 .381-.005a.4.4 0 0 0 .143-.085a.26.26 0 0 0 .053-.116a.6.6 0 0 0 .021-.191q-.001-.166-.026-.238a.24.24 0 0 0-.09-.127m-.312.08c.079 0 .127.015.158.041c.016.022.037.08.037.233c0 .149-.02.212-.042.233c-.026.027-.08.043-.153.043a.3.3 0 0 1-.106-.016a.13.13 0 0 1-.053-.043a.14.14 0 0 1-.021-.063a.7.7 0 0 1-.011-.154a1 1 0 0 1 .01-.174a.13.13 0 0 1 .038-.059a.13.13 0 0 1 .053-.031zm.301-.356h-.2v.175h.195v-.175zm-.386 0h-.201v.175h.2zm.656.212v.164h.477l-.477.52v.163h.757v-.18h-.476l.476-.508v-.159h-.762zm.895 0v.159h.28v.688h.228v-.688h.286v-.159zm.953 0v.847h.678V9.18h-.45v-.191h.439V8.84h-.44v-.17h.45v-.159h-.677zm1.556.053c-.053-.032-.148-.053-.29-.053h-.366v.847h.228V9.01h.174a.5.5 0 0 0 .26-.058a.22.22 0 0 0 .09-.19c0-.09-.032-.165-.096-.202m-.423.106h.132c.08 0 .117.016.133.027c.015.01.026.037.026.058q0 .046-.032.069c-.02.01-.037.015-.132.02h-.132v-.17zm1.355.005v-.159h-.678v.842h.678V9.18h-.45v-.191h.44V8.84h-.44v-.17z"/><path fill="#e42313" fill-rule="evenodd" d="M12.064 9.582v3.372h3.383V9.582zm3.256.121h-3.13v3.124h3.13z" clip-rule="evenodd"/><path fill="#e42313" d="M8.559 12.954h.746v-.741h-.746v.746zm.873-.874h.752v-.751h-.752zm-.127-.873h-.746v-.752h.746zm1-.752h.758v.752h-.757zm-.873-.127h.752v-.746h-.752zm1.752 0h.752v-.746h-.751zm-2.625 0h.746v-.746h-.746zm.624-.122H8.68v-.503h.503z"/><path fill="#e42313" fill-rule="evenodd" d="M11.063 10.328h-.757v-.746h.751v.746zm-.63-.122v-.503h.508v.503zm1.503.249h-.751v.752h.751zm-.121.127h-.503v.498h.503zM8.559 12.08h.746v-.751h-.746zm.624-.624H8.68v.497h.503z" clip-rule="evenodd"/><path fill="#e42313" d="M10.184 11.206h-.751v-.751h.751zm-.127-.624H9.56v.497h.497z"/><path fill="#e42313" fill-rule="evenodd" d="M10.184 12.208h-.751v.746h.751zm-.127.121H9.56v.503h.497zm.25-.248h.756v-.752h-.757zm.634-.625h-.503v.497h.503z" clip-rule="evenodd"/><path fill="#e42313" d="M12 10.931a1.943 1.943 0 0 1 1.943 1.938a1.943 1.943 0 0 1-3.886 0A1.944 1.944 0 0 1 12 10.93"/><path fill="#ffed00" d="M11.418 12.365a.1.1 0 0 1-.006-.053l-.529.138a14 14 0 0 0-.683.175q-.03.23 0 .46c.424-.159.964-.36 1.371-.497a.35.35 0 0 1-.159-.223zm-.212-.127l-.016-.016a.3.3 0 0 1-.127-.212v-.02a1.3 1.3 0 0 1-.535-.175c-.146.2-.248.43-.301.672l.635-.159l.35-.09zm.53-.238c-.197.212-.207.307-.202.339c.016.063.09.185.244.17a.6.6 0 0 1 .11-.133c.334-.291.917-.7 1.245-.927q-.213-.166-.466-.264l-.212.174a7 7 0 0 0-.714.636zm-.445-.254a.5.5 0 0 0-.106.254c.01.053.031.09.08.122a.28.28 0 0 0 .19.047c.037-.074.106-.159.19-.26c.217-.237.477-.444.726-.65l.159-.127a1.8 1.8 0 0 0-.509-.08c-.264.18-.566.466-.73.689zm-.1-.074c.137-.196.37-.424.602-.604c-.476.053-.9.291-1.19.646c.132.08.317.138.481.153a1 1 0 0 1 .106-.195m1.74.916q.468.414.848.645q.057-.275.026-.556l-.62-.254zm-.259.164c.265.423.53.73.805 1.053l.043.053c.1-.159.18-.318.227-.503a6 6 0 0 1-.926-.699zm1.112-.218a1.8 1.8 0 0 0-.138-.434l-.338.239zm-.196-.545a1.8 1.8 0 0 0-.36-.455c-.317.222-.92.64-1.254.937c-.138.122-.16.249-.122.339h.476a16 16 0 0 0 1.26-.82m-2.626 1.625c-.185.085-.38.17-.492.228c.127.201.297.37.492.508a11 11 0 0 0 .689-.841a.4.4 0 0 1-.265-.09zm.106.805c.254.16.546.25.863.26c.043-.276.09-.847.117-1.165h-.244c-.222.302-.53.678-.741.905zm1.79-1.175a.35.35 0 0 1-.276.26c.07.195.212.614.34.926c.2-.122.38-.28.529-.471l-.07-.074c-.169-.196-.349-.403-.523-.636zm-.805 1.435c.275-.005.53-.075.757-.19a12 12 0 0 1-.355-.98h-.286c-.026.339-.068.884-.11 1.17zm-.402-1.874h.068a.3.3 0 0 1-.005-.133c-.423.138-1.037.37-1.498.54a1.9 1.9 0 0 0 .19.52l.503-.234l.403-.18a.35.35 0 0 1-.042-.159c0-.175.132-.354.38-.354"/><path fill="#ffed00" d="M11.396 13.16c0-.112.08-.228.254-.228h.837c.175 0 .254.116.254.227s-.08.228-.254.228h-.837c-.174 0-.254-.117-.254-.228"/></g></svg>