<svg xmlns="http://www.w3.org/2000/svg" viewBox="0 0 24 24"><path fill="#6c5a5a" d="m7.347 11.442l-1.575 3.33l.729 2.727l1.863.495l2.304 2.304l-.693.702l-5.5-1.476L3 14.024l5.912-5.912zl-1.575 3.33l4.896-4.905l-1.756-1.755zm2.52 1.89l4.895 4.896l2.737-.729l.495-1.863l2.304-2.304l.702.693l-1.476 5.5l-5.5 1.475l-5.912-5.913zm4.266-2.664L9.237 5.772l-2.736.729l-.495 1.863l-2.304 2.304L3 9.975l1.476-5.5L9.976 3l5.911 5.912zm1.503-4.662l-2.304-2.304l.693-.702l5.5 1.476L21 9.976l-5.913 5.912l-1.755-1.755l4.896-4.905l-.729-2.727z"/></svg>