<svg xmlns="http://www.w3.org/2000/svg" viewBox="0 0 24 24"><path fill="#0090ff" d="m13.212 10.456l-.416 2.11l3.946.527l-.276.99l-3.878-.528c-.276.857-.415 1.78-.761 2.572c-.346.922-.692 1.846-1.108 2.703c-.554 1.12-1.523 1.912-2.838 2.11c-.762.132-1.592.066-2.216-.396c-.207-.131-.415-.395-.415-.593c0-.264-.006-.573.346-.726c.351-.152.497-.045.692.066c.208.198.416.462.554.726c.416.527.97.593 1.523.197c.623-.527.97-1.252 1.177-1.978c.415-1.582.831-3.099 1.177-4.681v-.264l-3.669-.528l.138-.989l3.808.528l.484-2.044l-3.946-.594l.14-1.055l4.084.528c.138-.396.208-.726.346-1.055c.346-1.187.692-2.374 1.523-3.429c.83-1.055 1.8-1.714 3.254-1.648c.623 0 1.246.198 1.661.659c.07.066.208.198.208.33c0 .264 0 .593-.208.79c-.277.199-.623.133-.9-.13c-.208-.199-.346-.397-.554-.594c-.415-.528-1.038-.594-1.522-.132a4.2 4.2 0 0 0-.9 1.253c-.485 1.384-.831 2.835-1.316 4.286l3.808.527l-.277.989z"/></svg>