<svg xmlns="http://www.w3.org/2000/svg" viewBox="0 0 24 24"><g fill="none"><path fill="#e61e28" d="M11.986 14.362c.016-.031.051-.013.068 0l.326 3.824l-.36.34l-.378-.34c.108-1.262.329-3.793.344-3.824"/><path fill="url(#SVGPMZpkdud)" d="m11.249 11.573l.344-.428l.418.887l.424-.886l.344.427l-.768 1.655z"/><path fill="url(#SVG7IIB4dFw)" d="m11.648 10.668l.369-.378l.374.378l-.375.687z"/><path fill="url(#SVGIKnXbcaN)" d="m4.974 10.96l-.335-.978l6.802 2.861l.432.756l-.591 4.271l-.517-.48l.855-3.791z"/><path fill="url(#SVG1y3eD0Jd)" d="m19.027 10.96l.335-.978l-6.802 2.861l-.433.756l.592 4.271l.517-.48l-.855-3.791z"/><path fill="url(#SVG1FwM16Yc)" d="M10.163 10.483L3 5.475l.713 1.954l6.876 3.856z"/><path fill="url(#SVGn6F9Be8L)" d="M13.837 10.483L21 5.475l-.713 1.954l-6.876 3.856z"/><path fill="url(#SVGzaFUKdUv)" d="m4.45 9.462l-.537-1.487l6.875 3.691l.424.787z"/><path fill="url(#SVGj7r0jdez)" d="m19.55 9.462l.538-1.487l-6.876 3.691l-.423.787z"/><defs><linearGradient id="SVGPMZpkdud" x1="11.997" x2="11.997" y1="5.475" y2="18.526" gradientUnits="userSpaceOnUse"><stop stop-color="#e9231e"/><stop offset="1" stop-color="#e42021"/></linearGradient><linearGradient id="SVG7IIB4dFw" x1="12" x2="12" y1="5.475" y2="18.525" gradientUnits="userSpaceOnUse"><stop stop-color="#e53a2d"/><stop offset="1" stop-color="#e82620"/></linearGradient><linearGradient id="SVGIKnXbcaN" x1="3" x2="15.288" y1="5.475" y2="18.774" gradientUnits="userSpaceOnUse"><stop stop-color="#f0341e"/><stop offset="1" stop-color="#e31d26"/></linearGradient><linearGradient id="SVG1y3eD0Jd" x1="21" x2="8.711" y1="5.475" y2="18.774" gradientUnits="userSpaceOnUse"><stop stop-color="#f0341e"/><stop offset="1" stop-color="#e31d26"/></linearGradient><linearGradient id="SVG1FwM16Yc" x1="3.312" x2="20.385" y1="5.475" y2="19.286" gradientUnits="userSpaceOnUse"><stop stop-color="#f7691f"/><stop offset="1" stop-color="#e9342a"/></linearGradient><linearGradient id="SVGn6F9Be8L" x1="20.689" x2="3.615" y1="5.475" y2="19.286" gradientUnits="userSpaceOnUse"><stop stop-color="#f7691f"/><stop offset="1" stop-color="#e9342a"/></linearGradient><linearGradient id="SVGzaFUKdUv" x1="3" x2="22.493" y1="5.475" y2="15.154" gradientUnits="userSpaceOnUse"><stop stop-color="#ee511f"/><stop offset="1" stop-color="#ee1b21"/></linearGradient><linearGradient id="SVGj7r0jdez" x1="20.088" x2="12.758" y1="7.975" y2="12.274" gradientUnits="userSpaceOnUse"><stop stop-color="#ee511f"/><stop offset="1" stop-color="#ee1b21"/></linearGradient></defs></g></svg>