<svg xmlns="http://www.w3.org/2000/svg" viewBox="0 0 24 24"><path fill="#3A2674" d="M15.032 6.783c.05-1.776-.82-3.16-2.043-4.36a.3.3 0 0 1-.084-.375a.285.285 0 0 1 .319 0a5.4 5.4 0 0 1 2.38 1.918c.589.854.917 1.862.943 2.9l-.02.203c-.067.688-.237 2.467-1.294 3.356a.707.707 0 0 1-.947-.192a.67.67 0 0 1-.059-.75a5.3 5.3 0 0 0 .805-2.7M9.757 19.959c.407.585.87 1.13 1.381 1.625c.126.126.126.25.059.31c-.059.065-.184.124-.252.065a5.6 5.6 0 0 1-1.959-1.404a5.55 5.55 0 0 1-1.18-2.096c-.445-1.542-.126-3.826 1.13-4.876a.707.707 0 0 1 .946.192a.58.58 0 0 1 0 .75a5.32 5.32 0 0 0-.125 5.434m5.484-6.784a5.72 5.72 0 0 1 1.315 3.25v.009a5.45 5.45 0 0 1-.82 3.317a7.9 7.9 0 0 1-2.387 2.184a.243.243 0 0 1-.377-.059a.22.22 0 0 1-.038-.17a.23.23 0 0 1 .096-.146a6.3 6.3 0 0 0 1.826-2.25c.379-.842.487-1.78.31-2.684a3.75 3.75 0 0 0-1.189-2.25a13.3 13.3 0 0 0-2.387-1.626a10.8 10.8 0 0 1-2.696-1.934a6 6 0 0 1-1.005-1.5a5.5 5.5 0 0 1-.444-1.75a5.27 5.27 0 0 1 .888-3.375a5.64 5.64 0 0 1 2.445-2.126a.25.25 0 0 1 .31-.017c.117.084.117.292 0 .392A6.9 6.9 0 0 0 9.33 4.75a4.5 4.5 0 0 0-.31 2.559a4.2 4.2 0 0 0 1.198 2.183c.737.64 1.536 1.204 2.387 1.684a10.9 10.9 0 0 1 2.637 2"/></svg>