<svg xmlns="http://www.w3.org/2000/svg" viewBox="0 0 24 24"><g fill="none"><path fill="url(#SVGi7nPmcjL)" d="M12.002 16.998c2.76 0 4.999-2.126 4.999-4.749S14.762 7.5 12 7.5c-2.76 0-4.999 2.126-4.999 4.749s2.239 4.75 5 4.75"/><path fill="#114ed2" fill-rule="evenodd" d="M12.122 20.999C17.02 20.999 21 17.015 21 12.1s-3.974-8.898-8.878-8.898A8.89 8.89 0 0 0 3.238 12.1c0 4.915 3.975 8.899 8.884 8.899m0-.25c4.764 0 8.628-3.874 8.628-8.649s-3.864-8.648-8.628-8.648A8.64 8.64 0 0 0 3.488 12.1c0 4.775 3.864 8.649 8.634 8.649" clip-rule="evenodd"/><path fill="#7954f7" d="M20.356 13.874a8.46 8.46 0 0 1-4.864 5.949l.17.39a9 9 0 0 0 5.099-6.25l-.4-.089z"/><path fill="#4351bf" d="m4.593 8.251l-.63-.314A9.02 9.02 0 0 0 3.938 16l.56-.28a8.42 8.42 0 0 1 .1-7.459z"/><path fill="#09a6f6" d="M16.485 4.19a8.96 8.96 0 0 0-3.934-1.189l-.04.65a8.42 8.42 0 0 1 6.543 3.64l.425-.286a9 9 0 0 0-2.994-2.814"/><path fill="url(#SVGSIU5ubyA)" fill-rule="evenodd" d="M11.993 18.183a6.084 6.084 0 1 0-.01-12.167a6.084 6.084 0 0 0 .01 12.167m0-.65a5.433 5.433 0 1 0-.01-10.868a5.434 5.434 0 0 0 .01 10.863z" clip-rule="evenodd"/><path fill="url(#SVGUyWAucmm)" fill-rule="evenodd" d="M12 16.998A5.046 5.046 0 0 0 17.106 12c-.001-2.76-2.286-5-5.105-5a5.05 5.05 0 0 0-5.104 5c0 2.759 2.285 4.998 5.104 4.998m0-.535c2.515 0 4.56-2 4.56-4.464A4.507 4.507 0 0 0 12 7.535c-2.514 0-4.558 2-4.558 4.464A4.51 4.51 0 0 0 12 16.463" clip-rule="evenodd"/><path fill="#208cfc" fill-rule="evenodd" d="M11.993 19.498c4.09 0 7.398-3.32 7.398-7.414s-3.309-7.413-7.398-7.413c-4.084 0-7.399 3.32-7.399 7.414c0 4.099 3.315 7.413 7.399 7.413m0-.525c3.8 0 6.879-3.084 6.879-6.888a6.882 6.882 0 0 0-9.585-6.65a6.88 6.88 0 0 0-4.168 6.65c0 3.804 3.08 6.888 6.874 6.888" clip-rule="evenodd"/><path fill="#185dce" fill-rule="evenodd" d="M11.992 18.75c3.649 0 6.608-2.97 6.608-6.624c0-3.66-2.96-6.624-6.608-6.624c-3.65 0-6.61 2.964-6.61 6.624c0 3.654 2.96 6.623 6.61 6.623m0-.23c3.524 0 6.383-2.865 6.383-6.4c0-3.529-2.86-6.393-6.383-6.393a6.39 6.39 0 0 0-6.384 6.399c0 3.529 2.86 6.399 6.384 6.399z" clip-rule="evenodd"/><path fill="url(#SVGsUOfEdUD)" fill-rule="evenodd" d="M11.992 15.933a3.818 3.818 0 0 0 1.455-7.344a3.817 3.817 0 1 0-1.455 7.344m0-1.69a2.18 2.18 0 1 0 0-4.358a2.18 2.18 0 0 0 0 4.359" clip-rule="evenodd"/><path fill="#d9d9d9" d="m5.303 10.581l-1.01-.21a7.9 7.9 0 0 0 1.635 6.639l.7-.585a6.98 6.98 0 0 1-1.325-5.844"/><path fill="url(#SVGtavtje2b)" d="M11.987 4.3a8.3 8.3 0 0 0-5.05 1.73l.525.63a7.4 7.4 0 0 1 4.57-1.554c1.7 0 3.264.56 4.499 1.504l.52-.62a8.3 8.3 0 0 0-5.064-1.69"/><path fill="#46a5fb" d="M11.377 17.81a5.785 5.785 0 0 1-5.04-5.235l-.799.075a6.584 6.584 0 0 0 5.739 5.939z"/><path fill="#75cefe" d="M14.201 18.778a7 7 0 0 0 3.87-10.343l.674-.41a7.79 7.79 0 0 1-4.319 11.488l-.23-.735z"/><path fill="#fcb5fd" d="M18.37 14.189a6.8 6.8 0 0 1-2.119 3.039l.71.875a7.9 7.9 0 0 0 2.47-3.55z"/><path fill="#262675" d="M9.002 10.501v3.5h.5v-2.625L9.812 14h.38l.31-2.624V14h.5v-3.499h-.79l-.21 1.845l-.21-1.845z"/><path fill="#262675" fill-rule="evenodd" d="M12.271 10.501c.23-.005.68.12.68.695v.55c-.015.11-.1.35-.35.375c.16.03.4.205.4.575v.864c-.01.15-.1.44-.4.44h-1.1v-3.499zm-.27.5v1h.27a.22.22 0 0 0 .135-.2v-.61c-.01-.065-.05-.19-.175-.19zm0 2.5v-1h.235c.125 0 .17.155.175.235v.52c0 .144-.09.224-.13.245zm2.55-3H13.5v3.5h1.05c.25 0 .45-.21.45-.47v-2.56c0-.26-.2-.47-.45-.47m-.205.5H14v2.5h.345c.05 0 .085-.14.085-.315v-1.87c0-.175-.035-.315-.085-.315" clip-rule="evenodd"/><defs><linearGradient id="SVGi7nPmcjL" x1="17.292" x2="6.898" y1="3.939" y2="19.465" gradientUnits="userSpaceOnUse"><stop stop-color="#3f52b8"/><stop offset=".73" stop-color="#fb8fce"/><stop offset="1" stop-color="#407ade"/></linearGradient><linearGradient id="SVGSIU5ubyA" x1="18.316" x2="4.852" y1="5.301" y2="18.686" gradientUnits="userSpaceOnUse"><stop offset=".07" stop-color="#2688ee"/><stop offset=".25" stop-color="#9afeff"/><stop offset=".41" stop-color="#ac66f7"/><stop offset=".62" stop-color="#f4fffb"/><stop offset=".87" stop-color="#80fefe"/></linearGradient><linearGradient id="SVGUyWAucmm" x1="21.246" x2="2.514" y1="11.72" y2="11.72" gradientUnits="userSpaceOnUse"><stop stop-color="#d9d9d9"/><stop offset=".16" stop-color="#3d80f9"/><stop offset=".26" stop-color="#88e4ff"/><stop offset=".5" stop-color="#556ad5"/><stop offset=".64" stop-color="#fff3ff"/><stop offset=".8" stop-color="#fee0fb"/></linearGradient><linearGradient id="SVGsUOfEdUD" x1="20.245" x2="3.023" y1="11.993" y2="11.993" gradientUnits="userSpaceOnUse"><stop stop-color="#7791ff"/><stop offset=".16" stop-color="#7498f9"/><stop offset=".34" stop-color="#8189f6"/><stop offset=".53" stop-color="#fdf7fb"/><stop offset=".7" stop-color="#f0aef1"/><stop offset="1" stop-color="#efb1f0"/></linearGradient><linearGradient id="SVGtavtje2b" x1="21.471" x2="2.978" y1="14.707" y2="14.861" gradientUnits="userSpaceOnUse"><stop stop-color="#22e2fd"/><stop offset="1" stop-color="#5b96e5"/></linearGradient></defs></g></svg>