<svg xmlns="http://www.w3.org/2000/svg" viewBox="0 0 24 24"><g fill="#0b0b0b"><path d="M14.458 13.125h.709c.107 0 .208.09.208.197v.731c0 .113-.101.197-.208.197h-.5c-.214 0-.417.315-.417.534v.36c0 .118-.084.231-.197.231H9.947c-.113 0-.197-.113-.197-.225v-.366c0-.168-.23-.534-.416-.534h-.529c-.101 0-.18-.084-.18-.197v-.731c0-.107.079-.197.18-.197h.742c.102 0 .203.09.203.197v.59c0 .237.214.338.45.338h3.6c.236 0 .45-.101.45-.338v-.59c0-.107.101-.197.208-.197"/><path d="m20.983 10.622l.011.095l.006.096v4.562c-.09.529-.478.956-.996 1.097l-.101.028l-.028.023l-.023.022l-.028.022l-.022.029l-.023.022l-.022.028l-.017.034l-.017.028l-.017.034l-.157.393l-.169.344c-.124.225-2.914 2.295-2.914 2.295s-1.446.663-4.466.663s-4.466-.663-4.466-.663s-2.79-2.07-2.914-2.295l-.169-.35l-.157-.393l-.034-.056l-.017-.034l-.022-.028l-.023-.022l-.022-.029l-.029-.022l-.022-.023l-.028-.022l-.169-.062A1.5 1.5 0 0 1 3 15.296v-4.579l.034-.19l.022-.096l.028-.09l.034-.09l.04-.09l.044-.085l.057-.079l.05-.084l.057-.073l.14-.14l.073-.062l.08-.057l.083-.056l.141-.084l.056-.045l.051-.051l.045-.056l.017-.034l.017-.028l.011-.034l.017-.034l.084-.225l.107-.225l.118-.225l.135-.208l.146-.202l.158-.192l.174-.18l.186-.168l.197-.158l.112-.112l.034-.057l.248-.393l.275-.377l.293-.36l.32-.338l.343-.32l.36-.298l.383-.276l.394-.247l.416-.226l.427-.202l.44-.169l.45-.146l.46-.112l.462-.09l.472-.057l.473-.034h.472l.473.029l.472.056l.462.09l.46.118l.45.146l.44.169l.427.202l.41.226l.4.247l.383.281l.36.293l.337.32l.326.338l.293.36l.275.377l.248.393l.033.057l.046.045l.017.022l.028.023l.022.022l.197.158l.186.168l.168.18l.17.192l.14.202l.135.208l.118.225l.107.225l.084.225l.017.034l.011.034l.017.028l.017.034l.045.056l.073.073l.028.023l.034.016l.113.068l.084.056l.079.057l.073.061l.067.068l.068.073l.056.073l.056.084l.056.08l.046.084l.039.09l.034.09l.028.09l.022.095zm-2.616 3.42l.102-1.114l.022-1.114l-.056-1.119l-.124-1.108l-.208-1.103l-.006-.033l-.01-.029l-.006-.022l-.006-.006l-.017-.028l-.011-.028l-.225-.349l-.253-.337l-.276-.32l-.298-.305l-.315-.28l-.337-.265l-.355-.248l-.377-.225l-.388-.202l-.4-.175l-.415-.157l-.422-.13l-.434-.1l-.438-.08l-.445-.056l-.45-.022h-.444l-.45.028l-.439.05l-.438.08l-.434.1l-.422.13l-.416.157l-.4.175l-.393.202l-.371.225l-.355.248l-.337.264l-.32.281l-.293.304l-.276.32l-.253.338l-.225.35l-.017.027l-.011.028V8.4l-.011.022l-.012.029l-.005.033l-.208 1.103l-.13 1.108l-.056 1.12l.028 1.113l.101 1.114l.17 1.108l.258 1.091l.006.034l.016.028l.012.034l.05.084l.023.023l.022.028l.028.022l.023.023l.028.022l.034.017l.028.017l.619.298l.63.27l.652.225l.664.197l.675.152l.692.118l.692.079l.686.04h.72l.686-.04l.692-.079l.686-.112l.68-.158l.665-.191l.652-.23l.636-.27l.613-.299l.028-.017l.034-.017l.028-.022l.022-.023l.029-.022l.022-.028l.023-.023l.05-.084l.012-.034l.01-.028l.012-.034l.253-1.091z"/></g></svg>