<svg xmlns="http://www.w3.org/2000/svg" viewBox="0 0 24 24"><g fill="none"><path fill="#425cc7" d="M12.424 14.572v6.04c0 .32-.201.474-.45.339l-3.326-1.783a1.03 1.03 0 0 1-.453-.83v-5.903q.075.06.159.106z"/><path fill="#005cb9" d="m8.573 11.776l6.859-3.517a.81.81 0 0 0 .377-.665V3.319c0-.265-.17-.387-.377-.281l-6.32 3.241c-.652.35-.954.515-.918 1.254v3.962c0 .252.173.387.38.28"/><path fill="#3cb4e5" d="m8.573 6.883l6.859 3.517c.23.146.37.396.377.668v4.272c0 .265-.17.39-.377.284l-6.859-3.518a.81.81 0 0 1-.379-.667V7.166c0-.261.173-.39.38-.283"/><path fill="#00a0df" d="m8.573 11.775l4.77-2.446l-4.77-2.446a.24.24 0 0 0-.265 0a.95.95 0 0 0-.114.414v4.142q.004.137.056.266c.063.107.2.144.308.08z"/></g></svg>