<svg xmlns="http://www.w3.org/2000/svg" viewBox="0 0 24 24"><path fill="#fc452d" fill-rule="evenodd" d="M20.588 19.402c.354.6 0 1.598-.639 1.598c-.747 0-.905-.196-1.085-.42l-.104-.12l-3.066-6.045a4.13 4.13 0 0 0-3.764-1.914c-2.619.136-3.584 1.402-4.79 4.031v.175a9 9 0 0 1 2.368-.257c1.653 0 4.293 1.178 4.98 3.017c.164.437.006.95-.256 1.157c-.327.267-.851.485-1.462.076c-.147-.098-.294-.278-.474-.497c-.573-.692-1.44-1.75-3.492-1.614c-2.144.147-3.339 1.418-3.666 2.035a1.09 1.09 0 0 1-1.026.354c-.643-.125-.954-.594-.802-1.244c.088-.349 2.673-5.695 5.183-10.905l2.586-5.346a.858.858 0 0 1 1.533-.017l7.976 15.93zM9.938 10.82l1.976-4.282l2.002 4.282c-.48-.152-1.953-.37-3.977 0" clip-rule="evenodd"/></svg>