<svg xmlns="http://www.w3.org/2000/svg" viewBox="0 0 24 24"><g fill="#4393ea"><path fill-rule="evenodd" d="m6.925 6.648l-2.53 3.445l-.097.127c-.52.71-1.032 1.396-1.216 2.296a4.2 4.2 0 0 0-.078.983c.068 1.994 1.566 3.853 3.94 3.853c2.76 0 4.302-2.515 3.825-4.836c-.185-.9-.691-1.586-1.217-2.296l-.097-.127zm2.647 4.082c-.827-1.28-2.516-3.405-2.516-3.405q-.64 1.389-1.41 2.71c-.41.69-.876 1.216-1.28 1.678c-.861.983-1.489 1.698-.93 3.138c.77 1.975 2.818 2.7 4.448 1.873c1.994-1.012 2.919-4.096 1.688-5.994" clip-rule="evenodd"/><path d="M12.243 11.514v.487h.486v3.405h.487v-1.702h1.946v1.702h.486v-3.892h-.486v1.703h-1.946v-1.703z"/><path fill-rule="evenodd" d="M19.54 15.406c.808 0 1.46-.875 1.46-1.946s-.652-1.946-1.46-1.946s-1.459.876-1.459 1.946s.652 1.946 1.46 1.946m0-.486c.536 0 .974-.652.974-1.46S20.076 12 19.54 12s-.973.653-.973 1.46c0 .808.437 1.46.973 1.46" clip-rule="evenodd"/><path d="M16.398 15.406v-.126l.467-.52l.136-.161a.5.5 0 0 0 .078-.127a.3.3 0 0 0 .03-.126a.23.23 0 0 0-.04-.132a.23.23 0 0 0-.097-.087a.3.3 0 0 0-.136-.03a.4.4 0 0 0-.146.035a.23.23 0 0 0-.093.097a.3.3 0 0 0-.029.146h-.165a.416.416 0 0 1 .438-.428q.123.002.219.053a.36.36 0 0 1 .15.146a.35.35 0 0 1 .059.2q0 .08-.03.155a.7.7 0 0 1-.097.17q-.07.092-.194.225l-.317.34v.015h.662v.155z"/><path d="m9.567 14.988l.068-.652a2.81 2.81 0 0 1-2.486 1.523c-2.073.02-3.06-2.16-2.01-3.785a9.9 9.9 0 0 1 2.336-2.336l-.94-1.347q-.42.837-.894 1.644c-.409.69-.871 1.216-1.28 1.679c-.272.311-.52.593-.715.88a4.5 4.5 0 0 0-.219 2.243l.005.015c.769 1.975 2.822 2.7 4.452 1.873a4 4 0 0 0 1.678-1.737z" opacity=".4"/></g></svg>