<svg xmlns="http://www.w3.org/2000/svg" viewBox="0 0 24 24"><path fill="#fff" d="m10.934 20.927l.664.073h.835l.107-.025l.167-.014q.335-.022.667-.076c2.195-.343 3.996-1.366 5.47-3.027c.05-.066.058-.106 0-.18l-1.883-2.503l-.073-.082l-.083.13a5.85 5.85 0 0 1-2.235 1.956c-.082.049-.13.049-.213-.033l-.9-.883l-.55-.532l-5.412 4.042l.028.023q.016.018.03.017a8.9 8.9 0 0 0 3.381 1.114m1.917-17.878L12.39 3h-.777l-.04.01c-.024.007-.05.015-.083.015q-.177.02-.358.035c-.236.022-.473.044-.706.087a8.93 8.93 0 0 0-4.734 2.455c-.159.153-.309.316-.464.485l-.133.145l2.022 2.683l.082-.122a5.85 5.85 0 0 1 2.269-1.98c.073-.04.123-.033.188.024q.427.434.867.857l.288.28l.212.197l5.503-3.936c-.025-.024-.041-.04-.057-.04a8.9 8.9 0 0 0-3.62-1.146m-4.562 9.835l-4.094-5.36c-1.09 1.98-1.458 4.059-1.007 6.26a8.94 8.94 0 0 0 3.046 5.121l2.67-2.004l-.025-.04l-.082-.058a5.83 5.83 0 0 1-1.981-2.267c-.042-.073-.033-.114.024-.171l.614-.63zm8.263-2.561l-.754.777v.008l4.029 5.318A8.986 8.986 0 0 0 17.78 5.095l-2.686 2.012l.107.082a5.84 5.84 0 0 1 2.006 2.291c.04.073.04.131-.025.188z"/></svg>