<svg xmlns="http://www.w3.org/2000/svg" viewBox="0 0 24 24"><g fill="none"><path fill="#fff" d="M13.834 9.065v6.124a.36.36 0 0 1-.19.335c-.523.31-1.332.644-1.89.988V10.31c0-.164-.026-.258-.18-.335c0 0-.728-.515-1.184-.773c-.051-.035-.12-.052-.197-.086v5.557c0 .18-.035.275-.18.36c-.456.25-1.219.516-1.665.774l-.236.12v-5.6c0-.214-.057-.317-.229-.412c-.498-.275-.845-.576-1.36-.876c.575-.335 1.125-.662 1.692-.97c.052-.027.155.008.223.05l1.634.834c.112.069.198.086.318 0c.447-.266.728-.515 1.175-.79c.163-.103.275-.086.43 0zm-.009.009l.12-.12c.482-.276 1.053-.559 1.543-.825a.37.37 0 0 1 .3 0c.498.266 1.065.55 1.546.842c.069.034.142.145.142.214v5.583c0 .052-.013.146-.056.172c-.559.335-1.423.653-2.025.996v-5.651c0-.146-.03-.24-.168-.318c-.524-.292-.869-.601-1.393-.902z"/><path fill="#e3953b" d="M11.268 4.893a.744.744 0 1 0 0-1.487a.744.744 0 0 0 0 1.487"/><path fill="#e5c148" d="M15.54 5.37a.6.6 0 1 0 0-1.2a.6.6 0 0 0 0 1.2m3.073 2.468a.458.458 0 1 0 0-.917a.458.458 0 0 0 0 .917"/><path fill="#27608c" d="M19.94 12.283a1.06 1.06 0 1 0 0-2.12a1.06 1.06 0 0 0 0 2.12"/><path fill="#dc6e32" d="M4.933 10.262a1.107 1.107 0 1 0 0-2.214a1.107 1.107 0 0 0 0 2.214"/><path fill="#3f8eb9" d="M19.404 16.245a.95.95 0 1 0 0-1.902a.95.95 0 0 0 0 1.902"/><path fill="#dc6e32" d="M7.418 6.674a.951.951 0 1 0 0-1.902a.951.951 0 0 0 0 1.902"/><path fill="#3f8eb9" d="M16.946 19.193a.712.712 0 1 0 0-1.424a.712.712 0 0 0 0 1.424m-3.657 1.401a.666.666 0 1 0 0-1.332a.666.666 0 0 0 0 1.332m-3.904-.724a.52.52 0 1 0 0-1.04a.52.52 0 0 0 0 1.04"/><path fill="#cc3d27" d="M5.864 18.087a1.144 1.144 0 1 0 0-2.288a1.144 1.144 0 0 0 0 2.288"/><path fill="#cb362a" d="M4.226 14.42a1.226 1.226 0 1 0 0-2.452a1.226 1.226 0 0 0 0 2.453"/></g></svg>