<svg xmlns="http://www.w3.org/2000/svg" viewBox="0 0 24 24"><path fill="#52dd4e" d="M5.886 12.14c-.476-.715-1.735-2.045-2.304-2.613c5.155-1.237 7.86 2.6 8.569 4.673c.07-.772.639-3.204 2.334-6.798c1.701-3.594 4.668-4.43 5.934-4.401c-.07 1.219-.477 4.093-1.527 5.817c-1.057 1.719-3.728 1.893-4.854 1.771a35 35 0 0 0-1.167 3.855c-.389 1.603.36 4.529.389 5.382c.029.865-.511 1.138-1.289 1.173c-.778.029-1.167-.523-1.167-1.173c0-.639.627-3.936.476-5.632c-.116-1.347-.87-2.096-1.225-2.304c-.348.476-1.242 1.399-2.009 1.323c-.958-.093-1.556-.185-2.16-1.074"/></svg>