<svg xmlns="http://www.w3.org/2000/svg" viewBox="0 0 24 24"><g fill="none"><path fill="#fff" d="m11.972 3l7.779 4.464v8.928l-7.78 4.464l-7.722-4.464V7.464z"/><path fill="#065198" d="M11.968 11.876L7.866 9.52v4.509l4.102 2.64z"/><path fill="#21b1f8" d="m12 12.078l4.133-2.367v4.532L12 16.811z"/><path fill="#e82e9d" d="m12 6.971l4.138 2.566l-4.139 2.299l-4.097-2.298z"/><path fill="#0c0e15" d="M3.945 7.163a.274.274 0 0 0 .1.375l7.684 4.474v8.714a.274.274 0 1 0 .548 0v-8.714l7.674-4.456a.274.274 0 1 0-.275-.473l-7.673 4.454L4.32 7.065a.274.274 0 0 0-.375.098M12 5.274a.44.44 0 1 0 0-.882a.44.44 0 0 0 0 .882m0 1.207a.44.44 0 1 0 0-.881a.44.44 0 0 0 0 .881m-5.034 8.51a.44.44 0 1 0 0-.881a.44.44 0 0 0 0 .881m-1.208.756a.44.44 0 1 0 0-.881a.44.44 0 0 0 0 .881m11.358-.756a.44.44 0 1 1 0-.881a.44.44 0 0 1 0 .881m1.209.756a.44.44 0 1 1 0-.882a.44.44 0 0 1 0 .882"/></g></svg>