<svg xmlns="http://www.w3.org/2000/svg" viewBox="0 0 24 24"><g fill="none"><path fill="url(#SVG91oNhb0B)" d="M11.5 18.5h1v1.945c0 .305-.225.555-.5.555s-.5-.25-.5-.555z"/><path fill="url(#SVGCAZ0XV4K)" d="M9.5 17.5h1v1.945c0 .305-.225.555-.5.555c-.276 0-.5-.25-.5-.555z"/><path fill="url(#SVGNGwrBU1l)" d="M12.5 5.5h-1V3.555c0-.305.225-.555.5-.555s.5.25.5.555z"/><path fill="url(#SVGTUUb1Ozm)" d="M14.5 6h-.999V4.055c0-.305.225-.555.5-.555s.5.25.5.555z"/><path fill="url(#SVGQXUwAx3M)" d="M7 5v1.525C7 7.745 8.015 8.5 9.27 8.5h2.125c.455 0 .9.14 1.065.21a328 328 0 0 0-3.9 4.115c-.365.42-1.56 1.7-1.56 3.32A2.22 2.22 0 0 0 8.915 18.5h8.086v-1.525C17 15.755 15.984 15 14.73 15h-1.98a4.7 4.7 0 0 1-1.246-.21c1.015-1.06 3.275-3.53 3.725-3.975c.57-.55 1.775-1.59 1.775-3.53c0-1.55-1.18-2.17-1.775-2.285z"/><path fill="url(#SVGxmgPAeCO)" d="m12.53 8.95l-1.415 2.45c-.26.445-.615.93-.615 1.35c0 1 .695 1.565 1 1.75c.585-.825.805-1.155 1.375-1.995a3.28 3.28 0 0 0 .625-2.175c0-1.495-1.385-2.286-2-2.33H9.055A2.25 2.25 0 0 1 7 6.523C7 7.744 8.015 8.5 9.27 8.5h2.23c.385 0 .75.25 1.03.45"/><defs><linearGradient id="SVG91oNhb0B" x1="6.994" x2="13.804" y1="4.511" y2="23.644" gradientUnits="userSpaceOnUse"><stop offset=".02" stop-color="#d4964b"/><stop offset=".54" stop-color="#ffed87"/></linearGradient><linearGradient id="SVGCAZ0XV4K" x1="6.994" x2="14.063" y1="2.999" y2="17.889" gradientUnits="userSpaceOnUse"><stop offset=".31" stop-color="#d4964b"/><stop offset=".79" stop-color="#ffed87"/></linearGradient><linearGradient id="SVGNGwrBU1l" x1="6.994" x2="13.804" y1="4.512" y2="23.645" gradientUnits="userSpaceOnUse"><stop offset=".52" stop-color="#ffed87"/><stop offset=".86" stop-color="#d4964b"/></linearGradient><linearGradient id="SVGTUUb1Ozm" x1="6.995" x2="14.064" y1="3" y2="17.889" gradientUnits="userSpaceOnUse"><stop offset=".52" stop-color="#ffed87"/><stop offset=".86" stop-color="#d4964b"/></linearGradient><linearGradient id="SVGQXUwAx3M" x1="16.435" x2="4.156" y1="4.013" y2="16.862" gradientUnits="userSpaceOnUse"><stop offset=".05" stop-color="#f8fcda"/><stop offset=".26" stop-color="#fce34b"/><stop offset=".76" stop-color="#ffab39"/></linearGradient><linearGradient id="SVGxmgPAeCO" x1="13.384" x2="10.029" y1="9.015" y2="14.625" gradientUnits="userSpaceOnUse"><stop offset=".06" stop-color="#f96428"/><stop offset=".8" stop-color="#f3f14f"/></linearGradient></defs></g></svg>