<svg xmlns="http://www.w3.org/2000/svg" viewBox="0 0 24 24"><g fill="none"><path fill="#2c305f" d="M5.97 16.093L12 20.706l6.03-4.613a.92.92 0 0 0 .365-.735V4.63c-.473-.696-3.031-1.397-6.394-1.397c-3.6 0-5.922.701-6.395 1.397v10.734c0 .284.132.559.364.734z"/><path fill="#fff" d="m9.157 18.74l-1.895-1.463v-2.842l1.881-1.42h.014v5.73zm3.79 1.47l-.948.729l-.947-.734v-8.626l1.895-1.43zm3.79-2.933l-1.896 1.469V8.713l1.895-1.43z"/><path fill="#cb3522" d="m12.947 10.148l1.895-1.43V18.74l-1.895 1.468V10.144zm-3.79 2.861l1.896-1.43v8.626L9.158 18.74zM5.843 15.51l1.421-1.075v2.842l-1.421-1.099zm10.895 1.767v-9.99l1.42-1.07v9.961z"/><path fill="#2c305f" d="M5.842 15.363c0 .213.1.417.275.55L12 20.408l5.883-4.5a.68.68 0 0 0 .275-.55V4.705c-.095-.109-.284-.241-.588-.379a7.3 7.3 0 0 0-1.345-.435c-1.099-.256-2.558-.427-4.225-.427c-1.786 0-3.245.17-4.31.427a6.7 6.7 0 0 0-1.289.43c-.284.138-.46.27-.559.38zM7.576 3.445C8.684 3.175 10.186 3 12 3c1.696 0 3.197.175 4.334.445c.569.133 1.056.284 1.435.46c.37.17.664.364.825.597l.037.056v10.8c0 .36-.17.697-.459.92L12 21l-6.172-4.723a1.16 1.16 0 0 1-.46-.919v-10.8l.038-.056c.157-.228.436-.427.787-.593c.36-.175.824-.331 1.383-.464"/><path fill="#f0f3fa" d="m11.858 3.682l.157.483h.52l-.42.299l.16.483l-.417-.299l-.417.299l.157-.483l-.417-.299h.516zm5.386.715l.161.484h.517l-.417.298l.16.483l-.42-.298l-.418.298l.161-.483l-.416-.298h.516zm-3.382 3.165l.156.483h.521l-.421.298l.16.483l-.416-.303l-.421.303l.16-.483l-.416-.298h.516zm-3.77 2.643l.16.483h.517l-.417.298l.156.483l-.416-.298l-.417.298l.16-.483l-.42-.298h.52zm-3.79 2.8l.161.482h.516l-.416.299l.156.483l-.417-.299l-.417.299l.161-.483l-.421-.299h.52zm0-4.662l.161.483h.516l-.416.299l.156.483l-.417-.299l-.417.299l.161-.483l-.421-.299h.52zm-.019-3.728l.156.483h.521l-.421.299l.16.483l-.416-.298l-.422.298l.162-.483l-.417-.299h.516zm.98.948v6.29l.474-.364v-1.033a.42.42 0 0 0-.113-.275c-.095-.114-.119-.294-.024-.407c.294-.365.503-.79.611-1.246c.123-.526.161-1.09 0-1.563c-.118-.36.237-.237.237-.237c.08-.08.237-.237.473-.237l.474-.227c.08.075.161.255-.042.658c-.19.37.066.63.279.74c.166.08.507-.394.649-.607l.014-.024c.029-.038.048-.076.09-.109a.48.48 0 0 1 .337-.147c-.143.791-.522 2.051-1.09 2.051h.237c0 .232-.142 1.023-.71 1.398v.18l2.368-1.815V6.496c-.474.076-1.469.095-1.658-.47c-.317.081-1.184.238-1.421-.695zm8.527-.232l-3.316 2.557v-1.62c.569.37 1.184 0 1.184-.236c.758.19 1.265-.389 1.421-.697h.71z"/></g></svg>