<svg xmlns="http://www.w3.org/2000/svg" viewBox="0 0 24 24"><g fill="none"><path fill="url(#SVGHkFPkcaw)" fill-rule="evenodd" d="M21 12a9 9 0 1 1-18 0a9 9 0 0 1 18 0m-1.059 0a7.941 7.941 0 1 1-15.883 0a7.941 7.941 0 0 1 15.883 0" clip-rule="evenodd"/><path fill="url(#SVG3sqiNbEl)" d="M16.235 13.98c0 .657-.62 1.197-1.324 1.197s-1.323-.54-1.323-1.197V9.883c0-.794-.46-1.588-1.525-1.588h-.127c-1.064 0-1.525.794-1.525 1.588v4.097c0 .657-.62 1.197-1.323 1.197c-.704 0-1.324-.54-1.324-1.197V9.353c0-2.112 1.906-3.706 4.15-3.706h.128c2.223 0 4.193 1.605 4.193 3.706z"/><path fill="url(#SVGCSMT3bTi)" d="M9.088 8.295a1.324 1.324 0 1 0 0-2.648a1.324 1.324 0 0 0 0 2.648"/><path fill="#2a1f63" d="M7.764 16.234h8.47v1.06h-8.47z"/><defs><linearGradient id="SVGHkFPkcaw" x1="18.618" x2="5.382" y1="5.382" y2="18.618" gradientUnits="userSpaceOnUse"><stop stop-color="#ac89dd"/><stop offset="1" stop-color="#9864e6"/></linearGradient><linearGradient id="SVG3sqiNbEl" x1="2.999" x2="20.364" y1="8" y2="19.719" gradientUnits="userSpaceOnUse"><stop offset=".14" stop-color="#7b72dc"/><stop offset=".35" stop-color="#7a73e6"/><stop offset="1" stop-color="#bc9ceb"/></linearGradient><linearGradient id="SVGCSMT3bTi" x1="6.599" x2="17.399" y1="4.8" y2="17.4" gradientUnits="userSpaceOnUse"><stop stop-color="#dfe8f7"/><stop offset="1" stop-color="#bbbbf1"/></linearGradient></defs></g></svg>