<svg xmlns="http://www.w3.org/2000/svg" viewBox="0 0 24 24"><g fill="none"><path fill="url(#SVGq9DjubVY)" d="M11.998 20.999A9.004 9.004 0 0 0 20.65 9.515q.068.388.068.793c0 3.601-3.562 4.501-5.345 4.501H8.622l-.563 2.814H4.964a9 9 0 0 0 7.034 3.376"/><path fill="url(#SVGxT9vPcqc)" d="M4.74 17.324A9.003 9.003 0 1 1 20.27 8.44c-.518-.872-1.56-1.508-3.49-1.508H8.623L5.81 9.745h9.565V8.62l3.376 2.25l-3.376 2.251v-1.125H5.81z"/><defs><linearGradient id="SVGq9DjubVY" x1="5.842" x2="21.373" y1="17.471" y2="13.118" gradientUnits="userSpaceOnUse"><stop stop-color="#4d4d4d"/><stop offset="1" stop-color="#1a1a1a"/></linearGradient><linearGradient id="SVGxT9vPcqc" x1="4.402" x2="19.594" y1="6.651" y2="6.932" gradientUnits="userSpaceOnUse"><stop stop-color="#008cc4"/><stop offset="1" stop-color="#00a8f8"/></linearGradient></defs></g></svg>