<svg xmlns="http://www.w3.org/2000/svg" viewBox="0 0 24 24"><g fill="none"><path fill="url(#SVGNSD6Zc5r)" fill-rule="evenodd" d="m14.046 10.437l-.488-.483c.948-.98 1.739-1.9 1.758-3.363C15.339 4.696 13.933 3 12 3S8.66 4.691 8.684 6.59c.02 1.464.805 2.383 1.753 3.364l-.488.483c-.98-.948-1.918-1.753-3.396-1.753C4.667 8.684 3 10.082 3 12s1.667 3.316 3.553 3.316c1.482 0 2.415-.806 3.4-1.758l.493.484c-.975 1.008-1.752 1.885-1.762 3.382C8.67 19.318 10.072 21 12 21c1.942 0 3.311-1.715 3.268-3.624c-.028-1.444-.772-2.359-1.705-3.325l.488-.488c1.018.985 1.909 1.762 3.43 1.753C19.35 15.302 21 13.909 21 12c0-1.895-1.625-3.287-3.486-3.316c-1.511-.023-2.463.787-3.468 1.753m-2.041-6.963c-1.706 0-2.87 1.45-2.847 3.117c.019 1.335.72 2.164 1.582 3.055l.327-.322c-.772-.8-1.407-1.535-1.435-2.733c-.034-1.44.9-2.644 2.368-2.644s2.402 1.208 2.368 2.644c-.028 1.198-.663 1.932-1.435 2.733l.322.327c.862-.891 1.568-1.72 1.587-3.06c.024-1.663-1.137-3.117-2.842-3.117zm.625 5.547l-.332-.332c.588-.597 1.123-1.189 1.123-2.094S13 4.895 12 4.895c-.995 0-1.421.786-1.421 1.696s.53 1.496 1.118 2.103l-.332.327c-.682-.711-1.231-1.365-1.26-2.43c-.033-1.204.663-2.17 1.895-2.17c1.246 0 1.942.99 1.895 2.203c-.048 1.051-.588 1.695-1.265 2.397m-.298.307L12 8.997l-.332.331l.332.346zm.625.63l-.322-.326l-.332.345l.322.322zm-.029.645l.332-.341l.478.473l-.34.332zm.772.772l.342-.332l.326.322l-.345.332zm.65-.63l.326.322c.825-.796 1.587-1.45 2.838-1.435c1.402.019 2.539.947 2.539 2.368c0 1.44-1.166 2.368-2.572 2.368c-1.303 0-1.924-.582-2.8-1.43l-.327.322c.948.914 1.715 1.592 3.127 1.582c1.634-.014 3.045-1.165 3.045-2.842c0-1.658-1.383-2.814-3.012-2.842c-1.388-.024-2.246.696-3.164 1.587m-.01 1.24l.332-.317l.331.332h-.005l.005.01l-.331.326l-.341-.331l.014-.02zm-.625.02l-.01-.005l.005-.005l-.322-.322l-.341.327l.331.322l.332-.317zm-.635.615l-.336-.322l-.446.446l.322.331l.46-.45zm-.161.763l.474-.46l.35.342l-.478.473zm-.606-.01l-.313-.32l-.327.336l.308.313zm-.029.63l.327-.321l.35.364l-.326.322zm1.412-1.383l.327-.317l.35.332l-.327.331zm1.279-1.25l.331.332c.63-.607 1.28-1.114 2.18-1.123c.909-.01 1.62.455 1.62 1.421c0 .976-.697 1.435-1.65 1.421c-.942-.014-1.515-.512-2.14-1.113h-.005l-.332.327c.81.772 1.327 1.26 2.506 1.26c1.175 0 2.099-.687 2.099-1.895c0-1.198-.915-1.89-2.09-1.895c-1.108-.004-1.78.56-2.51 1.265zM11.37 9.632l-.327.322l.346.36l.327-.322zm-1.715 3.623c-.904.872-1.743 1.587-3.102 1.587c-1.677 0-3.08-1.146-3.08-2.842s1.403-2.842 3.08-2.842c1.354 0 2.193.71 3.093 1.582l-.322.322c-.81-.777-1.554-1.42-2.771-1.43c-1.421-.015-2.606.918-2.606 2.368s1.185 2.383 2.606 2.368c1.217-.014 1.965-.653 2.775-1.44l.323.327zm.616 0l.474.479l.331-.341l-.464-.465l-.34.332zm.483 1.09c-.9.933-1.61 1.69-1.591 3.079c.019 1.582 1.051 3.107 2.842 3.107c1.705 0 2.856-1.421 2.842-3.112c-.014-1.34-.72-2.174-1.582-3.065l-.327.322c.786.82 1.43 1.578 1.43 2.819c0 1.463-.914 2.562-2.368 2.562c-1.473 0-2.397-1.136-2.368-2.629c.023-1.279.606-1.885 1.44-2.756l-.322-.322zm.62.014l-.321-.322l.326-.341l.323.327zm.01.616c-.781.805-1.246 1.279-1.274 2.449c-.028 1.293.649 2.155 1.895 2.155c1.227 0 1.894-.824 1.894-2.094c0-1.103-.558-1.776-1.264-2.505l-.294.331c.606.625 1.07 1.232 1.085 2.179s-.45 1.615-1.421 1.615c-.967 0-1.43-.668-1.421-1.615c.01-.872.383-1.421 1.127-2.188l-.332-.332zm.63.019l-.331-.332l.322-.331l.331.34zm-2.05-2.037l-.323-.322l.341-.332l.327.322zm-.626-.625l.34-.332l-.345-.332l-.312.327l.317.332zm-.64-.034c-.634.611-1.326 1.123-2.197 1.123c-.872 0-1.606-.46-1.606-1.421c0-.985.734-1.421 1.658-1.421s1.515.521 2.136 1.118l.332-.332c-.72-.691-1.384-1.245-2.468-1.26c-1.19-.014-2.132.678-2.132 1.895s.943 1.909 2.132 1.895c1.09-.014 1.752-.569 2.468-1.265l-.332-.332zm6.921-.293c.526-.517 1.198-.952 1.876-.952c.663 0 1.137.217 1.137.947s-.55.947-1.151.947c-.607 0-1.336-.43-1.867-.947zm-5.353-1.27l.474-.473l.346.35l-.474.464l-.35-.34zm-.634.626l.322-.323l.35.341l-.327.323zM8.386 12c-.526-.507-1.184-.995-1.862-.995c-.682 0-1.156.256-1.156.995c0 .73.564.995 1.137.995c.806-.01 1.35-.483 1.88-.995m2.994-1.08l-.46.455l.332.317l.44-.445zm-.768.758l-.327.327l.327.322l.336-.327l-.331-.322zm1.402-1.383l-.331.327l.317.326l.332-.34zm.299.947l.322-.332l.454.455l-.331.322zm-.948 1.847l-.45-.46l.35-.335l.441.44l-.336.35zm.65-1.539l-.45.436l.44.44l.445-.44zm.918 5.968c.005-.819-.417-1.373-.933-1.904c-.682.701-.947 1.199-.947 1.904c0 .701.222 1.114.947 1.114s.928-.413.933-1.114m-.928-12.15c-.768 0-.952.635-.952 1.223c0 .587.454 1.288.947 1.8c.493-.512.995-1.156.995-1.8S12.767 5.368 12 5.368z" clip-rule="evenodd"/><defs><linearGradient id="SVGNSD6Zc5r" x1="6.169" x2="17.424" y1="6.358" y2="17.353" gradientUnits="userSpaceOnUse"><stop offset=".08" stop-color="#ba9251"/><stop offset=".5" stop-color="#e6b66e"/><stop offset="1" stop-color="#bb9352"/></linearGradient></defs></g></svg>