<svg xmlns="http://www.w3.org/2000/svg" viewBox="0 0 24 24"><g fill="none"><path fill="#fff" d="M9.5 11.75v-.25H9V13h.5v-.75h.75V13h.5v-.75h1v-.5h-1v-.25h-.5v.25z"/><path fill="#eeb519" d="m13 15.72l.26 2.37l-1.085 1.085l-.35-.35l.915-.915l-.24-2.13zm-3.596-1.025l-1.25 1l-.31-.39l1.25-1zm8.516-1.706l1.42-1.18l.32.38l-1.58 1.32l-2.36-.26l.06-.5z"/><path fill="#fff" d="m5.405 10.74l2.87.26l-.05.5l-2.63-.24l-.92.915l-.35-.35zm3.67-.815l-1.25-1.25l.35-.35l1.25 1.25zm2.77-5.12l.31.39l-1.14.915l.236 2.11l-.5.06l-.266-2.39z"/><path fill="#fff" fill-rule="evenodd" d="M12.5 5a.5.5 0 1 0 0-1a.5.5 0 0 0 0 1m0 .5a1 1 0 1 0 0-2a1 1 0 0 0 0 2M13 13a1 1 0 1 0 0-2a1 1 0 0 0 0 2m0 .5a1.5 1.5 0 1 0 0-3a1.5 1.5 0 0 0 0 3" clip-rule="evenodd"/><path fill="#eeb519" fill-rule="evenodd" d="M13 12.2a.2.2 0 1 0 0-.4a.2.2 0 0 0 0 .4m0 .5a.7.7 0 1 0 0-1.399a.7.7 0 0 0 0 1.4m3.5-4.2a.5.5 0 1 0 0-1a.5.5 0 0 0 0 1m0 .5a1 1 0 1 0 0-2a1 1 0 0 0 0 2m3.5 3a.5.5 0 1 0 0-1.002A.5.5 0 0 0 20 12m0 .5a1 1 0 1 0 0-2a1 1 0 0 0 0 2" clip-rule="evenodd"/><path fill="#eeb519" d="M15.5 12a3.5 3.5 0 0 0-2.335-3.3l.17-.47a4 4 0 1 1-5.105 5.1l.47-.165A3.5 3.5 0 0 0 15.5 12"/><path fill="#fff" d="M12 8.5a3.5 3.5 0 0 0-3.47 3.965l-.496.07a4 4 0 0 1 4.5-4.5l-.07.5A3 3 0 0 0 12 8.5"/><path fill="#eeb519" fill-rule="evenodd" d="M16.5 16.5a.5.5 0 1 0 0-1a.5.5 0 0 0 0 1m0 .5a1 1 0 1 0 0-2a1 1 0 0 0 0 2m-9-.5a.5.5 0 1 0 0-1a.5.5 0 0 0 0 1m0 .5a1 1 0 1 0 0-2a1 1 0 0 0 0 2m4 3a.5.5 0 1 0 0-.999a.5.5 0 0 0 0 1m0 .5a1 1 0 1 0 0-1.999a1 1 0 0 0 0 2" clip-rule="evenodd"/><path fill="#fff" fill-rule="evenodd" d="M4 13a.5.5 0 1 0 0-1a.5.5 0 0 0 0 1m0 .5a1 1 0 1 0 0-2a1 1 0 0 0 0 2m3.5-5a.5.5 0 1 0 0-1a.5.5 0 0 0 0 1m0 .5a1 1 0 1 0 0-2a1 1 0 0 0 0 2" clip-rule="evenodd"/><path fill="#eeb519" d="M7.75 8a.25.25 0 1 1-.5 0a.25.25 0 0 1 .5 0"/><path fill="#fff" d="M16.75 16a.25.25 0 1 1-.5 0a.25.25 0 0 1 .5 0"/><path fill="#eeb519" d="m14.824 9.325l1-1l.35.35l-1 1zm.08 4.98l1.25 1l-.31.39l-1.25-1z"/></g></svg>