<svg xmlns="http://www.w3.org/2000/svg" viewBox="0 0 24 24"><g fill="none"><path fill="#fff" d="M14.726 3.953A10 10 0 0 0 12 3.36a10 10 0 0 0-2.726.582l1.138 2.477L12 7.351l1.588-.932l1.138-2.472zM11.899 3l.1.005l.106-.005v.016c1.711.137 3.36.7 4.796 1.64l-.264.255a9.4 9.4 0 0 0-1.578-.831l-1.196 2.588l-1.821 1.075l-.021.037L12 7.77l-.021.01l-.022-.037l-1.82-1.075L8.94 4.08a9.7 9.7 0 0 0-1.535.8l-.265-.25a9.9 9.9 0 0 1 4.76-1.614zM4.59 7.404v8.427c.005.249.053.65.19 1.058c.133.403.35.842.71 1.133l.741.582l3.6 2.356a.24.24 0 0 0 .37-.201v-1.504c.355.223.932.466 1.689.509h.222a3.5 3.5 0 0 0 1.688-.509v1.504c0 .19.212.301.37.2l3.6-2.36l.741-.577c.338-.303.584-.696.71-1.133c.132-.407.185-.81.19-1.058V7.499l-.36.466v7.86c0 .212-.053.583-.17.953c-.121.37-.317.736-.597.969l-.726.566l-3.44 2.223v-5.785c.688 0 1.636-.18 2.329-.836c.767-.73 1.238-1.996.937-4.097l-.016-.111l-.106-.038a8 8 0 0 0-1.906-.29c-.81-.022-1.73.068-2.572.417l-.106.043v3.885l-.677.381l-.673-.381V9.839l-.105-.043a6.3 6.3 0 0 0-2.573-.418a7.8 7.8 0 0 0-1.906.291l-.11.038l-.017.105c-.301 2.107.17 3.372.937 4.103c.645.56 1.476.858 2.33.836v5.79L6.441 18.32l-.725-.567a2.07 2.07 0 0 1-.599-.974a3.5 3.5 0 0 1-.169-.953V7.87zm9.21 11.412a3 3 0 0 1-1.8.593a2.98 2.98 0 0 1-1.799-.593V14.38l-.185.006a3.02 3.02 0 0 1-2.213-.741c-.646-.604-1.111-1.71-.847-3.674a8 8 0 0 1 1.705-.243c.74-.021 1.535.058 2.281.344v3.853l1.059.603l1.058-.603v-3.853a5.9 5.9 0 0 1 2.282-.344a8 8 0 0 1 1.704.243c.265 1.964-.201 3.07-.847 3.679a3.02 3.02 0 0 1-2.212.74l-.186-.01zm-6.172-7.41l-.047-.096a2.24 2.24 0 0 1 1.556-.773c.72 0 1.233.408 1.398.614l-.08.122a2.3 2.3 0 0 0-1.323-.497c-.572 0-1.239.423-1.504.635zm.027.55L7.6 11.85c.233-.254.89-.915 1.662-.915c.773 0 1.392.624 1.567.825l-.085.122a3.2 3.2 0 0 0-.974-.482v.08c-.016.026-.026.02-.042.01c-.027-.015-.064-.037-.159-.037c-.159 0-.122.228.032.228c.069 0 .121-.043.158-.074c.038-.043.059-.058.059.053c0 .206-.19.571-.62.571c-.423 0-.566-.296-.566-.55a.8.8 0 0 1 .042-.254a3.7 3.7 0 0 0-1.021.53m5.664-.646l.047.1c.265-.21.926-.634 1.503-.634s1.117.328 1.324.497l.074-.121a1.9 1.9 0 0 0-1.397-.614c-.726 0-1.334.513-1.551.772m.02.546l.054.1c.31-.227.652-.405 1.016-.53a.8.8 0 0 0-.037.255c0 .254.137.55.566.55c.424 0 .62-.365.62-.571c0-.111-.021-.096-.064-.053c-.037.031-.09.074-.159.074c-.153 0-.19-.228-.026-.228c.09 0 .132.022.153.037c.022.01.027.016.043-.01a.1.1 0 0 0 0-.08c.439.122.825.365.979.482l.085-.122c-.18-.2-.794-.825-1.567-.825s-1.43.661-1.662.92m-1.608 3.483c-.027-.106-.302-.345-.434-.45c-.043.068-.112.243-.053.397c.069.195.513.19.487.053m1.323-.45c-.138.105-.413.338-.434.45c-.027.137.418.142.487-.053a.5.5 0 0 0-.053-.397m-.953 2.027a.52.52 0 0 0-.317-.111c-.117 0-.202.026-.276.047a.45.45 0 0 1-.259.016a3 3 0 0 0-.35-.063c.022.058.128.211.371.211h1.673c.238 0 .35-.153.37-.211a3 3 0 0 0-.354.063c-.1.027-.175.006-.26-.016c-.074-.02-.159-.047-.275-.047a.6.6 0 0 0-.318.105zm-.582.391c.053.048.238.138.519.138c.285 0 .555-.09.656-.138c-.026.107-.185.318-.625.318c-.439 0-.55-.212-.55-.318"/><path fill="url(#SVGPP6HycOU)" d="M4.923 3.969c1.19.275 3.589 1.312 3.642 3.26c-.106.25-.424.82-.88 1.112c-.804.228-2.55.238-3.08-1.556c.043 0 .143.016.19.084c.054.085.424.424.848.588c.053.026.121 0 .153-.058a.143.143 0 0 0-.08-.196a1.694 1.694 0 0 1-1.11-1.731l.592.212c.371.425.82.775 1.323 1.032a.16.16 0 0 0 .236-.12a.17.17 0 0 0-.098-.176c-.768-.371-1.97-1.27-1.736-2.451m14.16 0c-1.192.275-3.584 1.312-3.637 3.26c.1.25.423.82.878 1.112c.805.228 2.552.238 3.081-1.556c-.042 0-.143.016-.19.084c-.053.085-.424.424-.847.588a.12.12 0 0 1-.16-.058a.15.15 0 0 1 .086-.196a1.69 1.69 0 0 0 1.111-1.731l-.598.212c-.371.425-.82.775-1.323 1.032a.16.16 0 0 1-.236-.12a.17.17 0 0 1 .098-.176c.767-.371 1.974-1.27 1.736-2.451"/><defs><linearGradient id="SVGPP6HycOU" x1="12.005" x2="12.005" y1="3.969" y2="8.447" gradientUnits="userSpaceOnUse"><stop stop-color="#dfb579"/><stop offset=".24" stop-color="#e2a761"/><stop offset=".91" stop-color="#976c3f"/></linearGradient></defs></g></svg>