<svg xmlns="http://www.w3.org/2000/svg" viewBox="0 0 24 24"><path fill="#2b5eba" d="M12.156 3.15c1.088-.252 2.254.704 2.16 1.83c.047 1.018-.963 1.91-1.972 1.777a1.8 1.8 0 0 1-1.252-.673a1.83 1.83 0 0 1-.259-1.863c.219-.547.751-.954 1.33-1.072zm-7.1 1.878A2.78 2.78 0 0 1 8.415 6.96c.243.626.533 1.268.987 1.777c.36.391.923.438 1.417.47c.328.023.641-.071.939-.189c.689-.211 1.463.415 1.385 1.128c0 .595-.564 1.095-1.15 1.048c-.392 0-.752-.258-.94-.594c-.352-.525-.806-1.096-1.48-1.175a2.8 2.8 0 0 0-1.792.29c-.352.164-.665.415-1.04.548a2.77 2.77 0 0 1-2.678-.391a2.75 2.75 0 0 1-1.025-1.738a2.74 2.74 0 0 1 .376-1.894a2.85 2.85 0 0 1 1.644-1.213m11.57 3.287a3.717 3.717 0 0 1 4.327 2.99c.102.728.048 1.488-.266 2.16a3.72 3.72 0 0 1-5.478 1.581A3.716 3.716 0 0 1 16.625 8.3zm-4.885 4.29c.25-.04.516-.048.751.078a1.14 1.14 0 0 1 .626 1.095c-.054.611-.657 1.096-1.267.994c-.603-.133-1.276-.281-1.863-.008a3.1 3.1 0 0 0-1.472 2.09a2.755 2.755 0 0 1-4.437 1.604a2.76 2.76 0 0 1-.839-1.15a2.77 2.77 0 0 1 1.26-3.42A2.76 2.76 0 0 1 7 13.825c.68.344 1.4.633 2.16.704c.548.04.979-.352 1.378-.673c.36-.282.43-.791.798-1.064a1 1 0 0 1 .407-.189m.603 4.64c1.017-.124 2.02.76 1.972 1.786a1.8 1.8 0 0 1-1.463 1.824c-.728.156-1.543-.204-1.91-.854a1.84 1.84 0 0 1 .49-2.41a1.8 1.8 0 0 1 .911-.345"/></svg>