<svg xmlns="http://www.w3.org/2000/svg" viewBox="0 0 24 24"><g fill="#006ae3"><path d="M11.325 6.6h1.35v11.25h-1.35z"/><path d="M7.633 7.329c0 1.938.827 2.86 2.792 4.224v-1.42c-1.092-.865-1.591-1.549-1.591-2.819c0-1.733 1.417-3.138 3.166-3.138s3.166 1.405 3.166 3.138c0 .568-.155 1.125-.449 1.611l-.468-1.972l-1.208.281l.957 3.934l3.924-1.042l-.321-1.188l-1.75.465a4.3 4.3 0 0 0 .517-2.074C16.368 4.939 14.413 3 12 3S7.633 4.938 7.633 7.329m8.734 9.342c0-1.938-.832-2.875-2.797-4.238v1.42c1.092.865 1.597 1.563 1.597 2.833c0 1.733-1.418 3.138-3.166 3.138c-1.75 0-3.167-1.405-3.167-3.138c0-.59.164-1.14.449-1.611l.468 1.972l1.207-.282l-.955-3.933l-3.924 1.042l.32 1.188l1.751-.465a4.3 4.3 0 0 0-.518 2.074C7.632 19.061 9.588 21 12 21s4.367-1.938 4.367-4.329"/></g></svg>