<svg xmlns="http://www.w3.org/2000/svg" viewBox="0 0 24 24"><g fill="none"><path fill="url(#SVG3EREfo3T)" d="M20.449 5.296a.9.9 0 0 0-.99.287l-4.367 5.289c-.793-.973-1.593-1.846-2.392-2.819a.9.9 0 0 0-.635-.326c-.479-.034-.771.326-.8.349c-.787.973-1.614 1.823-2.408 2.796l-4.31-5.267c-.365-.337-.85-.427-1.181-.236A.87.87 0 0 0 3 5.808v12.413c.022.044.169.365.546.49c.416.134.754-.102.788-.125l4.512-5.463c.867 1.052 1.733 1.992 2.6 3.044c.062.04.264.169.54.157a.96.96 0 0 0 .49-.168l2.616-3.033l4.096 4.929c.298.596.934.827 1.35.63c.372-.18.45-.658.462-.715V6.033a.81.81 0 0 0-.551-.737M4.682 15.936V8.059l3.376 3.978zm7.445-1.34a.23.23 0 0 1-.141.069c-.101.01-.169-.062-.186-.068c-.703-.855-1.35-1.716-2.054-2.572l1.981-2.56a1 1 0 0 1 .281-.045c.096.006.17.028.226.045l2.014 2.521zm7.185 1.34l-3.376-3.91l3.376-3.967z"/><defs><linearGradient id="SVG3EREfo3T" x1="12" x2="12" y1="5.248" y2="18.752" gradientUnits="userSpaceOnUse"><stop stop-color="#39a3db"/><stop offset="1" stop-color="#1b3586"/></linearGradient></defs></g></svg>