<svg xmlns="http://www.w3.org/2000/svg" viewBox="0 0 24 24"><path d="M8.967 3.515q-.71.252-1.399.56c-.03.026.36.54.874 1.132c.515.596 1.517 1.779 2.237 2.632q.648.823 1.394 1.559c.118 0 2.993-1.749 2.993-1.826c0-.134-1.738-2.242-2.587-3.137C11.435 3.34 10.962 2.985 10.571 3c-.143.006-.863.237-1.604.515m7.2 1.362c-.021.042-.134.396-.253.792a13 13 0 0 1-.483 1.332c-.154.334-.237.638-.19.669l1.589 1.008l1.501.956l.062.91a98 98 0 0 1 .113 1.862l.052.956l-1.286 1.034c-.807.648-1.347 1.018-1.44.987c-.087-.025-.833-.354-1.66-.73a27 27 0 0 0-1.698-.735c-.164-.036-.39.375-1.764 3.167a48 48 0 0 0-1.578 3.384c0 .247.36.376 1.321.483c1.28.144 1.8-.02 2.402-.755c.313-.386 2.293-3.379 2.864-4.335c.257-.427.206-.479.869.843c.633 1.275.787 1.486 1.08 1.486c.278 0 .607-.324 1.285-1.244c.396-.53.443-.648.443-1.096c0-.72-.155-1.46-.422-2.005c-.123-.262-.36-.468-.344-.484c.015-.015.41-.072.72-.102c.884-.103.925-.175.853-1.425c-.113-1.954-.144-2.005-1.172-2.119a2.1 2.1 0 0 1-.617-.123c-.021-.03.025-.293.102-.581a3.55 3.55 0 0 0-.72-3.075c-.267-.33-1.337-1.132-1.511-1.132a.15.15 0 0 0-.119.072M7.44 9.747c-3.173.221-3.353.247-3.518.443c-.164.19-.175.318-.118 1.44c.082 1.712.051 1.882.345 2.077c.138.093.689.093 3.188.093c2.581 0 4.808.035 4.937-.093c.046-.051-.196-3.6-.278-4c-.052-.273-.082-.273-4.556.04"/></svg>