<svg xmlns="http://www.w3.org/2000/svg" viewBox="0 0 24 24"><g fill="none"><path fill="#5cbde6" d="M12 20.47a8.47 8.47 0 1 0 0-16.94a8.47 8.47 0 0 0 0 16.941"/><path fill="#7ac4eb" d="M12 19.395a7.396 7.396 0 1 0 0-14.792a7.396 7.396 0 0 0 0 14.792"/><path fill="#9bd8fb" d="M12 18.125a6.125 6.125 0 1 0 0-12.251a6.125 6.125 0 0 0 0 12.25"/><path fill="#000" d="M11.18 8.352L7.95 4.805l-.932.265l-.46 2.17v3.389h.211v.794h-.212v2.647l1.695 1.482v.471l-2.309 2.039c1.747 2.393 4.643 2.594 6.936 2.594c1.831 0 3.346-.9 3.875-1.36l-1.44-1.536h-.72v-.275h.836c.355-.16 1.06-.477 1.091-.52c.026-.047.498-.571.73-.83v-1.012q-.48-.443-.92-.926q.55-.721 1.185-1.371v-1.377L16.51 9.771l.53-3.637l-.238-.397H16.6l-.587.678l-2.044 1.577a14 14 0 0 0-1.37-.069c-.6 0-1.197.286-1.43.43z"/><path fill="#928396" d="M9.273 20.233v-3.489h2.372l2.79 1.36l-.455.911l.286 1.387l-2.224.34z"/><path fill="#2d2220" d="M8.411 16.183L6.23 18.422l.445.413l1.932-1.8l.837-.212h1.826l2.615 1.355h1.435l-.424-.259l-1.392-.635l-1.514-.837l-1.72-.264l-1.282-.175l-.582.175z"/><path fill="#744e03" d="m7.373 17.93l-.794.852l.397.276l.55-.73l.964-.594l.784.397l.561-.254l-.699-1.08l-.773.339z"/><path fill="#a16123" d="M9.273 18.079c-.296-.143-.89-.435-.921-.44l-.863.477l-.53.756l.805.673v-1.112l.969.81v.73l.54.207z"/><path fill="#fc9918" d="m9.724 18.406l-.519-.477v2.181l.514-.323v-1.376z"/><path fill="#c8c3ca" d="M9.792 17.861v2.753l2.181.17l2.134-.286l-.678-1.938l-1.143-.773l-1.694-.577z"/><path fill="#fff" d="m10.147 17.85l.756-.408l2.065 1.18l1.043 1.8l-1.747.34l-2.117-.286z"/><path fill="#918495" d="m9.168 15.463l.831-.689l1.186-.984l1.101.497l3.87 1.085l.366.392v.53h-1.546l-1.34-.212v.164l1.128.212h1.97l-.747.476H12.28l-2.245-.688z"/><path fill="#513206" d="m9.977 13.805l-.392.619l1.853-.127v-1.218h-.762v.726z"/><path fill="#9e6315" d="M11.29 14.312c.127-.148.381-.471.387-.513l1.72-.143l3.166 1.307v.307h-1.122l-2.542-.412l-1.604-.546z"/><path fill="#34343e" d="m11.153 11.502l-.779-.778l-.143.656l.371.72h.55z"/><path fill="#33323a" d="m13.281 12.142l-2.615-1.344l.381-.477c.487.223 1.53.678 1.779.763s.635.72.794 1.027z"/><path fill="#c1b6c7" d="m10.73 10.55l.228-.259l5.135.567l1.212.72v.572h-.429l-.545-.54h-1.874l-.852.54z"/><path fill="#f8f8ec" d="m10.862 10.538l.08-.18l5.897.434l.434.683v.44l-.847-.509h-2.218l-.657.434z"/><path fill="#302128" d="M6.78 11.406v.937l2.064 1.149l-.206-1.15l-1.308-.862zm.02 1.196v1.038l1.33 1.048l.635-.985l-1.96-1.1z"/><path fill="#37363c" d="M11.005 8.687h.44L9.998 10.66l.487.927l.138 1.127l-.625.52l-.291-.101l.572-1.176l-1.229-.953z"/><path fill="#323338" d="m6.996 11.217l.44-.81l.646.255l1.826 1.344l-.53 1.207l-.396.376l-1.197-.741l-.794-1.63z"/><path fill="#2e2128" d="m7.146 5.345l.518-.37l2.293 4.001l-1.308 1.589l-.577-.307H7.49l-.773.423v-3.43l.423-1.906z"/><path fill="#baafc0" d="M7.76 10.634h.387l1.8 1.472v.222l-.508 1.022h-.424l-1.52-1.477v-.942z"/><path fill="#fefff9" d="M10.332 8.845L7.356 5.224l-.312 1.508h.196v1.324h-.196v1.61l1.52.74h.576z"/><path fill="#c3bdc7" d="m8.1 7.457l-.594-.778l-.249 1.35V9.76l.773.37h.265v-.248h.45V8.717h.185v.514h.286v-.424l-.73-1.35z"/><path fill="#2e2128" d="M7.516 6.018v.678l.582.762h.143V7.13l-.519-1.112zm.248 1.715l.233 1.229H8.3l-.302-1.229z"/><path fill="#fe9923" d="m10.376 8.738l-2.88-3.605l.2-.164l2.912 3.372z"/><path fill="#fbfff1" d="M9.56 7.129L7.732 5.006h.222L9.73 6.933z"/><path fill="#a25f1b" d="M11.048 8.4L9.729 6.945l-.227.185l1.096 1.186l-1.515 2.08h-.492l-.381-.153v.36l.71.328l2.122-2.53z"/><path fill="#baafc0" d="m11.391 9.146l1.456-.725h-.968l-1.139.9l-1.276 1.228v.524l.731.572v.964l-.323.333v.387h.503l.418-.763v-.825l-.339-.466v-.906l.937-1.217z"/><path fill="#fafff9" d="m11.682 8.676l1.111-.228l.075-.2h-.794l-.773.375l-1.42 1.461l.17.143l1.626-1.551z"/><path fill="#6b6a72" d="m7.712 11.656l.344-.535l1.27 1.038l-.497.429l-1.112-.932z"/><path fill="#fbfbfb" d="M7.992 10.904v-.264h.26l1.71 1.26v.248l-.662.186l-1.048-1.054z"/><path fill="#353338" d="m11.64 9.39l-.788 1.021l2.6 1.218l.497-.222l-2.308-2.012z"/><path fill="#1f3e5b" d="m12.635 8.664l-1.022.751l2.33 1.996l.212-.053v-.407l-1.462-1.562l-.053-.725z"/><path fill="#929eb6" d="m12.656 9.416l-.074-.688l.381-.302h1.975l1.88 2.012v.942h-.302v-.232h-2.42v-.233z"/><path fill="#5b84ba" d="m12.614 9.157l-.032-.434l.381-.318h.916l1.255 2.753h-.445z"/><path fill="#f3f7e8" d="m16.304 10.486l-2.028-2.06h.816l1.509 1.642v.847h-.297z"/><path fill="#a16123" d="M14.864 8.214h-.715v-.227l1.424-.795z"/><path fill="#fe9c15" d="M15.309 8.209h-.477l.672-.98l.551-.513v.424z"/><path fill="#fbf9fc" d="m15.622 8.819l-.371-.37l1.567-1.96z"/><path fill="#c7bfca" d="m16.03 9.248l.788-2.753l-1.201 2.297z"/><path fill="#fffbff" d="m16.802 5.907l-.757.779l.212.063l.508-.466z"/><path fill="#46643e" d="M11.656 14.012v-1.387l.307-.28h1.186v.28h.693v-.28h.503v1.185l-.757.79h-1.34l-.598-.308z"/><path fill="#738471" d="M13.515 12.625h-.366v-.28h-.699l1.81 1.27l.086-.085v-.222l-.832-.688zm.428 1.324l-1.853-1.604h-.127l-.307.28v.117l2.118 1.392l.17-.18z"/><path fill="#527147" d="M15.112 12.106h1.705v1.175l-.286.53h-.651l-.768-.583z"/><path fill="#738471" d="m15.112 12.462l1.15 1.35h.27l.285-.535v-.143l-1.027-1.032h-.678z"/><path fill="#745409" d="m14.91 13.28l-.211-.709l-.19.97l-.9.994h1.355c.042 0 .736-.158 1.074-.238l-.127-.275z"/><path fill="#725102" d="m11.212 13.45l-.477-.408l-.063.8h.54z"/><path fill="#717d6f" d="M11.407 11.905v.424h.254v-.239h.312v-.185z"/><path fill="#454442" d="m9.83 14.255l-1.192.52c.175.232.53.703.535.735s.44-.82.656-1.255"/><path fill="#5d645c" d="M10.194 15.06H9.61l.297-.805h.778v.572h-.492z"/><path fill="#393a3f" d="m9.904 14.085l-.699 1.35h.471v-.651h.228v-.477h.73v.254h.577v-.29h-.508v-.186z"/><path fill="#f91" d="m15.992 14.266l-1.44.275l.318.492h1.747z"/><path fill="#fff" d="M13.01 14.864h-2.647l-.195.555l.46.35l1.588.265l2.41.248h.571l1.138-.614v-.354h-.72z"/><path fill="#f5fff9" d="M16.282 14.33h-.243l.529.709h.265v-.223l-.551-.492z"/><path fill="#faf5fc" d="M16.543 15.536v-.228h.53v.228z"/><path fill="#fd9c0f" d="m13.895 19.079l.233 1.132h.243v-.38l.72-.657v.72l1.308-.614l-.741-.583H14.07z"/><path fill="#a56118" d="M15.277 18.163h-1.06l-.238.556h1.695z"/><path fill="#f9faf2" d="M15.452 18.173h-.196l.392.546l.72.566l.159-.095z"/><path fill="#3781b2" fill-rule="evenodd" d="M12 21a9 9 0 1 0 0-18a9 9 0 0 0 0 18m0-.53a8.47 8.47 0 1 0 0-16.94a8.47 8.47 0 0 0 0 16.94" clip-rule="evenodd"/></g></svg>