<svg xmlns="http://www.w3.org/2000/svg" viewBox="0 0 24 24"><g fill="none"><path fill="url(#SVGjvRFMaAt)" d="m20.35 9.35l-2.86-.455l2.185-.9l.49-1.935l-.575-1l-2.81-.81l1.43 2.015l.01.015l-1.115.27l-2.76-1.86l-2.34.275l-2.34-.275l-2.76 1.86l-1.115-.27l.005-.015L7.23 4.25l-2.815.805l-.58 1.005l.49 1.935l2.185.9l-2.86.455L3 11.075l1.96.93l1.85-.64l.265 1.94l1.22 2.785l.59 1.51l2.865 1.98l.25.165v.005h.005l.245-.17l2.865-1.98l.595-1.51l1.215-2.785l.265-1.94l1.85.64l1.96-.93zM4.605 5.3l1.915-.55l-1.04 1.46l-1.265-.23l.39-.685zm-.42.96l1.115.205l-.785 1.095zm2.6 4.815L4.98 11.7l-1.615-.765l.5-1.33l2.92-.47zm0-2.375l-2.11-.87l.935-1.3l1.175.285zm8.055.755l-.275.9h-5.13l-.27-.9L12 5.435zm-4.575 3.67l-.74-2.49h4.95l-.74 2.49zm3.385.285l-.92 2.385l-.725.59l-.73-.59l-.92-2.385zM7.075 8.375V6.78l2.66-1.795l2.055.24h.015l-.005.01L8.905 9.31zm1.485 7.61l-1.2-2.755l-.27-1.95l2.16-.555l.75 2.525l-.6 1.25l-.825 1.515l-.015-.035zm.15.385l.86-1.58l2.205 1.78l-.075.06l-2.61.71l-.375-.97zM12 19.4l-2.66-1.84l2.66-.72l2.665.725L12 19.405zm2.91-2.065l-2.61-.71l-.075-.06l2.205-1.785l.86 1.585zm1.735-4.11l-1.2 2.75l-.015.04l-.825-1.515L14 13.25l.75-2.53l2.165.55l-.265 1.95zm.285-4.855l-1.835.935l-2.89-4.075l-.005-.01h.01l2.06-.24l2.66 1.795zm2.56-.815l-.785-1.1l1.115-.2zM17.48 4.75l1.915.55l.395.68l-1.27.23zm-.265 2.065l1.18-.29l.935 1.305l-2.115.87zm1.81 4.885l-1.81-.625v-1.94l2.925.47l.5 1.33z"/><defs><linearGradient id="SVGjvRFMaAt" x1="21" x2="3" y1="12" y2="12" gradientUnits="userSpaceOnUse"><stop stop-color="#ff825d"/><stop offset=".52" stop-color="#97a0d1"/><stop offset="1" stop-color="#fff"/></linearGradient></defs></g></svg>