<svg xmlns="http://www.w3.org/2000/svg" viewBox="0 0 24 24"><g fill="none"><path fill="url(#SVGwcBAdmsf)" d="M12 18.353a6.353 6.353 0 1 0 0-12.705a6.353 6.353 0 0 0 0 12.705"/><path fill="url(#SVGX9jaadzF)" fill-rule="evenodd" d="m6.738 11.428l1.53-2.038a.053.053 0 0 0-.006-.069l-.196-.196a.053.053 0 0 1 0-.074l1.536-1.535a.05.05 0 0 1 .037-.016h.751a.05.05 0 0 0 .037-.01l1.414-1.181c.043-.032.106.01.08.063l-.44 1.096a.05.05 0 0 0 .01.053c.096.117.244.387.244.773c0 .53 0 1.059-.265 1.324c-.2.2-.847.397-1.487.598l-.614.19a.05.05 0 0 0-.027.022l-.503.751a.05.05 0 0 0 0 .053l.233.472a.05.05 0 0 1-.01.058l-.742.74a.05.05 0 0 1-.063 0l-1.504-1.005a.053.053 0 0 1-.015-.069m1.82-2.34l.265.265l.265-.53zm2.542 4.78l5.665-6.897l1.588 2.382l-6.025 4.267c.212.048.424.138.593.265l5.432-3.209v2.118l-4.908 1.72c.069.16.122.334.138.52l4.235-1.181v1.853h-4.32a1.6 1.6 0 0 1-.318.535l4.114.259l-.794.794l-3.642-.778l-.143.08l2.461 1.227l-1.059.265l-2.382-1.323l.043-.016a1.59 1.59 0 0 1-.678-2.88m1.959 1.308a1.059 1.059 0 1 1-2.118 0a1.059 1.059 0 0 1 2.118 0m-2.912.265L8.823 17.03l2.118 1.06h2.382c-.238-.16-.582-.334-.963-.53c-.466-.239-.985-.503-1.419-.794a1.75 1.75 0 0 1-.794-1.324m.265-1.059l3.705-4.764L12 8.294c0 .704-.37 2.17-1.853 2.382c.265.97.265 2.912.265 3.706M12 15.706a.53.53 0 1 0 0-1.059a.53.53 0 0 0 0 1.059" clip-rule="evenodd"/><path fill="#7a4500" d="m6.553 13.079l.233 1.233l.725-1.233h.37l-.947 1.551H6.51l-.333-1.551zm1.895 0l-.312 1.551h-.35l.307-1.551zm.693 1.567a.8.8 0 0 1-.428-.106a.33.33 0 0 1-.164-.355h.36a.17.17 0 0 0 .052.154a.3.3 0 0 0 .196.058q.107.005.202-.048a.16.16 0 0 0 .074-.137q0-.078-.08-.133a1 1 0 0 0-.238-.106a3 3 0 0 1-.244-.105a.5.5 0 0 1-.158-.127a.33.33 0 0 1-.064-.212a.4.4 0 0 1 .08-.249a.5.5 0 0 1 .232-.164a1 1 0 0 1 .334-.058a.9.9 0 0 1 .318.053c.095.037.158.09.211.158a.34.34 0 0 1 .053.233h-.37v-.026a.14.14 0 0 0-.058-.122a.27.27 0 0 0-.17-.047a.33.33 0 0 0-.19.053a.15.15 0 0 0-.075.132q.001.056.043.095a.3.3 0 0 0 .106.074l.169.074l.244.106a.5.5 0 0 1 .158.138a.3.3 0 0 1 .07.212a.37.37 0 0 1-.086.232a.53.53 0 0 1-.227.165a1 1 0 0 1-.344.058z"/><path fill="url(#SVGzF9HVb0V)" fill-rule="evenodd" d="M12 18.353a6.352 6.352 0 1 0 0-12.705a6.352 6.352 0 0 0 0 12.705M12 21a9 9 0 1 0 0-18a9 9 0 0 0 0 18" clip-rule="evenodd"/><path fill="url(#SVGiaOdgdJk)" fill-rule="evenodd" d="M18.618 12a6.618 6.618 0 1 1-13.236 0a6.618 6.618 0 0 1 13.236 0M12 20.735a8.735 8.735 0 1 0 0-17.469a8.735 8.735 0 0 0 0 17.47M18.353 12a6.353 6.353 0 1 1-12.706 0a6.353 6.353 0 0 1 12.706 0M21 12a9 9 0 1 1-18 0a9 9 0 0 1 18 0" clip-rule="evenodd"/><defs><linearGradient id="SVGwcBAdmsf" x1="12" x2="12" y1="3" y2="21" gradientUnits="userSpaceOnUse"><stop stop-color="#f0d242"/><stop offset=".2" stop-color="#fef76f"/><stop offset=".54" stop-color="#e1af1b"/><stop offset="1" stop-color="#c27800"/></linearGradient><linearGradient id="SVGX9jaadzF" x1="11.997" x2="11.997" y1="3.001" y2="21" gradientUnits="userSpaceOnUse"><stop stop-color="#b76a00"/><stop offset="1" stop-color="#603800"/></linearGradient><linearGradient id="SVGzF9HVb0V" x1="12" x2="12" y1="3" y2="21" gradientUnits="userSpaceOnUse"><stop stop-color="#c68a00"/><stop offset=".53" stop-color="#fcf571"/><stop offset="1" stop-color="#b27801"/></linearGradient><linearGradient id="SVGiaOdgdJk" x1="12" x2="12" y1="3" y2="21" gradientUnits="userSpaceOnUse"><stop stop-color="#ae714d"/><stop offset=".17" stop-color="#823300"/><stop offset=".53" stop-color="#f6ec27"/><stop offset="1" stop-color="#e4b000"/></linearGradient></defs></g></svg>