<svg xmlns="http://www.w3.org/2000/svg" viewBox="0 0 24 24"><g fill="none"><path fill="#590577" d="m11.423 9.517l.884-.265l.265.89l-.89.26z"/><path fill="#8d5f90" d="m11.65 9.638l.53-.159l.159.53l-.53.158z"/><path fill="#590577" d="m13.16 10.052l.518-.154l.153.519l-.518.153z"/><path fill="#8d5f90" d="m13.35 10.156l.227-.069l.07.228l-.229.069z"/><path fill="#590577" fill-rule="evenodd" d="m12.17 12.92l-.52.149l.16.519l.513-.154zm-.1.186l-.229.069l.07.227l.227-.068zm-.822-2.319l-1.132.334l.333 1.133l1.133-.334zm-.158.302l-.673.196l.196.667l.667-.196l-.196-.667zm-.561 1.869l-.858.254l.254.857l.858-.254zm-.128.227l-.502.154l.148.503l.503-.148z" clip-rule="evenodd"/><path fill="#590577" d="m12.566 11.772l.657-.19l.19.65l-.656.197z"/><path fill="#8d5f90" d="m12.806 11.905l.286-.084l.084.286l-.286.084z"/><path fill="#590080" fill-rule="evenodd" d="M12 21a9 9 0 1 0 0-18a9 9 0 0 0 0 18m0-1.059a7.941 7.941 0 1 0-4.627-1.488a.202.202 0 0 1 .095-.301l.138-1.36l2.525-1.748l.08.106l-2.473 1.715l-.132 1.287a.201.201 0 1 1-.117.386A7.9 7.9 0 0 0 12 19.941m4.119-14.4c-.185.36-1 1.096-2.753 1.191l-1.71 1.927l.164.16l1.488-1.748c.301.307.804.794 1.323 1.265l-.561.646l.159.143l.556-.656c.45.397.9.757 1.228.942l-1.747 2.308l.17.101l1.794-2.308c.016-.053.032-.26-.042-.636c-.096-.476-.149-1.762.752-2.615c-.09-.55-.583-.71-.821-.72m-6.93 6.724l.116.074l-1.583 2.425v.958a.202.202 0 1 1-.132 0v-1zM7.654 15.98q.015.005.031.002a.1.1 0 0 0 .029-.013a.07.07 0 0 0 0-.11a.069.069 0 0 0-.11.055a.07.07 0 0 0 .05.066m-.048 2.361a.069.069 0 1 1-.133.038a.069.069 0 0 1 .133-.038m4.786-3.975l-1.78 2.107l-1.725 1.064v.031a.201.201 0 1 1-.063-.148l1.699-1.053l1.768-2.091zm-3.706 3.271q.015.005.031.002a.07.07 0 0 0 .05-.037a.069.069 0 1 0-.081.035" clip-rule="evenodd"/></g></svg>