<svg xmlns="http://www.w3.org/2000/svg" viewBox="0 0 24 24"><g fill="none"><path fill="#141414" d="M7.529 11.696a55 55 0 0 1-1.213.535L11.763 3v.957l-4.604 7.791l.474-.19l4.13-7.364v7.284l-1.549.578l-2.728-.19l.043-.165z"/><path fill="#0fabff" d="m11.763 9.926l-4.291 1.941l4.291 2.577v-.379l-3.647-2.15l3.647-1.63zm0 .625l-3.107 1.397l3.107 1.828v-.393L9.471 12.01l2.292-1.033zm0 .706l-1.715.757l1.715 1.042zM6.316 12.36l5.447 3.273v-.947l-4.556-2.748z"/><path fill="#393939" d="M16.472 11.706c.388.17 1.174.52 1.212.53L12.237 3v.957l4.604 7.796l-.474-.19l-4.13-7.37v7.285l1.549.583l2.728-.19z"/><path fill="#10acf9" d="m12.237 9.926l4.291 1.932l-4.29 2.567v-.379l3.646-2.14l-3.647-1.62zm0 .62l3.107 1.393l-3.107 1.818v-.388L14.53 12l-2.293-1.033v-.426zm0 2.496v-1.79l1.715.757zm5.447-.696l-5.447 3.268v-.947l4.557-2.733z"/><path fill="#8c8c8c" d="M11.967 16.642c-.067 0-3.794-2.145-5.651-3.22L11.966 21l5.717-7.578a293 293 0 0 1-5.716 3.22"/></g></svg>