<svg xmlns="http://www.w3.org/2000/svg" viewBox="0 0 24 24"><g fill="none"><path fill="url(#SVGJef4lLxx)" d="M8.354 6.64s-.805.243-.391 1.11c0 0-.59-.3-1.028-.074c-.437.226-1.07.532-1.564.175c-.494-.356-.36-.991-.252-1.466s.084-1.18-.875-1.365c0 0 .833-.224 1.3.377c.466.6.003 1.447.695 1.748c.693.301.984-.85 2.115-.504M6.776 8.2s-.052.457-.497.512c0 0 .144 1.012 1.32.625c0 0-.145.794-.79 1.063s-2.153 1.029-2.008 3.443c0 0-.727-1.122-.14-3.134c.3-1.022 1.42-1.5 1.42-1.5s-.59-.049-1.134.451c0 0 .426-1.291 1.83-1.46m2.028-1.566c-.419-.563-.921-.495-1.352-.27c-.392.207-.96.458-1.246.088c-.64-.83.127-1.46-.245-2.22C5.526 3.345 4 3.158 4 3.158C5.019 2.86 6.244 3 6.788 3.45s.177 1.167.737 1.564c.56.398 1.384-.025 1.863.491s.35 1.054.205 1.25c-.172.235-.53.09-.842.485s-.146.753-.146.753c-1.042-.828.2-1.358.2-1.358m6.735 8.029s-.142.124-.226.377c-.087.265-.126.58-.523.659c0 0 .127-.086.159-.155c.105-.227.082-.712.59-.881m-3.947 1.727c.017-.03.02-.048.078-.042c.058.007.35.02.484-.078c.132-.098.157.014.12.096a.5.5 0 0 1-.161.195s.144.12.418.05c.275-.07.378-.116.31.016c-.049.096-.17.14-.25.184c-.074.04-.35.18-.414.224c-.03.022-.056.025-.098-.003c-.043-.027-.014-.107-.066-.145s-.124.013-.155.03c-.031.016-.062.035-.149.008c-.086-.028-.235-.056-.22-.198c.014-.141.082-.301.103-.337m-3.22-2.2s-.053.24.18.597c.23.356.882 1.24.336 2.495c0 0-.627-.399-.607-.974c.018-.575.217-.54.184-.892c-.032-.353-.274-.861-.094-1.226m-.2-1.273s-.645.796-.204 1.661c.385.754.149.924-.26 1.669c-.514.941.114 2.013.114 2.013c-.599-.165-1.11-.789-1.067-1.714c.018-.395.262-.891.568-1.409c.288-.485-.129-.623.231-1.49c.163-.393.618-.73.618-.73m4.676-2.04s-.005.15.091.15c.08 0 .079-.071.079-.071s.06.004.081-.007c0 0-.038.282-.242.282c-.038 0-.079-.045-.079-.045c-.032-.012-.055 0-.04.05c.015.052.016.116.114.172c.097.057.24.094.377.204c.065.052.236.227.302.333c.066.105-.008.057-.064.027c-.037-.02-.272-.198-.41-.248s-.256-.037-.31-.116c-.052-.08-.146-.274-.15-.417c-.003-.143-.002-.152.034-.175zm.655-.57c.078.06.124.04.171.105c.048.064-.033.258-.117.299s-.114-.033-.11-.051c.003-.019.066-.115-.061-.228s-.239-.142-.345-.05c-.099.085-.102.103-.107.175c-.006.07-.04.13-.223.192c-.182.062-.462.01-.717-.156c-.254-.167-.352-.372-.371-.513c0 0 .18.19.49.243c0 0 .13-.446.642-.514c.17-.023.388.094.517.23c.093.098.143.202.23.269M12.36 8.94c-.143-.066-.258-.121-.253-.256s.12-.274.332-.424c.211-.15.378-.2.525-.133c.516.233.54.303.82.817c.083.151.11.308.166.37c.11.118.268.206.376.376c.109.17.105.427.149.57c.072.234.158.274.198.396c.027.084.037.259.028.44c-.007.182.012.241.031.348s.016.212-.2.153s-.207-.115-.267-.144a.6.6 0 0 0-.335-.023c-.166.03-.044.202.157.21c.12.005.321.02.516.135c.194.115.335.17.41.334c.075.165.114.256.357.433c.244.177.452.452.478.61s.051.272.178.502a.6.6 0 0 1 .053.44c-.023.111-.061.193-.088.256c-.025.062-.071.103-.135.027c-.063-.077-.16-.248-.2-.312c-.13-.204-.537-.277-.645-.4c-.1-.113-.128-.26-.162-.387c-.033-.127-.077-.178-.12-.02c-.041.16.021.389.11.587c.09.197.236.63.203.9c-.034.27-.135.478-.205.546c-.031.03-.121.067-.276.04c-.155-.025-.69-.133-1.001-.182c0 0-.344.344-.672.532c-.32.184-.3.018-.135-.188c.16-.201.304-.444.308-.54c0 0-.179-.114.017-.122s.312.011.445.074c.134.062.315.167.219-.036c-.097-.202-.655-.691-.697-1.031c-.04-.334.204-.778.498-.784c.293-.005.773.293.925.777c0 0 .063-.142-.053-.356c-.116-.213-.54-.701-.793-.695c-.248.005-.583.109-.86.76c-.18.423-.464.328-.525.311c-.07-.02-.242-.233-.13-.32c.113-.087.24-.19.283-.328c0 0-.663.325-1.124.087s-.317-.646-.344-.754c-.023-.088-.09-.085-.166.024c-.078.109-.244.539.118.852c.363.313.66.212.81.18c.15-.033.21.022.159.111c-.053.09-.051.238.085.341c.137.104.59.21.58.453c-.006.157-.102.071-.176.055c-.133-.031-1.364-.34-2.07.567c-.189.243-.104.265-.03.395c.046.085.202.576.122 1.167c-.066.478-.032.628.17.817c.085.08.335.25.609.214c.196-.025.178.046.159.097s-.045.19-.32.205c-.062.005-.82-.006-1.07-.433c-.167-.287-.094-.363-.24-.7c-.097-.23-.2-.207-.269-.407c-.059-.168-.035-.281-.032-.408c.002-.127.033-.191.152-.108c.118.084.227.185.25.212c0 0 0-.104-.142-.354c-.143-.25-1.14-1.129-.8-2.285c0 0-.492-.198-.713.508c0 0-.125-.285.095-.616c.165-.249.432-.276.299-.859c-.102-.444-.226-.744.07-1.181c.298-.437.564-.354.56-.539c-.004-.131-.534-.243-.877.322c0 0-.39-1.272 1.505-1.597c0 0-.52-.218-1.216.185c-.697.404-.633 1.292-.534 1.746s.37 1.041-.48 1.643c-.581.41-.414.795-.405 1.246c.01.451-.226 1.005-.508 1.36c0 0-.266-.965.098-1.789c.365-.822.63-.93.738-1.165c.106-.234-.006-.211-.185-.113c-.18.098-1.49.867-1.048 3.633c0 0-1.065-.962-1.016-2.467c.05-1.505.601-2.234.992-2.558c.39-.323.596-.453.63-.113s-.016.4-.19.601a1.1 1.1 0 0 0-.276.755s.246-.432.607-.643c.263-.154.349-.584.354-.9c.006-.318.21-.953.725-1.508s.507-1.173-.075-.795c-.58.378-.956.48-1.28.212c0 0 .335-.064.37-.41c.038-.347.384-.643.903-.463c.52.182 1.008.714 1.271.79c.264.077.745.168.94.422c0 0-.126-.808.339-.878c0 0-.05-.665-.734-.517c-.6.132-.419.677-.419.677s-.785-.478-.315-1.069c.454-.57 1.24-.535 1.605-.121c0 0 .14-.266-.047-.478c-.187-.213-.464.039-.573-.193c-.11-.231.21-.365-.054-.926c-.264-.562-.946-.76-1.336-.967s-.632-.69-.515-1.265c0 0 .683.824 1.612.813c.82-.01 1.23-.23 1.748-.023c.519.207.702.576.74.893c0 0 .209-.168.147-.456c-.061-.289-.077-.382.166-.602c0 0-.062.467.585.875c.648.41 1.227.567 1.279 1.452c.012.2-.197.931-.71 1.181c-.246.12-.666.017-.666.017s1.077-.862.012-1.71c0 0 .276.536-.23 1.025c0 0 .21-.65-.237-.761c0 0 .214.274-.11.66c-.326.387-.038.62.333.856c0 0-.592.282-.877-.088c-.19-.246.133-.63.02-1.043c-.015-.06-.066-.399-.783-.698c-.716-.3-.697-.37-.86-.545c0 0 .023.23.227.49c.227.292.496.342.592.516c.095.173.103.422.18.521c.115.148.265.192.331.36c.067.168.123.359-.011.745c0 0-.235.042-.216-.254c.018-.295-.053-.422-.282-.43c0 0 .12.142.11.344s-.192.305-.155.402c.044.113.208.14.355.306s.385.356.564.638c.18.282.4.78.128.627c-.273-.155-.403-.271-.673-.225c-.269.047-.358.332-.372.67c-.015.34-.074.35-.269.498c-.194.148-.344.215-.478.545c-.134.329-.409.509-.608.61c-.2.1-.584.234-.488.735c.097.5.43.983.636 1.168c0 0 .035-.27-.033-.49c-.065-.221-.192-.563-.06-.966c.133-.403.382-.5.442-.52s.186-.068.33-.385c.142-.316.251-.413.555-.482c.305-.07.966-.039 1.206.253s.065.474.357.783s.516.285.783.341c.286.062 1.203.458 1.011.213a1.3 1.3 0 0 0-.47-.4c-.195-.116-.385-.176-.507-.444c-.1-.22-.11-.307-.122-.358s-.012-.133.088-.16s.36-.053.42-.317c.047-.21-.043-.525-.075-.598c-.066-.151-.244-.154-.331-.238c-.125-.12-.508-.636-.676-.736c-.09-.053-.341-.13-.424-.169m2.125 6.644s-.203.066-.37-.02c0 0-.215.27-.478.382c-.23.098-.35.136-.225-.036c.096-.133.113-.12.232-.229s.204-.23.277-.292c.088-.075.177-.037.564.195"/><path fill="url(#SVGHPukGe8q)" d="M15.897 15.132c-.901 1.498-2.264 3.046-4.324 4.303a14 14 0 0 1-.548-.353a1.14 1.14 0 0 0 .766-.533c.185-.301.219-.625.386-.755c.178-.138.412-.194.588-.387c.338-.37.351-.812.351-.812s.123-.005.237-.028c.122-.025.24-.073.386-.076c.213-.004.484.103.692.057c.253-.057.43-.122.527-.208c.438-.389.378-.785.543-.915c.09-.07.245-.166.396-.293m.475-.865c1.287-2.578 1.288-4.796 1.288-4.796c-.735-.482-1.758-1.088-3.61-1.383c.053.174.112.389.127.54c.015.158.062.12.166.207c.106.088.273.254.334.415c.06.162.1.38.158.529s.202.57.21.765c.01.194-.188.675-.105.84c.187.374.799.586.982.963c.158.323.163.522.22.774s.313.682.236 1.113z"/><path fill="url(#SVGc0Ncfdvl)" d="M4.062 10.553a9.5 9.5 0 0 1-.04-1.728q.388-.246.784-.475a.6.6 0 0 0 .227.184s-.715.488-.597 1.536c0 0-.231.21-.374.483m15.916-1.728C18.67 8 17.355 7.287 15.361 6.913a1.5 1.5 0 0 1-.265.676c2.134.358 3.328 1.054 4.189 1.578c0 0 .394 6.947-7.286 10.997c-1.633-.863-2.901-1.852-3.886-2.876c-.02.297.07.794.503 1.51c.985.837 2.104 1.554 3.384 2.202c2.838-1.435 4.881-3.212 6.428-5.86c1.239-2.157 1.683-4.519 1.55-6.315"/><defs><linearGradient id="SVGJef4lLxx" x1="4.068" x2="18.709" y1="13.891" y2="9.009" gradientUnits="userSpaceOnUse"><stop stop-color="#b59978"/><stop offset=".201" stop-color="#bfa480"/><stop offset=".751" stop-color="#edcfa5"/></linearGradient><linearGradient id="SVGHPukGe8q" x1=".202" x2="21.958" y1="14.677" y2="9.001" gradientUnits="userSpaceOnUse"><stop stop-color="#8f191c"/><stop offset=".25" stop-color="#89181a"/><stop offset=".65" stop-color="#9e1d20"/><stop offset="1" stop-color="#89181a"/></linearGradient><linearGradient id="SVGc0Ncfdvl" x1="6.461" x2="19.423" y1="15.556" y2="7.965" gradientUnits="userSpaceOnUse"><stop offset=".25" stop-color="#a89c8e"/><stop offset=".65" stop-color="#dfd1c0"/><stop offset="1" stop-color="#b0a495"/></linearGradient></defs></g></svg>