<svg xmlns="http://www.w3.org/2000/svg" viewBox="0 0 24 24"><g fill="none"><path fill="#88b1ca" d="M9.187 20.437H3l6.187-5.625h6.188z"/><path fill="#f8782f" d="m21 9.188l-5.625 5.624V9.188z"/><path fill="#cf4a00" d="m21 3.563l-5.625 5.624V3.563z"/><path fill="#488eb2" d="m15.374 9.188l-6.187 5.624V9.188z"/><path fill="#295c7b" d="M15.375 3.563L9.188 9.186V3.563z"/><path fill="#2471a5" d="M9.187 9.188L3 14.811V9.188z"/><path fill="#fa965a" d="m21 14.813l-5.625 5.624v-5.625z"/><path fill="#f26a1e" d="M15.374 14.812H9.187l6.187-5.624z"/><path fill="#e75105" d="M15.375 9.187H9.188l6.187-5.624z"/><path fill="#377dae" d="M9.187 14.812H3l6.187-5.624z"/><path fill="#206996" d="M9.187 9.187H3l6.187-5.624z"/><path fill="#f98749" d="M21 14.812h-5.625L21 9.188z"/><path fill="#f8a77a" d="M15.374 20.437H9.187l6.187-5.625z"/></g></svg>