<svg xmlns="http://www.w3.org/2000/svg" viewBox="0 0 24 24"><g fill="none"><path fill="#6b00fa" stroke="#362745" stroke-miterlimit="10" stroke-width=".5" d="M7.149 15.874c.066-.983.047-1.994.165-3c.066-.547.184-1.09.231-1.638c.061-.748-.014-1.497-.033-2.25c-.005-.22-.028-.44.028-.66c.029-.113.071-.23.19-.253c.202-.047.145-.16.103-.281c-.047-.136-.09-.271-.142-.402c-.283-.688-.042-1.306.302-1.886c.293-.496.675-.941 1.076-1.358a2.26 2.26 0 0 1 1.661-.711q.184 0 .373-.014c.062-.005.123-.005.19-.01c.056-.004.117 0 .174-.009l.056-.014c.033 0 .066.01.095.01q.104.012.207.032q.206.034.41.075c.275.052.544.117.813.187c.146.038.292.08.429.15c.25.136.43.365.67.515c.165.103.35.164.5.285c.17.136.279.328.383.52c.113.206.226.412.302.636q.028.087.052.174c.056.238.085.482.113.725c.028.239.061.482.141.711q.03.085.066.169c.01.023.024.047.029.07c0 .033-.005.065-.005.098c-.005.707-.066 1.409-.08 2.116a38 38 0 0 1-.231 3.42a1.7 1.7 0 0 0 .052.59c.136.571.179 1.142.094 1.732c-.07.496-.07 1.006-.104 1.511c-.014.225-.137.319-.359.323c-.26.005-.495-.103-.755-.107c-.363-.01-.712.075-1.066.112c-.595.056-1.17-.052-1.756-.122c-.104-.01-.203-.056-.306-.051c-.109 0-.213.004-.321 0c-.052-.005-.104-.005-.156-.019c-.033-.01-.057-.023-.09-.028c-.141-.014-.283-.014-.424-.024c-.142-.004-.284-.014-.425-.018a49 49 0 0 0-.854-.033l-.854-.028c-.071 0-.142-.005-.213-.005c-.066 0-.141-.014-.207-.004c-.02.004-.038.014-.052.018a.5.5 0 0 1-.213-.004c-.207-.056-.26-.276-.264-.464c-.005-.126.01-.252.014-.379c-.01-.126-.01-.252-.01-.407Z"/><path fill="#4300bf" stroke="#362745" stroke-miterlimit="10" stroke-width=".5" d="M15.856 19.8c-.038.244-.005.52-.076.782c-.028.103-.052.201-.165.243c-.108.038-.184-.009-.236-.103c-.038-.065-.104-.06-.17-.065q-.8-.05-1.595-.094l-5.46-.28c-.51-.024-1.02-.038-1.529-.066c-.137-.01-.41 0-.443-.182c-.01-.057-.043-.103-.057-.16a1.4 1.4 0 0 1-.038-.365c-.01-.28-.014-.566-.023-.847q.001-.07-.005-.14a.13.13 0 0 0-.024-.075c-.033-.07-.004-.15.043-.206c.061-.075.146-.108.236-.07c.292.108.6.084.896.103c1.397.08 2.799.14 4.2.206c1.274.06 2.544.126 3.818.192c.439.023.609.2.609.64c0 .155.01.31.019.488Z"/><path fill="#6b00fa" stroke="#362745" stroke-miterlimit="10" stroke-width=".5" d="M11.793 17.297a12 12 0 0 1-1.289-.094c-.274-.042-.538-.103-.811-.14c-.293-.038-.595-.042-.888-.047c-.448-.01-.906-.014-1.34.094c-.434.107-.859.346-1.09.73c.41.3.949.337 1.458.365c.312.018.623.032.935.051c2.298.127 4.596.253 6.894.258c-.07-.216-.141-.436-.217-.651c-.066-.192-.16-.416-.387-.463c-.075-.014-.15 0-.226.004c-.133 0-.27-.009-.402-.014c-.561-.018-1.127-.042-1.689-.06c-.316-.01-.632-.024-.948-.033Z"/><path fill="#4300bf" stroke="#362745" stroke-miterlimit="10" stroke-width=".5" d="M17.016 16.904c.07-.038.151-.075.194-.14c.042-.066.047-.146.052-.22l.056-.923c.024-.346.043-.692.038-1.038c-.005-.328-.038-.656-.019-.979c.019-.299.08-.594.113-.893c.118-1.058-.132-2.125-.085-3.187c.02-.393.08-.787.104-1.184a6.9 6.9 0 0 0-.543-3.15a.6.6 0 0 0-.146-.225c-.094-.074-.222-.084-.326-.145c-.146-.089-.202-.266-.283-.42c-.198-.385-.575-.647-.986-.792c-.41-.145-.845-.187-1.274-.229q-.453-.04-.906-.089c-.147-.014-.359.033-.335.178c.434.323.934.557 1.392.847s.892.66 1.109 1.156c.094.21.142.44.189.67c.141.654.278 1.31.311 1.979c.024.486-.01.978-.042 1.47c-.043.64-.071 1.286-.1 1.927a66 66 0 0 0-.056 1.928q-.021.968-.014 1.928a64 64 0 0 0 .019 1.447c.004.15-.01.313.01.468c.032.229.292.196.452.126c.293-.127.576-.276.868-.417c.052-.018.156-.093.208-.093Z"/><path fill="#100342" stroke="#362745" stroke-miterlimit="10" stroke-width=".5" d="M15.785 18.458c.018.032.042.07.08.07c.024 0 .047-.014.066-.024c.217-.145.396-.341.632-.449c.16-.075.335-.103.5-.16c.236-.079.449-.214.661-.346c.076-.046.16-.116.146-.205a.2.2 0 0 0-.042-.085a1.8 1.8 0 0 0-.42-.407a.23.23 0 0 0-.104-.047c-.047-.004-.094.02-.137.038a68 68 0 0 0-1.024.51c-.17.084-.34.173-.51.257c-.14.07-.259.122-.164.29c.108.188.221.37.316.558Zm.151 2.012c.005.033.01.07.028.093c.052.056.142.024.208-.014l1.713-.954c.056-.033.118-.066.155-.122c.038-.06.043-.136.048-.206c.019-.379.033-.758.052-1.142c.004-.108.004-.224-.057-.309c-.066-.093-.193-.121-.307-.107a.9.9 0 0 0-.316.126q-.686.378-1.373.749c-.151.084-.335.14-.321.337c.014.229.052.458.075.683c.015.145.034.285.048.43s.047.295.047.436Z"/><path fill="#4300bf" d="M13.35 5.784c.09.075.08.23-.014.3c-.095.07-.246.023-.288-.084c-.043-.108.037-.244.15-.262a.2.2 0 0 1 .152.046m.764.66c-.005.024-.01.042-.01.066a.11.11 0 0 0 .071.089c.1.051.246-.024.26-.136c.01-.112-.113-.22-.222-.187c-.01-.005-.024.004-.028.014c-.043.051-.052.098-.071.154m-.467.66h-.208c-.018 0-.037 0-.052.014c-.009.01-.009.023-.014.038c-.01.056-.014.107-.019.163c-.004.066-.004.15.052.183c.038.019.08.014.118.023c.033.01.062.028.095.024c.066 0 .108-.07.122-.136a.3.3 0 0 0-.014-.206c-.033-.066-.099-.112-.17-.103"/><path fill="#6b00fa" d="M16.833 9.14c-.048-.047-.104-.042-.166-.024a.13.13 0 0 0-.085.131c0 .047.034.094.067.127c.052.051.146.004.184-.042c.047-.047.047-.136 0-.192m-.33.786a.2.2 0 0 0-.048-.098c-.028-.028-.085-.014-.118 0a.3.3 0 0 0-.08.056c-.01.01-.019.014-.024.028a.2.2 0 0 0-.023.075c0 .014-.014.08 0 .089a.21.21 0 0 0 .198.018c.057-.032.104-.102.095-.168"/><path fill="#4300bf" d="M8.37 15.841a.25.25 0 0 0-.216.117a.2.2 0 0 0 .037.239c.071.06.302.056.368-.005c.066-.06-.023-.168-.061-.257a2 2 0 0 0-.18-.094m-.358-1.549q-.043.111-.066.23a.06.06 0 0 0 .005.046c.014.024.042.029.07.033c.072.005.152.005.194-.047a.13.13 0 0 0 .029-.056c.023-.075.009-.163-.057-.206s-.17-.018-.184.056m1.062.712c-.01-.024-.028-.061-.052-.07c-.014-.005-.038 0-.057 0h-.051q-.024-.001-.038.004c-.02.01-.038.038-.052.052a.04.04 0 0 0-.019.019a.2.2 0 0 0-.019.084c0 .01 0 .084.01.084c.047.01.212.023.26.033c.027.005-.053.014-.03-.005a.2.2 0 0 0 .03-.033c.023-.056.037-.117.018-.168"/><path fill="#6b00fa" d="M13.637 20.086c.09.066.236.047.298-.047c.047-.07.037-.159.023-.243q-.005-.038-.023-.061c-.014-.014-.038-.019-.062-.019c-.066-.01-.122-.004-.188-.004h-.029a.2.2 0 0 0-.066.046a.17.17 0 0 0-.052.169c.014.06.047.122.1.159m-.599-.913a.14.14 0 0 0-.076.174a.25.25 0 0 0 .137.065c.052.005.109-.028.118-.08c.01-.042-.014-.079-.038-.116c-.023-.038-.052-.075-.094-.09c-.043-.009-.1.029-.08.07m3.34-3.27c-.076-.024-.16.009-.212.065a.37.37 0 0 0-.08.215a.17.17 0 0 0 .023.117c.033.043.094.047.146.033a.29.29 0 0 0 .227-.192c.028-.098-.038-.224-.142-.238c.076-.01-.014-.052.038 0m.335-1.184c-.1.018-.194.089-.203.187s.104.192.194.145c.09-.084.08-.248-.015-.328"/><path fill="#100342" d="M13.58 5.213c-.056.014-.08.09-.056.14c.024.052.085.08.147.08c.028 0 .06-.009.075-.032q.009-.02.01-.043c0-.051 0-.107-.015-.159a.6.6 0 0 0-.155.005m-.524.838c-.042.004-.09.01-.127.028s-.071.06-.066.103c.004.056.066.093.118.117c.042.018.099.037.136.004c.038-.032.024-.088.052-.13c.01-.015.024-.029.029-.047c.004-.033-.033-.057-.066-.061c-.033-.005-.071-.01-.085-.038m-.694-.988a.3.3 0 0 0-.114.1c-.047.079-.009.205.08.224c.09.019.17-.061.218-.14a.1.1 0 0 0 .01-.029c0-.009-.01-.018-.02-.023q-.077-.057-.155-.108c-.014-.009-.038-.018-.047 0m-3.611.8a.4.4 0 0 0-.028.188a.16.16 0 0 0 .136 0a.3.3 0 0 0 .104-.099c.005-.009.014-.018.014-.032a.08.08 0 0 0-.023-.052a.17.17 0 0 0-.109-.06c-.042-.005-.09.027-.094.065m-.212.753c-.038.019-.043.08-.019.113a.14.14 0 0 0 .118.042c.028-.005.061-.014.07-.038c.02-.037-.009-.08-.037-.107c-.028-.033-.07-.07-.118-.057m1.898-2.358a.25.25 0 0 0-.006.154c.024.038.08.047.118.024a.12.12 0 0 0 .052-.117c-.01-.052-.066-.103-.113-.08m4.092 4.596c-.033.056-.019.14.038.178s.141.018.174-.038c.02-.028.02-.07.01-.103a.14.14 0 0 0-.123-.08a.2.2 0 0 0-.142.052c.02.005.034.014.052.019m-.316 6.847c-.005.07-.038.135-.038.206s.047.15.118.15c.062 0 .104-.057.132-.108c.024-.033.043-.07.062-.103c.014-.02.023-.042.014-.066a.1.1 0 0 0-.024-.023a.5.5 0 0 0-.278-.07"/><path stroke="#362745" stroke-miterlimit="10" stroke-width=".5" d="M14.256 15.664c-.005.07-.038.135-.038.206s.047.15.118.15c.062 0 .104-.057.132-.108c.024-.033.043-.07.062-.103c.014-.02.023-.042.014-.066a.1.1 0 0 0-.024-.023a.5.5 0 0 0-.278-.07"/><path fill="#100641" d="M13.84 14.854c.024.051.062.103.114.117c.09.028.193-.08.155-.164c-.037-.084-.188-.089-.226 0m-1.968 1.301c-.033.084.038.187.128.201s.179-.06.202-.15a.06.06 0 0 0-.004-.046c-.01-.014-.024-.019-.043-.024c-.075-.018-.155-.037-.231-.06l-.024.074"/><path fill="#100342" d="M8.39 12.73c-.01.041-.024.083-.014.126c.004.042.033.084.075.093c.047.014.1-.023.118-.07a.3.3 0 0 0 .014-.145l-.165-.028"/><path fill="#100641" d="M7.941 19.033c-.018.06-.033.14.02.183c.056.046.136.004.207.018a.36.36 0 0 0 .005-.173c-.014-.056-.057-.112-.114-.122c-.056-.014-.122.033-.118.094h.043zm1.076.407c0 .075 0 .145.005.22c.052.01.108.014.165.023c.014 0 .033.005.047-.004q.02-.017.024-.047c.019-.08.019-.168-.038-.23c-.057-.055-.18-.041-.189.038m4.861.131c-.052.042-.08.117-.052.178s.114.094.17.052c.024-.052.047-.108.038-.164s-.085-.099-.132-.061m2.563.004a.2.2 0 0 0 0 .118c.014.037.066.06.099.037c.014-.01.019-.023.024-.037a.24.24 0 0 0 .023-.127c-.005-.042-.038-.084-.08-.089s-.09.038-.076.075m-.246-5.607c-.01.043-.023.085-.014.127c.01.042.043.084.085.08c.066 0 .095-.08.104-.146c.01-.056.01-.13-.043-.154c-.056-.023-.108.038-.141.084"/><path fill="#100342" d="M16.7 6.893c-.01.043-.014.09.005.127s.07.06.108.037c.02-.01.029-.028.038-.047c.014-.037.029-.074.019-.112c-.01-.037-.038-.075-.076-.08c-.037-.004-.08.033-.07.07m-.284.632c0 .052 0 .099.006.15c.07.01.141-.042.15-.112a.13.13 0 0 0-.117-.145a.16.16 0 0 1-.02.093m.604.132a.3.3 0 0 0-.023.163c.009.057.066.103.118.094c.07-.014.084-.112.08-.187c-.005-.052-.01-.113-.052-.14c-.043-.029-.123.004-.104.05"/><path fill="#362745" stroke="#362745" stroke-miterlimit="10" stroke-width=".5" d="M9.754 12.963c.08-.28-.071-.533-.288-.786c-.335-.388-.642-.795-.713-1.338c-.155-1.227.534-2.425 1.67-2.86a2.7 2.7 0 0 1 3.229 1.002q.475.693.476 1.535c0 .515-.165.96-.528 1.329c-.175.173-.321.374-.505.538a.69.69 0 0 0-.25.604c.01.191-.014.383-.01.575v.038l-.004.046c0 .01 0 .099.004.099q-.05-.001-.094.005c-.038 0-.076.004-.113 0c-.071-.01-.137-.01-.208-.014q-.02.001-.047-.005c-.028 0-.052-.005-.08-.005c-.01 0-.02-.005-.033-.005h-.208c0-.028-.005-.056-.005-.084q-.006-.084-.005-.168l-.004-.323q.001-.008-.005-.014q-.008-.006-.014-.005c-.113-.01-.227 0-.34.014q.001.098-.005.201v.056c0 .029 0 .052-.004.08c0 .01-.005.014-.005.019q-.006.016-.005.033a.6.6 0 0 0 .005.159h-.104c-.042 0-.09 0-.132-.01c-.052-.01-.109-.004-.16-.01q-.032.001-.062-.004c-.052 0-.104-.01-.155-.01h-.08l-.08.01c0-.046.004-.098.004-.145q-.001-.034.004-.075c0-.023.005-.046.005-.07q.001-.14-.005-.285a2 2 0 0 0-.377-.033q-.007.16-.019.323c-.005.051-.005.107-.01.164v.042q.001.015-.004.023c-.005.01-.028.01-.038.01a2 2 0 0 1-.203-.005c-.028 0-.061-.005-.09-.005c-.075-.005-.15-.005-.226-.01c-.024 0-.052-.004-.075-.004q-.021-.009-.048-.01l-.08-.004v-.178c0-.023-.005-.047.005-.07c.005-.01 0-.019 0-.028v-.07c0-.061.005-.117.005-.178c.009 0 .009-.019.014-.094Zm1.529-.86l.127.008c.066.005.137.01.203.02q-.035-.106-.075-.207q-.017-.04-.034-.074c-.009-.024-.023-.043-.032-.066q-.006-.01-.005-.019l-.02-.065l-.065-.178l-.033-.08c0 .005-.01.019-.01.019c-.004.01-.014.019-.019.028a3 3 0 0 0-.17.257c-.028.043-.051.09-.08.136c-.014.024-.023.047-.037.066l-.014.028c-.005.018-.024.037-.038.056a.4.4 0 0 0-.052.075h.08c.028 0 .052 0 .08-.005c.01 0 .024-.005.033-.005a.1.1 0 0 1 .043.005c.028 0 .052.005.08.005q.022-.014.038-.005Z"/><path fill="#e0e3bd" stroke="#362745" stroke-miterlimit="10" stroke-width=".5" d="M9.645 12.832c.076-.276-.07-.524-.283-.772c-.33-.384-.632-.782-.698-1.31c-.151-1.203.523-2.373 1.637-2.799a2.65 2.65 0 0 1 3.167.983c.306.454.467.955.472 1.502c0 .505-.16.94-.52 1.301c-.17.173-.311.37-.495.524a.67.67 0 0 0-.245.595c.009.187-.015.374-.01.561v.038c0 .014-.005.032-.005.046c0 .01 0 .094.005.094h-.094c-.038 0-.076.005-.114 0c-.066-.01-.136-.01-.203-.014q-.021.001-.042-.005l-.08-.004c-.01 0-.019-.005-.029-.005h-.202c0-.028-.005-.052-.005-.08c-.005-.056-.005-.107-.005-.163c0-.108-.005-.211-.005-.319q.001-.006-.004-.014q-.008-.005-.014-.004c-.109-.01-.222 0-.33.014q.001.097-.005.196v.056q.001.037-.005.08c0 .01-.005.014-.005.019q-.006.017-.005.032a.6.6 0 0 0 .005.155h-.099c-.043 0-.085 0-.127-.01c-.052-.009-.104-.004-.16-.009q-.032.001-.062-.005c-.052 0-.1-.009-.151-.009h-.08a.4.4 0 0 0-.076.01c0-.047.005-.094.005-.146q-.001-.034.005-.07l.004-.07q.001-.14-.005-.28a2.5 2.5 0 0 0-.368-.034l-.014.319c-.005.051-.005.107-.01.159v.042q.001.016-.004.023c-.005.01-.028.01-.038.01q-.099.004-.198-.005c-.028 0-.061-.005-.09-.005c-.075-.004-.15-.004-.221-.009c-.024 0-.048-.005-.076-.005c-.014 0-.028-.01-.047-.01l-.076-.004v-.173c0-.023-.004-.047.005-.065c.005-.01 0-.02 0-.028v-.07c0-.057.005-.118.005-.174c-.01 0-.01-.014-.005-.089Zm1.5-.847c.043.005.086.005.123.01q.1.005.199.018c-.024-.065-.043-.136-.071-.206c-.01-.028-.024-.051-.033-.075c-.01-.023-.024-.042-.033-.065q-.006-.01-.005-.019l-.019-.065c-.023-.056-.042-.117-.066-.174l-.033-.079c0 .005-.01.014-.01.019c-.004.01-.013.018-.018.028a8 8 0 0 0-.165.252c-.029.043-.052.09-.076.132c-.014.023-.023.042-.038.065l-.014.028c-.004.019-.023.038-.037.052c-.02.023-.034.046-.052.07h.08c.028 0 .052 0 .08-.005c.01 0 .024-.005.033-.005q.02-.001.043.005c.028 0 .052.005.08.005c.01.01.023.01.033.01Z"/><path fill="#362745" d="M12.972 8.223c-.864-.684-1.84-.796-2.85-.347c-1.62.72-2.053 2.855-1.081 3.917c.137.15.24.323.382.473c.128.136.17.28.16.463c-.014.253-.037.51 0 .787l.831.037l.014-.585l.321.01v.542c0 .014-.005.028-.005.047h.081c.056 0 .108.005.165.005c.066.004.137.004.208.009c.06.005.127.005.188.01l.118.004h.014c.01 0 .015 0 .024-.005c0-.014.005-.032.005-.046v-.005q-.001-.01.005-.019l.004-.037v-.454l.321.01l-.014.58c.052 0 .873.037.873.037v-.749q.001-.036-.005-.065c0-.057 0-.113.01-.164a.36.36 0 0 1 .066-.164l.028-.033l.038-.037c.023-.024.047-.052.07-.075c.048-.052.095-.098.142-.15l.137-.15c.047-.051.09-.098.132-.15c.043-.05.09-.098.132-.15l.128-.149c.023-.023.042-.051.066-.075c.16-.196.274-.416.311-.669c.17-1.081-.165-1.98-1.02-2.653m-2.676 4.59h-.047v.07c0 .048-.005.099-.005.146c-.004.098-.01.201-.01.3l-.42-.02c0-.041.006-.084.006-.126q.008-.139.009-.285a6 6 0 0 0 .01-.3l.004-.112c0-.019-.005-.038-.005-.052c0-.018-.004-.037-.004-.056c0-.01-.005-.014-.005-.023c-.005-.005-.005-.014-.01-.019a.2.2 0 0 0-.018-.042l-.043-.084q-.022-.04-.052-.08a.3.3 0 0 0-.037-.047c-.199-.238-.387-.486-.576-.734c-.27-.365-.316-.791-.264-1.222c.118-.968.627-1.67 1.538-2.03c.901-.356 1.755-.207 2.473.434c.731.65 1 1.48.764 2.448c-.056.248-.217.426-.377.604q-.299.329-.604.65c-.01.01-.02.014-.024.024c0 .004 0 .004-.005.009c-.004.005-.004.01-.009.014l-.019.028c-.005.005-.005.01-.01.014c-.004.005-.004.005-.004.01l-.028.056c-.02.042-.029.089-.038.135q-.006.036-.005.07v.824c-.005.005-.01 0-.01 0h-.018q-.038.001-.076-.004l-.311-.014c.005-.09.005-.178.01-.263l.004-.088v-.146l-.061-.009q-.036-.009-.071-.01l-.151-.013q-.078-.006-.156-.005h-.288l-.019.538l-.42-.019l.02-.528l-.076-.014q-.076-.013-.151-.02l-.156-.008q-.078.001-.156-.005h-.075"/><path fill="#362745" d="M11.344 11.25c-.005-.004-.005-.014-.01-.018c-.009-.014-.014-.033-.023-.047l-.014-.028c-.005-.01-.01-.014-.014-.024c-.02-.028-.034-.06-.052-.088c-.01-.015-.014-.029-.024-.047c0-.005-.005-.01-.005-.01q-.002-.008-.004-.01q-.006-.001-.005.006c0 .004-.005.004-.005.009s-.005.01-.005.014l-.014.023a1 1 0 0 0-.052.09a1 1 0 0 0-.052.088c-.023.038-.042.075-.066.117c-.009.014-.014.028-.023.038q-.016.021-.024.042l-.028.047c-.01.014-.019.032-.028.046c-.01.02-.02.033-.029.052l-.028.051q-.015.03-.028.052l-.029.051l-.028.052l-.028.051c-.01.019-.02.033-.029.052c-.009.014-.018.033-.028.047a.2.2 0 0 0-.024.042l-.023.042c-.005.014-.014.023-.019.037q-.01.014-.019.033l-.014.028a.04.04 0 0 0-.01.019c-.004.005-.004.01-.009.014l-.005.005h.005q.04-.001.08.004h.958l.17.005h.005c-.01-.028-.024-.052-.033-.08a84 84 0 0 0-.387-.805q0 .008 0 0m-.486.707l.335-.566c.08.215.146.383.226.59c-.193-.01-.354-.02-.561-.024"/><path fill="#e0e3bd" d="M8.182 8.349c0 .023.005.042.005.06zm0 0c0 .023.005.042.005.06z"/><path stroke="#362745" stroke-miterlimit="10" stroke-width="2" d="M8.182 8.349c0 .023.005.042.005.06Zm0 0c0 .023.005.042.005.06z"/><path fill="#e0e3bd" d="M18.173 17.288c-.24-.192-.42-.44-.647-.656c.014-.238.043-.454.043-.669c-.005-.59.033-1.18-.014-1.769c-.029-.36.07-.707.17-1.053c.193-.66.084-1.338-.015-1.989a6 6 0 0 1-.047-1.371c.033-.403.038-.805.07-1.207c.043-.571.095-1.133-.051-1.709c-.127-.486-.156-.996-.354-1.464c-.156-.365-.156-.365-.637-.997c-.43-.45-.495-.454-.864-.674c-.283-.169-.561-.328-.906-.36c-.439-.043-.844-.234-1.279-.305c-.755-.121-1.5-.056-2.246.056c-1 .155-1.987.347-2.756 1.105c-.363.36-.736.702-.892 1.203c-.042.14-.137.262-.207.388c-.326.548-.25.796-.298 1.507c.029.051-.066.36-.099.445c-.042.477-.047.173-.042.379q.019.935.023 1.862c.005.562.029 1.123-.075 1.676c-.113.585-.104 1.174-.109 1.764c0 .131.005.267-.028.393c-.1.44-.075.88-.052 1.32c.033.599.005 1.193.076 1.806c-.35.272-.694.543-1.043.805c-.123.09-.194.187-.194.346c.01.66.01 1.32.014 1.98c0 .178.085.276.27.29q1.28.076 2.552.16c1.105.07 2.204.135 3.309.205c1.25.08 2.5.164 3.751.244q.254.015.472-.117c.656-.394 1.317-.787 1.977-1.17c.16-.094.222-.216.222-.398c.005-.576.019-1.151.033-1.722c0-.117-.023-.225-.127-.304M7.314 14.33c.057-.393.109-.782.1-1.18c-.015-.514.046-1.02.122-1.525c.104-.702.066-1.409.052-2.115c-.005-.258-.01-.515-.005-.768q.001-.099.01-.197q.008-.054.009-.117c0-.018.014-.032.028-.046l.062-.07l.019-.015c.004 0 .014 0 .018.005c.085.038.232.173.236.183c0 .004.17.13.17.135c.005.005-.104.239-.104.248c.203 0 .151-.065.317-.36c.009-.019-.166-.136-.166-.16c-.028-.027-.037-.065-.051-.097a.4.4 0 0 0-.062-.113c-.014-.018-.028-.032-.042-.051l-.043-.042a.04.04 0 0 1-.014-.033c-.005-.019-.014-.033-.019-.052a1 1 0 0 1-.052-.135q-.048-.136-.09-.276a6 6 0 0 0-.089-.281l-.057-.15c.033-.44.118-.861.41-1.217a1 1 0 0 0 .142-.29c.133-.43.425-.74.76-1.015c.208-.174.397-.38.637-.496c.005-.005.024.009.029.009l.028.014a.13.13 0 0 1 .042.047c.02.023.024.056.038.08q.015.036.028.074c.02.052.038.098.052.15c.005.01.005.014.01.019c0 .004.005.009.005.009s.009.005.014.005c.019.004.037.014.056.018c.005 0-.019.127-.019.136v.024c0 .018-.004.042-.004.06c-.005.043-.005.085-.01.127c0 .014-.004.033 0 .047c.005.014.01.023.014.037c.038.075.057.356.057.356s.062-.16.057-.169c-.005-.014-.005-.023-.01-.037l-.014-.075q-.008-.049-.014-.103c0-.014-.005-.023-.005-.038c0-.009-.004-.014 0-.023q.006-.022.02-.037c.004-.014.013-.028.018-.042c0 0 .028.004.033.009q.015.009.028.01a.2.2 0 0 1 .076.027a.1.1 0 0 1 .028.019l.014.028q.034.093.076.187c.005.01.01.024.019.033q.015.013.028.019l.189.112c-.028-.047-.071-.084-.109-.13a.5.5 0 0 1-.108-.244q-.006-.029-.005-.056c-.047-.033-.094-.061-.142-.094c-.018-.014-.042-.023-.056-.037a.04.04 0 0 1-.01-.024c-.004-.014-.01-.023-.014-.037c-.019-.052-.033-.103-.052-.15c-.004-.014-.01-.033-.023-.038c-.005-.004-.014-.004-.024-.009c-.014-.01-.019-.028-.023-.042l-.015-.06a.2.2 0 0 1-.01-.052V4.24c-.004-.033-.013-.066-.013-.098a.4.4 0 0 1 .061-.244c1.44-.21 2.893-.383 4.158.716v.656c0 .018 0 .042-.01.06c-.005.005-.005.01-.01.02a.1.1 0 0 1-.018.037l-.047.074q-.032.042-.048.09c.005-.005.01-.005.015-.01l.014-.014a.1.1 0 0 1 .033-.023q.034-.022.061-.052c.01-.01.014-.019.024-.033s.019-.037.028-.051a.12.12 0 0 0 .028-.061c.005-.01.01-.014.01-.023c.005-.01.005-.02.01-.033c.004-.024.009-.042.014-.066c.018-.093.023-.187.037-.28c.005-.038.014-.07.024-.108c.391.304.797.57.854 1.104c.047.45.127.89.255 1.325c.037.126.07.257.07.388c0 .875.043 1.746-.099 2.616c-.075.463-.07.946-.075 1.418c0 .506-.028 1.011-.075 1.512c-.048.491-.048.978.075 1.455c.066.253.024.506-.005.763c-.056.5-.08 1.006-.113 1.512c-.01.121-.005.248-.057.379c-2.567-.14-5.13-.281-7.706-.426l-.01-.084l-.014-.099a3 3 0 0 1-.018-.192c-.005-.065 0-.126.004-.187v-.023c0-.023.005-.052.01-.07l.014-.075a1 1 0 0 1 .052-.169l.01-.023l.023-.014c.123-.047.24-.094.363-.14c.014-.005.02-.024.029-.038a.3.3 0 0 1 .033-.042c.009-.01.023-.019.033-.028a1.3 1.3 0 0 0 .09-.182q.015-.03.023-.052q-.001-.008.005-.014c.014-.024.047-.042.066-.056a.5.5 0 0 0 .108-.113c-.038.02-.066.042-.104.066a.2.2 0 0 1-.052.023q-.005-.001-.018.005c-.005 0-.005.005-.005.005l-.028.037l-.057.084q-.036.049-.07.103c-.024.038-.039.075-.076.094q-.016.008-.038.014c-.118.037-.24.08-.359.117c-.023.01-.047.014-.07.033v-.047c.004-.024 0-.047.004-.066v-.093c0-.066-.005-.127-.005-.192c-.004-.127-.014-.253-.018-.375a2.5 2.5 0 0 1-.01-.72m-.104 3.037c.066-.052.151-.037.227-.033c1.515.085 3.03.164 4.544.248q1.485.086 2.978.164c.047.005.095.014.146.019c.095.187.17.379.227.613c-2.893-.187-5.762-.37-8.683-.557c.198-.197.387-.318.561-.454m8.273 3.13c-.212.034-.42.006-.614-.018c-.009 0-.018-.01-.023-.014c-.01-.005-.014-.01-.024-.019a.3.3 0 0 1-.042-.037c-.029-.028-.047-.066-.076-.094c-.01-.009-.023-.018-.028-.028q-.013-.027-.019-.056q.001-.006-.005-.019q-.008-.005-.01-.018a.4.4 0 0 1-.056-.09c-.005-.009-.005-.023-.005-.032c.005-.028-.009-.056-.018-.08l-.014-.065a.04.04 0 0 0-.01-.019q-.016-.02-.038-.033a2 2 0 0 0-.099-.103a.3.3 0 0 0-.042-.032c.01.004.014.018.023.028q.009.014.024.028c.014.019.028.037.038.065c0 .01.01.024.014.033a.5.5 0 0 1 .042.192c.005.033.005.07.01.103c0 0 .023.01.028.01q.006.007.005.023q.016.034.037.07l.015.028v.08c0 .009 0 .023-.005.032c-.01.014-.028.024-.024.042c-.018 0-.047.005-.066 0q-.007.001-.014-.004c-.033-.005-.061-.005-.094-.005q-.093-.009-.184-.01c-.534-.032-1.067-.07-1.6-.102l-1.6-.103l-1.6-.103l-1.6-.103c-.268-.019-.533-.033-.802-.052a14 14 0 0 0-.4-.023l-.392-.028v-.45l.004-.004l.01-.01c.004-.009.01-.013.014-.023l.038-.051c.014-.019.033-.038.047-.056c.005-.01.01-.014.014-.024a.2.2 0 0 1 .033-.023c.014-.01.028-.014.043-.024q.04-.022.09-.037a.12.12 0 0 1 .07-.01a.1.1 0 0 1 .052.029a.5.5 0 0 0 .17.089c.014.004.019-.01.028-.014a.4.4 0 0 1 .094-.066c.015-.01.029-.014.043-.023a.6.6 0 0 1 .18-.033a.6.6 0 0 0-.142-.028c-.029 0-.057 0-.08.014l-.01.01l-.019.013l-.042.028c-.005 0-.005.005-.01.005q-.016.007-.023.019c-.005.004-.02.014-.029.014q-.008-.001-.023-.01c-.005-.004-.014-.004-.02-.009l-.037-.023c-.038-.028-.075-.066-.113-.099c-.005-.004-.01-.004-.014-.009h-.02c-.013.005-.028.005-.042.01c-.01 0-.014.004-.023.004h-.014c-.015 0-.029.005-.043.005l-.061.014a3 3 0 0 0-.18.047v-.941c3.096.197 6.182.398 9.283.594zM14.6 4.47l-.136-.192h-.062c-.01 0-.014-.009-.023-.009l-.142-.112a4 4 0 0 0-.293-.21a4.4 4.4 0 0 0-.627-.366c-.1-.01-.18-.056-.293-.126c.123.018.208.033.293.047c.292-.005.566.088.845.173c.217.065.434.135.66.154c.345.024.614.206.883.389c.212.145.283.383.349.608c.047.173-.118.248-.222.346v.019c0 .01.005.019.005.028c.005.019.014.033.019.052q.029.054.052.107a.3.3 0 0 1 .023.117c0 .01-.014.019-.019.024c-.028.037-.061.074-.09.107l.199-.065c.014-.014.023-.028.038-.038l.042-.032c-.014-.01-.014-.015-.014-.029l-.014-.06l-.014-.057c0-.009-.005-.018-.005-.028c0-.004-.01-.023-.005-.028c.052-.103.165-.121.222-.187c.35.023.543.206.642.52c.127.397.16.818.278 1.216c.203.712.076 1.414.024 2.12c-.029.407.014.824-.066 1.226c-.033.155-.071.3-.194.389c-.042.173-.004.332-.014.491a.34.34 0 0 1-.099.117a1 1 0 0 1-.108.09l-.005.004c-.033.023-.071.047-.1.075l-.042.042c-.014.014-.033.023-.052.037q-.05.03-.099.066c-.01.01-.023.014-.028.028l-.019.019l-.019.018q-.009.008-.01.014c0 .005.005.005.005.01c.024.028.033.07.052.103q.01.012.02.032q.005.006.004.02q.015.028.014.055v.028c-.005.02.005.038-.01.052c-.018.019-.042.037-.06.056a.1.1 0 0 1-.03.023c-.018.02-.041.033-.06.052c-.005.005-.01.005-.01.01q-.007.007 0 .023l.043.313c0 .014.004.033.004.052q-.005.02-.004.046q0 .065.01.122l.089-.435c.066-.122.231-.145.273-.267c0-.107-.099-.136-.132-.23l.552-.402c.005-.093.015-.206.02-.322c.065.014.075.065.08.107c.033.632.188 1.264.051 1.9c-.047.23-.127.45-.155.679c-.076.646.023 1.287.01 1.928c-.01.323.032.65-.076.987c-.472.244-.949.464-1.463.707c.023-.286.033-.538.061-.791c.043-.407.024-.824.113-1.226c.038-.173.024-.36-.019-.534c-.146-.561-.141-1.123-.07-1.689c.075-.618.056-1.24.066-1.863c.01-.622.104-1.235.137-1.858c.033-.65.09-1.305-.024-1.946c-.09-.51-.236-1.011-.297-1.53a1.44 1.44 0 0 0-.543-.95c-.113-.094-.217-.193-.33-.29c-.029-.024-.052-.048-.08-.076c-.005-.004-.01-.004-.01-.01c-.01-.008-.01-.018-.014-.032zm2.483 12.79s.004.005.01.005c.004 0 .004 0 .009.005q.013 0 .018.01q.014.014.02.027l.004.047c0 .033.005.07 0 .103c0 .019 0 .033-.005.051v.02c0 .008.01.008.02.013a.06.06 0 0 1 .027.028c.005.01.01.019.005.028q-.001.017-.01.024q-.013.025-.042.037a1 1 0 0 0-.122.066c-.378.196-.755.398-1.152.603a3.5 3.5 0 0 1-.245-.603c.524-.244 1.043-.487 1.566-.735c.175.108.284.271.411.412c-.07.08-.16.103-.25.145l-.028-.014l-.033-.019c-.01-.005-.02-.014-.034-.014a.1.1 0 0 1-.042-.023q-.006-.006-.005-.02q-.008-.025-.01-.05a.3.3 0 0 0-.018-.066l-.019-.06zm.32 1.269v-.07c0-.015 0-.033.01-.047c.005-.01.005-.014.01-.02l.004-.008l.047-.07a.45.45 0 0 0 .118-.333c.052-.037.104-.08.194-.075c.033.459.01.936-.005 1.423c-.594.35-1.19.702-1.807 1.062v-1.586q.72-.378 1.439-.75a.2.2 0 0 1 .028.067c.005.014 0 .032 0 .046c0 .01-.004.014-.01.024q0 .005-.009.018c-.004.005-.014.014-.018.02c-.01.004-.015.013-.024.023a.1.1 0 0 0-.024.032q-.008.007-.01.019a.04.04 0 0 0-.009.023c-.014.024-.028.052-.047.075q-.017.016-.019.038q-.001.007.005.014v.182c0 .033.005.061.005.094a.14.14 0 0 1-.019.075l-.014.014s-.005.005-.005.01c0 .004-.005.004-.01.009a.6.6 0 0 1-.117.093q.043-.006.08-.023c.019-.01.038-.024.061-.033c.005 0 .01-.01.02-.01h.004c.01-.014.014-.027.023-.046c.005-.005.005-.014.01-.024l.01-.023l.004-.014a.3.3 0 0 1 .019-.056c.005-.01.005-.019.01-.028l.004-.019q-.001-.016.005-.023q0-.017.014-.024h.01z"/><path stroke="#362745" stroke-miterlimit="10" stroke-width=".5" d="m14.6 4.47l-.136-.193h-.062c-.01 0-.014-.009-.023-.009l-.142-.112a4 4 0 0 0-.293-.21a4.4 4.4 0 0 0-.627-.366c-.1-.01-.18-.056-.293-.126c.123.018.208.033.293.047c.292-.005.566.088.845.173c.217.065.434.135.66.154c.345.024.614.206.883.389c.212.145.283.383.349.608c.047.173-.118.248-.222.346v.019c0 .01.005.019.005.028c.005.019.014.033.019.052q.029.054.052.107a.3.3 0 0 1 .023.117c0 .01-.014.019-.019.024c-.028.037-.061.074-.09.107l.199-.065c.014-.014.023-.028.038-.038l.042-.032c-.014-.01-.014-.015-.014-.029l-.014-.06l-.014-.057c0-.009-.005-.018-.005-.028c0-.004-.01-.023-.005-.028c.052-.103.165-.121.222-.187c.35.023.543.206.642.52c.127.397.16.818.278 1.216c.203.712.076 1.414.024 2.12c-.029.407.014.824-.066 1.226c-.033.155-.071.3-.194.389c-.042.173-.004.332-.014.491a.34.34 0 0 1-.099.117a1 1 0 0 1-.108.09l-.005.004c-.033.023-.071.047-.1.075l-.042.042c-.014.014-.033.023-.052.037q-.05.03-.099.066c-.01.01-.023.014-.028.028l-.019.019l-.019.018q-.009.008-.01.014c0 .005.005.005.005.01c.024.028.033.07.052.103q.01.012.02.032q.005.006.004.02q.015.028.014.055v.028c-.005.02.005.038-.01.052c-.018.019-.042.037-.06.056a.1.1 0 0 1-.03.023c-.018.02-.041.033-.06.052c-.005.005-.01.005-.01.01q-.007.007 0 .023l.043.313c0 .014.004.033.004.052q-.005.02-.004.046q0 .065.01.122l.089-.435c.066-.122.231-.145.273-.267c0-.107-.099-.136-.132-.23l.552-.402c.005-.093.015-.206.02-.322c.065.014.075.065.08.107c.033.632.188 1.264.051 1.9c-.047.23-.127.45-.155.679c-.076.646.023 1.287.01 1.928c-.01.323.032.65-.076.987c-.472.244-.949.464-1.463.707c.023-.286.033-.538.061-.791c.043-.407.024-.824.113-1.226c.038-.173.024-.36-.019-.534c-.146-.561-.141-1.123-.07-1.689c.075-.618.056-1.24.066-1.863c.01-.622.104-1.235.137-1.858c.033-.65.09-1.305-.024-1.946c-.09-.51-.236-1.011-.297-1.53a1.44 1.44 0 0 0-.543-.95c-.113-.094-.217-.193-.33-.29c-.029-.024-.052-.048-.08-.076Zm0 0c-.004-.005-.009-.005-.009-.01c-.01-.01-.01-.019-.014-.033zm2.558 12.808l.019.06c.01.024.014.043.019.066c0 .02.005.033.01.052q-.001.013.004.019c.01.009.028.018.043.023c.014 0 .023.01.033.014l.033.019l.028.014c.09-.042.18-.066.25-.145c-.127-.14-.236-.304-.41-.412c-.524.248-1.043.491-1.567.735c.07.22.141.412.245.603c.397-.206.774-.407 1.152-.603q.057-.037.122-.066c.02-.01.033-.018.043-.037a.04.04 0 0 0 .01-.024q.005-.013-.006-.028a.05.05 0 0 0-.028-.028c-.01-.005-.019-.005-.019-.014v-.019c.005-.018.005-.032.005-.051c.005-.033 0-.07 0-.103c0-.019-.005-.033-.005-.047a.1.1 0 0 0-.019-.028q-.005-.009-.018-.01c-.005-.004-.005-.004-.01-.004s-.01-.005-.01-.005zm0 0l-.099-.037m1.114.047c-.24-.192-.42-.44-.647-.656c.014-.238.043-.454.043-.669c-.005-.59.033-1.18-.014-1.769c-.029-.36.07-.707.17-1.053c.193-.66.084-1.338-.015-1.989a6 6 0 0 1-.047-1.371c.033-.403.038-.805.07-1.207c.043-.571.095-1.133-.051-1.709c-.127-.486-.156-.996-.354-1.464c-.156-.365-.156-.365-.637-.997c-.43-.45-.495-.454-.864-.674c-.283-.169-.561-.328-.906-.36c-.439-.043-.844-.234-1.279-.305c-.755-.121-1.5-.056-2.246.056c-1 .155-1.987.347-2.756 1.105c-.363.36-.736.702-.892 1.203c-.042.14-.137.262-.207.388c-.326.548-.25.796-.298 1.507c.029.051-.066.36-.099.445c-.042.477-.047.173-.042.379q.019.935.023 1.862c.005.562.029 1.123-.075 1.676c-.113.585-.104 1.174-.109 1.764c0 .131.005.267-.028.393c-.1.44-.075.88-.052 1.32c.033.599.005 1.193.076 1.806c-.35.272-.694.543-1.043.805c-.123.09-.194.187-.194.346c.01.66.01 1.32.014 1.98c0 .178.085.276.27.29q1.28.076 2.552.16c1.105.07 2.204.135 3.309.205c1.25.08 2.5.164 3.751.244q.254.015.472-.117c.656-.394 1.317-.787 1.977-1.17c.16-.094.222-.216.222-.398c.005-.576.019-1.151.033-1.722c0-.117-.023-.225-.127-.304ZM7.314 14.33c.057-.393.109-.782.1-1.18c-.015-.514.046-1.02.122-1.525c.104-.702.066-1.409.052-2.115c-.005-.258-.01-.515-.005-.768q.001-.099.01-.197q.008-.054.009-.117c0-.018.014-.032.028-.046l.062-.07l.019-.015c.004 0 .014 0 .018.005c.085.038.232.173.236.183c0 .004.17.13.17.135c.005.005-.104.239-.104.248c.203 0 .151-.065.317-.36c.009-.019-.166-.136-.166-.16c-.028-.027-.037-.065-.051-.097a.4.4 0 0 0-.062-.113c-.014-.018-.028-.032-.042-.051l-.043-.042a.04.04 0 0 1-.014-.033c-.005-.019-.014-.033-.019-.052a1 1 0 0 1-.052-.135q-.048-.136-.09-.276a6 6 0 0 0-.089-.281l-.057-.15c.033-.44.118-.861.41-1.217a1 1 0 0 0 .142-.29c.133-.43.425-.74.76-1.015c.208-.174.397-.38.637-.496c.005-.005.024.009.029.009l.028.014a.13.13 0 0 1 .042.047c.02.023.024.056.038.08q.015.036.028.074c.02.052.038.098.052.15c.005.01.005.014.01.019c0 .004.005.009.005.009s.009.005.014.005c.019.004.037.014.056.018c.005 0-.019.127-.019.136v.024c0 .018-.004.042-.004.06c-.005.043-.005.085-.01.127c0 .014-.004.033 0 .047c.005.014.01.023.014.037c.038.075.057.356.057.356s.062-.16.057-.169c-.005-.014-.005-.023-.01-.037l-.014-.075q-.008-.049-.014-.103c0-.014-.005-.023-.005-.038c0-.009-.004-.014 0-.023q.006-.022.02-.037c.004-.014.013-.028.018-.042c0 0 .028.004.033.009q.015.009.028.01a.2.2 0 0 1 .076.027a.1.1 0 0 1 .028.019l.014.028q.034.093.076.187c.005.01.01.024.019.033q.015.013.028.019l.189.112c-.028-.047-.071-.084-.109-.13a.5.5 0 0 1-.108-.244q-.006-.029-.005-.056c-.047-.033-.094-.061-.142-.094c-.018-.014-.042-.023-.056-.037a.04.04 0 0 1-.01-.024c-.004-.014-.01-.023-.014-.037c-.019-.052-.033-.103-.052-.15c-.004-.014-.01-.033-.023-.038c-.005-.004-.014-.004-.024-.009c-.014-.01-.019-.028-.023-.042l-.015-.06a.2.2 0 0 1-.01-.052V4.24c-.004-.033-.013-.066-.013-.098a.4.4 0 0 1 .061-.244c1.44-.21 2.893-.383 4.158.716v.656c0 .018 0 .042-.01.06c-.005.005-.005.01-.01.02a.1.1 0 0 1-.018.037l-.047.074q-.032.042-.048.09c.005-.005.01-.005.015-.01l.014-.014a.1.1 0 0 1 .033-.023q.034-.022.061-.052c.01-.01.014-.019.024-.033s.019-.037.028-.051a.12.12 0 0 0 .028-.061c.005-.01.01-.014.01-.023c.005-.01.005-.02.01-.033c.004-.024.009-.042.014-.066c.018-.093.023-.187.037-.28c.005-.038.014-.07.024-.108c.391.304.797.57.854 1.104c.047.45.127.89.255 1.325c.037.126.07.257.07.388c0 .875.043 1.746-.099 2.616c-.075.463-.07.946-.075 1.418c0 .506-.028 1.011-.075 1.512c-.048.491-.048.978.075 1.455c.066.253.024.506-.005.763c-.056.5-.08 1.006-.113 1.512c-.01.121-.005.248-.057.379c-2.567-.14-5.13-.281-7.706-.426l-.01-.084l-.014-.099a3 3 0 0 1-.018-.192c-.005-.065 0-.126.004-.187v-.023c0-.023.005-.052.01-.07l.014-.075a1 1 0 0 1 .052-.169l.01-.023l.023-.014c.123-.047.24-.094.363-.14c.014-.005.02-.024.029-.038a.3.3 0 0 1 .033-.042c.009-.01.023-.019.033-.028a1.3 1.3 0 0 0 .09-.182q.015-.03.023-.052q-.001-.008.005-.014c.014-.024.047-.042.066-.056a.5.5 0 0 0 .108-.113c-.038.02-.066.042-.104.066a.2.2 0 0 1-.052.023q-.005-.001-.018.005c-.005 0-.005.005-.005.005l-.028.037l-.057.084q-.036.049-.07.103c-.024.038-.039.075-.076.094q-.016.008-.038.014c-.118.037-.24.08-.359.117c-.023.01-.047.014-.07.033v-.047c.004-.024 0-.047.004-.066v-.093c0-.066-.005-.127-.005-.192c-.004-.127-.014-.253-.018-.375a2.5 2.5 0 0 1-.01-.72Zm-.104 3.037c.066-.052.151-.037.227-.033c1.515.085 3.03.164 4.544.248q1.485.086 2.978.164c.047.005.095.014.146.019c.095.187.17.379.227.613c-2.893-.187-5.762-.37-8.683-.557c.198-.197.387-.318.561-.454Zm8.273 3.13c-.212.034-.42.006-.614-.018c-.009 0-.018-.01-.023-.014c-.01-.005-.014-.01-.024-.019a.3.3 0 0 1-.042-.037c-.029-.028-.047-.066-.076-.094c-.01-.009-.023-.018-.028-.028q-.013-.027-.019-.056q.001-.006-.005-.019q-.008-.005-.01-.018a.4.4 0 0 1-.056-.09c-.005-.009-.005-.023-.005-.032c.005-.028-.009-.056-.018-.08l-.014-.065a.04.04 0 0 0-.01-.019q-.016-.02-.038-.033a2 2 0 0 0-.099-.103a.3.3 0 0 0-.042-.032c.01.004.014.018.023.028q.009.014.024.028c.014.019.028.037.038.065c0 .01.01.024.014.033a.5.5 0 0 1 .042.192c.005.033.005.07.01.103c0 0 .023.01.028.01q.006.007.005.023q.016.034.037.07l.015.028v.08c0 .009 0 .023-.005.032c-.01.014-.028.024-.024.042c-.018 0-.047.005-.066 0q-.007.001-.014-.004c-.033-.005-.061-.005-.094-.005q-.093-.009-.184-.01c-.534-.032-1.067-.07-1.6-.102l-1.6-.103l-1.6-.103l-1.6-.103c-.268-.019-.533-.033-.802-.052a14 14 0 0 0-.4-.023l-.392-.028v-.45l.004-.004l.01-.01c.004-.009.01-.013.014-.023l.038-.051c.014-.019.033-.038.047-.056c.005-.01.01-.014.014-.024a.2.2 0 0 1 .033-.023c.014-.01.028-.014.043-.024q.04-.022.09-.037a.12.12 0 0 1 .07-.01a.1.1 0 0 1 .052.029a.5.5 0 0 0 .17.089c.014.004.019-.01.028-.014a.4.4 0 0 1 .094-.066c.015-.01.029-.014.043-.023a.6.6 0 0 1 .18-.033a.6.6 0 0 0-.142-.028c-.029 0-.057 0-.08.014l-.01.01l-.019.013l-.042.028c-.005 0-.005.005-.01.005q-.016.007-.023.019c-.005.004-.02.014-.029.014q-.008-.001-.023-.01c-.005-.004-.014-.004-.02-.009l-.037-.023c-.038-.028-.075-.066-.113-.099c-.005-.004-.01-.004-.014-.009h-.02c-.013.005-.028.005-.042.01c-.01 0-.014.004-.023.004h-.014c-.015 0-.029.005-.043.005l-.061.014a3 3 0 0 0-.18.047v-.941c3.096.197 6.182.398 9.283.594zm1.92-1.97v-.07c0-.014 0-.032.01-.046c.005-.01.005-.014.01-.02c0-.004.004-.004.004-.008l.047-.07a.45.45 0 0 0 .118-.333c.052-.037.104-.08.194-.075c.033.459.01.936-.005 1.423c-.594.35-1.19.702-1.807 1.062v-1.586q.72-.378 1.439-.75a.2.2 0 0 1 .028.067c.005.014 0 .032 0 .046c0 .01-.004.014-.01.024q0 .005-.009.018c-.004.005-.014.014-.018.02c-.01.004-.015.013-.024.023a.1.1 0 0 0-.024.032q-.008.007-.01.019a.04.04 0 0 0-.009.023c-.014.024-.028.052-.047.075q-.017.016-.019.038q-.001.007.005.014v.182c0 .033.005.061.005.094a.14.14 0 0 1-.019.075l-.014.014s-.005.005-.005.01c0 .004-.005.004-.01.009a.6.6 0 0 1-.117.093q.043-.006.08-.023c.019-.01.038-.024.061-.033c.005 0 .01-.01.02-.01h.004c.01-.014.014-.027.023-.046c.005-.005.005-.014.01-.024l.01-.023l.004-.014a.3.3 0 0 1 .019-.056c.005-.01.005-.019.01-.028l.004-.019q-.001-.016.005-.023q0-.017.014-.024h.01z"/><path fill="#6b00fa" stroke="#362745" stroke-miterlimit="10" stroke-width=".5" d="M12.014 10.352a.63.63 0 0 0-.042.585a.3.3 0 0 0 .108.14c.104.061.236.005.345-.051c.141-.075.287-.164.344-.314a.42.42 0 0 0-.028-.337a.6.6 0 0 0-.118-.173c-.033-.033-.061-.075-.113-.08a.53.53 0 0 0-.496.23Zm-2.147.033a.5.5 0 0 0-.071.21c-.01.127.052.243.108.356a.14.14 0 0 0 .043.06a.2.2 0 0 0 .066.024a.7.7 0 0 0 .632-.243a.4.4 0 0 0 .066-.117a.6.6 0 0 0 .015-.197c-.005-.093-.015-.201-.085-.267a.4.4 0 0 0-.118-.075a1 1 0 0 0-.17-.079a.25.25 0 0 0-.132.019a.6.6 0 0 0-.255.173l-.057.065c-.01.014-.019.024-.023.038c-.005.005-.01.023-.02.033Z"/><path fill="#362745" d="M10.169 11.166a.65.65 0 0 1-.651-.646a.65.65 0 0 1 .65-.645a.65.65 0 0 1 .652.645a.65.65 0 0 1-.651.646m0-1.104a.46.46 0 0 0-.463.458c0 .253.208.459.463.459a.46.46 0 0 0 .462-.459a.46.46 0 0 0-.462-.458m2.095 1.151a.65.65 0 0 1-.651-.646a.65.65 0 0 1 .651-.646a.65.65 0 0 1 .651.646a.65.65 0 0 1-.65.646m0-1.104a.46.46 0 0 0-.462.458a.461.461 0 0 0 .925 0a.46.46 0 0 0-.463-.459"/><path fill="#362745" d="M9.867 10.937c-.066-.098-.227-.21-.227-.323c0-.332.16-.6.496-.6h.255c.037.038.075.071.103.109a.508.508 0 0 0-.632.491c0 .136.052.257.142.35zm2.247.084c-.048-.005-.303-.103-.35-.112c-.066-.098 0-.463 0-.585c0-.318.387-.285.703-.304l.095.14a.508.508 0 0 0-.604.496a.53.53 0 0 0 .155.365"/></g></svg>