<svg xmlns="http://www.w3.org/2000/svg" viewBox="0 0 24 24"><g fill="none"><path fill="url(#SVGInWAxctY)" d="M3 4.658v1.904l1.843 1.824l4.016 1.09v.852l1.616 3.998v1.322l1.51 1.672v.033l.015-.014l.014.014v-.033l1.511-1.672v-1.326l1.61-3.998V9.47l4.027-1.09L21 6.562V4.658l-.488 1.322l-1.355.815l-4.017.696l-3.126-.692v-.004h-.028v.004l-3.127.692l-4.016-.696l-1.355-.815z"/><path fill="url(#SVGQWJ1ydJy)" d="m7.263 15.05l.975-4.386l1.535 3.723l-.355 1.516l2.108 2.179v1.26z"/><path fill="url(#SVGigpVDGQK)" d="m16.737 15.05l-.976-4.386l-1.534 3.723l.355 1.516l-2.108 2.179v1.26z"/><defs><linearGradient id="SVGInWAxctY" x1="3.9" x2="20.628" y1="7.31" y2="6.995" gradientUnits="userSpaceOnUse"><stop stop-color="#380d78"/><stop offset=".43" stop-color="#56758a"/><stop offset=".75" stop-color="#7bf29e"/><stop offset=".93" stop-color="#8fd5b8"/><stop offset="1" stop-color="#a7acc2"/></linearGradient><linearGradient id="SVGQWJ1ydJy" x1="3" x2="9.432" y1="9.675" y2="22.03" gradientUnits="userSpaceOnUse"><stop stop-color="#24153e"/><stop offset="1" stop-color="#77e397"/></linearGradient><linearGradient id="SVGigpVDGQK" x1="14.605" x2="14.605" y1="10.664" y2="19.342" gradientUnits="userSpaceOnUse"><stop stop-color="#a69bd7"/><stop offset=".3" stop-color="#84e7ae"/><stop offset=".48" stop-color="#70d78f"/><stop offset="1" stop-color="#3d5f5e"/></linearGradient></defs></g></svg>