<?xml version="1.0" encoding="UTF-8"?>
<svg id="Layer_1" xmlns="http://www.w3.org/2000/svg" version="1.1" viewBox="0 0 1024 1024">
  <!-- Generator: Adobe Illustrator 29.7.1, SVG Export Plug-In . SVG Version: 2.1.1 Build 8)  -->
  <path fill="#39b9ff" d="M797.56,348.33c30.91,6.66,83.06,31.07,87.21,66.41,3.15,26.85-13.06,79.89-19.48,108.33-18.08,80.05-35.49,169.43-58.24,247.51-37.84,129.87-259.97,143.84-369.81,131-79.98-9.34-191.79-42.13-218.72-127.8l-79.09-341.68c-6.97-50.68,49.68-73.96,89.21-85.61,54.67-16.12,110.4-16.62,167.08-15.62l-45.47,16.39c-44.91,18.53-101.62,26.35-145.23,45.5-15.84,6.96-26.94,19.89-14.58,36.36,18.56,24.72,115.14,56.1,146.77,62.89,82.16,17.65,152.89,2.18,231.43-22.46,54.98-17.25,130.36-44.86,168.52-89.18,25.27-29.35,31.42-69.3,44.38-104.84l-243.09,42.99-2,3.82c-1.45,15.08-2.76,30.11-6.03,44.92-31.75,143.69-186.99,93.71-283.19,53.84l1.47-2.15c82.39-23.86,163.75-50.91,245.03-78.2,5.91-3.48,5.08-25.81,7.22-33.55,3.45-12.47,12.22-19.65,23.97-24.08l282.88-49.24c14.15,3.11,20.4,11.87,18.9,26.37l-29.13,88.06v.02ZM841.24,457.54l-19.61,14.59c-113.51,75.99-355.25,76.96-485.87,53.37-58.02-10.48-91.56-24.33-143.96-48.22-1.22-.56-3.68-1.88-4.26-.11,9.51,23.92,8.86,56.35,22.36,78.1,28.12,45.3,113.96,67.69,163.71,76.52,72.61,12.88,148.98,14.98,222.29,7.73,63.62-6.3,204.67-30.25,226.3-101.29,7.88-25.88,11.16-54.64,19.03-80.69h0ZM806.3,607.51l-30.5,18.26c-131.73,66.26-405.38,65.51-535.38-4.91-6.49-3.51-12.31-8.25-18.62-11.96-1.12-.66-2.56-2.94-3.72-.65,11.55,32.54,8.2,71.49,34.17,96.87,59.84,58.47,212.94,70.07,292.78,66.97,63.99-2.48,191.09-21.71,233.65-73.56,19.02-23.17,17.88-63.15,27.62-91.02h0ZM774.26,744.37c-13.76,6.59-26.7,15.08-40.78,21.08-119.06,50.77-329.26,50.83-447.48-2.37-12.39-5.57-23.46-13.36-35.88-18.71,6.11,30.5,22.34,54.66,47.59,72.51,97.85,69.2,342.24,69.95,436.47-5.6,21.95-17.59,34.7-39.15,40.08-66.92h0Z"/>
  <rect fill="#39b9ff" x="468.16" y="171.76" width="53.15" height="53.15" rx="5.6" ry="5.6"/>
  <rect fill="#39b9ff" x="593.35" y="118.61" width="53.15" height="53.15" rx="5.6" ry="5.6"/>
  <rect fill="#39b9ff" x="361.93" y="250.32" width="53.15" height="53.15" rx="5.6" ry="5.6"/>
</svg>