<svg width="993" height="282" version="1.1" xmlns="http://www.w3.org/2000/svg" desc="Created with imagetracer.js version 1.2.6" ><path fill="rgb(0,0,0)" stroke="rgb(0,0,0)" stroke-width="1" opacity="0" d="M 0 0 L 70 0.5 L 0 69.5 L 0 0 Z " /><path fill="rgb(0,0,0)" stroke="rgb(0,0,0)" stroke-width="1" opacity="0" d="M 287 0 L 992.5 0 L 993 0.5 L 993 60.5 L 992 60.5 Q 991.4 48.1 982.5 44 L 971.5 40 L 948.5 38 L 941 33.5 L 941 30.5 L 945.5 26 L 958.5 25 Q 969.5 28 976.5 35 L 992 21.5 L 984.5 13 Q 977.6 7.9 967.5 6 L 950.5 5 L 934.5 9 L 924 16.5 L 918 27.5 L 918 38.5 Q 919.7 46.3 924.5 51 L 935.5 57 L 964.5 61 L 970 65.5 Q 969.8 70.3 966.5 72 Q 960.4 75.9 948.5 74 Q 936.5 71 930.5 62 L 914 76.5 L 920.5 84 Q 928.2 90.8 939.5 94 L 944.5 95 L 962.5 95 Q 980.5 92 989 79.5 L 992.5 68 L 993 282 L 215 281.5 L 287 211.5 L 287 0 Z M 575 4 L 563 7 L 551 14 L 540 26 L 535 37 L 533 47 Q 533 71 545 83 Q 555 94 573 97 L 591 97 Q 603 95 612 88 L 620 80 L 620 77 L 603 65 Q 600 64 601 67 Q 596 72 588 75 Q 574 77 568 71 Q 559 66 557 55 L 557 47 L 562 36 Q 567 28 578 26 Q 590 25 597 31 L 602 37 L 619 25 L 620 22 Q 607 3 575 4 Z M 334 6 L 334 27 L 360 27 L 360 28 L 360 95 L 383 95 L 383 27 L 408 27 L 408 7 L 408 6 L 334 6 Z M 417 6 L 417 95 L 440 95 L 440 68 L 451 68 L 465 94 L 467 95 L 492 95 L 475 64 L 483 59 Q 488 53 491 45 L 491 29 L 484 16 Q 478 8 467 6 L 417 6 Z M 502 6 L 502 95 L 503 95 L 524 95 L 524 7 L 524 6 L 502 6 Z M 629 6 L 629 95 L 703 95 L 703 74 L 652 74 L 652 60 L 694 60 L 694 39 L 652 39 L 652 29 L 653 28 L 703 28 L 703 7 L 703 6 L 629 6 Z M 712 6 L 712 95 L 734 95 L 734 54 L 784 94 L 787 95 L 787 7 L 787 6 L 765 6 L 765 47 L 716 7 L 712 6 Z M 797 6 L 797 27 L 823 27 L 823 28 L 823 95 L 846 95 L 846 27 L 872 27 L 872 7 L 872 6 L 797 6 Z M 882 6 L 882 95 L 883 95 L 904 95 L 904 7 L 904 6 L 882 6 Z M 360 119 L 360 147 L 401 147 L 401 148 L 401 271 L 434 271 L 434 271 L 434 147 L 475 147 L 475 120 L 475 119 L 360 119 Z M 503 152 Q 501 155 495 153 L 482 157 L 471 164 Q 462 171 457 183 L 452 203 L 452 223 L 454 234 Q 458 248 467 258 Q 478 270 498 273 L 521 273 L 526 272 Q 537 269 545 263 L 558 248 L 562 239 L 565 226 Q 568 190 554 173 Q 540 151 503 152 Z M 612 152 L 596 155 L 583 162 Q 575 167 573 178 Q 571 196 578 206 L 588 214 L 624 231 L 629 237 L 628 245 L 626 247 L 620 249 L 599 248 L 576 240 L 573 241 L 573 267 L 585 271 L 596 273 L 626 273 L 639 270 L 649 265 L 658 255 L 662 240 L 661 227 L 657 218 L 644 206 L 622 197 L 609 190 L 605 186 L 606 181 L 612 177 L 627 177 L 632 178 L 651 185 L 659 167 L 660 161 L 648 156 L 635 153 L 612 152 Z M 719 152 L 700 156 L 689 162 L 675 178 L 671 187 L 668 200 L 668 228 Q 670 229 669 234 Q 672 247 679 257 Q 689 270 710 273 L 737 273 L 749 270 L 757 266 L 758 265 L 758 237 L 744 244 L 730 247 L 722 247 L 712 243 L 706 238 L 701 223 L 701 204 L 706 189 Q 710 181 720 179 L 733 179 L 752 186 L 762 161 L 756 157 L 741 153 L 719 152 Z M 812 152 L 795 155 L 776 162 L 788 185 L 803 179 L 820 176 L 827 177 L 833 180 Q 839 185 837 198 L 801 200 L 789 203 L 779 208 Q 769 214 766 227 L 766 247 L 772 261 Q 779 270 793 273 L 814 273 L 819 272 L 830 267 L 836 262 L 841 256 L 846 269 L 847 271 L 870 271 L 870 187 L 867 175 L 863 168 Q 855 158 842 154 L 831 152 L 812 152 Z " /><path fill="rgb(0,0,0)" stroke="rgb(0,0,0)" stroke-width="1" opacity="0" d="M 440 27 L 460.5 27 L 467 30.5 Q 469.8 33.2 469 39.5 L 467 44 L 459.5 47 L 440 47 L 440 27 Z " /><path fill="rgb(0,0,0)" stroke="rgb(0,0,0)" stroke-width="1" opacity="0" d="M 0 72 L 214 72 L 214 282 L 144 282 L 144 141 L 0 141 L 0 72 Z " /><path fill="rgb(0,0,0)" stroke="rgb(0,0,0)" stroke-width="1" opacity="0" d="M 502.5 179 Q 520.4 176.6 526 186.5 L 531 198.5 L 532 220.5 L 529 233.5 L 522.5 243 L 513.5 247 L 504.5 247 Q 494.5 245 490 237.5 L 486 226.5 L 485 205.5 L 488 192.5 Q 490.3 185.8 495.5 182 L 502.5 179 Z " /><path fill="rgb(0,0,0)" stroke="rgb(0,0,0)" stroke-width="1" opacity="0" d="M 820.5 218 L 837 218 L 837 232.5 Q 834.5 241.5 827.5 246 Q 821 250.5 808.5 249 L 801 244.5 Q 798 240.5 799 232.5 Q 800.8 225.3 806.5 222 L 820.5 218 Z " /><path fill="rgb(32,99,175)" stroke="rgb(32,99,175)" stroke-width="1" opacity="0.5254901960784314" d="M 70.5 0 L 287 0 L 287 211.5 L 214.5 282 L 232.5 263 L 286 211.5 L 286 1 L 70.5 1 L 1.5 71 L 214 71.5 L 0 72 L 0 70.5 L 70.5 0 Z " /><path fill="rgb(32,99,175)" stroke="rgb(32,99,175)" stroke-width="1" opacity="0.5254901960784314" d="M 574.5 4 L 589 4.5 L 574.5 5 L 574.5 4 Z " /><path fill="rgb(32,99,175)" stroke="rgb(32,99,175)" stroke-width="1" opacity="0.5254901960784314" d="M 569.5 5 L 573 5.5 L 569.5 6 L 569.5 5 Z " /><path fill="rgb(32,99,175)" stroke="rgb(32,99,175)" stroke-width="1" opacity="0.5254901960784314" d="M 590.5 5 L 594 5.5 L 590.5 6 L 590.5 5 Z " /><path fill="rgb(32,99,175)" stroke="rgb(32,99,175)" stroke-width="1" opacity="0.5254901960784314" d="M 950.5 5 L 961 5.5 L 950.5 6 L 950.5 5 Z " /><path fill="rgb(32,99,175)" stroke="rgb(32,99,175)" stroke-width="1" opacity="0.5254901960784314" d="M 417.5 6 L 418 94.5 L 417 94.5 L 417.5 6 Z " /><path fill="rgb(32,99,175)" stroke="rgb(32,99,175)" stroke-width="1" opacity="0.5254901960784314" d="M 462.5 6 L 467 6.5 L 462.5 7 L 462.5 6 Z " /><path fill="rgb(32,99,175)" stroke="rgb(32,99,175)" stroke-width="1" opacity="0.5254901960784314" d="M 523.5 6 L 524 94.5 L 523 94.5 L 523.5 6 Z " /><path fill="rgb(32,99,175)" stroke="rgb(32,99,175)" stroke-width="1" opacity="0.5254901960784314" d="M 565.5 6 L 568 6.5 Q 558.4 8.4 552.5 14 L 554.5 11 L 565.5 6 Z " /><path fill="rgb(32,99,175)" stroke="rgb(32,99,175)" stroke-width="1" opacity="0.5254901960784314" d="M 595.5 6 L 598 6.5 L 595.5 7 L 595.5 6 Z " /><path fill="rgb(32,99,175)" stroke="rgb(32,99,175)" stroke-width="1" opacity="0.5254901960784314" d="M 629.5 6 L 630 94.5 L 629 94.5 L 629.5 6 Z " /><path fill="rgb(32,99,175)" stroke="rgb(32,99,175)" stroke-width="1" opacity="0.5254901960784314" d="M 702.5 6 L 703 28 L 652.5 28 L 652 28.5 L 652 39 L 694 39 L 694 59.5 L 693 59.5 L 693 40 L 652.5 40 L 651 38.5 L 651 28.5 L 652.5 27 L 702 27 L 702.5 6 Z " /><path fill="rgb(32,99,175)" stroke="rgb(32,99,175)" stroke-width="1" opacity="0.5254901960784314" d="M 712 6 Q 717.4 6.7 720 11.5 L 715.5 8 L 713.5 7 L 712.5 95 L 712 6 Z " /><path fill="rgb(32,99,175)" stroke="rgb(32,99,175)" stroke-width="1" opacity="0.5254901960784314" d="M 786.5 6 L 787 95 L 783.5 94 L 763 76.5 L 767.5 80 L 785.5 94 L 786.5 6 Z " /><path fill="rgb(32,99,175)" stroke="rgb(32,99,175)" stroke-width="1" opacity="0.5254901960784314" d="M 797.5 6 L 798 26 L 822.5 26 L 824 27.5 L 823.5 95 L 823 27 L 797 27 L 797.5 6 Z " /><path fill="rgb(32,99,175)" stroke="rgb(32,99,175)" stroke-width="1" opacity="0.5254901960784314" d="M 871.5 6 L 872 27 L 846 27 L 846 94.5 L 845 94.5 L 845 27.5 L 846.5 26 L 871 26 L 871.5 6 Z " /><path fill="rgb(32,99,175)" stroke="rgb(32,99,175)" stroke-width="1" opacity="0.5254901960784314" d="M 903.5 6 L 904 94.5 L 903 94.5 L 903.5 6 Z " /><path fill="rgb(32,99,175)" stroke="rgb(32,99,175)" stroke-width="1" opacity="0.5254901960784314" d="M 943.5 6 L 948 6.5 L 943.5 7 L 943.5 6 Z " /><path fill="rgb(32,99,175)" stroke="rgb(32,99,175)" stroke-width="1" opacity="0.5254901960784314" d="M 963.5 6 L 968 6.5 L 963.5 7 L 963.5 6 Z " /><path fill="rgb(32,99,175)" stroke="rgb(32,99,175)" stroke-width="1" opacity="0.5254901960784314" d="M 468.5 7 L 471 7.5 L 468.5 8 L 468.5 7 Z " /><path fill="rgb(32,99,175)" stroke="rgb(32,99,175)" stroke-width="1" opacity="0.5254901960784314" d="M 599.5 7 Q 612.7 11.3 620 21.5 L 618.5 25 L 611.5 30 L 613.5 27 L 619 24 L 619 21.5 L 611.5 14 L 599.5 8 L 599.5 7 Z " /><path fill="rgb(32,99,175)" stroke="rgb(32,99,175)" stroke-width="1" opacity="0.5254901960784314" d="M 969.5 7 L 972 7.5 L 969.5 8 L 969.5 7 Z " /><path fill="rgb(32,99,175)" stroke="rgb(32,99,175)" stroke-width="1" opacity="0.5254901960784314" d="M 472.5 8 L 477 10.5 L 475.5 10 Q 471.7 9.7 472.5 8 Z " /><path fill="rgb(32,99,175)" stroke="rgb(32,99,175)" stroke-width="1" opacity="0.5254901960784314" d="M 934.5 9 L 936 9.5 L 927.5 15 L 929.5 12 L 934.5 9 Z " /><path fill="rgb(32,99,175)" stroke="rgb(32,99,175)" stroke-width="1" opacity="0.5254901960784314" d="M 976.5 9 Q 986.5 12.5 992 20.5 L 988.5 25 L 981.5 31 L 987.5 24 L 991 21.5 L 984.5 14 L 976.5 10 L 976.5 9 Z " /><path fill="rgb(32,99,175)" stroke="rgb(32,99,175)" stroke-width="1" opacity="0.5254901960784314" d="M 478.5 11 L 480.5 14 L 478.5 11 Z " /><path fill="rgb(32,99,175)" stroke="rgb(32,99,175)" stroke-width="1" opacity="0.5254901960784314" d="M 721.5 12 L 724.5 16 L 721.5 12 Z " /><path fill="rgb(32,99,175)" stroke="rgb(32,99,175)" stroke-width="1" opacity="0.5254901960784314" d="M 482.5 14 Q 487.8 18.8 490 26.5 L 489 26.5 L 482.5 14 Z " /><path fill="rgb(32,99,175)" stroke="rgb(32,99,175)" stroke-width="1" opacity="0.5254901960784314" d="M 550.5 14 L 543 22.5 L 538.5 30 L 539 28.5 Q 542.6 19.1 550.5 14 Z " /><path fill="rgb(32,99,175)" stroke="rgb(32,99,175)" stroke-width="1" opacity="0.5254901960784314" d="M 925.5 15 L 924.5 17 L 925.5 15 Z " /><path fill="rgb(32,99,175)" stroke="rgb(32,99,175)" stroke-width="1" opacity="0.5254901960784314" d="M 726.5 16 L 756 40.5 L 751.5 37 L 730.5 21 L 726.5 16 Z " /><path fill="rgb(32,99,175)" stroke="rgb(32,99,175)" stroke-width="1" opacity="0.5254901960784314" d="M 923.5 18 L 922 20.5 L 919.5 26 L 919 24.5 L 923.5 18 Z " /><path fill="rgb(32,99,175)" stroke="rgb(32,99,175)" stroke-width="1" opacity="0.5254901960784314" d="M 950.5 24 L 957 24.5 L 950.5 25 L 950.5 24 Z " /><path fill="rgb(32,99,175)" stroke="rgb(32,99,175)" stroke-width="1" opacity="0.5254901960784314" d="M 579.5 25 L 585 25.5 L 579.5 26 L 579.5 25 Z " /><path fill="rgb(32,99,175)" stroke="rgb(32,99,175)" stroke-width="1" opacity="0.5254901960784314" d="M 946.5 25 L 949 25.5 L 946.5 26 L 946.5 25 Z " /><path fill="rgb(32,99,175)" stroke="rgb(32,99,175)" stroke-width="1" opacity="0.5254901960784314" d="M 959.5 25 L 962 25.5 L 959.5 26 L 959.5 25 Z " /><path fill="rgb(32,99,175)" stroke="rgb(32,99,175)" stroke-width="1" opacity="0.5254901960784314" d="M 334.5 26 L 360 26.5 L 334.5 27 L 334.5 26 Z " /><path fill="rgb(32,99,175)" stroke="rgb(32,99,175)" stroke-width="1" opacity="0.5254901960784314" d="M 383.5 26 L 408 26.5 L 383 27 L 382.5 95 L 382 27.5 L 383.5 26 Z " /><path fill="rgb(32,99,175)" stroke="rgb(32,99,175)" stroke-width="1" opacity="0.5254901960784314" d="M 440.5 26 L 459 26.5 L 440 27 L 439.5 47 L 439 27.5 L 440.5 26 Z " /><path fill="rgb(32,99,175)" stroke="rgb(32,99,175)" stroke-width="1" opacity="0.5254901960784314" d="M 574.5 26 L 577 26.5 Q 566.9 28.4 562 35.5 L 560.5 38 L 561 36.5 L 566.5 30 L 574.5 26 Z " /><path fill="rgb(32,99,175)" stroke="rgb(32,99,175)" stroke-width="1" opacity="0.5254901960784314" d="M 586.5 26 L 589 26.5 L 586.5 27 L 586.5 26 Z " /><path fill="rgb(32,99,175)" stroke="rgb(32,99,175)" stroke-width="1" opacity="0.5254901960784314" d="M 944.5 26 L 941.5 30 L 944.5 26 Z " /><path fill="rgb(32,99,175)" stroke="rgb(32,99,175)" stroke-width="1" opacity="0.5254901960784314" d="M 963.5 26 L 976.5 34 L 980 31.5 L 975.5 35 Q 971.2 29.3 963.5 27 L 963.5 26 Z " /><path fill="rgb(32,99,175)" stroke="rgb(32,99,175)" stroke-width="1" opacity="0.5254901960784314" d="M 590.5 27 Q 597.3 29.3 601 34.5 L 601.5 36 L 605.5 33 L 603.5 36 L 601.5 37 L 596.5 31 L 590.5 28 L 590.5 27 Z " /><path fill="rgb(32,99,175)" stroke="rgb(32,99,175)" stroke-width="1" opacity="0.5254901960784314" d="M 918.5 27 L 919 38.5 L 918 38.5 L 918.5 27 Z " /><path fill="rgb(32,99,175)" stroke="rgb(32,99,175)" stroke-width="1" opacity="0.5254901960784314" d="M 464.5 28 L 468 30.5 L 469 33.5 L 468 33.5 L 465.5 29 L 464.5 28 Z " /><path fill="rgb(32,99,175)" stroke="rgb(32,99,175)" stroke-width="1" opacity="0.5254901960784314" d="M 490.5 28 L 491 31.5 L 490 31.5 L 490.5 28 Z " /><path fill="rgb(32,99,175)" stroke="rgb(32,99,175)" stroke-width="1" opacity="0.5254901960784314" d="M 609.5 30 L 607.5 33 L 609.5 30 Z " /><path fill="rgb(32,99,175)" stroke="rgb(32,99,175)" stroke-width="1" opacity="0.5254901960784314" d="M 537.5 31 L 538 32.5 L 536.5 35 L 536 33.5 L 537.5 31 Z " /><path fill="rgb(32,99,175)" stroke="rgb(32,99,175)" stroke-width="1" opacity="0.5254901960784314" d="M 940.5 31 L 943.5 36 L 948 37.5 L 945.5 38 L 940 33.5 L 940.5 31 Z " /><path fill="rgb(32,99,175)" stroke="rgb(32,99,175)" stroke-width="1" opacity="0.5254901960784314" d="M 469.5 35 L 470 38.5 L 469 38.5 L 469.5 35 Z " /><path fill="rgb(32,99,175)" stroke="rgb(32,99,175)" stroke-width="1" opacity="0.5254901960784314" d="M 535.5 36 L 536 38.5 L 535 38.5 L 535.5 36 Z " /><path fill="rgb(32,99,175)" stroke="rgb(32,99,175)" stroke-width="1" opacity="0.5254901960784314" d="M 950.5 38 L 957 38.5 L 950.5 39 L 950.5 38 Z " /><path fill="rgb(32,99,175)" stroke="rgb(32,99,175)" stroke-width="1" opacity="0.5254901960784314" d="M 960.5 39 L 966 39.5 L 960.5 40 L 960.5 39 Z " /><path fill="rgb(32,99,175)" stroke="rgb(32,99,175)" stroke-width="1" opacity="0.5254901960784314" d="M 468.5 40 L 469 41.5 L 466.5 45 L 464.5 46 L 465.5 44 Q 467.8 44.8 467 42.5 L 468.5 40 Z " /><path fill="rgb(32,99,175)" stroke="rgb(32,99,175)" stroke-width="1" opacity="0.5254901960784314" d="M 534.5 40 L 535 43.5 L 534 43.5 L 534.5 40 Z " /><path fill="rgb(32,99,175)" stroke="rgb(32,99,175)" stroke-width="1" opacity="0.5254901960784314" d="M 919.5 40 L 924 50 L 932 54.5 L 930.5 55 L 923 49.5 L 919 42.5 L 919.5 40 Z " /><path fill="rgb(32,99,175)" stroke="rgb(32,99,175)" stroke-width="1" opacity="0.5254901960784314" d="M 968.5 40 L 972 40.5 L 968.5 41 L 968.5 40 Z " /><path fill="rgb(32,99,175)" stroke="rgb(32,99,175)" stroke-width="1" opacity="0.5254901960784314" d="M 490.5 41 L 491 44.5 L 490 44.5 L 490.5 41 Z " /><path fill="rgb(32,99,175)" stroke="rgb(32,99,175)" stroke-width="1" opacity="0.5254901960784314" d="M 558.5 41 L 559 42.5 L 557.5 46 L 557 43.5 L 558.5 41 Z " /><path fill="rgb(32,99,175)" stroke="rgb(32,99,175)" stroke-width="1" opacity="0.5254901960784314" d="M 757.5 41 L 760.5 45 L 757.5 41 Z " /><path fill="rgb(32,99,175)" stroke="rgb(32,99,175)" stroke-width="1" opacity="0.5254901960784314" d="M 973.5 41 L 976 41.5 L 973.5 42 L 973.5 41 Z " /><path fill="rgb(32,99,175)" stroke="rgb(32,99,175)" stroke-width="1" opacity="0.5254901960784314" d="M 977.5 42 Q 986.1 44.4 990 51.5 L 991 54.5 L 990 54.5 Q 988.4 47.6 982.5 45 L 977.5 43 L 977.5 42 Z " /><path fill="rgb(32,99,175)" stroke="rgb(32,99,175)" stroke-width="1" opacity="0.5254901960784314" d="M 762.5 45 L 764.5 48 L 762.5 45 Z " /><path fill="rgb(32,99,175)" stroke="rgb(32,99,175)" stroke-width="1" opacity="0.5254901960784314" d="M 460.5 46 L 463 46.5 L 460.5 47 L 460.5 46 Z " /><path fill="rgb(32,99,175)" stroke="rgb(32,99,175)" stroke-width="1" opacity="0.5254901960784314" d="M 533.5 46 L 534 54.5 L 533 54.5 L 533.5 46 Z " /><path fill="rgb(32,99,175)" stroke="rgb(32,99,175)" stroke-width="1" opacity="0.5254901960784314" d="M 556.5 48 L 557 52.5 L 556 52.5 L 556.5 48 Z " /><path fill="rgb(32,99,175)" stroke="rgb(32,99,175)" stroke-width="1" opacity="0.5254901960784314" d="M 487.5 51 L 487 52.5 L 484.5 56 L 486 53.5 L 487.5 51 Z " /><path fill="rgb(32,99,175)" stroke="rgb(32,99,175)" stroke-width="1" opacity="0.5254901960784314" d="M 733 53 L 735.5 53 L 751 66.5 L 746.5 63 L 734 54 L 733.5 95 L 733 53 Z " /><path fill="rgb(32,99,175)" stroke="rgb(32,99,175)" stroke-width="1" opacity="0.5254901960784314" d="M 557.5 55 L 558 57.5 L 557 57.5 L 557.5 55 Z " /><path fill="rgb(32,99,175)" stroke="rgb(32,99,175)" stroke-width="1" opacity="0.5254901960784314" d="M 933.5 55 L 938 56.5 L 935.5 57 L 933.5 55 Z " /><path fill="rgb(32,99,175)" stroke="rgb(32,99,175)" stroke-width="1" opacity="0.5254901960784314" d="M 991.5 56 L 992 58.5 L 991 58.5 L 991.5 56 Z " /><path fill="rgb(32,99,175)" stroke="rgb(32,99,175)" stroke-width="1" opacity="0.5254901960784314" d="M 483.5 57 L 482.5 59 L 477.5 62 L 478.5 60 L 483.5 57 Z " /><path fill="rgb(32,99,175)" stroke="rgb(32,99,175)" stroke-width="1" opacity="0.5254901960784314" d="M 534.5 57 L 535 61.5 L 534 61.5 L 534.5 57 Z " /><path fill="rgb(32,99,175)" stroke="rgb(32,99,175)" stroke-width="1" opacity="0.5254901960784314" d="M 939.5 57 L 943 57.5 L 939.5 58 L 939.5 57 Z " /><path fill="rgb(32,99,175)" stroke="rgb(32,99,175)" stroke-width="1" opacity="0.5254901960784314" d="M 944.5 58 L 950 58.5 L 944.5 59 L 944.5 58 Z " /><path fill="rgb(32,99,175)" stroke="rgb(32,99,175)" stroke-width="1" opacity="0.5254901960784314" d="M 558.5 59 L 561 63.5 L 559 62.5 L 558.5 59 Z " /><path fill="rgb(32,99,175)" stroke="rgb(32,99,175)" stroke-width="1" opacity="0.5254901960784314" d="M 952.5 59 L 958 59.5 L 952.5 60 L 952.5 59 Z " /><path fill="rgb(32,99,175)" stroke="rgb(32,99,175)" stroke-width="1" opacity="0.5254901960784314" d="M 651.5 60 L 652 74 L 703 74 L 703 94.5 L 702 94.5 L 702 75 L 652.5 75 L 651 73.5 L 651.5 60 Z " /><path fill="rgb(32,99,175)" stroke="rgb(32,99,175)" stroke-width="1" opacity="0.5254901960784314" d="M 960.5 60 L 964 60.5 L 960.5 61 L 960.5 60 Z " /><path fill="rgb(32,99,175)" stroke="rgb(32,99,175)" stroke-width="1" opacity="0.5254901960784314" d="M 965.5 61 L 970 64.5 L 966.5 62 L 965.5 61 Z " /><path fill="rgb(32,99,175)" stroke="rgb(32,99,175)" stroke-width="1" opacity="0.5254901960784314" d="M 992.5 61 L 993 67.5 L 992 67.5 L 992.5 61 Z " /><path fill="rgb(32,99,175)" stroke="rgb(32,99,175)" stroke-width="1" opacity="0.5254901960784314" d="M 474 62 L 476 62.5 L 474 63.5 L 474 62 Z " /><path fill="rgb(32,99,175)" stroke="rgb(32,99,175)" stroke-width="1" opacity="0.5254901960784314" d="M 930.5 62 L 942 71.5 L 940.5 72 L 930.5 63 L 919.5 73 L 926.5 65 L 930.5 62 Z " /><path fill="rgb(32,99,175)" stroke="rgb(32,99,175)" stroke-width="1" opacity="0.5254901960784314" d="M 475.5 65 L 480 72.5 L 478 71.5 L 475.5 65 Z " /><path fill="rgb(32,99,175)" stroke="rgb(32,99,175)" stroke-width="1" opacity="0.5254901960784314" d="M 561.5 65 Q 566.3 72.3 576 74.5 L 573.5 75 Q 564.8 71.9 561.5 65 Z " /><path fill="rgb(32,99,175)" stroke="rgb(32,99,175)" stroke-width="1" opacity="0.5254901960784314" d="M 601 65 L 620 77 L 620 79.5 L 611.5 88 L 606.5 91 L 607.5 89 Q 615 86 619 79.5 L 616.5 76 L 602.5 66 L 598 69.5 L 601 65 Z " /><path fill="rgb(32,99,175)" stroke="rgb(32,99,175)" stroke-width="1" opacity="0.5254901960784314" d="M 440.5 67 L 450.5 67 L 453 69.5 L 455 73.5 L 453 72.5 L 450.5 68 L 440 68 L 440 94.5 L 439 94.5 L 439 68.5 L 440.5 67 Z " /><path fill="rgb(32,99,175)" stroke="rgb(32,99,175)" stroke-width="1" opacity="0.5254901960784314" d="M 752.5 67 L 762 75.5 L 757.5 72 L 752.5 67 Z " /><path fill="rgb(32,99,175)" stroke="rgb(32,99,175)" stroke-width="1" opacity="0.5254901960784314" d="M 969.5 68 L 970 69.5 Q 968 73.5 962.5 74 L 962.5 73 Q 967.3 72.8 969 69.5 L 969.5 68 Z " /><path fill="rgb(32,99,175)" stroke="rgb(32,99,175)" stroke-width="1" opacity="0.5254901960784314" d="M 537.5 69 L 547.5 84 L 561 92.5 L 559.5 93 L 545 82.5 Q 538.6 77 537.5 69 Z " /><path fill="rgb(32,99,175)" stroke="rgb(32,99,175)" stroke-width="1" opacity="0.5254901960784314" d="M 596.5 70 L 594.5 73 L 591.5 74 L 591.5 73 L 596.5 70 Z " /><path fill="rgb(32,99,175)" stroke="rgb(32,99,175)" stroke-width="1" opacity="0.5254901960784314" d="M 991.5 70 L 992 72.5 L 991 72.5 L 991.5 70 Z " /><path fill="rgb(32,99,175)" stroke="rgb(32,99,175)" stroke-width="1" opacity="0.5254901960784314" d="M 943.5 72 L 948 73.5 L 945.5 74 L 943.5 72 Z " /><path fill="rgb(32,99,175)" stroke="rgb(32,99,175)" stroke-width="1" opacity="0.5254901960784314" d="M 917.5 73 L 915 76.5 L 920.5 83 L 935 91.5 L 933.5 92 Q 921.7 86.8 914 77.5 L 917.5 73 Z " /><path fill="rgb(32,99,175)" stroke="rgb(32,99,175)" stroke-width="1" opacity="0.5254901960784314" d="M 480.5 74 L 484 79.5 L 482 78.5 L 480.5 74 Z " /><path fill="rgb(32,99,175)" stroke="rgb(32,99,175)" stroke-width="1" opacity="0.5254901960784314" d="M 949.5 74 L 961 74.5 L 949.5 75 L 949.5 74 Z " /><path fill="rgb(32,99,175)" stroke="rgb(32,99,175)" stroke-width="1" opacity="0.5254901960784314" d="M 990.5 74 L 991 75.5 Q 987.7 83.7 980.5 88 L 978.5 89 L 979.5 87 L 988 79.5 L 990.5 74 Z " /><path fill="rgb(32,99,175)" stroke="rgb(32,99,175)" stroke-width="1" opacity="0.5254901960784314" d="M 455.5 75 L 460 82.5 L 458 81.5 L 455.5 75 Z " /><path fill="rgb(32,99,175)" stroke="rgb(32,99,175)" stroke-width="1" opacity="0.5254901960784314" d="M 577.5 75 L 587 75.5 L 577.5 76 L 577.5 75 Z " /><path fill="rgb(32,99,175)" stroke="rgb(32,99,175)" stroke-width="1" opacity="0.5254901960784314" d="M 484.5 81 L 489 88.5 L 487 87.5 L 484.5 81 Z " /><path fill="rgb(32,99,175)" stroke="rgb(32,99,175)" stroke-width="1" opacity="0.5254901960784314" d="M 460.5 84 L 464 89.5 L 462 88.5 L 460.5 84 Z " /><path fill="rgb(32,99,175)" stroke="rgb(32,99,175)" stroke-width="1" opacity="0.5254901960784314" d="M 976.5 89 L 975.5 91 L 974 90.5 L 976.5 89 Z " /><path fill="rgb(32,99,175)" stroke="rgb(32,99,175)" stroke-width="1" opacity="0.5254901960784314" d="M 489.5 90 L 492 94.5 L 491 94.5 L 489.5 90 Z " /><path fill="rgb(32,99,175)" stroke="rgb(32,99,175)" stroke-width="1" opacity="0.5254901960784314" d="M 464.5 91 L 467 94.5 L 465 93.5 L 464.5 91 Z " /><path fill="rgb(32,99,175)" stroke="rgb(32,99,175)" stroke-width="1" opacity="0.5254901960784314" d="M 971.5 91 L 973 91.5 L 964.5 94 L 964.5 93 L 971.5 91 Z " /><path fill="rgb(32,99,175)" stroke="rgb(32,99,175)" stroke-width="1" opacity="0.5254901960784314" d="M 562.5 93 L 567 94.5 L 564.5 95 L 562.5 93 Z " /><path fill="rgb(32,99,175)" stroke="rgb(32,99,175)" stroke-width="1" opacity="0.5254901960784314" d="M 599.5 93 L 601 93.5 L 596.5 95 L 596.5 94 L 599.5 93 Z " /><path fill="rgb(32,99,175)" stroke="rgb(32,99,175)" stroke-width="1" opacity="0.5254901960784314" d="M 939.5 93 L 942 93.5 L 939.5 94 L 939.5 93 Z " /><path fill="rgb(32,99,175)" stroke="rgb(32,99,175)" stroke-width="1" opacity="0.5254901960784314" d="M 944.5 94 L 951 94.5 L 944.5 95 L 944.5 94 Z " /><path fill="rgb(32,99,175)" stroke="rgb(32,99,175)" stroke-width="1" opacity="0.5254901960784314" d="M 956.5 94 L 963 94.5 L 956.5 95 L 956.5 94 Z " /><path fill="rgb(32,99,175)" stroke="rgb(32,99,175)" stroke-width="1" opacity="0.5254901960784314" d="M 568.5 95 L 571 95.5 L 568.5 96 L 568.5 95 Z " /><path fill="rgb(32,99,175)" stroke="rgb(32,99,175)" stroke-width="1" opacity="0.5254901960784314" d="M 592.5 95 L 595 95.5 L 592.5 96 L 592.5 95 Z " /><path fill="rgb(32,99,175)" stroke="rgb(32,99,175)" stroke-width="1" opacity="0.5254901960784314" d="M 572.5 96 L 591 96.5 L 572.5 97 L 572.5 96 Z " /><path fill="rgb(32,99,175)" stroke="rgb(32,99,175)" stroke-width="1" opacity="0.5254901960784314" d="M 360 119 L 475 119.5 L 361 120 L 361 146 L 400.5 146 L 402 147.5 L 402 270.5 L 401 270.5 L 401 147.5 L 400.5 147 L 360 147 L 360 119 Z " /><path fill="rgb(32,99,175)" stroke="rgb(32,99,175)" stroke-width="1" opacity="0.5254901960784314" d="M 143.5 141 L 144 282 L 0 281.5 L 143 281 L 143.5 141 Z " /><path fill="rgb(32,99,175)" stroke="rgb(32,99,175)" stroke-width="1" opacity="0.5254901960784314" d="M 434.5 146 L 475 146.5 L 434 147 L 433.5 271 L 433 147.5 L 434.5 146 Z " /><path fill="rgb(32,99,175)" stroke="rgb(32,99,175)" stroke-width="1" opacity="0.5254901960784314" d="M 502.5 152 L 515 152.5 L 502.5 153 L 502.5 152 Z " /><path fill="rgb(32,99,175)" stroke="rgb(32,99,175)" stroke-width="1" opacity="0.5254901960784314" d="M 611.5 152 L 627 152.5 L 611.5 153 L 611.5 152 Z " /><path fill="rgb(32,99,175)" stroke="rgb(32,99,175)" stroke-width="1" opacity="0.5254901960784314" d="M 718.5 152 L 733 152.5 L 718.5 153 L 718.5 152 Z " /><path fill="rgb(32,99,175)" stroke="rgb(32,99,175)" stroke-width="1" opacity="0.5254901960784314" d="M 811.5 152 L 831 152.5 L 811.5 153 L 811.5 152 Z " /><path fill="rgb(32,99,175)" stroke="rgb(32,99,175)" stroke-width="1" opacity="0.5254901960784314" d="M 494.5 153 L 499 153.5 L 494.5 154 L 494.5 153 Z " /><path fill="rgb(32,99,175)" stroke="rgb(32,99,175)" stroke-width="1" opacity="0.5254901960784314" d="M 518.5 153 L 523 153.5 L 518.5 154 L 518.5 153 Z " /><path fill="rgb(32,99,175)" stroke="rgb(32,99,175)" stroke-width="1" opacity="0.5254901960784314" d="M 603.5 153 L 609 153.5 L 603.5 154 L 603.5 153 Z " /><path fill="rgb(32,99,175)" stroke="rgb(32,99,175)" stroke-width="1" opacity="0.5254901960784314" d="M 629.5 153 L 635 153.5 L 629.5 154 L 629.5 153 Z " /><path fill="rgb(32,99,175)" stroke="rgb(32,99,175)" stroke-width="1" opacity="0.5254901960784314" d="M 710.5 153 L 715 153.5 L 710.5 154 L 710.5 153 Z " /><path fill="rgb(32,99,175)" stroke="rgb(32,99,175)" stroke-width="1" opacity="0.5254901960784314" d="M 735.5 153 L 741 153.5 L 735.5 154 L 735.5 153 Z " /><path fill="rgb(32,99,175)" stroke="rgb(32,99,175)" stroke-width="1" opacity="0.5254901960784314" d="M 803.5 153 L 808 153.5 L 803.5 154 L 803.5 153 Z " /><path fill="rgb(32,99,175)" stroke="rgb(32,99,175)" stroke-width="1" opacity="0.5254901960784314" d="M 833.5 153 L 838 153.5 L 833.5 154 L 833.5 153 Z " /><path fill="rgb(32,99,175)" stroke="rgb(32,99,175)" stroke-width="1" opacity="0.5254901960784314" d="M 490.5 154 L 493 154.5 L 490.5 155 L 490.5 154 Z " /><path fill="rgb(32,99,175)" stroke="rgb(32,99,175)" stroke-width="1" opacity="0.5254901960784314" d="M 524.5 154 L 527 154.5 L 524.5 155 L 524.5 154 Z " /><path fill="rgb(32,99,175)" stroke="rgb(32,99,175)" stroke-width="1" opacity="0.5254901960784314" d="M 599.5 154 L 602 154.5 L 599.5 155 L 599.5 154 Z " /><path fill="rgb(32,99,175)" stroke="rgb(32,99,175)" stroke-width="1" opacity="0.5254901960784314" d="M 636.5 154 L 640 154.5 L 636.5 155 L 636.5 154 Z " /><path fill="rgb(32,99,175)" stroke="rgb(32,99,175)" stroke-width="1" opacity="0.5254901960784314" d="M 706.5 154 L 709 154.5 L 706.5 155 L 706.5 154 Z " /><path fill="rgb(32,99,175)" stroke="rgb(32,99,175)" stroke-width="1" opacity="0.5254901960784314" d="M 742.5 154 L 746 154.5 L 742.5 155 L 742.5 154 Z " /><path fill="rgb(32,99,175)" stroke="rgb(32,99,175)" stroke-width="1" opacity="0.5254901960784314" d="M 798.5 154 L 802 154.5 L 798.5 155 L 798.5 154 Z " /><path fill="rgb(32,99,175)" stroke="rgb(32,99,175)" stroke-width="1" opacity="0.5254901960784314" d="M 839.5 154 L 842 154.5 L 839.5 155 L 839.5 154 Z " /><path fill="rgb(32,99,175)" stroke="rgb(32,99,175)" stroke-width="1" opacity="0.5254901960784314" d="M 595.5 155 L 598 155.5 L 593.5 157 L 593.5 156 L 595.5 155 Z " /><path fill="rgb(32,99,175)" stroke="rgb(32,99,175)" stroke-width="1" opacity="0.5254901960784314" d="M 641.5 155 L 644 155.5 L 641.5 156 L 641.5 155 Z " /><path fill="rgb(32,99,175)" stroke="rgb(32,99,175)" stroke-width="1" opacity="0.5254901960784314" d="M 702.5 155 L 705 155.5 L 702.5 156 L 702.5 155 Z " /><path fill="rgb(32,99,175)" stroke="rgb(32,99,175)" stroke-width="1" opacity="0.5254901960784314" d="M 747.5 155 L 760 159.5 L 758.5 160 L 747.5 156 L 747.5 155 Z " /><path fill="rgb(32,99,175)" stroke="rgb(32,99,175)" stroke-width="1" opacity="0.5254901960784314" d="M 794.5 155 L 797 155.5 L 794.5 156 L 794.5 155 Z " /><path fill="rgb(32,99,175)" stroke="rgb(32,99,175)" stroke-width="1" opacity="0.5254901960784314" d="M 531.5 156 Q 546 161 554 172.5 L 557 177.5 L 555 176.5 Q 551.3 167.7 543.5 163 L 531.5 157 L 531.5 156 Z " /><path fill="rgb(32,99,175)" stroke="rgb(32,99,175)" stroke-width="1" opacity="0.5254901960784314" d="M 645.5 156 L 656 159.5 L 654.5 160 L 645.5 157 L 645.5 156 Z " /><path fill="rgb(32,99,175)" stroke="rgb(32,99,175)" stroke-width="1" opacity="0.5254901960784314" d="M 699.5 156 L 701 156.5 Q 687.3 161.3 679.5 172 L 688.5 162 L 699.5 156 Z " /><path fill="rgb(32,99,175)" stroke="rgb(32,99,175)" stroke-width="1" opacity="0.5254901960784314" d="M 846.5 156 Q 857.1 159.4 863 167.5 L 867 175.5 L 866 175.5 Q 863.2 166.8 856.5 162 L 846.5 157 L 846.5 156 Z " /><path fill="rgb(32,99,175)" stroke="rgb(32,99,175)" stroke-width="1" opacity="0.5254901960784314" d="M 481.5 157 L 483 157.5 L 478.5 160 L 479.5 158 L 481.5 157 Z " /><path fill="rgb(32,99,175)" stroke="rgb(32,99,175)" stroke-width="1" opacity="0.5254901960784314" d="M 590.5 157 L 592 157.5 L 587.5 160 L 588.5 158 L 590.5 157 Z " /><path fill="rgb(32,99,175)" stroke="rgb(32,99,175)" stroke-width="1" opacity="0.5254901960784314" d="M 785.5 158 L 787 158.5 L 783.5 160 L 783.5 159 L 785.5 158 Z " /><path fill="rgb(32,99,175)" stroke="rgb(32,99,175)" stroke-width="1" opacity="0.5254901960784314" d="M 476.5 160 L 475.5 162 L 466 169.5 L 457.5 184 L 457 182.5 Q 461.9 171.4 470.5 164 L 476.5 160 Z " /><path fill="rgb(32,99,175)" stroke="rgb(32,99,175)" stroke-width="1" opacity="0.5254901960784314" d="M 585.5 160 L 583.5 163 L 579.5 166 L 582.5 162 L 585.5 160 Z " /><path fill="rgb(32,99,175)" stroke="rgb(32,99,175)" stroke-width="1" opacity="0.5254901960784314" d="M 780.5 160 L 782 160.5 L 777 163.5 L 785 179.5 L 784 179.5 L 776 162 L 780.5 160 Z " /><path fill="rgb(32,99,175)" stroke="rgb(32,99,175)" stroke-width="1" opacity="0.5254901960784314" d="M 658.5 165 L 659 166.5 L 657.5 169 L 657 167.5 L 658.5 165 Z " /><path fill="rgb(32,99,175)" stroke="rgb(32,99,175)" stroke-width="1" opacity="0.5254901960784314" d="M 759.5 165 L 760 166.5 L 758.5 169 L 758 167.5 L 759.5 165 Z " /><path fill="rgb(32,99,175)" stroke="rgb(32,99,175)" stroke-width="1" opacity="0.5254901960784314" d="M 578.5 167 L 577 169.5 L 575.5 173 L 575 171.5 L 578.5 167 Z " /><path fill="rgb(32,99,175)" stroke="rgb(32,99,175)" stroke-width="1" opacity="0.5254901960784314" d="M 656.5 170 L 657 171.5 L 655.5 174 L 655 172.5 L 656.5 170 Z " /><path fill="rgb(32,99,175)" stroke="rgb(32,99,175)" stroke-width="1" opacity="0.5254901960784314" d="M 757.5 170 L 758 171.5 L 756.5 174 L 756 172.5 L 757.5 170 Z " /><path fill="rgb(32,99,175)" stroke="rgb(32,99,175)" stroke-width="1" opacity="0.5254901960784314" d="M 678.5 173 L 677.5 175 L 678.5 173 Z " /><path fill="rgb(32,99,175)" stroke="rgb(32,99,175)" stroke-width="1" opacity="0.5254901960784314" d="M 612.5 176 L 626 176.5 L 612.5 177 L 612.5 176 Z " /><path fill="rgb(32,99,175)" stroke="rgb(32,99,175)" stroke-width="1" opacity="0.5254901960784314" d="M 676.5 176 L 676 177.5 L 673.5 183 L 673 181.5 L 676.5 176 Z " /><path fill="rgb(32,99,175)" stroke="rgb(32,99,175)" stroke-width="1" opacity="0.5254901960784314" d="M 811.5 176 L 819 176.5 L 811.5 177 L 811.5 176 Z " /><path fill="rgb(32,99,175)" stroke="rgb(32,99,175)" stroke-width="1" opacity="0.5254901960784314" d="M 821.5 176 L 826 176.5 L 821.5 177 L 821.5 176 Z " /><path fill="rgb(32,99,175)" stroke="rgb(32,99,175)" stroke-width="1" opacity="0.5254901960784314" d="M 573.5 177 L 574 193.5 L 573 193.5 L 573.5 177 Z " /><path fill="rgb(32,99,175)" stroke="rgb(32,99,175)" stroke-width="1" opacity="0.5254901960784314" d="M 609.5 177 L 611 177.5 L 606 180.5 L 605.5 182 L 605 180.5 L 609.5 177 Z " /><path fill="rgb(32,99,175)" stroke="rgb(32,99,175)" stroke-width="1" opacity="0.5254901960784314" d="M 627.5 177 L 631 177.5 L 627.5 178 L 627.5 177 Z " /><path fill="rgb(32,99,175)" stroke="rgb(32,99,175)" stroke-width="1" opacity="0.5254901960784314" d="M 653.5 177 L 654 178.5 L 652.5 181 L 652 179.5 L 653.5 177 Z " /><path fill="rgb(32,99,175)" stroke="rgb(32,99,175)" stroke-width="1" opacity="0.5254901960784314" d="M 807.5 177 L 810 177.5 L 807.5 178 L 807.5 177 Z " /><path fill="rgb(32,99,175)" stroke="rgb(32,99,175)" stroke-width="1" opacity="0.5254901960784314" d="M 867.5 177 L 868 179.5 L 867 179.5 L 867.5 177 Z " /><path fill="rgb(32,99,175)" stroke="rgb(32,99,175)" stroke-width="1" opacity="0.5254901960784314" d="M 503.5 178 L 514 178.5 L 503.5 179 L 503.5 178 Z " /><path fill="rgb(32,99,175)" stroke="rgb(32,99,175)" stroke-width="1" opacity="0.5254901960784314" d="M 720.5 178 L 731 178.5 L 720.5 179 L 720.5 178 Z " /><path fill="rgb(32,99,175)" stroke="rgb(32,99,175)" stroke-width="1" opacity="0.5254901960784314" d="M 754.5 178 L 755 179.5 L 753.5 182 L 753 180.5 L 754.5 178 Z " /><path fill="rgb(32,99,175)" stroke="rgb(32,99,175)" stroke-width="1" opacity="0.5254901960784314" d="M 803.5 178 L 806 178.5 L 803.5 179 L 803.5 178 Z " /><path fill="rgb(32,99,175)" stroke="rgb(32,99,175)" stroke-width="1" opacity="0.5254901960784314" d="M 830.5 178 L 831.5 180 L 830.5 178 Z " /><path fill="rgb(32,99,175)" stroke="rgb(32,99,175)" stroke-width="1" opacity="0.5254901960784314" d="M 557.5 179 L 559 181.5 L 558 181.5 L 557.5 179 Z " /><path fill="rgb(32,99,175)" stroke="rgb(32,99,175)" stroke-width="1" opacity="0.5254901960784314" d="M 716.5 179 L 719 179.5 Q 710.1 181.6 706 188.5 L 702.5 198 L 702 195.5 Q 704.8 185.8 712.5 181 L 716.5 179 Z " /><path fill="rgb(32,99,175)" stroke="rgb(32,99,175)" stroke-width="1" opacity="0.5254901960784314" d="M 733.5 179 L 736 179.5 L 733.5 180 L 733.5 179 Z " /><path fill="rgb(32,99,175)" stroke="rgb(32,99,175)" stroke-width="1" opacity="0.5254901960784314" d="M 497.5 180 L 499 180.5 L 491 186.5 L 486.5 198 L 486 195.5 Q 488.4 185.9 495.5 181 L 497.5 180 Z " /><path fill="rgb(32,99,175)" stroke="rgb(32,99,175)" stroke-width="1" opacity="0.5254901960784314" d="M 518.5 180 Q 524.6 181.4 527 186.5 L 528 188.5 L 526 187.5 L 521.5 182 Q 517.7 181.7 518.5 180 Z " /><path fill="rgb(32,99,175)" stroke="rgb(32,99,175)" stroke-width="1" opacity="0.5254901960784314" d="M 833.5 180 L 836 183.5 L 834 182.5 L 833.5 180 Z " /><path fill="rgb(32,99,175)" stroke="rgb(32,99,175)" stroke-width="1" opacity="0.5254901960784314" d="M 641.5 181 L 645 182.5 L 643.5 183 L 641.5 181 Z " /><path fill="rgb(32,99,175)" stroke="rgb(32,99,175)" stroke-width="1" opacity="0.5254901960784314" d="M 868.5 181 L 869 184.5 L 868 184.5 L 868.5 181 Z " /><path fill="rgb(32,99,175)" stroke="rgb(32,99,175)" stroke-width="1" opacity="0.5254901960784314" d="M 651.5 182 L 652 183.5 L 648.5 185 L 646 183.5 L 647.5 183 L 651 184 L 651.5 182 Z " /><path fill="rgb(32,99,175)" stroke="rgb(32,99,175)" stroke-width="1" opacity="0.5254901960784314" d="M 791.5 182 L 793 182.5 L 787.5 185 L 786.5 183 L 788.5 184 L 791.5 182 Z " /><path fill="rgb(32,99,175)" stroke="rgb(32,99,175)" stroke-width="1" opacity="0.5254901960784314" d="M 752.5 183 L 753 184.5 Q 751.8 187.3 750.5 185 L 749 184.5 L 750.5 184 L 752 184.5 L 752.5 183 Z " /><path fill="rgb(32,99,175)" stroke="rgb(32,99,175)" stroke-width="1" opacity="0.5254901960784314" d="M 672.5 184 L 673 185.5 L 671.5 189 L 671 186.5 L 672.5 184 Z " /><path fill="rgb(32,99,175)" stroke="rgb(32,99,175)" stroke-width="1" opacity="0.5254901960784314" d="M 456.5 185 L 457 186.5 L 455.5 190 L 455 187.5 L 456.5 185 Z " /><path fill="rgb(32,99,175)" stroke="rgb(32,99,175)" stroke-width="1" opacity="0.5254901960784314" d="M 869.5 186 L 870 270.5 L 869 270.5 L 869.5 186 Z " /><path fill="rgb(32,99,175)" stroke="rgb(32,99,175)" stroke-width="1" opacity="0.5254901960784314" d="M 606.5 188 L 619 195.5 L 617.5 196 L 608.5 191 L 606.5 188 Z " /><path fill="rgb(32,99,175)" stroke="rgb(32,99,175)" stroke-width="1" opacity="0.5254901960784314" d="M 837.5 188 L 838 199 L 827 198.5 L 837 198 L 837.5 188 Z " /><path fill="rgb(32,99,175)" stroke="rgb(32,99,175)" stroke-width="1" opacity="0.5254901960784314" d="M 670.5 190 L 671 192.5 L 670 192.5 L 670.5 190 Z " /><path fill="rgb(32,99,175)" stroke="rgb(32,99,175)" stroke-width="1" opacity="0.5254901960784314" d="M 454.5 191 L 455 193.5 L 454 193.5 L 454.5 191 Z " /><path fill="rgb(32,99,175)" stroke="rgb(32,99,175)" stroke-width="1" opacity="0.5254901960784314" d="M 562.5 191 L 563 193.5 L 562 193.5 L 562.5 191 Z " /><path fill="rgb(32,99,175)" stroke="rgb(32,99,175)" stroke-width="1" opacity="0.5254901960784314" d="M 669.5 194 L 670 197.5 L 669 197.5 L 669.5 194 Z " /><path fill="rgb(32,99,175)" stroke="rgb(32,99,175)" stroke-width="1" opacity="0.5254901960784314" d="M 453.5 195 L 454 199.5 L 453 199.5 L 453.5 195 Z " /><path fill="rgb(32,99,175)" stroke="rgb(32,99,175)" stroke-width="1" opacity="0.5254901960784314" d="M 530.5 195 L 531 197.5 L 530 197.5 L 530.5 195 Z " /><path fill="rgb(32,99,175)" stroke="rgb(32,99,175)" stroke-width="1" opacity="0.5254901960784314" d="M 563.5 195 L 564 198.5 L 563 198.5 L 563.5 195 Z " /><path fill="rgb(32,99,175)" stroke="rgb(32,99,175)" stroke-width="1" opacity="0.5254901960784314" d="M 574.5 195 L 575 197.5 L 574 197.5 L 574.5 195 Z " /><path fill="rgb(32,99,175)" stroke="rgb(32,99,175)" stroke-width="1" opacity="0.5254901960784314" d="M 622.5 197 L 626 198.5 L 624.5 199 L 622.5 197 Z " /><path fill="rgb(32,99,175)" stroke="rgb(32,99,175)" stroke-width="1" opacity="0.5254901960784314" d="M 531.5 199 L 532 203.5 L 531 203.5 L 531.5 199 Z " /><path fill="rgb(32,99,175)" stroke="rgb(32,99,175)" stroke-width="1" opacity="0.5254901960784314" d="M 575.5 199 Q 578.4 206.6 584.5 211 L 590 214.5 L 588.5 214 L 578 205.5 L 575 200.5 L 575.5 199 Z " /><path fill="rgb(32,99,175)" stroke="rgb(32,99,175)" stroke-width="1" opacity="0.5254901960784314" d="M 627.5 199 L 631 200.5 L 629.5 201 L 627.5 199 Z " /><path fill="rgb(32,99,175)" stroke="rgb(32,99,175)" stroke-width="1" opacity="0.5254901960784314" d="M 668.5 199 L 669 207.5 L 668 207.5 L 668.5 199 Z " /><path fill="rgb(32,99,175)" stroke="rgb(32,99,175)" stroke-width="1" opacity="0.5254901960784314" d="M 701.5 199 L 702 202.5 L 701 202.5 L 701.5 199 Z " /><path fill="rgb(32,99,175)" stroke="rgb(32,99,175)" stroke-width="1" opacity="0.5254901960784314" d="M 807.5 199 L 818 199.5 L 807.5 200 L 807.5 199 Z " /><path fill="rgb(32,99,175)" stroke="rgb(32,99,175)" stroke-width="1" opacity="0.5254901960784314" d="M 485.5 200 L 486 204.5 L 485 204.5 L 485.5 200 Z " /><path fill="rgb(32,99,175)" stroke="rgb(32,99,175)" stroke-width="1" opacity="0.5254901960784314" d="M 564.5 200 L 565 208.5 L 564 208.5 L 564.5 200 Z " /><path fill="rgb(32,99,175)" stroke="rgb(32,99,175)" stroke-width="1" opacity="0.5254901960784314" d="M 800.5 200 L 805 200.5 L 800.5 201 L 800.5 200 Z " /><path fill="rgb(32,99,175)" stroke="rgb(32,99,175)" stroke-width="1" opacity="0.5254901960784314" d="M 795.5 201 L 799 201.5 L 795.5 202 L 795.5 201 Z " /><path fill="rgb(32,99,175)" stroke="rgb(32,99,175)" stroke-width="1" opacity="0.5254901960784314" d="M 452.5 202 L 453 222.5 L 452 222.5 L 452.5 202 Z " /><path fill="rgb(32,99,175)" stroke="rgb(32,99,175)" stroke-width="1" opacity="0.5254901960784314" d="M 634.5 202 L 645 207.5 L 643.5 207 L 634.5 203 L 634.5 202 Z " /><path fill="rgb(32,99,175)" stroke="rgb(32,99,175)" stroke-width="1" opacity="0.5254901960784314" d="M 788.5 203 L 791 203.5 L 786.5 205 L 786.5 204 L 788.5 203 Z " /><path fill="rgb(32,99,175)" stroke="rgb(32,99,175)" stroke-width="1" opacity="0.5254901960784314" d="M 700.5 206 L 701 220.5 L 700 220.5 L 700.5 206 Z " /><path fill="rgb(32,99,175)" stroke="rgb(32,99,175)" stroke-width="1" opacity="0.5254901960784314" d="M 532.5 207 L 533 218.5 L 532 218.5 L 532.5 207 Z " /><path fill="rgb(32,99,175)" stroke="rgb(32,99,175)" stroke-width="1" opacity="0.5254901960784314" d="M 780.5 207 L 779.5 209 L 771.5 216 L 778.5 208 L 780.5 207 Z " /><path fill="rgb(32,99,175)" stroke="rgb(32,99,175)" stroke-width="1" opacity="0.5254901960784314" d="M 646.5 208 L 657 217.5 L 660 224.5 L 659 224.5 Q 656.3 214.8 648.5 210 L 646.5 208 Z " /><path fill="rgb(32,99,175)" stroke="rgb(32,99,175)" stroke-width="1" opacity="0.5254901960784314" d="M 484.5 210 L 485 215.5 L 484 215.5 L 484.5 210 Z " /><path fill="rgb(32,99,175)" stroke="rgb(32,99,175)" stroke-width="1" opacity="0.5254901960784314" d="M 591.5 215 L 598 218.5 L 596.5 219 Q 591.9 217.8 591.5 215 Z " /><path fill="rgb(32,99,175)" stroke="rgb(32,99,175)" stroke-width="1" opacity="0.5254901960784314" d="M 564.5 216 L 565 225.5 L 564 225.5 L 564.5 216 Z " /><path fill="rgb(32,99,175)" stroke="rgb(32,99,175)" stroke-width="1" opacity="0.5254901960784314" d="M 770.5 217 L 770 218.5 L 768.5 222 L 768 220.5 L 770.5 217 Z " /><path fill="rgb(32,99,175)" stroke="rgb(32,99,175)" stroke-width="1" opacity="0.5254901960784314" d="M 822.5 217 L 838 217 L 838 231.5 L 837 231.5 L 837 218 L 822.5 218 L 822.5 217 Z " /><path fill="rgb(32,99,175)" stroke="rgb(32,99,175)" stroke-width="1" opacity="0.5254901960784314" d="M 815.5 218 L 820 218.5 L 815.5 219 L 815.5 218 Z " /><path fill="rgb(32,99,175)" stroke="rgb(32,99,175)" stroke-width="1" opacity="0.5254901960784314" d="M 668.5 219 L 669 227.5 L 668 227.5 L 668.5 219 Z " /><path fill="rgb(32,99,175)" stroke="rgb(32,99,175)" stroke-width="1" opacity="0.5254901960784314" d="M 811.5 219 L 814 219.5 L 809.5 221 L 809.5 220 L 811.5 219 Z " /><path fill="rgb(32,99,175)" stroke="rgb(32,99,175)" stroke-width="1" opacity="0.5254901960784314" d="M 485.5 220 L 486 224.5 L 485 224.5 L 485.5 220 Z " /><path fill="rgb(32,99,175)" stroke="rgb(32,99,175)" stroke-width="1" opacity="0.5254901960784314" d="M 601.5 220 L 607 222.5 L 605.5 223 L 601.5 221 L 601.5 220 Z " /><path fill="rgb(32,99,175)" stroke="rgb(32,99,175)" stroke-width="1" opacity="0.5254901960784314" d="M 531.5 221 L 532 225.5 L 531 225.5 L 531.5 221 Z " /><path fill="rgb(32,99,175)" stroke="rgb(32,99,175)" stroke-width="1" opacity="0.5254901960784314" d="M 805.5 222 L 801 227.5 L 800.5 229 L 800 227.5 L 805.5 222 Z " /><path fill="rgb(32,99,175)" stroke="rgb(32,99,175)" stroke-width="1" opacity="0.5254901960784314" d="M 608.5 223 L 623.5 230 L 629 235.5 L 623.5 231 L 608.5 224 L 608.5 223 Z " /><path fill="rgb(32,99,175)" stroke="rgb(32,99,175)" stroke-width="1" opacity="0.5254901960784314" d="M 701.5 223 L 702 226.5 L 701 226.5 L 701.5 223 Z " /><path fill="rgb(32,99,175)" stroke="rgb(32,99,175)" stroke-width="1" opacity="0.5254901960784314" d="M 453.5 225 L 454 228.5 L 453 228.5 L 453.5 225 Z " /><path fill="rgb(32,99,175)" stroke="rgb(32,99,175)" stroke-width="1" opacity="0.5254901960784314" d="M 660.5 226 L 661 229.5 L 660 229.5 L 660.5 226 Z " /><path fill="rgb(32,99,175)" stroke="rgb(32,99,175)" stroke-width="1" opacity="0.5254901960784314" d="M 766.5 226 L 767 230.5 L 766 230.5 L 766.5 226 Z " /><path fill="rgb(32,99,175)" stroke="rgb(32,99,175)" stroke-width="1" opacity="0.5254901960784314" d="M 486.5 227 L 487 229.5 L 486 229.5 L 486.5 227 Z " /><path fill="rgb(32,99,175)" stroke="rgb(32,99,175)" stroke-width="1" opacity="0.5254901960784314" d="M 563.5 227 L 564 230.5 L 563 230.5 L 563.5 227 Z " /><path fill="rgb(32,99,175)" stroke="rgb(32,99,175)" stroke-width="1" opacity="0.5254901960784314" d="M 530.5 228 L 531 230.5 L 526.5 239 L 527 237.5 L 530.5 228 Z " /><path fill="rgb(32,99,175)" stroke="rgb(32,99,175)" stroke-width="1" opacity="0.5254901960784314" d="M 702.5 228 L 704 232.5 L 703 232.5 L 702.5 228 Z " /><path fill="rgb(32,99,175)" stroke="rgb(32,99,175)" stroke-width="1" opacity="0.5254901960784314" d="M 669.5 230 L 670 233.5 L 669 233.5 L 669.5 230 Z " /><path fill="rgb(32,99,175)" stroke="rgb(32,99,175)" stroke-width="1" opacity="0.5254901960784314" d="M 454.5 231 L 455 233.5 L 454 233.5 L 454.5 231 Z " /><path fill="rgb(32,99,175)" stroke="rgb(32,99,175)" stroke-width="1" opacity="0.5254901960784314" d="M 562.5 232 L 563 234.5 L 562 234.5 L 562.5 232 Z " /><path fill="rgb(32,99,175)" stroke="rgb(32,99,175)" stroke-width="1" opacity="0.5254901960784314" d="M 661.5 232 L 662 239.5 L 661 239.5 L 661.5 232 Z " /><path fill="rgb(32,99,175)" stroke="rgb(32,99,175)" stroke-width="1" opacity="0.5254901960784314" d="M 798.5 233 L 799 238.5 L 798 238.5 L 798.5 233 Z " /><path fill="rgb(32,99,175)" stroke="rgb(32,99,175)" stroke-width="1" opacity="0.5254901960784314" d="M 836.5 233 L 837 235.5 L 828.5 246 L 834 239.5 L 836.5 233 Z " /><path fill="rgb(32,99,175)" stroke="rgb(32,99,175)" stroke-width="1" opacity="0.5254901960784314" d="M 488.5 234 L 490 236.5 L 488 235.5 L 488.5 234 Z " /><path fill="rgb(32,99,175)" stroke="rgb(32,99,175)" stroke-width="1" opacity="0.5254901960784314" d="M 704.5 234 L 706 236.5 L 704 235.5 L 704.5 234 Z " /><path fill="rgb(32,99,175)" stroke="rgb(32,99,175)" stroke-width="1" opacity="0.5254901960784314" d="M 670.5 235 L 671 237.5 L 670 237.5 L 670.5 235 Z " /><path fill="rgb(32,99,175)" stroke="rgb(32,99,175)" stroke-width="1" opacity="0.5254901960784314" d="M 561.5 236 L 562 238.5 L 560.5 241 L 560 239.5 L 561.5 236 Z " /><path fill="rgb(32,99,175)" stroke="rgb(32,99,175)" stroke-width="1" opacity="0.5254901960784314" d="M 629.5 237 L 630 242.5 L 626.5 247 L 628 244.5 L 629.5 237 Z " /><path fill="rgb(32,99,175)" stroke="rgb(32,99,175)" stroke-width="1" opacity="0.5254901960784314" d="M 756.5 237 L 758 237.5 L 758 264.5 L 747.5 270 L 747.5 269 L 757 265 L 756.5 238 L 751.5 241 L 752.5 239 L 756.5 237 Z " /><path fill="rgb(32,99,175)" stroke="rgb(32,99,175)" stroke-width="1" opacity="0.5254901960784314" d="M 456.5 238 L 458 241.5 L 457 241.5 L 456.5 238 Z " /><path fill="rgb(32,99,175)" stroke="rgb(32,99,175)" stroke-width="1" opacity="0.5254901960784314" d="M 490.5 238 L 500 245.5 L 498.5 246 L 490.5 238 Z " /><path fill="rgb(32,99,175)" stroke="rgb(32,99,175)" stroke-width="1" opacity="0.5254901960784314" d="M 706.5 238 L 714 244.5 L 712.5 244 L 706.5 238 Z " /><path fill="rgb(32,99,175)" stroke="rgb(32,99,175)" stroke-width="1" opacity="0.5254901960784314" d="M 525.5 240 L 522.5 244 L 520.5 245 L 521.5 243 L 525.5 240 Z " /><path fill="rgb(32,99,175)" stroke="rgb(32,99,175)" stroke-width="1" opacity="0.5254901960784314" d="M 573 240 L 576 240.5 L 574 241 L 574 265.5 L 575.5 267 L 577 267.5 L 575.5 268 L 573 267 L 573 240 Z " /><path fill="rgb(32,99,175)" stroke="rgb(32,99,175)" stroke-width="1" opacity="0.5254901960784314" d="M 799.5 240 L 801 243.5 L 799 242.5 L 799.5 240 Z " /><path fill="rgb(32,99,175)" stroke="rgb(32,99,175)" stroke-width="1" opacity="0.5254901960784314" d="M 577.5 241 L 581 242.5 L 579.5 243 L 577.5 241 Z " /><path fill="rgb(32,99,175)" stroke="rgb(32,99,175)" stroke-width="1" opacity="0.5254901960784314" d="M 559.5 242 L 560 243.5 Q 554.4 255.4 544.5 263 L 553 253.5 L 559.5 242 Z " /><path fill="rgb(32,99,175)" stroke="rgb(32,99,175)" stroke-width="1" opacity="0.5254901960784314" d="M 746.5 242 L 748 242.5 L 744.5 244 L 744.5 243 L 746.5 242 Z " /><path fill="rgb(32,99,175)" stroke="rgb(32,99,175)" stroke-width="1" opacity="0.5254901960784314" d="M 766.5 242 L 767 246.5 L 766 246.5 L 766.5 242 Z " /><path fill="rgb(32,99,175)" stroke="rgb(32,99,175)" stroke-width="1" opacity="0.5254901960784314" d="M 660.5 243 L 661 246.5 L 660 246.5 L 660.5 243 Z " /><path fill="rgb(32,99,175)" stroke="rgb(32,99,175)" stroke-width="1" opacity="0.5254901960784314" d="M 517.5 245 L 519 245.5 L 514.5 247 L 514.5 246 L 517.5 245 Z " /><path fill="rgb(32,99,175)" stroke="rgb(32,99,175)" stroke-width="1" opacity="0.5254901960784314" d="M 673.5 245 Q 677.5 255.5 685.5 262 L 689 264.5 L 686.5 263 L 679 256.5 L 673 246.5 L 673.5 245 Z " /><path fill="rgb(32,99,175)" stroke="rgb(32,99,175)" stroke-width="1" opacity="0.5254901960784314" d="M 737.5 245 L 740 245.5 L 737.5 246 L 737.5 245 Z " /><path fill="rgb(32,99,175)" stroke="rgb(32,99,175)" stroke-width="1" opacity="0.5254901960784314" d="M 801.5 245 L 805 247.5 L 803.5 247 L 801.5 245 Z " /><path fill="rgb(32,99,175)" stroke="rgb(32,99,175)" stroke-width="1" opacity="0.5254901960784314" d="M 501.5 246 L 504 246.5 L 501.5 247 L 501.5 246 Z " /><path fill="rgb(32,99,175)" stroke="rgb(32,99,175)" stroke-width="1" opacity="0.5254901960784314" d="M 591.5 246 L 594 246.5 L 591.5 247 L 591.5 246 Z " /><path fill="rgb(32,99,175)" stroke="rgb(32,99,175)" stroke-width="1" opacity="0.5254901960784314" d="M 718.5 246 L 721 246.5 L 718.5 247 L 718.5 246 Z " /><path fill="rgb(32,99,175)" stroke="rgb(32,99,175)" stroke-width="1" opacity="0.5254901960784314" d="M 730.5 246 L 736 246.5 L 730.5 247 L 730.5 246 Z " /><path fill="rgb(32,99,175)" stroke="rgb(32,99,175)" stroke-width="1" opacity="0.5254901960784314" d="M 826.5 246 L 825.5 248 L 824 247.5 L 826.5 246 Z " /><path fill="rgb(32,99,175)" stroke="rgb(32,99,175)" stroke-width="1" opacity="0.5254901960784314" d="M 460.5 247 L 467 255.5 L 463 252.5 L 460.5 247 Z " /><path fill="rgb(32,99,175)" stroke="rgb(32,99,175)" stroke-width="1" opacity="0.5254901960784314" d="M 505.5 247 L 512 247.5 L 505.5 248 L 505.5 247 Z " /><path fill="rgb(32,99,175)" stroke="rgb(32,99,175)" stroke-width="1" opacity="0.5254901960784314" d="M 595.5 247 L 598 247.5 L 595.5 248 L 595.5 247 Z " /><path fill="rgb(32,99,175)" stroke="rgb(32,99,175)" stroke-width="1" opacity="0.5254901960784314" d="M 600.5 248 L 604 248.5 L 600.5 249 L 600.5 248 Z " /><path fill="rgb(32,99,175)" stroke="rgb(32,99,175)" stroke-width="1" opacity="0.5254901960784314" d="M 620.5 248 L 623 248.5 L 620.5 249 L 620.5 248 Z " /><path fill="rgb(32,99,175)" stroke="rgb(32,99,175)" stroke-width="1" opacity="0.5254901960784314" d="M 767.5 248 L 768 250.5 L 767 250.5 L 767.5 248 Z " /><path fill="rgb(32,99,175)" stroke="rgb(32,99,175)" stroke-width="1" opacity="0.5254901960784314" d="M 820.5 248 L 823 248.5 L 820.5 249 L 820.5 248 Z " /><path fill="rgb(32,99,175)" stroke="rgb(32,99,175)" stroke-width="1" opacity="0.5254901960784314" d="M 606.5 249 L 619 249.5 L 606.5 250 L 606.5 249 Z " /><path fill="rgb(32,99,175)" stroke="rgb(32,99,175)" stroke-width="1" opacity="0.5254901960784314" d="M 809.5 249 L 819 249.5 L 809.5 250 L 809.5 249 Z " /><path fill="rgb(32,99,175)" stroke="rgb(32,99,175)" stroke-width="1" opacity="0.5254901960784314" d="M 658.5 251 L 659 252.5 L 648.5 265 L 646.5 266 L 647.5 264 L 655 257.5 L 658.5 251 Z " /><path fill="rgb(32,99,175)" stroke="rgb(32,99,175)" stroke-width="1" opacity="0.5254901960784314" d="M 768.5 252 L 772 258.5 L 770 257.5 L 768.5 252 Z " /><path fill="rgb(32,99,175)" stroke="rgb(32,99,175)" stroke-width="1" opacity="0.5254901960784314" d="M 840.5 255 L 843 259.5 L 842 259.5 L 840.5 256 L 836 259.5 L 840.5 255 Z " /><path fill="rgb(32,99,175)" stroke="rgb(32,99,175)" stroke-width="1" opacity="0.5254901960784314" d="M 467.5 257 Q 474.4 264.6 485 268.5 L 483.5 269 Q 472.9 264.6 467.5 257 Z " /><path fill="rgb(32,99,175)" stroke="rgb(32,99,175)" stroke-width="1" opacity="0.5254901960784314" d="M 772.5 260 L 778.5 267 L 772.5 260 Z " /><path fill="rgb(32,99,175)" stroke="rgb(32,99,175)" stroke-width="1" opacity="0.5254901960784314" d="M 834.5 261 L 836 261.5 L 827.5 268 L 828.5 266 L 834.5 261 Z " /><path fill="rgb(32,99,175)" stroke="rgb(32,99,175)" stroke-width="1" opacity="0.5254901960784314" d="M 843.5 261 L 845 264.5 L 844 264.5 L 843.5 261 Z " /><path fill="rgb(32,99,175)" stroke="rgb(32,99,175)" stroke-width="1" opacity="0.5254901960784314" d="M 542.5 263 L 541.5 265 L 542.5 263 Z " /><path fill="rgb(32,99,175)" stroke="rgb(32,99,175)" stroke-width="1" opacity="0.5254901960784314" d="M 539.5 265 L 538.5 267 L 533.5 269 L 533.5 268 L 539.5 265 Z " /><path fill="rgb(32,99,175)" stroke="rgb(32,99,175)" stroke-width="1" opacity="0.5254901960784314" d="M 690.5 265 L 697 268.5 L 695.5 269 Q 690.9 267.8 690.5 265 Z " /><path fill="rgb(32,99,175)" stroke="rgb(32,99,175)" stroke-width="1" opacity="0.5254901960784314" d="M 644.5 266 L 643.5 268 L 642 267.5 L 644.5 266 Z " /><path fill="rgb(32,99,175)" stroke="rgb(32,99,175)" stroke-width="1" opacity="0.5254901960784314" d="M 780.5 267 L 787 270.5 L 785.5 271 Q 780.9 269.8 780.5 267 Z " /><path fill="rgb(32,99,175)" stroke="rgb(32,99,175)" stroke-width="1" opacity="0.5254901960784314" d="M 639.5 268 L 641 268.5 L 637.5 270 L 637.5 269 L 639.5 268 Z " /><path fill="rgb(32,99,175)" stroke="rgb(32,99,175)" stroke-width="1" opacity="0.5254901960784314" d="M 486.5 269 L 491 270.5 L 488.5 271 L 486.5 269 Z " /><path fill="rgb(32,99,175)" stroke="rgb(32,99,175)" stroke-width="1" opacity="0.5254901960784314" d="M 581.5 269 L 588 270.5 L 584.5 271 L 581.5 270 L 581.5 269 Z " /><path fill="rgb(32,99,175)" stroke="rgb(32,99,175)" stroke-width="1" opacity="0.5254901960784314" d="M 822.5 269 L 824 269.5 L 820.5 271 L 820.5 270 L 822.5 269 Z " /><path fill="rgb(32,99,175)" stroke="rgb(32,99,175)" stroke-width="1" opacity="0.5254901960784314" d="M 633.5 270 L 636 270.5 L 633.5 271 L 633.5 270 Z " /><path fill="rgb(32,99,175)" stroke="rgb(32,99,175)" stroke-width="1" opacity="0.5254901960784314" d="M 743.5 270 L 746 270.5 L 743.5 271 L 743.5 270 Z " /><path fill="rgb(32,99,175)" stroke="rgb(32,99,175)" stroke-width="1" opacity="0.5254901960784314" d="M 492.5 271 L 495 271.5 L 492.5 272 L 492.5 271 Z " /><path fill="rgb(32,99,175)" stroke="rgb(32,99,175)" stroke-width="1" opacity="0.5254901960784314" d="M 522.5 271 L 526 271.5 L 522.5 272 L 522.5 271 Z " /><path fill="rgb(32,99,175)" stroke="rgb(32,99,175)" stroke-width="1" opacity="0.5254901960784314" d="M 589.5 271 L 593 271.5 L 589.5 272 L 589.5 271 Z " /><path fill="rgb(32,99,175)" stroke="rgb(32,99,175)" stroke-width="1" opacity="0.5254901960784314" d="M 628.5 271 L 632 271.5 L 628.5 272 L 628.5 271 Z " /><path fill="rgb(32,99,175)" stroke="rgb(32,99,175)" stroke-width="1" opacity="0.5254901960784314" d="M 704.5 271 L 708 271.5 L 704.5 272 L 704.5 271 Z " /><path fill="rgb(32,99,175)" stroke="rgb(32,99,175)" stroke-width="1" opacity="0.5254901960784314" d="M 739.5 271 L 742 271.5 L 739.5 272 L 739.5 271 Z " /><path fill="rgb(32,99,175)" stroke="rgb(32,99,175)" stroke-width="1" opacity="0.5254901960784314" d="M 788.5 271 L 791 271.5 L 788.5 272 L 788.5 271 Z " /><path fill="rgb(32,99,175)" stroke="rgb(32,99,175)" stroke-width="1" opacity="0.5254901960784314" d="M 815.5 271 L 819 271.5 L 815.5 272 L 815.5 271 Z " /><path fill="rgb(32,99,175)" stroke="rgb(32,99,175)" stroke-width="1" opacity="0.5254901960784314" d="M 497.5 272 L 504 272.5 L 497.5 273 L 497.5 272 Z " /><path fill="rgb(32,99,175)" stroke="rgb(32,99,175)" stroke-width="1" opacity="0.5254901960784314" d="M 513.5 272 L 521 272.5 L 513.5 273 L 513.5 272 Z " /><path fill="rgb(32,99,175)" stroke="rgb(32,99,175)" stroke-width="1" opacity="0.5254901960784314" d="M 595.5 272 L 605 272.5 L 595.5 273 L 595.5 272 Z " /><path fill="rgb(32,99,175)" stroke="rgb(32,99,175)" stroke-width="1" opacity="0.5254901960784314" d="M 617.5 272 L 626 272.5 L 617.5 273 L 617.5 272 Z " /><path fill="rgb(32,99,175)" stroke="rgb(32,99,175)" stroke-width="1" opacity="0.5254901960784314" d="M 709.5 272 L 717 272.5 L 709.5 273 L 709.5 272 Z " /><path fill="rgb(32,99,175)" stroke="rgb(32,99,175)" stroke-width="1" opacity="0.5254901960784314" d="M 728.5 272 L 737 272.5 L 728.5 273 L 728.5 272 Z " /><path fill="rgb(32,99,175)" stroke="rgb(32,99,175)" stroke-width="1" opacity="0.5254901960784314" d="M 792.5 272 L 798 272.5 L 792.5 273 L 792.5 272 Z " /><path fill="rgb(32,99,175)" stroke="rgb(32,99,175)" stroke-width="1" opacity="0.5254901960784314" d="M 807.5 272 L 814 272.5 L 807.5 273 L 807.5 272 Z " /><path fill="rgb(33,100,176)" stroke="rgb(33,100,176)" stroke-width="1" opacity="1" d="M 70.5 1 L 286 1 L 286 211.5 L 214.5 281 L 214 71 L 1 70.5 L 70.5 1 Z " /><path fill="rgb(33,100,176)" stroke="rgb(33,100,176)" stroke-width="1" opacity="1" d="M 573.5 5 L 589.5 5 L 598.5 7 Q 611.4 11.6 619 21.5 Q 620.1 24.8 617.5 24 L 601.5 36 L 596.5 30 Q 590.6 24.9 579.5 25 L 569.5 28 L 561 35.5 Q 555.9 41.4 556 52.5 L 559 62.5 L 567.5 72 L 577.5 76 L 586.5 76 Q 597 73.5 602.5 66 L 619 78.5 L 611.5 87 Q 603.6 93.6 591.5 96 L 571.5 96 Q 555.5 92.5 546 82.5 Q 538.4 74.6 535 62.5 L 534 44.5 L 538 30.5 Q 543 20.5 551.5 14 Q 560.4 7.4 573.5 5 Z " /><path fill="rgb(33,100,176)" stroke="rgb(33,100,176)" stroke-width="1" opacity="1" d="M 334 6 L 407.5 6 L 408 6.5 L 408 26 L 383.5 26 L 382 27.5 L 382 94.5 L 381.5 95 L 360 95 L 360 26.5 L 359.5 26 L 334 26 L 334 6 Z " /><path fill="rgb(33,100,176)" stroke="rgb(33,100,176)" stroke-width="1" opacity="1" d="M 418 6 L 461.5 6 L 471.5 8 L 483 15.5 L 490 27.5 L 491 40.5 L 489 48.5 L 482.5 58 L 476.5 62 L 474 62 L 491 95 L 467.5 95 L 466 93.5 L 450.5 67 L 440.5 67 L 439 68.5 L 439 95 L 418 95 L 418 6 Z M 441 26 L 439 28 L 439 47 L 463 47 L 467 45 L 470 39 L 468 31 L 466 28 L 459 26 L 441 26 Z " /><path fill="rgb(33,100,176)" stroke="rgb(33,100,176)" stroke-width="1" opacity="1" d="M 502 6 L 522.5 6 L 523 6.5 L 523 95 L 502.5 95 L 502 94.5 L 502 6 Z " /><path fill="rgb(33,100,176)" stroke="rgb(33,100,176)" stroke-width="1" opacity="1" d="M 630 6 L 701.5 6 L 702 6.5 L 702 27 L 652.5 27 L 651 28.5 L 651 38.5 L 652.5 40 L 693 40 L 693 60 L 651.5 60 L 651 60.5 L 651 73.5 L 652.5 75 L 702 75 L 702 94.5 L 701.5 95 L 630 95 L 630 6 Z " /><path fill="rgb(33,100,176)" stroke="rgb(33,100,176)" stroke-width="1" opacity="1" d="M 765 6 L 785.5 6 L 786 6.5 L 786 93.5 L 784.5 93 L 735.5 53 L 733 53 L 733 95 L 713 95 L 713.5 7 L 764.5 48 L 765 6 Z " /><path fill="rgb(33,100,176)" stroke="rgb(33,100,176)" stroke-width="1" opacity="1" d="M 798 6 L 870.5 6 L 871 6.5 L 871 26 L 846.5 26 L 845 27.5 L 845 94.5 L 844.5 95 L 824 95 L 824 27.5 L 822.5 26 L 798 26 L 798 6 Z " /><path fill="rgb(33,100,176)" stroke="rgb(33,100,176)" stroke-width="1" opacity="1" d="M 882 6 L 902.5 6 L 903 6.5 L 903 95 L 882.5 95 L 882 94.5 L 882 6 Z " /><path fill="rgb(33,100,176)" stroke="rgb(33,100,176)" stroke-width="1" opacity="1" d="M 948.5 6 Q 979 4 991 20.5 L 988.5 24 L 975.5 34 Q 968.2 23.8 950.5 24 Q 943.9 24.9 941 29.5 L 940 33.5 L 945.5 38 L 967.5 40 L 976.5 42 Q 984.6 44.9 989 51.5 Q 993.4 57.6 992 69.5 Q 989.4 81.4 980.5 87 L 967.5 93 L 951.5 95 L 935.5 92 Q 923.2 86.8 915 77.5 L 918.5 73 L 930.5 63 Q 938.3 76.2 960.5 75 Q 967.1 74.1 970 69.5 Q 971.3 62.3 966.5 61 L 938.5 57 L 924 50 L 919 39.5 L 919 26.5 L 926.5 15 L 936.5 9 L 948.5 6 Z " /><path fill="rgb(33,100,176)" stroke="rgb(33,100,176)" stroke-width="1" opacity="1" d="M 361 120 L 474.5 120 L 475 120.5 L 475 146 L 434.5 146 L 433 147.5 L 433 270.5 L 432.5 271 L 402 271 L 402 147.5 L 400.5 146 L 361 146 L 361 120 Z " /><path fill="rgb(33,100,176)" stroke="rgb(33,100,176)" stroke-width="1" opacity="1" d="M 0 141 L 143 141 L 143 281 L 0 281 L 0 141 Z " /><path fill="rgb(33,100,176)" stroke="rgb(33,100,176)" stroke-width="1" opacity="1" d="M 499.5 153 L 517.5 153 L 530.5 156 Q 544.7 161.3 553 172.5 L 562 190.5 L 564 199.5 L 565 215.5 L 564 216.5 L 564 226.5 L 560 241.5 Q 554.3 254.8 543.5 263 L 526.5 271 L 504.5 273 L 503.5 272 L 495.5 272 L 485.5 269 Q 474.5 264.5 467 256.5 Q 459 247.5 455 234.5 L 453 224.5 L 453 200.5 L 457 184.5 Q 461.8 172.8 470.5 165 L 483.5 157 L 499.5 153 Z M 504 178 L 496 181 Q 490 185 487 193 L 485 201 L 485 210 L 484 211 L 486 230 L 490 239 Q 495 246 506 248 L 517 247 L 523 244 L 530 234 L 533 219 L 532 200 L 527 187 Q 521 177 504 178 Z " /><path fill="rgb(33,100,176)" stroke="rgb(33,100,176)" stroke-width="1" opacity="1" d="M 609.5 153 L 635.5 154 L 656.5 160 L 660 162.5 L 651 184 L 630.5 177 L 612.5 176 L 605 180.5 L 604 183.5 L 608.5 191 L 645.5 208 L 656 217.5 L 660 225.5 L 661 242.5 Q 658.5 257 648.5 264 L 632.5 271 L 617.5 272 L 616.5 273 L 605.5 273 L 604.5 272 L 588.5 271 L 577.5 268 L 574 265.5 L 574 241.5 L 576.5 241 Q 592.7 250.3 618.5 250 L 626.5 247 L 629 244.5 L 630 237.5 L 623.5 230 L 590.5 215 L 579 205.5 L 574 194.5 L 574 176.5 Q 576.5 168 582.5 163 L 592.5 157 L 609.5 153 Z " /><path fill="rgb(33,100,176)" stroke="rgb(33,100,176)" stroke-width="1" opacity="1" d="M 715.5 153 L 741.5 154 L 761 160 L 751.5 185 L 735.5 179 L 720.5 178 Q 709.8 180.3 705 188.5 L 701 199.5 L 700 220.5 L 704 235.5 L 711.5 244 L 718.5 247 Q 724 245.5 725.5 248 L 726.5 247 L 739.5 246 L 756.5 238 L 757 265 Q 749.6 270 738.5 272 L 717.5 273 L 697.5 269 Q 686.7 264.8 680 256.5 L 671 238.5 L 669 229.5 L 668 208.5 L 669 207.5 L 669 198.5 L 673 183.5 Q 678.1 170.6 688.5 163 L 701.5 156 L 715.5 153 Z " /><path fill="rgb(33,100,176)" stroke="rgb(33,100,176)" stroke-width="1" opacity="1" d="M 808.5 153 L 832.5 153 L 842.5 155 Q 854.8 158.8 862 167.5 L 867 176.5 L 869 185.5 L 869 271 L 847.5 271 L 847 269.5 L 840.5 255 L 836 261 L 826.5 268 L 819.5 271 L 798.5 273 L 787.5 271 L 779.5 267 L 772 259.5 L 767 247.5 L 766 231.5 Q 768.3 230.3 767 225.5 L 771 216.5 L 778.5 209 L 785.5 205 L 799.5 201 L 817.5 200 L 818.5 199 L 838 199 Q 839.9 185.9 833.5 180 Q 826.8 173.7 811.5 176 L 787.5 184 L 777 163.5 L 787.5 158 L 808.5 153 Z M 823 217 L 812 219 L 806 222 Q 799 225 798 234 L 799 243 L 801 246 L 810 250 L 819 250 L 829 246 Q 836 241 838 232 L 838 217 L 823 217 Z " /></svg>