<svg xmlns="http://www.w3.org/2000/svg" viewBox="0 0 24 24"><g fill="none"><path fill="url(#SVGW8nMHcfB)" d="M12 19.94a7.94 7.94 0 1 0 0-15.882a7.94 7.94 0 0 0 0 15.882M12 21a8.997 8.997 0 0 0 9-9a9 9 0 0 0-9-9a9 9 0 0 0 0 18"/><path fill="url(#SVGncqCxdWQ)" d="M12 19.94a7.94 7.94 0 1 0 0-15.88a7.94 7.94 0 0 0 0 15.88"/><path fill="#484848" fill-opacity=".5" d="M10.41 5.65c.445.525 1.43 1.585 1.85 1.585c-.085-.44-.204-1.43 0-1.85c.27.525.96 1.64 1.595 1.85l.49-.495c.01-.02.02-.035.035-.035l-.035.035c-.04.115.04.5.565 1.025c.8.795.8.53 1.06 1.06c.265.53.265 1.055.53 1.055s1.06.265 1.06.265s.265 0 .265.8c0 .26-.4.26-.265.525c.265.53.53 0 .53.53s0 1.06-.53 1.06s0-.53-.265-.8c-.265-.26-.53-.26-.795-.52s0 .265-.265.53s-.53 0-.795.265s-.795.53-.795.265s-.525-.265-.265-.53c.265-.265.265-.795-.26-.795c-.425 0-1.855 0-2.385.265l.795-.795c-.795.18-2.65 1.005-2.65 2.915c0 2.13 2.385 3.44 4.5 2.115l-.26.525c.35-.175 1.27-.795 2.115-1.85c.09.35 0 1.32-.53 2.115c-.735 1.1-1.85 2.115-3.705 2.115c-1.85 0-3.175-.79-3.97-1.585c-.635-.635-1.15-2.12-1.325-2.915l-.265.8c-.175-.445-.475-1.59-.265-2.65c.215-1.06.855-2.425 1.59-2.91l-1.59 1.055c.62-.7 2.12-2.22 3.18-2.65L10.94 7.5z"/><path fill="url(#SVG8dc9Nc8p)" fill-rule="evenodd" d="M11.47 9.62a4.6 4.6 0 0 0-1.06-.265a2.7 2.7 0 0 1 1.06-.265c.425 0 .705.175.795.265c0-.265-.32-.85-1.59-1.06a2.19 2.19 0 0 1-1.85-1.59c.635.85 1.85 1.06 2.38 1.06c-1.06-.85-.97-1.765-.794-2.12A2.85 2.85 0 0 0 12.53 7.5c-.426-.635-.35-1.675-.266-2.12c.425 1.485 1.41 2.21 1.85 2.385c-.21-.425.09-.885.265-1.06q-.001 1.192.8 1.59c.32.16.45.525.555.84c.07.2.135.38.235.485c.09.09.15.15.22.185c.14.075.315.075.84.075c.795 0 .795.265.795.53c0 .215-.35.265-.53.265c0 .215-.175.265-.265.265c.21-.21.09-.265 0-.265h-.265c.265-.265-.265-.265-.795-.265c-.31 0-.44-.18-.545-.33c-.075-.105-.14-.2-.25-.2h-.525c-.21 0-.44-.175-.525-.26c-.09.175-.11.635.525 1.055c.5.335.475.455.455.57c-.01.065-.02.125.075.225c.215.21.445.09.53 0v.265c.215 0 .265-.175.265-.265c.21.635-.265.795-.53.795c0 .21-.53.265-.795.265c.215 0 .265-.35.265-.53c-.174-.265-.685-.795-1.32-.795s-1.15.175-1.325.265c.635-.85 1.5-.705 1.85-.53c-.175-.175-.635-.53-1.054-.53c-.28 0-.486-.15-.736-.325c-.22-.16-.48-.34-.85-.465zM9.355 8.03a3.36 3.36 0 0 0-2.915 2.38c.635-1.055 2.03-1.32 2.65-1.32a4.78 4.78 0 0 0-2.65 5.555c0-1.055.53-1.85.8-2.115c-1.065 2.54.615 4.59 1.585 5.295c-.425-.425-.705-1.415-.8-1.85c.27.79 1.435 2.38 3.975 2.38s3.705-2.12 3.97-3.18c-.795 1.06-1.85 2.385-4.235 2.385c-2.38 0-3.97-2.12-3.97-4.5c0-1.905 1.765-3.09 2.65-3.44c-.215 0-.445-.355-.53-.53c.42.21 1.41-.09 1.85-.265c-.53-.265-.795-.265-1.324-.265c-.42 0-.88-.35-1.056-.53m-.8 5.56a4.14 4.14 0 0 0 2.12 3.7c-.795-.17-2.435-1.16-2.65-3.7c-.205-2.545 2.035-3.71 3.18-3.97c.265.175.9.58 1.325.79c.332.161.692.252 1.06.265h-.8a2.5 2.5 0 0 0-.79-.265c-.265 0-3.41.53-3.44 3.18zm2.385-2.65c-.88.8-2.22 2.86-.53 4.765c.35.53 1.59 1.375 3.71.53c-.8.705-2.925 1.68-4.5-.53c-1.325-1.85.175-4.06 1.32-4.765m4.235-.53c.265.53.585.53.8.53c.05 0 .1-.01.15-.02c.22-.04.475-.09.9.55c.095.09.32.265.535.265h-.265c.265.09.685.425.265 1.06c.085-.175.16-.585-.265-.795c-.22-.11-.3-.26-.38-.405c-.11-.205-.21-.39-.68-.39c.09 0 .265.05.265.265c-.09-.09-.32-.265-.53-.265c-.265 0-.795-.265-.795-.795m.135-1.225c0 .1 0 .17.13.17h-.1c-.24.015-.505.025-.695-.53c.09-.09.32-.215.53 0c.135.13.135.265.135.36" clip-rule="evenodd"/><path fill="#95885d" fill-opacity=".5" d="M14.65 13.85a1.59 1.59 0 1 1-3.18 0a1.59 1.59 0 0 1 3.174 0z"/><path fill="url(#SVGwEZumTjx)" d="M14.12 13.59a1.59 1.59 0 1 1-3.18 0a1.59 1.59 0 0 1 3.18 0"/><path fill="#f5e29f" d="M12.69 12.69v-.425h.21v.425h.69v.21h-.69v.69c0 .12.024.3.1.45c.064.145.17.235.324.235v.215c-.27 0-.43-.175-.52-.36s-.115-.4-.115-.54v-.69H12v-.21zm-1.22.53h.9v.1c0 .19-.04.475-.17.715c-.136.25-.366.45-.73.45v-.21c.27 0 .434-.145.544-.34c.085-.16.125-.35.14-.505h-.475v.425h-.21z"/><defs><linearGradient id="SVGW8nMHcfB" x1="5.645" x2="18.355" y1="5.91" y2="17.825" gradientUnits="userSpaceOnUse"><stop stop-color="#f3df9a"/><stop offset="1" stop-color="#cca34a"/></linearGradient><linearGradient id="SVGncqCxdWQ" x1="5.998" x2="18.602" y1="5.397" y2="18.002" gradientUnits="userSpaceOnUse"><stop stop-color="#a78740"/><stop offset=".14" stop-color="#d7b35d"/><stop offset=".62" stop-color="#f0db94"/><stop offset="1" stop-color="#d3ae57"/></linearGradient><linearGradient id="SVG8dc9Nc8p" x1="14.807" x2="6.865" y1="4.839" y2="19.98" gradientUnits="userSpaceOnUse"><stop stop-color="#dab866"/><stop offset=".23" stop-color="#e3c678"/><stop offset=".4" stop-color="#d9b662"/><stop offset=".64" stop-color="#f1db95"/><stop offset="1" stop-color="#d2aa53"/></linearGradient><linearGradient id="SVGwEZumTjx" x1="12" x2="12" y1="3" y2="20.972" gradientUnits="userSpaceOnUse"><stop stop-color="#cca143"/><stop offset="1" stop-color="#e7cd80"/></linearGradient></defs></g></svg>