<svg xmlns="http://www.w3.org/2000/svg" viewBox="0 0 24 24"><g fill="none"><path fill="url(#SVGIYX8adFc)" d="M11.486 14.751v3.317c-1.199-2.129-3.858-3.029-5.658-3.029C5.828 19.442 9.495 21 12 21c2.51 0 6.172-1.558 6.172-5.961c-1.8 0-4.46.9-5.658 3.03V14.76c-.35.17-.689.155-1.028-.01" opacity=".45"/><path fill="url(#SVGtemHWdyl)" d="M12.787 3.394c3.076 3.991 1.94 8.4-.015 11.074a.952.952 0 0 1-1.559 0c-1.975-2.618-3.307-6.887-.01-11.074a.993.993 0 0 1 1.584 0" opacity=".45"/><path fill="url(#SVGDiCtA3PV)" d="M7.7 4.412c4.562 1.862 5.673 6.285 5.246 9.618a.977.977 0 0 1-1.378.76C8.6 13.542 5.427 10.528 6.296 5.179A1.014 1.014 0 0 1 7.7 4.407z" opacity=".45"/><path fill="url(#SVGZtAusb4Z)" d="M17.714 5.194c.771 5.056-2.304 8.291-5.272 9.598a.977.977 0 0 1-1.384-.751c-.468-3.297.407-7.705 5.257-9.623a1.013 1.013 0 0 1 1.399.771z" opacity=".45"/><defs><linearGradient id="SVGIYX8adFc" x1="6.368" x2="17.719" y1="22.774" y2="22.456" gradientUnits="userSpaceOnUse"><stop stop-color="#5784c2"/><stop offset="1" stop-color="#1be6b3"/></linearGradient><linearGradient id="SVGtemHWdyl" x1="12" x2="12" y1="2.479" y2="15.393" gradientUnits="userSpaceOnUse"><stop stop-color="#d141e9"/><stop offset=".5" stop-color="#5f7dc1"/><stop offset="1" stop-color="#2bd9b9"/></linearGradient><linearGradient id="SVGDiCtA3PV" x1="6.538" x2="13.131" y1="4.011" y2="14.95" gradientUnits="userSpaceOnUse"><stop stop-color="#d141e9"/><stop offset=".5" stop-color="#5f7dc1"/><stop offset="1" stop-color="#2bd9b9"/></linearGradient><linearGradient id="SVGZtAusb4Z" x1="17.477" x2="10.883" y1="4.027" y2="14.966" gradientUnits="userSpaceOnUse"><stop stop-color="#d141e9"/><stop offset=".5" stop-color="#5f7dc1"/><stop offset="1" stop-color="#2bd9b9"/></linearGradient></defs></g></svg>