<svg version="1.1" viewBox="0 0 128 128" xmlns="http://www.w3.org/2000/svg">
 <rect x="4" y="4" width="120" height="120" ry="10" fill="#013e85" stroke-linecap="round" stroke-linejoin="round" stroke-width="7.5591"/>
 <g transform="matrix(.9375 0 0 .9375 -65.3 93.062)" fill="#fff" stroke-width=".15589">
  <path d="m113.48-62.047c-3.0881-3.0156-15.997-16.174-15.997-16.306 0-0.08622 0.11023-0.267 0.24496-0.40173 0.22125-0.22125 3.6553-0.24496 35.472-0.24496 30.308 0 35.286 0.03124 35.648 0.22375 0.73818 0.39238 17.051 17.052 16.993 17.354-0.0495 0.25687-1.962 0.27351-35.707 0.31071l-35.655 0.03931z"/>
  <path d="m90.095-2.8621c-0.05205-0.13562-0.09462-15.485-0.09462-34.109 0-35.158-0.0098-34.585 0.5859-34.373 0.38052 0.13604 16.103 15.787 16.184 16.111 0.0557 0.22196-2.7826 9.7666-7.7252 25.978-4.2973 14.095-7.8854 25.855-7.9736 26.133-0.12013 0.37955-0.25087 0.50663-0.52128 0.50663-0.19852 0-0.40353-0.11096-0.45556-0.24658z"/>
  <path d="m150.43 15.494c-0.14191-0.15679-0.258-0.34437-0.258-0.41683 0-0.07246 3.6194-12.014 8.043-26.538 7.7311-25.382 8.0324-26.418 7.7702-26.707-0.25295-0.27949-0.50746-0.30147-3.4911-0.30147-3.4007 0-3.5924-0.0388-3.5924-0.72715 0-0.36323 3.356-11.606 3.6103-12.095 0.1331-0.25576 0.80704-0.2728 10.791-0.2728 10.427 0 10.654 0.0064 10.929 0.30972 0.26098 0.28839 0.26399 0.36623 0.0436 1.1302-1.2452 4.3159-19.987 65.561-20.107 65.708-0.12328 0.15035-1.6809 0.19486-6.8196 0.19486-6.254 0-6.6756-0.01736-6.9179-0.28507z"/>
  <path d="m109.88 16.864c-5.2882-0.6956-9.653-3.4836-12.072-7.7108l-0.68214-1.1922 0.74754-2.3652c1.8656-5.9029 2.1702-6.7282 2.4972-6.7676 0.20078-0.024209 0.97766 0.52199 2.1824 1.5344 3.9711 3.337 6.8715 4.5618 10.756 4.5418 2.9855-0.015277 5.6449-0.831 8.7483-2.6831 2.128-1.27 3.1706-2.1392 4.3588-3.6335 1.1317-1.4233 2.4317-3.9017 2.7978-5.3339 1.7588-6.881-3.1809-11.254-10.115-8.9548-1.3019 0.4317-1.5543 0.47347-1.7351 0.28722-0.11639-0.11988-1.1066-2.1059-2.2004-4.4134l-1.9889-4.1954 1.0026-0.89688c5.472-4.8948 13.792-12.589 13.83-12.79 0.0267-0.13963-0.0651-0.36761-0.20415-0.50663-0.22625-0.22625-1.06-0.25274-7.9525-0.25274-7.3352 0-7.7071-0.01372-7.8543-0.28872-0.11811-0.2207 0.28116-1.7244 1.6948-6.3828 1.0171-3.3518 1.895-6.1681 1.9509-6.2585 0.0703-0.11369 5.4333-0.16441 17.385-0.16441 15.504 0 17.308 0.02522 17.528 0.24496 0.13473 0.13473 0.24496 0.3173 0.24496 0.40571s-0.42414 1.4836-0.94252 3.1005l-0.94252 2.9397-7.7314 7.6234c-7.0473 6.9488-7.7225 7.6588-7.631 8.0233 0.0819 0.32612 0.26568 0.44774 0.9965 0.65926 5.109 1.4788 8.689 5.634 9.7865 11.359 0.32743 1.7081 0.32264 5.0841-0.01 7.0487-0.64276 3.7963-2.2408 7.7622-4.4844 11.129-1.9238 2.8871-5.1261 6.3904-7.8267 8.5625-4.9983 4.0201-11.07 6.6881-16.685 7.3312-1.5874 0.18186-4.0672 0.18184-5.4497 0z"/>
 </g>
</svg>
