<svg xmlns="http://www.w3.org/2000/svg" viewBox="0 0 24 24"><g fill="none"><path fill="#4e5069" d="M12.46 9.513c-.176 0-.392.288-.482.436c-.072-.103-.252-.315-.391-.35c-.176-.046-.437.09-.567-.136c-.13-.216-.347-.783-.653-.868c-.247-.072-1.147.436-1.575.697a1.7 1.7 0 0 0-.08.527c0 .306.215 1.22.215 1.35c0 .134-.306.44-.216.787c.053.2.053.411 0 .612c-.09.279-.256.9-.22 1.179c.045.35.391.832.567 1.269s.045 1.048.216 1.53c.18.477 1.224 1.745 1.31 1.83c.09.09.305 0 .611.221c.243.176.045 1.27-.09 1.791a1.05 1.05 0 0 0 .482-.657l-.09 1.27c.35-.244.526-.946.571-1.27l.432.351a4.4 4.4 0 0 1-.13-1.134c.045-.396.566-.481.917-.571c.347-.086 1.35-1.831 1.35-1.962c0-.135-.045-.571 0-1.008c.045-.436.698-1.35.743-1.66c.045-.306 0-.171-.135-.612c-.126-.437-.171-.783 0-1.049c.18-.26-.171-.476-.216-.913c-.032-.35.018-.819.045-1.008c0-.216.09-.436 0-.873c-.068-.35-1.103-.612-1.611-.697c-.481.045-.567.697-.567.918c0 .216-.22 0-.437 0"/><path fill="#000" d="m11.987 10.11l-.081-.112a1.5 1.5 0 0 0-.158-.189c-.071-.068-.134-.117-.18-.126a3 3 0 0 0-.278 0c-.059 0-.122 0-.18-.032a.34.34 0 0 1-.167-.139l-.099-.189l-.162-.297a1.2 1.2 0 0 0-.167-.23a.4.4 0 0 0-.175-.121a.2.2 0 0 0-.081 0a3.6 3.6 0 0 0-.571.216a10 10 0 0 0-.82.459a1.6 1.6 0 0 0-.071.468q.03.455.14.9l.044.211q.019.121.032.243c0 .032-.01.059-.018.09a1 1 0 0 1-.068.135l-.063.122c-.063.135-.108.27-.072.418c.077.293.036.554 0 .657c-.045.135-.103.36-.153.585c-.045.225-.076.437-.063.558c.023.158.113.351.225.572l.077.139c.09.175.189.36.26.535c.09.23.104.509.118.765v.01c.009.27.022.53.103.755c.04.108.135.27.257.46q.476.703 1.035 1.345s.009.009.04.013l.063.01l.068.013a1 1 0 0 1 .423.17c.049.037.08.09.103.15a.8.8 0 0 1 .04.193c.014.144.01.32-.008.504c-.027.27-.082.562-.136.8a.95.95 0 0 0 .257-.454l.17.023l-.071 1.035c.09-.113.158-.257.216-.41c.09-.238.144-.49.162-.643l.023-.153l.364.292l-.05-.31a2.7 2.7 0 0 1-.031-.612c.027-.243.202-.383.396-.473q.283-.118.585-.17a.35.35 0 0 0 .121-.086a2 2 0 0 0 .19-.212a8 8 0 0 0 .445-.63q.285-.46.526-.945v-.144a6 6 0 0 1 0-.882c.018-.121.072-.27.14-.427c.067-.153.157-.324.247-.482l.059-.112l.18-.342a1.3 1.3 0 0 0 .121-.297c.023-.157.018-.18 0-.216l-.013-.045a3 3 0 0 1-.117-.315c-.13-.436-.19-.823.013-1.125a.18.18 0 0 0 .032-.13a.7.7 0 0 0-.068-.171l-.027-.059a1.4 1.4 0 0 1-.17-.495c-.037-.36.013-.828.044-1.021q.002-.106.018-.212l.014-.144c.009-.13.009-.288-.032-.495c-.009-.049-.063-.117-.17-.188q-.197-.12-.415-.194a6 6 0 0 0-.945-.247c-.189.022-.306.162-.378.342a1.4 1.4 0 0 0-.099.49c0 .058-.013.135-.09.171a.2.2 0 0 1-.09.009a2 2 0 0 1-.135-.045h-.004l-.072-.023a.4.4 0 0 0-.135-.027a.2.2 0 0 0-.09.036a.7.7 0 0 0-.117.1c-.081.09-.153.188-.194.26l-.067.113zm1.476-1.516c.508.09 1.543.347 1.61.697c.064.306.037.504.019.67c-.01.073-.018.136-.018.203c-.027.19-.077.657-.045 1.008c.022.19.099.338.162.464c.09.17.157.301.058.45c-.175.265-.135.612 0 1.048c.045.162.081.243.108.302c.045.098.05.117.023.315c-.018.135-.158.386-.315.67c-.19.351-.405.743-.428.99c-.031.328-.013.657-.004.855l.004.148c0 .13-1.003 1.877-1.35 1.962l-.099.027c-.342.081-.778.185-.819.54c-.01.384.035.768.135 1.138l-.436-.35l-.018.103c-.056.395-.214.77-.459 1.084a.5.5 0 0 1-.09.081l.085-1.268a.9.9 0 0 1-.107.27a1 1 0 0 1-.374.386l.031-.121c.127-.553.284-1.507.06-1.67c-.185-.134-.338-.152-.45-.166c-.073-.009-.127-.018-.163-.054c-.09-.085-1.134-1.35-1.305-1.831c-.09-.243-.099-.513-.112-.779c-.01-.27-.023-.53-.108-.751a5 5 0 0 0-.257-.522a2.5 2.5 0 0 1-.31-.747c-.036-.279.135-.9.22-1.179a1.3 1.3 0 0 0 0-.612c-.058-.23.054-.445.135-.598a.5.5 0 0 0 .081-.185c0-.054-.036-.225-.076-.44c-.063-.325-.14-.73-.14-.914c0-.248.054-.45.086-.527c.423-.26 1.323-.764 1.57-.697c.238.068.423.432.558.693l.095.18c.09.144.234.135.373.126a.7.7 0 0 1 .193.004c.113.027.248.167.338.275l.054.076l.05-.08c.107-.154.283-.36.431-.36c.081 0 .167.035.239.062c.112.045.198.077.198-.058c0-.22.085-.877.567-.918"/><path fill="#b77539" d="M8.972 8.067c.103.212 0 .86-.09 1.18a6.6 6.6 0 0 1 1.484-.653c.054-.19.18-.734.045-1.049c-.18-.396-.832-.742-.917-1.008c-.072-.207-.032-1.512 0-2.137c.229.391.737 1.125.913.918c.22-.266-.261-1.62-.437-1.795c-.17-.171-.566-.783-1.394-.302c-.828.477-.567 3.712-.392 4.059c.176.35.653.526.788.787"/><path fill="#000" fill-rule="evenodd" d="M9.57 4.53c.256.405.684.972.837.788c.22-.266-.261-1.62-.437-1.795l-.063-.068c-.197-.225-.593-.666-1.331-.234c-.828.477-.567 3.712-.392 4.059c.09.189.275.328.446.45c.144.112.279.216.342.337c.09.19.018.72-.059 1.062l-.031.117l.108-.058c.436-.252 1.066-.527 1.376-.594c.054-.19.18-.734.045-1.049a2 2 0 0 0-.53-.585c-.18-.157-.347-.297-.387-.423c-.063-.193-.036-1.318-.01-1.98l.01-.157l.08.135zm.724 3.987c.027-.094.063-.247.082-.41c.017-.197.013-.39-.046-.526a1 1 0 0 0-.188-.265a4 4 0 0 0-.316-.288c-.09-.077-.17-.144-.238-.216a.7.7 0 0 1-.18-.243q-.027-.18-.036-.36v-.585c0-.432.018-.918.032-1.228l.013-.293l.149.252c.116.193.301.472.472.675c.09.099.166.175.23.211a.2.2 0 0 0 .062.023h.01c.013-.018.026-.045.031-.104a.8.8 0 0 0 0-.202a5 5 0 0 0-.396-1.278a.5.5 0 0 0-.063-.09l-.077-.085c-.09-.1-.197-.22-.355-.302c-.193-.099-.468-.135-.855.09a.6.6 0 0 0-.234.266a2 2 0 0 0-.166.468A6.5 6.5 0 0 0 8.09 5.3q-.01.86.112 1.71q.036.188.059.234c.08.153.225.27.387.396l.031.022q.104.079.194.158a.7.7 0 0 1 .175.211a.6.6 0 0 1 .05.261a4.6 4.6 0 0 1-.086.779a10 10 0 0 1 .612-.302a4.6 4.6 0 0 1 .675-.252z" clip-rule="evenodd"/><path fill="#b77539" d="M14.974 8.032c-.103.207-.085.81 0 1.124c-.598-.387-1.179-.495-1.512-.562a2.1 2.1 0 0 1 .077-1.089c.17-.391.828-.742.913-1.003c.072-.212.032-1.517 0-2.142c-.23.396-.742 1.125-.913.918c-.22-.261.26-1.62.436-1.791c.171-.176.567-.787 1.395-.306s.567 3.712.392 4.063c-.176.351-.653.527-.788.788"/><path fill="#000" fill-rule="evenodd" d="M14.371 4.494c-.252.405-.675.972-.832.783c-.22-.26.26-1.62.436-1.79l.063-.072c.198-.225.594-.662 1.332-.234c.828.481.567 3.712.392 4.063c-.09.189-.275.324-.446.45c-.144.112-.279.216-.342.337c-.1.368-.1.757 0 1.125l-.103-.063a4.1 4.1 0 0 0-1.332-.481l-.077-.018a2.1 2.1 0 0 1 .077-1.09c.09-.206.32-.404.526-.584c.18-.153.347-.297.387-.419c.063-.193.036-1.318.01-1.984l-.01-.158zm-.837 4.023a2 2 0 0 1-.022-.418c.009-.203.045-.414.103-.558q.06-.128.19-.261q.13-.134.278-.261l.04-.032q.131-.11.235-.211a.8.8 0 0 0 .18-.248l.022-.144l.014-.216v-.585c0-.427-.018-.913-.032-1.228l-.013-.288l-.149.247a5.4 5.4 0 0 1-.472.675a1.2 1.2 0 0 1-.23.216a.14.14 0 0 1-.063.023l-.009-.005c-.013-.013-.027-.045-.031-.099a1 1 0 0 1 0-.202c.074-.442.207-.872.396-1.278l.063-.095l.076-.08c.09-.1.198-.225.356-.302c.193-.099.468-.135.855.09q.133.068.234.266q.1.19.166.467c.085.365.126.82.135 1.274q.011.86-.113 1.71a1.3 1.3 0 0 1-.058.23c-.08.157-.225.274-.387.395l-.031.027l-.194.153a.8.8 0 0 0-.175.212a.8.8 0 0 0-.063.247q-.036.372.018.743a4.2 4.2 0 0 0-1.296-.455z" clip-rule="evenodd"/><path fill="#ebc630" d="M12.153 9.902a.3.3 0 0 1 .072-.135c.054-.09.121-.17.189-.17c.135 0 .26 0 .35.044c.086.045.131-.045.172-.09c.045-.045.045-.652.306-.783c.211-.108.378-.076.436-.045a3.4 3.4 0 0 0-.436.216c-.216.135-.176.743-.306.743h-.522a.24.24 0 0 0-.19.08a1 1 0 0 0-.071.14M8.84 9.335a1 1 0 0 1 .513-.26c-.238.035-.382.26-.427.368v.63l-.09-.085v-.653zm4.095 3.667v.22c-.144-.102-.437-.359-.437-.566c0-.266.306-.572.482-.657c.14-.072.175-.293.175-.391c0-.594.347-1.21.522-1.44c-.058.17-.306 1.485-.35 1.7c-.046.216-.347.306-.523.567c-.135.212.032.468.135.567zm-2.961-1.394c-.144-.18-.234-.19-.265-.18l-.045.18c.225 0 .44.611.481.782c.045.18.045.396.018.572c-.027.17.203.391.288.391c.09 0 .175 0 .175-.09c0-.085-.175-.17-.26-.301c-.09-.135 0-.266-.046-.572a1.6 1.6 0 0 0-.35-.782zm-.787-.176l-.176-.22c-.072.135-.225.418-.26.526c-.046.13.044.522.044.652c0 .135-.045.306-.135.527c-.085.216-.085.612-.085.873c0 .26.306.787.436.963l.396.522v-.176l-.702-1.395c-.085-.18.18-.306.18-.657c0-.35.171-.742.086-1.003c-.072-.212.112-.495.216-.612m2.227 2.533a5 5 0 0 0-1.048-.175c.17.09.575.279.782.35c.212.068.437.06.522.046a2 2 0 0 0-.26-.225zm-.265.567c-.104-.036-.424.014-.568.045c.09.027.297.095.437.13c.14.037.405.046.522.046a2.6 2.6 0 0 0-.392-.22m.22.612a1 1 0 0 0-.482-.045l.783.396c-.027-.09-.13-.279-.306-.35zm-.526 1.094c-.176-.108-.45-.801-.567-1.139c0 .162.018.527.09.702c.067.171.346.36.476.437m-.739-.527l-.18-.045l.09.18l.09.873l.172-.18l.22.833l.216-.482l.22.742a3.4 3.4 0 0 0-.18-1.003c-.098-.175-.216.045-.256.176c0-.117-.009-.378-.045-.482s-.189-.045-.261 0l-.09-.612z"/><path fill="#ebc630" d="m9.54 16.545l-.046-.833l-.135-.044c-.009.234-.022.746.045.918c.09.22.963 1.223 1.004 1.354c.045.135.135.306.18.306c.386.045.647.265.737.396c.068.103.027.945 0 1.35c.072-.36.19-1.161.09-1.44c-.108-.28-.598-.405-.832-.437c-.104-.49-.742-1.25-1.044-1.575zm3.27-.787c-.18.067-.225.32-.225.436c.077-.072.239-.243.31-.351c.086-.13.262 0 .392-.17c.104-.145.216-.442.261-.572a2.4 2.4 0 0 1-.306.481c-.13.135-.216.09-.436.176z"/><path fill="#000" d="M10.758 10.996a1.35 1.35 0 0 0-.697-.963c.235.292.426.616.567.963c.045.261.09.918.346 1.134c.261.22.351.351.351.567c0 .18-.234.45-.35.571c.787.086.872.437.656.567c-.18.104-.944-.045-1.309-.135c.176.18.873.266 1.089.266c.175 0 .391.26.481.391c.036-.207-.135-.346-.22-.391c.072-.036.148-.19.18-.261c0-.351-.441-.495-.657-.527c.072-.072.225-.27.26-.481c.046-.261-.134-.436-.35-.612c-.216-.171-.261-.437-.347-1.089m2.484.085c.072-.278.351-.814.482-1.048a3.2 3.2 0 0 0-.567 1.049c-.072.35 0 .526-.045.611c-.612.612-.698.743-.698.963c0 .172.176.419.261.522c-.477.176-.652.396-.607.527c.031.103.08.216.103.26c-.162.104-.166.307-.148.392a.6.6 0 0 1 .567-.391c.346 0 .756-.176.913-.261c-.391.09-1.201.207-1.305 0c-.108-.212.45-.41.738-.482c-.13-.072-.4-.288-.436-.567c-.045-.35.526-.657.657-.832c.13-.175 0-.392.09-.742zm-2.137 3.452a.76.76 0 0 0-.522.045c.09-.072.324-.212.567-.176s.481.306.567.437a4 4 0 0 0-.612-.306m.481.571a.68.68 0 0 0-.697 0c.117 0 .391.014.567.086c.175.067.306.315.346.436c.045-.103.063-.35-.216-.526zm1.18-.702a.79.79 0 0 0-.613.437c.13-.09.437-.27.612-.306q.237-.043.477-.059c-.013-.04-.13-.108-.477-.072m-.397.657c-.243.104-.301.419-.301.567c.072-.135.243-.41.346-.481c.104-.072.45-.09.612-.09c-.117-.045-.41-.104-.657 0zm-1.22.567c.28.104.293.45.262.612c-.09-.396-.392-.526-.653-.612c-.211-.072-.404-.378-.481-.526c-.103.594.338 1.093.567 1.269c-.733-.315-.684-1.27-.567-1.706c.045.612.526.833.873.963m1.616 0c-.279.104-.32.45-.306.612c.216-.567.567-.612.738-.702c.13-.063.32-.306.396-.477c.068.765-.35 1.166-.567 1.265c.765-.315.725-1.206.608-1.62c-.09.526-.522.792-.869.922"/><path fill="#000" d="M10.19 12.917c.068.315.293.423.392.437c-.306.09-.391-.045-.522-.176c-.135-.13-.26-.175-.436-.26c-.14-.073-.144-.496-.135-.698a.9.9 0 0 0-.432.477c-.104.279.045.585.135.702c.607.216.562.477.562.567s-.045.26-.09.481c-.04.216-.126.743-.126.918c0 .171.261.216.392.306c.13.086.13.261.13.437c0 .134.027.463.045.611l.171-.18l.22.833l.217-.482l.22.743l.171-.742l.266.832l.13-.918l.302.697l.09-.477l.175.437l.261-.657l.13.963l.24-.963l.237.873l.221-.873l.216.522l.22-.828l.172.135c0-.122.009-.387.045-.526c.045-.18.39-.482.521-.743c.135-.265-.13-.787-.17-1.138c-.046-.351.044-.437.26-.653c.216-.22.437-.396.437-.747c0-.279-.266-.495-.396-.567c.09.22 0 .351-.045.437c-.04.09-.216.135-.387.265c-.18.13-.396.437-.567.437c-.14 0-.207-.059-.22-.09c.305.045.481-.306.436-.567s.09-.567.175-.743q.089-.188.131-.391v.391c0 .09-.135.135-.175.392c-.036.211.013.436.045.526c.175-.072.521-.27.521-.481c0-.212-.175-.378-.26-.437c.476.045.913.567.913.743c0 .175.045.35-.086.612c-.135.26-.612.35-.652.697c-.045.351.216 1.049.17 1.314c-.03.207-.36.639-.521.828l-.09.873l-.216-.306l-.301 1.008l-.18-.396l-.216.657l-.216-.657l-.306.742l-.176-.787l-.216.855l-.09-.675l-.17.697l-.136-.877l-.256.787l-.22-.742l-.217.657l-.22-.702l-.176.44l-.301-.962l-.22.26l-.09-.872c0-.014.062-.36-.041-.392c-.13-.044-.392-.134-.477-.395c-.09-.261.17-1.09.216-1.44c.045-.351-.261-.306-.482-.482c-.216-.175-.301-.481-.17-.873c.103-.315.508-.508.697-.567c-.018.027-.045.149-.045.392s.26.45.391.526v-.702a1.5 1.5 0 0 0-.26-.612c.35.18.35.878.436 1.27"/><path fill="#fff" d="M7.312 8.026c-.207-.284-.203-.73-.171-.918c-.743.306-.657.918-.527 1.79c.135.874.22 1.18.18 1.486c-.045.306-.481.346-.612.742c-.135.391.477 1.224.522 1.53s-.35.17-.306.918c.045.742 1.134.697 1.485.913c.347.22.347.612.783.702s.608.437.873.653c.207.18.698.247.914.265c-.234-.045-.76-.238-1.004-.657a4.6 4.6 0 0 0-1.485-1.395c-.607-.396 0-1.138-.085-1.485c-.086-.35-1.044-.571-.959-1.138c.09-.567.959-1.354 1.049-2.056c.09-.698-.392-1.004-.657-1.35"/><path fill="#000" fill-rule="evenodd" d="m7.14 7.108l-.094.04c-.639.315-.553.914-.432 1.75l.1.608c.071.437.107.657.076.878c-.023.148-.135.234-.266.333c-.135.099-.279.207-.342.405c-.085.252.13.675.31 1.034c.104.203.194.387.212.495c.018.126-.036.18-.103.243c-.1.1-.225.23-.203.675c.032.522.576.657 1.017.765c.19.045.36.09.464.153c.148.09.234.216.315.333c.112.162.22.315.472.37c.306.058.486.251.657.436c.068.076.135.153.216.216c.1.09.27.148.45.193c.175.04.351.063.463.072a2 2 0 0 1-.436-.157a1.35 1.35 0 0 1-.567-.5a4.6 4.6 0 0 0-1.485-1.395c-.4-.26-.27-.675-.162-1.021c.059-.18.108-.347.077-.468c-.032-.14-.212-.261-.405-.392c-.288-.193-.603-.405-.554-.742c.045-.27.252-.58.477-.909c.257-.378.522-.774.572-1.147c.067-.545-.212-.85-.46-1.125a3 3 0 0 1-.197-.225c-.18-.239-.198-.603-.18-.82c0-.04 0-.071.009-.098m-.103.144a.76.76 0 0 0-.405.553a3.6 3.6 0 0 0 .072 1.08c.032.216.059.4.09.554l.005.054c.022.135.045.247.054.346c.036.225.045.392.022.558c-.027.185-.166.293-.288.383l-.018.013c-.13.1-.252.194-.306.36a.55.55 0 0 0 .023.31c.036.131.099.275.17.424l.104.215l.01.014l.09.189c.062.122.116.243.13.338a.3.3 0 0 1-.05.229l-.063.072l-.013.013l-.045.05a.45.45 0 0 0-.104.18c-.022.08-.04.202-.031.378c.018.315.252.472.567.58q.235.076.477.126c.148.04.297.081.4.144c.162.104.257.243.338.36l.045.063c.09.126.184.225.373.266c.239.045.405.166.54.301l.162.162q.102.105.207.207l.059.045a1.4 1.4 0 0 1-.28-.324a4.5 4.5 0 0 0-1.453-1.368a.64.64 0 0 1-.297-.405a1 1 0 0 1 .023-.45c.018-.09.045-.184.076-.27l.04-.135c.037-.126.05-.216.037-.279c-.018-.058-.072-.121-.171-.197l-.198-.14l-.144-.1a1.4 1.4 0 0 1-.333-.3a.55.55 0 0 1-.117-.433c.022-.157.103-.328.198-.494c.085-.144.189-.297.292-.45l.045-.068c.122-.18.239-.36.333-.535c.09-.176.158-.342.18-.504a1.03 1.03 0 0 0-.18-.747a3 3 0 0 0-.23-.275l-.03-.036a3 3 0 0 1-.199-.234a1.1 1.1 0 0 1-.193-.53a2 2 0 0 1-.014-.289z" clip-rule="evenodd"/><path fill="#fff" d="M16.689 8.026c.207-.284.203-.73.171-.918c.742.306.657.918.526 1.79c-.135.874-.22 1.18-.18 1.486c.045.306.482.346.612.742c.135.391-.477 1.224-.521 1.53c-.046.306.35.17.305.918c-.044.742-1.133.697-1.484.913c-.347.22-.347.612-.783.702s-.608.437-.873.653c-.207.18-.698.247-.914.265c.234-.045.76-.238 1.004-.657a4.6 4.6 0 0 1 1.485-1.395c.607-.396 0-1.138.085-1.485c.085-.35 1.044-.571.959-1.138c-.09-.567-.959-1.354-1.049-2.056c-.09-.698.392-1.004.657-1.35"/><path fill="#000" fill-rule="evenodd" d="m16.86 7.108l.095.04c.638.315.553.914.431 1.75l-.099.608a3 3 0 0 0-.076.878c.023.148.135.234.265.333c.135.099.28.207.342.405c.086.252-.13.675-.31 1.034c-.104.203-.194.387-.211.495c-.019.126.035.18.103.243c.099.1.225.23.202.675c-.031.522-.576.657-1.017.765c-.189.045-.36.09-.463.153c-.148.09-.234.216-.315.333c-.112.162-.22.315-.472.37c-.306.058-.486.251-.657.436q-.102.115-.216.216c-.104.09-.27.148-.45.193c-.176.04-.351.063-.464.072c.104-.022.27-.072.437-.157c.232-.11.43-.283.567-.5a4.6 4.6 0 0 1 1.485-1.395c.4-.26.27-.675.162-1.021c-.059-.18-.108-.347-.077-.468c.032-.14.212-.261.405-.392c.288-.193.603-.405.553-.742c-.045-.27-.252-.58-.476-.909c-.257-.378-.522-.774-.572-1.147c-.067-.545.212-.85.459-1.125l.198-.225c.18-.239.198-.603.18-.82c0-.04 0-.071-.009-.098m.103.144a.76.76 0 0 1 .406.553c.03.362.006.726-.072 1.08c-.032.216-.059.4-.09.554l-.005.054c-.023.135-.045.247-.054.346a1.9 1.9 0 0 0-.023.558c.027.185.167.293.288.383l.018.013c.13.1.252.194.306.36a.55.55 0 0 1-.022.31a2.6 2.6 0 0 1-.171.424l-.104.215l-.009.014l-.09.189a1.2 1.2 0 0 0-.13.338a.3.3 0 0 0 .05.229l.062.072l.014.013l.045.05c.04.045.076.094.103.18c.023.08.041.202.032.378c-.018.315-.252.472-.567.58q-.235.076-.477.126c-.148.04-.297.081-.4.144c-.162.104-.257.243-.338.36l-.045.063c-.09.126-.184.225-.373.266a1 1 0 0 0-.54.301l-.162.162l-.207.207l-.059.045c.104-.09.203-.198.28-.324a4.5 4.5 0 0 1 1.453-1.368a.66.66 0 0 0 .297-.405a1 1 0 0 0-.023-.45a2 2 0 0 0-.076-.27l-.041-.135a.6.6 0 0 1-.036-.279c.018-.058.072-.121.171-.197l.198-.14l.144-.1c.121-.085.243-.179.333-.3a.55.55 0 0 0 .117-.433a1.5 1.5 0 0 0-.198-.494c-.085-.144-.189-.297-.293-.45l-.044-.068a7 7 0 0 1-.333-.535a1.6 1.6 0 0 1-.18-.504a1.03 1.03 0 0 1 .18-.747q.108-.149.229-.275l.031-.036l.198-.234a1.14 1.14 0 0 0 .194-.535c.013-.104.013-.203.013-.288" clip-rule="evenodd"/><path fill="#6c6e7a" d="m6.443 7.762l2.308 2.493c.014.287.18.845.22.917c.046.086-.26.392-.26.653c0 .211.027.495.045.612c.009.045-.081.14-.572.175c-.485.036-1.304-.22-1.655-.35a2.37 2.37 0 0 0 1.44-.523c-.765-.072-1.832-.787-2.268-1.138c.382.18 1.062.189 1.35.18l-.302-.527c.243.1.738.288.738.216c0-.067-.639-.728-.958-1.048c.175-.315.013-1.237-.09-1.66z"/><path fill="#000" fill-rule="evenodd" d="M7.865 11.816a2.5 2.5 0 0 1-1.093.44a1.5 1.5 0 0 1-.243.005c.524.222 1.086.34 1.655.351c.49-.036.585-.135.567-.175a6 6 0 0 1-.045-.612c0-.149.1-.306.176-.437c.058-.099.108-.18.09-.216a4 4 0 0 1-.22-.918l-2.31-2.491l.036.17c.1.464.203 1.216.05 1.49c.27.27.765.783.918.976a.3.3 0 0 1 .045.072c0 .018-.036.018-.09.01h-.005a4 4 0 0 1-.648-.226q.15.263.302.522h-.1q-.502.015-.994-.09a1.4 1.4 0 0 1-.256-.085q.093.077.22.166c.477.351 1.283.846 1.926.954l.121.018zm-1.732-1.004c.18.126.396.261.62.388c.415.229.856.418 1.224.45l.212.022l-.167.135a2.75 2.75 0 0 1-1.061.508l.364.1c.278.077.566.115.855.112q.249-.01.481-.1a7 7 0 0 1-.04-.602c0-.158.09-.32.162-.437l.027-.045q.042-.072.076-.148a5.5 5.5 0 0 1-.22-.905L6.6 8.054c.031.176.063.374.08.572c.014.162.023.324.014.468a1 1 0 0 1-.058.31q.417.423.819.864q.062.08.117.166l.009.037a.1.1 0 0 1-.045.085a.1.1 0 0 1-.059.018a.3.3 0 0 1-.081-.009a6 6 0 0 1-.445-.14l.18.306l.076.126l-.148.01a5 5 0 0 1-.923-.055z" clip-rule="evenodd"/><path fill="#6c6e7d" d="M15.118 10.078c.653-.482 2.003-1.606 2.178-2.272c-.09.35-.18 1.17.135 1.66c-.207.261-.702.837-1.048 1.048l.828-.175c-.014.117-.1.378-.306.481c.346.014 1.111-.009 1.395-.216c-.513.378-1.692 1.134-2.354 1.134c.117.19.55.567 1.35.567c-.423.203-1.422.531-2.047.216c-.059-.045-.288-.112-.22-.216c.09-.135.305-.22.22-.391a3.8 3.8 0 0 1-.22-.833c-.032-.207.044-.756.09-1.003"/><path fill="#000" fill-rule="evenodd" d="M16.558 10.388q.48-.418.868-.922c-.234-.364-.238-.913-.193-1.314c.018-.135.045-.256.063-.346a1.2 1.2 0 0 1-.144.315c-.41.666-1.476 1.547-2.034 1.957c-.045.247-.122.796-.09 1.003c.045.261.135.657.22.833c.059.117-.027.198-.112.279a.6.6 0 0 0-.108.112c-.05.081.067.135.153.18c.027.014.054.027.067.04c.55.27 1.382.055 1.863-.139q.109-.04.185-.08c-.068 0-.135 0-.198-.01a1.62 1.62 0 0 1-1.09-.472a1 1 0 0 1-.062-.09h.103c.554-.059 1.386-.54 1.935-.91q.181-.122.315-.224a1 1 0 0 1-.35.144a4.2 4.2 0 0 1-1.045.076a.5.5 0 0 0 .117-.085a.7.7 0 0 0 .19-.396l-.829.175l.18-.126zm.535.063l-.693.149l-.063-.162c.162-.099.365-.288.558-.49c.167-.18.324-.36.428-.491a1.9 1.9 0 0 1-.198-.873c0-.094 0-.189.009-.279l-.09.122a6.5 6.5 0 0 1-.599.648q-.594.563-1.25 1.053c-.019.121-.046.3-.064.476a2.2 2.2 0 0 0-.018.464c.023.13.054.288.09.44c.045.154.081.289.122.36a.26.26 0 0 1 .022.18a.3.3 0 0 1-.08.136l-.158.157l.027.023l.08.045h.005l.072.04c.288.14.666.14 1.04.072c.211-.036.418-.094.59-.157c-.595-.09-.941-.396-1.054-.585l-.08-.13h.157c.148 0 .337-.046.54-.118c.211-.076.432-.18.648-.297a9 9 0 0 0 .63-.369l-.13.018a5.4 5.4 0 0 1-.734.023l-.036-.167a.43.43 0 0 0 .189-.198z" clip-rule="evenodd"/><path fill="#18f5ee" d="M9.84 12.045c.279.243.234.711.18.918a4 4 0 0 1-.396-.135c-.09-.045-.351-.045-.653-.085c-.247-.036-.45-.423-.526-.612c.148.072.472.225.612.26c.175.046-.045-.215-.261-.39c-.176-.14-.306-.73-.351-1.004c.072.13.256.436.396.612c.17.216.346.306.432.436c.09.13.22-.135 0-.526c-.216-.392-.302-.522-.608-1.004a1.72 1.72 0 0 1-.175-1.138c.045.481.697.963.783 1.314c.09.346.09.522.35.697c.208.14.235.495.217.657m4.099 0c-.28.243-.23.711-.171.918c.099-.031.32-.099.391-.135c.09-.045.347-.045.653-.085c.243-.036.45-.423.522-.612c-.144.072-.468.225-.608.26c-.18.046.045-.215.261-.39c.176-.14.306-.73.347-1.004a5 5 0 0 1-.392.612c-.175.216-.346.306-.436.436s-.216-.135 0-.526c.22-.392.306-.522.612-1.004c.243-.387.216-.918.175-1.138c-.045.481-.697.963-.787 1.314c-.09.346-.09.522-.347.697c-.211.14-.234.495-.22.657"/><path fill="#836877" d="M11.29 10.786c.346-.04.58.13.652.22c.085-.076.328-.224.607-.224c.347 0 .387.36.387.67c0 .315-.661.878-.994 1.161c-.347-.27-.954-.805-1-1.16c-.008-.09-.085-.626.347-.671z"/><path fill="#000" d="m11.928 11.13l-.054-.071a.67.67 0 0 0-.576-.19a.26.26 0 0 0-.18.082a.36.36 0 0 0-.081.166c-.032.13-.014.27-.01.315v.01a.6.6 0 0 0 .113.256q.103.15.252.306c.176.184.383.364.545.495c.162-.14.382-.329.562-.518a2.4 2.4 0 0 0 .257-.306a.5.5 0 0 0 .09-.225c0-.157-.01-.306-.054-.418a.3.3 0 0 0-.09-.122a.26.26 0 0 0-.153-.045a.9.9 0 0 0-.554.207zm.013 1.481c-.346-.27-.954-.805-.999-1.16v-.005c-.013-.108-.076-.621.347-.666a.77.77 0 0 1 .652.225l.018-.018c.104-.077.329-.207.585-.207c.351 0 .392.36.392.67c0 .315-.662.878-.995 1.161"/></g></svg>