<svg version="1.1" viewBox="0 0 32 32" xmlns="http://www.w3.org/2000/svg">
 <path d="m16.002 8c-6.2306 0.066982-7.8272 1.0039-7.8272 1.0039-3.442 1.6866-4.1289 5.1843-4.1752 7.4961 0.04636 2.3118 0.73321 5.8096 4.1752 7.496 0 0 1.5966 0.93708 7.8272 1.0039 6.2306-0.06685 7.8244-1.0039 7.8244-1.0039 3.442-1.6864 4.1277-5.1842 4.1732-7.4961-0.04546-2.3117-0.73112-5.8096-4.1732-7.496 0 0-1.5938-0.93695-7.8244-1.0039z" fill="#f15a24" stroke-width=".13182"/>
 <path d="m23.826 9.0039s-1.5942-0.93695-7.8259-1.0039v17c6.2317-0.06685 7.8259-1.0039 7.8259-1.0039 3.4427-1.6864 4.1286-5.1842 4.1741-7.4961-0.045453-2.3117-0.73138-5.8096-4.1741-7.496z" fill="#db481b" stroke-width=".13182"/>
 <path d="m4 13s-1.0285 2.0146-0.25721 5.2308c0 0-2.1213-0.14129-2.1428-0.42415 0 0-1.35-1.7317 0-4.3471 0 0 0.14997-0.21207 2.3998-0.45954z" fill="#f15a24" stroke-width=".15651"/>
 <path d="m28 13s1.0286 2.0146 0.25705 5.2308c0 0 2.1214-0.14129 2.1429-0.42415 0 0 1.3501-1.7317 0-4.3471 0 0-0.14998-0.21207-2.3999-0.45954z" fill="#db481b" stroke-width=".15652"/>
 <path d="m6.1185 16.5-3.98e-4 0.01399c0.03825 1.4921 0.60591 3.7496 3.4502 4.8381 0 0 1.3194 0.60474 6.4682 0.64788 5.1487-0.04313 6.4658-0.64788 6.4658-0.64788 2.8444-1.0886 3.411-3.346 3.4486-4.8381l-3.84e-4 -0.01399 3.84e-4 -0.01399c-0.0376-1.4921-0.60422-3.7496-3.4486-4.8381 0 0-1.3171-0.60474-6.4658-0.648-5.1487 0.04327-6.4682 0.648-6.4682 0.648-2.8443 1.0885-3.4119 3.346-3.4502 4.8379 0 0.0047 2.56e-4 0.0094 3.965e-4 0.014z" clip-rule="evenodd" fill="#333" fill-rule="evenodd" stroke-width=".12866"/>
 <path d="m9.5426 12.618s1.3097-0.58884 6.4199-0.63083c5.1104 0.04198 6.4176 0.63083 6.4176 0.63083 2.5778 0.96774 3.2706 2.8843 3.4 4.3159a6.8385 6.6874 0 0 0 0.0229-0.40816c-0.03721-1.5029-0.59966-3.7768-3.4229-4.8733 0 0-1.3072-0.6092-6.4176-0.65271-5.1104 0.04352-6.4199 0.65271-6.4199 0.65271-2.8231 1.0965-3.3866 3.3704-3.4244 4.8733 0.00325 0.13067 0.01067 0.26719 0.02303 0.40816 0.13011-1.4316 0.82358-3.3482 3.4014-4.3158z" fill="#1a1a1a" stroke-width=".12866"/>
 <path d="m22.49 11.65s-1.3217-0.6064-6.4882-0.64966h-0.002146v11h0.0021c5.1665-0.03448 6.4882-0.64966 6.4882-0.64966 2.8543-1.0912 3.423-3.3544 3.4606-4.8503-0.0376-1.4959-0.60632-3.7591-3.4606-4.8504z" fill="#1a1a1a" stroke-width=".12889"/>
 <g fill="#f2f2f2">
  <path d="m14.081 18.038c0.23745 1.1309 1.0246 1.9615 1.9597 1.9615s1.7222-0.83083 1.9597-1.9615z" stroke-width=".14698"/>
  <path d="m23 15.482c0 0.81854-0.64932 1.4822-1.4504 1.4822-0.80104 0-1.4504-0.66367-1.4504-1.4822 0-0.81867 0.64932-1.4823 1.4504-1.4823 0.80104 0 1.4504 0.66367 1.4504 1.4823z" stroke-width=".12578"/>
  <path d="m13 15.533c0 0.84656-0.67158 1.5329-1.5001 1.5329-0.82836 0-1.4999-0.68638-1.4999-1.5329 0-0.84669 0.67158-1.5331 1.5001-1.5331 0.82836 0 1.4999 0.68638 1.4999 1.5331z" stroke-width=".13009"/>
 </g>
</svg>
