<svg xmlns="http://www.w3.org/2000/svg" viewBox="0 0 24 24"><g fill="none"><path fill="url(#SVGcbpH4dAS)" d="M20.917 10.761a8.54 8.54 0 0 0-4.009-6.09a9 9 0 0 0-1.207-.614l.333-.53l-1.927.488l.64 1.551l.424-.667a7.15 7.15 0 0 1 3.395 3.23a7 7 0 0 1 .487 5.03a7.4 7.4 0 0 1-1.282 2.548a7.7 7.7 0 0 1-2.372 2.017l-.99-3.283q.366-.16.725-.339l.16-.095l.041-.021c.265-.17.5-.382.7-.625a3 3 0 0 0 .434-.805a2.5 2.5 0 0 0-.1-1.837a2.46 2.46 0 0 0-1.643-1.536a3.6 3.6 0 0 0-.836-.154q.28-.204.455-.434a1.5 1.5 0 0 0 .265-.477q.08-.237.064-.497a1.6 1.6 0 0 0-.122-.53a2.3 2.3 0 0 0-.28-.503a1.8 1.8 0 0 0-.409-.386l-.047-.032l-.022-.016l-.01-.01h-.01l-.027-.022l-.021-.01l-.027-.016l-.016-.011h-.01a2.8 2.8 0 0 0-.62-.254a2.7 2.7 0 0 0-.625-.058h-.047l-.053.01h-.043l-.132.021l-.159.016l-.17.027l-.317-1.075l-.953.238l.275 1.043l-.037.01l-.027.011h-.015l-.011.006l-.037.01l-.032.006l-.037.01l-.032.006l-.635.164l-.577-2.5l-.101.032h-.01l-.106.037l-.106.037l-.117.042l-.17.064l-.047.021l-.212.085a9.7 9.7 0 0 0-1.853 1.059a9.06 9.06 0 0 0-3.061 3.945a8.73 8.73 0 0 0-.503 4.533a8.2 8.2 0 0 0 1.123 3.06a8.5 8.5 0 0 0 1.07 1.415l-.769 1.154l2.844-.725l-.286-3.135l-.73 1.101a6.94 6.94 0 0 1-1.875-3.505a7.06 7.06 0 0 1 .201-3.511a7.33 7.33 0 0 1 2.277-3.421a8 8 0 0 1 1.716-1.102l.296 1.563l-2.107.53l.132 1.217l1.038-.265l.874 5.937l-1.26.317l.211 1.944l2.807-.715l.386 2.065l1.388-.36l-.466-2.034l.805-.206l.085-.021l.09-.021l.084-.027l.085-.021l1.472 5.608h.01q.381-.11.742-.27l.159-.07a9 9 0 0 0 3.622-2.774a8.8 8.8 0 0 0 1.795-6.598zM10.644 9.204l-.403-1.747l.546-.138l.052-.016q.413-.1.837-.106l.196.037c.115.03.219.095.297.186l.106.158q.106.211.132.445v.212a.66.66 0 0 1-.159.344c-.042.053-.095.09-.159.138a2.4 2.4 0 0 1-.471.233q-.156.054-.318.095l-.662.16zm3.177 2.738a.9.9 0 0 1-.053.265a.7.7 0 0 1-.122.211a1.2 1.2 0 0 1-.201.191a2.4 2.4 0 0 1-.286.175q-.406.199-.847.296l-.742.191l-.603-2.616l.688-.175a4.6 4.6 0 0 1 .784-.127c.116 0 .217 0 .317.016a.91.91 0 0 1 .689.37q.091.117.159.25c.112.248.184.512.212.783c.01.053.01.117.005.17"/><defs><linearGradient id="SVGcbpH4dAS" x1="12" x2="12" y1="3.527" y2="20.473" gradientUnits="userSpaceOnUse"><stop stop-color="#5bc8cb"/><stop offset="1" stop-color="#03a4df"/></linearGradient></defs></g></svg>