<svg xmlns="http://www.w3.org/2000/svg" viewBox="0 0 24 24"><g fill="none"><path fill="url(#SVGo6Zyzb4e)" d="M12 19.875a7.875 7.875 0 1 0 0-15.75a7.875 7.875 0 0 0 0 15.75M12 21a9 9 0 1 0 0-18a9 9 0 0 0 0 18"/><path fill="url(#SVGO2eIycdX)" d="M12 19.875a7.875 7.875 0 1 0 0-15.75a7.875 7.875 0 0 0 0 15.75"/><path fill="#d7e6f9" d="M12.563 9.469V6.094l-3.938 2.25V9.75c.282.281.788.563 1.688.563s1.873-.563 2.25-.844"/><path fill="#d5dbfb" d="m15.376 7.5l-2.813 1.969V16.5l2.813-1.687z"/><path fill="#fff" d="M10.313 10.313c-.562 0-1.592-.377-1.688-.563v6.75c.096.281.563.844 1.688.844s1.969-.563 2.25-.844V9.47c-.563.281-1.536.844-2.25.844"/><defs><linearGradient id="SVGo6Zyzb4e" x1="20.437" x2="3.844" y1="12" y2="12.281" gradientUnits="userSpaceOnUse"><stop stop-color="#17c8fa"/><stop offset="1" stop-color="#975dfe"/></linearGradient><linearGradient id="SVGO2eIycdX" x1="15.938" x2="7.782" y1="5.812" y2="18.188" gradientUnits="userSpaceOnUse"><stop stop-color="#b0aeff"/><stop offset="1" stop-color="#278edd"/></linearGradient></defs></g></svg>