<svg version="1.1" viewBox="0 0 128 128" xmlns="http://www.w3.org/2000/svg">
 <rect width="128" height="128" ry="14" fill="#5351f3" stroke-width="5.12"/>
 <g transform="matrix(1.0001 0 0 1.0167 -.96643 25.866)" fill="#f6f5f4">
  <path d="m64.008 8.0142c-15.316 0.29432-28.263 4.7739-38.365 13.811-10.013 8.9575-16.719 21.934-20.518 38.336-0.00901 0.0389-0.016414 0.07758-0.025391 0.11653-0.025781 0.11184-0.034094 0.2226-0.052734 0.3343-0.021618 0.13069-0.050378 0.2601-0.0625 0.39161-0.01888 0.20061-0.018698 0.39981-0.015625 0.59792 0.00104 0.0631-0.00515 0.12611-0.00195 0.18912 0.011384 0.22796 0.040974 0.4524 0.080078 0.67433 0.00677 0.03864 0.00803 0.07803 0.015625 0.11653 0.052224 0.2633 0.12175 0.52105 0.21094 0.77176 0.054871 0.15512 0.11849 0.30808 0.1875 0.45847 0.024191 0.05252 0.052316 0.10304 0.078125 0.15473 0.049581 0.09961 0.098399 0.19917 0.1543 0.2961 0.082194 0.14252 0.17179 0.28246 0.26758 0.41835 8.204e-4 0.0012 0.00113 0.0027 0.00195 0.0038 0.095902 0.13583 0.19723 0.26724 0.30664 0.39543 0.11726 0.13739 0.24623 0.26801 0.37891 0.39543 0.045938 0.04429 0.093084 0.08715 0.14062 0.1299 0.0385 0.03451 0.073589 0.07143 0.11328 0.10507 0.029362 0.0249 0.06207 0.04269 0.091797 0.06686 0.16377 0.13341 0.3357 0.2579 0.51562 0.37251 0.045449 0.029 0.090666 0.05845 0.13672 0.08596 0.22105 0.13177 0.44731 0.25435 0.68945 0.35531 0.15426 0.06432 0.31441 0.12118 0.47656 0.17192 0.055055 0.01727 0.11058 0.03036 0.16602 0.04585 0.081959 0.02289 0.16232 0.04755 0.24609 0.06686 0.012403 0.0029 0.024707 3e-3 0.037109 0.0057 0.24141 0.05371 0.48559 0.09004 0.73047 0.1108 0.058825 0.0051 0.11714 0.0064 0.17578 0.0096 0.19887 0.01047 0.39719 0.01099 0.5957 0 0.05201-0.0028 0.10451-0.0014 0.15625-0.0057 0.0059-4.91e-4 0.01171-0.0014 0.01758-0.0019 0.21399-0.01861 0.42606-0.054 0.63672-0.09743 0.0729-0.01512 0.14477-0.03164 0.2168-0.04967 0.22313-0.05545 0.44453-0.11906 0.66016-0.20249 0.13942-0.05394 0.27682-0.11401 0.41211-0.17957 0.13251-0.06439 0.26184-0.13355 0.38867-0.20822 2e-3 -0.0012 0.0039-0.0026 0.0059-0.0038 0.1272-0.07511 0.25223-0.15564 0.37305-0.2407 0.0015-1e-3 0.0024-0.0028 0.0039-0.0038 0.1222-0.08621 0.2405-0.1772 0.35547-0.27317 0.12069-0.10114 0.23833-0.20803 0.35156-0.32093 0.08301-0.08242 0.16045-0.17005 0.23828-0.25789 0.02578-0.02916 0.05284-0.05613 0.07813-0.08596 0.02513-0.02964 0.05074-0.05846 0.07617-0.08787 2.4024-2.7784 6.1609-4.5427 12.254-4.5427 5.7562 0 10.694 1.5993 15.012 4.7604l0.16992 0.12799c2.3461 1.746 5.5407 1.819 7.9629 0.17957 5.1601-3.4905 10.16-5.068 15.084-5.068 4.8364 0 9.5279 1.5188 14.18 4.8216l0.09766 0.07068c2.5828 1.8471 6.093 1.6868 8.4961-0.38779 3.0729-2.6521 7.2791-4.2007 13.129-4.2007 6.1547 0 10.927 1.7165 14.695 4.898 0.0237 0.02001 0.0467 0.041 0.0703 0.06113 0.069 0.05876 0.1419 0.10952 0.21289 0.16428 0.0587 0.04515 0.11541 0.0929 0.17579 0.13563 0.10034 0.07121 0.20302 0.13506 0.30664 0.19867 0.0504 0.03087 0.0991 0.06436 0.15039 0.0936 0.13965 0.07966 0.2834 0.15145 0.42773 0.21777 0.0153 7e-3 0.0296 0.01603 0.0449 0.02292 0.16743 0.07508 0.33747 0.14132 0.50977 0.19867 0.25219 0.08434 0.51138 0.14956 0.77539 0.19676 0.0453 8e-3 0.0913 0.0084 0.13672 0.01528 0.21736 0.03326 0.43569 0.05818 0.6582 0.06495 0.0554 0.0017 0.11059-0.0057 0.16602-0.0057 0.21051 4.2e-5 0.42193-0.0038 0.63476-0.02866 0.0901-0.01037 0.17809-0.03296 0.26758-0.04776 0.15773-0.02626 0.31489-0.04538 0.47266-0.08596 0.0109-0.0028 0.0204-0.0086 0.0312-0.01146 0.10406-0.02733 0.20411-0.06779 0.30664-0.10124 0.15035-0.04918 0.30199-0.0958 0.44531-0.15664 0.088-0.03739 0.17151-0.08586 0.25781-0.12799 0.14994-0.07321 0.30045-0.14564 0.44141-0.23114 0.0885-0.05371 0.17193-0.11668 0.25781-0.17575 0.13215-0.09092 0.26201-0.18326 0.38477-0.28463 0.0799-0.06596 0.15567-0.13715 0.23242-0.20822 0.12313-0.11409 0.2418-0.23102 0.35351-0.35531 0.0345-0.03833 0.0738-0.06937 0.10743-0.10889 0.044-0.05169 0.0793-0.10764 0.12109-0.16046 0.0604-0.07659 0.11954-0.15346 0.17578-0.23306 0.0871-0.12282 0.16648-0.24868 0.24219-0.37633 0.038-0.06425 0.0779-0.12719 0.11328-0.19294 0.0842-0.15615 0.15674-0.31602 0.22461-0.47757 0.0216-0.05133 0.0463-0.10082 0.0664-0.15282 0.0834-0.21684 0.15615-0.43579 0.21093-0.65905 0.0902-0.36508 0.14314-0.74241 0.15625-1.1252 2e-5 -6.31e-4 -2e-5 -0.0013 0-0.0019 7.4e-4 -0.02171-2e-3 -0.04324-2e-3 -0.06495 4e-3 -0.16577 4e-3 -0.33297-8e-3 -0.50049-0.0129-0.18842-0.0362-0.37728-0.0684-0.56354-0.0251-0.14389-0.0567-0.28784-0.0937-0.43172-8e-3 -0.02958-0.0139-0.05832-0.0215-0.08787-4.3657-16.917-11.503-30.163-21.816-39.107-10.421-9.0389-23.559-13.228-38.936-12.933zm0.21094 11.003c13.143-0.25248 23.488 3.2845 31.514 10.245 5.8297 5.0565 10.704 12.155 14.475 21.531-2.873-0.70783-5.9086-1.0545-9.0879-1.0545-6.7248 0-12.761 1.5564-17.789 4.9419-5.6342-3.438-11.694-5.2456-18.113-5.2456-6.5665 0-12.87 1.8894-18.852 5.4348-5.7736-3.6321-12.279-5.4348-19.377-5.4348-2.563 0-5.0165 0.23828-7.3301 0.73546 3.3904-8.6231 7.8764-15.27 13.322-20.142 7.782-6.9616 18.035-10.757 31.238-11.011z" fill="#f6f5f4" stroke-width="7.9546"/>
 </g>
</svg>
