<svg xmlns="http://www.w3.org/2000/svg" viewBox="0 0 24 24"><g fill="none"><path fill="#b10001" d="M6.27 6.6c.18 0-.374.585-.676.882c-.369.59-1.16 1.768-1.34 1.768c-.226 0-.113-.225 0-.44c.112-.226-.113-.113-.451-.33c-.342-.224.108-.224.333-.44c.225-.225-.562-.113-1.013-.329c-.45-.225.45-.112.788 0c.338.104.225-.112.225-.333c0-.225-.45-.553-.342-.661c.113-.113.342.44.675.436c.342 0 .113-.549.225-.549c.113 0 .117.55.225.55c.117 0 .225-.55.338-.55c.112 0-.108.55 0 .657c.117.113.787-.661 1.012-.661m10.904 10.8c-.18 0 .374-.584.675-.881c.374-.585 1.17-1.764 1.35-1.764c.225 0 .113.225 0 .44c-.112.226.113.113.45.334c.338.22-.112.22-.337.44c-.225.221.563.109 1.012.33c.45.224-.45.112-.787 0c-.338-.109-.225.112-.225.332s.45.55.337.662c-.112.108-.337-.441-.675-.441c-.337 0-.112.549-.225.549c-.112 0-.112-.55-.225-.55c-.112 0-.225.55-.337.55s.112-.55 0-.662c-.113-.103-.788.662-1.013.662"/><path fill="#5a0000" d="M5.023 12.472c.072-.108.288-.324.558-.324s.414.144.45.216c.149-.108.496-.306.676-.216c.18.086.747.252 1.008.324c.148-.18.513-.522.783-.436c.337.112.675.328.675.544c0 .176-.522 1.737-.788 2.493h.563l.675-2.385c.108-.18.495-.562 1.12-.652c.784-.108 1.346 0 1.459.544a1.6 1.6 0 0 1 .675-.324c.36-.09 1.269-.036 1.678 0c.077-.036.226.018.226.54c0 .653-.45 1.305-.784 1.305c-.337 0-.562-.328-.45-.436s.225-.432 0-.324s-1.125 1.845-.9 1.845c.149 0 .482-.23.765-.419c.149-.103.28-.198.36-.234c.18-.09.374.108.45.216l1.009-2.385c.076-.108.27-.306.45-.216c.18.086.225.612.225.864c.45-.324 1.39-.954 1.57-.864c.225.108-.45 1.3-1.237 1.845c.189.396.562 1.233.562 1.409c.036-.072.158-.216.338-.216s.297-.072.337-.113c-.189-.036-.562-.148-.562-.324v-1.084c.26-.504.99-1.517 1.795-1.517c.225 0 .649.063.559.324c.189-.108.607-.306.787-.216c.14.068-.072.392-.279.707c-.121.184-.243.364-.283.486c-.113.324-.45.76-.784.76c-.337 0-.675-.328-.562-.54c-.113.068-.315.234-.225.32a1 1 0 0 0 .207.117c.18.09.432.211.58.427c.18.261.297.617.338.761c-.076.36-.36 1.08-.9 1.08s-1.494.077-1.908.113c-.149-.036-.423-.153-.333-.324a.85.85 0 0 0 .108-.329l-.675-.977l-.334.977c-.184.216-.603.653-.783.653s-.301-.288-.337-.437c-.261.149-.833.437-1.013.437h-1.008c-.184-.036-.562-.176-.562-.437c-.149.149-.513.437-.784.437c-.27 0-.86-.288-1.125-.437c0 .077-.045.22-.225.22h-1.34c-.041.073-.18.217-.45.217s-1.009-.288-1.351-.437c-.22.18-.738.522-1.008.437l-.675-.216l.675-3.799zm5.158 2.494c.076-.073.247-.172.338 0l.675-1.517c.036-.108.063-.306-.113-.216c-.225.108-.45.216-.562.648c-.09.346-.262.868-.338 1.085"/><path fill="#5a0000" fill-rule="evenodd" d="M5.81 7.068c.302.036.878.234.788.743q-.12.481-.315.94c-.225.603-.459 1.215-.247 1.287c.157.045.387-.62.634-1.336c.284-.815.585-1.692.828-1.634c.36.086.599.248.676.315c.036-.14.157-.405.337-.315c.18.086.45.176.563.212l.225 1.062c.26-.464.832-1.36 1.012-1.274s.225.248.225.315c.113-.14.36-.405.45-.315l.338.315c.337-.067 1.035-.211 1.125-.211s.486.283.675.427c.036-.108.158-.32.338-.32s1.651.073 2.362.104c.113.072.316.28.225.531c-.112.315-.9.743-1.35.743c.113.072.338.256.338.423c0 .17-.374.495-.563.639c.261 0 .788.045.788.211c.148-.108.472-.315.562-.315c.032 0 .153-.193.333-.472c.477-.734 1.346-2.075 1.918-2.075c.112.036.337.126.337.212a.88.88 0 0 1 .563-.212c.27 0 .414.14.45.212l1.012-.108c.19.036.563.17.563.427c0 .315-.788 2.543-1.013 2.97c-.18.338-1.426.63-2.025.739c-.148.072-.45.193-.45.107v-.571a3 3 0 0 1-.675.464c-.09 0-.112-.707-.112-1.058c-.149.247-.473.742-.563.742c-.113 0-.225 0-.675.423c-.113 0-.338-.044-.338-.211l.014-.171c.022-.18.045-.36-.126-.36c-.135 0-.225.108-.302.198c-.054.067-.103.121-.148.121l-.153-.013c-.243-.027-.689-.067-.86.014a2.2 2.2 0 0 0-.45.315l-.787-.847c-.113.104-.405.36-.676.531c-.202.126-.526.18-.8.221c-.185.027-.347.054-.437.095a.54.54 0 0 0-.203.175c-.045.058-.076.095-.135.04l-.45-.427c-.148.135-.472.392-.562.36c-.09-.031-.338-.252-.45-.36l-.113-.635l-.225.423c-.112.145-.405.45-.675.531c-.27.086-.64-.18-.788-.314a.49.49 0 0 1-.45.314c-.27 0-1.089-.283-1.462-.422zm5.626 1.485l.338-.211l.113.423c-.077.35-.338 1.102-.788 1.273zm7.651 0l.45-.211v.738c-.076.36-.337 1.062-.787 1.062z" clip-rule="evenodd"/><path fill="#d00008" fill-rule="evenodd" d="M5.852 12.32c0-.257-.225-.32-.342-.32c-.185 0-.46.216-.576.32c-.225 1.147-.666 3.474-.572 3.645c.077.144.306 0 .585-.175c.14-.086.293-.18.45-.253c.455-.216 1.26-.643 1.373-1.179c.09-.427-.113-.54-.225-.54c.225-.211.684-.724.684-1.066c0-.433-.225-.644-.689-.644c-.364 0-.612.144-.688.211m-.113.643l-.117.54c.117-.036.392-.108.576-.108c.19-.144.504-.45.225-.54c-.27-.08-.571.036-.684.108m-.346 1.503l-.113.536c.27-.072.801-.28.801-.54c0-.252-.459-.104-.688 0z" clip-rule="evenodd"/><path fill="#d00008" d="M8.376 12c-.37 0-.689.716-.801 1.071l-.621 2.359c-.212.072-.644.238-.644.324c0 .085.306.103.46.103c.04.036.13.108.188.108c.054 0 .203-.14.27-.211h1.72l.229-.216c.076.144.391.427 1.035.427s1.035-.495 1.148-.747c.27-.72.8-2.187.8-2.358c0-.216 0-.86-1.034-.86a1.49 1.49 0 0 0-1.373.855l-.689 2.147h-1.26q.306-1.032.684-2.039c.23-.535.347-.963-.112-.963m1.372 3.002l.689-2.142c.077-.072.32-.194.689-.108c.364.085.306.391.225.535l-.946 1.873a.9.9 0 0 0-.085-.482c0 .216-.189.324-.225.324zm.572.32a.3.3 0 0 0 .085-.162zm3.677-2.25c-.117.18-.297.54-.117.54c.23 0 .688-.54.805-.752c.113-.216.113-.644-.688-.644s-1.377 0-1.607.644q-.376 1.17-.688 2.358c-.113.248-.225.747.23.747h1.034c.343-.14 1.054-.513 1.144-.855c.117-.432.117-.751-.113-.643c-.076.036-.256.18-.463.346c-.415.333-.95.76-1.027.617l-.04-.068l-.045-.085c-.014-.054 0-.117.045-.315l.04-.176c.09-.427.342-1.179.46-1.499c.152-.144.503-.427.683-.427c.23 0 .468 0 .347.211m1.949-.428c.09-.428-.113-.608-.225-.644c-.135 0-.234.261-.338.54a2.4 2.4 0 0 1-.238.531c-.23.325-1.148 2.79-.918 2.894c.18.09.611-.391.8-.643c0-.356.09-1.071.46-1.071c.369 0 .994.931 1.26 1.395c-.36.085-.378.247-.342.32c1.787.21 1.944.013 2.268-.392l.027-.036c.31-.383.248-.594.149-.945l-.032-.126c-.063-.22-.27-.356-.459-.478c-.18-.116-.346-.225-.346-.382c0-.32.575-.536.805-.536c.13 0 .108.216.09.415c-.013.148-.027.292.023.337c.117.108.459-.257.688-.54c.23-.28.572-.963.46-1.067c-.068-.063-.257.095-.424.239c-.112.099-.22.189-.265.189s-.068-.072-.104-.162c-.058-.158-.135-.374-.355-.374c-.343 0-1.378.855-1.49 1.18a1.7 1.7 0 0 0 0 1.07c.063.244.418.415.635.523c.166.08.252.121.054.121c-.37 0-.919.284-1.148.428c0-.342-.54-1.215-.806-1.607c.576-.324 1.607-1.607 1.377-1.715c-.18-.09-1.224.675-1.719 1.072l.113-.54zM5.919 7.652c.09-.472-.185-.59-.333-.59c-.27-.094-.558.356-.675.59c-.108.554-.356 1.724-.441 2.007c-.113.356-.45 1.535.89 1.657c1.328.117 1.666-1.508 1.89-2.57l.01-.032c.04-.202.085-.382.121-.544c.162-.684.239-1.013-.121-1.107c-.356-.09-.707 1.507-.896 2.358c-.045.225-.09.405-.112.477c-.108.351-.446.824-.891.707c-.32-.086.05-1.27.324-2.147c.108-.342.202-.64.234-.806m3.01 1.89c-.18 0-.517-1.651-.665-2.48c-.559 0-1.454 4.366-1.23 4.366c.226 0 .559-.35.671-.585c.036-.076.059-.225.086-.387c.058-.36.135-.797.36-.797c.27 0 .482 1.184.558 1.774c.333 0 .779-.945.891-1.418a8 8 0 0 1 .45-1.3c.108-.235.333-1.652 0-1.652c-.189 0-.436.751-.666 1.426c-.18.554-.35 1.053-.45 1.053zm4.357-2.124c-.153.315-.382.945-.112.945c.333 0 2.232 0 2.452-.472c.18-.378-1.485-.473-2.34-.473m-.338 2.124c-.27-.094.037-.67.226-.945c.481.04 1.426.212 1.336.59c-.108.472-1.224.472-1.562.355m-.67 1.063l.504.71c.018-.12.166-.36.612-.36a2.3 2.3 0 0 0 1.116-.233c.09-.045.171-.054.243-.063c.122-.014.203-.027.203-.171c0-.239-.779-.473-1.337-.473c-.45 0-1.08.392-1.341.59"/><path fill="#d00008" fill-rule="evenodd" d="M11.054 7.419a.34.34 0 0 0-.338-.36c-.27 0-.333.396-.333.594c-.225 1.3-.648 3.87-.558 3.78c.045-.05.112-.058.238-.072c.18-.022.468-.059.99-.238c.712-.248 1.117-1 1.225-1.346c.112-.63.36-1.935.45-2.124c.076-.167-.117-.27-.28-.36a1 1 0 0 1-.17-.113c-.09-.09-.855.117-1.225.239m-.225.945l-.45 2.24c.373-.075 1.165-.404 1.34-1.061c.18-.662.226-1.458.226-1.773l-1.116.59zm4.352 1.885a3.4 3.4 0 0 1 .67-.35c.482-.986 1.562-2.93 2.007-2.836c.437.09.261.468.059.914a5 5 0 0 0-.171.387c-.18.468-.297 1.768-.333 2.358l-.558.594v-1.305h-.333l-.558.945c-.19.081-.603.31-.784.594c-.035-.315-.044-.99.226-1.179zm1.674-.945l.225-.585v.58h-.225zm1.894-2.24c-.18 0-.369.233-.445.355a45 45 0 0 1-.446 1.651c-.09.284-.26 1.692-.333 2.363c.185 0 .693-.063 1.229-.315a3.06 3.06 0 0 0 1.116-.986a26 26 0 0 0 .666-2.24c.09-.473-.333-.595-.558-.595l-.891.122c-.036-.122-.158-.36-.333-.36zm0 1.178l-.445 2.363A2.12 2.12 0 0 0 19.87 9.07v-1.3z" clip-rule="evenodd"/></g></svg>