<svg xmlns="http://www.w3.org/2000/svg" viewBox="0 0 24 24"><g fill="none"><path fill="#813f86" d="m13.688 19.311l-.563 1.407l-.562-3.64z"/><path fill="#a25aa7" d="m12.845 16.5l.843 2.813l-1.125-2.25L8.626 12l.844.563h.281z"/><path fill="#af2d9e" d="m3.844 11.156l-.281 4.219l3.374-9z"/><path fill="#ad3bba" d="m8.625 6.656l-1.688-.281l-3.375 9z"/><path fill="#ab319c" d="m7.781 14.25l.844-7.594l-5.062 8.719z"/><path fill="#9f40aa" d="m7.781 13.969l.844-7.313L20.437 3L10.313 8.062L8.625 12l3.937 5.063z"/><path fill="#891f79" d="M9.75 4.125L10.313 3l.28 1.687l-.28.844l-.563.282z"/><path fill="#a55caa" d="M11.72 4.125L10.313 3l.282 1.687h1.125z"/><path fill="#9c3fa7" d="m10.595 4.688l-.282.843l1.407-.281l-.844-.562z"/><path fill="#d392d7" d="M11.719 4.688h-.844l.844.562h.844l-.844-1.125z"/><path fill="#81308d" d="m8.625 19.875l-5.062-4.5l1.124 1.688z"/><path fill="#5c146a" d="m6.375 14.531l-2.812.844l5.062 4.5h.844z"/><path fill="#5f186b" d="m7.781 13.969l-1.406.562l3.094 5.344l1.968-.844l1.125-1.968z"/><path fill="#290c1e" d="m13.126 20.719l-.563-3.657l-1.125 1.97l-2.812.843L10.032 21z"/><path fill="#601252" d="m8.625 6.656l-1.687-.281L20.438 3z"/><path fill="#a057a5" d="M9.47 12.563L8.626 12l.844-1.969l.281 2.532z"/><path fill="#b642c2" d="M9.469 11.156v-1.125l1.125.282v1.125l-.281.28z"/><path fill="#a0358a" d="m12.844 7.781l-1.969 1.125l4.5 3.094z"/><path fill="#631154" d="m14.25 12l-3.656-1.687v1.125z"/><path fill="#8d2e9a" d="m14.25 12l-4.78-1.97l1.406-1.125l4.5 3.094z"/><path fill="#4d0f59" d="m10.595 11.438l-.282.28l2.532 1.126L14.25 12z"/><path fill="#892697" d="M12.844 12.844L14.25 12v1.969z"/><path fill="#491e4d" d="M15.376 12H14.25v1.125h1.125z"/><path fill="#591e45" d="M14.251 13.969v-.844h1.125l.844.844z"/><path fill="#9f57a4" d="m16.219 13.969l-.844-.844V12H16.5l.281.844z"/><path fill="#ab62b0" d="M16.5 12h-1.125l-2.531-4.22l.844-.281l2.53 3.375z"/><path fill="#a057a5" d="M20.437 3L9.47 10.031l10.968-6.469z"/><path fill="#6a3070" d="M10.313 7.781L20.437 3L9.47 10.031z"/></g></svg>