<svg xmlns="http://www.w3.org/2000/svg" viewBox="0 0 24 24"><path fill="#42eab2" fill-rule="evenodd" d="M16.52 6.287a.58.58 0 0 0-.176-.415a.6.6 0 0 0-.424-.172h-3.3a.6.6 0 0 0-.424.172a.58.58 0 0 0-.176.415v3.099a.58.58 0 0 0 .176.414c.113.11.265.171.424.171h3.263a.55.55 0 0 1 .424.175a.52.52 0 0 1 .13.431c-.373 1.783-1.903 3.167-3.818 3.41a.67.67 0 0 0-.42.201a.64.64 0 0 0-.18.421v3.1a.55.55 0 0 0 .175.41a.57.57 0 0 0 .426.157c4.486-.28 8.075-3.681 8.38-7.937a.55.55 0 0 0-.16-.416a.57.57 0 0 0-.42-.17h-3.3a.6.6 0 0 1-.425-.172a.58.58 0 0 1-.176-.415zM7.5 17.713a.58.58 0 0 1-.176.415a.6.6 0 0 1-.424.172H3.6a.6.6 0 0 1-.424-.172a.58.58 0 0 1-.176-.415v-3.099c0-.155.063-.304.176-.414a.6.6 0 0 1 .423-.171h3.264a.55.55 0 0 0 .426-.178a.52.52 0 0 0 .127-.434a4.33 4.33 0 0 0-1.35-2.302a4.5 4.5 0 0 0-2.468-1.106a.67.67 0 0 1-.418-.202a.64.64 0 0 1-.18-.421v-3.1a.55.55 0 0 1 .174-.41a.57.57 0 0 1 .427-.157c4.486.282 8.072 3.681 8.378 7.937a.55.55 0 0 1-.159.416a.57.57 0 0 1-.42.17H8.1a.6.6 0 0 0-.424.172a.58.58 0 0 0-.176.414z" clip-rule="evenodd"/></svg>