<svg xmlns="http://www.w3.org/2000/svg" viewBox="0 0 24 24"><g fill="none"><path fill="#183ea4" d="M6.758 6.805A4.6 4.6 0 0 0 8.714 9.02c1.249.77 6.383-2.148 8.795-3.7c-.5-.585-2.227-1.754-5.145-1.754c-2.924 0-4.695 1.428-5.218 2.148l-.394 1.09zm8.496 13.028c-.298.135-1.04.467-1.389.45c-.416-.011-1.743-.709-2.502-2.03c-.765-1.321-.776-2.193-.158-2.98a11.3 11.3 0 0 1 1.985-1.743l6.523 1.108c.067.37-.152 1.461-1.558 2.923c-1.405 1.446-2.434 2.08-2.777 2.216z"/><path fill="url(#SVGj2SRebCn)" d="M9.439 5.494c-1.125 1.709-4.881 2.912-5.5 2.727l-.005-.011q.344-.71.81-1.344a9.1 9.1 0 0 1 2.665-2.44a2.64 2.64 0 0 1 1.237-.338c1.675.034.804 1.389.793 1.406"/><path fill="url(#SVG6ePsFdeo)" d="M8.517 17.572c.079.54 0 2.66-.113 2.84c-.095.005-.286.016-.854-.304a9 9 0 0 1-3.543-3.711a9.05 9.05 0 0 1-.883-5.646a9 9 0 0 1 .433-1.664c.653.871 1.406 1.659 2.041 2.53a40 40 0 0 1 1.614 2.497c1.057 1.81 1.226 2.924 1.305 3.458"/><path fill="url(#SVGXhX1LPVK)" d="M21 12.225a9.2 9.2 0 0 1-.624 3.335c-1.063 1.147-8.21-1.682-8.277-1.71c-.978-.433-3.953-1.743-4.217-3.812c-.388-2.97 5.583-5.038 8.21-5.117c.314.006 1.276.017 1.832.472A9.08 9.08 0 0 1 21 12.225"/><path fill="url(#SVGTiN5vcMB)" d="M16.164 20.272c-.781.365-1.636.1-1.417-.664c.433-1.468 4.161-2.98 4.988-3.059c.107-.005.146.062.101.14a9.1 9.1 0 0 1-3.672 3.582"/><defs><linearGradient id="SVGj2SRebCn" x1="5.679" x2="21.726" y1="18.186" y2="13.907" gradientUnits="userSpaceOnUse"><stop stop-color="#58c07b"/><stop offset="1" stop-color="#5599e0"/></linearGradient><linearGradient id="SVG6ePsFdeo" x1=".43" x2="17.496" y1="8.807" y2="5.271" gradientUnits="userSpaceOnUse"><stop offset=".32" stop-color="#57bc87"/><stop offset=".99" stop-color="#5493f1"/></linearGradient><linearGradient id="SVGXhX1LPVK" x1="3.372" x2="21.95" y1="11.997" y2="11.628" gradientUnits="userSpaceOnUse"><stop stop-color="#58c56e"/><stop offset="1" stop-color="#5492f3"/></linearGradient><linearGradient id="SVGTiN5vcMB" x1="14.961" x2="20.027" y1="19.08" y2="17.218" gradientUnits="userSpaceOnUse"><stop stop-color="#58c178"/><stop offset="1" stop-color="#5493f0"/></linearGradient></defs></g></svg>