<svg xmlns="http://www.w3.org/2000/svg" viewBox="0 0 24 24"><path fill="#d8191e" d="m20.995 3.1l-1.121 2.425a.1.1 0 0 1-.033.035a.1.1 0 0 1-.047.012h-3.209a.09.09 0 0 1-.073-.035a.07.07 0 0 1-.003-.071l.003-.006l1.164-2.413a.08.08 0 0 1 .08-.046h3.159q.02 0 .04.008a.1.1 0 0 1 .032.025q.01.014.013.032a.1.1 0 0 1-.005.034m-2.674 5.686h-9.78L7.493 6.215h5.777c.036 0 .068-.043.08-.077l1.041-3.015q.008-.02.005-.042a.1.1 0 0 0-.014-.04a.09.09 0 0 0-.071-.04H3.086a.08.08 0 0 0-.07.04a.09.09 0 0 0-.01.082l3.328 8.82a.09.09 0 0 0 .08.056h7.529l-2.08 5.864l-1.136-3.23a.084.084 0 0 0-.08-.058l-3.154-.003a.08.08 0 0 0-.069.038a.1.1 0 0 0-.009.085l2.287 6.247a.084.084 0 0 0 .08.058h4.146a.1.1 0 0 0 .049-.016a.1.1 0 0 0 .03-.04L18.401 8.93c.01-.027.016-.073 0-.097c-.01-.014-.043-.048-.08-.048"/></svg>