<svg xmlns="http://www.w3.org/2000/svg" viewBox="0 0 24 24"><path d="M11.98 21H7.543c-.53 0-.656-.093-.753-.626c-.201-1.11-.383-2.221-.577-3.332c-.283-1.619-.57-3.236-.85-4.855c-.235-1.354-.462-2.71-.695-4.064c-.242-1.385-.488-2.77-.728-4.156q-.04-.224-.041-.449c.002-.308.162-.503.463-.506c.975-.014 1.95-.009 2.925-.003c.325.003.432.253.49.512c.1.45.18.905.261 1.36c.204 1.153.402 2.305.604 3.458q.481 2.76.967 5.52q.144.826.314 1.646a2.1 2.1 0 0 0 2.03 1.703a2.126 2.126 0 0 0 2.105-1.574c.242-.915.35-1.856.52-2.786q.441-2.457.87-4.917q.341-1.967.677-3.935c.01-.053.013-.107.022-.16c.13-.753.226-.835.977-.835c.782 0 1.564-.003 2.346.001c.487.002.687.2.614.674c-.182 1.177-.388 2.352-.589 3.526q-.418 2.429-.84 4.856c-.238 1.365-.48 2.73-.717 4.095q-.354 2.03-.704 4.061q-.019.112-.04.222c-.096.438-.24.56-.682.56c-1.51.003-3.02 0-4.532 0z"/></svg>