<svg xmlns="http://www.w3.org/2000/svg" viewBox="0 0 256 301"><defs><linearGradient id="SVG1Z1o1buX" x1="13.523%" x2="86.414%" y1="74.679%" y2="25.305%"><stop offset="0%" stop-color="#10e7ff"/><stop offset="10.3%" stop-color="#33d5ff"/><stop offset="25.5%" stop-color="#60bdff"/><stop offset="40.8%" stop-color="#86aaff"/><stop offset="56%" stop-color="#a39aff"/><stop offset="71%" stop-color="#b790ff"/><stop offset="85.8%" stop-color="#c489ff"/><stop offset="100%" stop-color="#c887ff"/></linearGradient><linearGradient id="SVGHlnDLDSp" x1="21.006%" x2="96.466%" y1="54.033%" y2="27.047%"><stop offset="0%" stop-color="#10e7ff"/><stop offset="10.3%" stop-color="#33d5ff"/><stop offset="25.5%" stop-color="#60bdff"/><stop offset="40.8%" stop-color="#86aaff"/><stop offset="56%" stop-color="#a39aff"/><stop offset="71%" stop-color="#b790ff"/><stop offset="85.8%" stop-color="#c489ff"/><stop offset="100%" stop-color="#c887ff"/></linearGradient></defs><path fill="url(#SVG1Z1o1buX)" d="M128 300.346L0 225.26V75.087L128 0l128 75.087V225.26zM17.89 214.677l109.858 64.504l109.858-64.504V85.67L128 21.165L17.89 85.67z"/><path fill="url(#SVGHlnDLDSp)" d="m183.181 109.354l-44.85 78.866l14.614 25.701l59.464-104.567zm-50.142 0L88.19 188.22l14.614 25.701l59.465-104.567zm-89.448 0l59.464 104.567l14.614-25.7l-44.85-78.867zm0 0l59.464 104.567l14.614-25.7l-44.85-78.867zm89.448 0L88.19 188.22l14.614 25.701l59.465-104.567z"/></svg>