<svg xmlns="http://www.w3.org/2000/svg" viewBox="0 0 24 24"><g fill="none"><path fill="#2b2d78" d="M12 21a9 9 0 1 0 0-18a9 9 0 0 0 0 18"/><path fill="#434487" d="M12 19.687a7.687 7.687 0 1 0 0-15.374a7.687 7.687 0 0 0 0 15.374"/><path fill="#5c5d96" d="M12 18.274a6.274 6.274 0 1 0 0-12.547a6.274 6.274 0 0 0 0 12.547"/><path fill="#7373a5" d="M12 16.833a4.833 4.833 0 1 0 0-9.667a4.833 4.833 0 0 0 0 9.667"/><path fill="#898bb4" d="M12 15.44a3.441 3.441 0 1 0 0-6.881a3.441 3.441 0 0 0 0 6.882"/><path fill="#9f9fc1" d="M12 14.192a2.192 2.192 0 1 0 0-4.383a2.192 2.192 0 0 0 0 4.383"/><path fill="#b1b1cd" d="M12 13.027a1.027 1.027 0 1 0 0-2.054a1.027 1.027 0 0 0 0 2.054"/><path fill="#fff" d="M12.006 17.294L7.305 7.235h1.927l2.774 5.962l2.859-5.962h1.842z"/></g></svg>