<svg xmlns="http://www.w3.org/2000/svg" viewBox="0 0 24 24"><g fill="none"><path fill="#c474e7" d="m11.913 16.59l.058-.355a2 2 0 0 0 .027-.36V4.143c0-.286-.022-.572 0-.852q.017-.175-.133-.238c.064-.053.122-.064.17-.043l7.37 3.25q.024.016.01.038l-7.391 10.377q-.016.025-.042.01q-.046-.015-.07-.095"/><path fill="#ac8bfe" d="M11.866 3.053q.15.063.132.238v12.585c0 .127-.005.248-.026.36l-.058.354L4.576 6.288v-.016z"/><path fill="#93d0fe" d="M11.998 17.838v2.647c0 .164.016.296.074.392q-.016.086-.058.116c-.021.01-.037.01-.047-.01Q7.753 13.579 3.533 6.18h.016l8.45 11.663z"/><path fill="#8694e8" d="M12.072 20.879a.7.7 0 0 1-.08-.392q.025-.715 0-2.647a5213 5213 0 0 0 8.445-11.648q.011-.014.022-.005c.01 0 .01.01.005.021l-8.201 14.374a2.3 2.3 0 0 1-.185.297z"/></g></svg>