<svg version="1.1" viewBox="0 0 128 128" xmlns="http://www.w3.org/2000/svg">
 <circle cx="64" cy="64" r="60" fill="#ff3615" stroke-linecap="round" stroke-linejoin="round" stroke-width="15.087"/>
 <path d="m58.374 87.285c-6.3199-1.164-8.5171-9.0104-6.3764-22.771 1.4943-9.6058 0.89209-13.151-2.496-14.695-3.4847-1.5877-9.6103 0.97908-17.49 7.3288-4.9236 3.9675-6.7139 4.8995-7.9349 4.1307-3.111-1.9588-2.355-4.4152 2.8679-9.3187 16.643-15.626 34.797-12.316 32.643 5.9513-2.1344 18.104-2.0027 21.332 0.91555 22.452 4.1291 1.5845 10.27-5.3514 14.045-15.863 0.98765-2.75 2.2233-5.5625 2.746-6.25 1.3109-1.7244 4.1982-1.5661 5.7601 0.31594 1.9134 2.3055 6.5323 4.4679 11.272 5.2769 3.5198 0.60088 4.1736 1.0827 4.1736 3.0758 0 4.5798-4.3901 5.0376-15.18 1.5828-1.8464-0.59121-2.5164-0.03318-4.3831 3.6503-5.6306 11.111-12.991 16.528-20.563 15.133z" fill="#f6f5f4"/>
</svg>
