<svg xmlns="http://www.w3.org/2000/svg" viewBox="0 0 24 24"><g fill="none"><path fill="url(#SVGS2OvBwBI)" d="m17.85 14.7l-2.7-2.926l-4.05 3.375V21z"/><path fill="url(#SVGDkYkjd0w)" d="M10.2 10.65L8.85 8.625l-2.475 2.25l.9 1.575l2.475-.9z"/><path fill="url(#SVGKsle0dbg)" d="M11.55 7.95V3l2.7 6.3z"/><path fill="url(#SVGy2JBXHfC)" d="m14.25 9.3l-2.7-1.35l-5.4 7.425l3.6 3.825z"/><path fill="url(#SVGeFn7kc4L)" d="M15.15 11.775V9.75l2.7 4.95z"/><path fill="url(#SVGmj49HexI)" d="m8.85 8.625l.9-3.375l-3.375 5.625z"/><defs><linearGradient id="SVGS2OvBwBI" x1="18.396" x2="6.836" y1="9.084" y2="10.524" gradientUnits="userSpaceOnUse"><stop stop-color="#5c02ff"/><stop offset=".79" stop-color="#5402db"/><stop offset="1" stop-color="#35077d"/></linearGradient><linearGradient id="SVGDkYkjd0w" x1="16.102" x2="6.213" y1="11.322" y2="12.584" gradientUnits="userSpaceOnUse"><stop stop-color="#35028b"/><stop offset=".31" stop-color="#5704e7"/><stop offset="1" stop-color="#4101ba"/></linearGradient><linearGradient id="SVGKsle0dbg" x1="6.403" x2="10.677" y1="3" y2="22.951" gradientUnits="userSpaceOnUse"><stop stop-color="#7412fd"/><stop offset="1" stop-color="#9a39fc"/></linearGradient><linearGradient id="SVGy2JBXHfC" x1="15.282" x2="9.071" y1="3.31" y2="20.364" gradientUnits="userSpaceOnUse"><stop stop-color="#6001ff"/><stop offset="1" stop-color="#7e1fff"/></linearGradient><linearGradient id="SVGeFn7kc4L" x1="6.891" x2="14.318" y1="5.34" y2="21.529" gradientUnits="userSpaceOnUse"><stop stop-color="#7d2bd8"/><stop offset="1" stop-color="#a35cea"/></linearGradient><linearGradient id="SVGmj49HexI" x1="9.943" x2="6.388" y1="5.569" y2="10.659" gradientUnits="userSpaceOnUse"><stop stop-color="#7416f0"/><stop offset="1" stop-color="#9a43ff"/></linearGradient></defs></g></svg>