<svg xmlns="http://www.w3.org/2000/svg" viewBox="0 0 24 24"><g fill="none"><path fill="#28014a" d="M12 21a9 9 0 1 0 0-18a9 9 0 0 0 0 18"/><path fill="url(#SVGnPl2fekE)" d="M12 19.94c.212-.846-.265-2.291-.53-2.91l3.971-3.971l1.853 5.294l-1.853 1.059l-2.382.794z"/><path fill="#1f5a65" fill-rule="evenodd" d="M12 19.94c.212-.846-.265-2.291-.53-2.91l3.971-3.971l1.853 5.294l-1.853 1.059l-2.382.794zm.064-.036c.09-.434.02-.99-.1-1.52a9 9 0 0 0-.43-1.344l3.886-3.886l1.81 5.172l-1.81 1.038l-2.361.789z" clip-rule="evenodd"/><path fill="url(#SVGMMy99cLb)" d="M7.235 10.147v-.53l.794-2.91l3.176-.266l2.912 2.647l-.265 5.295c-1.323 3.176-3.97 3.705-5.029 3.44c-1.059-.264-1.853-5.558-1.588-6.352c.212-.636.09-1.149 0-1.324"/><path fill="#1f5a65" fill-rule="evenodd" d="M7.288 10.137c.095.196.212.714 0 1.35q-.06.234-.053.476c0 .217.016.487.042.794c.053.61.16 1.35.307 2.076c.149.73.34 1.434.556 1.98c.106.27.223.497.344.661c.117.17.239.265.35.297c1.032.26 3.653-.254 4.966-3.399l.264-5.262l-2.88-2.616l-3.113.265l-.783 2.864zm.741-3.43l-.794 2.91v.53c.09.175.212.688 0 1.324c-.265.794.53 6.088 1.588 6.353s3.706-.265 5.03-3.442l.264-5.294l-2.912-2.647z" clip-rule="evenodd"/><path fill="#6004c7" d="M9.088 11.26c-.413 0-.45.116-.53.195l-.074-.08c.096-.095.164-.222.604-.222c.138 0 .296.037.46.085l.35.117l.196.068c.397.127.852.26 1.376.26c.837 0 1.747-.35 2.092-.524l.052.095c-.36.18-1.286.535-2.144.535a4.4 4.4 0 0 1-1.61-.334c-.12-.042-.232-.085-.343-.116a1.4 1.4 0 0 0-.43-.08"/><path fill="#6004c7" d="M9.125 11.576c-.408 0-.614.09-.689.17l-.074-.075c.096-.1.323-.201.763-.201c.143 0 .296.037.46.085l.355.116l.196.069c.392.127.847.26 1.376.26c.832 0 1.742-.35 2.092-.525l.047.095c-.36.18-1.286.535-2.144.535c-.54 0-1.006-.132-1.408-.264c-.069-.027-.133-.053-.196-.07l-.344-.116a1.4 1.4 0 0 0-.434-.08m-.037-1.43c-.636-1.27-.265-2.557 0-2.911c.847-.212 1.233-.09 1.323 0z"/><path fill="url(#SVG5Sttodhv)" d="M7.5 6.97c-.635 1.059-.439 2.208-.264 2.647c.53-2.117 2.382-2.382 3.97-2.117c1.589.264 2.383 2.647 2.383 3.44c0 .795-.53 1.589-.53 2.383s.53 2.118.53 2.647c0 .53-.794 2.118-.794 2.647c0 .424.175 1.06.264 1.324c1.414.053 2.15-.297 3.442-1.059l1.852-1.588c.355-.53 1.06-1.642 1.06-1.853c0-.265-.53-1.324-.795-1.853c-.264-.53 0-2.383-.53-3.441c-.529-1.06-.793-1.589-.793-2.118c0-.424-.704-1.059-1.059-1.324c-.53-1.588-1.588-2.117-3.97-2.382S8.294 5.647 7.5 6.97"/><path fill="#1f5a65" fill-rule="evenodd" d="M16.235 6.705c-.53-1.588-1.588-2.117-3.97-2.382S8.295 5.647 7.5 6.97a3.2 3.2 0 0 0-.265 2.647l.021-.09C7.818 7.494 9.64 7.24 11.206 7.5c1.588.264 2.382 2.647 2.382 3.44c0 .398-.132.795-.264 1.192c-.133.397-.265.794-.265 1.191c0 .44.159 1.032.307 1.572c.116.44.222.837.222 1.075c0 .265-.201.794-.397 1.324c-.201.53-.397 1.058-.397 1.323c0 .424.175 1.06.265 1.324l3.441-1.059l1.853-1.588c.355-.53 1.059-1.642 1.059-1.853c0-.265-.53-1.324-.794-1.853c-.106-.217-.127-.667-.149-1.191c-.031-.742-.068-1.631-.38-2.25c-.53-1.06-.795-1.589-.795-2.118c0-.424-.704-1.059-1.059-1.324m2.076 10.552q.495-.752.937-1.536q.065-.136.11-.28a2 2 0 0 0-.084-.307a7 7 0 0 0-.212-.498c-.158-.365-.36-.757-.492-1.027c-.069-.143-.106-.365-.127-.63l-.026-.582l-.016-.329a5 5 0 0 0-.36-1.9c-.265-.53-.466-.927-.599-1.26a2.3 2.3 0 0 1-.2-.879a.66.66 0 0 0-.107-.318a2.3 2.3 0 0 0-.275-.37a5.6 5.6 0 0 0-.657-.593l-.01-.01l-.005-.017a2.78 2.78 0 0 0-1.27-1.657c-.62-.36-1.467-.556-2.658-.688c-2.351-.265-3.924 1.308-4.712 2.62a3.17 3.17 0 0 0-.318 2.436a2.66 2.66 0 0 1 1.572-1.816a4.5 4.5 0 0 1 2.415-.17c.815.138 1.424.816 1.82 1.552c.34.597.545 1.26.604 1.943c0 .407-.132.81-.264 1.202v.005a3.8 3.8 0 0 0-.265 1.175c.033.53.135 1.053.302 1.557c.053.195.106.386.143.55c.052.212.084.402.084.54c0 .143-.053.35-.127.582c-.074.228-.175.493-.275.758c-.096.264-.196.529-.27.762s-.122.423-.122.545c0 .392.159.969.244 1.26l3.388-1.043z" clip-rule="evenodd"/><path fill="#ffff01" d="M8.558 9.088C6.441 9.3 5.557 8.12 5.382 7.5c.212 1.694 2.207 2.118 3.176 2.118zm1.324.53v-.53c2.117.424 3.88-1.413 4.5-2.382a4.61 4.61 0 0 1-4.5 2.912"/><path fill="#1f5a65" fill-rule="evenodd" d="M5.382 7.5c.01.095.032.19.053.28c.376 1.43 2.139 1.822 3.07 1.838h.053v-.53h-.053c-1.81.17-2.7-.698-3.017-1.323a1.5 1.5 0 0 1-.106-.265m.185.503a2.24 2.24 0 0 0 1.138 1.138A4.45 4.45 0 0 0 8.5 9.56v-.42c-1.63.143-2.536-.534-2.938-1.143zM9.935 9.57a4.55 4.55 0 0 0 4.14-2.356c-.387.48-.842.9-1.35 1.25a3.77 3.77 0 0 1-2.79.688zm0-.476l-.053-.006v.53a4.61 4.61 0 0 0 4.5-2.912l-.17.244c-.725.995-2.35 2.498-4.277 2.149z" clip-rule="evenodd"/><path fill="#fbffff" d="M10.677 9.883c-.636 0-.795.53-.795.794c.175.09.53.265.795.265c.677 0 1.323-.53 1.853-.794c-.355-.09-1.218-.265-1.853-.265m-2.912 0c-.212 0-.44.175-.53.265c0 .211.175.619.265.794c.424.211.884.09 1.059 0v-.794c-.175-.09-.582-.265-.794-.265"/><path fill="#1f5a65" fill-rule="evenodd" d="M9.935 10.645c.085.043.207.1.329.148c.143.053.29.096.413.096c.328 0 .645-.127.952-.291c.154-.08.297-.16.435-.25l.02-.01l.297-.17c-.407-.095-1.149-.232-1.704-.232c-.302 0-.482.121-.593.275a.8.8 0 0 0-.149.434m2.515-.519a9 9 0 0 0-1.773-.243c-.636 0-.795.53-.795.794c.175.09.53.265.795.265c.497 0 .984-.286 1.413-.546q.215-.13.44-.248zm-5.162.043c.006.095.043.233.096.37c.053.138.11.276.158.366a1.22 1.22 0 0 0 .964 0v-.726a4 4 0 0 0-.35-.148a1.3 1.3 0 0 0-.391-.095a.6.6 0 0 0-.286.09c-.08.053-.148.106-.19.143m1.27-.021v.794c-.174.09-.634.211-1.058 0c-.09-.175-.265-.583-.265-.794c.09-.09.318-.265.53-.265s.62.175.794.265" clip-rule="evenodd"/><path fill="#93907d" d="M10.676 5.383c-.175.355-.635 1.059-1.059 1.059s-.174-.704 0-1.06c-.529.53-.794 1.854 0 1.854c.636 0 .97-1.234 1.06-1.853"/><path fill="#1f5a65" fill-rule="evenodd" d="M9.967 6.368a.6.6 0 0 1-.35.127a.3.3 0 0 1-.158-.037a.24.24 0 0 1-.09-.106a.57.57 0 0 1-.027-.318a1.3 1.3 0 0 1 .064-.265a1.9 1.9 0 0 0-.233.741c-.016.196.01.366.08.482c.068.117.185.19.365.19c.137 0 .264-.068.38-.184c.117-.122.218-.286.308-.477a4.7 4.7 0 0 0 .265-.842c-.085.133-.18.276-.292.403a1.8 1.8 0 0 1-.312.286m.635-.842c-.211.37-.614.916-.984.916c-.36 0-.233-.514-.08-.884l.08-.175a1.3 1.3 0 0 0-.127.148c-.44.593-.604 1.705.127 1.705c.582 0 .915-1.043 1.032-1.694l.027-.16z" clip-rule="evenodd"/><path fill="#6004c7" d="M8.03 14.648c-.212 0-.265.174-.265.264c0 .212.174.265.264.265c0 .265.106.794.53.794c.423 0 1.413-.704 1.853-1.059c-.794 0-1.324-.264-1.589-.264c-.211 0-.264.174-.264.264c-.09-.09-.318-.264-.53-.264"/><path fill="#4edcf7" fill-rule="evenodd" d="M12 19.941a7.942 7.942 0 1 0 0-15.883a7.942 7.942 0 0 0 0 15.883m0 .53A8.47 8.47 0 1 0 12 3.53a8.47 8.47 0 0 0 0 16.94" clip-rule="evenodd"/><path fill="#6004c7" d="M9.14 16.817a2.4 2.4 0 0 1-.105-1.123l.106.021a2.3 2.3 0 0 0 .095 1.07a1.59 1.59 0 0 0 .932.99c-.55-.222-.884-.53-1.032-.953zm-.36.211c-.137-.37-.28-1.032-.327-1.297l.106-.015c.042.264.185.915.317 1.28c.069.186.148.355.233.493c.085.143.26.339.35.381c-.117-.058-.35-.18-.44-.323a3 3 0 0 1-.238-.513z"/><path fill="#184f59" d="M14.912 7.5c0 .424-1.059 1.588-1.588 2.118c.212-.212 1.678-.44 2.382-.53c.212-.423.969-1.233 1.324-1.588z"/><path fill="#7b03ff" d="M15.674 8.226c.07.285.022.555-.105.593c-.128.042-.292-.16-.36-.456c-.07-.286-.022-.556.105-.593c.127-.042.292.16.36.456M14.7 12.53c.027.296-.063.55-.196.571c-.132.022-.264-.206-.285-.503c-.027-.296.063-.55.195-.571c.133-.021.265.206.286.503m.694 5.95c-.106.28-.291.477-.424.44c-.122-.043-.143-.302-.042-.583c.106-.275.291-.47.423-.434c.127.043.149.297.043.583z"/><path fill="url(#SVGSrGvxcIe)" d="M20.205 7.765c-.794.53-3.176 1.323-4.5 1.588c-1.058.212-1.148.794-1.058 1.059c.211.423.09 1.233 0 1.588l.264.265c.355 0 1.165-.106 1.589-.53l2.647-2.647a6.2 6.2 0 0 0 1.058-1.323"/><path fill="#3a6e78" fill-rule="evenodd" d="M18.172 8.707q-1.206.426-2.456.699c-.519.106-.794.296-.926.487a.58.58 0 0 0-.096.497c.111.228.133.546.117.848a4.4 4.4 0 0 1-.106.74l.227.234a3.2 3.2 0 0 0 .731-.106c.297-.074.598-.207.794-.408l2.647-2.647a7 7 0 0 0 .953-1.133c-.44.249-1.138.53-1.885.794zm1.938-.884c-.868.53-3.129 1.27-4.405 1.53c-1.058.212-1.148.794-1.058 1.059c.211.423.09 1.233 0 1.588l.264.265c.355 0 1.165-.106 1.589-.53l2.647-2.647c.406-.396.761-.84 1.058-1.323z" clip-rule="evenodd"/><path fill="#1f5a65" d="M18.437 8.956c-.302.117-.852.286-1.662.45c-.468.072-.913.25-1.302.52a2.4 2.4 0 0 0-.308.28l-.09.106l-.127.137c-.047.053-.063.127-.053.239c.011.079.032.169.07.259c.036-.053.09-.111.142-.164c.09-.085.212-.159.334-.159a.8.8 0 0 0 .428-.159c.064-.042.107-.09.117-.137c.01-.037 0-.085-.053-.143l.074-.075c.08.075.106.16.08.244a.4.4 0 0 1-.154.201a.9.9 0 0 1-.492.175c-.085 0-.175.053-.265.127a1.3 1.3 0 0 0-.164.207c.063.142.143.28.212.375l-.09.064a3 3 0 0 1-.233-.424a1.6 1.6 0 0 1-.111-.38c-.016-.123 0-.245.084-.324l.117-.132l.095-.106c.085-.095.185-.196.323-.297a3.2 3.2 0 0 1 1.345-.54c1.058-.211 1.668-.439 1.842-.524l.064.08c-.44.53-1.377 1.64-1.589 1.858c-.084.08-.211.116-.354.138l-.27.026l-.175.016c-.148.016-.28.042-.37.09a.23.23 0 0 0-.143.222c0 .413.169.477.211.477v.106c-.132 0-.318-.149-.318-.583c0-.074.022-.137.054-.196a.45.45 0 0 1 .143-.121c.116-.053.264-.085.412-.1l.18-.017l.265-.026c.132-.021.233-.053.286-.106c.19-.19.969-1.112 1.445-1.684m-9.932 2.25V9.883h.106v1.323c0 .1-.042.281-.164.514a3.5 3.5 0 0 1-.635.842c-.074.153-.095.582.508.984l-.053.085c-.656-.434-.65-.921-.55-1.122v-.01l.01-.006a3.4 3.4 0 0 0 .625-.82c.116-.228.153-.393.153-.467m.816 1.62a.6.6 0 0 0-.26-.248l.053-.096a.7.7 0 0 1 .297.297a.58.58 0 0 1-.01.566l-.096-.042a.51.51 0 0 0 .016-.477"/><defs><linearGradient id="SVGnPl2fekE" x1="3.818" x2="17.856" y1="14.333" y2="8.11" gradientUnits="userSpaceOnUse"><stop stop-color="#12a0ba"/><stop offset="1" stop-color="#4be2fe"/></linearGradient><linearGradient id="SVGMMy99cLb" x1="3.133" x2="20.265" y1="12.578" y2="13.709" gradientUnits="userSpaceOnUse"><stop stop-color="#12a0ba"/><stop offset="1" stop-color="#4be2fe"/></linearGradient><linearGradient id="SVG5Sttodhv" x1="7.882" x2="13.757" y1="3.338" y2="20.498" gradientUnits="userSpaceOnUse"><stop stop-color="#ffff05"/><stop offset=".2" stop-color="#f6f67f"/><stop offset=".49" stop-color="#ffff60"/><stop offset="1" stop-color="#ffff5f"/></linearGradient><linearGradient id="SVGSrGvxcIe" x1="20.146" x2=".942" y1="3" y2="16.844" gradientUnits="userSpaceOnUse"><stop stop-color="#aff0fd"/><stop offset=".46" stop-color="#6de9ff"/><stop offset=".99" stop-color="#44b7c9"/></linearGradient></defs></g></svg>