<?xml version="1.0" encoding="UTF-8"?>
<!DOCTYPE svg PUBLIC "-//W3C//DTD SVG 1.1//EN" "http://www.w3.org/Graphics/SVG/1.1/DTD/svg11.dtd">
<svg xmlns="http://www.w3.org/2000/svg" version="1.1" width="512px" height="512px" style="shape-rendering:geometricPrecision; text-rendering:geometricPrecision; image-rendering:optimizeQuality; fill-rule:evenodd; clip-rule:evenodd" xmlns:xlink="http://www.w3.org/1999/xlink">
<g><path style="opacity:0.747" fill="#0e0c07" d="M 441.5,32.5 C 443.857,32.3367 446.19,32.5034 448.5,33C 465.586,42.2095 482.919,50.8761 500.5,59C 501.022,59.5613 501.355,60.228 501.5,61C 473.973,198.135 446.64,335.302 419.5,472.5C 387.213,475.718 354.879,478.218 322.5,480C 305.198,471.349 287.864,462.682 270.5,454C 265.314,431.906 260.314,409.74 255.5,387.5C 248.708,417.461 242.041,447.461 235.5,477.5C 209.592,480.659 183.592,483.159 157.5,485C 152.833,485.667 148.167,485.667 143.5,485C 126.5,476.5 109.5,468 92.5,459.5C 63.3955,326.738 35.0621,193.738 7.5,60.5C 40.5125,57.8321 73.5125,55.3321 106.5,53C 124.078,61.7055 141.578,70.5388 159,79.5C 162.455,97.5683 166.122,115.568 170,133.5C 175.9,105.5 181.733,77.4995 187.5,49.5C 216.825,47.273 246.158,45.4397 275.5,44C 291.833,52.5 308.167,61 324.5,69.5C 329.984,93.7526 335.151,118.086 340,142.5C 346.668,108.492 353.334,74.4924 360,40.5C 387.261,37.7991 414.428,35.1325 441.5,32.5 Z M 428.5,42.5 C 431.5,42.5 434.5,42.5 437.5,42.5C 411.629,174.52 385.629,306.52 359.5,438.5C 331.619,441.264 303.786,443.264 276,444.5C 262.333,372.5 248.667,300.5 235,228.5C 232.877,214.226 231.377,199.893 230.5,185.5C 228.61,185.297 227.11,185.963 226,187.5C 224.729,202.213 223.062,216.88 221,231.5C 205.639,302.474 190.472,373.474 175.5,444.5C 150.989,446.321 126.489,448.321 102,450.5C 100.564,450.441 99.231,450.108 98,449.5C 71.0042,322.519 44.1708,195.519 17.5,68.5C 44.8428,66.277 72.1762,63.9437 99.5,61.5C 112.009,129.88 124.842,198.213 138,266.5C 140.487,280.399 141.987,294.399 142.5,308.5C 144.167,308.5 145.833,308.5 147.5,308.5C 148.443,293.73 150.276,279.064 153,264.5C 166.643,195.786 180.476,127.12 194.5,58.5C 218.763,55.8947 243.097,53.8947 267.5,52.5C 282.677,126.887 298.177,201.22 314,275.5C 315.715,285.107 316.882,294.773 317.5,304.5C 319.144,304.714 320.644,304.38 322,303.5C 323.07,291.47 324.403,279.47 326,267.5C 339.251,194.153 353.084,120.986 367.5,48C 388.01,46.4308 408.343,44.5974 428.5,42.5 Z"/></g>
<g><path style="opacity:1" fill="#edd781" d="M 432.5,35.5 C 437.844,35.334 443.177,35.5006 448.5,36C 465.509,44.1698 482.176,52.8365 498.5,62C 471.257,198.135 444.257,334.301 417.5,470.5C 390.802,472.225 364.135,474.391 337.5,477C 332.167,477.667 326.833,477.667 321.5,477C 305.323,468.411 288.989,460.078 272.5,452C 266.909,429.384 262.076,406.55 258,383.5C 256.333,375.5 254.667,375.5 253,383.5C 246.6,414.198 240.1,444.864 233.5,475.5C 204.69,478.526 175.857,481.192 147,483.5C 129.438,474.969 111.938,466.303 94.5,457.5C 65.9656,325.965 37.9656,194.298 10.5,62.5C 42.4685,59.6389 74.4685,57.4722 106.5,56C 123.167,64.3333 139.833,72.6667 156.5,81C 160.97,101.78 165.303,122.613 169.5,143.5C 176.444,113.612 182.944,83.6124 189,53.5C 189.5,53 190,52.5 190.5,52C 218.181,49.8318 245.848,47.8318 273.5,46C 289.833,54.5 306.167,63 322.5,71.5C 328.985,97.9244 334.318,124.591 338.5,151.5C 339.5,151.5 340.5,151.5 341.5,151.5C 347.981,115.136 354.647,78.803 361.5,42.5C 385.353,40.5751 409.019,38.2418 432.5,35.5 Z M 428.5,42.5 C 408.343,44.5974 388.01,46.4308 367.5,48C 353.084,120.986 339.251,194.153 326,267.5C 324.403,279.47 323.07,291.47 322,303.5C 320.644,304.38 319.144,304.714 317.5,304.5C 316.882,294.773 315.715,285.107 314,275.5C 298.177,201.22 282.677,126.887 267.5,52.5C 243.097,53.8947 218.763,55.8947 194.5,58.5C 180.476,127.12 166.643,195.786 153,264.5C 150.276,279.064 148.443,293.73 147.5,308.5C 145.833,308.5 144.167,308.5 142.5,308.5C 141.987,294.399 140.487,280.399 138,266.5C 124.842,198.213 112.009,129.88 99.5,61.5C 72.1762,63.9437 44.8428,66.277 17.5,68.5C 44.1708,195.519 71.0042,322.519 98,449.5C 99.231,450.108 100.564,450.441 102,450.5C 126.489,448.321 150.989,446.321 175.5,444.5C 190.472,373.474 205.639,302.474 221,231.5C 223.062,216.88 224.729,202.213 226,187.5C 227.11,185.963 228.61,185.297 230.5,185.5C 231.377,199.893 232.877,214.226 235,228.5C 248.667,300.5 262.333,372.5 276,444.5C 303.786,443.264 331.619,441.264 359.5,438.5C 385.629,306.52 411.629,174.52 437.5,42.5C 434.5,42.5 431.5,42.5 428.5,42.5 Z"/></g>
<g><path style="opacity:0.749" fill="#0d0b06" d="M 431.5,39.5 C 434.5,39.5 437.5,39.5 440.5,39.5C 413.909,173.455 387.576,307.455 361.5,441.5C 332.137,443.392 302.803,445.725 273.5,448.5C 259.994,373.802 246.161,299.136 232,224.5C 230.829,213.801 229.496,203.134 228,192.5C 226.99,206.587 225.324,220.587 223,234.5C 207.881,305.212 192.548,375.879 177,446.5C 149.917,448.917 122.75,450.917 95.5,452.5C 69.0103,323.718 42.0103,195.051 14.5,66.5C 43.5052,64.208 72.5052,61.8747 101.5,59.5C 114.503,128.852 127.67,198.185 141,267.5C 142.333,278.83 143.666,290.163 145,301.5C 146.018,290.074 147.685,278.741 150,267.5C 164.153,196.891 177.986,126.224 191.5,55.5C 217.502,53.4998 243.502,51.4998 269.5,49.5C 284.629,125.312 300.462,200.979 317,276.5C 317.94,283.844 318.94,291.178 320,298.5C 320.906,288.491 321.906,278.491 323,268.5C 337.054,194.564 350.721,120.564 364,46.5C 386.572,43.8698 409.072,41.5365 431.5,39.5 Z M 428.5,42.5 C 408.343,44.5974 388.01,46.4308 367.5,48C 353.084,120.986 339.251,194.153 326,267.5C 324.403,279.47 323.07,291.47 322,303.5C 320.644,304.38 319.144,304.714 317.5,304.5C 316.882,294.773 315.715,285.107 314,275.5C 298.177,201.22 282.677,126.887 267.5,52.5C 243.097,53.8947 218.763,55.8947 194.5,58.5C 180.476,127.12 166.643,195.786 153,264.5C 150.276,279.064 148.443,293.73 147.5,308.5C 145.833,308.5 144.167,308.5 142.5,308.5C 141.987,294.399 140.487,280.399 138,266.5C 124.842,198.213 112.009,129.88 99.5,61.5C 72.1762,63.9437 44.8428,66.277 17.5,68.5C 44.1708,195.519 71.0042,322.519 98,449.5C 99.231,450.108 100.564,450.441 102,450.5C 126.489,448.321 150.989,446.321 175.5,444.5C 190.472,373.474 205.639,302.474 221,231.5C 223.062,216.88 224.729,202.213 226,187.5C 227.11,185.963 228.61,185.297 230.5,185.5C 231.377,199.893 232.877,214.226 235,228.5C 248.667,300.5 262.333,372.5 276,444.5C 303.786,443.264 331.619,441.264 359.5,438.5C 385.629,306.52 411.629,174.52 437.5,42.5C 434.5,42.5 431.5,42.5 428.5,42.5 Z"/></g>
</svg>
