<svg xmlns="http://www.w3.org/2000/svg" viewBox="0 0 256 300"><path fill="#ea5906" d="M200.173 72.554c7.074.022 12.804 5.752 12.826 12.826v1.315c8.598 1.404 37.508 11.11 37.508 42.363v67.994c3.396 2.252 5.493 5.324 5.493 8.71a9.73 9.73 0 0 1-3.384 7.052l-.013.363c-.142 5.078 1.244 14.612 1.866 18.277l.024.25v.05c-.003.548-.11 5.079-3.13 8.128a9.58 9.58 0 0 1-7.104 2.722c-9.242 0-9.635-7.766-9.826-11.5c-.022-.473-.04-.9-.078-1.274c-.15-1.543-.692-2.332-1.61-2.347h-.09c-.981 0-1.618.297-2.667 1.895c-2.91 4.309-8.19 3.895-11.008 2.23a6.16 6.16 0 0 1-3.002-4.035c-.526-2.42.352-5.286 2.607-8.518a9.58 9.58 0 0 0 1.989-6.248a9.73 9.73 0 0 1-3.381-7.045c0-3.393 2.106-6.474 5.518-8.726v-61.258c0-5.103-1.571-7.048-4.806-9.94a9.7 9.7 0 0 0-4.906-2.283v97.768c-.02 7.075-5.751 12.806-12.826 12.826h-9.096v35.955h7.391l.143.027c.13.023 12.659 2.497 14.16 15.963v13.798h-44.669l-13.735-4.798V284.65c-.344-5.391.625-9.39 2.8-11.58v-38.921H98.564v38.92c2.177 2.19 3.139 6.19 2.801 11.58v10.446l-13.735 4.797H42.964v-13.797c1.5-13.466 14.026-15.94 14.152-15.963l.149-.028h7.392V234.15h-8.83c-7.075-.022-12.805-5.752-12.827-12.826v-97.775a9.7 9.7 0 0 0-4.902 2.29c-3.235 2.891-4.81 4.837-4.81 9.94v61.258c3.413 2.252 5.519 5.332 5.519 8.725a9.72 9.72 0 0 1-3.378 7.046a9.56 9.56 0 0 0 1.986 6.247c2.255 3.232 3.133 6.1 2.61 8.518a6.17 6.17 0 0 1-3.006 4.037c-2.821 1.663-8.095 2.078-11.008-2.23c-1.049-1.6-1.686-1.896-2.669-1.896h-.086c-.919.015-1.463.804-1.608 2.347c-.039.375-.06.8-.085 1.274c-.188 3.733-.58 11.5-9.82 11.5a9.6 9.6 0 0 1-7.107-2.722c-2.952-2.984-3.12-7.384-3.127-8.088v-.09l.022-.25c.64-3.755 2.078-13.668 1.853-18.64A9.73 9.73 0 0 1 0 205.761c0-3.386 2.094-6.458 5.493-8.71v-67.994c0-31.253 28.906-40.96 37.507-42.363V85.38c.023-7.074 5.752-12.803 12.827-12.826Zm8.997 211.66h-38.54q.094.942.064 1.89h38.828a18 18 0 0 0-.352-1.89m-124.066 0H46.56a17 17 0 0 0-.35 1.89h38.826q-.028-.948.068-1.89m9.43-9.608l-.176.01c-.578.047-1.611.6-2.774 2.023a15.3 15.3 0 0 0-3.322 9.241l9.938-3.47c-.029-3.334-.709-5.858-1.946-7.085a2.3 2.3 0 0 0-1.896-.709Zm66.838.01a2.3 2.3 0 0 0-1.896.71c-1.234 1.226-1.914 3.75-1.945 7.084l9.937 3.47a15.3 15.3 0 0 0-3.321-9.241c-1.163-1.423-2.196-1.977-2.775-2.023m-71.115-1.28H57.58c-1.003.226-7.708 2.004-10.411 8.941h38.25a19.2 19.2 0 0 1 3.661-7.686a13 13 0 0 1 1.176-1.255m107.893 0h-32.674q.627.589 1.17 1.255a19.2 19.2 0 0 1 3.665 7.686h38.25c-2.704-6.937-9.409-8.715-10.411-8.941M70.663 234.149h-4.067v35.955h4.067zm118.475 0h-4.068v35.955h4.068zm-24.32 0H160.4v35.955h4.417v-7.97h-1.51v-6.79h1.51zm-69.485 0h-4.417v21.195h1.51v6.79h-1.51v7.97h4.417zM6.616 215.155a147 147 0 0 1-1.874 16.692c.021.625.222 3.783 2.208 5.778a6.4 6.4 0 0 0 4.794 1.748c2.273 0 3.736-.617 4.698-1.636a7.24 7.24 0 0 1-4.306-2.528c-1.215-1.604-1.472-3.686-.764-6.185c.251-.885.455-1.581.632-2.174c.229-.772.406-1.37.566-2.007l.068-.276c.325-1.352.6-3.002 1.14-6.845a23.9 23.9 0 0 1-7.162-2.567m242.768 0a24 24 0 0 1-7.163 2.567c.542 3.843.817 5.493 1.14 6.845l.068.276l.07.271l.073.27c.123.452.26.914.424 1.466q.323 1.085.63 2.174c.71 2.499.452 4.58-.763 6.185a7.24 7.24 0 0 1-4.305 2.528c.961 1.02 2.424 1.636 4.7 1.636a6.4 6.4 0 0 0 4.795-1.748c1.985-1.995 2.186-5.153 2.205-5.778a148 148 0 0 1-1.874-16.692m-17.728 2.691a25.6 25.6 0 0 1-3.097 3.838a18 18 0 0 0-2.97 3.832a1.7 1.7 0 0 0-.141 1.396a3.4 3.4 0 0 0 1.193 1.443q.371-.349.66-.77c1.147-1.75 2.64-3.364 5.495-3.333c2.676.043 4.464 2.013 4.776 5.27q.06.709.09 1.42c.042 1.263.186 2.52.433 3.76c.934-.105 2.459-.466 3.198-1.45c.566-.755.64-1.88.222-3.35c-.244-.869-.445-1.553-.618-2.137c-.773-2.602-1.002-3.38-1.878-9.607a29.8 29.8 0 0 1-7.364-.312m-207.312 0a29.7 29.7 0 0 1-7.363.312c-.645 4.601-.94 6.228-1.363 7.814l-.076.28c-.129.468-.272.947-.44 1.513c-.173.584-.373 1.268-.621 2.137c-.415 1.47-.337 2.595.226 3.35c.738.983 2.264 1.345 3.197 1.45a22.6 22.6 0 0 0 .434-3.761a35 35 0 0 1 .092-1.42c.313-3.256 2.097-5.226 4.773-5.27c2.854-.03 4.349 1.584 5.499 3.335q.285.421.655.77c.527-.36.94-.86 1.194-1.444a1.7 1.7 0 0 0-.142-1.396a18 18 0 0 0-2.97-3.832a26 26 0 0 1-3.095-3.838m199.36-2.75a13.9 13.9 0 0 1-2.469 5.812c-1.695 2.428-2.422 4.497-2.1 5.978a2.96 2.96 0 0 0 1.49 1.936a6.3 6.3 0 0 0 3.465.703a5.15 5.15 0 0 1-1.083-1.76a4.28 4.28 0 0 1 .273-3.405a20.2 20.2 0 0 1 3.378-4.427a31 31 0 0 0 2.285-2.687a23 23 0 0 1-5.24-2.15m-191.408 0a23 23 0 0 1-5.239 2.15a31 31 0 0 0 2.285 2.687a20 20 0 0 1 3.378 4.427a4.28 4.28 0 0 1 .272 3.405a5.2 5.2 0 0 1-1.08 1.76a6.3 6.3 0 0 0 3.461-.703a2.95 2.95 0 0 0 1.494-1.936c.322-1.481-.409-3.55-2.103-5.978a13.9 13.9 0 0 1-2.468-5.811m163.086-21.613H60.615v19.114c.021 7.075 5.751 12.805 12.826 12.826h5.11c-7.878-1.329-13.422-8.472-12.755-16.432s7.322-14.082 15.31-14.082s14.644 6.121 15.311 14.082c.667 7.96-4.877 15.103-12.754 16.432h26.995c-7.862-1.354-13.38-8.501-12.7-16.45s7.33-14.055 15.309-14.055s14.628 6.106 15.308 14.055s-4.837 15.096-12.7 16.45h66.684c7.074-.022 12.802-5.751 12.823-12.825zm-75.79 6.471a12.17 12.17 0 1 0 4.087 4.14l-8.917 8.921a2.91 2.91 0 0 1-4.117-4.114Zm-38.485-1.814a12.132 12.132 0 0 0-2.909 23.91v-11.98a2.91 2.91 0 0 1 2.907-2.91a2.91 2.91 0 0 1 2.91 2.91v11.98a12.132 12.132 0 0 0-2.908-23.91m78.383 18.073a2.91 2.91 0 0 1 0 5.817h-11.645a2.91 2.91 0 0 1 0-5.817Zm23.234-8.729a2.91 2.91 0 0 1 0 5.818h-34.88a2.91 2.91 0 1 1 0-5.818Zm0-8.726a2.91 2.91 0 0 1 0 5.818h-34.88a2.91 2.91 0 0 1 0-5.818ZM43 91.263a47.5 47.5 0 0 0-17.27 7.543c-10.426 7.34-15.712 17.518-15.712 30.252v63.884h14.868V135.78c0-7.525 2.56-14.92 7.611-19.436A26.86 26.86 0 0 1 43 110.767Zm169.999 0v19.504a26.9 26.9 0 0 1 10.507 5.576c5.047 4.515 7.608 11.911 7.608 19.436v57.163h14.868v-63.884c0-12.734-5.286-22.912-15.712-30.252a47.5 47.5 0 0 0-17.271-7.543m-17.617 67.713c-4.237-4.822-7.553-5.438-10.244-5.1c-2.171.268-4.608 2.715-6.947 5.338c-2.947 3.313-6.288 7.067-10.843 7.067c-3.279 0-5.994-2.159-8.877-4.441c-3.863-3.062-8.24-6.532-15.341-6.876c-5.548-.272-10.086 4.605-12.916 8.741a48.6 48.6 0 0 0-3.742 6.613h68.91ZM81.684 134.377h-2.218L64.565 169.91h2.214zm13.562.771c-9.594 0-15.975 7.738-15.975 16.383v.09c0 8.641 6.291 16.29 15.885 16.29c9.591 0 15.972-7.738 15.972-16.38c.046-.046.046-.046 0-.092c0-8.643-6.288-16.29-15.882-16.29m-31.538.544h-2.354v31.675h2.354zm31.448 1.582c7.825 0 13.528 6.427 13.528 14.256v.09c0 7.827-5.61 14.164-13.438 14.164s-13.531-6.426-13.531-14.254v-.09c0-7.829 5.613-14.166 13.441-14.166m100.226-4.446h-70.695v28.684c3.981-6.176 10.247-12.768 18.724-12.356c8.967.43 14.581 4.877 18.672 8.121c2.067 1.64 4.015 3.186 5.264 3.186c1.946 0 4.26-2.6 6.502-5.116c3.04-3.417 7.136-7.178 11.936-7.29c3.921-.092 6.563.678 9.597 2.924zm-12.825-52.192H73.44c-7.075.02-12.806 5.75-12.826 12.826v15.99h134.768v-15.99c-.02-7.075-5.75-12.806-12.825-12.826m-112.565 20.09v5.387h-5.387v-5.388zm9.05 0v5.387h-5.388v-5.388zm9.05 0v5.387h-5.388v-5.388zm9.053 0v5.387h-5.388v-5.388zM175.285 0c7.076.02 12.808 5.75 12.83 12.826V54.72c-.022 7.077-5.754 12.807-12.83 12.827H80.713c-7.075-.02-12.806-5.751-12.826-12.827V12.826C67.907 5.751 73.638.02 80.714 0Zm0 3.232H80.713a9.607 9.607 0 0 0-9.594 9.594V54.72a9.607 9.607 0 0 0 9.595 9.595h94.571a9.607 9.607 0 0 0 9.597-9.595V12.826a9.607 9.607 0 0 0-9.597-9.594m-111.87 20.26v33.389a16.695 16.695 0 1 1 0-33.388m129.172.003c9.218 0 16.69 7.474 16.69 16.692c0 9.22-7.474 16.693-16.692 16.692V23.495Zm-89.367-1.619c9.435 0 17.085 7.648 17.086 17.084s-7.647 17.086-17.083 17.087a17.085 17.085 0 0 1-17.088-17.085c0-9.436 7.649-17.085 17.085-17.086m49.557 0c9.436 0 17.086 7.648 17.087 17.084c0 9.436-7.648 17.086-17.084 17.087a17.085 17.085 0 0 1-17.088-17.085c0-9.436 7.65-17.085 17.085-17.086m-49.554 3.233a13.853 13.853 0 0 0-13.856 13.853c0 7.65 6.201 13.852 13.852 13.853c7.65 0 13.852-6.2 13.854-13.851c0-7.65-6.2-13.853-13.85-13.855m49.557 0a13.853 13.853 0 0 0-13.856 13.853c0 7.65 6.202 13.852 13.852 13.853s13.853-6.2 13.854-13.851c.001-7.65-6.2-13.853-13.85-13.855m-53.994 3.143a11.593 11.593 0 1 1 8.872 21.42a11.593 11.593 0 0 1-8.872-21.42m53.991-.883c6.402 0 11.593 5.19 11.593 11.592s-5.19 11.593-11.592 11.593a11.593 11.593 0 1 1-.001-23.185m28.547 12.274l.001 5.388h-5.388v-5.388zm0-7.754l.001 5.385h-5.388V31.89z"/></svg>