<?xml version="1.0" encoding="UTF-8"?>
<svg width="218px" height="109px" viewBox="0 0 218 109" version="1.1" xmlns="http://www.w3.org/2000/svg" xmlns:xlink="http://www.w3.org/1999/xlink">
    <title>business-consumer-logo</title>
    <g id="business-consumer-logo" stroke="none" stroke-width="1" fill="none" fill-rule="evenodd">
        <rect id="Rectangle" x="0" y="0" width="218" height="109"></rect>
        <g id="wizconnected_logo" transform="translate(0.000000, 20.000000)" fill-rule="nonzero">
            <g id="Group">
                <path d="M95.0597818,69 C93.7018452,68.9957452 92.4012206,68.4533284 91.444034,67.4920764 C90.4868473,66.5308244 89.9515075,65.2294792 89.955759,63.8743251 L89.955759,38.8565327 C89.955759,36.0434488 92.2409219,33.7629937 95.0597818,33.7629937 C97.8786417,33.7629937 100.163805,36.0434488 100.163805,38.8565327 L100.163805,63.8743251 C100.168056,65.2294792 99.6327163,66.5308244 98.6755297,67.4920764 C97.718343,68.4533284 96.4177184,68.9957452 95.0597818,69" id="Path" fill="#001B2C"></path>
                <path d="M89.7786741,24.7970796 C89.7964619,21.9125725 92.1477692,19.5852581 95.0382477,19.591164 C97.9287262,19.5970924 100.270446,21.9340139 100.276387,24.8185696 C100.282305,27.7031253 97.9502116,30.0496147 95.0597818,30.067366 C93.6634132,30.0631111 92.3259306,29.5054583 91.3415684,28.5170865 C90.3572062,27.5287147 89.8065992,26.190587 89.810876,24.7970796" id="Path" fill="#0088CE"></path>
                <path d="M144.360854,21.1175199 L109.405718,21.1175199 C106.619012,21.1291292 104.318404,18.9466126 104.189014,16.1685924 C104.132193,14.7831852 104.642002,13.4342202 105.601431,12.431308 C106.56086,11.4283957 107.887517,10.8576628 109.27691,10.8500744 L152.749443,10.8500744 C157.572659,10.8392003 161.815202,14.0293573 163.134548,18.6591241 C164.52244,23.2866088 162.686341,28.2731827 158.626286,30.9028992 L125.957482,52.1447243 C124.80572,52.8855097 124.27222,54.2889163 124.641817,55.6056725 C125.011414,56.9224286 126.197802,57.8450611 127.567576,57.8809811 L172.77901,57.8809811 C175.565716,57.8693718 177.866324,60.0518885 177.995714,62.8299086 C178.052632,64.2180921 177.540649,65.5695529 176.57771,66.5729591 C175.614771,67.5763653 174.283911,68.1451914 172.891717,68.1483988 L119.211189,68.1483988 C114.395092,68.1058998 110.174203,64.9231284 108.817818,60.3112536 C107.461433,55.6993788 109.289118,50.7449617 113.318246,48.1116698 L146.051453,26.8698447 C147.101053,26.0722832 147.557026,24.7165084 147.202111,23.4485154 C146.847196,22.1805224 145.753189,21.2568156 144.441359,21.1175199" id="Path" fill="#001B2C"></path>
                <path d="M50.3796784,26.5324178 C49.4242597,22.6101941 45.9926002,19.78574 41.9523234,19.5962175 C37.9120467,19.4066951 34.2300345,21.897459 32.9101605,25.7129526 L24.4249661,49.8148721 C23.9701516,51.1154512 22.7101688,51.9607424 21.3316534,51.8900989 C19.953138,51.8194553 18.786546,50.8498115 18.467619,49.5095811 L10.1595349,14.818885 C9.58743591,12.4100034 7.37186522,10.7534207 4.89452815,10.8822381 C3.3485639,10.964117 1.9207918,11.7332765 1.00392666,12.978156 C0.0870615115,14.2230355 -0.222329721,15.8125206 0.160852335,17.3094166 L10.4976546,60.1626295 C11.5763963,64.8586575 15.6461963,68.2704887 20.4674218,68.5205742 C25.2886473,68.7706597 29.6909683,65.7982924 31.2517639,61.2391819 L39.302233,38.3905622 C39.579872,37.6592701 40.2989819,37.1906173 41.0815652,37.2309496 C41.8641485,37.2712819 42.5310571,37.8113664 42.7317328,38.5673096 L47.9162349,60.1626295 C48.9949766,64.8586575 53.0647766,68.2704887 57.8860021,68.5205742 C62.7072276,68.7706597 67.1095486,65.7982924 68.6703442,61.2391819 L87.717754,6.83311562 C88.182809,5.53178597 88.10351,4.09843521 87.497729,2.85610619 C86.8919481,1.61377718 85.8106619,0.667012317 84.4975664,0.229189679 C81.8063098,-0.595519139 78.9473678,0.873819011 78.0571911,3.53918662 L61.8435464,49.8148721 C61.3887319,51.1154512 60.1287491,51.9607424 58.7502337,51.8900989 C57.3717183,51.8194553 56.2051262,50.8498115 55.8861993,49.5095811 L50.3796784,26.5324178 Z" id="Path" fill="#001B2C"></path>
            </g>
        </g>
    </g>
</svg>