<svg xmlns="http://www.w3.org/2000/svg" viewBox="0 0 24 24"><g fill="none"><path fill="url(#SVGDHyUyeOs)" d="M8.062 12.872v5.738L3 15.825zm3.246-1.912l-1.558.927V15.6l4.787-2.784z"/><path fill="url(#SVGbgkc5cUO)" d="M14.537 12.816L9.75 15.6v-3.713L8.063 12.9v5.704l3.245-2.076l4.843-2.784z"/><path fill="url(#SVGse5b0ddn)" d="M8.062 7.472v5.45L3 15.826V4.688zm1.688.703v3.712l1.558-.928l3.223 1.857V5.39zm6.401 5.569l-4.843 2.784l4.843 2.785L21 16.528z"/><path fill="url(#SVGTswoqdGQ)" d="m9.693 8.175l6.464 3.712L21 9.103l-6.463-3.712z"/><defs><linearGradient id="SVGDHyUyeOs" x1="5.045" x2="21.628" y1="17.968" y2="9.465" gradientUnits="userSpaceOnUse"><stop stop-color="#08a5b1"/><stop offset=".67" stop-color="#6fc6a6"/><stop offset="1" stop-color="#cae5c2"/></linearGradient><linearGradient id="SVGbgkc5cUO" x1="-.129" x2="17.771" y1="15.197" y2="3.7" gradientUnits="userSpaceOnUse"><stop stop-color="#222c5f"/><stop offset=".45" stop-color="#50489d"/><stop offset="1" stop-color="#2d7dc1"/></linearGradient><linearGradient id="SVGse5b0ddn" x1="2.533" x2="18.182" y1="14.548" y2="8.828" gradientUnits="userSpaceOnUse"><stop stop-color="#4ba5dc"/><stop offset=".7" stop-color="#79cfe3"/><stop offset="1" stop-color="#90d7ee"/></linearGradient><linearGradient id="SVGTswoqdGQ" x1="11.071" x2="19.599" y1="5.981" y2="11.336" gradientUnits="userSpaceOnUse"><stop stop-color="#50489d"/><stop offset=".7" stop-color="#2d7dc1"/><stop offset="1" stop-color="#44baeb"/></linearGradient></defs></g></svg>