<svg xmlns="http://www.w3.org/2000/svg" viewBox="0 0 24 24"><g fill="none"><path fill="#ff4f24" fill-rule="evenodd" d="M16.984 14.08c.492-.053.815-.095.99-.38a.69.69 0 0 0 .031-.62a9 9 0 0 0-.619-1.243a3.7 3.7 0 0 1-.38-.762c-.043-.693-1.853-2.947-3.006-3.937a4.4 4.4 0 0 0-.487-1.185a1.16 1.16 0 0 0-.979-.65a1 1 0 0 0-.503.142a2.7 2.7 0 0 0-.687.571A10 10 0 0 0 9.93 5.9q-.277 0-.556.027a2.7 2.7 0 0 0-.465-.604a1.12 1.12 0 0 0-.81-.328a1.18 1.18 0 0 0-.794.297a3.3 3.3 0 0 0-.693.851H6.55a.33.33 0 0 1-.286-.227a.32.32 0 0 1 .095-.35s-.18-.338-.254-.274c0 .005-.02 0-.031-.011l-.022-.005l-.031.031a8.974 8.974 0 0 0 1.11 14.27a8.9 8.9 0 0 0 3.445 1.324l.117.015c.106.011.063-.423.063-.423a1.78 1.78 0 0 1-1.56-1.746a1.72 1.72 0 0 1 1.386-1.81a4.6 4.6 0 0 1 1.016-.105c.597.016 1.195.074 1.783.18l.492.074h.042c.244.037.498.063.73.08c.106.01.228.01.339.01c1.196 0 1.862-.477 2.217-.884a.792.792 0 0 0-.365-1.275a.67.67 0 0 1-.561-.688a.2.2 0 0 1 .032-.085a.23.23 0 0 1 .159-.095q.255-.04.513-.069zm-5.312-2.873c.529 1.042 1.069.926 1.693.693c0 0-.37-1.799-1.693-.688z" clip-rule="evenodd"/><path fill="#a53a2f" d="M17.382 15.842c0 1.212-1.471 1.905-3.598 1.693c-1.429-.159-3.392-.063-3.767.672c-.635 1.249 1 2.672.926 2.667c-.128-.01-.117.053-.244.037l-.116-.021a8.9 8.9 0 0 1-3.852-1.593a6.94 6.94 0 0 1-2.228-2.677c-1.519-3.297.661-5.556 2.132-6.053c-2.227 1.878-1.164 5.063 1.08 5.65c.688.18 1.423.165 2.1-.052c.46-.106.89-.318 1.26-.598c0 0 3.47 1.053 4.683.825c.074-.016.142-.042.206-.063c.72-.228 1.058-.688.529-.99h-.016l.048-.031c.185-.127.857-.514.857.529zm-8.704-9.07a20 20 0 0 0-1.323.25c.096-.329.277-.626.524-.863a.3.3 0 0 1 .317-.01c.207.174.37.386.482.624"/><path fill="#ff4f24" fill-rule="evenodd" d="M12.005 20.466a8.466 8.466 0 1 0 0-16.931a8.466 8.466 0 0 0 0 16.93m0 .529a8.995 8.995 0 1 0 0-17.99a8.995 8.995 0 0 0 0 17.99" clip-rule="evenodd"/><path fill="#a53a2f" d="M16.238 14.117c-.423.212.175 1.148.53 1.587l.528.53c.635-1.27.794-2.472.794-2.91c-.53.793-1.323.528-1.852.793"/></g></svg>