<svg version="1.1" viewBox="0 0 128 128" xml:space="preserve" xmlns="http://www.w3.org/2000/svg">
<style type="text/css">
	.st0{fill:#F29111;}
	.st1{fill:#00758A;}
</style>
<g transform="matrix(.24609 0 0 .24609 1 10.13)" stroke-linecap="round" stroke-linejoin="round"><g stroke-width="30.716">
	
	
<path d="m356.16 7.3048-67.952 147.24a71.111 71.111 0 0 1 36.873 62.325 71.111 71.111 0 0 1-36.873 62.325l67.952 147.24a233.65 233.65 0 0 0 131.46-209.56 233.65 233.65 0 0 0-131.46-209.56z" fill="#a6a6a6"/><path d="m151.78 7.3048a233.65 233.65 0 0 0-131.46 209.56 233.65 233.65 0 0 0 131.46 209.56l67.952-147.24a71.111 71.111 0 0 1-36.873-62.325 71.111 71.111 0 0 1 36.873-62.325z" fill="#666"/><path d="m253.97-16.783a233.65 233.65 0 0 0-102.4 23.635l68.159 147.69a71.111 71.111 0 0 1 34.238-8.7857 71.111 71.111 0 0 1 34.238 8.7857l68.159-147.69a233.65 233.65 0 0 0-102.4-23.635z" fill="#fff"/><path d="m219.73 279.19-68.159 147.69a233.65 233.65 0 0 0 102.4 23.635 233.65 233.65 0 0 0 102.4-23.635l-68.159-147.69a71.111 71.111 0 0 1-34.238 8.7857 71.111 71.111 0 0 1-34.238-8.7857z" fill="#4c4c4c"/></g><path d="m313.78 99.122-25.571 55.421a71.111 71.111 0 0 1 36.873 62.325 71.111 71.111 0 0 1-36.873 62.325l25.571 55.421a132.06 132.06 0 0 0 72.254-117.75 132.06 132.06 0 0 0-72.254-117.75z" fill="#666" stroke-width="17.361"/><path d="m194.16 99.122a132.06 132.06 0 0 0-72.254 117.75 132.06 132.06 0 0 0 72.254 117.75l25.571-55.421a71.111 71.111 0 0 1-36.873-62.325 71.111 71.111 0 0 1 36.873-62.325z" fill="#333" stroke-width="17.361"/></g>
</svg>
