<svg version="1.1" viewBox="0 0 128 128" xmlns="http://www.w3.org/2000/svg">
 <path d="m4 115.95c0-0.0671 41.231-45.429 41.292-45.429 0.0818 0 11.81 12.817 11.788 12.883-9e-3 0.02775-6.721 7.3696-14.915 16.315l-14.899 16.265h-11.633c-6.398 0-11.633-0.01527-11.633-0.03398zm48.101-51.893c-26.437-28.56-48.078-51.952-48.09-51.982-0.0125-0.03026 5.3314-0.0545 11.875-0.05399l11.898 1e-3 47.706 51.54c26.238 28.347 47.885 51.738 48.104 51.981l0.39787 0.44102h-23.823zm23.935-13.339c-5.5078-5.69-6.0414-6.2611-5.9592-6.3765 0.0497-0.06968 6.7241-7.3701 14.832-16.223l14.742-16.096 24.349-2e-3 -0.30079 0.32596c-4.616 5.0022-41.511 44.622-41.553 44.622-0.0332 0-2.7826-2.8124-6.1099-6.2498z" fill="#f00" stroke-width=".068436"/>
</svg>
