<svg xmlns="http://www.w3.org/2000/svg" viewBox="0 0 24 24"><path fill="#ff267e" d="m10.178 6.27l1.015 3.828l-3.972.853l-.257-1.138l2.13-.47s-1.835-1.255-3.724.324c-.779.65-1.054 1.676-1.054 2.145c0 .682.189 2.56 2.325 3.226c1.557.29 3.029-.357 3.713-2.136h1.319s-.642 2.092-2.195 2.885c-.885.451-2.593 1.005-4.459-.1C3.813 14.829 3 13.787 3 11.77c0-1.536 1.616-4.44 4.812-4.05c.709.086 1.46.402 1.46.402l-.333-1.51zm7.672 6.182H6.148v-.9H17.85zm-5.043 1.45l1.015 3.827l1.239-.342l-.334-1.51s.752.315 1.461.402c3.195.39 4.812-2.515 4.812-4.05c0-2.016-.813-3.058-2.02-3.916c-1.865-1.105-3.574-.551-4.459-.1c-1.552.792-2.194 2.888-2.194 2.888h1.319c.684-1.779 2.156-2.43 3.713-2.14c2.136.667 2.325 2.544 2.325 3.227c0 .47-.275 1.494-1.054 2.145c-1.889 1.578-3.723.323-3.723.323l2.13-.47l-.258-1.137z"/></svg>