<svg xmlns="http://www.w3.org/2000/svg" viewBox="0 0 24 24"><g fill="none"><path fill="#fce058" fill-rule="evenodd" d="M12 20.505a8.506 8.506 0 1 0 0-17.011a8.506 8.506 0 0 0 0 17.01M12 21a9 9 0 1 0 0-18a9 9 0 0 0 0 18" clip-rule="evenodd"/><path fill="#fff" fill-rule="evenodd" d="M12 20.01a8.01 8.01 0 1 0 0-16.022a8.01 8.01 0 0 0 0 16.021m0 .494a8.505 8.505 0 1 0 0-17.01a8.505 8.505 0 0 0 0 17.01" clip-rule="evenodd"/><path fill="#fff" d="M15.375 8.063h-6.75V9.75h4.106l-4.106 4.894v1.293h6.75V14.25h-4.039l4.039-4.877z"/></g></svg>