<svg xmlns="http://www.w3.org/2000/svg" viewBox="0 0 24 24"><g fill="none"><path fill="#b97b5c" d="M14.755 3.09c.265.236.523.461.788.675c.315.27.528.506.624.726q.22.476.371.978l-.034.017c-.028.006-.044 0-.056-.028a4.5 4.5 0 0 0-1.27-1.727c-.243-.208-.507-.41-.783-.613q-.085-.066-.163.029l-.028.033c-.04.056-.028.096.017.135c.202.146.377.332.517.557c.124.191.282.383.462.563c.393.405.703.877.922 1.406l-.242.078a1.68 1.68 0 0 0-.455-1.006a3.8 3.8 0 0 1-.844-.98a1.8 1.8 0 0 0-.394-.494a.225.225 0 0 0-.253-.045q-.083.034-.073.13a.3.3 0 0 0 .022.095c.029.084 0 .112-.078.09c-.113-.04-.192 0-.248.101a.24.24 0 0 0-.028.191c.107.383.214.597.518.9c.236.237.45.563.635.968a2.4 2.4 0 0 0-.664-.158a.72.72 0 0 0-.444.113c-.259.157-.546.152-.799.349l-.275.236a.4.4 0 0 0-.04-.214q-.04-.083-.123-.056q-.135.026-.135.27l-.805-.686c-.157-.209-.343-.254-.557-.152q.027-.11-.225-.197l-.59-.203q-.185-.067-.41-.506a.26.26 0 0 1-.018-.191c.192-.647.675-.619 1.193-.568a.11.11 0 0 0 .101-.05a.12.12 0 0 0 .011-.125a.23.23 0 0 1-.017-.146c.017-.056.051-.095.107-.101c.147-.028.225-.023.355-.107a2.2 2.2 0 0 1 1.074-.354q1.167-.064 2.329.067z"/><path fill="#020202" d="M15.205 3.062q.506.39.968.821c.112.102.163.26.259.377c.056.068.078.057.056-.033c-.09-.445-.354-.788-.788-1.013c-.112-.062-.146-.124-.084-.191q.287-.042.523.034c.225.286.444.528.563.9c.157.511.253.9.59 1.4a.58.58 0 0 1 .056.529a.3.3 0 0 1-.202-.056a1 1 0 0 0-.253-.54q-.103-.11-.079.045c.011.09.028.168.056.253q.083.31-.18.14q-.203-.125-.185.248q-.185.1-.389-.135a4.3 4.3 0 0 0-.916-1.406a3.5 3.5 0 0 1-.461-.563a2.1 2.1 0 0 0-.518-.562c-.045-.034-.056-.079-.017-.13l.028-.033q.068-.094.169-.028c.27.202.534.404.776.613a4.5 4.5 0 0 1 1.271 1.726c.012.028.029.034.057.028l.034-.016l.005-.012a7 7 0 0 0-.377-.967c-.096-.214-.31-.456-.63-.72l-.787-.675c.14-.107.298-.113.461-.034z"/><path fill="#b97b5c" d="M15.616 3.023q-.084.1.084.192a1.44 1.44 0 0 1 .788 1.012c.022.096 0 .101-.057.034c-.095-.113-.146-.276-.258-.377q-.465-.432-.962-.821zm.844.006c-.017.09-.017.152.01.186c.344.422.597.9.749 1.423l.186.54c.078.225.112.467.09.72l-.147-.012a.58.58 0 0 0-.056-.528c-.337-.5-.433-.889-.596-1.4c-.113-.372-.326-.614-.563-.9c.113-.029.225-.04.327-.029"/><path fill="#020202" d="M16.46 3.029a.7.7 0 0 1 .297.033a7 7 0 0 1 1.058 2.667a.07.07 0 0 0 .062.01l.05-.01c.068-.023.096-.068.08-.147l-.204-1.198a2.4 2.4 0 0 0-.55-1.237c-.04-.045-.034-.073.022-.096a.3.3 0 0 1 .14-.017a.35.35 0 0 1 .22 0q.531 1.165.607 2.11q.042.507.135.686q-.404.125-.692.157a.27.27 0 0 1-.19-.09a1.8 1.8 0 0 0-.09-.72l-.186-.54a4 4 0 0 0-.748-1.423c-.029-.033-.029-.095-.012-.185"/><path fill="#b97b5c" d="M17.415 3.036a.3.3 0 0 0-.14.016q-.084.036-.023.096c.298.343.484.76.551 1.237c.056.394.13.788.208 1.199c.012.078-.017.123-.084.146l-.05.011a.07.07 0 0 1-.057-.011a.1.1 0 0 1-.028-.023a7 7 0 0 0-1.04-2.643zm.22 0c.309 0 .618 0 .928-.017c.45-.028.596.23.675.675q.178 1.08.416 2.16l-.225.056q-.177-.201-.506-.056a8 8 0 0 1-.096-1.277c.005-.529-.236-1.198-.726-1.435c-.157-.073-.224-.022-.18.158q.111.523.315.995c.209.479.158.985.236 1.508a.11.11 0 0 0-.095.028q-.093-.17-.135-.686q-.075-.945-.608-2.11"/><path fill="#020202" d="M18.923 5.852q-.086.212-.45-.057c-.08-.517-.028-1.023-.237-1.501a5.5 5.5 0 0 1-.315-.996q-.057-.268.18-.157c.49.236.732.9.732 1.434c-.006.422.022.844.09 1.277m-5.237-.175q-.17.067-.281-.084a39 39 0 0 1-.776-1.097c-.203-.298-.495-.478-.765-.692c-.158-.123-.203-.247-.141-.382a.16.16 0 0 1 .079-.068a.14.14 0 0 1 .101 0c.366.141.675.377.934.698q.546.674 1.001 1.355c.079.113.056.186-.067.237l-.08.033zm2.194.242c-.169.152-.31.152-.4-.017a2.74 2.74 0 0 0-.787-.984l.005.006c.304.422.299.675-.028.776l.012.169a3.4 3.4 0 0 0-.636-.968a1.75 1.75 0 0 1-.517-.9a.24.24 0 0 1 .028-.191c.056-.101.14-.14.247-.101c.079.022.107 0 .079-.09a.5.5 0 0 1-.022-.096q-.01-.094.073-.13a.225.225 0 0 1 .253.051c.157.147.298.293.393.49q.211.405.844.978c.225.209.383.546.456 1.007"/><path fill="#b97b5c" d="M14.177 4.323c.146.23.28.405.309.388c.022-.017-.073-.22-.225-.45c-.14-.225-.281-.394-.304-.383c-.022.017.079.22.225.45z"/><path fill="#020202" d="M10.25 4.183a1.86 1.86 0 0 1 1.8.653c.27.32.561.596.854.872c.096.095.09.168-.028.236l-.068.04a.21.21 0 0 1-.242-.012a3.5 3.5 0 0 1-.826-.788c-.31-.416-.911-.55-1.373-.601a.27.27 0 0 1-.236-.186a.17.17 0 0 1 .006-.135a.15.15 0 0 1 .106-.079z"/><path fill="#b97b5c" d="m15.48 5.905l-.81-.203c.327-.1.338-.354.029-.776v-.011h.006c.348.281.601.607.776.99m1.666-.073q-.507-.108-.642.146c-.01-.247.057-.332.186-.247c.169.112.23.067.174-.141l-.056-.253c-.011-.101.017-.113.085-.045q.202.21.253.54"/><path fill="#020202" d="M11.724 6.269q.048.015.028.056a.25.25 0 0 1-.113.124c-.056.022-.09.006-.095-.056v-.124l.022-.022a.06.06 0 0 1 .062-.012zm-.32.49l-.018.044a.03.03 0 0 1-.017.028l-.022.017a.06.06 0 0 1-.056 0q-.136-.082-.034-.208a.085.085 0 0 1 .123-.011c.04.034.045.073.023.13m.404.326c.028.112.113.185.197.168c.084-.028.124-.14.095-.253s-.118-.185-.202-.163c-.079.028-.118.135-.09.248m-.461.399l-.416-.118a.03.03 0 0 1-.017-.028c0-.017.005-.028.017-.045a.07.07 0 0 1 .056-.028a.8.8 0 0 0 .337-.096c.056-.023.096-.017.13.034q.075.11-.017.247a.1.1 0 0 1-.04.034a.1.1 0 0 1-.05 0m.495-.124c.04-.005.067.006.084.045l.011.05c0 .057-.028.074-.078.068l-.08-.01c-.072-.012-.084-.04-.033-.097a.17.17 0 0 1 .096-.056m-1.181.625c.05-.057.067-.124.033-.158c-.033-.04-.1-.028-.152.023c-.05.045-.061.112-.033.151c.034.04.101.029.152-.016m1.09-.164a.09.09 0 0 1 .09.074a.11.11 0 0 1-.033.106a.09.09 0 0 1-.101.012a.1.1 0 0 1-.056-.096q.008-.102.1-.096m-.342.321a.166.166 0 0 0 .107-.197a.15.15 0 0 0-.132-.108a.164.164 0 0 0-.172.203c.028.085.112.13.197.102m-.445.214a.23.23 0 0 1-.112-.073a.06.06 0 0 1-.011-.045l.005-.028l.017-.017a.13.13 0 0 1 .13-.028a.1.1 0 0 1 .056.056a.2.2 0 0 1-.006.095a.07.07 0 0 1-.034.034a.06.06 0 0 1-.045 0zm6.851 1.479q.338-.168.743-.101a.15.15 0 0 0 .146-.062l.045-.068c.034-.05.073-.056.123-.028c.242.14.467.14.664-.005c.056-.045.096-.034.107.045c0 .05 0 .095-.017.146a.13.13 0 0 1-.056.067a.12.12 0 0 1-.073.023a.37.37 0 0 0-.293.118a.18.18 0 0 1-.163.05l-.36-.078a.3.3 0 0 0-.146.006a1.5 1.5 0 0 0-.281.112c-.287.157-.715.011-.968-.152a.2.2 0 0 0-.14-.028l-.298.056c-.056.017-.073 0-.04-.056a.4.4 0 0 1 .147-.152a.19.19 0 0 1 .163-.005a.44.44 0 0 0 .292.022a.17.17 0 0 1 .158.028l.084.056a.2.2 0 0 0 .084.023c.029 0 .057 0 .08-.017m-4.972.14c.023-.095.073-.162.135-.185c.034-.011.056-.011.084.011c.017.012.023.028.028.045c0 .04-.01.057-.05.057q-.135-.01-.203.073zm2.548.423c.18-.023.366-.034.551-.045c.304-.012.4-.321.709-.377q.084-.02.084.073c0 .073-.028.135-.084.168c-.383.282-.844.389-1.384.304a.1.1 0 0 1-.073-.056a.11.11 0 0 1 0-.101a.1.1 0 0 1 .023-.023a.056.056 0 0 1 .073.012a.14.14 0 0 0 .101.045"/><path fill="#b97b5c" d="M11.926 10.217a.92.92 0 0 1-.568.073c.067-.315.461-.405.562-.073z"/><path fill="#020202" d="m14.789 10.162l.078-.045q.094-.052.113.056l.011.08c.017.09-.017.117-.101.09a.2.2 0 0 1-.118-.113a.06.06 0 0 1 0-.034a.06.06 0 0 1 .017-.034"/><path fill="#020202" fill-rule="evenodd" d="M11.397 5.723a20 20 0 0 0-1.063 2.036c-.056.13-.045.265-.017.405a.25.25 0 0 1-.022.147a1.4 1.4 0 0 0-.158.489q-.001.076.056.084c.254.057.428 0 .535-.152c.034-.05.056-.045.084 0c.056.13.147.17.281.141a1.8 1.8 0 0 0 .9-.506q.22-.255.253-.872c.017-.394 0-.76-.044-1.085c0-.17.044-.254.134-.276c.057-.011.096.005.124.056c.034.068.05.14.04.225q.001.195.008.385c.028 1.01.052 1.882-1.133 2.292c-.268.092-.563.085-.858.078c-.14-.003-.278-.006-.413.001a.16.16 0 0 0-.09.04a.17.17 0 0 0-.057.09a4 4 0 0 1-.602 1.479l.006.028l.023.017h.028a1.78 1.78 0 0 1 1.895.506c.056.056.096.045.124-.022c.197-.405.506-.698.94-.878c.022-.005.027-.022.027-.045c-.005-.05-.028-.056-.056-.028l-.084.068a.2.2 0 0 1-.13.056c-.442.014-.88.101-1.293.259a.1.1 0 0 1-.04-.017a.11.11 0 0 1-.05-.079c-.012-.118.056-.191.19-.203a.86.86 0 0 0 .423-.152a.94.94 0 0 0 .562-.073l.225-.022c.158-.011.169-.068.05-.169c-.039-.034-.05-.073-.027-.13q.051-.143.084 0l.017.057c.011.023.022.04.045.056a.1.1 0 0 0 .068.028c.168.023.32 0 .455-.056c.034.056.084.073.158.05a3.4 3.4 0 0 1 .596-.145q.084-.01.101-.096c.006-.034.028-.05.056-.05c.045 0 .085.01.118.044q.119.101.22.22l.056.039h.073a.35.35 0 0 0 .18-.124c.04-.045.028-.073-.022-.09l-.248-.084l-.006-.011l.012-.051q0-.015.017-.022a.04.04 0 0 1 .028-.012a.96.96 0 0 1 .478.18c.056.04.062.09.011.14l-.264.27a.145.145 0 0 1-.158.046a.3.3 0 0 1-.118-.079a.17.17 0 0 0-.135-.056a.5.5 0 0 0-.225.05a.15.15 0 0 1-.157-.01a.38.38 0 0 0-.377-.018c-.203.096-.197.14.034.147c.736.005 1.378.528 1.8 1.158c.039.051.078.056.129.023c.506-.355 1.147-.686 1.755-.45c.056.022.084 0 .078-.056l-.044-.62a.1.1 0 0 1 .022-.061a.08.08 0 0 1 .067-.022l.057.005c.056.006.078.04.084.101c.002.391.124.772.349 1.092q.015.006.031.002q.016-.006.025-.02c.546-.798 1.322-1.068 2.334-.787c.096.028.13-.011.09-.112c-.17-.424-.169-.962-.167-1.458q0-.185-.002-.359c-.022-.745-.179-1.512-.332-2.263l-.117-.583l.23-.056c.248.753.388 1.372.422 1.867q.034.414.017 1.94c0 .372.062.698.13 1.052a.2.2 0 0 0 .095.141c.81.495.911 1.406.236 2.104a.4.4 0 0 0-.112.225a31 31 0 0 0-.158 1.507c-.04.596-.911 1.26-1.35 1.502c-.292.169-.562.393-.692.736q-.116.304-.326.406a10 10 0 0 0-.692.41c-.317.204-1.037.382-1.363.462c-.097.024-.159.04-.167.044q-.109.069-.084.203a4.66 4.66 0 0 0 1.114 2.103l.078.023c.433.017.878.067 1.328.14q.195.033.349.158c.123.096.112.135-.045.118l-1.699-.208a.45.45 0 0 1-.315-.186c-.506-.691-1.086-1.53-.956-2.452a.2.2 0 0 1 .073-.13a.2.2 0 0 1 .13-.044c.632.02 1.242-.36 1.768-.687l.144-.09a1.5 1.5 0 0 0 .517-.55c.169-.293.439-.53.793-.704c.394-.191.726-.495.996-.9c.18-.27.188-.573.196-.884l.006-.173a1.7 1.7 0 0 1 .098-.477a3 3 0 0 0 .071-.254l-.006-.04l-.017-.022a.06.06 0 0 0-.062-.011q-.811.436-1.765.039c-.051-.023-.085-.006-.113.04l-.298.534a.26.26 0 0 0-.034.157q.01.1-.022.191c-.023.057-.062.09-.124.09l-.776-.017c-.017 0-.028 0-.04-.01a.1.1 0 0 1-.028-.029a.09.09 0 0 1 0-.084l.04-.056c.056-.085.123-.113.219-.074l.332.13q.022.008.046.005a.1.1 0 0 0 .044-.016a.12.12 0 0 0 .05-.085c.029-.253.135-.506.327-.765c.078-.112.067-.202-.034-.281a1.18 1.18 0 0 1-.45-.855a.58.58 0 0 0-.14-.354c-.763-.9-1.563-.366-2.307.13l-.056.038a.26.26 0 0 0-.096.13l-.19.523a.17.17 0 0 0 .022.163a.12.12 0 0 1 .028.112a.12.12 0 0 1-.079.09l-.574.209c-.062.016-.09.061-.073.129q.145.757.77.714c.057 0 .096.028.108.096v.04c.01.039-.006.061-.04.072c-.534.135-.995-.202-1.052-.815c0-.073-.039-.096-.1-.073a1.88 1.88 0 0 1-2.386-1.013a.86.86 0 0 1-.062-.467a.2.2 0 0 0-.056-.174a1.73 1.73 0 0 0-2.058-.478a.2.2 0 0 0-.113.113a5.1 5.1 0 0 0-.54 1.945c-.011.428-.011.856 0 1.272c.003.324-.108.612-.22.902c-.108.285-.219.572-.224.897c0 .46-.252.911-.491 1.34q-.117.206-.218.404c-.174.342-.412.596-.653.853c-.147.157-.296.316-.433.497c-.203.266-.481.462-.755.654l-.133.094a.16.16 0 0 0-.056.068v.045a.07.07 0 0 0 .033.045a.1.1 0 0 0 .028.006a.1.1 0 0 0 .029-.006a1.1 1.1 0 0 1 .658-.057q.074.01.123.08a.09.09 0 0 1 .012.09c-.023.039-.057.055-.113.055l-.07-.006a.8.8 0 0 0-.312.012a2.7 2.7 0 0 1-.65.082c-.227.01-.45.02-.66.092l-.211.081c-.325.128-.652.256-1 .251q-.456-.008-.027-.168c.556-.22 1.113-.394 1.67-.53a.23.23 0 0 0 .13-.084c.182-.202.394-.356.606-.509c.2-.145.4-.29.575-.475q.744-.809.872-1.085c.19-.417.393-.8.596-1.142c.147-.252.17-.511.193-.767c.02-.212.038-.421.127-.622c.282-.642.366-1.148.332-1.828a5.55 5.55 0 0 1 .563-2.43q.058-.12-.062-.08l-.596.198c-.09.028-.152 0-.18-.096l-.023-.05a.08.08 0 0 1 .006-.057q.002-.012.012-.018l.005-.004l.022-.017l.95-.304a.2.2 0 0 0 .113-.095l.304-.507a.34.34 0 0 0 .045-.168c0-.237.056-.462.157-.675a.5.5 0 0 0 .045-.242a.59.59 0 0 1 .26-.518q.068-.051.01-.112q-.262-.285-.112-.731q.17-.49.45-1.013c.214-.405.405-.827.562-1.277c.214-.1.394-.056.563.152zm3.28 6.12q-.002.255-.113.484a1.3 1.3 0 0 1-.338.416c-.14.118-.315.214-.506.281a1.86 1.86 0 0 1-1.687-.264a1.2 1.2 0 0 1-.338-.41a1.07 1.07 0 0 1-.011-.974q.118-.229.338-.416c.14-.113.309-.214.5-.281a1.86 1.86 0 0 1 1.693.264c.146.118.259.259.338.41a1.1 1.1 0 0 1 .123.49m3.88-.011l.147.208c.033.05.084.078.14.078q.505.035.934.17a.17.17 0 0 0 .18-.04a.19.19 0 0 0 .056-.191a.4.4 0 0 1 .028-.304c.085-.158.152-.146.208.022l.197.636a.3.3 0 0 1 0 .152c-.22.652-1.45.658-1.935.405c-.056-.034-.078-.085-.056-.146a.5.5 0 0 0 .023-.203a.24.24 0 0 0-.068-.14l-.562-.574a.15.15 0 0 1-.029-.169a.96.96 0 0 1 .265-.41q.167-.152.14.078l-.033.304v.034l.022.028l.028.017h.028l.051-.017a.06.06 0 0 0 .028-.023a.06.06 0 0 0 .012-.04a1.8 1.8 0 0 1 .016-.55a.14.14 0 0 1 .08-.102c.466-.236.955-.264 1.484-.073c.163.057.197.23.208.394q.008.084-.067.068a3.3 3.3 0 0 0-1.035.028a.8.8 0 0 0-.36.164q-.049.035-.107.072c-.056.028-.056.073-.023.124m2.048.478l-.31-1.058a.06.06 0 0 1 0-.034c0-.01.011-.022.023-.028a.05.05 0 0 1 .034 0q.013 0 .028.017l.281.366l.005.022l.096.394v.028l-.073.293q0 .015-.017.022a.045.045 0 0 1-.056 0l-.017-.022zm-1.721-.585c-.135.1-.124.18.022.241c.214.085.338.04.383-.14a.17.17 0 0 0-.045-.158a.15.15 0 0 0-.152-.04a.6.6 0 0 0-.208.097m-.664 1.046c-.022.022-.13-.068-.23-.197c-.102-.13-.164-.259-.135-.281s.129.067.23.197c.101.134.163.258.135.28" clip-rule="evenodd"/><path fill="#020202" fill-rule="evenodd" d="M11.948 11.624q.02.003.04-.006q.124-.077.123.073c-.017.377.394.71.765.653q.4-.063.804-.034c.27.023.372-.101.327-.371c-.012-.073.016-.096.084-.079a1 1 0 0 0 .18.023q.12.007.045-.096a.25.25 0 0 0-.14-.096a2.5 2.5 0 0 1-.754-.28c-.411-.248-1.018-.198-1.412 0a.22.22 0 0 0-.113.14c-.005.045.006.073.051.073m.81.455a1 1 0 0 1-.045-.275c0-.05.015-.1.045-.141q.092-.117-.079-.225a.23.23 0 0 0-.202-.017c-.242.09-.298.23-.186.416c.087.143.212.26.36.338a.07.07 0 0 0 .084-.011a.09.09 0 0 0 .023-.085m.974.083a.07.07 0 0 0 .044-.01v.006c.062-.045.096-.096.096-.169l-.011-.067a.13.13 0 0 0-.046-.05q-.049-.044-.106-.018c-.04.017-.057.045-.057.096q.006.083.028.163q.003.015.012.028q.015.018.04.02" clip-rule="evenodd"/><path fill="#020202" d="M15.88 14.009c.197-.023.343-.107.338-.18c-.006-.08-.17-.124-.366-.102c-.191.023-.338.102-.332.18c.011.08.169.124.366.102zm.253 1.445c.745-.07 1.481-.22 2.194-.45l.022.011a.06.06 0 0 1 .029.057v.056q.001.12-.107.163a8.5 8.5 0 0 1-2.25.461a3.4 3.4 0 0 1-1.598-.27c-.079-.033-.112-.09-.095-.18v-.061a.07.07 0 0 1 .04-.057a.07.07 0 0 1 .055 0q.834.345 1.71.27m-2.761 4.815q.305-.269.196-.731c-.01-.056.006-.096.057-.113l.056-.017l.04.006a.06.06 0 0 1 .027.034c.113.4.045.714-.19.95q-.061.058-.13.023l-.045-.023a.1.1 0 0 1-.028-.028a.08.08 0 0 1 .016-.107z"/></g></svg>