<svg width="128" height="128" version="1.1" viewBox="0 0 33.867 33.867" xmlns="http://www.w3.org/2000/svg">
 <defs>
  <clipPath id="clipPath192">
   <path transform="translate(-445.25 -235.42)" d="M 0,595.276 H 841.89 V 0 H 0 Z"/>
  </clipPath>
  <clipPath id="clipPath194">
   <path transform="translate(-468.64 -275.41)" d="M 0,595.276 H 841.89 V 0 H 0 Z"/>
  </clipPath>
  <clipPath id="clipPath196">
   <path transform="translate(-408.5 -279.11)" d="M 0,595.276 H 841.89 V 0 H 0 Z"/>
  </clipPath>
 </defs>
 <g transform="translate(-94.782 -33.699)">
  <g transform="matrix(.99579 0 0 1.0008 3.6022 1.007)" fill="#3c9f00">
   <path transform="matrix(.32906 0 0 -.32906 114.02 51.576)" d="m0 0-11.402-13.561 21.428-25.485c1.726-2.054 4.197-3.113 6.683-3.113 1.983 0 3.977 0.671 5.612 2.046 3.69 3.104 4.166 8.608 1.065 12.297z" clip-path="url(#clipPath192)"/>
   <path transform="matrix(.32906 0 0 -.32906 121.72 38.419)" d="m0 0c3.101 3.688 2.625 9.193-1.063 12.294-1.637 1.376-3.631 2.048-5.613 2.048-2.487 0-4.958-1.058-6.684-3.113l-21.428-25.486 11.402-13.559z" clip-path="url(#clipPath194)"/>
   <path transform="matrix(.32906 0 0 -.32906 101.93 37.2)" d="m0 0c-0.032 0.038-0.052 0.081-0.082 0.12l-6.229 7.407c-1.726 2.055-4.197 3.113-6.683 3.113-1.984 0-3.977-0.672-5.611-2.048-3.691-3.101-4.165-8.606-1.066-12.294l28.504-33.902-28.504-33.899c-3.099-3.69-2.625-9.193 1.066-12.297 1.634-1.375 3.627-2.046 5.611-2.046 2.486 0 4.957 1.059 6.683 3.111l6.229 7.408c0.03 0.041 0.05 0.083 0.082 0.122l31.615 37.601z" clip-path="url(#clipPath196)"/>
  </g>
 </g>
</svg>
